<?xml version="1.0" encoding="utf-8" standalone="no"?>
<!DOCTYPE svg PUBLIC "-//W3C//DTD SVG 1.1//EN"
  "http://www.w3.org/Graphics/SVG/1.1/DTD/svg11.dtd">
<svg xmlns:xlink="http://www.w3.org/1999/xlink" width="365.410312pt" height="177.823125pt" viewBox="0 0 365.410312 177.823125" xmlns="http://www.w3.org/2000/svg" version="1.1">
 <metadata>
  <rdf:RDF xmlns:dc="http://purl.org/dc/elements/1.1/" xmlns:cc="http://creativecommons.org/ns#" xmlns:rdf="http://www.w3.org/1999/02/22-rdf-syntax-ns#">
   <cc:Work>
    <dc:type rdf:resource="http://purl.org/dc/dcmitype/StillImage"/>
    <dc:date>2023-06-25T19:02:21.215873</dc:date>
    <dc:format>image/svg+xml</dc:format>
    <dc:creator>
     <cc:Agent>
      <dc:title>Matplotlib v3.7.1, https://matplotlib.org/</dc:title>
     </cc:Agent>
    </dc:creator>
   </cc:Work>
  </rdf:RDF>
 </metadata>
 <defs>
  <style type="text/css">*{stroke-linejoin: round; stroke-linecap: butt}</style>
 </defs>
 <g id="figure_1">
  <g id="patch_1">
   <path d="M -0 177.823125 
L 365.410312 177.823125 
L 365.410312 0 
L -0 0 
z
" style="fill: #ffffff"/>
  </g>
  <g id="axes_1">
   <g id="patch_2">
    <path d="M 23.410313 143.1 
L 358.210312 143.1 
L 358.210312 7.2 
L 23.410313 7.2 
z
" style="fill: #ffffff"/>
   </g>
   <g id="matplotlib.axis_1">
    <g id="xtick_1">
     <g id="line2d_1">
      <defs>
       <path id="mdbed9f838a" d="M 0 0 
L 0 3.5 
" style="stroke: #000000; stroke-width: 0.8"/>
      </defs>
      <g>
       <use xlink:href="#mdbed9f838a" x="51.310312" y="143.1" style="stroke: #000000; stroke-width: 0.8"/>
      </g>
     </g>
     <g id="text_1">
      <!-- 10 -->
      <g transform="translate(46.220312 156.17875) scale(0.08 -0.08)">
       <defs>
        <path id="DejaVuSans-31" d="M 794 531 
L 1825 531 
L 1825 4091 
L 703 3866 
L 703 4441 
L 1819 4666 
L 2450 4666 
L 2450 531 
L 3481 531 
L 3481 0 
L 794 0 
L 794 531 
z
" transform="scale(0.015625)"/>
        <path id="DejaVuSans-30" d="M 2034 4250 
Q 1547 4250 1301 3770 
Q 1056 3291 1056 2328 
Q 1056 1369 1301 889 
Q 1547 409 2034 409 
Q 2525 409 2770 889 
Q 3016 1369 3016 2328 
Q 3016 3291 2770 3770 
Q 2525 4250 2034 4250 
z
M 2034 4750 
Q 2819 4750 3233 4129 
Q 3647 3509 3647 2328 
Q 3647 1150 3233 529 
Q 2819 -91 2034 -91 
Q 1250 -91 836 529 
Q 422 1150 422 2328 
Q 422 3509 836 4129 
Q 1250 4750 2034 4750 
z
" transform="scale(0.015625)"/>
       </defs>
       <use xlink:href="#DejaVuSans-31"/>
       <use xlink:href="#DejaVuSans-30" x="63.623047"/>
      </g>
     </g>
    </g>
    <g id="xtick_2">
     <g id="line2d_2">
      <g>
       <use xlink:href="#mdbed9f838a" x="107.110312" y="143.1" style="stroke: #000000; stroke-width: 0.8"/>
      </g>
     </g>
     <g id="text_2">
      <!-- 20 -->
      <g transform="translate(102.020312 156.17875) scale(0.08 -0.08)">
       <defs>
        <path id="DejaVuSans-32" d="M 1228 531 
L 3431 531 
L 3431 0 
L 469 0 
L 469 531 
Q 828 903 1448 1529 
Q 2069 2156 2228 2338 
Q 2531 2678 2651 2914 
Q 2772 3150 2772 3378 
Q 2772 3750 2511 3984 
Q 2250 4219 1831 4219 
Q 1534 4219 1204 4116 
Q 875 4013 500 3803 
L 500 4441 
Q 881 4594 1212 4672 
Q 1544 4750 1819 4750 
Q 2544 4750 2975 4387 
Q 3406 4025 3406 3419 
Q 3406 3131 3298 2873 
Q 3191 2616 2906 2266 
Q 2828 2175 2409 1742 
Q 1991 1309 1228 531 
z
" transform="scale(0.015625)"/>
       </defs>
       <use xlink:href="#DejaVuSans-32"/>
       <use xlink:href="#DejaVuSans-30" x="63.623047"/>
      </g>
     </g>
    </g>
    <g id="xtick_3">
     <g id="line2d_3">
      <g>
       <use xlink:href="#mdbed9f838a" x="162.910312" y="143.1" style="stroke: #000000; stroke-width: 0.8"/>
      </g>
     </g>
     <g id="text_3">
      <!-- 30 -->
      <g transform="translate(157.820312 156.17875) scale(0.08 -0.08)">
       <defs>
        <path id="DejaVuSans-33" d="M 2597 2516 
Q 3050 2419 3304 2112 
Q 3559 1806 3559 1356 
Q 3559 666 3084 287 
Q 2609 -91 1734 -91 
Q 1441 -91 1130 -33 
Q 819 25 488 141 
L 488 750 
Q 750 597 1062 519 
Q 1375 441 1716 441 
Q 2309 441 2620 675 
Q 2931 909 2931 1356 
Q 2931 1769 2642 2001 
Q 2353 2234 1838 2234 
L 1294 2234 
L 1294 2753 
L 1863 2753 
Q 2328 2753 2575 2939 
Q 2822 3125 2822 3475 
Q 2822 3834 2567 4026 
Q 2313 4219 1838 4219 
Q 1578 4219 1281 4162 
Q 984 4106 628 3988 
L 628 4550 
Q 988 4650 1302 4700 
Q 1616 4750 1894 4750 
Q 2613 4750 3031 4423 
Q 3450 4097 3450 3541 
Q 3450 3153 3228 2886 
Q 3006 2619 2597 2516 
z
" transform="scale(0.015625)"/>
       </defs>
       <use xlink:href="#DejaVuSans-33"/>
       <use xlink:href="#DejaVuSans-30" x="63.623047"/>
      </g>
     </g>
    </g>
    <g id="xtick_4">
     <g id="line2d_4">
      <g>
       <use xlink:href="#mdbed9f838a" x="218.710312" y="143.1" style="stroke: #000000; stroke-width: 0.8"/>
      </g>
     </g>
     <g id="text_4">
      <!-- 40 -->
      <g transform="translate(213.620312 156.17875) scale(0.08 -0.08)">
       <defs>
        <path id="DejaVuSans-34" d="M 2419 4116 
L 825 1625 
L 2419 1625 
L 2419 4116 
z
M 2253 4666 
L 3047 4666 
L 3047 1625 
L 3713 1625 
L 3713 1100 
L 3047 1100 
L 3047 0 
L 2419 0 
L 2419 1100 
L 313 1100 
L 313 1709 
L 2253 4666 
z
" transform="scale(0.015625)"/>
       </defs>
       <use xlink:href="#DejaVuSans-34"/>
       <use xlink:href="#DejaVuSans-30" x="63.623047"/>
      </g>
     </g>
    </g>
    <g id="xtick_5">
     <g id="line2d_5">
      <g>
       <use xlink:href="#mdbed9f838a" x="274.510312" y="143.1" style="stroke: #000000; stroke-width: 0.8"/>
      </g>
     </g>
     <g id="text_5">
      <!-- 50 -->
      <g transform="translate(269.420312 156.17875) scale(0.08 -0.08)">
       <defs>
        <path id="DejaVuSans-35" d="M 691 4666 
L 3169 4666 
L 3169 4134 
L 1269 4134 
L 1269 2991 
Q 1406 3038 1543 3061 
Q 1681 3084 1819 3084 
Q 2600 3084 3056 2656 
Q 3513 2228 3513 1497 
Q 3513 744 3044 326 
Q 2575 -91 1722 -91 
Q 1428 -91 1123 -41 
Q 819 9 494 109 
L 494 744 
Q 775 591 1075 516 
Q 1375 441 1709 441 
Q 2250 441 2565 725 
Q 2881 1009 2881 1497 
Q 2881 1984 2565 2268 
Q 2250 2553 1709 2553 
Q 1456 2553 1204 2497 
Q 953 2441 691 2322 
L 691 4666 
z
" transform="scale(0.015625)"/>
       </defs>
       <use xlink:href="#DejaVuSans-35"/>
       <use xlink:href="#DejaVuSans-30" x="63.623047"/>
      </g>
     </g>
    </g>
    <g id="xtick_6">
     <g id="line2d_6">
      <g>
       <use xlink:href="#mdbed9f838a" x="330.310312" y="143.1" style="stroke: #000000; stroke-width: 0.8"/>
      </g>
     </g>
     <g id="text_6">
      <!-- 60 -->
      <g transform="translate(325.220312 156.17875) scale(0.08 -0.08)">
       <defs>
        <path id="DejaVuSans-36" d="M 2113 2584 
Q 1688 2584 1439 2293 
Q 1191 2003 1191 1497 
Q 1191 994 1439 701 
Q 1688 409 2113 409 
Q 2538 409 2786 701 
Q 3034 994 3034 1497 
Q 3034 2003 2786 2293 
Q 2538 2584 2113 2584 
z
M 3366 4563 
L 3366 3988 
Q 3128 4100 2886 4159 
Q 2644 4219 2406 4219 
Q 1781 4219 1451 3797 
Q 1122 3375 1075 2522 
Q 1259 2794 1537 2939 
Q 1816 3084 2150 3084 
Q 2853 3084 3261 2657 
Q 3669 2231 3669 1497 
Q 3669 778 3244 343 
Q 2819 -91 2113 -91 
Q 1303 -91 875 529 
Q 447 1150 447 2328 
Q 447 3434 972 4092 
Q 1497 4750 2381 4750 
Q 2619 4750 2861 4703 
Q 3103 4656 3366 4563 
z
" transform="scale(0.015625)"/>
       </defs>
       <use xlink:href="#DejaVuSans-36"/>
       <use xlink:href="#DejaVuSans-30" x="63.623047"/>
      </g>
     </g>
    </g>
    <g id="xtick_7">
     <g id="line2d_7">
      <defs>
       <path id="m5464d061c3" d="M 0 0 
L 0 2 
" style="stroke: #000000; stroke-width: 0.6"/>
      </defs>
      <g>
       <use xlink:href="#m5464d061c3" x="23.410313" y="143.1" style="stroke: #000000; stroke-width: 0.6"/>
      </g>
     </g>
    </g>
    <g id="xtick_8">
     <g id="line2d_8">
      <g>
       <use xlink:href="#m5464d061c3" x="37.360313" y="143.1" style="stroke: #000000; stroke-width: 0.6"/>
      </g>
     </g>
    </g>
    <g id="xtick_9">
     <g id="line2d_9">
      <g>
       <use xlink:href="#m5464d061c3" x="65.260312" y="143.1" style="stroke: #000000; stroke-width: 0.6"/>
      </g>
     </g>
    </g>
    <g id="xtick_10">
     <g id="line2d_10">
      <g>
       <use xlink:href="#m5464d061c3" x="79.210313" y="143.1" style="stroke: #000000; stroke-width: 0.6"/>
      </g>
     </g>
    </g>
    <g id="xtick_11">
     <g id="line2d_11">
      <g>
       <use xlink:href="#m5464d061c3" x="93.160313" y="143.1" style="stroke: #000000; stroke-width: 0.6"/>
      </g>
     </g>
    </g>
    <g id="xtick_12">
     <g id="line2d_12">
      <g>
       <use xlink:href="#m5464d061c3" x="121.060312" y="143.1" style="stroke: #000000; stroke-width: 0.6"/>
      </g>
     </g>
    </g>
    <g id="xtick_13">
     <g id="line2d_13">
      <g>
       <use xlink:href="#m5464d061c3" x="135.010312" y="143.1" style="stroke: #000000; stroke-width: 0.6"/>
      </g>
     </g>
    </g>
    <g id="xtick_14">
     <g id="line2d_14">
      <g>
       <use xlink:href="#m5464d061c3" x="148.960312" y="143.1" style="stroke: #000000; stroke-width: 0.6"/>
      </g>
     </g>
    </g>
    <g id="xtick_15">
     <g id="line2d_15">
      <g>
       <use xlink:href="#m5464d061c3" x="176.860312" y="143.1" style="stroke: #000000; stroke-width: 0.6"/>
      </g>
     </g>
    </g>
    <g id="xtick_16">
     <g id="line2d_16">
      <g>
       <use xlink:href="#m5464d061c3" x="190.810312" y="143.1" style="stroke: #000000; stroke-width: 0.6"/>
      </g>
     </g>
    </g>
    <g id="xtick_17">
     <g id="line2d_17">
      <g>
       <use xlink:href="#m5464d061c3" x="204.760312" y="143.1" style="stroke: #000000; stroke-width: 0.6"/>
      </g>
     </g>
    </g>
    <g id="xtick_18">
     <g id="line2d_18">
      <g>
       <use xlink:href="#m5464d061c3" x="232.660312" y="143.1" style="stroke: #000000; stroke-width: 0.6"/>
      </g>
     </g>
    </g>
    <g id="xtick_19">
     <g id="line2d_19">
      <g>
       <use xlink:href="#m5464d061c3" x="246.610312" y="143.1" style="stroke: #000000; stroke-width: 0.6"/>
      </g>
     </g>
    </g>
    <g id="xtick_20">
     <g id="line2d_20">
      <g>
       <use xlink:href="#m5464d061c3" x="260.560312" y="143.1" style="stroke: #000000; stroke-width: 0.6"/>
      </g>
     </g>
    </g>
    <g id="xtick_21">
     <g id="line2d_21">
      <g>
       <use xlink:href="#m5464d061c3" x="288.460312" y="143.1" style="stroke: #000000; stroke-width: 0.6"/>
      </g>
     </g>
    </g>
    <g id="xtick_22">
     <g id="line2d_22">
      <g>
       <use xlink:href="#m5464d061c3" x="302.410312" y="143.1" style="stroke: #000000; stroke-width: 0.6"/>
      </g>
     </g>
    </g>
    <g id="xtick_23">
     <g id="line2d_23">
      <g>
       <use xlink:href="#m5464d061c3" x="316.360312" y="143.1" style="stroke: #000000; stroke-width: 0.6"/>
      </g>
     </g>
    </g>
    <g id="xtick_24">
     <g id="line2d_24">
      <g>
       <use xlink:href="#m5464d061c3" x="344.260312" y="143.1" style="stroke: #000000; stroke-width: 0.6"/>
      </g>
     </g>
    </g>
    <g id="xtick_25">
     <g id="line2d_25">
      <g>
       <use xlink:href="#m5464d061c3" x="358.210312" y="143.1" style="stroke: #000000; stroke-width: 0.6"/>
      </g>
     </g>
    </g>
    <g id="text_7">
     <!-- 2θ (degrees) -->
     <g transform="translate(162.138984 168.751406) scale(0.09 -0.09)">
      <defs>
       <path id="DejaVuSans-3b8" d="M 2953 2219 
L 963 2219 
Q 1009 1284 1225 888 
Q 1494 400 1959 400 
Q 2428 400 2688 891 
Q 2916 1322 2953 2219 
z
M 2944 2750 
Q 2856 3638 2688 3950 
Q 2419 4444 1959 4444 
Q 1481 4444 1228 3956 
Q 1028 3563 969 2750 
L 2944 2750 
z
M 1959 4913 
Q 2709 4913 3138 4250 
Q 3566 3591 3566 2422 
Q 3566 1256 3138 594 
Q 2709 -72 1959 -72 
Q 1206 -72 781 594 
Q 353 1256 353 2422 
Q 353 3591 781 4250 
Q 1206 4913 1959 4913 
z
" transform="scale(0.015625)"/>
       <path id="DejaVuSans-20" transform="scale(0.015625)"/>
       <path id="DejaVuSans-28" d="M 1984 4856 
Q 1566 4138 1362 3434 
Q 1159 2731 1159 2009 
Q 1159 1288 1364 580 
Q 1569 -128 1984 -844 
L 1484 -844 
Q 1016 -109 783 600 
Q 550 1309 550 2009 
Q 550 2706 781 3412 
Q 1013 4119 1484 4856 
L 1984 4856 
z
" transform="scale(0.015625)"/>
       <path id="DejaVuSans-64" d="M 2906 2969 
L 2906 4863 
L 3481 4863 
L 3481 0 
L 2906 0 
L 2906 525 
Q 2725 213 2448 61 
Q 2172 -91 1784 -91 
Q 1150 -91 751 415 
Q 353 922 353 1747 
Q 353 2572 751 3078 
Q 1150 3584 1784 3584 
Q 2172 3584 2448 3432 
Q 2725 3281 2906 2969 
z
M 947 1747 
Q 947 1113 1208 752 
Q 1469 391 1925 391 
Q 2381 391 2643 752 
Q 2906 1113 2906 1747 
Q 2906 2381 2643 2742 
Q 2381 3103 1925 3103 
Q 1469 3103 1208 2742 
Q 947 2381 947 1747 
z
" transform="scale(0.015625)"/>
       <path id="DejaVuSans-65" d="M 3597 1894 
L 3597 1613 
L 953 1613 
Q 991 1019 1311 708 
Q 1631 397 2203 397 
Q 2534 397 2845 478 
Q 3156 559 3463 722 
L 3463 178 
Q 3153 47 2828 -22 
Q 2503 -91 2169 -91 
Q 1331 -91 842 396 
Q 353 884 353 1716 
Q 353 2575 817 3079 
Q 1281 3584 2069 3584 
Q 2775 3584 3186 3129 
Q 3597 2675 3597 1894 
z
M 3022 2063 
Q 3016 2534 2758 2815 
Q 2500 3097 2075 3097 
Q 1594 3097 1305 2825 
Q 1016 2553 972 2059 
L 3022 2063 
z
" transform="scale(0.015625)"/>
       <path id="DejaVuSans-67" d="M 2906 1791 
Q 2906 2416 2648 2759 
Q 2391 3103 1925 3103 
Q 1463 3103 1205 2759 
Q 947 2416 947 1791 
Q 947 1169 1205 825 
Q 1463 481 1925 481 
Q 2391 481 2648 825 
Q 2906 1169 2906 1791 
z
M 3481 434 
Q 3481 -459 3084 -895 
Q 2688 -1331 1869 -1331 
Q 1566 -1331 1297 -1286 
Q 1028 -1241 775 -1147 
L 775 -588 
Q 1028 -725 1275 -790 
Q 1522 -856 1778 -856 
Q 2344 -856 2625 -561 
Q 2906 -266 2906 331 
L 2906 616 
Q 2728 306 2450 153 
Q 2172 0 1784 0 
Q 1141 0 747 490 
Q 353 981 353 1791 
Q 353 2603 747 3093 
Q 1141 3584 1784 3584 
Q 2172 3584 2450 3431 
Q 2728 3278 2906 2969 
L 2906 3500 
L 3481 3500 
L 3481 434 
z
" transform="scale(0.015625)"/>
       <path id="DejaVuSans-72" d="M 2631 2963 
Q 2534 3019 2420 3045 
Q 2306 3072 2169 3072 
Q 1681 3072 1420 2755 
Q 1159 2438 1159 1844 
L 1159 0 
L 581 0 
L 581 3500 
L 1159 3500 
L 1159 2956 
Q 1341 3275 1631 3429 
Q 1922 3584 2338 3584 
Q 2397 3584 2469 3576 
Q 2541 3569 2628 3553 
L 2631 2963 
z
" transform="scale(0.015625)"/>
       <path id="DejaVuSans-73" d="M 2834 3397 
L 2834 2853 
Q 2591 2978 2328 3040 
Q 2066 3103 1784 3103 
Q 1356 3103 1142 2972 
Q 928 2841 928 2578 
Q 928 2378 1081 2264 
Q 1234 2150 1697 2047 
L 1894 2003 
Q 2506 1872 2764 1633 
Q 3022 1394 3022 966 
Q 3022 478 2636 193 
Q 2250 -91 1575 -91 
Q 1294 -91 989 -36 
Q 684 19 347 128 
L 347 722 
Q 666 556 975 473 
Q 1284 391 1588 391 
Q 1994 391 2212 530 
Q 2431 669 2431 922 
Q 2431 1156 2273 1281 
Q 2116 1406 1581 1522 
L 1381 1569 
Q 847 1681 609 1914 
Q 372 2147 372 2553 
Q 372 3047 722 3315 
Q 1072 3584 1716 3584 
Q 2034 3584 2315 3537 
Q 2597 3491 2834 3397 
z
" transform="scale(0.015625)"/>
       <path id="DejaVuSans-29" d="M 513 4856 
L 1013 4856 
Q 1481 4119 1714 3412 
Q 1947 2706 1947 2009 
Q 1947 1309 1714 600 
Q 1481 -109 1013 -844 
L 513 -844 
Q 928 -128 1133 580 
Q 1338 1288 1338 2009 
Q 1338 2731 1133 3434 
Q 928 4138 513 4856 
z
" transform="scale(0.015625)"/>
      </defs>
      <use xlink:href="#DejaVuSans-32"/>
      <use xlink:href="#DejaVuSans-3b8" x="63.623047"/>
      <use xlink:href="#DejaVuSans-20" x="124.804688"/>
      <use xlink:href="#DejaVuSans-28" x="156.591797"/>
      <use xlink:href="#DejaVuSans-64" x="195.605469"/>
      <use xlink:href="#DejaVuSans-65" x="259.082031"/>
      <use xlink:href="#DejaVuSans-67" x="320.605469"/>
      <use xlink:href="#DejaVuSans-72" x="384.082031"/>
      <use xlink:href="#DejaVuSans-65" x="422.945312"/>
      <use xlink:href="#DejaVuSans-65" x="484.46875"/>
      <use xlink:href="#DejaVuSans-73" x="545.992188"/>
      <use xlink:href="#DejaVuSans-29" x="598.091797"/>
     </g>
    </g>
   </g>
   <g id="matplotlib.axis_2">
    <g id="ytick_1">
     <g id="line2d_26"/>
    </g>
    <g id="ytick_2">
     <g id="line2d_27"/>
    </g>
    <g id="ytick_3">
     <g id="line2d_28"/>
    </g>
    <g id="ytick_4">
     <g id="line2d_29"/>
    </g>
    <g id="ytick_5">
     <g id="line2d_30"/>
    </g>
    <g id="text_8">
     <!-- Intensity -->
     <g transform="translate(14.038594 94.73625) rotate(-90) scale(0.09 -0.09)">
      <defs>
       <path id="DejaVuSans-49" d="M 628 4666 
L 1259 4666 
L 1259 0 
L 628 0 
L 628 4666 
z
" transform="scale(0.015625)"/>
       <path id="DejaVuSans-6e" d="M 3513 2113 
L 3513 0 
L 2938 0 
L 2938 2094 
Q 2938 2591 2744 2837 
Q 2550 3084 2163 3084 
Q 1697 3084 1428 2787 
Q 1159 2491 1159 1978 
L 1159 0 
L 581 0 
L 581 3500 
L 1159 3500 
L 1159 2956 
Q 1366 3272 1645 3428 
Q 1925 3584 2291 3584 
Q 2894 3584 3203 3211 
Q 3513 2838 3513 2113 
z
" transform="scale(0.015625)"/>
       <path id="DejaVuSans-74" d="M 1172 4494 
L 1172 3500 
L 2356 3500 
L 2356 3053 
L 1172 3053 
L 1172 1153 
Q 1172 725 1289 603 
Q 1406 481 1766 481 
L 2356 481 
L 2356 0 
L 1766 0 
Q 1100 0 847 248 
Q 594 497 594 1153 
L 594 3053 
L 172 3053 
L 172 3500 
L 594 3500 
L 594 4494 
L 1172 4494 
z
" transform="scale(0.015625)"/>
       <path id="DejaVuSans-69" d="M 603 3500 
L 1178 3500 
L 1178 0 
L 603 0 
L 603 3500 
z
M 603 4863 
L 1178 4863 
L 1178 4134 
L 603 4134 
L 603 4863 
z
" transform="scale(0.015625)"/>
       <path id="DejaVuSans-79" d="M 2059 -325 
Q 1816 -950 1584 -1140 
Q 1353 -1331 966 -1331 
L 506 -1331 
L 506 -850 
L 844 -850 
Q 1081 -850 1212 -737 
Q 1344 -625 1503 -206 
L 1606 56 
L 191 3500 
L 800 3500 
L 1894 763 
L 2988 3500 
L 3597 3500 
L 2059 -325 
z
" transform="scale(0.015625)"/>
      </defs>
      <use xlink:href="#DejaVuSans-49"/>
      <use xlink:href="#DejaVuSans-6e" x="29.492188"/>
      <use xlink:href="#DejaVuSans-74" x="92.871094"/>
      <use xlink:href="#DejaVuSans-65" x="132.080078"/>
      <use xlink:href="#DejaVuSans-6e" x="193.603516"/>
      <use xlink:href="#DejaVuSans-73" x="256.982422"/>
      <use xlink:href="#DejaVuSans-69" x="309.082031"/>
      <use xlink:href="#DejaVuSans-74" x="336.865234"/>
      <use xlink:href="#DejaVuSans-79" x="376.074219"/>
     </g>
    </g>
   </g>
   <g id="line2d_31">
    <path d="M 23.453447 49.907845 
L 23.599981 52.710351 
L 23.746515 53.043516 
L 23.893049 55.454064 
L 24.039583 54.905321 
L 24.186117 57.68823 
L 24.332651 57.884209 
L 24.479185 57.374663 
L 24.625719 59.040488 
L 24.772253 58.668127 
L 24.918787 61.568623 
L 25.065321 59.491241 
L 25.211855 60.471138 
L 25.651457 65.958563 
L 25.797991 62.568118 
L 25.944525 64.449521 
L 26.091059 64.665099 
L 26.237593 65.566604 
L 26.384127 69.074637 
L 26.677194 66.605295 
L 26.970262 70.720864 
L 27.116796 69.917348 
L 27.26333 73.797742 
L 27.409864 71.034431 
L 27.556398 72.09272 
L 27.702932 70.642472 
L 27.996 73.013824 
L 28.142534 72.798246 
L 28.435602 76.972609 
L 28.582136 76.110299 
L 28.72867 77.423362 
L 28.875204 77.658537 
L 29.168272 75.796732 
L 29.314806 78.168084 
L 29.46134 77.129393 
L 29.754408 79.873105 
L 29.900941 81.088178 
L 30.194009 79.873105 
L 30.340543 79.755517 
L 30.633611 80.500239 
L 30.780145 80.500239 
L 30.926679 82.126869 
L 31.073213 81.715312 
L 31.219747 81.911292 
L 31.512815 83.812292 
L 31.659349 82.342446 
L 31.805883 82.420838 
L 32.098951 85.497716 
L 32.245485 83.16556 
L 32.392019 84.047468 
L 32.538553 85.674097 
L 32.685087 85.399726 
L 32.831621 88.359016 
L 32.978155 84.811788 
L 33.124688 87.535902 
L 33.271222 86.320829 
L 33.56429 86.928366 
L 33.710824 88.88816 
L 33.857358 88.750975 
L 34.003892 89.632882 
L 34.150426 87.320325 
L 34.29696 87.437912 
L 34.443494 89.240924 
L 34.590028 88.202232 
L 34.736562 88.574593 
L 34.883096 91.063533 
L 35.02963 90.024841 
L 35.176164 91.298708 
L 35.322698 89.593687 
L 35.469232 91.122326 
L 35.615766 91.27911 
L 35.7623 89.260521 
L 35.908834 89.75047 
L 36.055368 91.533883 
L 36.201902 91.671069 
L 36.348435 92.61177 
L 36.494969 91.553481 
L 36.641503 93.454482 
L 36.788037 91.102728 
L 37.081105 93.885637 
L 37.227639 93.160513 
L 37.374173 93.924833 
L 37.520707 92.102224 
L 37.960309 95.10071 
L 38.106843 94.199204 
L 38.253377 94.591163 
L 38.399911 93.787647 
L 38.546445 94.316792 
L 38.839513 96.119803 
L 39.132581 96.668545 
L 39.279115 94.160008 
L 39.572182 97.040906 
L 39.718716 96.962514 
L 39.86525 97.256484 
L 40.011784 96.374576 
L 40.158318 97.472061 
L 40.451386 97.217288 
L 40.744454 97.609247 
L 40.890988 98.099195 
L 41.037522 97.903216 
L 41.184056 96.413772 
L 41.33059 98.451958 
L 41.477124 96.668545 
L 41.623658 100.372557 
L 41.916726 97.609247 
L 42.209794 102.25396 
L 42.356328 99.667031 
L 42.502862 100.313763 
L 42.649396 98.314773 
L 42.942463 98.667536 
L 43.088997 100.078588 
L 43.382065 99.706227 
L 43.528599 100.000196 
L 43.675133 101.430846 
L 43.821667 101.136877 
L 44.114735 100.333361 
L 44.261269 101.68562 
L 44.407803 99.353464 
L 44.847405 102.783105 
L 44.993939 100.646928 
L 45.140473 101.607228 
L 45.287007 101.58763 
L 45.433541 100.431351 
L 45.580075 102.626321 
L 45.873143 101.862001 
L 46.019676 103.7826 
L 46.16621 103.606218 
L 46.312744 102.018785 
L 46.459278 102.783105 
L 46.752346 102.15597 
L 46.89888 103.567022 
L 47.045414 103.390641 
L 47.191948 101.666022 
L 47.338482 102.567527 
L 47.485016 105.154456 
L 47.63155 104.076569 
L 48.071152 104.370538 
L 48.217686 103.802198 
L 48.36422 103.821796 
L 48.510754 103.606218 
L 48.657288 104.194157 
L 48.950356 105.859982 
L 49.09689 104.605714 
L 49.243423 104.409734 
L 49.389957 104.507724 
L 49.536491 104.44893 
L 49.683025 105.761992 
L 49.829559 104.880085 
L 49.976093 105.154456 
L 50.122627 106.428323 
L 50.269161 105.076064 
L 50.415695 106.036364 
L 50.562229 105.605209 
L 50.708763 106.095157 
L 50.855297 106.07556 
L 51.001831 105.742394 
L 51.148365 106.74189 
L 51.294899 104.115765 
L 51.441433 106.879075 
L 51.587967 104.468528 
L 51.881035 107.329828 
L 52.027569 107.369024 
L 52.174103 105.664003 
L 52.320637 106.781086 
L 52.46717 106.761488 
L 52.613704 106.330333 
L 52.906772 109.015251 
L 53.19984 107.271034 
L 53.346374 107.173045 
L 53.492908 104.801693 
L 53.639442 108.662488 
L 53.785976 107.467014 
L 54.079044 108.976056 
L 54.372112 107.447416 
L 54.518646 108.564499 
L 54.66518 107.290632 
L 54.811714 107.349426 
L 54.958248 109.524798 
L 55.104782 108.427313 
L 55.251316 108.17254 
L 55.544384 109.720778 
L 55.690917 109.720778 
L 55.837451 110.112737 
L 55.983985 108.897664 
L 56.277053 109.661984 
L 56.423587 108.290127 
L 56.570121 109.485602 
L 56.716655 109.642386 
L 56.863189 107.878571 
L 57.009723 109.485602 
L 57.156257 109.857963 
L 57.302791 109.720778 
L 57.595859 110.426304 
L 57.742393 109.642386 
L 57.888927 109.838365 
L 58.035461 110.485097 
L 58.181995 109.642386 
L 58.328529 109.759973 
L 58.475063 109.191633 
L 58.621597 111.406201 
L 58.914664 109.818767 
L 59.061198 109.818767 
L 59.207732 110.191128 
L 59.354266 109.799169 
L 59.647334 110.759469 
L 59.793868 109.466004 
L 59.940402 111.758964 
L 60.086936 112.092129 
L 60.23347 111.79816 
L 60.526538 109.877561 
L 60.673072 110.034345 
L 60.96614 112.503686 
L 61.259208 111.406201 
L 61.552276 112.288109 
L 61.69881 112.307707 
L 62.431479 110.739871 
L 62.578013 113.405192 
L 62.871081 112.111727 
L 63.017615 113.170016 
L 63.164149 111.386603 
L 63.310683 111.60218 
L 63.457217 112.836851 
L 63.603751 112.288109 
L 63.750285 114.149913 
L 63.896819 112.052933 
L 64.043353 113.503181 
L 64.336421 111.70017 
L 64.482955 111.935346 
L 64.629489 114.306697 
L 64.776023 112.601676 
L 64.922557 113.032831 
L 65.069091 112.66047 
L 65.215625 113.503181 
L 65.508692 112.601676 
L 65.655226 113.13082 
L 65.80176 113.013233 
L 65.948294 114.051924 
L 66.094828 112.680067 
L 66.241362 113.953934 
L 66.387896 113.307202 
L 66.53443 113.581573 
L 66.680964 114.247903 
L 66.827498 114.189109 
L 66.974032 113.268006 
L 67.120566 113.365996 
L 67.413634 114.424285 
L 67.560168 113.346398 
L 67.706702 114.345893 
L 67.853236 114.365491 
L 68.146304 115.678553 
L 68.292838 114.600666 
L 68.439372 115.208203 
L 68.585906 114.247903 
L 68.732439 115.149409 
L 68.878973 114.835842 
L 69.025507 114.071522 
L 69.318575 115.756945 
L 69.465109 115.502172 
L 69.611643 116.109708 
L 69.758177 115.345388 
L 70.051245 116.834832 
L 70.344313 115.286594 
L 70.490847 115.52177 
L 70.637381 116.011718 
L 70.783915 115.110213 
L 70.930449 115.874533 
L 71.076983 115.482574 
L 71.223517 117.070007 
L 71.370051 117.070007 
L 71.516585 117.893121 
L 71.809653 117.265987 
L 71.956186 117.775534 
L 72.10272 117.540358 
L 72.395788 115.678553 
L 72.542322 115.443378 
L 72.688856 116.050914 
L 72.83539 115.894131 
L 72.981924 117.579554 
L 73.128458 115.541368 
L 73.274992 115.737347 
L 73.861128 118.010709 
L 74.007662 117.61875 
L 74.154196 119.127792 
L 74.30073 116.776038 
L 74.447264 117.070007 
L 74.593798 116.442873 
L 74.886866 118.422266 
L 75.0334 117.971513 
L 75.179933 118.441864 
L 75.326467 117.265987 
L 75.619535 118.579049 
L 75.766069 117.559956 
L 75.912603 118.892617 
L 76.059137 118.677039 
L 76.205671 119.539349 
L 76.498739 117.501162 
L 76.791807 118.304678 
L 76.938341 117.579554 
L 77.084875 118.48106 
L 77.377943 118.716235 
L 77.524477 118.422266 
L 77.964079 119.480555 
L 78.110613 119.323771 
L 78.257147 118.28508 
L 78.550214 118.873019 
L 78.696748 118.167493 
L 78.843282 119.343369 
L 78.989816 118.618245 
L 79.13635 120.617236 
L 79.282884 117.559956 
L 79.575952 120.969999 
L 79.722486 118.363472 
L 80.162088 119.362967 
L 80.308622 119.323771 
L 80.455156 118.539853 
L 80.748224 118.716235 
L 80.894758 119.480555 
L 81.041292 118.990606 
L 81.187826 119.343369 
L 81.33436 120.67603 
L 81.480894 119.225782 
L 81.627427 119.990102 
L 81.920495 120.225277 
L 82.067029 119.539349 
L 82.213563 120.440854 
L 82.506631 119.676534 
L 82.653165 119.088596 
L 82.946233 120.67603 
L 83.092767 121.224772 
L 83.239301 119.304173 
L 83.385835 119.519751 
L 83.532369 121.479545 
L 83.678903 119.598143 
L 83.825437 122.126278 
L 83.971971 120.754421 
L 84.118505 122.145876 
L 84.411573 120.264473 
L 84.558107 121.087587 
L 84.704641 120.48005 
L 84.851174 121.557937 
L 84.997708 121.185576 
L 85.144242 119.892112 
L 85.290776 121.401154 
L 85.43731 121.597133 
L 85.583844 122.479041 
L 85.730378 120.774019 
L 85.876912 122.361453 
L 86.023446 120.715226 
L 86.316514 121.538339 
L 86.463048 120.342865 
L 86.609582 120.774019 
L 86.756116 122.420247 
L 86.90265 121.597133 
L 87.049184 122.302659 
L 87.195718 121.538339 
L 87.342252 122.57703 
L 87.488786 121.165978 
L 87.781854 121.891102 
L 87.928388 121.734319 
L 88.074921 121.891102 
L 88.221455 121.832308 
L 88.367989 122.145876 
L 88.514523 122.165474 
L 88.807591 122.557433 
L 88.954125 121.773515 
L 89.100659 122.126278 
L 89.247193 120.930803 
L 89.393727 122.67502 
L 89.540261 122.57703 
L 89.686795 121.871504 
L 90.272931 123.008185 
L 90.419465 122.812206 
L 90.565999 123.047381 
L 90.859067 121.891102 
L 91.298668 123.576526 
L 91.445202 121.753917 
L 91.591736 123.811701 
L 91.73827 122.616226 
L 91.884804 123.556928 
L 92.031338 122.67502 
L 92.177872 123.63532 
L 92.324406 122.792608 
L 92.47094 122.67502 
L 92.617474 122.77301 
L 92.764008 123.831299 
L 92.910542 122.851402 
L 93.057076 123.106175 
L 93.20361 123.792103 
L 93.350144 123.713711 
L 93.496678 122.910196 
L 93.643212 123.850897 
L 93.789746 122.439845 
L 93.93628 123.654918 
L 94.082814 122.283061 
L 94.229348 122.871 
L 94.375882 122.224267 
L 94.522415 123.066979 
L 94.668949 122.557433 
L 94.815483 123.556928 
L 94.962017 123.517732 
L 95.108551 123.106175 
L 95.401619 124.438835 
L 95.548153 123.360948 
L 95.694687 123.929289 
L 95.987755 122.733814 
L 96.280823 124.30165 
L 96.427357 122.968989 
L 96.866959 124.948382 
L 97.160027 123.694113 
L 97.306561 123.772505 
L 97.453095 122.77301 
L 97.599629 123.792103 
L 97.746162 123.870495 
L 97.892696 125.418733 
L 98.03923 122.655422 
L 98.185764 123.53733 
L 98.332298 123.008185 
L 98.478832 123.674515 
L 98.625366 123.204165 
L 98.7719 123.458938 
L 98.918434 125.320743 
L 99.064968 122.851402 
L 99.211502 124.928784 
L 99.50457 124.380042 
L 99.797638 125.340341 
L 99.944172 123.831299 
L 100.090706 124.889588 
L 100.23724 123.831299 
L 100.383774 124.811196 
L 100.530308 123.282557 
L 100.676842 124.340846 
L 100.823376 124.517227 
L 101.116443 124.242856 
L 101.262977 123.204165 
L 101.409511 125.06597 
L 101.556045 124.791598 
L 101.702579 124.125268 
L 101.849113 126.026269 
L 101.995647 124.164464 
L 102.142181 125.712702 
L 102.288715 124.027278 
L 102.435249 125.026774 
L 102.581783 124.517227 
L 102.874851 125.967475 
L 103.021385 125.06597 
L 103.167919 126.359434 
L 103.314453 124.830794 
L 103.460987 125.399135 
L 103.754055 125.418733 
L 104.047123 125.928279 
L 104.34019 124.576021 
L 104.486724 126.143857 
L 104.633258 124.634815 
L 104.779792 125.928279 
L 105.07286 124.282052 
L 105.219394 124.125268 
L 105.365928 124.399639 
L 105.512462 123.870495 
L 105.658996 125.595114 
L 105.952064 124.282052 
L 106.098598 125.124763 
L 106.391666 124.321248 
L 106.5382 125.359939 
L 106.684734 125.222753 
L 106.831268 125.63431 
L 106.977802 125.438331 
L 107.124336 125.751898 
L 107.27087 124.321248 
L 107.563937 125.144361 
L 107.710471 125.301145 
L 107.857005 126.202651 
L 108.150073 125.281547 
L 108.296607 125.653908 
L 108.443141 125.418733 
L 108.589675 125.53632 
L 108.736209 125.124763 
L 108.882743 125.085568 
L 109.029277 126.379032 
L 109.175811 125.53632 
L 109.468879 125.614712 
L 109.615413 126.241846 
L 109.761947 125.399135 
L 109.908481 125.261949 
L 110.201549 126.457424 
L 110.348083 125.673506 
L 110.494617 125.497124 
L 110.64115 126.457424 
L 110.787684 124.556423 
L 110.934218 126.281042 
L 111.080752 126.163455 
L 111.227286 126.790589 
L 111.520354 125.301145 
L 111.666888 126.065465 
L 111.813422 125.889083 
L 111.959956 124.86999 
L 112.10649 124.791598 
L 112.253024 126.065465 
L 112.546092 125.242351 
L 112.83916 125.438331 
L 112.985694 126.163455 
L 113.132228 125.63431 
L 113.278762 126.124259 
L 113.425296 125.457929 
L 113.718364 126.379032 
L 113.864898 125.791094 
L 114.011431 126.143857 
L 114.157965 125.320743 
L 114.304499 125.261949 
L 114.451033 125.751898 
L 114.597567 125.457929 
L 114.890635 126.614207 
L 115.183703 125.947877 
L 115.330237 126.085063 
L 115.476771 126.770991 
L 115.623305 126.39863 
L 115.769839 126.477022 
L 115.916373 125.575516 
L 116.062907 125.63431 
L 116.355975 127.123754 
L 116.649043 125.967475 
L 116.795577 127.496115 
L 116.942111 127.143352 
L 117.088645 125.693104 
L 117.235178 126.790589 
L 117.381712 125.947877 
L 117.528246 126.104661 
L 117.67478 125.693104 
L 117.967848 127.006166 
L 118.260916 125.653908 
L 118.40745 126.143857 
L 118.553984 124.948382 
L 118.847052 126.692599 
L 118.993586 125.261949 
L 119.14012 126.829785 
L 119.286654 126.261444 
L 119.433188 126.418228 
L 119.579722 127.123754 
L 119.726256 126.163455 
L 120.165858 127.280538 
L 120.312392 126.555414 
L 120.458925 127.06496 
L 120.605459 125.889083 
L 120.751993 125.673506 
L 120.898527 126.673001 
L 121.191595 126.30064 
L 121.338129 126.281042 
L 121.484663 126.575012 
L 121.631197 126.555414 
L 121.924265 126.026269 
L 122.070799 126.261444 
L 122.217333 127.652899 
L 122.363867 126.281042 
L 122.510401 126.163455 
L 122.656935 126.457424 
L 122.803469 127.437321 
L 122.950003 125.869485 
L 123.243071 127.888074 
L 123.389605 125.497124 
L 123.682672 126.868981 
L 123.829206 126.124259 
L 123.97574 126.006671 
L 124.122274 127.515713 
L 124.268808 127.672497 
L 124.415342 127.182548 
L 124.561876 127.594105 
L 124.70841 126.751393 
L 124.854944 127.241342 
L 125.001478 127.025764 
L 125.148012 125.889083 
L 125.587614 127.280538 
L 125.734148 125.653908 
L 125.880682 126.790589 
L 126.027216 126.927775 
L 126.17375 126.320238 
L 126.320284 127.515713 
L 126.613352 126.104661 
L 126.906419 127.300136 
L 127.052953 126.281042 
L 127.199487 127.045362 
L 127.346021 126.790589 
L 127.639089 125.418733 
L 127.785623 126.653403 
L 127.932157 126.888579 
L 128.078691 125.928279 
L 128.225225 126.379032 
L 128.371759 125.791094 
L 128.518293 127.025764 
L 128.811361 127.123754 
L 128.957895 125.53632 
L 129.250963 128.221239 
L 129.544031 126.457424 
L 129.690565 125.693104 
L 129.983633 127.966466 
L 130.130166 127.496115 
L 130.2767 126.281042 
L 130.423234 127.574507 
L 130.569768 127.496115 
L 130.716302 127.633301 
L 131.00937 127.221744 
L 131.155904 126.868981 
L 131.302438 126.986568 
L 131.448972 126.927775 
L 131.595506 127.868476 
L 131.74204 127.143352 
L 131.888574 127.123754 
L 132.035108 127.241342 
L 132.181642 126.535816 
L 132.328176 126.575012 
L 132.47471 127.104156 
L 132.621244 126.829785 
L 132.767778 127.672497 
L 132.914312 126.555414 
L 133.060846 126.39863 
L 133.353913 126.908177 
L 133.500447 125.144361 
L 133.646981 127.496115 
L 133.793515 126.555414 
L 133.940049 127.123754 
L 134.086583 126.692599 
L 134.233117 126.96697 
L 134.379651 126.49662 
L 134.526185 126.751393 
L 134.672719 127.750888 
L 134.819253 127.300136 
L 135.112321 125.947877 
L 135.405389 127.613703 
L 135.551923 127.535311 
L 135.698457 128.02526 
L 135.844991 126.888579 
L 135.991525 126.712197 
L 136.138059 125.987073 
L 136.284593 127.437321 
L 136.431127 126.281042 
L 136.57766 126.457424 
L 136.724194 125.457929 
L 137.163796 127.535311 
L 137.31033 127.633301 
L 137.456864 126.320238 
L 137.603398 126.104661 
L 137.749932 126.908177 
L 137.896466 126.712197 
L 138.043 127.986064 
L 138.189534 126.633805 
L 138.336068 127.221744 
L 138.482602 126.320238 
L 138.629136 126.202651 
L 138.77567 127.339331 
L 138.922204 126.555414 
L 139.215272 127.300136 
L 139.361806 125.791094 
L 139.50834 127.437321 
L 139.654874 126.731795 
L 139.801407 126.849383 
L 139.947941 127.182548 
L 140.094475 126.614207 
L 140.241009 126.653403 
L 140.387543 127.319734 
L 140.534077 126.143857 
L 140.680611 126.594609 
L 140.827145 126.49662 
L 140.973679 126.770991 
L 141.120213 127.300136 
L 141.266747 126.673001 
L 141.413281 127.084558 
L 141.706349 126.241846 
L 141.999417 126.908177 
L 142.145951 127.182548 
L 142.292485 126.104661 
L 142.439019 126.555414 
L 142.585553 125.653908 
L 142.878621 127.888074 
L 143.318222 125.457929 
L 143.464756 126.104661 
L 143.61129 126.006671 
L 143.757824 126.30064 
L 144.050892 125.438331 
L 144.197426 123.948887 
L 144.34396 123.890093 
L 144.490494 124.791598 
L 144.637028 124.380042 
L 144.930096 125.967475 
L 145.07663 125.63431 
L 145.223164 126.49662 
L 145.369698 126.594609 
L 145.516232 127.339331 
L 145.662766 127.378527 
L 145.8093 126.673001 
L 145.955834 126.614207 
L 146.102368 126.163455 
L 146.395435 127.025764 
L 146.541969 125.928279 
L 146.688503 125.83029 
L 146.835037 127.084558 
L 146.981571 127.202146 
L 147.128105 126.339836 
L 147.274639 126.575012 
L 147.421173 127.16295 
L 147.714241 126.104661 
L 147.860775 126.96697 
L 148.007309 127.123754 
L 148.153843 126.673001 
L 148.300377 125.771496 
L 148.593445 126.183053 
L 148.739979 126.124259 
L 148.886513 126.790589 
L 149.033047 126.810187 
L 149.619182 125.889083 
L 149.765716 126.731795 
L 149.91225 126.751393 
L 150.058784 125.869485 
L 150.205318 126.143857 
L 150.351852 125.869485 
L 150.498386 127.143352 
L 150.64492 127.202146 
L 150.937988 125.751898 
L 151.084522 126.692599 
L 151.231056 125.457929 
L 151.37759 125.595114 
L 151.524124 126.379032 
L 151.670658 125.751898 
L 151.817192 126.673001 
L 151.963726 126.673001 
L 152.11026 125.183557 
L 152.549862 127.084558 
L 152.696395 125.712702 
L 152.842929 126.653403 
L 152.989463 125.889083 
L 153.135997 125.967475 
L 153.282531 126.241846 
L 153.429065 127.202146 
L 153.722133 125.7323 
L 153.868667 125.751898 
L 154.015201 126.908177 
L 154.161735 126.692599 
L 154.308269 127.300136 
L 154.454803 126.633805 
L 154.601337 127.06496 
L 154.747871 126.085063 
L 154.894405 126.026269 
L 155.040939 126.241846 
L 155.187473 125.359939 
L 155.334007 125.673506 
L 155.480541 126.692599 
L 155.627075 126.516218 
L 155.773609 126.986568 
L 155.920142 126.810187 
L 156.066676 125.810692 
L 156.359744 127.16295 
L 156.506278 125.63431 
L 156.652812 126.477022 
L 156.799346 126.222249 
L 156.94588 125.222753 
L 157.092414 125.967475 
L 157.238948 125.614712 
L 157.385482 125.928279 
L 157.532016 126.575012 
L 157.67855 124.791598 
L 157.825084 125.575516 
L 158.118152 125.791094 
L 158.264686 126.477022 
L 158.41122 126.516218 
L 158.557754 125.53632 
L 158.704288 125.751898 
L 158.850822 125.516722 
L 158.997356 125.614712 
L 159.143889 125.242351 
L 159.290423 125.555918 
L 159.436957 125.222753 
L 159.583491 124.438835 
L 159.876559 126.437826 
L 160.023093 125.477527 
L 160.169627 126.143857 
L 160.316161 125.438331 
L 160.462695 126.045867 
L 160.755763 124.772 
L 160.902297 124.909186 
L 161.195365 127.045362 
L 161.341899 125.281547 
L 161.488433 126.065465 
L 161.634967 125.908681 
L 161.781501 125.222753 
L 161.928035 126.457424 
L 162.074569 124.282052 
L 162.367636 125.261949 
L 162.51417 124.674011 
L 162.660704 125.810692 
L 162.807238 125.183557 
L 163.24684 126.085063 
L 163.393374 124.791598 
L 163.539908 126.731795 
L 163.686442 124.674011 
L 163.832976 125.340341 
L 163.97951 124.732805 
L 164.126044 126.281042 
L 164.272578 125.53632 
L 164.565646 125.614712 
L 164.858714 125.007176 
L 165.005248 125.516722 
L 165.151782 125.595114 
L 165.298316 125.163959 
L 165.44485 126.202651 
L 165.591384 124.478031 
L 165.884451 125.653908 
L 166.030985 125.967475 
L 166.177519 125.614712 
L 166.324053 125.751898 
L 166.470587 125.595114 
L 166.617121 124.125268 
L 166.763655 125.653908 
L 166.910189 124.889588 
L 167.496325 125.987073 
L 167.642859 124.987578 
L 167.935927 125.53632 
L 168.082461 125.928279 
L 168.228995 123.870495 
L 168.522063 125.340341 
L 168.961664 124.86999 
L 169.108198 126.085063 
L 169.254732 124.693609 
L 169.401266 124.497629 
L 169.5478 125.320743 
L 169.694334 125.242351 
L 169.840868 125.007176 
L 169.987402 124.144866 
L 170.133936 125.53632 
L 170.28047 124.242856 
L 170.427004 124.360444 
L 170.573538 126.065465 
L 170.720072 124.634815 
L 170.866606 125.320743 
L 171.01314 125.261949 
L 171.159674 124.066474 
L 171.306208 124.399639 
L 171.452742 123.988083 
L 171.74581 124.380042 
L 171.892344 124.517227 
L 172.038878 124.242856 
L 172.185411 125.144361 
L 172.331945 124.497629 
L 172.478479 124.360444 
L 172.625013 125.163959 
L 172.771547 123.63532 
L 172.918081 124.007681 
L 173.064615 123.53733 
L 173.211149 123.831299 
L 173.357683 122.851402 
L 173.504217 124.125268 
L 173.650751 123.713711 
L 173.797285 122.10668 
L 174.090353 124.478031 
L 174.236887 122.77301 
L 174.383421 123.556928 
L 174.529955 123.615722 
L 174.823023 122.263463 
L 175.116091 120.656432 
L 175.262625 120.832813 
L 175.409158 120.127287 
L 175.555692 120.950401 
L 175.84876 120.127287 
L 175.995294 121.263968 
L 176.141828 121.205174 
L 176.288362 122.498639 
L 176.434896 122.361453 
L 176.58143 123.615722 
L 176.727964 122.890598 
L 176.874498 124.30165 
L 177.021032 122.753412 
L 177.3141 121.871504 
L 177.460634 122.420247 
L 177.607168 123.400144 
L 177.753702 123.478536 
L 177.900236 122.890598 
L 178.04677 122.792608 
L 178.193304 122.498639 
L 178.339838 123.047381 
L 178.486372 122.145876 
L 178.632905 123.302154 
L 178.779439 122.224267 
L 178.925973 122.518237 
L 179.072507 123.478536 
L 179.512109 122.420247 
L 179.658643 123.027783 
L 179.805177 121.401154 
L 179.951711 123.321752 
L 180.098245 121.969494 
L 180.244779 122.204669 
L 180.391313 123.106175 
L 180.537847 121.14638 
L 180.684381 122.381051 
L 180.977449 120.930803 
L 181.123983 121.34236 
L 181.270517 120.558442 
L 181.417051 120.460452 
L 181.563585 122.479041 
L 181.710119 121.459948 
L 181.856652 122.165474 
L 182.003186 122.087082 
L 182.14972 121.028793 
L 182.296254 121.616731 
L 182.589322 120.342865 
L 182.735856 122.361453 
L 182.88239 119.81372 
L 183.028924 120.754421 
L 183.175458 119.696132 
L 183.321992 120.930803 
L 183.468526 119.598143 
L 183.61506 121.14638 
L 184.054662 119.010204 
L 184.201196 120.009699 
L 184.34773 119.343369 
L 184.494264 120.734823 
L 184.640798 118.422266 
L 184.787332 119.441359 
L 185.080399 119.186586 
L 185.226933 120.068493 
L 185.520001 118.18709 
L 185.666535 118.539853 
L 185.813069 118.18709 
L 185.959603 116.815234 
L 186.106137 118.971008 
L 186.399205 117.285585 
L 186.545739 117.814729 
L 186.692273 117.403173 
L 186.838807 117.853925 
L 186.985341 117.246389 
L 187.131875 117.383575 
L 187.278409 117.736338 
L 187.571477 117.324781 
L 187.718011 115.737347 
L 187.864545 115.874533 
L 188.011079 115.502172 
L 188.304146 116.658451 
L 188.45068 116.521265 
L 188.743748 114.110718 
L 188.890282 116.344883 
L 189.036816 116.619255 
L 189.18335 114.914233 
L 189.329884 116.09011 
L 189.476418 115.52177 
L 189.769486 115.894131 
L 189.91602 114.914233 
L 190.062554 115.913729 
L 190.355622 114.679058 
L 190.502156 114.365491 
L 190.64869 113.209212 
L 190.795224 114.953429 
L 190.941758 113.111222 
L 191.088292 115.952925 
L 191.234826 112.954439 
L 191.38136 114.404687 
L 191.674427 115.012223 
L 191.967495 113.542377 
L 192.260563 115.502172 
L 192.407097 113.032831 
L 192.553631 115.306192 
L 192.700165 115.639357 
L 193.139767 113.561975 
L 193.286301 114.326295 
L 193.432835 113.738357 
L 193.579369 114.326295 
L 193.725903 113.620769 
L 193.872437 113.914738 
L 194.018971 114.85544 
L 194.165505 114.228305 
L 194.312039 115.071017 
L 194.458573 113.405192 
L 194.75164 114.189109 
L 194.898174 113.561975 
L 195.044708 115.658955 
L 195.191242 114.541872 
L 195.48431 115.796141 
L 195.777378 114.777048 
L 196.070446 116.325286 
L 196.510048 115.169007 
L 196.656582 114.443883 
L 196.803116 115.835337 
L 196.94965 113.875542 
L 197.389252 117.540358 
L 197.535786 116.619255 
L 197.68232 116.619255 
L 197.975387 115.580564 
L 198.268455 116.560461 
L 198.561523 115.42378 
L 198.708057 117.030812 
L 198.854591 115.972522 
L 199.147659 117.834327 
L 199.294193 116.09011 
L 199.440727 117.363977 
L 199.587261 117.187595 
L 199.733795 116.384079 
L 200.026863 117.383575 
L 200.173397 116.736842 
L 200.319931 117.167997 
L 200.466465 118.833823 
L 200.906067 116.423275 
L 201.052601 117.540358 
L 201.199134 117.148399 
L 201.345668 117.677544 
L 201.638736 116.75644 
L 201.78527 117.403173 
L 202.078338 117.775534 
L 202.224872 116.384079 
L 202.371406 116.540863 
L 202.664474 117.657946 
L 202.957542 116.148904 
L 203.104076 116.599657 
L 203.25061 115.227801 
L 203.397144 116.403677 
L 203.690212 112.601676 
L 204.129814 109.563994 
L 204.276348 109.857963 
L 204.422881 111.562985 
L 204.569415 111.79816 
L 205.009017 117.403173 
L 205.155551 117.167997 
L 205.302085 119.539349 
L 205.448619 118.579049 
L 205.741687 119.892112 
L 206.034755 120.225277 
L 206.474357 123.008185 
L 206.620891 122.655422 
L 206.767425 121.459948 
L 206.913959 122.047886 
L 207.060493 121.969494 
L 207.207027 122.067484 
L 207.353561 122.714216 
L 207.500095 122.537835 
L 207.646628 121.24437 
L 207.939696 123.066979 
L 208.08623 122.596628 
L 208.232764 123.752907 
L 208.379298 123.34135 
L 208.525832 123.517732 
L 208.672366 122.694618 
L 208.8189 122.57703 
L 208.965434 122.224267 
L 209.405036 124.262454 
L 209.55157 123.106175 
L 209.698104 123.870495 
L 209.844638 123.733309 
L 209.991172 123.145371 
L 210.28424 123.517732 
L 210.430774 123.752907 
L 210.577308 124.752403 
L 210.723842 123.929289 
L 210.870375 124.282052 
L 211.016909 124.96798 
L 211.163443 123.615722 
L 211.456511 124.86999 
L 211.749579 123.615722 
L 211.896113 124.752403 
L 212.042647 124.811196 
L 212.189181 123.458938 
L 212.335715 124.928784 
L 212.482249 124.399639 
L 212.628783 124.517227 
L 212.775317 125.124763 
L 212.921851 124.732805 
L 213.068385 125.516722 
L 213.214919 125.438331 
L 213.361453 124.830794 
L 213.507987 125.438331 
L 213.654521 124.10567 
L 213.801055 124.830794 
L 213.947589 124.380042 
L 214.240656 125.849888 
L 214.38719 125.124763 
L 214.533724 125.693104 
L 214.680258 125.340341 
L 214.826792 125.849888 
L 214.973326 125.242351 
L 215.11986 125.555918 
L 215.266394 125.026774 
L 215.412928 125.63431 
L 215.559462 124.634815 
L 215.705996 124.595619 
L 215.85253 123.968485 
L 216.145598 125.693104 
L 216.292132 124.96798 
L 216.438666 126.359434 
L 216.5852 125.653908 
L 216.731734 125.555918 
L 216.878268 126.516218 
L 217.024802 124.438835 
L 217.171336 124.125268 
L 217.464403 125.712702 
L 217.610937 124.791598 
L 217.757471 124.909186 
L 217.904005 125.947877 
L 218.050539 125.085568 
L 218.197073 125.693104 
L 218.343607 124.125268 
L 218.490141 124.321248 
L 218.636675 125.614712 
L 218.783209 124.713207 
L 218.929743 125.359939 
L 219.076277 125.163959 
L 219.222811 126.104661 
L 219.369345 126.065465 
L 219.662413 125.124763 
L 219.808947 126.222249 
L 219.955481 124.497629 
L 220.102015 125.222753 
L 220.395083 124.223258 
L 220.541617 125.124763 
L 220.68815 124.282052 
L 220.834684 124.693609 
L 220.981218 124.20366 
L 221.127752 125.183557 
L 221.274286 124.654413 
L 221.42082 124.830794 
L 221.567354 124.811196 
L 221.713888 126.006671 
L 222.006956 123.43934 
L 222.15349 123.63532 
L 222.300024 122.77301 
L 222.446558 123.086577 
L 222.593092 124.791598 
L 222.739626 122.067484 
L 222.88616 124.791598 
L 223.032694 122.812206 
L 223.325762 122.929793 
L 223.472296 122.537835 
L 223.61883 121.636329 
L 223.765364 121.459948 
L 223.911897 122.616226 
L 224.058431 122.204669 
L 224.204965 122.753412 
L 224.498033 120.597638 
L 224.644567 121.44035 
L 225.084169 119.598143 
L 225.230703 121.322762 
L 225.377237 118.892617 
L 225.670305 119.833318 
L 225.816839 118.422266 
L 225.963373 119.108194 
L 226.109907 117.638348 
L 226.256441 119.304173 
L 226.402975 116.991616 
L 226.549509 117.579554 
L 226.696043 115.462976 
L 226.842577 115.737347 
L 227.282178 114.463481 
L 227.428712 115.149409 
L 227.575246 114.404687 
L 227.72178 114.56147 
L 227.868314 111.739366 
L 228.014848 112.915243 
L 228.161382 111.856954 
L 228.307916 109.975551 
L 228.45445 110.583087 
L 228.600984 109.60319 
L 228.747518 110.347912 
L 228.894052 107.819777 
L 229.040586 109.446406 
L 229.18712 108.780076 
L 229.480188 104.860487 
L 229.626722 104.742899 
L 229.773256 104.958477 
L 230.212858 100.039392 
L 230.359391 99.902206 
L 230.652459 97.824824 
L 230.798993 98.471556 
L 230.945527 96.982112 
L 231.092061 93.57207 
L 231.238595 93.37609 
L 231.385129 91.514285 
L 231.531663 93.493678 
L 231.824731 87.202737 
L 231.971265 86.477613 
L 232.117799 86.497211 
L 232.410867 81.048982 
L 233.143537 72.19071 
L 233.290071 71.602772 
L 233.583138 66.095749 
L 233.729672 65.194243 
L 233.876206 61.509829 
L 234.02274 62.352541 
L 234.315808 54.101805 
L 235.195012 40.383243 
L 235.48808 34.837024 
L 235.634614 33.386776 
L 235.781148 33.563158 
L 236.074216 28.154124 
L 236.22075 27.546588 
L 236.513818 23.117452 
L 236.806885 21.549616 
L 236.953419 23.293834 
L 237.099953 19.962183 
L 237.246487 13.377273 
L 237.393021 18.609924 
L 237.539555 14.690335 
L 237.686089 18.257161 
L 237.832623 14.494356 
L 237.979157 15.101892 
L 238.125691 17.257666 
L 238.272225 17.630027 
L 238.418759 17.179274 
L 238.565293 17.571233 
L 238.711827 17.610429 
L 238.858361 16.179779 
L 239.004895 20.393338 
L 239.151429 20.491327 
L 239.591031 26.527495 
L 239.884099 30.662662 
L 240.177166 34.719436 
L 240.3237 39.26616 
L 240.470234 36.816417 
L 240.763302 44.302832 
L 240.909836 49.47669 
L 241.05637 49.927443 
L 241.349438 54.356579 
L 241.495972 55.728435 
L 241.935574 67.741976 
L 242.082108 66.134945 
L 242.375176 74.228897 
L 242.52171 73.346989 
L 242.668244 75.228392 
L 242.814778 80.147476 
L 242.961312 79.579136 
L 243.107846 82.362044 
L 243.400913 84.008272 
L 243.547447 88.574593 
L 243.693981 89.593687 
L 244.280117 98.177587 
L 244.573185 99.882608 
L 244.719719 97.883618 
L 244.866253 103.723806 
L 245.012787 103.645414 
L 245.305855 105.840384 
L 245.452389 105.409229 
L 245.891991 110.739871 
L 246.478126 113.385594 
L 246.62466 115.678553 
L 246.771194 115.952925 
L 246.917728 115.266996 
L 247.064262 115.639357 
L 247.210796 117.951915 
L 247.35733 116.619255 
L 247.650398 119.068998 
L 247.796932 118.324276 
L 247.943466 118.461462 
L 248.09 120.107689 
L 248.236534 120.088091 
L 248.383068 120.205679 
L 248.529602 121.969494 
L 248.676136 121.655927 
L 248.969204 122.165474 
L 249.115738 123.380546 
L 249.262272 122.929793 
L 249.408806 124.576021 
L 249.55534 122.792608 
L 249.701873 123.400144 
L 249.848407 125.163959 
L 250.288009 126.006671 
L 250.581077 123.909691 
L 250.874145 126.770991 
L 251.020679 126.477022 
L 251.167213 127.633301 
L 251.313747 126.339836 
L 251.460281 128.456414 
L 251.606815 127.496115 
L 251.753349 127.496115 
L 252.046417 128.554404 
L 252.192951 128.240837 
L 252.339485 129.553899 
L 252.486019 128.671992 
L 252.632553 128.69159 
L 252.779087 128.280033 
L 252.92562 129.436312 
L 253.072154 128.809177 
L 253.365222 129.867467 
L 253.511756 129.279528 
L 253.65829 129.25993 
L 253.951358 130.181034 
L 254.244426 129.024755 
L 254.39096 130.494601 
L 254.537494 130.337817 
L 254.684028 131.023745 
L 254.830562 130.337817 
L 254.977096 131.082539 
L 255.12363 130.612189 
L 255.270164 130.69058 
L 255.416698 131.768467 
L 255.563232 130.239828 
L 255.8563 131.768467 
L 256.002834 131.788065 
L 256.149367 131.533292 
L 256.295901 130.866962 
L 256.442435 131.964447 
L 256.588969 131.905653 
L 256.735503 132.258416 
L 257.028571 131.337313 
L 257.468173 133.238313 
L 257.614707 131.35691 
L 257.761241 132.571983 
L 257.907775 131.866457 
L 258.054309 132.31721 
L 258.200843 132.003643 
L 258.347377 132.748365 
L 258.640445 132.21922 
L 258.786979 133.336303 
L 259.080047 132.787561 
L 259.226581 132.748365 
L 259.519648 133.453891 
L 259.812716 132.611179 
L 259.95925 132.767963 
L 260.252318 132.336808 
L 260.398852 133.414695 
L 260.545386 132.728767 
L 260.69192 133.022736 
L 260.838454 132.513189 
L 261.131522 133.140324 
L 261.278056 133.885046 
L 261.42459 133.257911 
L 261.571124 133.395097 
L 261.717658 133.297107 
L 261.864192 132.944344 
L 262.010726 133.336303 
L 262.15726 134.081025 
L 262.450328 133.473489 
L 262.596861 133.571478 
L 263.036463 133.003138 
L 263.182997 133.826252 
L 263.476065 132.473993 
L 263.622599 134.335798 
L 263.915667 132.199622 
L 264.062201 134.100623 
L 264.208735 134.081025 
L 264.355269 133.532283 
L 264.501803 134.41419 
L 264.648337 133.728262 
L 264.794871 134.688561 
L 264.941405 134.159417 
L 265.087939 134.551376 
L 265.234473 134.531778 
L 265.381007 133.689066 
L 265.527541 133.728262 
L 265.820609 134.453386 
L 265.967142 133.493087 
L 266.113676 134.531778 
L 266.26021 134.649365 
L 266.553278 133.375499 
L 266.699812 134.335798 
L 266.846346 134.41419 
L 266.99288 135.256902 
L 267.285948 134.453386 
L 267.432482 133.179519 
L 267.579016 133.963437 
L 267.72555 134.100623 
L 267.872084 134.766953 
L 268.018618 134.708159 
L 268.165152 134.786551 
L 268.311686 134.492582 
L 268.45822 133.728262 
L 268.604754 134.649365 
L 268.751288 134.727757 
L 268.897822 133.904644 
L 269.190889 135.08052 
L 269.337423 134.139819 
L 269.630491 134.41419 
L 269.777025 135.707655 
L 270.070093 134.3162 
L 270.216627 134.982531 
L 270.363161 134.904139 
L 270.509695 135.060922 
L 270.656229 135.472479 
L 270.802763 134.747355 
L 270.949297 134.590572 
L 271.095831 135.002129 
L 271.242365 134.668963 
L 271.388899 135.158912 
L 271.681967 133.924241 
L 271.828501 135.158912 
L 271.975035 133.610674 
L 272.121569 135.237304 
L 272.268103 134.3162 
L 272.414636 134.374994 
L 272.707704 135.903634 
L 272.854238 134.629768 
L 273.000772 134.845345 
L 273.147306 134.845345 
L 273.29384 134.61017 
L 273.440374 134.629768 
L 273.586908 135.256902 
L 273.733442 134.766953 
L 274.173044 135.335294 
L 274.319578 134.806149 
L 274.466112 135.472479 
L 274.612646 135.158912 
L 274.75918 135.413685 
L 275.052248 134.708159 
L 275.198782 135.217706 
L 275.345316 134.394592 
L 275.638383 135.531273 
L 275.931451 134.923737 
L 276.224519 135.570469 
L 276.371053 134.884541 
L 276.957189 135.002129 
L 277.103723 134.51218 
L 277.250257 135.531273 
L 277.543325 134.845345 
L 277.689859 135.119716 
L 277.836393 134.845345 
L 277.982927 134.962933 
L 278.129461 135.256902 
L 278.275995 135.060922 
L 278.422529 135.511675 
L 278.569063 134.394592 
L 278.715597 135.472479 
L 279.008664 135.139314 
L 279.155198 134.962933 
L 279.301732 135.727253 
L 279.448266 135.609665 
L 279.5948 135.94283 
L 279.741334 134.766953 
L 279.887868 136.236799 
L 280.034402 135.84484 
L 280.180936 135.825242 
L 280.32747 136.315191 
L 280.474004 134.668963 
L 280.767072 135.590067 
L 280.913606 135.17851 
L 281.06014 135.648861 
L 281.353208 135.590067 
L 281.499742 134.864943 
L 281.646276 135.472479 
L 281.79281 135.158912 
L 281.939344 135.37449 
L 282.085877 135.237304 
L 282.232411 135.74685 
L 282.378945 135.590067 
L 282.525479 135.884036 
L 282.672013 135.84484 
L 282.965081 135.472479 
L 283.111615 135.727253 
L 283.258149 135.668459 
L 283.404683 135.08052 
L 283.551217 135.648861 
L 283.697751 135.217706 
L 283.844285 136.236799 
L 283.990819 135.707655 
L 284.137353 136.354387 
L 284.723489 135.158912 
L 284.870023 135.688057 
L 285.016557 135.37449 
L 285.163091 136.922727 
L 285.309624 136.550366 
L 285.602692 134.962933 
L 285.749226 135.74685 
L 285.89576 135.433283 
L 286.042294 135.923232 
L 286.188828 135.433283 
L 286.335362 135.629263 
L 286.481896 135.119716 
L 286.62843 135.237304 
L 286.774964 134.982531 
L 287.068032 135.864438 
L 287.3611 135.08052 
L 287.507634 135.17851 
L 287.654168 135.707655 
L 287.800702 134.982531 
L 287.947236 135.296098 
L 288.09377 135.2765 
L 288.240304 135.786046 
L 288.386838 135.707655 
L 288.533371 135.296098 
L 288.679905 135.37449 
L 288.826439 136.080016 
L 288.972973 136.080016 
L 289.119507 135.74685 
L 289.412575 135.707655 
L 289.559109 135.550871 
L 289.705643 135.962428 
L 289.852177 135.923232 
L 289.998711 135.668459 
L 290.145245 135.84484 
L 290.291779 135.825242 
L 290.584847 135.413685 
L 290.731381 135.511675 
L 290.877915 136.726748 
L 291.024449 135.315696 
L 291.170983 135.315696 
L 291.317517 135.002129 
L 291.610585 135.884036 
L 291.757118 135.727253 
L 291.903652 135.198108 
L 292.050186 136.001624 
L 292.19672 136.021222 
L 292.489788 135.609665 
L 292.636322 135.805644 
L 292.782856 135.766448 
L 293.075924 135.256902 
L 293.222458 135.021726 
L 293.368992 135.256902 
L 293.515526 135.884036 
L 293.808594 135.354892 
L 293.955128 135.668459 
L 294.101662 134.649365 
L 294.39473 135.982026 
L 294.541264 134.904139 
L 294.834332 135.237304 
L 295.127399 133.963437 
L 295.273933 134.041829 
L 295.860069 131.886055 
L 296.153137 131.200127 
L 296.299671 131.846859 
L 296.592739 131.200127 
L 296.739273 132.473993 
L 296.885807 132.31721 
L 297.032341 132.454395 
L 297.325409 133.532283 
L 297.618477 133.375499 
L 297.765011 134.943335 
L 297.911545 134.41419 
L 298.058079 134.668963 
L 298.351146 136.04082 
L 298.49768 134.884541 
L 298.790748 136.080016 
L 299.083816 135.296098 
L 299.23035 135.08052 
L 299.376884 135.825242 
L 299.523418 135.648861 
L 299.669952 135.296098 
L 299.816486 135.74685 
L 299.96302 135.472479 
L 300.109554 135.805644 
L 300.256088 133.865448 
L 300.69569 136.256397 
L 300.842224 136.099614 
L 300.988758 135.060922 
L 301.281826 135.511675 
L 301.428359 134.668963 
L 301.721427 136.099614 
L 301.867961 134.649365 
L 302.161029 135.864438 
L 302.307563 135.864438 
L 302.454097 135.198108 
L 302.600631 135.570469 
L 302.747165 136.863933 
L 302.893699 135.668459 
L 303.040233 135.590067 
L 303.186767 135.021726 
L 303.333301 136.04082 
L 303.626369 135.217706 
L 303.772903 134.982531 
L 303.919437 135.884036 
L 304.359039 135.296098 
L 304.505573 135.354892 
L 304.79864 136.080016 
L 304.945174 134.962933 
L 305.091708 135.668459 
L 305.238242 135.786046 
L 305.384776 135.237304 
L 305.677844 136.099614 
L 305.824378 135.335294 
L 305.970912 136.060418 
L 306.117446 135.94283 
L 306.26398 135.315696 
L 306.410514 135.590067 
L 306.557048 136.178005 
L 306.703582 135.315696 
L 306.850116 136.393583 
L 306.99665 135.884036 
L 307.143184 134.923737 
L 307.289718 135.805644 
L 307.436252 135.590067 
L 307.582786 135.727253 
L 307.875853 135.315696 
L 308.022387 135.825242 
L 308.168921 135.492077 
L 308.315455 135.923232 
L 308.461989 134.531778 
L 308.608523 134.590572 
L 308.755057 134.825747 
L 308.901591 135.94283 
L 309.048125 135.37449 
L 309.194659 135.531273 
L 309.487727 135.433283 
L 309.634261 135.531273 
L 309.780795 135.433283 
L 309.927329 135.472479 
L 310.073863 135.100118 
L 310.220397 135.17851 
L 310.366931 135.492077 
L 310.513465 135.354892 
L 310.659999 136.001624 
L 310.806533 135.786046 
L 311.0996 135.100118 
L 311.246134 134.786551 
L 311.392668 135.786046 
L 311.685736 135.413685 
L 311.83227 135.84484 
L 311.978804 135.452881 
L 312.125338 135.492077 
L 312.271872 135.060922 
L 312.418406 135.041324 
L 312.56494 134.825747 
L 312.711474 135.668459 
L 312.858008 135.688057 
L 313.004542 135.158912 
L 313.151076 135.570469 
L 313.444144 135.2765 
L 313.737212 135.688057 
L 313.883746 135.002129 
L 314.03028 135.002129 
L 314.323348 135.37449 
L 314.469881 135.041324 
L 314.616415 135.158912 
L 314.762949 134.453386 
L 314.909483 135.511675 
L 315.202551 135.256902 
L 315.495619 135.550871 
L 315.642153 135.550871 
L 315.788687 134.668963 
L 315.935221 135.17851 
L 316.081755 134.727757 
L 316.228289 135.17851 
L 316.374823 136.334789 
L 316.521357 136.217201 
L 316.667891 135.413685 
L 316.814425 135.590067 
L 316.960959 134.649365 
L 317.107493 135.296098 
L 317.254027 134.943335 
L 317.400561 135.335294 
L 317.547095 134.864943 
L 317.693628 135.139314 
L 317.986696 134.570974 
L 318.13323 134.845345 
L 318.279764 135.452881 
L 318.572832 134.727757 
L 318.719366 135.472479 
L 318.8659 134.766953 
L 319.012434 135.37449 
L 319.158968 134.864943 
L 319.305502 135.550871 
L 319.452036 135.629263 
L 319.59857 134.590572 
L 319.891638 135.100118 
L 320.184706 134.179015 
L 320.33124 134.668963 
L 320.477774 134.649365 
L 320.624308 134.257407 
L 320.917375 134.590572 
L 321.063909 134.179015 
L 321.210443 135.060922 
L 321.356977 134.766953 
L 321.650045 135.256902 
L 321.796579 134.688561 
L 321.943113 135.472479 
L 322.089647 134.962933 
L 322.236181 135.413685 
L 322.529249 134.433788 
L 322.675783 134.688561 
L 322.968851 134.374994 
L 323.115385 134.864943 
L 323.261919 134.335798 
L 323.408453 134.257407 
L 323.554987 134.51218 
L 323.848055 133.061932 
L 323.994589 134.335798 
L 324.141122 134.453386 
L 324.287656 133.708664 
L 324.43419 134.727757 
L 324.580724 134.629768 
L 324.727258 134.002633 
L 325.16686 134.198613 
L 325.459928 133.042334 
L 325.606462 133.943839 
L 325.752996 133.708664 
L 325.89953 134.492582 
L 326.046064 134.198613 
L 326.192598 133.375499 
L 326.339132 133.74786 
L 326.485666 133.434293 
L 326.6322 133.806654 
L 326.778734 132.963942 
L 326.925268 134.022231 
L 327.218336 134.355396 
L 327.364869 134.237809 
L 327.511403 134.277004 
L 327.804471 131.944849 
L 328.097539 133.355901 
L 328.244073 132.944344 
L 328.390607 132.98354 
L 328.537141 132.454395 
L 328.683675 133.120726 
L 328.976743 132.611179 
L 329.269811 133.101128 
L 329.416345 131.807663 
L 329.562879 132.669973 
L 329.709413 132.493591 
L 329.855947 132.101632 
L 330.002481 132.532787 
L 330.149015 131.768467 
L 330.295549 132.238818 
L 330.442083 132.12123 
L 330.588616 132.944344 
L 330.73515 131.572488 
L 330.881684 132.140828 
L 331.028218 131.082539 
L 331.174752 131.827261 
L 331.321286 131.944849 
L 331.46782 131.690076 
L 331.614354 131.984045 
L 331.760888 131.592086 
L 331.907422 129.985054 
L 332.053956 130.12224 
L 332.20049 131.258921 
L 332.640092 130.337817 
L 332.786626 131.200127 
L 332.93316 131.180529 
L 333.226228 130.12224 
L 333.372762 130.12224 
L 333.519296 129.534301 
L 333.66583 129.789075 
L 333.812363 129.612693 
L 334.105431 128.671992 
L 334.398499 129.573497 
L 334.545033 127.280538 
L 334.691567 127.574507 
L 334.984635 128.534806 
L 335.131169 127.711692 
L 335.277703 127.790084 
L 335.570771 127.554909 
L 335.863839 125.595114 
L 336.010373 125.418733 
L 336.156907 127.006166 
L 336.303441 125.555918 
L 336.449975 126.359434 
L 336.596509 124.850392 
L 336.743043 126.379032 
L 337.182644 122.694618 
L 337.329178 123.948887 
L 337.622246 122.67502 
L 337.76878 122.812206 
L 338.061848 121.185576 
L 338.208382 123.34135 
L 338.354916 120.519246 
L 338.50145 120.715226 
L 338.647984 119.598143 
L 338.794518 120.205679 
L 338.941052 121.381556 
L 339.087586 118.892617 
L 339.380654 117.403173 
L 339.527188 117.540358 
L 339.673722 117.52076 
L 339.96679 114.326295 
L 340.113324 114.326295 
L 340.552925 112.778057 
L 340.845993 110.406706 
L 340.992527 111.210222 
L 341.139061 110.36751 
L 341.432129 107.50621 
L 341.578663 107.016261 
L 341.725197 104.762497 
L 341.871731 104.880085 
L 342.018265 103.998177 
L 342.164799 103.900187 
L 342.457867 100.588135 
L 342.604401 101.528836 
L 342.750935 97.883618 
L 342.897469 98.255979 
L 343.044003 94.630359 
L 343.190537 97.060504 
L 343.483604 91.788657 
L 343.630138 90.299213 
L 343.776672 90.436398 
L 343.923206 86.771582 
L 344.06974 88.476604 
L 344.509342 84.223849 
L 344.655876 84.125859 
L 344.948944 80.598229 
L 345.388546 77.305774 
L 345.53508 77.521352 
L 345.681614 78.795218 
L 345.828148 75.561557 
L 345.974682 75.463567 
L 346.121216 75.600753 
L 346.26775 74.170103 
L 346.560818 73.503772 
L 346.707351 73.151009 
L 346.853885 71.779153 
L 347.000419 74.424876 
L 347.146953 71.602772 
L 347.440021 73.033422 
L 347.733089 71.504782 
L 347.879623 74.28769 
L 348.026157 73.640958 
L 348.319225 75.698743 
L 348.465759 76.306279 
L 348.758827 78.540445 
L 348.905361 77.893713 
L 349.198429 80.97059 
L 349.344963 80.323858 
L 349.638031 83.341942 
L 349.784565 84.243447 
L 349.931098 86.085654 
L 350.077632 86.164046 
L 350.224166 87.731882 
L 350.3707 87.437912 
L 350.517234 88.770573 
L 350.663768 91.435894 
L 350.810302 90.593182 
L 351.10337 93.630864 
L 351.249904 92.670564 
L 351.396438 95.66905 
L 351.542972 96.100205 
L 351.83604 99.255474 
L 351.982574 99.39266 
L 352.275642 100.392155 
L 352.422176 102.567527 
L 352.56871 102.097176 
L 352.861778 104.115765 
L 353.008312 104.840889 
L 353.447913 109.152437 
L 353.594447 107.800179 
L 353.740981 110.818263 
L 353.887515 109.916757 
L 354.327117 113.307202 
L 354.473651 112.052933 
L 354.620185 114.130316 
L 354.766719 114.326295 
L 355.059787 115.600162 
L 355.206321 115.502172 
L 355.352855 117.363977 
L 355.499389 117.71674 
L 355.645923 117.697142 
L 356.085525 120.989597 
L 356.232059 119.950906 
L 356.525126 121.871504 
L 356.67166 121.577535 
L 356.818194 122.224267 
L 357.111262 122.439845 
L 357.257796 122.302659 
L 357.40433 122.557433 
L 357.550864 124.791598 
L 357.697398 124.556423 
L 357.990466 125.340341 
L 358.137 125.222753 
L 358.137 125.222753 
" clip-path="url(#p463494f9cf)" style="fill: none; stroke: #1f77b4; stroke-width: 0.5; stroke-linecap: square"/>
   </g>
   <g id="patch_3">
    <path d="M 23.410313 143.1 
L 23.410313 7.2 
" style="fill: none; stroke: #000000; stroke-width: 0.8; stroke-linejoin: miter; stroke-linecap: square"/>
   </g>
   <g id="patch_4">
    <path d="M 23.410313 143.1 
L 358.210312 143.1 
" style="fill: none; stroke: #000000; stroke-width: 0.8; stroke-linejoin: miter; stroke-linecap: square"/>
   </g>
  </g>
 </g>
 <defs>
  <clipPath id="p463494f9cf">
   <rect x="23.410313" y="7.2" width="334.8" height="135.9"/>
  </clipPath>
 </defs>
</svg>
