<svg xmlns="http://www.w3.org/2000/svg" xmlns:xlink="http://www.w3.org/1999/xlink" width="425.67" height="220.12" viewBox="0 0 425.67 220.12"><defs><style>.cls-1,.cls-6,.cls-7,.cls-8{fill:none;}.cls-2,.cls-9{fill:#fff;}.cls-3,.cls-4,.cls-8{stroke:#000;}.cls-3,.cls-4,.cls-6,.cls-7{stroke-linejoin:round;}.cls-3,.cls-8{stroke-width:0.8px;}.cls-4{stroke-width:0.6px;}.cls-5{clip-path:url(#clip-path);}.cls-6{stroke:#17045c;}.cls-6,.cls-7,.cls-8{stroke-linecap:square;}.cls-6,.cls-7{stroke-width:0.5px;}.cls-7{stroke:#73005d;}.cls-9{stroke:#ccc;isolation:isolate;opacity:0.8;}</style><clipPath id="clip-path"><rect class="cls-1" x="23.41" y="22.32" width="395.06" height="163.08"/></clipPath></defs><g id="Layer_1" data-name="Layer 1"><g id="figure_1" data-name="figure 1"><g id="patch_1" data-name="patch 1"><path class="cls-2" d="M0,220.12H425.67V0H0Z"/></g><g id="axes_1" data-name="axes 1"><g id="patch_2" data-name="patch 2"><path class="cls-2" d="M23.41,185.4H418.47V22.32H23.41Z"/></g><g id="matplotlib.axis_1" data-name="matplotlib.axis 1"><g id="xtick_1" data-name="xtick 1"><g id="line2d_1" data-name="line2d 1"><path id="m0aa008fc0f" class="cls-3" d="M56.33,185.4v3.5"/></g><g id="text_1" data-name="text 1"><path id="DejaVuSans-31" d="M52.23,197.81h1.29v-4.45l-1.4.28v-.71l1.4-.29h.78v5.17h1.29v.67H52.23Z"/><path id="DejaVuSans-30" d="M58.87,193.16a1,1,0,0,0-.91.6,5.41,5.41,0,0,0,0,3.61,1,1,0,0,0,1.83,0,5.41,5.41,0,0,0,0-3.61A1,1,0,0,0,58.87,193.16Zm0-.62a1.68,1.68,0,0,1,1.5.78,4,4,0,0,1,.52,2.25,4,4,0,0,1-.52,2.25,1.84,1.84,0,0,1-3,0,4,4,0,0,1-.52-2.25,4,4,0,0,1,.52-2.25A1.67,1.67,0,0,1,58.87,192.54Z"/></g></g><g id="xtick_2" data-name="xtick 2"><g id="line2d_2" data-name="line2d 2"><path id="m0aa008fc0f-2" data-name="m0aa008fc0f" class="cls-3" d="M122.18,185.4v3.5"/></g><g id="text_2" data-name="text 2"><path id="DejaVuSans-32" d="M118.62,197.81h2.76v.67h-3.71v-.67l1.23-1.24c.51-.53.84-.86,1-1a3.59,3.59,0,0,0,.53-.72,1.25,1.25,0,0,0,.15-.58,1,1,0,0,0-.32-.75,1.23,1.23,0,0,0-.85-.3,2.89,2.89,0,0,0-.79.13,5.42,5.42,0,0,0-.88.39v-.79a5.71,5.71,0,0,1,.89-.29,3.12,3.12,0,0,1,.76-.1,2.21,2.21,0,0,1,1.45.45,1.53,1.53,0,0,1,.53,1.21,1.8,1.8,0,0,1-.13.69,3.23,3.23,0,0,1-.49.75c-.07.08-.27.3-.62.66Z"/><path id="DejaVuSans-30-2" data-name="DejaVuSans-30" d="M124.72,193.16a1,1,0,0,0-.92.6,5.58,5.58,0,0,0,0,3.61,1,1,0,0,0,1.84,0,5.41,5.41,0,0,0,0-3.61A1,1,0,0,0,124.72,193.16Zm0-.62a1.7,1.7,0,0,1,1.5.78,4.07,4.07,0,0,1,.51,2.25,4.12,4.12,0,0,1-.51,2.25,1.85,1.85,0,0,1-3,0,4.11,4.11,0,0,1-.52-2.25,4.07,4.07,0,0,1,.52-2.25A1.7,1.7,0,0,1,124.72,192.54Z"/></g></g><g id="xtick_3" data-name="xtick 3"><g id="line2d_3" data-name="line2d 3"><path id="m0aa008fc0f-3" data-name="m0aa008fc0f" class="cls-3" d="M188,185.4v3.5"/></g><g id="text_3" data-name="text 3"><path id="DejaVuSans-33" d="M186.18,195.33a1.5,1.5,0,0,1,.88.51,1.43,1.43,0,0,1,.32.94,1.63,1.63,0,0,1-.59,1.34,2.7,2.7,0,0,1-1.69.47,4,4,0,0,1-.76-.07,5.35,5.35,0,0,1-.8-.22v-.76a2.86,2.86,0,0,0,.72.29,3.61,3.61,0,0,0,.82.1,1.83,1.83,0,0,0,1.13-.3,1,1,0,0,0,.38-.85,1,1,0,0,0-.36-.8,1.51,1.51,0,0,0-1-.3h-.68V195h.71a1.43,1.43,0,0,0,.89-.24.8.8,0,0,0,.31-.67.82.82,0,0,0-.32-.69,1.49,1.49,0,0,0-.91-.24,4.48,4.48,0,0,0-.7.07,6.21,6.21,0,0,0-.81.22v-.7a8.18,8.18,0,0,1,.84-.19,4.91,4.91,0,0,1,.74-.06,2.26,2.26,0,0,1,1.42.41,1.32,1.32,0,0,1,.52,1.1,1.26,1.26,0,0,1-.27.82A1.45,1.45,0,0,1,186.18,195.33Z"/><path id="DejaVuSans-30-3" data-name="DejaVuSans-30" d="M190.56,193.16a1,1,0,0,0-.91.6,5.41,5.41,0,0,0,0,3.61,1,1,0,0,0,1.83,0,5.41,5.41,0,0,0,0-3.61A1,1,0,0,0,190.56,193.16Zm0-.62a1.68,1.68,0,0,1,1.5.78,4,4,0,0,1,.52,2.25,4,4,0,0,1-.52,2.25,1.84,1.84,0,0,1-3,0,4,4,0,0,1-.52-2.25,4,4,0,0,1,.52-2.25A1.67,1.67,0,0,1,190.56,192.54Z"/></g></g><g id="xtick_4" data-name="xtick 4"><g id="line2d_4" data-name="line2d 4"><path id="m0aa008fc0f-4" data-name="m0aa008fc0f" class="cls-3" d="M253.86,185.4v3.5"/></g><g id="text_4" data-name="text 4"><path id="DejaVuSans-34" d="M251.8,193.33l-2,3.12h2Zm-.21-.69h1v3.81h.84v.65h-.84v1.38h-.78V197.1h-2.63v-.76Z"/><path id="DejaVuSans-30-4" data-name="DejaVuSans-30" d="M256.41,193.16a1,1,0,0,0-.92.6,5.41,5.41,0,0,0,0,3.61,1,1,0,0,0,1.84,0,5.58,5.58,0,0,0,0-3.61A1,1,0,0,0,256.41,193.16Zm0-.62a1.7,1.7,0,0,1,1.5.78,4.07,4.07,0,0,1,.51,2.25,4.12,4.12,0,0,1-.51,2.25,1.71,1.71,0,0,1-1.5.77,1.69,1.69,0,0,1-1.5-.77,4,4,0,0,1-.52-2.25,4,4,0,0,1,.52-2.25A1.68,1.68,0,0,1,256.41,192.54Z"/></g></g><g id="xtick_5" data-name="xtick 5"><g id="line2d_5" data-name="line2d 5"><path id="m0aa008fc0f-5" data-name="m0aa008fc0f" class="cls-3" d="M319.71,185.4v3.5"/></g><g id="text_5" data-name="text 5"><path id="DejaVuSans-35" d="M315.48,192.64h3.1v.67H316.2v1.43a2.25,2.25,0,0,1,.35-.09,2,2,0,0,1,.34,0,2.17,2.17,0,0,1,1.55.54,2.12,2.12,0,0,1,0,2.91,2.38,2.38,0,0,1-1.65.52,4.93,4.93,0,0,1-.75-.06,6.3,6.3,0,0,1-.78-.19v-.79a3.16,3.16,0,0,0,.72.28,3.42,3.42,0,0,0,.79.1,1.51,1.51,0,0,0,1.07-.36,1.36,1.36,0,0,0,0-1.93,1.5,1.5,0,0,0-1.07-.35,2.7,2.7,0,0,0-.63.07,3.41,3.41,0,0,0-.64.21Z"/><path id="DejaVuSans-30-5" data-name="DejaVuSans-30" d="M322.25,193.16a1,1,0,0,0-.92.6,5.58,5.58,0,0,0,0,3.61,1,1,0,0,0,1.84,0,5.41,5.41,0,0,0,0-3.61A1,1,0,0,0,322.25,193.16Zm0-.62a1.7,1.7,0,0,1,1.5.78,4.07,4.07,0,0,1,.52,2.25,4.11,4.11,0,0,1-.52,2.25,1.85,1.85,0,0,1-3,0,4.12,4.12,0,0,1-.51-2.25,4.07,4.07,0,0,1,.51-2.25A1.7,1.7,0,0,1,322.25,192.54Z"/></g></g><g id="xtick_6" data-name="xtick 6"><g id="line2d_6" data-name="line2d 6"><path id="m0aa008fc0f-6" data-name="m0aa008fc0f" class="cls-3" d="M385.55,185.4v3.5"/></g><g id="text_6" data-name="text 6"><path id="DejaVuSans-36" d="M383.1,195.25a1.06,1.06,0,0,0-.84.36,1.75,1.75,0,0,0,0,2,1.07,1.07,0,0,0,.84.37,1,1,0,0,0,.84-.37,1.75,1.75,0,0,0,0-2A1,1,0,0,0,383.1,195.25Zm1.57-2.48v.72a3.57,3.57,0,0,0-.6-.21,2.47,2.47,0,0,0-.6-.08,1.42,1.42,0,0,0-1.19.53,2.78,2.78,0,0,0-.47,1.59,1.58,1.58,0,0,1,.57-.52,1.68,1.68,0,0,1,.77-.18,1.82,1.82,0,0,1,1.39.54,2.27,2.27,0,0,1,0,2.89,1.91,1.91,0,0,1-1.42.54,1.76,1.76,0,0,1-1.54-.77,3.94,3.94,0,0,1-.54-2.25,3.44,3.44,0,0,1,.66-2.21,2.11,2.11,0,0,1,1.76-.82,3.05,3.05,0,0,1,.6.06A6,6,0,0,1,384.67,192.77Z"/><path id="DejaVuSans-30-6" data-name="DejaVuSans-30" d="M388.09,193.16a1,1,0,0,0-.91.6,5.41,5.41,0,0,0,0,3.61,1,1,0,0,0,1.83,0,5.41,5.41,0,0,0,0-3.61A1,1,0,0,0,388.09,193.16Zm0-.62a1.68,1.68,0,0,1,1.5.78,4,4,0,0,1,.52,2.25,4,4,0,0,1-.52,2.25,1.84,1.84,0,0,1-3,0,4,4,0,0,1-.52-2.25,4,4,0,0,1,.52-2.25A1.67,1.67,0,0,1,388.09,192.54Z"/></g></g><g id="xtick_7" data-name="xtick 7"><g id="line2d_7" data-name="line2d 7"><path id="mdb9d2b2231" class="cls-4" d="M23.41,185.4v2"/></g></g><g id="xtick_8" data-name="xtick 8"><g id="line2d_8" data-name="line2d 8"><path id="mdb9d2b2231-2" data-name="mdb9d2b2231" class="cls-4" d="M39.87,185.4v2"/></g></g><g id="xtick_9" data-name="xtick 9"><g id="line2d_9" data-name="line2d 9"><path id="mdb9d2b2231-3" data-name="mdb9d2b2231" class="cls-4" d="M72.79,185.4v2"/></g></g><g id="xtick_10" data-name="xtick 10"><g id="line2d_10" data-name="line2d 10"><path id="mdb9d2b2231-4" data-name="mdb9d2b2231" class="cls-4" d="M89.25,185.4v2"/></g></g><g id="xtick_11" data-name="xtick 11"><g id="line2d_11" data-name="line2d 11"><path id="mdb9d2b2231-5" data-name="mdb9d2b2231" class="cls-4" d="M105.72,185.4v2"/></g></g><g id="xtick_12" data-name="xtick 12"><g id="line2d_12" data-name="line2d 12"><path id="mdb9d2b2231-6" data-name="mdb9d2b2231" class="cls-4" d="M138.64,185.4v2"/></g></g><g id="xtick_13" data-name="xtick 13"><g id="line2d_13" data-name="line2d 13"><path id="mdb9d2b2231-7" data-name="mdb9d2b2231" class="cls-4" d="M155.1,185.4v2"/></g></g><g id="xtick_14" data-name="xtick 14"><g id="line2d_14" data-name="line2d 14"><path id="mdb9d2b2231-8" data-name="mdb9d2b2231" class="cls-4" d="M171.56,185.4v2"/></g></g><g id="xtick_15" data-name="xtick 15"><g id="line2d_15" data-name="line2d 15"><path id="mdb9d2b2231-9" data-name="mdb9d2b2231" class="cls-4" d="M204.48,185.4v2"/></g></g><g id="xtick_16" data-name="xtick 16"><g id="line2d_16" data-name="line2d 16"><path id="mdb9d2b2231-10" data-name="mdb9d2b2231" class="cls-4" d="M220.94,185.4v2"/></g></g><g id="xtick_17" data-name="xtick 17"><g id="line2d_17" data-name="line2d 17"><path id="mdb9d2b2231-11" data-name="mdb9d2b2231" class="cls-4" d="M237.4,185.4v2"/></g></g><g id="xtick_18" data-name="xtick 18"><g id="line2d_18" data-name="line2d 18"><path id="mdb9d2b2231-12" data-name="mdb9d2b2231" class="cls-4" d="M270.33,185.4v2"/></g></g><g id="xtick_19" data-name="xtick 19"><g id="line2d_19" data-name="line2d 19"><path id="mdb9d2b2231-13" data-name="mdb9d2b2231" class="cls-4" d="M286.79,185.4v2"/></g></g><g id="xtick_20" data-name="xtick 20"><g id="line2d_20" data-name="line2d 20"><path id="mdb9d2b2231-14" data-name="mdb9d2b2231" class="cls-4" d="M303.25,185.4v2"/></g></g><g id="xtick_21" data-name="xtick 21"><g id="line2d_21" data-name="line2d 21"><path id="mdb9d2b2231-15" data-name="mdb9d2b2231" class="cls-4" d="M336.17,185.4v2"/></g></g><g id="xtick_22" data-name="xtick 22"><g id="line2d_22" data-name="line2d 22"><path id="mdb9d2b2231-16" data-name="mdb9d2b2231" class="cls-4" d="M352.63,185.4v2"/></g></g><g id="xtick_23" data-name="xtick 23"><g id="line2d_23" data-name="line2d 23"><path id="mdb9d2b2231-17" data-name="mdb9d2b2231" class="cls-4" d="M369.09,185.4v2"/></g></g><g id="xtick_24" data-name="xtick 24"><g id="line2d_24" data-name="line2d 24"><path id="mdb9d2b2231-18" data-name="mdb9d2b2231" class="cls-4" d="M402,185.4v2"/></g></g><g id="xtick_25" data-name="xtick 25"><g id="line2d_25" data-name="line2d 25"><path id="mdb9d2b2231-19" data-name="mdb9d2b2231" class="cls-4" d="M418.47,185.4v2"/></g></g><g id="text_7" data-name="text 7"><path id="DejaVuSans-32-2" data-name="DejaVuSans-32" d="M194,210.3h3.1v.75h-4.17v-.75l1.38-1.4c.58-.59.95-1,1.09-1.14a3.92,3.92,0,0,0,.6-.81,1.47,1.47,0,0,0,.17-.65,1.07,1.07,0,0,0-.37-.85,1.36,1.36,0,0,0-1-.33,2.89,2.89,0,0,0-.89.14,5.83,5.83,0,0,0-1,.44v-.9a7.24,7.24,0,0,1,1-.32,3.89,3.89,0,0,1,.85-.11,2.42,2.42,0,0,1,1.62.51,1.67,1.67,0,0,1,.61,1.36,2,2,0,0,1-.15.77,4,4,0,0,1-.55.85l-.7.74C195.27,209,194.71,209.57,194,210.3Z"/><path id="DejaVuSans-3b8" d="M202.15,207.93h-2.8a4.62,4.62,0,0,0,.37,1.87,1.11,1.11,0,0,0,2.06,0A4.6,4.6,0,0,0,202.15,207.93Zm0-.75a5.64,5.64,0,0,0-.36-1.69,1.16,1.16,0,0,0-1-.69,1.12,1.12,0,0,0-1,.69,4.87,4.87,0,0,0-.36,1.69Zm-1.39-3a1.87,1.87,0,0,1,1.66.93,5.8,5.8,0,0,1,0,5.14,1.93,1.93,0,0,1-3.31,0,5.72,5.72,0,0,1,0-5.14A1.86,1.86,0,0,1,200.75,204.14Z"/><path id="DejaVuSans-20" d="M203.5,211.05"/><path id="DejaVuSans-28" d="M209.15,204.22a8.86,8.86,0,0,0-.87,2,7.08,7.08,0,0,0,0,4,9.2,9.2,0,0,0,.87,2h-.7a8.75,8.75,0,0,1-1-2,6.34,6.34,0,0,1-.33-2,6.49,6.49,0,0,1,.32-2,9.23,9.23,0,0,1,1-2Z"/><path id="DejaVuSans-64" d="M214,206.87v-2.66h.81v6.84H214v-.74a1.67,1.67,0,0,1-.64.65,1.84,1.84,0,0,1-.94.22,1.79,1.79,0,0,1-1.45-.71,3.42,3.42,0,0,1,0-3.75,1.79,1.79,0,0,1,1.45-.71,2,2,0,0,1,.94.21A1.67,1.67,0,0,1,214,206.87Zm-2.75,1.72a2.38,2.38,0,0,0,.36,1.4,1.19,1.19,0,0,0,1,.51,1.17,1.17,0,0,0,1-.51,2.83,2.83,0,0,0,0-2.8,1.19,1.19,0,0,0-1-.5,1.21,1.21,0,0,0-1,.5A2.4,2.4,0,0,0,211.21,208.59Z"/><path id="DejaVuSans-65" d="M220.65,208.39v.39h-3.72a1.83,1.83,0,0,0,.5,1.27,1.7,1.7,0,0,0,1.26.44,3.82,3.82,0,0,0,.9-.11,4,4,0,0,0,.87-.35v.77a4.83,4.83,0,0,1-.89.28,4.2,4.2,0,0,1-.93.1,2.52,2.52,0,0,1-1.87-.69,2.47,2.47,0,0,1-.69-1.85,2.7,2.7,0,0,1,.66-1.92,2.28,2.28,0,0,1,1.76-.71,2,2,0,0,1,1.57.64A2.5,2.5,0,0,1,220.65,208.39Zm-.81-.24a1.57,1.57,0,0,0-.37-1.06,1.28,1.28,0,0,0-1-.4,1.52,1.52,0,0,0-1.09.39,1.59,1.59,0,0,0-.46,1.07Z"/><path id="DejaVuSans-67" d="M225.21,208.53a2.22,2.22,0,0,0-.36-1.36,1.31,1.31,0,0,0-2,0,2.75,2.75,0,0,0,0,2.72,1.31,1.31,0,0,0,2,0A2.24,2.24,0,0,0,225.21,208.53Zm.81,1.91a2.71,2.71,0,0,1-.56,1.87,2.19,2.19,0,0,1-1.71.61,5.1,5.1,0,0,1-.8-.06,3.58,3.58,0,0,1-.73-.2v-.78a3.41,3.41,0,0,0,.7.28,2.82,2.82,0,0,0,.71.09,1.6,1.6,0,0,0,1.19-.41,1.79,1.79,0,0,0,.39-1.26v-.4a1.6,1.6,0,0,1-.64.65,1.84,1.84,0,0,1-.94.22,1.77,1.77,0,0,1-1.45-.69,3.27,3.27,0,0,1,0-3.66,1.77,1.77,0,0,1,1.45-.69,2,2,0,0,1,.94.21,1.67,1.67,0,0,1,.64.65v-.74H226Z"/><path id="DejaVuSans-72" d="M230.54,206.88a1,1,0,0,0-.3-.11,1.29,1.29,0,0,0-.35,0,1.27,1.27,0,0,0-1,.45,1.92,1.92,0,0,0-.37,1.28v2.59h-.81v-4.92h.81v.76a1.61,1.61,0,0,1,.66-.66,2.05,2.05,0,0,1,1-.22h.18l.22,0Z"/><path id="DejaVuSans-65-2" data-name="DejaVuSans-65" d="M235.39,208.39v.39h-3.71a1.83,1.83,0,0,0,.5,1.27,1.69,1.69,0,0,0,1.25.44,3.91,3.91,0,0,0,.91-.11,4,4,0,0,0,.87-.35v.77a4.7,4.7,0,0,1-.9.28,4.05,4.05,0,0,1-.92.1,2.52,2.52,0,0,1-1.87-.69,2.47,2.47,0,0,1-.69-1.85,2.74,2.74,0,0,1,.65-1.92,2.31,2.31,0,0,1,1.77-.71,2,2,0,0,1,1.57.64A2.5,2.5,0,0,1,235.39,208.39Zm-.8-.24a1.52,1.52,0,0,0-.38-1.06,1.25,1.25,0,0,0-1-.4,1.49,1.49,0,0,0-1.08.39,1.59,1.59,0,0,0-.47,1.07Z"/><path id="DejaVuSans-65-3" data-name="DejaVuSans-65" d="M240.93,208.39v.39h-3.72a1.88,1.88,0,0,0,.51,1.27,1.67,1.67,0,0,0,1.25.44,3.82,3.82,0,0,0,.9-.11,3.6,3.6,0,0,0,.87-.35v.77a4.83,4.83,0,0,1-.89.28,4.08,4.08,0,0,1-.93.1,2.51,2.51,0,0,1-1.86-.69,2.47,2.47,0,0,1-.69-1.85,2.74,2.74,0,0,1,.65-1.92,2.29,2.29,0,0,1,1.76-.71,2,2,0,0,1,1.57.64A2.46,2.46,0,0,1,240.93,208.39Zm-.81-.24a1.52,1.52,0,0,0-.37-1.06,1.25,1.25,0,0,0-1-.4,1.49,1.49,0,0,0-1.08.39,1.59,1.59,0,0,0-.47,1.07Z"/><path id="DejaVuSans-73" d="M245.4,206.27V207a3.13,3.13,0,0,0-.72-.27,3.77,3.77,0,0,0-.76-.08,1.78,1.78,0,0,0-.9.18.61.61,0,0,0-.3.55.54.54,0,0,0,.21.45,2.75,2.75,0,0,0,.87.3l.27.06a2.74,2.74,0,0,1,1.23.52,1.24,1.24,0,0,1,.36.94,1.29,1.29,0,0,1-.54,1.09,2.51,2.51,0,0,1-1.49.4,4.85,4.85,0,0,1-.83-.08,7,7,0,0,1-.9-.23V210a3.75,3.75,0,0,0,.88.35,3.24,3.24,0,0,0,.86.12,1.64,1.64,0,0,0,.88-.2.61.61,0,0,0,.31-.55.62.62,0,0,0-.22-.5,2.67,2.67,0,0,0-1-.34l-.28-.07a2.09,2.09,0,0,1-1.08-.48,1.18,1.18,0,0,1-.34-.9,1.27,1.27,0,0,1,.5-1.07,2.23,2.23,0,0,1,1.39-.38,4.64,4.64,0,0,1,.85.07A3.4,3.4,0,0,1,245.4,206.27Z"/><path id="DejaVuSans-29" d="M246.82,204.22h.7a9.23,9.23,0,0,1,1,2,6.21,6.21,0,0,1,.33,2,6.34,6.34,0,0,1-.33,2,9.23,9.23,0,0,1-1,2h-.7a8.74,8.74,0,0,0,.87-2,7.08,7.08,0,0,0,0-4A8.86,8.86,0,0,0,246.82,204.22Z"/></g></g><g id="matplotlib.axis_2" data-name="matplotlib.axis 2"><g id="text_8" data-name="text 8"><path id="DejaVuSans-49" d="M7.48,122.56v-.89H14v.89Z"/><path id="DejaVuSans-6e" d="M11.07,115.85h3v.81H11.09a1.68,1.68,0,0,0-1,.27,1,1,0,0,0-.35.82,1.31,1.31,0,0,0,.42,1,1.65,1.65,0,0,0,1.14.38H14V120H9.12v-.81h.76a1.94,1.94,0,0,1-.66-.68,1.83,1.83,0,0,1-.22-.91,1.56,1.56,0,0,1,.52-1.28A2.39,2.39,0,0,1,11.07,115.85Z"/><path id="DejaVuSans-74" d="M7.72,113.44h1.4v-1.67h.63v1.67h2.67a1.18,1.18,0,0,0,.77-.17.92.92,0,0,0,.17-.67v-.83H14v.83a1.83,1.83,0,0,1-.35,1.29,1.75,1.75,0,0,1-1.27.36H9.75v.59H9.12v-.59H7.72Z"/><path id="DejaVuSans-65-4" data-name="DejaVuSans-65" d="M11.38,106.5h.39v3.72a1.88,1.88,0,0,0,1.27-.51,1.72,1.72,0,0,0,.44-1.25,3.82,3.82,0,0,0-.11-.9,3.77,3.77,0,0,0-.35-.87h.77a5.73,5.73,0,0,1,.28.89,4.73,4.73,0,0,1,.1.93,2.38,2.38,0,0,1-2.54,2.55,2.74,2.74,0,0,1-1.92-.65A2.29,2.29,0,0,1,9,108.65a2,2,0,0,1,.64-1.57A2.46,2.46,0,0,1,11.38,106.5Zm-.24.81a1.52,1.52,0,0,0-1.06.37,1.25,1.25,0,0,0-.4,1,1.49,1.49,0,0,0,.39,1.08,1.59,1.59,0,0,0,1.07.47Z"/><path id="DejaVuSans-6e-2" data-name="DejaVuSans-6e" d="M11.07,101.08h3v.81H11.09a1.68,1.68,0,0,0-1,.27,1,1,0,0,0-.35.82,1.31,1.31,0,0,0,.42,1,1.65,1.65,0,0,0,1.14.38H14v.81H9.12v-.81h.76a1.94,1.94,0,0,1-.66-.68A1.83,1.83,0,0,1,9,102.8a1.56,1.56,0,0,1,.52-1.28A2.39,2.39,0,0,1,11.07,101.08Z"/><path id="DejaVuSans-73-2" data-name="DejaVuSans-73" d="M9.26,96.33H10a3,3,0,0,0-.35,1.48,1.78,1.78,0,0,0,.18.9.61.61,0,0,0,.55.3.51.51,0,0,0,.44-.21,2.65,2.65,0,0,0,.31-.87l.06-.28a2.63,2.63,0,0,1,.52-1.22,1.24,1.24,0,0,1,.94-.36,1.29,1.29,0,0,1,1.09.54,2.51,2.51,0,0,1,.4,1.49,5,5,0,0,1-.08.83,7.46,7.46,0,0,1-.23.9H13a3.82,3.82,0,0,0,.35-.89,3.13,3.13,0,0,0,.12-.86,1.6,1.6,0,0,0-.2-.87.61.61,0,0,0-.55-.31.58.58,0,0,0-.5.22,2.68,2.68,0,0,0-.34,1l-.07.28a2.13,2.13,0,0,1-.48,1.09,1.22,1.22,0,0,1-.9.33,1.26,1.26,0,0,1-1.07-.49A2.2,2.2,0,0,1,9,97.9a5.53,5.53,0,0,1,.06-.84A3.89,3.89,0,0,1,9.26,96.33Z"/><path id="DejaVuSans-69" d="M9.12,94.78V94H14v.81Zm-1.92,0V94h1v.81Z"/><path id="DejaVuSans-74-2" data-name="DejaVuSans-74" d="M7.72,91.48h1.4V89.81h.63v1.67h2.67a1.18,1.18,0,0,0,.77-.17.92.92,0,0,0,.17-.67v-.83H14v.83a1.87,1.87,0,0,1-.35,1.3,1.8,1.8,0,0,1-1.27.35H9.75v.59H9.12v-.59H7.72Z"/><path id="DejaVuSans-79" d="M14.5,86.7a2.92,2.92,0,0,1,1.14.67,1.33,1.33,0,0,1,.27.87v.65h-.68v-.48a.82.82,0,0,0-.15-.52,2.16,2.16,0,0,0-.75-.41L14,87.34l-4.84,2v-.86L13,86.93,9.12,85.4v-.86Z"/></g></g><g id="line2d_32" data-name="line2d 32"><g class="cls-5"><path class="cls-6" d="M23.46,157.37l.35,1,.17.06.17-.61.18,1.2.17-.66.17.22.17-.59.18,1.21.17.33.17-.46.35,1.3.17-.56.17.22.18-.59.17.27.17.65.18.17.17-.56.17.61.18-.23.17.42.17-.38.17.76.18-.4.17-.09.17.5h.18l.17.69.17-.86.17.76.18.13.52-.12.17.2.17-.8.17.55.18-.25.17.16.17-.24.18.77.17-.11.17,0,.18-.17.17.18.17-.76.17.55.18-.2.17,0,.17.49.18-.05.51-1.64.35,1.22.17-.2.18.2L34,161l.17.18.17-.47.18.1.17-.12.17.33.18-.11.34-2.21.17-.14.18-.73.17-.2.52-2.61.86-12.29.35-9.13L38,118l.17.94.52,35.78.34,4.88.35,2.11.17-.3.17,1.17.18-.11.34,1.38h.18l.17-.37.35.84.17-1.22.17,1.71.17-.21.18-1,.17.61.17.2.18.47.34.25.17.26.18-.62.86.88.17.57.18-1.34.17.49.17-.05.18.09.17-.58.17.21.17.86.18-.42.17.25.35-.32.17-.6.17,0,.35.61.17-1h.17l.18-2.63.17-.1.17-1.71.18,1.39.34,4.47.17-.47.18.89.17,0,.17.52.18-.68.17.78.17-.88.17.71.18-.17.17,0,.17-.26.18,0,.17-.44.17.12.18.38.34-.51.17.37.52-.64.18.73.17.13.34-.56.18.11.17.37.17-.24.18.13.17-.65.17.5.17-.3.18.34.17-.81.17.58.18-1.21.17,0,.17.53.18-1.2.17.75.17-.94.17.21.18-1.05.17,0,.35-1.55.34-.74.52-4.9.35-3.9.69-16.07.17,1.22.52,20.93.34,2.71.18.54.17-.21.17.71.18,0,.34.93.18-.69.17.83.17-.44.69.09.35-1.21.17.78.35-1,.17,1.42.17-.89.18.91.17-.83.17-.15.17-.43.18.41.34-.5.18.49.34-.79.18.28.17.75.17-1,.17.44.18-.14.17.58.17-1.06.18.58.17.08.17-.77.17.95.18-.18.17.13.17-.7.35,1.21.17-.89.17,0,.18.5.17-.23.17.29.18-.21.17.74.17-.46.17.39.18-.2.17.38.35-.29.34.81.18-.85.17.94.69-.1.17.28.69-1.43.18-.09.17-2.16.17.18.18-.13.51-6.54.52-8.46.18,4.16L73.43,160l.18,3.18.17.31.34,1.9.35.78.17.62.18-.42.17.16.17.44.17,0,.18.68.17-.13.17.82.18-.47.17,0,.17-.22.35,1,.34.2.18-.21.34.57.17-.14.18-.45.17.48.17-.25.18.13.17.28.35-1.13.17-1.45.17-.46.35-1.52.34,4,.18.85.34.53.17-.05.18.15.52-.42.17,0,.17.37.35-1.37.17-.29.17.13.52,2.5.18.28.17-.72.17.13.17-.28.52-1.72.18-1.08.17-2.41.17-.1.69,6.26.18.63.17-.2.17.46.17-.48.18.55.17-.69.17.5.18-.1.17.42.17-.24.18.42.17-.65.17.09.17-.22.35.21.35-.88.17.32.17-.67.35.21.17.36.17.81.18-.49.34.65.17-.7.18-.23.69-5.27.17-1.65.17.89.35,4.85.17,1.68.18.5.17-.32.17.21.18-.41.17.89.17.25.87-.72.17.36.17-.31.17.29.18,0,.17-.2h.17l.18-.33.17-.77.17-.06.17-1.11.18-.15.52-2.87.52-7,.17-.53.34,4.67.35,5.49.17.16.35,1.78.17-.61L98.5,170l.18.23.17.65L99,171l.35,1.25.17-.17.17.87.18,0,.17.84.17-.88.18.78.17-.62.17.65.17-.63.18.49.17-.22.35.28.17-.19.17.38.52-.49.17.89.18-.23.17,0,.17.28.18-.43.17.12.34-.22.18.26.34-.24.18.22.17-.33.17.24.35.15.17-.24.17.32.18-.38.17.14.17-.2h.18l.34-.27.17-.42.18-.81.69.57.17.91L108,173l.18-.13.17.52.17-.45.18-.1.17.35.17-.54.17-1,.18.06.52-1.72.69-4.22,1.55-26.42.18-.88.52.76.17.12.17,1.66.17-.32.18,0,.17-.18.35-3.34.17-.06.34,10.63.35,12.94.35,5.83.34,2.9.18,1.65L116,171l.17,1,.17-.48.18.57h.34l.18,1.09.34-.5.17-.16.18.15.17-.85.17-.15.52-2.9.87,4.1.34-.46.35-1.08.17.06.17.18.18-.36.17-.08.17.41.35-1.84.17-1.63.69-12.23.35,5.5.34,4.05.18-.56.17-1.34.52-14.19.52-19,.17-4.13.35,7.65.69,8.06.34,8.72.35,3.86.17-1.9.35-11.84L127,123.4l.18,6.88.52,32.1.34,6.37.17,1.07.18-.25.34,1.72.18-.12.34,1,.18-.09.51,1,.18-.8.17.17.17.39.35-.92.17-.09.17.17.18-.88.17.48.17-.27.18-1,.34.28.52-2.89.35-4.58.34-6.51.17-.84.18.57.34,8.7.35,5.47.17.95.18.11.51,1.67.18-.75.34.63.18-.41.17.34.17-.92.17.39.18-.17.17-1.49.17-.33.18.75h.17l.69,2.17.17-.44.18,0,.17-.22.17.4.35.25.17-.94.17.45.18-.37.17.21.17-.18.18-.39.17.06.34-1.12.18.11.17-1,.17-.15.18-.52.51,1.26.18-.07.17.17.35-.07.17.26.17-.2.17.61.18-1,.17,0,.17.34.18.06.17-.45.17-.09.18-.57.51.9.18-.5.17-.11.17.5.18-.5.17.54.17-1,.17-.22.18.11.34-.57.35-.72.17-.15.35-1.21.34-2.91.35-4.47.35-8.87.34-8,.17-.7.7,18.4.86,9.85h.17l.52,2.25.17-.2.18.11.34.62.18-.33.17.75.17-.14.35.73.17.05.17-.32.18.38.34-.11.18.21.34.7.35-.64.17.43.35.06.17.08.17-.38.17.2.18.63.34-1h.18l.17.33h.17l.17.15.18-.47.17.57.35-1.73.34-2.24.35-4.59.17.93.87,7.57.17-.45.52,1,.17-.51.17-.06.18.52.17-.49.52-.41.34-1,.18-.29.34-2,.35-.58.52-4,.17.46.52,3.67.34,2.28.35.71.17.06.18.85.17-1.15.34.63.18-.61.17.39.17-.27.18.33.17-.3.17.53.35-1.16h.17l.52-.92.35-2,.17-.6.17-1.38.17.46.18-.64.17-1.45h.17l.18-2.6.51-15,.18-7.43.17-2.47.17,1.13.69,24.76.18,2.89.52,2.78.17-.05.17.69.18-.33.17-.09.17-.22.17-1.09.18,1.11.17-.42.35-1.55.17.12.17-1,.35-.26.34-1.37.18,1.36.17.15.17.67.17,1.37.18-.15.34,1.6.18.27.17.5.17-.3.17.76.18.11.17.39.17.8.35.68.17-.51.18.11.34.66.17-.53.18-.14.17.69.17.22.18-.41.34.59.35,0,.17-.2.17-.77.18-.15.17-.33.17-1,.35-.6.17,1.1.17-.3.18.53.17,1,.17.28.18-.25.17.1,1-4.33.17.57.52,3,.17.29.17-.27.18.63.51-.56.18-.23.17.32.17-.23.18-.54.34.62.35-.8.17.41.35-.43.17-.17.17-.67.18-.15.34-1.92.52-6.74.35-9.45.34-8,.17-1.26,1,24.12.69,4.33.35.37.17.69.18.22.34,0,.35.24.17,0,.17-.21.52-1.52.17-1.48.18-.19.17.22.17.76.52-1.93.17-.58.18-1.61.34-.22.35,1.39.17,1.87h.18l.17,1.82.17.28.35-1,.69-8.7.86,7.84h.18l.17.52.17.1.17.46.18-.7.17-.15.17.05.18.2.17,0,.17.29.17.69.18-.69.34,1.73h.18l.17.38.17-.14.18.1.34-1.68.35-3.31.34-8.91.52-20.89.17.74.7,22.58.34,7.51.35,2.23.34.64.18.24.52.1.51-1.76.18-1.72.17.12.17-.27.52,2,.35,2.16.52.82.17-.13.17.16.17.51.18-.68.17-.19.17.25.18-.47.17.23.17-.48.17.18.18-.29.17-1.2.17.39.18.05.34.52.18-.33.17-.67H210l.35-1.11.17.53.35.19.34-.45.17,1,.18-.16.34.27.18.38.17-.89.17.18.35-.53.17-1,.17.28.18-2.21.17-.44.35-4.22.34-7,.17-.37.35,2.65.35,1.46.17-.21.17.17.35-5,.34-4.75.18,2.87.17.55.69,7.07.35.85.17-.69.17,1.05.18.34.17,1.51.17.49.52,2.42.17-.12.18-.47.17.42.17-.73.17.48.18-1,.69-7.51.17-1.14.35,5.58.86,7.54.17,0,.18,1.15.17-.2.17,0,.18.33.17,0,.17.35.18-.3.51.89.18.25.17-.77.35.83.17-.68.17,0,.17-1,.18.62.17-.37.17.46.35-.78.17.34.17-.81h.35l.17-.11.52,1.84.18.14.17.43.17-.11.17.31.18-.34.17,0,.17.6.18,0,.69-.78.34.63.18-.09.17.23.17-.55.17,0,.18.27.52-2.1.17.14.17.42.17-.11.52,1.87.35.36.17,1,.52-.54.17.81.18-.33.17.13.17-.7.18.79.17.06.17-.4.35.42.17-.56.17.34.18-.29.17.23.17-.29.17-.05.35-.32.17.07.7-.92.17.43.52-1,.34.37.18-1.26.17.54.17-.85.35-2.68.17-.8.35,1,.17.87.17-.21.52,1.71.17.22.18-.38.17.2.34-1.38.18-.13.17,0,.17.37.18-.25.34.53.18,1.45h.17l.69,1.34.17-.2.18.32.69-.92h.17l.35-.49.17.21.17-.13.52-1.64.35-1.27.52,2.41.17.35.34,1.14.18,0,.17.43.35.09.17.71.17-.91.35.25.34-.17.35-1,.17.11.17-.3.35-2,.52-3.26.52,3.06.17-.24.17.85.35,2,.35.27.17-.42.17.55.17-.3.18-.07.17.29.17-.18.18-.54.17.07.17-.4.35.06.69-1.78.34-1.81.18-.44.17-.13.17.15.35-1.73.17-.89.18.37.34-2.29,1.21-8.11.17-1.41.18.41.17.94.52,5.14.34,4.16.35,3.6.17,1.24.18.15.17,1.42.17.41.18.89.17-.12.17.55.17-.14.18.09.17.86.17-.29.18.34.17-.17h.17l.17-.23.18.25.17-.29.69-4.49.35-.91.34,2.16.18-.66.17.9.34.16.18.35.17,1,.17-.52.18,1.15.17-.05.17.48.18.88.17-.09.17.44.35.33.34.3.35.06.17.07.17-.36.18.2.52-1.6.34-.54.17.64.18-.18.52,0,.52,1.5.17-.28.17.51h.17l.35-1.24.17.35.18-.45.17.64.17.19.17.4.18-.55.17.59.17.2.18.84.34.34.17-.18.18-.4.17-.11.17-.65.18.06.17.48.17-.13.35.79.17-.18.17.35.18-.29.34.08.18.47.17-.19.17.35.17-.65.18.3.34-.08.18-.13.17.07.17-.07.17-.22.18-.69.17.27.17-.84.18-.06.17-.61.17.19.35-1.25.17-.72.17-1.39.18-.33.17-.93.35,2.09.17.3.17-.11.52,2.94.17,0,.35.65.69-.7.35-1.09.17-.79.17.11.35-.31.17-.85.17.15.18.48.17-.46.69,2.52.17.3.35,1,.17.59.69,0,.18.11.69-1.73.17.08.17.45h.18l.17.15.86-1.55.18-1.46.17.37.17.84.18.17h.17l.17-.43.18.09.17-.54.17-.06.17-.47.18.78.17.12.35-1.85.17.22.69,2,.17.16.69,1.19.35-.46.35.19.17-.1.17.31.18-.16.51.89.18-.53.34,0,.18.4.17-.32.17.11.17-.19.18-.47.17-.12.17-.63.18-.16.17.3.17.52.35-.39.17.46.17.07.69,1.17.35-.31.17.79.18-.31.17.4.17-.23.18.29.17-.27.17.45.35-.45.17.16.52-.82.17-.49.17-.12.35-.6.17,1,.35-.45.17.16.17-.11.35.39.17.08.18-.86.17,0,.52-.91.17,0,.35.29.17-.2.35,1,.17.47.17-.11.17.52.18.16.17-.08.17.4.18-.28.17.47.34-.15.35.1.35-.47.17-.84.17,0,.52-.57.17.26.18-.41.17-.08.17-.42.18.59.17-.48.34.75.18.52.17.94.17-.09.18.26.17-.61.34.45.35-1.22.17-.34.52,1.05.17-.17.7,1,.17,0,.17.38.18-.33.17.31.17,0,.17-.3.35.34.35-.59h.17l.17.37.17-.13.35.12.69-.63.17.11.18.27.17.51.17-.34.18.1.17-.34.17.83.18-.64.17.1.17-.06.17.15.18.34.34-.16.18-.05.17.2.34-.17.18-.47h.34l.18-.32.17.91.34-.58.18.16.17.36.17-.16.35.73.17-.07.17.2.18-.67.17.53.52-1.26.17-.15.35-1.17.34,1.07.18.07.17-.22.35.57.69,1,.17.17.17-.05.18-.36.17.51.17-.2.17.33.18-.44.17.25.17-.48.18.36.34-.09.18.09.17.33.34-.32.18.14.17-.12.35-.39.34,0,.17.37.18-.69.17-.06.17-.42.18.2.17-.45.17.59.17-.21.18.4.17-.13.17.19.18.39.34.18.17-.41.18.44.69-.2.17.61.18-.73.17-.12.17-.56.17.18.18-.13.17.17.17,0,.18.11.17-.51.17.51.17,0,.18-.61.17.28.17-.14.18-.5.17.24.86-2.82.18.23.17-.34.17.15.18-.18.34.95.17,0,.35.22.17.66.18-.45.17.21.52-1.39.52-2.73.17.12.17.76.17-.49.18.11.17.28.17.06.18-.51.17.85.17,0,.35.6.52-1.13.17-.18.35-.65.34.11.17-.42.18,1.19.17-.08.17,1.16.18,0,.34,1.38.17.09.18,1,.17-.16.17.07.18.76.17,0,.34.94.18-.14.17.32h.17l.18.38.34.25.18-.16.34.44.35-.37.17.35.17-.3.18.11.51-.07.18-.76.17.2.35-.42.34-.71.17.21.35-.18.35-1,.17-.5.17.23.18.58.17.06.34.87h.18l.86,2,.17-.15.18.55L351,178l.18.22.17-.11.17,0,.17.18.18-.43.17.16h.17l.18.32.34-.6.17.33.18-.13.34.51.18-.25.34.62.18-.09.34-.37.35.48.17-.56.17.33.35-.28.17.15.17-.45.7-.37.17.25.17-.62.17.48.18,0,.34-.26.18.13.34-.18.18.62.17-.27h.17l.17.23.52-.09.18.35.17-.53.34.29.35.32.17.27.18-.56.17.27.17-.13.17,0,.18.48.52-.4.34.11.17-.56.18.15.34-.22.18-.31.17.22.17-.1.18.51.17-.54.34.43.35.4.17-.34.18.09.17.23.69.1.52-.28.17-.42.17.15.18-.05.17.16L367,178l.35.07.17-.09.18-.4.17.53.17-.32.17,0,.18-.39.17.29.17-.14.18-.28.17,0,.17-.2.17.2.18-.55.17,0,.35-.79.51,1,.18.41L371,177l.17.45.18,0,.17.27.17-.23.35.78.17-.16.35-.72.17-.3.17-.75.18-.09.17,1.29.17.27.17-.27.18.3.17-.14.17.13.18,0,.34.44.17.29.18-.22.52.2.17-.76.17.11.17-.18.18-.51h.17l.17-.43.18.17.17-1,.35.88.17-.27.17.31.35.16.17.36.17-.07.18.43.17,0,.17.2.17-.4.18.12.17.39.35,0,.17-.25.17.16.17-.55.18.24.34-.65L381,177l.17.76.18.24.34-.34.17,0,.35.15.17-.12.18.33.17-.13.17.42.17-.16.35.41.17-.28.18,0,.17.37.17-.57.17.49.18-.25h.17l.17.18.35-.55.34.1.18-.11.17.18.35-.34.52.4.17-.13.17-.33.17,0,.52.47.18-.16.17-.39.17,0,.17.15.18-.38.17.39.35-.16.17.06.17.29.17-.52h.18l.17-.69.35-.31.17-.8.17-.23.18-.49.17,0,.17-.34.17-.58.18.43h.17l.17.3.18,0,.51.94.18.57.17,0,.17.13.18.65.17-.42.17.86.17-.58.18.4.17-.38.17.58.18.07.17-.17.17.28.17,0,.18-.65.17.07.17-.06.18.35.17-.15.17.25.18.48.17.1.17-.17.17-.72.18.53h.17l.17.12.18-.28.17.31.17-.38.17,0,.18.1.17-.23.17.14.18-.63.17.06.17-.2.52.19.35-.38.17.15.35-.43.17.78.17-.44.17-.13.18.2.17.38.52-.26.52.92.34-.46.52-.12.17.52.35-.38.17.4.35-.29.17.36.17-.13.18.56.17-.05.17.44.18-.2.17.46h.17l.18-.15.17.47.17-.17.17.36.18-.38.17-.07.17.21.35-.11.17-.15.52,0,.17-.24.18.21.86-.27.17-.47.18-.1.34-.5.52-1.83.17-.51.35-.17.17.31.35-.08.34.78.18.09.17-.51.17.87.18,0,.34.8.17-.08.18-.22.17.16.52-.41.17.14.18-.45.51.54.18-.09.17.24.17,0,.18.84.17-.43.34.77.35.41.35-.14.34.74.17-.61.18.29.17,0,.17.29.18.07.17-.23H418l.17.25.18-.21h0"/></g></g><g id="line2d_33" data-name="line2d 33"><g class="cls-5"><path class="cls-7" d="M23.46,119.82l.35-.95.52.88.17-.43.17.69.17-.1.18.54.17.06.17.81.35-1,.34,1.76.18-.49.17.08.17-.79.18.6h.17l.17-.43.18.71.17-.14.34.62L28,122l.17,1.26.17-1.18.18.15.17-.15.34.3.18-.63.17,1,.17-.72.18.45.17,0,.17.14.17-.12.18.07.17-.15.17.12.18-.42.17.56.17-.22.35.36.17-.17.17.57.18.1.34-1,.18.73.17,0,.17.27.35-.83.17.13.17-.23.18.27.17-.14.17.4.35-1,.17-.22.17,0,1-4.41.17-1.41.18-.09.17-2.8.17-.38.69-13.76.35-13.77L38,61.76l.17-.95.52,52.63.34,6.84.18.4.17,1.84.17.17.17.76.18.19.34.92.18-.69.17.36.17,0,.18.43.17-.21.17.3.17-.37.18.93.17,0L42,125l.18.55.17-.43.17.25.17.65.52-.47.18.48.17-.5.52.34.17-.59.17.6.18-.64.17-.18.17.62.17-.35.18.6.17.16.35-.41.17.56.17.17.18-.64.17,0,.69-1.65.35,1.29.17.77.17.23.17.46.18-.09.17-.54.17.08.18.45.69-.45.17.2.17.88.18-.27.17,0,.35-.53.17.39.17-.37.17.07.18-.34.34.9.18-1.08.17.7L52,127l.17-.48.35.3.35-.07.17-.12.34.31.18-.27.17-.06.17-.23.18.2.17-.75.17.39.18-.25.17-.55.17,0,.17.17.18-.53.34-2.08.18.71.86-6.57.35-7,.34-9.73.35-15,.17,2,.52,30.85.17,3.23.35,1.29.17,1.14.17-.24.18-.48.17.7.35,0,.17-.35.17,0,.17.13.18.33.34-.43.18-.15h.17l.17.58.35-1.23.17-.49.17.3.18-.4.34.29.35-.72.17.31.17-.43.18.31h.17l.17-.31.35-1.3.17.15.17-.11.18-.29.17-.89.17.06.18.2.17-.48.17.49.17-.81.18.4.34-1.87.18.51.17-.52.17.45.17,0,.18-.34.34,1,.18-.9.17.14.34.76.18,1.41.17-.09.17.16.18.33.17-.08.69,1.65.17-.39.18,1.27.17.36.17-.67.18.38.17-1.41.17.62.35-.64.17-.18.17-1,.52-6.06.35-9.15.34-7.62.7,26.44.17,1.38.69,1.29.35,1.23.17.09.17.69.35-.67.17,0,.17.67.18.17.17-.41.17,1,.17-.69.35.56.17,0,.18.25.34-.42.17,0,.18-.32.17.52.35-1.21.17.7.17-.57.52-3.18.35-4.63.52,8.46.34,1.48.17.48.18-.91.17.58.17.09.18-.41.34-1.39.17.13.35-1.89.17.06.52,3.46.18-.16.17-.5.17.25.69-2.87.52-8.66.17,1.07.35,9.16.35,2.46.34.07.35,1.09.17-.26.17-.48.18.4.17,0,.17.15.18-.5.17-.05.17.36.17-.43.18.22.34-.25.18.34h.17l.17-.48.17.55.18-.09.17-.64.17.34h.18l.17-.14.34-1.42.18.09.34-3.21.35-5.78.34-5.61.52,14.88.18.28.17.77.17.23.18.47.17.12.34.54.18-.06.34.07.18-.37.17.2.17-.67.17.08.18-.15.17.1.17.27.35-1.11.17.05.35-1.45.52-4.13.34-7.25L97,113.1l.69,16.61.17,1.24.52.72.17.14.35-.43.17,1,.18-.17.34.87.17-.26.18.25.17-.1.17.28.18-.59.34.61.17-.19.18,0,.17-.21.17-.53.18.27.17-.46.17.6.18.08.17.45.17,0,.17-.27.18-.6.17.83.17,0,.35-.23.34-.11.18.34.17-.17.17.13.18-.28.17.06.17-.21.35.09.34.23h.18l.34-.42.18.14.17-.62.17.22.35-.79.17-.47.52,1.34.17.27.17-.34.18.08.17-.29.17.33.18-.12.17-.38h.17l.35-1.23.17.48.17-.41.87-5.36.69-11.27.17-3.59L112,95.85l.35-5.31.34,3.1.18,3.2L113,98l.17,3.16.17,1,.18.33.17-.47.52-5,.17,2.48.69,26.87.52,4.45.18.05.17.69.17-.22.17,1.09.18-.08.17.28.17-.19.18.28.17-.22.17.05.17-.48.18,0,.34-2,.69-5.82.52,6.83.35,1,.17-.29.35-1.28.17-1.59.35.58.17.19.17.6.18-.63.34-3.7.35-7.58.34-16.67.18.66.34,15.53.17,6,.18,1.67.17-1.42.35-6,.34-12.33L124.27,90l.17-2.87.17,1.5L126,114.82l.17-1.16.17-2.94.35-18.93L127,49.6l.18-.82.52,66.25.17,10.69.34,3.92.52,2.23.35.49.17.67.18-.57.51.87.18-.17.17-.37.17.36.18-.58.17,0,.34-1.25.35-1,.17.39.18-.08.17.77.17-.41.17-.74.52-7.23.18-4,.34-11.46.17-1.17.7,22.15.34,3.52.35.71.17,0,.52.45.17-.27.18.39h.17l.17.46.35-.89.17.3.17-.46.35.79.17.12.17,0,.35-.53.17.54.35-.24.17.1.18-.29.17.28.17-.8.17.83.52-1.19.18.3.86-1.77.17-1,.18-.3.51,1.21.35.56.17-.29.18.05.17-.2.17,0,.17.2.18,0,.17-.87.17.1.18.42.17-.94.17.08.35-.29.17-.62.17.33.18.59.17-1.28.17.07.35-.53.34.6.18-.51.17-.07.17-.29.18,1,.51-1.75.52-4.51.18-2.65.34-9.12.52-23.15L149,93l.52,24,.35,4.71.17.67.69,8.53.52,1.72.17.08.18.61.52.13.17.76.17-.38.18.47.17-.09.17.18.35-.31.17.39.17-.16.35.29.17,0,.17-.34.18.23.34-.06.18.14.51-.21.18-.22.17.42.17-.22.18.25.51-.26.18-.27.17.06.52-3.84.35-6.21.34-7.51.52,11.54.35,5.58.17.82.17.18.17,0,.18-.26h.17l.17.32.35-.18.34-.19.7-1.21.52-3.42.17-1,.52-6.63.86,10.2.17,1H164l.17.79.35-.55.51-.08.18.43.34-.53.18.8.17-.16.17-.65.17-.12.18,0,.17-.15.17.6.52-1.81.35-1.08.17.09.35-2.14.52-8.7.34-14.35.35-21.18.17-3.2.17,3.49.87,42.09.17,2.23.17.36.18.62.17.14.17.42.18.09.17.24.17-1.13.17.45.35-1.1.17.22.18-.28.34-1.89.35-.88.17.63.17-.79.18.29.17,0,.34,2,.35,1.15.35.2.34,1.32.17-.23.18.54.17.06.17.85.18.18.34,1.23.18-.24.34.49.35-.47.34.87.18-.13.17-.33.17.3.17-.22.18.22.17-.6.17.13.18-1,.17-.33.34-3,.18-1,.17.44.17,1.9.35,1,.17,1.59.18.1.17-.87.17.46.35-2.36.52-5.32h.17l.34,3.67.35,3.76.17.12.18,1,.17.21h.17l.17-.14.18-.47.34.52.18-.63.17.82.17,0,.35-.87.52-.61.52-1.7.17-1L187,126l.18-3.19.34-12.63.52-22.2,1.21,42.34.17,1.37.35,1,.17.61.18,0,.17.3h.17l.35.47L191,134l.17.37.18-.34.17,0,.35-.8.51-4.42.18-1.41.17.12.17.89.18-.24.17-.46.34-3.17.18-2.52.52,4.72.52,5.78.34-.37.17,0,.35-3.46.52-12.86.17.56.17,4.84.35,4,.35,6.58.17.54.17.15.35-1,.34-2.29.35.86.17-1.36.17-.42.18.5.34,2.41.18.6.17-.07L200,133l.18-.28.34-2.51.35-3.5L201,122l.35-17.78.51-44.81.87,61.23.34,10,.35,1.83.17-.25.18.45.34-.4.35-1.09.34-2.55.18-2.23.17-.42.52,3.15.69,4.18.35.57.17.77.34-.52.18,0,.52-.35.34.44.35-1.28.17.22.35-.42.17.45.17-.22.18-.43.17.76.17-.16.17-.35.18-.71.52-.72.34,1.82.17,0,.18.31h.17l.17.47.69.08.18-.69.17-.16.35-1.14.34-3.83.18-3.17.51-18.39.18,3.3.17,6,.17-.71.18,1.2.17,2.7.17,0,.52-14,.52,9,.69,11.25.17.62.18-.58.17-1.33.17-.06.35,1.9.17.92.17.09.18,1.92.17-.66.17-.1.18.1.17-.21.34-1.49.18-1.61.34-6.2.35-9.65.17-1.7.17,1.14.87,19.51.52,3.15.17-.15.35.69.34-.49.18.68.17-.21.17,0,.17.47L224,132l.17.29.35-.35.17.4.17-.61.35-2.32.17.12.17,1,.52-2.29.52,1.17.17-.33.18,1.64.69,2.16.17,0,.17.4.35-.76.17.47.18-.15h.17l.17-.26.17.43.35-.27.17.27.35-.5.34-.37.18-.14.17-.31.35-1.4.34.29.17.15.18,1.31.17.05.52,1.52.35.42.34-.14.69.54.35-.49.34.24.18-.2.17.05.17.22.18,0,.17-.7.17,0,.17.3L236,133l.34,0,.18-.33.17-.05.17.41.18-.72.17.15.17-.45h.17l.18.41.52-1.87.17-.13.34-3.4.18-1,.34-3.67.18,1.27.17,3.3.17-.63.52,3.68.35.45.17-.7.17-.1.17-.63.18.46.17-.95.17.79.18-.86.17,0,.17-.26.35,1.82.34,1,.18-.09.34,1.52.18-.45.34-.2.17-.36.18.7.17-.45.17.2.18-.82.17.11.17-.63.17.49.7-5.53.17-.25.35,3.4.17-.14.52,3.09.17.23.17.78.18-.17.17.39.34-.64.18.45.17-.12.35-.75.17,0,.69-4.12.52-8.27.17-.19.35,5.54.17-.13.17,1.34.35,4.43.35.87.17.09.17.51.35-.16.34-.43.18.4.17-.39.17-.1.35-.48.17-.22.17-1,.18-.14.51-3.29.18-.41.17-.12.17.27.18,0,.17-.53.35.5.17-1.55.17.58.69-6.66.35-2,.34-3.35.18-1.51.17-.2.35,5.44.17.93.69,10.14.17.83.18,1.74.69,1.89.34-.47.35.89.17-.24.18.23.51-.06.18-.29.34-1.41.18-1.48.69-9.8.34,5,.18-.09.17-.87.34,2.82.35,3.6.17-.22.52,2.78.18.4.34.22.17.3.18-.3.17.52.17,0,.18.69.34-.94.17-.24.18.21.17-.42.52-4,.17,0,.17.27.18-.57.86,4.43.18-.09.17.91.17-.37.17.12.35-1.53.35-1.65.17.17.69,2.53.17-.08.18.91.17.24.34-.14.52-1,.18-.06.17,1.09.17-.57.17.57H274l.34.9.18-.39.17.48.17-.24.35.46.34-.44.18.09.17-.36.17-.07.18.15.34-.16.17-.94.18,0,.34-1,.18-.11.51-.87.18-.95.52-6,.17-2.75.17,1.53.35,4.29.34-.49.52,4.79h.18l.17.51.17-.27.17.21.35-1.33.17-1.62.18-.23.17.12.17-.39.17.87.18.06.34-1.81.35-.68.17.09.35,3,.17-.17.52,3.44.35.61h.17l.17.4.35-.24.17-.68.35-.48.51-1.1.18,1,.17.13.35-.69.17.35.86-5,.18,2.33.17.7.17-1.84.18-.48.17.26.17-.39.17-1.3.35,1.83.17-.57.35-2.4.17-.62.35,4.39.17.33.17.07.18.23.34,1.73.17,1.09.18,0,.17-.51.17.21.18-.7.17-.06.17.65H293l.17.34.17-.75.18.53.17-.25.17.5.18,0,.17.11.17-.77.17-.24h.18l.17-.51.17-1.43.35-.78.34,2.47.18-.24.17,0,.17-.46.35,2.07.34.45.35.08.17.53.18-.39.17.25.52-.2.17.13.17-.29.18.07.17-.07.17-.52h.18l.86-3.5.17,1.66.35.39.34-.17.35,1.21.52-2.21.35-1.56.51,1.83.18.61.17-.23.69,1.85.17.91.18-.27.17.7.17-.37.35.66.17,0,.52-.74.17.08.18-1.15.34-.52.17.71.18-.71.17.23.17-.64.18-.12.34-1.27.18,0,.34,2.31.17-.09.18-.58.17.28.35,1.71.17.26.17-.17.17-1,.18-.26.52-2.69.17.53.17,1.35.17.46.18,0,.34.54.35,1.84.35.56.34-.31.35-.19.34.34.18-.33.34.39.35-.81.17.24.17,0,.18-.49.17.38.17-.25.35.19.17-.26.35.83.17-.1.52-.17.17-.22.17.31.52-.74.18.1.17.57.34-.82.18-.71.17-.12.35.92.34-.19.69.94.18.08.17.27.17-.16h.17l.18.26.17-.47.17.14.18-.4.69-4.82.17-.31.17,2.23.35.87.17.22.18-.15.34,1.87.35.85.17-.22.17.36.52-.35.17.25.18-.09.17.31L325,136l.34.37.18-.43.17,0,.52.35.34-.42.18.16.34-.32.35-.88.17-1,.17-.21.18-.8.51,1.71.18-.4.17.4.17,0,.18.12.34,1.13.35-.07.17.22.17-.39.18.18.17-.11.17.6.35-.71.34.13.35-1,.17-.32.18.32.34.07.17-.69.18.14.17-.45.17.18.18-.66.17.2.52-2.51.34-2.34.52-.21.35.49.34,1.75.18-.47.34,1.14.18.24.17-.58.69-4.57.17.07.18.08.17,1,.17.29.17,0,.18.23.52,1.54.17.46H339l.18.44.17-.46.17-.81.17.36.35-1,.17-.15.18-.34.17-.62.34.07.18-.49,1.38,5.65.17.11.35,1,.17-.07.17.94.18-.15.17.54.17-.4.18.77.17-.47.17.88.18-.38.17.41.17-.05.35.47.17-.58.35.44.17-.48.17.15.17-.31.18,0,.17-.33.69-3.42.17-.16.18.17.34-.69.35-1.58.17.34.35,2.42.34.75.18,1,.17-.34.17,1.12.18,0,.34,1.37.17.06.18.32.17-.47.17.12.18-.21.17.23h.17l.17-.12.18.4.17-.26h.17l.18.17.17-.2.17.5.17-.17.18.06.17-.17.35.92.17-.2.17,0,.18.18.17-.3.17.18.17-.2.35.11.17-.42.18.43.17-.39.17-.11.17.23.18-.12.69-1.62.17-.05.17.15.18.76.17,0,.52-.95.52,1.18.17,0,.17.35.18-.57.52.22.34.35.17-.73.18.68.17-.13.35.44.34.17.17-.09.35.19.52-.84.34-.3.35-1,.52.93.17-.14.35.45h.17l.35.56.34,0,.18-.15.17.19.17,0,.17-.44.35-.1.17.29.18-.24.17.29.34-.06.18-.37.17.57.17-.49.18,0,.17.42.17-.33.18.08.17-.19.17-.35.52-.35.35-.51.51-1.2.35-.65.17.23.18.58.17,0,.17.65.17.21.18-.07.17.66.17,0,.35.8.17-.07.18.24.17,0,.52-1.61.52-2.22.17.4.34,1.9.35-.07.17.11.35.82.34,1.07.18-.2.34,0,.18-.16h.17l.17-.32.35-1.55.34-1.85.87,1.78.34-.38.18.74.17.11.17.88.18.24.34,0,.17.27.18-.2.17.58.17,0,.18-.55.51-.35.18.14.17-1,.17.09.18-.25.17-.56.17,1.05.35.47.34-.26.18.39.17-.27.17.36.35-.26.17,0,.35.87.17-.47.17-.06.18.33.17-.07.17-.43.35-.16.34-.1.18.23.69-.68.17.55.35-.13.34-.6.18-.13.17.22.17-.33.35.49.17-.22.35,1.06.34-.43.35.4.17-.14.17,0,.18.2.17-.39.17.5.17-.36.18-1,.17-.23.35-1.29,1.21-1.45.17,0,.17,1.29.18.1,1,2,.18-.14.17.13.17-.13.17.14.18.45.34-.11.18.06.34-.1.17-.07.18-.71.17.13.17-.78h.18l.34,1.32.18.26h.34l.17-.32H397l.17-.15.17.46.18-.11.17.1.17.26.17-.07.18-.69.34,0,.18-.33.34.18.17-.36.18.13.17-.21.35-.77.17.08.17-.36.18.09.17,0,.17-.2.87,1.41.17,0,.17-.15.35,1,.34-.05.18-.42.17.09.34-1.29.18-.78.17.3.35,1.18.17-.31.17.8.17-.33.18.15.34,1.09.18.06.17.72.17.18.18-.17.17.48.17-.25.35.16.17-.33.17.26.35-.37.17,0,.17-.43.35.57.17-.16.18-.35.34.22.17.21.18-.63.34.29.18-.74.17-.17,1-4.05.17-.66.35.63.34,1.43.17.35.18-.38.34.62.18,0,.17,1,.52.43.34-.44.18-1.39.17.3.35-.2.17.79.17-.19.17.33.18-.49.17.69.17-.12.35,1.1h.17l.17.17.18.42.17-.18.17.32.18-.09.17.53.34-.24.18,0,.52.64h.17l.17-.11.35.18h0"/></g></g><g id="patch_3" data-name="patch 3"><path class="cls-8" d="M23.41,185.4V22.32"/></g><g id="patch_4" data-name="patch 4"><path class="cls-8" d="M418.47,185.4V22.32"/></g><g id="patch_5" data-name="patch 5"><path class="cls-8" d="M23.41,185.4H418.47"/></g><g id="patch_6" data-name="patch 6"><path class="cls-8" d="M23.41,22.32H418.47"/></g><g id="text_9" data-name="text 9"><path id="DejaVuSans-41" d="M196.93,8.74l-1.61,4.35h3.22Zm-.67-1.17h1.34l3.33,8.75H199.7l-.79-2.25H195l-.79,2.25h-1.25Z"/><path id="DejaVuSans-6c" d="M202.16,7.2h1.08v9.12h-1.08Z"/><path id="DejaVuSans-2d" d="M205,12.55h3.16v1H205Z"/><path id="DejaVuSans-43" d="M216.42,8.24V9.49a4,4,0,0,0-1.27-.83,3.85,3.85,0,0,0-1.44-.28,2.9,2.9,0,0,0-2.3.92,3.94,3.94,0,0,0-.79,2.65,3.92,3.92,0,0,0,.79,2.65,2.9,2.9,0,0,0,2.3.92,3.85,3.85,0,0,0,1.44-.28,4,4,0,0,0,1.27-.83v1.23a4.55,4.55,0,0,1-1.31.64,5,5,0,0,1-1.47.21,4.1,4.1,0,0,1-3.13-1.22A4.65,4.65,0,0,1,209.37,12a4.66,4.66,0,0,1,1.14-3.32,4.1,4.1,0,0,1,3.13-1.22,5.09,5.09,0,0,1,1.48.21A4.86,4.86,0,0,1,216.42,8.24Z"/><path id="DejaVuSans-6f" d="M220.75,10.51a1.61,1.61,0,0,0-1.37.68,3,3,0,0,0-.51,1.85,3.09,3.09,0,0,0,.5,1.86,1.63,1.63,0,0,0,1.38.67,1.58,1.58,0,0,0,1.36-.68,3,3,0,0,0,.51-1.85,3,3,0,0,0-.51-1.85A1.61,1.61,0,0,0,220.75,10.51Zm0-.91a2.79,2.79,0,0,1,2.21.91,3.73,3.73,0,0,1,.8,2.53,3.73,3.73,0,0,1-.8,2.53,3.11,3.11,0,0,1-4.42,0,3.68,3.68,0,0,1-.8-2.53,3.68,3.68,0,0,1,.8-2.53A2.77,2.77,0,0,1,220.75,9.6Z"/><path id="DejaVuSans-72-2" data-name="DejaVuSans-72" d="M229.35,10.76a1.28,1.28,0,0,0-.4-.15,2,2,0,0,0-1.87.54,2.62,2.62,0,0,0-.49,1.71v3.46h-1.08V9.76h1.08v1a2.22,2.22,0,0,1,.88-.89,2.87,2.87,0,0,1,1.33-.29h.25l.29.05Z"/><path id="DejaVuSans-6e-3" data-name="DejaVuSans-6e" d="M235.73,12.36v4h-1.08V12.39a2.24,2.24,0,0,0-.36-1.39,1.31,1.31,0,0,0-1.09-.46,1.75,1.75,0,0,0-1.38.55,2.17,2.17,0,0,0-.51,1.52v3.71h-1.08V9.76h1.08v1a2.75,2.75,0,0,1,.91-.89,2.53,2.53,0,0,1,1.22-.29,2.09,2.09,0,0,1,1.71.7A3.18,3.18,0,0,1,235.73,12.36Z"/><path id="DejaVuSans-65-5" data-name="DejaVuSans-65" d="M243.49,12.77v.52h-5a2.5,2.5,0,0,0,.67,1.7,2.3,2.3,0,0,0,1.68.58,4.81,4.81,0,0,0,1.2-.15,4.92,4.92,0,0,0,1.16-.46v1a6.58,6.58,0,0,1-1.19.38,5.74,5.74,0,0,1-1.24.13,3.43,3.43,0,0,1-2.49-.91,3.35,3.35,0,0,1-.91-2.48,3.64,3.64,0,0,1,.87-2.56,3,3,0,0,1,2.35-.94,2.66,2.66,0,0,1,2.09.85A3.35,3.35,0,0,1,243.49,12.77Zm-1.08-.32a2.06,2.06,0,0,0-.49-1.41,1.67,1.67,0,0,0-1.28-.53,2,2,0,0,0-1.45.51,2.14,2.14,0,0,0-.62,1.44Z"/><path id="DejaVuSans-72-3" data-name="DejaVuSans-72" d="M249.06,10.76a1.32,1.32,0,0,0-.39-.15,1.78,1.78,0,0,0-.47,0,1.75,1.75,0,0,0-1.41.59,2.62,2.62,0,0,0-.49,1.71v3.46h-1.08V9.76h1.08v1a2.18,2.18,0,0,1,.89-.89,2.8,2.8,0,0,1,1.32-.29h.25l.3.05Z"/></g><g id="legend_1" data-name="legend 1"><g id="patch_7" data-name="patch 7"><path class="cls-9" d="M340,59.67h71.5a1.76,1.76,0,0,0,2-2V29.32a1.76,1.76,0,0,0-2-2H340a1.76,1.76,0,0,0-2,2V57.67A1.76,1.76,0,0,0,340,59.67Z"/></g><g id="line2d_34" data-name="line2d 34"><path class="cls-7" d="M342,35.42h20"/></g><g id="text_10" data-name="text 10"><path id="DejaVuSans-32-3" data-name="DejaVuSans-32" d="M371.89,38.09h3.44v.83H370.7v-.83q.56-.59,1.53-1.56c.65-.66,1-1.08,1.22-1.27a4.77,4.77,0,0,0,.66-.9,1.61,1.61,0,0,0,.19-.72,1.23,1.23,0,0,0-.41-1,1.55,1.55,0,0,0-1.06-.37,3.21,3.21,0,0,0-1,.17,5.94,5.94,0,0,0-1.1.48V32a7.48,7.48,0,0,1,1.11-.36,4.31,4.31,0,0,1,.95-.13,2.68,2.68,0,0,1,1.8.57,1.88,1.88,0,0,1,.68,1.51,2.27,2.27,0,0,1-.17.86,4.32,4.32,0,0,1-.61,1l-.78.81C373.3,36.65,372.68,37.28,371.89,38.09Z"/><path id="DejaVuSans-38" d="M379.51,35.45a1.57,1.57,0,0,0-1.11.38,1.54,1.54,0,0,0,0,2.07,1.57,1.57,0,0,0,1.11.38,1.55,1.55,0,0,0,1.1-.38,1.32,1.32,0,0,0,.41-1,1.34,1.34,0,0,0-.4-1A1.57,1.57,0,0,0,379.51,35.45Zm-1-.41a1.85,1.85,0,0,1-1-.6,1.65,1.65,0,0,1-.35-1.06A1.7,1.7,0,0,1,377.8,32a3.12,3.12,0,0,1,3.42,0,1.7,1.7,0,0,1,.62,1.38,1.6,1.6,0,0,1-.36,1.06,1.79,1.79,0,0,1-1,.6,2,2,0,0,1,1.11.65,1.8,1.8,0,0,1,.4,1.17,2.06,2.06,0,0,1-.65,1.63,2.71,2.71,0,0,1-1.85.57,2.74,2.74,0,0,1-1.86-.57,2.05,2.05,0,0,1-.64-1.63,1.75,1.75,0,0,1,.4-1.17A1.92,1.92,0,0,1,378.52,35Zm-.36-1.56a1.14,1.14,0,0,0,.35.88,1.71,1.71,0,0,0,2,0,1.27,1.27,0,0,0,0-1.77,1.75,1.75,0,0,0-2,0A1.15,1.15,0,0,0,378.16,33.48Z"/><path id="DejaVuSans-20-2" data-name="DejaVuSans-20" d="M382.69,38.92"/><path id="DejaVuSans-64-2" data-name="DejaVuSans-64" d="M390.41,34.28v-3h.9v7.6h-.9V38.1a1.91,1.91,0,0,1-.72.72,2.06,2.06,0,0,1-1,.24,2,2,0,0,1-1.62-.79,3.8,3.8,0,0,1,0-4.16,2,2,0,0,1,1.62-.79,2.18,2.18,0,0,1,1,.23A1.87,1.87,0,0,1,390.41,34.28Zm-3.06,1.91a2.6,2.6,0,0,0,.41,1.55,1.39,1.39,0,0,0,2.24,0,2.6,2.6,0,0,0,.41-1.55,2.65,2.65,0,0,0-.41-1.56,1.4,1.4,0,0,0-2.24,0A2.65,2.65,0,0,0,387.35,36.19Z"/><path id="DejaVuSans-61" d="M395.65,36.17a3.15,3.15,0,0,0-1.51.25.9.9,0,0,0-.42.85A1,1,0,0,0,394,38a1.29,1.29,0,0,0,.86.28,1.51,1.51,0,0,0,1.2-.53,2.13,2.13,0,0,0,.45-1.41v-.2Zm1.79-.37v3.12h-.9v-.83a2,2,0,0,1-.77.73,2.38,2.38,0,0,1-1.12.24,1.89,1.89,0,0,1-1.34-.47,1.68,1.68,0,0,1-.49-1.27,1.65,1.65,0,0,1,.61-1.39,3.08,3.08,0,0,1,1.85-.47h1.26v-.08a1.17,1.17,0,0,0-.41-1,1.71,1.71,0,0,0-1.14-.34,3.51,3.51,0,0,0-.92.11,3.43,3.43,0,0,0-.85.34V33.7a5.48,5.48,0,0,1,1-.29,4.66,4.66,0,0,1,.9-.09,2.33,2.33,0,0,1,1.77.61A2.62,2.62,0,0,1,397.44,35.8Z"/><path id="DejaVuSans-79-2" data-name="DejaVuSans-79" d="M401.56,39.42a3.2,3.2,0,0,1-.74,1.28,1.46,1.46,0,0,1-1,.3h-.71v-.76h.52a.85.85,0,0,0,.58-.17,2.19,2.19,0,0,0,.45-.83l.16-.41-2.21-5.38h1l1.7,4.27L403,33.45h1Z"/><path id="DejaVuSans-73-3" data-name="DejaVuSans-73" d="M408.69,33.61v.85a3.26,3.26,0,0,0-.79-.29,3.41,3.41,0,0,0-.85-.1,2,2,0,0,0-1,.2.67.67,0,0,0-.34.62.58.58,0,0,0,.24.49,2.85,2.85,0,0,0,1,.34l.31.07a2.94,2.94,0,0,1,1.36.57,1.36,1.36,0,0,1,.41,1,1.41,1.41,0,0,1-.61,1.2,2.71,2.71,0,0,1-1.66.45,4.92,4.92,0,0,1-.91-.09,7,7,0,0,1-1-.25v-.93a5,5,0,0,0,1,.39,4,4,0,0,0,.95.13,1.87,1.87,0,0,0,1-.22.74.74,0,0,0,.09-1.18,3,3,0,0,0-1.08-.37l-.31-.08a2.4,2.4,0,0,1-1.21-.53,1.38,1.38,0,0,1-.37-1,1.42,1.42,0,0,1,.55-1.19,2.51,2.51,0,0,1,1.55-.42,5.53,5.53,0,0,1,.94.07A4,4,0,0,1,408.69,33.61Z"/></g><g id="line2d_35" data-name="line2d 35"><path class="cls-6" d="M342,50.09h20"/></g><g id="text_11" data-name="text 11"><path id="DejaVuSans-31-2" data-name="DejaVuSans-31" d="M371.21,52.77h1.61V47.2l-1.76.35v-.89l1.75-.36h1v6.47h1.62v.82h-4.2Z"/><path id="DejaVuSans-20-3" data-name="DejaVuSans-20" d="M376.33,53.59"/><path id="DejaVuSans-64-3" data-name="DejaVuSans-64" d="M384.05,49V46h.9v7.59h-.9v-.82a1.87,1.87,0,0,1-.72.73,2.06,2.06,0,0,1-1,.24,2,2,0,0,1-1.62-.79,3.32,3.32,0,0,1-.62-2.08,3.28,3.28,0,0,1,.62-2.08,2,2,0,0,1,1.62-.8,2.06,2.06,0,0,1,1,.24A1.87,1.87,0,0,1,384.05,49ZM381,50.87a2.55,2.55,0,0,0,.41,1.55,1.29,1.29,0,0,0,1.12.56,1.31,1.31,0,0,0,1.12-.56,3.15,3.15,0,0,0,0-3.11,1.31,1.31,0,0,0-1.12-.56,1.29,1.29,0,0,0-1.12.56A2.56,2.56,0,0,0,381,50.87Z"/><path id="DejaVuSans-61-2" data-name="DejaVuSans-61" d="M389.28,50.85a3.34,3.34,0,0,0-1.51.24.91.91,0,0,0-.42.85,1,1,0,0,0,.32.76,1.24,1.24,0,0,0,.86.28,1.5,1.5,0,0,0,1.2-.53,2.08,2.08,0,0,0,.45-1.4v-.2Zm1.8-.38v3.12h-.9v-.82a2,2,0,0,1-.77.73,2.41,2.41,0,0,1-1.12.24,1.89,1.89,0,0,1-1.34-.47,1.68,1.68,0,0,1-.49-1.27,1.64,1.64,0,0,1,.61-1.39,3.05,3.05,0,0,1,1.85-.47h1.26v-.09a1.2,1.2,0,0,0-.41-1,1.77,1.77,0,0,0-1.15-.33,3.49,3.49,0,0,0-.91.11,3.29,3.29,0,0,0-.85.34v-.84a6,6,0,0,1,.95-.28,4.78,4.78,0,0,1,.91-.1,2.34,2.34,0,0,1,1.77.62A2.61,2.61,0,0,1,391.08,50.47Z"/><path id="DejaVuSans-79-3" data-name="DejaVuSans-79" d="M395.2,54.1a3.27,3.27,0,0,1-.74,1.28,1.52,1.52,0,0,1-1,.29h-.72v-.75h.53a.91.91,0,0,0,.58-.17,2.35,2.35,0,0,0,.45-.83l.16-.41-2.21-5.38h1l1.71,4.27,1.71-4.27h1Z"/></g></g></g></g></g><g id="Bayerite"><path d="M109.77,78.5a10.52,10.52,0,0,1,1.91-.17,3.3,3.3,0,0,1,2.21.59,1.7,1.7,0,0,1,.68,1.43,1.92,1.92,0,0,1-1.37,1.77v0a2.08,2.08,0,0,1,1.67,2,2.15,2.15,0,0,1-.69,1.61,4,4,0,0,1-2.79.76,11.75,11.75,0,0,1-1.62-.1Zm1,3.31h1c1.1,0,1.75-.57,1.75-1.35,0-.95-.72-1.32-1.77-1.32a4.33,4.33,0,0,0-.93.07Zm0,3.88a6.83,6.83,0,0,0,.88,0c1.08,0,2.07-.39,2.07-1.57s-.94-1.56-2.08-1.56h-.87Z"/><path d="M120.94,76.57a10.64,10.64,0,0,1,1.91-.16,3.36,3.36,0,0,1,2.21.58,1.72,1.72,0,0,1,.68,1.43,1.94,1.94,0,0,1-1.37,1.78v0a2.08,2.08,0,0,1,1.67,2,2.19,2.19,0,0,1-.69,1.62,4.07,4.07,0,0,1-2.79.75,14.11,14.11,0,0,1-1.62-.09Zm1,3.31h1c1.1,0,1.75-.57,1.75-1.35,0-1-.72-1.32-1.77-1.32a5.13,5.13,0,0,0-.93.07Zm0,3.88a6.52,6.52,0,0,0,.88,0c1.08,0,2.07-.4,2.07-1.57s-.94-1.56-2.08-1.56H122Z"/><path d="M173.12,115.12A10.82,10.82,0,0,1,175,115a3.37,3.37,0,0,1,2.22.58,1.72,1.72,0,0,1,.67,1.43,1.93,1.93,0,0,1-1.36,1.78v0a2.09,2.09,0,0,1,1.66,2,2.19,2.19,0,0,1-.68,1.62,4.12,4.12,0,0,1-2.8.75,14.11,14.11,0,0,1-1.62-.09Zm1,3.31h1c1.1,0,1.75-.57,1.75-1.35,0-1-.72-1.32-1.78-1.32a5,5,0,0,0-.92.07Zm0,3.88a6.25,6.25,0,0,0,.87,0c1.08,0,2.08-.4,2.08-1.57s-1-1.56-2.09-1.56h-.86Z"/><path d="M255,100.24a9.69,9.69,0,0,1,1.91-.17,3.3,3.3,0,0,1,2.21.59,1.7,1.7,0,0,1,.68,1.43,1.92,1.92,0,0,1-1.37,1.77v0a2.07,2.07,0,0,1,1.67,2,2.16,2.16,0,0,1-.69,1.62,4,4,0,0,1-2.79.76,11.75,11.75,0,0,1-1.62-.1Zm1,3.31h1c1.1,0,1.75-.58,1.75-1.36,0-.94-.72-1.31-1.77-1.31a4.33,4.33,0,0,0-.93.07Zm0,3.87a5.2,5.2,0,0,0,.88,0c1.08,0,2.07-.39,2.07-1.57s-.94-1.56-2.08-1.56H256Z"/></g><g id="Hydrotalcite"><g id="H"><path d="M64.21,105.09v3.38h3.91v-3.38h1v8.08h-1v-3.79H64.21v3.79h-1v-8.08Z"/><path d="M137.47,120.42v3.38h3.91v-3.38h1.05v8.08h-1.05v-3.79h-3.91v3.79h-1.05v-8.08Z"/><path d="M216.21,130.4v3.39h3.91V130.4h1.06v8.09h-1.06V134.7h-3.91v3.79h-1V130.4Z"/></g></g><g id="Zeolite_A" data-name="Zeolite A"><path d="M36.58,55l-.84,2.55H34.66l2.75-8.09h1.26l2.75,8.09H40.31L39.45,55Zm2.65-.81-.79-2.33c-.18-.53-.3-1-.42-1.47h0c-.12.48-.25,1-.4,1.46l-.8,2.34Z"/><path d="M55.72,79.67l-.84,2.54H53.8l2.74-8.08H57.8l2.76,8.08H59.45l-.87-2.54Zm2.65-.82-.79-2.33c-.18-.52-.3-1-.42-1.47h0c-.12.48-.25,1-.41,1.46l-.79,2.34Z"/><path d="M71.93,92.83l-.84,2.54H70l2.75-8.08H74l2.76,8.08H75.66l-.86-2.54ZM74.58,92l-.79-2.33c-.18-.52-.3-1-.42-1.47h0c-.12.48-.25,1-.41,1.46L72.15,92Z"/><path d="M95.88,109.4,95,111.94H94l2.74-8.08H98l2.76,8.08H99.61l-.86-2.54Zm2.65-.81-.79-2.33c-.18-.53-.3-1-.42-1.48h0c-.12.48-.25,1-.41,1.47l-.79,2.34Z"/><path d="M125.93,47.35l-.84,2.55H124l2.74-8.09H128l2.76,8.09h-1.11l-.87-2.55Zm2.65-.81-.8-2.33c-.18-.53-.3-1-.41-1.47h0c-.12.48-.25,1-.41,1.46l-.79,2.34Z"/><path d="M133.06,103.32l-.84,2.54h-1.08l2.75-8.08h1.26l2.76,8.08h-1.12l-.86-2.54Zm2.65-.82-.79-2.32c-.18-.53-.3-1-.42-1.48h0c-.12.48-.25,1-.41,1.47l-.79,2.33Z"/><path d="M147,83.34l-.84,2.55h-1.08l2.75-8.09h1.26l2.76,8.09h-1.12l-.86-2.55Zm2.65-.81-.79-2.33c-.18-.53-.3-1-.42-1.47h0c-.12.48-.25,1-.41,1.46l-.79,2.34Z"/><path d="M167.69,77.73l-.84,2.55h-1.08l2.75-8.09h1.26l2.76,8.09h-1.12l-.86-2.55Zm2.65-.81-.79-2.33c-.18-.53-.3-1-.42-1.47h0c-.12.48-.25,1-.41,1.46l-.79,2.34Z"/><path d="M186.26,84.54l-.84,2.54h-1.08L187.08,79h1.26l2.76,8.08H190l-.87-2.54Zm2.65-.81-.8-2.33c-.18-.53-.3-1-.42-1.48h0c-.12.48-.25,1-.41,1.47l-.79,2.34Z"/><path d="M214.05,98.92l-.84,2.54h-1.08l2.74-8.08h1.26l2.76,8.08h-1.11l-.87-2.54Zm2.65-.81-.8-2.33a15.27,15.27,0,0,1-.41-1.48h0c-.12.48-.25,1-.41,1.47l-.79,2.34Z"/></g></svg>