<?xml version="1.0" encoding="utf-8"?>
<!-- Generator: Adobe Illustrator 26.0.1, SVG Export Plug-In . SVG Version: 6.00 Build 0)  -->
<svg version="1.1" xmlns="http://www.w3.org/2000/svg" xmlns:xlink="http://www.w3.org/1999/xlink" x="0px" y="0px"
	 viewBox="0 0 206.4 177.8" style="enable-background:new 0 0 206.4 177.8;" xml:space="preserve">
<style type="text/css">
	.st0{fill:#FFFFFF;}
	.st1{stroke:#000000;stroke-width:0.8;stroke-linejoin:round;}
	.st2{stroke:#000000;stroke-width:0.6;stroke-linejoin:round;}
	
		.st3{clip-path:url(#SVGID_00000142873484817986644120000010325388893021476287_);fill:none;stroke:#FF9D00;stroke-width:0.5;stroke-linecap:square;stroke-linejoin:round;}
	
		.st4{clip-path:url(#SVGID_00000004543456470154014590000009648896226198998947_);fill:none;stroke:#E63940;stroke-width:0.5;stroke-linecap:square;stroke-linejoin:round;}
	
		.st5{clip-path:url(#SVGID_00000011029910917543662110000001917504091654371212_);fill:none;stroke:#9A005D;stroke-width:0.5;stroke-linecap:square;stroke-linejoin:round;}
	
		.st6{clip-path:url(#SVGID_00000091716821350435545580000016916576871348875407_);fill:none;stroke:#1F005C;stroke-width:0.5;stroke-linecap:square;stroke-linejoin:round;}
	.st7{fill:none;stroke:#000000;stroke-width:0.8;stroke-linecap:square;}
	.st8{opacity:0.8;fill:#FFFFFF;stroke:#CCCCCC;enable-background:new    ;}
	.st9{fill:none;stroke:#1F005C;stroke-width:0.5;stroke-linecap:square;stroke-linejoin:round;}
	.st10{fill:none;stroke:#9A005D;stroke-width:0.5;stroke-linecap:square;stroke-linejoin:round;}
	.st11{fill:none;stroke:#E63940;stroke-width:0.5;stroke-linecap:square;stroke-linejoin:round;}
	.st12{fill:none;stroke:#FF9D00;stroke-width:0.5;stroke-linecap:square;stroke-linejoin:round;}
	.st13{fill:#B31F27;}
</style>
<g id="Layer_1">
	<g id="figure_1">
		<g id="patch_1">
			<path class="st0" d="M0,177.8h206.4V0H0V177.8z"/>
		</g>
		<g id="axes_1">
			<g id="patch_2">
				<path class="st0" d="M23.4,143.1h175.8V7.2H23.4V143.1z"/>
			</g>
			<g id="matplotlib.axis_1">
				<g id="xtick_1">
					<g id="line2d_1">
						<g>
							<g>
								<path id="m266f532470" class="st1" d="M38.1,143.1v3.5"/>
							</g>
						</g>
					</g>
					<g id="text_1">
						<g transform="translate(32.967812 156.17875)scale(0.08 -0.08)">
							<g>
								<path id="DejaVuSans-31" d="M12.4,8.3h16.1v55.6L11,60.4v9l17.4,3.5h9.9V8.3h16.1V0h-42V8.3z"/>
							</g>
							<g>
								<path id="DejaVuSans-30" d="M95.4,66.4c-5.1,0-8.9-2.5-11.5-7.5c-2.6-5-3.8-12.5-3.8-22.5c0-10,1.3-17.5,3.8-22.5
									c2.6-5,6.4-7.5,11.5-7.5c5.1,0,8.9,2.5,11.5,7.5c2.6,5,3.8,12.5,3.8,22.5c0,10-1.3,17.5-3.8,22.5
									C104.4,63.9,100.5,66.4,95.4,66.4z M95.4,74.2c8.2,0,14.4-3.2,18.7-9.7c4.3-6.5,6.5-15.8,6.5-28.1c0-12.3-2.2-21.6-6.5-28.1
									c-4.3-6.5-10.6-9.7-18.7-9.7c-8.2,0-14.4,3.2-18.7,9.7c-4.3,6.5-6.5,15.8-6.5,28.1c0,12.3,2.2,21.7,6.5,28.1
									C81,71,87.2,74.2,95.4,74.2z"/>
							</g>
						</g>
					</g>
				</g>
				<g id="xtick_2">
					<g id="line2d_2">
						<g>
							<g>
								<path id="m266f532470_00000016768659403024627610000016239957358399632791_" class="st1" d="M67.4,143.1v3.5"/>
							</g>
						</g>
					</g>
					<g id="text_2">
						<g transform="translate(62.262812 156.17875)scale(0.08 -0.08)">
							<g>
								<path id="DejaVuSans-32" d="M19.2,8.3h34.4V0H7.3v8.3c3.7,3.9,8.8,9.1,15.3,15.6c6.5,6.5,10.5,10.7,12.2,12.6
									c3.2,3.5,5.4,6.5,6.6,9c1.3,2.5,1.9,4.9,1.9,7.2c0,3.9-1.4,7-4.1,9.5c-2.7,2.4-6.3,3.7-10.6,3.7c-3.1,0-6.4-0.5-9.8-1.6
									c-3.4-1.1-7.1-2.7-11-4.9v10c4,1.6,7.7,2.8,11.1,3.6c3.5,0.8,6.6,1.2,9.5,1.2c7.6,0,13.6-1.9,18.1-5.7
									c4.5-3.8,6.7-8.8,6.7-15.1c0-3-0.6-5.8-1.7-8.5c-1.1-2.7-3.2-5.8-6.1-9.5c-0.8-0.9-3.4-3.7-7.8-8.2
									C33.3,22.7,27.1,16.4,19.2,8.3z"/>
							</g>
							<g>
								<path id="DejaVuSans-30_00000083770137674962859620000002586501312707829681_" d="M95.4,66.4c-5.1,0-8.9-2.5-11.5-7.5
									c-2.6-5-3.8-12.5-3.8-22.5c0-10,1.3-17.5,3.8-22.5c2.6-5,6.4-7.5,11.5-7.5c5.1,0,8.9,2.5,11.5,7.5c2.6,5,3.8,12.5,3.8,22.5
									c0,10-1.3,17.5-3.8,22.5C104.4,63.9,100.5,66.4,95.4,66.4z M95.4,74.2c8.2,0,14.4-3.2,18.7-9.7c4.3-6.5,6.5-15.8,6.5-28.1
									c0-12.3-2.2-21.6-6.5-28.1c-4.3-6.5-10.6-9.7-18.7-9.7c-8.2,0-14.4,3.2-18.7,9.7c-4.3,6.5-6.5,15.8-6.5,28.1
									c0,12.3,2.2,21.7,6.5,28.1C81,71,87.2,74.2,95.4,74.2z"/>
							</g>
						</g>
					</g>
				</g>
				<g id="xtick_3">
					<g id="line2d_3">
						<g>
							<g>
								<path id="m266f532470_00000166657617058338487810000017598608427303707046_" class="st1" d="M96.6,143.1v3.5"/>
							</g>
						</g>
					</g>
					<g id="text_3">
						<g transform="translate(91.557812 156.17875)scale(0.08 -0.08)">
							<g>
								<path id="DejaVuSans-33" d="M40.6,39.3c4.7-1,8.4-3.1,11-6.3c2.7-3.2,4-7.1,4-11.8c0-7.2-2.5-12.8-7.4-16.7
									c-4.9-3.9-12-5.9-21.1-5.9c-3.1,0-6.2,0.3-9.4,0.9S11.1,1,7.6,2.2v9.5c2.7-1.6,5.7-2.8,9-3.6c3.3-0.8,6.7-1.2,10.2-1.2
									c6.2,0,10.9,1.2,14.1,3.7s4.9,6,4.9,10.6c0,4.3-1.5,7.7-4.5,10.1c-3,2.4-7.2,3.6-12.6,3.6h-8.5V43h8.9c4.8,0,8.6,1,11.1,2.9
									s3.9,4.7,3.9,8.4c0,3.7-1.3,6.6-4,8.6c-2.6,2-6.4,3-11.4,3c-2.7,0-5.6-0.3-8.7-0.9c-3.1-0.6-6.5-1.5-10.2-2.7v8.8
									c3.8,1,7.3,1.8,10.5,2.3s6.4,0.8,9.2,0.8c7.5,0,13.4-1.7,17.8-5.1c4.4-3.4,6.5-8,6.5-13.8c0-4-1.2-7.5-3.5-10.2
									S44.8,40.4,40.6,39.3z"/>
							</g>
							<g>
								<path id="DejaVuSans-30_00000106866665940143007940000017303227693338663841_" d="M95.4,66.4c-5.1,0-8.9-2.5-11.5-7.5
									c-2.6-5-3.8-12.5-3.8-22.5c0-10,1.3-17.5,3.8-22.5c2.6-5,6.4-7.5,11.5-7.5c5.1,0,8.9,2.5,11.5,7.5c2.6,5,3.8,12.5,3.8,22.5
									c0,10-1.3,17.5-3.8,22.5C104.4,63.9,100.5,66.4,95.4,66.4z M95.4,74.2c8.2,0,14.4-3.2,18.7-9.7c4.3-6.5,6.5-15.8,6.5-28.1
									c0-12.3-2.2-21.6-6.5-28.1c-4.3-6.5-10.6-9.7-18.7-9.7c-8.2,0-14.4,3.2-18.7,9.7c-4.3,6.5-6.5,15.8-6.5,28.1
									c0,12.3,2.2,21.7,6.5,28.1C81,71,87.2,74.2,95.4,74.2z"/>
							</g>
						</g>
					</g>
				</g>
				<g id="xtick_4">
					<g id="line2d_4">
						<g>
							<g>
								<path id="m266f532470_00000003819849821015437580000013805484128605395098_" class="st1" d="M125.9,143.1v3.5"/>
							</g>
						</g>
					</g>
					<g id="text_4">
						<g transform="translate(120.852812 156.17875)scale(0.08 -0.08)">
							<g>
								<path id="DejaVuSans-34" d="M37.8,64.3L12.9,25.4h24.9V64.3z M35.2,72.9h12.4V25.4H58v-8.2H47.6V0h-9.8v17.2H4.9v9.5
									L35.2,72.9z"/>
							</g>
							<g>
								<path id="DejaVuSans-30_00000147212659767009276700000012595180659651581587_" d="M95.4,66.4c-5.1,0-8.9-2.5-11.5-7.5
									c-2.6-5-3.8-12.5-3.8-22.5c0-10,1.3-17.5,3.8-22.5c2.6-5,6.4-7.5,11.5-7.5c5.1,0,8.9,2.5,11.5,7.5c2.6,5,3.8,12.5,3.8,22.5
									c0,10-1.3,17.5-3.8,22.5C104.4,63.9,100.5,66.4,95.4,66.4z M95.4,74.2c8.2,0,14.4-3.2,18.7-9.7c4.3-6.5,6.5-15.8,6.5-28.1
									c0-12.3-2.2-21.6-6.5-28.1c-4.3-6.5-10.6-9.7-18.7-9.7c-8.2,0-14.4,3.2-18.7,9.7c-4.3,6.5-6.5,15.8-6.5,28.1
									c0,12.3,2.2,21.7,6.5,28.1C81,71,87.2,74.2,95.4,74.2z"/>
							</g>
						</g>
					</g>
				</g>
				<g id="xtick_5">
					<g id="line2d_5">
						<g>
							<g>
								<path id="m266f532470_00000149356110301716352890000008886498375277130919_" class="st1" d="M155.2,143.1v3.5"/>
							</g>
						</g>
					</g>
					<g id="text_5">
						<g transform="translate(150.147812 156.17875)scale(0.08 -0.08)">
							<g>
								<path id="DejaVuSans-35" d="M10.8,72.9h38.7v-8.3H19.8V46.7c1.4,0.5,2.9,0.9,4.3,1.1c1.4,0.2,2.9,0.4,4.3,0.4
									c8.1,0,14.6-2.2,19.3-6.7c4.8-4.5,7.1-10.5,7.1-18.1c0-7.8-2.4-13.9-7.3-18.3c-4.9-4.3-11.8-6.5-20.7-6.5
									c-3.1,0-6.2,0.3-9.4,0.8c-3.2,0.5-6.4,1.3-9.8,2.3v9.9c2.9-1.6,6-2.8,9.1-3.6s6.4-1.2,9.9-1.2c5.6,0,10.1,1.5,13.4,4.4
									c3.3,3,4.9,7,4.9,12.1c0,5.1-1.6,9.1-4.9,12c-3.3,3-7.7,4.5-13.4,4.5c-2.6,0-5.3-0.3-7.9-0.9c-2.6-0.6-5.3-1.5-8-2.7V72.9z"
									/>
							</g>
							<g>
								<path id="DejaVuSans-30_00000126310581226739111100000008544874657387495055_" d="M95.4,66.4c-5.1,0-8.9-2.5-11.5-7.5
									c-2.6-5-3.8-12.5-3.8-22.5c0-10,1.3-17.5,3.8-22.5c2.6-5,6.4-7.5,11.5-7.5c5.1,0,8.9,2.5,11.5,7.5c2.6,5,3.8,12.5,3.8,22.5
									c0,10-1.3,17.5-3.8,22.5C104.4,63.9,100.5,66.4,95.4,66.4z M95.4,74.2c8.2,0,14.4-3.2,18.7-9.7c4.3-6.5,6.5-15.8,6.5-28.1
									c0-12.3-2.2-21.6-6.5-28.1c-4.3-6.5-10.6-9.7-18.7-9.7c-8.2,0-14.4,3.2-18.7,9.7c-4.3,6.5-6.5,15.8-6.5,28.1
									c0,12.3,2.2,21.7,6.5,28.1C81,71,87.2,74.2,95.4,74.2z"/>
							</g>
						</g>
					</g>
				</g>
				<g id="xtick_6">
					<g id="line2d_6">
						<g>
							<g>
								<path id="m266f532470_00000175324568029185887920000004707502743134730143_" class="st1" d="M184.5,143.1v3.5"/>
							</g>
						</g>
					</g>
					<g id="text_6">
						<g transform="translate(179.442812 156.17875)scale(0.08 -0.08)">
							<g>
								<path id="DejaVuSans-36" d="M33,40.4c-4.4,0-7.9-1.5-10.5-4.5c-2.6-3-3.9-7.2-3.9-12.4c0-5.2,1.3-9.4,3.9-12.4
									c2.6-3,6.1-4.6,10.5-4.6s7.9,1.5,10.5,4.6c2.6,3.1,3.9,7.2,3.9,12.4c0,5.3-1.3,9.4-3.9,12.4C40.9,38.9,37.4,40.4,33,40.4z
									 M52.6,71.3v-9c-2.5,1.2-5,2.1-7.5,2.7c-2.5,0.6-5,0.9-7.5,0.9c-6.5,0-11.5-2.2-14.9-6.6c-3.4-4.4-5.4-11-5.9-19.9
									c1.9,2.8,4.3,5,7.2,6.5c2.9,1.5,6.1,2.3,9.6,2.3c7.3,0,13.1-2.2,17.4-6.7c4.2-4.4,6.4-10.5,6.4-18.1c0-7.5-2.2-13.5-6.6-18
									C46.3,0.8,40.4-1.4,33-1.4c-8.4,0-14.9,3.2-19.3,9.7C9.2,14.7,7,24.1,7,36.4c0,11.5,2.7,20.7,8.2,27.6
									c5.5,6.9,12.8,10.3,22,10.3c2.5,0,5-0.2,7.5-0.7S49.9,72.3,52.6,71.3z"/>
							</g>
							<g>
								<path id="DejaVuSans-30_00000003089957402428623260000012508022063699569818_" d="M95.4,66.4c-5.1,0-8.9-2.5-11.5-7.5
									c-2.6-5-3.8-12.5-3.8-22.5c0-10,1.3-17.5,3.8-22.5c2.6-5,6.4-7.5,11.5-7.5c5.1,0,8.9,2.5,11.5,7.5c2.6,5,3.8,12.5,3.8,22.5
									c0,10-1.3,17.5-3.8,22.5C104.4,63.9,100.5,66.4,95.4,66.4z M95.4,74.2c8.2,0,14.4-3.2,18.7-9.7c4.3-6.5,6.5-15.8,6.5-28.1
									c0-12.3-2.2-21.6-6.5-28.1c-4.3-6.5-10.6-9.7-18.7-9.7c-8.2,0-14.4,3.2-18.7,9.7c-4.3,6.5-6.5,15.8-6.5,28.1
									c0,12.3,2.2,21.7,6.5,28.1C81,71,87.2,74.2,95.4,74.2z"/>
							</g>
						</g>
					</g>
				</g>
				<g id="xtick_7">
					<g id="line2d_7">
						<g>
							<g>
								<path id="maf7f545690" class="st2" d="M23.4,143.1v2"/>
							</g>
						</g>
					</g>
				</g>
				<g id="xtick_8">
					<g id="line2d_8">
						<g>
							<g>
								<path id="maf7f545690_00000026855278451915801580000011877949306455884171_" class="st2" d="M30.7,143.1v2"/>
							</g>
						</g>
					</g>
				</g>
				<g id="xtick_9">
					<g id="line2d_9">
						<g>
							<g>
								<path id="maf7f545690_00000154398595234620340270000018119930010241497781_" class="st2" d="M45.4,143.1v2"/>
							</g>
						</g>
					</g>
				</g>
				<g id="xtick_10">
					<g id="line2d_10">
						<g>
							<g>
								<path id="maf7f545690_00000144328459385250496830000013669429890019707312_" class="st2" d="M52.7,143.1v2"/>
							</g>
						</g>
					</g>
				</g>
				<g id="xtick_11">
					<g id="line2d_11">
						<g>
							<g>
								<path id="maf7f545690_00000109711775516302747070000011271405803334571690_" class="st2" d="M60,143.1v2"/>
							</g>
						</g>
					</g>
				</g>
				<g id="xtick_12">
					<g id="line2d_12">
						<g>
							<g>
								<path id="maf7f545690_00000072980087704928317320000003233040492908843657_" class="st2" d="M74.7,143.1v2"/>
							</g>
						</g>
					</g>
				</g>
				<g id="xtick_13">
					<g id="line2d_13">
						<g>
							<g>
								<path id="maf7f545690_00000128451931279704731640000002650436113488639897_" class="st2" d="M82,143.1v2"/>
							</g>
						</g>
					</g>
				</g>
				<g id="xtick_14">
					<g id="line2d_14">
						<g>
							<g>
								<path id="maf7f545690_00000158741201188406021430000002418108678278753667_" class="st2" d="M89.3,143.1v2"/>
							</g>
						</g>
					</g>
				</g>
				<g id="xtick_15">
					<g id="line2d_15">
						<g>
							<g>
								<path id="maf7f545690_00000181782568243058352100000015546763691128463781_" class="st2" d="M104,143.1v2"/>
							</g>
						</g>
					</g>
				</g>
				<g id="xtick_16">
					<g id="line2d_16">
						<g>
							<g>
								<path id="maf7f545690_00000006685183172235541380000007809407758879259053_" class="st2" d="M111.3,143.1v2"/>
							</g>
						</g>
					</g>
				</g>
				<g id="xtick_17">
					<g id="line2d_17">
						<g>
							<g>
								<path id="maf7f545690_00000020357743197358686100000001389532356081611405_" class="st2" d="M118.6,143.1v2"/>
							</g>
						</g>
					</g>
				</g>
				<g id="xtick_18">
					<g id="line2d_18">
						<g>
							<g>
								<path id="maf7f545690_00000042000464099241868620000011321353998326298015_" class="st2" d="M133.3,143.1v2"/>
							</g>
						</g>
					</g>
				</g>
				<g id="xtick_19">
					<g id="line2d_19">
						<g>
							<g>
								<path id="maf7f545690_00000085210932387638504440000010544896967915639977_" class="st2" d="M140.6,143.1v2"/>
							</g>
						</g>
					</g>
				</g>
				<g id="xtick_20">
					<g id="line2d_20">
						<g>
							<g>
								<path id="maf7f545690_00000034062020533298040210000003967678246052509355_" class="st2" d="M147.9,143.1v2"/>
							</g>
						</g>
					</g>
				</g>
				<g id="xtick_21">
					<g id="line2d_21">
						<g>
							<g>
								<path id="maf7f545690_00000135671063379398036090000006473551817199829950_" class="st2" d="M162.6,143.1v2"/>
							</g>
						</g>
					</g>
				</g>
				<g id="xtick_22">
					<g id="line2d_22">
						<g>
							<g>
								<path id="maf7f545690_00000049187625099029973970000009459745130210037915_" class="st2" d="M169.9,143.1v2"/>
							</g>
						</g>
					</g>
				</g>
				<g id="xtick_23">
					<g id="line2d_23">
						<g>
							<g>
								<path id="maf7f545690_00000052085499446017791380000001871732256688950711_" class="st2" d="M177.2,143.1v2"/>
							</g>
						</g>
					</g>
				</g>
				<g id="xtick_24">
					<g id="line2d_24">
						<g>
							<g>
								<path id="maf7f545690_00000093892863756981346610000007069495281370283191_" class="st2" d="M191.9,143.1v2"/>
							</g>
						</g>
					</g>
				</g>
				<g id="xtick_25">
					<g id="line2d_25">
						<g>
							<g>
								<path id="maf7f545690_00000058550463498965753690000016478052822973455233_" class="st2" d="M199.2,143.1v2"/>
							</g>
						</g>
					</g>
				</g>
				<g id="text_7">
					<g transform="translate(65.479687 168.681094)scale(0.09 -0.09)">
						<g>
							<path id="DejaVuSans-54" d="M-0.3,72.9h61.7v-8.3H35.5V0h-9.9v64.6H-0.3V72.9z"/>
						</g>
						<g>
							<path id="DejaVuSans-77" d="M48.8,54.7h9L69,12l11.2,42.7h10.6L102,12l11.2,42.7h9L107.9,0H97.3L85.5,44.8L73.7,0H63.1
								L48.8,54.7z"/>
						</g>
						<g>
							<path id="DejaVuSans-6f" d="M157,48.4c-4.8,0-8.6-1.9-11.4-5.6c-2.8-3.8-4.2-8.9-4.2-15.5s1.4-11.7,4.2-15.5
								c2.8-3.8,6.6-5.6,11.5-5.6c4.8,0,8.6,1.9,11.4,5.7c2.8,3.8,4.2,8.9,4.2,15.4c0,6.5-1.4,11.6-4.2,15.4
								C165.6,46.5,161.8,48.4,157,48.4z M157,56c7.8,0,13.9-2.5,18.4-7.6c4.5-5.1,6.7-12.1,6.7-21.1c0-8.9-2.2-16-6.7-21.1
								c-4.5-5.1-10.6-7.6-18.4-7.6c-7.8,0-14,2.5-18.4,7.6c-4.4,5.1-6.7,12.1-6.7,21.1c0,9,2.2,16,6.7,21.1
								C143,53.5,149.1,56,157,56z"/>
						</g>
						<g>
							<path id="DejaVuSans-20" d="M187.6,0"/>
						</g>
						<g>
							<path id="DejaVuSans-54_00000106139750757670667580000003204398811479890865_" d="M219,72.9h61.7v-8.3h-25.9V0h-9.9v64.6H219
								V72.9z"/>
						</g>
						<g>
							<path id="DejaVuSans-68" d="M335.3,33V0h-9v32.7c0,5.2-1,9-3,11.6c-2,2.6-5,3.9-9.1,3.9c-4.9,0-8.7-1.5-11.5-4.6
								c-2.8-3.1-4.2-7.3-4.2-12.6V0h-9v76h9V46.2c2.2,3.3,4.7,5.8,7.6,7.4c2.9,1.6,6.3,2.4,10.1,2.4c6.3,0,11-1.9,14.2-5.8
								C333.7,46.3,335.3,40.6,335.3,33z"/>
						</g>
						<g>
							<path id="DejaVuSans-65" d="M400,29.6v-4.4h-41.3c0.4-6.2,2.3-10.9,5.6-14.1s8-4.9,13.9-4.9c3.4,0,6.8,0.4,10,1.3
								s6.5,2.1,9.7,3.8V2.8c-3.2-1.4-6.5-2.4-9.9-3.1s-6.8-1.1-10.3-1.1c-8.7,0-15.6,2.5-20.7,7.6c-5.1,5.1-7.6,12-7.6,20.6
								c0,8.9,2.4,16,7.2,21.3c4.8,5.3,11.4,7.9,19.6,7.9c7.4,0,13.2-2.4,17.5-7.1C397.9,44.2,400,37.7,400,29.6z M391,32.2
								c-0.1,4.9-1.4,8.8-4.1,11.8c-2.7,2.9-6.2,4.4-10.7,4.4c-5,0-9-1.4-12-4.2s-4.7-6.8-5.2-12L391,32.2z"/>
						</g>
						<g>
							<path id="DejaVuSans-74" d="M423.6,70.2V54.7h18.5v-7h-18.5V18c0-4.5,0.6-7.3,1.8-8.6s3.7-1.9,7.5-1.9h9.2V0h-9.2
								c-6.9,0-11.7,1.3-14.4,3.9c-2.6,2.6-4,7.3-4,14.1v29.7H408v7h6.6v15.5H423.6z"/>
						</g>
						<g>
							<path id="DejaVuSans-61" d="M478.8,27.5c-7.3,0-12.3-0.8-15.1-2.5c-2.8-1.7-4.2-4.5-4.2-8.5c0-3.2,1.1-5.7,3.2-7.6
								c2.1-1.9,5-2.8,8.6-2.8c5,0,9,1.8,12,5.3c3,3.5,4.5,8.2,4.5,14.1v2H478.8z M496.7,31.2V0h-9v8.3c-2.1-3.3-4.6-5.8-7.7-7.3
								s-6.8-2.4-11.2-2.4c-5.6,0-10,1.6-13.4,4.7c-3.3,3.1-5,7.4-5,12.6c0,6.1,2.1,10.8,6.2,13.9c4.1,3.1,10.3,4.7,18.4,4.7h12.6
								v0.9c0,4.1-1.4,7.3-4.1,9.6s-6.5,3.4-11.5,3.4c-3.1,0-6.2-0.4-9.1-1.1c-3-0.8-5.8-1.9-8.5-3.4v8.3c3.3,1.3,6.5,2.2,9.6,2.8
								c3.1,0.6,6.1,1,9,1c7.9,0,13.8-2.1,17.7-6.2C494.8,45.8,496.7,39.5,496.7,31.2z"/>
						</g>
						<g>
							<path id="DejaVuSans-20_00000070097810298434755240000007971782983180296328_" d="M505.8,0"/>
						</g>
						<g>
							<path id="DejaVuSans-28" d="M568.6,75.9c-4.4-7.5-7.6-14.9-9.7-22.2c-2.1-7.3-3.2-14.7-3.2-22.3c0-7.5,1.1-15,3.2-22.3
								c2.1-7.4,5.4-14.8,9.7-22.2h-7.8c-4.9,7.7-8.5,15.2-11,22.6c-2.4,7.4-3.6,14.7-3.6,22c0,7.3,1.2,14.6,3.6,21.9
								c2.4,7.4,6.1,14.9,11,22.6H568.6z"/>
						</g>
						<g>
							<path id="DejaVuSans-64" d="M622,46.4V76h9V0h-9v8.2c-1.9-3.3-4.3-5.7-7.2-7.3c-2.9-1.6-6.3-2.4-10.4-2.4
								c-6.6,0-12,2.6-16.1,7.9c-4.1,5.3-6.2,12.2-6.2,20.8s2.1,15.5,6.2,20.8c4.2,5.3,9.5,7.9,16.1,7.9c4,0,7.5-0.8,10.4-2.4
								C617.8,52.1,620.1,49.6,622,46.4z M591.4,27.3c0-6.6,1.4-11.8,4.1-15.5s6.5-5.6,11.2-5.6s8.5,1.9,11.2,5.6
								c2.7,3.8,4.1,8.9,4.1,15.5s-1.4,11.8-4.1,15.5c-2.7,3.8-6.5,5.6-11.2,5.6s-8.5-1.9-11.2-5.6S591.4,33.9,591.4,27.3z"/>
						</g>
						<g>
							<path id="DejaVuSans-65_00000014615026820309263980000007238006019513286042_" d="M696.3,29.6v-4.4H655
								c0.4-6.2,2.3-10.9,5.6-14.1c3.3-3.2,8-4.9,13.9-4.9c3.4,0,6.8,0.4,10,1.3c3.2,0.8,6.5,2.1,9.7,3.8V2.8
								c-3.2-1.4-6.5-2.4-9.9-3.1c-3.4-0.7-6.8-1.1-10.3-1.1c-8.7,0-15.6,2.5-20.7,7.6c-5.1,5.1-7.6,12-7.6,20.6
								c0,8.9,2.4,16,7.2,21.3c4.8,5.3,11.4,7.9,19.6,7.9c7.4,0,13.2-2.4,17.5-7.1C694.2,44.2,696.3,37.7,696.3,29.6z M687.3,32.2
								c-0.1,4.9-1.4,8.8-4.1,11.8c-2.7,2.9-6.2,4.4-10.7,4.4c-5,0-9-1.4-12-4.2c-3-2.8-4.7-6.8-5.2-12L687.3,32.2z"/>
						</g>
						<g>
							<path id="DejaVuSans-67" d="M747,28c0,6.5-1.3,11.6-4,15.1c-2.7,3.6-6.4,5.4-11.3,5.4c-4.8,0-8.6-1.8-11.2-5.4
								c-2.7-3.6-4-8.6-4-15.1c0-6.5,1.3-11.5,4-15.1s6.4-5.4,11.2-5.4c4.9,0,8.6,1.8,11.3,5.4C745.7,16.5,747,21.5,747,28z
								 M756,6.8c0-9.3-2.1-16.2-6.2-20.8c-4.1-4.5-10.5-6.8-19-6.8c-3.2,0-6.1,0.2-8.9,0.7c-2.8,0.5-5.5,1.2-8.2,2.2v8.7
								c2.6-1.4,5.2-2.5,7.8-3.2c2.6-0.7,5.2-1,7.9-1c5.9,0,10.3,1.5,13.2,4.6C745.6-5.7,747-1,747,5.2v4.5
								c-1.9-3.2-4.2-5.6-7.1-7.2C737,0.8,733.5,0,729.5,0c-6.7,0-12.1,2.6-16.2,7.7c-4.1,5.1-6.2,11.9-6.2,20.3
								c0,8.5,2.1,15.2,6.2,20.3c4.1,5.1,9.5,7.7,16.2,7.7c4,0,7.5-0.8,10.4-2.4c2.9-1.6,5.3-4,7.1-7.2v8.3h9V6.8z"/>
						</g>
						<g>
							<path id="DejaVuSans-72" d="M806.2,46.3c-1,0.6-2.1,1-3.3,1.3c-1.2,0.3-2.5,0.4-3.9,0.4c-5.1,0-9-1.7-11.7-5s-4.1-8-4.1-14.2
								V0h-9v54.7h9v-8.5c1.9,3.3,4.4,5.8,7.4,7.4c3,1.6,6.7,2.4,11,2.4c0.6,0,1.3,0,2-0.1c0.8-0.1,1.6-0.2,2.5-0.4L806.2,46.3z"/>
						</g>
						<g>
							<path id="DejaVuSans-65_00000164492788179646643260000009808470333532309638_" d="M860.2,29.6v-4.4h-41.3
								c0.4-6.2,2.3-10.9,5.6-14.1c3.3-3.2,8-4.9,13.9-4.9c3.4,0,6.8,0.4,10,1.3s6.5,2.1,9.7,3.8V2.8c-3.2-1.4-6.5-2.4-9.9-3.1
								s-6.8-1.1-10.3-1.1c-8.7,0-15.6,2.5-20.7,7.6c-5.1,5.1-7.6,12-7.6,20.6c0,8.9,2.4,16,7.2,21.3c4.8,5.3,11.4,7.9,19.6,7.9
								c7.4,0,13.2-2.4,17.5-7.1C858,44.2,860.2,37.7,860.2,29.6z M851.2,32.2c-0.1,4.9-1.4,8.8-4.1,11.8c-2.7,2.9-6.2,4.4-10.7,4.4
								c-5,0-9-1.4-12-4.2s-4.7-6.8-5.2-12L851.2,32.2z"/>
						</g>
						<g>
							<path id="DejaVuSans-65_00000120520269243813456810000005602314307215930790_" d="M921.7,29.6v-4.4h-41.3
								c0.4-6.2,2.3-10.9,5.6-14.1s8-4.9,13.9-4.9c3.4,0,6.8,0.4,10,1.3s6.5,2.1,9.7,3.8V2.8c-3.2-1.4-6.5-2.4-9.9-3.1
								s-6.8-1.1-10.3-1.1c-8.7,0-15.6,2.5-20.7,7.6c-5.1,5.1-7.6,12-7.6,20.6c0,8.9,2.4,16,7.2,21.3c4.8,5.3,11.4,7.9,19.6,7.9
								c7.4,0,13.2-2.4,17.5-7.1C919.5,44.2,921.7,37.7,921.7,29.6z M912.7,32.2c-0.1,4.9-1.4,8.8-4.1,11.8
								c-2.7,2.9-6.2,4.4-10.7,4.4c-5,0-9-1.4-12-4.2s-4.7-6.8-5.2-12L912.7,32.2z"/>
						</g>
						<g>
							<path id="DejaVuSans-73" d="M971.3,53.1v-8.5c-2.5,1.3-5.2,2.3-7.9,2.9c-2.7,0.7-5.6,1-8.5,1c-4.5,0-7.8-0.7-10-2
								s-3.3-3.4-3.3-6.2c0-2.1,0.8-3.7,2.4-4.9s4.8-2.3,9.6-3.4l3.1-0.7c6.4-1.4,10.9-3.3,13.6-5.8s4-6,4-10.4c0-5.1-2-9.1-6-12.1
								c-4-3-9.5-4.4-16.6-4.4c-2.9,0-6,0.3-9.2,0.9s-6.5,1.4-10,2.6v9.3c3.3-1.7,6.6-3,9.8-3.9c3.2-0.9,6.4-1.3,9.6-1.3
								c4.2,0,7.5,0.7,9.8,2.2c2.3,1.4,3.4,3.5,3.4,6.1c0,2.4-0.8,4.3-2.5,5.6c-1.6,1.3-5.2,2.6-10.8,3.8l-3.1,0.7
								c-5.6,1.2-9.6,3-12.1,5.4c-2.5,2.4-3.7,5.8-3.7,10c0,5.1,1.8,9.1,5.5,11.9c3.6,2.8,8.8,4.2,15.5,4.2c3.3,0,6.4-0.2,9.4-0.7
								C966.1,54.8,968.8,54.1,971.3,53.1z"/>
						</g>
						<g>
							<path id="DejaVuSans-29" d="M987.1,75.9h7.8c4.9-7.7,8.5-15.2,11-22.6c2.4-7.4,3.6-14.7,3.6-21.9c0-7.3-1.2-14.6-3.6-22
								s-6.1-14.9-11-22.6h-7.8c4.3,7.5,7.6,14.9,9.7,22.2s3.2,14.8,3.2,22.3c0,7.5-1.1,14.9-3.2,22.3
								C994.7,61,991.4,68.4,987.1,75.9z"/>
						</g>
					</g>
				</g>
			</g>
			<g id="matplotlib.axis_2">
				<g id="ytick_1">
					<g id="line2d_26">
					</g>
				</g>
				<g id="ytick_2">
					<g id="line2d_27">
					</g>
				</g>
				<g id="ytick_3">
					<g id="line2d_28">
					</g>
				</g>
				<g id="ytick_4">
					<g id="line2d_29">
					</g>
				</g>
				<g id="text_8">
					<g transform="translate(14.038594 94.73625)rotate(-90)scale(0.09 -0.09)">
						<g>
							<path id="DejaVuSans-49" d="M9.8,72.9h9.9V0H9.8V72.9z"/>
						</g>
						<g>
							<path id="DejaVuSans-6e" d="M84.4,33V0h-9v32.7c0,5.2-1,9-3,11.6c-2,2.6-5,3.9-9.1,3.9c-4.9,0-8.7-1.5-11.5-4.6
								c-2.8-3.1-4.2-7.3-4.2-12.6V0h-9v54.7h9v-8.5c2.2,3.3,4.7,5.8,7.6,7.4c2.9,1.6,6.3,2.4,10.1,2.4c6.3,0,11-1.9,14.2-5.8
								C82.8,46.3,84.4,40.6,84.4,33z"/>
						</g>
						<g>
							<path id="DejaVuSans-74_00000140703174642510661710000017222512618011376573_" d="M111.2,70.2V54.7h18.5v-7h-18.5V18
								c0-4.5,0.6-7.3,1.8-8.6s3.7-1.9,7.5-1.9h9.2V0h-9.2c-6.9,0-11.7,1.3-14.4,3.9c-2.6,2.6-4,7.3-4,14.1v29.7h-6.6v7h6.6v15.5
								H111.2z"/>
						</g>
						<g>
							<path id="DejaVuSans-65_00000013871418664302450020000003868416851194811040_" d="M188.3,29.6v-4.4H147
								c0.4-6.2,2.3-10.9,5.6-14.1c3.3-3.2,8-4.9,13.9-4.9c3.4,0,6.8,0.4,10,1.3c3.2,0.8,6.5,2.1,9.7,3.8V2.8
								c-3.2-1.4-6.5-2.4-9.9-3.1c-3.4-0.7-6.8-1.1-10.3-1.1c-8.7,0-15.6,2.5-20.7,7.6c-5.1,5.1-7.6,12-7.6,20.6
								c0,8.9,2.4,16,7.3,21.3c4.8,5.3,11.4,7.9,19.6,7.9c7.4,0,13.2-2.4,17.5-7.1C186.1,44.2,188.3,37.7,188.3,29.6z M179.3,32.2
								c-0.1,4.9-1.4,8.8-4.1,11.8c-2.7,2.9-6.2,4.4-10.7,4.4c-5,0-9-1.4-12-4.2c-3-2.8-4.7-6.8-5.2-12L179.3,32.2z"/>
						</g>
						<g>
							<path id="DejaVuSans-6e_00000059279347803384126210000003520522741941521582_" d="M248.5,33V0h-9v32.7c0,5.2-1,9-3,11.6
								c-2,2.6-5,3.9-9.1,3.9c-4.9,0-8.7-1.5-11.5-4.6c-2.8-3.1-4.2-7.3-4.2-12.6V0h-9v54.7h9v-8.5c2.2,3.3,4.7,5.8,7.6,7.4
								c2.9,1.6,6.3,2.4,10.1,2.4c6.3,0,11-1.9,14.2-5.8C246.9,46.3,248.5,40.6,248.5,33z"/>
						</g>
						<g>
							<path id="DejaVuSans-73_00000152961954398634731750000018172823733349959049_" d="M301.3,53.1v-8.5c-2.5,1.3-5.2,2.3-7.9,2.9
								c-2.7,0.7-5.6,1-8.5,1c-4.5,0-7.8-0.7-10-2c-2.2-1.4-3.3-3.4-3.3-6.2c0-2.1,0.8-3.7,2.4-4.9s4.8-2.3,9.6-3.4l3.1-0.7
								c6.4-1.4,10.9-3.3,13.6-5.8s4-6,4-10.4c0-5.1-2-9.1-6-12.1c-4-3-9.5-4.4-16.6-4.4c-2.9,0-6,0.3-9.2,0.9
								c-3.2,0.6-6.5,1.4-10,2.6v9.3c3.3-1.7,6.6-3,9.8-3.9c3.2-0.9,6.4-1.3,9.6-1.3c4.2,0,7.5,0.7,9.8,2.2c2.3,1.4,3.4,3.5,3.4,6.1
								c0,2.4-0.8,4.3-2.5,5.6c-1.6,1.3-5.2,2.6-10.8,3.8l-3.1,0.7c-5.6,1.2-9.6,3-12.1,5.4c-2.5,2.4-3.7,5.8-3.7,10
								c0,5.1,1.8,9.1,5.5,11.9c3.6,2.8,8.8,4.2,15.5,4.2c3.3,0,6.4-0.2,9.4-0.7C296.1,54.8,298.8,54.1,301.3,53.1z"/>
						</g>
						<g>
							<path id="DejaVuSans-69" d="M318.5,54.7h9V0h-9V54.7z M318.5,76h9V64.6h-9V76z"/>
						</g>
						<g>
							<path id="DejaVuSans-74_00000168082602801967309430000013177047017668259733_" d="M355.2,70.2V54.7h18.5v-7h-18.5V18
								c0-4.5,0.6-7.3,1.8-8.6s3.7-1.9,7.5-1.9h9.2V0h-9.2c-6.9,0-11.7,1.3-14.4,3.9c-2.6,2.6-4,7.3-4,14.1v29.7h-6.6v7h6.6v15.5
								H355.2z"/>
						</g>
						<g>
							<path id="DejaVuSans-79" d="M408.2-5.1c-2.5-6.5-5-10.8-7.4-12.7c-2.4-2-5.6-3-9.7-3H384v7.5h5.3c2.5,0,4.4,0.6,5.8,1.8
								c1.4,1.2,2.9,3.9,4.5,8.3l1.6,4.1l-22.1,53.8h9.5l17.1-42.8l17.1,42.8h9.5L408.2-5.1z"/>
						</g>
					</g>
				</g>
			</g>
			<g id="line2d_30">
				<g>
					<defs>
						<rect id="SVGID_1_" x="23.4" y="7.2" width="175.8" height="135.9"/>
					</defs>
					<clipPath id="SVGID_00000110439665346369343940000010166524413916913034_">
						<use xlink:href="#SVGID_1_"  style="overflow:visible;"/>
					</clipPath>
					
						<path style="clip-path:url(#SVGID_00000110439665346369343940000010166524413916913034_);fill:none;stroke:#FF9D00;stroke-width:0.5;stroke-linecap:square;stroke-linejoin:round;" d="
						M23.4,79.7l0.2-2.1l0.1,0l0.2,1.5l0.1-0.3l0.2,3.4l0.1-2l0.1,2.2l0.1-0.5l0.1-0.4l0.1,1.9l0.1-0.4l0.1-0.4l0.1,2.1l0.1-1
						l0.1,0.3l0.1,0.4l0.1-0.5l0.2,1l0.1-1.2l0.1,0.1l0.2,3.1l0.1-1.9l0.1,1.2l0.1-1.1l0.2,1.5l0.1-0.7l0.1,2.7l0.1-2.5l0.1,1.8
						l0.1-0.1l0.1-0.4l0.1,0.1l0.2,1.4l0.1-2.2l0.1,0.1l0.1,1.8l0.2-2.1l0.2,3.2l0.1-1.9l0.1,2.8l0.1-0.3l0.1-0.5l0.1-2.1l0.2,2.7
						l0.1-0.8l0.1,0.1l0.1,0.4l0.2-2l0.1,2.7l0.1-0.1l0.2-1.3l0.1,0l0.2,2.6l0.1-2l0.1,0.3l0.1,0.2l0.1,0.9l0.1-0.5l0.1,0.7l0.1-1.1
						l0.1,1.3l0.1-0.7l0.2,1.1l0.1-0.3l0.1,0.3l0.1-1.3l0.1,0.2l0.1,1.8l0.1-0.1L30,93l0.2-2.8l0.1,2.9l0.1-2.2l0.1,0.4l0.2,1.1
						l0.1-0.2l0.1-1.5l0.2,3.6l0.1-0.8l0.1,0.5l0.2-2.1l0.2,3.5l0.2-1.7l0.1,0.4l0.1-1.8l0.1,0.6l0.1,1.3l0.1-1.3l0.1,0.7l0.2-2.6
						l0.1,1.2l0.2-2.4l0.1,3.1l0.1-1l0.2,2.1l0.2-1.1l0.1-1.1l0.1,3.5l0.1-0.3l0.1-0.2l0.1,0.4l0.1-2.5l0.1,0.9l0.1,1.5l0.1-1.4
						l0.1,1l0.1-0.4l0.1,0.3l0.1-0.9l0.1,0.1l0.2,2l0.1-0.8l0.1-1.1l0.1,2.1l0.1,0l0.1,0l0.2-0.7l0.1-1.4l0.2,2.4l0.1,0.9l0.1-2.9
						l0.2,2.3l0.1-0.6l0.1,0.4l0.2-2.2l0.2,2.8l0.1-0.1l0.2-1.2l0.1-0.3l0.1,0.4l0.1-1.5l0.2,2l0.1-2l0.1,2.1l0.1-0.5l0.1,0.4
						l0.1-1.2l0.2,3l0.2-2.3l0.1,1.7l0.1-0.5l0.1-0.3l0.1-2.5l0.1,3.2l0.1-1.1l0.1,0.7l0.1-2.3l0.1,1l0.1,1.1l0.1-0.6l0.1,1.6
						l0.1-0.7l0.2-0.3l0.1,0.1l0.1,0.7l0.1-2l0.1,1.5l0.2-1.5l0.2,2.5l0.3-4.4l0.1-9.6l0.1,2.9l0.2,11.1l0.1-1.4l0.1,1.3l0.1-1.5
						l0.1,0.3l0.2-0.7l0.1,2.1l0.1-0.8l0.1-0.1l0.1,0.2l0.2-1l0.2,1l0.1-0.2l0.1-2.2l0.1-6.2l0.2,8.2l0.4,2.6l0.2-2.4l0.2,4.5
						l0.1-2.6l0.1,1.3l0.2-2.5l0.2,2.8l0.1,0l0.2-0.7l0.1,2.1l0.2-2L43,102l0.1-0.2l0.1-1.8l0.1,3l0.1-2.5l0.1,0.4l0.1,1.3l0.1-1.4
						l0.2,2.3l0.1-0.3l0.1-0.2l0.1-0.6l0.1,0.3l0.1-0.5l0.2,0.8l0.1,2.6l0.1-3.1l0.1,1.4l0.1-1.5l0.2,1.6l0.1-0.2l0.1,1l0.1-1.1
						l0.1,0.6l0.2-2.1l0.1,1.7l0.1-0.5l0.1,0.6l0.1-0.2l0.3-2.2l0.2,1.8l0.1-0.7l0.3,2.8l0.1-0.3l0.2,1.7l0.2-1.3l0.1,2.6l0.1-2.2
						l0.2,2.2l0.1,0l0.1-0.6l0.1,0.2l0.1-0.2l0.1-0.9l0.1,0.2l0.1,0.3l0.1,0.9l0.1-2.1l0.1,0.9l0.1-0.5l0.1,2.2l0.2-3.9l0.1,0.7
						l0.1,1.9l0.1-0.8l0.1,1.5l0.1-0.8l0.1,0.3l0.1,0l0.1,0.4l0.2-3.8l0.1,0.2l0.1-0.1l0.2,2.6l0.1,0l0.2,2.7l0.1-0.7l0.1,0.7
						l0.2-1.9L50,108l0.1-1.8l0.2,1.5l0.3-21l0.1-14.5l0.2,35L51,108l0.3-9.9l0.1,0.6l0.3,12.7l0.2-1.6l0.2,0.6l0.1-1.3l0.1,2
						l0.1-1.4l0.1,1.4l0.1-1.7l0.2,2l0.1-1.5l0.1,0.3l0.1,0l0.2-1.6l0.1,0.1l0.4-7.5l0.1-0.2l0.2,1l0.2,5.9l0.1-1.1l0.2,3.5l0.1-0.6
						l0.1,2l0.1-0.8l0.1,1.1l0.1-0.4l0.2-2.3l0.1,1.6l0.1-0.8l0.1,0.4L55,112l0.1-0.4l0.1,0l0.1,1.3l0.1-0.8l0.1,0.6l0.1-0.2l0.1-1
						l0.2,1l0.2-1.3l0.1,2l0.1-0.8l0.1-2.1l0.1,0.2l0.1,0.8l0.2-6.9l0.1,0.2l0.2,6.3l0.2,1.6l0.1-0.4l0.1,1.5l0.1-1.4l0.1,0.5
						l0.1,1.9l0.2-2.1l0.2,0.6l0.1-0.8l0.1,0.1l0.2,0.7l0.1-0.8l0.2,1.2l0.1-0.9l0.2,0.8l0.1-1l0.1,1.5l0.2-2l0.1,1.5l0.1-1.2
						l0.1,1.6l0.4-3l0.2,0.9l0.1-0.6l0.1,2.4l0.1-1.7l0.1,0.8l0.2-1l0.1,0.5l0.1,1.5l0.1-1.2l0.1,1.1l0.1-0.9l0.1,1.1l0.1-1.2l0.1,0
						l0.1-0.5l0.1,0l0.1,1.2l0.1-0.6l0.1,0.4l0.1-0.4l0.1-1.4l0.1,0.6l0.2-2.2l0.2,1.8l0.1-1.5l0.1,0.9l0.3-2.1l0.2,1.8l0.1-0.1
						l0.2-3.2l0.1-0.2l0.2,2.7l0.1,1.6l0.1-0.7l0.1,0.9l0.2-1l0.1,0.8l0.1-1.8l0.1,0.2l0.2-0.6l0.1-1.1l0.2-6.4l0.1-1.1l0.1,0.2
						l0.1,0.4l0.1-2l0.2,5.7l0.2,1.4l0.1,0.8l0.1,2.3L65,108l0.1,0.4l0.1,0.6l0.1-0.8l0.1,0.7l0.2-2.1l0.1,0.8l0.1-0.4l0.1-1.5
						l0.2,2.7l0.1,0.7l0.1-1.9l0.1,0.2l0.1,2.1l0.2-3.2l0.1,0.5l0.1-2l0.2-5.2l0.4,4.2l0.2-6.4l0.1,0.2l0.2,6.3l0.2,3.9l0.1-0.4
						l0.2,0.6l0.2-3.1l0.1,2.4l0.2-4.7l0.1-1.2l0.2-10l0.2,8.1l0.2-4l0.1,0.9l0.3-15.2l0.1,4l0.1,2.1l0.2,15.6l0.2,1.3l0.1-1.1
						l0.1,1.8l0.2-5.3l0.2,4.7l0.1,0.8l0.1-0.8l0.1,1l0.2-2.7l0.1,2l0.2-1.9l0.1-0.2l0.2,1.9l0.1-0.2l0.1,0.4l0.1,1.5l0.5-6.7l0.5,8
						l0.1-1.5l0.1,1.1l0.1-2.9l0.1,1.6l0.1-1l0.1,1.3l0.1-0.4l0.1,0.2l0.1-2.7l0.1,1.1l0.1,1.3l0.1-1.2l0.2,3.1l0.1-0.9l0.1-0.3
						l0.1-0.9l0.1,0.3l0.1,1.8l0.2-1.8l0.1,0.4l0.2-0.9l0.1,1.1l0.1-2.6l0.1,1.2l0.1-1.4l0.2,1.2l0.1-0.6l0.1,1l0.1-1.8l0.1,1
						l0.2-5.2l0.1,1.2l0.1-2.4l0.2,4l0.1-0.1l0.1,0.3l0.1-0.7l0.1,0l0.1,0.5l0.2-3.3l0.1,1.2l0.4,4.7l0.1-4.9l0.1,2l0.1-1.3l0.1,3.4
						l0.1-1l0.1-0.8l0.2-10.5l0.2,10.6l0.2,4.6l0.1-0.3l0.1,0l0.2,2.3l0.2-2.5l0.1,0.5l0.1,1.6l0.1,0l0.2,0.8l0.2-1l0.1,1.2l0.1-2.3
						l0.1,0.9l0.3-5.6l0.1,0.4l0.3,5.1l0.1-0.1l0.2,2.5l0.1-0.1l0.1-1.9l0.1,1.5l0.1-1.6l0.2-13l0.1,7.6l0.1-0.3l0.3,9.4l0.1-2.6
						l0.1,2.4l0.1-0.2l0.1,0.2l0.2,2.6l0.1-2l0.1,0.3l0.2-0.4l0.1,1.4l0.2-2.2l0.2,2.5l0.1-1.9l0.1,1.2l0.1-1.2l0.2,1.6l0.1-1.6
						l0.1,0.2l0.1-0.6l0.2-16.8l0.1,6.1l0.1-0.3l0.4,13.3l0.1-0.6l0.1,0.1l0.1,1.9l0.1,0l0.1-1l0.1,0.1l0.1,1l0.1-1.3l0.1,1.1
						l0.2-1.5l0.1,0.3l0.1,0.8l0.1-0.5l0.1,1.1l0.1-1.5l0.2,2.1l0.2,1.4l0.1-0.3l0.2,0l0.1-2l0.1,0.8l0.1,0.5l0.1-0.9l0.1,0.7l0.1-1
						l0.1,1.7l0.2-2.8l0.2,1.3l0.1,0l0.1,0.4l0.1-0.1l0.1-0.8l0.1,0.5l0.3-2.9l0.2-4.5l0.2,3.9l0.1-0.7l0.1,0.3l0.1,0.9l0.2-5.6
						l0.1-0.3l0.3-5.8l0.1,0.5l0.2,5.8l0.3,8.2l0.1-0.2l0.2,2.7l0.1-0.9l0.1,0.9l0.1-0.7l0.1,2.5l0.1-2.3l0.1,0.8l0.1,0.6l0.2-1.7
						l0.3,2.2l0.1-0.6l0.1,0l0.1,0.3l0.2-1.8l0.1,1.6l0.1-0.5l0.2-2.1l0.1,1.3l0.1-0.6l0.1,0.2l0.1,1.1l0.2-1.9l0.1-1.1l0.1,2
						l0.2-1.4l0.1-0.1l0.1-0.8l0.1,2.7l0.1-0.3l0.1,0.3l0.1-1l0.1,1l0.1-0.2l0.1,0.2l0.1-0.4l0.1,1.1l0.1-0.2l0.2,0.4l0.1-0.5
						l0.1-1.6l0.1,0.4l0.1,1.5l0.1-3.5l0.1,2.6l0.1-0.8l0.1,0.4l0.2-0.7l0.1,1.6l0.1-2.1l0.1,0.3l0.1,0l0.2-4.3l0.2,0.6l0.2-5.4
						l0.1,0.7l0.1,0.5l0.1,1.8l0.1-0.1l0.1-0.2l0.1,0l0.1,0.2l0.2,3.7l0.2,2.3l0.1-0.7l0.2,1.5l0.2-1L96,117l0.1,1.5l0.1-1l0.1,1.2
						l0.2-2.5l0.1,1.8l0.1-0.9l0.1,0.1l0.1,0l0.1,1.5l0.2-1.5l0.2,1.5l0.1,0l0.1-1.6l0.1,1.6l0.2-2l0.1,0.6l0.1-0.1l0.2-0.2l0.1-0.6
						l0.1,0.6l0.2-1.2l0.1,1.2l0.1-0.5l0.1,0.5l0.2-4.9l0.1-0.9l0.2-9.8l0.2,8.2l0.1-2l0.2,6.3l0.2,1.2l0.1,1.7l0.2-2.4l0.1,1.4
						l0.1-0.5l0.3-5.8l0.2-3.8l0.1,0.1l0.1,0l0.1-1.5l0.2,3.6l0.1-0.6l0.1,1.2l0.1-0.2l0.2-1.4l0.2,4l0.1,1.1l0.1-1.5l0.1,0.9
						l0.1-0.3l0.1-2.2l0.1-9.8l0.1-59.5l0.2,61.5l0.1-19.5l0.3,32.6l0.1-0.8l0.3-14.3l0.1-0.7l0.5,13.2l0.1-0.2l0.1-0.5l0.1,0.3
						l0.1,0.8l0.2,5.2l0.1,0.2l0.1,1.4l0.1-0.7l0.1,0.4l0.1-0.7l0.1,1.5l0.1-2.7l0.1,1.8l0.1-0.3l0.1-0.7l0.1,0.5l0.1-1.7l0.2,1.6
						l0.2-0.6l0.1,1.1l0.2-1.2l0.2-3.4l0.1,1.1l0.1-2.3l0.1,2.1l0.2-2l0.1-0.4l0.2,2.5l0.1-1.3l0.2,1l0.1-1.7l0.2,2.2l0.2-5.1
						l0.2-21l0.1,16.3l0.1-0.5l0.1-3.7l0.2,15.6l0.2-0.7l0.1,1.5l0.2-2.9l0.2,0.8l0.3-5.7l0.1-0.2l0.1-2.2l0.1,0.6l0.2,3.5l0.1,0.6
						l0.1-0.3l0.1,0.9l0.1-0.1l0.1-0.2l0.1-1.6l0.1,0.5l0.2-1.1l0.1-1.2l0.1,2.4l0.5-7.8l0.1-0.8l0.4,3.1l0.1,3l0.1-0.3l0.1,0.6
						l0.1-1l0.1,1.5l0.1-1.2l0.1,0.7l0.2-7.5l0.2,1l0.3,8.2l0.1-1.3l0.1,0.8l0.2-2l0.2,2.6l0.1,0.8l0.2,3.8l0.1,0l0.2-1.1l0.1,1.4
						l0.1-0.7l0.1,0.6l0.1-1.5l0.1,0.1l0.1,1.3l0.2-2.7l0.1,1.7l0.1-1l0.1,1.3l0.2-2.3l0.1,1.9l0.2-3.9l0.1-2.2l0.1,1.7l0.1-1.5
						l0.1,0.9l0.1-0.5l0.1,2.7l0.1-0.4l0.1-0.2l0.1-0.6l0.2-3.7l0.2,6.7l0.1,0.2l0.1-0.5l0.2,5l0.1-0.2l0.2,0.6l0.2,1l0.3-3.7
						l0.4,4.8l0.1-0.7l0.2-0.7l0.3,1.9l0.1,0.2l0.1-1.8l0.2,1l0.1-0.1l0.2-1l0.1-0.8l0.1,0.4l0.2,0.2l0.1-1.3l0.2,2.4l0.1-2.3
						l0.1,1.2l0.2-1.4l0.2,0.2l0.1,1.7l0.1-0.7l0.1-0.1l0.1-0.8l0.1,0.5l0.2-1.9l0.1,0.4l0.2-2.5l0.1-4.2l0.1,1.7l0.2,4.2l0.1-0.8
						l0.2,3.2l0.1-0.2l0.1,2.9l0.1-2l0.1,1.2l0.1-0.5l0.1-0.8l0.2,0.8l0.1-1.1l0.1,0.3l0.1,2.1l0.1-1.2l0.2,2l0.2-0.8l0.1,1.8
						l0.1-0.2l0.1-1.3l0.1,1l0.2-1.5l0.1,1l0.1-2.3l0.2,2.6l0.1-1.6l0.1,0.5l0.1-0.9l0.1,0.2l0.1,1.4l0.1-0.3l0.1-0.2l0.2,3.4
						l0.1-1.4l0.1,1l0.2-1.1l0.1,0.4l0.2-2.2l0.1,2.5l0.2-2.7l0.2,0.7l0.1,0l0.1-0.3l0.1,0.7l0.2-1.8l0.2,1.9l0.1,0l0.1,0.8l0.1-0.3
						l0.1-0.4l0.1,0.2l0.1,0.6l0.1-0.4l0.1-1l0.1,1l0.1-0.4l0.2,0l0.1,1.1l0.1-2.1l0.2,1.5l0.2-0.6l0.3,1.6l0.2-0.8l0.1,0l0.2,2.4
						l0.1,0.1l0.1-0.4l0.1,0.3l0.1-0.1l0.1,0.2l0.2-1.6l0.1,0.6l0.2-1.8l0.1,1.3l0.1-0.4l0.1,0.4l0.2,1.1l0.1,0.3l0.1-0.5l0.2,1.6
						l0.1-0.2l0.1-0.2l0.1,0.9l0.1-0.2l0.1,0.2l0.2-1.3l0.1,0.3l0.2-2l0.2,1.4l0.1,1.3l0.2-1.6l0.1-0.1l0.1,2.1l0.1-0.6l0.1-1.5
						l0.1,0.8l0.2-4.2l0.3,3.6l0.1-0.9l0.2,1.1l0.1,2l0.1-0.7l0.2-0.9l0.1,0.8l0.1-1.4l0.1,0.9l0.1-0.8l0.1,1.7l0.1-0.7l0.2,1
						l0.5-6.7l0.1,0.5l0.2,2.1l0.1-0.3l0.2,2.1l0.2,1.8l0.1,1.4l0.2-1.6l0.1,1.5l0.2-2.5l0.1,0.7l0.2-1.7l0.1,1.3l0.2-9.1l0.2,8.3
						l0.1-0.4l0.1-2.8l0.2,4.6l0.1-0.3l0.2,1.5l0.1-0.8l0.1,0.2l0.1-0.4l0.1,0.3l0.1-0.1l0.1,1.1l0.1-1.8l0.1,1.4l0.1-0.8l0.1,1
						l0.1-0.8l0.1,1.6l0.1-0.6l0.1-0.4l0.2,0.9l0.1-1.7l0.1,1.5l0.1-1l0.1,1l0.2-0.8l0.2-0.3l0.1-0.1l0.1-1.9l0.1,0.8l0.2-0.7
						l0.1,1.2l0.1-0.3l0.1,0.6l0.1-0.2l0.1-0.1l0.1,0.3l0.1-0.6l0.2,2l0.1-1.4l0.1,0.9l0.2-1.4l0.1-0.1l0.1,0.4l0.2-0.8l0.1-1.3
						l0.1,0.4l0.2,0.7l0.1,0.1l0.1-0.3l0.1,0.2l0.1-0.3l0.1,1.4l0.2-1.2l0.1,1.3l0.1-2.5l0.1,1.5l0.1-0.1l0.1,0.5l0.1-1.6l0.1,1.8
						l0.1-1.7l0.1,2l0.1-1.2l0.1,0.3l0.2,0.6l0.1-1.6l0.1,0.4l0.1,0.4l0.2-4.6l0.1,0.9l0.1,2.9l0.1-1l0.1,0.6l0.1-0.7l0.1,0.1
						l0.2,2.3l0.1,0.1l0.1,1l0.2-1.8l0.1,0.4l0.2,1.6l0.2-1.3l0.1,0.6l0.3-1.5l0.2,1.3l0.1-0.6l0.1,0.5l0.1-0.8l0.2,1.6l0.2-0.9
						l0.1,0.6l0.7-4.4l0.1-2.8l0.1,0.5l0.2,3.4l0.1-0.8l0.1-1l0.3,3.7l0.1-1.2l0.2,1.6l0.2-2l0.1-0.3l0.1,2.3l0.1-0.8l0.1,0.1
						l0.1-0.5l0.2,1.5l0.1-1.2l0.2,1.5l0.2-1.4l0.1,0l0.2-1.9l0.1,2.2l0.1-0.1l0.1,0l0.1,1l0.1-1.4l0.2,2.5l0.1-0.1l0.1-1.4l0.1,2.1
						l0.1-0.9l0.1-0.1l0.1,0.9l0.1-1.9l0.1,0.9l0.1-0.9l0.1,0.3l0.1,0.6l0.2-0.8l0.1,0.2l0.1,0.9l0.1,0l0.3-1.2l0.1,0.1l0.1,1
						l0.1-0.6l0.1,0.2l0.1-0.3l0.1,0.7l0.1-1.2l0.1,2.3l0.1-0.4l0.1-0.2l0.1-0.7l0.2,1.1l0.1-0.6l0.1,0.6l0.1-0.8l0.1,0.2l0.3,0.7
						l0.3-3l0.1,0.6l0.2-0.7l0.2,3l0.2-1.1l0.2,1.8l0.1-0.1l0.1-0.2l0.1,0.2l0.1-0.2l0.1,1.5l0.1-0.5l0.1,0.1l0.2-0.6l0.1,0.4l0.1-1
						l0.1,0.4l0.1-0.5l0.1,1.5l0.1-0.6l0.1-2l0.1,1.7l0.1-0.9l0.1,1l0.1-0.3l0.2,0.8l0.1-1.4l0.2,2l0.1-1.7l0.2,1.3l0.2,0.5l0.1-1
						l0.1,0.4l0.1-0.2l0.1-1.5l0.1,0.2l0.2,1.3l0.1-0.3l0.1,0l0.2,1.6l0.1-1l0.1,0.3l0.1,0.4l0.1-0.9l0.1,0.5l0.1-0.3l0.2,1.2
						l0.1-0.8l0.1,1l0.1-1.9l0.1,2.2l0.2-1.9l0.1,0.3l0.2-1l0.1,0.4l0.2-0.7l0.2-0.2l0.4,1.2l0.1-0.4l0.2,1.7l0.1-1.1l0.1,0.5
						l0.1,0.2l0.1,0l0.2-0.8l0.2,2.2l0.2-4.2l0.2,1.6l0.1-1l0.1,1.3l0.1-0.5l0.1,0.7l0.1-1l0.2,1.5l0.1-0.5l0.2,1.1l0.1,1.2l0.1-0.5
						l0.1-1.2l0.2,1.6l0.1,0.2l0.1-0.7l0.1,0.4l0.1-0.4l0.1,0.6l0.1-0.2l0.2,0.8l0.1-0.4l0.1-1.1l0.1,1l0.2-1.2l0.1,0.9l0.1-0.3
						l0.2-0.5l0.2,0.9l0.1-0.5l0.1,0.7l0.1-0.1l0.2-1.4l0.2,1l0.1,0l0.1-1l0.1,0.1l0.1,1.5l0.1-0.4l0.1-1.2l0.1,0.5l0.1-0.2l0.2,1.2
						l0.1-0.3l0.1,0.1l0.1-0.1l0.2,0.6l0.1,0.1l0.1-0.2l0.1-0.8l0.1-2.8l0.2,2.9l0.1-0.3l0.1,0.6l0.1-0.4l0.1-0.9l0.2,1.4l0.1,0.3
						l0.1-0.8l0.1,1l0.2-1.7l0.2,1.8l0.1-0.9l0.1,0.1l0.2-0.2l0.1,0.3l0.1-0.4l0.1,0.6l0.1-0.1l0.1,0l0.1,1.1l0.2-0.7l0.2,0.8
						l0.1-0.5l0.1,0.2l0.1-0.6l0.1,0.1l0.2,1.1l0.1-1.1l0.1,0.8l0.1-0.3l0.2-1.4l0.1,0.4l0.1-1.2l0.1,1.4l0.2-1.2l0.2,0.4l0.1,0.4
						l0.2-1.4l0.1,1.3l0.1-0.4l0.1-0.9l0.2,1.8l0.1-0.2l0.2-1l0.2,0.9l0.1-0.1l0.1,0.2l0.2,1h0.1l0.1,0.7l0.2-0.6l0.2,1.7l0.1-1.7
						l0.1,1l0.2-0.7l0.1,0.3l0.1-0.6l0.1,0.5l0.1-0.1l0.1-0.4l0.2,0.6l0.1-0.6l0.1,0.6l0.1-0.7l0.1,1.3l0.1-1.3l0.1,0.4l0.2,0.8
						l0.2-0.6l0.2,0.7l0.1-0.4l0.1-1.1l0.1,0.4l0.1-0.4l0.2,1.3l0.1-1l0.1,1.3l0.1-0.9l0.1,0.2l0.1-0.1l0.1,0.3l0.1-0.3l0.1,0.9
						l0.1-0.3l0.1-0.4l0.2,0.4l0.1-0.2l0.1,0.4l0.2-1.5l0.1,1.3l0.2-1l0.1,0.5l0.2-1.3l0.1,0.8l0.1-1.3l0.2,2.1l0.1-1.6l0.1,1.8
						l0.1-0.7l0.1,0.8l0.2-1.5l0.1,0.5l0.1,0.8l0.2-1.2l0.2,1.1l0.1-0.1l0.1-0.6l0.2,1.2l0.2-1.1l0.2,0.8l0.2-0.3l0.2,0.4l0.1-0.1
						l0.1-0.9l0.1,1.2l0.1-0.6l0.1,0.4l0.1-0.6l0.1,0.5l0.1-0.3l0.1,0l0.1,0l0.1-0.2l0.1-1l0.1,1.6l0.1-0.6l0.1,0.2l0.1-0.2l0.1,1.2
						l0.2-2.6l0.2,1.6l0.1-0.7l0.1,0.2l0.2,0.6l0.1-0.8l0.1,0.2l0.1-0.2l0.1,0.4l0.1-0.5l0.2,1l0.1,0.1l0.1-0.8l0.1,0.1l0.2-0.6
						l0.2,1.3l0.2-1.6l0.1,0.1l0.1-1.5l0.2,2.2l0.1,0.2l0.1-1l0.1,0.2l0.1,1.6l0.1-0.6l0.1,0.6l0.2-0.4l0.1,0.1l0.1,0.3l0.1-0.2
						l0.1,0.2l0.1-1.1l0.1,1.1l0.1-0.2l0.2-0.5l0.1,0.5l0.1-0.3l0.1,1l0.1-0.4l0.2-0.8l0.1,0.7l0.1-0.5l0.1,0.2l0.1,0.9l0.2-1.1
						l0.1,0.4l0.1,0l0.2-0.2l0.2,1l0.3-1.3l0.1,0.8l0.2-1.7l0.1-0.1l0.1-0.4l0.1,0.1l0.2,0.8l0.1-0.2l0.2-0.8l0.2,1.8l0.5-1.3
						l0.2-4.2l0.1,3.9l0.1,0l0.1,1l0.1-0.3l0.2-3.1l0.3,3.6l0.2-1.2l0.1,0l0.1-0.3l0.1,0.3l0.2-0.5l0.1,0.6l0.1-1.2l0.1,0.3l0.2-0.2
						l0.1,0.2l0.1-0.3l0.1,0.2l0.1-0.8l0.1,0.7l0.1-0.1l0.2-1.9l0.1,1l0.1-0.4l0.1-0.5l0.1,1.3l0.1-0.4l0.2-1.5l0.1-0.3l0.1,0.9
						l0.1-1.1l0.1,0.3l0.2-1.2l0.1,0.7l0.1-1l0.1,0.4l0.1,0.3l0.1-0.3l0.1-1.3l0.2,1.4l0.1-1.3l0.1,1l0.1-1l0.1,0.9l0.1-1l0.1,0.4
						l0.2,1.5l0.1-0.1l0.2-0.9l0.2,1.5l0.2-1.4l0.2,1.8l0.2-1l0.2,0.8l0.2,0.3l0.1-0.3l0.1,0.6l0.2-0.9l0.1,0.8l0.1-0.2l0.1,0.1
						l0.2,1l0.1-1.5l0.1,1l0.1-0.4l0.1-0.3l0.1,1.5l0.1-0.2l0.1-0.1l0.1-0.7l0.1,0.9l0.1-0.2l0.1-0.6l0.2,1.3l0.1,0l0.1-0.3l0.2,1.1
						l0.2-0.8l0.1,1.1l0.1-1.1l0.1,1l0.1-0.9l0.2,2l0.1-2.1l0.1,0.9l0.2,1.2l0.1-1l0.2,1.4l0.1-0.2l0.2,0.2l0.1-0.5l0.2,1.2l0.1-1.4
						l0.1,1l0.1-0.3l0.1-0.3l0.1,1.9l0.1-0.7l0.1,0.2l0.2-0.8l0.1,0.6l0.1-0.1l0.2-2.2l0.4,2.1l0.1-1.7l0.2,2l0.2-0.5l0.2,0.3
						l0.1,0.1l0.1-0.3l0.1,0.6l0.2-0.5l0.2,0.8l0.1-0.6l0.1,0.9l0.1-1.3l0.1,0.4l0.1-0.4l0.2,0.8l0.1-0.9l0.1,1.2l0.1-1l0.2,1.9
						l0.2-1l0.1-0.2l0.2,0.8l0.1-0.8l0.1,0.8l0.1-1.7l0.1,1.4l0.1-0.1l0.1,0.6l0.1,0l0.1-0.4l0.2,0.6l0.1-0.6l0.1,0l0.1-0.2l0.1,1.2
						l0.2-1.5l0.2,1.2l0.1,0.1l0.2-1.3l0.1,0.7l0,0"/>
				</g>
			</g>
			<g id="line2d_31">
				<g>
					<defs>
						<rect id="SVGID_00000059285412255966752020000012291346011609591989_" x="23.4" y="7.2" width="175.8" height="135.9"/>
					</defs>
					<clipPath id="SVGID_00000064331632374214883660000006125219337937516979_">
						<use xlink:href="#SVGID_00000059285412255966752020000012291346011609591989_"  style="overflow:visible;"/>
					</clipPath>
					
						<path style="clip-path:url(#SVGID_00000064331632374214883660000006125219337937516979_);fill:none;stroke:#E63940;stroke-width:0.5;stroke-linecap:square;stroke-linejoin:round;" d="
						M23.4,80.1l0.1-1.2l0.1,2.1l0.1-0.9l0.2,1.1l0.2-2l0.2,3.1l0.1-0.2l0.2,0.9l0.2-0.4l0.1,2.5l0.1-0.7l0.1-0.2l0.2,1.1l0.1-0.9
						L25,82l0.1,3l0.1,0l0.2-1.3l0.1,1.8l0.1-1.6l0.2,2.4l0.1-0.3l0.1,0.7l0.2-2.3l0.1,2.3l0.2-3l0.1,4.4l0.1-1.2l0.1,0.4l0.2-1.3
						l0.1,2.9l0.2-1.8l0.1,0.3l0.1-1.9l0.1,3.3l0.1-0.5l0.2-1l0.1-0.1l0.1,0.6l0.1-0.2l0.1-2.2l0.2,4.5l0.2-1.7l0.2-1l0.1,1.5
						l0.1-0.4l0.1-1.5l0.2,3l0.2-2.9l0.2,3.6l0.1-4.2l0.1,2.3l0.1-0.4l0.1,0.5l0.1-1.1l0.1,0.2l0.2,3.4l0.1-2.8l0.1,0.6l0.2-1.7
						l0.2,2.5l0.2-2.7l0.2,1.8l0.1-0.9l0.1,3.2l0.2-2.1l0.2,3l0.2-2.2l0.1,1l0.1-1.3l0.1,1.5l0.1-0.6l0.1-0.9l0.1,1l0.1-1.2l0.2,1.7
						l0.1-1.8l0.1,2.9l0.1-2.8l0.1,0.8l0.3,2.3l0.1-0.7l0.1,0.7l0.1-2.2l0.1,3l0.2-3.2l0.2,2.1l0.2-1.6l0.1,2.1l0.1-0.8l0.1-2.1
						l0.2,3.4l0.1-0.6l0.1-1l0.2,0.9l0.2-1l0.1,1l0.1-1.9l0.1,1.7l0.1-1.6l0.2,2.4l0.1-3.5L35,95l0.2-1.4l0.1-0.4l0.1,0.3l0.3-1.1
						l0.2,2.9l0.1-1l0.1,1.3l0.1-2l0.1,0.5l0.1-1.3l0.1,0.5l0.1,0.8l0.2-0.8l0.1,1.1l0.1-1l0.1,2.3l0.1-0.7l0.1-1.7l0.1,2.9L37,95
						l0.1,0.7l0.1-1.6l0.1,1.8l0.1-2.2l0.1,1.1l0.1-1.2l0.2,2.1l0.2-2.2l0.1,2l0.2-1.6l0.1,2.5l0.1-0.6l0.1,1.1l0.1-1.5l0.1,0.5
						l0.1,0.8l0.1-2.1l0.1,2.4l0.1-1.4l0.1,0l0.1,0l0.1-0.9l0.2,2.6l0.1-1.5l0.1,0.7l0.1-0.9l0.1,1.2l0.1-0.5l0.1,0.9l0.1-1.4l0.1,1
						l0.1-0.6L40,97l0.1-0.4l0.2,0.3l0.1-1.8l0.2,1.3l0.1-0.8l0.1,3.4l0.1-1.4l0.1-2.6l0.2,2.1l0.1-0.1l0.1,0.7l0.1-0.5l0.1,0.3
						l0.2,1.4l0.1-0.1l0.2,1.6l0.1-1l0.1-2.7l0.2,3l0.1-2.5l0.1,2.4l0.1-0.9l0.1,1.2l0.1-1.2l0.3,2.8l0.1-1.7l0.1,0l0.1-0.9l0.1,0.2
						l0.1,1.7l0.1-0.8l0.1,0.5l0.1-1.2l0.2,3.3l0.1-2l0.1,0.3l0.2,2.3l0.1-1.7l0.1,1.7l0.1-0.2l0.2-1.3l0.2,2.1l0.1,0.2l0.2-1.8
						l0.2,2.3l0.2-2.7L45,105l0.1-1.5l0.1,0.3l0.1-0.1l0.1,1.3l0.1-0.1l0.1-0.4l0.1-1.1l0.1,0.7l0.1-0.4l0.1,0.8l0.2-1.3l0.2,2.1
						l0.1-1.4l0.2,2.9l0.1-0.4l0.2-1.2l0.1,0.3l0.1-0.5l0.1,1.7l0.1-0.4l0.1-0.6l0.1,0.7l0.1-1.2l0.2,1.7l0.1-0.2l0.2,0.7l0.2-1.3
						l0.2-0.4l0.2-3.9l0.1,0.5l0.2-5l0.2,10.1l0.2-0.8l0.2,1.8l0.1-0.4l0.2-1.3l0.2-1.2l0.2-1.9l0.2,0.8l0.2,4.7l0.1-1.2l0.1,1.2
						l0.2-2.1l0.2-2.6l0.2-10.9l0.4,15.8l0.1-0.4l0.1,1.2l0.1-1.9l0.1,1.2l0.1,0l0.1-0.8l0.2,1.8l0.1,0.7l0.1,1.8l0.2-1.7l0.1,0.2
						l0.1,0.2l0.1-0.4l0.2,1.6l0.1-3l0.1,1.3l0.1,0.2l0.1-1.1l0.1,2.5l0.1-2.1l0.1,0.6l0.1,0.4l0.2-3.8l0.1,0.8l0.3-14.1l0.1-0.7
						l0.3,17.6l0.1-0.3l0.2,2l0.1-1.4l0.2,1.5l0.1-0.3l0.1,0.2l0.1-0.1l0.1-0.8l0.2,2.7l0.2-2l0.2,0.6l0.2-1l0.2,1.6l0.1-0.9
						l0.1-2.2l0.1,3l0.1-0.6l0.2-0.6l0.2,1.9l0.2-1.8l0.1,0.8l0.2-1.6l0.2,1.6l0.2,0.2l0.1-1.2l0.1,1.2l0.1-1.6l0.1,0.7l0.1,0.8
						l0.1-0.3l0.1-0.6l0.1,1.1l0.1-0.4l0.1,0.6l0.1-2.5l0.2,2.3l0.1-0.4l0.1,1l0.1-2.1l0.1,0.1l0.1-0.5l0.1,1.6l0.1-0.9l0.1,1.1
						l0.1-1.3l0.1,0.3l0.3,0.9l0.1-1.4l0.1,1.1l0.1-0.1l0.2-1.5l0.1,0.9l0.2-1.6l0.1,2.8l0.1-2.2l0.1,1.8l0.1-0.4l0.2-1.5l0.1,1.6
						l0.1-0.2l0.1,0.8l0.1-1.6l0.1,1.5l0.1-0.4l0.1-0.9l0.1,1.2l0.2-2.5l0.2,2.5l0.2-0.1l0.2-2l0.1,1.3l0.2-1.9l0.2,1.9l0.2-2.4
						l0.1,1.1l0.1-1.5l0.1,1.6l0.1-2.6l0.1,0.8l0.2,1.5l0.1-1.1l0.1,0.1l0.1,1.6l0.1-0.2l0.2-0.1l0.1-0.1l0.1,0.2l0.1,0l0.1-0.6
						l0.1,0.5l0.2-1.7L64,111l0.1-2.6l0.1,0.7l0.1,1.2l0.2-1.8l0.1,0.7l0.1,1.7l0.1-2.1l0.1,0.6l0.1,1.7l0.2-1.7l0.1,0.4l0.2-0.6
						l0.2,0.5l0.3-7.4l0.2-2.2l0.3,7.4l0.2-0.5l0.1,0.2l0.1-3.3l0.1,0.2l0.1-1l0.1,0.5l0.2-4l0.1,0.5l0.2-12.7l0.2-15L67.4,87
						l0.2,18.6l0.2,2.2l0.1,0.3l0.1-1l0.1,0l0.1,0.1l0.1-1.5l0.1,0.8l0.5-6.1l0.3-13.9l0.1-5.1l0.3-68.1l0.1,3.4l0.3,82.4l0.2,4.4
						l0.2,1.4l0.2,1l0.1,0.6l0.2-1.4l0.1,2.2l0.1-0.8l0.1,0.4l0.1-1l0.1,0l0.1,1.6l0.1-1.5l0.1,0.1l0.1-0.2l0.2,1l0.1-1.1l0.1,1.9
						l0.2-1.8l0.2-0.3l0.2,1.2l0.1-1.7l0.1,0.4l0.1,0.1l0.1,0.4l0.1-0.2l0.1,0.7l0.1-0.3l0.1,0.5l0.1-1.5l0.1,1.1l0.1-0.9l0.1,2.2
						l0.1-0.4l0.2-2l0.1,0.3l0.1,1.8l0.2-1.6l0.2,1.6l0.1-0.5l0.2,0.7l0.1-0.9l0.1,0.6l0.2-1.4l0.2,2l0.1-2.5l0.1,0.3l0.2,2l0.2-1.3
						l0.1,0.3l0.1-0.5l0.1,0.2l0.1,0.5l0.1-1.9l0.1,0.1l0.1,1.2l0.2-1.5l0.1,0.1l0.2,1.3l0.1-2l0.2,2.5l0.1-1.9l0.1,1.8l0.1-0.4
						l0.2-0.4l0.1-0.7l0.1,0.3l0.5,1.8l0.1,0.9l0.2-3.1l0.1,2.7l0.2-2.3l0.1,1.5l0.1-0.1l0.1-0.9l0.2,2.7l0.1-2.1l0.1,0.8l0.1,0.3
						l0.1,2.2l0.2-2.4l0.1,1.8l0.1-0.6l0.2-1.5l0.1,2.9l0.1-1l0.1-0.3l0.3-6.8l0.1-1.5l0.2,1.8l0.2,5.9l0.1-0.2l0.1,2.5l0.1-0.4
						l0.1-1.4l0.2,2.8l0.1-1.9l0.1,1.4l0.1-1.2l0.4,2.3l0.1-0.9l0.1,2.4l0.1-1.1l0.1,0.1l0.2-1.3l0.2,2.7l0.1-1.8l0.1,0.7l0.2-1.2
						l0.1,1.9l0.1-0.9l0.2,1.6l0.1,0l0.2-2.3l0.1,1.3l0.3-6.5L83.3,95l0.1,0.1l0.5,19.6l0.1-0.5l0.1,1.2l0.1-0.7l0.1,0.9l0.1-0.7
						l0.1,0.9l0.1-0.3l0.1-1l0.2,0.9l0.1-1.7l0.1,0.1l0.4,2.9l0.1,0l0.2-1.7l0.1,2.2l0.1-0.5l0.1-0.5l0.1,0.3l0.2-1.4l0.1,0.9
						l0.1-0.7l0.1,0.3l0.1,0.4l0.1-1.1l0.1,0.9l0.1-0.6l0.2,2l0.2-0.6l0.2,0.7l0.2-2.4l0.2,1.3l0.1,0.4l0.1-1.5l0.1,2l0.5-8.6
						l0.2-9.8l0.2-6.6l0.2,10l0.4,14.2l0.1-1.4l0.1,1.8l0.1-0.6l0.2,0.6l0.1-0.8l0.1,0.5l0.1,1.5l0.1-1l0.1,0.3l0.1-0.5l0.1,0.7
						l0.1-0.7l0.1,0.9l0.1-0.6l0.1,0l0.1,0.3l0.1-0.6l0.1,1.1l0.1-1.5l0.1,0.9l0.1-1.3l0.1,0.3l0.2,0l0.1-0.4l0.1,0.3l0.1-1l0.1,0.4
						l0.1-0.4l0.2,1.4l0.1-0.1l0.2,0.7l0.1-0.8l0.2,2l0.1-1l0.1,0.2l0.1,0l0.1-1l0.1,0.9l0.1-0.4l0.1,0.2l0.1-0.2l0.1-0.5l0.2-2.4
						l0.1,0.9l0.2-2.6l0.1-1.9l0.4,6.7l0.2-0.9l0.5-8l0.1,0.8l0.3,5.3l0.2,2l0.1-1l0.2,1.7l0.1-0.4l0.2-0.1l0.2-0.8l0.2,1.9l0.1-0.3
						l0.1,0.4l0.1-1l0.1,1l0.1-1.7l0.1,0.2l0.1,0.5l0.1,1.4l0.1-0.3l0.1-0.5l0.1,1l0.2-1.7l0.2,2.5l0.1-1.7l0.1,0.2l0.1,0.8l0.2-1.4
						l0.2,1.1l0.2-0.9l0.1,0.3l0.1-0.3l0.2,1.2l0.2-1.6l0.1,0.4l0.1-2.1l0.1,0l0.2-0.2l0.1,0.4l0.1-0.5l0.5-6.5l0.1,0.1l0.2,1.5
						l0.2,0l0.1-0.1l0.1,3.6l0.1-1.1l0.2,3.8l0.1-1.3l0.1,0.3l0.2-1.4l0.2-8.4l0.2-9.2l0.1-1.2l0.2,12.4l0.2,6.1l0.2-1.6l0.1,1.6
						l0.2-3.3l0.1,0.3l0.1,1.3l0.1-2.2l0.1,1.1l0.2-1l0.1,2.1l0.1-0.9l0.1,1.8l0.1-0.6l0.2,1.8l0.2-2.3l0.2-14.7l0.2-41.7l0.2-18.9
						l0.5,71.9l0.2,6.6l0.2,1.9l0.1-1.3l0.1,2l0.1-0.6l0.1,0.3l0.1-0.2l0.2,1.6l0.1-0.4l0.2-2.5l0.1,1.2l0.1,0.7l0.2-1.5l0.2,2.5
						l0.1,0.3l0.2-1.8l0.1,0.1l0.1-0.9l0.1,0.9l0.2-1.2l0.1-0.1l0.1-1l0.1,1.1l0.1-1.2l0.2,1.9l0.1-0.4l0.1,1.2l0.1-0.4l0.1,0.2
						l0.1-1l0.1-2.5l0.1,0.3l0.1-0.7l0.2,1.1l0.1-0.6l0.2,2.2l0.2,0.7l0.1-0.3l0.1,1.2l0.2-2.6l0.1,0l0.2-7.8l0.3-18.7l0.1,1.4
						l0.2,11.3l0.1,0.6l0.2,11l0.1-1.2l0.2,2.2l0.1-2.7l0.1,1l0.5-6.6l0.1,0.5l0.1,1.5l0.1-0.6l0.1-0.2l0.1,0.2l0.2,3l0.1-0.1
						l0.2-0.4l0.4-12.2l0.2-11.6l0.6,24.2l0.2-0.2l0.1,1.5l0.1-0.6l0.1,0.2l0.1-0.4l0.2,2.9l0.1-0.7l0.1,0.2l0.1,0.4l0.4-1.3
						l0.1,0.3l0.1-1.3l0.2,2.1l0.1-0.9l0.1,0.6l0.1-1l0.1,1.9l0.1-0.7l0.2,1.5l0.1-0.7l0.1,0.5l0.1-0.3l0.1,0.1l0.1,0l0.2,0.2
						l0.2,2.4l0.1-2.7l0.1,1.6l0.1-0.4l0.3,2.4l0.1-1.2l0.1,0.2l0.1,0l0.1,1l0.1-0.4l0.2,1.5l0.1-0.5l0.2,0.7l0.1-0.1l0.2,0l0.1,0.3
						l0.1-0.7l0.1,0.3l0.1-0.1l0.2,1.1l0.1-0.6l0.1,0.4l0.1-0.6l0.2,1.6l0.1-1.5l0.1,0.5l0.1-1.3l0.2,1.8l0.2-1.1l0.1-0.1l0.1,0.1
						l0.2,2.1l0.2-1.9l0.1,1.1l0.1-0.9l0.1,0.2l0.2-0.7l0.1,0.1l0.1,1.9l0.2-3.4l0.2-1.4l0.2-6l0.1,0.1l0.3,4.3l0.2,3.8l0.2,2
						l0.1-1.6l0.1,0.2l0.2-0.2l0.2-2.5l0.1-0.2l0.1,0.7l0.1,1.9l0.1-1.4l0.2,2.2l0.1,0.2l0.1-0.2l0.1,1.5l0.1-0.8l0.1,0.1l0.1-0.2
						l0.1-1.1l0.1,1.4l0.1-0.7l0.1,0.3l0.3-4.6l0.1-0.3l0.2-2l0.2,3.2l0.1-0.8l0.2,6l0.1-0.9l0.1,1.7l0.1-0.4l0.3-0.2l0.2,0.4l0.5-9
						l0.2-3.8l0.4,8.4l0.3,4.3l0.1-0.7l0.1,0.5l0.1,1.5l0.1-0.9l0.1,0.3l0.1,0.7l0.1-2.3l0.1,1.2l0.1-0.7l0.2,2.1l0.2-2.1l0.1-0.3
						l0.1-0.8l0.1,0.4l0.1-0.5l0.2,0.9l0.1,0.3l0.3,2.9l0.1-1.6l0.1,0.2l0.2,1.3l0.1-2.1l0.1,0.9l0.3-2.2l0.1,0l0.1,1.3l0.1-0.7
						l0.2,2.7l0.1-0.3l0.1,0.7l0.1-0.8l0.1,1.4l0.1-0.8l0.1,0.9l0.1-0.5l0.1,0.6l0.2-1.6l0.1,0.2l0.2,1.3l0.1-1.9l0.1,0.6l0.1,0.5
						l0.2-2.8L130,112l0.1,1l0.5,11.3l0.1,0.1l0.2,2.5l0.1-1l0.1,0.2l0.1-0.1l0.1,0.8l0.1-0.8l0.2,1.9l0.1-0.6l0.1-0.8l0.2,0.9
						l0.1-1.5l0.1,0.8l0.3-4.5l0.1-0.5l0.2,1l0.1-0.2l0.1,0.3l0.2,3.1l0.1,0.1l0.1-0.6l0.1,1.9l0.2-2.5l0.1-0.4l0.1-2l0.2,1.3
						l0.1-0.1l0.1,1.6l0.1-1.4l0.2,1.8l0.2,0.6l0.1-0.4l0.2,1.9l0.1-1.8l0.1,1.1l0.1-0.4l0.1-0.3l0.2,0.9l0.1,0.5l0.1-0.9l0.1,0.7
						l0.1-0.6l0.1,0.7l0.1-0.7l0.1,0.2l0.1,0.6l0.1-0.6l0.2,1.6l0.2-1.7l0.1,0.1l0.1-0.7l0.1,1.3l0.1-0.3l0.1,0.8l0.3-3l0.1,0.4
						l0.1-0.2l0.4-11.8l0.5,8.5l0.2,3.3l0.1,0.2l0.2-0.2l0.2,1.2l0.1-0.5l0.1,0.3l0.1-0.5l0.2-3.4l0.1-1l0.1-2.7l0.1,1.1l0.1-0.4
						l0.5,6.7l0.1-1.2l0.2,1.8l0.1-1.3l0.1,0.5l0.2-1.6l0.1-2.1l0.2,2.3l0.2-0.3l0.1,0.4l0.1-2.5l0.1,0.3l0.1-0.2l0.2-4.6l0.4,3.2
						l0.2-3h0.1l0.1,1.5l0.1-0.7l0.1,1l0.1-2.5l0.1,0.3l0.2,1.8l0.1,2.6l0.1-0.3l0.1-0.3l0.2,4.4l0.1-1.1l0.1,0l0.1,1.1l0.1-0.4
						l0.1-1l0.1,0.1l0.2,1l0.2-0.4l0.1-1.7l0.1,1.9l0.1-0.2l0.1-0.2l0.1,0.2l0.2-2.5l0.1,0.5l0.3-3.2l0.1,0l0.2,2.1l0.1-0.9l0.4,4.8
						l0.2-1.5l0.2,1.6l0.1-0.6l0.2,1.1l0.2-1.8l0.2,1.7l0.2-1.4l0.1,0.4l0.2-2.6l0.1,0.3l0.1,0.7l0.1-0.5l0.1,0.3l0.1,1l0.1-0.4
						l0.2,2.1l0.1-0.4l0.2-0.6l0.1,0.1l0.1,1l0.1-1.2l0.2,2l0.1,0.3l0.1-2.1l0.2,1.9l0.1-1.1l0.2,0.9l0.1-0.2l0.2,1.2l0.1-0.6
						l0.1,0.8l0.1-0.4l0.1-1.1l0.2,1.9l0.2-1.6l0.1,0.4l0.1-0.6l0.1,0.3l0.1-1.9l0.1,0.8l0.3-2.2l0.2,2l0.1-0.4l0.1,0.3l0.2,1.2
						l0.5-3.8l0.3,3.3l0.2-0.6l0.1,2.4l0.1,0l0.3,0.9l0.2-0.1l0.1-0.5l0.1,1.3l0.1-1.4l0.1,0.8l0.1-1.3l0.2,2.1l0.1-1.1l0.1,0.1
						l0.1,0.2l0.2-1.6l0.1,1.8l0.1-0.7l0.1-0.6l0.1,1.2l0.1-0.3l0.2,0.9l0.1-1l0.1,0.2l0.1,0.7l0.2-1.7l0.2,1.8l0.2-1.3l0.2,1.7
						l0.1-0.4h0.1l0.1-0.8l0.2,1.1l0.2-0.6l0.1,1.2l0.1-1.4l0.1,1.3l0.1-1l0.1,0.5l0.1-1.3l0.1,0.9l0.3-5.1l0.1-0.3l0.1,0l0.2,2.6
						l0.1,0.1l0.1-0.2l0.2,2.4l0.1-0.5l0.2,2.1l0.1-1.1l0.1,1.2l0.1-1.4l0.1,0.9l0.1-0.3l0.1-1.6l0.2,2.2l0.1-0.9l0.1,0.9l0.1-0.2
						l0.1,0.4l0.1-0.5l0.1,0.2l0.2-0.3l0.2,0.8l0.1-1l0.1,0.1l0.2-0.1l0.1-1.7l0.1,1.4l0.1-2.5l0.1,0.7l0.2,0.9l0.1-0.6l0.2,1.2
						l0.1-0.1l0.1,1.5l0.1-0.1l0.2,0.9l0.1-1l0.1,1.9l0.1-0.7l0.1-0.1l0.1-0.5l0.1,0.4l0.2-0.9l0.1,0.1l0.1-0.5l0.1,0.8l0.2-1.6
						l0.1,0.2l0.1,0.3l0.1-0.8l0.2,1.4l0.5-3.4l0.3-2.5l0.3,2.9l0.1-0.8l0.1,0.2l0.1,2.7l0.1-0.8l0.2,1.4l0.1,0.2l0.1,1l0.2-0.7
						l0.1,0.2l0.1-0.2l0.1-1l0.1,0l0.1-0.2l0.1,0.5l0.1-0.3l0.1,0.1l0.1,0.3l0.1-0.3l0.1,0.5l0.2-0.6l0.2,1.5l0.2,0.2l0.1-1.1
						l0.1,1.1l0.2-1.4l0.1,0.6l0.2-0.5l0.1,0.7l0.2-1l0.2,0.6l0.1-0.1l0.2,1l0.1-0.8l0.2,1.2l0.2-0.8l0.1,1.4l0.1-0.1l0.1,0.6
						l0.2-0.9l0.1,0.8l0.1-0.1l0.1-0.1l0.1-0.8l0.1,0.7l0.1-1.2l0.1,0.1l0.1,0.8l0.1-0.2l0.2-2l0.4-1.4l0.1,1.3l0.1,0l0.2-0.7
						l0.1-1.2l0.3,3.2l0.1,0.2l0.1,1l0.1-1.5l0.1,1.2l0.1-1.2l0.1,1.4l0.1-0.4l0.2,2.4l0.1-1.9l0.1,0.5l0.2,0.7l0.1-0.9l0.1,1.1
						l0.2-0.9l0.1,0.2l0.1-0.1l0.1-0.8l0.1,1.3l0.1-0.3l0.1,0.5l0.2-0.9l0.1,0l0.1,1.8l0.1-0.8l0.1,0.1l0.1-0.9l0.1,0.2l0.1-0.2
						l0.1,1l0.1-1.6l0.1,0.1l0.1,0.9l0.2-0.9l0.1,0l0.1,0.4l0.1-1.7l0.1,0.2l0.1-0.8l0.1,0.2l0.1,1.4l0.1-0.2l0.1-0.2l0.1,0.6
						l0.2-0.8l0.1,0.1l0.1,1.6l0.2-1.2l0.2,1.2l0.1-0.5l0.1,0l0.1,0.5l0.1-1l0.1,0.8l0.1-0.8l0.1,0.3l0.1,1.4l0.2-1.3l0.1,0l0.1,0.8
						l0.1-1.6l0.1,1.7l0.1-0.4l0.1-0.2l0.1,0.7l0.2-0.8l0.1,0.8l0.1-0.5l0.1,0.5l0.1-0.6l0.2,0.4l0.2-1.1l0.1,0.2l0.2,1.6l0.2-1.1
						l0.2,0.6l0.2-1.5l0.2,1.8l0.1-0.8l0.1,0.3l0.1,0.2l0.2-0.9l0.1,0.9l0.1-0.4l0.1,1.6l0.2-1.9l0.2,0.7l0.2-0.8l0.1,0.3l0.1-1.3
						l0.1,1.5l0.1-0.2l0.1,0l0.1,0.3l0.1-0.4l0.1,0.5l0.1,0l0.1-0.9l0.2,2l0.2-1.3l0.1,0.5l0.1-1.4l0.2,0.8l0.2-1.4l0.1,0.5l0.2-1.3
						l0.2-2.9l0.2,3.4l0.2-0.5l0.1,0.7l0.1-0.9l0.2,2.2l0.1,1.2l0.1-1.5l0.2,1.3l0.1-0.9l0.1,0.6l0.1-0.9l0.1,1.5l0.1-0.9l0.1,0.4
						l0.1-0.8l0.1,0.2l0.2-0.3l0.2,0.8l0.1-0.4l0.2,1l0.1-0.1l0.1-0.3l0.1,0.1l0.1,0.1l0.2-0.5l0.1,0.2l0.1,0.1l0.1-0.4l0.1,0.4
						l0.1-0.2l0.1,0.1l0.1-0.5l0.1-1.3l0.1,0.7l0.1-0.1l0.1-0.9l0.1,0.8l0.1-0.4l0.1,1.3l0.2-1.4l0.1,1.6l0.1-2l0.1,0.4l0.2,0.8
						l0.1,0l0.1-0.4l0.1,0.6l0.2-1.1l0.1,0.3l0.1-0.4l0.1,0.5l0.2-1.4l0.1,0.6l0.1,0.8l0.1-1.8l0.1,0.5l0.1-0.2l0.1-1l0.1,1.9
						l0.2-1.1l0.1-0.4l0.1,0.5l0.1-1l0.1,0.7l0.1,0l0.3-0.4l0.1,1l0.1-0.1l0.2-1l0.2,0.7l0.2-1.4l0.1,0.5l0.1-1l0.2,1.1l0.2-1.2
						l0.2,0.3l0.2-1.2l0.1,0.1l0.1,0.9l0.1-0.9l0.1,0l0.1,0.9l0.2-1.8l0.1,0.6l0.1-0.3l0.1,0.2l0.2-1l0.1,0.2l0.1,0.6l0.1-0.8
						l0.1,1.2l0.1-0.8l0.1,0.5l0.1-0.5l0.1,0.8l0.2-2.4l0.2-0.5l0.1,0l0.1,0.3l0.2,2.3l0.1-0.5l0.1,0.7l0.1-0.7l0.2,0.5l0.1,1.2
						l0.1-1.3l0.1,0.4l0.1,0.9l0.1-0.4l0.1-0.6l0.1,0.4l0.1,1.1l0.1-0.3l0.1,0.5l0.1-0.6l0.2,0.9l0.2-0.7l0.1,1.5l0.1-0.6l0.1-0.8
						l0.1,1.6l0.1-0.3l0.1,1l0.2-1.1l0.1-0.4l0.2,1.3l0.1-0.5l0.1,0.2l0.1,0.4l0.1-0.5l0.1,0.5l0.1-0.3l0.2-0.9l0.1,0.2l0.2-1
						l0.1,2.1l0.1-0.4l0.1,0.6l0.1-1.3l0.1,1.3l0.1-1.7l0.1,2.8l0.1-0.6l0.2,1.9l0.1-0.9l0.2,1.1l0.1-0.6l0.2,1.4l0.1-1.4l0.1,0.5
						l0.1,0.2l0.1-0.9l0.1,1l0.1-0.2l0.1-0.2l0.2,1.1l0.1,0l0.1-1.1l0.1,1l0.2-1.4l0.2,1.1l0.2-1.5l0.1,0.9l0.2-1.1l0.1,0l0.1-0.6
						l0.2,1.4l0.2,0.1l0.1-0.7l0.1,1.3l0.1-0.5l0.1,0.4l0.2-0.9l0.1,0.7l0.1-0.2l0.1,0.3l0.1-0.6l0.1,0.7l0.1-0.4l0.1,0.2l0.1,0.5
						l0.1-0.5l0.2,1.6l0.1-0.5l0.2,1l0.1-1.4l0.1,0.4l0.1-0.5l0.2,1.3l0.1-0.2l0.1,0.3l0.1-1.3l0.1,0.5l0.1,0.7l0.1-0.3l0.1-0.1
						l0.1,0.5l0.1-1l0.1,0.1l0.1-0.1l0,0"/>
				</g>
			</g>
			<g id="line2d_32">
				<g>
					<defs>
						<rect id="SVGID_00000111160537035815831260000004287232037160908179_" x="23.4" y="7.2" width="175.8" height="135.9"/>
					</defs>
					<clipPath id="SVGID_00000137828591939750816930000006226612186942346635_">
						<use xlink:href="#SVGID_00000111160537035815831260000004287232037160908179_"  style="overflow:visible;"/>
					</clipPath>
					
						<path style="clip-path:url(#SVGID_00000137828591939750816930000006226612186942346635_);fill:none;stroke:#9A005D;stroke-width:0.5;stroke-linecap:square;stroke-linejoin:round;" d="
						M23.4,78.6l0.1,0.2l0.1,2.9l0.2-1.8l0.2,2l0.1-3.4l0.1,3.5l0.1-1l0.1,2.7l0.1-1.7l0.1,1.5l0.1-2l0.1,2l0.1-0.4l0.3,2.9l0.1-0.1
						l0.2-1.6l0.1-0.2l0.2,3l0.1-1.6l0.1,0.3l0.1,2.1l0.1-2.7l0.1,1.8l0.1-0.9l0.1,0.1l0.2,0.6l0.1,0.8l0.1-1l0.1,1.1l0.1-0.5
						l0.1-1.1l0.1,1.7l0.1-0.6l0.1-1.4l0.1,1.7l0.1-0.7l0.2,1.9l0.2-1.2l0.1,2.2l0.2-1.6l0.1-0.1l0.1,2.2l0.2-2.1l0.1,0.9l0.1-0.8
						l0.1,1l0.1-0.8l0.3,2.1l0.1-0.7l0.2,1.1l0.1-0.7l0.1,0.8l0.1-1.2l0.1,0.5l0.2-0.2l0.1,1.9l0.1-1.5l0.1,0.1l0.1-0.7l0.1,0.5
						l0.1,2.6l0.1-1.7l0.1,0.4l0.1-0.6l0.1,0.1l0.1,0l0.2,0.8l0.1-1.3l0.1,1.2l0.2-2.3l0.2,1l0.1-0.9l0.2,3.9l0.1-2.5l0.1,0l0.1,0.7
						l0.1-1.1l0.2,1.8l0.1,0.1l0.1-0.2l0.1-1.3l0.1,0.4l0.1-0.1l0.2,1.1l0.2-0.8l0.1,0l0.1-0.3l0.1,1.5l0.2-2.1l0.2,1.3l0.1-0.4
						l0.2,2.4l0.2-2.4l0.1,2.6l0.2-2.4l0.1,2.3l0.1-1.2l0.1,0.8l0.1-0.2l0.2-1.3l0.1,2.7l0.2-3.2l0.1,1.7l0.1-0.8l0.1,1.7l0.1-0.1
						l0.1-0.7l0.1,2.2l0.1-0.5l0.2-2.4l0.1,3.2l0.1-1l0.1-2.1l0.2,2.2l0.1-1.2l0.2,1.4l0.1-2.6l0.1,2.6l0.1-0.3l0.2-1.6l0.1,2.2
						l0.2-1.5l0.2,0.7l0.1-1.1l0.1,0.2l0.1,1.4l0.1-2.6l0.1,2.1l0.1-1.1l0.2,1.5l0.1-0.4l0.2,1.8l0.1-2.2l0.1,0.4l0.2,1.7l0.1-1.6
						l0.1,0.2l0.1,0.4L38,95l0.1,0.3l0.1,0.8l0.1-0.2l0.1-2l0.2,2.6l0.1-0.1l0.1,0.2l0.4-1.9l0.2-6.4l0.1-0.9l0.2,8.2l0.1,1.3
						l0.1-1.2l0.2,1.4l0.1,0.2l0.1-0.2l0.1-1l0.1,0.8l0.1-0.6l0.1,0.6l0.1-1.4l0.1,0.6l0.1,0.6l0.2-4.2l0.1,2l0.1-1.4l0.2,4.4
						l0.1-0.2l0.1-0.1l0.2,1.7l0.2-2.1l0.1,2l0.1,0l0.1,0.2l0.1-0.5l0.1,1.3l0.1-0.5l0.1-0.4l0.1,0.6l0.2-1.1l0.1,2.8l0.1-0.1
						l0.2-1.7l0.2,2.2l0.1-0.9l0.1-2.2l0.1,2l0.1,0l0.1-0.3l0.1,2.5l0.1-2.1l0.1,0.8l0.1,0.1l0.1,0.8l0.1-1.5l0.1,1.7l0.1-0.4
						l0.1,0.1l0.1,1l0.1-1.1l0.2,1.7l0.2-1.8l0.2,2.2l0.1-1l0.1,0.4l0.1-0.3l0.1,0.4l0.1,1.5l0.2-2.4l0.2,1.1l0.1-2l0.1,1.5l0.2-2.2
						l0.1,0.2l0.2,2.9l0.2,2.6l0.1-1.2l0.1,0.1l0.1,0.4l0.1,1.8l0.2-2l0.2,1.1l0.1,0.2l0.1,1l0.1-1.5l0.1,1.4l0.1-2l0.1,0.4l0.2,1.1
						l0.2-1.8L48,107l0.2-1.4l0.2-4.8l0.2,3l0.1,0l0.1,0.2l0.1,2.2l0.1-1l0.1,1.5l0.1-0.3l0.4-4.8l0.1,3.9l0.1-0.9l0.2,3.7l0.2-1.9
						l0.2,1.6l0.3-10.4L50.7,58l0.2,50.7l0.1-0.4l0.1,1.1l0.2-1.4l0.1-1.9l0.1,0.1l0.1-0.6l0.1,0.9l0.2,5.9l0.2-1.7l0.2,2.2l0.1-1.6
						l0.1,0.1l0.1,0.5l0.1-0.2l0.1-0.9l0.2,0.8l0.1-1.1l0.1,0.5l0.1,0.1l0.1,0.5l0.1-0.5l0.5-14.3l0.4,13.1l0.1,0l0.1,2l0.1-0.5
						l0.1,0.2l0.2,1.6l0.1-1.5l0.1,0.9l0.2-1.1l0.1,2.3l0.1-0.7l0.1,0.5l0.1-0.8l0.1,1l0.1-1.8l0.2,0.9l0.1-1.1l0.2,1.4l0.1-0.2
						l0.1-0.9l0.1,0.4l0.1-0.5l0.1,1.5l0.1,0l0.1-1.1l0.1,2.6l0.1-1.1l0.1-2.5l0.1,0.6l0.1-0.3l0.1-1.9l0.1,0.5l0.2,1.9l0.1,0.1
						l0.1,1.4l0.2-1.1l0.1,1.3l0.2-1.2l0.1,0l0.1,1.7l0.1-0.4l0.1-1.1l0.2,1.9l0.1-1.5L58,113l0.2-1l0.1,0.7l0.1-1.7l0.1,0.3
						l0.1,1.7l0.1-0.9l0.1,1.6l0.1-0.2l0.2,1.8l0.1-2.3l0.1,0.1l0.2-0.5l0.1,0l0.1,0.5l0.2-2.9l0.4,2.2l0.1-0.3l0.2,1.4l0.2-0.8
						l0.1,0.5l0.2-0.6l0.1,1.1l0.1-0.5l0.1,0.8l0.1-1.5l0.1,0.4l0.1,0.1l0.1-0.9l0.1,1.3l0.1-1.4l0.2,1.9l0.2-2.5l0.1,0.4l0.1-0.2
						l0.1-1.1L62,111l0.1,1.5l0.2-2.8l0.1-4.1l0.1,0.3l0.2,4l0.1-0.8l0.1-0.4l0.2-2.9l0.1,4l0.1-0.5l0.1,2.1l0.1-1.3l0.1,2.1
						l0.1-2.3l0.1,2.5l0.1-1.5l0.1,0.9l0.2-2.6l0.2,0.7l0.4-4.7l0.1,0.4l0.1-3.1l0.2,3.8l0.1,0.7l0.1-0.5l0.2,2.5l0.1-0.7l0.2,1.3
						l0.1-1.8l0.1,0l0.1-0.6l0.2-5.8l0.2-1l0.3,6.8l0.1-0.9l0.2,1.1l0.4-10l0.2,2.6L67,101l0.2-4.5l0.2-10l0.1,0.2l0.3,19.7l0.1,1.1
						l0.1-0.1l0.1,0l0.1,1.3l0.1-1.4l0.1,0.3l0.1-0.7l0.4-11.5l0.1-9.9l0.1,9.7l0.1-2.5l0.1,4.1l0.1-1.3l0.2-16l0.2-29l0.1,0.5
						l0.3,50.4l0.2,5.4l0.2-2.8l0.1-0.1l0.4,4l0.1-1.7l0.1,0.1l0.1,0.4l0.1-0.2l0.1,0.3l0.2-2.4l0.2,1.6l0.2,2l0.3-5.5l0.1,0.3
						l0.1,0.7l0.1-0.4l0.1,0.5l0.2,3.2l0.1-1.1l0.1,1.5l0.1-2.1l0.1,1.8l0.1-0.8l0.1,1.3l0.1-1.2l0.1,1.6l0.2-1.4l0.1,0l0.1-2.7
						l0.2,1.4l0.1-2.3l0.1,1l0.2,1.9l0.1-0.3l0.1,0.3l0.2-0.6l0.2,1.1l0.1-0.4l0.1,1l0.1-1.3l0.1,0.5l0.1,0.8l0.2-4l0.1,0.5l0.2,0.1
						l0.1,2.1l0.1-0.6l0.1,0l0.1,1.1l0.1-0.3l0.2-3.2l0.1,1.3l0.2-2.7l0.1,3.3l0.1-0.6l0.1-1.2l0.1,1.8l0.1-1.7l0.2,2.3l0.1-1.5
						l0.1,0l0.1-0.5l0.1,0.8l0.1-1.3l0.2,2.3l0.1-0.9l0.1,1.5l0.1-2l0.1,2.2l0.1-2.6l0.1,2l0.2-3.4l0.1-9.3l0.3,13.1l0.2,2.6
						l0.1-0.3l0.2-0.9l0.1,1.6l0.1-1.2l0.1,3l0.1-1.2l0.1-0.3l0.1-1.4l0.2,1.7l0.1-0.2l0.2-2.4l0.1,1.8l0.4-8l0.2,4.8l0.1-2.2l0.2,6
						l0.1-2.3l0.1,3.1l0.1-0.4l0.2-3.4l0.2-28.4l0.1,22.1l0.1-7l0.2,17.3l0.2,2.3l0.2-0.6l0.1,1.1l0.1-1.3l0.1,1.4l0.1-0.3l0.1-1.2
						l0.1,1.5l0.2-2.5l0.1,0.8l0.1,2l0.1-0.6l0.1,0.2l0.1-0.9l0.2,2.5l0.1-0.4L83,112l0.3-11.2l0.1,0.3l0.5,13.1l0.1-0.6L84,115
						l0.1-1l0.1,1.5l0.1-0.2l0.1-1.1l0.1,0.7l0.2-1.4l0.1,0.6l0.1-0.3l0.1,1.2l0.1-2l0.1,3l0.1-0.8l0.2,0.3l0.1,0.9l0.2-0.7l0.1,0.6
						l0.1-0.7l0.1,0.7l0.2-0.8l0.1-0.1l0.1,0.4l0.1-0.9l0.2,1.1l0.2-1.9l0.1,1.8l0.1-0.8l0.1-0.4l0.1,1.7l0.1-0.6l0.1-2.7l0.1,2
						l0.1-0.2l0.1,0.5l0.2-2.7l0.2,1l0.1-0.4l0.2,1.4l0.5-7.1l0.3-12.5l0.1,1.8l0.2,11.2l0.2,0.4l0.2,6.3l0.2,3.1l0.1-1l0.2,1.6
						l0.2-3.3l0.1,1.7l0.1-0.6L90,116l0.2,1.5l0.1-0.9l0.1,1.7l0.1-1.9l0.1,0.8l0.1,0.2l0.1-0.6l0.1,2l0.1-0.5l0.1-1.7l0.1,1.1
						l0.2-0.9l0.1-0.2l0.1,0.2l0.1,0.9l0.1-0.3l0.1-1.8l0.2,2.3l0.2-1.4l0.2,2.1l0.1-0.2l0.1-1.3l0.1,0.7l0.1-0.3l0.1-1l0.2,2.8
						l0.2-3.5L93,117l0.1-2.9l0.1,0.1l0.1,1.1l0.1-0.4l0.3,2.5l0.1-1.8l0.1,1.3l0.4-6.5l0.2,1.3l0.2,2.3l0.2-1.9l0.1,0.4l0.1,1.3
						l0.1-0.9l0.1,1.8l0.1-1l0.1,0.6l0.1-0.6l0.1,1.3l0.1-0.1l0.1,0.3l0.1-0.5l0.1,0.7l0.2,1.9l0.1-1.8l0.1,2.8L96,117l0.1,0.5
						l0.1,0l0.1,1.3l0.1-1.7l0.1,1.7l0.1-0.3l0.1,0.3l0.1-1.4l0.1,0.3l0.2,1.5l0.1-0.5l0.2-0.8l0.2,1l0.1-1.4l0.1,1.4l0.1-2.2
						l0.1,0.9l0.2,0.5l0.1-0.3l0.2-1L98,113l0.1,0.2l0.1,1.1l0.2-1.6l0.1,1.3l0.2-7.6l0.2-4.3l0.5,12l0.1,0l0.2,3.2l0.1-1l0.1,0.1
						l0.2-2.2l0.2-5.2l0.2-7.8l0.2,5.3l0.2,3.7l0.1-0.1l0.1,2.3l0.2-4.9l0.2,2.6l0.2-7.8l0.1,0.8l0.1-19.8l0.2,19.8l0.1-1.7
						l0.2,13.1l0.1-3l0.1-0.9l0.2-7.1l0.3-34.2l0.1,5.2l0.4,35.4l0.2,3l0.2,3.5l0.2,1l0.1-0.1l0.1,1.7l0.1-0.1l0.1,0.2l0.1-1
						l0.1,0.5l0.1-0.7l0.1,0.3l0.2-1.1l0.1-2.9l0.2,3.3l0.1-0.5l0.2,2.1l0.1-0.6l0.3-4.4l0.1,1.5l0.2-3.4l0.1,0.2l0.2,1.3l0.1-2.2
						l0.2,3.3l0.2,1.3l0.3-5.7l0.1-7l0.2,6.9l0.4,7.8l0.2,1.1l0.1-1.3l0.1,0.9l0.2-1.1l0.1-1.3l0.5-16.1l0.2,6.9l0.4,8l0.2,0.7
						l0.2-3.4l0.1,0.8l0.1-2.6l0.1,0.9l0.1-1.8l0.1,0.4l0.1-1l0.1-2.7l0.1,0.4l0.2-2.3l0.1-0.1l0.3,1l0.1,2.4l0.1-0.1l0.1,0.5
						l0.2-2.3l0.2-9.4l0.1-2.5l0.4,10.8l0.1,0.5l0.1,4l0.1-0.2l0.1-1.6l0.1,0.4l0.2,2.6l0.1-0.8l0.2,3.7l0.2,1.6l0.1-0.9l0.1,1
						l0.1-2l0.1,0.1l0.1,0.6l0.2-0.5l0.1,0.7l0.1-1l0.1,1.5l0.2-2l0.2,2l0.1-0.4l0.2-2.3l0.1,1.3l0.1-2.9l0.1,1.2l0.1,1.5l0.2-3.6
						l0.2,4.3l0.1,0l0.1,0.7l0.2-1.6l0.2,2.2l0.2-1.5l0.2,3.2l0.1-0.7l0.2,2.9l0.2,0.5l0.1,1l0.2-2.6l0.2,1.5l0.1,0l0.1,1.3l0.1-0.3
						l0.2,1.2l0.1-0.8l0.1,0.5l0.1-1.1l0.1,0.7l0.1-1.2l0.2,2.1l0.1,0.1l0.2-1.1l0.1,0.8l0.1-1.1l0.2,1.1l0.3-1.7l0.2,1.2l0.2-1.3
						l0.2,0.2l0.1-1.1l0.1,0.9l0.1-2.6l0.1,1.5l0.3-5.3l0.2,2.2l0.1-0.7l0.1,0.4l0.3,4.4l0.1-0.4l0.1,1.4l0.1-0.3l0.1,0.5l0.2-1.8
						l0.1,0.2l0.1-1.5l0.1,0.8l0.1-0.2l0.1,0.5l0.1-0.4l0.2,3.5l0.1-0.2l0.1-1.7l0.1,0.5l0.2,1.1l0.2-1.1l0.1,1.2l0.1-0.4l0.1,1
						l0.2-4l0.1,1.5l0.2-2.9l0.5,5.7l0.2,1.9l0.1-0.8l0.1,0l0.1,1.2l0.3-3.8l0.1,0.2l0.1,0.6l0.2-1.7l0.1,0.3l0.2-4.9l0.7,8l0.4-2.6
						l0.2,1.9l0.1-0.8l0.1,1.2l0.1-0.3l0.1-0.7l0.1,1.5l0.1-1.4l0.1,0.1l0.1-0.2l0.1,0.6l0.1-1.5l0.1,0.2l0.1-0.1l0.2,3.5l0.1-1.4
						l0.1,1.5l0.1-0.6l0.1,0.3l0.1-0.5l0.2,2.1l0.1-0.4l0.1-1.3l0.1,0.2l0.3-2.8l0.2,1.8l0.1-0.4l0.2,2.4l0.1,1.7l0.1-1.7l0.1,0.1
						l0.1,1.5l0.2-1.8l0.1-0.2l0.1,1l0.2-2.5l0.2,2.2l0.1-1l0.1,1l0.1-0.3l0.5-8.7l0.2,4.6l0.1-0.9l0.3,5.2l0.2-0.4h0.1l0.1,0.1
						l0.2,1.2l0.2-1.9l0.2,1.7l0.2-1.9l0.2,0.9l0.2-5.5l0.2-5.5l0.2,5.7l0.2,0l0.2,3.7l0.2,2.4l0.3-1.9l0.1,0.6l0.2-1.9l0.1,0.1
						l0.2,1.1l0.2-0.7l0.2,2.6l0.1-1l0.1,0.2l0.1,0.7l0.1,1.7l0.1-0.1l0.1-1.6l0.1,0.7l0.1,0.9l0.3-2l0.1,1.4l0.1-0.9l0.1,1.7
						l0.1-1.1l0.1,1l0.1-0.2l0.1-1.1l0.1,0.6l0.1-0.7l0.2,2l0.1-1.9l0.1,0.9l0.1-0.2l0.2,0.4l0.2-1.6l0.1,0.1l0.1,0.7l0.2-3.5
						l0.1-0.6l0.1-2.9l0.1,0.5l0.1,0.3l0.1,2l0.1-0.4l0.1-1l0.2,3.6l0.2,1.8l0.1-0.4l0.1,0.6l0.1-0.1l0.1,0.3l0.2-3.1l0.1,0.3
						l0.1,0.5l0.3-3.3l0.3,2.7l0.1-0.8l0.2,2.3l0.1,0.2l0.2-1.1l0.1,0.1l0.1-0.1l0.1-1.4l0.1,1.4l0.1,0l0.1-1.2l0.1,0.3l0.2,1.6
						l0.1-0.1l0.1-1l0.1,0.7l0.2-2.1l0.2-2.4l0.3,1.7h0.1l0.1-0.6l0.1,1.5l0.1-1.6l0.1,0.2l0.1,1.1l0.2-2.2l0.1,0.3l0.2,1.2l0.2,2.4
						l0.2-1.2l0.1,1.7l0.1-0.2l0.1,0.6l0.1-0.9l0.2,2.5l0.1-1.7l0.1,1.2l0.1-0.5l0.1-0.9l0.1,0.3l0.1-0.3l0.1,0.2l0.1-0.5l0.1,0
						l0.1,0.2l0.2-2.4l0.1,0.6l0.1-0.4l0.2-3.2l0.1,0l0.1-0.4l0.1,0.3l0.1-0.3l0.1-3.2l0.1,0l0.2,5.4l0.1,0.6l0.1-0.3l0.1-0.4
						l0.2,3.2l0.2-0.4l0.2,0.2l0.1,0.3l0.1,0l0.1-0.2l0.2,1l0.1,0.1l0.2-2.2l0.1,1.3l0.1-0.9l0.2,1.4l0.1,0.5l0.1-0.6l0.1,1.6
						l0.1-0.8l0.1,0.9l0.1-0.8l0.1,0.5l0.1-0.6l0.1,0.1l0.1-0.1l0.1-0.5l0.1,1.4l0.2-1.6l0.2,1l0.1-0.3l0.1,0.1l0.1-0.2l0.2,1
						l0.1-0.3l0.1-0.8l0.1,0.2l0.1,0.9l0.2-0.8l0.1,0.7l0.1-0.4l0.1,0l0.2,0.7l0.1,0.7l0.3-3l0.1,1.3l0.2-1.6l0.1,1.7l0.1-0.3
						l0.1-0.8l0.2,1.8l0.1-0.2l0.1,0.1l0.3-2.8l0.1-0.1l0.1,0.6l0.1-1l0.2,3l0.1,0.2l0.1-0.2l0.2,2.3l0.2-2.5l0.1,1l0.1,1.6l0.1-0.4
						l0.1-1.3l0.2,1.7l0.1-1.2l0.1,0.2l0.1-0.6l0.1,0.6l0.2-0.6l0.1,0.1l0.1,0.2l0.1,2l0.1-1.2l0.1,0.8l0.1-0.8l0.1,1.8l0.2-2.7
						l0.1,1l0.1-0.8l0.2,1.5l0.2-2.1l0.1,1.7l0.1-0.6l0.1-0.1l0.1,0.4l0.2-1.6l0.2,1.9l0.2-0.9l0.2,1.6l0.1-0.8l0.2,1.1l0.2,0.3
						l0.1-0.7l0.1,0.1l0.3,0.7l0.4-4.4l0.2,1.3l0.2-0.4l0.1,1.5l0.1-0.5l0.1-0.1l0.2,1.4l0.1-0.6l0.2,1.3l0.2-0.9l0.1,1.1l0.1-0.2
						l0.2-0.6l0.2,1.3l0.3-1.3l0.1,0.7l0.1-0.7l0.2-2.9l0.2,2.5l0.1-0.7l0.1-0.8l0.1,0.1l0.1-0.1l0.2,1.6l0.1-0.3l0.2,1.4l0.1-0.6
						l0.1-0.3l0.2,1.3l0.1-0.3l0.1,1.1l0.1-0.5l0.1,0.4l0.1-0.3l0.1,1.2l0.1-0.8l0.1,0.8l0.2-1.5l0.1,0l0.1-1.1l0.1,1.2l0.1-0.1
						l0.1-0.1l0.1-0.6l0.1,0.8l0.1-0.5l0.1,0.6l0.1-0.3l0.1-1.3l0.1,1.9l0.1-1.9l0.1,1.3l0.1-1.3l0.1,0.8l0.4-3.4l0.1,0.5l0.2-1.7
						l0.2,3l0.1,0l0.1-0.5l0.2,1.3l0.2,1.7l0.1,0.5l0.1-0.2l0.1,0.1l0.1-1.3l0.2,1.1l0.2-0.3h0.1l0.3-1.7l0.2,2.1l0.1-0.2l0.1-1.2
						l0.1,0.6l0.1-0.2l0.1,0l0.2-0.8l0.1,0.4l0.1,1l0.1-0.8l0.2,1.1l0.1-1.1l0.1,0l0.1,0l0.1,2.1l0.1-1.2l0.1,0.3l0.1,0.3l0.1-0.1
						l0.1-0.4l0.1,0.1l0.1,1.3l0.2-1.3l0.2,1.1l0.1-0.7l0.1,0.3l0.1-0.1l0.2-2.7l0.2,2.7l0.1-2.2l0.1,0.7l0.1-0.9l0.1,0.5l0.2-1.8
						l0.1,0.4l0.2,1.4l0.1-1.3l0.2,1.9l0.1-0.8l0.1,1.1l0.1-0.4l0.2,1.3l0.2-1.1l0.1,1.2l0.1-1.5l0.2,1.7l0.1-1.1l0.1,1.7l0.1-1.4
						l0.1,0.5l0.1-1.2l0.2,1.5l0.2-3.1l0.1,0.3l0.2,2.9l0.2-1.3l0.1,0.3l0.1,1.4l0.1-0.8l0.1,1l0.1-0.3l0.2,0.6l0.1-0.7l0.1,1.2
						l0.1-0.4l0.1-1.2l0.1,0.2l0.1,0.4l0.2-0.5l0.1,0.3l0.1-0.5l0.1,0.3l0.1-1.1l0.1,1.3l0.1-0.6l0.1,0.1l0.1,0.3l0.1-0.2l0.1-0.8
						l0.1,0.1l0.3,2.6l0.2-1.5l0.1,1l0.2-1.6l0.1,0.6l0.2-1.1l0.2,0.8l0.1-0.2l0.1,0.2l0.1-1.3l0.2,1.9l0.1,0l0.1-0.7l0.2,0.6l0.1,0
						l0.1,0.4l0.1-1l0.2,1.2l0.2-0.5l0.2,0.5l0.2-0.2l0.1,0.2l0.2-0.7l0.2,1.2l0.2-1.2l0.2,1.1l0.1-0.7l0.2,0.8l0.3-1.4l0.1-0.1
						l0.1,0.6l0.1-0.4l0.1,0.6l0.1-0.2l0.1-0.2l0.1,0.4l0.1-0.8l0.1,0.7l0.1-0.2l0.2-0.6l0.1-0.5l0.2,1.5l0.2-0.5l0.1-0.3l0.1-1.1
						l0.1,1.1l0.1-0.6l0.2,1.4l0.1-0.1l0.1-0.6l0.1,0.6l0.1-0.9l0.1,0.2l0.2-1l0.2-1.4l0.1,0.2l0.2,1.8l0.1-0.6l0.2,1.3l0.1-0.6
						l0.3,1.9l0.1-0.5l0.1,0l0.1-0.4l0.1,0.6l0.1-0.2l0.1,0l0.1-1l0.1,1.2l0.1-0.5l0.1-1l0.2,1.8l0.2-1.1l0.1,1.1l0.2-1.4l0.1,1.6
						l0.1-0.2l0.1-0.6l0.1,0.2l0.1,0.1l0.1,0.3l0.1-1.9l0.2,1.9l0.2-1l0.1,0.4l0.1-0.4l0.1-1.1l0.1,0.3l0.2-0.3l0.1-0.5l0.2,1.3
						l0.1-0.6l0.1,0.1l0.1-0.1l0.1,0.5l0.1-0.3l0.1,0.1l0.1-0.2l0.1-0.4l0.2,0.8l0.3-1.2l0.1,0.2l0.1,0.8l0.1-0.1l0.1-1l0.1,0.1
						l0.1,0.3l0.2-1.3l0.2,1l0.2-0.4l0.1,0.2l0.1-0.9l0.1,0.8l0.1-0.9l0.1,0.7l0.1-0.4l0.1,0.4l0.5-2l0.2,1.3l0.1-0.7l0.1,0.4
						l0.2-0.9l0.2-1.1l0.1,0.5l0.1-0.6l0.1,0.8l0.1-1l0.1,0l0.2,0.4l0.1-1.3l0.1,1.3l0.1-0.2l0.1-1.3l0.1,0.2l0.1,1.3l0.1-1l0.1,0.9
						l0.3-3l0.1,1.7l0.1-0.2l0.2-0.4l0.1-0.6l0.2,2.1l0.1-1.8l0.1,0.4l0.1-0.5l0.2,1.2l0.1-0.4l0.1,0.3l0.1,0.8l0.1-0.2l0.1,0.2
						l0.1-0.2l0.1,1.3l0.1-1.5l0.1,1l0.1-1.1l0.1,1.1l0.1,0l0.2,0.7l0.1-1l0.1,1.1l0.1-0.3l0.1,0.9l0.1-0.5l0.1,0.5l0.2-1.4l0.1,0.5
						l0.1-0.4l0.1,0.6l0.1-0.8l0.2,1.5l0.2-0.3l0.3,1l0.1-0.5l0.2,1.2l0.1-1.1l0.1,0.8l0.1-1l0.1,0.6l0.1-0.8l0.2,1.2l0.1-0.2
						l0.1-0.9l0.2,1.7l0.1-0.2l0.1-0.5l0.3,1.8l0.2,0l0.1,0.7l0.1-1l0.1,1.5l0.2-1l0.1,0l0.1,0.3l0.1,0l0.1-0.3l0.2,0.7l0.1-0.8
						l0.1,0.9l0.2-0.6l0.1,0.2l0.1,0.4l0.1-0.1l0.1,0l0.2-0.3l0.2,1l0.3-1.7l0.1,0.6l0.1-1l0.1,1.2l0.1-0.3l0.1,0.2l0.1-0.4l0.1,0.2
						l0.1,0.2l0.1,0.5l0.1-1l0.2,0.7l0.1-0.1l0.1-0.5l0.2,1.2l0.2-0.8l0.1,0.5l0.1-0.2l0.1-0.1l0.1,1l0.1-0.3l0.1,0.5l0.1-0.2
						l0.1-0.3l0.1-1.5l0.1,1.7l0.1-0.9l0.2,1.2l0.2-0.8l0.1,0.5l0.1-0.2l0.1,0.2l0.1,0.5l0.2-0.8l0.1,0.9l0.1-0.6l0.1,0.6l0.1-0.4
						l0.2,0.6l0.1-0.4l0,0"/>
				</g>
			</g>
			<g id="line2d_33">
				<g>
					<defs>
						<rect id="SVGID_00000034788441079293058860000017015460340682193064_" x="23.4" y="7.2" width="175.8" height="135.9"/>
					</defs>
					<clipPath id="SVGID_00000171701715679280941090000012529829206737843854_">
						<use xlink:href="#SVGID_00000034788441079293058860000017015460340682193064_"  style="overflow:visible;"/>
					</clipPath>
					
						<path style="clip-path:url(#SVGID_00000171701715679280941090000012529829206737843854_);fill:none;stroke:#1F005C;stroke-width:0.5;stroke-linecap:square;stroke-linejoin:round;" d="
						M23.4,77.7l0.2,1.7l0.1-1.9l0.2,3.3L24,81l0.2,1.2l0.1-0.9l0.2,2.1l0.2-1.2l0.2,3l0.1-0.7l0.1,2.6L25,85l0.1,0.2l0.1,0.5
						l0.2-1.5l0.1,3.2l0.1-0.4l0.1-1.1l0.2,2.5l0.1-2.5l0.1,1.5l0.1-0.1l0.1,0.1l0.1,1.1l0.1-1.1l0.2,2.1l0.1,0.3l0.1-1.3l0.1,2.5
						l0.1-2.5l0.1,0.5l0.1,0l0.1-1l0.2,2.8l0.1-0.7l0.1-0.8l0.1,1.1l0.1-0.5l0.1-0.3l0.1,1.4l0.1-1.3l0.1,3.1l0.2-2.5l0.1,1.1L28,90
						l0.1,0.6l0.1-0.9l0.1,1.9l0.1-0.8l0.1,0.5l0.1-1l0.1,1.8l0.1-0.8l0.2-0.5l0.1,0.1l0.1,0.2l0.2,2.2l0.1-1.6l0.1,1.8l0.1-2.1
						l0.1,0.3l0.1,1l0.1-0.2l0.1-0.7l0.1,0.4l0.1-1.1l0.1,3.6l0.1-3.2l0.1,2l0.2-2.2l0.1,1.9l0.1-0.4l0.1,0.6l0.2-1.3l0.1,0.1
						l0.1,0.6l0.1-1l0.2,1.6l0.1-0.2l0.1-0.9l0.2,2.7l0.1-0.8l0.1,0.3l0.1-0.1l0.1-1.5l0.1,0.4l0.2-1.2l0.1,0.2l0.1,0.7l0.1-0.6
						l0.2,2.1l0.1-0.9l0.1,0.1l0.1-0.3l0.1,0.4l0.1,1.3l0.1-2.8L33,93l0.1-0.7l0.2,1.9l0.1-1.8l0.1,2.4l0.1-1l0.1-0.2l0.1,1.5
						l0.1-1.5l0.1,1.9l0.1-0.4l0.1-2.7l0.1,1.4l0.1-2.1l0.1,3l0.1-0.1l0.1-2.1l0.1,2.1l0.1-0.6l0.1,0.1l0.1,0.8l0.1-1.1l0.1,2.7
						l0.1-0.2l0.2-2.2l0.1,2.8l0.2-3.9l0.1,1.3l0.1-1.1l0.1,1l0.1-0.1l0.1-0.1l0.1-0.7L36,97l0.1-1.4l0.1-1.2l0.1,2l0.1-1l0.1,0.1
						l0.2-0.5l0.1,1.6l0.2-1.9l0.1,0.6l0.1,3.8l0.2-5.3l0.1,3l0.1-2.1l0.2,2.2l0.1-2.1l0.2,2.5l0.1-2.2l0.1,0.1l0.1-0.5l0.2,3
						l0.2-2.7l0.1,0l0.1,1.4l0.1-0.1l0.1-0.5l0.1,0.9l0.2-2.3l0.1,1.9l0.2-3.1l0.2,2.3l0.1,0l0.1,1.2l0.1-0.9l0.1,2.4l0.2-1.5
						l0.1,0.6l0.2-2.8l0.1,0.8l0.2,2.2l0.2-2.9l0.2,1.7l0.1-0.8l0.1-2.1l0.3,5.6l0.1-2.8l0.1,0.6l0.2,2.6l0.2-0.9l0.1-0.3l0.1,0.3
						l0.2,1.6l0.1-2l0.2,2.6l0.1-1.5l0.1,0.4l0.4,1.7L43,101l0.2-0.3l0.1-0.7l0.1,1.8l0.1-2.1l0.2,2.7l0.2-1.3l0.1,1.8l0.1-2.3
						l0.1,2.7l0.1-1.9l0.1,2l0.1-1.6l0.1,0l0.1,1.7l0.1-1l0.1,0.1l0.1,0.4l0.1-2.2l0.1,0.8l0.2,1.9l0.1-0.8l0.1,0.4l0.1-0.5l0.1,1.6
						l0.1-2l0.1,0.2l0.1,2.5l0.1-2.7l0.1,0.6l0.1-1.9l0.1,0.4l0.2-2.1l0.2-1.7l0.4,8l0.1-1.2l0.2,2.6l0.3-2.1l0.2,2.5l0.1-0.9
						l0.1,1.9l0.1-0.2l0.1-1.6l0.1,0.3l0.2-0.6l0.2,0.9l0.2-3.9l0.1-1.5l0.1,0.4l0.2,5.9l0.1-1.4l0.1-0.6l0.1,0.4l0.1-0.4l0.4-9.8
						l0.2,10.8l0.2,0.9l0.2,0.6l0.1-2l0.1,1.5l0.4-12.4l0.2-8.1l0.4,22.4l0.1,0.7l0.1-0.6l0.1,0.6l0.1-0.1l0.1,0l0.1-0.5l0.1,0.3
						l0.1-0.1l0.1-0.3l0.1,1.8l0.1-1.1l0.1,1l0.1-1.3l0.1,2.4l0.1-2.5l0.1,0.9l0.1,1.1l0.3-2.2l0.1,2.2l0.1-1.5l0.1,0.3l0.1-0.6
						l0.1,1.1l0.3-9.6l0.1,0.6l0.2-6l0.1,1.1l0.2,6.1l0.2,7.1l0.1-0.1l0.2,1.8l0.1-0.6l0.1,1.6l0.1-1.4l0.1,0.4l0.1-1l0.2,3l0.1-1.7
						l0.1,0.4l0.1-0.8l0.1,0.9l0.2-1.8l0.1,2l0.1-0.3l0.1-0.9l0.1,0.3l0.2,0.3l0.2,1.6l0.1-1.1l0.1,1.3l0.1-2.5l0.1,1.8l0.1-0.1
						l0.1-0.8l0.1,0.8l0.1-0.8l0.1,0.8l0.1-1.4l0.1,0.4l0.1,1.7l0.2-1.9l0.1,0.4l0.1,0.4l0.1,1.2l0.2-1.2l0.1,0.1l0.1-1.4l0.1,0.3
						l0.1,1l0.1-0.6l0.1,0.8l0.1-0.5l0.1,0.9l0.2-2.7l0.1,0.8l0.1,2l0.1-2.2l0.2,1.6l0.1-0.6l0.1,0.9l0.1-1.5l0.1,1.2l0.1-1l0.2,0.9
						l0.1-2.8l0.1,1l0.2-2.2l0.1,0.4l0.1-0.9l0.1,0.3l0.2,3.9l0.1-0.7l0.2,1.6l0.1-1.4l0.1,0.2l0.1,0.6l0.1-1.1l0.1,1.6l0.2-1.7
						l0.2,2l0.2-2.9l0.1,2.3l0.1-0.3l0.1,0.4l0.5-2.6l0.1-2.3l0.2,2.2l0.3-2.7l0.1,0.6l0.1-3.5l0.3,5.3l0.1-0.3l0.1,1.8l0.1-0.2
						l0.1-0.3l0.2,1.2l0.1-1.5l0.1,1.4l0.1-1.1l0.1,0.9l0.1-0.3l0.2-2.2l0.1,1.3l0.3-5.4l0.1,3.2l0.2-5.8l0.2,5.8l0.2,1.3l0.1,0
						l0.3-7.3l0.1-0.7l0.2,1.5l0.1,0.1l0.1-0.6l0.3,5.6l0.2-8.9l0.1-1.9l0.2-27.7L67,93.8l0.2-3.1l0.2-11.2l0.2,8.6l0.3,19.7
						l0.1,0.8l0.3-2.2l0.1,0.7l0.8-21.4l0.2-16.1l0.2-20.3l0.1,5.2l0.3,48.4l0.1,2.4l0.1-0.1l0.1-0.2l0.1,2l0.2-1.7l0.1-0.2l0.1,1.7
						l0.1-0.5l0.1-1.1l0.1,2.5l0.2-2.9l0.1,0.5l0.2,2.1l0.1,0.7l0.1-1.3l0.1,0.4l0.2,0.3l0.2-0.4l0.2,1.7l0.1-2.7l0.2,1.6l0.1-1.2
						l0.1,0.3l0.1-0.4l0.2-4.4l0.4,5.8l0.1,0l0.2-3.1l0.1,0l0.1,0.4l0.1-1.3l0.1,0.8l0.1-2.8l0.1,0.6l0.1,0.4L74,106l0.2,1.4
						l0.1,0.5l0.1-1.1l0.1,0.6l0.1-0.6l0.1,0.8l0.1-1.8l0.1,0.1l0.1,0.2l0.1,0.8l0.1-1.2l0.1,0.9l0.1,2.6l0.1-1.9l0.1,2l0.1-3.4
						l0.1,1.6l0.1-0.7l0.1-1.6l0.1,0.3l0.1,0.8l0.1-1.5l0.1,0.2l0.1,1.6l0.1-1.9l0.1,4.3l0.2-3l0.1,0.3l0.1,2.8l0.1-3l0.1,1l0.2,1.7
						l0.1-1.1l0.1,1.5l0.1-0.4l0.1-2.1l0.1,2.8l0.1-1.2l0.3-16.2l0.1,9.2l0.1-3.8l0.2,8.5l0.3,3.8h0.1l0.1,0.2l0.2-1.5l0.2,1.6
						l0.1-0.7l0.1,0.7l0.1-0.9l0.1,0.6l0.1-1.2l0.1,0.9l0.2-3.4l0.1,0.6l0.2-7.8l0.4,9.3l0.2,0.9l0.1,2.6l0.1-2l0.2,2.1l0.2-3.3
						l0.2,4.2l0.1-0.6l0.1,1l0.1-0.7l0.1,0.3l0.1-0.5l0.2,2.2l0.1-1.4l0.1,1l0.1-1.5l0.3,2.2l0.1-0.5l0.2,1l0.1-1.9l0.1,0.2l0.1,0.3
						l0.2-1.6l0.1,0.6l0.1-0.2l0.4-10.1l0.1,0.6l0.5,13l0.1-0.5l0.1-0.6l0.1,2.3l0.1-0.6l0.2-1.3l0.1-0.1l0.2-1.6l0.2-2l0.2,3
						l0.1,0.2l0.1,2.1l0.1-0.4l0.2,2l0.2-2.9l0.2,1.5l0.1-0.3l0.1,0.9l0.4-5.2l0.1,0.2l0.2,3.9l0.1-0.6l0.1,1.8l0.1-1l0.1,0.4
						l0.1,1.1l0.1-0.3l0.2,1.3l0.1-1.8l0.2,1.2l0.1,0.1l0.1,0.9l0.2-3.7h0.1l0.1,0.6l0.3-5.4l0.2-7.8l0.4,11.9l0.1-2.7l0.2,5.2
						l0.2-0.2l0.2,1.9l0.1-2.6l0.1,2l0.1,0l0.1-1l0.1,0.9l0.2-3.4l0.2,2.4l0.1-0.1l0.1,0.8l0.1-0.8l0.2,2.2l0.1-1.1l0.1,0.1l0.1,0.3
						l0.1-1.1l0.1,0.2l0.1,0.3l0.1,0l0.2-2.3l0.1,1.9l0.2-4l0.3,4.5l0.1,0.2l0.1-0.4l0.2,1.6l0.1,0.1l0.1-0.4l0.1,0.3l0.2-0.9
						l0.2,0.7l0.2-4.4l0.1,0.4l0.1-1l0.2,4.9l0.3-1.8l0.1,1.5l0.1-3.5l0.1,2.1l0.2-3.2l0.1-0.8l0.1,0.9l0.2,4l0.1,1.2l0.1-1.4l0.1,2
						l0.1-0.8l0.1,0.4l0.2-0.7l0.1,0.2l0.1-1.7l0.1,2.8l0.1-1.8l0.1,0.6l0.1,1.1l0.1-1.4l0.1,0.5l0.1,0.8l0.1-1.4l0.1,0.1l0.1,1.5
						l0.1-0.6l0.1-1.4l0.1,0.3l0.1,0.6l0.2-1.1l0.2,2.1l0.1-0.2l0.2-0.1l0.2-1.7l0.1,0.4l0.1,0.3l0.1,0.8l0.2-3l0.1-1.2l0.4,3.1
						l0.2-3.9l0.1,2l0.2-3.3l0.4-6.1l0.2,4l0.1-0.4l0.2,4.1l0.1,0.7l0.3-1.8l0.1,0l0.2-2.6l0.2-12.6l0.5,15.1l0.3-4.2l0.2-3.4
						l0.2,3.7l0.1-0.4l0.2,1.1l0.2-13l0.2,10.9l0.1-1.8l0.2,7.5l0.1,0.1l0.2-8.3l0.2-15.6l0.2-22.8l0.5,46.6l0.1,1.7l0.1-0.1
						l0.3,2.9l0.1-0.9l0.1,0.3l0.1,0.6l0.1-1.3l0.1,1l0.1-1.6l0.1,0.4l0.1,0.2l0.1,0.8l0.1-2.2l0.2,3.3l0.2-0.6l0.1,1.4l0.1-0.3
						l0.1-0.3l0.2-4.4l0.2-2.4l0.2-1.9l0.1,0.2l0.2-5.6l0.2,6.1l0.2-5.4l0.2,5.9l0.2-1.5l0.1,2.1l0.2-4.7l0.6,13.1l0.2-0.9l0.1-1.7
						l0.1,0.3l0.1-0.9l0.2-8.7l0.2-6.4l0.2,5.1l0.5,10.3l0.2-2.9l0.1,0.5l0.1-0.1l0.2-2.6l0.1,0l0.2-3l0.1,0.9l0.4-4.9l0.1-2.8
						l0.1,1.7l0.1-1.8l0.2,2.4l0.1-1.3l0.1,1.7l0.2-3.6l0.3-10.6l0.3,11.6l0.2,7.9l0.1-0.8l0.1,0.4l0.1-2.3l0.5,6.9l0.1-0.4l0.2,1.4
						l0.2-1.3l0.1,1.1l0.1-1.5l0.1,2.1l0.1-2l0.1,0.7l0.1-1.4l0.2,3.8l0.2-2.5l0.2,2.1l0.1-1.1l0.1-1.5l0.1,0.6l0.4,2.6l0.1-0.1
						l0.1-0.3l0.1,0.1l0.2,3.4l0.2-1.3l0.2-0.6l0.2-10.1l0.1,10.3l0.1-1.1l0.1-3.5l0.2,6.8l0.2,0.3l0.2-2.6l0.2,1.5l0.1-1.7l0.2,2
						l0.1-0.4l0.1,0l0.1,0.9l0.1-0.6l0.1,1.3l0.1-0.5l0.1-0.5l0.1,0.1l0.2,0.6l0.2-1.2l0.2-0.9l0.2,2.2l0.2-0.8l0.2,1.8l0.2-0.9
						l0.1,1.5l0.1-0.7l0.1-0.2l0.2-3.5l0.1,0.1l0.2-4.1l0.1-0.3l0.1-1l0.1,2.3l0.1-0.3l0.2,3.9l0.2,3.7l0.1-0.6l0.1,0l0.1-0.2
						l0.2-3.6l0.1,2.7l0.1-1.7l0.1,0.8l0.1-0.2l0.1,0.2l0.2-1.5l0.2,4.2l0.1-1.7l0.2,2.1l0.2-0.8l0.1,0.6l0.1-1.3l0.1,2.1l0.2-2.8
						l0.1,0.2l0.1-0.6l0.2-2.8l0.1,0l0.2,3.6l0.1-0.8l0.2,2.5l0.1-0.2l0.1,0l0.2,1.6l0.2-0.6l0.1,0.5l0.1-1.2l0.1,0.7l0.2-2.9
						l0.2,1.9l0.3-5.8l0.1-1.6l0.3,5l0.1,0.5l0.1-0.8l0.2,2.5l0.2-0.8l0.1-0.1l0.1,0.6l0.2-3l0.2,3l0.1-0.2l0.1,0l0.1-0.7l0.2,2.8
						l0.1-1.8l0.1,0.7l0.1-1.3l0.1,0l0.1-0.1l0.2-3.9l0.2,5.1l0.2,0.2l0.2,2.2l0.1-0.2l0.1,0.1l0.1,0.6l0.2-2.6l0.1,0.5l0.1,0.6
						l0.2-1.8l0.2,2.7l0.1-0.3l0.1-0.4l0.1,0.6l0.1,1.7l0.1-0.2l0.1-0.1l0.1-0.4l0.1,1l0.1-1.1l0.1,1.6l0.2-2.3l0.1,0.7l0.1-0.5
						l0.1,1.3l0.1-0.6l0.1,1.3l0.1-1.3l0.1,0.3l0.1,0.5l0.4-8.2l0.1-0.4l0.2,3.6l0.1,0l0.1,0.3l0.3,4.6l0.1-1l0.1,1.3l0.2-0.7
						l0.2,1.1l0.2-0.9l0.2,1.1l0.1-0.5l0.1,0.6l0.1-0.3l0.1-0.2l0.1-1.4l0.2,0.9l0.3-3.9l0.2,2.8l0.1-1.2l0.2,3l0.1-0.2l0.1-0.6
						l0.1,0.1l0.1,0l0.2-1.4l0.1,0.8l0.2-2.6l0.2,3.5l0.1-0.4l0.1-1.1l0.1,0.4l0.2,0.6l0.1-1.2l0.1,0.2l0.2-0.4l0.1,0.3l0.1,0.8
						l0.1-0.8l0.1,1.6l0.1-0.6l0.1,0.5l0.1-0.6l0.1,1.1l0.1-0.1l0.1-0.2l0.1,0.1l0.1,0.1l0.1,1.1l0.1-0.3l0.2-0.1l0.1,0.1l0.1,0.5
						l0.2-1l0.1,0l0.2,0.1l0.1-0.7l0.1,0.4l0.2-0.8l0.1-0.1l0.1-0.4l0.2-3.6l0.2-1.9l0.2,3.3l0.1-1.6l0.3,4.5l0.1-0.6l0.2,1.4
						l0.1-0.5l0.1,0.1l0.2,1.3l0.2-3l0.1,1.7l0.2-3.8l0.1,0.5l0.1-1.7l0.2,3.4l0.2-1.7l0.1,0.4l0.1-0.1l0.2,0.3l0.1,0.2l0.2-3.2
						l0.1,0.3l0.2,2l0.2-2.9l0.1,0.5l0.1,3l0.1-0.1l0.1-1.3l0.1,0.1l0.1,0.4l0.2-2.7l0.1,1.2l0.1-0.6l0.2,2.1l0.1-2.5l0.2,1.3
						l0.1,0.4l0.1-1.1l0.2,1.6l0.2-3l0.2,2.1l0.2,1.9l0.1-0.3l0.1-0.7l0.3,3.3l0.1-0.8l0.1,1.5l0.1-1.3l0.1,0.8l0.1-0.6l0.1,0.2
						l0.1,0.1l0.1-0.3l0.1,0.8l0.1-2l0.1,1.2l0.1-0.7l0.1,0.5l0.1-0.9l0.2,1l0.1-0.2l0.2-3l0.1,0.8l0.1-0.8l0.2,1.7l0.3-3l0.2,4.2
						l0.1-0.2l0.1-0.7l0.1,0.1l0.2,1.8l0.3-2.4l0.1,0.8l0.1-0.4l0.1-1.2l0.1,0.1l0.2,1.5l0.2-2.8l0.7,4l0.1,0.1l0.1-0.9l0.2,1.5
						l0.1-0.8l0.2,1.7l0.2-1.2l0.2,1l0.1,0.3l0.1-0.2l0.1,0.8l0.1-0.9l0.2,0.7l0.1-0.8l0.1,0.6l0.1-0.2h0.1l0.1-0.8l0.1,0.3l0.2-0.1
						l0.2,0.7l0.1-0.5l0.1,0.3l0.4-3l0.1,0.2l0.2,1.6l0.1,0.1l0.1,0.4l0.1-0.3l0.2,1.8l0.1,0.5l0.5-4.4l0.2,2l0.1-1.2l0.3,3.6
						l0.2-0.8l0.1,0l0.1,1.1l0.1-0.6l0.1,1.5l0.1-1.1l0.1,0.6l0.1-1l0.1,0.5l0.2-0.8l0.1,0.5l0.1-0.5l0.1,0.4l0.1,0.9l0.1-0.9
						l0.1,0.7l0.1-0.2l0.2-0.3l0.1,0.1l0.2-0.6l0.1,0.6l0.2-0.7l0.1,0.3l0.1,0.7l0.1-0.8l0.1,0.5l0.1-0.1l0.2-1.4l0.1,0.2l0.2,1.3
						l0.2-1.3l0.2,1.8l0.1,0.8l0.1-0.2l0.2,0.9l0.1-0.2l0.1-1.2l0.2,1l0.1-1.6l0.1,1l0.3-3.7l0.2,2.4l0.1-0.8l0.1,0.4l0.1,1.3
						l0.1-0.6l0.2,1.3l0.1-0.5l0.1,0.1l0.2,0.5l0.1-0.1l0.1-0.6l0.2,1.4l0.1-1.1l0.1,0.8l0.1-0.4l0.2,0.2l0.1-0.1l0.2-1l0.1,0.5
						l0.1-0.1l0.1,0.1l0.1,0.2l0.1-0.1l0.1,0.5l0.5-1.6l0.3,1.7l0.1-0.5l0.1,0.1l0.1,0.5l0.1-0.8l0.1,1.6l0.1-0.7l0.1,0.8l0.1-0.7
						l0.1-2.2l0.2,2.8l0.2-1.2l0.1-0.2l0.1,0.1l0.2,1.1l0.1-1.1l0.1,0.3l0.1,1.1l0.2-1.3l0.1,1.2l0.1-0.3l0.2,0.4l0.2-1.7l0.2-1.8
						l0.1,0.2l0.1,1l0.2-1.7l0.1,0.1l0.2,1.9l0.1-0.5l0.2,0.7l0.2,0.6l0.1-0.5l0.1-1.2l0.1-5.7l0.2,6.7l0.1,0.7l0.1-0.6l0.1-2.7
						l0.1,0.5l0.2,2.3l0.2-0.6l0.1,0l0.2,0.4l0.1,0.9l0.1-0.3l0.1,0.4l0.1-1l0.2,1.6l0.2-1.6l0.1,0.9l0.1-0.8l0.1,1.2l0.1-0.3
						l0.1-0.9l0.1,0.3l0.1-0.3l0.2,1.2l0.1,0.2l0.2-0.9l0.1,0.4l0.1,1.1l0.1-0.9l0.1,0.5l0.1-0.3l0.1,0.7l0.1-0.2l0.2-0.1l0.1,0.7
						l0.2-0.8l0.2,1l0.2-1.1l0.1,0.7l0.2-3.5l0.1-3.5l0.2,4l0.2-2.1l0.1,3l0.1-0.1l0.1,0.9l0.1-1.5l0.1,0.4l0.1,2.2l0.1-0.8l0.1,0
						l0.1,0.4l0.1-0.4l0.1,0.2l0.1-0.2l0.1,0.3l0.1-0.1l0.1,0.2l0.1,0.8l0.2-0.7l0.1,0.5l0.2-2.7l0.2,3.7l0.1-1l0.1-0.2l0.1-1.8
						l0.1,0.7l0.2,0.7l0.2-0.8l0.1-1.3l0.2,2.5l0.1,0.1l0.2-0.9l0.2,1.8l0.2-1l0.2,1.1l0.2-0.1l0.1-0.7l0.1,0.4l0.1-1.6l0.1,0.8
						l0.2-0.9l0.1,1.2l0.1-0.4l0.1,0.4l0.1-1l0.2,1l0.1-1.2l0.2,1.4l0.1-0.1l0.1,0.5l0.1-0.4l0.1,0.1l0.2-0.5l0.1,0.8l0.1-0.4
						l0.1,0.6l0.1-1.1l0.1,0l0.2,1.6l0.1-0.2l0.1,0l0.2-1.3l0.2,1.4l0.1-0.8l0.1,0l0.1-0.4l0.1,0.7l0.1-0.1l0.1-0.7l0.1,0.1l0.1,0.2
						l0.2,1.7l0.1-1.5l0.1,0.4l0.1,0l0.2,0.7l0.2-0.8l0.1,0.1l0.1-0.2l0.1-0.5l0.2,1.5l0.1-1.2l0.1,0.6l0.1-0.2l0.2,0.4l0.1-0.1
						l0.1,0.3l0.2-1l0.1,0.1l0.1-0.2l0.1,0.1l0.2-1.5l0.2,1.8l0.2-1.1l0.1,0.4l0.1-0.2l0.1,0.4l0.1-0.7l0.1,1.1l0.1-0.7l0.1,0.5
						l0.2-0.4l0.1,0l0.2,0.4l0.2-1.3l0.1,0.4l0.2-1.5l0.1,0.4l0.1,1.7l0.1-0.5l0.2-0.6l0.2,1.6l0.1,0.4l0.1-0.9l0.2,1.1l0.1-0.2
						l0.2-0.7l0.1,0.4l0.1-0.4l0.1,0.6l0.2-0.4h0.1l0.1,0.8l0.1-0.1l0.1,0.3l0.1-0.9l0.1,0.6l0.1-0.3l0.1-0.2l0.1,0.3l0.1-0.6
						l0.1,0.6l0.1-0.2l0.2,0.3l0.1,0l0.1,0.2l0.3-0.6l0.1,0.1l0.2-1.6l0.1,0.3l0.2,1.4l0.2-0.8l0.1-0.6l0.1,0.8l0.1-0.3l0.2,0.5
						l0.1-0.4l0.1,0.8l0.1-0.7l0.1,0l0.1,0.7l0.1-0.2l0.1-0.7l0.1,0.2l0.1,0.1l0.2-0.4l0.1-0.9l0.1,0.4l0.1-0.7l0.1,0.2l0.1,0.2
						l0.1-0.7l0.1,0.3l0.1,0.1l0.1,0.5l0.2-1.4l0.1,0.6l0.1-1.1l0.2,1.5l0.1-0.6l0.1,0.4l0.1-0.2l0.1,0l0.1,0.8l0.1-2l0.1,0.5
						l0.1-0.8l0.1,0.5l0.1-0.3l0.1,0.2l0.1-0.8l0.1,0.8l0.2-1.3l0.1-0.7l0.1,1.3l0.1-0.4l0.1,0.1l0.2-1.2l0.1-0.6l0.2,0.7l0.2-1
						l0.1,0.3l0.1,0.2l0.1-0.2l0.1-1.1l0.2-3.4l0.1,1l0.2,2.8l0.1,0.1l0.2-1.7l0.2,2.5l0.1-1.3l0.1,1l0.1-1.1l0.2,1.7l0.1-0.5
						l0.2,1.3l0.2-0.8l0.1,1l0.1-0.4l0.1-0.5l0.1,0.7l0.2-0.4l0.2,1.1l0.1-0.9l0.1,0.2l0.1-0.4l0.2,2.3l0.1-1.7l0.2,2.1l0.2-0.9
						l0.2,0.9l0.2-0.8l0.3,2.1l0.2-1.7l0.1,0.9l0.1-1.4l0.1,0.3l0.1,0.1l0.1-0.6l0.1,1.7l0.1-0.9l0.1,1.3l0.1-1.4l0.2,1.6l0.1,0
						l0.1-0.3l0.1,0.8l0.1-0.1l0.1,0.2l0.1-0.3l0.2,0.2l0.1,1.1l0.1-0.4l0.2-0.3l0.1,0.4l0.1-0.2l0.1-0.7l0.2,1.2l0.1,0.3l0.1-1
						l0.1,0.3l0.2-0.2l0.1,1.4l0.1-0.2l0.1-1.3l0.2,1.3l0.1,0l0.1-0.5l0.1,0.6l0.2-1.8l0.3,1.5l0.2-1.4l0.1,1l0.1-0.5l0.1,0.4
						l0.1-0.6l0.1,0.4l0.1-0.5l0.1,0.6l0.1-0.6l0.2,0.8l0.1,0.1l0.1-0.1l0.1,0.1l0.1-0.2l0.1,0.6l0.1-0.5l0.1,0.8l0.1-0.7l0.1,0.7
						l0.1-0.4l0.1,0.1l0.2-0.1l0.1,1.1l0.1-1.2l0.1,0.5l0.2-1.9l0.1,0.3l0.2,1.2l0.2-0.3l0.1,0.4l0.2-2.2l0,0"/>
				</g>
			</g>
			<g id="patch_3">
				<path class="st7" d="M23.4,143.1V7.2"/>
			</g>
			<g id="patch_4">
				<path class="st7" d="M199.2,143.1V7.2"/>
			</g>
			<g id="patch_5">
				<path class="st7" d="M23.4,143.1h175.8"/>
			</g>
			<g id="patch_6">
				<path class="st7" d="M23.4,7.2h175.8"/>
			</g>
			<g id="legend_1">
				<g id="patch_7">
					<path class="st8" d="M116.2,73.9h76c1.3,0,2-0.7,2-2V14.2c0-1.3-0.7-2-2-2h-76c-1.3,0-2,0.7-2,2v57.7
						C114.2,73.2,114.8,73.9,116.2,73.9z"/>
				</g>
				<g id="line2d_34">
					<path class="st9" d="M118.2,20.3h10h10"/>
				</g>
				<g id="text_9">
					<g transform="translate(146.163125 23.798438)scale(0.1 -0.1)">
						<g>
							<path id="DejaVuSans-32_00000108277644244231783480000012175663026194017931_" d="M19.2,8.3h34.4V0H7.3v8.3
								c3.7,3.9,8.8,9.1,15.3,15.6c6.5,6.5,10.5,10.7,12.2,12.6c3.2,3.5,5.4,6.5,6.6,9c1.3,2.5,1.9,4.9,1.9,7.2c0,3.9-1.4,7-4.1,9.5
								c-2.7,2.4-6.3,3.7-10.6,3.7c-3.1,0-6.4-0.5-9.8-1.6c-3.4-1.1-7.1-2.7-11-4.9v10c4,1.6,7.7,2.8,11.1,3.6
								c3.5,0.8,6.6,1.2,9.5,1.2c7.6,0,13.6-1.9,18.1-5.7c4.5-3.8,6.7-8.8,6.7-15.1c0-3-0.6-5.8-1.7-8.5c-1.1-2.7-3.2-5.8-6.1-9.5
								c-0.8-0.9-3.4-3.7-7.8-8.2C33.3,22.7,27.1,16.4,19.2,8.3z"/>
						</g>
						<g>
							<path id="DejaVuSans-38" d="M95.4,34.6c-4.7,0-8.4-1.3-11.1-3.8c-2.7-2.5-4-6-4-10.3c0-4.4,1.3-7.8,4-10.4
								c2.7-2.5,6.4-3.8,11.1-3.8s8.4,1.3,11.1,3.8c2.7,2.5,4.1,6,4.1,10.3c0,4.4-1.3,7.8-4,10.3C103.8,33.4,100.1,34.6,95.4,34.6z
								 M85.5,38.8c-4.2,1-7.5,3-9.9,5.9c-2.4,2.9-3.5,6.4-3.5,10.6c0,5.8,2.1,10.4,6.2,13.8c4.2,3.4,9.8,5.1,17.1,5.1
								c7.3,0,13-1.7,17.1-5.1c4.1-3.4,6.2-8,6.2-13.8c0-4.2-1.2-7.7-3.5-10.6c-2.4-2.9-5.6-4.9-9.8-5.9c4.8-1.1,8.4-3.3,11.1-6.5
								c2.7-3.2,4-7.2,4-11.8c0-7.1-2.2-12.5-6.5-16.3c-4.3-3.8-10.5-5.7-18.5-5.7c-8,0-14.2,1.9-18.5,5.7
								c-4.3,3.8-6.5,9.2-6.5,16.3c0,4.6,1.3,8.6,4,11.8C77.1,35.5,80.8,37.7,85.5,38.8z M81.9,54.4c0-3.8,1.2-6.7,3.5-8.8
								c2.4-2.1,5.7-3.2,9.9-3.2c4.2,0,7.6,1.1,9.9,3.2c2.4,2.1,3.6,5.1,3.6,8.8c0,3.8-1.2,6.7-3.6,8.8c-2.4,2.1-5.7,3.2-9.9,3.2
								c-4.3,0-7.6-1.1-9.9-3.2C83.1,61.1,81.9,58.2,81.9,54.4z"/>
						</g>
						<g>
							<path id="DejaVuSans-20_00000174587747364880438210000011489223254323006355_" d="M127.2,0"/>
						</g>
						<g>
							<path id="DejaVuSans-64_00000106144155308468915290000008326019660503283338_" d="M204.4,46.4V76h9V0h-9v8.2
								c-1.9-3.2-4.3-5.7-7.2-7.2c-2.9-1.6-6.3-2.4-10.4-2.4c-6.6,0-12,2.6-16.1,7.9c-4.1,5.3-6.2,12.2-6.2,20.8s2.1,15.5,6.2,20.8
								c4.2,5.3,9.5,7.9,16.1,7.9c4,0,7.5-0.8,10.4-2.4C200.2,52.1,202.6,49.6,204.4,46.4z M173.8,27.3c0-6.6,1.4-11.8,4.1-15.5
								s6.5-5.6,11.2-5.6s8.5,1.9,11.2,5.6c2.7,3.8,4.1,8.9,4.1,15.5s-1.4,11.8-4.1,15.5c-2.7,3.8-6.5,5.6-11.2,5.6
								s-8.5-1.9-11.2-5.6S173.8,33.9,173.8,27.3z"/>
						</g>
						<g>
							<path id="DejaVuSans-61_00000055699603996391677700000016737766757726641835_" d="M256.8,27.5c-7.3,0-12.3-0.8-15.1-2.5
								s-4.2-4.5-4.2-8.5c0-3.2,1.1-5.7,3.2-7.6c2.1-1.9,5-2.8,8.6-2.8c5,0,9,1.8,12,5.3c3,3.5,4.5,8.2,4.5,14.1v2H256.8z
								 M274.7,31.2V0h-9v8.3c-2.1-3.3-4.6-5.8-7.7-7.3c-3.1-1.6-6.8-2.4-11.2-2.4c-5.6,0-10,1.6-13.4,4.7c-3.3,3.1-5,7.4-5,12.6
								c0,6.1,2.1,10.8,6.2,13.9c4.1,3.1,10.3,4.7,18.4,4.7h12.6v0.9c0,4.1-1.4,7.3-4.1,9.6s-6.5,3.4-11.5,3.4
								c-3.1,0-6.2-0.4-9.1-1.1c-3-0.8-5.8-1.9-8.5-3.4v8.3c3.3,1.3,6.5,2.2,9.6,2.8c3.1,0.6,6.1,1,9,1c7.9,0,13.8-2.1,17.7-6.2
								C272.8,45.8,274.7,39.5,274.7,31.2z"/>
						</g>
						<g>
							<path id="DejaVuSans-79_00000060719373525056456890000008694905414408583332_" d="M316-5.1c-2.5-6.5-5-10.8-7.4-12.7
								c-2.4-2-5.6-3-9.7-3h-7.2v7.5h5.3c2.5,0,4.4,0.6,5.8,1.8c1.4,1.2,2.9,3.9,4.5,8.3l1.6,4.1l-22.1,53.8h9.5l17.1-42.8
								l17.1,42.8h9.5L316-5.1z"/>
						</g>
						<g>
							<path id="DejaVuSans-73_00000112606298602493241980000006268898984194245780_" d="M387.3,53.1v-8.5c-2.5,1.3-5.2,2.3-7.9,2.9
								c-2.7,0.7-5.6,1-8.5,1c-4.5,0-7.8-0.7-10-2c-2.2-1.4-3.3-3.4-3.3-6.2c0-2.1,0.8-3.7,2.4-4.9s4.8-2.3,9.6-3.4l3.1-0.7
								c6.4-1.4,10.9-3.3,13.6-5.8s4-6,4-10.4c0-5.1-2-9.1-6-12.1c-4-3-9.5-4.4-16.6-4.4c-2.9,0-6,0.3-9.2,0.9
								c-3.2,0.6-6.5,1.4-10,2.6v9.3c3.3-1.7,6.6-3,9.8-3.9c3.2-0.9,6.4-1.3,9.6-1.3c4.2,0,7.5,0.7,9.8,2.2c2.3,1.4,3.4,3.5,3.4,6.1
								c0,2.4-0.8,4.3-2.5,5.6c-1.6,1.3-5.2,2.6-10.8,3.8l-3.1,0.7c-5.6,1.2-9.6,3-12.1,5.4c-2.5,2.4-3.7,5.8-3.7,10
								c0,5.1,1.8,9.1,5.5,11.9c3.6,2.8,8.8,4.2,15.5,4.2c3.3,0,6.4-0.2,9.4-0.7C382.1,54.8,384.8,54.1,387.3,53.1z"/>
						</g>
					</g>
				</g>
				<g id="line2d_35">
					<path class="st10" d="M118.2,35h10h10"/>
				</g>
				<g id="text_10">
					<g transform="translate(146.163125 38.476562)scale(0.1 -0.1)">
						<g>
							<path id="DejaVuSans-31_00000031200579442673539560000018206526557306198967_" d="M12.4,8.3h16.1v55.6L11,60.4v9l17.4,3.5
								h9.9V8.3h16.1V0h-42V8.3z"/>
						</g>
						<g>
							<path id="DejaVuSans-34_00000183246165686915551780000003096213925922888841_" d="M101.4,64.3L76.5,25.4h24.9V64.3z
								 M98.8,72.9h12.4V25.4h10.4v-8.2h-10.4V0h-9.8v17.2H68.5v9.5L98.8,72.9z"/>
						</g>
						<g>
							<path id="DejaVuSans-20_00000050623644173553730240000006552274412397424515_" d="M127.2,0"/>
						</g>
						<g>
							<path id="DejaVuSans-64_00000165951696340171279690000002305144900191882686_" d="M204.4,46.4V76h9V0h-9v8.2
								c-1.9-3.2-4.3-5.7-7.2-7.2c-2.9-1.6-6.3-2.4-10.4-2.4c-6.6,0-12,2.6-16.1,7.9c-4.1,5.3-6.2,12.2-6.2,20.8s2.1,15.5,6.2,20.8
								c4.2,5.3,9.5,7.9,16.1,7.9c4,0,7.5-0.8,10.4-2.4C200.2,52.1,202.6,49.6,204.4,46.4z M173.8,27.3c0-6.6,1.4-11.8,4.1-15.5
								s6.5-5.6,11.2-5.6s8.5,1.9,11.2,5.6c2.7,3.8,4.1,8.9,4.1,15.5s-1.4,11.8-4.1,15.5c-2.7,3.8-6.5,5.6-11.2,5.6
								s-8.5-1.9-11.2-5.6S173.8,33.9,173.8,27.3z"/>
						</g>
						<g>
							<path id="DejaVuSans-61_00000080921296231705278590000008099614664343543699_" d="M256.8,27.5c-7.3,0-12.3-0.8-15.1-2.5
								s-4.2-4.5-4.2-8.5c0-3.2,1.1-5.7,3.2-7.6c2.1-1.9,5-2.8,8.6-2.8c5,0,9,1.8,12,5.3c3,3.5,4.5,8.2,4.5,14.1v2H256.8z
								 M274.7,31.2V0h-9v8.3c-2.1-3.3-4.6-5.8-7.7-7.3c-3.1-1.6-6.8-2.4-11.2-2.4c-5.6,0-10,1.6-13.4,4.7c-3.3,3.1-5,7.4-5,12.6
								c0,6.1,2.1,10.8,6.2,13.9c4.1,3.1,10.3,4.7,18.4,4.7h12.6v0.9c0,4.1-1.4,7.3-4.1,9.6s-6.5,3.4-11.5,3.4
								c-3.1,0-6.2-0.4-9.1-1.1c-3-0.8-5.8-1.9-8.5-3.4v8.3c3.3,1.3,6.5,2.2,9.6,2.8c3.1,0.6,6.1,1,9,1c7.9,0,13.8-2.1,17.7-6.2
								C272.8,45.7,274.7,39.5,274.7,31.2z"/>
						</g>
						<g>
							<path id="DejaVuSans-79_00000137131431516115781890000007529255544666239134_" d="M316-5.1c-2.5-6.5-5-10.8-7.4-12.7
								c-2.4-2-5.6-3-9.7-3h-7.2v7.5h5.3c2.5,0,4.4,0.6,5.8,1.8c1.4,1.2,2.9,3.9,4.5,8.3l1.6,4.1l-22.1,53.8h9.5l17.1-42.8
								l17.1,42.8h9.5L316-5.1z"/>
						</g>
						<g>
							<path id="DejaVuSans-73_00000172427569008955629440000004791111952435816576_" d="M387.3,53.1v-8.5c-2.5,1.3-5.2,2.3-7.9,2.9
								c-2.7,0.7-5.6,1-8.5,1c-4.5,0-7.8-0.7-10-2c-2.2-1.4-3.3-3.4-3.3-6.2c0-2.1,0.8-3.7,2.4-4.9s4.8-2.3,9.6-3.4l3.1-0.7
								c6.4-1.4,10.9-3.3,13.6-5.8s4-6,4-10.4c0-5.1-2-9.1-6-12.1c-4-3-9.5-4.4-16.6-4.4c-2.9,0-6,0.3-9.2,0.9
								c-3.2,0.6-6.5,1.4-10,2.6v9.3c3.3-1.7,6.6-3,9.8-3.9c3.2-0.9,6.4-1.3,9.6-1.3c4.2,0,7.5,0.7,9.8,2.2c2.3,1.4,3.4,3.5,3.4,6.1
								c0,2.4-0.8,4.3-2.5,5.6c-1.6,1.3-5.2,2.6-10.8,3.8l-3.1,0.7c-5.6,1.2-9.6,3-12.1,5.4c-2.5,2.4-3.7,5.8-3.7,10
								c0,5.1,1.8,9.1,5.5,11.9c3.6,2.8,8.8,4.2,15.5,4.2c3.3,0,6.4-0.2,9.4-0.7C382.1,54.8,384.8,54.1,387.3,53.1z"/>
						</g>
					</g>
				</g>
				<g id="line2d_36">
					<path class="st11" d="M118.2,49.7h10h10"/>
				</g>
				<g id="text_11">
					<g transform="translate(146.163125 53.154688)scale(0.1 -0.1)">
						<g>
							<path id="DejaVuSans-37" d="M8.2,72.9h46.9v-4.2L28.6,0H18.3l24.9,64.6h-35V72.9z"/>
						</g>
						<g>
							<path id="DejaVuSans-20_00000018943829516276127590000003882362817754911888_" d="M63.6,0"/>
						</g>
						<g>
							<path id="DejaVuSans-64_00000165919944141553223420000018204995752042948490_" d="M140.8,46.4V76h9V0h-9v8.2
								c-1.9-3.2-4.3-5.7-7.2-7.2c-2.9-1.6-6.3-2.4-10.4-2.4c-6.6,0-12,2.6-16.1,7.9c-4.1,5.3-6.2,12.2-6.2,20.8s2.1,15.5,6.2,20.8
								c4.2,5.3,9.5,7.9,16.1,7.9c4,0,7.5-0.8,10.4-2.4C136.5,52.1,138.9,49.6,140.8,46.4z M110.2,27.3c0-6.6,1.4-11.8,4.1-15.5
								s6.5-5.6,11.2-5.6s8.5,1.9,11.2,5.6c2.7,3.8,4.1,8.9,4.1,15.5s-1.4,11.8-4.1,15.5c-2.7,3.8-6.5,5.6-11.2,5.6
								s-8.5-1.9-11.2-5.6S110.2,33.9,110.2,27.3z"/>
						</g>
						<g>
							<path id="DejaVuSans-61_00000144320302743881401510000010165015970826618505_" d="M193.2,27.5c-7.3,0-12.3-0.8-15.1-2.5
								s-4.2-4.5-4.2-8.5c0-3.2,1.1-5.7,3.2-7.6c2.1-1.9,5-2.8,8.6-2.8c5,0,9,1.8,12,5.3s4.5,8.2,4.5,14.1v2H193.2z M211.1,31.2V0
								h-9v8.3c-2.1-3.3-4.6-5.8-7.7-7.3s-6.8-2.4-11.2-2.4c-5.6,0-10,1.6-13.4,4.7c-3.3,3.1-5,7.4-5,12.6c0,6.1,2.1,10.8,6.2,13.9
								c4.1,3.1,10.3,4.7,18.4,4.7h12.6v0.9c0,4.1-1.4,7.3-4.1,9.6s-6.5,3.4-11.5,3.4c-3.1,0-6.2-0.4-9.1-1.1
								c-3-0.8-5.8-1.9-8.5-3.4v8.3c3.3,1.3,6.5,2.2,9.6,2.8c3.1,0.6,6.1,1,9,1c7.9,0,13.8-2.1,17.7-6.2
								C209.1,45.8,211.1,39.5,211.1,31.2z"/>
						</g>
						<g>
							<path id="DejaVuSans-79_00000059285040337475774690000001189872846212064413_" d="M252.3-5.1c-2.5-6.5-5-10.8-7.4-12.7
								c-2.4-2-5.6-3-9.7-3h-7.2v7.5h5.3c2.5,0,4.4,0.6,5.8,1.8c1.4,1.2,2.9,3.9,4.5,8.3l1.6,4.1l-22.1,53.8h9.5l17.1-42.8
								l17.1,42.8h9.5L252.3-5.1z"/>
						</g>
						<g>
							<path id="DejaVuSans-73_00000096777584745373161870000011793455987537428627_" d="M323.6,53.1v-8.5c-2.5,1.3-5.2,2.3-7.9,2.9
								c-2.7,0.7-5.6,1-8.5,1c-4.5,0-7.8-0.7-10-2c-2.2-1.4-3.3-3.4-3.3-6.2c0-2.1,0.8-3.7,2.4-4.9s4.8-2.3,9.6-3.4l3.1-0.7
								c6.4-1.4,10.9-3.3,13.6-5.8s4-6,4-10.4c0-5.1-2-9.1-6-12.1c-4-3-9.5-4.4-16.6-4.4c-2.9,0-6,0.3-9.2,0.9
								c-3.2,0.6-6.5,1.4-10,2.6v9.3c3.3-1.7,6.6-3,9.8-3.9c3.2-0.9,6.4-1.3,9.6-1.3c4.2,0,7.5,0.7,9.8,2.2c2.3,1.4,3.4,3.5,3.4,6.1
								c0,2.4-0.8,4.3-2.5,5.6c-1.6,1.3-5.2,2.6-10.8,3.8l-3.1,0.7c-5.6,1.2-9.6,3-12.1,5.4c-2.5,2.4-3.7,5.8-3.7,10
								c0,5.1,1.8,9.1,5.5,11.9c3.6,2.8,8.8,4.2,15.5,4.2c3.3,0,6.4-0.2,9.4-0.7C318.5,54.8,321.2,54.1,323.6,53.1z"/>
						</g>
					</g>
				</g>
				<g id="line2d_37">
					<path class="st12" d="M118.2,64.3h10h10"/>
				</g>
				<g id="text_12">
					<g transform="translate(146.163125 67.832813)scale(0.1 -0.1)">
						<g>
							<path id="DejaVuSans-32_00000034058516608990085680000009857083640881883314_" d="M19.2,8.3h34.4V0H7.3v8.3
								c3.7,3.9,8.8,9.1,15.3,15.6c6.5,6.5,10.5,10.7,12.2,12.6c3.2,3.5,5.4,6.5,6.6,9c1.3,2.5,1.9,4.9,1.9,7.2c0,3.9-1.4,7-4.1,9.5
								c-2.7,2.4-6.3,3.7-10.6,3.7c-3.1,0-6.4-0.5-9.8-1.6c-3.4-1.1-7.1-2.7-11-4.9v10c4,1.6,7.7,2.8,11.1,3.6
								c3.5,0.8,6.6,1.2,9.5,1.2c7.6,0,13.6-1.9,18.1-5.7c4.5-3.8,6.7-8.8,6.7-15.1c0-3-0.6-5.8-1.7-8.5c-1.1-2.7-3.2-5.8-6.1-9.5
								c-0.8-0.9-3.4-3.7-7.8-8.2C33.3,22.7,27.1,16.4,19.2,8.3z"/>
						</g>
						<g>
							<path id="DejaVuSans-34_00000135668562344194821700000006272111217306832774_" d="M101.4,64.3L76.5,25.4h24.9V64.3z
								 M98.8,72.9h12.4V25.4h10.4v-8.2h-10.4V0h-9.8v17.2H68.5v9.5L98.8,72.9z"/>
						</g>
						<g>
							<path id="DejaVuSans-20_00000178905366125122854650000008577337578654903441_" d="M127.2,0"/>
						</g>
						<g>
							<path id="DejaVuSans-68_00000100353191160434781910000016595474711417417635_" d="M213.9,33V0h-9v32.7c0,5.2-1,9-3,11.6
								c-2,2.6-5,3.9-9.1,3.9c-4.9,0-8.7-1.5-11.5-4.6c-2.8-3.1-4.2-7.3-4.2-12.6V0h-9v76h9V46.2c2.2,3.3,4.7,5.8,7.6,7.4
								c2.9,1.6,6.3,2.4,10.1,2.4c6.3,0,11-1.9,14.2-5.8C212.3,46.3,213.9,40.6,213.9,33z"/>
						</g>
						<g>
							<path id="DejaVuSans-6f_00000142158108772265386820000013555670504929535640_" d="M253,48.4c-4.8,0-8.6-1.9-11.4-5.6
								s-4.2-8.9-4.2-15.5s1.4-11.7,4.2-15.5c2.8-3.8,6.6-5.6,11.5-5.6c4.8,0,8.6,1.9,11.4,5.7c2.8,3.8,4.2,8.9,4.2,15.4
								c0,6.5-1.4,11.6-4.2,15.4C261.6,46.5,257.8,48.4,253,48.4z M253,56c7.8,0,13.9-2.5,18.4-7.6c4.5-5.1,6.7-12.1,6.7-21.1
								c0-8.9-2.2-16-6.7-21.1C267,1.1,260.8-1.4,253-1.4c-7.8,0-14,2.5-18.4,7.6c-4.4,5.1-6.7,12.1-6.7,21.1c0,9,2.2,16,6.7,21.1
								C239,53.5,245.2,56,253,56z"/>
						</g>
						<g>
							<path id="DejaVuSans-75" d="M292.1,21.6v33.1h9V21.9c0-5.2,1-9.1,3-11.7c2-2.6,5.1-3.9,9.1-3.9c4.8,0,8.7,1.5,11.5,4.6
								c2.8,3.1,4.2,7.3,4.2,12.7v31h9V0h-9v8.4c-2.2-3.3-4.7-5.8-7.6-7.4c-2.9-1.6-6.2-2.4-10-2.4c-6.3,0-11.1,2-14.3,5.9
								C293.7,8.3,292.1,14.1,292.1,21.6z M314.7,56L314.7,56z"/>
						</g>
						<g>
							<path id="DejaVuSans-72_00000093146086061957475650000009975794965669368719_" d="M388.1,46.3c-1,0.6-2.1,1-3.3,1.3
								c-1.2,0.3-2.5,0.4-3.9,0.4c-5.1,0-9-1.7-11.7-5s-4.1-8-4.1-14.2V0h-9v54.7h9v-8.5c1.9,3.3,4.4,5.8,7.4,7.4
								c3,1.6,6.7,2.4,11,2.4c0.6,0,1.3,0,2-0.1c0.8-0.1,1.6-0.2,2.5-0.4L388.1,46.3z"/>
						</g>
						<g>
							<path id="DejaVuSans-73_00000114773858076452623040000009453657616749909688_" d="M432.4,53.1v-8.5c-2.5,1.3-5.2,2.3-7.9,2.9
								c-2.7,0.7-5.6,1-8.5,1c-4.5,0-7.8-0.7-10-2c-2.2-1.4-3.3-3.4-3.3-6.2c0-2.1,0.8-3.7,2.4-4.9s4.8-2.3,9.6-3.4l3.1-0.7
								c6.4-1.4,10.9-3.3,13.6-5.8s4-6,4-10.4c0-5.1-2-9.1-6-12.1c-4-3-9.5-4.4-16.6-4.4c-2.9,0-6,0.3-9.2,0.9
								c-3.2,0.6-6.5,1.4-10,2.6v9.3c3.3-1.7,6.6-3,9.8-3.9c3.2-0.9,6.4-1.3,9.6-1.3c4.2,0,7.5,0.7,9.8,2.2c2.3,1.4,3.4,3.5,3.4,6.1
								c0,2.4-0.8,4.3-2.5,5.6c-1.6,1.3-5.2,2.6-10.8,3.8l-3.1,0.7c-5.6,1.2-9.6,3-12.1,5.4c-2.5,2.4-3.7,5.8-3.7,10
								c0,5.1,1.8,9.1,5.5,11.9c3.6,2.8,8.8,4.2,15.5,4.2c3.3,0,6.4-0.2,9.4-0.7C427.2,54.8,429.9,54.1,432.4,53.1z"/>
						</g>
					</g>
				</g>
			</g>
		</g>
	</g>
</g>
<g id="Layer_2">
	<path class="st13" d="M63,117.2c0,0,7-8,14-5.5c4.4,1.6,7.9,8.9,7.9,8.9L63,117.2z"/>
</g>
</svg>
