<svg xmlns="http://www.w3.org/2000/svg" xmlns:xlink="http://www.w3.org/1999/xlink" width="425.67" height="220.12" viewBox="0 0 425.67 220.12"><defs><style>.cls-1,.cls-6,.cls-7,.cls-8{fill:none;}.cls-2,.cls-9{fill:#fff;}.cls-3,.cls-4,.cls-8{stroke:#000;}.cls-3,.cls-4,.cls-6,.cls-7{stroke-linejoin:round;}.cls-3,.cls-8{stroke-width:0.8px;}.cls-4{stroke-width:0.6px;}.cls-5{clip-path:url(#clip-path);}.cls-6{stroke:#17045c;}.cls-6,.cls-7,.cls-8{stroke-linecap:square;}.cls-6,.cls-7{stroke-width:0.5px;}.cls-7{stroke:#73005d;}.cls-9{stroke:#ccc;isolation:isolate;opacity:0.8;}</style><clipPath id="clip-path"><rect class="cls-1" x="23.41" y="22.32" width="395.06" height="163.08"/></clipPath></defs><g id="Layer_1" data-name="Layer 1"><g id="figure_1" data-name="figure 1"><g id="patch_1" data-name="patch 1"><path class="cls-2" d="M0,220.12H425.67V0H0Z"/></g><g id="axes_1" data-name="axes 1"><g id="patch_2" data-name="patch 2"><path class="cls-2" d="M23.41,185.4H418.47V22.32H23.41Z"/></g><g id="matplotlib.axis_1" data-name="matplotlib.axis 1"><g id="xtick_1" data-name="xtick 1"><g id="line2d_1" data-name="line2d 1"><path id="m4a1dde4017" class="cls-3" d="M56.33,185.4v3.5"/></g><g id="text_1" data-name="text 1"><path id="DejaVuSans-31" d="M52.23,197.81h1.29v-4.45l-1.4.28v-.71l1.4-.29h.78v5.17h1.29v.67H52.23Z"/><path id="DejaVuSans-30" d="M58.87,193.16a1,1,0,0,0-.91.6,5.41,5.41,0,0,0,0,3.61,1,1,0,0,0,1.83,0,5.41,5.41,0,0,0,0-3.61A1,1,0,0,0,58.87,193.16Zm0-.62a1.68,1.68,0,0,1,1.5.78,4,4,0,0,1,.52,2.25,4,4,0,0,1-.52,2.25,1.84,1.84,0,0,1-3,0,4,4,0,0,1-.52-2.25,4,4,0,0,1,.52-2.25A1.67,1.67,0,0,1,58.87,192.54Z"/></g></g><g id="xtick_2" data-name="xtick 2"><g id="line2d_2" data-name="line2d 2"><path id="m4a1dde4017-2" data-name="m4a1dde4017" class="cls-3" d="M122.18,185.4v3.5"/></g><g id="text_2" data-name="text 2"><path id="DejaVuSans-32" d="M118.62,197.81h2.76v.67h-3.71v-.67l1.23-1.24c.51-.53.84-.86,1-1a3.59,3.59,0,0,0,.53-.72,1.25,1.25,0,0,0,.15-.58,1,1,0,0,0-.32-.75,1.23,1.23,0,0,0-.85-.3,2.89,2.89,0,0,0-.79.13,5.42,5.42,0,0,0-.88.39v-.79a5.71,5.71,0,0,1,.89-.29,3.12,3.12,0,0,1,.76-.1,2.21,2.21,0,0,1,1.45.45,1.53,1.53,0,0,1,.53,1.21,1.8,1.8,0,0,1-.13.69,3.23,3.23,0,0,1-.49.75c-.07.08-.27.3-.62.66Z"/><path id="DejaVuSans-30-2" data-name="DejaVuSans-30" d="M124.72,193.16a1,1,0,0,0-.92.6,5.58,5.58,0,0,0,0,3.61,1,1,0,0,0,1.84,0,5.41,5.41,0,0,0,0-3.61A1,1,0,0,0,124.72,193.16Zm0-.62a1.7,1.7,0,0,1,1.5.78,4.07,4.07,0,0,1,.51,2.25,4.12,4.12,0,0,1-.51,2.25,1.85,1.85,0,0,1-3,0,4.11,4.11,0,0,1-.52-2.25,4.07,4.07,0,0,1,.52-2.25A1.7,1.7,0,0,1,124.72,192.54Z"/></g></g><g id="xtick_3" data-name="xtick 3"><g id="line2d_3" data-name="line2d 3"><path id="m4a1dde4017-3" data-name="m4a1dde4017" class="cls-3" d="M188,185.4v3.5"/></g><g id="text_3" data-name="text 3"><path id="DejaVuSans-33" d="M186.18,195.33a1.5,1.5,0,0,1,.88.51,1.43,1.43,0,0,1,.32.94,1.63,1.63,0,0,1-.59,1.34,2.7,2.7,0,0,1-1.69.47,4,4,0,0,1-.76-.07,5.35,5.35,0,0,1-.8-.22v-.76a2.86,2.86,0,0,0,.72.29,3.61,3.61,0,0,0,.82.1,1.83,1.83,0,0,0,1.13-.3,1,1,0,0,0,.38-.85,1,1,0,0,0-.36-.8,1.51,1.51,0,0,0-1-.3h-.68V195h.71a1.43,1.43,0,0,0,.89-.24.8.8,0,0,0,.31-.67.82.82,0,0,0-.32-.69,1.49,1.49,0,0,0-.91-.24,4.48,4.48,0,0,0-.7.07,6.21,6.21,0,0,0-.81.22v-.7a8.18,8.18,0,0,1,.84-.19,4.91,4.91,0,0,1,.74-.06,2.26,2.26,0,0,1,1.42.41,1.32,1.32,0,0,1,.52,1.1,1.26,1.26,0,0,1-.27.82A1.45,1.45,0,0,1,186.18,195.33Z"/><path id="DejaVuSans-30-3" data-name="DejaVuSans-30" d="M190.56,193.16a1,1,0,0,0-.91.6,5.41,5.41,0,0,0,0,3.61,1,1,0,0,0,1.83,0,5.41,5.41,0,0,0,0-3.61A1,1,0,0,0,190.56,193.16Zm0-.62a1.68,1.68,0,0,1,1.5.78,4,4,0,0,1,.52,2.25,4,4,0,0,1-.52,2.25,1.84,1.84,0,0,1-3,0,4,4,0,0,1-.52-2.25,4,4,0,0,1,.52-2.25A1.67,1.67,0,0,1,190.56,192.54Z"/></g></g><g id="xtick_4" data-name="xtick 4"><g id="line2d_4" data-name="line2d 4"><path id="m4a1dde4017-4" data-name="m4a1dde4017" class="cls-3" d="M253.86,185.4v3.5"/></g><g id="text_4" data-name="text 4"><path id="DejaVuSans-34" d="M251.8,193.33l-2,3.12h2Zm-.21-.69h1v3.81h.84v.65h-.84v1.38h-.78V197.1h-2.63v-.76Z"/><path id="DejaVuSans-30-4" data-name="DejaVuSans-30" d="M256.41,193.16a1,1,0,0,0-.92.6,5.41,5.41,0,0,0,0,3.61,1,1,0,0,0,1.84,0,5.58,5.58,0,0,0,0-3.61A1,1,0,0,0,256.41,193.16Zm0-.62a1.7,1.7,0,0,1,1.5.78,4.07,4.07,0,0,1,.51,2.25,4.12,4.12,0,0,1-.51,2.25,1.71,1.71,0,0,1-1.5.77,1.69,1.69,0,0,1-1.5-.77,4,4,0,0,1-.52-2.25,4,4,0,0,1,.52-2.25A1.68,1.68,0,0,1,256.41,192.54Z"/></g></g><g id="xtick_5" data-name="xtick 5"><g id="line2d_5" data-name="line2d 5"><path id="m4a1dde4017-5" data-name="m4a1dde4017" class="cls-3" d="M319.71,185.4v3.5"/></g><g id="text_5" data-name="text 5"><path id="DejaVuSans-35" d="M315.48,192.64h3.1v.67H316.2v1.43a2.25,2.25,0,0,1,.35-.09,2,2,0,0,1,.34,0,2.17,2.17,0,0,1,1.55.54,2.12,2.12,0,0,1,0,2.91,2.38,2.38,0,0,1-1.65.52,4.93,4.93,0,0,1-.75-.06,6.3,6.3,0,0,1-.78-.19v-.79a3.16,3.16,0,0,0,.72.28,3.42,3.42,0,0,0,.79.1,1.51,1.51,0,0,0,1.07-.36,1.36,1.36,0,0,0,0-1.93,1.5,1.5,0,0,0-1.07-.35,2.7,2.7,0,0,0-.63.07,3.41,3.41,0,0,0-.64.21Z"/><path id="DejaVuSans-30-5" data-name="DejaVuSans-30" d="M322.25,193.16a1,1,0,0,0-.92.6,5.58,5.58,0,0,0,0,3.61,1,1,0,0,0,1.84,0,5.41,5.41,0,0,0,0-3.61A1,1,0,0,0,322.25,193.16Zm0-.62a1.7,1.7,0,0,1,1.5.78,4.07,4.07,0,0,1,.52,2.25,4.11,4.11,0,0,1-.52,2.25,1.85,1.85,0,0,1-3,0,4.12,4.12,0,0,1-.51-2.25,4.07,4.07,0,0,1,.51-2.25A1.7,1.7,0,0,1,322.25,192.54Z"/></g></g><g id="xtick_6" data-name="xtick 6"><g id="line2d_6" data-name="line2d 6"><path id="m4a1dde4017-6" data-name="m4a1dde4017" class="cls-3" d="M385.55,185.4v3.5"/></g><g id="text_6" data-name="text 6"><path id="DejaVuSans-36" d="M383.1,195.25a1.06,1.06,0,0,0-.84.36,1.75,1.75,0,0,0,0,2,1.07,1.07,0,0,0,.84.37,1,1,0,0,0,.84-.37,1.75,1.75,0,0,0,0-2A1,1,0,0,0,383.1,195.25Zm1.57-2.48v.72a3.57,3.57,0,0,0-.6-.21,2.47,2.47,0,0,0-.6-.08,1.42,1.42,0,0,0-1.19.53,2.78,2.78,0,0,0-.47,1.59,1.58,1.58,0,0,1,.57-.52,1.68,1.68,0,0,1,.77-.18,1.82,1.82,0,0,1,1.39.54,2.27,2.27,0,0,1,0,2.89,1.91,1.91,0,0,1-1.42.54,1.76,1.76,0,0,1-1.54-.77,3.94,3.94,0,0,1-.54-2.25,3.44,3.44,0,0,1,.66-2.21,2.11,2.11,0,0,1,1.76-.82,3.05,3.05,0,0,1,.6.06A6,6,0,0,1,384.67,192.77Z"/><path id="DejaVuSans-30-6" data-name="DejaVuSans-30" d="M388.09,193.16a1,1,0,0,0-.91.6,5.41,5.41,0,0,0,0,3.61,1,1,0,0,0,1.83,0,5.41,5.41,0,0,0,0-3.61A1,1,0,0,0,388.09,193.16Zm0-.62a1.68,1.68,0,0,1,1.5.78,4,4,0,0,1,.52,2.25,4,4,0,0,1-.52,2.25,1.84,1.84,0,0,1-3,0,4,4,0,0,1-.52-2.25,4,4,0,0,1,.52-2.25A1.67,1.67,0,0,1,388.09,192.54Z"/></g></g><g id="xtick_7" data-name="xtick 7"><g id="line2d_7" data-name="line2d 7"><path id="m879d106ff0" class="cls-4" d="M23.41,185.4v2"/></g></g><g id="xtick_8" data-name="xtick 8"><g id="line2d_8" data-name="line2d 8"><path id="m879d106ff0-2" data-name="m879d106ff0" class="cls-4" d="M39.87,185.4v2"/></g></g><g id="xtick_9" data-name="xtick 9"><g id="line2d_9" data-name="line2d 9"><path id="m879d106ff0-3" data-name="m879d106ff0" class="cls-4" d="M72.79,185.4v2"/></g></g><g id="xtick_10" data-name="xtick 10"><g id="line2d_10" data-name="line2d 10"><path id="m879d106ff0-4" data-name="m879d106ff0" class="cls-4" d="M89.25,185.4v2"/></g></g><g id="xtick_11" data-name="xtick 11"><g id="line2d_11" data-name="line2d 11"><path id="m879d106ff0-5" data-name="m879d106ff0" class="cls-4" d="M105.72,185.4v2"/></g></g><g id="xtick_12" data-name="xtick 12"><g id="line2d_12" data-name="line2d 12"><path id="m879d106ff0-6" data-name="m879d106ff0" class="cls-4" d="M138.64,185.4v2"/></g></g><g id="xtick_13" data-name="xtick 13"><g id="line2d_13" data-name="line2d 13"><path id="m879d106ff0-7" data-name="m879d106ff0" class="cls-4" d="M155.1,185.4v2"/></g></g><g id="xtick_14" data-name="xtick 14"><g id="line2d_14" data-name="line2d 14"><path id="m879d106ff0-8" data-name="m879d106ff0" class="cls-4" d="M171.56,185.4v2"/></g></g><g id="xtick_15" data-name="xtick 15"><g id="line2d_15" data-name="line2d 15"><path id="m879d106ff0-9" data-name="m879d106ff0" class="cls-4" d="M204.48,185.4v2"/></g></g><g id="xtick_16" data-name="xtick 16"><g id="line2d_16" data-name="line2d 16"><path id="m879d106ff0-10" data-name="m879d106ff0" class="cls-4" d="M220.94,185.4v2"/></g></g><g id="xtick_17" data-name="xtick 17"><g id="line2d_17" data-name="line2d 17"><path id="m879d106ff0-11" data-name="m879d106ff0" class="cls-4" d="M237.4,185.4v2"/></g></g><g id="xtick_18" data-name="xtick 18"><g id="line2d_18" data-name="line2d 18"><path id="m879d106ff0-12" data-name="m879d106ff0" class="cls-4" d="M270.33,185.4v2"/></g></g><g id="xtick_19" data-name="xtick 19"><g id="line2d_19" data-name="line2d 19"><path id="m879d106ff0-13" data-name="m879d106ff0" class="cls-4" d="M286.79,185.4v2"/></g></g><g id="xtick_20" data-name="xtick 20"><g id="line2d_20" data-name="line2d 20"><path id="m879d106ff0-14" data-name="m879d106ff0" class="cls-4" d="M303.25,185.4v2"/></g></g><g id="xtick_21" data-name="xtick 21"><g id="line2d_21" data-name="line2d 21"><path id="m879d106ff0-15" data-name="m879d106ff0" class="cls-4" d="M336.17,185.4v2"/></g></g><g id="xtick_22" data-name="xtick 22"><g id="line2d_22" data-name="line2d 22"><path id="m879d106ff0-16" data-name="m879d106ff0" class="cls-4" d="M352.63,185.4v2"/></g></g><g id="xtick_23" data-name="xtick 23"><g id="line2d_23" data-name="line2d 23"><path id="m879d106ff0-17" data-name="m879d106ff0" class="cls-4" d="M369.09,185.4v2"/></g></g><g id="xtick_24" data-name="xtick 24"><g id="line2d_24" data-name="line2d 24"><path id="m879d106ff0-18" data-name="m879d106ff0" class="cls-4" d="M402,185.4v2"/></g></g><g id="xtick_25" data-name="xtick 25"><g id="line2d_25" data-name="line2d 25"><path id="m879d106ff0-19" data-name="m879d106ff0" class="cls-4" d="M418.47,185.4v2"/></g></g><g id="text_7" data-name="text 7"><path id="DejaVuSans-32-2" data-name="DejaVuSans-32" d="M194,210.3h3.1v.75h-4.17v-.75l1.38-1.4c.58-.59.95-1,1.09-1.14a3.92,3.92,0,0,0,.6-.81,1.47,1.47,0,0,0,.17-.65,1.07,1.07,0,0,0-.37-.85,1.36,1.36,0,0,0-1-.33,2.89,2.89,0,0,0-.89.14,5.83,5.83,0,0,0-1,.44v-.9a7.24,7.24,0,0,1,1-.32,3.89,3.89,0,0,1,.85-.11,2.42,2.42,0,0,1,1.62.51,1.67,1.67,0,0,1,.61,1.36,2,2,0,0,1-.15.77,4,4,0,0,1-.55.85l-.7.74C195.27,209,194.71,209.57,194,210.3Z"/><path id="DejaVuSans-3b8" d="M202.15,207.93h-2.8a4.62,4.62,0,0,0,.37,1.87,1.11,1.11,0,0,0,2.06,0A4.6,4.6,0,0,0,202.15,207.93Zm0-.75a5.64,5.64,0,0,0-.36-1.69,1.16,1.16,0,0,0-1-.69,1.12,1.12,0,0,0-1,.69,4.87,4.87,0,0,0-.36,1.69Zm-1.39-3a1.87,1.87,0,0,1,1.66.93,5.8,5.8,0,0,1,0,5.14,1.93,1.93,0,0,1-3.31,0,5.72,5.72,0,0,1,0-5.14A1.86,1.86,0,0,1,200.75,204.14Z"/><path id="DejaVuSans-20" d="M203.5,211.05"/><path id="DejaVuSans-28" d="M209.15,204.22a8.86,8.86,0,0,0-.87,2,7.08,7.08,0,0,0,0,4,9.2,9.2,0,0,0,.87,2h-.7a8.75,8.75,0,0,1-1-2,6.34,6.34,0,0,1-.33-2,6.49,6.49,0,0,1,.32-2,9.23,9.23,0,0,1,1-2Z"/><path id="DejaVuSans-64" d="M214,206.87v-2.66h.81v6.84H214v-.74a1.67,1.67,0,0,1-.64.65,1.84,1.84,0,0,1-.94.22,1.79,1.79,0,0,1-1.45-.71,3.42,3.42,0,0,1,0-3.75,1.79,1.79,0,0,1,1.45-.71,2,2,0,0,1,.94.21A1.67,1.67,0,0,1,214,206.87Zm-2.75,1.72a2.38,2.38,0,0,0,.36,1.4,1.19,1.19,0,0,0,1,.51,1.17,1.17,0,0,0,1-.51,2.83,2.83,0,0,0,0-2.8,1.19,1.19,0,0,0-1-.5,1.21,1.21,0,0,0-1,.5A2.4,2.4,0,0,0,211.21,208.59Z"/><path id="DejaVuSans-65" d="M220.65,208.39v.39h-3.72a1.83,1.83,0,0,0,.5,1.27,1.7,1.7,0,0,0,1.26.44,3.82,3.82,0,0,0,.9-.11,4,4,0,0,0,.87-.35v.77a4.83,4.83,0,0,1-.89.28,4.2,4.2,0,0,1-.93.1,2.52,2.52,0,0,1-1.87-.69,2.47,2.47,0,0,1-.69-1.85,2.7,2.7,0,0,1,.66-1.92,2.28,2.28,0,0,1,1.76-.71,2,2,0,0,1,1.57.64A2.5,2.5,0,0,1,220.65,208.39Zm-.81-.24a1.57,1.57,0,0,0-.37-1.06,1.28,1.28,0,0,0-1-.4,1.52,1.52,0,0,0-1.09.39,1.59,1.59,0,0,0-.46,1.07Z"/><path id="DejaVuSans-67" d="M225.21,208.53a2.22,2.22,0,0,0-.36-1.36,1.31,1.31,0,0,0-2,0,2.75,2.75,0,0,0,0,2.72,1.31,1.31,0,0,0,2,0A2.24,2.24,0,0,0,225.21,208.53Zm.81,1.91a2.71,2.71,0,0,1-.56,1.87,2.19,2.19,0,0,1-1.71.61,5.1,5.1,0,0,1-.8-.06,3.58,3.58,0,0,1-.73-.2v-.78a3.41,3.41,0,0,0,.7.28,2.82,2.82,0,0,0,.71.09,1.6,1.6,0,0,0,1.19-.41,1.79,1.79,0,0,0,.39-1.26v-.4a1.6,1.6,0,0,1-.64.65,1.84,1.84,0,0,1-.94.22,1.77,1.77,0,0,1-1.45-.69,3.27,3.27,0,0,1,0-3.66,1.77,1.77,0,0,1,1.45-.69,2,2,0,0,1,.94.21,1.67,1.67,0,0,1,.64.65v-.74H226Z"/><path id="DejaVuSans-72" d="M230.54,206.88a1,1,0,0,0-.3-.11,1.29,1.29,0,0,0-.35,0,1.27,1.27,0,0,0-1,.45,1.92,1.92,0,0,0-.37,1.28v2.59h-.81v-4.92h.81v.76a1.61,1.61,0,0,1,.66-.66,2.05,2.05,0,0,1,1-.22h.18l.22,0Z"/><path id="DejaVuSans-65-2" data-name="DejaVuSans-65" d="M235.39,208.39v.39h-3.71a1.83,1.83,0,0,0,.5,1.27,1.69,1.69,0,0,0,1.25.44,3.91,3.91,0,0,0,.91-.11,4,4,0,0,0,.87-.35v.77a4.7,4.7,0,0,1-.9.28,4.05,4.05,0,0,1-.92.1,2.52,2.52,0,0,1-1.87-.69,2.47,2.47,0,0,1-.69-1.85,2.74,2.74,0,0,1,.65-1.92,2.31,2.31,0,0,1,1.77-.71,2,2,0,0,1,1.57.64A2.5,2.5,0,0,1,235.39,208.39Zm-.8-.24a1.52,1.52,0,0,0-.38-1.06,1.25,1.25,0,0,0-1-.4,1.49,1.49,0,0,0-1.08.39,1.59,1.59,0,0,0-.47,1.07Z"/><path id="DejaVuSans-65-3" data-name="DejaVuSans-65" d="M240.93,208.39v.39h-3.72a1.88,1.88,0,0,0,.51,1.27,1.67,1.67,0,0,0,1.25.44,3.82,3.82,0,0,0,.9-.11,3.6,3.6,0,0,0,.87-.35v.77a4.83,4.83,0,0,1-.89.28,4.08,4.08,0,0,1-.93.1,2.51,2.51,0,0,1-1.86-.69,2.47,2.47,0,0,1-.69-1.85,2.74,2.74,0,0,1,.65-1.92,2.29,2.29,0,0,1,1.76-.71,2,2,0,0,1,1.57.64A2.46,2.46,0,0,1,240.93,208.39Zm-.81-.24a1.52,1.52,0,0,0-.37-1.06,1.25,1.25,0,0,0-1-.4,1.49,1.49,0,0,0-1.08.39,1.59,1.59,0,0,0-.47,1.07Z"/><path id="DejaVuSans-73" d="M245.4,206.27V207a3.13,3.13,0,0,0-.72-.27,3.77,3.77,0,0,0-.76-.08,1.78,1.78,0,0,0-.9.18.61.61,0,0,0-.3.55.54.54,0,0,0,.21.45,2.75,2.75,0,0,0,.87.3l.27.06a2.74,2.74,0,0,1,1.23.52,1.24,1.24,0,0,1,.36.94,1.29,1.29,0,0,1-.54,1.09,2.51,2.51,0,0,1-1.49.4,4.85,4.85,0,0,1-.83-.08,7,7,0,0,1-.9-.23V210a3.75,3.75,0,0,0,.88.35,3.24,3.24,0,0,0,.86.12,1.64,1.64,0,0,0,.88-.2.61.61,0,0,0,.31-.55.62.62,0,0,0-.22-.5,2.67,2.67,0,0,0-1-.34l-.28-.07a2.09,2.09,0,0,1-1.08-.48,1.18,1.18,0,0,1-.34-.9,1.27,1.27,0,0,1,.5-1.07,2.23,2.23,0,0,1,1.39-.38,4.64,4.64,0,0,1,.85.07A3.4,3.4,0,0,1,245.4,206.27Z"/><path id="DejaVuSans-29" d="M246.82,204.22h.7a9.23,9.23,0,0,1,1,2,6.21,6.21,0,0,1,.33,2,6.34,6.34,0,0,1-.33,2,9.23,9.23,0,0,1-1,2h-.7a8.74,8.74,0,0,0,.87-2,7.08,7.08,0,0,0,0-4A8.86,8.86,0,0,0,246.82,204.22Z"/></g></g><g id="matplotlib.axis_2" data-name="matplotlib.axis 2"><g id="text_8" data-name="text 8"><path id="DejaVuSans-49" d="M7.48,122.56v-.89H14v.89Z"/><path id="DejaVuSans-6e" d="M11.07,115.85h3v.81H11.09a1.68,1.68,0,0,0-1,.27,1,1,0,0,0-.35.82,1.31,1.31,0,0,0,.42,1,1.65,1.65,0,0,0,1.14.38H14V120H9.12v-.81h.76a1.94,1.94,0,0,1-.66-.68,1.83,1.83,0,0,1-.22-.91,1.56,1.56,0,0,1,.52-1.28A2.39,2.39,0,0,1,11.07,115.85Z"/><path id="DejaVuSans-74" d="M7.72,113.44h1.4v-1.67h.63v1.67h2.67a1.18,1.18,0,0,0,.77-.17.92.92,0,0,0,.17-.67v-.83H14v.83a1.83,1.83,0,0,1-.35,1.29,1.75,1.75,0,0,1-1.27.36H9.75v.59H9.12v-.59H7.72Z"/><path id="DejaVuSans-65-4" data-name="DejaVuSans-65" d="M11.38,106.5h.39v3.72a1.88,1.88,0,0,0,1.27-.51,1.72,1.72,0,0,0,.44-1.25,3.82,3.82,0,0,0-.11-.9,3.77,3.77,0,0,0-.35-.87h.77a5.73,5.73,0,0,1,.28.89,4.73,4.73,0,0,1,.1.93,2.38,2.38,0,0,1-2.54,2.55,2.74,2.74,0,0,1-1.92-.65A2.29,2.29,0,0,1,9,108.65a2,2,0,0,1,.64-1.57A2.46,2.46,0,0,1,11.38,106.5Zm-.24.81a1.52,1.52,0,0,0-1.06.37,1.25,1.25,0,0,0-.4,1,1.49,1.49,0,0,0,.39,1.08,1.59,1.59,0,0,0,1.07.47Z"/><path id="DejaVuSans-6e-2" data-name="DejaVuSans-6e" d="M11.07,101.08h3v.81H11.09a1.68,1.68,0,0,0-1,.27,1,1,0,0,0-.35.82,1.31,1.31,0,0,0,.42,1,1.65,1.65,0,0,0,1.14.38H14v.81H9.12v-.81h.76a1.94,1.94,0,0,1-.66-.68A1.83,1.83,0,0,1,9,102.8a1.56,1.56,0,0,1,.52-1.28A2.39,2.39,0,0,1,11.07,101.08Z"/><path id="DejaVuSans-73-2" data-name="DejaVuSans-73" d="M9.26,96.33H10a3,3,0,0,0-.35,1.48,1.78,1.78,0,0,0,.18.9.61.61,0,0,0,.55.3.51.51,0,0,0,.44-.21,2.65,2.65,0,0,0,.31-.87l.06-.28a2.63,2.63,0,0,1,.52-1.22,1.24,1.24,0,0,1,.94-.36,1.29,1.29,0,0,1,1.09.54,2.51,2.51,0,0,1,.4,1.49,5,5,0,0,1-.08.83,7.46,7.46,0,0,1-.23.9H13a3.82,3.82,0,0,0,.35-.89,3.13,3.13,0,0,0,.12-.86,1.6,1.6,0,0,0-.2-.87.61.61,0,0,0-.55-.31.58.58,0,0,0-.5.22,2.68,2.68,0,0,0-.34,1l-.07.28a2.13,2.13,0,0,1-.48,1.09,1.22,1.22,0,0,1-.9.33,1.26,1.26,0,0,1-1.07-.49A2.2,2.2,0,0,1,9,97.9a5.53,5.53,0,0,1,.06-.84A3.89,3.89,0,0,1,9.26,96.33Z"/><path id="DejaVuSans-69" d="M9.12,94.78V94H14v.81Zm-1.92,0V94h1v.81Z"/><path id="DejaVuSans-74-2" data-name="DejaVuSans-74" d="M7.72,91.48h1.4V89.81h.63v1.67h2.67a1.18,1.18,0,0,0,.77-.17.92.92,0,0,0,.17-.67v-.83H14v.83a1.87,1.87,0,0,1-.35,1.3,1.8,1.8,0,0,1-1.27.35H9.75v.59H9.12v-.59H7.72Z"/><path id="DejaVuSans-79" d="M14.5,86.7a2.92,2.92,0,0,1,1.14.67,1.33,1.33,0,0,1,.27.87v.65h-.68v-.48a.82.82,0,0,0-.15-.52,2.16,2.16,0,0,0-.75-.41L14,87.34l-4.84,2v-.86L13,86.93,9.12,85.4v-.86Z"/></g></g><g id="line2d_34" data-name="line2d 34"><g class="cls-5"><path class="cls-6" d="M23.46,136.35l.17,1.55.18-.19.17,1.7.35-1.56.17,0,.17,1.15.35-1.48.17.75.17.15.18-.6.17,1.95.17.43.17-.6.18.38.17-.46.17-.88.35,1.34.17-.32.18,1.32.34-1.31.17,1.42.18.21.17.45.17-.57.18.26.34-1.18.17.2.18-.27.17.22.35,1.75.17-.7.17.33.17-.51.18.2.17-.22.17.1.18.4.17.73.17-.78h.18l.17,1.83.17-1.94.17,0,.18,1,.17-.56.35.7.17-.8.17.4.17-.06.18,1.11.17-.15.52,1.34.17-.57.17-1,.35.3.17-.45.18.89.17-.43.17.71.17.19.18-.11.17-1.37.17,2.45.35-1.53.17,2.15.35-1h.17l.17.41.18-.8.17.84.17-.11.18.58.17,1,.17-.08.17-1.09.18.7.17.15L39,146l.18.15.17-.31.17.49.17,1.06.18-.19.17,1.12.17-1.63.18,1.14.17,0,.17-.63.18,0,.17,1.48.34-.94.18,1,.17-.57.17.7.35-1.14.17,1,.17.23.18-.71.17.82.17-.6.18,1.1.17-1.53.17.61.17-1.91.18-.06.17-.79.17,1.24.18,2.4.17,0,.17.89.17,0,.18.29.17-.46.17.94.18-.93.17,1.34.17-.4.18.44.17-1,.17-.06.17.82.18-1.67.17,1.8.17-1.12.18,1.1.17-.6.17,0,.17.45h.18l.17-.2.17.5.18-.24.17.91.17-.37.17-.89.18-.08.17-.79.17,1.81.18-.37.17-.7.17,1.74.35-1.09.17.19.17-.48.18,1,.34-1.5.18,1.58L52,151l.17.38.18-.8.17.88.17.14.35-1.27.17.26.17-.76.35.92.17-.22.18.16.17.65.17-1.26.18.59.17-1,.17,0,.17.43.35-.66.17,0,.35-.27.17.32.17-1.55.18-.16.17.23.17-.23.18-.78.17,1.49.17-1.73.17.54.52-1.32.18-.12.17,1.49.17-2.13.35-.11.17-.88.17.18.35-1.24.17,1.33.18-1.79.17.16.34-1.06.18-.09.17.66.17-.72.18.14.17-1,.17.53.17-1.55.18,1.08.34-1,.18.06.17-1.08.17,1.08.17.24.18-1.53.17.66.17-.94.18,1,.34-.81.18-.3.17,1.39.17-.87.17,1,.18-.45.34.46.18-.75.34,1.81.17-.42.18.13.34.93.35.64.17.46.17,1.08.18-.79.34.85.18,2,.17-.4.17.18.17-.49.52,2,1,2,.17,2,.18-.2.17-.8.17,1.2.18-.09.17,1,.17.33.17.91.18-.38.17.81.35.26.17-.63.17.28.52,2.35.17-.25.18-.64.34,1.48.18-.65.17,1.07.34-.39.18,1.17.17-.69.17,1,.52-.87.35,2,.17-.41.17,1,.18-.29.17.06.34-.1.18,1.37.17-.47.17.2.18-.55.17.29.17.06.17.56.18-.42.17.54.17-.35.18.06.17-.09.17.42.35-1.08.17-.66.17-1.13.52,2.52.35,2,.17-.3.35.59.17-.65.17.23.18.55.17-.66.17.61.17-1.29.52,2,.18-.66.17.06.17.33.18-.87h.17l.17-.14.17-.31.18.35.34-1.94.18-1.86.17.18.52,4.14.17.45.17-1.35.35-.68.17-1.82.35-5.08.17,1.84.35,7.28.34,1.45.18-.06.17.31.17-.4.17,1,.18-.41.17-.1.35.12.34-.52.17-.22.18.65.17-.56.17.59.35-1.74.17-.18.52-4,.52-3.34.17-.21.35,6.53.34,3.4.18-.4.34.4.18-.32.17.14.17-.05.17.34.18-.52.17.59.17.06.35-1.59.17,0,.35,1.47.17.25.17.76.18-.57.17.49.17-.85.17,1.71.18-1.52.17.58.17-.28.18.31.17-.2.17-.44.18.07.17.7.34-2.48.18-.33.52-4.32.17.16.34,5,.35,1.27.17-1.43.35.74.17-.19.17,1.61.18-.49.17.58.17-.26h.18l.17.36.34-1.33.18.71.17-.54.17-.09.35-1.31.52,2.73.17-.6.17.08.18.8.17-.41.17.6.18-.28.17.43h.17l.17-.51.35.62.17-.77.18.05.17.31.17-.39.17,1,.18-.35.17.7.17-.86.18.62.52-.93.17.47.17-.33.35.11.17-.51.17-.1.18.94.17-.78.17.47.35-.38.17.25.17-.56.18,1.66.17-1.19.34.31.18-.17.17.52.17-.64.35.23.17-.37.52.88.52-.61.17.25.18.68.34-1.07.52.66.35-.68.51.18.18-.57.17-1.15.17.49,1-6.58.35.86.17-1.74.52,4.69.17,2.37.17-1.05.35,1,.17.1.35,1.47.17-1.16.17-.1.35-.87.35-1.66.17-.82.17.58.17,1.68.18-.32.34,2.14.18-.65.17,0,.35-1.11.17.23.34.13.18-.39.17.13.17-.89.18.5.34-4.31.52-9.05.52,11.11.34,3.48.18-.91.17.65.17-.92.18,1.06.17-.28.17-.93.17.5.18-.4.34.09.18-1.34.17.5.52-1.57.17-.42L126,159l.52-14.4.34-14,.17,2.68.52,24.75.18,3.33.17.6.17,1.65.17-.92.35,1.27.35-.89.17.74.17-.2.18,0,.17.48.17-.42.17.22.35-1.66.17-.09.18-.67.34-2.81.17,1.85.35,1.36.17-.88.18,1.39.17-.57.17-1.25.17-.06.18-2.2.17-.33.17-1.21.18.54.17,1.8.17.57.17,1.88.18.17.17.4.17-.66.18,1,.34-1.58.18.8.17-.51.17.27.17-.2.18-.93.17.16.17.38.18-1,.17,0,.17-.77.17.59.18-.15.17.5.17-.73.18.62.17-.91.34,1.71.18-1.47h.17l.17.16.18-.78.17,1.3.35-.77.17-.87.17-.05.17-.4h.18l.17-.26.17.4.18-.17.17.17.52-3.34H141l.17-1,.35,3.33.17.81.17-.85.52.8.18.14.17-.41.52-3.11.69,5.13.35-2.25.34,1.45.17,1.4.18.29.17,2,.17-.39.35-1.37.17.29.52,2.67.17,0,.18.33.17,1.31.17-1.53.17.14.18,1,.17-.64.17,0,.18.07.17.53.35-.34.17.67.34-.56.18.25.17-1.08.17.46.35-1.35L150,165l.17.46.18,1,.17.08.17-.32.35.94.17,0,.17-.86.18,1.24.17-.5.17.88.35-.85.35-.45.17,1.16.17-.1.17.27.18-.11.34-.59.18.36.17-.35.17.14.17-.27.35,1,.17.2.18-.87.17.6.17-.36.35,1.54.17-.58.17.25.18-.65.17.84.17-.29.17.09.35-1.72.17.74.18-.78.52-5.13.34,1.31.35,3.86.17.84.17.26.18-.29.17.57.17,1.08.17-.49h.18l.17.43.17-.84.18.21.17.65.17-.33.17,0,.18-.47.17.24.17-.74.18.38.17-.26.17.59.18,0,.17-.46.34.69.18-.74.34,1.08.18-.55.34-.35.17.51.18-.37.17,0,.17.16.18-.16.17.22.17-.4.35.66.17-.52.17.15.18-.68.17.65.17-.35.17-.75.35-2.91.17-1.06.18-2.38.17-.51.17,1.9.18.31.34,2.87.17.21.52-4.56.35-2.31.17-.9.35-5.29.17-3.72.17.08.52,9.2.35,6.25.34,2.65.18-.61.34,2.06.18-.35.17.3.17-.1.35.3.17-.45.35.56.17-.17.17.31.17-.73.18,0,.34.66.18-.33.17.78.34-1.74.18.72.17-.08.17-.95.18.1.34,1,.17-.76.35.65.17-.29.18.48.17-.2.17.53.35-1.56.34-.59.18,1.17.17-.8.17.68.18-.46.17.61.17-.27.17.75.18-.79.34-.31.18.19.17-1.07.17.48.17-.92.35,1.5.17-.35.18.08.17,1.39.35-1.16.17-.32.17.19.17-1.55.18-.22.34-2,.18-.9.17,0,.17-.56.17.67.7-5.86.17.91.17,3.11.17.27.18.51.17,1.25.35-2.48.52,4,.17.27.17.74.17,1.31.18-.11.17-.4.17,0,.18.48.34,1.69.17.45.52-1,.18.22.17-.12.17.38.17-.13.18-.67.17.35.17.72.18-.25.17,0,.52-.27.34.57.18.06.17-.15.17.09.35-.57.17.65.35-.41.17-.61.17.58.18-.6.51-3,.18-.46.17,1.79.17-1,.18.39.51-1.36.18.37.17,1,.17.19.18.6.17,1.26.35-.23.17.13.17-.95.17,0,.87-9.75.17,1.58.17-.45.52,3,.18-.26.17,2.25.17.34.17,1.16.18-.34.17,0,.17,1,.18-.25.34,1.67.52.92.35.2.17.43.35-.55.34-2.2.35-3.84.69-21.81.17,1.89.35,9.25.17,2.16.35,6.93.17-.82.17-2.67.17-.89.18,1.47.17,3.2.69,3.37.18-.78.34,2.26.35.72.17,1.8.17-1.28.18.15.17.69.52.13.17.18.35.54.17-.22.17.56.17-1.08.18.34.17-.84.35-.19.34-.79.17.35.35-.31.17-1,.18.2.52-2.12.17.06.17.44.17-.38.35.5.17.63.18-1.78.17-.07.17-.29.35-1,.17.33.52-.59.34,1.21.18-1,.17.13.35-.73.17-1.57.17-3.61.18-.31.34-5.55.17,0,.18,1.56.17.26.17,1.52.18.08.17,1.85.17.22.35-.26.17.93.17-.68.35,1,.34-1.29.18-.12.17-2.93.17.85.35-3.43.17.34.35-1.32.17-.86.52,6.43.17-.54.35,2.57.17-1.06.17.61.35-2.67.35-4.44.17-1.11.17,3.6.17.79.18-.1.34,4.78.18-.69.34,1.94.17-2,.52,1.27.18,1.32.17.17.17.71.18-1,.17,2.24.17-.39h.17l.18.75.17,0,.17-.68.18.23.17,1,.17-1.43.35-.54.17.18.17,1,.18-.74.17.67.17-.23.17-1.39.18.94.34-3.39.18-.32.17-1.57.17.18.18,2.14.17-.36.34.57h.18l.17-.62.52-5.15.17.65.69,8.07.52,3.25.17-.41.18.43.34-.34.35.23.17-1.22.17-.06.35,1.22.35-.41.17-.07.17,1.83.18-.88.34-.17.17.52.35-.27.17.19.18-.34.17.57.17-.5.17-.05.18-.4.17,0,.35.6.17-1,.17.7.17-.88.18.22.17-.7.17.9.35.08.35-.66.34-1.78.17.3.18-.41.17.43.17-.42.52.3.17-1.8.18-.21.69-5.67.17-2.1.17,1.07.35,4.63.17-.07.69,5.4.18-.31.17.14.17-.13.18-.33.34,1.16.18.05.17-.29.17,2,.17-.16.35.11.17-.36.18.23.17.41.17-.29.17,0,.18.31.17-1.17.17.88.35-.83.17.81.17-1.06.18-.35.17,0,.35-.27.17,1,.17.18.18.33.17.69.52.7.34,1,.18.19.17-1.15.17,1,.17-1.75.35,1,.17-1.17.52.73.17.06.18-.82.34-2.44.18-.94.17.12.35,2.47.17-.16.17.85.17,1.41.18.3.17,0,.17,1.28.18-.85.17.25.17,1,.17-1.23.18-.07.17.17.17-.29.18.93.17-.78.17.56.17-1.08.18.83.34-1.09.18.72.17-.61.17.19.17-.3.18.38.17,0,.35.51.17.92.17.23.18-.86.69,1.94.17-.94.17.15.18-1.7.17.67.34-.75.18,0,.17-.51.17-.14.18.82.17.23.34,2,.35-.62.35,1,.34-.62.35.36.17-.53.35.85.17-.47.17.51.18-.44.17-.07.17-.24.17-.71.18.18.17-.25.17-2.33.52-1.45.35.31.17,1.26.17.29.18,1.84.17.48h.17l.17.61.18-.06.17.1.17.34.52-1.56.18.89.51-.23.35.65.17-.17.35.88.69-3.09.35-2.53.17.19.17,1.61.17.08.35.56.17,1.34.18-.52.52,1.63.34-1.3.17.2.18-1.28h.17l.35.53.17,0,.17.28.69-2.43.18.2.17-.31.34.27.18-.47.17,1,.17-.25.18.22.17,0,.17.82.17-.08.52,1,.18-.53.34,1,.18.61.17-.26.17.72.17-.1.18.23.17-.17.17,1,.18-.37.34.18.17-.44.18.46.17.12.17-.48.18-.1.17.1.17-.55.17.1.35-1.74.17-1.49.35-.6.35,1.36.17.2.17.42.17-.1.52,2.64.18-.51.17.93.17-.46.17.55.18-.45.17.44.17-.59.18-.2.17.42.17-.17.17-.8.18.65.17-.54.17-1.19.18-.32.17.49.17-.42.18.89.34.31.17-.14.35,1,.17-.15.18.95.17.13.17-.75.17.47.52-1,.18.39.17-.23.17.07.17-.92.18.11.17-.28.17-.72.35.08.17-.28.17-.56.18.64.17.14.17.91.18-.8.17.68.17-.54.18.49h.17l.17-.78.52.7.17-.17.18.2.51,1.47.18-.1.17.41.17-.34.52,1.83.17-.52.18-.11.17.1.17.43.35-.86.17.3.18-.31.17,0,.17.56.17-1,.18.84.17.08.35-1.06.17.31.17-.87.17-.26.18-1.46.17,0,.17-1.21.18.16.17,1.15.17,0,.35,1.58.17-.37.17.31.18,1.28.34.28.35.58.17-.23.17.13.18-.29.34.14.18-.51.17.74.17-.09.17.73.35-.92.35.64.17-.7.34.26.18-1,.17.47.17-.12.18.24.34.7.17-.12.18.1.17-.67.17.54.18.15.17-.38.17.6.18-.24.17.13.34-.55.18-.27.17-.05.17.39.18,0,.17.64.17-.45.17.91.18-1.17h.17l.17-.2.18.61.17-.9.34-.28.35.65.17.77.18-.22.17-.43.17,1.23.17-.49.7-.69.17.1.17-.31.18.41.17,0,.17.1.17-.4.35.74.17-.13.18.49.51-2.88.52-.71.18.4.17,1,.17,0,.35,1.33.17.1.17,1.34.18-.33.17.16.17-.5.35,1.22.17-.66.17,0,.18-.8.17,1.38.17-1.32.18.63.17-.25.17-.65.17,1,.18-.68.17.76.17-1.24.18.16.34,1,.35-.66.17.67.17-.31.35,1.28.17-.52.18.64.34-.22.17-.38.18.16.17-.06.17.18h.18l.17-.32.17.12.17-.33.18-.05.17.52.17-.48.18.47.17-.33.17.55.35.14.17.34.52-.67.17-.2.17.47h.18l.17-.44.17.1.52-2.19.18-.24.17,1.06.17,0,.17.65.18-.48.17.85.17-1.1.35.86.17-.79.17.29.18-.23.17.74.17-.38.87,1.16.17-.1.17-.23.18-.45.17.66.17-.76.35.92.34-.94.18-.31.17,0,.17-.75h.18l.17.56.17,0,.17.27.18-.31.17,0,.35.35.17,1,.17-.13.17-.26.18.8.17.06.17.28.18-.24.17.52.17-.13.35.47.17-.58.17.16.18-.34.17.49.17,0,.18-.34.34,0,.17-.54.18-.14.17.18.17-.79.18,1,.17-.27h.34l.18-.88.17.4.17.79.18-.39.17-.12.17-.64.17.1.35-.23.17-.06.18-.33.34.36.35,1.19.34-.24.18.14.34.89.18-.92h.17l.17.64.17-.16.18.24.17-.15.35.54.17-.65.17.17.17-.54.35.72.17-.52.18-.08.17-.36.17,1.1.18-.05.17-.28.17.53.17-1.16.18.66.17-.11.17.21.18-.13.17.13.34-.54.35.41.17-.39.18.32.17-.28.17.17.17-.32.18.45.17-.42.35.47.17.1.17.23.17-.51.18.62.86,0,.18.1.17-.36.17.37.35-1.06.17,0,.17-.67.18-.14.17.62.17-.62.35.35.17-.52.17.64L347,173l.17.14.17-.12.17.78.18-.18.17-.71.17.07.18.33.17-.09.17.24.18.56.17-.36.17.6.35-.18.17.46.17-.63.18.59.17-.32.17.27.17.84.18-.8.34.66.18-.5.17,0,.17.36.17-.27.18.16h.34l.18.16.17-.32.34.49.18-.43.17.27.35-.55.17,0,.35.61.17-1,.17.9.17-.69.18.59.17-.6.17.39.35-.76.34,1,.35-.69.17-.17.18.37.17-.41.17.41h.35l.34-.63.35.59.17.18.18-.68.51.83.35-.13.35-.4.17.12.34-.37.18.4h.17l.17.35.18-.74.17.62.17-.16.17-.34.18.43.17-.3.17.73.18-.18.17.79.17-1.13.17.37.35-.24.17.54.35.14.17-.47.35.15.17-.26.17.11.18-.26.17.5.17-.57.18,0,.17.58.17-.54h.17l.18.7.17-.63.17.09.18.36.17-.25.17,0,.35-.72.17.3.17-1.14.35.61.17.11.18.49.34-.6.17,1.1.18-.5.34.22.52.08.35.38.17-.3.17.62.18-.64.17.64.34-1,.18.34.17-.65.17.61h.18l.17.21.35-.46.17,0,.17-.25.17-.86.18.4.17-1.1.35.36.34,1.18.17-.12.18-.36.17.49.52.27.17-.4.17.2.18.42.17-.38.17.41.18-.53.17.85.17-.66.35-.26.17.36.17-.57h.18l.17.36.17-.33.35.51.17-.56.35-.27.17.16h.17l.18-.13.34.31.35-.85.34.31.18-.54.17.29.17-.6.17.13.18-.06.17-.2.17.21.18-.56.17-.1.17.06.18-.12.17.07.17-.21.17-.4.18-.92.17,1.07.17-.9.18.59.17-.15.17-.77.17.31.18-.22.17-.58.35-.12.17-1.08.17.63.17-.25.18-.75.17.83.17-1,.18.35.17-.33.17-1,.17-.27.18.62.52-.41.17-.58.17.1.35-1.24.17,1.14.17-1.17.18.55.17.07.17-.23.18.7.17-.75.17.46.17-.61.18-.14.17.55.35-.28.17.92.17-.66h.17l.18,1.35.17-.72.17,1,.18-.28.17,0,.17.65.35.13.17.56.35-.29.17.58.17-.08.18-.27.17.45.17-.15.17-.48.18.91.17-.69.17.13.18.34.17-.12.17.54.35-.36.34.44.18-.62.17.27.17-.22.17.48.18.12.17-.18.17.22.18.71.17-.19.17-.53.18.19.17.46.17-.27.17.19.18.88.17-.27.35,0,.17.4.34-.3.18.58.17-.17.17.23.35-.19.17.11.17-.17.18.29.17-.46.17.41.35-.54.17.36.18-.48.17,0,.17.25.17-.18.35,1.3.17-.19.18.82.17-.26.17.44.17-.68.35.86.17-.33.35.83.17-1.06.35.95.17-.07.17.35.18-.29.17.3.17-.12.17.65.18-.23.17.16.17.57h.18l.17.3.35-.13.17,0,.34.69.18-.29.34.29.18-.6.17.28.17-.54.17.65.18-.25.17.27.17-.14.18.36.34-.6.17.58.18-.2.17.18h.17l.18-.69.17.05.17.57.18-.58.17.32.17-.05.17-.18.18.16.52-.49.34,1,.17-.6.18.07.17.45.17.07.18-.4.34.09.17-.11.18.17.17.39.17-.63.18.27.17-.15.52.4.17-.28.35.22.52-.25.17.37.17.69.35-.71.17.18.17.37h.18l.17.28.17-.59.17-.18.18.29.17-.1.17-.38.35.24.17-.26.17.4.18.08h0"/></g></g><g id="line2d_35" data-name="line2d 35"><g class="cls-5"><path class="cls-7" d="M23.46,82.59l.17-.86.18.16L24,83.07l.17.4.18-1.25.17,1.1.17-.37.17.76.18-.09.17-.25.52.29.17.44.17-.06.18.2.17-.6.35,1.74.17-.74.17.69.18-.65.17.3.17.58.17,0,.18.17.17-.32.17.27.18-.14.17.14.17-.64.17.13.18.76.17-.09.17.58.18-.82L30,86.84l.17-.1.18-1.28.34,1.25.35-.23.17-1,.18,1.74.17,0,.17-.29.17.13.18-.36.17-.68.17,1.13.18-.73.17.73.17-.23.17.77.18-.37.17.17h.17l.18-.76L34,87l.17,1.57.17,0,.18-.62.17-.14.17-.47.35,1.09.17-1,.17,1.7.18-.3.17.11.17-.86.18,1.11.17-1.16.17.46.18,1,.17-1,.17.14.17,1.3.18-.44.17.77.17-.81.18.36.17.61.17-.57.17.44.18,1,.17-2.42.35,1.67.34.76.35-.44.17.17L40.23,92l.18.32.17-.68.17,1.19.18-1,.17.88.17-1,.17,1.71.52-.89.18.64.17-.92.17.83.35-.68.34.48.18.82.17-2L43.69,93l.17-.24.18.29.17-.76.35,2.43.17.23h.17l.35-.6.17.15.17.62.18-.7.17.93.35-.11.17-.25.17,1,.35-.24.17-.09.17.67L47.5,96l.17.34.17-.42.35.34.17-.45.17.83.18,0,.17.16.17.41.17-.55.18-1.75.17.12.17,1,.18-1,.17,1.79.17-.32.18-1.19.17.66.17.2L51,96l.18.15L51.3,96l.17.31.18-.24.17-.92.17.4h.17l.18-.26.17.51.35-1L53,96l.52-.68.17-.1.17-.56.18.48.34-2L54.76,95l.17-1.56.17.31.35-1,.17-.17.35.75.17-1.09.17,0,.18.28.17-1.22.17.44.18-.41.17-.93.17,1,.52-2.42.35.88.17-1.11.17.3.17-.24.18-.6.17.29.17-1.51.18,0L60,84.56l.17.65.17-.27.17,0,.18-1.34.17.51L61,82.87l.18.15.17-.32.17-.85h.17l.18-1,.17.73.17-.79.18-1.5.17,1.25.17-2.57.17,1,.18-1,.17-2.12.17.28.35-3.21L64.1,68l.51-11.13L65,41.19l.35-15.27.17.78L66,67.93l.34,11.2.52,3.21.17.08.35,2.44.17,0,.18.82.17,1.86L68.07,86l.17,3,.18-1.69.34.5.18,3.71.17-1.45.17-.29.35,2.69L70,93l.35-.34.35,2L71,96l.17-1,.18,1.81.17-.58.17.82.35.13.17.61.17,1.07.18-1.51L72.91,99l.18.07.17,1.06.17-.37.18.83.17-.07.17-1,.17.4.18,1.85.17-.46.17.36.18-.5.17,1.43.17-.81.17,0,.18,1,.17.33.17-.46.18.1.17.85.17-.28.17.45.18-.25.17,1,.17,0,.52-1,.17,1.07.18-1.07.17.24.17-1,.18.69.86-6,.69,8.76.52-1.07.35,1.11.17-.15.17.21.18-.76.17-2.37.17.32.17-.77.18.64.17,2.16.17.3.18,1.18.34-.87.18-.22.17-1.1.17.45.17-1.27.18-.4.52-9.26.51,11.39.18.35.17-.27.17-.83.18.06.51-5.58.52,6.67.35,1.92.17.42.18-.3.17.09.17-.35.17.36L88,108l.17.86.35-.51.17,1.1.17-.78.17-.08.18-.79.17,1,.35-2.37.34-1.34.35-4.43.17-1.15.17-5.08.18-1.33.17,2.34.52,12.48.52,1.12.17.19.17,0,.18-.39.17.73.34-.43.18,0,.17-.76.17.64.18-.4.17-1,.17,1.37.17-.11.18,1.23.17-.53h.17l.18.17.17.4.34-1.26.18.74.17.13.17-.46.18.55.34,0,.18-1.18.17.69.17-1,.17-.15.18-1.11.17-.2.17-1.79.18.15.51,3.86.18.7.17,0,.17-.41.35.45.17-.11.17.34.18.06.17-.37.17.42.18-.86.17.48.17-.44.17,0,.18-.12.17.13.17-.29.18,0,.34.93.18-.21.34.22.17.6.18-.84.34.63.35-.43.17.63H104l.34-.59.18.65.34-.84.17,1.09.35-.79.17.6.18-.38.17.52.17-.67.18,1.28.34-2.16.17,1.32H107l.17.4.17-1.08.18.18.17.45.17.12.35-.75.17.94.17-.57.35.33.17-.14.17.34.18.08.17-.79.17.32.18-.53.17.48.34-.18.18.31.17.67.17-1.37.18.79.34-.16.18-.56.17.35.17-.14.17-.5.18,1.21.17-1,.17.12.18.39.17-.17.34.1.35-.94.17-.23.18-.5.34-2.66.17-1.36.35.29.17-.69.18.16.17.45.35,2.83.51.78.18.15.17.83.17-.71.35.41.34-1,.7-6.07.17,1.49.34,4.38.18.8.34.36.18-.49.69-3.41.17,2.12.17.69.18-1.12.17.57.35-4.36.34-8.75.35-10.94.69,24.62.17-.33.17,1.23.18,0,.17-.3.17.47.18-.22.17.56.34-1.16.18,0,.34.45.35-1.06.17-.31.35-3.08.34-5.43.35-12.28.52-46.73.17,9,.52,52.46.35,5.57.51.49.18-.43.34,1.31.18-.82.17-.09.35.61.17-.19.17.26.17-1,.18.11.17-.45.17-1.46.35-.59.17,1.11.52.83.17.11.18-1.07.34-.71.17-.73.18-1.75.17,0,.17-.13.35,1.53.17,1.36.17.48.18-.21.17-.7.35.68.17.57.17-.48.18,0,.17-1.28.34.84.18-1.75.17,1.63.17-.11.18-1.06.17-.06.34-.92.18-.54.34,1,.18-.14.17-.63.34-.51.18.77.17-1,.17-.32.18.35.17-.8.35-.62.17-.28.17-1.09.17.19.18-.3.52-4.19.17-2.68.52-10.72.17-.8.17.22.18,1.52.34,6.91.35,7.34.17,2.14.52-.11.17-.6.17,1.3.18-.85.34,3.41.18.72.17-1.53.17,0,.18,1.21.17-.14.17.24.35,2.42.17-.43.17.28.18-.06.17.22.17-.15.35,1.93.34,1.21.35-1.5.17,1.5.17.4.18,0,.17-.39.17.85.18-.88.17.75.17-.47.35,1.06.34-1.2.52-4,.18.33.86,6.3.17-.42.18.17.17,1,.17-.2.17-.88.18.85.17,0,.17-.68.18.32.17-.33.35.74.17-.14.17-.32.17.63.18-.27.17-.64.17.8.18-.24.17.32.17,0,.17.11.35.52h.69l.17.8.18,0,.17.1.17-.61.18.16.69-1.52.52-4.48.34-6.41.18-.53.69,11.26.17,1.37.17-.24.18.77.17.17.34-.17.18.66.17-.73.35,0,.17.38.17,0,.17-.1.18-.48.34-.11.18.61.17.11.17-.1.18-.44.17.66.34-.9.18.7.17.1.17-.06.18-.37.51,0,.18.47.17-.49.17.64.18-.48.34-.13.17.4.35-.23.17.27.18-.53.17-1,.34-.51.52-4.54.18.66.52,2.71.17.87.34-1.06.52-5.3.18.58.69-16.66.17,3.07.17,7.61.18,2.61.34,8.17.17,1.82.18.2.17-.53.52,1.35.17-.62.18.58.17,0,.34.73.18-.3.34-.1.18-.51.17.34.17.76.17-.37.18.22.34-.75.18.44.17-.79.17-.1.17-.82.18.09.17-.53.35.48.51-.39.18,1.84.17-.65.17.12.18-.1.17.17.17-.1.18-.23.34.14.17-.89.35.82.17-.88.18,1.31.34-.9.17,0,.18.7.17-1.4.17-.26.18-.69.34-2.66.52,2.42.17.65.18,1.18.17-.58.17.86.18-.9.17.3.86-7.85.18,2.12.51,1.8.52-2.68.35,2.11.17.29.17,1.24.18-.18.17-.78.17-.25.18.72L185,109l.17.14.18.38.34,1.21.35.31.17-.65.17-.16.18.59.17,1.16.17-.17.17.54.18-.53.17.07.35-1.38.34,1.16.17-.67h.18l.34.52.18-.2.17.93.17.24.17-.46.18.47.17-.37.17.41.18-.48.17.74.35-.94.34.21.17-.62.18.69.17-.57.52-5,.17-.89.35,2.29.17-.6.17.21.18.73.34-2.32.17.66.18,2.4.17.4.17,1.19h.18l.17.28.35,0,.17-.22.34-3.67.52-11.68.18-.58.17,4.64.17-.63.17,2.09.18,3.64.17,1,.17,0,.35,2.15.34-1.83.52,2.36.18-.63.34.78.17,1.88.18.13.17-.48.17,1.09.18-.27.34.56.69-9.53L201,85.27l.35-27.46.17-.4.34,22.76.18,5.08.34,16.77.18,2.35.17-1,.17-.25.69,5.77.18,1.25.17-.46.52,1,.17-.14.35.92.17.11.35-1.41.17.4.17.05.52,2,.17-.65.18,0,.17-.1.17.36.35-1.24.17.23.52-1.14.17.11.17.66.18-.54.17-1,.17.66.18-.32h.17l.17-.67.18.25.17.67.17-.64.17,1.41.18-1.07.17-.26.17-.54.18.1.51-1.59.18.69.17-.87.17.49.18-.89.17.42.17-.87.17.12.18-.11.34-1.27.18-1.45.69-18,.52,9.74.17,1.07.17,3.75.35,1.75.17-.73.17,0,.35-.27.52-1.56.17.41.35-2.65.34-4.84.18.17.17-.32.17-.94.18-1.87.34-1,.17.73.18-1.46.17,2.18.17-.09.35,3.71.17-.85.17.09.18-2.34.34-8.33.18.39.17,2.38.34,6.28.7,9.42.17.17.34-1.26.18,1,.17.3.17-.26.18,1.38.34.64.18,1.2.17-.12.17-.63.17,1.15.35.29.17.07.18-1,.17-.26.17-.49.35.18.34.63.18,0,.17.61.17-.77.17.62L227,101l.17-.92.17,2.22.18.69.17-.81.17.14.17.4.7-4.26.17.62.34,4,.18.27.34,3,.35.7.17-.37.35.44.34-.46.18,1,.17-.87.34.84.18-.14.17.08.17-1,.35,1.4.17-.07.18.18.17-.15.17.46.17-.8.18.76.17.24.17-.58.18,0,.17.46.17-1.28.17.59.18,1.23.17-1.63.17-.53.18,1.16.34-.89.17-.25.18.36.34-.31.18.72.17-.62.17.49.18-2.15.17,1,.17-.87.17,0,.18-.88.17.86.17-.12.35-2.46.17-2.32.17-.5.18-1.4.17,2.27.17.26.18-1.48.17.15.34,2.51.35,1.59.17-.31.18,1,.17-.34.17.83.17,0,.35-1.08.17,0,.35.89.17,1.17.18-.28.34.88.17.4h.18l.17.8.35-.52.17.07.17.29.35-1.58.17-.26.17,1.88.18-1.19.17-.19.17-1,.17-.17.18-1.1.17-2.74.52,4.37.17-1.08.18,1,.17,0,.17.48.17-1.92.18.49.17-2.68.17.44.18-.3.17,0,1.21,5h.17l.69-6.63.18,1.51.17,2.85.17.49.18-.36.34,3.88.17-.44.35,1.43.35.54.17-.74h.17l.17-.13.18.83.17-.33.17.37.18-.23.34.33.17-1.35.18-.1.17.47.17.06.18-1.53.17.58.17-.34.35,2.5.17-.4h.17l.18,1,.17-.27.17,1.18.18-.44.34.66.17-.52.18.18.34-1.49.35-.59.17-1h.17l.35,1.48.17-.25.52,1.64.17-.6.18,1,.17-.22.35.69L260,112l.18.64.17-.33.17,0,.17-.38.35.24.35-.31.34-.16.17-1,.18.08.17-1.32.52-6.27.17-.8.35,5.11.34.3.35,4,.17-.26.69,2.11.18-1,.17-.24h.17l.18-.18.34.77.17-.35.18.55.17-.25.17,1.18.69-2,.52-4.31.18.58.34,1.63.17-.08.35,1.82.17,1.07.18-.3.17.48.17-.15.18.36.17-.46.17.15.17-.45.35-2.17.35,1.48.17,0,.17.78.17-.57.18.37.17.09.17.82.18.25.34-.08.35.56.17,0,.17-.27.18.48.17-.32.17.76.17-.44.18.2.17-.45.17.12.18-.88.17.7.17-.06.18.54.17-.7.17.84.17-.37.18.15.17-.69.17,1.36.18-.81.34.33.17-.18.18-.5.17.21.17-.17.18.25.51-3,.52-7.32.18,1.35.17,2.71.17.24.18-.74.51,4.75.18-.19.34,1.32.18-.64.17,1.06.17,0,.35-.53.17.7.35-.38.17-1.23.17.62.35-3.95.17-.5.17.6.18,0,.17,1,.17-.48.18,1.21.17-.26.52,2.61.17-.37.17,1,.18-.63.34-.09.52-1.38.17.32.18-.63.17.76.17-.23.17.16.18-.84.17.15.35-.75.51-3.33.35,3.43.17-1.44.35-.29.17.33.18-1.17.34,1.19.17.11.18-.56.34-1.76.18.91.34,3.09.17-.52.18.73.17,0,.35,1.74.17.54.17-.11.35-.67.34-.42.18,0,.17.67.17-.63.18.44.17-.2.52-1.27.17.2.17-.78.18-1.38.17-.34.34-3.13.35-3,.17-.05.35,2.21.17,0,.17,1.33.18.08.69,4.5.17.25.52,1.47.17-.51.18.75.17.13.17.27.18-.26.17,0,.34,1,.18.09.17-.7.17.45.18-.34.34-1.68.35,1h.17l.17.9.18-.65.17.26.34,1.1.18.11.34-.48.18.15.17-.71.17.08.18,0,.17,1,.34-1.12.18.57.17-1,.35,1.66.17.1.17-.24.17.1.18-.65.17.79.17-.81.18.37H305l.17-.19.17.22.35.61.17-.37.18.27.34-.06.17.38.18-.08.52-2.91.17.08.17.29.18,1,.17-.53.17-.14.17.06.18,1.51.17.49.17-1,.18-.12.34-1.5.17-.39.18-.93.34.13.35,1.81.34.44.52,2.78.18-.34.17,0,.17.21.18.46.34-1.18.17.68.18-.1.34-.8h.18l.34.41.17-.59.18.45.34-.52.52.38.17-.33.18.24.17-.1.52,1.09.35.19.17-.78.34.47.18-.13.34.61.18-.66.17.06.17.22.17-.3.18.33.17-.08.17-.55.35,1,.17.05.35-.39.17.22.35-.17.17.26.17-.33.17.3.52-1,.52-2.71.18-.33.34,2.34.17-.11.35-.77.17.22.18.83.17.15.17-.24.17.75.18,0,.17.61.17-.69.35.31.17,0,.17.53.18-.16.17.17L325,116l.34.48.18,0,.17.44.17-.76.17.25.18-.16.17-.56.17.29.18-.88.17.69.34-1.18.18.45.17-1.57.35,2,.51.75.18,0,.69,1.15.17-.17.17.21.35-.43.35.34.17-.09.17.51.18-.69.17-.14.17,0,.52-1.2h.17l.18.43.17.1.34-.41.18.35.17-.21.35.24.34-2.15.17-.93.52-.59.18-.79.17.39.52,2.79.52.06.17,1.29.17,0,.18.2.17.8h.17l.17-.61.18,1,.17-.72.35-.35.17.21.17-.1.17.12.18-.33.17-.7.17.82.18-.18.17.14.17.54.18-.39.34.14.35.39.34-.42.18,0,.17-.07.17-.48.35.5.34.13.18-.58.17.26H342l.17.57.18-1,.17.45.17-.14.18.56.17.16.17.36.17-.39.18-.06.52.55.17-.35.17.28.18.06.34-.63.17.2.18-.85.17.26.17-.25.18.24.34-.2.17-.9.18.81.52-2.09.51,2.21.18-.84.17.08.17-.88.18,0,.69,1.85.52-.42.17.16.35,1,.17.17.17-.15.17.81.35-.62H351l.18.27.17,0,.17.38.17-.4.18.66.17-.39.52-.08.17-.35.17.42.18-.08.34-.43.18.45.17-.3.17,0,.18.24.17-.29h.34l.18-.63.17.23.52-.68.17.38.17-.43.18-.1.17.1.17-1.06.18.1.51.93.18.11.52,0,.52.91.34,0,.35.62.17-1,.17.35h.18l.17-.68.17.05.35.48.17-.07.17.15.18-.37.34.37.17-.17.18.92.17-.51.17.64.35-.82.17.07.17.39.18-.7.17.64.17.1.18.37.34-.69.18.5.17-.39.17.46.17,0,.35-.49.17.18.18-.06.17-.22.17.51.17-.41.18.29.34-.41.18.41.17-.47.17.73.17-.85.18.42.17-.2.17-.48.18.11.17.44.17-.18.18,0,.34-.09.35.51.17-.28.17.46.18-.26.17.06.17.44.35-.11.17.11.17-.26.18.18.17-.47.17.14.17-.23.18.35.17.08.17-.12.35-.65.17.27.18,0,.17-.28.52-3.22.17.91.17.28.18,1.4.17-.29.17.59.17-1.19.18.25.17.89.17.24.18.45.17-.19.34.32.35-.58.35.83.17-.28.17-.52.17,0,.35-.81.17,1.1.18.09.34-.83.18.09.17-.09.17.37.17-.32.18,0,.17.24.17-.33.18.34.17-.39.17.11.35-.42.17.11.17-.51.35.5.34-.58.18-.67h.17l.17-.81.18,1.24.17-.67.17.08.18-.91.17,1.08.17-.82.17.58.35-.57.17-.48.18-.07.17-.69.17.77.35-.79.52-.63.17.22.34-1.29.18.28.17-.26.17.2.18-1.12.17-.26.52.39.17-.11.17-1.62.18,1.15.17-.6.17-.18.18,0,.17-.41.17,0,.17-1.09.18,1.42.17-.31.17.39.52-2.82.17.08.18.46.17-.75L389,108l.18-.36.17.4.34,1.92.18-.88.69,2.9.17,0,.18-.71.51,1.74.18-.46.17,1,.17-.41.18.1.17-.54.17.85.17.09.18-.24.17-.53.35,1.16.17-.47.17.4.35-.69.34.82.18-.55.17.1.17-.76.17,0,.18-.66.17-.13.17.48.18.12.34.46.35-.8.34-.84.18-.14.52,1.4.17-.41.17,1.19.17-.7.35,1.72.17-1.06.18,1.32.34.59.17.49.18.08.17.65.17.18.18,0,.17.32.35-1,.34,1.15.35-.89.17.46.17-.3.18.17.17.52.17-.37.17.16.18-.16.17.51.17-.88.18,0,.17-.55.69,1.48.17,0,.18-.32.51.6.18.71.17-.28.17.49.18-.34.17.54.17.12.18.36.17-.37.17.38.17-.29.18.26.17-.47.35.46.17-.45.17.15.17,0,.18.36.17-.06.17-.49.18.31.34-.17.17.23h.18l.17.14.17-.07.35-.49.17.28h.18l.34-1.22.35-.4.17.85.17-.11.18,0,.34.58.17-.51.18.63.17-.15.35.54h.51l.18-.72.17-.2.52.72.17-.27.52.5.17-.67.52.8.18,0,.34.11.35.14.17-.29.17.29.18-.3.17.42.34-.41.18,0,.17-.13.17.45.18-.12.17,0,.17.39.17-1.23.18.44h0"/></g></g><g id="patch_3" data-name="patch 3"><path class="cls-8" d="M23.41,185.4V22.32"/></g><g id="patch_4" data-name="patch 4"><path class="cls-8" d="M418.47,185.4V22.32"/></g><g id="patch_5" data-name="patch 5"><path class="cls-8" d="M23.41,185.4H418.47"/></g><g id="patch_6" data-name="patch 6"><path class="cls-8" d="M23.41,22.32H418.47"/></g><g id="text_9" data-name="text 9"><path id="DejaVuSans-4d" d="M190.79,7.57h1.76l2.23,5.95L197,7.57h1.76v8.75h-1.15V8.64l-2.26,6h-1.19l-2.25-6v7.68h-1.15Z"/><path id="DejaVuSans-67-2" data-name="DejaVuSans-67" d="M205.41,13a3,3,0,0,0-.48-1.82,1.63,1.63,0,0,0-1.36-.64,1.61,1.61,0,0,0-1.35.64,3,3,0,0,0-.48,1.82,3,3,0,0,0,.48,1.81,1.59,1.59,0,0,0,1.35.65,1.61,1.61,0,0,0,1.36-.65A3,3,0,0,0,205.41,13Zm1.08,2.54a3.61,3.61,0,0,1-.75,2.5,2.92,2.92,0,0,1-2.27.81,6.23,6.23,0,0,1-1.08-.08,5.67,5.67,0,0,1-1-.26v-1a4.31,4.31,0,0,0,.94.38,3.81,3.81,0,0,0,1,.12,2.08,2.08,0,0,0,1.58-.55,2.36,2.36,0,0,0,.53-1.67v-.54a2.23,2.23,0,0,1-.85.87,2.59,2.59,0,0,1-1.25.29,2.38,2.38,0,0,1-1.95-.92,3.8,3.8,0,0,1-.74-2.44,3.8,3.8,0,0,1,.74-2.44,2.38,2.38,0,0,1,1.95-.92,2.59,2.59,0,0,1,1.25.28,2.29,2.29,0,0,1,.85.87v-1h1.08Z"/><path id="DejaVuSans-2d" d="M208.17,12.55h3.15v1h-3.15Z"/><path id="DejaVuSans-43" d="M219.64,8.24V9.49a4.19,4.19,0,0,0-1.28-.83,3.85,3.85,0,0,0-1.44-.28,2.87,2.87,0,0,0-2.29.92,3.94,3.94,0,0,0-.8,2.65,3.92,3.92,0,0,0,.8,2.65,2.87,2.87,0,0,0,2.29.92,3.85,3.85,0,0,0,1.44-.28,4.19,4.19,0,0,0,1.28-.83v1.23a4.6,4.6,0,0,1-1.32.64,5,5,0,0,1-1.46.21,4.12,4.12,0,0,1-3.14-1.22A4.65,4.65,0,0,1,212.58,12a4.66,4.66,0,0,1,1.14-3.32,4.12,4.12,0,0,1,3.14-1.22,5,5,0,0,1,1.47.21A4.92,4.92,0,0,1,219.64,8.24Z"/><path id="DejaVuSans-6f" d="M224,10.51a1.63,1.63,0,0,0-1.37.68,3,3,0,0,0-.5,1.85,3,3,0,0,0,.5,1.86,1.73,1.73,0,0,0,2.74,0,3.08,3.08,0,0,0,.5-1.85,3.1,3.1,0,0,0-.5-1.85A1.63,1.63,0,0,0,224,10.51Zm0-.91a2.79,2.79,0,0,1,2.21.91A3.68,3.68,0,0,1,227,13a3.68,3.68,0,0,1-.8,2.53,3.11,3.11,0,0,1-4.42,0A3.73,3.73,0,0,1,221,13a3.73,3.73,0,0,1,.8-2.53A2.77,2.77,0,0,1,224,9.6Z"/><path id="DejaVuSans-72-2" data-name="DejaVuSans-72" d="M232.56,10.76a1.32,1.32,0,0,0-.39-.15,1.78,1.78,0,0,0-.47,0,1.75,1.75,0,0,0-1.41.59,2.68,2.68,0,0,0-.49,1.71v3.46h-1.08V9.76h1.08v1a2.24,2.24,0,0,1,.89-.89A2.8,2.8,0,0,1,232,9.6h.25l.3.05Z"/><path id="DejaVuSans-6e-3" data-name="DejaVuSans-6e" d="M238.94,12.36v4h-1.08V12.39A2.24,2.24,0,0,0,237.5,11a1.3,1.3,0,0,0-1.09-.46,1.78,1.78,0,0,0-1.38.55,2.16,2.16,0,0,0-.5,1.52v3.71h-1.09V9.76h1.09v1a2.66,2.66,0,0,1,.91-.89,2.49,2.49,0,0,1,1.21-.29,2.09,2.09,0,0,1,1.71.7A3.12,3.12,0,0,1,238.94,12.36Z"/><path id="DejaVuSans-65-5" data-name="DejaVuSans-65" d="M246.7,12.77v.52h-4.95a2.46,2.46,0,0,0,.67,1.7,2.28,2.28,0,0,0,1.67.58,4.81,4.81,0,0,0,1.2-.15,4.92,4.92,0,0,0,1.16-.46v1a6.34,6.34,0,0,1-1.19.38,5.65,5.65,0,0,1-1.23.13,3.4,3.4,0,0,1-2.49-.91,3.36,3.36,0,0,1-.92-2.48,3.64,3.64,0,0,1,.87-2.56,3,3,0,0,1,2.35-.94,2.66,2.66,0,0,1,2.09.85A3.3,3.3,0,0,1,246.7,12.77Zm-1.07-.32a2.07,2.07,0,0,0-.5-1.41,1.66,1.66,0,0,0-1.28-.53,2,2,0,0,0-1.44.51,2.14,2.14,0,0,0-.63,1.44Z"/><path id="DejaVuSans-72-3" data-name="DejaVuSans-72" d="M252.27,10.76a1.32,1.32,0,0,0-.39-.15,2,2,0,0,0-1.88.54,2.68,2.68,0,0,0-.49,1.71v3.46h-1.08V9.76h1.08v1a2.24,2.24,0,0,1,.89-.89,2.84,2.84,0,0,1,1.33-.29H252l.3.05Z"/></g><g id="legend_1" data-name="legend 1"><g id="patch_7" data-name="patch 7"><path class="cls-9" d="M340,59.67h71.5a1.76,1.76,0,0,0,2-2V29.32a1.76,1.76,0,0,0-2-2H340a1.76,1.76,0,0,0-2,2V57.67A1.76,1.76,0,0,0,340,59.67Z"/></g><g id="line2d_36" data-name="line2d 36"><path class="cls-7" d="M342,35.42h20"/></g><g id="text_10" data-name="text 10"><path id="DejaVuSans-32-3" data-name="DejaVuSans-32" d="M371.89,38.09h3.44v.83H370.7v-.83q.56-.59,1.53-1.56c.65-.66,1-1.08,1.22-1.27a4.77,4.77,0,0,0,.66-.9,1.61,1.61,0,0,0,.19-.72,1.23,1.23,0,0,0-.41-1,1.55,1.55,0,0,0-1.06-.37,3.21,3.21,0,0,0-1,.17,5.94,5.94,0,0,0-1.1.48V32a7.48,7.48,0,0,1,1.11-.36,4.31,4.31,0,0,1,.95-.13,2.68,2.68,0,0,1,1.8.57,1.88,1.88,0,0,1,.68,1.51,2.27,2.27,0,0,1-.17.86,4.32,4.32,0,0,1-.61,1l-.78.81C373.3,36.65,372.68,37.28,371.89,38.09Z"/><path id="DejaVuSans-38" d="M379.51,35.45a1.57,1.57,0,0,0-1.11.38,1.54,1.54,0,0,0,0,2.07,1.57,1.57,0,0,0,1.11.38,1.55,1.55,0,0,0,1.1-.38,1.32,1.32,0,0,0,.41-1,1.34,1.34,0,0,0-.4-1A1.57,1.57,0,0,0,379.51,35.45Zm-1-.41a1.85,1.85,0,0,1-1-.6,1.65,1.65,0,0,1-.35-1.06A1.7,1.7,0,0,1,377.8,32a3.12,3.12,0,0,1,3.42,0,1.7,1.7,0,0,1,.62,1.38,1.6,1.6,0,0,1-.36,1.06,1.79,1.79,0,0,1-1,.6,2,2,0,0,1,1.11.65,1.8,1.8,0,0,1,.4,1.17,2.06,2.06,0,0,1-.65,1.63,2.71,2.71,0,0,1-1.85.57,2.74,2.74,0,0,1-1.86-.57,2.05,2.05,0,0,1-.64-1.63,1.75,1.75,0,0,1,.4-1.17A1.92,1.92,0,0,1,378.52,35Zm-.36-1.56a1.14,1.14,0,0,0,.35.88,1.71,1.71,0,0,0,2,0,1.27,1.27,0,0,0,0-1.77,1.75,1.75,0,0,0-2,0A1.15,1.15,0,0,0,378.16,33.48Z"/><path id="DejaVuSans-20-2" data-name="DejaVuSans-20" d="M382.69,38.92"/><path id="DejaVuSans-64-2" data-name="DejaVuSans-64" d="M390.41,34.28v-3h.9v7.6h-.9V38.1a1.91,1.91,0,0,1-.72.72,2.06,2.06,0,0,1-1,.24,2,2,0,0,1-1.62-.79,3.8,3.8,0,0,1,0-4.16,2,2,0,0,1,1.62-.79,2.18,2.18,0,0,1,1,.23A1.87,1.87,0,0,1,390.41,34.28Zm-3.06,1.91a2.6,2.6,0,0,0,.41,1.55,1.39,1.39,0,0,0,2.24,0,2.6,2.6,0,0,0,.41-1.55,2.65,2.65,0,0,0-.41-1.56,1.4,1.4,0,0,0-2.24,0A2.65,2.65,0,0,0,387.35,36.19Z"/><path id="DejaVuSans-61" d="M395.65,36.17a3.15,3.15,0,0,0-1.51.25.9.9,0,0,0-.42.85A1,1,0,0,0,394,38a1.29,1.29,0,0,0,.86.28,1.51,1.51,0,0,0,1.2-.53,2.13,2.13,0,0,0,.45-1.41v-.2Zm1.79-.37v3.12h-.9v-.83a2,2,0,0,1-.77.73,2.38,2.38,0,0,1-1.12.24,1.89,1.89,0,0,1-1.34-.47,1.68,1.68,0,0,1-.49-1.27,1.65,1.65,0,0,1,.61-1.39,3.08,3.08,0,0,1,1.85-.47h1.26v-.08a1.17,1.17,0,0,0-.41-1,1.71,1.71,0,0,0-1.14-.34,3.51,3.51,0,0,0-.92.11,3.43,3.43,0,0,0-.85.34V33.7a5.48,5.48,0,0,1,1-.29,4.66,4.66,0,0,1,.9-.09,2.33,2.33,0,0,1,1.77.61A2.62,2.62,0,0,1,397.44,35.8Z"/><path id="DejaVuSans-79-2" data-name="DejaVuSans-79" d="M401.56,39.42a3.2,3.2,0,0,1-.74,1.28,1.46,1.46,0,0,1-1,.3h-.71v-.76h.52a.85.85,0,0,0,.58-.17,2.19,2.19,0,0,0,.45-.83l.16-.41-2.21-5.38h1l1.7,4.27L403,33.45h1Z"/><path id="DejaVuSans-73-3" data-name="DejaVuSans-73" d="M408.69,33.61v.85a3.26,3.26,0,0,0-.79-.29,3.41,3.41,0,0,0-.85-.1,2,2,0,0,0-1,.2.67.67,0,0,0-.34.62.58.58,0,0,0,.24.49,2.85,2.85,0,0,0,1,.34l.31.07a2.94,2.94,0,0,1,1.36.57,1.36,1.36,0,0,1,.41,1,1.41,1.41,0,0,1-.61,1.2,2.71,2.71,0,0,1-1.66.45,4.92,4.92,0,0,1-.91-.09,7,7,0,0,1-1-.25v-.93a5,5,0,0,0,1,.39,4,4,0,0,0,.95.13,1.87,1.87,0,0,0,1-.22.74.74,0,0,0,.09-1.18,3,3,0,0,0-1.08-.37l-.31-.08a2.4,2.4,0,0,1-1.21-.53,1.38,1.38,0,0,1-.37-1,1.42,1.42,0,0,1,.55-1.19,2.51,2.51,0,0,1,1.55-.42,5.53,5.53,0,0,1,.94.07A4,4,0,0,1,408.69,33.61Z"/></g><g id="line2d_37" data-name="line2d 37"><path class="cls-6" d="M342,50.09h20"/></g><g id="text_11" data-name="text 11"><path id="DejaVuSans-31-2" data-name="DejaVuSans-31" d="M371.21,52.77h1.61V47.2l-1.76.35v-.89l1.75-.36h1v6.47h1.62v.82h-4.2Z"/><path id="DejaVuSans-20-3" data-name="DejaVuSans-20" d="M376.33,53.59"/><path id="DejaVuSans-64-3" data-name="DejaVuSans-64" d="M384.05,49V46h.9v7.59h-.9v-.82a1.87,1.87,0,0,1-.72.73,2.06,2.06,0,0,1-1,.24,2,2,0,0,1-1.62-.79,3.32,3.32,0,0,1-.62-2.08,3.28,3.28,0,0,1,.62-2.08,2,2,0,0,1,1.62-.8,2.06,2.06,0,0,1,1,.24A1.87,1.87,0,0,1,384.05,49ZM381,50.87a2.55,2.55,0,0,0,.41,1.55,1.29,1.29,0,0,0,1.12.56,1.31,1.31,0,0,0,1.12-.56,3.15,3.15,0,0,0,0-3.11,1.31,1.31,0,0,0-1.12-.56,1.29,1.29,0,0,0-1.12.56A2.56,2.56,0,0,0,381,50.87Z"/><path id="DejaVuSans-61-2" data-name="DejaVuSans-61" d="M389.28,50.85a3.34,3.34,0,0,0-1.51.24.91.91,0,0,0-.42.85,1,1,0,0,0,.32.76,1.24,1.24,0,0,0,.86.28,1.5,1.5,0,0,0,1.2-.53,2.08,2.08,0,0,0,.45-1.4v-.2Zm1.8-.38v3.12h-.9v-.82a2,2,0,0,1-.77.73,2.41,2.41,0,0,1-1.12.24,1.89,1.89,0,0,1-1.34-.47,1.68,1.68,0,0,1-.49-1.27,1.64,1.64,0,0,1,.61-1.39,3.05,3.05,0,0,1,1.85-.47h1.26v-.09a1.2,1.2,0,0,0-.41-1,1.77,1.77,0,0,0-1.15-.33,3.49,3.49,0,0,0-.91.11,3.29,3.29,0,0,0-.85.34v-.84a6,6,0,0,1,.95-.28,4.78,4.78,0,0,1,.91-.1,2.34,2.34,0,0,1,1.77.62A2.61,2.61,0,0,1,391.08,50.47Z"/><path id="DejaVuSans-79-3" data-name="DejaVuSans-79" d="M395.2,54.1a3.27,3.27,0,0,1-.74,1.28,1.52,1.52,0,0,1-1,.29h-.72v-.75h.53a.91.91,0,0,0,.58-.17,2.35,2.35,0,0,0,.45-.83l.16-.41-2.21-5.38h1l1.71,4.27,1.71-4.27h1Z"/></g></g></g></g></g><g id="H"><path d="M69.68,27.33v3.38h3.91V27.33h1.06v8.08H73.59V31.62H69.68v3.79h-1V27.33Z"/><path d="M139.66,70.51v3.38h3.91V70.51h1.05v8.08h-1.05V74.8h-3.91v3.79h-1V70.51Z"/><path d="M217.7,70.74v3.38h3.91V70.74h1.06v8.09h-1.06V75H217.7v3.79h-1V70.74Z"/><path d="M62.62,127.91v3.38h3.91v-3.38h1.06V136H66.53v-3.79H62.62V136h-1v-8.09Z"/><path d="M139.21,144v3.38h3.91V144h1.06v8.09h-1.06v-3.79h-3.91v3.79h-1V144Z"/><path d="M215.56,157.6V161h3.91V157.6h1.06v8.08h-1.06v-3.79h-3.91v3.79h-1V157.6Z"/></g></svg>