<?xml version="1.0" encoding="utf-8"?>
<!-- Generator: Adobe Illustrator 26.0.1, SVG Export Plug-In . SVG Version: 6.00 Build 0)  -->
<svg version="1.1" id="Layer_1" xmlns="http://www.w3.org/2000/svg" xmlns:xlink="http://www.w3.org/1999/xlink" x="0px" y="0px"
	 viewBox="0 0 477 313.7" style="enable-background:new 0 0 477 313.7;" xml:space="preserve">
<style type="text/css">
	.st0{fill:#FFFFFF;}
	.st1{stroke:#000000;stroke-width:0.8;stroke-linejoin:round;}
	.st2{stroke:#000000;stroke-width:0.6;stroke-linejoin:round;}
	
		.st3{clip-path:url(#SVGID_00000048467076346578691790000005748216796362140863_);fill:none;stroke:#000000;stroke-linecap:square;stroke-linejoin:round;}
	
		.st4{clip-path:url(#SVGID_00000173856349475391361570000008334793592096221878_);fill:none;stroke:#73005D;stroke-linecap:square;stroke-linejoin:round;}
	
		.st5{clip-path:url(#SVGID_00000026138189264538339750000015789846693746816943_);fill:none;stroke:#B20046;stroke-linecap:square;stroke-linejoin:round;}
	.st6{fill:none;stroke:#000000;stroke-width:0.8;stroke-linecap:square;}
	.st7{opacity:0.8;fill:#FFFFFF;stroke:#CCCCCC;enable-background:new    ;}
	.st8{fill:none;stroke:#B20046;stroke-linecap:square;stroke-linejoin:round;}
	.st9{fill:none;stroke:#73005D;stroke-linecap:square;stroke-linejoin:round;}
	.st10{fill:none;stroke:#000000;stroke-linecap:square;stroke-linejoin:round;}
</style>
<g id="patch_1">
	<path class="st0" d="M0,313.7h477V0H0V313.7z"/>
</g>
<g id="patch_2">
	<path class="st0" d="M23.4,279h446.4V7.2H23.4V279z"/>
</g>
<g id="matplotlib.axis_1">
	<g id="xtick_1">
		<g id="line2d_1">
			<g>
				<g>
					<path id="m0525f9ef4f" class="st1" d="M60.6,279v3.5"/>
				</g>
			</g>
		</g>
		<g id="text_1">
			<g transform="translate(55.520313 292.07875) scale(0.08 -0.08)">
				<g>
					<path id="DejaVuSans-31" d="M12.4,8.3h16.1v55.6L11,60.4v9l17.4,3.5h9.9V8.3h16.1V0h-42V8.3z"/>
				</g>
				<g>
					<path id="DejaVuSans-30" d="M95.4,66.4c-5.1,0-8.9-2.5-11.5-7.5c-2.6-5-3.8-12.5-3.8-22.5c0-10,1.3-17.5,3.8-22.5
						c2.6-5,6.4-7.5,11.5-7.5c5.1,0,8.9,2.5,11.5,7.5c2.6,5,3.8,12.5,3.8,22.5c0,10-1.3,17.5-3.8,22.5
						C104.4,63.9,100.5,66.4,95.4,66.4z M95.4,74.2c8.2,0,14.4-3.2,18.7-9.7c4.3-6.5,6.5-15.8,6.5-28.1c0-12.3-2.2-21.6-6.5-28.1
						c-4.3-6.5-10.6-9.7-18.7-9.7c-8.2,0-14.4,3.2-18.7,9.7c-4.3,6.5-6.5,15.8-6.5,28.1c0,12.3,2.2,21.7,6.5,28.1
						C81,71,87.2,74.2,95.4,74.2z"/>
				</g>
			</g>
		</g>
	</g>
	<g id="xtick_2">
		<g id="line2d_2">
			<g>
				<g>
					<path id="m0525f9ef4f_00000084517342430625163730000007824313998018287780_" class="st1" d="M135,279v3.5"/>
				</g>
			</g>
		</g>
		<g id="text_2">
			<g transform="translate(129.920312 292.07875) scale(0.08 -0.08)">
				<g>
					<path id="DejaVuSans-32" d="M19.2,8.3h34.4V0H7.3v8.3c3.7,3.9,8.8,9.1,15.3,15.6c6.5,6.5,10.5,10.7,12.2,12.6
						c3.2,3.5,5.4,6.5,6.6,9c1.3,2.5,1.9,4.9,1.9,7.2c0,3.9-1.4,7-4.1,9.5c-2.7,2.4-6.3,3.7-10.6,3.7c-3.1,0-6.4-0.5-9.8-1.6
						c-3.4-1.1-7.1-2.7-11-4.9v10c4,1.6,7.7,2.8,11.1,3.6c3.5,0.8,6.6,1.2,9.5,1.2c7.6,0,13.6-1.9,18.1-5.7
						c4.5-3.8,6.7-8.8,6.7-15.1c0-3-0.6-5.8-1.7-8.5c-1.1-2.7-3.2-5.8-6.1-9.5c-0.8-0.9-3.4-3.7-7.8-8.2
						C33.3,22.7,27.1,16.4,19.2,8.3z"/>
				</g>
				<g>
					<path id="DejaVuSans-30_00000005232591271145569010000008173788696349512070_" d="M95.4,66.4c-5.1,0-8.9-2.5-11.5-7.5
						c-2.6-5-3.8-12.5-3.8-22.5c0-10,1.3-17.5,3.8-22.5c2.6-5,6.4-7.5,11.5-7.5c5.1,0,8.9,2.5,11.5,7.5c2.6,5,3.8,12.5,3.8,22.5
						c0,10-1.3,17.5-3.8,22.5C104.4,63.9,100.5,66.4,95.4,66.4z M95.4,74.2c8.2,0,14.4-3.2,18.7-9.7c4.3-6.5,6.5-15.8,6.5-28.1
						c0-12.3-2.2-21.6-6.5-28.1c-4.3-6.5-10.6-9.7-18.7-9.7c-8.2,0-14.4,3.2-18.7,9.7c-4.3,6.5-6.5,15.8-6.5,28.1
						c0,12.3,2.2,21.7,6.5,28.1C81,71,87.2,74.2,95.4,74.2z"/>
				</g>
			</g>
		</g>
	</g>
	<g id="xtick_3">
		<g id="line2d_3">
			<g>
				<g>
					<path id="m0525f9ef4f_00000033371541009209388310000000201337015161589137_" class="st1" d="M209.4,279v3.5"/>
				</g>
			</g>
		</g>
		<g id="text_3">
			<g transform="translate(204.320312 292.07875) scale(0.08 -0.08)">
				<g>
					<path id="DejaVuSans-33" d="M40.6,39.3c4.7-1,8.4-3.1,11-6.3c2.7-3.2,4-7.1,4-11.8c0-7.2-2.5-12.8-7.4-16.7
						c-4.9-3.9-12-5.9-21.1-5.9c-3.1,0-6.2,0.3-9.4,0.9S11.1,1,7.6,2.2v9.5c2.7-1.6,5.7-2.8,9-3.6c3.3-0.8,6.7-1.2,10.2-1.2
						c6.2,0,10.9,1.2,14.1,3.7s4.9,6,4.9,10.6c0,4.3-1.5,7.7-4.5,10.1c-3,2.4-7.2,3.6-12.6,3.6h-8.5V43h8.9c4.8,0,8.6,1,11.1,2.9
						s3.9,4.7,3.9,8.4c0,3.7-1.3,6.6-4,8.6c-2.6,2-6.4,3-11.4,3c-2.7,0-5.6-0.3-8.7-0.9c-3.1-0.6-6.5-1.5-10.2-2.7v8.8
						c3.8,1,7.3,1.8,10.5,2.3s6.4,0.8,9.2,0.8c7.5,0,13.4-1.7,17.8-5.1c4.4-3.4,6.5-8,6.5-13.8c0-4-1.2-7.5-3.5-10.2
						S44.8,40.4,40.6,39.3z"/>
				</g>
				<g>
					<path id="DejaVuSans-30_00000145025566678660961100000009333556375625619867_" d="M95.4,66.4c-5.1,0-8.9-2.5-11.5-7.5
						c-2.6-5-3.8-12.5-3.8-22.5c0-10,1.3-17.5,3.8-22.5c2.6-5,6.4-7.5,11.5-7.5c5.1,0,8.9,2.5,11.5,7.5c2.6,5,3.8,12.5,3.8,22.5
						c0,10-1.3,17.5-3.8,22.5C104.4,63.9,100.5,66.4,95.4,66.4z M95.4,74.2c8.2,0,14.4-3.2,18.7-9.7c4.3-6.5,6.5-15.8,6.5-28.1
						c0-12.3-2.2-21.6-6.5-28.1c-4.3-6.5-10.6-9.7-18.7-9.7c-8.2,0-14.4,3.2-18.7,9.7c-4.3,6.5-6.5,15.8-6.5,28.1
						c0,12.3,2.2,21.7,6.5,28.1C81,71,87.2,74.2,95.4,74.2z"/>
				</g>
			</g>
		</g>
	</g>
	<g id="xtick_4">
		<g id="line2d_4">
			<g>
				<g>
					<path id="m0525f9ef4f_00000031180292811196752250000016694126126725483905_" class="st1" d="M283.8,279v3.5"/>
				</g>
			</g>
		</g>
		<g id="text_4">
			<g transform="translate(278.720312 292.07875) scale(0.08 -0.08)">
				<g>
					<path id="DejaVuSans-34" d="M37.8,64.3L12.9,25.4h24.9V64.3z M35.2,72.9h12.4V25.4H58v-8.2H47.6V0h-9.8v17.2H4.9v9.5L35.2,72.9
						z"/>
				</g>
				<g>
					<path id="DejaVuSans-30_00000060721947179792019270000017575755530073392792_" d="M95.4,66.4c-5.1,0-8.9-2.5-11.5-7.5
						c-2.6-5-3.8-12.5-3.8-22.5c0-10,1.3-17.5,3.8-22.5c2.6-5,6.4-7.5,11.5-7.5c5.1,0,8.9,2.5,11.5,7.5c2.6,5,3.8,12.5,3.8,22.5
						c0,10-1.3,17.5-3.8,22.5C104.4,63.9,100.5,66.4,95.4,66.4z M95.4,74.2c8.2,0,14.4-3.2,18.7-9.7c4.3-6.5,6.5-15.8,6.5-28.1
						c0-12.3-2.2-21.6-6.5-28.1c-4.3-6.5-10.6-9.7-18.7-9.7c-8.2,0-14.4,3.2-18.7,9.7c-4.3,6.5-6.5,15.8-6.5,28.1
						c0,12.3,2.2,21.7,6.5,28.1C81,71,87.2,74.2,95.4,74.2z"/>
				</g>
			</g>
		</g>
	</g>
	<g id="xtick_5">
		<g id="line2d_5">
			<g>
				<g>
					<path id="m0525f9ef4f_00000041277750005297465610000002433604333765196709_" class="st1" d="M358.2,279v3.5"/>
				</g>
			</g>
		</g>
		<g id="text_5">
			<g transform="translate(353.120313 292.07875) scale(0.08 -0.08)">
				<g>
					<path id="DejaVuSans-35" d="M10.8,72.9h38.7v-8.3H19.8V46.7c1.4,0.5,2.9,0.9,4.3,1.1c1.4,0.2,2.9,0.4,4.3,0.4
						c8.1,0,14.6-2.2,19.3-6.7c4.8-4.5,7.1-10.5,7.1-18.1c0-7.8-2.4-13.9-7.3-18.3c-4.9-4.3-11.8-6.5-20.7-6.5
						c-3.1,0-6.2,0.3-9.4,0.8c-3.2,0.5-6.4,1.3-9.8,2.3v9.9c2.9-1.6,6-2.8,9.1-3.6s6.4-1.2,9.9-1.2c5.6,0,10.1,1.5,13.4,4.4
						c3.3,3,4.9,7,4.9,12.1c0,5.1-1.6,9.1-4.9,12c-3.3,3-7.7,4.5-13.4,4.5c-2.6,0-5.3-0.3-7.9-0.9c-2.6-0.6-5.3-1.5-8-2.7V72.9z"/>
				</g>
				<g>
					<path id="DejaVuSans-30_00000054229225394210556370000017175578529687957946_" d="M95.4,66.4c-5.1,0-8.9-2.5-11.5-7.5
						c-2.6-5-3.8-12.5-3.8-22.5c0-10,1.3-17.5,3.8-22.5c2.6-5,6.4-7.5,11.5-7.5c5.1,0,8.9,2.5,11.5,7.5c2.6,5,3.8,12.5,3.8,22.5
						c0,10-1.3,17.5-3.8,22.5C104.4,63.9,100.5,66.4,95.4,66.4z M95.4,74.2c8.2,0,14.4-3.2,18.7-9.7c4.3-6.5,6.5-15.8,6.5-28.1
						c0-12.3-2.2-21.6-6.5-28.1c-4.3-6.5-10.6-9.7-18.7-9.7c-8.2,0-14.4,3.2-18.7,9.7c-4.3,6.5-6.5,15.8-6.5,28.1
						c0,12.3,2.2,21.7,6.5,28.1C81,71,87.2,74.2,95.4,74.2z"/>
				</g>
			</g>
		</g>
	</g>
	<g id="xtick_6">
		<g id="line2d_6">
			<g>
				<g>
					<path id="m0525f9ef4f_00000098932774063040615870000007757466505436399756_" class="st1" d="M432.6,279v3.5"/>
				</g>
			</g>
		</g>
		<g id="text_6">
			<g transform="translate(427.520312 292.07875) scale(0.08 -0.08)">
				<g>
					<path id="DejaVuSans-36" d="M33,40.4c-4.4,0-7.9-1.5-10.5-4.5c-2.6-3-3.9-7.2-3.9-12.4c0-5.2,1.3-9.4,3.9-12.4
						c2.6-3,6.1-4.6,10.5-4.6s7.9,1.5,10.5,4.6c2.6,3.1,3.9,7.2,3.9,12.4c0,5.3-1.3,9.4-3.9,12.4C40.9,38.9,37.4,40.4,33,40.4z
						 M52.6,71.3v-9c-2.5,1.2-5,2.1-7.5,2.7c-2.5,0.6-5,0.9-7.5,0.9c-6.5,0-11.5-2.2-14.9-6.6c-3.4-4.4-5.4-11-5.9-19.9
						c1.9,2.8,4.3,5,7.2,6.5c2.9,1.5,6.1,2.3,9.6,2.3c7.3,0,13.1-2.2,17.4-6.7c4.2-4.4,6.4-10.5,6.4-18.1c0-7.5-2.2-13.5-6.6-18
						C46.3,0.8,40.4-1.4,33-1.4c-8.4,0-14.9,3.2-19.3,9.7C9.2,14.7,7,24.1,7,36.4c0,11.5,2.7,20.7,8.2,27.6s12.8,10.3,22,10.3
						c2.5,0,5-0.2,7.5-0.7S49.9,72.3,52.6,71.3z"/>
				</g>
				<g>
					<path id="DejaVuSans-30_00000083049199930658133270000017616226149683171758_" d="M95.4,66.4c-5.1,0-8.9-2.5-11.5-7.5
						c-2.6-5-3.8-12.5-3.8-22.5c0-10,1.3-17.5,3.8-22.5c2.6-5,6.4-7.5,11.5-7.5c5.1,0,8.9,2.5,11.5,7.5c2.6,5,3.8,12.5,3.8,22.5
						c0,10-1.3,17.5-3.8,22.5C104.4,63.9,100.5,66.4,95.4,66.4z M95.4,74.2c8.2,0,14.4-3.2,18.7-9.7c4.3-6.5,6.5-15.8,6.5-28.1
						c0-12.3-2.2-21.6-6.5-28.1c-4.3-6.5-10.6-9.7-18.7-9.7c-8.2,0-14.4,3.2-18.7,9.7c-4.3,6.5-6.5,15.8-6.5,28.1
						c0,12.3,2.2,21.7,6.5,28.1C81,71,87.2,74.2,95.4,74.2z"/>
				</g>
			</g>
		</g>
	</g>
	<g id="xtick_7">
		<g id="line2d_7">
			<g>
				<g>
					<path id="m86a2c0be23" class="st2" d="M23.4,279v2"/>
				</g>
			</g>
		</g>
	</g>
	<g id="xtick_8">
		<g id="line2d_8">
			<g>
				<g>
					<path id="m86a2c0be23_00000033357052855556238520000002855658352743351737_" class="st2" d="M42,279v2"/>
				</g>
			</g>
		</g>
	</g>
	<g id="xtick_9">
		<g id="line2d_9">
			<g>
				<g>
					<path id="m86a2c0be23_00000155118167051831833510000015562363797331677078_" class="st2" d="M79.2,279v2"/>
				</g>
			</g>
		</g>
	</g>
	<g id="xtick_10">
		<g id="line2d_10">
			<g>
				<g>
					<path id="m86a2c0be23_00000018948338001435660120000009568911382580743573_" class="st2" d="M97.8,279v2"/>
				</g>
			</g>
		</g>
	</g>
	<g id="xtick_11">
		<g id="line2d_11">
			<g>
				<g>
					<path id="m86a2c0be23_00000140008888382527906680000016154715615481175706_" class="st2" d="M116.4,279v2"/>
				</g>
			</g>
		</g>
	</g>
	<g id="xtick_12">
		<g id="line2d_12">
			<g>
				<g>
					<path id="m86a2c0be23_00000123426304001043016240000012059203662650208153_" class="st2" d="M153.6,279v2"/>
				</g>
			</g>
		</g>
	</g>
	<g id="xtick_13">
		<g id="line2d_13">
			<g>
				<g>
					<path id="m86a2c0be23_00000034804391706277010050000016985472733495705266_" class="st2" d="M172.2,279v2"/>
				</g>
			</g>
		</g>
	</g>
	<g id="xtick_14">
		<g id="line2d_14">
			<g>
				<g>
					<path id="m86a2c0be23_00000016753553367344918030000004541619257612650146_" class="st2" d="M190.8,279v2"/>
				</g>
			</g>
		</g>
	</g>
	<g id="xtick_15">
		<g id="line2d_15">
			<g>
				<g>
					<path id="m86a2c0be23_00000065061725936849636370000011897792889241280429_" class="st2" d="M228,279v2"/>
				</g>
			</g>
		</g>
	</g>
	<g id="xtick_16">
		<g id="line2d_16">
			<g>
				<g>
					<path id="m86a2c0be23_00000145052627835080101820000000155453867898397362_" class="st2" d="M246.6,279v2"/>
				</g>
			</g>
		</g>
	</g>
	<g id="xtick_17">
		<g id="line2d_17">
			<g>
				<g>
					<path id="m86a2c0be23_00000140710278922961002160000002948566025896446381_" class="st2" d="M265.2,279v2"/>
				</g>
			</g>
		</g>
	</g>
	<g id="xtick_18">
		<g id="line2d_18">
			<g>
				<g>
					<path id="m86a2c0be23_00000168077971936034792890000016653734180589613954_" class="st2" d="M302.4,279v2"/>
				</g>
			</g>
		</g>
	</g>
	<g id="xtick_19">
		<g id="line2d_19">
			<g>
				<g>
					<path id="m86a2c0be23_00000029753098873808679400000014855158294406494617_" class="st2" d="M321,279v2"/>
				</g>
			</g>
		</g>
	</g>
	<g id="xtick_20">
		<g id="line2d_20">
			<g>
				<g>
					<path id="m86a2c0be23_00000085929239674982105440000006675668284580674750_" class="st2" d="M339.6,279v2"/>
				</g>
			</g>
		</g>
	</g>
	<g id="xtick_21">
		<g id="line2d_21">
			<g>
				<g>
					<path id="m86a2c0be23_00000067920207260610309530000010125046555052021425_" class="st2" d="M376.8,279v2"/>
				</g>
			</g>
		</g>
	</g>
	<g id="xtick_22">
		<g id="line2d_22">
			<g>
				<g>
					<path id="m86a2c0be23_00000158728675092567867060000003774996543109598390_" class="st2" d="M395.4,279v2"/>
				</g>
			</g>
		</g>
	</g>
	<g id="xtick_23">
		<g id="line2d_23">
			<g>
				<g>
					<path id="m86a2c0be23_00000017492435605005280940000013336145769542876033_" class="st2" d="M414,279v2"/>
				</g>
			</g>
		</g>
	</g>
	<g id="xtick_24">
		<g id="line2d_24">
			<g>
				<g>
					<path id="m86a2c0be23_00000163036317832220730190000003203929475888772996_" class="st2" d="M451.2,279v2"/>
				</g>
			</g>
		</g>
	</g>
	<g id="xtick_25">
		<g id="line2d_25">
			<g>
				<g>
					<path id="m86a2c0be23_00000091708961403817285720000001285032348988101270_" class="st2" d="M469.8,279v2"/>
				</g>
			</g>
		</g>
	</g>
	<g id="text_7">
		<g transform="translate(217.938984 304.651406) scale(0.09 -0.09)">
			<g>
				<path id="DejaVuSans-32_00000029005455276499089900000017980530504538046355_" d="M19.2,8.3h34.4V0H7.3v8.3
					c3.7,3.9,8.8,9.1,15.3,15.6c6.5,6.5,10.5,10.7,12.2,12.6c3.2,3.5,5.4,6.5,6.6,9c1.3,2.5,1.9,4.9,1.9,7.2c0,3.9-1.4,7-4.1,9.5
					c-2.7,2.4-6.3,3.7-10.6,3.7c-3.1,0-6.4-0.5-9.8-1.6c-3.4-1.1-7.1-2.7-11-4.9v10c4,1.6,7.7,2.8,11.1,3.6c3.5,0.8,6.6,1.2,9.5,1.2
					c7.6,0,13.6-1.9,18.1-5.7c4.5-3.8,6.7-8.8,6.7-15.1c0-3-0.6-5.8-1.7-8.5c-1.1-2.7-3.2-5.8-6.1-9.5c-0.8-0.9-3.4-3.7-7.8-8.2
					C33.3,22.7,27.1,16.4,19.2,8.3z"/>
			</g>
			<g>
				<path id="DejaVuSans-3b8" d="M109.8,34.7H78.7c0.5-9.7,1.8-16.7,4.1-20.8c2.8-5.1,6.6-7.6,11.5-7.6c4.9,0,8.7,2.6,11.4,7.7
					C108,18.4,109.4,25.3,109.8,34.7z M109.6,43c-0.9,9.2-2.2,15.5-4,18.8c-2.8,5.1-6.6,7.7-11.4,7.7c-5,0-8.8-2.5-11.4-7.6
					c-2.1-4.1-3.4-10.4-4-18.8H109.6z M94.2,76.8c7.8,0,14-3.5,18.4-10.4c4.5-6.9,6.7-16.4,6.7-28.6c0-12.1-2.2-21.7-6.7-28.6
					C108.2,2.3,102-1.1,94.2-1.1c-7.8,0-14,3.5-18.4,10.4c-4.5,6.9-6.7,16.4-6.7,28.6c0,12.2,2.2,21.7,6.7,28.6
					C80.3,73.3,86.4,76.8,94.2,76.8z"/>
			</g>
			<g>
				<path id="DejaVuSans-20" d="M124.8,0"/>
			</g>
			<g>
				<path id="DejaVuSans-28" d="M187.6,75.9c-4.4-7.5-7.6-14.9-9.7-22.2c-2.1-7.3-3.2-14.7-3.2-22.3c0-7.5,1.1-15,3.2-22.3
					c2.1-7.4,5.4-14.8,9.7-22.2h-7.8c-4.9,7.7-8.5,15.2-11,22.6c-2.4,7.4-3.6,14.7-3.6,22c0,7.3,1.2,14.6,3.6,21.9
					c2.4,7.4,6.1,14.9,11,22.6H187.6z"/>
			</g>
			<g>
				<path id="DejaVuSans-64" d="M241,46.4V76h9V0h-9v8.2c-1.9-3.2-4.3-5.7-7.2-7.2c-2.9-1.6-6.3-2.4-10.4-2.4
					c-6.6,0-12,2.6-16.1,7.9c-4.1,5.3-6.2,12.2-6.2,20.8s2.1,15.5,6.2,20.8c4.2,5.3,9.5,7.9,16.1,7.9c4,0,7.5-0.8,10.4-2.4
					C236.7,52.1,239.1,49.6,241,46.4z M210.4,27.3c0-6.6,1.4-11.8,4.1-15.5s6.5-5.6,11.2-5.6s8.5,1.9,11.2,5.6
					c2.7,3.8,4.1,8.9,4.1,15.5s-1.4,11.8-4.1,15.5c-2.7,3.8-6.5,5.6-11.2,5.6s-8.5-1.9-11.2-5.6S210.4,33.9,210.4,27.3z"/>
			</g>
			<g>
				<path id="DejaVuSans-65" d="M315.3,29.6v-4.4H274c0.4-6.2,2.3-10.9,5.6-14.1c3.3-3.2,8-4.9,13.9-4.9c3.4,0,6.8,0.4,10,1.3
					c3.2,0.8,6.5,2.1,9.7,3.8V2.8c-3.2-1.4-6.5-2.4-9.9-3.1c-3.4-0.7-6.8-1.1-10.3-1.1c-8.7,0-15.6,2.5-20.7,7.6
					c-5.1,5.1-7.6,12-7.6,20.6c0,8.9,2.4,16,7.2,21.3c4.8,5.3,11.4,7.9,19.6,7.9c7.4,0,13.2-2.4,17.5-7.1
					C313.1,44.2,315.3,37.7,315.3,29.6z M306.3,32.2c-0.1,4.9-1.4,8.8-4.1,11.8c-2.7,2.9-6.2,4.4-10.7,4.4c-5,0-9-1.4-12-4.2
					c-3-2.8-4.7-6.8-5.2-12L306.3,32.2z"/>
			</g>
			<g>
				<path id="DejaVuSans-67" d="M366,28c0,6.5-1.3,11.6-4,15.1c-2.7,3.6-6.4,5.4-11.3,5.4c-4.8,0-8.6-1.8-11.2-5.4
					c-2.7-3.6-4-8.6-4-15.1c0-6.5,1.3-11.5,4-15.1s6.4-5.4,11.2-5.4c4.9,0,8.6,1.8,11.3,5.4C364.7,16.5,366,21.5,366,28z M375,6.8
					c0-9.3-2.1-16.2-6.2-20.8c-4.1-4.5-10.5-6.8-19-6.8c-3.2,0-6.1,0.2-8.9,0.7c-2.8,0.5-5.5,1.2-8.2,2.2v8.7
					c2.6-1.4,5.2-2.5,7.8-3.2c2.6-0.7,5.2-1,7.9-1c5.9,0,10.3,1.5,13.2,4.6C364.5-5.7,366-1,366,5.2v4.5c-1.9-3.2-4.2-5.6-7.1-7.2
					C356,0.8,352.5,0,348.5,0c-6.7,0-12.1,2.6-16.2,7.7c-4.1,5.1-6.2,11.9-6.2,20.3c0,8.5,2.1,15.2,6.2,20.3
					c4.1,5.1,9.5,7.7,16.2,7.7c4,0,7.5-0.8,10.4-2.4c2.9-1.6,5.3-4,7.1-7.2v8.3h9V6.8z"/>
			</g>
			<g>
				<path id="DejaVuSans-72" d="M425.2,46.3c-1,0.6-2.1,1-3.3,1.3c-1.2,0.3-2.5,0.4-3.9,0.4c-5.1,0-9-1.7-11.7-5s-4.1-8-4.1-14.2V0
					h-9v54.7h9v-8.5c1.9,3.3,4.4,5.8,7.4,7.4c3,1.6,6.7,2.4,11,2.4c0.6,0,1.3,0,2-0.1c0.8-0.1,1.6-0.2,2.5-0.4L425.2,46.3z"/>
			</g>
			<g>
				<path id="DejaVuSans-65_00000059271409370776049580000007101746889382310016_" d="M479.1,29.6v-4.4h-41.3
					c0.4-6.2,2.3-10.9,5.6-14.1c3.3-3.2,8-4.9,13.9-4.9c3.4,0,6.8,0.4,10,1.3c3.2,0.8,6.5,2.1,9.7,3.8V2.8c-3.2-1.4-6.5-2.4-9.9-3.1
					c-3.4-0.7-6.8-1.1-10.3-1.1c-8.7,0-15.6,2.5-20.7,7.6c-5.1,5.1-7.6,12-7.6,20.6c0,8.9,2.4,16,7.2,21.3
					c4.8,5.3,11.4,7.9,19.6,7.9c7.4,0,13.2-2.4,17.5-7.1C477,44.2,479.1,37.7,479.1,29.6z M470.2,32.2c-0.1,4.9-1.4,8.8-4.1,11.8
					c-2.7,2.9-6.2,4.4-10.7,4.4c-5,0-9-1.4-12-4.2c-3-2.8-4.7-6.8-5.2-12L470.2,32.2z"/>
			</g>
			<g>
				<path id="DejaVuSans-65_00000083791605254019984300000018417904908693187759_" d="M540.7,29.6v-4.4h-41.3
					c0.4-6.2,2.3-10.9,5.6-14.1c3.3-3.2,8-4.9,13.9-4.9c3.4,0,6.8,0.4,10,1.3c3.2,0.8,6.5,2.1,9.7,3.8V2.8c-3.2-1.4-6.5-2.4-9.9-3.1
					c-3.4-0.7-6.8-1.1-10.3-1.1c-8.7,0-15.6,2.5-20.7,7.6c-5.1,5.1-7.6,12-7.6,20.6c0,8.9,2.4,16,7.2,21.3
					c4.8,5.3,11.4,7.9,19.6,7.9c7.4,0,13.2-2.4,17.5-7.1C538.5,44.2,540.7,37.7,540.7,29.6z M531.7,32.2c-0.1,4.9-1.4,8.8-4.1,11.8
					c-2.7,2.9-6.2,4.4-10.7,4.4c-5,0-9-1.4-12-4.2c-3-2.8-4.7-6.8-5.2-12L531.7,32.2z"/>
			</g>
			<g>
				<path id="DejaVuSans-73" d="M590.3,53.1v-8.5c-2.5,1.3-5.2,2.3-7.9,2.9c-2.7,0.7-5.6,1-8.5,1c-4.5,0-7.8-0.7-10-2
					c-2.2-1.4-3.3-3.4-3.3-6.2c0-2.1,0.8-3.7,2.4-4.9s4.8-2.3,9.6-3.4l3.1-0.7c6.4-1.4,10.9-3.3,13.6-5.8s4-6,4-10.4
					c0-5.1-2-9.1-6-12.1c-4-3-9.5-4.4-16.6-4.4c-2.9,0-6,0.3-9.2,0.9c-3.2,0.6-6.5,1.4-10,2.6v9.3c3.3-1.7,6.6-3,9.8-3.9
					c3.2-0.9,6.4-1.3,9.6-1.3c4.2,0,7.5,0.7,9.8,2.2c2.3,1.4,3.4,3.5,3.4,6.1c0,2.4-0.8,4.3-2.5,5.6c-1.6,1.3-5.2,2.6-10.8,3.8
					l-3.1,0.7c-5.6,1.2-9.6,3-12.1,5.4c-2.5,2.4-3.7,5.8-3.7,10c0,5.1,1.8,9.1,5.5,11.9c3.6,2.8,8.8,4.2,15.5,4.2
					c3.3,0,6.4-0.2,9.4-0.7C585.1,54.8,587.8,54.1,590.3,53.1z"/>
			</g>
			<g>
				<path id="DejaVuSans-29" d="M606.1,75.9h7.8c4.9-7.7,8.5-15.2,11-22.6c2.4-7.4,3.6-14.7,3.6-21.9c0-7.3-1.2-14.6-3.6-22
					c-2.4-7.4-6.1-14.9-11-22.6h-7.8c4.3,7.5,7.6,14.9,9.7,22.2c2.1,7.4,3.2,14.8,3.2,22.3c0,7.5-1.1,14.9-3.2,22.3
					C613.7,61,610.4,68.4,606.1,75.9z"/>
			</g>
		</g>
	</g>
</g>
<g id="matplotlib.axis_2">
	<g id="ytick_1">
		<g id="line2d_26">
		</g>
	</g>
	<g id="ytick_2">
		<g id="line2d_27">
		</g>
	</g>
	<g id="ytick_3">
		<g id="line2d_28">
		</g>
	</g>
	<g id="ytick_4">
		<g id="line2d_29">
		</g>
	</g>
	<g id="ytick_5">
		<g id="line2d_30">
		</g>
	</g>
	<g id="ytick_6">
		<g id="line2d_31">
		</g>
	</g>
	<g id="text_8">
		<g transform="translate(14.038594 162.68625) rotate(-90) scale(0.09 -0.09)">
			<g>
				<path id="DejaVuSans-49" d="M9.8,72.9h9.9V0H9.8V72.9z"/>
			</g>
			<g>
				<path id="DejaVuSans-6e" d="M84.4,33V0h-9v32.7c0,5.2-1,9-3,11.6c-2,2.6-5,3.9-9.1,3.9c-4.9,0-8.7-1.5-11.5-4.6
					c-2.8-3.1-4.2-7.3-4.2-12.6V0h-9v54.7h9v-8.5c2.2,3.3,4.7,5.8,7.6,7.4c2.9,1.6,6.3,2.4,10.1,2.4c6.3,0,11-1.9,14.2-5.8
					C82.8,46.3,84.4,40.6,84.4,33z"/>
			</g>
			<g>
				<path id="DejaVuSans-74" d="M111.2,70.2V54.7h18.5v-7h-18.5V18c0-4.5,0.6-7.3,1.8-8.6s3.7-1.9,7.5-1.9h9.2V0h-9.2
					c-6.9,0-11.7,1.3-14.4,3.9c-2.6,2.6-4,7.3-4,14.1v29.7h-6.6v7h6.6v15.5H111.2z"/>
			</g>
			<g>
				<path id="DejaVuSans-65_00000135655085911523160690000007843673885275511424_" d="M188.3,29.6v-4.4H147
					c0.4-6.2,2.3-10.9,5.6-14.1c3.3-3.2,8-4.9,13.9-4.9c3.4,0,6.8,0.4,10,1.3c3.2,0.8,6.5,2.1,9.7,3.8V2.8c-3.2-1.4-6.5-2.4-9.9-3.1
					c-3.4-0.7-6.8-1.1-10.3-1.1c-8.7,0-15.6,2.5-20.7,7.6c-5.1,5.1-7.6,12-7.6,20.6c0,8.9,2.4,16,7.2,21.3
					c4.8,5.3,11.4,7.9,19.6,7.9c7.4,0,13.2-2.4,17.5-7.1C186.1,44.2,188.3,37.7,188.3,29.6z M179.3,32.2c-0.1,4.9-1.4,8.8-4.1,11.8
					c-2.7,2.9-6.2,4.4-10.7,4.4c-5,0-9-1.4-12-4.2c-3-2.8-4.7-6.8-5.2-12L179.3,32.2z"/>
			</g>
			<g>
				<path id="DejaVuSans-6e_00000067212409585907471600000003453804720334932119_" d="M248.5,33V0h-9v32.7c0,5.2-1,9-3,11.6
					c-2,2.6-5,3.9-9.1,3.9c-4.9,0-8.7-1.5-11.5-4.6c-2.8-3.1-4.2-7.3-4.2-12.6V0h-9v54.7h9v-8.5c2.2,3.3,4.7,5.8,7.6,7.4
					c2.9,1.6,6.3,2.4,10.1,2.4c6.3,0,11-1.9,14.2-5.8C246.9,46.3,248.5,40.6,248.5,33z"/>
			</g>
			<g>
				<path id="DejaVuSans-73_00000072267250558641441880000014208298747968265089_" d="M301.3,53.1v-8.5c-2.5,1.3-5.2,2.3-7.9,2.9
					c-2.7,0.7-5.6,1-8.5,1c-4.5,0-7.8-0.7-10-2c-2.2-1.4-3.3-3.4-3.3-6.2c0-2.1,0.8-3.7,2.4-4.9s4.8-2.3,9.6-3.4l3.1-0.7
					c6.4-1.4,10.9-3.3,13.6-5.8s4-6,4-10.4c0-5.1-2-9.1-6-12.1c-4-3-9.5-4.4-16.6-4.4c-2.9,0-6,0.3-9.2,0.9c-3.2,0.6-6.5,1.4-10,2.6
					v9.3c3.3-1.7,6.6-3,9.8-3.9c3.2-0.9,6.4-1.3,9.6-1.3c4.2,0,7.5,0.7,9.8,2.2c2.3,1.4,3.4,3.5,3.4,6.1c0,2.4-0.8,4.3-2.5,5.6
					c-1.6,1.3-5.2,2.6-10.8,3.8l-3.1,0.7c-5.6,1.2-9.6,3-12.1,5.4c-2.5,2.4-3.7,5.8-3.7,10c0,5.1,1.8,9.1,5.5,11.9
					c3.6,2.8,8.8,4.2,15.5,4.2c3.3,0,6.4-0.2,9.4-0.7C296.1,54.8,298.8,54.1,301.3,53.1z"/>
			</g>
			<g>
				<path id="DejaVuSans-69" d="M318.5,54.7h9V0h-9V54.7z M318.5,76h9V64.6h-9V76z"/>
			</g>
			<g>
				<path id="DejaVuSans-74_00000137124867810346464670000000037463995474787752_" d="M355.2,70.2V54.7h18.5v-7h-18.5V18
					c0-4.5,0.6-7.3,1.8-8.6s3.7-1.9,7.5-1.9h9.2V0h-9.2c-6.9,0-11.7,1.3-14.4,3.9c-2.6,2.6-4,7.3-4,14.1v29.7h-6.6v7h6.6v15.5H355.2
					z"/>
			</g>
			<g>
				<path id="DejaVuSans-79" d="M408.2-5.1c-2.5-6.5-5-10.8-7.4-12.7c-2.4-2-5.6-3-9.7-3H384v7.5h5.3c2.5,0,4.4,0.6,5.8,1.8
					c1.4,1.2,2.9,3.9,4.5,8.3l1.6,4.1l-22.1,53.8h9.5l17.1-42.8l17.1,42.8h9.5L408.2-5.1z"/>
			</g>
		</g>
	</g>
</g>
<g id="line2d_32">
	<g>
		<defs>
			<rect id="SVGID_1_" x="23.4" y="7.2" width="446.4" height="271.8"/>
		</defs>
		<clipPath id="SVGID_00000021077357448634209150000014641131066416105626_">
			<use xlink:href="#SVGID_1_"  style="overflow:visible;"/>
		</clipPath>
		
			<path style="clip-path:url(#SVGID_00000021077357448634209150000014641131066416105626_);fill:none;stroke:#000000;stroke-linecap:square;stroke-linejoin:round;" d="
			M30.9,194.4h1.4l1.4,1.5l1.4,7.5l1.4,1.5h1.4l5.4,6h2.7l1.4-1.5l2.7-6l1.4-1.5l1.4-3l1.4-1.5l1.4-9h1.4l1.4-9l1.4-19.6l1.4-7.5
			l1.4-16.6l1.4-27.1l1.4-43.7l1.4-21.1l1.4-24.1l1.4,1.5l1.4,6l2.7,18.1l1.4,39.2l1.4,46.7l1.4,19.6l1.4,22.6l1.4,16.6l1.4,7.5
			l1.4,1.5l1.4,15.1l2.7,6l1.4,4.5l1.4,1.5l1.4,3l1.4,1.5h4.1l1.4,3l1.4,1.5h6.8l1.4,3h4.1l1.4-1.5h2.7l1.4-1.5h1.4l1.4,3l2.7-3h5.4
			l1.4-1.5h1.4l2.7-3h1.4l1.4-1.5l1.4-4.5l1.4-3h1.4l1.4-3l1.4-1.5l1.4-7.5l1.4-6l1.4-7.5l1.4-1.5h1.4l1.4-12.1l1.4-10.6l1.4-1.5
			h2.7l1.4,6l1.4,10.6l1.4,3L161,208l1.4,9l1.4,4.5l1.4,7.5l1.4,4.5l4.1,4.5l1.4-1.5h1.4l1.4,1.5l1.4,3h1.4l1.4,1.5l1.4-1.5h1.4
			l1.4,1.5h1.4l1.4,1.5l1.4-1.5h2.7l1.4-1.5l4.1,4.5l1.4-1.5h1.4l1.4,1.5h2.7l1.4-4.5l1.4-3l1.4,1.5l1.4,4.5l1.4,1.5h12.2l1.4,1.5
			h1.4l1.4-1.5h1.4l1.4-1.5h4.1l2.7-6l1.4-7.5l1.4-6l1.4-7.5l1.4-16.6l2.7-9h1.4l1.4,1.5l1.4,4.5l1.4,3l1.4,4.5l1.4,1.5l1.4,7.5
			l1.4,3l1.4,4.5l1.4-1.5h1.4l1.4,3l1.4,1.5l1.4,3l2.7-3h1.4l2.7-3l1.4-3l1.4,1.5h1.4l1.4,1.5h1.4l1.4,1.5h1.4l1.4,3l1.4,1.5h1.4
			l1.4,1.5l1.4,3l1.4,1.5h1.4l1.4,1.5h4.1l2.7,3h2.7l1.4,1.5h1.4l1.4-1.5h4.1l1.4,1.5h4.1l1.4-1.5h1.4l2.7-3h2.7l2.7-3l1.4,1.5h4.1
			l1.4-1.5l1.4,3h1.4l1.4,3h1.4l1.4,1.5h4.1l1.4,1.5h1.4l1.4,4.5h2.7l1.4-1.5h1.4l1.4-1.5l1.4,4.5l1.4,1.5h1.4l1.4,1.5h4.1l1.4,1.5
			h1.4l1.4-3h1.4l1.4,3h1.4l1.4-1.5h1.4l1.4,1.5h1.4l1.4,1.5h1.4l1.4-1.5l2.7,3h8.1l1.4,1.5h1.4l1.4-1.5h2.7l1.4,1.5h14.9l1.4,1.5
			l1.4-3h1.4l2.7,3l1.4-1.5h2.7l1.4-1.5h2.7l1.4-1.5l1.4-4.5l1.4-3l1.4-4.5l1.4-10.6l2.7-6h1.4l1.4-1.5h1.4l1.4,1.5l1.4,4.5l4.1,4.5
			l1.4,6l1.4,4.5l2.7,6h1.4l5.4,6l1.4-1.5h1.4l1.4,1.5h2.7l1.4,1.5l1.4-1.5h1.4l1.4,1.5h5.4l1,1.1l0,0"/>
	</g>
</g>
<g id="line2d_33">
	<g>
		<defs>
			<rect id="SVGID_00000174569251348548353060000016638937503809543051_" x="23.4" y="7.2" width="446.4" height="271.8"/>
		</defs>
		<clipPath id="SVGID_00000018225911297757913130000001436470378882779566_">
			<use xlink:href="#SVGID_00000174569251348548353060000016638937503809543051_"  style="overflow:visible;"/>
		</clipPath>
		
			<path style="clip-path:url(#SVGID_00000018225911297757913130000001436470378882779566_);fill:none;stroke:#73005D;stroke-linecap:square;stroke-linejoin:round;" d="
			M23.5,161.5l0.2-0.1l0.2,0.8l0.2-1.4l0.2,0.1l0.2,2.2l0.2-0.5l0.2,2l0.2-1.9l0.2,0l0.4,7l0.2-0.4l0.2-2.9l0.2,3.1l0.2,0.9l0.2-5.6
			l0.2,8.8L27,171l0.2-0.2l0.2,1.7l0.2-0.8l0.2-1.9L28,175l0.2,0l0.2-1.1l0.4,3l0.2-2.1l0.2,0.9l0.2,2.9l0.2-0.4l0.2-0.1l0.2-3.2
			l0.4,4.2l0.2-4.1l0.6,4.6l0.2-0.4l0.2-0.1l0.2,1.3l0.2-3l0.2,4.3l0.2-1.8l0.2-2.8l0.2,4.4l0.2-1.5l0.2,3.7l0.2-3.2l0.2,2.7
			l0.2-4.9l0.2,3l0.2-3l0.2,1.6l0.2,2.8l0.2-2l0.2,1.1l0.2-2.4l0.2,0.2l0.2,5.5l0.2-4.6l0.2,0.4l0.4,2.9l0.2-0.4l0.2,1.5l0.2-3
			l0.2,0.2l0.2-1.5l0.2,0.6l0.2,2.9l0.2-0.3l0.2,1.1h0.2l0.2-0.1l0.2-1.6l0.4-0.4l0.2-2.4l0.2,1.5l0.2-0.1l0.2,2.5l0.2-1.2l0.2,4.7
			l0.2-1.9l0.2-6.4l0.2,5.2l0.4-0.2l0.2,0.2l0.2,0.6l0.2-1.1l0.2,1.3l0.2-0.1l0.2-0.5l0.6-2.9l0.4,1.6l0.2,2.6l0.2,0.9l0.2-0.3
			l0.2-3l0.2,2.2l0.4-3l0.2,3.9l0.2-0.4l0.2-3.5l0.2,2.6l0.2,0.6l0.2-2.6l0.2-0.9l0.2,2l0.2,0l0.2-0.4l0.2-3l0.2,1.3l0.2-0.4l0.2-2
			l0.2,1.3l0.2-1.2l0.2,3.4l0.2-3l0.4,2.1l0.2-0.2l0.2-0.7l0.2-0.2l0.2,0.7l0.2-2.1l0.2-0.2l0.2,0.6l0.2,2.2l0.2-4.8l0.2,3.4
			l0.2-2.9l0.4,1.1l0.2,0l0.2,0.3l0.2,1.8l0.4-6.8l0.2,3.3l0.6-0.6l0.2-4.1l0.2,2.4l0.2-0.5l0.2,3l0.2-3.1l0.2,0.5l0.2,0.1l0.4-4.5
			l0.2,0.1l0.2,0.8l0.2-3l0.6,4l0.4-5.3l0.2,4.7l0.6-9.7l0.2,0.8l0.2,0.1l0.2-2.6l0.2,2.4l0.2,0.9l0.4-4.7l0.2,1.9l0.4-7.3l0.2,1.9
			l0.2,0.5l0.2-3.1l0.2-0.8l0.2-1.8l0.2,1.3l0.2-2.3l0.2,2l0.2-5.6l0.2-0.4l0.2,0.9l0.2,1.6l0.2-2.9l0.2-1.1l0.2,0.8l0.2-2.9
			l0.2-1.1l0.2,1.7l0.4-10.4l0.2,5.3l0.2-4.3l0.2,1.6l0.4-3.2l0.2-6.2l0.2-2l0.2,3.5l0.2-0.6l0.4-5.5l0.2-1.5l0.2,1.5l0.2,0.4
			l0.2-7.5l0.2,1.5l0.4-5.1l0.2,0.7l0.2,0.2l0.4-2.5l0.2-0.4l0.2,0.8l0.2-6.8l0.2,0.3L68,106l0.2-5.4l0.2,3.8l0.2-2.4l0.2,2.3
			l0.2-2.8l0.2,1.4l0.2-2.5l0.2,1.2l0.2-0.4l0.2,1.2l0.2,0.4l0.2,1.6l0.2-1.6l0.2-0.4l0.2,0.2l0.2,2.6l0.2-2.3l0.2,5.4l0.2-4.1
			l0.2,1.9l0.2,0.3l0.2,4.9l0.2-1l0.2-1.9l0.2,6.6l0.2-5l0.2,5.2l0.2-0.7l0.2,5l0.2-1.2l0.2,2.7l0.2,5l0.2,0.8l0.2-0.8l0.4,5.8
			l0.2-0.5l0.2,0.9l0.2,4.1l0.2,0.7l0.2,2.3l0.2-0.3l0.4,7.2l0.2-0.5l0.2-0.1l0.2,6.5l0.2-1.3l0.2,3.4l0.2,0.9l0.2,2.5l0.2-1.2
			l0.2,2.8l0.2-0.1l0.8,11.3l0.2-1.3l0.2,4.5l0.2-1l0.4,2.1l0.2,4.8l0.2-4.3l0.8,10.4l0.2-0.5l0.2,2.2l0.2-2l0.2,3.8l0.2-1.1l0.2,5
			l0.2-2.3l0.2,0.7l0.2,2.2l0.2-2.7l0.2,5.4l0.2,0.5l0.2-3l0.4,3.7l0.2,0.8l0.2,2.1l0.2-0.6l0.2,1.8l0.2-0.8l0.2,2.6l0.2-1.1
			l0.2,3.8l0.2-0.6l0.2-2.9l0.4,2.6l0.2-2.7l0.2,3.6l0.4,2l0.2-0.3l0.2-1.5l0.2,4.7l0.2,0.5l0.2-3.2l0.2,2.2l0.2-2.4l0.2,5.4
			l0.2-2.1l0.2,2.5l0.2-0.6l0.2,1.2l0.2-0.1l0.2,0.3l0.2,1l0.2,0l0.4-2.1l0.2,1.1l0.2,2.1l0.2,0.2l0.2-2.5l0.4,4.1l0.2-1.2l0.4,3.7
			l0.2-2.2l0.2,0.6l0.2,1.5l0.2-2l0.2,0.2l0.2,1.7l0.2,0.5l0.2-1.9l0.2,0.2l0.4,2l0.2-0.2l0.2,0.6l0.2,1.1l0.2-2.3l0.2,0.5l0.2-1.1
			l0.2,2.9l0.4-2.2l0.2,1.1l0.2-0.4l0.2,1.6l0.2,0.5l0.2,1.6l0.2-0.8l0.2,0.5l0.2-1.6l0.4,1.6l0.2-1.2l0.2,0.6l0.2-0.3l0.2-1.8
			l0.2,2.5l0.2-0.9l0.2,1.1l0.2-0.5l0.2,0.5l0.4,1.9l0.4-2l0.2,2.2l0.2-1.5l0.2,0.1l0.4,2l0.2-1.3l0.4,1.7l0.2-1.3l0.2,0.4l0.2-0.9
			l0.2,1.7l0.2-1.9l0.2,2l0.2-0.4l0.2,2.2l0.4-2.7l0.2,1.3l0.2-2.5l0.2,2l0.2,0.3l0.2-0.9l0.2,0.6l0.2,0.2l0.2,1.3l0.2-0.8l0.2,1.2
			l0.2,0.1l0.2-2.1l0.2-0.1l0.2,2.6l0.2-0.7l0.2,0.4l0.2,0.1l0.2-3.3l0.2,4.6l0.4-1.5l0.2-0.9l0.4,1.3l0.2-2.3l0.2,0l0.2,2.2
			l0.2-2.7l0.4,5.4l0.2-4.8l0.4,0.5l0.2,1l0.2,2.4l0.2,0.4l0.2-2.9l0.2,2l0.2-3.4l0.2,1.4l0.2,3.3l0.2-4.8l0.2,3l0.2,0.6l0.4-2.4
			l0.2,2l0.2-0.9l0.2,1l0.2,0.2l0.4,0.7l0.2-1.3l0.4,1.2l0.4-1.7l0.2,2.8l0.2-2.5l0.2,2.5l0.2-2.3l0.4,1.6l0.2-1.7l0.2,1.3l0.4-0.4
			l0.2-1.2l0.2,0.7l0.4-1l0.4,1.9l0.2-1.6l0.2,1l0.2,1.7l0.2-1l0.2-0.1l0.2,0.9l0.2-2.8l0.2,2.3l0.2,0.3l0.2-2.2l0.2,1.3l0.2,0.2
			l0.2-1.6l0.2,1l0.2,2.1l0.2-2.9l0.2,1.4l0.2-0.7l0.2,0.9l0.2-1.9l0.4,1.6l0.2,0.3l0.2-0.1l0.2-0.4l0.2,1l0.2-1.3l0.2,0.5l0.2-3.4
			l0.2,3l0.2-2.5l0.4,2.2l0.2-1.2l0.2,3.2l0.2-3.3l0.2,0.2l0.2,3.6l0.2-2.8l0.2,1.1l0.2,0.3l0.2-3.4l0.2,1.9l0.2,0l0.4,2l0.6-1.5
			l0.2-2.1l0.2,1.7l0.2-1.5l0.2-0.3l0.2-1.3l0.4,4l0.2-0.9l0.2,0.3l0.2-0.2l0.2,0.2l0.2-1.3l0.2,2.1l0.2-3l0.4-0.4l0.2,3.3l0.2-0.6
			l0.4-2.5l0.2,0.8l0.2,0.2l0.2-0.9l0.2-0.1l0.2-0.5l0.2,2.3l0.2-0.1l0.4-2.3l0.4,1.8l0.2-3.2l0.2,0.3l0.2,0.6l0.2,3.5l0.4-4.3
			l0.2,2.7l0.2-0.5l0.2-1.7l0.2,0.4l0.2-2.6l0.2,1l0.2-0.4l0.2,2l0.2,0.2l0.2-0.8l0.2,0.4l0.2-1.4l0.2,0.2l0.2-1.1l0.2,1.4l0.2-1.6
			l0.2,2.7l0.2-2.3l0.2,0.1l0.2-2l0.2,1.2l0.2-0.2l0.2,2.1l0.2,0.7l0.2-4.3l0.2,0.6l0.2,1l0.2-0.6l0.2,0.7l0.2-0.4l0.2,0.7l0.2-1.8
			l0.2,0.5l0.2-0.9l0.4-0.7l0.2,0.4l0.2,2.5l0.2-2.6l0.2-0.7l0.4,1.7l0.2-2.3l0.2-0.4l0.2-1.5l0.2,0.3l0.2-0.4l0.2-0.1l0.2-0.5
			l0.2,0.2l0.2,0.8l0.2,0.2l0.4-1.5l0.2,2.1l0.2-4.7l0.2,2.6l0.2-2l0.2,0.5l0.2-1.9l0.2,2.4l0.2-3.8l0.2,2.3l0.2-2.9l0.2,0.2
			l0.2-0.3l0.2-1.3l0.2,2l0.2,0.1l0.2-0.7l0.2-1.5l0.2,2l0.4-4.4l0.4,1l0.2-1.6l0.2,1.3l0.2-2.5l0.2,4.8l0.2-2.5l0.2-0.5l0.2-1.7
			l0.2,1.8l0.4-2l0.4-0.4l0.4,2.2l0.2-3l0.4,1.5l0.2-0.1l0.2-1.3l0.4,0.3l0.2,2.1l0.4-4.5l0.2,3.4l0.2-1.6l0.2,3.2l0.2-4.8l0.2,0.8
			l0.4,4.6l0.2-4.5l0.2,4.4l0.2-4.2l0.2,3.5l0.2-4l0.4,4.5l0.2-1.3l0.2,1.9l0.2-0.6l0.2-2.5l0.2,5.5l0.2-3.4l0.2,3.8l0.2-1.8
			l0.2,1.7l0.4-0.2l0.2-0.6l0.2,2.5l0.2-0.4l0.2,2.8l0.2-2.8l0.2,0.6l0.2,3.6l0.2,0.2l0.2-2.7l0.2,0.9l0.4,2.7l0.2,1l0.2,1.9
			l0.2,0.2l0.2,0.9l0.2-1.9l0.2,2.4l0.2-1.9l0.2,2.6l0.4-1.9l0.4,3.7l0.2,0.7l0.2-2.2l0.2,2.2l0.2,0.1l0.2,1.8l0.2-1l0.2,0.1
			l0.2,2.4l0.2-1.3l0.2,0.9l0.2-1.2l0.2,6.5l0.2-3.2l0.2-0.7l0.2,2.4l0.2-2.5l0.2,2l0.6,1.3l0.2-1.1l0.4,3.6l0.2-0.9l0.2,1.4
			l0.2-2.6l0.2,1.6l0.2,0.5l0.2-0.6l0.2,1.9l0.2-1.4l0.2,1l0.2,0.1l0.2-1.2l0.2,0.9l0.2,1.9l0.2-2.5l0.2,3l0.2-1.7l0.2,1.7l0.2-1.3
			l0.2,0.9l0.2,1.8l0.2-2l0.2,2.2l0.2-0.5l0.2,0.3l0.2-2.5l0.4-0.4l0.2,3.3l0.2-1l0.2,1.3l0.2-1.3l0.4,1.8l0.2-0.3l0.2,2.1l0.2-1.7
			l0.2,0.6l0.2-1.6l0.2-0.2l0.2,1.4l0.2-1.1l0.2,1.6l0.2-0.8l0.2,0.2l0.2,0.9l0.2-2.3l0.2,2.1l0.2,0.3l0.2,1l0.2-0.8l0.2,0.9
			l0.2-1.8l0.2-0.3l0.2,0.2l0.2,0.8l0.2,0.3l0.2,1.1l0.2-0.4l0.2-1.7l0.2,1.3l0.2,0.6l0.4-0.3l0.4-1.5l0.8,2.4l0.2-1.6l0.2-0.5
			l0.2,1.2l0.2-0.7l0.2,1.8l0.2-0.9l0.2,1.1l0.2-1.2l0.2,1l0.2-2.2l0.4,1.2l0.2,0.5l0.2,0l0.2-2l0.2,1.4l0.2-1.6l0.2,3.1l0.2-0.5
			l0.2-0.9l0.2,1.4l0.6-1.2l0.2-1.4l0.2,1.8l0.2,0l0.2-0.9l0.2,1l0.4,0.7l0.2,1l0.2-2.3l0.2,3.2l0.2-3.2l0.2-0.7l0.2,0.3l0.2-0.5
			l0.2,1.9l0.2-0.1l0.2,0.1l0.2-0.6l0.2,2.1l0.2-0.2l0.2,0.1l0.2-2l0.2,0.2l0.2-0.9l0.2,2.1l0.2-0.3l0.2-0.9l0.2,0.5l0.2-1l0.2,1.8
			l0.2-0.2l0.2,1.1l0.2-2l0.2,0.9l0.2-0.3l0.2-1.2l0.2,2.5l0.2-0.8l0.2,0.1l0.2-2.6l0.2,2.3l0.2-0.7l0.2,0.9l0.2,0l0.2,0.3l0.4-2
			l0.2,2.3l0.2-0.9l0.2-0.2l0.4,0.2l0.2,0.6l0.2-1l0.2,0.9l0.2-0.6l0.2-1.1l0.4,2.1l0.4-0.9l0.2-0.7l0.2,1.8l0.2-0.8l0.2,0.6
			l0.2-0.1l0.2-1.3l0.2,2l0.2-1.3l0.2,2l0.2-2.9l0.2,0.7l0.2-1.3l0.2,2l0.2,0.6l0.2,0.2l0.2,0.7l0.4-2.5l0.2,0.1l0.2-0.2l0.2,2.2
			l0.4-1.8l0.2,1.8l0.4-1.7l0.2,1.7l0.4-0.6l0.4-0.6l0.2,0.8l0.2-1.4l0.2,1.2l0.4-2.7l0.2,2l0.2-0.1l0.2,1.8l0.2-1.8l0.2,0.5
			l0.2-1.3l0.4,0.9l0.2,0.3l0.2,1.8l0.4-1l0.2-1.2l0.2,0.7l0.2-1l0.2,1.1l0.2-1.1l0.2,1.4l0.2-0.8l0.4,1.9l0.2-3l0.4,2.4l0.4-0.4
			l0.2,1.2l0.2-2.9l0.2,0.9l0.2-1.9l0.2,1.7l0.2,0l0.4,1.4l0.2-2.3l0.2,2.5l0.2-1.9l0.2,0.1l0.2,0.2l0.2,1.6l0.2-0.8l0.2,1.3l0.2-1
			l0.2,0.7l0.2-1.8l0.2,2l0.4-1.7l0.2,1.5l0.2-0.5l0.2,0.8l0.2,0l0.2,0.2l0.2-1.9l0.6,1.6l0.2,0.1l0.4-0.5l0.2-1.6l0.2,1.1l0.2,0.3
			l0.2-0.5l0.2,0.2l0.2,0.4l0.2,0.7l0.2-0.4l0.2,0.4l0.4-2.3l0.2,2.8l0.2-2.3l0.2-0.1l0.2,1.6l0.2,0.2l0.2-3.8l0.2,2.8l0.2,0.8
			l0.2-2l0.6,1.6l0.2-0.7l0.2,0.1l0.2,0l0.2-0.6l0.2,0.5l0.2,1.1l0.2-1.1l0.2,0.3l0.4-0.8l0.4,2.5l0.2-1.6l0.2,0.7l0.4-0.3l0.2-0.4
			l0.2-2.6l0.2,2.7l0.4-0.5l0.2,2.1l0.2-0.4l0.2-2.7l0.2,2.2l0.2-2.2l0.2,0.2l0.2,1.4l0.4-0.4l0.2-2l0.2,0.3l0.2,0.8l0.2,0l0.2-1.3
			l0.2,0.4l0.2,1.9l0.6-2l0.2,0.3l0.2,0.9l0.2-1.3l0.4,0.8l0.2-0.5l0.2-1.8l0.2,0.8l0.2-0.2l0.2,0.8l0.2-0.5l0.2-1.3l0.2,0.5
			l0.2-1.3l0.4,1.5l0.2-0.3l0.2,0.3l0.2-2.5l0.2,1l0.2-0.3l0.2-2.1l0.2,2.1l0.2-1.9l0.2,0.8l0.2-1.9l0.2,1l0.2-0.5l0.2,0.1l0.2-1.9
			l0.2,1.1l0.2-1l0.2,0.2l0.2-3l0.2,0.2l0.2,1.4l0.2-0.7l0.2-1.8l0.2,2.2l0.2-3.8l0.2,2.7l0.2-4.4l0.2,2l0.2-2.2l0.2,0.6l0.4-1.7
			l0.4-1.9l0.2,2.1l0.4-4.8l0.2,1l0.2-1.3l0.2,1l0.2-0.4l0.2-2.4l0.2-0.4l0.2,0.5l0.2-0.1l0.4-1.3l0.2,0.8l0.2-3l0.2,0.8l0.2-0.3
			l0.2-1.6l0.2,2.5l0.6-3.1l0.4-1.3l0.2-0.2l0.2,1.7l0.2-2.5l0.4,3.9l0.4-5.1l0.4,3.7l0.2-2.5l0.4,2.4l0.2-2.4l0.2,0.7l0.2-1.6
			l0.2,1.9l0.2-0.5l0.2,1.5l0.2-0.6l0.2-2.1l0.2,0.3l0.2-0.3l0.4,2l0.2-0.1l0.2-0.5l0.2,1l0.2-3l0.2,1.5l0.2,2.5l0.2-3l0.2,4.4
			l0.2-2.7l0.2,0.1l0.2-0.8l0.2,0.3l0.2,2.9l0.2-2.5l0.2,0.8l0.2,1.8l0.2-3.8l0.2,3.4l0.2,0.6l0.4,0.3l0.2-1.7l0.2,0.2l0.2,1.8
			l0.2-0.9l0.2,0.5l0.2,1.5l0.2-2.3l0.2,0l0.2,0.5l0.2,1.2l0.2-0.9l0.2-0.2l0.2,2l0.2-0.4l0.2,0.8l0.2-0.5l0.2-1.7l0.2,3.2l0.2-1.3
			h0.2l0.2-0.5l0.2,1.5l0.2,0.3l0.2-1.5l0.4,4l0.2-2.5l0.2,0.8l0.2-1l0.4,2l0.2-0.7l0.2,1.5l0.2-2.6l0.2,1.6l0.2-0.6l0.2,3.3
			l0.4-0.5l0.2-1.5l0.2-0.3l0.2,0.2l0.2,0.8l0.2,1.6l0.2-2.2l0.2,0l0.2,1.5l0.2-0.1l0.2-1.3l0.2-0.3l0.2,2.4l0.2-0.2l0.2,1.8
			l0.2,0.1l0.6-1.9l0.2,3.3l0.2-4.5l0.2,1.8l0.2-0.8l0.2,1.1l0.2-0.7l0.2,0.1l0.2,2.3l0.4-2.7l0.2,1.7l0.2-0.4l0.2,1.1l0.2-1.1
			l0.2,1.7l0.2-0.5l0.2,1.2l0.2-1.8l0.4,2.1l0.2-1.9l0.2,1.5l0.2-0.3l0.2,0.7l0.2-1.7l0.2,1.1l0.2,1.8l0.2-1.8l0.2,0.8l0.2,0
			l0.2,1.7l0.2-0.2l0.4,1.2l0.2-2.4l0.2,0.2l0.2,1.5l0.2-0.7l0.2,1l0.2-3l0.2,0.6l0.2,1.1l0.4,0.9l0.2-1.1l0.4,2.2l0.2-0.3l0.4,1.2
			l0.2-2.9l0.2,2.6l0.2,0.2l0.2-1.3l0.2,0.4l0.2-1l0.2,0.4l0.2,1.3l0.2-1.1l0.2,1.2l0.2-0.8l0.2,2.1l0.2-2.1l0.2-0.2l0.2,1.1
			l0.2-0.4l0.2-1l0.2,2.5l0.2-1.7l0.2,0.6l0.2-1.3l0.2,2.4l0.2-0.9l0.2,0.1l0.2,1.2l0.2,0.1l0.4-0.9l0.2,2l0.2-1.4l0.2,0.4l0.2-0.2
			l0.2-2l0.2,2.5l0.2-2.4l0.2,2l0.2-0.6l0.4,1.8l0.4,0.4l0.2-2.2l0.2,1.4l0.2-1.3l0.4,3.5l0.2-1.3l0.2,1.2l0.2-0.2l0.2-1h0.2
			l0.2-0.9l0.2,2.2l0.2-2.4l0.2-0.1l0.2,0.9l0.2,2.6l0.4-4l0.6,3.3l0.2-0.4l0.2,0.8l0.2-1.3l0.2,1.7l0.2,0.4l0.2-0.5l0.2,1.1
			l0.4-2.1l0.2,0.4l0.2-2.1l0.2,4l0.2-1.6l0.2-0.3l0.2-0.7l0.2,1.1l0.2-0.4l0.2,0l0.2-0.7l0.2,0.7l0.4,0.4l0.4,1.7l0.2-0.2l0.2-3.1
			l0.2,3.5l0.2-1.8l0.2,2.3l0.2-1.6l0.2,0.9l0.4-1.5l0.2,0.4l0.2,0.6l0.2-0.8l0.4,0.7l0.2,2l0.2-0.3l0.2-0.6l0.2-0.1l0.2-0.8
			l0.2-0.1l0.2,1.8l0.2-0.5l0.2-1l0.2,0.2l0.2-1.7l0.2,4.2l0.4-1.7l0.2-0.2l0.2-0.7l0.2,0.5l0.2-0.3l0.2,2l0.2-0.7l0.2,0.2l0.2,0.8
			l0.2-3l0.2-0.3l0.2,2.7l0.2-1.6l0.2,1.1l0.2,0.2l0.2-0.2l0.2,0.1l0.2-0.5h0.2l0.2-0.5l0.4,1.9l0.4-3.3l0.2,2.1l0.2,0.5l0.2-2
			l0.2,2.4l0.2-1.1l0.2-0.1l0.4,1.5l0.2-1.1l0.2,1.3l0.4-1.9l0.2,1.8l0.2-2l0.2,0.5l0.2-0.3l0.2,0.4l0.2,2.2l0.2-1.8l0.2,0.9l0.2-1
			l0.4,1.6l0.2-1.8l0.2,1.1l0.2,1.9l0.2-2.4l0.2,0.4l0.2-0.3l0.2,0.4l0.2-0.2l0.2,1.7l0.2-1.7l0.2,0.5l0.2,0.1l0.2,0.3l0.2-0.2
			l0.2,1.1h0.2l0.2-2.8l0.2,1.7l0.2-0.5l0.2,0.5l0.2,0.8l0.2,0.3l0.4-1.7l0.2,0.6l0.2-1l0.2,0.3l0.4,2.2l0.4-2l0.2,0.7l0.2-0.3
			l0.2,2.5l0.4-3.4l0.2,1.4l0.2-0.2l0.2,0.4l0.2-0.5l0.2,0.6l0.2-1.3l0.4,3l0.2-0.1l0.4-3.6l0.4,1.6l0.2,0.2l0.2,1.3l0.2-1.2
			l0.2,1.6l0.2-0.1l0.2,0.7l0.2-2.7l0.2,1.6l0.2-0.1l0.2-1.2l0.2-0.3l0.2,1.5l0.2-0.1l0.2-0.4l0.2-1.2l0.2,2.3l0.2-2.7l0.2,1.2
			l0.2,0.3l0.2-0.3l0.2-0.8l0.4,1.7l0.2-1.1l0.4,1.5l0.2-1.2l0.2,0.5l0.2-0.3l0.2,0.6l0.2-0.7l0.2,1.2l0.4-2.6l0.2,0.7l0.2,1.2
			l0.4-0.2l0.2,1.1l0.2-0.3l0.2,1.7l0.2-2.7l0.2,0.1l0.2-0.2l0.4,1.5l0.2-0.8l0.2,1l0.2-1.1l0.4,2.3l0.2-3l0.2,3l0.2-0.1l0.2-3.5
			l0.2,1.6l0.4,0.5l0.2-0.6l0.2,0.7l0.2,0.3l0.2-1.3l0.2,1.4l0.2-0.9l0.2-0.2l0.2,1.5l0.2,0.1l0.2-0.3l0.2-1.1l0.2,1.8l0.2,0.1
			l0.2-1.6l0.2,0.8l0.2-0.3l0.2,0.9l0.2,0.1l0.4-0.6l0.2,0.5l0.2-0.8l0.2,0.1l0.2-0.3l0.6,3.1l0.2-4.3l0.2,3l0.2-2.2l0.2,1.9
			l0.2-0.8l0.2-0.2l0.2,0.5l0.2,0.8l0.2-0.1l0.2-1.5l0.2,1.3l0.4-1.7l0.2,1.7l0.2-0.3l0.2,1.1l0.2,0.1l0.2,0.3l0.4-0.2l0.2-1.3
			l0.2,1.1l0.2-0.1l0.2,0.3l0.2-1.7l0.2,1.1l0.2,0.3l0.6-1.1l0.2,0.5l0.4,3.1l0.4-2.5l0.2,0.1l0.2-0.5l0.2,1.4l0.2-0.8l0.2,0.8
			l0.2-0.4l0.2,0.6l0.4,0.4l0.4-1.1l0.2-0.1l0.4,1.9l0.2-0.7l0.2,0.6l0.2-0.9l0.2,0.8l0.2-0.5l0.2,0.5l0.2-0.9l0.2,1.2l0.2-0.3
			l0.2,1.1l0.2-1.7l0.2,1.4l0.2-1.1l0.2-0.4l0.2,0.5l0.2-0.1l0.2-0.7l0.2,0.7l0.4,2.8l0.2-3.7l0.2,3l0.4-2.7l0.2,0.6l0.2,1.2
			l0.2-1.1l0.2,0.5l0.2-1.3l0.2,0.3l0.2,1.1l0.2,0.1l0.2-0.8l0.6,2.9l0.2-2l0.2,0.3l0.2,0.9l0.2-0.4l0.2,0l0.2,1.1l0.2-1.3l0.2-0.3
			l0.4,1.5l0.6-0.9l0.2-0.8l0.2,1.5l0.2,0l0.2-0.2l0.2,1.2l0.2-3.2l0.2,2l0.4-1.3l0.4,0.9l0.2-0.4l0.2,1.5l0.2-0.7l0.2,0.2l0.2,0.4
			l0.2-0.3l0.2-0.9l0.2,0.8l0.2-0.4l0.2,0.2l0.2,0.4l0.2,1l0.4-1l0.2,1.1l0.2-0.2l0.2-1.6l0.4,2.4l0.2-2.4l0.2,2l0.2-1l0.2,0.6
			l0.2,1.2l0.2-1.3l0.2-0.2l0.2,0.3l0.2,0.6l0.2-1.3l0.2,0.5l0.2-1.1l0.4,2.4l0.2-2.1l0.4,2l0.2-1.4l0.2,0.4l0.2,0.8l0.2,0.2
			l0.2-1.7l0.4,1.3l0.2,0.1l0.2-0.3l0.2,0.5l0.2-1l0.4,1.9l0.2-1.6l0.2,1.1l0.2-0.9l0.4,0.9l0.2,0l0.2-0.8l0.2,0.6l0.2,1.4l0.2-1.3
			l0.2,0.7l0.2-1.9l0.4,2.1l0.4-1.7l0.2,0.5l0.4-0.5l0.2,1.9l0.4,0l0.2-0.6l0.2-0.2l0.2-1.1l0.2,1.1l0.2,0.1l0.2,1l0.2-1.7l0.4,2
			l0.2-0.2l0.2,0.3l0.2-0.5l0.2,0.4l0.2-1.8l0.4,3l0.4-3.4l0.4,2.9l0.2-2.8l0.4,2.6l0.2-1.4l0.2,0.4l0.2,0l0.2,0.5l0.2-0.1l0.2,0.1
			l0.2-0.6l0.2,0.9l0.2-0.3l0.2,0.8l0.4-1.7l0.2-0.1l0.4,1.9l0.2-1.1l0.2-0.4l0.2,0.6l0.2-0.1l0.2,0.7l0.2-1.1h0.2l0.2,0.4l0.2,1
			l0.2-1.3l0.2,0.5l0.2-1.4l0.2,0.9l0.4,0.7l0.2,0.6l0.2-1.5h0.2l0.2,1.4l0.6-0.5l0.2-0.1l0.2,0.2l0.2,0.5l0.4-1.5l0.2,1.9l0.2-1
			l0.2,0.8l0.2-1.2l0.2,0.6l0.4-0.8l0.2,0.3l0.2-0.9l0.4,2.1l0.4-0.1l0.2-0.6l0.2-1.7l0.2,2.4l0.2,0.1l0.2-0.3l0.2-0.5l0.2-0.9
			l0.2,0.8l0.2-0.3l0.2,1.6l0.2-1.5l0.2,1.5l0.4-1.6l0.2,0.3l0.2,1l0.2-1.4l0.2,2.4l0.2-0.2l0.2,0l0.2-0.5l0.2-1.8l0.2,1.4l0.2-0.3
			l0.2-0.1l0.2,1.3l0.2-1.1l0.2,0.3l0.2,0.8l0.2-0.1l0.2-1.8l0.2,2l0.2-2l0.2,2l0.2-0.5l0.2,0.2l0.2-1.1l0.2,0.5l0.2-0.6l0.2-0.2
			l0.2,0.9l0.4,0.2l0.2-0.2l0.4,0.3l0.2-0.3l0.2,0.2l0.2,0l0.2,0.3l0.2-0.2l0.2,0.4l0.2,0.1l0.2-0.9l0.2,1.1l0.2,0.1l0.2-2.5
			l0.2,1.7l0.2-0.4l0.2,0.4l0.4-0.9l0.2,1.1l0.2-0.2l0.4,1.5l0.2-1.3l0.2,2.2l0.2-1.8l0.4-1.2l0.2,0.6l0.2,0.1l0.2,0.7l0.2-0.3
			l0.4,0l0.2,0.5l0.2-0.4l0.2,0.8l0.2-1.1l0.2,0l0.4,0.4l0.2,1l0.2-1.5l0.2,0.4l0.2-1.5l0.2,1.3l0.2-0.6l0.2,2.6l0.4-3l0.4,2.4
			l0.2-0.3l0.2-0.9l0.2,1l0.2-0.3l0.2-0.8l0.2-0.2l0.2,0.1l0.2,0.8l0.2,1.5l0.2-1.2l0.2-0.4l0.2,1.3l0.2-0.5l0.2-2.1l0.2,1.1
			l0.2-0.6l0.2,0.5l0.2-0.2l0.2,0.3l0.2-0.6l0.2,1.6l0.2-1l0.2,1l0.2-1.5l0.2-0.4l0.2,1.1l0.2-1.4l0.4,1.6l0.2-1.5l0.2,1.5l0.4-0.1
			l0.2-1.3l0.2,1.3l0.2,0.4l0.2-0.7l0.2,0.2l0.2-0.1l0.2,0.7l0.2-1.9l0.2,2l0.4-1.2l0.2,0.6l0.2-0.7l0.2,0.9l0.2-0.9l0.2,1.8
			l0.2-0.9l0.2-1.8l0.4,1.5l0.2-0.6l0.4,1.1l0.2,0.2l0.4-1.3l0.2,1.6l0.2-0.1l0.2-0.7l0.2-0.1l0.2-0.5l0.2,0.9l0.2-2l0.4,2.5l0.2-1
			l0.2-0.1l0.2,1.3l0.4-2.2l0.2,1.6l0.2-0.3l0.4-1.6l0.2,0.6l0.2,0.2l0.2,0.5l0.2,0.2l0.2-1.5l0.2,0.3l0.2,2l0.2-2.7l0.2,1.1
			l0.4,0.3l0.2-0.3l0.2,0l0.2,0.5l0.2,0l0.2-0.3l0.2,0.2l0.6-0.9l0.2,0.5l0.2,0.1l0.2,0l0.4,0.6l0.2-1.4l0.2,0.5l0.2-0.2l0.2-2.3
			l0.2,2l0.4,0.2l0.2,0.9l0.4-2.5l0.4,1.5l0.2,0.4l0.2-1.1l0.2,0.2l0.2-0.3l0.2,0.5l0.2-0.2l0.2-0.7l0.2,0.5l0.2-0.4l0.2,0.6l0.4-1
			l0.2-1.2l0.2,0.4l0.2,1.1l0.2-0.5l0.2-1.1l0.2,0.2l0.2-0.7l0.2,0.5l0.2,0.9l0.2-0.6l0.2-1.6l0.2,2.1l0.4-2.4l0.2,0.3l0.2,0.5
			l0.2-1.6l0.2,1l0.2-1.2l0.2,1h0.2l0.6-3l0.2,2.3l0.2-1.8l0.2-0.7l0.4,1.7l0.2-2.6l0.2,0.5l0.2,1.5l0.2-2.9l0.2,0.1l0.2-1l0.2,0.7
			l0.2-0.5l0.2-1.5l0.2-0.1l0.2,1l0.2-1.7l0.2,0.9l0.2-1.5l0.2-0.1l0.2-2.6l0.2,0.2l0.2-1l0.2-0.4l0.2-0.8l0.2,1.9l0.2-5.5l0.2,2.9
			l0.2-1.1l0.2-2.4l0.2,2.2l0.2-0.3l0.4-2.7l0.2,0.2l0.2-3.1l0.2,3.3l0.4-4l0.2,1l0.2,1.8l0.2-2.5l0.2,1.5l0.2-1.3l0.2,0.9l0.4-2.2
			l0.2,1l0.8,0.3l0.2,0.4l0.2-1.5l0.4,3.3l0.2-2.4l0.2,0l0.4,1.2l0.2-1.1l0.6,1.5l0.2,2.2l0.2-1.2l0.2,0.1l0.2,0.7l0.4,2.2l0.4-0.9
			l0.2,0.3l0.2,2.5l0.2-0.7l0.2,0.7l0.2-0.7l0.2,1.7l0.4-0.4l0.2,1.5l0.2,0l0.4,1.5l0.2-0.3l0.2,0.6l0.2,1.2l0.2-0.8l0.2-2l0.6,4.6
			l0.2-0.1l0.2-0.7l0.2,2.2l0.2-0.5l0.2-1l0.2,0l0.2,2.3l0.2-0.5l0.2-0.1l0.2,0.3l0.2,0.9l0.2-0.3l0.2,1.9l0.2-0.4l0.2-0.9l0.6,1.7
			l0.4-1.3l0.2,0.9l0.4-0.2l0.2,0.8l0.4,0.3l0.2,1l0.2-0.2l0.2-0.8l0.4,1.3l0.2,1.7l0.2-0.5l0.2-2l0.2,2.5l0.2-0.9l0.4,1.7l0.2-1.1
			l0.2,0.7l0.2,0.3l0.2-0.6l0.2,0.1l0.2,1.1l0.4-0.8l0.2-0.7l0.2,0.5l0.2,1.4l0.2-0.5l0.2,0.8l0.2-0.8l0.2,0.3l0.2,1.2l0.2-1
			l0.2,0.6l0.2,0.3l0.2-0.8l0.2-0.2l0.2,1.2l0.2-0.4l0.2,1.4l0.2-1.1l0.2,0.5l0.2-0.9l0.4,0.6l0.2,0.1l0.2,0.6l0.2-0.9l0.2,1
			l0.2-0.9l0.2,1l0.2,0.2l0.2-0.2l0.2,0.3l0.4-1.2l0.2,0.9l0.2-0.3l0.2,0.3l0.2,1.1l0.2-0.8l0.2,0.3l0.2-0.2l0.4,1.9l0.2,0.1
			l0.2-1.7l0.2-0.1l0.2-0.6l0.2,2l0.2-0.2l0.2-1.6l0.2,0.4l0.2,1.1l0.2-0.6l0.2,0.3l0.2,1.4l0.6-1.9l0.2,1.5l0.2-1l0.2,0.3l0.2-0.1
			l0.2,0.9l0.2-0.2l0.2,0.5l0.2-0.8l0,0"/>
	</g>
</g>
<g id="line2d_34">
	<g>
		<defs>
			<rect id="SVGID_00000120516660253800290750000009465819102301052554_" x="23.4" y="7.2" width="446.4" height="271.8"/>
		</defs>
		<clipPath id="SVGID_00000127734684418795483290000006482102276997217204_">
			<use xlink:href="#SVGID_00000120516660253800290750000009465819102301052554_"  style="overflow:visible;"/>
		</clipPath>
		
			<path style="clip-path:url(#SVGID_00000127734684418795483290000006482102276997217204_);fill:none;stroke:#B20046;stroke-linecap:square;stroke-linejoin:round;" d="
			M23.5,141.1l0.2,3l0.2-1.1l0.2,3.3l0.2-1l0.2,1.8l0.2-0.1l0.2,2.6l0.2-1.8l0.2,3.3l0.2,0.9l0.2-1.8l0.2,4.8l0.2-3.1l0.2,4.1
			l0.2,1.7l0.2-4.4l0.6,8.8l0.2-1l0.2,3l0.2,0.4l0.2-2.1l0.2-0.8l0.2-0.2l0.2,2.6l0.2-2l0.2,6.3l0.2-4.3l0.4,4.6l0.4-2.6l0.2,4.3
			l0.2-2.5l0.2,1.7l0.2,2.9l0.2-1.7l0.2,0.9l0.2-3.8l0.4,3.9l0.2-1.9l0.2,6.5l0.2-7.6l0.2,6l0.2-0.5l0.2-0.1l0.2,0.2l0.2,2.5
			l0.2-0.5l0.2,1.3l0.2-2.4l0.2-0.5l0.4,3.6l0.2-5.8l0.2,1.6L35,177l0.2-0.6l0.2,3l0.2-1.3l0.2-0.1l0.2,1.9l0.2-5.2l0.2,3.7l0.2,0
			l0.2-0.8l0.2,4.3l0.2-1l0.2-3.3l0.2-0.9l0.2,4.9l0.2-3.3l0.4,1.1l0.2,3.3l0.2-2.6l0.2-1.1l0.2,1.2l0.2-0.6l0.2,3.6l0.2,0.6
			l0.2-2.6l0.2,0.1l0.4-2.1l0.2,0.7l0.2,2.4l0.2-2.6l0.2,2l0.4-0.5l0.2-3.8l0.2,5.1l0.2-2.3l0.4,1.7l0.4-4.1l0.2,1.4l0.2-1.5l0.2,3
			l0.4-4.8l0.2,1.8l0.2-0.6l0.2,0.8l0.2-2.3l0.2,0.3l0.4-2l0.2,0.1l0.2-0.3l0.2,0.3l0.2-0.5l0.4-2.7l0.2,0.8l0.2-1.1l0.2-0.2
			l0.2-2.4l0.2,0.5l0.2-3l0.2,4.2l0.4-6.1l0.2,1.8l0.2-5.9l0.2-0.5l0.2-1.1l0.2,3.1l0.2-2.5l0.2,1.9l0.2-3.7l0.2,4.9l0.2-2.6
			l0.2,6.4l0.2-3.8l0.4,8l0.2,0.1l0.4,3.8l0.2,0.8l0.2-3.2l0.2,2.9l0.2,0.7l0.2,2.9l0.2-1l0.2,1.2l0.2-4.4l0.2,4.7l0.2,0.3l0.2-1
			l0.2,2.8l0.2-2.6l0.2,1.1l0.2-3.5l0.2,4.2l0.2,0.7l0.2,1.8l0.2-2.3l0.2,2.7l0.2-2.9l0.2,0.8l0.2-1.2l0.2,1l0.2,1.6l0.2-4.8
			l0.2,3.9l0.6-4.1l0.2,0.7l0.2-2.5l0.2,2.1h0.2l0.2-1.2l0.2-4.5l0.2,2.8H59l0.4-4.1l0.2,3.2l0.2-4l0.2-1l0.2,4.1l0.2-3.8l0.2-0.1
			l0.2-3.6l0.2,1.1l0.2-3.5l0.4,5.5l0.2-1.8l0.2,2.5l0.2-3.6l0.2,4.4l0.2-3.5l0.2,7.3l0.2-0.5l0.2,0.1l0.2,1l0.2,4.6l0.2,0.8
			l0.2,1.4l0.2-2.1l0.2,2.2l0.2,3.5l0.2,0.5l0.4-2.2l0.2,3.7l0.2,0.2l0.2-0.1l0.2,2.5l0.2-4.3l0.6,7.1l0.2-3.5L67,190l0.4,0.2
			l0.2-1.5l0.2,4.3l0.2-4.1l0.2,4.1l0.2,1.5l0.2-0.5l0.2-3.1l0.2,2.6l0.2-1.2l0.4,1.1l0.2,0l0.2-0.5l0.2,0.2l0.2,0.5l0.2,1.8
			l0.2,0.4l0.2-4.1l0.2,3.6l0.2,0.4l0.2-1.8l0.2,0.1l0.2,2.7l0.2-2.5l0.2-0.5l0.2,1.6l0.2,0.7l0.2,2.4l0.2-0.5l0.4-1.5l0.4,0.4
			l0.2-0.3l0.2,5.3l0.2-3.8l0.2,0.6l0.2-1.8l0.2,3.8l0.2,1.3l0.2-1.4l0.2-0.3L76,202l0.2,0.9l0.2-2.1l0.2,1.6l0.2-1l0.2,2.9l0.2-1.4
			l0.2,1.8l0.2-2.4l0.2-0.8l0.2,4.7l0.2-1.2l0.2-0.4l0.2-0.1l0.2,1.3l0.2,0.3l0.2-0.3l0.2,1.5l0.2-2.2l0.2,1.2l0.2,0.4l0.2-1.5
			l0.2,3.2l0.2-0.2l0.4-0.9l0.4-1.9l0.2,0.9l0.2-0.1l0.2,4.4l0.2-0.1l0.2-1.5l0.2-0.1l0.2-0.8l0.2,1.1l0.2-1.4l0.2,2.9l0.2-0.2
			l0.2,0.5l0.2-0.8l0.2,2.6l0.2-1.3l0.2-2.6l0.2,3l0.2-1l0.2,2.2l0.2-1.5l0.2,2.2l0.2-1.4l0.2-0.4l0.2,2.2l0.2-1.3l0.2-0.1l0.2,2.5
			l0.2-1.9l0.4,0.3l0.2,2.9l0.2-0.9l0.2,0.8l0.2-2.8l0.2,0.2l0.2,0.7l0.2,2.8l0.4-2.5l0.2,1.9l0.2-0.1l0.2,1.2l0.2-2.2l0.2-0.3
			l0.2,1.9l0.4,0.6l0.2,1.3l0.2,0.1l0.2-1l0.2,2.3l0.2-3.7l0.4,3.2l0.2-1.3l0.2,2.5l0.2,0.2l0.2-0.2l0.2-0.6l0.4,2.3l0.2,0.4
			l0.2-1.5l0.2,1.9l0.2-2.8l0.2-0.9h0.2l0.2,2.3l0.2,0.2l0.2-0.2l0.2-0.4l0.2,4.2l0.2-3.1l0.4,0.9l0.2-0.2l0.2-1.9l0.2,2.6l0.2-1.1
			l0.2,3.7l0.2-3.7l0.2-1.3l0.2,2.4l0.2-0.9l0.6,3l0.2-1l0.2-0.1l0.2-1.1l0.2,1.9l0.2-1.7l0.2,1.6l0.2-1.2l0.2,0.2l0.2,0.9l0.2-0.2
			l0.2,1.4l0.2,0.4l0.2,1.1l0.2-2.6l0.4,1.3l0.2-1.3l0.2,1.9l0.2,0l0.2-0.8l0.2-1.6l0.2,5.7l0.2-3.4l0.2,3.1l0.4-3.2l0.2-0.9
			l0.2,2.5l0.2-1.7l0.4,3.7l0.4-3l0.2-0.4l0.2,2.1l0.2,0.4l0.2-2.3l0.4,2.4l0.2-1.3l0.2-0.1l0.2-0.7l0.2,1.6l0.2,0.2l0.2-0.9
			l0.2-2.2l0.2,2.7l0.2,0.4l0.2-2.1l0.2,0.4l0.2,1.9l0.2,0.1l0.2-2.3l0.2,2.2l0.2-1l0.2,2.3l0.2-2.8l0.2,3.2l0.2-0.8l0.2-1.6
			l0.4,2.3l0.2-0.9l0.2,1.1l0.2-0.4l0.2-0.8l0.2-0.2l0.2,1.3l0.2-1l0.4,1.5l0.2,0.1l0.2-0.6l0.2-3.1l0.2,3.6l0.2-2.1l0.2,1.8
			l0.2-3.4l0.2,3.3l0.2,0.1l0.2,0.4l0.2-2.6l0.2,2.4l0.2-1.3l0.4-1l0.2,0.3l0.2-1.8l0.2,1.9l0.2-2.3l0.2,0l0.2-0.7l0.2,2.1l0.4-1.1
			l0.2,0.6l0.2-0.7l0.2-0.1l0.2,0.4l0.2,1.8l0.2,0.1l0.4,0.9l0.2-3.9l0.2,5l0.2-1.1l0.2-1.9l0.2,1.8l0.4-0.9l0.2,0.1l0.2,1.8
			l0.2-1.4l0.2,1l0.2-0.2l0.2,0.8l0.2-0.8l0.2-0.3l0.2,2.6l0.2-1.2l0.2,1.2l0.2-1.8l0.2,1.9l0.4-2.1l0.2-0.1l0.2,1.2l0.2-0.9l0.2,2
			l0.2-1.4l0.2-0.2l0.2,2.8l0.2,0.4l0.2-3.4l0.2,0.2l0.2,0.9l0.2-0.4l0.4,1l0.2-1.1l0.2,1l0.2,0.4l0.4,1.6l0.4-2.4l0.2,1.6l0.2-0.9
			l0.2,0.2l0.2-2.9l0.2,2.3l0.2,0.7l0.2-1l0.2,0l0.4-1l0.2,1.5l0.2,0.3l0.2,0l0.2-1.7l0.2,4l0.4-2l0.2,1l0.2,0.1l0.2-3.3l0.2,2.3
			l0.2-0.6l0.2,0.9l0.2-1.5l0.4,1.9l0.2-2.5l0.2,0.1l0.2,0.6l0.2,1.7l0.2-2.3l0.2,1.6l0.2-1l0.2,0.7l0.2,2l0.2-3.3l0.2,3l0.2-3.6
			l0.6,2.9l0.2,0.3l0.2-1.1l0.2,0.8l0.4-2l0.2,1.9l0.2-0.5l0.4,2l0.2-0.2l0.2-1.8l0.2,0.4l0.2-0.7l0.2-1.9l0.2,2.1l0.2,0.4l0.2-0.6
			l0.2,1.5l0.2-0.4l0.4-2.3l0.2,1.3l0.2-0.6l0.2-1.8l0.2,2.7l0.2-0.5l0.2-0.1l0.2,0.7l0.2-0.9l0.2-0.1l0.2,1.4l0.4-0.5l0.2-3.2
			l0.2,2.3l0.2,0.8l0.2-0.4l0.2-0.9l0.2,2.2l0.2-0.2l0.2-2.8l0.2,2.6l0.2-1.5l0.4,0.8l0.2,1.3l0.4-3.9l0.2,1l0.2-3.2l0.2,4.9
			l0.2-1.8l0.2-0.5l0.2-1.2l0.2,3l0.2-1.8l0.2-3.1l0.4,3.1l0.4-3.3l0.2,3.5l0.2-0.8l0.2,0.7l0.2-3.3l0.2,1l0.2-3.6l0.2,3.1l0.2-0.9
			l0.2,0.3l0.2-0.1l0.2-1.2l0.2,0.6l0.4,2.5l0.2-1.2l0.2,0l0.2,2.4l0.2-0.1l0.4-1.8l0.2,1.6l0.2-1.4l0.2,1.6l0.2,2.6l0.2-1l0.2,0.7
			l0.2-1.9l0.2,0.2l0.2,0.4l0.2-0.9l0.4,1.1l0.2-1.2l0.4,1.7l0.2-1.1l0.2,1.1l0.2-1.4l0.2,0l0.2,1.1l0.4-1.5l0.2-0.1l0.2-1.8
			l0.2,3.6l0.2-4.7l0.2,2.8l0.2,0.3l0.2-2.6l0.4,3.7l0.2-5l0.2,4.8l0.2-2.2l0.2,0.9l0.2-2.4l0.2,1.8l0.2-1.5l0.2,2.2l0.2-0.4
			l0.2-1.3h0.2l0.2,2.1l0.2-1.4l0.2-3.2l0.2,2.2l0.2-2.4l0.4,3.7l0.2-1.8l0.2,2.3l0.4-1.4l0.2,0.4l0.2-1.8l0.2,1.9l0.2,0.5l0.2-1.8
			l0.2,2.7l0.2,0.3l0.2,0.1l0.2,0.5l0.2-1.2l0.2-0.3l0.6,4.1l0.2-3.6l0.2,0.8l0.2,2.6l0.2-0.8l0.2-1.3l0.2,0.8l0.2-0.6l0.2,1.9
			l0.2-2.2l0.2,0.8l0.2,0.3l0.2,1.4l0.2-2.3l0.2,0.5l0.4-0.6l0.2-0.8l0.4,3l0.2-2.5l0.2-0.4l0.2,3.1l0.2-2.3h0.2l0.2,1.8l0.2,0.4
			l0.2-0.9l0.2-2.5l0.2,3.2l0.2-0.6l0.2-1.3l0.2-0.5l0.2,1.6l0.2-1l0.2,1.7l0.2-1.2l0.2,0.5l0.4-1.1l0.4,1.8l0.2-1.8l0.2,2.5
			l0.2-2.4l0.2,1.4l0.2-1l0.2,0.8l0.2-1.7l0.2,2.6l0.2,0.9l0.2,0.3l0.2-1.9l0.2,1.3l0.2-3.4l0.2,4.5l0.2-3.3l0.2-0.2l0.2,2l0.2-0.1
			l0.4-2.3l0.2,1.7l0.2-3.2l0.2,2.3l0.2,0.3l0.2-2.1l0.2,1.6l0.2-0.4l0.2,0.1l0.4,2.3l0.2-1.5l0.2,0.4l0.4-1.8l0.2,0.2l0.2-1.6
			l0.2,1.4l0.2,2.7l0.2-0.6l0.2-2.3l0.2-0.3l0.2,1.2l0.4-1.5l0.2,1l0.2-0.9l0.2,1.5l0.2-0.3l0.2-1l0.4,1.3l0.2,1.9l0.2-3.9l0.2,2.4
			l0.2,0.7l0.2-0.1l0.2,1.7l0.2-0.8l0.2-2l0.2,1.9l0.2,0.2l0.4-0.5l0.2-0.1l0.2-1l0.2,0.9l0.2-0.2l0.2,0.3l0.2,1.4l0.2-2.4l0.2,1.3
			l0.4-3.7l0.2,2.7l0.2-2.2l0.2,1.1l0.2-0.7l0.2-0.3l0.2,1.8l0.2-1l0.4,2.1l0.2-0.3l0.2-2.7l0.2,2.9l0.2,0.8l0.4-1.9l0.2,1.5
			l0.4,0.9l0.2,1.5l0.2-1.6l0.2,2.9l0.2-2.8l0.2,1.7l0.2-1l0.2,0.7l0.2-0.7l0.2,1.7l0.2-2.6l0.4,1.3l0.2,0.1l0.2,0.8l0.2-0.5
			l0.2,0.6l0.2-1l0.2,1.5l0.2-1.4l0.4,1.6l0.2-0.1l0.2,0.8l0.2-2.2l0.2,0.2l0.2-0.1l0.2,3.3l0.2-3.3l0.2,0.6l0.2,1.6l0.2,0.4
			l0.2-1.1l0.2-0.2l0.2,1.3l0.2,0l0.2-1.3l0.4,1.6l0.2,0.2l0.2-1.1l0.2,1.6l0.2-1.1l0.2,0.6l0.2-0.5l0.2,1.9l0.2-1.8l0.2,0.8
			l0.2-1.8l0.2,2.4l0.4-1.8l0.2,0.8l0.4-0.2l0.2-0.4l0.2,0.3l0.2-0.2l0.2,0.8l0.2-0.3l0.2-1.9l0.2,0.4l0.2,2.5l0.2-1.3l0.2,1.2
			l0.2-0.7l0.2,0.5l0.2-1.1l0.2,1.9l0.2-3.4l0.4,3.2l0.2-1.4l0.2,0.1l0.2,0.6l0.4-1.2h0.2l0.2-0.5l0.2-0.1l0.2,1.2l0.2-0.3l0.2,0.4
			l0.2-1.5l0.2-0.6l0.2-0.2l0.4,1.8l0.2-0.2l0.2-0.5l0.2,1l0.2,0.2l0.2-2.6l0.2,0.1l0.2,0.7l0.6,0.4l0.2-0.3l0.2-2.5l0.2,1.7
			l0.2-1.3l0.2-3.6l0.2,2.2l0.2,0.7l0.2-2.6l0.2-0.8l0.4-2.7l0.2,0l0.2,0.4l0.4-1.3l0.2-0.3l0.2-1.6l0.2,1.3l0.4-0.6l0.2,0.4
			l0.2,1.3l0.2,0.4l0.4-2.4l0.4,4.3l0.2-1.2l0.2,0.6l0.2-0.2l0.2,0.1l0.2,2.7l0.2-2.3l0.2,2.6l0.2-0.9l0.2,2.6l0.2-0.7l0.2-2
			l0.6,3.6l0.2-0.5l0.2,0.4l0.2-1.9l0.2,1.8l0.2-2.1l0.2-0.5l0.2,1.5l0.4-1.5l0.2,1.6l0.2-1.4l0.2,0.8l0.2-0.5l0.2,1.9l0.2-1.5
			l0.2,0.8l0.2-0.3l0.2-1l0.2,1l0.2-0.3l0.2-0.9l0.2,3.3l0.2,0.1l0.2-1.1l0.2-0.1l0.2,2.9l0.2-1.8l0.2-0.2l0.2,0.4l0.2-0.4l0.2,0.6
			l0.2,1.8l0.2-0.1l0.2-1.1l0.2-2.6l0.2,3.2l0.2-0.3l0.4-1.2l0.4,3.8l0.2-0.5l0.2-2l0.2,1.5l0.2,0.5l0.2-1.1l0.2,0.6l0.2,1.4
			l0.2-2.2l0.2,2.9l0.2-2.3l0.2,1.4l0.2-0.4l0.2,1.3l0.4-2.5l0.2,0.4l0.2-0.1l0.2,0.3l0.2,1.8l0.2-3l0.2,3l0.2-1.6l0.2-0.2l0.2,0.9
			l0.2-1.2l0.4-1.1l0.2,2.3l0.2-1.3l0.2,0.3l0.2-1.5l0.8,1.6l0.2-0.8l0.2-3.4l0.4,3.6l0.4-2l0.2,1.5l0.2-3.1l0.4,2.6l0.2-0.9
			l0.2,1.6l0.2-2.7l0.2,2.1l0.4-2.6l0.2,2.3l0.2,0.8l0.2-1.7l0.2,0.6l0.2-0.5l0.2,0.6l0.2-0.4l0.2,0.6l0.2,0l0.2,2.6l0.4-3.5
			l0.2,1.7l0.2,0.1l0.2-0.7l0.2,0.6l0.2-0.8l0.2,1.4l0.2-1l0.2,2.2l0.6-2.5l0.2-0.3l0.2,2.9l0.4-3.7l0.2,0.5l0.2,1.8l0.2-0.4l0.2-1
			l0.2-1.6l0.2,0.4l0.4-0.9l0.2,0.2l0.2,2.3l0.2-1.3l0.2,0.2l0.2,0.6l0.2-0.9l0.2,0.8l0.2-1.1l0.2-0.1l0.2,1.6l0.2-1.7l0.2-0.3
			l0.2,2.5l0.2-2.9l0.2,1.5l0.2-0.3l0.2,1.5l0.2-0.7l0.2,0.1l0.2-0.8l0.2,1l0.2-1.6l0.2,2l0.4-2.7l0.2,1l0.8-2.6l0.2-2.7l0.2-0.5
			l0.8-5l0.2,0.9l0.2,1.4l0.2-1.9l0.2,1.8l0.2,4.3l0.2-2.9l0.2,2.3l0.2,0.3l0.2,2.3l0.2,0.4l0.2,0.9l0.2,1.4l0.2-0.7l0.2,0.4l0.2-1
			l0.2,3.9l0.2,0.3l0.2-2l0.2,1.1l0.2,0.3l0.2-1.1l0.2,1.3l0.2,0.1l0.4-0.4l0.2,2.6l0.2-1.4l0.2-0.1l0.2,0.4l0.2,2l0.4-2.8l0.2,0.4
			l0.2-1.1l0.2,2.1l0.2-1.7l0.2,0.3l0.2-1.5l0.2,0.3l0.2,4l0.2-2.5l0.2-0.7l0.2,1.3l0.6-1.8l0.2-0.2l0.2,2.5l0.2-1.7l0.2,1.1h0.2
			l0.4-1.1l0.6,2l0.4-0.9l0.4,2.3l0.6-1.8l0.2,1l0.2-0.5l0.2,1.1l0.2-0.3l0.2,2l0.6-2.9l0.2-0.1l0.2,2.5l0.2-2.7l0.2,2.3l0.2-0.6
			l0.2,0l0.2,0.3l0.2-0.5l0.2,0.6l0.4,0.3l0.2,0.9l0.2-1.3l0.2,0.6l0.4,0.1l0.2-1.9l0.4,1.6l0.2-0.7l0.2,3.1l0.2-2.8l0.2,1.2
			l0.2,0.1l0.2-1l0.2,2.1l0.2-1.8l0.2,1.6l0.2-2l0.2,1.8l0.2-1.6l0.4,2.2l0.2-0.4l0.2-1.3l0.2,3.2l0.2-0.4l0.4-2.7l0.2,2.7l0.2,0
			l0.2-0.2l0.2-0.9l0.2,0.6l0.2-0.4l0.2,1.9l0.2-0.1l0.2-2.5l0.2,0.3l0.2,1.9l0.2,0.1l0.2-0.6l0.2,0.3l0.2,1.3l0.2-2.2l0.2,0.7
			l0.2-0.2l0.2-0.6l0.2-0.1l0.2,1.6l0.2,0.3l0.2-2.7l0.4,3.1l0.2-0.4l0.2,0.2l0.2-0.9l0.4-0.7l0.2,1l0.2-1.1l0.2-0.2l0.2,1.4
			l0.2,0.2l0.2,1.1l0.2-1l0.2,2.5l0.2-1.4l0.2,0.2l0.2-0.6l0.2,0.1l0.2-0.6l0.2,1.1l0.4-2.6l0.2,3.4l0.2-0.6l0.2,0.2l0.6-0.6
			l0.2,0.9l0.2-1.6l0.2,1.6l0.2-0.5l0.2,0.5l0.2-0.2h0.2l0.2-0.7l0.2,0.4l0.2,0.8l0.2-0.8l0.2,0l0.2-1.3l0.2,1.3l0.2-0.2l0.2,0.3
			l0.2,1.4l0.2-1.7l0.4,0.9l0.2-2.2l0.2,1l0.4-0.5l0.2,1.2l0.2-0.1l0.2,0.5l0.2-1l0.4-0.3l0.2,1.4l0.2-1.1l0.2,0.4l0.2-1.9l0.2,2
			l0.2-2.2l0.2,1.2l0.2-1l0.2,1.8l0.2-0.8l0.2,1.4l0.2-3.6l0.2,2.9l0.4-2.9l0.2,0.9l0.2-1.5l0.4,4l0.2-1.8l0.2-0.1l0.2,0.4l0.2,0.2
			l0.2-1l0.4,2.6l0.2-2.6l0.2,1.9l0.2-0.9l0.2,1l0.2-2.2l0.2,2.2l0.2,0.1l0.2,0.3l0.4-2.2l0.4,0.8l0.2-0.4l0.2,0.9l0.2-0.6l0.2,1.6
			l0.2-0.9l0.2-1.5l0.4,3.4l0.2-2.3l0.2,0.7l0.2,0.1l0.4-0.4l0.2-1l0.4,2.1l0.2,0.5h0.2l0.2,0.5l0.6-1.4l0.2,0.6l0.2-0.1l0.2,1.7
			l0.2-0.1l0.2-2.6l0.2,1.3l0.4,0.3l0.2-1.2l0.2,1.2l0.2,0.4l0.2,1.3l0.2-0.8l0.2-2.2l0.4,2.1l0.2-1.3l0.2,1.7l0.2-1.7l0.2,0.8
			l0.2,0.2l0.2-0.2l0.2-0.5l0.2,0.5l0.2-0.9l0.2,1.2l0.2-0.4l0.2,1l0.2-1.4l0.2,0.9l0.2-0.2l0.2-2.5l0.2,2.4l0.2,0.3l0.2-1.4
			l0.2,1.4l0.2,0.5l0.2-0.2l0.2,1.2l0.6-2.3l0.2,0.6l0.2,0l0.2-1.7l0.2,1.3l0.2-1l0.2,1.1l0.2-0.1l0.2,0.5l0.2-0.3l0.2-0.9l0.2,0.1
			l0.2-1.2l0.2-0.3l0.2,1l0.2-0.7l0.2-1.9l0.2,1.2l0.4-2.5l0.2,1.5l0.2-1.5l0.2,0.6l0.2-0.6l0.2-1.4l0.4-0.2l0.4,2.9l0.2-1l0.4,2.1
			l0.4-0.7l0.2,2.4l0.2,0.5l0.2-1l0.2,1.8l0.2-0.2l0.2-0.9l0.4,2l0.2-0.8l0.2,0.5l0.2-1.3l0.6,3l0.4-1.1l0.2-0.2l0.2,0l0.2,1.3
			l0.2-2l0.2,1.8l0.2-1.2l0.4,1.1l0.2-0.6l0.2,1.6l0.2-0.7l0.2,0.6l0.2-1l0.2-0.3l0.4,0.2l0.2,1.1l0.2,0.2l0.2-0.4l0.2-0.2l0.2-0.9
			l0.2,1.5l0.2-0.6l0.2,0.4l0.2,0.9l0.2-1.3l0.2,2.2l0.2-2.3l0.2,1.2l0.2-0.3l0.2-1l0.2,1.4l0.2,0.2l0.2-2l0.2,2.8l0.2-0.5l0.2-1.4
			l0.2,0.2l0.2-0.2l0.2,1.4l0.4-1.5l0.2,0.2l0.2,1.7l0.4-2.2l0.2,1.5l0.2-0.1l0.4,1l0.6-2l0.4,1.2l0.2-0.3l0.4-1.5l0.2,1.4l0.2-0.5
			l0.2-0.1l0.2-0.3l0.2,0.8l0.2-1.5l0.2,1.6l0.2-0.3l0.2,0l0.2,0.5l0.4-1.7l0.2,1.4l0.2-0.5l0.2,0.5l0.2-0.4l0.2,0.3l0.2,0.5
			l0.2-0.7l0.2,1.2l0.2-1.4l0.2-0.3l0.2,0.7l0.2,2.5l0.2-1.3l0.2-0.2l0.2-0.8l0.2,1.4l0.2-1.7l0.2,0.8l0.2-0.2l0.2,0.4l0.2-1.9
			l0.2,1.7l0.2-1.1l0.2,1.7l0.2-0.8l0.4,0.8l0.2-0.5l0.2,0.2l0.2-0.4l0.2,0.7l0.2,0l0.2-0.1l0.2-0.3l0.2,1l0.2-0.6l0.2,1l0.2-1.5
			l0.2,1.2l0.2-0.2l0.4,0.5l0.2-2.3l0.2,2.5l0.2-0.9l0.2-0.2l0.2-0.4l0.2,2.2l0.6-2.2l0.2,1.1l0.2-1.9l0.2,0.2l0.2,1l0.2-1.1
			l0.2,2.2l0.2-0.3l0.4-2.5l0.2,1.8l0.2,0.7l0.2,0l0.2,0.6l0.6-1.1l0.4,0.9l0.2-0.8l0.2,0l0.2,1.1l0.2-2l0.6,3.3l0.2-2.4l0.2,0.9
			l0.4-0.5l0.2,0.8l0.2,0.1l0.2-0.8l0.2,1l0.2-0.3l0.2,0.6l0.4-0.7l0.2,1.1l0.2-1.4l0.2,0.1l0.2,1.8l0.2-0.2l0.2-1.8l0.2,0.7
			l0.2,0.3l0.4-1.2l0.2,0.5l0.2,0.9l0.4-0.6l0.2,0.8l0.2-0.2l0.2,0l0.4-0.4l0.2,1.2l0.2-0.4l0.4-1.6l0.4,1.6l0.2-0.3l0.2-0.6
			l0.2,1.6l0.2-1.8l0.2-0.3l0.2,1.3l0.2-0.1l0.2-0.6l0.2,0.4l0.2-1.2l0.2,1.5l0.2-1.4l0.2,1.2l0.2-1.8l0.2,1.7l0.4-1.1l0.2,1.7
			l0.2-0.8h0.2l0.2,0.7l0.2-1l0.2,0.1l0.2,0.9l0.2-1.2l0.2,0.8l0.2-1.1l0.2,1.7l0.4-0.8l0.2,1.7l0.2-0.9l0.2,0.2l0.2-0.3l0.2,0.1
			l0.2-1l0.4,0.7l0.2,0.3l0.2-0.4l0.2-0.8l0.2,0l0.2-0.8l0.2,1.5l0.2-0.7l0.2,1l0.2,0.3l0.2,0.7l0.2-1l0.4-0.3l0.2,1.3l0.2-0.9
			l0.4,1l0.2-1.7l0.2,1.6l0.2-0.6l0.4,0.5l0.2-0.1l0.2-0.3l0.2,0.7l0.2,0.2l0.2,0l0.2,0.2l0.2-1.5l0.2-0.1l0.2,0.8l0.2,0.3l0.4-0.7
			l0.4,1.3l0.2-0.4l0.2-2.1l0.2,0.9l0.4,0.6l0.2,0.4l0.2-0.9l0.2-0.1l0.2,1.7l0.2-0.8l0.2,0.5l0.2-1.3l0.2,0.3l0.2,1l0.2-0.2
			l0.4-1.1l0.2,1.5l0.4-0.5l0.2,0.1l0.2-0.6l0.2,2.3l0.4-2.5l0.2,1.7l0.2-0.1l0.4-1.6l0.4,1.7l0.2-1.1l0.2,1.1l0.2-0.2l0.2-1.5
			l0.2,2.3l0.2-0.5l0.2-1.7l0.2,1.4l0.2-0.2l0.2-0.6l0.2,0.6h0.2l0.2-0.2l0.2-0.4l0.2-0.9l0.2,2.6l0.2-0.5l0.4-1.6l0.2-0.3l0.2,1.9
			l0.2-2.1l0.4,1.5l0.4-1l0.2,0.6l0.2,0l0.2-2.6l0.2,2.2l0.2,0.8l0.2-1.2l0.2,1.1l0.2,0.1l0.2-0.2l0.2,0.2l0.4-1.1l0.2,0.5l0.2-0.1
			l0.2,0.3l0.2,0.8l0.2-0.5l0.2,0l0.2-0.2l0.2,1l0.2-1.2l0.2-0.5l0.2,1.3l0.2,0.2l0.2-1.5l0.2,0.9l0.2-0.3l0.2,1.1l0.2-0.8l0.2,0.8
			l0.2-0.1l0.2-0.3l0.2-0.6l0.2,0.2l0.2,0.5l0.2-1.2l0.2,1.1l0.4-1.1l0.2-0.3l0.2,2.1l0.2-0.9l0.2,1.6l0.2-0.6l0.2-1.2h0.2l0.2,0.8
			l0.2-0.3l0.2,0.7l0.2-2l0.2,0.2l0.2,0.9l0.2-0.5l0.2,0.5l0.2-0.4l0.2,1l0.2-0.1l0.2,0.2l0.2-1.5l0.2,1.4l0.2-0.3l0.2,0.6l0.2-1.3
			l0.2,0.8l0.2-1l0.2,0.9l0.2-1l0.2,1.1l0.2-0.2l0.4-0.7l0.2,1.4l0.2-1.2l0.4,0.5l0.2-0.8l0.2,0.9l0.2,0.2l0.2-1.7l0.2,1l0.2-1.1
			l0.2,0.6l0.2,1.1l0.4-0.6l0.2-1.1l0.2,0.5l0.2,1.7l0.2-0.6h0.2l0.2-0.4l0.2,0.2l0.2,1l0.2-1.8l0.2,2.1l0.2-1l0.2,0.7l0.2-0.5
			l0.4,0.4l0.2,0l0.6-1.6l0.2,0.4l0.2-0.2l0.4,0.8l0.2-0.3l0.2,0.9l0.2-1.1l0.2,0.9l0.2-0.9l0.2,1.6l0.4-1.4l0.2,0.6l0.2-1.6
			l0.2,1.9l0.2-0.4l0.2-0.1l0.2-1.1l0.2,1l0.2-0.8l0.2,0.5l0.4-0.1l0.4,0.9l0.2-2l0.2,1.9l0.2-2.3l0.2,0.4l0.2-0.1l0.4,1.8l0.4-0.6
			l0.2-0.4l0.2,0.1l0.2-1.1l0.2,1.5l0.4-1.4l0.2,1.9l0.2-0.4l0.2-1.2l0.4,1l0.2-0.6l0.2,0.8l0.2-1.3l0.2,2.4l0.4-1.7l0.2,2.3
			l0.4-2.7l0.4,0.8l0.2-0.2l0.2,0.2l0.2-0.4l0.2,1l0.2-0.3l0.4-1.2l0.2,0.1l0.2,0.7l0.2,0.2l0.2-0.3l0.2-0.9l0.4,0.5l0.2-1.1l0.2,1
			l0.2-0.8l0.2,0.9l0.2-0.4l0.2-0.1l0.2,0.3l0.2,1.1l0.2-2l0.2,1.2l0.2-0.6h0.2l0.2-0.2l0.2-1.6l0.2,2l0.2-2l0.2,1.5l0.2-0.8
			l0.6,1.4l0.2-0.2l0.4,1.7l0.2-1.1l0.2,0.4l0.2-0.9l0.2,0.5l0.6-0.2l0.2,0.8l0.4-0.2l0.2,0.7l0.6-1.2l0.2-0.1l0.2,0.1l0.2,0.8
			l0.2-1l0.2,0.8l0.2-0.1l0.2-1.5l0.2,1.4l0.4-0.6l0.2,2.1l0.2,0.2l0.4-2.1l0.2-0.8l0.4,1l0.2,0.1l0.2,0.4l0.2-0.4l0.2,1.2l0.4-1.5
			l0.2,0.8l0.4-1.7l0.2,0.8l0.2,0.1l0.2,0.5l0.2-1.8l0.2,0.7l0.2,1.2l0.2-0.8l0.2-0.2l0.2,1.1l0.2-1l0.2-0.2l0.4-1.5l0.4,1.2
			l0.2,2.7l0.2-3.1l0.2,0.8l0.2-0.3l0.2,0.5l0.4-0.2l0.2,0.8l0.2-1.5l0.4,0.6l0.2-0.1l0.2,0.4l0.2-0.9l0.2,1.1l0.2-1.5l0.2,1.9
			l0.2-1.3l0.2-0.2l0.2,0.6l0.2-0.7l0.4,0.3l0.2-0.9l0.2-0.1l0.4-0.4l0.2,0.8l0.4-2l0.2,1.7l0.2-1.4l0.2,0.3l0.2-0.2l0.4,0.9
			l0.2-1.2l0.2,0.2l0.6-0.1l0.2,1.9l0.2-1.5l0.2-0.5l0.2-1.5l0.2,0.2l0.2,1.5l0.2-0.8l0.2,0.1l0.2-1.2l0.2,1.3l0.2-0.8l0.2-1.5
			l0.2,1.1l0.4,0.2l0.2-0.9l0.2-0.1l0.2,0.8l0.2,0l0.2-1.3l0.2,0.1l0.2,0.8l0.2,0.3l0.2-1.3l0.2,1l0.2-0.5l0.2,0.3l0.2-0.9l0.4,1.6
			l0.2-0.2l0.2,0.7l0.2-2.1l0.2,1.2l0.2-0.8l0.6-0.8l0.2,0.3l0.4,2.3l0.2-2.5l0.2,0.4l0.2,0.2l0.2,0.5l0.2-0.4l0.2-1.1l0.2,0.3
			l0.2,0.8l0.2-0.4l0.2-1.2l0.4,1.4l0.2-0.9l0.2,2.4l0.2-1.1l0.2-0.2l0.2-0.8l0.2,0.2l0.2,1.2l0.2-1.2l0.2,0.1l0.2,0.4l0.2,0.1
			l0.2-0.3l0.2,0.8l0.4-0.1l0.2-0.7l0.4-0.3l0.2,1.9l0.4-0.9l0.2-0.9l0.2,0.9l0.2-0.6l0.2,1.4l0.2-0.3l0.2,2.1l0.2-0.9l0.2,0
			l0.4-0.7l0.2,1.5l0.2-0.1l0.2,0.1l0.2-0.3l0.2,0.4l0.2-0.5l0.2,0.7l0.2,0.2l0.2-0.1l0.2-0.4l0.2,0.1l0.2-0.4l0.2,0.9l0.2-1.1
			l0.2,1.9l0.2,0.2l0.2-0.9l0.2,0.5l0.2,0.1l0.2-0.6l0.2,1l0.2-1.7l0.2,1.6l0.2,0.6l0.6-0.7l0.2-0.7l0.2,0.7l0.2-0.2l0.2,1.2
			l0.2-1.2l0.2,0.9l0.2,0.3l0.2-0.6l0.2,1.6l0.4-1.5l0.2,1.1l0.2,0.1l0.4-1.7l0.2,1.5l0.2,0.2l0.2,0.8l0.2-1.2l0.2,0.4l0.2-0.1
			l0.2,0.6l0.2-1l0.2,2.2l0.2-1.7h0.2l0.4,0.9l0.2-1l0.6,0.6l0.2-0.4l0.4,0.6l0.2-1l0.2,1.1l0.2-0.4l0.2,0.8l0.2-0.1l0.2-0.4
			l0.2,0.5l0.2,0.9l0.2-0.4l0.2,0.3l0.2-1.3l0.2,1l0.2-0.6l0.4,1.1l0.2-2.2l0.2,1.9l0.2,0.3l0.2-1l0.2,1l0.2,0l0.2-0.2l0.2-1.4
			l0.2,1.2l0.2,0.2l0.4-0.8l0.2,0.2l0.2,0.5l0.2-0.1l0.2-0.7l0.2,0.1l0.4,0.6l0.2-0.5l0.2,0.4l0,0"/>
	</g>
</g>
<g id="patch_3">
	<path class="st6" d="M23.4,279V7.2"/>
</g>
<g id="patch_4">
	<path class="st6" d="M23.4,279h446.4"/>
</g>
<g id="legend_1">
	<g id="patch_5">
		<path class="st7" d="M81.4,59.2h110.4c1.3,0,2-0.7,2-2v-43c0-1.3-0.7-2-2-2H81.4c-1.3,0-2,0.7-2,2v43
			C79.4,58.6,80.1,59.2,81.4,59.2z"/>
	</g>
	<g id="line2d_35">
		<path class="st8" d="M83.4,20.3h10h10"/>
	</g>
	<g id="text_9">
		<g transform="translate(221.422812 23.798437) scale(0.1 -0.1)">
			<g>
				<path id="DejaVuSans-72_00000031171617280318179090000006083134881233140377_" d="M-1058.9,46.3c-1,0.6-2.1,1-3.3,1.3
					c-1.2,0.3-2.5,0.4-3.9,0.4c-5.1,0-9-1.7-11.7-5s-4.1-8-4.1-14.2V0h-9v54.7h9v-8.5c1.9,3.3,4.4,5.8,7.4,7.4c3,1.6,6.7,2.4,11,2.4
					c0.6,0,1.3,0,2-0.1c0.8-0.1,1.6-0.2,2.5-0.4L-1058.9,46.3z"/>
			</g>
			<g>
				<path id="DejaVuSans-65_00000111879659451156072980000018069789491615728550_" d="M-1004.9,29.6v-4.4h-41.3
					c0.4-6.2,2.3-10.9,5.6-14.1s8-4.9,13.9-4.9c3.4,0,6.8,0.4,10,1.3s6.5,2.1,9.7,3.8V2.8c-3.2-1.4-6.5-2.4-9.9-3.1
					s-6.8-1.1-10.3-1.1c-8.7,0-15.6,2.5-20.7,7.6c-5.1,5.1-7.6,12-7.6,20.6c0,8.9,2.4,16,7.2,21.3c4.8,5.3,11.4,7.9,19.6,7.9
					c7.4,0,13.2-2.4,17.5-7.1C-1007.1,44.2-1004.9,37.7-1004.9,29.6z M-1013.9,32.2c-0.1,4.9-1.4,8.8-4.1,11.8
					c-2.7,2.9-6.2,4.4-10.7,4.4c-5,0-9-1.4-12-4.2s-4.7-6.8-5.2-12L-1013.9,32.2z"/>
			</g>
			<g>
				<path id="DejaVuSans-2d" d="M-994.7,31.4h26.3v-8h-26.3V31.4z"/>
			</g>
			<g>
				<path id="DejaVuSans-69_00000060742773740190470170000001430347325521634701_" d="M-954.1,54.7h9V0h-9V54.7z M-954.1,76h9V64.6
					h-9V76z"/>
			</g>
			<g>
				<path id="DejaVuSans-6e_00000087380192135210062560000015407497014563415456_" d="M-880.9,33V0h-9v32.7c0,5.2-1,9-3,11.6
					c-2,2.6-5,3.9-9.1,3.9c-4.9,0-8.7-1.5-11.5-4.6c-2.8-3.1-4.2-7.3-4.2-12.6V0h-9v54.7h9v-8.5c2.2,3.3,4.7,5.8,7.6,7.4
					c2.9,1.6,6.3,2.4,10.1,2.4c6.3,0,11-1.9,14.2-5.8C-882.5,46.3-880.9,40.6-880.9,33z"/>
			</g>
			<g>
				<path id="DejaVuSans-74_00000033344772052297603090000011058227307623977917_" d="M-854.1,70.2V54.7h18.5v-7h-18.5V18
					c0-4.5,0.6-7.3,1.8-8.6s3.7-1.9,7.5-1.9h9.2V0h-9.2c-6.9,0-11.7,1.3-14.4,3.9c-2.6,2.6-4,7.3-4,14.1v29.7h-6.6v7h6.6v15.5
					H-854.1z"/>
			</g>
			<g>
				<path id="DejaVuSans-65_00000035492683258745809170000002534118294220939186_" d="M-777,29.6v-4.4h-41.3
					c0.4-6.2,2.3-10.9,5.6-14.1s8-4.9,13.9-4.9c3.4,0,6.8,0.4,10,1.3s6.5,2.1,9.7,3.8V2.8c-3.2-1.4-6.5-2.4-9.9-3.1
					s-6.8-1.1-10.3-1.1c-8.7,0-15.6,2.5-20.7,7.6c-5.1,5.1-7.6,12-7.6,20.6c0,8.9,2.4,16,7.2,21.3c4.8,5.3,11.4,7.9,19.6,7.9
					c7.4,0,13.2-2.4,17.5-7.1C-779.1,44.2-777,37.7-777,29.6z M-785.9,32.2c-0.1,4.9-1.4,8.8-4.1,11.8c-2.7,2.9-6.2,4.4-10.7,4.4
					c-5,0-9-1.4-12-4.2s-4.7-6.8-5.2-12L-785.9,32.2z"/>
			</g>
			<g>
				<path id="DejaVuSans-72_00000111900504249653186310000010895629305802011059_" d="M-730.5,46.3c-1,0.6-2.1,1-3.3,1.3
					c-1.2,0.3-2.5,0.4-3.9,0.4c-5.1,0-9-1.7-11.7-5s-4.1-8-4.1-14.2V0h-9v54.7h9v-8.5c1.9,3.3,4.4,5.8,7.4,7.4c3,1.6,6.7,2.4,11,2.4
					c0.6,0,1.3,0,2-0.1c0.8-0.1,1.6-0.2,2.5-0.4L-730.5,46.3z"/>
			</g>
			<g>
				<path id="DejaVuSans-63" d="M-684,52.6v-8.4c-2.5,1.4-5.1,2.5-7.6,3.2s-5.1,1-7.7,1c-5.8,0-10.4-1.8-13.6-5.5
					c-3.2-3.7-4.8-8.9-4.8-15.5s1.6-11.9,4.8-15.6c3.2-3.7,7.8-5.5,13.6-5.5c2.6,0,5.2,0.3,7.7,1s5.1,1.8,7.6,3.2V2.1
					c-2.5-1.2-5.1-2-7.8-2.6c-2.7-0.6-5.5-0.9-8.6-0.9c-8.2,0-14.8,2.6-19.6,7.8c-4.8,5.2-7.3,12.2-7.3,21c0,8.9,2.4,15.9,7.3,21
					c4.9,5.1,11.6,7.7,20.2,7.7c2.8,0,5.5-0.3,8.1-0.9C-689,54.6-686.5,53.7-684,52.6z"/>
			</g>
			<g>
				<path id="DejaVuSans-61" d="M-643.5,27.5c-7.3,0-12.3-0.8-15.1-2.5s-4.2-4.5-4.2-8.5c0-3.2,1.1-5.7,3.2-7.6
					c2.1-1.9,5-2.8,8.6-2.8c5,0,9,1.8,12,5.3s4.5,8.2,4.5,14.1v2H-643.5z M-625.6,31.2V0h-9v8.3c-2.1-3.3-4.6-5.8-7.7-7.3
					s-6.8-2.4-11.2-2.4c-5.6,0-10,1.6-13.4,4.7c-3.3,3.1-5,7.4-5,12.6c0,6.1,2.1,10.8,6.2,13.9c4.1,3.1,10.3,4.7,18.4,4.7h12.6v0.9
					c0,4.1-1.4,7.3-4.1,9.6s-6.5,3.4-11.5,3.4c-3.1,0-6.2-0.4-9.1-1.1c-3-0.8-5.8-1.9-8.5-3.4v8.3c3.3,1.3,6.5,2.2,9.6,2.8
					c3.1,0.6,6.1,1,9,1c7.9,0,13.8-2.1,17.7-6.2C-627.5,45.7-625.6,39.5-625.6,31.2z"/>
			</g>
			<g>
				<path id="DejaVuSans-6c" d="M-607.1,76h9V0h-9V76z"/>
			</g>
			<g>
				<path id="DejaVuSans-61_00000128452716229861978110000018280643620647491204_" d="M-554.4,27.5c-7.3,0-12.3-0.8-15.1-2.5
					s-4.2-4.5-4.2-8.5c0-3.2,1.1-5.7,3.2-7.6c2.1-1.9,5-2.8,8.6-2.8c5,0,9,1.8,12,5.3s4.5,8.2,4.5,14.1v2H-554.4z M-536.5,31.2V0h-9
					v8.3c-2.1-3.3-4.6-5.8-7.7-7.3s-6.8-2.4-11.2-2.4c-5.6,0-10,1.6-13.4,4.7c-3.3,3.1-5,7.4-5,12.6c0,6.1,2.1,10.8,6.2,13.9
					c4.1,3.1,10.3,4.7,18.4,4.7h12.6v0.9c0,4.1-1.4,7.3-4.1,9.6s-6.5,3.4-11.5,3.4c-3.1,0-6.2-0.4-9.1-1.1c-3-0.8-5.8-1.9-8.5-3.4
					v8.3c3.3,1.3,6.5,2.2,9.6,2.8c3.1,0.6,6.1,1,9,1c7.9,0,13.8-2.1,17.7-6.2C-538.5,45.7-536.5,39.5-536.5,31.2z"/>
			</g>
			<g>
				<path id="DejaVuSans-74_00000143590452220469486710000014392181823846626967_" d="M-509.1,70.2V54.7h18.5v-7h-18.5V18
					c0-4.5,0.6-7.3,1.8-8.6s3.7-1.9,7.5-1.9h9.2V0h-9.2c-6.9,0-11.7,1.3-14.4,3.9c-2.6,2.6-4,7.3-4,14.1v29.7h-6.6v7h6.6v15.5
					H-509.1z"/>
			</g>
			<g>
				<path id="DejaVuSans-65_00000157308599717913719170000017332575879513179826_" d="M-432,29.6v-4.4h-41.3
					c0.4-6.2,2.3-10.9,5.6-14.1c3.3-3.2,8-4.9,13.9-4.9c3.4,0,6.8,0.4,10,1.3c3.2,0.8,6.5,2.1,9.7,3.8V2.8c-3.2-1.4-6.5-2.4-9.9-3.1
					c-3.4-0.7-6.8-1.1-10.3-1.1c-8.7,0-15.6,2.5-20.7,7.6c-5.1,5.1-7.6,12-7.6,20.6c0,8.9,2.4,16,7.2,21.3
					c4.8,5.3,11.4,7.9,19.6,7.9c7.4,0,13.2-2.4,17.5-7.1C-434.2,44.2-432,37.7-432,29.6z M-441,32.2c-0.1,4.9-1.4,8.8-4.1,11.8
					c-2.7,2.9-6.2,4.4-10.7,4.4c-5,0-9-1.4-12-4.2c-3-2.8-4.7-6.8-5.2-12L-441,32.2z"/>
			</g>
			<g>
				<path id="DejaVuSans-64_00000098198302052185084190000002258642003915430553_" d="M-381.3,46.4V76h9V0h-9v8.2
					c-1.9-3.2-4.3-5.7-7.2-7.2c-2.9-1.6-6.3-2.4-10.4-2.4c-6.6,0-12,2.6-16.1,7.9c-4.1,5.3-6.2,12.2-6.2,20.8s2.1,15.5,6.2,20.8
					c4.2,5.3,9.5,7.9,16.1,7.9c4,0,7.5-0.8,10.4-2.4C-385.6,52.1-383.2,49.6-381.3,46.4z M-411.9,27.3c0-6.6,1.4-11.8,4.1-15.5
					s6.5-5.6,11.2-5.6s8.5,1.9,11.2,5.6c2.7,3.8,4.1,8.9,4.1,15.5s-1.4,11.8-4.1,15.5c-2.7,3.8-6.5,5.6-11.2,5.6s-8.5-1.9-11.2-5.6
					S-411.9,33.9-411.9,27.3z"/>
			</g>
		</g>
	</g>
	<g id="line2d_36">
		<path class="st9" d="M83.4,35h10h10"/>
	</g>
	<g id="text_10">
		<g transform="translate(221.422812 38.476562) scale(0.1 -0.1)">
			<g>
				<path id="DejaVuSans-4f" d="M-1060.6,66.2c-7.2,0-12.9-2.7-17.1-8c-4.2-5.3-6.3-12.6-6.3-21.8c0-9.2,2.1-16.4,6.3-21.8
					c4.2-5.3,9.9-8,17.1-8c7.2,0,12.8,2.7,17,8c4.2,5.3,6.3,12.6,6.3,21.8c0,9.2-2.1,16.5-6.3,21.8
					C-1047.8,63.5-1053.4,66.2-1060.6,66.2z M-1060.6,74.2c10.2,0,18.4-3.4,24.5-10.3c6.1-6.9,9.2-16,9.2-27.6
					c0-11.5-3.1-20.7-9.2-27.5c-6.1-6.9-14.3-10.3-24.5-10.3c-10.2,0-18.4,3.4-24.6,10.2c-6.1,6.8-9.2,16-9.2,27.5
					s3.1,20.7,9.2,27.6C-1079,70.8-1070.8,74.2-1060.6,74.2z"/>
			</g>
			<g>
				<path id="DejaVuSans-72_00000074438089707650569160000016215726839524893867_" d="M-980.2,46.3c-1,0.6-2.1,1-3.3,1.3
					c-1.2,0.3-2.5,0.4-3.9,0.4c-5.1,0-9-1.7-11.7-5s-4.1-8-4.1-14.2V0h-9v54.7h9v-8.5c1.9,3.3,4.4,5.8,7.4,7.4c3,1.6,6.7,2.4,11,2.4
					c0.6,0,1.3,0,2-0.1c0.8-0.1,1.6-0.2,2.5-0.4L-980.2,46.3z"/>
			</g>
			<g>
				<path id="DejaVuSans-69_00000150065028959778877040000018007672809505600693_" d="M-970.8,54.7h9V0h-9V54.7z M-970.8,76h9V64.6
					h-9V76z"/>
			</g>
			<g>
				<path id="DejaVuSans-67_00000008840361464364029330000010292365792183194537_" d="M-907,28c0,6.5-1.3,11.6-4,15.1
					c-2.7,3.6-6.4,5.4-11.3,5.4c-4.8,0-8.6-1.8-11.2-5.4c-2.7-3.6-4-8.6-4-15.1c0-6.5,1.3-11.5,4-15.1s6.4-5.4,11.2-5.4
					c4.9,0,8.6,1.8,11.3,5.4C-908.3,16.5-907,21.5-907,28z M-898,6.8c0-9.3-2.1-16.2-6.2-20.8c-4.1-4.5-10.5-6.8-19-6.8
					c-3.2,0-6.1,0.2-8.9,0.7s-5.5,1.2-8.2,2.2v8.7c2.6-1.4,5.2-2.5,7.8-3.2c2.6-0.7,5.2-1,7.9-1c5.9,0,10.3,1.5,13.2,4.6
					S-907-1-907,5.2v4.5c-1.9-3.2-4.2-5.6-7.1-7.2S-920.5,0-924.5,0c-6.7,0-12.1,2.6-16.2,7.7c-4.1,5.1-6.2,11.9-6.2,20.3
					c0,8.5,2.1,15.2,6.2,20.3c4.1,5.1,9.5,7.7,16.2,7.7c4,0,7.5-0.8,10.4-2.4s5.3-4,7.1-7.2v8.3h9V6.8z"/>
			</g>
			<g>
				<path id="DejaVuSans-69_00000109005571753031862010000004242883179984059305_" d="M-879.5,54.7h9V0h-9V54.7z M-879.5,76h9V64.6
					h-9V76z"/>
			</g>
			<g>
				<path id="DejaVuSans-6e_00000121246175850891938520000004136446664707293107_" d="M-806.2,33V0h-9v32.7c0,5.2-1,9-3,11.6
					c-2,2.6-5,3.9-9.1,3.9c-4.9,0-8.7-1.5-11.5-4.6c-2.8-3.1-4.2-7.3-4.2-12.6V0h-9v54.7h9v-8.5c2.2,3.3,4.7,5.8,7.6,7.4
					c2.9,1.6,6.3,2.4,10.1,2.4c6.3,0,11-1.9,14.2-5.8C-807.9,46.3-806.2,40.6-806.2,33z"/>
			</g>
			<g>
				<path id="DejaVuSans-61_00000014624573739341589210000015503440548852765355_" d="M-763.5,27.5c-7.3,0-12.3-0.8-15.1-2.5
					s-4.2-4.5-4.2-8.5c0-3.2,1.1-5.7,3.2-7.6c2.1-1.9,5-2.8,8.6-2.8c5,0,9,1.8,12,5.3s4.5,8.2,4.5,14.1v2H-763.5z M-745.6,31.2V0h-9
					v8.3c-2.1-3.3-4.6-5.8-7.7-7.3s-6.8-2.4-11.2-2.4c-5.6,0-10,1.6-13.4,4.7c-3.3,3.1-5,7.4-5,12.6c0,6.1,2.1,10.8,6.2,13.9
					c4.1,3.1,10.3,4.7,18.4,4.7h12.6v0.9c0,4.1-1.4,7.3-4.1,9.6s-6.5,3.4-11.5,3.4c-3.1,0-6.2-0.4-9.1-1.1c-3-0.8-5.8-1.9-8.5-3.4
					v8.3c3.3,1.3,6.5,2.2,9.6,2.8c3.1,0.6,6.1,1,9,1c7.9,0,13.8-2.1,17.7-6.2C-747.5,45.7-745.6,39.5-745.6,31.2z"/>
			</g>
			<g>
				<path id="DejaVuSans-6c_00000006693634224979184540000015237283737071413894_" d="M-727.1,76h9V0h-9V76z"/>
			</g>
		</g>
	</g>
	<g id="line2d_37">
		<path class="st10" d="M83.4,49.7h10h10"/>
	</g>
	<g id="text_11">
		<g transform="translate(221.422812 53.154687) scale(0.1 -0.1)">
			<g>
				<path id="DejaVuSans-42" d="M-1080.3,34.8V8.1h15.8c5.3,0,9.2,1.1,11.8,3.3c2.6,2.2,3.8,5.6,3.8,10.1c0,4.6-1.3,7.9-3.8,10.1
					c-2.6,2.2-6.5,3.2-11.8,3.2H-1080.3z M-1080.3,64.8v-22h14.6c4.8,0,8.4,0.9,10.8,2.7c2.4,1.8,3.5,4.6,3.5,8.3
					c0,3.7-1.2,6.4-3.5,8.2c-2.4,1.8-5.9,2.7-10.8,2.7H-1080.3z M-1090.2,72.9h25.2c7.5,0,13.3-1.6,17.4-4.7
					c4.1-3.1,6.1-7.6,6.1-13.3c0-4.5-1-8-3.1-10.7s-5.1-4.3-9.2-4.9c4.9-1,8.6-3.2,11.3-6.5c2.7-3.3,4-7.4,4-12.4
					c0-6.5-2.2-11.5-6.6-15.1c-4.4-3.5-10.7-5.3-18.9-5.3h-26.2V72.9z"/>
			</g>
			<g>
				<path id="DejaVuSans-6f" d="M-1000.8,48.4c-4.8,0-8.6-1.9-11.4-5.6s-4.2-8.9-4.2-15.5s1.4-11.7,4.2-15.5
					c2.8-3.8,6.6-5.6,11.5-5.6c4.8,0,8.6,1.9,11.4,5.7c2.8,3.8,4.2,8.9,4.2,15.4c0,6.5-1.4,11.6-4.2,15.4
					C-992.2,46.5-996,48.4-1000.8,48.4z M-1000.8,56c7.8,0,13.9-2.5,18.4-7.6c4.5-5.1,6.7-12.1,6.7-21.1c0-8.9-2.2-16-6.7-21.1
					c-4.5-5.1-10.6-7.6-18.4-7.6c-7.8,0-14,2.5-18.4,7.6c-4.4,5.1-6.7,12.1-6.7,21.1c0,9,2.2,16,6.7,21.1
					C-1014.8,53.5-1008.6,56-1000.8,56z"/>
			</g>
			<g>
				<path id="DejaVuSans-75" d="M-961.7,21.6v33.1h9V21.9c0-5.2,1-9.1,3-11.7c2-2.6,5.1-3.9,9.1-3.9c4.8,0,8.7,1.5,11.5,4.6
					c2.8,3.1,4.2,7.3,4.2,12.7v31h9V0h-9v8.4c-2.2-3.3-4.7-5.8-7.6-7.4c-2.9-1.6-6.2-2.4-10-2.4c-6.3,0-11.1,2-14.3,5.9
					C-960.1,8.3-961.7,14.1-961.7,21.6z M-939.1,56L-939.1,56z"/>
			</g>
			<g>
				<path id="DejaVuSans-68" d="M-851.9,33V0h-9v32.7c0,5.2-1,9-3,11.6c-2,2.6-5,3.9-9.1,3.9c-4.9,0-8.7-1.5-11.5-4.6
					c-2.8-3.1-4.2-7.3-4.2-12.6V0h-9v76h9V46.2c2.2,3.3,4.7,5.8,7.6,7.4c2.9,1.6,6.3,2.4,10.1,2.4c6.3,0,11-1.9,14.2-5.8
					C-853.6,46.3-851.9,40.6-851.9,33z"/>
			</g>
			<g>
				<path id="DejaVuSans-61_00000105416437514997518680000000531789095958246830_" d="M-809.2,27.5c-7.3,0-12.3-0.8-15.1-2.5
					s-4.2-4.5-4.2-8.5c0-3.2,1.1-5.7,3.2-7.6c2.1-1.9,5-2.8,8.6-2.8c5,0,9,1.8,12,5.3s4.5,8.2,4.5,14.1v2H-809.2z M-791.3,31.2V0h-9
					v8.3c-2.1-3.3-4.6-5.8-7.7-7.3s-6.8-2.4-11.2-2.4c-5.6,0-10,1.6-13.4,4.7c-3.3,3.1-5,7.4-5,12.6c0,6.1,2.1,10.8,6.2,13.9
					c4.1,3.1,10.3,4.7,18.4,4.7h12.6v0.9c0,4.1-1.4,7.3-4.1,9.6s-6.5,3.4-11.5,3.4c-3.1,0-6.2-0.4-9.1-1.1c-3-0.8-5.8-1.9-8.5-3.4
					v8.3c3.3,1.3,6.5,2.2,9.6,2.8c3.1,0.6,6.1,1,9,1c7.9,0,13.8-2.1,17.7-6.2C-793.2,45.7-791.3,39.5-791.3,31.2z"/>
			</g>
			<g>
				<path id="DejaVuSans-63_00000041998487136344113580000018419597457650421144_" d="M-733.4,52.6v-8.4c-2.5,1.4-5.1,2.5-7.6,3.2
					s-5.1,1-7.7,1c-5.8,0-10.4-1.8-13.6-5.5c-3.2-3.7-4.8-8.9-4.8-15.5s1.6-11.9,4.8-15.6c3.2-3.7,7.8-5.5,13.6-5.5
					c2.6,0,5.2,0.3,7.7,1s5.1,1.8,7.6,3.2V2.1c-2.5-1.2-5.1-2-7.8-2.6c-2.7-0.6-5.5-0.9-8.6-0.9c-8.2,0-14.8,2.6-19.6,7.8
					c-4.8,5.2-7.3,12.2-7.3,21c0,8.9,2.4,15.9,7.3,21c4.9,5.1,11.6,7.7,20.2,7.7c2.8,0,5.5-0.3,8.1-0.9
					C-738.4,54.6-735.9,53.7-733.4,52.6z"/>
			</g>
			<g>
				<path id="DejaVuSans-68_00000062887311002943638020000003237408277153169333_" d="M-672.3,33V0h-9v32.7c0,5.2-1,9-3,11.6
					c-2,2.6-5,3.9-9.1,3.9c-4.9,0-8.7-1.5-11.5-4.6c-2.8-3.1-4.2-7.3-4.2-12.6V0h-9v76h9V46.2c2.2,3.3,4.7,5.8,7.6,7.4
					c2.9,1.6,6.3,2.4,10.1,2.4c6.3,0,11-1.9,14.2-5.8C-673.9,46.3-672.3,40.6-672.3,33z"/>
			</g>
			<g>
				<path id="DejaVuSans-61_00000096755192421825581070000016668688778538526619_" d="M-629.5,27.5c-7.3,0-12.3-0.8-15.1-2.5
					s-4.2-4.5-4.2-8.5c0-3.2,1.1-5.7,3.2-7.6c2.1-1.9,5-2.8,8.6-2.8c5,0,9,1.8,12,5.3s4.5,8.2,4.5,14.1v2H-629.5z M-611.6,31.2V0h-9
					v8.3c-2.1-3.3-4.6-5.8-7.7-7.3s-6.8-2.4-11.2-2.4c-5.6,0-10,1.6-13.4,4.7c-3.3,3.1-5,7.4-5,12.6c0,6.1,2.1,10.8,6.2,13.9
					c4.1,3.1,10.3,4.7,18.4,4.7h12.6v0.9c0,4.1-1.4,7.3-4.1,9.6s-6.5,3.4-11.5,3.4c-3.1,0-6.2-0.4-9.1-1.1c-3-0.8-5.8-1.9-8.5-3.4
					v8.3c3.3,1.3,6.5,2.2,9.6,2.8c3.1,0.6,6.1,1,9,1c7.9,0,13.8-2.1,17.7-6.2C-613.6,45.7-611.6,39.5-611.6,31.2z"/>
			</g>
			<g>
				<path id="DejaVuSans-20_00000100353610372649682150000005354840834159144864_" d="M-602.5,0"/>
			</g>
			<g>
				<path id="DejaVuSans-32_00000127751548924889681760000000298629051198624133_" d="M-551.6,8.3h34.4V0h-46.3v8.3
					c3.7,3.9,8.8,9.1,15.3,15.6c6.5,6.5,10.5,10.7,12.2,12.6c3.2,3.5,5.4,6.5,6.6,9c1.3,2.5,1.9,4.9,1.9,7.2c0,3.9-1.4,7-4.1,9.5
					c-2.7,2.4-6.3,3.7-10.6,3.7c-3.1,0-6.4-0.5-9.8-1.6c-3.4-1.1-7.1-2.7-11-4.9v10c4,1.6,7.7,2.8,11.1,3.6c3.5,0.8,6.6,1.2,9.5,1.2
					c7.6,0,13.6-1.9,18.1-5.7c4.5-3.8,6.7-8.8,6.7-15.1c0-3-0.6-5.8-1.7-8.5c-1.1-2.7-3.2-5.8-6.1-9.5c-0.8-0.9-3.4-3.7-7.8-8.2
					C-537.5,22.7-543.6,16.4-551.6,8.3z"/>
			</g>
			<g>
				<path id="DejaVuSans-30_00000041289986438893382130000018056753014118492074_" d="M-475.3,66.4c-5.1,0-8.9-2.5-11.5-7.5
					c-2.6-5-3.8-12.5-3.8-22.5c0-10,1.3-17.5,3.8-22.5c2.6-5,6.4-7.5,11.5-7.5c5.1,0,8.9,2.5,11.5,7.5c2.6,5,3.8,12.5,3.8,22.5
					c0,10-1.3,17.5-3.8,22.5C-466.4,63.9-470.2,66.4-475.3,66.4z M-475.3,74.2c8.2,0,14.4-3.2,18.7-9.7c4.3-6.5,6.5-15.8,6.5-28.1
					c0-12.3-2.2-21.6-6.5-28.1c-4.3-6.5-10.6-9.7-18.7-9.7c-8.2,0-14.4,3.2-18.7,9.7c-4.3,6.5-6.5,15.8-6.5,28.1
					c0,12.3,2.2,21.7,6.5,28.1C-489.8,71-483.5,74.2-475.3,74.2z"/>
			</g>
			<g>
				<path id="DejaVuSans-30_00000143618801734959416080000015069309256618520483_" d="M-411.7,66.4c-5.1,0-8.9-2.5-11.5-7.5
					c-2.6-5-3.8-12.5-3.8-22.5c0-10,1.3-17.5,3.8-22.5c2.6-5,6.4-7.5,11.5-7.5c5.1,0,8.9,2.5,11.5,7.5c2.6,5,3.8,12.5,3.8,22.5
					c0,10-1.3,17.5-3.8,22.5C-402.8,63.9-406.6,66.4-411.7,66.4z M-411.7,74.2c8.2,0,14.4-3.2,18.7-9.7c4.3-6.5,6.5-15.8,6.5-28.1
					c0-12.3-2.2-21.6-6.5-28.1c-4.3-6.5-10.6-9.7-18.7-9.7c-8.2,0-14.4,3.2-18.7,9.7c-4.3,6.5-6.5,15.8-6.5,28.1
					c0,12.3,2.2,21.7,6.5,28.1C-426.1,71-419.9,74.2-411.7,74.2z"/>
			</g>
			<g>
				<path id="DejaVuSans-35_00000065795128697573119360000004274270273712577695_" d="M-369.1,72.9h38.7v-8.3h-29.7V46.7
					c1.4,0.5,2.9,0.9,4.3,1.1c1.4,0.2,2.9,0.4,4.3,0.4c8.1,0,14.6-2.2,19.3-6.7c4.8-4.5,7.1-10.5,7.1-18.1c0-7.8-2.4-13.9-7.3-18.3
					c-4.9-4.3-11.8-6.5-20.7-6.5c-3.1,0-6.2,0.3-9.4,0.8c-3.2,0.5-6.4,1.3-9.8,2.3v9.9c2.9-1.6,6-2.8,9.1-3.6s6.4-1.2,9.9-1.2
					c5.6,0,10.1,1.5,13.4,4.4c3.3,3,4.9,7,4.9,12.1c0,5.1-1.6,9.1-4.9,12c-3.3,3-7.7,4.5-13.4,4.5c-2.6,0-5.3-0.3-7.9-0.9
					c-2.6-0.6-5.3-1.5-8-2.7V72.9z"/>
			</g>
		</g>
	</g>
</g>
</svg>
