<?xml version="1.0" encoding="utf-8" standalone="no"?>
<!DOCTYPE svg PUBLIC "-//W3C//DTD SVG 1.1//EN"
  "http://www.w3.org/Graphics/SVG/1.1/DTD/svg11.dtd">
<svg xmlns:xlink="http://www.w3.org/1999/xlink" width="170.110313pt" height="177.752813pt" viewBox="0 0 170.110313 177.752813" xmlns="http://www.w3.org/2000/svg" version="1.1">
 <metadata>
  <rdf:RDF xmlns:dc="http://purl.org/dc/elements/1.1/" xmlns:cc="http://creativecommons.org/ns#" xmlns:rdf="http://www.w3.org/1999/02/22-rdf-syntax-ns#">
   <cc:Work>
    <dc:type rdf:resource="http://purl.org/dc/dcmitype/StillImage"/>
    <dc:date>2023-02-25T15:21:28.433385</dc:date>
    <dc:format>image/svg+xml</dc:format>
    <dc:creator>
     <cc:Agent>
      <dc:title>Matplotlib v3.5.2, https://matplotlib.org/</dc:title>
     </cc:Agent>
    </dc:creator>
   </cc:Work>
  </rdf:RDF>
 </metadata>
 <defs>
  <style type="text/css">*{stroke-linejoin: round; stroke-linecap: butt}</style>
 </defs>
 <g id="figure_1">
  <g id="patch_1">
   <path d="M 0 177.752813 
L 170.110313 177.752813 
L 170.110313 0 
L 0 0 
z
" style="fill: #ffffff"/>
  </g>
  <g id="axes_1">
   <g id="patch_2">
    <path d="M 23.410312 143.1 
L 162.910313 143.1 
L 162.910313 7.2 
L 23.410312 7.2 
z
" style="fill: #ffffff"/>
   </g>
   <g id="matplotlib.axis_1">
    <g id="xtick_1">
     <g id="line2d_1">
      <defs>
       <path id="mf37419279a" d="M 0 0 
L 0 3.5 
" style="stroke: #000000; stroke-width: 0.8"/>
      </defs>
      <g>
       <use xlink:href="#mf37419279a" x="58.285313" y="143.1" style="stroke: #000000; stroke-width: 0.8"/>
      </g>
     </g>
     <g id="text_1">
      <!-- 20 -->
      <g transform="translate(53.195312 156.17875)scale(0.08 -0.08)">
       <defs>
        <path id="DejaVuSans-32" d="M 1228 531 
L 3431 531 
L 3431 0 
L 469 0 
L 469 531 
Q 828 903 1448 1529 
Q 2069 2156 2228 2338 
Q 2531 2678 2651 2914 
Q 2772 3150 2772 3378 
Q 2772 3750 2511 3984 
Q 2250 4219 1831 4219 
Q 1534 4219 1204 4116 
Q 875 4013 500 3803 
L 500 4441 
Q 881 4594 1212 4672 
Q 1544 4750 1819 4750 
Q 2544 4750 2975 4387 
Q 3406 4025 3406 3419 
Q 3406 3131 3298 2873 
Q 3191 2616 2906 2266 
Q 2828 2175 2409 1742 
Q 1991 1309 1228 531 
z
" transform="scale(0.015625)"/>
        <path id="DejaVuSans-30" d="M 2034 4250 
Q 1547 4250 1301 3770 
Q 1056 3291 1056 2328 
Q 1056 1369 1301 889 
Q 1547 409 2034 409 
Q 2525 409 2770 889 
Q 3016 1369 3016 2328 
Q 3016 3291 2770 3770 
Q 2525 4250 2034 4250 
z
M 2034 4750 
Q 2819 4750 3233 4129 
Q 3647 3509 3647 2328 
Q 3647 1150 3233 529 
Q 2819 -91 2034 -91 
Q 1250 -91 836 529 
Q 422 1150 422 2328 
Q 422 3509 836 4129 
Q 1250 4750 2034 4750 
z
" transform="scale(0.015625)"/>
       </defs>
       <use xlink:href="#DejaVuSans-32"/>
       <use xlink:href="#DejaVuSans-30" x="63.623047"/>
      </g>
     </g>
    </g>
    <g id="xtick_2">
     <g id="line2d_2">
      <g>
       <use xlink:href="#mf37419279a" x="104.785313" y="143.1" style="stroke: #000000; stroke-width: 0.8"/>
      </g>
     </g>
     <g id="text_2">
      <!-- 40 -->
      <g transform="translate(99.695312 156.17875)scale(0.08 -0.08)">
       <defs>
        <path id="DejaVuSans-34" d="M 2419 4116 
L 825 1625 
L 2419 1625 
L 2419 4116 
z
M 2253 4666 
L 3047 4666 
L 3047 1625 
L 3713 1625 
L 3713 1100 
L 3047 1100 
L 3047 0 
L 2419 0 
L 2419 1100 
L 313 1100 
L 313 1709 
L 2253 4666 
z
" transform="scale(0.015625)"/>
       </defs>
       <use xlink:href="#DejaVuSans-34"/>
       <use xlink:href="#DejaVuSans-30" x="63.623047"/>
      </g>
     </g>
    </g>
    <g id="xtick_3">
     <g id="line2d_3">
      <g>
       <use xlink:href="#mf37419279a" x="151.285313" y="143.1" style="stroke: #000000; stroke-width: 0.8"/>
      </g>
     </g>
     <g id="text_3">
      <!-- 60 -->
      <g transform="translate(146.195312 156.17875)scale(0.08 -0.08)">
       <defs>
        <path id="DejaVuSans-36" d="M 2113 2584 
Q 1688 2584 1439 2293 
Q 1191 2003 1191 1497 
Q 1191 994 1439 701 
Q 1688 409 2113 409 
Q 2538 409 2786 701 
Q 3034 994 3034 1497 
Q 3034 2003 2786 2293 
Q 2538 2584 2113 2584 
z
M 3366 4563 
L 3366 3988 
Q 3128 4100 2886 4159 
Q 2644 4219 2406 4219 
Q 1781 4219 1451 3797 
Q 1122 3375 1075 2522 
Q 1259 2794 1537 2939 
Q 1816 3084 2150 3084 
Q 2853 3084 3261 2657 
Q 3669 2231 3669 1497 
Q 3669 778 3244 343 
Q 2819 -91 2113 -91 
Q 1303 -91 875 529 
Q 447 1150 447 2328 
Q 447 3434 972 4092 
Q 1497 4750 2381 4750 
Q 2619 4750 2861 4703 
Q 3103 4656 3366 4563 
z
" transform="scale(0.015625)"/>
       </defs>
       <use xlink:href="#DejaVuSans-36"/>
       <use xlink:href="#DejaVuSans-30" x="63.623047"/>
      </g>
     </g>
    </g>
    <g id="xtick_4">
     <g id="line2d_4">
      <defs>
       <path id="ma598aa52c1" d="M 0 0 
L 0 2 
" style="stroke: #000000; stroke-width: 0.6"/>
      </defs>
      <g>
       <use xlink:href="#ma598aa52c1" x="23.410312" y="143.1" style="stroke: #000000; stroke-width: 0.6"/>
      </g>
     </g>
    </g>
    <g id="xtick_5">
     <g id="line2d_5">
      <g>
       <use xlink:href="#ma598aa52c1" x="29.222812" y="143.1" style="stroke: #000000; stroke-width: 0.6"/>
      </g>
     </g>
    </g>
    <g id="xtick_6">
     <g id="line2d_6">
      <g>
       <use xlink:href="#ma598aa52c1" x="35.035313" y="143.1" style="stroke: #000000; stroke-width: 0.6"/>
      </g>
     </g>
    </g>
    <g id="xtick_7">
     <g id="line2d_7">
      <g>
       <use xlink:href="#ma598aa52c1" x="40.847813" y="143.1" style="stroke: #000000; stroke-width: 0.6"/>
      </g>
     </g>
    </g>
    <g id="xtick_8">
     <g id="line2d_8">
      <g>
       <use xlink:href="#ma598aa52c1" x="46.660313" y="143.1" style="stroke: #000000; stroke-width: 0.6"/>
      </g>
     </g>
    </g>
    <g id="xtick_9">
     <g id="line2d_9">
      <g>
       <use xlink:href="#ma598aa52c1" x="52.472813" y="143.1" style="stroke: #000000; stroke-width: 0.6"/>
      </g>
     </g>
    </g>
    <g id="xtick_10">
     <g id="line2d_10">
      <g>
       <use xlink:href="#ma598aa52c1" x="64.097813" y="143.1" style="stroke: #000000; stroke-width: 0.6"/>
      </g>
     </g>
    </g>
    <g id="xtick_11">
     <g id="line2d_11">
      <g>
       <use xlink:href="#ma598aa52c1" x="69.910313" y="143.1" style="stroke: #000000; stroke-width: 0.6"/>
      </g>
     </g>
    </g>
    <g id="xtick_12">
     <g id="line2d_12">
      <g>
       <use xlink:href="#ma598aa52c1" x="75.722813" y="143.1" style="stroke: #000000; stroke-width: 0.6"/>
      </g>
     </g>
    </g>
    <g id="xtick_13">
     <g id="line2d_13">
      <g>
       <use xlink:href="#ma598aa52c1" x="81.535313" y="143.1" style="stroke: #000000; stroke-width: 0.6"/>
      </g>
     </g>
    </g>
    <g id="xtick_14">
     <g id="line2d_14">
      <g>
       <use xlink:href="#ma598aa52c1" x="87.347813" y="143.1" style="stroke: #000000; stroke-width: 0.6"/>
      </g>
     </g>
    </g>
    <g id="xtick_15">
     <g id="line2d_15">
      <g>
       <use xlink:href="#ma598aa52c1" x="93.160313" y="143.1" style="stroke: #000000; stroke-width: 0.6"/>
      </g>
     </g>
    </g>
    <g id="xtick_16">
     <g id="line2d_16">
      <g>
       <use xlink:href="#ma598aa52c1" x="98.972813" y="143.1" style="stroke: #000000; stroke-width: 0.6"/>
      </g>
     </g>
    </g>
    <g id="xtick_17">
     <g id="line2d_17">
      <g>
       <use xlink:href="#ma598aa52c1" x="110.597813" y="143.1" style="stroke: #000000; stroke-width: 0.6"/>
      </g>
     </g>
    </g>
    <g id="xtick_18">
     <g id="line2d_18">
      <g>
       <use xlink:href="#ma598aa52c1" x="116.410313" y="143.1" style="stroke: #000000; stroke-width: 0.6"/>
      </g>
     </g>
    </g>
    <g id="xtick_19">
     <g id="line2d_19">
      <g>
       <use xlink:href="#ma598aa52c1" x="122.222813" y="143.1" style="stroke: #000000; stroke-width: 0.6"/>
      </g>
     </g>
    </g>
    <g id="xtick_20">
     <g id="line2d_20">
      <g>
       <use xlink:href="#ma598aa52c1" x="128.035313" y="143.1" style="stroke: #000000; stroke-width: 0.6"/>
      </g>
     </g>
    </g>
    <g id="xtick_21">
     <g id="line2d_21">
      <g>
       <use xlink:href="#ma598aa52c1" x="133.847813" y="143.1" style="stroke: #000000; stroke-width: 0.6"/>
      </g>
     </g>
    </g>
    <g id="xtick_22">
     <g id="line2d_22">
      <g>
       <use xlink:href="#ma598aa52c1" x="139.660313" y="143.1" style="stroke: #000000; stroke-width: 0.6"/>
      </g>
     </g>
    </g>
    <g id="xtick_23">
     <g id="line2d_23">
      <g>
       <use xlink:href="#ma598aa52c1" x="145.472813" y="143.1" style="stroke: #000000; stroke-width: 0.6"/>
      </g>
     </g>
    </g>
    <g id="xtick_24">
     <g id="line2d_24">
      <g>
       <use xlink:href="#ma598aa52c1" x="157.097813" y="143.1" style="stroke: #000000; stroke-width: 0.6"/>
      </g>
     </g>
    </g>
    <g id="xtick_25">
     <g id="line2d_25">
      <g>
       <use xlink:href="#ma598aa52c1" x="162.910313" y="143.1" style="stroke: #000000; stroke-width: 0.6"/>
      </g>
     </g>
    </g>
    <g id="text_4">
     <!-- Two Theta (degrees) -->
     <g transform="translate(47.344688 168.681094)scale(0.09 -0.09)">
      <defs>
       <path id="DejaVuSans-54" d="M -19 4666 
L 3928 4666 
L 3928 4134 
L 2272 4134 
L 2272 0 
L 1638 0 
L 1638 4134 
L -19 4134 
L -19 4666 
z
" transform="scale(0.015625)"/>
       <path id="DejaVuSans-77" d="M 269 3500 
L 844 3500 
L 1563 769 
L 2278 3500 
L 2956 3500 
L 3675 769 
L 4391 3500 
L 4966 3500 
L 4050 0 
L 3372 0 
L 2619 2869 
L 1863 0 
L 1184 0 
L 269 3500 
z
" transform="scale(0.015625)"/>
       <path id="DejaVuSans-6f" d="M 1959 3097 
Q 1497 3097 1228 2736 
Q 959 2375 959 1747 
Q 959 1119 1226 758 
Q 1494 397 1959 397 
Q 2419 397 2687 759 
Q 2956 1122 2956 1747 
Q 2956 2369 2687 2733 
Q 2419 3097 1959 3097 
z
M 1959 3584 
Q 2709 3584 3137 3096 
Q 3566 2609 3566 1747 
Q 3566 888 3137 398 
Q 2709 -91 1959 -91 
Q 1206 -91 779 398 
Q 353 888 353 1747 
Q 353 2609 779 3096 
Q 1206 3584 1959 3584 
z
" transform="scale(0.015625)"/>
       <path id="DejaVuSans-20" transform="scale(0.015625)"/>
       <path id="DejaVuSans-68" d="M 3513 2113 
L 3513 0 
L 2938 0 
L 2938 2094 
Q 2938 2591 2744 2837 
Q 2550 3084 2163 3084 
Q 1697 3084 1428 2787 
Q 1159 2491 1159 1978 
L 1159 0 
L 581 0 
L 581 4863 
L 1159 4863 
L 1159 2956 
Q 1366 3272 1645 3428 
Q 1925 3584 2291 3584 
Q 2894 3584 3203 3211 
Q 3513 2838 3513 2113 
z
" transform="scale(0.015625)"/>
       <path id="DejaVuSans-65" d="M 3597 1894 
L 3597 1613 
L 953 1613 
Q 991 1019 1311 708 
Q 1631 397 2203 397 
Q 2534 397 2845 478 
Q 3156 559 3463 722 
L 3463 178 
Q 3153 47 2828 -22 
Q 2503 -91 2169 -91 
Q 1331 -91 842 396 
Q 353 884 353 1716 
Q 353 2575 817 3079 
Q 1281 3584 2069 3584 
Q 2775 3584 3186 3129 
Q 3597 2675 3597 1894 
z
M 3022 2063 
Q 3016 2534 2758 2815 
Q 2500 3097 2075 3097 
Q 1594 3097 1305 2825 
Q 1016 2553 972 2059 
L 3022 2063 
z
" transform="scale(0.015625)"/>
       <path id="DejaVuSans-74" d="M 1172 4494 
L 1172 3500 
L 2356 3500 
L 2356 3053 
L 1172 3053 
L 1172 1153 
Q 1172 725 1289 603 
Q 1406 481 1766 481 
L 2356 481 
L 2356 0 
L 1766 0 
Q 1100 0 847 248 
Q 594 497 594 1153 
L 594 3053 
L 172 3053 
L 172 3500 
L 594 3500 
L 594 4494 
L 1172 4494 
z
" transform="scale(0.015625)"/>
       <path id="DejaVuSans-61" d="M 2194 1759 
Q 1497 1759 1228 1600 
Q 959 1441 959 1056 
Q 959 750 1161 570 
Q 1363 391 1709 391 
Q 2188 391 2477 730 
Q 2766 1069 2766 1631 
L 2766 1759 
L 2194 1759 
z
M 3341 1997 
L 3341 0 
L 2766 0 
L 2766 531 
Q 2569 213 2275 61 
Q 1981 -91 1556 -91 
Q 1019 -91 701 211 
Q 384 513 384 1019 
Q 384 1609 779 1909 
Q 1175 2209 1959 2209 
L 2766 2209 
L 2766 2266 
Q 2766 2663 2505 2880 
Q 2244 3097 1772 3097 
Q 1472 3097 1187 3025 
Q 903 2953 641 2809 
L 641 3341 
Q 956 3463 1253 3523 
Q 1550 3584 1831 3584 
Q 2591 3584 2966 3190 
Q 3341 2797 3341 1997 
z
" transform="scale(0.015625)"/>
       <path id="DejaVuSans-28" d="M 1984 4856 
Q 1566 4138 1362 3434 
Q 1159 2731 1159 2009 
Q 1159 1288 1364 580 
Q 1569 -128 1984 -844 
L 1484 -844 
Q 1016 -109 783 600 
Q 550 1309 550 2009 
Q 550 2706 781 3412 
Q 1013 4119 1484 4856 
L 1984 4856 
z
" transform="scale(0.015625)"/>
       <path id="DejaVuSans-64" d="M 2906 2969 
L 2906 4863 
L 3481 4863 
L 3481 0 
L 2906 0 
L 2906 525 
Q 2725 213 2448 61 
Q 2172 -91 1784 -91 
Q 1150 -91 751 415 
Q 353 922 353 1747 
Q 353 2572 751 3078 
Q 1150 3584 1784 3584 
Q 2172 3584 2448 3432 
Q 2725 3281 2906 2969 
z
M 947 1747 
Q 947 1113 1208 752 
Q 1469 391 1925 391 
Q 2381 391 2643 752 
Q 2906 1113 2906 1747 
Q 2906 2381 2643 2742 
Q 2381 3103 1925 3103 
Q 1469 3103 1208 2742 
Q 947 2381 947 1747 
z
" transform="scale(0.015625)"/>
       <path id="DejaVuSans-67" d="M 2906 1791 
Q 2906 2416 2648 2759 
Q 2391 3103 1925 3103 
Q 1463 3103 1205 2759 
Q 947 2416 947 1791 
Q 947 1169 1205 825 
Q 1463 481 1925 481 
Q 2391 481 2648 825 
Q 2906 1169 2906 1791 
z
M 3481 434 
Q 3481 -459 3084 -895 
Q 2688 -1331 1869 -1331 
Q 1566 -1331 1297 -1286 
Q 1028 -1241 775 -1147 
L 775 -588 
Q 1028 -725 1275 -790 
Q 1522 -856 1778 -856 
Q 2344 -856 2625 -561 
Q 2906 -266 2906 331 
L 2906 616 
Q 2728 306 2450 153 
Q 2172 0 1784 0 
Q 1141 0 747 490 
Q 353 981 353 1791 
Q 353 2603 747 3093 
Q 1141 3584 1784 3584 
Q 2172 3584 2450 3431 
Q 2728 3278 2906 2969 
L 2906 3500 
L 3481 3500 
L 3481 434 
z
" transform="scale(0.015625)"/>
       <path id="DejaVuSans-72" d="M 2631 2963 
Q 2534 3019 2420 3045 
Q 2306 3072 2169 3072 
Q 1681 3072 1420 2755 
Q 1159 2438 1159 1844 
L 1159 0 
L 581 0 
L 581 3500 
L 1159 3500 
L 1159 2956 
Q 1341 3275 1631 3429 
Q 1922 3584 2338 3584 
Q 2397 3584 2469 3576 
Q 2541 3569 2628 3553 
L 2631 2963 
z
" transform="scale(0.015625)"/>
       <path id="DejaVuSans-73" d="M 2834 3397 
L 2834 2853 
Q 2591 2978 2328 3040 
Q 2066 3103 1784 3103 
Q 1356 3103 1142 2972 
Q 928 2841 928 2578 
Q 928 2378 1081 2264 
Q 1234 2150 1697 2047 
L 1894 2003 
Q 2506 1872 2764 1633 
Q 3022 1394 3022 966 
Q 3022 478 2636 193 
Q 2250 -91 1575 -91 
Q 1294 -91 989 -36 
Q 684 19 347 128 
L 347 722 
Q 666 556 975 473 
Q 1284 391 1588 391 
Q 1994 391 2212 530 
Q 2431 669 2431 922 
Q 2431 1156 2273 1281 
Q 2116 1406 1581 1522 
L 1381 1569 
Q 847 1681 609 1914 
Q 372 2147 372 2553 
Q 372 3047 722 3315 
Q 1072 3584 1716 3584 
Q 2034 3584 2315 3537 
Q 2597 3491 2834 3397 
z
" transform="scale(0.015625)"/>
       <path id="DejaVuSans-29" d="M 513 4856 
L 1013 4856 
Q 1481 4119 1714 3412 
Q 1947 2706 1947 2009 
Q 1947 1309 1714 600 
Q 1481 -109 1013 -844 
L 513 -844 
Q 928 -128 1133 580 
Q 1338 1288 1338 2009 
Q 1338 2731 1133 3434 
Q 928 4138 513 4856 
z
" transform="scale(0.015625)"/>
      </defs>
      <use xlink:href="#DejaVuSans-54"/>
      <use xlink:href="#DejaVuSans-77" x="44.583984"/>
      <use xlink:href="#DejaVuSans-6f" x="126.371094"/>
      <use xlink:href="#DejaVuSans-20" x="187.552734"/>
      <use xlink:href="#DejaVuSans-54" x="219.339844"/>
      <use xlink:href="#DejaVuSans-68" x="280.423828"/>
      <use xlink:href="#DejaVuSans-65" x="343.802734"/>
      <use xlink:href="#DejaVuSans-74" x="405.326172"/>
      <use xlink:href="#DejaVuSans-61" x="444.535156"/>
      <use xlink:href="#DejaVuSans-20" x="505.814453"/>
      <use xlink:href="#DejaVuSans-28" x="537.601562"/>
      <use xlink:href="#DejaVuSans-64" x="576.615234"/>
      <use xlink:href="#DejaVuSans-65" x="640.091797"/>
      <use xlink:href="#DejaVuSans-67" x="701.615234"/>
      <use xlink:href="#DejaVuSans-72" x="765.091797"/>
      <use xlink:href="#DejaVuSans-65" x="803.955078"/>
      <use xlink:href="#DejaVuSans-65" x="865.478516"/>
      <use xlink:href="#DejaVuSans-73" x="927.001953"/>
      <use xlink:href="#DejaVuSans-29" x="979.101562"/>
     </g>
    </g>
   </g>
   <g id="matplotlib.axis_2">
    <g id="ytick_1">
     <g id="line2d_26"/>
    </g>
    <g id="ytick_2">
     <g id="line2d_27"/>
    </g>
    <g id="ytick_3">
     <g id="line2d_28"/>
    </g>
    <g id="ytick_4">
     <g id="line2d_29"/>
    </g>
    <g id="ytick_5">
     <g id="line2d_30"/>
    </g>
    <g id="text_5">
     <!-- Intensity -->
     <g transform="translate(14.038594 94.73625)rotate(-90)scale(0.09 -0.09)">
      <defs>
       <path id="DejaVuSans-49" d="M 628 4666 
L 1259 4666 
L 1259 0 
L 628 0 
L 628 4666 
z
" transform="scale(0.015625)"/>
       <path id="DejaVuSans-6e" d="M 3513 2113 
L 3513 0 
L 2938 0 
L 2938 2094 
Q 2938 2591 2744 2837 
Q 2550 3084 2163 3084 
Q 1697 3084 1428 2787 
Q 1159 2491 1159 1978 
L 1159 0 
L 581 0 
L 581 3500 
L 1159 3500 
L 1159 2956 
Q 1366 3272 1645 3428 
Q 1925 3584 2291 3584 
Q 2894 3584 3203 3211 
Q 3513 2838 3513 2113 
z
" transform="scale(0.015625)"/>
       <path id="DejaVuSans-69" d="M 603 3500 
L 1178 3500 
L 1178 0 
L 603 0 
L 603 3500 
z
M 603 4863 
L 1178 4863 
L 1178 4134 
L 603 4134 
L 603 4863 
z
" transform="scale(0.015625)"/>
       <path id="DejaVuSans-79" d="M 2059 -325 
Q 1816 -950 1584 -1140 
Q 1353 -1331 966 -1331 
L 506 -1331 
L 506 -850 
L 844 -850 
Q 1081 -850 1212 -737 
Q 1344 -625 1503 -206 
L 1606 56 
L 191 3500 
L 800 3500 
L 1894 763 
L 2988 3500 
L 3597 3500 
L 2059 -325 
z
" transform="scale(0.015625)"/>
      </defs>
      <use xlink:href="#DejaVuSans-49"/>
      <use xlink:href="#DejaVuSans-6e" x="29.492188"/>
      <use xlink:href="#DejaVuSans-74" x="92.871094"/>
      <use xlink:href="#DejaVuSans-65" x="132.080078"/>
      <use xlink:href="#DejaVuSans-6e" x="193.603516"/>
      <use xlink:href="#DejaVuSans-73" x="256.982422"/>
      <use xlink:href="#DejaVuSans-69" x="309.082031"/>
      <use xlink:href="#DejaVuSans-74" x="336.865234"/>
      <use xlink:href="#DejaVuSans-79" x="376.074219"/>
     </g>
    </g>
   </g>
   <g id="line2d_31">
    <path d="M 23.428285 18.278489 
L 23.489341 13.377273 
L 23.672509 23.933739 
L 23.733564 23.092702 
L 23.79462 23.527721 
L 23.977788 31.242061 
L 24.038844 28.515941 
L 24.099899 30.778041 
L 24.160955 28.196927 
L 24.466234 38.376376 
L 24.52729 31.387068 
L 24.588346 36.723303 
L 24.649402 40.203457 
L 24.710458 36.984315 
L 24.771513 37.970359 
L 24.832569 37.941357 
L 24.893625 38.753393 
L 24.954681 43.016581 
L 25.015737 39.884443 
L 25.137848 41.595519 
L 25.198904 46.090717 
L 25.25996 40.899488 
L 25.321016 43.857618 
L 25.382071 43.654609 
L 25.565239 47.308771 
L 25.748406 45.7137 
L 25.809462 45.597695 
L 25.931574 51.542958 
L 26.053685 48.845839 
L 26.175797 53.341037 
L 26.236853 52.354994 
L 26.297909 53.515045 
L 26.481076 50.295903 
L 26.542132 52.96402 
L 26.603188 51.658963 
L 26.664244 52.5 
L 26.786355 50.614917 
L 26.847411 54.646095 
L 26.908467 49.396863 
L 26.969523 58.300256 
L 27.030578 54.965109 
L 27.091634 52.5 
L 27.15269 60.823367 
L 27.213746 57.604225 
L 27.335858 53.834059 
L 27.396913 53.979065 
L 27.457969 56.879193 
L 27.519025 55.400128 
L 27.580081 55.371127 
L 27.641137 56.79219 
L 27.702192 56.12516 
L 27.763248 54.791101 
L 28.007471 60.910371 
L 28.129583 56.821191 
L 28.190639 61.229385 
L 28.251695 61.084379 
L 28.312751 61.11338 
L 28.373806 61.403393 
L 28.434862 60.098335 
L 28.495918 62.447439 
L 28.556974 58.648271 
L 28.61803 60.620359 
L 28.740141 58.184251 
L 28.801197 64.477529 
L 28.862253 63.491485 
L 28.923309 65.579577 
L 28.984365 60.997375 
L 29.04542 61.867414 
L 29.106476 60.765365 
L 29.167532 65.376569 
L 29.228588 63.491485 
L 29.350699 64.158515 
L 29.411755 63.984507 
L 29.472811 63.404481 
L 29.717034 66.53662 
L 29.77809 63.636492 
L 29.961258 67.986684 
L 30.022313 63.230474 
L 30.083369 66.101601 
L 30.144425 67.957682 
L 30.327592 64.100512 
L 30.449704 69.175736 
L 30.571816 67.89968 
L 30.632872 67.957682 
L 30.693927 68.740717 
L 30.754983 68.334699 
L 30.816039 67.319654 
L 30.938151 69.059731 
L 30.999206 67.580666 
L 31.121318 70.741805 
L 31.304485 67.725672 
L 31.426597 73.003905 
L 31.487653 72.8879 
L 31.548709 70.103777 
L 31.609765 72.65589 
L 31.792932 67.696671 
L 31.976099 71.75685 
L 32.037155 71.350832 
L 32.098211 72.017862 
L 32.159267 74.598976 
L 32.220323 73.583931 
L 32.281378 68.682714 
L 32.342434 70.741805 
L 32.525602 74.366965 
L 32.586658 71.785851 
L 32.708769 74.801985 
L 32.769825 70.944814 
L 32.830881 75.15 
L 32.891937 74.91799 
L 32.952992 71.437836 
L 33.014048 73.757939 
L 33.075104 73.844942 
L 33.13616 72.916901 
L 33.380383 76.977081 
L 33.441439 77.238092 
L 33.502495 72.191869 
L 33.563551 75.759027 
L 33.624606 75.643022 
L 33.685662 73.003905 
L 33.86883 77.441101 
L 33.929885 75.643022 
L 34.051997 78.949168 
L 34.174109 75.208003 
L 34.235165 79.210179 
L 34.29622 77.441101 
L 34.357276 76.861076 
L 34.540444 79.703201 
L 34.601499 80.080218 
L 34.662555 78.31114 
L 34.723611 79.00717 
L 34.784667 81.646287 
L 34.845723 78.688156 
L 34.906779 78.746159 
L 34.967834 80.660243 
L 35.02889 78.253137 
L 35.089946 79.964213 
L 35.151002 79.326184 
L 35.212058 81.849296 
L 35.273113 80.689245 
L 35.334169 80.660243 
L 35.517337 77.267093 
L 35.578392 79.558195 
L 35.639448 78.108131 
L 35.822616 83.357362 
L 35.883672 81.211268 
L 36.066839 79.00717 
L 36.127895 83.241357 
L 36.188951 81.994302 
L 36.250006 83.618374 
L 36.311062 82.371319 
L 36.372118 83.096351 
L 36.433174 81.9363 
L 36.49423 83.937388 
L 36.616341 81.588284 
L 36.677397 84.401408 
L 36.738453 84.140397 
L 36.860565 82.052305 
L 36.92162 83.734379 
L 36.982676 83.241357 
L 37.043732 82.806338 
L 37.104788 84.227401 
L 37.165844 83.125352 
L 37.226899 83.53137 
L 37.287955 86.460499 
L 37.349011 83.444366 
L 37.410067 84.024392 
L 37.471123 85.271447 
L 37.532179 84.633419 
L 37.593234 81.414277 
L 37.65429 84.749424 
L 37.715346 84.198399 
L 37.776402 82.458323 
L 37.837458 87.591549 
L 37.898513 82.603329 
L 37.959569 83.241357 
L 38.020625 82.603329 
L 38.203792 87.069526 
L 38.264848 86.605506 
L 38.325904 84.314405 
L 38.38696 84.575416 
L 38.509072 85.851472 
L 38.570127 83.879385 
L 38.692239 88.026569 
L 38.753295 87.243534 
L 38.814351 88.461588 
L 38.875406 87.069526 
L 38.936462 87.243534 
L 38.997518 89.998656 
L 39.058574 87.881562 
L 39.11963 87.939565 
L 39.180686 89.273624 
L 39.241741 88.05557 
L 39.302797 88.258579 
L 39.363853 88.05557 
L 39.424909 89.505634 
L 39.485965 88.490589 
L 39.54702 88.954609 
L 39.669132 87.127529 
L 39.730188 90.491677 
L 39.791244 87.881562 
L 39.852299 90.056658 
L 39.913355 87.533547 
L 39.974411 87.765557 
L 40.096523 88.751601 
L 40.157579 88.51959 
L 40.218634 87.504545 
L 40.401802 91.274712 
L 40.584969 86.083483 
L 40.646025 89.708643 
L 40.707081 89.099616 
L 40.768137 89.737644 
L 40.829193 89.447631 
L 40.890248 89.070615 
L 40.951304 92.057746 
L 41.01236 90.085659 
L 41.134472 91.216709 
L 41.195527 88.896607 
L 41.256583 89.505634 
L 41.317639 89.534635 
L 41.439751 91.622727 
L 41.500806 88.461588 
L 41.561862 89.534635 
L 41.928197 94.609859 
L 41.989253 90.027657 
L 42.050309 92.550768 
L 42.111365 89.621639 
L 42.17242 91.593726 
L 42.233476 91.970743 
L 42.355588 94.522855 
L 42.538755 91.970743 
L 42.721923 94.145839 
L 42.90509 91.042702 
L 42.966146 92.173752 
L 43.027202 96.088924 
L 43.088258 91.0137 
L 43.149313 92.492766 
L 43.393537 94.725864 
L 43.576704 90.607682 
L 43.698816 95.682907 
L 43.759872 94.609859 
L 43.881983 93.739821 
L 43.943039 96.639949 
L 44.004095 95.044878 
L 44.065151 95.015877 
L 44.248318 93.971831 
L 44.309374 94.000832 
L 44.37043 92.869782 
L 44.492541 97.248976 
L 44.553597 94.696863 
L 44.614653 94.116837 
L 44.736765 95.856914 
L 44.919932 94.986876 
L 44.980988 97.161972 
L 45.042044 96.465941 
L 45.164155 94.029834 
L 45.225211 94.377849 
L 45.286267 97.683995 
L 45.347323 94.841869 
L 45.408379 95.218886 
L 45.469434 98.583035 
L 45.53049 95.827913 
L 45.591546 94.783867 
L 45.652602 97.393982 
L 45.713658 95.392894 
L 45.774713 95.566901 
L 45.835769 98.03201 
L 45.896825 96.494942 
L 45.957881 96.233931 
L 46.018937 96.784955 
L 46.079993 93.565813 
L 46.141048 98.757042 
L 46.202104 96.030922 
L 46.324216 96.958963 
L 46.385272 95.711908 
L 46.446327 98.380026 
L 46.507383 94.377849 
L 46.568439 94.551857 
L 46.629495 94.435851 
L 46.690551 98.003009 
L 46.751607 95.595903 
L 46.812662 95.798912 
L 46.873718 97.045967 
L 46.934774 93.855826 
L 46.99583 94.377849 
L 47.056886 94.493854 
L 47.240053 98.641037 
L 47.42322 94.493854 
L 47.606388 98.438028 
L 47.7285 93.217798 
L 47.789555 96.349936 
L 47.850611 94.609859 
L 47.911667 95.392894 
L 47.972723 97.741997 
L 48.033779 96.523944 
L 48.15589 98.148015 
L 48.339058 94.609859 
L 48.400114 94.667862 
L 48.461169 96.958963 
L 48.522225 95.624904 
L 48.583281 95.827913 
L 48.644337 96.697951 
L 48.705393 95.247887 
L 48.766448 95.595903 
L 48.827504 99.250064 
L 48.88856 97.422983 
L 48.949616 95.914917 
L 49.010672 98.148015 
L 49.071727 95.102881 
L 49.132783 95.856914 
L 49.193839 96.117926 
L 49.254895 97.161972 
L 49.315951 94.783867 
L 49.377007 94.812868 
L 49.438062 99.424072 
L 49.499118 96.320935 
L 49.682286 94.899872 
L 49.743341 99.250064 
L 49.804397 96.639949 
L 49.865453 97.858003 
L 49.987565 93.797823 
L 50.048621 97.887004 
L 50.109676 96.378937 
L 50.292844 97.33598 
L 50.414955 94.17484 
L 50.476011 95.595903 
L 50.537067 92.231754 
L 50.659179 97.016965 
L 50.720234 94.986876 
L 50.78129 96.320935 
L 50.842346 95.827913 
L 50.903402 96.088924 
L 51.086569 92.782778 
L 51.269737 96.43694 
L 51.330793 95.943918 
L 51.51396 94.435851 
L 51.575016 94.696863 
L 51.636072 93.333803 
L 51.758183 97.654994 
L 51.819239 96.146927 
L 51.880295 93.855826 
L 51.941351 95.885915 
L 52.063462 92.550768 
L 52.24663 95.914917 
L 52.307686 95.218886 
L 52.429797 91.564725 
L 52.490853 92.666773 
L 52.551909 92.550768 
L 52.612965 94.725864 
L 52.674021 93.130794 
L 52.735076 92.463764 
L 52.796132 88.838604 
L 52.857188 93.884827 
L 52.918244 93.130794 
L 52.9793 91.361716 
L 53.101411 95.160883 
L 53.162467 94.17484 
L 53.223523 90.462676 
L 53.284579 91.245711 
L 53.345634 90.984699 
L 53.40669 93.94283 
L 53.467746 92.869782 
L 53.528802 91.390717 
L 53.589858 92.956786 
L 53.650914 92.724776 
L 53.711969 89.621639 
L 53.773025 92.14475 
L 53.834081 92.782778 
L 54.017248 89.534635 
L 54.13936 87.649552 
L 54.322528 90.230666 
L 54.383583 89.534635 
L 54.444639 91.825736 
L 54.505695 88.113572 
L 54.566751 90.027657 
L 54.688862 89.679641 
L 54.749918 89.88265 
L 54.87203 86.953521 
L 54.933086 88.229577 
L 54.994141 90.694686 
L 55.055197 88.28758 
L 55.116253 89.099616 
L 55.177309 90.404673 
L 55.238365 86.69251 
L 55.299421 86.721511 
L 55.421532 88.51959 
L 55.482588 84.488412 
L 55.543644 86.083483 
L 55.6047 85.242446 
L 55.665755 86.92452 
L 55.726811 84.865429 
L 55.787867 86.083483 
L 55.848923 86.69251 
L 55.909979 88.432586 
L 55.971035 85.851472 
L 56.03209 87.243534 
L 56.215258 84.169398 
L 56.276314 84.256402 
L 56.337369 88.809603 
L 56.398425 84.981434 
L 56.459481 86.02548 
L 56.581593 86.750512 
L 56.703704 82.110307 
L 56.76476 83.29936 
L 56.825816 82.40032 
L 56.886872 82.139309 
L 56.947928 82.603329 
L 57.008983 85.445455 
L 57.070039 84.111396 
L 57.131095 80.631242 
L 57.192151 80.921255 
L 57.253207 82.342318 
L 57.314262 80.631242 
L 57.375318 81.50128 
L 57.436374 81.9363 
L 57.558486 83.473367 
L 57.619541 79.848207 
L 57.680597 81.472279 
L 57.863765 77.383099 
L 57.924821 79.239181 
L 57.985876 80.13822 
L 58.046932 80.080218 
L 58.291155 77.470102 
L 58.413267 79.065173 
L 58.535379 76.687068 
L 58.596435 77.905122 
L 58.65749 72.771895 
L 58.718546 76.600064 
L 58.779602 75.120999 
L 58.901714 78.920166 
L 58.962769 75.324008 
L 59.023825 75.991037 
L 59.084881 76.252049 
L 59.145937 77.470102 
L 59.206993 75.062996 
L 59.268048 75.846031 
L 59.329104 75.933035 
L 59.39016 76.252049 
L 59.451216 72.220871 
L 59.512272 74.366965 
L 59.573328 72.8879 
L 59.634383 73.293918 
L 59.695439 72.8879 
L 59.756495 73.090909 
L 59.817551 74.279962 
L 59.878607 70.074776 
L 59.939662 74.279962 
L 60.000718 70.538796 
L 60.061774 72.075864 
L 60.183886 72.104866 
L 60.244942 70.16178 
L 60.305997 75.15 
L 60.367053 72.220871 
L 60.489165 69.49475 
L 60.611276 73.090909 
L 60.733388 68.044686 
L 60.8555 69.204738 
L 60.916555 71.727849 
L 61.099723 66.217606 
L 61.221835 69.204738 
L 61.466058 65.608579 
L 61.527114 69.407746 
L 61.588169 65.985595 
L 61.649225 69.900768 
L 61.710281 69.436748 
L 61.771337 66.246607 
L 61.832393 70.364789 
L 61.893449 67.812676 
L 61.954504 68.856722 
L 62.01556 68.566709 
L 62.076616 67.00064 
L 62.137672 67.435659 
L 62.198728 67.551665 
L 62.381895 62.534443 
L 62.442951 65.724584 
L 62.504007 65.231562 
L 62.565062 65.724584 
L 62.626118 64.941549 
L 62.74823 66.072599 
L 62.809286 61.983419 
L 62.870342 62.505442 
L 62.931397 62.853457 
L 62.992453 68.3637 
L 63.053509 65.144558 
L 63.114565 66.362612 
L 63.297732 63.172471 
L 63.419844 63.897503 
L 63.4809 64.535531 
L 63.603011 60.359347 
L 63.786179 65.666581 
L 63.969346 61.432394 
L 64.030402 65.202561 
L 64.091458 63.723496 
L 64.152514 64.883547 
L 64.213569 63.056466 
L 64.274625 65.695583 
L 64.457793 61.751408 
L 64.518849 61.751408 
L 64.579904 65.028553 
L 64.64096 60.591357 
L 64.702016 64.216517 
L 64.824128 66.159603 
L 65.007295 61.867414 
L 65.068351 61.316389 
L 65.129407 63.549488 
L 65.190462 62.795455 
L 65.251518 62.01242 
L 65.312574 65.057554 
L 65.37363 62.824456 
L 65.434686 64.535531 
L 65.617853 61.693406 
L 65.862076 66.391613 
L 65.984188 60.88137 
L 66.1063 62.708451 
L 66.167356 62.47644 
L 66.228411 61.925416 
L 66.289467 65.927593 
L 66.350523 61.983419 
L 66.411579 64.999552 
L 66.53369 63.491485 
L 66.594746 64.04251 
L 66.655802 63.897503 
L 66.716858 63.027465 
L 66.777914 65.63758 
L 66.838969 63.984507 
L 66.961081 65.434571 
L 67.022137 64.709539 
L 67.083193 62.331434 
L 67.144249 62.534443 
L 67.205304 62.853457 
L 67.327416 66.333611 
L 67.388472 62.940461 
L 67.449528 65.898592 
L 67.510583 65.753585 
L 67.632695 63.433483 
L 67.693751 66.913636 
L 67.754807 63.752497 
L 67.937974 69.349744 
L 68.121142 64.50653 
L 68.243253 67.986684 
L 68.304309 65.608579 
L 68.365365 67.609667 
L 68.426421 67.580666 
L 68.487476 67.145647 
L 68.548532 68.856722 
L 68.609588 64.535531 
L 68.670644 65.550576 
L 68.7317 68.740717 
L 68.792756 64.883547 
L 68.853811 69.842766 
L 68.914867 68.566709 
L 68.975923 68.566709 
L 69.036979 68.305698 
L 69.098035 70.39379 
L 69.15909 70.335787 
L 69.281202 66.594622 
L 69.342258 67.406658 
L 69.464369 68.711716 
L 69.525425 66.594622 
L 69.586481 68.102689 
L 69.647537 69.900768 
L 69.708593 69.552753 
L 69.769649 69.001729 
L 69.830704 66.739629 
L 69.952816 69.900768 
L 70.013872 65.057554 
L 70.074928 68.943726 
L 70.135983 66.884635 
L 70.197039 67.89968 
L 70.258095 68.015685 
L 70.380207 73.11991 
L 70.441263 70.770807 
L 70.502318 71.727849 
L 70.685486 69.987772 
L 70.807597 72.191869 
L 70.868653 69.465749 
L 70.929709 71.089821 
L 70.990765 72.42388 
L 71.051821 71.29283 
L 71.112876 73.351921 
L 71.173932 72.191869 
L 71.234988 72.278873 
L 71.296044 71.930858 
L 71.418156 74.047951 
L 71.540267 70.277785 
L 71.662379 76.339052 
L 71.78449 71.582843 
L 71.845546 74.569974 
L 71.906602 73.960948 
L 71.967658 72.365877 
L 72.028714 77.093086 
L 72.08977 76.600064 
L 72.211881 72.365877 
L 72.272937 75.38201 
L 72.395049 71.060819 
L 72.456104 77.151088 
L 72.51716 75.033995 
L 72.578216 75.179001 
L 72.639272 76.28105 
L 72.761383 74.366965 
L 72.883495 77.499104 
L 72.944551 76.571063 
L 73.005607 77.731114 
L 73.066663 76.252049 
L 73.127718 78.630154 
L 73.188774 73.757939 
L 73.24983 77.209091 
L 73.310886 75.643022 
L 73.432997 80.225224 
L 73.494053 74.656978 
L 73.555109 76.078041 
L 73.616165 76.339052 
L 73.677221 75.440013 
L 73.799332 80.863252 
L 73.860388 77.064085 
L 73.921444 77.151088 
L 73.9825 79.268182 
L 74.043556 77.731114 
L 74.165667 82.197311 
L 74.226723 79.181178 
L 74.287779 80.660243 
L 74.40989 80.254225 
L 74.470946 78.862164 
L 74.532002 83.270359 
L 74.654114 77.87612 
L 74.837281 81.356274 
L 75.020449 83.183355 
L 75.14256 78.572151 
L 75.203616 78.77516 
L 75.386783 84.575416 
L 75.447839 83.647375 
L 75.508895 80.341229 
L 75.631007 83.125352 
L 75.692063 80.718246 
L 75.87523 86.112484 
L 75.936286 81.878297 
L 75.997342 82.603329 
L 76.058397 81.559283 
L 76.119453 81.9363 
L 76.302621 85.822471 
L 76.485788 81.704289 
L 76.668956 85.358451 
L 76.730011 87.098528 
L 76.791067 87.011524 
L 76.913179 83.821383 
L 77.096346 88.635595 
L 77.157402 84.836428 
L 77.218458 86.373496 
L 77.279514 87.504545 
L 77.34057 87.272535 
L 77.401625 84.807426 
L 77.462681 86.634507 
L 77.523737 86.69251 
L 77.584793 87.38854 
L 77.645849 90.636684 
L 77.76796 85.619462 
L 77.829016 88.664597 
L 77.890072 86.25749 
L 77.951128 87.852561 
L 78.012184 85.967478 
L 78.073239 86.750512 
L 78.195351 90.288668 
L 78.317463 88.896607 
L 78.378518 89.969654 
L 78.439574 89.447631 
L 78.50063 89.476633 
L 78.622742 91.477721 
L 78.683797 90.810691 
L 78.744853 88.751601 
L 78.805909 90.201665 
L 78.866965 90.31767 
L 78.928021 92.57977 
L 78.989077 91.477721 
L 79.050132 88.606594 
L 79.111188 90.752689 
L 79.172244 92.202753 
L 79.2333 90.984699 
L 79.355411 92.956786 
L 79.416467 89.18662 
L 79.477523 89.824648 
L 79.538579 89.65064 
L 79.660691 93.391805 
L 79.782802 92.840781 
L 79.843858 89.41863 
L 79.904914 90.085659 
L 80.149137 94.348848 
L 80.271249 90.926697 
L 80.332304 93.710819 
L 80.39336 93.420807 
L 80.515472 95.479898 
L 80.576528 91.970743 
L 80.637584 93.217798 
L 80.820751 95.334891 
L 80.881807 94.783867 
L 80.942863 92.347759 
L 81.003918 95.856914 
L 81.064974 95.421895 
L 81.12603 95.798912 
L 81.187086 95.624904 
L 81.248142 95.5379 
L 81.309197 95.885915 
L 81.370253 95.044878 
L 81.431309 98.148015 
L 81.492365 91.68073 
L 81.553421 94.232843 
L 81.614477 97.770999 
L 81.675532 94.667862 
L 81.736588 96.001921 
L 81.8587 97.596991 
L 82.041867 95.76991 
L 82.286091 100.0621 
L 82.347146 97.741997 
L 82.408202 99.16306 
L 82.469258 99.018054 
L 82.530314 96.90096 
L 82.59137 98.148015 
L 82.713481 99.018054 
L 82.774537 98.235019 
L 82.835593 98.554033 
L 82.896649 101.570166 
L 82.957704 96.755954 
L 83.01876 98.496031 
L 83.079816 99.250064 
L 83.140872 98.03201 
L 83.324039 102.063188 
L 83.446151 99.250064 
L 83.568263 100.903137 
L 83.629318 100.207106 
L 83.690374 101.628169 
L 83.75143 98.467029 
L 83.812486 100.323111 
L 83.873542 101.106146 
L 83.934598 100.584123 
L 83.995653 99.656082 
L 84.056709 100.091101 
L 84.117765 100.207106 
L 84.178821 102.730218 
L 84.239877 102.034187 
L 84.300932 100.700128 
L 84.361988 100.990141 
L 84.606211 104.122279 
L 84.667267 101.048143 
L 84.728323 104.441293 
L 84.789379 101.802177 
L 84.850435 102.585211 
L 84.911491 101.570166 
L 84.972546 101.686172 
L 85.033602 101.831178 
L 85.094658 103.861268 
L 85.155714 102.904225 
L 85.21677 103.252241 
L 85.277825 100.29411 
L 85.338881 103.368246 
L 85.399937 101.802177 
L 85.522049 103.078233 
L 85.583105 101.570166 
L 85.64416 102.933227 
L 85.705216 101.541165 
L 85.827328 105.166325 
L 86.010495 102.643214 
L 86.071551 103.977273 
L 86.132607 103.45525 
L 86.193663 102.469206 
L 86.37683 104.992318 
L 86.437886 105.398335 
L 86.498942 104.180282 
L 86.559998 105.71735 
L 86.621053 104.876312 
L 86.682109 103.223239 
L 86.804221 106.906402 
L 86.865277 106.442382 
L 86.987388 105.659347 
L 87.048444 106.065365 
L 87.1095 107.486428 
L 87.170556 103.745262 
L 87.231612 106.906402 
L 87.292667 106.326376 
L 87.353723 105.514341 
L 87.414779 107.283419 
L 87.475835 107.022407 
L 87.597946 104.035275 
L 87.720058 107.341421 
L 87.781114 106.123367 
L 87.84217 106.268374 
L 87.903225 106.355378 
L 87.964281 109.661524 
L 88.025337 107.950448 
L 88.147449 105.746351 
L 88.208505 109.023496 
L 88.26956 107.283419 
L 88.330616 106.326376 
L 88.574839 110.328553 
L 88.635895 106.819398 
L 88.696951 109.023496 
L 88.758007 107.660435 
L 88.819063 108.849488 
L 88.880118 107.225416 
L 89.063286 111.952625 
L 89.124342 111.024584 
L 89.185398 107.515429 
L 89.246453 107.718438 
L 89.307509 110.328553 
L 89.368565 109.545519 
L 89.429621 108.90749 
L 89.490677 112.06863 
L 89.551732 110.415557 
L 89.612788 109.661524 
L 89.673844 110.821575 
L 89.7349 109.661524 
L 89.795956 111.546607 
L 89.857012 111.256594 
L 89.918067 111.778617 
L 89.979123 110.908579 
L 90.040179 114.243726 
L 90.101235 110.096543 
L 90.162291 110.502561 
L 90.223346 112.213636 
L 90.284402 108.733483 
L 90.345458 113.460691 
L 90.406514 111.83662 
L 90.46757 110.125544 
L 90.528625 111.401601 
L 90.589681 113.141677 
L 90.650737 110.589565 
L 90.711793 111.343598 
L 90.772849 111.662612 
L 90.833905 114.56274 
L 90.89496 111.865621 
L 90.956016 112.706658 
L 91.017072 114.156722 
L 91.078128 112.039629 
L 91.139184 114.272727 
L 91.200239 112.561652 
L 91.261295 113.344686 
L 91.322351 112.764661 
L 91.505519 111.401601 
L 91.62763 115.287772 
L 91.749742 111.981626 
L 91.871853 113.286684 
L 91.932909 111.633611 
L 91.993965 111.981626 
L 92.177132 114.79475 
L 92.238188 116.853841 
L 92.299244 113.19968 
L 92.3603 114.881754 
L 92.482412 113.257682 
L 92.543467 115.548784 
L 92.604523 114.823752 
L 92.665579 113.634699 
L 92.787691 115.519782 
L 92.848746 113.6637 
L 92.909802 113.924712 
L 92.970858 115.403777 
L 93.031914 113.837708 
L 93.09297 115.635787 
L 93.154026 114.475736 
L 93.215081 114.156722 
L 93.276137 116.389821 
L 93.337193 115.403777 
L 93.52036 113.315685 
L 93.642472 118.071895 
L 93.703528 116.099808 
L 93.764584 117.143854 
L 93.947751 115.46178 
L 94.130919 116.82484 
L 94.191974 116.82484 
L 94.25303 117.462868 
L 94.375142 114.997759 
L 94.497253 118.042894 
L 94.558309 116.331818 
L 94.619365 119.608963 
L 94.680421 117.172855 
L 94.741477 116.447823 
L 94.802532 118.564917 
L 94.863588 117.317862 
L 95.107812 120.304994 
L 95.168867 117.636876 
L 95.229923 118.999936 
L 95.290979 118.622919 
L 95.352035 116.795839 
L 95.413091 118.477913 
L 95.474146 117.926889 
L 95.535202 116.331818 
L 95.596258 120.566005 
L 95.657314 118.767926 
L 95.71837 116.476825 
L 95.779426 117.984891 
L 95.840481 117.549872 
L 95.901537 120.711012 
L 95.962593 116.766837 
L 96.023649 117.839885 
L 96.084705 121.436044 
L 96.14576 121.320038 
L 96.267872 118.245903 
L 96.389984 121.320038 
L 96.573151 117.810883 
L 96.634207 119.608963 
L 96.695263 117.781882 
L 96.817374 122.886108 
L 96.87843 120.537004 
L 96.939486 122.190077 
L 97.000542 120.885019 
L 97.122653 119.405954 
L 97.183709 121.059027 
L 97.244765 121.001024 
L 97.305821 121.204033 
L 97.488988 120.333995 
L 97.6111 121.175032 
L 97.672156 120.014981 
L 97.733212 121.552049 
L 97.794267 120.159987 
L 97.855323 120.566005 
L 98.099546 122.422087 
L 98.160602 121.291037 
L 98.221658 121.58105 
L 98.282714 121.320038 
L 98.34377 123.060115 
L 98.404826 122.306082 
L 98.465881 122.886108 
L 98.526937 119.492958 
L 98.649049 122.915109 
L 98.710105 122.103073 
L 98.832216 123.437132 
L 99.015384 121.146031 
L 99.320663 124.945198 
L 99.381719 122.596095 
L 99.442774 124.162164 
L 99.564886 121.929065 
L 99.686998 124.162164 
L 99.748053 122.48009 
L 99.870165 124.713188 
L 99.931221 122.48009 
L 99.992277 123.408131 
L 100.053333 123.437132 
L 100.114388 123.002113 
L 100.175444 124.220166 
L 100.297556 122.94411 
L 100.541779 124.30717 
L 100.602835 123.814149 
L 100.663891 124.655186 
L 100.724946 123.002113 
L 100.786002 123.669142 
L 100.847058 123.698143 
L 100.908114 122.886108 
L 100.96917 125.525224 
L 101.030226 124.510179 
L 101.091281 124.684187 
L 101.213393 122.567093 
L 101.274449 125.061204 
L 101.335505 123.379129 
L 101.39656 123.031114 
L 101.457616 126.250256 
L 101.518672 124.655186 
L 101.579728 123.872151 
L 101.640784 124.07516 
L 101.762895 125.757234 
L 101.885007 123.959155 
L 102.007119 125.873239 
L 102.068174 124.30717 
L 102.12923 124.539181 
L 102.190286 126.047247 
L 102.251342 124.9742 
L 102.434509 123.524136 
L 102.495565 123.872151 
L 102.556621 125.902241 
L 102.617677 125.061204 
L 102.739788 127.062292 
L 102.800844 124.510179 
L 102.8619 125.003201 
L 103.045067 126.221255 
L 103.228235 124.539181 
L 103.289291 126.598271 
L 103.350347 126.134251 
L 103.411402 125.583227 
L 103.472458 125.902241 
L 103.533514 125.757234 
L 103.655626 123.785147 
L 103.777737 126.163252 
L 103.960905 124.133163 
L 104.02196 125.235211 
L 104.083016 124.30717 
L 104.144072 124.887196 
L 104.205128 126.134251 
L 104.266184 124.829193 
L 104.32724 126.221255 
L 104.388295 125.467222 
L 104.571463 126.511268 
L 104.693574 125.380218 
L 104.815686 125.902241 
L 104.876742 125.67023 
L 104.937798 126.33726 
L 105.059909 124.713188 
L 105.182021 125.931242 
L 105.243077 127.671319 
L 105.304133 126.975288 
L 105.4873 123.785147 
L 105.548356 127.990333 
L 105.609412 126.250256 
L 105.670467 127.062292 
L 105.731523 124.278169 
L 105.792579 125.496223 
L 105.914691 126.627273 
L 106.036802 124.423175 
L 106.097858 127.874328 
L 106.158914 126.627273 
L 106.21997 128.077337 
L 106.403137 125.960243 
L 106.586305 128.019334 
L 106.830528 124.191165 
L 106.891584 127.526312 
L 106.95264 126.56927 
L 107.013695 126.888284 
L 107.074751 127.816325 
L 107.135807 127.091293 
L 107.196863 126.743278 
L 107.257919 125.264213 
L 107.318974 128.454353 
L 107.38003 128.280346 
L 107.441086 125.20621 
L 107.624254 128.773367 
L 107.746365 124.887196 
L 107.807421 128.309347 
L 107.868477 126.047247 
L 108.173756 128.83137 
L 108.234812 126.888284 
L 108.295867 128.686364 
L 108.356923 126.308259 
L 108.417979 127.787324 
L 108.479035 128.483355 
L 108.540091 127.120294 
L 108.601147 127.265301 
L 108.662202 127.758323 
L 108.784314 126.424264 
L 108.84537 127.816325 
L 108.906426 126.685275 
L 108.967481 126.917286 
L 109.028537 128.715365 
L 109.089593 126.511268 
L 109.150649 126.685275 
L 109.333816 129.73041 
L 109.394872 128.715365 
L 109.455928 125.612228 
L 109.516984 126.366261 
L 109.639095 128.309347 
L 109.700151 128.048335 
L 109.761207 128.36735 
L 109.883319 126.511268 
L 109.944374 127.120294 
L 110.066486 129.353393 
L 110.127542 127.033291 
L 110.188598 128.135339 
L 110.249654 129.759411 
L 110.310709 129.266389 
L 110.371765 127.555314 
L 110.432821 129.005378 
L 110.493877 127.93233 
L 110.554933 126.33726 
L 110.615988 128.947375 
L 110.677044 128.164341 
L 110.7381 129.382394 
L 110.799156 128.802369 
L 110.860212 126.453265 
L 110.921268 127.93233 
L 110.982323 127.265301 
L 111.165491 129.96242 
L 111.287602 127.497311 
L 111.348658 129.469398 
L 111.409714 128.454353 
L 111.47077 128.309347 
L 111.592881 129.817414 
L 111.776049 126.018246 
L 111.898161 129.411396 
L 112.020272 129.092382 
L 112.081328 130.020423 
L 112.142384 128.338348 
L 112.20344 129.933419 
L 112.264495 128.773367 
L 112.325551 128.947375 
L 112.386607 126.56927 
L 112.447663 128.251344 
L 112.508719 126.975288 
L 112.569774 129.266389 
L 112.63083 128.715365 
L 112.691886 128.802369 
L 112.752942 129.179385 
L 112.813998 127.613316 
L 112.875054 129.237388 
L 113.119277 126.163252 
L 113.180333 129.817414 
L 113.241388 127.93233 
L 113.424556 129.73041 
L 113.485612 129.469398 
L 113.607723 127.642318 
L 113.668779 127.729321 
L 113.729835 129.498399 
L 113.790891 129.121383 
L 113.851947 127.439309 
L 114.035114 130.774456 
L 114.218281 125.264213 
L 114.340393 130.977465 
L 114.462505 129.324392 
L 114.523561 131.354481 
L 114.584616 129.817414 
L 114.706728 130.774456 
L 114.82884 128.106338 
L 114.889895 130.832458 
L 114.950951 130.687452 
L 115.134119 129.817414 
L 115.195175 130.629449 
L 115.25623 130.078425 
L 115.317286 129.73041 
L 115.439398 130.600448 
L 115.500454 128.251344 
L 115.561509 131.673496 
L 115.622565 129.701408 
L 115.683621 129.411396 
L 115.744677 129.759411 
L 115.805733 130.977465 
L 115.866788 130.281434 
L 115.927844 129.614405 
L 115.9889 130.803457 
L 116.049956 129.237388 
L 116.111012 130.919462 
L 116.172068 130.339437 
L 116.233123 129.092382 
L 116.294179 129.759411 
L 116.477347 131.064469 
L 116.538402 131.441485 
L 116.599458 129.875416 
L 116.660514 129.96242 
L 116.72157 130.948464 
L 116.782626 129.875416 
L 116.843682 130.223431 
L 116.904737 130.687452 
L 117.026849 129.005378 
L 117.087905 130.136428 
L 117.148961 130.19443 
L 117.210016 129.556402 
L 117.332128 131.32548 
L 117.515295 129.788412 
L 117.576351 130.136428 
L 117.637407 129.788412 
L 117.698463 131.006466 
L 117.759519 130.281434 
L 117.88163 128.744366 
L 117.942686 131.354481 
L 118.003742 130.919462 
L 118.064798 130.890461 
L 118.125854 130.455442 
L 118.186909 128.947375 
L 118.247965 131.905506 
L 118.309021 128.309347 
L 118.370077 130.049424 
L 118.431133 132.079513 
L 118.492188 130.368438 
L 118.553244 131.412484 
L 118.6143 131.818502 
L 118.675356 133.761588 
L 118.797468 130.774456 
L 118.858523 130.919462 
L 118.919579 130.658451 
L 119.163802 131.615493 
L 119.224858 131.528489 
L 119.34697 130.716453 
L 119.408026 131.55749 
L 119.469082 130.687452 
L 119.530137 131.586492 
L 119.591193 129.179385 
L 119.652249 131.760499 
L 119.713305 129.585403 
L 119.896472 132.311524 
L 119.957528 131.151472 
L 120.018584 132.282522 
L 120.07964 130.687452 
L 120.140695 131.122471 
L 120.568086 132.775544 
L 120.690198 130.107426 
L 120.812309 132.021511 
L 120.873365 131.122471 
L 120.934421 131.180474 
L 120.995477 132.137516 
L 121.117589 129.817414 
L 121.300756 133.239565 
L 121.422868 131.470487 
L 121.483923 132.572535 
L 121.544979 131.789501 
L 121.606035 130.890461 
L 121.728147 132.572535 
L 121.911314 130.716453 
L 121.97237 132.746543 
L 122.033426 131.644494 
L 122.094482 131.006466 
L 122.155537 131.035467 
L 122.216593 133.616581 
L 122.277649 132.050512 
L 122.338705 132.775544 
L 122.399761 131.644494 
L 122.460816 132.920551 
L 122.521872 131.760499 
L 122.582928 131.818502 
L 122.643984 132.166517 
L 122.827151 131.760499 
L 122.888207 133.35557 
L 123.071375 131.32548 
L 123.13243 130.832458 
L 123.376654 133.703585 
L 123.498765 133.558579 
L 123.559821 131.499488 
L 123.620877 132.253521 
L 123.681933 133.268566 
L 123.8651 131.412484 
L 123.926156 133.12356 
L 123.987212 133.094558 
L 124.048268 131.934507 
L 124.109323 133.007554 
L 124.170379 131.963508 
L 124.231435 134.109603 
L 124.292491 133.790589 
L 124.353547 131.32548 
L 124.414603 134.312612 
L 124.475658 131.702497 
L 124.536714 135.61767 
L 124.658826 131.702497 
L 124.719882 133.413572 
L 124.780937 131.934507 
L 124.841993 132.920551 
L 125.086216 134.254609 
L 125.208328 131.55749 
L 125.391496 132.775544 
L 125.452551 134.689629 
L 125.513607 134.022599 
L 125.574663 131.963508 
L 125.635719 132.978553 
L 125.696775 131.876504 
L 125.75783 133.732586 
L 125.818886 133.326569 
L 125.879942 133.674584 
L 125.940998 132.108515 
L 126.002054 132.340525 
L 126.063109 132.253521 
L 126.246277 135.066645 
L 126.307333 133.297567 
L 126.368389 135.037644 
L 126.429444 133.993598 
L 126.612612 132.68854 
L 126.673668 134.689629 
L 126.734723 132.601536 
L 126.795779 134.109603 
L 126.978947 131.818502 
L 127.101058 134.022599 
L 127.162114 133.384571 
L 127.22317 133.761588 
L 127.284226 133.442574 
L 127.345282 134.080602 
L 127.528449 132.485531 
L 127.589505 134.312612 
L 127.650561 132.659539 
L 127.711616 133.848592 
L 127.772672 134.138604 
L 127.833728 132.253521 
L 127.95584 134.979641 
L 128.016896 134.863636 
L 128.077951 133.790589 
L 128.139007 134.805634 
L 128.200063 133.297567 
L 128.261119 134.834635 
L 128.322175 132.920551 
L 128.38323 133.993598 
L 128.505342 133.529577 
L 128.627454 132.427529 
L 128.68851 133.703585 
L 128.749565 132.68854 
L 128.871677 133.993598 
L 128.993789 131.876504 
L 129.054844 134.196607 
L 129.1159 134.167606 
L 129.176956 134.515621 
L 129.238012 132.833547 
L 129.299068 133.848592 
L 129.360123 132.920551 
L 129.543291 134.515621 
L 129.604347 133.703585 
L 129.665403 134.515621 
L 129.726458 133.848592 
L 129.787514 132.659539 
L 129.84857 134.863636 
L 129.909626 132.543534 
L 129.970682 134.080602 
L 130.031737 134.776633 
L 130.092793 133.645583 
L 130.153849 133.761588 
L 130.214905 133.529577 
L 130.275961 132.137516 
L 130.337017 134.080602 
L 130.398072 132.775544 
L 130.58124 134.747631 
L 130.642296 135.356658 
L 130.703351 134.921639 
L 130.764407 133.645583 
L 130.825463 134.428617 
L 130.886519 134.254609 
L 131.00863 134.71863 
L 131.069686 133.036556 
L 131.130742 135.820679 
L 131.191798 134.022599 
L 131.252854 133.616581 
L 131.31391 135.733675 
L 131.374965 135.240653 
L 131.497077 133.848592 
L 131.558133 135.153649 
L 131.619189 134.312612 
L 131.7413 133.181562 
L 131.802356 134.805634 
L 131.863412 134.196607 
L 131.985523 133.152561 
L 132.046579 134.660627 
L 132.107635 132.920551 
L 132.229747 135.095647 
L 132.351858 134.921639 
L 132.47397 133.210563 
L 132.535026 135.385659 
L 132.596082 134.138604 
L 132.657137 133.500576 
L 132.718193 134.022599 
L 132.779249 135.733675 
L 132.840305 132.891549 
L 132.901361 135.095647 
L 132.962417 133.12356 
L 133.023472 134.573624 
L 133.084528 132.891549 
L 133.20664 135.211652 
L 133.328751 133.703585 
L 133.389807 133.645583 
L 133.450863 134.312612 
L 133.511919 133.58758 
L 133.63403 134.776633 
L 133.695086 133.616581 
L 133.756142 135.066645 
L 133.817198 134.428617 
L 133.878254 134.109603 
L 133.93931 135.240653 
L 134.000365 134.312612 
L 134.061421 135.153649 
L 134.122477 134.834635 
L 134.183533 134.776633 
L 134.244589 133.761588 
L 134.305644 135.124648 
L 134.3667 134.283611 
L 134.427756 133.442574 
L 134.549868 135.037644 
L 134.671979 133.848592 
L 134.733035 134.138604 
L 134.794091 134.341613 
L 134.855147 133.210563 
L 134.916203 135.443662 
L 134.977258 134.48662 
L 135.038314 134.747631 
L 135.09937 133.964597 
L 135.160426 135.414661 
L 135.221482 134.080602 
L 135.343593 135.530666 
L 135.404649 133.384571 
L 135.465705 134.573624 
L 135.526761 135.501665 
L 135.648872 132.543534 
L 135.770984 135.095647 
L 135.83204 134.660627 
L 135.954151 135.675672 
L 136.015207 134.138604 
L 136.076263 134.747631 
L 136.198375 136.168694 
L 136.259431 135.675672 
L 136.320486 134.573624 
L 136.381542 134.834635 
L 136.442598 135.878681 
L 136.503654 135.820679 
L 136.56471 135.733675 
L 136.747877 132.775544 
L 136.808933 133.81959 
L 136.869989 132.775544 
L 136.9921 135.646671 
L 137.114212 134.834635 
L 137.175268 135.501665 
L 137.236324 135.298656 
L 137.419491 134.515621 
L 137.480547 134.747631 
L 137.541603 135.704673 
L 137.663714 133.500576 
L 137.846882 136.226697 
L 138.030049 133.529577 
L 138.091105 135.559667 
L 138.152161 134.892638 
L 138.213217 133.616581 
L 138.274272 133.848592 
L 138.335328 134.312612 
L 138.396384 135.820679 
L 138.45744 135.240653 
L 138.518496 133.529577 
L 138.579551 135.791677 
L 138.640607 134.71863 
L 138.762719 133.964597 
L 138.945886 135.61767 
L 139.129054 133.58758 
L 139.19011 134.341613 
L 139.251165 134.167606 
L 139.312221 134.254609 
L 139.373277 133.181562 
L 139.434333 135.791677 
L 139.495389 135.704673 
L 139.556444 134.71863 
L 139.6175 135.559667 
L 139.678556 133.877593 
L 139.800668 135.762676 
L 139.861724 133.239565 
L 139.922779 134.747631 
L 140.105947 136.632714 
L 140.167003 133.58758 
L 140.228058 134.573624 
L 140.289114 133.558579 
L 140.35017 134.254609 
L 140.411226 134.48662 
L 140.533338 133.993598 
L 140.594393 135.501665 
L 140.655449 135.240653 
L 140.716505 134.254609 
L 140.777561 135.907682 
L 140.838617 133.297567 
L 140.899672 134.022599 
L 141.021784 135.733675 
L 141.143896 133.35557 
L 141.327063 135.18265 
L 141.388119 135.327657 
L 141.449175 134.48662 
L 141.510231 134.805634 
L 141.571286 136.922727 
L 141.754454 133.529577 
L 141.998677 136.690717 
L 142.059733 136.110691 
L 142.120789 133.036556 
L 142.181845 134.457618 
L 142.303956 135.559667 
L 142.365012 134.428617 
L 142.426068 136.08169 
L 142.487124 135.472663 
L 142.609235 133.558579 
L 142.670291 134.921639 
L 142.731347 134.602625 
L 142.792403 133.81959 
L 142.853458 135.037644 
L 142.914514 133.81959 
L 142.97557 136.197695 
L 143.036626 134.95064 
L 143.097682 134.834635 
L 143.158738 135.733675 
L 143.219793 134.515621 
L 143.280849 134.834635 
L 143.341905 135.008643 
L 143.402961 134.283611 
L 143.464017 135.211652 
L 143.525072 135.153649 
L 143.70824 132.369526 
L 143.891407 134.631626 
L 143.952463 133.790589 
L 144.074575 134.892638 
L 144.196686 133.674584 
L 144.257742 134.283611 
L 144.379854 135.269654 
L 144.44091 133.993598 
L 144.624077 136.052689 
L 144.746189 134.312612 
L 144.807245 134.515621 
L 144.8683 134.979641 
L 144.990412 133.58758 
L 145.051468 133.529577 
L 145.112524 134.689629 
L 145.173579 133.935595 
L 145.234635 133.471575 
L 145.295691 133.645583 
L 145.356747 135.588668 
L 145.417803 134.979641 
L 145.478858 135.530666 
L 145.539914 134.022599 
L 145.60097 134.399616 
L 145.662026 135.646671 
L 145.845193 132.862548 
L 146.028361 134.399616 
L 146.089417 135.066645 
L 146.150472 134.660627 
L 146.211528 133.993598 
L 146.272584 135.443662 
L 146.33364 134.602625 
L 146.394696 133.645583 
L 146.455752 135.327657 
L 146.516807 134.283611 
L 146.638919 133.935595 
L 146.699975 135.820679 
L 146.761031 132.804545 
L 146.822086 134.892638 
L 146.883142 133.35557 
L 146.944198 135.791677 
L 147.005254 134.834635 
L 147.06631 133.384571 
L 147.127365 134.312612 
L 147.188421 136.690717 
L 147.249477 134.921639 
L 147.371589 134.341613 
L 147.432645 134.573624 
L 147.4937 133.35557 
L 147.554756 134.370615 
L 147.615812 134.022599 
L 147.676868 133.558579 
L 147.798979 135.704673 
L 147.860035 134.254609 
L 147.921091 134.689629 
L 148.043203 133.877593 
L 148.104259 134.457618 
L 148.165314 133.065557 
L 148.287426 135.791677 
L 148.348482 134.892638 
L 148.470593 134.283611 
L 148.531649 135.646671 
L 148.592705 133.297567 
L 148.653761 133.529577 
L 148.714817 134.892638 
L 148.775872 134.428617 
L 148.836928 133.935595 
L 148.897984 134.225608 
L 148.95904 134.341613 
L 149.020096 134.863636 
L 149.081152 134.051601 
L 149.142207 134.283611 
L 149.203263 134.138604 
L 149.325375 135.356658 
L 149.386431 135.008643 
L 149.447486 135.965685 
L 149.569598 134.283611 
L 149.630654 135.472663 
L 149.69171 135.124648 
L 149.752765 133.906594 
L 149.813821 135.008643 
L 149.935933 133.645583 
L 149.996989 135.240653 
L 150.058045 134.544622 
L 150.180156 135.646671 
L 150.302268 132.920551 
L 150.363324 134.71863 
L 150.424379 132.369526 
L 150.485435 134.921639 
L 150.546491 134.631626 
L 150.607547 133.877593 
L 150.729659 135.124648 
L 150.790714 134.921639 
L 150.85177 134.196607 
L 150.912826 134.921639 
L 150.973882 133.326569 
L 151.034938 133.616581 
L 151.157049 134.95064 
L 151.279161 134.631626 
L 151.340217 134.631626 
L 151.401272 134.892638 
L 151.523384 133.181562 
L 151.58444 135.240653 
L 151.645496 134.457618 
L 151.706552 135.385659 
L 151.889719 133.239565 
L 152.011831 134.399616 
L 152.072886 132.775544 
L 152.194998 135.240653 
L 152.256054 135.066645 
L 152.31711 133.152561 
L 152.378166 133.848592 
L 152.439221 133.036556 
L 152.561333 133.935595 
L 152.7445 133.268566 
L 152.805556 134.283611 
L 152.866612 133.181562 
L 152.927668 133.645583 
L 152.988724 134.312612 
L 153.049779 134.051601 
L 153.110835 134.312612 
L 153.171891 135.298656 
L 153.232947 133.297567 
L 153.294003 134.457618 
L 153.416114 135.472663 
L 153.538226 135.008643 
L 153.599282 132.137516 
L 153.660338 133.645583 
L 153.782449 134.863636 
L 153.843505 133.094558 
L 153.904561 133.761588 
L 153.965617 133.413572 
L 154.026673 135.646671 
L 154.087728 133.877593 
L 154.270896 134.921639 
L 154.331952 132.137516 
L 154.393007 134.602625 
L 154.454063 133.964597 
L 154.515119 132.572535 
L 154.698286 134.48662 
L 154.759342 134.979641 
L 154.94251 133.58758 
L 155.003566 133.790589 
L 155.125677 135.84968 
L 155.308845 132.891549 
L 155.3699 134.544622 
L 155.430956 133.268566 
L 155.492012 133.413572 
L 155.553068 134.138604 
L 155.614124 133.181562 
L 155.675179 135.327657 
L 155.736235 133.442574 
L 155.797291 133.616581 
L 155.858347 133.848592 
L 155.980459 133.065557 
L 156.224682 135.762676 
L 156.285738 134.138604 
L 156.346793 135.008643 
L 156.407849 134.660627 
L 156.468905 135.443662 
L 156.529961 133.761588 
L 156.591017 133.81959 
L 156.652073 134.399616 
L 156.713128 132.398528 
L 156.896296 135.153649 
L 156.957352 133.239565 
L 157.018407 134.196607 
L 157.079463 136.429706 
L 157.140519 131.818502 
L 157.201575 133.065557 
L 157.323686 135.008643 
L 157.445798 132.804545 
L 157.506854 134.428617 
L 157.56791 133.152561 
L 157.812133 136.197695 
L 157.873189 133.384571 
L 157.934245 133.645583 
L 157.9953 135.472663 
L 158.056356 134.428617 
L 158.117412 133.12356 
L 158.178468 135.588668 
L 158.239524 134.747631 
L 158.30058 134.109603 
L 158.361635 134.776633 
L 158.422691 134.022599 
L 158.483747 134.225608 
L 158.605859 133.761588 
L 158.666914 135.095647 
L 158.72797 134.747631 
L 158.850082 134.109603 
L 158.911138 134.48662 
L 158.972193 132.862548 
L 159.033249 133.558579 
L 159.155361 136.284699 
L 159.277473 133.616581 
L 159.338528 134.892638 
L 159.46064 133.471575 
L 159.521696 133.790589 
L 159.765919 134.776633 
L 159.826975 132.833547 
L 159.888031 135.095647 
L 159.949087 134.370615 
L 160.010142 133.761588 
L 160.071198 135.066645 
L 160.132254 134.602625 
L 160.254366 132.920551 
L 160.315421 135.443662 
L 160.376477 133.558579 
L 160.437533 134.312612 
L 160.498589 133.703585 
L 160.559645 134.428617 
L 160.6207 133.297567 
L 160.681756 134.834635 
L 160.742812 133.065557 
L 160.803868 136.052689 
L 160.864924 133.935595 
L 160.987035 134.109603 
L 161.048091 134.254609 
L 161.109147 132.485531 
L 161.231259 134.979641 
L 161.292314 134.515621 
L 161.35337 132.804545 
L 161.414426 134.71863 
L 161.475482 134.428617 
L 161.719705 133.384571 
L 161.780761 133.964597 
L 161.841817 133.413572 
L 161.963928 134.138604 
L 162.024984 133.674584 
L 162.08604 134.689629 
L 162.147096 132.891549 
L 162.208152 135.385659 
L 162.269207 134.631626 
L 162.330263 135.791677 
L 162.391319 135.472663 
L 162.452375 133.790589 
L 162.513431 135.907682 
L 162.574487 135.18265 
L 162.635542 135.356658 
L 162.696598 134.428617 
L 162.757654 136.110691 
L 162.81871 134.109603 
L 162.879766 135.153649 
" clip-path="url(#p69b97ece0c)" style="fill: none; stroke: #1f77b4; stroke-width: 0.5; stroke-linecap: square"/>
   </g>
   <g id="patch_3">
    <path d="M 23.410312 143.1 
L 23.410312 7.2 
" style="fill: none; stroke: #000000; stroke-width: 0.8; stroke-linejoin: miter; stroke-linecap: square"/>
   </g>
   <g id="patch_4">
    <path d="M 162.910313 143.1 
L 162.910313 7.2 
" style="fill: none; stroke: #000000; stroke-width: 0.8; stroke-linejoin: miter; stroke-linecap: square"/>
   </g>
   <g id="patch_5">
    <path d="M 23.410312 143.1 
L 162.910313 143.1 
" style="fill: none; stroke: #000000; stroke-width: 0.8; stroke-linejoin: miter; stroke-linecap: square"/>
   </g>
   <g id="patch_6">
    <path d="M 23.410312 7.2 
L 162.910313 7.2 
" style="fill: none; stroke: #000000; stroke-width: 0.8; stroke-linejoin: miter; stroke-linecap: square"/>
   </g>
  </g>
 </g>
 <defs>
  <clipPath id="p69b97ece0c">
   <rect x="23.410312" y="7.2" width="139.5" height="135.9"/>
  </clipPath>
 </defs>
</svg>
