<?xml version="1.0" encoding="utf-8" standalone="no"?>
<!DOCTYPE svg PUBLIC "-//W3C//DTD SVG 1.1//EN"
  "http://www.w3.org/Graphics/SVG/1.1/DTD/svg11.dtd">
<svg xmlns:xlink="http://www.w3.org/1999/xlink" width="170.110313pt" height="177.752813pt" viewBox="0 0 170.110313 177.752813" xmlns="http://www.w3.org/2000/svg" version="1.1">
 <metadata>
  <rdf:RDF xmlns:dc="http://purl.org/dc/elements/1.1/" xmlns:cc="http://creativecommons.org/ns#" xmlns:rdf="http://www.w3.org/1999/02/22-rdf-syntax-ns#">
   <cc:Work>
    <dc:type rdf:resource="http://purl.org/dc/dcmitype/StillImage"/>
    <dc:date>2023-02-25T15:21:28.520405</dc:date>
    <dc:format>image/svg+xml</dc:format>
    <dc:creator>
     <cc:Agent>
      <dc:title>Matplotlib v3.5.2, https://matplotlib.org/</dc:title>
     </cc:Agent>
    </dc:creator>
   </cc:Work>
  </rdf:RDF>
 </metadata>
 <defs>
  <style type="text/css">*{stroke-linejoin: round; stroke-linecap: butt}</style>
 </defs>
 <g id="figure_1">
  <g id="patch_1">
   <path d="M 0 177.752813 
L 170.110313 177.752813 
L 170.110313 0 
L 0 0 
z
" style="fill: #ffffff"/>
  </g>
  <g id="axes_1">
   <g id="patch_2">
    <path d="M 23.410312 143.1 
L 162.910313 143.1 
L 162.910313 7.2 
L 23.410312 7.2 
z
" style="fill: #ffffff"/>
   </g>
   <g id="matplotlib.axis_1">
    <g id="xtick_1">
     <g id="line2d_1">
      <defs>
       <path id="mac03a7ae01" d="M 0 0 
L 0 3.5 
" style="stroke: #000000; stroke-width: 0.8"/>
      </defs>
      <g>
       <use xlink:href="#mac03a7ae01" x="58.285313" y="143.1" style="stroke: #000000; stroke-width: 0.8"/>
      </g>
     </g>
     <g id="text_1">
      <!-- 20 -->
      <g transform="translate(53.195312 156.17875)scale(0.08 -0.08)">
       <defs>
        <path id="DejaVuSans-32" d="M 1228 531 
L 3431 531 
L 3431 0 
L 469 0 
L 469 531 
Q 828 903 1448 1529 
Q 2069 2156 2228 2338 
Q 2531 2678 2651 2914 
Q 2772 3150 2772 3378 
Q 2772 3750 2511 3984 
Q 2250 4219 1831 4219 
Q 1534 4219 1204 4116 
Q 875 4013 500 3803 
L 500 4441 
Q 881 4594 1212 4672 
Q 1544 4750 1819 4750 
Q 2544 4750 2975 4387 
Q 3406 4025 3406 3419 
Q 3406 3131 3298 2873 
Q 3191 2616 2906 2266 
Q 2828 2175 2409 1742 
Q 1991 1309 1228 531 
z
" transform="scale(0.015625)"/>
        <path id="DejaVuSans-30" d="M 2034 4250 
Q 1547 4250 1301 3770 
Q 1056 3291 1056 2328 
Q 1056 1369 1301 889 
Q 1547 409 2034 409 
Q 2525 409 2770 889 
Q 3016 1369 3016 2328 
Q 3016 3291 2770 3770 
Q 2525 4250 2034 4250 
z
M 2034 4750 
Q 2819 4750 3233 4129 
Q 3647 3509 3647 2328 
Q 3647 1150 3233 529 
Q 2819 -91 2034 -91 
Q 1250 -91 836 529 
Q 422 1150 422 2328 
Q 422 3509 836 4129 
Q 1250 4750 2034 4750 
z
" transform="scale(0.015625)"/>
       </defs>
       <use xlink:href="#DejaVuSans-32"/>
       <use xlink:href="#DejaVuSans-30" x="63.623047"/>
      </g>
     </g>
    </g>
    <g id="xtick_2">
     <g id="line2d_2">
      <g>
       <use xlink:href="#mac03a7ae01" x="104.785313" y="143.1" style="stroke: #000000; stroke-width: 0.8"/>
      </g>
     </g>
     <g id="text_2">
      <!-- 40 -->
      <g transform="translate(99.695312 156.17875)scale(0.08 -0.08)">
       <defs>
        <path id="DejaVuSans-34" d="M 2419 4116 
L 825 1625 
L 2419 1625 
L 2419 4116 
z
M 2253 4666 
L 3047 4666 
L 3047 1625 
L 3713 1625 
L 3713 1100 
L 3047 1100 
L 3047 0 
L 2419 0 
L 2419 1100 
L 313 1100 
L 313 1709 
L 2253 4666 
z
" transform="scale(0.015625)"/>
       </defs>
       <use xlink:href="#DejaVuSans-34"/>
       <use xlink:href="#DejaVuSans-30" x="63.623047"/>
      </g>
     </g>
    </g>
    <g id="xtick_3">
     <g id="line2d_3">
      <g>
       <use xlink:href="#mac03a7ae01" x="151.285313" y="143.1" style="stroke: #000000; stroke-width: 0.8"/>
      </g>
     </g>
     <g id="text_3">
      <!-- 60 -->
      <g transform="translate(146.195312 156.17875)scale(0.08 -0.08)">
       <defs>
        <path id="DejaVuSans-36" d="M 2113 2584 
Q 1688 2584 1439 2293 
Q 1191 2003 1191 1497 
Q 1191 994 1439 701 
Q 1688 409 2113 409 
Q 2538 409 2786 701 
Q 3034 994 3034 1497 
Q 3034 2003 2786 2293 
Q 2538 2584 2113 2584 
z
M 3366 4563 
L 3366 3988 
Q 3128 4100 2886 4159 
Q 2644 4219 2406 4219 
Q 1781 4219 1451 3797 
Q 1122 3375 1075 2522 
Q 1259 2794 1537 2939 
Q 1816 3084 2150 3084 
Q 2853 3084 3261 2657 
Q 3669 2231 3669 1497 
Q 3669 778 3244 343 
Q 2819 -91 2113 -91 
Q 1303 -91 875 529 
Q 447 1150 447 2328 
Q 447 3434 972 4092 
Q 1497 4750 2381 4750 
Q 2619 4750 2861 4703 
Q 3103 4656 3366 4563 
z
" transform="scale(0.015625)"/>
       </defs>
       <use xlink:href="#DejaVuSans-36"/>
       <use xlink:href="#DejaVuSans-30" x="63.623047"/>
      </g>
     </g>
    </g>
    <g id="xtick_4">
     <g id="line2d_4">
      <defs>
       <path id="mb756007c7f" d="M 0 0 
L 0 2 
" style="stroke: #000000; stroke-width: 0.6"/>
      </defs>
      <g>
       <use xlink:href="#mb756007c7f" x="23.410312" y="143.1" style="stroke: #000000; stroke-width: 0.6"/>
      </g>
     </g>
    </g>
    <g id="xtick_5">
     <g id="line2d_5">
      <g>
       <use xlink:href="#mb756007c7f" x="29.222812" y="143.1" style="stroke: #000000; stroke-width: 0.6"/>
      </g>
     </g>
    </g>
    <g id="xtick_6">
     <g id="line2d_6">
      <g>
       <use xlink:href="#mb756007c7f" x="35.035313" y="143.1" style="stroke: #000000; stroke-width: 0.6"/>
      </g>
     </g>
    </g>
    <g id="xtick_7">
     <g id="line2d_7">
      <g>
       <use xlink:href="#mb756007c7f" x="40.847813" y="143.1" style="stroke: #000000; stroke-width: 0.6"/>
      </g>
     </g>
    </g>
    <g id="xtick_8">
     <g id="line2d_8">
      <g>
       <use xlink:href="#mb756007c7f" x="46.660313" y="143.1" style="stroke: #000000; stroke-width: 0.6"/>
      </g>
     </g>
    </g>
    <g id="xtick_9">
     <g id="line2d_9">
      <g>
       <use xlink:href="#mb756007c7f" x="52.472813" y="143.1" style="stroke: #000000; stroke-width: 0.6"/>
      </g>
     </g>
    </g>
    <g id="xtick_10">
     <g id="line2d_10">
      <g>
       <use xlink:href="#mb756007c7f" x="64.097813" y="143.1" style="stroke: #000000; stroke-width: 0.6"/>
      </g>
     </g>
    </g>
    <g id="xtick_11">
     <g id="line2d_11">
      <g>
       <use xlink:href="#mb756007c7f" x="69.910313" y="143.1" style="stroke: #000000; stroke-width: 0.6"/>
      </g>
     </g>
    </g>
    <g id="xtick_12">
     <g id="line2d_12">
      <g>
       <use xlink:href="#mb756007c7f" x="75.722813" y="143.1" style="stroke: #000000; stroke-width: 0.6"/>
      </g>
     </g>
    </g>
    <g id="xtick_13">
     <g id="line2d_13">
      <g>
       <use xlink:href="#mb756007c7f" x="81.535313" y="143.1" style="stroke: #000000; stroke-width: 0.6"/>
      </g>
     </g>
    </g>
    <g id="xtick_14">
     <g id="line2d_14">
      <g>
       <use xlink:href="#mb756007c7f" x="87.347813" y="143.1" style="stroke: #000000; stroke-width: 0.6"/>
      </g>
     </g>
    </g>
    <g id="xtick_15">
     <g id="line2d_15">
      <g>
       <use xlink:href="#mb756007c7f" x="93.160313" y="143.1" style="stroke: #000000; stroke-width: 0.6"/>
      </g>
     </g>
    </g>
    <g id="xtick_16">
     <g id="line2d_16">
      <g>
       <use xlink:href="#mb756007c7f" x="98.972813" y="143.1" style="stroke: #000000; stroke-width: 0.6"/>
      </g>
     </g>
    </g>
    <g id="xtick_17">
     <g id="line2d_17">
      <g>
       <use xlink:href="#mb756007c7f" x="110.597813" y="143.1" style="stroke: #000000; stroke-width: 0.6"/>
      </g>
     </g>
    </g>
    <g id="xtick_18">
     <g id="line2d_18">
      <g>
       <use xlink:href="#mb756007c7f" x="116.410313" y="143.1" style="stroke: #000000; stroke-width: 0.6"/>
      </g>
     </g>
    </g>
    <g id="xtick_19">
     <g id="line2d_19">
      <g>
       <use xlink:href="#mb756007c7f" x="122.222813" y="143.1" style="stroke: #000000; stroke-width: 0.6"/>
      </g>
     </g>
    </g>
    <g id="xtick_20">
     <g id="line2d_20">
      <g>
       <use xlink:href="#mb756007c7f" x="128.035313" y="143.1" style="stroke: #000000; stroke-width: 0.6"/>
      </g>
     </g>
    </g>
    <g id="xtick_21">
     <g id="line2d_21">
      <g>
       <use xlink:href="#mb756007c7f" x="133.847813" y="143.1" style="stroke: #000000; stroke-width: 0.6"/>
      </g>
     </g>
    </g>
    <g id="xtick_22">
     <g id="line2d_22">
      <g>
       <use xlink:href="#mb756007c7f" x="139.660313" y="143.1" style="stroke: #000000; stroke-width: 0.6"/>
      </g>
     </g>
    </g>
    <g id="xtick_23">
     <g id="line2d_23">
      <g>
       <use xlink:href="#mb756007c7f" x="145.472813" y="143.1" style="stroke: #000000; stroke-width: 0.6"/>
      </g>
     </g>
    </g>
    <g id="xtick_24">
     <g id="line2d_24">
      <g>
       <use xlink:href="#mb756007c7f" x="157.097813" y="143.1" style="stroke: #000000; stroke-width: 0.6"/>
      </g>
     </g>
    </g>
    <g id="xtick_25">
     <g id="line2d_25">
      <g>
       <use xlink:href="#mb756007c7f" x="162.910313" y="143.1" style="stroke: #000000; stroke-width: 0.6"/>
      </g>
     </g>
    </g>
    <g id="text_4">
     <!-- Two Theta (degrees) -->
     <g transform="translate(47.344688 168.681094)scale(0.09 -0.09)">
      <defs>
       <path id="DejaVuSans-54" d="M -19 4666 
L 3928 4666 
L 3928 4134 
L 2272 4134 
L 2272 0 
L 1638 0 
L 1638 4134 
L -19 4134 
L -19 4666 
z
" transform="scale(0.015625)"/>
       <path id="DejaVuSans-77" d="M 269 3500 
L 844 3500 
L 1563 769 
L 2278 3500 
L 2956 3500 
L 3675 769 
L 4391 3500 
L 4966 3500 
L 4050 0 
L 3372 0 
L 2619 2869 
L 1863 0 
L 1184 0 
L 269 3500 
z
" transform="scale(0.015625)"/>
       <path id="DejaVuSans-6f" d="M 1959 3097 
Q 1497 3097 1228 2736 
Q 959 2375 959 1747 
Q 959 1119 1226 758 
Q 1494 397 1959 397 
Q 2419 397 2687 759 
Q 2956 1122 2956 1747 
Q 2956 2369 2687 2733 
Q 2419 3097 1959 3097 
z
M 1959 3584 
Q 2709 3584 3137 3096 
Q 3566 2609 3566 1747 
Q 3566 888 3137 398 
Q 2709 -91 1959 -91 
Q 1206 -91 779 398 
Q 353 888 353 1747 
Q 353 2609 779 3096 
Q 1206 3584 1959 3584 
z
" transform="scale(0.015625)"/>
       <path id="DejaVuSans-20" transform="scale(0.015625)"/>
       <path id="DejaVuSans-68" d="M 3513 2113 
L 3513 0 
L 2938 0 
L 2938 2094 
Q 2938 2591 2744 2837 
Q 2550 3084 2163 3084 
Q 1697 3084 1428 2787 
Q 1159 2491 1159 1978 
L 1159 0 
L 581 0 
L 581 4863 
L 1159 4863 
L 1159 2956 
Q 1366 3272 1645 3428 
Q 1925 3584 2291 3584 
Q 2894 3584 3203 3211 
Q 3513 2838 3513 2113 
z
" transform="scale(0.015625)"/>
       <path id="DejaVuSans-65" d="M 3597 1894 
L 3597 1613 
L 953 1613 
Q 991 1019 1311 708 
Q 1631 397 2203 397 
Q 2534 397 2845 478 
Q 3156 559 3463 722 
L 3463 178 
Q 3153 47 2828 -22 
Q 2503 -91 2169 -91 
Q 1331 -91 842 396 
Q 353 884 353 1716 
Q 353 2575 817 3079 
Q 1281 3584 2069 3584 
Q 2775 3584 3186 3129 
Q 3597 2675 3597 1894 
z
M 3022 2063 
Q 3016 2534 2758 2815 
Q 2500 3097 2075 3097 
Q 1594 3097 1305 2825 
Q 1016 2553 972 2059 
L 3022 2063 
z
" transform="scale(0.015625)"/>
       <path id="DejaVuSans-74" d="M 1172 4494 
L 1172 3500 
L 2356 3500 
L 2356 3053 
L 1172 3053 
L 1172 1153 
Q 1172 725 1289 603 
Q 1406 481 1766 481 
L 2356 481 
L 2356 0 
L 1766 0 
Q 1100 0 847 248 
Q 594 497 594 1153 
L 594 3053 
L 172 3053 
L 172 3500 
L 594 3500 
L 594 4494 
L 1172 4494 
z
" transform="scale(0.015625)"/>
       <path id="DejaVuSans-61" d="M 2194 1759 
Q 1497 1759 1228 1600 
Q 959 1441 959 1056 
Q 959 750 1161 570 
Q 1363 391 1709 391 
Q 2188 391 2477 730 
Q 2766 1069 2766 1631 
L 2766 1759 
L 2194 1759 
z
M 3341 1997 
L 3341 0 
L 2766 0 
L 2766 531 
Q 2569 213 2275 61 
Q 1981 -91 1556 -91 
Q 1019 -91 701 211 
Q 384 513 384 1019 
Q 384 1609 779 1909 
Q 1175 2209 1959 2209 
L 2766 2209 
L 2766 2266 
Q 2766 2663 2505 2880 
Q 2244 3097 1772 3097 
Q 1472 3097 1187 3025 
Q 903 2953 641 2809 
L 641 3341 
Q 956 3463 1253 3523 
Q 1550 3584 1831 3584 
Q 2591 3584 2966 3190 
Q 3341 2797 3341 1997 
z
" transform="scale(0.015625)"/>
       <path id="DejaVuSans-28" d="M 1984 4856 
Q 1566 4138 1362 3434 
Q 1159 2731 1159 2009 
Q 1159 1288 1364 580 
Q 1569 -128 1984 -844 
L 1484 -844 
Q 1016 -109 783 600 
Q 550 1309 550 2009 
Q 550 2706 781 3412 
Q 1013 4119 1484 4856 
L 1984 4856 
z
" transform="scale(0.015625)"/>
       <path id="DejaVuSans-64" d="M 2906 2969 
L 2906 4863 
L 3481 4863 
L 3481 0 
L 2906 0 
L 2906 525 
Q 2725 213 2448 61 
Q 2172 -91 1784 -91 
Q 1150 -91 751 415 
Q 353 922 353 1747 
Q 353 2572 751 3078 
Q 1150 3584 1784 3584 
Q 2172 3584 2448 3432 
Q 2725 3281 2906 2969 
z
M 947 1747 
Q 947 1113 1208 752 
Q 1469 391 1925 391 
Q 2381 391 2643 752 
Q 2906 1113 2906 1747 
Q 2906 2381 2643 2742 
Q 2381 3103 1925 3103 
Q 1469 3103 1208 2742 
Q 947 2381 947 1747 
z
" transform="scale(0.015625)"/>
       <path id="DejaVuSans-67" d="M 2906 1791 
Q 2906 2416 2648 2759 
Q 2391 3103 1925 3103 
Q 1463 3103 1205 2759 
Q 947 2416 947 1791 
Q 947 1169 1205 825 
Q 1463 481 1925 481 
Q 2391 481 2648 825 
Q 2906 1169 2906 1791 
z
M 3481 434 
Q 3481 -459 3084 -895 
Q 2688 -1331 1869 -1331 
Q 1566 -1331 1297 -1286 
Q 1028 -1241 775 -1147 
L 775 -588 
Q 1028 -725 1275 -790 
Q 1522 -856 1778 -856 
Q 2344 -856 2625 -561 
Q 2906 -266 2906 331 
L 2906 616 
Q 2728 306 2450 153 
Q 2172 0 1784 0 
Q 1141 0 747 490 
Q 353 981 353 1791 
Q 353 2603 747 3093 
Q 1141 3584 1784 3584 
Q 2172 3584 2450 3431 
Q 2728 3278 2906 2969 
L 2906 3500 
L 3481 3500 
L 3481 434 
z
" transform="scale(0.015625)"/>
       <path id="DejaVuSans-72" d="M 2631 2963 
Q 2534 3019 2420 3045 
Q 2306 3072 2169 3072 
Q 1681 3072 1420 2755 
Q 1159 2438 1159 1844 
L 1159 0 
L 581 0 
L 581 3500 
L 1159 3500 
L 1159 2956 
Q 1341 3275 1631 3429 
Q 1922 3584 2338 3584 
Q 2397 3584 2469 3576 
Q 2541 3569 2628 3553 
L 2631 2963 
z
" transform="scale(0.015625)"/>
       <path id="DejaVuSans-73" d="M 2834 3397 
L 2834 2853 
Q 2591 2978 2328 3040 
Q 2066 3103 1784 3103 
Q 1356 3103 1142 2972 
Q 928 2841 928 2578 
Q 928 2378 1081 2264 
Q 1234 2150 1697 2047 
L 1894 2003 
Q 2506 1872 2764 1633 
Q 3022 1394 3022 966 
Q 3022 478 2636 193 
Q 2250 -91 1575 -91 
Q 1294 -91 989 -36 
Q 684 19 347 128 
L 347 722 
Q 666 556 975 473 
Q 1284 391 1588 391 
Q 1994 391 2212 530 
Q 2431 669 2431 922 
Q 2431 1156 2273 1281 
Q 2116 1406 1581 1522 
L 1381 1569 
Q 847 1681 609 1914 
Q 372 2147 372 2553 
Q 372 3047 722 3315 
Q 1072 3584 1716 3584 
Q 2034 3584 2315 3537 
Q 2597 3491 2834 3397 
z
" transform="scale(0.015625)"/>
       <path id="DejaVuSans-29" d="M 513 4856 
L 1013 4856 
Q 1481 4119 1714 3412 
Q 1947 2706 1947 2009 
Q 1947 1309 1714 600 
Q 1481 -109 1013 -844 
L 513 -844 
Q 928 -128 1133 580 
Q 1338 1288 1338 2009 
Q 1338 2731 1133 3434 
Q 928 4138 513 4856 
z
" transform="scale(0.015625)"/>
      </defs>
      <use xlink:href="#DejaVuSans-54"/>
      <use xlink:href="#DejaVuSans-77" x="44.583984"/>
      <use xlink:href="#DejaVuSans-6f" x="126.371094"/>
      <use xlink:href="#DejaVuSans-20" x="187.552734"/>
      <use xlink:href="#DejaVuSans-54" x="219.339844"/>
      <use xlink:href="#DejaVuSans-68" x="280.423828"/>
      <use xlink:href="#DejaVuSans-65" x="343.802734"/>
      <use xlink:href="#DejaVuSans-74" x="405.326172"/>
      <use xlink:href="#DejaVuSans-61" x="444.535156"/>
      <use xlink:href="#DejaVuSans-20" x="505.814453"/>
      <use xlink:href="#DejaVuSans-28" x="537.601562"/>
      <use xlink:href="#DejaVuSans-64" x="576.615234"/>
      <use xlink:href="#DejaVuSans-65" x="640.091797"/>
      <use xlink:href="#DejaVuSans-67" x="701.615234"/>
      <use xlink:href="#DejaVuSans-72" x="765.091797"/>
      <use xlink:href="#DejaVuSans-65" x="803.955078"/>
      <use xlink:href="#DejaVuSans-65" x="865.478516"/>
      <use xlink:href="#DejaVuSans-73" x="927.001953"/>
      <use xlink:href="#DejaVuSans-29" x="979.101562"/>
     </g>
    </g>
   </g>
   <g id="matplotlib.axis_2">
    <g id="ytick_1">
     <g id="line2d_26"/>
    </g>
    <g id="ytick_2">
     <g id="line2d_27"/>
    </g>
    <g id="ytick_3">
     <g id="line2d_28"/>
    </g>
    <g id="ytick_4">
     <g id="line2d_29"/>
    </g>
    <g id="ytick_5">
     <g id="line2d_30"/>
    </g>
    <g id="text_5">
     <!-- Intensity -->
     <g transform="translate(14.038594 94.73625)rotate(-90)scale(0.09 -0.09)">
      <defs>
       <path id="DejaVuSans-49" d="M 628 4666 
L 1259 4666 
L 1259 0 
L 628 0 
L 628 4666 
z
" transform="scale(0.015625)"/>
       <path id="DejaVuSans-6e" d="M 3513 2113 
L 3513 0 
L 2938 0 
L 2938 2094 
Q 2938 2591 2744 2837 
Q 2550 3084 2163 3084 
Q 1697 3084 1428 2787 
Q 1159 2491 1159 1978 
L 1159 0 
L 581 0 
L 581 3500 
L 1159 3500 
L 1159 2956 
Q 1366 3272 1645 3428 
Q 1925 3584 2291 3584 
Q 2894 3584 3203 3211 
Q 3513 2838 3513 2113 
z
" transform="scale(0.015625)"/>
       <path id="DejaVuSans-69" d="M 603 3500 
L 1178 3500 
L 1178 0 
L 603 0 
L 603 3500 
z
M 603 4863 
L 1178 4863 
L 1178 4134 
L 603 4134 
L 603 4863 
z
" transform="scale(0.015625)"/>
       <path id="DejaVuSans-79" d="M 2059 -325 
Q 1816 -950 1584 -1140 
Q 1353 -1331 966 -1331 
L 506 -1331 
L 506 -850 
L 844 -850 
Q 1081 -850 1212 -737 
Q 1344 -625 1503 -206 
L 1606 56 
L 191 3500 
L 800 3500 
L 1894 763 
L 2988 3500 
L 3597 3500 
L 2059 -325 
z
" transform="scale(0.015625)"/>
      </defs>
      <use xlink:href="#DejaVuSans-49"/>
      <use xlink:href="#DejaVuSans-6e" x="29.492188"/>
      <use xlink:href="#DejaVuSans-74" x="92.871094"/>
      <use xlink:href="#DejaVuSans-65" x="132.080078"/>
      <use xlink:href="#DejaVuSans-6e" x="193.603516"/>
      <use xlink:href="#DejaVuSans-73" x="256.982422"/>
      <use xlink:href="#DejaVuSans-69" x="309.082031"/>
      <use xlink:href="#DejaVuSans-74" x="336.865234"/>
      <use xlink:href="#DejaVuSans-79" x="376.074219"/>
     </g>
    </g>
   </g>
   <g id="line2d_31">
    <path d="M 23.428285 13.377273 
L 23.611453 20.311637 
L 23.672509 20.636686 
L 23.733564 19.119793 
L 24.283067 34.044929 
L 24.344123 31.119494 
L 24.405178 35.155511 
L 24.466234 29.494253 
L 24.52729 33.449007 
L 24.649402 36.834928 
L 24.710458 36.645316 
L 24.771513 35.588909 
L 24.893625 41.114731 
L 24.954681 39.489489 
L 25.076792 42.821234 
L 25.137848 40.843857 
L 25.321016 46.071718 
L 25.443127 42.171138 
L 25.565239 47.480261 
L 25.626295 46.098805 
L 25.687351 47.1823 
L 25.748406 48.915891 
L 25.809462 48.780454 
L 25.931574 47.480261 
L 26.053685 51.055792 
L 26.114741 50.432783 
L 26.297909 56.175303 
L 26.42002 51.08288 
L 26.481076 52.437248 
L 26.542132 57.096274 
L 26.603188 54.441712 
L 26.664244 53.656179 
L 26.725299 54.008315 
L 26.847411 58.802778 
L 26.908467 52.599772 
L 26.969523 56.121129 
L 27.030578 55.416857 
L 27.213746 58.694428 
L 27.274802 57.638021 
L 27.457969 60.428019 
L 27.519025 56.121129 
L 27.580081 59.913359 
L 27.641137 56.581614 
L 27.763248 61.105203 
L 27.88536 60.102971 
L 28.129583 65.195395 
L 28.190639 66.089278 
L 28.251695 62.757532 
L 28.312751 65.114133 
L 28.373806 62.26996 
L 28.434862 65.466268 
L 28.495918 64.491123 
L 28.556974 62.595008 
L 28.61803 64.22025 
L 28.679085 69.55646 
L 28.801197 63.245105 
L 28.984365 69.285586 
L 29.04542 65.330832 
L 29.106476 66.116365 
L 29.167532 68.472965 
L 29.228588 66.008016 
L 29.289644 70.58578 
L 29.350699 67.199859 
L 29.411755 68.63549 
L 29.472811 68.581315 
L 29.533867 67.822869 
L 29.594923 64.707822 
L 29.77809 69.637722 
L 29.839146 67.118597 
L 29.900202 67.335296 
L 30.083369 73.023642 
L 30.205481 66.522675 
L 30.266537 71.019177 
L 30.327592 70.775391 
L 30.388648 70.152382 
L 30.449704 71.208789 
L 30.51076 71.181702 
L 30.571816 70.965003 
L 30.632872 69.529373 
L 30.693927 72.752769 
L 30.754983 70.098207 
L 30.816039 73.213254 
L 30.877095 71.290051 
L 30.999206 72.265196 
L 31.060262 74.296748 
L 31.182374 71.994322 
L 31.426597 74.89267 
L 31.487653 74.621796 
L 31.609765 75.326068 
L 31.67082 74.459272 
L 31.731876 76.924222 
L 31.853988 73.186166 
L 32.098211 78.441114 
L 32.342434 73.86335 
L 32.40349 77.113834 
L 32.464546 76.599174 
L 32.525602 75.976165 
L 32.769825 79.768395 
L 32.891937 77.222183 
L 32.952992 78.224415 
L 33.014048 79.524609 
L 33.13616 77.655581 
L 33.258272 81.122763 
L 33.319327 80.662278 
L 33.380383 80.147618 
L 33.441439 80.662278 
L 33.502495 80.255968 
L 33.563551 79.82257 
L 33.624606 81.149851 
L 33.685662 78.549464 
L 33.746718 80.310142 
L 33.86883 79.037036 
L 33.929885 80.85189 
L 33.990941 78.332765 
L 34.174109 82.450044 
L 34.235165 81.583248 
L 34.29622 83.289752 
L 34.357276 82.341694 
L 34.418332 82.856354 
L 34.479388 81.393637 
L 34.540444 82.422956 
L 34.662555 83.831499 
L 34.784667 81.529074 
L 34.845723 81.610336 
L 34.906779 80.74354 
L 34.967834 84.725382 
L 35.02889 83.885674 
L 35.089946 84.64412 
L 35.151002 84.021111 
L 35.273113 81.556161 
L 35.334169 84.779557 
L 35.395225 82.829267 
L 35.456281 82.314607 
L 35.517337 85.240042 
L 35.578392 84.481596 
L 35.639448 84.075286 
L 35.700504 82.748005 
L 35.76156 83.235577 
L 35.822616 82.856354 
L 35.883672 86.350624 
L 35.944727 86.323537 
L 36.066839 83.858587 
L 36.311062 87.461206 
L 36.372118 87.298682 
L 36.433174 83.479364 
L 36.49423 85.971401 
L 36.555286 86.621497 
L 36.616341 85.375479 
L 36.677397 86.59441 
L 36.738453 85.104605 
L 36.799509 88.355089 
L 36.860565 86.59441 
L 37.043732 87.434118 
L 37.104788 86.892371 
L 37.165844 87.921691 
L 37.226899 86.784022 
L 37.287955 88.896836 
L 37.349011 88.273827 
L 37.471123 86.458973 
L 37.532179 86.946546 
L 37.593234 89.005185 
L 37.65429 88.815574 
L 37.715346 85.56509 
L 37.776402 88.002953 
L 37.837458 87.434118 
L 37.898513 87.786254 
L 37.959569 87.759167 
L 38.020625 88.219652 
L 38.081681 89.655282 
L 38.203792 88.436351 
L 38.448016 91.52431 
L 38.509072 88.517613 
L 38.570127 90.007418 
L 38.631183 90.332466 
L 38.692239 91.984795 
L 38.814351 89.303146 
L 38.936462 91.93062 
L 39.058574 89.519845 
L 39.180686 93.257901 
L 39.302797 89.790719 
L 39.424909 89.899068 
L 39.485965 92.336931 
L 39.54702 91.307611 
L 39.608076 89.926156 
L 39.791244 92.770328 
L 39.852299 94.178871 
L 40.035467 90.224117 
L 40.096523 92.824503 
L 40.157579 90.197029 
L 40.218634 91.822271 
L 40.340746 94.991492 
L 40.401802 94.260133 
L 40.523913 92.03897 
L 40.584969 94.585182 
L 40.646025 92.824503 
L 40.707081 90.332466 
L 40.768137 92.066057 
L 41.01236 95.93955 
L 41.134472 91.93062 
L 41.195527 96.237511 
L 41.256583 93.528775 
L 41.317639 93.718386 
L 41.378695 93.203726 
L 41.439751 94.476832 
L 41.500806 92.228581 
L 41.561862 94.720618 
L 41.622918 94.693531 
L 41.74503 95.722851 
L 41.806086 95.397803 
L 41.867141 95.397803 
L 42.050309 91.849358 
L 42.17242 94.991492 
L 42.233476 93.664211 
L 42.294532 97.971102 
L 42.355588 92.770328 
L 42.416644 93.88091 
L 42.4777 95.397803 
L 42.538755 94.368483 
L 42.599811 95.31654 
L 42.660867 94.368483 
L 42.721923 98.702461 
L 42.782979 95.695763 
L 42.844034 95.993724 
L 42.90509 97.456442 
L 42.966146 92.824503 
L 43.027202 94.449745 
L 43.088258 93.718386 
L 43.149313 97.537704 
L 43.210369 97.483529 
L 43.332481 95.749938 
L 43.515648 98.485762 
L 43.576704 95.804113 
L 43.63776 98.133626 
L 43.698816 97.808578 
L 43.820927 95.397803 
L 43.881983 99.027509 
L 43.943039 95.966637 
L 44.004095 96.806345 
L 44.126206 97.050132 
L 44.187262 96.914695 
L 44.248318 97.510617 
L 44.309374 96.291685 
L 44.37043 97.591879 
L 44.431486 96.372948 
L 44.492541 101.113236 
L 44.553597 94.287221 
L 44.614653 98.864985 
L 44.675709 95.804113 
L 44.736765 96.264598 
L 44.858876 99.406732 
L 44.919932 97.26683 
L 44.980988 101.357022 
L 45.042044 98.702461 
L 45.1031 96.752171 
L 45.164155 98.160713 
L 45.225211 98.350325 
L 45.286267 96.047899 
L 45.469434 98.837897 
L 45.53049 99.162946 
L 45.591546 98.864985 
L 45.652602 96.481297 
L 45.713658 100.463139 
L 45.774713 97.321005 
L 45.896825 99.027509 
L 45.957881 97.835665 
L 46.018937 99.813042 
L 46.079993 98.377412 
L 46.141048 97.456442 
L 46.26316 99.596344 
L 46.324216 97.862752 
L 46.385272 99.433819 
L 46.446327 97.37518 
L 46.629495 100.35479 
L 46.690551 100.679838 
L 46.751607 98.269063 
L 46.934774 101.248673 
L 46.99583 101.27576 
L 47.056886 101.519546 
L 47.240053 98.106539 
L 47.362165 100.463139 
L 47.42322 99.677606 
L 47.484276 101.194498 
L 47.545332 99.000422 
L 47.667444 102.575953 
L 47.7285 97.646053 
L 47.789555 97.944014 
L 47.850611 98.241975 
L 47.911667 100.598576 
L 47.972723 97.212656 
L 48.033779 99.054596 
L 48.094834 98.377412 
L 48.15589 98.837897 
L 48.216946 99.108771 
L 48.278002 100.463139 
L 48.400114 97.348093 
L 48.461169 99.948479 
L 48.522225 96.725083 
L 48.644337 99.867217 
L 48.705393 99.21712 
L 48.766448 101.898769 
L 48.827504 100.7611 
L 48.88856 98.729548 
L 48.949616 100.111003 
L 49.010672 100.679838 
L 49.071727 98.187801 
L 49.132783 98.648286 
L 49.254895 100.35479 
L 49.315951 98.160713 
L 49.377007 98.729548 
L 49.499118 100.598576 
L 49.560174 97.618966 
L 49.62123 103.198963 
L 49.682286 99.487994 
L 49.926509 95.966637 
L 50.109676 101.68207 
L 50.231788 96.616734 
L 50.292844 99.785955 
L 50.3539 98.512849 
L 50.476011 100.192265 
L 50.537067 94.883143 
L 50.598123 100.192265 
L 50.659179 99.135858 
L 50.78129 100.842362 
L 51.025514 97.321005 
L 51.147625 98.594111 
L 51.269737 96.535472 
L 51.391848 99.569256 
L 51.636072 97.862752 
L 51.819239 97.456442 
L 51.880295 97.077219 
L 51.941351 98.269063 
L 52.002407 98.133626 
L 52.063462 96.968869 
L 52.124518 97.591879 
L 52.185574 99.190033 
L 52.24663 98.756635 
L 52.368741 96.725083 
L 52.429797 97.348093 
L 52.551909 96.643821 
L 52.612965 97.754403 
L 52.674021 94.612269 
L 52.735076 94.856055 
L 52.796132 95.31654 
L 52.857188 98.648286 
L 52.918244 92.634892 
L 52.9793 95.533239 
L 53.040355 96.535472 
L 53.101411 94.774793 
L 53.162467 94.828968 
L 53.223523 94.476832 
L 53.284579 98.323238 
L 53.345634 95.262366 
L 53.40669 96.074987 
L 53.467746 94.937317 
L 53.528802 96.129161 
L 53.650914 94.368483 
L 53.711969 96.183336 
L 53.834081 92.987027 
L 53.895137 95.208191 
L 53.956193 95.099842 
L 54.017248 94.991492 
L 54.078304 95.126929 
L 54.13936 93.420425 
L 54.261472 96.291685 
L 54.322528 93.36625 
L 54.383583 96.237511 
L 54.566751 92.147319 
L 54.627807 95.018579 
L 54.688862 91.822271 
L 54.749918 94.287221 
L 54.810974 92.093144 
L 54.87203 92.607804 
L 54.933086 93.664211 
L 54.994141 92.770328 
L 55.055197 95.181104 
L 55.116253 93.637124 
L 55.238365 91.226349 
L 55.360476 93.637124 
L 55.543644 89.194797 
L 55.665755 93.149552 
L 55.726811 89.871981 
L 55.787867 91.713921 
L 55.848923 92.526542 
L 55.909979 92.364018 
L 56.03209 90.278291 
L 56.154202 91.632659 
L 56.276314 89.57402 
L 56.398425 90.657514 
L 56.520537 88.625962 
L 56.642648 90.169942 
L 56.703704 89.492758 
L 56.76476 89.303146 
L 56.825816 90.061592 
L 56.886872 87.407031 
L 56.947928 91.00965 
L 57.008983 88.788486 
L 57.070039 89.57402 
L 57.253207 85.917226 
L 57.375318 90.305379 
L 57.436374 89.032273 
L 57.49743 88.625962 
L 57.558486 88.923923 
L 57.741653 84.291984 
L 57.863765 88.165477 
L 57.924821 87.081983 
L 57.985876 87.163245 
L 58.046932 88.111302 
L 58.107988 87.190332 
L 58.169044 88.896836 
L 58.352211 84.400334 
L 58.474323 83.479364 
L 58.535379 88.084215 
L 58.596435 86.811109 
L 58.65749 83.479364 
L 58.718546 87.217419 
L 58.779602 84.454509 
L 58.901714 83.533538 
L 58.962769 84.021111 
L 59.023825 83.885674 
L 59.084881 81.799947 
L 59.145937 83.750237 
L 59.206993 82.991791 
L 59.268048 82.748005 
L 59.329104 79.985094 
L 59.512272 86.729847 
L 59.573328 82.314607 
L 59.634383 84.183635 
L 59.817551 81.474899 
L 59.878607 81.474899 
L 59.939662 80.147618 
L 60.183886 85.375479 
L 60.305997 80.120531 
L 60.367053 81.122763 
L 60.428109 80.120531 
L 60.489165 83.777325 
L 60.550221 81.962471 
L 60.611276 82.233345 
L 60.794444 77.140921 
L 60.916555 82.368782 
L 60.977611 79.903832 
L 61.038667 79.876745 
L 61.099723 77.520144 
L 61.160779 78.305678 
L 61.343946 82.341694 
L 61.405002 77.899367 
L 61.466058 78.034804 
L 61.588169 80.391404 
L 61.649225 79.741308 
L 61.710281 77.87228 
L 61.771337 79.253735 
L 61.893449 79.172473 
L 62.076616 77.140921 
L 62.137672 80.445579 
L 62.198728 76.003252 
L 62.259783 77.493057 
L 62.381895 78.955774 
L 62.442951 75.082282 
L 62.504007 75.569854 
L 62.565062 78.711988 
L 62.626118 77.682668 
L 62.74823 75.840728 
L 62.809286 77.845192 
L 62.870342 74.838495 
L 62.931397 78.928687 
L 62.992453 71.994322 
L 63.053509 73.45704 
L 63.114565 76.978397 
L 63.175621 74.621796 
L 63.236676 73.836263 
L 63.419844 77.547231 
L 63.4809 74.567622 
L 63.541955 77.574319 
L 63.603011 76.057427 
L 63.664067 75.190631 
L 63.725123 72.238109 
L 63.786179 75.81364 
L 63.847235 73.45704 
L 63.90829 72.373545 
L 64.091458 78.603639 
L 64.152514 77.005484 
L 64.213569 72.94238 
L 64.274625 78.197328 
L 64.335681 74.107137 
L 64.396737 74.188399 
L 64.457793 74.459272 
L 64.518849 76.734611 
L 64.579904 73.809176 
L 64.64096 74.621796 
L 64.702016 75.00102 
L 64.763072 74.052962 
L 64.885183 75.840728 
L 64.946239 74.459272 
L 65.007295 75.326068 
L 65.129407 73.9717 
L 65.251518 77.76393 
L 65.37363 75.542767 
L 65.434686 75.786553 
L 65.495742 74.703059 
L 65.678909 77.655581 
L 65.739965 74.432185 
L 65.801021 78.955774 
L 65.862076 76.247038 
L 66.045244 74.161311 
L 66.228411 78.576551 
L 66.289467 77.35762 
L 66.350523 79.226648 
L 66.411579 76.626261 
L 66.472635 76.734611 
L 66.53369 76.978397 
L 66.594746 76.707523 
L 66.655802 78.034804 
L 66.716858 75.678204 
L 66.777914 76.599174 
L 66.838969 75.976165 
L 66.900025 76.599174 
L 66.961081 75.055194 
L 67.083193 77.059659 
L 67.144249 76.734611 
L 67.205304 77.682668 
L 67.26636 76.761698 
L 67.327416 80.120531 
L 67.449528 76.301213 
L 67.571639 79.958007 
L 67.632695 77.330533 
L 67.693751 77.926455 
L 67.815863 77.493057 
L 67.876918 78.820337 
L 67.937974 75.244806 
L 67.99903 78.224415 
L 68.060086 76.95131 
L 68.121142 75.678204 
L 68.182197 80.987326 
L 68.243253 79.795482 
L 68.609588 77.113834 
L 68.7317 79.985094 
L 68.792756 79.903832 
L 68.853811 80.770627 
L 68.914867 80.499754 
L 69.098035 78.468202 
L 69.15909 80.960239 
L 69.220146 78.197328 
L 69.281202 80.174706 
L 69.342258 83.181403 
L 69.464369 76.653349 
L 69.525425 82.775092 
L 69.586481 82.233345 
L 69.647537 78.684901 
L 69.708593 81.231113 
L 69.769649 80.526841 
L 69.830704 81.420724 
L 69.89176 80.201793 
L 69.952816 81.2582 
L 70.013872 79.416259 
L 70.074928 80.662278 
L 70.135983 81.2582 
L 70.197039 80.770627 
L 70.258095 81.231113 
L 70.319151 82.80218 
L 70.441263 80.445579 
L 70.563374 83.425189 
L 70.62443 82.422956 
L 70.685486 77.303445 
L 70.868653 84.833732 
L 70.990765 80.201793 
L 71.051821 86.133925 
L 71.112876 82.883442 
L 71.234988 84.264897 
L 71.296044 82.043733 
L 71.3571 82.964704 
L 71.418156 82.829267 
L 71.479211 81.041501 
L 71.540267 83.316839 
L 71.601323 80.391404 
L 71.662379 81.827035 
L 71.723435 82.558393 
L 71.78449 85.971401 
L 71.845546 85.754702 
L 71.906602 84.183635 
L 71.967658 86.784022 
L 72.028714 83.939849 
L 72.08977 84.698295 
L 72.150825 85.212955 
L 72.211881 82.260432 
L 72.272937 87.488293 
L 72.333993 82.260432 
L 72.395049 86.1881 
L 72.456104 84.075286 
L 72.639272 87.054895 
L 72.700328 84.806644 
L 72.761383 86.106838 
L 72.822439 88.490525 
L 72.883495 87.000721 
L 72.944551 86.865284 
L 73.066663 84.942081 
L 73.127718 86.242274 
L 73.188774 89.926156 
L 73.24983 87.298682 
L 73.310886 86.621497 
L 73.371942 88.571787 
L 73.432997 88.490525 
L 73.677221 85.700527 
L 73.799332 89.790719 
L 73.860388 87.488293 
L 73.9825 86.350624 
L 74.104611 88.65305 
L 74.165667 87.596642 
L 74.226723 89.194797 
L 74.287779 89.032273 
L 74.348835 88.896836 
L 74.40989 89.953243 
L 74.470946 87.136157 
L 74.532002 88.382176 
L 74.593058 87.271594 
L 74.654114 87.867516 
L 74.776225 90.765864 
L 74.837281 88.490525 
L 74.898337 90.549165 
L 74.959393 89.032273 
L 75.020449 87.054895 
L 75.14256 92.147319 
L 75.203616 87.677905 
L 75.264672 89.98033 
L 75.386783 89.357321 
L 75.447839 90.386641 
L 75.508895 87.62373 
L 75.569951 88.463438 
L 75.753118 92.391105 
L 75.814174 91.41596 
L 75.87523 92.743241 
L 75.936286 90.142854 
L 75.997342 91.876446 
L 76.058397 92.03897 
L 76.119453 92.95994 
L 76.180509 92.011882 
L 76.241565 93.339163 
L 76.363677 90.874213 
L 76.546844 94.287221 
L 76.668956 91.226349 
L 76.730011 94.205959 
L 76.791067 90.169942 
L 76.852123 92.120232 
L 77.03529 94.856055 
L 77.096346 91.713921 
L 77.157402 92.987027 
L 77.218458 95.533239 
L 77.279514 94.828968 
L 77.34057 92.878678 
L 77.401625 94.341395 
L 77.462681 95.993724 
L 77.523737 95.966637 
L 77.645849 94.124697 
L 77.76796 96.047899 
L 77.829016 92.011882 
L 77.890072 94.964405 
L 78.012184 93.935085 
L 78.073239 95.722851 
L 78.134295 92.120232 
L 78.195351 95.8312 
L 78.256407 94.666444 
L 78.439574 97.023044 
L 78.622742 95.804113 
L 78.683797 95.912462 
L 78.744853 98.133626 
L 78.805909 98.025277 
L 78.866965 93.36625 
L 78.928021 97.916927 
L 78.989077 96.400035 
L 79.050132 95.993724 
L 79.111188 97.510617 
L 79.172244 96.725083 
L 79.2333 97.537704 
L 79.294356 97.158481 
L 79.355411 96.129161 
L 79.416467 97.564791 
L 79.538579 95.42489 
L 79.599635 97.754403 
L 79.660691 97.131394 
L 79.721746 96.156249 
L 79.782802 97.26683 
L 79.843858 100.598576 
L 79.904914 98.675373 
L 79.96597 97.88984 
L 80.027025 98.919159 
L 80.149137 97.456442 
L 80.271249 100.815275 
L 80.454416 96.372948 
L 80.637584 99.73178 
L 80.698639 98.052364 
L 80.759695 99.271295 
L 80.820751 99.867217 
L 80.881807 97.916927 
L 80.942863 100.923624 
L 81.003918 98.946247 
L 81.064974 100.706925 
L 81.12603 100.625663 
L 81.187086 98.594111 
L 81.248142 101.140323 
L 81.309197 100.463139 
L 81.370253 100.517314 
L 81.431309 101.221585 
L 81.492365 100.490226 
L 81.553421 103.361487 
L 81.614477 98.973334 
L 81.675532 101.519546 
L 81.736588 98.377412 
L 81.797644 100.436052 
L 81.8587 99.704693 
L 81.919756 101.194498 
L 81.980811 100.598576 
L 82.041867 99.596344 
L 82.102923 100.408964 
L 82.163979 102.603041 
L 82.225035 101.980031 
L 82.347146 103.144788 
L 82.408202 102.494691 
L 82.469258 98.025277 
L 82.530314 99.298383 
L 82.774537 103.686535 
L 82.835593 100.734013 
L 82.896649 102.819739 
L 82.957704 100.896537 
L 83.01876 103.280225 
L 83.079816 102.71139 
L 83.140872 101.627896 
L 83.262984 105.934786 
L 83.324039 103.469836 
L 83.446151 102.088381 
L 83.507207 105.122165 
L 83.629318 102.034206 
L 83.75143 102.765565 
L 83.812486 106.232747 
L 83.934598 103.063526 
L 83.995653 103.253137 
L 84.117765 105.284689 
L 84.300932 101.952944 
L 84.423044 105.663912 
L 84.4841 104.282457 
L 84.545156 103.74071 
L 84.606211 103.767797 
L 84.667267 106.20566 
L 84.728323 102.034206 
L 84.789379 106.395271 
L 84.850435 105.718087 
L 84.911491 106.693232 
L 84.972546 106.341096 
L 85.033602 106.395271 
L 85.094658 105.934786 
L 85.155714 102.928089 
L 85.21677 106.395271 
L 85.277825 104.092845 
L 85.399937 107.234979 
L 85.460993 107.072455 
L 85.522049 105.58265 
L 85.583105 106.503621 
L 85.64416 106.422359 
L 85.766272 106.801582 
L 85.827328 109.131095 
L 85.888384 105.988961 
L 86.071551 110.024978 
L 86.132607 104.770029 
L 86.193663 108.183037 
L 86.254718 106.909931 
L 86.315774 107.830901 
L 86.37683 109.889541 
L 86.559998 106.828669 
L 86.621053 107.01828 
L 86.743165 110.187502 
L 86.804221 107.207892 
L 86.865277 107.343329 
L 86.987388 109.104007 
L 87.048444 107.180805 
L 87.1095 108.345561 
L 87.170556 108.887308 
L 87.231612 108.480998 
L 87.292667 107.857989 
L 87.414779 109.754104 
L 87.475835 108.480998 
L 87.536891 110.322939 
L 87.597946 109.48323 
L 87.659002 109.916628 
L 87.720058 109.158182 
L 87.84217 110.160414 
L 87.903225 109.374881 
L 88.086393 110.675074 
L 88.147449 109.401968 
L 88.208505 110.51255 
L 88.26956 110.214589 
L 88.330616 108.67061 
L 88.391672 108.96857 
L 88.452728 109.645755 
L 88.513784 108.643522 
L 88.574839 111.02721 
L 88.635895 108.914396 
L 88.696951 111.000123 
L 88.758007 110.079152 
L 88.819063 110.566725 
L 88.880118 108.860221 
L 89.063286 110.647987 
L 89.124342 108.210124 
L 89.185398 111.487695 
L 89.246453 108.67061 
L 89.307509 110.837598 
L 89.368565 113.763033 
L 89.490677 110.566725 
L 89.673844 112.733714 
L 89.7349 112.814976 
L 89.918067 109.266531 
L 89.979123 109.456143 
L 90.223346 114.846528 
L 90.406514 110.593812 
L 90.46757 114.196431 
L 90.528625 111.94818 
L 90.589681 112.083617 
L 90.650737 113.112937 
L 90.772849 111.162647 
L 90.89496 114.196431 
L 90.956016 113.031675 
L 91.017072 114.41313 
L 91.078128 114.142256 
L 91.139184 113.654684 
L 91.200239 114.169344 
L 91.261295 112.869151 
L 91.322351 113.302548 
L 91.383407 113.058762 
L 91.505519 114.304781 
L 91.566574 112.083617 
L 91.62763 115.740411 
L 91.688686 113.979732 
L 91.749742 115.496625 
L 91.810798 115.063227 
L 91.871853 113.790121 
L 91.932909 115.090314 
L 91.993965 113.546335 
L 92.055021 116.200896 
L 92.116077 114.060994 
L 92.177132 115.496625 
L 92.238188 114.548567 
L 92.299244 112.787888 
L 92.3603 114.060994 
L 92.421356 113.140024 
L 92.543467 114.846528 
L 92.604523 114.142256 
L 92.726635 116.390507 
L 92.787691 114.060994 
L 92.848746 114.765266 
L 92.909802 114.92779 
L 92.970858 115.659149 
L 93.031914 115.036139 
L 93.09297 115.171576 
L 93.154026 117.338565 
L 93.215081 116.986429 
L 93.276137 116.255071 
L 93.337193 117.094779 
L 93.398249 115.984197 
L 93.459305 116.065459 
L 93.52036 116.444682 
L 93.581416 115.496625 
L 93.703528 117.717788 
L 93.825639 115.198664 
L 93.886695 118.286623 
L 93.947751 116.417595 
L 94.069863 117.79905 
L 94.130919 116.607206 
L 94.191974 116.688468 
L 94.25303 117.528177 
L 94.314086 117.067691 
L 94.497253 114.602742 
L 94.558309 118.909632 
L 94.619365 117.690701 
L 94.680421 115.604974 
L 94.802532 119.397205 
L 94.863588 118.638758 
L 95.046756 116.634294 
L 95.229923 120.643223 
L 95.352035 118.042836 
L 95.413091 118.449147 
L 95.474146 118.774195 
L 95.535202 117.338565 
L 95.596258 120.453612 
L 95.657314 119.451379 
L 95.71837 119.207593 
L 95.779426 120.995359 
L 95.840481 117.771963 
L 95.901537 119.288855 
L 95.962593 118.909632 
L 96.14576 121.18497 
L 96.328928 119.397205 
L 96.389984 119.451379 
L 96.451039 118.82837 
L 96.512095 121.266232 
L 96.573151 120.264 
L 96.634207 120.37235 
L 96.695263 118.638758 
L 96.756319 119.23468 
L 96.939486 122.918562 
L 97.000542 119.613903 
L 97.061598 122.430989 
L 97.122653 120.399437 
L 97.183709 121.401669 
L 97.305821 118.638758 
L 97.366877 123.081086 
L 97.427933 120.399437 
L 97.488988 119.397205 
L 97.550044 121.428757 
L 97.6111 120.941184 
L 97.733212 118.82837 
L 97.977435 122.349727 
L 98.038491 119.993127 
L 98.099546 121.103708 
L 98.160602 122.133028 
L 98.221658 120.236913 
L 98.282714 121.753805 
L 98.34377 123.162348 
L 98.526937 119.668078 
L 98.710105 124.868852 
L 98.77116 122.458076 
L 98.832216 123.162348 
L 98.893272 123.270697 
L 98.954328 121.916329 
L 99.015384 122.918562 
L 99.07644 123.081086 
L 99.137495 121.482931 
L 99.259607 123.108173 
L 99.320663 122.024679 
L 99.381719 123.595746 
L 99.442774 122.999824 
L 99.50383 123.514483 
L 99.564886 120.426524 
L 99.625942 122.512251 
L 99.686998 124.67924 
L 99.748053 121.212058 
L 99.809109 124.27293 
L 99.870165 123.351959 
L 99.992277 121.482931 
L 100.114388 123.053998 
L 100.175444 127.469238 
L 100.2365 122.376814 
L 100.297556 123.920794 
L 100.419667 123.108173 
L 100.480723 123.460309 
L 100.602835 125.518948 
L 100.663891 124.977201 
L 100.786002 123.324872 
L 100.847058 124.083318 
L 100.908114 122.187203 
L 100.96917 125.491861 
L 101.030226 124.191667 
L 101.091281 124.733415 
L 101.152337 123.785357 
L 101.213393 124.733415 
L 101.335505 121.970504 
L 101.39656 124.245842 
L 101.457616 124.029143 
L 101.518672 124.137493 
L 101.579728 122.160115 
L 101.640784 124.354192 
L 101.70184 123.947881 
L 101.762895 123.053998 
L 101.885007 125.1939 
L 101.946063 122.864387 
L 102.007119 123.839532 
L 102.068174 126.981666 
L 102.12923 122.376814 
L 102.190286 123.24361 
L 102.251342 123.866619 
L 102.312398 125.735647 
L 102.373453 125.383511 
L 102.495565 123.514483 
L 102.678733 126.439918 
L 102.739788 124.218755 
L 102.800844 125.627298 
L 102.8619 126.62953 
L 102.984012 123.893707 
L 103.045067 124.489628 
L 103.106123 123.297785 
L 103.167179 127.14419 
L 103.228235 125.356424 
L 103.289291 124.110405 
L 103.350347 124.354192 
L 103.533514 126.385744 
L 103.716681 123.24361 
L 103.899849 127.387976 
L 103.960905 124.300017 
L 104.02196 125.681472 
L 104.083016 125.464773 
L 104.144072 124.516716 
L 104.205128 125.898171 
L 104.266184 125.464773 
L 104.32724 125.573123 
L 104.388295 125.518948 
L 104.449351 124.002056 
L 104.510407 126.385744 
L 104.571463 124.516716 
L 104.632519 125.058463 
L 104.693574 124.977201 
L 104.75463 123.460309 
L 104.815686 124.625065 
L 104.876742 126.846229 
L 104.937798 126.060695 
L 104.998854 123.866619 
L 105.120965 126.331569 
L 105.304133 124.327104 
L 105.365188 124.841764 
L 105.426244 127.252539 
L 105.548356 124.787589 
L 105.609412 125.898171 
L 105.670467 124.27293 
L 105.731523 125.573123 
L 105.792579 125.058463 
L 105.853635 125.302249 
L 105.914691 124.977201 
L 105.975747 125.112638 
L 106.036802 125.139725 
L 106.097858 124.895939 
L 106.158914 125.248075 
L 106.21997 126.873316 
L 106.281026 126.141958 
L 106.342081 125.031376 
L 106.403137 126.575355 
L 106.464193 126.11487 
L 106.525249 126.439918 
L 106.586305 127.983898 
L 106.708416 125.70856 
L 106.769472 125.843997 
L 106.830528 125.383511 
L 106.891584 126.304482 
L 106.95264 124.733415 
L 107.013695 127.14419 
L 107.074751 125.464773 
L 107.135807 125.518948 
L 107.196863 126.169045 
L 107.257919 126.033608 
L 107.318974 125.789822 
L 107.38003 129.067393 
L 107.441086 126.819142 
L 107.502142 126.141958 
L 107.563198 127.03584 
L 107.624254 125.898171 
L 107.685309 126.521181 
L 107.807421 127.523413 
L 107.990588 124.625065 
L 108.173756 127.65885 
L 108.234812 124.570891 
L 108.295867 126.331569 
L 108.417979 127.496326 
L 108.540091 125.329337 
L 108.601147 125.220987 
L 108.723258 126.331569 
L 108.784314 124.868852 
L 108.906426 128.092248 
L 108.967481 125.248075 
L 109.028537 127.333801 
L 109.089593 126.954578 
L 109.150649 125.762734 
L 109.211705 126.196132 
L 109.333816 128.850694 
L 109.516984 125.871084 
L 109.57804 127.631762 
L 109.639095 127.03584 
L 109.700151 127.225452 
L 109.761207 125.925259 
L 109.822263 126.792054 
L 109.883319 128.471471 
L 109.944374 127.740112 
L 110.066486 125.031376 
L 110.188598 127.929723 
L 110.310709 126.141958 
L 110.493877 128.57982 
L 110.554933 127.333801 
L 110.615988 127.685937 
L 110.7381 128.633995 
L 110.799156 128.57982 
L 110.860212 128.769432 
L 110.921268 126.900404 
L 110.982323 129.311179 
L 111.043379 127.387976 
L 111.165491 126.494093 
L 111.226547 128.471471 
L 111.287602 127.875549 
L 111.348658 126.656617 
L 111.47077 129.961275 
L 111.531826 127.14419 
L 111.592881 127.387976 
L 111.653937 127.604675 
L 111.776049 126.981666 
L 111.959216 128.308946 
L 112.081328 128.877781 
L 112.142384 127.360889 
L 112.20344 128.308946 
L 112.264495 128.092248 
L 112.386607 130.421761 
L 112.447663 126.521181 
L 112.508719 129.690402 
L 112.569774 128.092248 
L 112.63083 128.742344 
L 112.691886 129.284091 
L 112.813998 128.200597 
L 112.936109 128.850694 
L 113.058221 126.900404 
L 113.241388 129.527878 
L 113.302444 127.117103 
L 113.3635 128.931956 
L 113.424556 129.527878 
L 113.607723 127.14419 
L 113.668779 130.1238 
L 113.729835 129.446616 
L 113.851947 128.038073 
L 114.09617 129.554965 
L 114.157226 129.907101 
L 114.218281 129.338266 
L 114.340393 130.205062 
L 114.401449 130.1238 
L 114.462505 129.229917 
L 114.523561 130.611372 
L 114.584616 129.229917 
L 114.645672 129.880013 
L 114.706728 130.367586 
L 114.767784 128.877781 
L 114.82884 128.959043 
L 115.073063 131.45108 
L 115.134119 128.57982 
L 115.195175 130.882246 
L 115.25623 130.746809 
L 115.317286 127.821374 
L 115.378342 129.419528 
L 115.561509 132.047002 
L 115.622565 129.419528 
L 115.683621 130.719722 
L 115.744677 130.665547 
L 115.805733 130.909333 
L 115.866788 129.825839 
L 115.927844 130.340498 
L 115.9889 129.934188 
L 116.049956 131.667779 
L 116.111012 130.205062 
L 116.172068 131.884478 
L 116.233123 130.557197 
L 116.355235 130.259236 
L 116.538402 128.904868 
L 116.660514 131.830303 
L 116.72157 130.448848 
L 116.782626 131.694867 
L 116.843682 129.50079 
L 116.904737 130.828071 
L 116.965793 131.04477 
L 117.026849 131.017683 
L 117.148961 129.744577 
L 117.332128 131.126032 
L 117.393184 130.096712 
L 117.45424 130.394673 
L 117.515295 130.01545 
L 117.576351 131.694867 
L 117.637407 130.448848 
L 117.698463 131.938653 
L 117.820575 129.636227 
L 117.942686 131.342731 
L 118.003742 130.665547 
L 118.125854 132.642924 
L 118.247965 129.690402 
L 118.370077 132.372051 
L 118.492188 131.396906 
L 118.553244 129.473703 
L 118.6143 130.638459 
L 118.797468 130.313411 
L 118.858523 130.394673 
L 118.919579 129.825839 
L 118.980635 130.205062 
L 119.041691 130.719722 
L 119.102747 132.588749 
L 119.163802 131.180207 
L 119.224858 132.426225 
L 119.285914 131.04477 
L 119.34697 131.532342 
L 119.408026 132.372051 
L 119.469082 132.019915 
L 119.530137 130.611372 
L 119.713305 132.561662 
L 119.774361 133.590982 
L 119.896472 132.155352 
L 119.957528 134.268166 
L 120.018584 131.776129 
L 120.07964 132.561662 
L 120.140695 132.263701 
L 120.201751 131.126032 
L 120.384919 133.374283 
L 120.445975 133.293021 
L 120.50703 132.128264 
L 120.568086 132.724186 
L 120.629142 132.859623 
L 120.690198 133.888943 
L 120.751254 133.265934 
L 120.812309 130.448848 
L 120.873365 133.320108 
L 120.934421 131.423993 
L 120.995477 131.55943 
L 121.178644 132.642924 
L 121.2397 131.749041 
L 121.300756 131.803216 
L 121.483923 133.293021 
L 121.544979 133.618069 
L 121.606035 133.563894 
L 121.850258 132.453313 
L 121.911314 132.642924 
L 121.97237 134.94535 
L 122.094482 131.126032 
L 122.155537 132.778361 
L 122.216593 132.642924 
L 122.338705 131.803216 
L 122.460816 132.290789 
L 122.582928 134.511952 
L 122.643984 131.938653 
L 122.70504 132.399138 
L 122.949263 134.999525 
L 123.13243 132.967973 
L 123.193486 134.647389 
L 123.254542 133.455545 
L 123.315598 134.213991 
L 123.437709 131.857391 
L 123.498765 133.699331 
L 123.559821 133.049235 
L 123.620877 133.536807 
L 123.681933 132.859623 
L 123.742989 133.211759 
L 123.804044 133.130497 
L 123.8651 132.047002 
L 123.987212 133.265934 
L 124.048268 132.534575 
L 124.109323 133.672244 
L 124.170379 133.211759 
L 124.231435 132.751274 
L 124.292491 134.620302 
L 124.353547 133.293021 
L 124.414603 133.103409 
L 124.475658 132.4804 
L 124.536714 135.026612 
L 124.59777 133.103409 
L 124.658826 131.721954 
L 124.841993 134.43069 
L 125.025161 132.670012 
L 125.086216 133.347196 
L 125.147272 132.670012 
L 125.33044 134.457777 
L 125.391496 134.43069 
L 125.452551 134.918263 
L 125.635719 133.320108 
L 125.696775 133.428458 
L 125.75783 133.130497 
L 125.818886 132.019915 
L 126.002054 134.376515 
L 126.063109 134.701564 
L 126.246277 133.780593 
L 126.307333 135.270398 
L 126.368389 133.888943 
L 126.429444 133.997292 
L 126.551556 133.184671 
L 126.673668 134.105642 
L 126.734723 132.724186 
L 126.856835 135.189136 
L 126.978947 132.913798 
L 127.040003 134.593214 
L 127.101058 132.859623 
L 127.162114 134.159816 
L 127.22317 134.02438 
L 127.284226 134.566127 
L 127.345282 133.91603 
L 127.406337 135.162049 
L 127.467393 134.186904 
L 127.528449 134.620302 
L 127.589505 134.403603 
L 127.650561 131.938653 
L 127.711616 135.297486 
L 127.772672 133.699331 
L 127.833728 133.157584 
L 127.95584 135.785058 
L 128.016896 135.026612 
L 128.077951 133.130497 
L 128.139007 134.566127 
L 128.200063 133.40137 
L 128.261119 133.997292 
L 128.322175 134.105642 
L 128.38323 133.103409 
L 128.444286 134.593214 
L 128.505342 134.105642 
L 128.566398 133.943118 
L 128.749565 136.218456 
L 128.810621 133.347196 
L 128.871677 134.891175 
L 128.932733 134.593214 
L 128.993789 134.701564 
L 129.054844 135.107874 
L 129.1159 134.701564 
L 129.176956 136.733116 
L 129.238012 135.785058 
L 129.360123 134.918263 
L 129.482235 135.107874 
L 129.543291 133.726419 
L 129.604347 134.268166 
L 129.665403 135.46001 
L 129.726458 134.837 
L 129.787514 134.999525 
L 130.031737 133.238846 
L 130.092793 135.216224 
L 130.153849 134.484865 
L 130.214905 134.213991 
L 130.275961 135.86632 
L 130.398072 133.943118 
L 130.459128 136.191369 
L 130.520184 135.46001 
L 130.58124 135.839233 
L 130.642296 134.02438 
L 130.703351 134.728651 
L 130.764407 134.620302 
L 130.825463 136.245543 
L 130.886519 133.211759 
L 130.947575 133.455545 
L 131.191798 136.001757 
L 131.252854 135.107874 
L 131.31391 135.270398 
L 131.436021 134.782826 
L 131.497077 134.972437 
L 131.558133 133.834768 
L 131.7413 135.514184 
L 131.863412 134.918263 
L 131.924468 135.243311 
L 131.985523 135.649621 
L 132.046579 133.590982 
L 132.107635 135.920495 
L 132.168691 135.378748 
L 132.229747 133.970205 
L 132.290803 135.189136 
L 132.351858 134.403603 
L 132.535026 135.270398 
L 132.596082 135.080787 
L 132.657137 135.703796 
L 132.779249 132.805448 
L 132.962417 135.595447 
L 133.023472 134.782826 
L 133.145584 136.89564 
L 133.20664 136.083019 
L 133.328751 133.888943 
L 133.389807 136.624766 
L 133.450863 135.216224 
L 133.63403 133.672244 
L 133.817198 135.487097 
L 133.878254 134.295253 
L 134.000365 135.622534 
L 134.061421 135.216224 
L 134.122477 135.622534 
L 134.183533 133.40137 
L 134.244589 135.595447 
L 134.305644 133.618069 
L 134.3667 133.970205 
L 134.427756 135.35166 
L 134.488812 135.189136 
L 134.549868 133.536807 
L 134.610924 135.649621 
L 134.671979 134.105642 
L 134.733035 133.807681 
L 134.855147 135.595447 
L 134.916203 134.511952 
L 134.977258 136.678941 
L 135.038314 135.432922 
L 135.09937 135.97467 
L 135.221482 134.43069 
L 135.282537 136.597679 
L 135.343593 134.484865 
L 135.404649 135.378748 
L 135.465705 135.920495 
L 135.526761 134.755738 
L 135.587817 136.110106 
L 135.709928 133.645157 
L 135.893096 135.785058 
L 136.015207 135.297486 
L 136.076263 133.645157 
L 136.137319 134.864088 
L 136.198375 134.539039 
L 136.320486 135.541272 
L 136.442598 135.189136 
L 136.503654 136.218456 
L 136.625765 134.755738 
L 136.686821 135.026612 
L 136.747877 134.295253 
L 136.808933 135.676709 
L 136.869989 134.674476 
L 136.931044 135.162049 
L 136.9921 134.484865 
L 137.053156 134.728651 
L 137.114212 135.812145 
L 137.175268 135.053699 
L 137.236324 135.324573 
L 137.297379 134.43069 
L 137.419491 135.97467 
L 137.480547 134.728651 
L 137.541603 135.270398 
L 137.602658 135.026612 
L 137.663714 135.812145 
L 137.72477 134.241079 
L 137.785826 134.539039 
L 137.846882 134.566127 
L 137.968993 135.785058 
L 138.030049 134.674476 
L 138.091105 136.651854 
L 138.152161 135.757971 
L 138.213217 133.780593 
L 138.335328 136.841465 
L 138.396384 134.94535 
L 138.45744 134.972437 
L 138.518496 135.297486 
L 138.579551 134.728651 
L 138.640607 134.837 
L 138.701663 135.107874 
L 138.762719 136.083019 
L 138.884831 134.755738 
L 139.067998 136.326805 
L 139.251165 133.50972 
L 139.312221 134.349428 
L 139.495389 135.595447 
L 139.556444 133.103409 
L 139.6175 134.891175 
L 139.678556 133.726419 
L 139.800668 136.489329 
L 139.983835 134.620302 
L 140.044891 135.514184 
L 140.105947 134.647389 
L 140.167003 134.674476 
L 140.228058 135.432922 
L 140.289114 134.837 
L 140.35017 135.053699 
L 140.411226 134.809913 
L 140.472282 136.624766 
L 140.594393 133.888943 
L 140.716505 136.651854 
L 140.777561 133.753506 
L 140.838617 134.755738 
L 140.899672 134.186904 
L 141.021784 135.297486 
L 141.204951 133.211759 
L 141.388119 136.462242 
L 141.571286 134.484865 
L 141.632342 134.891175 
L 141.693398 134.43069 
L 141.754454 136.218456 
L 141.81551 135.216224 
L 141.876565 135.46001 
L 141.998677 134.213991 
L 142.059733 135.324573 
L 142.120789 133.076322 
L 142.181845 134.864088 
L 142.2429 135.487097 
L 142.303956 134.94535 
L 142.365012 135.893408 
L 142.487124 133.780593 
L 142.670291 134.864088 
L 142.792403 134.593214 
L 142.853458 133.780593 
L 142.914514 136.922727 
L 143.036626 134.213991 
L 143.219793 135.324573 
L 143.280849 134.809913 
L 143.341905 136.191369 
L 143.402961 135.487097 
L 143.525072 133.130497 
L 143.586128 135.487097 
L 143.647184 134.864088 
L 143.70824 134.647389 
L 143.769296 136.408067 
L 143.952463 133.780593 
L 144.074575 135.785058 
L 144.135631 133.130497 
L 144.196686 134.322341 
L 144.257742 133.130497 
L 144.379854 135.216224 
L 144.44091 134.837 
L 144.501965 135.676709 
L 144.624077 134.782826 
L 144.685133 135.676709 
L 144.746189 134.43069 
L 144.807245 135.97467 
L 144.8683 135.216224 
L 144.929356 135.297486 
L 144.990412 134.511952 
L 145.051468 134.701564 
L 145.112524 135.676709 
L 145.173579 135.189136 
L 145.234635 135.839233 
L 145.417803 133.726419 
L 145.478858 135.134961 
L 145.539914 132.724186 
L 145.60097 133.834768 
L 145.662026 135.541272 
L 145.723082 133.834768 
L 145.784138 135.405835 
L 145.845193 135.189136 
L 145.967305 133.536807 
L 146.028361 134.078554 
L 146.089417 133.320108 
L 146.150472 135.649621 
L 146.211528 134.972437 
L 146.272584 133.753506 
L 146.33364 134.94535 
L 146.394696 133.428458 
L 146.516807 135.026612 
L 146.577863 134.647389 
L 146.638919 132.967973 
L 146.761031 135.676709 
L 146.883142 134.132729 
L 146.944198 136.678941 
L 147.005254 134.891175 
L 147.06631 134.078554 
L 147.127365 135.514184 
L 147.188421 133.320108 
L 147.249477 134.593214 
L 147.310533 134.782826 
L 147.371589 133.482632 
L 147.4937 136.137194 
L 147.554756 133.888943 
L 147.615812 134.213991 
L 147.798979 135.514184 
L 147.860035 131.098945 
L 147.921091 134.268166 
L 148.104259 132.399138 
L 148.165314 134.051467 
L 148.22637 133.997292 
L 148.287426 134.159816 
L 148.348482 133.91603 
L 148.409538 134.376515 
L 148.470593 132.805448 
L 148.531649 134.755738 
L 148.592705 133.888943 
L 148.653761 133.861855 
L 148.714817 132.128264 
L 148.775872 134.918263 
L 148.836928 134.132729 
L 148.897984 133.834768 
L 148.95904 135.378748 
L 149.020096 134.728651 
L 149.081152 135.134961 
L 149.142207 135.107874 
L 149.264319 134.376515 
L 149.325375 134.755738 
L 149.447486 134.186904 
L 149.508542 134.349428 
L 149.569598 133.699331 
L 149.630654 134.241079 
L 149.69171 133.428458 
L 149.752765 135.812145 
L 149.813821 134.647389 
L 149.874877 133.103409 
L 149.935933 133.563894 
L 150.058045 134.620302 
L 150.1191 133.130497 
L 150.180156 134.620302 
L 150.241212 133.672244 
L 150.302268 133.265934 
L 150.363324 135.46001 
L 150.485435 132.588749 
L 150.546491 135.243311 
L 150.607547 133.943118 
L 150.668603 132.88671 
L 150.729659 135.243311 
L 150.790714 134.295253 
L 150.85177 134.620302 
L 150.912826 131.992828 
L 150.973882 134.999525 
L 151.034938 133.91603 
L 151.157049 134.809913 
L 151.340217 131.532342 
L 151.401272 134.511952 
L 151.462328 134.484865 
L 151.706552 132.724186 
L 151.767607 132.290789 
L 151.950775 134.457777 
L 152.011831 132.588749 
L 152.072886 134.322341 
L 152.133942 134.051467 
L 152.194998 133.347196 
L 152.256054 133.726419 
L 152.31711 133.563894 
L 152.378166 134.078554 
L 152.439221 133.374283 
L 152.500277 134.159816 
L 152.561333 132.913798 
L 152.622389 133.536807 
L 152.683445 133.997292 
L 152.866612 131.45108 
L 153.049779 134.02438 
L 153.110835 134.213991 
L 153.171891 133.211759 
L 153.232947 133.672244 
L 153.294003 133.699331 
L 153.355059 135.378748 
L 153.416114 133.590982 
L 153.47717 134.701564 
L 153.538226 134.999525 
L 153.599282 132.642924 
L 153.660338 133.618069 
L 153.721393 133.238846 
L 153.782449 134.376515 
L 153.843505 133.590982 
L 153.904561 133.455545 
L 153.965617 134.268166 
L 154.026673 134.02438 
L 154.087728 132.805448 
L 154.270896 134.593214 
L 154.454063 132.453313 
L 154.759342 134.539039 
L 154.820398 134.999525 
L 154.94251 131.640692 
L 155.003566 131.830303 
L 155.186733 134.186904 
L 155.3699 132.07409 
L 155.430956 134.241079 
L 155.492012 133.888943 
L 155.553068 132.615837 
L 155.614124 133.103409 
L 155.736235 134.457777 
L 155.797291 132.019915 
L 155.858347 133.130497 
L 155.919403 133.888943 
L 156.10257 132.290789 
L 156.224682 134.457777 
L 156.285738 132.399138 
L 156.346793 133.50972 
L 156.407849 132.426225 
L 156.468905 133.238846 
L 156.591017 133.726419 
L 156.774184 132.697099 
L 156.896296 133.265934 
L 157.018407 134.864088 
L 157.079463 132.967973 
L 157.140519 133.861855 
L 157.201575 134.322341 
L 157.384742 131.207294 
L 157.445798 134.674476 
L 157.506854 134.159816 
L 157.56791 131.613604 
L 157.628966 133.536807 
L 157.751077 132.724186 
L 157.873189 134.511952 
L 157.934245 132.778361 
L 157.9953 134.755738 
L 158.056356 134.457777 
L 158.117412 132.561662 
L 158.178468 134.511952 
L 158.239524 133.455545 
L 158.30058 134.213991 
L 158.483747 132.724186 
L 158.544803 133.943118 
L 158.605859 132.859623 
L 158.72797 134.078554 
L 158.972193 132.697099 
L 159.033249 132.697099 
L 159.094305 134.132729 
L 159.155361 133.726419 
L 159.216417 133.455545 
L 159.277473 134.755738 
L 159.338528 131.586517 
L 159.399584 133.265934 
L 159.46064 132.778361 
L 159.643807 134.43069 
L 159.826975 131.938653 
L 159.949087 132.88671 
L 160.010142 132.372051 
L 160.19331 133.50972 
L 160.254366 133.672244 
L 160.437533 132.426225 
L 160.498589 133.834768 
L 160.559645 133.40137 
L 160.6207 131.342731 
L 160.681756 135.080787 
L 160.742812 133.455545 
L 160.92598 135.324573 
L 160.987035 131.857391 
L 161.048091 133.50972 
L 161.292314 132.047002 
L 161.35337 133.428458 
L 161.414426 131.721954 
L 161.475482 132.724186 
L 161.658649 134.349428 
L 161.780761 133.049235 
L 161.841817 133.211759 
L 161.902873 132.344963 
L 161.963928 134.999525 
L 162.024984 133.753506 
L 162.08604 132.751274 
L 162.147096 134.972437 
L 162.208152 134.322341 
L 162.269207 132.561662 
L 162.330263 133.428458 
L 162.452375 133.861855 
L 162.513431 133.672244 
L 162.574487 132.507487 
L 162.696598 133.997292 
L 162.757654 133.211759 
L 162.81871 133.672244 
L 162.879766 133.618069 
L 162.879766 133.618069 
" clip-path="url(#pb723091dec)" style="fill: none; stroke: #1f77b4; stroke-width: 0.5; stroke-linecap: square"/>
   </g>
   <g id="patch_3">
    <path d="M 23.410312 143.1 
L 23.410312 7.2 
" style="fill: none; stroke: #000000; stroke-width: 0.8; stroke-linejoin: miter; stroke-linecap: square"/>
   </g>
   <g id="patch_4">
    <path d="M 162.910313 143.1 
L 162.910313 7.2 
" style="fill: none; stroke: #000000; stroke-width: 0.8; stroke-linejoin: miter; stroke-linecap: square"/>
   </g>
   <g id="patch_5">
    <path d="M 23.410312 143.1 
L 162.910313 143.1 
" style="fill: none; stroke: #000000; stroke-width: 0.8; stroke-linejoin: miter; stroke-linecap: square"/>
   </g>
   <g id="patch_6">
    <path d="M 23.410312 7.2 
L 162.910313 7.2 
" style="fill: none; stroke: #000000; stroke-width: 0.8; stroke-linejoin: miter; stroke-linecap: square"/>
   </g>
  </g>
 </g>
 <defs>
  <clipPath id="pb723091dec">
   <rect x="23.410312" y="7.2" width="139.5" height="135.9"/>
  </clipPath>
 </defs>
</svg>
