<?xml version="1.0" encoding="utf-8" standalone="no"?>
<!DOCTYPE svg PUBLIC "-//W3C//DTD SVG 1.1//EN"
  "http://www.w3.org/Graphics/SVG/1.1/DTD/svg11.dtd">
<svg xmlns:xlink="http://www.w3.org/1999/xlink" width="170.110313pt" height="177.752813pt" viewBox="0 0 170.110313 177.752813" xmlns="http://www.w3.org/2000/svg" version="1.1">
 <metadata>
  <rdf:RDF xmlns:dc="http://purl.org/dc/elements/1.1/" xmlns:cc="http://creativecommons.org/ns#" xmlns:rdf="http://www.w3.org/1999/02/22-rdf-syntax-ns#">
   <cc:Work>
    <dc:type rdf:resource="http://purl.org/dc/dcmitype/StillImage"/>
    <dc:date>2023-02-25T15:21:28.611796</dc:date>
    <dc:format>image/svg+xml</dc:format>
    <dc:creator>
     <cc:Agent>
      <dc:title>Matplotlib v3.5.2, https://matplotlib.org/</dc:title>
     </cc:Agent>
    </dc:creator>
   </cc:Work>
  </rdf:RDF>
 </metadata>
 <defs>
  <style type="text/css">*{stroke-linejoin: round; stroke-linecap: butt}</style>
 </defs>
 <g id="figure_1">
  <g id="patch_1">
   <path d="M 0 177.752813 
L 170.110313 177.752813 
L 170.110313 0 
L 0 0 
z
" style="fill: #ffffff"/>
  </g>
  <g id="axes_1">
   <g id="patch_2">
    <path d="M 23.410312 143.1 
L 162.910313 143.1 
L 162.910313 7.2 
L 23.410312 7.2 
z
" style="fill: #ffffff"/>
   </g>
   <g id="matplotlib.axis_1">
    <g id="xtick_1">
     <g id="line2d_1">
      <defs>
       <path id="m453af50717" d="M 0 0 
L 0 3.5 
" style="stroke: #000000; stroke-width: 0.8"/>
      </defs>
      <g>
       <use xlink:href="#m453af50717" x="58.285313" y="143.1" style="stroke: #000000; stroke-width: 0.8"/>
      </g>
     </g>
     <g id="text_1">
      <!-- 20 -->
      <g transform="translate(53.195312 156.17875)scale(0.08 -0.08)">
       <defs>
        <path id="DejaVuSans-32" d="M 1228 531 
L 3431 531 
L 3431 0 
L 469 0 
L 469 531 
Q 828 903 1448 1529 
Q 2069 2156 2228 2338 
Q 2531 2678 2651 2914 
Q 2772 3150 2772 3378 
Q 2772 3750 2511 3984 
Q 2250 4219 1831 4219 
Q 1534 4219 1204 4116 
Q 875 4013 500 3803 
L 500 4441 
Q 881 4594 1212 4672 
Q 1544 4750 1819 4750 
Q 2544 4750 2975 4387 
Q 3406 4025 3406 3419 
Q 3406 3131 3298 2873 
Q 3191 2616 2906 2266 
Q 2828 2175 2409 1742 
Q 1991 1309 1228 531 
z
" transform="scale(0.015625)"/>
        <path id="DejaVuSans-30" d="M 2034 4250 
Q 1547 4250 1301 3770 
Q 1056 3291 1056 2328 
Q 1056 1369 1301 889 
Q 1547 409 2034 409 
Q 2525 409 2770 889 
Q 3016 1369 3016 2328 
Q 3016 3291 2770 3770 
Q 2525 4250 2034 4250 
z
M 2034 4750 
Q 2819 4750 3233 4129 
Q 3647 3509 3647 2328 
Q 3647 1150 3233 529 
Q 2819 -91 2034 -91 
Q 1250 -91 836 529 
Q 422 1150 422 2328 
Q 422 3509 836 4129 
Q 1250 4750 2034 4750 
z
" transform="scale(0.015625)"/>
       </defs>
       <use xlink:href="#DejaVuSans-32"/>
       <use xlink:href="#DejaVuSans-30" x="63.623047"/>
      </g>
     </g>
    </g>
    <g id="xtick_2">
     <g id="line2d_2">
      <g>
       <use xlink:href="#m453af50717" x="104.785313" y="143.1" style="stroke: #000000; stroke-width: 0.8"/>
      </g>
     </g>
     <g id="text_2">
      <!-- 40 -->
      <g transform="translate(99.695312 156.17875)scale(0.08 -0.08)">
       <defs>
        <path id="DejaVuSans-34" d="M 2419 4116 
L 825 1625 
L 2419 1625 
L 2419 4116 
z
M 2253 4666 
L 3047 4666 
L 3047 1625 
L 3713 1625 
L 3713 1100 
L 3047 1100 
L 3047 0 
L 2419 0 
L 2419 1100 
L 313 1100 
L 313 1709 
L 2253 4666 
z
" transform="scale(0.015625)"/>
       </defs>
       <use xlink:href="#DejaVuSans-34"/>
       <use xlink:href="#DejaVuSans-30" x="63.623047"/>
      </g>
     </g>
    </g>
    <g id="xtick_3">
     <g id="line2d_3">
      <g>
       <use xlink:href="#m453af50717" x="151.285313" y="143.1" style="stroke: #000000; stroke-width: 0.8"/>
      </g>
     </g>
     <g id="text_3">
      <!-- 60 -->
      <g transform="translate(146.195312 156.17875)scale(0.08 -0.08)">
       <defs>
        <path id="DejaVuSans-36" d="M 2113 2584 
Q 1688 2584 1439 2293 
Q 1191 2003 1191 1497 
Q 1191 994 1439 701 
Q 1688 409 2113 409 
Q 2538 409 2786 701 
Q 3034 994 3034 1497 
Q 3034 2003 2786 2293 
Q 2538 2584 2113 2584 
z
M 3366 4563 
L 3366 3988 
Q 3128 4100 2886 4159 
Q 2644 4219 2406 4219 
Q 1781 4219 1451 3797 
Q 1122 3375 1075 2522 
Q 1259 2794 1537 2939 
Q 1816 3084 2150 3084 
Q 2853 3084 3261 2657 
Q 3669 2231 3669 1497 
Q 3669 778 3244 343 
Q 2819 -91 2113 -91 
Q 1303 -91 875 529 
Q 447 1150 447 2328 
Q 447 3434 972 4092 
Q 1497 4750 2381 4750 
Q 2619 4750 2861 4703 
Q 3103 4656 3366 4563 
z
" transform="scale(0.015625)"/>
       </defs>
       <use xlink:href="#DejaVuSans-36"/>
       <use xlink:href="#DejaVuSans-30" x="63.623047"/>
      </g>
     </g>
    </g>
    <g id="xtick_4">
     <g id="line2d_4">
      <defs>
       <path id="m83f762183f" d="M 0 0 
L 0 2 
" style="stroke: #000000; stroke-width: 0.6"/>
      </defs>
      <g>
       <use xlink:href="#m83f762183f" x="23.410312" y="143.1" style="stroke: #000000; stroke-width: 0.6"/>
      </g>
     </g>
    </g>
    <g id="xtick_5">
     <g id="line2d_5">
      <g>
       <use xlink:href="#m83f762183f" x="29.222812" y="143.1" style="stroke: #000000; stroke-width: 0.6"/>
      </g>
     </g>
    </g>
    <g id="xtick_6">
     <g id="line2d_6">
      <g>
       <use xlink:href="#m83f762183f" x="35.035313" y="143.1" style="stroke: #000000; stroke-width: 0.6"/>
      </g>
     </g>
    </g>
    <g id="xtick_7">
     <g id="line2d_7">
      <g>
       <use xlink:href="#m83f762183f" x="40.847813" y="143.1" style="stroke: #000000; stroke-width: 0.6"/>
      </g>
     </g>
    </g>
    <g id="xtick_8">
     <g id="line2d_8">
      <g>
       <use xlink:href="#m83f762183f" x="46.660313" y="143.1" style="stroke: #000000; stroke-width: 0.6"/>
      </g>
     </g>
    </g>
    <g id="xtick_9">
     <g id="line2d_9">
      <g>
       <use xlink:href="#m83f762183f" x="52.472813" y="143.1" style="stroke: #000000; stroke-width: 0.6"/>
      </g>
     </g>
    </g>
    <g id="xtick_10">
     <g id="line2d_10">
      <g>
       <use xlink:href="#m83f762183f" x="64.097813" y="143.1" style="stroke: #000000; stroke-width: 0.6"/>
      </g>
     </g>
    </g>
    <g id="xtick_11">
     <g id="line2d_11">
      <g>
       <use xlink:href="#m83f762183f" x="69.910313" y="143.1" style="stroke: #000000; stroke-width: 0.6"/>
      </g>
     </g>
    </g>
    <g id="xtick_12">
     <g id="line2d_12">
      <g>
       <use xlink:href="#m83f762183f" x="75.722813" y="143.1" style="stroke: #000000; stroke-width: 0.6"/>
      </g>
     </g>
    </g>
    <g id="xtick_13">
     <g id="line2d_13">
      <g>
       <use xlink:href="#m83f762183f" x="81.535313" y="143.1" style="stroke: #000000; stroke-width: 0.6"/>
      </g>
     </g>
    </g>
    <g id="xtick_14">
     <g id="line2d_14">
      <g>
       <use xlink:href="#m83f762183f" x="87.347813" y="143.1" style="stroke: #000000; stroke-width: 0.6"/>
      </g>
     </g>
    </g>
    <g id="xtick_15">
     <g id="line2d_15">
      <g>
       <use xlink:href="#m83f762183f" x="93.160313" y="143.1" style="stroke: #000000; stroke-width: 0.6"/>
      </g>
     </g>
    </g>
    <g id="xtick_16">
     <g id="line2d_16">
      <g>
       <use xlink:href="#m83f762183f" x="98.972813" y="143.1" style="stroke: #000000; stroke-width: 0.6"/>
      </g>
     </g>
    </g>
    <g id="xtick_17">
     <g id="line2d_17">
      <g>
       <use xlink:href="#m83f762183f" x="110.597813" y="143.1" style="stroke: #000000; stroke-width: 0.6"/>
      </g>
     </g>
    </g>
    <g id="xtick_18">
     <g id="line2d_18">
      <g>
       <use xlink:href="#m83f762183f" x="116.410313" y="143.1" style="stroke: #000000; stroke-width: 0.6"/>
      </g>
     </g>
    </g>
    <g id="xtick_19">
     <g id="line2d_19">
      <g>
       <use xlink:href="#m83f762183f" x="122.222813" y="143.1" style="stroke: #000000; stroke-width: 0.6"/>
      </g>
     </g>
    </g>
    <g id="xtick_20">
     <g id="line2d_20">
      <g>
       <use xlink:href="#m83f762183f" x="128.035313" y="143.1" style="stroke: #000000; stroke-width: 0.6"/>
      </g>
     </g>
    </g>
    <g id="xtick_21">
     <g id="line2d_21">
      <g>
       <use xlink:href="#m83f762183f" x="133.847813" y="143.1" style="stroke: #000000; stroke-width: 0.6"/>
      </g>
     </g>
    </g>
    <g id="xtick_22">
     <g id="line2d_22">
      <g>
       <use xlink:href="#m83f762183f" x="139.660313" y="143.1" style="stroke: #000000; stroke-width: 0.6"/>
      </g>
     </g>
    </g>
    <g id="xtick_23">
     <g id="line2d_23">
      <g>
       <use xlink:href="#m83f762183f" x="145.472813" y="143.1" style="stroke: #000000; stroke-width: 0.6"/>
      </g>
     </g>
    </g>
    <g id="xtick_24">
     <g id="line2d_24">
      <g>
       <use xlink:href="#m83f762183f" x="157.097813" y="143.1" style="stroke: #000000; stroke-width: 0.6"/>
      </g>
     </g>
    </g>
    <g id="xtick_25">
     <g id="line2d_25">
      <g>
       <use xlink:href="#m83f762183f" x="162.910313" y="143.1" style="stroke: #000000; stroke-width: 0.6"/>
      </g>
     </g>
    </g>
    <g id="text_4">
     <!-- Two Theta (degrees) -->
     <g transform="translate(47.344688 168.681094)scale(0.09 -0.09)">
      <defs>
       <path id="DejaVuSans-54" d="M -19 4666 
L 3928 4666 
L 3928 4134 
L 2272 4134 
L 2272 0 
L 1638 0 
L 1638 4134 
L -19 4134 
L -19 4666 
z
" transform="scale(0.015625)"/>
       <path id="DejaVuSans-77" d="M 269 3500 
L 844 3500 
L 1563 769 
L 2278 3500 
L 2956 3500 
L 3675 769 
L 4391 3500 
L 4966 3500 
L 4050 0 
L 3372 0 
L 2619 2869 
L 1863 0 
L 1184 0 
L 269 3500 
z
" transform="scale(0.015625)"/>
       <path id="DejaVuSans-6f" d="M 1959 3097 
Q 1497 3097 1228 2736 
Q 959 2375 959 1747 
Q 959 1119 1226 758 
Q 1494 397 1959 397 
Q 2419 397 2687 759 
Q 2956 1122 2956 1747 
Q 2956 2369 2687 2733 
Q 2419 3097 1959 3097 
z
M 1959 3584 
Q 2709 3584 3137 3096 
Q 3566 2609 3566 1747 
Q 3566 888 3137 398 
Q 2709 -91 1959 -91 
Q 1206 -91 779 398 
Q 353 888 353 1747 
Q 353 2609 779 3096 
Q 1206 3584 1959 3584 
z
" transform="scale(0.015625)"/>
       <path id="DejaVuSans-20" transform="scale(0.015625)"/>
       <path id="DejaVuSans-68" d="M 3513 2113 
L 3513 0 
L 2938 0 
L 2938 2094 
Q 2938 2591 2744 2837 
Q 2550 3084 2163 3084 
Q 1697 3084 1428 2787 
Q 1159 2491 1159 1978 
L 1159 0 
L 581 0 
L 581 4863 
L 1159 4863 
L 1159 2956 
Q 1366 3272 1645 3428 
Q 1925 3584 2291 3584 
Q 2894 3584 3203 3211 
Q 3513 2838 3513 2113 
z
" transform="scale(0.015625)"/>
       <path id="DejaVuSans-65" d="M 3597 1894 
L 3597 1613 
L 953 1613 
Q 991 1019 1311 708 
Q 1631 397 2203 397 
Q 2534 397 2845 478 
Q 3156 559 3463 722 
L 3463 178 
Q 3153 47 2828 -22 
Q 2503 -91 2169 -91 
Q 1331 -91 842 396 
Q 353 884 353 1716 
Q 353 2575 817 3079 
Q 1281 3584 2069 3584 
Q 2775 3584 3186 3129 
Q 3597 2675 3597 1894 
z
M 3022 2063 
Q 3016 2534 2758 2815 
Q 2500 3097 2075 3097 
Q 1594 3097 1305 2825 
Q 1016 2553 972 2059 
L 3022 2063 
z
" transform="scale(0.015625)"/>
       <path id="DejaVuSans-74" d="M 1172 4494 
L 1172 3500 
L 2356 3500 
L 2356 3053 
L 1172 3053 
L 1172 1153 
Q 1172 725 1289 603 
Q 1406 481 1766 481 
L 2356 481 
L 2356 0 
L 1766 0 
Q 1100 0 847 248 
Q 594 497 594 1153 
L 594 3053 
L 172 3053 
L 172 3500 
L 594 3500 
L 594 4494 
L 1172 4494 
z
" transform="scale(0.015625)"/>
       <path id="DejaVuSans-61" d="M 2194 1759 
Q 1497 1759 1228 1600 
Q 959 1441 959 1056 
Q 959 750 1161 570 
Q 1363 391 1709 391 
Q 2188 391 2477 730 
Q 2766 1069 2766 1631 
L 2766 1759 
L 2194 1759 
z
M 3341 1997 
L 3341 0 
L 2766 0 
L 2766 531 
Q 2569 213 2275 61 
Q 1981 -91 1556 -91 
Q 1019 -91 701 211 
Q 384 513 384 1019 
Q 384 1609 779 1909 
Q 1175 2209 1959 2209 
L 2766 2209 
L 2766 2266 
Q 2766 2663 2505 2880 
Q 2244 3097 1772 3097 
Q 1472 3097 1187 3025 
Q 903 2953 641 2809 
L 641 3341 
Q 956 3463 1253 3523 
Q 1550 3584 1831 3584 
Q 2591 3584 2966 3190 
Q 3341 2797 3341 1997 
z
" transform="scale(0.015625)"/>
       <path id="DejaVuSans-28" d="M 1984 4856 
Q 1566 4138 1362 3434 
Q 1159 2731 1159 2009 
Q 1159 1288 1364 580 
Q 1569 -128 1984 -844 
L 1484 -844 
Q 1016 -109 783 600 
Q 550 1309 550 2009 
Q 550 2706 781 3412 
Q 1013 4119 1484 4856 
L 1984 4856 
z
" transform="scale(0.015625)"/>
       <path id="DejaVuSans-64" d="M 2906 2969 
L 2906 4863 
L 3481 4863 
L 3481 0 
L 2906 0 
L 2906 525 
Q 2725 213 2448 61 
Q 2172 -91 1784 -91 
Q 1150 -91 751 415 
Q 353 922 353 1747 
Q 353 2572 751 3078 
Q 1150 3584 1784 3584 
Q 2172 3584 2448 3432 
Q 2725 3281 2906 2969 
z
M 947 1747 
Q 947 1113 1208 752 
Q 1469 391 1925 391 
Q 2381 391 2643 752 
Q 2906 1113 2906 1747 
Q 2906 2381 2643 2742 
Q 2381 3103 1925 3103 
Q 1469 3103 1208 2742 
Q 947 2381 947 1747 
z
" transform="scale(0.015625)"/>
       <path id="DejaVuSans-67" d="M 2906 1791 
Q 2906 2416 2648 2759 
Q 2391 3103 1925 3103 
Q 1463 3103 1205 2759 
Q 947 2416 947 1791 
Q 947 1169 1205 825 
Q 1463 481 1925 481 
Q 2391 481 2648 825 
Q 2906 1169 2906 1791 
z
M 3481 434 
Q 3481 -459 3084 -895 
Q 2688 -1331 1869 -1331 
Q 1566 -1331 1297 -1286 
Q 1028 -1241 775 -1147 
L 775 -588 
Q 1028 -725 1275 -790 
Q 1522 -856 1778 -856 
Q 2344 -856 2625 -561 
Q 2906 -266 2906 331 
L 2906 616 
Q 2728 306 2450 153 
Q 2172 0 1784 0 
Q 1141 0 747 490 
Q 353 981 353 1791 
Q 353 2603 747 3093 
Q 1141 3584 1784 3584 
Q 2172 3584 2450 3431 
Q 2728 3278 2906 2969 
L 2906 3500 
L 3481 3500 
L 3481 434 
z
" transform="scale(0.015625)"/>
       <path id="DejaVuSans-72" d="M 2631 2963 
Q 2534 3019 2420 3045 
Q 2306 3072 2169 3072 
Q 1681 3072 1420 2755 
Q 1159 2438 1159 1844 
L 1159 0 
L 581 0 
L 581 3500 
L 1159 3500 
L 1159 2956 
Q 1341 3275 1631 3429 
Q 1922 3584 2338 3584 
Q 2397 3584 2469 3576 
Q 2541 3569 2628 3553 
L 2631 2963 
z
" transform="scale(0.015625)"/>
       <path id="DejaVuSans-73" d="M 2834 3397 
L 2834 2853 
Q 2591 2978 2328 3040 
Q 2066 3103 1784 3103 
Q 1356 3103 1142 2972 
Q 928 2841 928 2578 
Q 928 2378 1081 2264 
Q 1234 2150 1697 2047 
L 1894 2003 
Q 2506 1872 2764 1633 
Q 3022 1394 3022 966 
Q 3022 478 2636 193 
Q 2250 -91 1575 -91 
Q 1294 -91 989 -36 
Q 684 19 347 128 
L 347 722 
Q 666 556 975 473 
Q 1284 391 1588 391 
Q 1994 391 2212 530 
Q 2431 669 2431 922 
Q 2431 1156 2273 1281 
Q 2116 1406 1581 1522 
L 1381 1569 
Q 847 1681 609 1914 
Q 372 2147 372 2553 
Q 372 3047 722 3315 
Q 1072 3584 1716 3584 
Q 2034 3584 2315 3537 
Q 2597 3491 2834 3397 
z
" transform="scale(0.015625)"/>
       <path id="DejaVuSans-29" d="M 513 4856 
L 1013 4856 
Q 1481 4119 1714 3412 
Q 1947 2706 1947 2009 
Q 1947 1309 1714 600 
Q 1481 -109 1013 -844 
L 513 -844 
Q 928 -128 1133 580 
Q 1338 1288 1338 2009 
Q 1338 2731 1133 3434 
Q 928 4138 513 4856 
z
" transform="scale(0.015625)"/>
      </defs>
      <use xlink:href="#DejaVuSans-54"/>
      <use xlink:href="#DejaVuSans-77" x="44.583984"/>
      <use xlink:href="#DejaVuSans-6f" x="126.371094"/>
      <use xlink:href="#DejaVuSans-20" x="187.552734"/>
      <use xlink:href="#DejaVuSans-54" x="219.339844"/>
      <use xlink:href="#DejaVuSans-68" x="280.423828"/>
      <use xlink:href="#DejaVuSans-65" x="343.802734"/>
      <use xlink:href="#DejaVuSans-74" x="405.326172"/>
      <use xlink:href="#DejaVuSans-61" x="444.535156"/>
      <use xlink:href="#DejaVuSans-20" x="505.814453"/>
      <use xlink:href="#DejaVuSans-28" x="537.601562"/>
      <use xlink:href="#DejaVuSans-64" x="576.615234"/>
      <use xlink:href="#DejaVuSans-65" x="640.091797"/>
      <use xlink:href="#DejaVuSans-67" x="701.615234"/>
      <use xlink:href="#DejaVuSans-72" x="765.091797"/>
      <use xlink:href="#DejaVuSans-65" x="803.955078"/>
      <use xlink:href="#DejaVuSans-65" x="865.478516"/>
      <use xlink:href="#DejaVuSans-73" x="927.001953"/>
      <use xlink:href="#DejaVuSans-29" x="979.101562"/>
     </g>
    </g>
   </g>
   <g id="matplotlib.axis_2">
    <g id="ytick_1">
     <g id="line2d_26"/>
    </g>
    <g id="ytick_2">
     <g id="line2d_27"/>
    </g>
    <g id="ytick_3">
     <g id="line2d_28"/>
    </g>
    <g id="ytick_4">
     <g id="line2d_29"/>
    </g>
    <g id="ytick_5">
     <g id="line2d_30"/>
    </g>
    <g id="text_5">
     <!-- Intensity -->
     <g transform="translate(14.038594 94.73625)rotate(-90)scale(0.09 -0.09)">
      <defs>
       <path id="DejaVuSans-49" d="M 628 4666 
L 1259 4666 
L 1259 0 
L 628 0 
L 628 4666 
z
" transform="scale(0.015625)"/>
       <path id="DejaVuSans-6e" d="M 3513 2113 
L 3513 0 
L 2938 0 
L 2938 2094 
Q 2938 2591 2744 2837 
Q 2550 3084 2163 3084 
Q 1697 3084 1428 2787 
Q 1159 2491 1159 1978 
L 1159 0 
L 581 0 
L 581 3500 
L 1159 3500 
L 1159 2956 
Q 1366 3272 1645 3428 
Q 1925 3584 2291 3584 
Q 2894 3584 3203 3211 
Q 3513 2838 3513 2113 
z
" transform="scale(0.015625)"/>
       <path id="DejaVuSans-69" d="M 603 3500 
L 1178 3500 
L 1178 0 
L 603 0 
L 603 3500 
z
M 603 4863 
L 1178 4863 
L 1178 4134 
L 603 4134 
L 603 4863 
z
" transform="scale(0.015625)"/>
       <path id="DejaVuSans-79" d="M 2059 -325 
Q 1816 -950 1584 -1140 
Q 1353 -1331 966 -1331 
L 506 -1331 
L 506 -850 
L 844 -850 
Q 1081 -850 1212 -737 
Q 1344 -625 1503 -206 
L 1606 56 
L 191 3500 
L 800 3500 
L 1894 763 
L 2988 3500 
L 3597 3500 
L 2059 -325 
z
" transform="scale(0.015625)"/>
      </defs>
      <use xlink:href="#DejaVuSans-49"/>
      <use xlink:href="#DejaVuSans-6e" x="29.492188"/>
      <use xlink:href="#DejaVuSans-74" x="92.871094"/>
      <use xlink:href="#DejaVuSans-65" x="132.080078"/>
      <use xlink:href="#DejaVuSans-6e" x="193.603516"/>
      <use xlink:href="#DejaVuSans-73" x="256.982422"/>
      <use xlink:href="#DejaVuSans-69" x="309.082031"/>
      <use xlink:href="#DejaVuSans-74" x="336.865234"/>
      <use xlink:href="#DejaVuSans-79" x="376.074219"/>
     </g>
    </g>
   </g>
   <g id="line2d_31">
    <path d="M 23.428285 17.909957 
L 23.489341 13.377273 
L 23.550397 21.548032 
L 23.611453 18.566003 
L 23.672509 22.800484 
L 23.733564 18.327441 
L 23.916732 26.259637 
L 23.977788 30.315196 
L 24.038844 23.903835 
L 24.099899 28.883823 
L 24.160955 31.836031 
L 24.222011 29.539869 
L 24.52729 36.487996 
L 24.588346 33.953272 
L 24.649402 35.623208 
L 24.710458 36.070512 
L 24.893625 41.587265 
L 24.954681 40.931219 
L 25.015737 38.724518 
L 25.076792 40.513735 
L 25.25996 48.863416 
L 25.321016 45.613004 
L 25.504183 42.481874 
L 25.565239 45.404262 
L 25.626295 45.314802 
L 25.687351 43.674686 
L 25.748406 49.101978 
L 25.809462 45.732286 
L 25.870518 45.970848 
L 25.931574 45.523544 
L 25.99263 49.430001 
L 26.053685 45.851567 
L 26.236853 52.561132 
L 26.42002 49.758024 
L 26.481076 52.471671 
L 26.542132 50.622813 
L 26.603188 49.787845 
L 26.725299 54.738013 
L 26.847411 50.35443 
L 27.030578 57.54112 
L 27.091634 58.256807 
L 27.15269 54.916934 
L 27.213746 56.586871 
L 27.274802 56.258847 
L 27.335858 56.855253 
L 27.457969 54.350349 
L 27.580081 58.763752 
L 27.641137 58.346268 
L 27.702192 55.155497 
L 27.824304 60.851172 
L 27.88536 58.793572 
L 27.946416 61.209015 
L 28.068527 58.376088 
L 28.312751 62.640389 
L 28.373806 62.521108 
L 28.434862 62.043983 
L 28.495918 60.195125 
L 28.556974 61.059914 
L 28.679085 65.204934 
L 28.801197 60.314407 
L 28.984365 65.83116 
L 29.106476 62.72985 
L 29.228588 64.966372 
L 29.289644 63.057873 
L 29.350699 66.964331 
L 29.411755 64.75763 
L 29.472811 62.670209 
L 29.533867 66.994151 
L 29.594923 65.294395 
L 29.655978 65.204934 
L 29.717034 65.383856 
L 29.77809 69.886719 
L 29.839146 66.308285 
L 29.900202 63.624459 
L 29.961258 65.443496 
L 30.022313 68.664087 
L 30.083369 65.503137 
L 30.205481 69.230673 
L 30.266537 68.097502 
L 30.327592 69.349954 
L 30.388648 67.292354 
L 30.51076 70.155102 
L 30.571816 68.783368 
L 30.632872 73.017849 
L 30.693927 71.407554 
L 30.754983 72.451264 
L 30.816039 69.677977 
L 30.877095 72.242522 
L 30.938151 72.09342 
L 30.999206 69.349954 
L 31.060262 70.393664 
L 31.182374 73.644075 
L 31.24343 70.363844 
L 31.304485 72.03378 
L 31.365541 70.065641 
L 31.426597 71.556655 
L 31.487653 73.256412 
L 31.548709 72.451264 
L 31.609765 71.884678 
L 31.67082 75.582394 
L 31.731876 70.572586 
L 31.792932 75.463113 
L 31.853988 75.045629 
L 31.976099 71.228632 
L 32.037155 75.433293 
L 32.098211 73.942278 
L 32.220323 72.510904 
L 32.342434 77.431252 
L 32.40349 75.970058 
L 32.586658 74.687786 
L 32.708769 78.2364 
L 32.830881 74.329942 
L 33.014048 78.415322 
L 33.075104 74.538684 
L 33.13616 76.029699 
L 33.197216 78.027658 
L 33.258272 75.612214 
L 33.441439 79.667774 
L 33.563551 76.268261 
L 33.746718 79.578313 
L 33.807774 77.848736 
L 33.86883 79.429211 
L 33.929885 79.071368 
L 33.990941 79.429211 
L 34.051997 79.369571 
L 34.113053 77.133049 
L 34.174109 77.520713 
L 34.357276 82.500701 
L 34.418332 78.504782 
L 34.479388 81.456991 
L 34.540444 79.787055 
L 34.601499 83.663692 
L 34.662555 81.546452 
L 34.845723 78.862626 
L 34.906779 80.413281 
L 34.967834 77.133049 
L 35.089946 82.948005 
L 35.151002 80.681663 
L 35.273113 83.186568 
L 35.334169 81.576272 
L 35.395225 85.751113 
L 35.456281 83.902255 
L 35.517337 82.918185 
L 35.578392 83.186568 
L 35.639448 83.753153 
L 35.76156 80.771124 
L 35.822616 84.110997 
L 35.883672 81.128968 
L 35.944727 84.349559 
L 36.005783 83.633872 
L 36.066839 82.113037 
L 36.127895 83.007646 
L 36.188951 82.023576 
L 36.311062 85.303808 
L 36.372118 84.051356 
L 36.433174 86.49662 
L 36.49423 83.544411 
L 36.555286 86.347518 
L 36.616341 84.49866 
L 36.677397 85.124886 
L 36.738453 82.262139 
L 36.860565 86.079136 
L 36.92162 84.707402 
L 37.104788 86.765002 
L 37.226899 83.932075 
L 37.287955 84.081176 
L 37.471123 89.210266 
L 37.532179 84.021536 
L 37.593234 86.347518 
L 37.715346 84.886324 
L 37.776402 87.838533 
L 37.837458 86.586081 
L 37.959569 89.866312 
L 38.020625 88.64368 
L 38.081681 85.661652 
L 38.142737 87.898173 
L 38.264848 85.900214 
L 38.325904 88.61386 
L 38.38696 87.063205 
L 38.509072 88.077095 
L 38.570127 89.031344 
L 38.631183 88.762962 
L 38.692239 88.673501 
L 38.753295 90.522359 
L 38.814351 89.090985 
L 38.875406 88.196376 
L 38.936462 90.850382 
L 38.997518 89.478649 
L 39.058574 91.059124 
L 39.241741 88.434938 
L 39.363853 90.999483 
L 39.424909 89.806672 
L 39.485965 93.981512 
L 39.54702 89.59793 
L 39.608076 91.267866 
L 39.669132 89.806672 
L 39.730188 90.581999 
L 39.791244 91.71517 
L 39.852299 88.61386 
L 39.913355 89.568109 
L 39.974411 92.490498 
L 40.035467 89.448828 
L 40.096523 93.295645 
L 40.157579 90.581999 
L 40.340746 96.039112 
L 40.462858 90.134695 
L 40.523913 94.220074 
L 40.584969 90.611819 
L 40.646025 91.029304 
L 40.707081 91.327506 
L 40.768137 91.059124 
L 40.829193 94.78666 
L 40.890248 91.178405 
L 40.951304 93.593848 
L 41.01236 94.070973 
L 41.073416 93.414927 
L 41.134472 93.921872 
L 41.195527 94.75684 
L 41.256583 93.832411 
L 41.317639 94.011332 
L 41.378695 94.100793 
L 41.439751 91.834451 
L 41.561862 95.293605 
L 41.683974 92.788701 
L 41.74503 92.878161 
L 41.867141 95.144503 
L 41.928197 95.114683 
L 41.989253 92.907982 
L 42.050309 93.623669 
L 42.17242 94.548098 
L 42.233476 93.623669 
L 42.294532 96.396955 
L 42.355588 95.919831 
L 42.4777 94.75684 
L 42.538755 95.293605 
L 42.660867 93.862231 
L 42.721923 96.188213 
L 42.782979 94.876121 
L 42.844034 94.697199 
L 42.90509 93.027263 
L 43.088258 97.023181 
L 43.149313 92.907982 
L 43.210369 95.323425 
L 43.271425 96.009292 
L 43.332481 93.355286 
L 43.393537 94.279715 
L 43.576704 96.188213 
L 43.63776 93.325466 
L 43.698816 94.935761 
L 43.820927 97.172283 
L 43.943039 95.114683 
L 44.004095 95.472526 
L 44.065151 94.935761 
L 44.126206 96.486416 
L 44.187262 95.681269 
L 44.248318 95.383066 
L 44.37043 99.885929 
L 44.431486 96.068932 
L 44.492541 97.142463 
L 44.553597 97.440666 
L 44.614653 97.053002 
L 44.675709 97.142463 
L 44.79782 97.768689 
L 44.980988 96.396955 
L 45.042044 98.007251 
L 45.1031 95.263784 
L 45.225211 99.885929 
L 45.286267 99.021141 
L 45.347323 98.573836 
L 45.469434 95.412886 
L 45.652602 99.378984 
L 45.713658 99.080781 
L 45.774713 99.408805 
L 45.835769 96.218034 
L 45.896825 97.231924 
L 46.079993 95.83037 
L 46.202104 98.90186 
L 46.324216 97.500306 
L 46.385272 99.319344 
L 46.446327 95.144503 
L 46.507383 98.335274 
L 46.568439 95.681269 
L 46.629495 99.319344 
L 46.690551 95.890011 
L 46.751607 97.261744 
L 46.873718 98.126532 
L 46.934774 97.94761 
L 46.99583 96.724979 
L 47.056886 99.557906 
L 47.117941 99.378984 
L 47.178997 97.619587 
L 47.240053 98.9615 
L 47.301109 99.617547 
L 47.362165 96.396955 
L 47.42322 100.98928 
L 47.484276 98.066892 
L 47.606388 96.9039 
L 47.789555 99.438625 
L 47.911667 95.681269 
L 48.033779 100.392874 
L 48.15589 98.454555 
L 48.216946 98.872039 
L 48.278002 98.573836 
L 48.339058 97.410845 
L 48.400114 98.812399 
L 48.461169 96.87408 
L 48.522225 100.899819 
L 48.583281 98.842219 
L 48.644337 97.172283 
L 48.705393 98.245813 
L 48.766448 99.021141 
L 48.827504 97.321384 
L 48.88856 98.842219 
L 48.949616 97.351205 
L 49.010672 97.589767 
L 49.254895 100.541976 
L 49.315951 95.86019 
L 49.377007 97.410845 
L 49.438062 96.963541 
L 49.499118 97.768689 
L 49.560174 97.321384 
L 49.62123 95.084863 
L 49.743341 98.156352 
L 49.865453 95.86019 
L 49.926509 96.098753 
L 49.987565 96.575877 
L 50.048621 95.86019 
L 50.109676 96.367135 
L 50.170732 98.454555 
L 50.231788 97.410845 
L 50.292844 92.75888 
L 50.3539 96.188213 
L 50.537067 98.722938 
L 50.598123 95.561987 
L 50.659179 96.963541 
L 50.720234 97.798509 
L 50.842346 92.579959 
L 50.964458 98.752758 
L 51.147625 92.75888 
L 51.208681 96.546057 
L 51.269737 95.919831 
L 51.330793 96.9039 
L 51.391848 93.683309 
L 51.452904 94.667379 
L 51.575016 96.575877 
L 51.819239 92.073014 
L 51.941351 95.502347 
L 52.002407 95.025222 
L 52.124518 92.251935 
L 52.307686 95.890011 
L 52.368741 92.818521 
L 52.429797 96.247854 
L 52.490853 92.550138 
L 52.551909 93.80259 
L 52.612965 92.669419 
L 52.674021 93.653489 
L 52.735076 92.192295 
L 52.796132 92.371217 
L 52.857188 93.862231 
L 52.918244 92.937802 
L 52.9793 93.027263 
L 53.040355 93.832411 
L 53.101411 91.446788 
L 53.162467 93.593848 
L 53.223523 92.162474 
L 53.284579 91.894092 
L 53.345634 92.75888 
L 53.40669 92.460677 
L 53.528802 89.508469 
L 53.589858 92.669419 
L 53.650914 90.969663 
L 53.773025 93.027263 
L 53.895137 88.226196 
L 53.956193 90.224156 
L 54.017248 87.480689 
L 54.078304 92.192295 
L 54.13936 90.283796 
L 54.200416 87.808712 
L 54.261472 90.164515 
L 54.322528 89.925953 
L 54.383583 88.822602 
L 54.566751 91.267866 
L 54.627807 88.673501 
L 54.688862 90.403077 
L 54.749918 91.923912 
L 54.933086 87.331588 
L 54.994141 86.49662 
L 55.238365 90.194335 
L 55.299421 85.363449 
L 55.360476 87.301767 
L 55.421532 86.138776 
L 55.482588 82.321779 
L 55.6047 88.017454 
L 55.665755 83.991715 
L 55.726811 86.884283 
L 55.787867 86.735182 
L 55.848923 85.363449 
L 55.909979 86.735182 
L 55.971035 81.427171 
L 56.03209 84.647762 
L 56.093146 81.39735 
L 56.215258 84.349559 
L 56.337369 83.604052 
L 56.398425 84.021536 
L 56.581593 79.608133 
L 56.76476 81.993756 
L 56.825816 82.083217 
L 56.886872 81.30789 
L 56.947928 81.993756 
L 57.008983 81.009687 
L 57.070039 82.3516 
L 57.192151 78.981907 
L 57.253207 82.113037 
L 57.314262 80.174719 
L 57.375318 81.606092 
L 57.49743 77.997838 
L 57.558486 80.443101 
L 57.619541 78.743345 
L 57.680597 76.745385 
L 57.741653 80.055437 
L 57.802709 77.669814 
L 57.863765 79.041548 
L 57.985876 75.940238 
L 58.107988 78.474962 
L 58.291155 73.494974 
L 58.352211 75.880597 
L 58.413267 74.1212 
L 58.596435 76.894487 
L 58.65749 74.777246 
L 58.718546 76.715565 
L 58.779602 75.940238 
L 58.840658 75.343832 
L 58.901714 76.894487 
L 59.023825 71.705757 
L 59.084881 74.419403 
L 59.145937 73.793177 
L 59.329104 69.171032 
L 59.39016 72.331983 
L 59.451216 69.856899 
L 59.512272 72.540725 
L 59.573328 71.914499 
L 59.634383 70.870789 
L 59.695439 71.258452 
L 59.878607 69.737618 
L 59.939662 69.97618 
L 60.000718 63.356076 
L 60.061774 66.666128 
L 60.183886 67.978221 
L 60.244942 65.473316 
L 60.305997 68.544806 
L 60.367053 66.815229 
L 60.428109 64.161224 
L 60.550221 68.753548 
L 60.611276 63.296435 
L 60.672332 66.278464 
L 60.794444 66.487206 
L 60.8555 63.863021 
L 60.916555 65.175114 
L 60.977611 67.441455 
L 61.038667 67.262534 
L 61.099723 66.099542 
L 61.160779 68.872829 
L 61.221835 67.113432 
L 61.343946 62.401827 
L 61.405002 63.087693 
L 61.466058 63.415717 
L 61.588169 64.75763 
L 61.649225 64.548887 
L 61.710281 62.431647 
L 61.771337 64.578708 
L 61.832393 63.684099 
L 61.893449 60.135485 
L 61.954504 61.954522 
L 62.01556 61.865062 
L 62.198728 59.896923 
L 62.381895 64.161224 
L 62.504007 60.105665 
L 62.565062 60.821351 
L 62.687174 58.316447 
L 62.74823 61.447578 
L 62.809286 59.091775 
L 62.870342 56.020285 
L 62.931397 59.061954 
L 62.992453 57.928783 
L 63.053509 57.958604 
L 63.114565 57.242917 
L 63.175621 57.362198 
L 63.236676 59.837282 
L 63.297732 59.509259 
L 63.358788 59.389978 
L 63.419844 58.167346 
L 63.4809 60.016204 
L 63.603011 56.706152 
L 63.664067 59.360157 
L 63.725123 58.793572 
L 63.786179 55.871184 
L 63.847235 57.093815 
L 63.90829 58.942673 
L 63.969346 55.304598 
L 64.030402 60.821351 
L 64.091458 54.648552 
L 64.152514 57.063995 
L 64.274625 61.537038 
L 64.335681 57.511299 
L 64.396737 60.910812 
L 64.457793 54.648552 
L 64.518849 56.646511 
L 64.579904 53.992505 
L 64.64096 56.944714 
L 64.702016 56.735972 
L 64.763072 54.678372 
L 64.885183 57.451659 
L 64.946239 57.272737 
L 65.007295 58.435728 
L 65.068351 57.690221 
L 65.190462 57.272737 
L 65.251518 57.749862 
L 65.312574 55.990465 
L 65.37363 58.912853 
L 65.434686 55.781723 
L 65.495742 59.777641 
L 65.556797 56.974534 
L 65.739965 55.066036 
L 65.801021 54.678372 
L 65.923132 61.507218 
L 65.984188 59.777641 
L 66.045244 57.481479 
L 66.1063 60.582789 
L 66.167356 58.704111 
L 66.289467 60.940633 
L 66.350523 62.073804 
L 66.53369 59.151415 
L 66.594746 60.67225 
L 66.655802 60.254766 
L 66.777914 57.093815 
L 66.838969 62.550928 
L 66.961081 54.350349 
L 67.144249 61.298476 
L 67.205304 61.387937 
L 67.327416 58.64447 
L 67.388472 60.582789 
L 67.449528 58.883033 
L 67.510583 61.537038 
L 67.571639 60.046024 
L 67.632695 61.924702 
L 67.693751 61.65632 
L 67.754807 61.71596 
L 67.876918 64.489247 
L 68.060086 58.495369 
L 68.121142 61.477398 
L 68.182197 58.674291 
L 68.365365 63.713919 
L 68.426421 60.612609 
L 68.487476 62.014163 
L 68.548532 61.000273 
L 68.609588 66.159183 
L 68.670644 62.491288 
L 68.7317 62.342186 
L 68.792756 66.069722 
L 68.853811 64.75763 
L 69.036979 61.537038 
L 69.220146 66.666128 
L 69.342258 64.78745 
L 69.403314 65.503137 
L 69.464369 64.131403 
L 69.647537 67.978221 
L 69.830704 63.117514 
L 69.952816 66.338105 
L 70.013872 65.950441 
L 70.258095 68.634267 
L 70.380207 66.069722 
L 70.502318 70.721687 
L 70.563374 66.606487 
L 70.62443 71.288273 
L 70.685486 69.528876 
L 70.746542 67.799299 
L 70.807597 69.737618 
L 70.868653 67.799299 
L 70.929709 68.425525 
L 70.990765 70.393664 
L 71.051821 66.994151 
L 71.234988 70.691867 
L 71.296044 70.900609 
L 71.3571 69.260493 
L 71.418156 71.04971 
L 71.479211 69.021931 
L 71.540267 70.304203 
L 71.601323 69.379774 
L 71.662379 71.04971 
L 71.723435 70.721687 
L 71.78449 69.469235 
L 71.845546 69.618337 
L 71.906602 74.300122 
L 71.967658 72.749467 
L 72.028714 73.166951 
L 72.08977 69.528876 
L 72.150825 72.302162 
L 72.211881 72.510904 
L 72.272937 72.481084 
L 72.333993 70.930429 
L 72.456104 75.791136 
L 72.51716 74.956168 
L 72.639272 72.0636 
L 72.700328 75.791136 
L 72.761383 72.988029 
L 72.822439 72.928389 
L 72.883495 74.657965 
L 72.944551 72.928389 
L 73.005607 78.534603 
L 73.127718 72.451264 
L 73.188774 77.490893 
L 73.24983 76.029699 
L 73.310886 74.210661 
L 73.371942 75.015809 
L 73.432997 75.970058 
L 73.494053 74.061559 
L 73.555109 77.341791 
L 73.616165 73.852817 
L 73.677221 78.892446 
L 73.738277 74.300122 
L 73.799332 76.924307 
L 73.860388 74.09138 
L 73.921444 76.894487 
L 73.9825 74.836887 
L 74.165667 79.757235 
L 74.226723 78.683704 
L 74.287779 75.10527 
L 74.348835 77.789096 
L 74.40989 78.355681 
L 74.470946 78.325861 
L 74.532002 77.103229 
L 74.654114 79.190649 
L 74.71517 75.642035 
L 74.776225 76.775206 
L 74.837281 80.294 
L 74.898337 78.027658 
L 74.959393 75.373652 
L 75.14256 82.262139 
L 75.203616 77.878556 
L 75.264672 81.099148 
L 75.386783 79.160829 
L 75.447839 81.33771 
L 75.508895 81.188608 
L 75.569951 80.860585 
L 75.692063 81.278069 
L 75.753118 80.085258 
L 75.936286 81.427171 
L 75.997342 80.681663 
L 76.119453 84.916144 
L 76.180509 84.4092 
L 76.241565 81.36753 
L 76.302621 81.725374 
L 76.424732 82.619982 
L 76.546844 82.083217 
L 76.668956 84.4092 
L 76.730011 82.530521 
L 76.791067 83.604052 
L 76.852123 84.319739 
L 76.974235 81.30789 
L 77.03529 85.959855 
L 77.096346 81.665733 
L 77.157402 85.423089 
L 77.218458 81.218429 
L 77.279514 86.705362 
L 77.34057 83.872434 
L 77.401625 86.914104 
L 77.462681 83.961895 
L 77.523737 86.198417 
L 77.584793 84.170637 
L 77.645849 84.767043 
L 77.706904 86.079136 
L 77.76796 84.528481 
L 77.829016 87.122846 
L 77.890072 86.466799 
L 77.951128 85.273988 
L 78.012184 88.464759 
L 78.073239 86.019495 
L 78.195351 88.136736 
L 78.256407 85.840573 
L 78.317463 87.719252 
L 78.50063 90.403077 
L 78.561686 87.242127 
L 78.622742 88.912063 
L 78.683797 87.57015 
L 78.805909 91.65553 
L 78.928021 91.297686 
L 78.989077 89.717211 
L 79.050132 90.075054 
L 79.111188 89.65757 
L 79.172244 88.256017 
L 79.355411 91.68535 
L 79.477523 90.70128 
L 79.538579 90.64164 
L 79.599635 89.62775 
L 79.721746 91.894092 
L 79.782802 91.65553 
L 79.843858 89.329547 
L 79.904914 89.508469 
L 79.96597 90.910022 
L 80.027025 90.492538 
L 80.088081 91.148585 
L 80.271249 94.428816 
L 80.332304 90.999483 
L 80.39336 93.74295 
L 80.576528 92.073014 
L 80.698639 93.951692 
L 80.759695 93.593848 
L 80.820751 95.740909 
L 80.881807 94.220074 
L 81.064974 91.864272 
L 81.12603 92.460677 
L 81.248142 95.174324 
L 81.309197 93.593848 
L 81.370253 96.098753 
L 81.431309 95.204144 
L 81.492365 94.548098 
L 81.675532 97.351205 
L 81.797644 94.75684 
L 81.8587 97.94761 
L 81.919756 97.261744 
L 81.980811 97.649408 
L 82.041867 96.993361 
L 82.163979 93.444747 
L 82.225035 94.488457 
L 82.286091 93.385106 
L 82.408202 97.142463 
L 82.469258 95.472526 
L 82.530314 96.158393 
L 82.59137 96.784619 
L 82.652425 96.426776 
L 82.713481 99.438625 
L 82.835593 95.502347 
L 83.079816 99.468445 
L 83.201928 98.007251 
L 83.324039 99.289523 
L 83.385095 98.245813 
L 83.446151 98.9615 
L 83.507207 101.198022 
L 83.568263 98.544016 
L 83.629318 98.991321 
L 83.690374 100.512155 
L 83.75143 99.229883 
L 83.812486 99.885929 
L 83.873542 99.557906 
L 84.056709 102.241732 
L 84.239877 99.349164 
L 84.300932 102.569755 
L 84.361988 100.98928 
L 84.423044 101.168202 
L 84.545156 103.017059 
L 84.606211 100.810358 
L 84.667267 101.883888 
L 84.728323 102.331193 
L 84.789379 101.675146 
L 84.850435 102.182091 
L 84.911491 102.361013 
L 84.972546 104.746636 
L 85.033602 103.434543 
L 85.094658 101.854068 
L 85.155714 102.927599 
L 85.21677 103.434543 
L 85.277825 102.00317 
L 85.338881 103.285442 
L 85.399937 103.10652 
L 85.583105 101.734787 
L 85.766272 104.508074 
L 85.827328 104.209871 
L 85.949439 105.849987 
L 86.010495 102.689036 
L 86.071551 105.19394 
L 86.132607 103.792387 
L 86.193663 103.971309 
L 86.254718 105.909627 
L 86.315774 102.718857 
L 86.37683 103.583645 
L 86.437886 104.597535 
L 86.498942 107.579564 
L 86.621053 103.10652 
L 86.682109 104.448433 
L 86.743165 107.132259 
L 86.804221 105.969268 
L 86.926332 105.521964 
L 87.048444 106.625314 
L 87.1095 105.730706 
L 87.170556 107.341001 
L 87.231612 106.863877 
L 87.475835 108.444352 
L 87.536891 107.072619 
L 87.597946 108.653094 
L 87.659002 106.237651 
L 87.84217 108.802195 
L 87.964281 108.951297 
L 88.025337 107.669024 
L 88.086393 109.607343 
L 88.147449 109.27932 
L 88.208505 105.283401 
L 88.330616 110.114288 
L 88.513784 107.967227 
L 88.635895 110.680874 
L 88.696951 109.726624 
L 88.758007 106.058729 
L 88.819063 108.981117 
L 88.880118 108.175969 
L 88.941174 108.712735 
L 89.00223 111.754404 
L 89.063286 110.35285 
L 89.124342 107.1919 
L 89.185398 108.921477 
L 89.307509 110.144108 
L 89.490677 113.185778 
L 89.673844 109.845905 
L 89.918067 113.45416 
L 89.979123 110.621233 
L 90.040179 111.098358 
L 90.101235 111.277279 
L 90.162291 110.740514 
L 90.284402 114.617152 
L 90.345458 110.084468 
L 90.406514 111.36674 
L 90.46757 114.378589 
L 90.589681 110.382671 
L 90.711793 114.318949 
L 90.772849 112.142068 
L 90.833905 112.171888 
L 90.89496 113.603262 
L 90.956016 111.873685 
L 91.017072 113.513801 
L 91.139184 111.724584 
L 91.261295 114.945175 
L 91.322351 113.633082 
L 91.383407 114.199668 
L 91.444463 114.557511 
L 91.505519 113.096317 
L 91.688686 117.479899 
L 91.810798 114.229488 
L 91.871853 115.124097 
L 91.932909 116.853673 
L 91.993965 113.275239 
L 92.055021 115.213557 
L 92.116077 115.869604 
L 92.177132 114.945175 
L 92.238188 115.929244 
L 92.299244 114.199668 
L 92.3603 116.406369 
L 92.421356 115.004815 
L 92.543467 116.704572 
L 92.665579 115.124097 
L 92.726635 117.53954 
L 92.787691 115.660862 
L 92.848746 117.629001 
L 92.909802 117.062415 
L 92.970858 116.674751 
L 93.031914 116.883494 
L 93.215081 117.927204 
L 93.276137 114.527691 
L 93.337193 119.448038 
L 93.398249 116.734392 
L 93.459305 118.314867 
L 93.52036 117.629001 
L 93.764584 115.243378 
L 93.825639 118.493789 
L 93.886695 117.241337 
L 93.947751 116.972954 
L 94.069863 118.493789 
L 94.191974 115.809963 
L 94.375142 119.835702 
L 94.436198 117.629001 
L 94.497253 118.732351 
L 94.558309 117.50972 
L 94.619365 121.058334 
L 94.680421 116.943134 
L 94.741477 120.193546 
L 94.802532 119.507679 
L 94.863588 120.879412 
L 94.9857 117.181696 
L 95.107812 118.165766 
L 95.413091 121.535458 
L 95.535202 118.791992 
L 95.596258 119.120015 
L 95.779426 121.028514 
L 95.840481 122.608989 
L 95.901537 121.863482 
L 95.962593 120.044444 
L 96.023649 120.491748 
L 96.084705 120.074264 
L 96.267872 122.012583 
L 96.328928 119.388398 
L 96.389984 121.416177 
L 96.451039 120.461928 
L 96.512095 123.533418 
L 96.573151 122.430067 
L 96.634207 121.207435 
L 96.695263 121.952943 
L 96.817374 122.430067 
L 96.87843 122.221325 
L 97.000542 121.71438 
L 97.061598 122.489708 
L 97.122653 121.71438 
L 97.244765 122.937012 
L 97.305821 121.147795 
L 97.366877 123.324676 
L 97.427933 122.012583 
L 97.488988 122.191505 
L 97.550044 126.008502 
L 97.6111 121.923122 
L 97.672156 122.817731 
L 97.733212 123.145754 
L 97.794267 124.606948 
L 97.916379 120.998693 
L 97.977435 122.280966 
L 98.038491 124.398206 
L 98.099546 122.668629 
L 98.160602 123.652699 
L 98.221658 121.356537 
L 98.282714 123.026473 
L 98.404826 122.370427 
L 98.587993 125.173534 
L 98.649049 123.324676 
L 98.710105 125.054253 
L 98.77116 123.473777 
L 98.893272 125.143713 
L 99.015384 123.086113 
L 99.07644 123.71234 
L 99.137495 125.561197 
L 99.198551 124.606948 
L 99.259607 125.054253 
L 99.320663 126.90311 
L 99.381719 122.579169 
L 99.442774 124.696409 
L 99.564886 126.276884 
L 99.748053 123.265035 
L 99.809109 123.324676 
L 99.931221 125.680479 
L 99.992277 124.81569 
L 100.053333 122.996653 
L 100.114388 124.84551 
L 100.175444 124.696409 
L 100.2365 124.577128 
L 100.358612 125.769939 
L 100.419667 126.425986 
L 100.480723 126.157603 
L 100.602835 124.875331 
L 100.663891 126.157603 
L 100.724946 124.905151 
L 100.786002 125.024432 
L 100.908114 126.425986 
L 100.96917 125.591018 
L 101.030226 126.127783 
L 101.091281 127.797719 
L 101.152337 125.650658 
L 101.213393 126.336525 
L 101.274449 125.561197 
L 101.335505 125.680479 
L 101.457616 126.545267 
L 101.518672 124.905151 
L 101.579728 124.934971 
L 101.640784 127.201313 
L 101.70184 123.861441 
L 101.762895 127.320594 
L 101.823951 126.455806 
L 101.885007 126.097963 
L 101.946063 124.726229 
L 102.007119 126.187423 
L 102.068174 126.157603 
L 102.12923 125.82958 
L 102.190286 126.336525 
L 102.251342 125.978681 
L 102.312398 126.097963 
L 102.434509 127.022392 
L 102.556621 125.948861 
L 102.617677 128.006461 
L 102.678733 126.87329 
L 102.800844 128.543226 
L 102.984012 125.471737 
L 103.167179 128.394125 
L 103.228235 126.545267 
L 103.289291 127.022392 
L 103.350347 126.87329 
L 103.472458 125.113893 
L 103.533514 127.738078 
L 103.59457 126.84347 
L 103.655626 127.052212 
L 103.716681 126.425986 
L 103.777737 128.006461 
L 103.838793 126.664548 
L 103.899849 128.334484 
L 103.960905 125.79976 
L 104.02196 127.350415 
L 104.083016 128.722148 
L 104.144072 126.485626 
L 104.205128 128.334484 
L 104.266184 126.396165 
L 104.32724 128.781789 
L 104.388295 127.290774 
L 104.449351 126.366345 
L 104.510407 126.694368 
L 104.632519 129.795678 
L 104.693574 127.738078 
L 104.75463 128.364305 
L 104.876742 126.992571 
L 104.937798 127.320594 
L 104.998854 128.90107 
L 105.059909 126.247064 
L 105.120965 128.066102 
L 105.243077 126.694368 
L 105.365188 128.215203 
L 105.548356 126.962751 
L 105.609412 127.141673 
L 105.792579 128.781789 
L 105.853635 127.499516 
L 105.914691 128.453765 
L 105.975747 129.467655 
L 106.036802 127.499516 
L 106.097858 128.453765 
L 106.158914 128.871249 
L 106.21997 127.141673 
L 106.281026 127.797719 
L 106.403137 129.676397 
L 106.525249 126.575087 
L 106.586305 126.932931 
L 106.64736 128.513406 
L 106.708416 127.708258 
L 106.830528 129.199273 
L 106.891584 127.976641 
L 106.95264 128.453765 
L 107.074751 127.648618 
L 107.135807 128.364305 
L 107.257919 127.141673 
L 107.38003 129.348374 
L 107.502142 126.157603 
L 107.685309 128.483586 
L 107.746365 127.85736 
L 107.807421 128.93089 
L 107.868477 126.694368 
L 107.990588 129.795678 
L 108.1127 127.85736 
L 108.173756 128.692328 
L 108.234812 127.648618 
L 108.295867 128.453765 
L 108.356923 128.155563 
L 108.417979 129.91496 
L 108.479035 128.871249 
L 108.540091 128.722148 
L 108.601147 126.754009 
L 108.723258 130.00442 
L 108.784314 129.378194 
L 108.84537 127.111852 
L 108.906426 130.00442 
L 108.967481 127.231134 
L 109.028537 130.242983 
L 109.089593 126.694368 
L 109.150649 128.543226 
L 109.211705 127.827539 
L 109.272761 129.616757 
L 109.333816 128.573047 
L 109.394872 128.543226 
L 109.455928 128.841429 
L 109.57804 127.171493 
L 109.639095 129.169452 
L 109.700151 128.394125 
L 109.761207 126.87329 
L 109.944374 129.855319 
L 110.00543 127.85736 
L 110.066486 128.781789 
L 110.127542 128.483586 
L 110.188598 131.077951 
L 110.249654 129.079991 
L 110.310709 128.185383 
L 110.371765 129.348374 
L 110.432821 128.841429 
L 110.493877 127.141673 
L 110.554933 127.231134 
L 110.677044 129.527296 
L 110.799156 127.976641 
L 110.860212 130.481545 
L 110.921268 129.497475 
L 111.043379 127.708258 
L 111.104435 129.348374 
L 111.165491 129.258913 
L 111.226547 128.334484 
L 111.287602 129.229093 
L 111.409714 127.499516 
L 111.531826 129.855319 
L 111.592881 128.90107 
L 111.653937 128.066102 
L 111.898161 130.720107 
L 111.959216 129.139632 
L 112.020272 129.855319 
L 112.081328 130.392084 
L 112.142384 128.125742 
L 112.20344 129.437835 
L 112.264495 129.646577 
L 112.325551 128.722148 
L 112.386607 131.972559 
L 112.447663 127.678438 
L 112.508719 128.095922 
L 112.63083 130.302623 
L 112.691886 129.9746 
L 112.813998 129.109812 
L 112.875054 128.990531 
L 112.936109 129.109812 
L 113.058221 129.736038 
L 113.119277 127.439876 
L 113.241388 130.481545 
L 113.302444 128.423945 
L 113.3635 128.573047 
L 113.485612 130.928849 
L 113.546668 129.229093 
L 113.607723 129.497475 
L 113.668779 129.109812 
L 113.729835 131.793638 
L 113.790891 129.229093 
L 113.851947 129.258913 
L 113.974058 130.272803 
L 114.09617 130.00442 
L 114.157226 128.90107 
L 114.218281 130.272803 
L 114.279337 129.467655 
L 114.401449 130.421904 
L 114.462505 129.318554 
L 114.523561 130.332444 
L 114.584616 130.034241 
L 114.645672 128.513406 
L 114.767784 130.571006 
L 114.950951 127.917 
L 115.012007 132.181301 
L 115.073063 130.779748 
L 115.134119 128.334484 
L 115.195175 128.871249 
L 115.25623 130.720107 
L 115.317286 128.93089 
L 115.378342 131.227052 
L 115.439398 129.109812 
L 115.500454 130.451725 
L 115.683621 127.559157 
L 115.744677 128.453765 
L 115.927844 130.98849 
L 115.9889 130.153522 
L 116.049956 129.94478 
L 116.111012 130.749928 
L 116.172068 129.91496 
L 116.233123 131.286693 
L 116.416291 128.274844 
L 116.477347 130.98849 
L 116.538402 130.809568 
L 116.660514 130.541186 
L 116.72157 128.841429 
L 116.782626 129.706217 
L 116.965793 129.288733 
L 117.026849 129.557116 
L 117.087905 131.346333 
L 117.148961 130.481545 
L 117.332128 133.284652 
L 117.393184 132.091841 
L 117.45424 132.211122 
L 117.515295 131.883099 
L 117.637407 129.348374 
L 117.88163 131.584896 
L 118.003742 130.213162 
L 118.064798 131.644536 
L 118.125854 130.869209 
L 118.186909 131.674357 
L 118.247965 131.04813 
L 118.370077 131.912919 
L 118.492188 130.720107 
L 118.553244 130.720107 
L 118.6143 131.01831 
L 118.675356 132.896988 
L 118.736412 130.779748 
L 118.797468 131.674357 
L 118.980635 130.272803 
L 119.041691 132.419864 
L 119.102747 131.405974 
L 119.163802 132.658426 
L 119.34697 130.481545 
L 119.530137 131.704177 
L 119.591193 131.376154 
L 119.652249 132.390043 
L 119.713305 131.227052 
L 119.774361 131.883099 
L 119.957528 131.912919 
L 120.018584 131.077951 
L 120.07964 132.658426 
L 120.201751 130.571006 
L 120.262807 131.077951 
L 120.323863 132.896988 
L 120.384919 130.899029 
L 120.445975 132.211122 
L 120.568086 131.376154 
L 120.629142 129.736038 
L 120.690198 132.151481 
L 120.751254 132.121661 
L 120.873365 130.392084 
L 120.934421 131.227052 
L 120.995477 131.883099 
L 121.056533 131.346333 
L 121.178644 131.077951 
L 121.300756 129.050171 
L 121.422868 131.137591 
L 121.544979 130.899029 
L 121.667091 131.495435 
L 121.728147 128.751968 
L 121.789202 130.302623 
L 121.850258 130.242983 
L 122.094482 132.867168 
L 122.216593 131.01831 
L 122.277649 131.972559 
L 122.338705 132.390043 
L 122.460816 130.600826 
L 122.521872 132.598785 
L 122.582928 130.660467 
L 122.643984 132.091841 
L 122.70504 133.284652 
L 122.766096 132.867168 
L 122.827151 133.314472 
L 122.888207 131.525255 
L 122.949263 132.747887 
L 123.010319 132.837348 
L 123.13243 130.809568 
L 123.193486 132.240942 
L 123.254542 131.942739 
L 123.376654 131.555075 
L 123.437709 133.702136 
L 123.498765 131.942739 
L 123.559821 132.896988 
L 123.620877 132.121661 
L 123.681933 132.121661 
L 123.742989 133.642496 
L 123.804044 130.899029 
L 123.8651 131.793638 
L 123.926156 133.672316 
L 124.109323 130.481545 
L 124.353547 132.479504 
L 124.475658 129.050171 
L 124.59777 133.195191 
L 124.658826 132.390043 
L 124.719882 131.584896 
L 124.780937 132.986449 
L 124.841993 132.688246 
L 124.903049 131.435794 
L 124.964105 133.07591 
L 125.086216 131.077951 
L 125.147272 132.658426 
L 125.208328 131.465615 
L 125.33044 134.05998 
L 125.391496 132.181301 
L 125.452551 133.01627 
L 125.574663 131.525255 
L 125.635719 133.821417 
L 125.696775 133.672316 
L 125.75783 132.0322 
L 125.818886 132.956629 
L 125.879942 132.896988 
L 125.940998 131.972559 
L 126.002054 134.716026 
L 126.063109 133.195191 
L 126.185221 130.839388 
L 126.246277 132.479504 
L 126.307333 130.183342 
L 126.368389 133.225012 
L 126.429444 130.720107 
L 126.4905 133.940698 
L 126.551556 131.763817 
L 126.612612 133.314472 
L 126.673668 132.06202 
L 126.795779 132.658426 
L 126.917891 131.942739 
L 127.101058 134.179261 
L 127.22317 132.121661 
L 127.284226 132.330403 
L 127.345282 134.14944 
L 127.406337 133.433754 
L 127.467393 133.970519 
L 127.528449 130.809568 
L 127.589505 131.346333 
L 127.650561 133.374113 
L 127.711616 132.300583 
L 127.833728 134.238901 
L 128.016896 131.555075 
L 128.261119 132.270762 
L 128.322175 133.463574 
L 128.38323 133.433754 
L 128.505342 132.121661 
L 128.566398 132.986449 
L 128.627454 132.270762 
L 128.68851 132.419864 
L 128.749565 132.270762 
L 128.871677 133.01627 
L 128.932733 134.328362 
L 128.993789 132.449684 
L 129.054844 133.374113 
L 129.238012 132.807527 
L 129.299068 133.225012 
L 129.360123 132.00238 
L 129.421179 132.449684 
L 129.482235 134.298542 
L 129.543291 130.421904 
L 129.604347 132.151481 
L 129.665403 133.165371 
L 129.726458 131.912919 
L 129.787514 133.523214 
L 129.84857 130.98849 
L 129.909626 132.926809 
L 129.970682 132.986449 
L 130.153849 134.388003 
L 130.398072 131.733997 
L 130.58124 134.179261 
L 130.642296 132.926809 
L 130.703351 133.702136 
L 130.764407 133.672316 
L 130.825463 132.718067 
L 130.886519 133.821417 
L 131.00863 131.942739 
L 131.069686 133.702136 
L 131.130742 133.165371 
L 131.252854 133.851238 
L 131.31391 131.823458 
L 131.374965 132.747887 
L 131.436021 133.135551 
L 131.558133 132.658426 
L 131.619189 134.179261 
L 131.802356 131.733997 
L 131.863412 132.837348 
L 131.924468 132.658426 
L 132.046579 133.225012 
L 132.107635 131.435794 
L 132.168691 132.658426 
L 132.229747 134.835307 
L 132.290803 133.553035 
L 132.47397 132.718067 
L 132.657137 132.240942 
L 132.718193 133.135551 
L 132.779249 131.107771 
L 132.840305 132.390043 
L 132.962417 134.447643 
L 133.023472 131.853278 
L 133.084528 132.867168 
L 133.145584 132.688246 
L 133.20664 135.16333 
L 133.267696 130.98849 
L 133.328751 133.314472 
L 133.389807 133.314472 
L 133.450863 133.433754 
L 133.511919 132.867168 
L 133.572975 133.433754 
L 133.63403 131.704177 
L 133.695086 134.030159 
L 133.756142 132.539145 
L 133.817198 133.433754 
L 133.878254 133.04609 
L 133.93931 132.867168 
L 134.000365 133.672316 
L 134.183533 132.091841 
L 134.244589 132.807527 
L 134.305644 132.509325 
L 134.3667 132.568965 
L 134.427756 134.775667 
L 134.488812 132.449684 
L 134.549868 134.477464 
L 134.610924 132.539145 
L 134.671979 133.702136 
L 134.733035 133.702136 
L 134.794091 132.628606 
L 134.855147 133.04609 
L 134.916203 132.986449 
L 134.977258 131.614716 
L 135.09937 133.642496 
L 135.160426 133.254832 
L 135.221482 133.612675 
L 135.404649 132.121661 
L 135.465705 133.970519 
L 135.526761 133.612675 
L 135.587817 132.539145 
L 135.648872 132.837348 
L 135.709928 135.968478 
L 135.770984 132.926809 
L 135.83204 133.821417 
L 135.954151 132.240942 
L 136.076263 134.835307 
L 136.137319 134.179261 
L 136.259431 131.763817 
L 136.381542 133.642496 
L 136.503654 132.479504 
L 136.625765 134.209081 
L 136.686821 132.270762 
L 136.747877 133.344293 
L 136.808933 132.658426 
L 136.869989 133.851238 
L 136.931044 132.688246 
L 136.9921 132.867168 
L 137.053156 134.477464 
L 137.114212 134.030159 
L 137.175268 134.507284 
L 137.236324 134.268722 
L 137.297379 134.14944 
L 137.358435 131.405974 
L 137.419491 133.314472 
L 137.480547 135.461533 
L 137.541603 132.926809 
L 137.602658 133.463574 
L 137.663714 133.553035 
L 137.846882 131.883099 
L 137.968993 135.312432 
L 138.030049 133.254832 
L 138.091105 133.612675 
L 138.152161 134.14944 
L 138.274272 131.853278 
L 138.335328 134.894948 
L 138.396384 134.05998 
L 138.579551 132.419864 
L 138.640607 134.030159 
L 138.701663 132.181301 
L 138.762719 133.851238 
L 138.823775 133.284652 
L 138.884831 132.330403 
L 138.945886 133.04609 
L 139.006942 134.417823 
L 139.067998 132.449684 
L 139.129054 133.970519 
L 139.19011 134.984409 
L 139.251165 132.568965 
L 139.312221 132.747887 
L 139.373277 132.867168 
L 139.434333 135.312432 
L 139.495389 133.791597 
L 139.6175 134.954588 
L 139.678556 133.01627 
L 139.739612 133.582855 
L 139.800668 133.463574 
L 139.861724 131.584896 
L 139.922779 133.553035 
L 139.983835 133.523214 
L 140.105947 132.777707 
L 140.167003 132.718067 
L 140.289114 135.16333 
L 140.472282 131.883099 
L 140.594393 133.523214 
L 140.655449 132.837348 
L 140.716505 133.195191 
L 140.777561 134.566924 
L 140.838617 134.447643 
L 140.899672 131.853278 
L 140.960728 135.014229 
L 141.021784 133.910878 
L 141.08284 134.954588 
L 141.266007 133.225012 
L 141.327063 133.970519 
L 141.388119 132.151481 
L 141.449175 133.910878 
L 141.510231 133.612675 
L 141.632342 134.179261 
L 141.693398 132.06202 
L 141.754454 134.984409 
L 141.81551 133.254832 
L 141.876565 134.209081 
L 141.937621 133.284652 
L 141.998677 133.642496 
L 142.059733 134.596745 
L 142.120789 131.972559 
L 142.181845 133.04609 
L 142.365012 134.507284 
L 142.548179 132.270762 
L 142.670291 134.238901 
L 142.792403 133.523214 
L 142.853458 133.731956 
L 142.914514 132.479504 
L 142.97557 132.718067 
L 143.158738 134.894948 
L 143.280849 132.628606 
L 143.341905 133.403933 
L 143.402961 134.745846 
L 143.586128 132.360223 
L 143.70824 134.209081 
L 143.769296 132.628606 
L 143.830351 133.582855 
L 143.891407 134.030159 
L 144.074575 132.419864 
L 144.135631 134.268722 
L 144.196686 133.225012 
L 144.257742 131.167412 
L 144.318798 134.328362 
L 144.379854 133.254832 
L 144.501965 134.209081 
L 144.563021 133.821417 
L 144.746189 133.582855 
L 144.807245 134.686206 
L 144.8683 133.910878 
L 144.929356 132.598785 
L 144.990412 133.284652 
L 145.051468 134.11962 
L 145.112524 134.05998 
L 145.173579 133.10573 
L 145.234635 133.493394 
L 145.295691 133.463574 
L 145.417803 134.328362 
L 145.60097 132.390043 
L 145.662026 132.568965 
L 145.723082 134.209081 
L 145.784138 132.896988 
L 145.845193 132.837348 
L 145.906249 133.582855 
L 145.967305 131.793638 
L 146.089417 134.0898 
L 146.211528 133.731956 
L 146.272584 132.0322 
L 146.33364 132.598785 
L 146.394696 134.209081 
L 146.455752 133.314472 
L 146.516807 132.628606 
L 146.577863 134.447643 
L 146.638919 132.777707 
L 146.699975 134.358182 
L 146.761031 132.270762 
L 146.822086 134.656385 
L 146.883142 132.777707 
L 146.944198 133.642496 
L 147.005254 132.747887 
L 147.06631 132.986449 
L 147.127365 133.314472 
L 147.188421 134.805487 
L 147.249477 134.268722 
L 147.371589 133.01627 
L 147.4937 134.298542 
L 147.615812 132.300583 
L 147.798979 133.821417 
L 147.921091 133.642496 
L 147.982147 134.596745 
L 148.043203 132.360223 
L 148.104259 133.791597 
L 148.165314 132.539145 
L 148.287426 136.922727 
L 148.348482 135.014229 
L 148.409538 132.091841 
L 148.470593 132.986449 
L 148.592705 135.13351 
L 148.653761 133.851238 
L 148.714817 133.940698 
L 148.775872 133.851238 
L 148.836928 134.537104 
L 148.897984 134.358182 
L 148.95904 133.612675 
L 149.020096 134.894948 
L 149.081152 134.000339 
L 149.142207 134.626565 
L 149.264319 132.658426 
L 149.325375 132.807527 
L 149.386431 134.14944 
L 149.447486 133.165371 
L 149.508542 132.181301 
L 149.630654 134.716026 
L 149.69171 132.360223 
L 149.752765 133.314472 
L 149.874877 134.209081 
L 149.996989 133.07591 
L 150.058045 134.328362 
L 150.180156 133.135551 
L 150.241212 135.10369 
L 150.302268 132.628606 
L 150.363324 133.493394 
L 150.424379 132.747887 
L 150.485435 133.01627 
L 150.546491 134.238901 
L 150.607547 134.179261 
L 150.668603 133.970519 
L 150.729659 135.342252 
L 150.85177 132.479504 
L 150.912826 132.419864 
L 150.973882 134.716026 
L 151.034938 133.403933 
L 151.095993 132.986449 
L 151.279161 134.984409 
L 151.340217 134.537104 
L 151.401272 135.342252 
L 151.462328 133.01627 
L 151.523384 134.566924 
L 151.706552 132.747887 
L 151.767607 133.403933 
L 151.828663 131.763817 
L 151.889719 134.11962 
L 151.950775 133.10573 
L 152.011831 134.268722 
L 152.072886 132.568965 
L 152.133942 134.835307 
L 152.194998 134.000339 
L 152.31711 132.449684 
L 152.561333 134.656385 
L 152.622389 131.435794 
L 152.683445 133.374113 
L 152.7445 132.956629 
L 152.805556 133.881058 
L 152.866612 133.403933 
L 152.988724 134.298542 
L 153.049779 136.117579 
L 153.110835 135.550994 
L 153.294003 131.227052 
L 153.355059 134.447643 
L 153.416114 131.853278 
L 153.599282 134.268722 
L 153.660338 134.0898 
L 153.721393 134.11962 
L 153.782449 135.342252 
L 153.965617 134.05998 
L 154.087728 133.225012 
L 154.270896 134.924768 
L 154.454063 132.151481 
L 154.515119 131.674357 
L 154.576175 132.00238 
L 154.698286 133.970519 
L 154.759342 132.837348 
L 154.881454 135.342252 
L 155.003566 132.00238 
L 155.064621 134.358182 
L 155.125677 132.747887 
L 155.186733 134.11962 
L 155.247789 131.942739 
L 155.3699 134.298542 
L 155.430956 131.227052 
L 155.492012 134.14944 
L 155.553068 132.568965 
L 155.614124 132.270762 
L 155.675179 132.300583 
L 155.736235 134.417823 
L 155.797291 132.240942 
L 155.858347 134.716026 
L 155.919403 133.582855 
L 155.980459 134.507284 
L 156.041514 133.374113 
L 156.10257 133.463574 
L 156.163626 133.463574 
L 156.224682 132.986449 
L 156.285738 135.16333 
L 156.407849 132.0322 
L 156.529961 134.686206 
L 156.774184 132.926809 
L 156.83524 132.896988 
L 156.896296 134.328362 
L 156.957352 133.314472 
L 157.079463 134.984409 
L 157.201575 132.06202 
L 157.384742 135.073869 
L 157.506854 133.04609 
L 157.56791 134.686206 
L 157.628966 133.910878 
L 157.751077 132.211122 
L 157.873189 135.610635 
L 157.934245 134.566924 
L 157.9953 135.580814 
L 158.056356 134.924768 
L 158.117412 135.073869 
L 158.178468 131.644536 
L 158.239524 132.896988 
L 158.30058 131.853278 
L 158.361635 133.851238 
L 158.422691 131.316513 
L 158.483747 134.477464 
L 158.544803 134.14944 
L 158.666914 133.10573 
L 158.72797 134.716026 
L 158.789026 134.298542 
L 158.850082 132.926809 
L 158.911138 134.417823 
L 158.972193 134.388003 
L 159.033249 133.433754 
L 159.094305 134.358182 
L 159.155361 133.731956 
L 159.216417 133.881058 
L 159.277473 133.702136 
L 159.338528 133.910878 
L 159.399584 133.403933 
L 159.46064 133.821417 
L 159.521696 134.358182 
L 159.582752 133.493394 
L 159.643807 133.881058 
L 159.704863 134.477464 
L 159.765919 134.209081 
L 159.826975 133.284652 
L 159.888031 134.596745 
L 159.949087 133.612675 
L 160.071198 134.716026 
L 160.132254 133.165371 
L 160.19331 134.656385 
L 160.254366 134.537104 
L 160.315421 134.238901 
L 160.437533 132.837348 
L 160.498589 135.431713 
L 160.559645 131.197232 
L 160.6207 132.240942 
L 160.742812 134.358182 
L 160.803868 132.598785 
L 160.864924 134.000339 
L 160.92598 134.775667 
L 161.048091 132.419864 
L 161.109147 133.970519 
L 161.170203 133.582855 
L 161.231259 134.11962 
L 161.292314 133.970519 
L 161.414426 133.761777 
L 161.475482 132.00238 
L 161.536538 134.507284 
L 161.597594 133.672316 
L 161.658649 134.358182 
L 161.719705 133.582855 
L 161.780761 134.268722 
L 161.841817 132.867168 
L 161.963928 134.596745 
L 162.08604 132.986449 
L 162.147096 133.523214 
L 162.208152 132.777707 
L 162.269207 134.417823 
L 162.330263 132.718067 
L 162.391319 134.745846 
L 162.452375 134.298542 
L 162.513431 134.477464 
L 162.81871 132.390043 
L 162.879766 134.805487 
L 162.879766 134.805487 
" clip-path="url(#pcee8d74636)" style="fill: none; stroke: #1f77b4; stroke-width: 0.5; stroke-linecap: square"/>
   </g>
   <g id="patch_3">
    <path d="M 23.410312 143.1 
L 23.410312 7.2 
" style="fill: none; stroke: #000000; stroke-width: 0.8; stroke-linejoin: miter; stroke-linecap: square"/>
   </g>
   <g id="patch_4">
    <path d="M 162.910313 143.1 
L 162.910313 7.2 
" style="fill: none; stroke: #000000; stroke-width: 0.8; stroke-linejoin: miter; stroke-linecap: square"/>
   </g>
   <g id="patch_5">
    <path d="M 23.410312 143.1 
L 162.910313 143.1 
" style="fill: none; stroke: #000000; stroke-width: 0.8; stroke-linejoin: miter; stroke-linecap: square"/>
   </g>
   <g id="patch_6">
    <path d="M 23.410312 7.2 
L 162.910313 7.2 
" style="fill: none; stroke: #000000; stroke-width: 0.8; stroke-linejoin: miter; stroke-linecap: square"/>
   </g>
  </g>
 </g>
 <defs>
  <clipPath id="pcee8d74636">
   <rect x="23.410312" y="7.2" width="139.5" height="135.9"/>
  </clipPath>
 </defs>
</svg>
