<?xml version="1.0" encoding="utf-8" standalone="no"?>
<!DOCTYPE svg PUBLIC "-//W3C//DTD SVG 1.1//EN"
  "http://www.w3.org/Graphics/SVG/1.1/DTD/svg11.dtd">
<svg xmlns:xlink="http://www.w3.org/1999/xlink" width="170.110313pt" height="177.752813pt" viewBox="0 0 170.110313 177.752813" xmlns="http://www.w3.org/2000/svg" version="1.1">
 <metadata>
  <rdf:RDF xmlns:dc="http://purl.org/dc/elements/1.1/" xmlns:cc="http://creativecommons.org/ns#" xmlns:rdf="http://www.w3.org/1999/02/22-rdf-syntax-ns#">
   <cc:Work>
    <dc:type rdf:resource="http://purl.org/dc/dcmitype/StillImage"/>
    <dc:date>2023-02-25T15:21:28.773374</dc:date>
    <dc:format>image/svg+xml</dc:format>
    <dc:creator>
     <cc:Agent>
      <dc:title>Matplotlib v3.5.2, https://matplotlib.org/</dc:title>
     </cc:Agent>
    </dc:creator>
   </cc:Work>
  </rdf:RDF>
 </metadata>
 <defs>
  <style type="text/css">*{stroke-linejoin: round; stroke-linecap: butt}</style>
 </defs>
 <g id="figure_1">
  <g id="patch_1">
   <path d="M 0 177.752813 
L 170.110313 177.752813 
L 170.110313 0 
L 0 0 
z
" style="fill: #ffffff"/>
  </g>
  <g id="axes_1">
   <g id="patch_2">
    <path d="M 23.410312 143.1 
L 162.910313 143.1 
L 162.910313 7.2 
L 23.410312 7.2 
z
" style="fill: #ffffff"/>
   </g>
   <g id="matplotlib.axis_1">
    <g id="xtick_1">
     <g id="line2d_1">
      <defs>
       <path id="ma6809493d0" d="M 0 0 
L 0 3.5 
" style="stroke: #000000; stroke-width: 0.8"/>
      </defs>
      <g>
       <use xlink:href="#ma6809493d0" x="58.285313" y="143.1" style="stroke: #000000; stroke-width: 0.8"/>
      </g>
     </g>
     <g id="text_1">
      <!-- 20 -->
      <g transform="translate(53.195312 156.17875)scale(0.08 -0.08)">
       <defs>
        <path id="DejaVuSans-32" d="M 1228 531 
L 3431 531 
L 3431 0 
L 469 0 
L 469 531 
Q 828 903 1448 1529 
Q 2069 2156 2228 2338 
Q 2531 2678 2651 2914 
Q 2772 3150 2772 3378 
Q 2772 3750 2511 3984 
Q 2250 4219 1831 4219 
Q 1534 4219 1204 4116 
Q 875 4013 500 3803 
L 500 4441 
Q 881 4594 1212 4672 
Q 1544 4750 1819 4750 
Q 2544 4750 2975 4387 
Q 3406 4025 3406 3419 
Q 3406 3131 3298 2873 
Q 3191 2616 2906 2266 
Q 2828 2175 2409 1742 
Q 1991 1309 1228 531 
z
" transform="scale(0.015625)"/>
        <path id="DejaVuSans-30" d="M 2034 4250 
Q 1547 4250 1301 3770 
Q 1056 3291 1056 2328 
Q 1056 1369 1301 889 
Q 1547 409 2034 409 
Q 2525 409 2770 889 
Q 3016 1369 3016 2328 
Q 3016 3291 2770 3770 
Q 2525 4250 2034 4250 
z
M 2034 4750 
Q 2819 4750 3233 4129 
Q 3647 3509 3647 2328 
Q 3647 1150 3233 529 
Q 2819 -91 2034 -91 
Q 1250 -91 836 529 
Q 422 1150 422 2328 
Q 422 3509 836 4129 
Q 1250 4750 2034 4750 
z
" transform="scale(0.015625)"/>
       </defs>
       <use xlink:href="#DejaVuSans-32"/>
       <use xlink:href="#DejaVuSans-30" x="63.623047"/>
      </g>
     </g>
    </g>
    <g id="xtick_2">
     <g id="line2d_2">
      <g>
       <use xlink:href="#ma6809493d0" x="104.785313" y="143.1" style="stroke: #000000; stroke-width: 0.8"/>
      </g>
     </g>
     <g id="text_2">
      <!-- 40 -->
      <g transform="translate(99.695312 156.17875)scale(0.08 -0.08)">
       <defs>
        <path id="DejaVuSans-34" d="M 2419 4116 
L 825 1625 
L 2419 1625 
L 2419 4116 
z
M 2253 4666 
L 3047 4666 
L 3047 1625 
L 3713 1625 
L 3713 1100 
L 3047 1100 
L 3047 0 
L 2419 0 
L 2419 1100 
L 313 1100 
L 313 1709 
L 2253 4666 
z
" transform="scale(0.015625)"/>
       </defs>
       <use xlink:href="#DejaVuSans-34"/>
       <use xlink:href="#DejaVuSans-30" x="63.623047"/>
      </g>
     </g>
    </g>
    <g id="xtick_3">
     <g id="line2d_3">
      <g>
       <use xlink:href="#ma6809493d0" x="151.285313" y="143.1" style="stroke: #000000; stroke-width: 0.8"/>
      </g>
     </g>
     <g id="text_3">
      <!-- 60 -->
      <g transform="translate(146.195312 156.17875)scale(0.08 -0.08)">
       <defs>
        <path id="DejaVuSans-36" d="M 2113 2584 
Q 1688 2584 1439 2293 
Q 1191 2003 1191 1497 
Q 1191 994 1439 701 
Q 1688 409 2113 409 
Q 2538 409 2786 701 
Q 3034 994 3034 1497 
Q 3034 2003 2786 2293 
Q 2538 2584 2113 2584 
z
M 3366 4563 
L 3366 3988 
Q 3128 4100 2886 4159 
Q 2644 4219 2406 4219 
Q 1781 4219 1451 3797 
Q 1122 3375 1075 2522 
Q 1259 2794 1537 2939 
Q 1816 3084 2150 3084 
Q 2853 3084 3261 2657 
Q 3669 2231 3669 1497 
Q 3669 778 3244 343 
Q 2819 -91 2113 -91 
Q 1303 -91 875 529 
Q 447 1150 447 2328 
Q 447 3434 972 4092 
Q 1497 4750 2381 4750 
Q 2619 4750 2861 4703 
Q 3103 4656 3366 4563 
z
" transform="scale(0.015625)"/>
       </defs>
       <use xlink:href="#DejaVuSans-36"/>
       <use xlink:href="#DejaVuSans-30" x="63.623047"/>
      </g>
     </g>
    </g>
    <g id="xtick_4">
     <g id="line2d_4">
      <defs>
       <path id="mf36107b1c8" d="M 0 0 
L 0 2 
" style="stroke: #000000; stroke-width: 0.6"/>
      </defs>
      <g>
       <use xlink:href="#mf36107b1c8" x="23.410312" y="143.1" style="stroke: #000000; stroke-width: 0.6"/>
      </g>
     </g>
    </g>
    <g id="xtick_5">
     <g id="line2d_5">
      <g>
       <use xlink:href="#mf36107b1c8" x="29.222812" y="143.1" style="stroke: #000000; stroke-width: 0.6"/>
      </g>
     </g>
    </g>
    <g id="xtick_6">
     <g id="line2d_6">
      <g>
       <use xlink:href="#mf36107b1c8" x="35.035313" y="143.1" style="stroke: #000000; stroke-width: 0.6"/>
      </g>
     </g>
    </g>
    <g id="xtick_7">
     <g id="line2d_7">
      <g>
       <use xlink:href="#mf36107b1c8" x="40.847813" y="143.1" style="stroke: #000000; stroke-width: 0.6"/>
      </g>
     </g>
    </g>
    <g id="xtick_8">
     <g id="line2d_8">
      <g>
       <use xlink:href="#mf36107b1c8" x="46.660313" y="143.1" style="stroke: #000000; stroke-width: 0.6"/>
      </g>
     </g>
    </g>
    <g id="xtick_9">
     <g id="line2d_9">
      <g>
       <use xlink:href="#mf36107b1c8" x="52.472813" y="143.1" style="stroke: #000000; stroke-width: 0.6"/>
      </g>
     </g>
    </g>
    <g id="xtick_10">
     <g id="line2d_10">
      <g>
       <use xlink:href="#mf36107b1c8" x="64.097813" y="143.1" style="stroke: #000000; stroke-width: 0.6"/>
      </g>
     </g>
    </g>
    <g id="xtick_11">
     <g id="line2d_11">
      <g>
       <use xlink:href="#mf36107b1c8" x="69.910313" y="143.1" style="stroke: #000000; stroke-width: 0.6"/>
      </g>
     </g>
    </g>
    <g id="xtick_12">
     <g id="line2d_12">
      <g>
       <use xlink:href="#mf36107b1c8" x="75.722813" y="143.1" style="stroke: #000000; stroke-width: 0.6"/>
      </g>
     </g>
    </g>
    <g id="xtick_13">
     <g id="line2d_13">
      <g>
       <use xlink:href="#mf36107b1c8" x="81.535313" y="143.1" style="stroke: #000000; stroke-width: 0.6"/>
      </g>
     </g>
    </g>
    <g id="xtick_14">
     <g id="line2d_14">
      <g>
       <use xlink:href="#mf36107b1c8" x="87.347813" y="143.1" style="stroke: #000000; stroke-width: 0.6"/>
      </g>
     </g>
    </g>
    <g id="xtick_15">
     <g id="line2d_15">
      <g>
       <use xlink:href="#mf36107b1c8" x="93.160313" y="143.1" style="stroke: #000000; stroke-width: 0.6"/>
      </g>
     </g>
    </g>
    <g id="xtick_16">
     <g id="line2d_16">
      <g>
       <use xlink:href="#mf36107b1c8" x="98.972813" y="143.1" style="stroke: #000000; stroke-width: 0.6"/>
      </g>
     </g>
    </g>
    <g id="xtick_17">
     <g id="line2d_17">
      <g>
       <use xlink:href="#mf36107b1c8" x="110.597813" y="143.1" style="stroke: #000000; stroke-width: 0.6"/>
      </g>
     </g>
    </g>
    <g id="xtick_18">
     <g id="line2d_18">
      <g>
       <use xlink:href="#mf36107b1c8" x="116.410313" y="143.1" style="stroke: #000000; stroke-width: 0.6"/>
      </g>
     </g>
    </g>
    <g id="xtick_19">
     <g id="line2d_19">
      <g>
       <use xlink:href="#mf36107b1c8" x="122.222813" y="143.1" style="stroke: #000000; stroke-width: 0.6"/>
      </g>
     </g>
    </g>
    <g id="xtick_20">
     <g id="line2d_20">
      <g>
       <use xlink:href="#mf36107b1c8" x="128.035313" y="143.1" style="stroke: #000000; stroke-width: 0.6"/>
      </g>
     </g>
    </g>
    <g id="xtick_21">
     <g id="line2d_21">
      <g>
       <use xlink:href="#mf36107b1c8" x="133.847813" y="143.1" style="stroke: #000000; stroke-width: 0.6"/>
      </g>
     </g>
    </g>
    <g id="xtick_22">
     <g id="line2d_22">
      <g>
       <use xlink:href="#mf36107b1c8" x="139.660313" y="143.1" style="stroke: #000000; stroke-width: 0.6"/>
      </g>
     </g>
    </g>
    <g id="xtick_23">
     <g id="line2d_23">
      <g>
       <use xlink:href="#mf36107b1c8" x="145.472813" y="143.1" style="stroke: #000000; stroke-width: 0.6"/>
      </g>
     </g>
    </g>
    <g id="xtick_24">
     <g id="line2d_24">
      <g>
       <use xlink:href="#mf36107b1c8" x="157.097813" y="143.1" style="stroke: #000000; stroke-width: 0.6"/>
      </g>
     </g>
    </g>
    <g id="xtick_25">
     <g id="line2d_25">
      <g>
       <use xlink:href="#mf36107b1c8" x="162.910313" y="143.1" style="stroke: #000000; stroke-width: 0.6"/>
      </g>
     </g>
    </g>
    <g id="text_4">
     <!-- Two Theta (degrees) -->
     <g transform="translate(47.344688 168.681094)scale(0.09 -0.09)">
      <defs>
       <path id="DejaVuSans-54" d="M -19 4666 
L 3928 4666 
L 3928 4134 
L 2272 4134 
L 2272 0 
L 1638 0 
L 1638 4134 
L -19 4134 
L -19 4666 
z
" transform="scale(0.015625)"/>
       <path id="DejaVuSans-77" d="M 269 3500 
L 844 3500 
L 1563 769 
L 2278 3500 
L 2956 3500 
L 3675 769 
L 4391 3500 
L 4966 3500 
L 4050 0 
L 3372 0 
L 2619 2869 
L 1863 0 
L 1184 0 
L 269 3500 
z
" transform="scale(0.015625)"/>
       <path id="DejaVuSans-6f" d="M 1959 3097 
Q 1497 3097 1228 2736 
Q 959 2375 959 1747 
Q 959 1119 1226 758 
Q 1494 397 1959 397 
Q 2419 397 2687 759 
Q 2956 1122 2956 1747 
Q 2956 2369 2687 2733 
Q 2419 3097 1959 3097 
z
M 1959 3584 
Q 2709 3584 3137 3096 
Q 3566 2609 3566 1747 
Q 3566 888 3137 398 
Q 2709 -91 1959 -91 
Q 1206 -91 779 398 
Q 353 888 353 1747 
Q 353 2609 779 3096 
Q 1206 3584 1959 3584 
z
" transform="scale(0.015625)"/>
       <path id="DejaVuSans-20" transform="scale(0.015625)"/>
       <path id="DejaVuSans-68" d="M 3513 2113 
L 3513 0 
L 2938 0 
L 2938 2094 
Q 2938 2591 2744 2837 
Q 2550 3084 2163 3084 
Q 1697 3084 1428 2787 
Q 1159 2491 1159 1978 
L 1159 0 
L 581 0 
L 581 4863 
L 1159 4863 
L 1159 2956 
Q 1366 3272 1645 3428 
Q 1925 3584 2291 3584 
Q 2894 3584 3203 3211 
Q 3513 2838 3513 2113 
z
" transform="scale(0.015625)"/>
       <path id="DejaVuSans-65" d="M 3597 1894 
L 3597 1613 
L 953 1613 
Q 991 1019 1311 708 
Q 1631 397 2203 397 
Q 2534 397 2845 478 
Q 3156 559 3463 722 
L 3463 178 
Q 3153 47 2828 -22 
Q 2503 -91 2169 -91 
Q 1331 -91 842 396 
Q 353 884 353 1716 
Q 353 2575 817 3079 
Q 1281 3584 2069 3584 
Q 2775 3584 3186 3129 
Q 3597 2675 3597 1894 
z
M 3022 2063 
Q 3016 2534 2758 2815 
Q 2500 3097 2075 3097 
Q 1594 3097 1305 2825 
Q 1016 2553 972 2059 
L 3022 2063 
z
" transform="scale(0.015625)"/>
       <path id="DejaVuSans-74" d="M 1172 4494 
L 1172 3500 
L 2356 3500 
L 2356 3053 
L 1172 3053 
L 1172 1153 
Q 1172 725 1289 603 
Q 1406 481 1766 481 
L 2356 481 
L 2356 0 
L 1766 0 
Q 1100 0 847 248 
Q 594 497 594 1153 
L 594 3053 
L 172 3053 
L 172 3500 
L 594 3500 
L 594 4494 
L 1172 4494 
z
" transform="scale(0.015625)"/>
       <path id="DejaVuSans-61" d="M 2194 1759 
Q 1497 1759 1228 1600 
Q 959 1441 959 1056 
Q 959 750 1161 570 
Q 1363 391 1709 391 
Q 2188 391 2477 730 
Q 2766 1069 2766 1631 
L 2766 1759 
L 2194 1759 
z
M 3341 1997 
L 3341 0 
L 2766 0 
L 2766 531 
Q 2569 213 2275 61 
Q 1981 -91 1556 -91 
Q 1019 -91 701 211 
Q 384 513 384 1019 
Q 384 1609 779 1909 
Q 1175 2209 1959 2209 
L 2766 2209 
L 2766 2266 
Q 2766 2663 2505 2880 
Q 2244 3097 1772 3097 
Q 1472 3097 1187 3025 
Q 903 2953 641 2809 
L 641 3341 
Q 956 3463 1253 3523 
Q 1550 3584 1831 3584 
Q 2591 3584 2966 3190 
Q 3341 2797 3341 1997 
z
" transform="scale(0.015625)"/>
       <path id="DejaVuSans-28" d="M 1984 4856 
Q 1566 4138 1362 3434 
Q 1159 2731 1159 2009 
Q 1159 1288 1364 580 
Q 1569 -128 1984 -844 
L 1484 -844 
Q 1016 -109 783 600 
Q 550 1309 550 2009 
Q 550 2706 781 3412 
Q 1013 4119 1484 4856 
L 1984 4856 
z
" transform="scale(0.015625)"/>
       <path id="DejaVuSans-64" d="M 2906 2969 
L 2906 4863 
L 3481 4863 
L 3481 0 
L 2906 0 
L 2906 525 
Q 2725 213 2448 61 
Q 2172 -91 1784 -91 
Q 1150 -91 751 415 
Q 353 922 353 1747 
Q 353 2572 751 3078 
Q 1150 3584 1784 3584 
Q 2172 3584 2448 3432 
Q 2725 3281 2906 2969 
z
M 947 1747 
Q 947 1113 1208 752 
Q 1469 391 1925 391 
Q 2381 391 2643 752 
Q 2906 1113 2906 1747 
Q 2906 2381 2643 2742 
Q 2381 3103 1925 3103 
Q 1469 3103 1208 2742 
Q 947 2381 947 1747 
z
" transform="scale(0.015625)"/>
       <path id="DejaVuSans-67" d="M 2906 1791 
Q 2906 2416 2648 2759 
Q 2391 3103 1925 3103 
Q 1463 3103 1205 2759 
Q 947 2416 947 1791 
Q 947 1169 1205 825 
Q 1463 481 1925 481 
Q 2391 481 2648 825 
Q 2906 1169 2906 1791 
z
M 3481 434 
Q 3481 -459 3084 -895 
Q 2688 -1331 1869 -1331 
Q 1566 -1331 1297 -1286 
Q 1028 -1241 775 -1147 
L 775 -588 
Q 1028 -725 1275 -790 
Q 1522 -856 1778 -856 
Q 2344 -856 2625 -561 
Q 2906 -266 2906 331 
L 2906 616 
Q 2728 306 2450 153 
Q 2172 0 1784 0 
Q 1141 0 747 490 
Q 353 981 353 1791 
Q 353 2603 747 3093 
Q 1141 3584 1784 3584 
Q 2172 3584 2450 3431 
Q 2728 3278 2906 2969 
L 2906 3500 
L 3481 3500 
L 3481 434 
z
" transform="scale(0.015625)"/>
       <path id="DejaVuSans-72" d="M 2631 2963 
Q 2534 3019 2420 3045 
Q 2306 3072 2169 3072 
Q 1681 3072 1420 2755 
Q 1159 2438 1159 1844 
L 1159 0 
L 581 0 
L 581 3500 
L 1159 3500 
L 1159 2956 
Q 1341 3275 1631 3429 
Q 1922 3584 2338 3584 
Q 2397 3584 2469 3576 
Q 2541 3569 2628 3553 
L 2631 2963 
z
" transform="scale(0.015625)"/>
       <path id="DejaVuSans-73" d="M 2834 3397 
L 2834 2853 
Q 2591 2978 2328 3040 
Q 2066 3103 1784 3103 
Q 1356 3103 1142 2972 
Q 928 2841 928 2578 
Q 928 2378 1081 2264 
Q 1234 2150 1697 2047 
L 1894 2003 
Q 2506 1872 2764 1633 
Q 3022 1394 3022 966 
Q 3022 478 2636 193 
Q 2250 -91 1575 -91 
Q 1294 -91 989 -36 
Q 684 19 347 128 
L 347 722 
Q 666 556 975 473 
Q 1284 391 1588 391 
Q 1994 391 2212 530 
Q 2431 669 2431 922 
Q 2431 1156 2273 1281 
Q 2116 1406 1581 1522 
L 1381 1569 
Q 847 1681 609 1914 
Q 372 2147 372 2553 
Q 372 3047 722 3315 
Q 1072 3584 1716 3584 
Q 2034 3584 2315 3537 
Q 2597 3491 2834 3397 
z
" transform="scale(0.015625)"/>
       <path id="DejaVuSans-29" d="M 513 4856 
L 1013 4856 
Q 1481 4119 1714 3412 
Q 1947 2706 1947 2009 
Q 1947 1309 1714 600 
Q 1481 -109 1013 -844 
L 513 -844 
Q 928 -128 1133 580 
Q 1338 1288 1338 2009 
Q 1338 2731 1133 3434 
Q 928 4138 513 4856 
z
" transform="scale(0.015625)"/>
      </defs>
      <use xlink:href="#DejaVuSans-54"/>
      <use xlink:href="#DejaVuSans-77" x="44.583984"/>
      <use xlink:href="#DejaVuSans-6f" x="126.371094"/>
      <use xlink:href="#DejaVuSans-20" x="187.552734"/>
      <use xlink:href="#DejaVuSans-54" x="219.339844"/>
      <use xlink:href="#DejaVuSans-68" x="280.423828"/>
      <use xlink:href="#DejaVuSans-65" x="343.802734"/>
      <use xlink:href="#DejaVuSans-74" x="405.326172"/>
      <use xlink:href="#DejaVuSans-61" x="444.535156"/>
      <use xlink:href="#DejaVuSans-20" x="505.814453"/>
      <use xlink:href="#DejaVuSans-28" x="537.601562"/>
      <use xlink:href="#DejaVuSans-64" x="576.615234"/>
      <use xlink:href="#DejaVuSans-65" x="640.091797"/>
      <use xlink:href="#DejaVuSans-67" x="701.615234"/>
      <use xlink:href="#DejaVuSans-72" x="765.091797"/>
      <use xlink:href="#DejaVuSans-65" x="803.955078"/>
      <use xlink:href="#DejaVuSans-65" x="865.478516"/>
      <use xlink:href="#DejaVuSans-73" x="927.001953"/>
      <use xlink:href="#DejaVuSans-29" x="979.101562"/>
     </g>
    </g>
   </g>
   <g id="matplotlib.axis_2">
    <g id="ytick_1">
     <g id="line2d_26"/>
    </g>
    <g id="ytick_2">
     <g id="line2d_27"/>
    </g>
    <g id="ytick_3">
     <g id="line2d_28"/>
    </g>
    <g id="ytick_4">
     <g id="line2d_29"/>
    </g>
    <g id="ytick_5">
     <g id="line2d_30"/>
    </g>
    <g id="text_5">
     <!-- Intensity -->
     <g transform="translate(14.038594 94.73625)rotate(-90)scale(0.09 -0.09)">
      <defs>
       <path id="DejaVuSans-49" d="M 628 4666 
L 1259 4666 
L 1259 0 
L 628 0 
L 628 4666 
z
" transform="scale(0.015625)"/>
       <path id="DejaVuSans-6e" d="M 3513 2113 
L 3513 0 
L 2938 0 
L 2938 2094 
Q 2938 2591 2744 2837 
Q 2550 3084 2163 3084 
Q 1697 3084 1428 2787 
Q 1159 2491 1159 1978 
L 1159 0 
L 581 0 
L 581 3500 
L 1159 3500 
L 1159 2956 
Q 1366 3272 1645 3428 
Q 1925 3584 2291 3584 
Q 2894 3584 3203 3211 
Q 3513 2838 3513 2113 
z
" transform="scale(0.015625)"/>
       <path id="DejaVuSans-69" d="M 603 3500 
L 1178 3500 
L 1178 0 
L 603 0 
L 603 3500 
z
M 603 4863 
L 1178 4863 
L 1178 4134 
L 603 4134 
L 603 4863 
z
" transform="scale(0.015625)"/>
       <path id="DejaVuSans-79" d="M 2059 -325 
Q 1816 -950 1584 -1140 
Q 1353 -1331 966 -1331 
L 506 -1331 
L 506 -850 
L 844 -850 
Q 1081 -850 1212 -737 
Q 1344 -625 1503 -206 
L 1606 56 
L 191 3500 
L 800 3500 
L 1894 763 
L 2988 3500 
L 3597 3500 
L 2059 -325 
z
" transform="scale(0.015625)"/>
      </defs>
      <use xlink:href="#DejaVuSans-49"/>
      <use xlink:href="#DejaVuSans-6e" x="29.492188"/>
      <use xlink:href="#DejaVuSans-74" x="92.871094"/>
      <use xlink:href="#DejaVuSans-65" x="132.080078"/>
      <use xlink:href="#DejaVuSans-6e" x="193.603516"/>
      <use xlink:href="#DejaVuSans-73" x="256.982422"/>
      <use xlink:href="#DejaVuSans-69" x="309.082031"/>
      <use xlink:href="#DejaVuSans-74" x="336.865234"/>
      <use xlink:href="#DejaVuSans-79" x="376.074219"/>
     </g>
    </g>
   </g>
   <g id="line2d_31">
    <path d="M 23.428285 35.149627 
L 23.550397 31.833141 
L 23.611453 32.187575 
L 23.672509 31.655924 
L 23.733564 32.643275 
L 23.79462 37.453446 
L 23.855676 33.807843 
L 24.038844 42.947168 
L 24.099899 40.466133 
L 24.160955 42.339568 
L 24.222011 43.909203 
L 24.283067 42.516785 
L 24.466234 47.251006 
L 24.52729 47.98519 
L 24.588346 47.099106 
L 24.649402 48.643424 
L 24.710458 47.782656 
L 24.893625 48.820641 
L 24.954681 51.73206 
L 25.015737 50.162425 
L 25.076792 50.694076 
L 25.137848 55.630831 
L 25.198904 54.997914 
L 25.25996 50.921926 
L 25.321016 53.732079 
L 25.443127 52.516878 
L 25.687351 56.744765 
L 25.748406 55.630831 
L 25.809462 57.023249 
L 25.870518 56.061215 
L 25.931574 56.061215 
L 25.99263 59.757452 
L 26.053685 56.896665 
L 26.114741 57.402999 
L 26.297909 60.922019 
L 26.358964 61.099236 
L 26.42002 61.732154 
L 26.481076 61.200503 
L 26.603188 63.276472 
L 26.664244 62.744821 
L 26.786355 61.403037 
L 27.030578 67.352459 
L 27.15269 62.896721 
L 27.213746 67.88411 
L 27.274802 65.327124 
L 27.396913 67.073975 
L 27.457969 71.40313 
L 27.580081 66.896759 
L 27.763248 70.213245 
L 27.824304 69.757545 
L 27.88536 71.681613 
L 27.946416 68.11196 
L 28.007471 70.719579 
L 28.129583 73.934799 
L 28.251695 71.504396 
L 28.373806 73.681632 
L 28.434862 71.985414 
L 28.556974 76.339885 
L 28.61803 72.643648 
L 28.679085 72.846181 
L 28.862253 74.947466 
L 28.923309 73.757582 
L 28.984365 77.048752 
L 29.04542 75.706967 
L 29.167532 74.263916 
L 29.350699 79.124721 
L 29.411755 75.504434 
L 29.472811 76.187984 
L 29.533867 76.086718 
L 29.594923 76.365201 
L 29.655978 74.8462 
L 29.717034 80.137388 
L 29.77809 78.036103 
L 29.839146 79.327254 
L 29.900202 78.188003 
L 29.961258 78.567753 
L 30.022313 78.643703 
L 30.083369 78.238636 
L 30.205481 78.82092 
L 30.266537 78.36522 
L 30.51076 81.175373 
L 30.571816 80.998156 
L 30.632872 83.023491 
L 30.693927 81.226006 
L 30.754983 82.466524 
L 30.877095 81.80829 
L 30.938151 82.213357 
L 30.999206 83.352608 
L 31.060262 81.529806 
L 31.121318 84.618443 
L 31.182374 84.542493 
L 31.24343 84.238692 
L 31.304485 86.238711 
L 31.365541 82.18804 
L 31.426597 84.264009 
L 31.487653 82.871591 
L 31.67082 86.086811 
L 31.853988 84.94756 
L 31.915044 84.745026 
L 31.976099 88.491896 
L 32.037155 86.441244 
L 32.159267 86.137444 
L 32.220323 87.302012 
L 32.281378 85.301993 
L 32.464546 89.200764 
L 32.525602 86.188077 
L 32.586658 87.023528 
L 32.708769 87.605812 
L 32.769825 90.188115 
L 32.830881 87.858979 
L 32.891937 88.643797 
L 32.952992 88.567846 
L 33.014048 86.593145 
L 33.075104 88.061513 
L 33.197216 89.099497 
L 33.258272 87.681762 
L 33.319327 88.567846 
L 33.441439 91.631166 
L 33.563551 86.998212 
L 33.685662 91.8337 
L 33.746718 91.276732 
L 33.807774 93.757768 
L 33.929885 89.15013 
L 33.990941 89.833681 
L 34.051997 90.593182 
L 34.113053 88.669113 
L 34.235165 91.934966 
L 34.29622 90.542548 
L 34.357276 93.605868 
L 34.418332 90.365332 
L 34.479388 93.200801 
L 34.540444 90.972932 
L 34.601499 91.428633 
L 34.662555 90.972932 
L 34.845723 94.238785 
L 34.906779 94.213469 
L 34.967834 89.453931 
L 35.02889 93.529918 
L 35.089946 92.542567 
L 35.334169 94.947653 
L 35.395225 90.896982 
L 35.456281 94.694486 
L 35.517337 93.251434 
L 35.76156 96.593238 
L 35.883672 94.972969 
L 35.944727 95.65652 
L 36.005783 94.264102 
L 36.127895 96.593238 
L 36.188951 96.314754 
L 36.311062 97.403372 
L 36.433174 94.289419 
L 36.555286 98.365406 
L 36.616341 94.314735 
L 36.677397 95.65652 
L 36.738453 97.378055 
L 36.799509 95.909687 
L 36.92162 98.289456 
L 37.043732 96.517288 
L 37.104788 96.694504 
L 37.165844 97.428689 
L 37.226899 100.264158 
L 37.287955 98.416039 
L 37.349011 95.783104 
L 37.410067 99.960358 
L 37.471123 99.302124 
L 37.532179 100.036308 
L 37.65429 96.795771 
L 37.715346 97.757806 
L 37.837458 101.048975 
L 37.898513 97.048938 
L 37.959569 98.542623 
L 38.020625 98.973007 
L 38.081681 98.238823 
L 38.264848 100.314791 
L 38.448016 97.428689 
L 38.570127 99.25149 
L 38.631183 98.162873 
L 38.753295 101.732526 
L 38.814351 100.441375 
L 38.875406 100.188208 
L 38.936462 101.124925 
L 38.997518 100.086941 
L 39.11963 103.099627 
L 39.180686 102.54266 
L 39.241741 99.656557 
L 39.302797 100.340108 
L 39.424909 103.074311 
L 39.485965 101.428726 
L 39.54702 103.454061 
L 39.608076 102.973044 
L 39.669132 102.69456 
L 39.730188 101.124925 
L 39.791244 101.428726 
L 39.852299 101.428726 
L 39.913355 102.416077 
L 39.974411 100.871759 
L 40.035467 103.251528 
L 40.096523 101.124925 
L 40.157579 105.074329 
L 40.218634 102.947727 
L 40.340746 100.669225 
L 40.523913 105.656613 
L 40.646025 100.492008 
L 40.707081 102.795827 
L 40.768137 102.01101 
L 40.890248 105.428763 
L 40.951304 105.251546 
L 41.01236 105.479396 
L 41.134472 102.871777 
L 41.317639 106.542697 
L 41.439751 103.479378 
L 41.500806 107.074348 
L 41.561862 104.973063 
L 41.683974 105.200913 
L 41.74503 105.504713 
L 41.806086 104.669262 
L 41.867141 106.517381 
L 41.928197 106.238897 
L 41.989253 106.568014 
L 42.050309 105.45408 
L 42.111365 107.327515 
L 42.17242 105.580663 
L 42.233476 105.83383 
L 42.294532 105.808513 
L 42.355588 106.086997 
L 42.416644 107.049031 
L 42.538755 105.580663 
L 42.599811 108.264232 
L 42.660867 106.162947 
L 42.721923 105.428763 
L 42.782979 108.492083 
L 42.844034 106.365481 
L 42.966146 108.390816 
L 43.027202 104.340145 
L 43.088258 106.719914 
L 43.149313 106.086997 
L 43.210369 107.833849 
L 43.271425 107.175615 
L 43.332481 106.238897 
L 43.515648 108.365499 
L 43.576704 106.390797 
L 43.698816 108.618666 
L 43.759872 106.643964 
L 43.820927 108.061699 
L 43.943039 106.542697 
L 44.004095 108.998417 
L 44.065151 108.137649 
L 44.126206 107.175615 
L 44.187262 108.89715 
L 44.248318 108.441449 
L 44.309374 105.099646 
L 44.37043 107.023715 
L 44.492541 110.036401 
L 44.553597 109.35285 
L 44.614653 107.226248 
L 44.675709 109.327534 
L 44.736765 108.922466 
L 44.79782 109.530067 
L 44.919932 107.631315 
L 45.1031 109.985768 
L 45.164155 108.795883 
L 45.225211 110.061718 
L 45.286267 108.492083 
L 45.347323 108.922466 
L 45.53049 110.871852 
L 45.652602 110.618685 
L 45.713658 110.264251 
L 45.774713 112.087053 
L 45.835769 110.644001 
L 45.896825 109.555384 
L 45.957881 112.998454 
L 46.018937 111.681986 
L 46.079993 109.631334 
L 46.141048 111.074385 
L 46.26316 109.099683 
L 46.324216 111.909836 
L 46.385272 109.479434 
L 46.446327 110.998435 
L 46.507383 111.428819 
L 46.629495 110.416151 
L 46.690551 108.6693 
L 46.873718 112.137686 
L 46.934774 109.909817 
L 46.99583 113.099721 
L 47.056886 108.9731 
L 47.117941 111.403502 
L 47.240053 110.922485 
L 47.301109 111.884519 
L 47.362165 111.099702 
L 47.42322 110.061718 
L 47.484276 113.783271 
L 47.545332 111.783253 
L 47.606388 111.099702 
L 47.667444 112.517437 
L 47.7285 110.416151 
L 47.789555 113.074404 
L 47.850611 112.922504 
L 47.911667 110.973118 
L 47.972723 111.960469 
L 48.033779 111.960469 
L 48.094834 109.732601 
L 48.15589 112.56807 
L 48.216946 110.719952 
L 48.278002 110.137668 
L 48.339058 110.162984 
L 48.522225 113.606054 
L 48.583281 112.542753 
L 48.644337 112.365537 
L 48.705393 112.694654 
L 48.827504 111.125019 
L 48.949616 112.49212 
L 49.010672 112.466803 
L 49.071727 110.542735 
L 49.132783 113.02377 
L 49.193839 112.593387 
L 49.254895 112.56807 
L 49.377007 113.656688 
L 49.438062 113.125037 
L 49.499118 111.606036 
L 49.560174 112.18832 
L 49.62123 114.213655 
L 49.743341 112.26427 
L 49.804397 113.606054 
L 49.865453 111.352869 
L 49.926509 114.011121 
L 49.987565 113.935171 
L 50.048621 111.504769 
L 50.109676 112.163003 
L 50.170732 113.378204 
L 50.231788 113.302254 
L 50.292844 113.251621 
L 50.3539 114.517455 
L 50.414955 111.681986 
L 50.476011 114.112388 
L 50.537067 112.669337 
L 50.598123 112.466803 
L 50.659179 111.859203 
L 50.720234 113.327571 
L 50.78129 112.314903 
L 50.842346 112.289586 
L 50.903402 111.656669 
L 51.086569 114.441505 
L 51.208681 112.56807 
L 51.269737 115.251639 
L 51.330793 112.441487 
L 51.391848 113.504788 
L 51.452904 112.49212 
L 51.51396 112.745287 
L 51.697127 114.517455 
L 51.758183 111.555402 
L 51.819239 113.985805 
L 51.880295 113.074404 
L 52.002407 112.770604 
L 52.063462 110.137668 
L 52.124518 113.251621 
L 52.185574 112.11237 
L 52.368741 115.150373 
L 52.490853 110.593368 
L 52.551909 114.112388 
L 52.612965 112.011103 
L 52.674021 111.099702 
L 52.735076 113.02377 
L 52.796132 112.998454 
L 52.918244 114.213655 
L 52.9793 112.466803 
L 53.040355 112.669337 
L 53.162467 111.479452 
L 53.284579 112.922504 
L 53.467746 111.175652 
L 53.711969 113.454154 
L 53.773025 113.200987 
L 53.834081 112.618703 
L 53.895137 113.530104 
L 54.017248 111.352869 
L 54.13936 112.365537 
L 54.200416 111.276919 
L 54.383583 112.94782 
L 54.444639 111.428819 
L 54.505695 111.757936 
L 54.566751 112.517437 
L 54.627807 111.884519 
L 54.688862 112.41617 
L 54.810974 110.441468 
L 54.87203 111.327552 
L 54.933086 110.365518 
L 54.994141 112.011103 
L 55.055197 111.479452 
L 55.116253 110.618685 
L 55.177309 111.049069 
L 55.238365 110.998435 
L 55.299421 110.745268 
L 55.360476 111.175652 
L 55.543644 109.403484 
L 55.6047 111.023752 
L 55.665755 110.719952 
L 55.726811 110.846535 
L 55.787867 112.618703 
L 55.848923 112.517437 
L 55.909979 110.390835 
L 55.971035 111.732619 
L 56.093146 110.770585 
L 56.154202 111.403502 
L 56.337369 108.770566 
L 56.520537 110.846535 
L 56.581593 108.568033 
L 56.642648 110.112351 
L 56.703704 111.428819 
L 56.76476 111.226285 
L 56.825816 109.555384 
L 56.886872 110.618685 
L 56.947928 112.03642 
L 57.070039 108.264232 
L 57.253207 109.757917 
L 57.314262 109.960451 
L 57.375318 111.302235 
L 57.436374 107.302198 
L 57.49743 108.998417 
L 57.619541 111.276919 
L 57.680597 106.643964 
L 57.741653 109.226267 
L 57.924821 106.770548 
L 57.985876 107.302198 
L 58.107988 109.479434 
L 58.169044 106.947765 
L 58.2301 107.074348 
L 58.291155 108.365499 
L 58.413267 106.618648 
L 58.596435 108.922466 
L 58.718546 105.479396 
L 58.779602 107.555365 
L 58.840658 106.719914 
L 58.901714 106.21358 
L 58.962769 107.985749 
L 59.145937 104.719896 
L 59.206993 105.074329 
L 59.329104 106.719914 
L 59.39016 106.036364 
L 59.451216 106.365481 
L 59.512272 101.960376 
L 59.573328 104.466729 
L 59.634383 106.770548 
L 59.695439 105.479396 
L 59.756495 104.036345 
L 59.817551 104.416095 
L 59.878607 104.492045 
L 59.939662 105.403446 
L 60.000718 103.580645 
L 60.061774 106.542697 
L 60.12283 104.694579 
L 60.183886 104.897113 
L 60.367053 102.795827 
L 60.489165 105.83383 
L 60.550221 102.567977 
L 60.611276 103.175577 
L 60.672332 102.036326 
L 60.733388 105.22623 
L 60.794444 104.618629 
L 60.916555 102.517344 
L 60.977611 103.707228 
L 61.038667 101.732526 
L 61.099723 103.378111 
L 61.160779 102.112276 
L 61.28289 103.200894 
L 61.405002 100.973025 
L 61.466058 102.643927 
L 61.527114 101.352776 
L 61.588169 100.466692 
L 61.649225 101.555309 
L 61.710281 101.226192 
L 61.771337 101.099609 
L 61.832393 99.605924 
L 61.893449 100.770492 
L 61.954504 102.517344 
L 62.01556 101.656576 
L 62.076616 100.669225 
L 62.137672 102.365443 
L 62.198728 102.23886 
L 62.381895 100.871759 
L 62.504007 102.213543 
L 62.565062 99.454024 
L 62.626118 100.770492 
L 62.687174 101.631259 
L 62.74823 99.25149 
L 62.809286 100.846442 
L 62.870342 99.960358 
L 62.931397 97.074255 
L 62.992453 98.517306 
L 63.175621 101.707209 
L 63.236676 100.289475 
L 63.297732 98.669206 
L 63.358788 99.884408 
L 63.541955 96.846405 
L 63.664067 100.213525 
L 63.725123 97.302105 
L 63.786179 98.846423 
L 63.847235 100.289475 
L 63.90829 99.428707 
L 63.969346 97.200838 
L 64.030402 98.87174 
L 64.091458 99.302124 
L 64.152514 97.529955 
L 64.274625 102.795827 
L 64.396737 98.618573 
L 64.457793 98.94769 
L 64.518849 98.289456 
L 64.579904 99.276807 
L 64.702016 95.88437 
L 64.824128 98.49199 
L 64.885183 98.137556 
L 64.946239 95.935004 
L 65.007295 100.238841 
L 65.068351 98.010972 
L 65.129407 99.074273 
L 65.190462 98.010972 
L 65.312574 99.40339 
L 65.37363 98.289456 
L 65.434686 98.998323 
L 65.495742 99.40339 
L 65.617853 96.643871 
L 65.678909 99.479341 
L 65.739965 98.010972 
L 65.801021 98.036289 
L 65.862076 98.188189 
L 65.923132 99.276807 
L 65.984188 96.593238 
L 66.045244 98.314773 
L 66.1063 97.327422 
L 66.167356 100.745175 
L 66.228411 97.960339 
L 66.289467 97.783122 
L 66.472635 99.02364 
L 66.53369 97.226155 
L 66.655802 99.631241 
L 66.838969 97.276788 
L 66.900025 96.846405 
L 67.022137 101.352776 
L 67.26636 96.618554 
L 67.449528 98.94769 
L 67.510583 99.985674 
L 67.632695 97.707172 
L 67.693751 98.086923 
L 67.815863 99.808458 
L 67.876918 99.428707 
L 68.121142 96.542604 
L 68.182197 96.618554 
L 68.243253 99.302124 
L 68.304309 96.719821 
L 68.365365 97.479322 
L 68.426421 98.390723 
L 68.548532 97.276788 
L 68.670644 99.985674 
L 68.7317 97.985656 
L 68.792756 99.378074 
L 68.914867 97.074255 
L 69.036979 98.79579 
L 69.098035 98.340089 
L 69.15909 99.757824 
L 69.220146 99.352757 
L 69.281202 97.150205 
L 69.342258 98.542623 
L 69.586481 100.188208 
L 69.769649 99.985674 
L 69.830704 100.694542 
L 69.952816 98.694523 
L 70.074928 98.188189 
L 70.319151 101.175559 
L 70.441263 97.909706 
L 70.502318 98.112239 
L 70.563374 100.998342 
L 70.62443 99.454024 
L 70.685486 97.909706 
L 70.868653 100.593275 
L 70.990765 97.403372 
L 71.051821 98.56794 
L 71.234988 99.884408 
L 71.418156 98.618573 
L 71.479211 101.023659 
L 71.540267 100.188208 
L 71.601323 100.340108 
L 71.723435 98.64389 
L 71.78449 100.998342 
L 71.845546 100.694542 
L 71.967658 101.200876 
L 72.028714 100.162891 
L 72.08977 101.479359 
L 72.150825 100.973025 
L 72.272937 99.960358 
L 72.333993 100.745175 
L 72.395049 99.985674 
L 72.456104 101.555309 
L 72.51716 99.09959 
L 72.639272 102.69456 
L 72.700328 102.137593 
L 72.761383 99.960358 
L 72.822439 102.08696 
L 72.883495 100.770492 
L 73.005607 99.150224 
L 73.127718 101.302142 
L 73.188774 98.998323 
L 73.24983 100.238841 
L 73.310886 102.46671 
L 73.371942 101.909743 
L 73.432997 101.960376 
L 73.494053 101.884426 
L 73.555109 101.276826 
L 73.616165 101.93506 
L 73.677221 101.454042 
L 73.738277 98.745156 
L 73.799332 100.390741 
L 73.9825 103.935078 
L 74.104611 100.365425 
L 74.165667 101.707209 
L 74.226723 98.71984 
L 74.287779 102.998361 
L 74.348835 101.200876 
L 74.40989 99.909724 
L 74.593058 103.099627 
L 74.654114 101.605943 
L 74.71517 102.643927 
L 74.776225 104.264195 
L 74.898337 101.529993 
L 75.020449 103.200894 
L 75.081504 104.289512 
L 75.203616 101.378092 
L 75.264672 103.656595 
L 75.325728 100.745175 
L 75.386783 102.846461 
L 75.447839 102.54266 
L 75.508895 104.618629 
L 75.569951 100.618592 
L 75.631007 103.656595 
L 75.692063 101.124925 
L 75.753118 101.960376 
L 75.814174 102.54266 
L 75.87523 100.770492 
L 76.058397 103.403428 
L 76.119453 104.238879 
L 76.302621 100.517325 
L 76.363677 104.061662 
L 76.424732 103.605961 
L 76.546844 101.428726 
L 76.6079 102.719877 
L 76.668956 102.492027 
L 76.791067 102.61861 
L 76.913179 103.681911 
L 77.03529 102.846461 
L 77.096346 105.504713 
L 77.218458 102.08696 
L 77.279514 104.061662 
L 77.34057 102.416077 
L 77.401625 104.567996 
L 77.462681 103.200894 
L 77.523737 102.416077 
L 77.584793 106.694598 
L 77.645849 104.517362 
L 77.76796 102.036326 
L 77.890072 105.83383 
L 78.073239 102.821144 
L 78.256407 105.37813 
L 78.317463 103.074311 
L 78.378518 105.30218 
L 78.439574 102.973044 
L 78.50063 105.276863 
L 78.561686 103.504694 
L 78.683797 107.200931 
L 78.744853 106.517381 
L 78.805909 103.251528 
L 78.866965 106.086997 
L 78.928021 104.643946 
L 78.989077 103.504694 
L 79.050132 106.188264 
L 79.111188 104.567996 
L 79.172244 104.492045 
L 79.2333 105.37813 
L 79.294356 105.327496 
L 79.355411 105.124963 
L 79.416467 104.112295 
L 79.599635 105.45408 
L 79.660691 103.074311 
L 79.843858 107.023715 
L 79.96597 103.757861 
L 80.088081 107.656632 
L 80.149137 107.276882 
L 80.210193 105.83383 
L 80.271249 107.935115 
L 80.332304 107.226248 
L 80.39336 103.428744 
L 80.454416 104.567996 
L 80.637584 106.542697 
L 80.698639 105.83383 
L 80.759695 106.719914 
L 80.820751 105.68193 
L 80.881807 107.428782 
L 80.942863 105.707247 
L 81.003918 106.441431 
L 81.064974 106.973081 
L 81.12603 106.06168 
L 81.187086 108.061699 
L 81.248142 107.327515 
L 81.309197 105.75788 
L 81.431309 107.580682 
L 81.492365 104.264195 
L 81.553421 108.947783 
L 81.614477 107.454098 
L 81.675532 107.504732 
L 81.736588 107.960432 
L 81.797644 106.314847 
L 81.8587 107.960432 
L 81.919756 106.390797 
L 81.980811 106.466747 
L 82.041867 107.074348 
L 82.102923 105.935097 
L 82.163979 106.998398 
L 82.225035 106.973081 
L 82.286091 106.238897 
L 82.347146 106.314847 
L 82.408202 106.13763 
L 82.469258 106.365481 
L 82.59137 108.593349 
L 82.652425 107.985749 
L 82.713481 106.694598 
L 82.774537 107.479415 
L 82.896649 108.568033 
L 83.079816 106.719914 
L 83.140872 109.656651 
L 83.201928 108.9731 
L 83.262984 109.099683 
L 83.324039 108.871833 
L 83.385095 110.238934 
L 83.446151 107.504732 
L 83.507207 108.593349 
L 83.629318 110.871852 
L 83.75143 107.732582 
L 83.873542 109.023733 
L 83.934598 108.593349 
L 83.995653 110.441468 
L 84.117765 107.504732 
L 84.178821 108.011066 
L 84.423044 112.669337 
L 84.545156 109.479434 
L 84.606211 110.314885 
L 84.667267 110.922485 
L 84.911491 108.6693 
L 85.094658 111.884519 
L 85.155714 109.681967 
L 85.21677 109.960451 
L 85.277825 110.365518 
L 85.460993 108.74525 
L 85.522049 109.985768 
L 85.583105 108.947783 
L 85.766272 111.960469 
L 85.827328 112.897187 
L 85.888384 112.87187 
L 86.010495 108.8212 
L 86.071551 111.631352 
L 86.132607 111.023752 
L 86.193663 109.606017 
L 86.254718 110.694635 
L 86.437886 113.327571 
L 86.498942 110.466785 
L 86.559998 112.517437 
L 86.743165 111.175652 
L 86.804221 110.846535 
L 86.987388 112.922504 
L 87.048444 112.64402 
L 87.1095 110.238934 
L 87.170556 112.41617 
L 87.231612 110.365518 
L 87.292667 112.922504 
L 87.353723 112.238953 
L 87.475835 114.061755 
L 87.536891 112.973137 
L 87.597946 112.897187 
L 87.659002 112.542753 
L 87.720058 111.403502 
L 87.781114 112.163003 
L 87.84217 111.606036 
L 87.964281 114.061755 
L 88.147449 112.79592 
L 88.208505 113.302254 
L 88.26956 114.998472 
L 88.330616 112.03642 
L 88.391672 112.973137 
L 88.452728 111.909836 
L 88.513784 114.289605 
L 88.574839 112.213636 
L 88.635895 114.846572 
L 88.696951 112.593387 
L 88.758007 114.593405 
L 88.819063 111.074385 
L 88.880118 112.061736 
L 88.941174 113.125037 
L 89.00223 113.049087 
L 89.063286 112.390853 
L 89.124342 113.909855 
L 89.185398 113.606054 
L 89.246453 113.02377 
L 89.429621 115.504806 
L 89.490677 111.960469 
L 89.551732 112.998454 
L 89.612788 112.87187 
L 89.7349 114.644039 
L 89.795956 112.770604 
L 89.857012 114.795939 
L 89.918067 113.02377 
L 89.979123 114.112388 
L 90.162291 115.074423 
L 90.223346 115.049106 
L 90.284402 114.011121 
L 90.345458 115.378223 
L 90.406514 114.568089 
L 90.46757 113.049087 
L 90.528625 113.125037 
L 90.711793 115.049106 
L 90.772849 114.795939 
L 90.89496 112.289586 
L 91.078128 115.150373 
L 91.200239 113.783271 
L 91.261295 112.163003 
L 91.444463 116.618741 
L 91.505519 115.960507 
L 91.566574 113.403521 
L 91.62763 113.960488 
L 91.688686 114.644039 
L 91.749742 113.504788 
L 91.810798 115.504806 
L 91.871853 113.985805 
L 91.932909 115.023789 
L 91.993965 113.555421 
L 92.055021 114.188338 
L 92.116077 113.631371 
L 92.177132 115.276956 
L 92.238188 114.871889 
L 92.299244 114.871889 
L 92.421356 113.125037 
L 92.604523 115.93519 
L 92.665579 114.947839 
L 92.726635 116.871908 
L 92.909802 112.18832 
L 92.970858 114.770622 
L 93.031914 112.694654 
L 93.09297 113.276937 
L 93.154026 111.960469 
L 93.215081 112.897187 
L 93.276137 113.783271 
L 93.337193 112.694654 
L 93.52036 114.314922 
L 93.581416 114.036438 
L 93.642472 115.352906 
L 93.703528 113.960488 
L 93.764584 114.036438 
L 93.825639 114.492139 
L 93.886695 113.099721 
L 93.947751 114.163022 
L 94.008807 115.302273 
L 94.069863 113.732638 
L 94.130919 113.985805 
L 94.25303 115.606073 
L 94.314086 112.694654 
L 94.375142 114.061755 
L 94.436198 113.403521 
L 94.619365 115.606073 
L 94.680421 115.682023 
L 94.863588 112.542753 
L 94.924644 116.061773 
L 94.9857 114.036438 
L 95.046756 115.656706 
L 95.107812 114.568089 
L 95.290979 116.593424 
L 95.352035 116.846591 
L 95.413091 118.188376 
L 95.474146 116.618741 
L 95.535202 117.251658 
L 95.71837 115.580756 
L 95.779426 118.720026 
L 95.840481 117.631408 
L 95.901537 116.31494 
L 95.962593 116.542791 
L 96.084705 118.163059 
L 96.14576 117.049124 
L 96.206816 118.061792 
L 96.267872 115.960507 
L 96.389984 120.137761 
L 96.451039 116.871908 
L 96.512095 117.276975 
L 96.573151 117.454192 
L 96.634207 118.213692 
L 96.695263 115.70734 
L 96.756319 116.618741 
L 96.87843 118.492176 
L 96.939486 114.466822 
L 97.000542 116.188357 
L 97.061598 116.289624 
L 97.183709 115.125056 
L 97.244765 115.757973 
L 97.305821 114.694672 
L 97.366877 114.871889 
L 97.427933 114.542772 
L 97.488988 112.94782 
L 97.550044 113.327571 
L 97.6111 113.200987 
L 97.672156 113.580738 
L 97.733212 113.378204 
L 97.916379 117.226341 
L 97.977435 114.492139 
L 98.038491 115.78329 
L 98.221658 118.264326 
L 98.282714 117.808625 
L 98.34377 118.264326 
L 98.404826 119.884594 
L 98.465881 119.30231 
L 98.526937 120.137761 
L 98.587993 119.251677 
L 98.649049 120.998528 
L 98.710105 120.390928 
L 98.77116 119.15041 
L 98.832216 123.20108 
L 98.893272 122.720063 
L 99.015384 121.378279 
L 99.07644 123.226397 
L 99.137495 122.137779 
L 99.198551 122.137779 
L 99.259607 122.314996 
L 99.320663 121.352962 
L 99.381719 121.682079 
L 99.442774 124.492232 
L 99.50383 122.720063 
L 99.625942 123.656781 
L 99.686998 121.884613 
L 99.809109 125.758066 
L 99.870165 125.099832 
L 99.931221 125.352999 
L 100.053333 123.606148 
L 100.175444 124.644132 
L 100.2365 123.20108 
L 100.297556 125.378316 
L 100.358612 124.897299 
L 100.541779 123.023864 
L 100.602835 124.998566 
L 100.663891 123.277031 
L 100.847058 126.03655 
L 100.908114 123.454247 
L 100.96917 124.821349 
L 101.030226 125.302366 
L 101.091281 123.327664 
L 101.152337 124.365648 
L 101.274449 125.403633 
L 101.335505 124.973249 
L 101.39656 124.644132 
L 101.457616 125.428949 
L 101.518672 125.378316 
L 101.579728 124.492232 
L 101.640784 126.998584 
L 101.70184 125.428949 
L 101.762895 125.277049 
L 101.823951 123.985898 
L 101.885007 126.011233 
L 101.946063 125.73275 
L 102.007119 126.18845 
L 102.068174 125.8087 
L 102.12923 124.770715 
L 102.190286 125.580849 
L 102.251342 125.201099 
L 102.312398 125.302366 
L 102.373453 125.428949 
L 102.434509 126.03655 
L 102.495565 125.859333 
L 102.556621 125.504899 
L 102.617677 125.530216 
L 102.678733 126.49225 
L 102.800844 123.909948 
L 102.984012 126.49225 
L 103.106123 124.517548 
L 103.228235 124.973249 
L 103.289291 124.720082 
L 103.350347 126.897317 
L 103.472458 124.365648 
L 103.59457 126.087183 
L 103.655626 125.251732 
L 103.716681 125.378316 
L 103.777737 125.150466 
L 103.960905 126.846684 
L 104.205128 124.137798 
L 104.32724 125.707433 
L 104.449351 125.454266 
L 104.632519 123.783364 
L 104.75463 126.365667 
L 104.876742 124.821349 
L 104.937798 125.327683 
L 105.059909 123.682098 
L 105.120965 123.783364 
L 105.182021 124.796032 
L 105.243077 124.036531 
L 105.426244 125.580849 
L 105.548356 122.922597 
L 105.609412 123.378297 
L 105.670467 123.175764 
L 105.731523 124.796032 
L 105.792579 122.416263 
L 105.853635 123.960581 
L 105.914691 125.580849 
L 105.975747 125.530216 
L 106.158914 123.074497 
L 106.21997 125.049199 
L 106.281026 124.289698 
L 106.342081 122.720063 
L 106.403137 123.985898 
L 106.464193 123.859314 
L 106.525249 124.315015 
L 106.586305 122.21373 
L 106.64736 122.340313 
L 106.708416 122.36563 
L 106.769472 123.783364 
L 106.830528 123.403614 
L 106.891584 123.479564 
L 107.013695 121.808662 
L 107.074751 123.327664 
L 107.135807 121.909929 
L 107.196863 122.163096 
L 107.257919 122.542846 
L 107.38003 119.555477 
L 107.441086 119.732694 
L 107.502142 120.694728 
L 107.624254 118.163059 
L 107.746365 120.973212 
L 107.868477 119.22636 
L 108.051644 120.720045 
L 108.173756 117.783308 
L 108.234812 119.555477 
L 108.417979 116.517474 
L 108.723258 113.479471 
L 108.84537 113.352887 
L 108.906426 111.403502 
L 108.967481 111.707303 
L 109.028537 112.745287 
L 109.150649 110.517418 
L 109.211705 111.049069 
L 109.272761 111.074385 
L 109.333816 110.821218 
L 109.516984 107.276882 
L 109.639095 108.112332 
L 109.883319 102.16291 
L 110.371765 89.884314 
L 111.226547 39.276248 
L 111.409714 22.086215 
L 111.47077 22.921665 
L 111.592881 13.377273 
L 111.653937 13.908923 
L 111.714993 15.073491 
L 112.63083 76.415835 
L 112.691886 76.314568 
L 112.875054 86.289344 
L 112.936109 86.112127 
L 113.180333 94.897019 
L 113.241388 94.264102 
L 113.3635 96.972988 
L 113.485612 100.618592 
L 113.546668 100.010991 
L 113.607723 100.871759 
L 113.668779 104.947746 
L 113.729835 101.681893 
L 113.913002 106.441431 
L 113.974058 105.859147 
L 114.218281 111.454136 
L 114.279337 110.289568 
L 114.645672 114.947839 
L 114.706728 116.213674 
L 114.767784 115.85924 
L 114.82884 116.061773 
L 114.889895 117.302291 
L 114.950951 116.340257 
L 115.134119 118.112425 
L 115.25623 116.922541 
L 115.317286 118.795976 
L 115.378342 116.441524 
L 115.561509 120.644095 
L 115.622565 119.960544 
L 115.805733 121.201062 
L 115.9889 121.833979 
L 116.049956 124.061848 
L 116.111012 122.340313 
L 116.172068 122.568163 
L 116.294179 123.504881 
L 116.355235 122.998547 
L 116.416291 124.036531 
L 116.477347 121.631446 
L 116.538402 124.036531 
L 116.599458 121.327645 
L 116.782626 125.555533 
L 116.843682 123.226397 
L 116.904737 124.998566 
L 116.965793 124.087165 
L 117.026849 124.669449 
L 117.087905 125.150466 
L 117.148961 124.315015 
L 117.210016 124.973249 
L 117.393184 127.454285 
L 117.45424 125.479583 
L 117.576351 127.808718 
L 117.637407 127.783402 
L 117.698463 127.985935 
L 117.759519 126.644151 
L 117.820575 129.353037 
L 117.88163 128.644169 
L 117.942686 126.796051 
L 118.003742 127.530235 
L 118.064798 128.011252 
L 118.125854 127.302385 
L 118.247965 130.466971 
L 118.370077 127.985935 
L 118.431133 129.656837 
L 118.492188 129.09987 
L 118.553244 128.441636 
L 118.6143 128.644169 
L 118.736412 128.365686 
L 118.919579 130.112537 
L 119.102747 128.137835 
L 119.163802 130.163171 
L 119.224858 127.909985 
L 119.285914 130.391021 
L 119.34697 129.732787 
L 119.408026 129.70747 
L 119.530137 131.099888 
L 119.591193 130.872038 
L 119.652249 130.315071 
L 119.774361 131.403689 
L 119.835416 129.530253 
L 119.896472 130.441654 
L 119.957528 129.353037 
L 120.018584 129.78342 
L 120.07964 131.403689 
L 120.201751 129.70747 
L 120.568086 131.454322 
L 120.629142 130.644188 
L 120.690198 131.884706 
L 120.751254 131.099888 
L 120.812309 131.251788 
L 120.873365 131.226472 
L 120.934421 130.036587 
L 121.056533 132.315089 
L 121.361812 131.302422 
L 121.422868 131.935339 
L 121.483923 130.694821 
L 121.544979 131.935339 
L 121.606035 131.732806 
L 121.667091 130.973305 
L 121.728147 132.416356 
L 121.789202 131.277105 
L 121.850258 130.720138 
L 121.97237 131.960656 
L 122.033426 131.302422 
L 122.094482 131.479639 
L 122.216593 131.732806 
L 122.277649 131.656855 
L 122.338705 132.84674 
L 122.399761 131.656855 
L 122.460816 132.163189 
L 122.582928 131.530272 
L 122.643984 132.036606 
L 122.70504 133.504974 
L 122.766096 132.416356 
L 122.888207 131.150522 
L 123.010319 133.530291 
L 123.071375 132.036606 
L 123.13243 132.872057 
L 123.193486 132.163189 
L 123.254542 133.555607 
L 123.315598 132.77079 
L 123.498765 133.606241 
L 123.559821 133.454341 
L 123.742989 133.125224 
L 123.804044 132.340406 
L 123.8651 132.77079 
L 123.926156 133.707507 
L 124.048268 130.137854 
L 124.170379 132.99864 
L 124.231435 131.783439 
L 124.292491 133.935358 
L 124.353547 133.682191 
L 124.414603 133.631557 
L 124.59777 132.84674 
L 124.658826 133.960674 
L 124.719882 133.22649 
L 124.780937 133.758141 
L 124.903049 131.606222 
L 124.964105 134.011308 
L 125.025161 133.758141 
L 125.147272 133.023957 
L 125.208328 133.884724 
L 125.269384 132.391039 
L 125.33044 133.859408 
L 125.391496 133.580924 
L 125.452551 133.859408 
L 125.513607 133.530291 
L 125.574663 132.391039 
L 125.696775 134.467008 
L 125.75783 134.391058 
L 125.818886 133.30244 
L 125.879942 133.859408 
L 125.940998 134.188525 
L 126.002054 132.087239 
L 126.063109 133.580924 
L 126.124165 133.30244 
L 126.185221 134.289791 
L 126.246277 133.099907 
L 126.307333 133.732824 
L 126.368389 134.517642 
L 126.551556 133.023957 
L 126.673668 133.707507 
L 126.734723 132.340406 
L 126.795779 133.403707 
L 126.856835 134.264475 
L 126.917891 133.15054 
L 126.978947 135.631576 
L 127.040003 133.808774 
L 127.162114 133.707507 
L 127.22317 133.884724 
L 127.284226 133.834091 
L 127.345282 133.732824 
L 127.406337 132.720156 
L 127.467393 132.872057 
L 127.528449 134.796125 
L 127.650561 132.568256 
L 127.772672 133.22649 
L 127.833728 133.023957 
L 127.894784 133.530291 
L 127.95584 132.897373 
L 128.016896 133.403707 
L 128.077951 133.454341 
L 128.139007 132.796107 
L 128.38323 135.327776 
L 128.566398 133.353074 
L 128.627454 133.37839 
L 128.68851 134.239158 
L 128.749565 133.682191 
L 128.810621 133.783458 
L 128.871677 133.175857 
L 128.932733 134.770808 
L 128.993789 133.125224 
L 129.054844 133.353074 
L 129.1159 134.441692 
L 129.176956 133.859408 
L 129.299068 134.188525 
L 129.360123 132.340406 
L 129.421179 134.264475 
L 129.482235 134.213841 
L 129.604347 133.555607 
L 129.84857 134.315108 
L 129.970682 133.22649 
L 130.031737 134.011308 
L 130.153849 132.897373 
L 130.337017 134.872075 
L 130.398072 134.720175 
L 130.459128 133.758141 
L 130.520184 134.213841 
L 130.58124 134.593592 
L 130.703351 131.935339 
L 130.825463 134.846759 
L 130.886519 133.758141 
L 131.00863 135.023975 
L 131.191798 133.834091 
L 131.252854 135.175876 
L 131.436021 133.429024 
L 131.558133 133.985991 
L 131.619189 132.84674 
L 131.680244 134.669542 
L 131.7413 133.580924 
L 131.802356 134.416375 
L 131.863412 133.175857 
L 131.924468 135.201192 
L 131.985523 134.112575 
L 132.046579 134.593592 
L 132.107635 132.948007 
L 132.229747 135.251826 
L 132.351858 133.251807 
L 132.412914 135.732843 
L 132.47397 133.808774 
L 132.535026 133.403707 
L 132.596082 134.239158 
L 132.657137 133.479657 
L 132.718193 134.011308 
L 132.840305 134.720175 
L 132.901361 134.213841 
L 132.962417 134.618908 
L 133.023472 134.694858 
L 133.084528 133.023957 
L 133.145584 133.834091 
L 133.20664 134.618908 
L 133.267696 133.935358 
L 133.328751 135.251826 
L 133.389807 134.618908 
L 133.450863 134.694858 
L 133.511919 134.618908 
L 133.572975 132.46699 
L 133.63403 134.770808 
L 133.695086 134.163208 
L 133.756142 132.948007 
L 133.878254 134.340425 
L 134.000365 132.669523 
L 134.183533 134.163208 
L 134.244589 133.403707 
L 134.305644 135.353092 
L 134.3667 134.922709 
L 134.427756 134.416375 
L 134.488812 132.340406 
L 134.549868 133.656874 
L 134.610924 133.15054 
L 134.671979 133.783458 
L 134.794091 132.897373 
L 134.916203 134.315108 
L 135.038314 133.504974 
L 135.09937 135.83411 
L 135.160426 134.467008 
L 135.221482 132.54294 
L 135.282537 133.049273 
L 135.404649 135.580943 
L 135.465705 132.821423 
L 135.526761 134.745492 
L 135.648872 132.821423 
L 135.709928 133.099907 
L 135.770984 134.745492 
L 135.83204 134.239158 
L 135.893096 134.112575 
L 136.076263 135.074609 
L 136.137319 133.859408 
L 136.198375 133.960674 
L 136.259431 135.91006 
L 136.320486 133.834091 
L 136.381542 134.467008 
L 136.442598 134.340425 
L 136.503654 133.783458 
L 136.56471 135.125242 
L 136.625765 134.745492 
L 136.686821 134.796125 
L 136.747877 134.239158 
L 136.808933 135.251826 
L 136.931044 133.023957 
L 137.053156 134.517642 
L 137.114212 133.555607 
L 137.175268 135.049292 
L 137.236324 133.859408 
L 137.297379 133.606241 
L 137.358435 135.226509 
L 137.541603 132.365723 
L 137.663714 135.226509 
L 137.72477 134.087258 
L 137.785826 134.922709 
L 137.846882 135.707526 
L 137.907937 132.897373 
L 137.968993 134.036624 
L 138.030049 134.036624 
L 138.152161 136.922727 
L 138.335328 133.758141 
L 138.396384 135.859426 
L 138.45744 134.163208 
L 138.518496 134.163208 
L 138.579551 134.391058 
L 138.701663 133.30244 
L 138.762719 135.378409 
L 138.823775 134.441692 
L 138.884831 135.606259 
L 138.945886 133.099907 
L 139.006942 133.175857 
L 139.129054 136.264493 
L 139.19011 133.859408 
L 139.251165 135.83411 
L 139.312221 135.175876 
L 139.434333 134.137891 
L 139.556444 135.099925 
L 139.6175 134.264475 
L 139.678556 135.099925 
L 139.739612 134.973342 
L 139.861724 133.454341 
L 139.922779 134.137891 
L 139.983835 134.289791 
L 140.044891 133.935358 
L 140.105947 135.682209 
L 140.289114 133.403707 
L 140.35017 133.175857 
L 140.472282 133.985991 
L 140.533338 133.37839 
L 140.594393 133.859408 
L 140.655449 134.745492 
L 140.716505 133.479657 
L 140.777561 134.391058 
L 140.838617 134.315108 
L 140.899672 133.049273 
L 140.960728 134.872075 
L 141.021784 134.213841 
L 141.08284 134.061941 
L 141.143896 134.745492 
L 141.204951 133.353074 
L 141.266007 134.897392 
L 141.388119 132.46699 
L 141.449175 135.125242 
L 141.510231 134.137891 
L 141.571286 134.821442 
L 141.632342 133.30244 
L 141.693398 133.403707 
L 141.754454 133.429024 
L 141.81551 134.644225 
L 141.876565 133.530291 
L 141.937621 134.542958 
L 141.998677 132.315089 
L 142.059733 133.277124 
L 142.120789 134.036624 
L 142.181845 133.783458 
L 142.2429 133.960674 
L 142.303956 133.15054 
L 142.365012 134.441692 
L 142.487124 133.277124 
L 142.548179 134.720175 
L 142.609235 133.808774 
L 142.731347 134.872075 
L 142.792403 133.251807 
L 142.853458 134.441692 
L 142.97557 133.884724 
L 143.036626 135.099925 
L 143.097682 132.821423 
L 143.158738 133.530291 
L 143.280849 135.277142 
L 143.341905 133.656874 
L 143.402961 133.935358 
L 143.586128 133.175857 
L 143.70824 135.099925 
L 143.769296 133.606241 
L 143.830351 135.327776 
L 143.891407 133.454341 
L 143.952463 134.770808 
L 144.074575 133.580924 
L 144.135631 133.656874 
L 144.196686 134.163208 
L 144.257742 133.479657 
L 144.318798 133.985991 
L 144.379854 135.023975 
L 144.44091 134.568275 
L 144.624077 133.175857 
L 144.685133 132.77079 
L 144.807245 134.922709 
L 144.8683 133.403707 
L 144.929356 133.707507 
L 144.990412 134.239158 
L 145.051468 133.960674 
L 145.112524 132.340406 
L 145.234635 134.391058 
L 145.295691 132.92269 
L 145.356747 133.403707 
L 145.417803 132.745473 
L 145.478858 132.821423 
L 145.845193 134.720175 
L 145.906249 131.074572 
L 145.967305 133.023957 
L 146.089417 133.631557 
L 146.211528 132.77079 
L 146.272584 134.897392 
L 146.33364 134.315108 
L 146.455752 132.492306 
L 146.516807 133.859408 
L 146.577863 133.707507 
L 146.638919 132.897373 
L 146.761031 134.087258 
L 146.822086 132.188506 
L 146.883142 133.580924 
L 146.944198 131.960656 
L 147.005254 132.340406 
L 147.188421 133.15054 
L 147.249477 132.92269 
L 147.310533 132.112556 
L 147.432645 133.935358 
L 147.4937 131.682172 
L 147.554756 133.985991 
L 147.615812 132.54294 
L 147.676868 132.087239 
L 147.921091 133.429024 
L 147.982147 131.479639 
L 148.165314 134.315108 
L 148.287426 132.365723 
L 148.348482 133.504974 
L 148.409538 132.69484 
L 148.531649 132.112556 
L 148.714817 134.289791 
L 148.775872 132.213823 
L 148.836928 132.948007 
L 148.897984 132.568256 
L 149.020096 134.137891 
L 149.142207 132.365723 
L 149.203263 133.07459 
L 149.264319 132.92269 
L 149.325375 132.137873 
L 149.447486 133.37839 
L 149.630654 131.429005 
L 149.752765 133.479657 
L 149.813821 133.15054 
L 149.874877 132.745473 
L 149.996989 133.454341 
L 150.1191 132.036606 
L 150.302268 133.530291 
L 150.363324 131.099888 
L 150.424379 132.087239 
L 150.485435 132.137873 
L 150.546491 131.403689 
L 150.668603 133.201174 
L 150.790714 130.947988 
L 150.85177 131.910022 
L 150.912826 130.922671 
L 150.973882 132.593573 
L 151.034938 131.808756 
L 151.095993 130.821405 
L 151.157049 132.441673 
L 151.218105 130.872038 
L 151.279161 131.631539 
L 151.340217 131.960656 
L 151.462328 130.821405 
L 151.523384 131.504955 
L 151.58444 129.85937 
L 151.645496 130.796088 
L 151.706552 131.910022 
L 151.828663 130.365704 
L 151.889719 131.150522 
L 151.950775 129.17582 
L 152.011831 129.910004 
L 152.194998 131.580905 
L 152.378166 128.821386 
L 152.439221 128.872019 
L 152.561333 129.656837 
L 152.683445 128.466952 
L 152.7445 130.365704 
L 152.805556 129.09987 
L 152.866612 128.872019 
L 152.927668 127.732768 
L 152.988724 129.302403 
L 153.049779 128.239102 
L 153.110835 128.011252 
L 153.171891 129.201136 
L 153.294003 127.074534 
L 153.355059 127.909985 
L 153.782449 125.909966 
L 153.843505 126.644151 
L 153.965617 124.821349 
L 154.087728 125.454266 
L 154.148784 124.466915 
L 154.20984 124.720082 
L 154.270896 124.947932 
L 154.331952 122.871963 
L 154.393007 123.504881 
L 154.454063 123.302347 
L 154.637231 120.416244 
L 154.698286 120.390928 
L 154.759342 120.998528 
L 154.881454 118.492176 
L 154.94251 119.201043 
L 155.186733 114.871889 
L 155.430956 111.504769 
L 155.675179 103.555328 
L 155.736235 104.036345 
L 156.041514 94.314735 
L 156.407849 82.972858 
L 156.591017 74.365183 
L 156.713128 75.960134 
L 156.774184 74.719616 
L 157.079463 80.744989 
L 157.262631 87.555179 
L 157.323686 87.631129 
L 157.690021 101.226192 
L 157.812133 102.289493 
L 157.9953 108.6693 
L 158.056356 107.859165 
L 158.117412 107.985749 
L 158.422691 113.631371 
L 158.483747 113.580738 
L 158.605859 116.846591 
L 158.666914 114.365555 
L 158.72797 118.213692 
L 158.789026 117.251658 
L 158.972193 120.770678 
L 159.094305 117.909892 
L 159.216417 121.049162 
L 159.277473 120.011177 
L 159.338528 120.416244 
L 159.46064 123.631464 
L 159.521696 122.82133 
L 159.582752 121.682079 
L 159.643807 122.112463 
L 159.704863 122.390946 
L 159.949087 126.011233 
L 160.010142 124.137798 
L 160.071198 126.061867 
L 160.132254 125.454266 
L 160.19331 123.403614 
L 160.254366 124.770715 
L 160.315421 125.88465 
L 160.376477 125.175782 
L 160.437533 124.947932 
L 160.559645 126.897317 
L 160.6207 126.770734 
L 160.742812 127.884668 
L 160.92598 126.466934 
L 160.987035 128.087202 
L 161.048091 128.036569 
L 161.109147 128.315052 
L 161.170203 127.707452 
L 161.231259 128.618852 
L 161.292314 127.935302 
L 161.414426 130.188487 
L 161.475482 128.568219 
L 161.536538 128.669486 
L 161.658649 130.01127 
L 161.719705 128.542902 
L 161.780761 128.694803 
L 161.963928 130.846721 
L 162.08604 130.796088 
L 162.147096 129.40367 
L 162.208152 131.403689 
L 162.269207 130.087221 
L 162.330263 130.821405 
L 162.391319 130.796088 
L 162.452375 130.416338 
L 162.513431 130.998621 
L 162.574487 129.40367 
L 162.635542 130.340387 
L 162.696598 130.087221 
L 162.81871 131.935339 
L 162.879766 131.479639 
" clip-path="url(#p370a6942a5)" style="fill: none; stroke: #1f77b4; stroke-width: 0.5; stroke-linecap: square"/>
   </g>
   <g id="patch_3">
    <path d="M 23.410312 143.1 
L 23.410312 7.2 
" style="fill: none; stroke: #000000; stroke-width: 0.8; stroke-linejoin: miter; stroke-linecap: square"/>
   </g>
   <g id="patch_4">
    <path d="M 162.910313 143.1 
L 162.910313 7.2 
" style="fill: none; stroke: #000000; stroke-width: 0.8; stroke-linejoin: miter; stroke-linecap: square"/>
   </g>
   <g id="patch_5">
    <path d="M 23.410312 143.1 
L 162.910313 143.1 
" style="fill: none; stroke: #000000; stroke-width: 0.8; stroke-linejoin: miter; stroke-linecap: square"/>
   </g>
   <g id="patch_6">
    <path d="M 23.410312 7.2 
L 162.910313 7.2 
" style="fill: none; stroke: #000000; stroke-width: 0.8; stroke-linejoin: miter; stroke-linecap: square"/>
   </g>
  </g>
 </g>
 <defs>
  <clipPath id="p370a6942a5">
   <rect x="23.410312" y="7.2" width="139.5" height="135.9"/>
  </clipPath>
 </defs>
</svg>
