<?xml version="1.0" encoding="utf-8" standalone="no"?>
<!DOCTYPE svg PUBLIC "-//W3C//DTD SVG 1.1//EN"
  "http://www.w3.org/Graphics/SVG/1.1/DTD/svg11.dtd">
<svg xmlns:xlink="http://www.w3.org/1999/xlink" width="170.110313pt" height="177.752813pt" viewBox="0 0 170.110313 177.752813" xmlns="http://www.w3.org/2000/svg" version="1.1">
 <metadata>
  <rdf:RDF xmlns:dc="http://purl.org/dc/elements/1.1/" xmlns:cc="http://creativecommons.org/ns#" xmlns:rdf="http://www.w3.org/1999/02/22-rdf-syntax-ns#">
   <cc:Work>
    <dc:type rdf:resource="http://purl.org/dc/dcmitype/StillImage"/>
    <dc:date>2023-02-25T15:21:28.694351</dc:date>
    <dc:format>image/svg+xml</dc:format>
    <dc:creator>
     <cc:Agent>
      <dc:title>Matplotlib v3.5.2, https://matplotlib.org/</dc:title>
     </cc:Agent>
    </dc:creator>
   </cc:Work>
  </rdf:RDF>
 </metadata>
 <defs>
  <style type="text/css">*{stroke-linejoin: round; stroke-linecap: butt}</style>
 </defs>
 <g id="figure_1">
  <g id="patch_1">
   <path d="M 0 177.752813 
L 170.110313 177.752813 
L 170.110313 0 
L 0 0 
z
" style="fill: #ffffff"/>
  </g>
  <g id="axes_1">
   <g id="patch_2">
    <path d="M 23.410312 143.1 
L 162.910313 143.1 
L 162.910313 7.2 
L 23.410312 7.2 
z
" style="fill: #ffffff"/>
   </g>
   <g id="matplotlib.axis_1">
    <g id="xtick_1">
     <g id="line2d_1">
      <defs>
       <path id="m66497d0221" d="M 0 0 
L 0 3.5 
" style="stroke: #000000; stroke-width: 0.8"/>
      </defs>
      <g>
       <use xlink:href="#m66497d0221" x="58.285313" y="143.1" style="stroke: #000000; stroke-width: 0.8"/>
      </g>
     </g>
     <g id="text_1">
      <!-- 20 -->
      <g transform="translate(53.195312 156.17875)scale(0.08 -0.08)">
       <defs>
        <path id="DejaVuSans-32" d="M 1228 531 
L 3431 531 
L 3431 0 
L 469 0 
L 469 531 
Q 828 903 1448 1529 
Q 2069 2156 2228 2338 
Q 2531 2678 2651 2914 
Q 2772 3150 2772 3378 
Q 2772 3750 2511 3984 
Q 2250 4219 1831 4219 
Q 1534 4219 1204 4116 
Q 875 4013 500 3803 
L 500 4441 
Q 881 4594 1212 4672 
Q 1544 4750 1819 4750 
Q 2544 4750 2975 4387 
Q 3406 4025 3406 3419 
Q 3406 3131 3298 2873 
Q 3191 2616 2906 2266 
Q 2828 2175 2409 1742 
Q 1991 1309 1228 531 
z
" transform="scale(0.015625)"/>
        <path id="DejaVuSans-30" d="M 2034 4250 
Q 1547 4250 1301 3770 
Q 1056 3291 1056 2328 
Q 1056 1369 1301 889 
Q 1547 409 2034 409 
Q 2525 409 2770 889 
Q 3016 1369 3016 2328 
Q 3016 3291 2770 3770 
Q 2525 4250 2034 4250 
z
M 2034 4750 
Q 2819 4750 3233 4129 
Q 3647 3509 3647 2328 
Q 3647 1150 3233 529 
Q 2819 -91 2034 -91 
Q 1250 -91 836 529 
Q 422 1150 422 2328 
Q 422 3509 836 4129 
Q 1250 4750 2034 4750 
z
" transform="scale(0.015625)"/>
       </defs>
       <use xlink:href="#DejaVuSans-32"/>
       <use xlink:href="#DejaVuSans-30" x="63.623047"/>
      </g>
     </g>
    </g>
    <g id="xtick_2">
     <g id="line2d_2">
      <g>
       <use xlink:href="#m66497d0221" x="104.785313" y="143.1" style="stroke: #000000; stroke-width: 0.8"/>
      </g>
     </g>
     <g id="text_2">
      <!-- 40 -->
      <g transform="translate(99.695312 156.17875)scale(0.08 -0.08)">
       <defs>
        <path id="DejaVuSans-34" d="M 2419 4116 
L 825 1625 
L 2419 1625 
L 2419 4116 
z
M 2253 4666 
L 3047 4666 
L 3047 1625 
L 3713 1625 
L 3713 1100 
L 3047 1100 
L 3047 0 
L 2419 0 
L 2419 1100 
L 313 1100 
L 313 1709 
L 2253 4666 
z
" transform="scale(0.015625)"/>
       </defs>
       <use xlink:href="#DejaVuSans-34"/>
       <use xlink:href="#DejaVuSans-30" x="63.623047"/>
      </g>
     </g>
    </g>
    <g id="xtick_3">
     <g id="line2d_3">
      <g>
       <use xlink:href="#m66497d0221" x="151.285313" y="143.1" style="stroke: #000000; stroke-width: 0.8"/>
      </g>
     </g>
     <g id="text_3">
      <!-- 60 -->
      <g transform="translate(146.195312 156.17875)scale(0.08 -0.08)">
       <defs>
        <path id="DejaVuSans-36" d="M 2113 2584 
Q 1688 2584 1439 2293 
Q 1191 2003 1191 1497 
Q 1191 994 1439 701 
Q 1688 409 2113 409 
Q 2538 409 2786 701 
Q 3034 994 3034 1497 
Q 3034 2003 2786 2293 
Q 2538 2584 2113 2584 
z
M 3366 4563 
L 3366 3988 
Q 3128 4100 2886 4159 
Q 2644 4219 2406 4219 
Q 1781 4219 1451 3797 
Q 1122 3375 1075 2522 
Q 1259 2794 1537 2939 
Q 1816 3084 2150 3084 
Q 2853 3084 3261 2657 
Q 3669 2231 3669 1497 
Q 3669 778 3244 343 
Q 2819 -91 2113 -91 
Q 1303 -91 875 529 
Q 447 1150 447 2328 
Q 447 3434 972 4092 
Q 1497 4750 2381 4750 
Q 2619 4750 2861 4703 
Q 3103 4656 3366 4563 
z
" transform="scale(0.015625)"/>
       </defs>
       <use xlink:href="#DejaVuSans-36"/>
       <use xlink:href="#DejaVuSans-30" x="63.623047"/>
      </g>
     </g>
    </g>
    <g id="xtick_4">
     <g id="line2d_4">
      <defs>
       <path id="mf547ca2b85" d="M 0 0 
L 0 2 
" style="stroke: #000000; stroke-width: 0.6"/>
      </defs>
      <g>
       <use xlink:href="#mf547ca2b85" x="23.410312" y="143.1" style="stroke: #000000; stroke-width: 0.6"/>
      </g>
     </g>
    </g>
    <g id="xtick_5">
     <g id="line2d_5">
      <g>
       <use xlink:href="#mf547ca2b85" x="29.222812" y="143.1" style="stroke: #000000; stroke-width: 0.6"/>
      </g>
     </g>
    </g>
    <g id="xtick_6">
     <g id="line2d_6">
      <g>
       <use xlink:href="#mf547ca2b85" x="35.035313" y="143.1" style="stroke: #000000; stroke-width: 0.6"/>
      </g>
     </g>
    </g>
    <g id="xtick_7">
     <g id="line2d_7">
      <g>
       <use xlink:href="#mf547ca2b85" x="40.847813" y="143.1" style="stroke: #000000; stroke-width: 0.6"/>
      </g>
     </g>
    </g>
    <g id="xtick_8">
     <g id="line2d_8">
      <g>
       <use xlink:href="#mf547ca2b85" x="46.660313" y="143.1" style="stroke: #000000; stroke-width: 0.6"/>
      </g>
     </g>
    </g>
    <g id="xtick_9">
     <g id="line2d_9">
      <g>
       <use xlink:href="#mf547ca2b85" x="52.472813" y="143.1" style="stroke: #000000; stroke-width: 0.6"/>
      </g>
     </g>
    </g>
    <g id="xtick_10">
     <g id="line2d_10">
      <g>
       <use xlink:href="#mf547ca2b85" x="64.097813" y="143.1" style="stroke: #000000; stroke-width: 0.6"/>
      </g>
     </g>
    </g>
    <g id="xtick_11">
     <g id="line2d_11">
      <g>
       <use xlink:href="#mf547ca2b85" x="69.910313" y="143.1" style="stroke: #000000; stroke-width: 0.6"/>
      </g>
     </g>
    </g>
    <g id="xtick_12">
     <g id="line2d_12">
      <g>
       <use xlink:href="#mf547ca2b85" x="75.722813" y="143.1" style="stroke: #000000; stroke-width: 0.6"/>
      </g>
     </g>
    </g>
    <g id="xtick_13">
     <g id="line2d_13">
      <g>
       <use xlink:href="#mf547ca2b85" x="81.535313" y="143.1" style="stroke: #000000; stroke-width: 0.6"/>
      </g>
     </g>
    </g>
    <g id="xtick_14">
     <g id="line2d_14">
      <g>
       <use xlink:href="#mf547ca2b85" x="87.347813" y="143.1" style="stroke: #000000; stroke-width: 0.6"/>
      </g>
     </g>
    </g>
    <g id="xtick_15">
     <g id="line2d_15">
      <g>
       <use xlink:href="#mf547ca2b85" x="93.160313" y="143.1" style="stroke: #000000; stroke-width: 0.6"/>
      </g>
     </g>
    </g>
    <g id="xtick_16">
     <g id="line2d_16">
      <g>
       <use xlink:href="#mf547ca2b85" x="98.972813" y="143.1" style="stroke: #000000; stroke-width: 0.6"/>
      </g>
     </g>
    </g>
    <g id="xtick_17">
     <g id="line2d_17">
      <g>
       <use xlink:href="#mf547ca2b85" x="110.597813" y="143.1" style="stroke: #000000; stroke-width: 0.6"/>
      </g>
     </g>
    </g>
    <g id="xtick_18">
     <g id="line2d_18">
      <g>
       <use xlink:href="#mf547ca2b85" x="116.410313" y="143.1" style="stroke: #000000; stroke-width: 0.6"/>
      </g>
     </g>
    </g>
    <g id="xtick_19">
     <g id="line2d_19">
      <g>
       <use xlink:href="#mf547ca2b85" x="122.222813" y="143.1" style="stroke: #000000; stroke-width: 0.6"/>
      </g>
     </g>
    </g>
    <g id="xtick_20">
     <g id="line2d_20">
      <g>
       <use xlink:href="#mf547ca2b85" x="128.035313" y="143.1" style="stroke: #000000; stroke-width: 0.6"/>
      </g>
     </g>
    </g>
    <g id="xtick_21">
     <g id="line2d_21">
      <g>
       <use xlink:href="#mf547ca2b85" x="133.847813" y="143.1" style="stroke: #000000; stroke-width: 0.6"/>
      </g>
     </g>
    </g>
    <g id="xtick_22">
     <g id="line2d_22">
      <g>
       <use xlink:href="#mf547ca2b85" x="139.660313" y="143.1" style="stroke: #000000; stroke-width: 0.6"/>
      </g>
     </g>
    </g>
    <g id="xtick_23">
     <g id="line2d_23">
      <g>
       <use xlink:href="#mf547ca2b85" x="145.472813" y="143.1" style="stroke: #000000; stroke-width: 0.6"/>
      </g>
     </g>
    </g>
    <g id="xtick_24">
     <g id="line2d_24">
      <g>
       <use xlink:href="#mf547ca2b85" x="157.097813" y="143.1" style="stroke: #000000; stroke-width: 0.6"/>
      </g>
     </g>
    </g>
    <g id="xtick_25">
     <g id="line2d_25">
      <g>
       <use xlink:href="#mf547ca2b85" x="162.910313" y="143.1" style="stroke: #000000; stroke-width: 0.6"/>
      </g>
     </g>
    </g>
    <g id="text_4">
     <!-- Two Theta (degrees) -->
     <g transform="translate(47.344688 168.681094)scale(0.09 -0.09)">
      <defs>
       <path id="DejaVuSans-54" d="M -19 4666 
L 3928 4666 
L 3928 4134 
L 2272 4134 
L 2272 0 
L 1638 0 
L 1638 4134 
L -19 4134 
L -19 4666 
z
" transform="scale(0.015625)"/>
       <path id="DejaVuSans-77" d="M 269 3500 
L 844 3500 
L 1563 769 
L 2278 3500 
L 2956 3500 
L 3675 769 
L 4391 3500 
L 4966 3500 
L 4050 0 
L 3372 0 
L 2619 2869 
L 1863 0 
L 1184 0 
L 269 3500 
z
" transform="scale(0.015625)"/>
       <path id="DejaVuSans-6f" d="M 1959 3097 
Q 1497 3097 1228 2736 
Q 959 2375 959 1747 
Q 959 1119 1226 758 
Q 1494 397 1959 397 
Q 2419 397 2687 759 
Q 2956 1122 2956 1747 
Q 2956 2369 2687 2733 
Q 2419 3097 1959 3097 
z
M 1959 3584 
Q 2709 3584 3137 3096 
Q 3566 2609 3566 1747 
Q 3566 888 3137 398 
Q 2709 -91 1959 -91 
Q 1206 -91 779 398 
Q 353 888 353 1747 
Q 353 2609 779 3096 
Q 1206 3584 1959 3584 
z
" transform="scale(0.015625)"/>
       <path id="DejaVuSans-20" transform="scale(0.015625)"/>
       <path id="DejaVuSans-68" d="M 3513 2113 
L 3513 0 
L 2938 0 
L 2938 2094 
Q 2938 2591 2744 2837 
Q 2550 3084 2163 3084 
Q 1697 3084 1428 2787 
Q 1159 2491 1159 1978 
L 1159 0 
L 581 0 
L 581 4863 
L 1159 4863 
L 1159 2956 
Q 1366 3272 1645 3428 
Q 1925 3584 2291 3584 
Q 2894 3584 3203 3211 
Q 3513 2838 3513 2113 
z
" transform="scale(0.015625)"/>
       <path id="DejaVuSans-65" d="M 3597 1894 
L 3597 1613 
L 953 1613 
Q 991 1019 1311 708 
Q 1631 397 2203 397 
Q 2534 397 2845 478 
Q 3156 559 3463 722 
L 3463 178 
Q 3153 47 2828 -22 
Q 2503 -91 2169 -91 
Q 1331 -91 842 396 
Q 353 884 353 1716 
Q 353 2575 817 3079 
Q 1281 3584 2069 3584 
Q 2775 3584 3186 3129 
Q 3597 2675 3597 1894 
z
M 3022 2063 
Q 3016 2534 2758 2815 
Q 2500 3097 2075 3097 
Q 1594 3097 1305 2825 
Q 1016 2553 972 2059 
L 3022 2063 
z
" transform="scale(0.015625)"/>
       <path id="DejaVuSans-74" d="M 1172 4494 
L 1172 3500 
L 2356 3500 
L 2356 3053 
L 1172 3053 
L 1172 1153 
Q 1172 725 1289 603 
Q 1406 481 1766 481 
L 2356 481 
L 2356 0 
L 1766 0 
Q 1100 0 847 248 
Q 594 497 594 1153 
L 594 3053 
L 172 3053 
L 172 3500 
L 594 3500 
L 594 4494 
L 1172 4494 
z
" transform="scale(0.015625)"/>
       <path id="DejaVuSans-61" d="M 2194 1759 
Q 1497 1759 1228 1600 
Q 959 1441 959 1056 
Q 959 750 1161 570 
Q 1363 391 1709 391 
Q 2188 391 2477 730 
Q 2766 1069 2766 1631 
L 2766 1759 
L 2194 1759 
z
M 3341 1997 
L 3341 0 
L 2766 0 
L 2766 531 
Q 2569 213 2275 61 
Q 1981 -91 1556 -91 
Q 1019 -91 701 211 
Q 384 513 384 1019 
Q 384 1609 779 1909 
Q 1175 2209 1959 2209 
L 2766 2209 
L 2766 2266 
Q 2766 2663 2505 2880 
Q 2244 3097 1772 3097 
Q 1472 3097 1187 3025 
Q 903 2953 641 2809 
L 641 3341 
Q 956 3463 1253 3523 
Q 1550 3584 1831 3584 
Q 2591 3584 2966 3190 
Q 3341 2797 3341 1997 
z
" transform="scale(0.015625)"/>
       <path id="DejaVuSans-28" d="M 1984 4856 
Q 1566 4138 1362 3434 
Q 1159 2731 1159 2009 
Q 1159 1288 1364 580 
Q 1569 -128 1984 -844 
L 1484 -844 
Q 1016 -109 783 600 
Q 550 1309 550 2009 
Q 550 2706 781 3412 
Q 1013 4119 1484 4856 
L 1984 4856 
z
" transform="scale(0.015625)"/>
       <path id="DejaVuSans-64" d="M 2906 2969 
L 2906 4863 
L 3481 4863 
L 3481 0 
L 2906 0 
L 2906 525 
Q 2725 213 2448 61 
Q 2172 -91 1784 -91 
Q 1150 -91 751 415 
Q 353 922 353 1747 
Q 353 2572 751 3078 
Q 1150 3584 1784 3584 
Q 2172 3584 2448 3432 
Q 2725 3281 2906 2969 
z
M 947 1747 
Q 947 1113 1208 752 
Q 1469 391 1925 391 
Q 2381 391 2643 752 
Q 2906 1113 2906 1747 
Q 2906 2381 2643 2742 
Q 2381 3103 1925 3103 
Q 1469 3103 1208 2742 
Q 947 2381 947 1747 
z
" transform="scale(0.015625)"/>
       <path id="DejaVuSans-67" d="M 2906 1791 
Q 2906 2416 2648 2759 
Q 2391 3103 1925 3103 
Q 1463 3103 1205 2759 
Q 947 2416 947 1791 
Q 947 1169 1205 825 
Q 1463 481 1925 481 
Q 2391 481 2648 825 
Q 2906 1169 2906 1791 
z
M 3481 434 
Q 3481 -459 3084 -895 
Q 2688 -1331 1869 -1331 
Q 1566 -1331 1297 -1286 
Q 1028 -1241 775 -1147 
L 775 -588 
Q 1028 -725 1275 -790 
Q 1522 -856 1778 -856 
Q 2344 -856 2625 -561 
Q 2906 -266 2906 331 
L 2906 616 
Q 2728 306 2450 153 
Q 2172 0 1784 0 
Q 1141 0 747 490 
Q 353 981 353 1791 
Q 353 2603 747 3093 
Q 1141 3584 1784 3584 
Q 2172 3584 2450 3431 
Q 2728 3278 2906 2969 
L 2906 3500 
L 3481 3500 
L 3481 434 
z
" transform="scale(0.015625)"/>
       <path id="DejaVuSans-72" d="M 2631 2963 
Q 2534 3019 2420 3045 
Q 2306 3072 2169 3072 
Q 1681 3072 1420 2755 
Q 1159 2438 1159 1844 
L 1159 0 
L 581 0 
L 581 3500 
L 1159 3500 
L 1159 2956 
Q 1341 3275 1631 3429 
Q 1922 3584 2338 3584 
Q 2397 3584 2469 3576 
Q 2541 3569 2628 3553 
L 2631 2963 
z
" transform="scale(0.015625)"/>
       <path id="DejaVuSans-73" d="M 2834 3397 
L 2834 2853 
Q 2591 2978 2328 3040 
Q 2066 3103 1784 3103 
Q 1356 3103 1142 2972 
Q 928 2841 928 2578 
Q 928 2378 1081 2264 
Q 1234 2150 1697 2047 
L 1894 2003 
Q 2506 1872 2764 1633 
Q 3022 1394 3022 966 
Q 3022 478 2636 193 
Q 2250 -91 1575 -91 
Q 1294 -91 989 -36 
Q 684 19 347 128 
L 347 722 
Q 666 556 975 473 
Q 1284 391 1588 391 
Q 1994 391 2212 530 
Q 2431 669 2431 922 
Q 2431 1156 2273 1281 
Q 2116 1406 1581 1522 
L 1381 1569 
Q 847 1681 609 1914 
Q 372 2147 372 2553 
Q 372 3047 722 3315 
Q 1072 3584 1716 3584 
Q 2034 3584 2315 3537 
Q 2597 3491 2834 3397 
z
" transform="scale(0.015625)"/>
       <path id="DejaVuSans-29" d="M 513 4856 
L 1013 4856 
Q 1481 4119 1714 3412 
Q 1947 2706 1947 2009 
Q 1947 1309 1714 600 
Q 1481 -109 1013 -844 
L 513 -844 
Q 928 -128 1133 580 
Q 1338 1288 1338 2009 
Q 1338 2731 1133 3434 
Q 928 4138 513 4856 
z
" transform="scale(0.015625)"/>
      </defs>
      <use xlink:href="#DejaVuSans-54"/>
      <use xlink:href="#DejaVuSans-77" x="44.583984"/>
      <use xlink:href="#DejaVuSans-6f" x="126.371094"/>
      <use xlink:href="#DejaVuSans-20" x="187.552734"/>
      <use xlink:href="#DejaVuSans-54" x="219.339844"/>
      <use xlink:href="#DejaVuSans-68" x="280.423828"/>
      <use xlink:href="#DejaVuSans-65" x="343.802734"/>
      <use xlink:href="#DejaVuSans-74" x="405.326172"/>
      <use xlink:href="#DejaVuSans-61" x="444.535156"/>
      <use xlink:href="#DejaVuSans-20" x="505.814453"/>
      <use xlink:href="#DejaVuSans-28" x="537.601562"/>
      <use xlink:href="#DejaVuSans-64" x="576.615234"/>
      <use xlink:href="#DejaVuSans-65" x="640.091797"/>
      <use xlink:href="#DejaVuSans-67" x="701.615234"/>
      <use xlink:href="#DejaVuSans-72" x="765.091797"/>
      <use xlink:href="#DejaVuSans-65" x="803.955078"/>
      <use xlink:href="#DejaVuSans-65" x="865.478516"/>
      <use xlink:href="#DejaVuSans-73" x="927.001953"/>
      <use xlink:href="#DejaVuSans-29" x="979.101562"/>
     </g>
    </g>
   </g>
   <g id="matplotlib.axis_2">
    <g id="ytick_1">
     <g id="line2d_26"/>
    </g>
    <g id="ytick_2">
     <g id="line2d_27"/>
    </g>
    <g id="ytick_3">
     <g id="line2d_28"/>
    </g>
    <g id="ytick_4">
     <g id="line2d_29"/>
    </g>
    <g id="text_5">
     <!-- Intensity -->
     <g transform="translate(14.038594 94.73625)rotate(-90)scale(0.09 -0.09)">
      <defs>
       <path id="DejaVuSans-49" d="M 628 4666 
L 1259 4666 
L 1259 0 
L 628 0 
L 628 4666 
z
" transform="scale(0.015625)"/>
       <path id="DejaVuSans-6e" d="M 3513 2113 
L 3513 0 
L 2938 0 
L 2938 2094 
Q 2938 2591 2744 2837 
Q 2550 3084 2163 3084 
Q 1697 3084 1428 2787 
Q 1159 2491 1159 1978 
L 1159 0 
L 581 0 
L 581 3500 
L 1159 3500 
L 1159 2956 
Q 1366 3272 1645 3428 
Q 1925 3584 2291 3584 
Q 2894 3584 3203 3211 
Q 3513 2838 3513 2113 
z
" transform="scale(0.015625)"/>
       <path id="DejaVuSans-69" d="M 603 3500 
L 1178 3500 
L 1178 0 
L 603 0 
L 603 3500 
z
M 603 4863 
L 1178 4863 
L 1178 4134 
L 603 4134 
L 603 4863 
z
" transform="scale(0.015625)"/>
       <path id="DejaVuSans-79" d="M 2059 -325 
Q 1816 -950 1584 -1140 
Q 1353 -1331 966 -1331 
L 506 -1331 
L 506 -850 
L 844 -850 
Q 1081 -850 1212 -737 
Q 1344 -625 1503 -206 
L 1606 56 
L 191 3500 
L 800 3500 
L 1894 763 
L 2988 3500 
L 3597 3500 
L 2059 -325 
z
" transform="scale(0.015625)"/>
      </defs>
      <use xlink:href="#DejaVuSans-49"/>
      <use xlink:href="#DejaVuSans-6e" x="29.492188"/>
      <use xlink:href="#DejaVuSans-74" x="92.871094"/>
      <use xlink:href="#DejaVuSans-65" x="132.080078"/>
      <use xlink:href="#DejaVuSans-6e" x="193.603516"/>
      <use xlink:href="#DejaVuSans-73" x="256.982422"/>
      <use xlink:href="#DejaVuSans-69" x="309.082031"/>
      <use xlink:href="#DejaVuSans-74" x="336.865234"/>
      <use xlink:href="#DejaVuSans-79" x="376.074219"/>
     </g>
    </g>
   </g>
   <g id="line2d_30">
    <path d="M 23.428285 13.731918 
L 23.489341 16.69804 
L 23.550397 13.377273 
L 23.733564 21.695312 
L 23.855676 20.051049 
L 24.038844 29.723188 
L 24.099899 28.433569 
L 24.160955 24.758156 
L 24.344123 33.172917 
L 24.405178 35.236307 
L 24.466234 35.107345 
L 24.588346 35.042864 
L 24.771513 38.718277 
L 24.832569 34.655978 
L 24.893625 37.364177 
L 24.954681 40.233578 
L 25.015737 39.008441 
L 25.137848 39.878933 
L 25.198904 44.715003 
L 25.25996 37.267456 
L 25.321016 43.780029 
L 25.382071 43.747789 
L 25.565239 40.781666 
L 25.626295 41.265273 
L 25.748406 47.004076 
L 25.809462 50.582767 
L 25.870518 50.195882 
L 25.99263 44.231396 
L 26.114741 52.16255 
L 26.175797 46.455988 
L 26.236853 48.261454 
L 26.297909 49.841236 
L 26.358964 49.164187 
L 26.42002 49.712275 
L 26.542132 47.681125 
L 26.725299 54.451623 
L 26.786355 49.841236 
L 26.847411 55.483318 
L 26.908467 52.323752 
L 27.030578 55.870203 
L 27.091634 53.484409 
L 27.15269 55.354356 
L 27.335858 57.836871 
L 27.457969 53.387687 
L 27.519025 61.028677 
L 27.580081 56.450531 
L 27.702192 60.093704 
L 27.763248 59.706818 
L 27.824304 59.900261 
L 27.88536 61.125399 
L 27.946416 60.706273 
L 28.007471 58.707364 
L 28.068527 62.318296 
L 28.129583 60.867475 
L 28.190639 56.869657 
L 28.251695 61.544525 
L 28.312751 58.868566 
L 28.373806 59.610097 
L 28.556974 64.413926 
L 28.679085 60.51283 
L 28.740141 63.478952 
L 28.801197 59.964742 
L 28.862253 61.963651 
L 28.984365 65.993708 
L 29.04542 63.801357 
L 29.106476 63.027586 
L 29.167532 65.187697 
L 29.228588 63.962559 
L 29.350699 65.477861 
L 29.411755 64.252723 
L 29.472811 68.508465 
L 29.533867 64.349445 
L 29.594923 67.734693 
L 29.655978 64.768571 
L 29.717034 68.572946 
L 29.77809 67.380048 
L 29.900202 66.251632 
L 29.961258 68.508465 
L 30.022313 67.541251 
L 30.083369 66.09043 
L 30.144425 70.410652 
L 30.205481 69.282236 
L 30.266537 67.444529 
L 30.327592 68.637426 
L 30.388648 71.506828 
L 30.449704 67.605732 
L 30.51076 68.959831 
L 30.571816 68.605186 
L 30.693927 70.152728 
L 30.754983 68.734148 
L 30.816039 69.346717 
L 30.877095 70.410652 
L 30.938151 74.537431 
L 30.999206 70.765297 
L 31.060262 72.860927 
L 31.121318 73.022129 
L 31.182374 68.637426 
L 31.24343 69.894805 
L 31.426597 74.827595 
L 31.548709 70.217209 
L 31.67082 75.407924 
L 31.731876 72.828687 
L 31.792932 75.601366 
L 31.853988 71.119942 
L 31.915044 71.70027 
L 32.220323 76.278416 
L 32.281378 71.474587 
L 32.342434 71.63579 
L 32.40349 79.276779 
L 32.464546 75.440164 
L 32.525602 76.149454 
L 32.586658 75.730328 
L 32.647713 74.215027 
L 32.708769 75.11776 
L 32.769825 78.66421 
L 32.830881 76.278416 
L 32.952992 74.44071 
L 33.014048 75.021038 
L 33.13616 78.470768 
L 33.197216 73.473496 
L 33.258272 78.696451 
L 33.319327 75.440164 
L 33.380383 77.535794 
L 33.441439 76.407378 
L 33.502495 77.793718 
L 33.563551 76.084973 
L 33.685662 77.987161 
L 33.746718 77.406832 
L 33.807774 78.245084 
L 33.86883 77.825958 
L 33.929885 77.277871 
L 34.113053 79.921589 
L 34.235165 79.083336 
L 34.29622 77.92268 
L 34.357276 81.275688 
L 34.479388 77.471313 
L 34.662555 83.242356 
L 34.723611 78.083882 
L 34.784667 81.791535 
L 34.845723 80.308474 
L 34.906779 81.340169 
L 34.967834 82.0817 
L 35.02889 79.889348 
L 35.089946 81.372409 
L 35.151002 81.565852 
L 35.212058 80.921043 
L 35.395225 82.694268 
L 35.456281 83.210116 
L 35.517337 80.921043 
L 35.578392 81.211207 
L 35.700504 84.435253 
L 35.822616 81.791535 
L 35.883672 85.209024 
L 35.944727 83.53252 
L 36.005783 81.340169 
L 36.066839 82.79099 
L 36.127895 83.983887 
L 36.188951 83.50028 
L 36.250006 83.468039 
L 36.311062 81.533612 
L 36.372118 85.789353 
L 36.433174 85.402467 
L 36.49423 82.758749 
L 36.555286 87.69154 
L 36.616341 86.079517 
L 36.677397 84.951101 
L 36.799509 88.723235 
L 36.92162 83.274597 
L 36.982676 87.465857 
L 37.043732 87.336895 
L 37.104788 85.015582 
L 37.165844 86.434162 
L 37.226899 88.36859 
L 37.287955 87.369136 
L 37.349011 86.369681 
L 37.471123 88.690994 
L 37.532179 85.821593 
L 37.593234 86.079517 
L 37.65429 87.594819 
L 37.715346 86.337441 
L 37.776402 86.853288 
L 37.837458 86.240719 
L 37.898513 87.078971 
L 37.959569 86.176238 
L 38.020625 89.75493 
L 38.081681 89.07788 
L 38.142737 87.788262 
L 38.264848 89.980613 
L 38.509072 87.369136 
L 38.631183 90.786625 
L 38.814351 88.529792 
L 38.875406 90.238537 
L 38.936462 87.336895 
L 38.997518 89.335804 
L 39.058574 88.465311 
L 39.11963 92.946736 
L 39.180686 92.011762 
L 39.241741 88.852197 
L 39.302797 88.884437 
L 39.363853 89.206842 
L 39.485965 91.657117 
L 39.54702 90.851106 
L 39.608076 92.398648 
L 39.669132 91.947281 
L 39.730188 92.205205 
L 39.791244 90.818865 
L 39.852299 95.397011 
L 39.913355 93.301381 
L 39.974411 93.204659 
L 40.157579 90.980067 
L 40.27969 91.85056 
L 40.340746 93.849469 
L 40.401802 92.624331 
L 40.462858 90.399739 
L 40.523913 93.140178 
L 40.584969 91.979522 
L 40.646025 92.430888 
L 40.707081 91.915041 
L 40.768137 94.687721 
L 40.829193 94.333076 
L 41.01236 92.656571 
L 41.073416 94.042911 
L 41.134472 92.108484 
L 41.317639 94.848923 
L 41.378695 93.011217 
L 41.439751 96.235263 
L 41.500806 96.138541 
L 41.561862 93.91395 
L 41.622918 95.139087 
L 41.683974 93.623785 
L 41.74503 96.847832 
L 41.806086 93.075697 
L 41.867141 95.912858 
L 42.050309 94.62324 
L 42.111365 97.782805 
L 42.17242 94.075152 
L 42.233476 94.397556 
L 42.416644 97.524881 
L 42.4777 97.105755 
L 42.538755 98.685538 
L 42.599811 94.590999 
L 42.660867 95.139087 
L 42.721923 95.848377 
L 42.844034 98.878981 
L 42.90509 93.849469 
L 42.966146 98.395374 
L 43.027202 95.429251 
L 43.210369 98.911221 
L 43.271425 96.71887 
L 43.332481 97.815046 
L 43.393537 96.589908 
L 43.454593 96.686629 
L 43.515648 96.847832 
L 43.576704 96.75111 
L 43.63776 97.686084 
L 43.698816 95.33253 
L 43.759872 96.396465 
L 44.065151 102.522153 
L 44.187262 98.459855 
L 44.248318 98.556576 
L 44.309374 96.525427 
L 44.37043 97.557122 
L 44.431486 96.331984 
L 44.553597 99.878435 
L 44.675709 97.589362 
L 44.736765 99.942916 
L 44.79782 97.944007 
L 44.858876 98.040729 
L 44.919932 100.845649 
L 44.980988 98.782259 
L 45.042044 99.040183 
L 45.1031 100.523244 
L 45.225211 97.782805 
L 45.408379 100.362042 
L 45.53049 97.299198 
L 45.591546 100.781168 
L 45.652602 95.268049 
L 45.713658 99.136905 
L 45.774713 97.363679 
L 45.835769 102.32871 
L 45.896825 100.974611 
L 46.018937 103.392646 
L 46.079993 99.040183 
L 46.141048 99.265866 
L 46.202104 99.298107 
L 46.26316 98.556576 
L 46.324216 98.685538 
L 46.507383 101.329256 
L 46.568439 99.104664 
L 46.629495 100.168599 
L 46.690551 99.620511 
L 46.812662 102.909039 
L 46.99583 97.041274 
L 47.178997 102.006306 
L 47.240053 100.136359 
L 47.301109 100.619966 
L 47.362165 100.136359 
L 47.42322 102.812317 
L 47.484276 102.651115 
L 47.545332 98.588817 
L 47.606388 102.941279 
L 47.667444 101.877344 
L 47.7285 102.489913 
L 47.911667 98.266412 
L 48.033779 102.747836 
L 48.15589 98.072969 
L 48.461169 102.489913 
L 48.522225 99.265866 
L 48.583281 101.909584 
L 48.644337 100.007397 
L 48.705393 100.20084 
L 48.766448 103.295924 
L 48.827504 97.4604 
L 48.88856 97.524881 
L 49.071727 100.555485 
L 49.132783 100.426523 
L 49.193839 103.263684 
L 49.315951 99.588271 
L 49.499118 104.42434 
L 49.682286 98.459855 
L 49.804397 103.134722 
L 49.865453 102.457672 
L 49.926509 98.395374 
L 49.987565 101.522699 
L 50.048621 101.200294 
L 50.170732 98.459855 
L 50.231788 101.135813 
L 50.292844 101.103573 
L 50.3539 101.071332 
L 50.414955 102.586634 
L 50.537067 99.394828 
L 50.598123 103.134722 
L 50.659179 101.974065 
L 50.720234 101.909584 
L 50.903402 97.331439 
L 50.964458 100.555485 
L 51.025514 98.201931 
L 51.086569 95.912858 
L 51.208681 101.812863 
L 51.269737 98.492095 
L 51.330793 100.265321 
L 51.391848 99.620511 
L 51.452904 100.039638 
L 51.575016 100.265321 
L 51.636072 96.686629 
L 51.697127 98.040729 
L 51.880295 100.813409 
L 52.002407 98.492095 
L 52.063462 101.554939 
L 52.124518 99.233626 
L 52.185574 100.974611 
L 52.24663 98.040729 
L 52.307686 101.458218 
L 52.368741 100.329802 
L 52.429797 101.61942 
L 52.490853 101.168054 
L 52.551909 99.169145 
L 52.612965 99.201385 
L 52.674021 100.297561 
L 52.796132 96.396465 
L 52.857188 100.813409 
L 52.918244 95.397011 
L 52.9793 97.911767 
L 53.040355 97.847286 
L 53.101411 99.620511 
L 53.162467 99.459309 
L 53.284579 95.171328 
L 53.40669 98.911221 
L 53.528802 94.171873 
L 53.589858 96.815591 
L 53.650914 97.653843 
L 53.711969 94.784442 
L 53.773025 94.881163 
L 53.895137 98.363133 
L 53.956193 96.267503 
L 54.017248 96.525427 
L 54.078304 98.427614 
L 54.13936 93.462583 
L 54.200416 96.493187 
L 54.261472 96.170782 
L 54.322528 92.946736 
L 54.383583 98.492095 
L 54.444639 97.331439 
L 54.749918 92.656571 
L 54.87203 95.816137 
L 54.933086 95.461492 
L 54.994141 94.139633 
L 55.055197 95.106847 
L 55.116253 97.782805 
L 55.177309 96.074061 
L 55.238365 91.818319 
L 55.299421 94.590999 
L 55.360476 95.622694 
L 55.543644 91.012308 
L 55.726811 93.494823 
L 55.848923 90.077334 
L 55.971035 93.043457 
L 56.03209 89.271323 
L 56.093146 91.237991 
L 56.154202 91.85056 
L 56.215258 91.302472 
L 56.398425 88.723235 
L 56.459481 87.820502 
L 56.642648 90.367499 
L 56.703704 88.690994 
L 56.76476 91.17351 
L 56.886872 87.304655 
L 56.947928 90.49646 
L 57.008983 88.110666 
L 57.192151 91.334712 
L 57.253207 86.434162 
L 57.314262 89.432525 
L 57.375318 87.562578 
L 57.436374 89.980613 
L 57.49743 86.853288 
L 57.558486 90.560941 
L 57.680597 86.853288 
L 57.741653 87.272414 
L 57.802709 85.59591 
L 57.863765 87.627059 
L 57.985876 83.145635 
L 58.107988 85.950555 
L 58.169044 82.049459 
L 58.2301 84.048368 
L 58.291155 84.628696 
L 58.352211 84.17733 
L 58.413267 83.693723 
L 58.474323 85.273505 
L 58.535379 84.048368 
L 58.596435 80.598638 
L 58.718546 85.209024 
L 58.779602 82.597547 
L 58.840658 82.629787 
L 58.901714 84.370772 
L 58.962769 83.53252 
L 59.023825 81.43689 
L 59.084881 82.855471 
L 59.145937 81.694814 
L 59.206993 83.242356 
L 59.329104 80.082791 
L 59.39016 83.306837 
L 59.451216 81.40465 
L 59.512272 83.629242 
L 59.573328 78.438527 
L 59.634383 80.211753 
L 59.695439 79.953829 
L 59.756495 84.306292 
L 59.817551 78.922134 
L 59.878607 79.30902 
L 59.939662 78.825413 
L 60.000718 80.566398 
L 60.12283 78.277325 
L 60.183886 81.211207 
L 60.367053 74.956557 
L 60.550221 78.503008 
L 60.733388 74.634153 
L 60.8555 77.825958 
L 60.916555 75.15 
L 60.977611 76.987706 
L 61.099723 74.666393 
L 61.160779 74.021584 
L 61.28289 76.955466 
L 61.405002 72.119396 
L 61.527114 75.214481 
L 61.588169 73.505736 
L 61.893449 69.217755 
L 61.954504 67.702453 
L 62.01556 75.18224 
L 62.076616 74.505191 
L 62.259783 69.217755 
L 62.320839 68.669667 
L 62.442951 72.699725 
L 62.504007 70.313931 
L 62.626118 73.699179 
L 62.809286 71.410106 
L 62.870342 72.635244 
L 62.931397 69.088793 
L 62.992453 71.732511 
L 63.175621 67.347808 
L 63.297732 70.95874 
L 63.358788 70.894259 
L 63.419844 69.475678 
L 63.4809 71.63579 
L 63.541955 69.346717 
L 63.603011 71.087702 
L 63.786179 67.734693 
L 64.030402 72.731965 
L 64.152514 67.186606 
L 64.213569 68.669667 
L 64.274625 68.959831 
L 64.335681 69.959285 
L 64.457793 65.929228 
L 64.518849 68.15382 
L 64.579904 70.733057 
L 64.64096 66.509556 
L 64.702016 69.185514 
L 64.763072 70.023766 
L 64.824128 67.670213 
L 64.885183 72.119396 
L 65.007295 65.961468 
L 65.068351 70.24945 
L 65.129407 67.444529 
L 65.190462 67.444529 
L 65.251518 67.315567 
L 65.37363 71.345625 
L 65.434686 68.089339 
L 65.495742 68.605186 
L 65.556797 69.733602 
L 65.801021 65.058735 
L 65.862076 69.830324 
L 65.923132 69.088793 
L 65.984188 65.252178 
L 66.045244 67.799174 
L 66.167356 66.187151 
L 66.228411 71.055461 
L 66.289467 70.410652 
L 66.350523 70.056007 
L 66.411579 70.539614 
L 66.53369 64.639609 
L 66.594746 67.605732 
L 66.655802 69.765843 
L 66.716858 66.928682 
L 66.777914 69.217755 
L 66.838969 71.990435 
L 66.900025 62.6407 
L 66.961081 66.219392 
L 67.022137 68.959831 
L 67.083193 68.443984 
L 67.205304 67.057644 
L 67.26636 68.830869 
L 67.388472 65.542342 
L 67.449528 70.829778 
L 67.510583 69.927045 
L 67.571639 66.960922 
L 67.632695 68.605186 
L 67.693751 71.248904 
L 67.754807 66.606277 
L 67.815863 69.733602 
L 67.876918 67.347808 
L 67.937974 70.99098 
L 67.99903 68.089339 
L 68.121142 70.797537 
L 68.182197 69.959285 
L 68.243253 66.058189 
L 68.365365 71.571309 
L 68.548532 66.219392 
L 68.609588 65.477861 
L 68.792756 72.280599 
L 68.853811 68.057098 
L 68.914867 70.24945 
L 69.036979 72.183877 
L 69.15909 69.701362 
L 69.281202 73.699179 
L 69.342258 70.152728 
L 69.403314 71.506828 
L 69.525425 70.28169 
L 69.586481 70.410652 
L 69.647537 70.313931 
L 69.708593 74.827595 
L 69.830704 69.282236 
L 70.013872 73.376775 
L 70.135983 68.605186 
L 70.197039 68.830869 
L 70.380207 74.892076 
L 70.502318 72.989889 
L 70.62443 68.669667 
L 70.685486 69.765843 
L 70.807597 73.215572 
L 70.929709 70.862018 
L 70.990765 74.311748 
L 71.051821 71.506828 
L 71.112876 71.119942 
L 71.173932 72.474042 
L 71.234988 70.604095 
L 71.296044 71.539068 
L 71.3571 74.182786 
L 71.418156 72.635244 
L 71.479211 69.024312 
L 71.540267 71.152183 
L 71.601323 69.153274 
L 71.662379 73.602458 
L 71.723435 71.990435 
L 71.845546 69.991526 
L 71.906602 75.569126 
L 71.967658 72.570763 
L 72.08977 75.794809 
L 72.150825 75.407924 
L 72.211881 70.604095 
L 72.272937 74.47295 
L 72.333993 74.215027 
L 72.395049 72.925408 
L 72.51716 77.439073 
L 72.700328 71.796992 
L 72.822439 77.825958 
L 72.883495 73.957103 
L 73.005607 72.183877 
L 73.066663 77.503554 
L 73.127718 75.85929 
L 73.188774 75.956012 
L 73.24983 77.890439 
L 73.371942 72.409561 
L 73.432997 78.59973 
L 73.494053 74.215027 
L 73.738277 75.85929 
L 73.799332 74.47295 
L 73.921444 79.30902 
L 73.9825 74.730874 
L 74.043556 77.21339 
L 74.104611 75.730328 
L 74.165667 78.696451 
L 74.226723 72.764206 
L 74.287779 77.24563 
L 74.40989 75.665847 
L 74.470946 80.340715 
L 74.532002 77.793718 
L 74.593058 76.923225 
L 74.654114 77.374592 
L 74.71517 79.34126 
L 74.776225 77.116668 
L 74.837281 81.727054 
L 74.898337 78.696451 
L 74.959393 76.278416 
L 75.020449 78.66421 
L 75.081504 75.11776 
L 75.264672 79.857108 
L 75.325728 76.53634 
L 75.386783 81.082245 
L 75.447839 78.889894 
L 75.508895 77.92268 
L 75.569951 80.05055 
L 75.631007 76.890985 
L 75.753118 81.275688 
L 75.814174 80.243993 
L 75.87523 77.21339 
L 75.936286 78.180604 
L 76.241565 82.919952 
L 76.302621 80.566398 
L 76.363677 83.403559 
L 76.424732 81.243448 
L 76.485788 78.535249 
L 76.546844 78.793172 
L 76.730011 85.466948 
L 76.791067 80.276234 
L 76.852123 82.275142 
L 77.03529 79.889348 
L 77.096346 80.372955 
L 77.157402 83.339078 
L 77.218458 80.69536 
L 77.279514 82.14618 
L 77.34057 82.210661 
L 77.401625 84.822139 
L 77.462681 79.631424 
L 77.523737 85.176784 
L 77.584793 83.983887 
L 77.706904 80.05055 
L 77.76796 82.017219 
L 77.829016 80.598638 
L 77.890072 80.921043 
L 77.951128 80.759841 
L 78.134295 84.274051 
L 78.195351 81.501371 
L 78.256407 81.791535 
L 78.317463 81.598093 
L 78.378518 84.757658 
L 78.439574 83.50028 
L 78.561686 84.467494 
L 78.622742 80.792081 
L 78.683797 83.597001 
L 78.866965 85.918315 
L 78.928021 86.27296 
L 78.989077 82.371864 
L 79.111188 86.692086 
L 79.172244 86.015036 
L 79.2333 80.437436 
L 79.294356 83.693723 
L 79.416467 85.757112 
L 79.599635 82.726509 
L 79.660691 83.048913 
L 79.904914 85.982796 
L 79.96597 86.369681 
L 80.027025 88.529792 
L 80.149137 84.693177 
L 80.271249 88.465311 
L 80.332304 88.787716 
L 80.39336 84.628696 
L 80.454416 86.176238 
L 80.515472 89.948373 
L 80.576528 87.046731 
L 80.637584 84.91886 
L 80.698639 90.270777 
L 80.759695 88.916678 
L 80.820751 87.756021 
L 80.881807 87.852742 
L 80.942863 87.756021 
L 81.064974 86.98225 
L 81.12603 89.529247 
L 81.187086 89.432525 
L 81.248142 89.013399 
L 81.309197 90.722144 
L 81.370253 89.335804 
L 81.431309 88.529792 
L 81.492365 92.430888 
L 81.553421 89.529247 
L 81.614477 87.01449 
L 81.675532 87.078971 
L 81.8587 92.076243 
L 81.919756 87.272414 
L 81.980811 90.49646 
L 82.102923 90.303018 
L 82.286091 89.110121 
L 82.408202 91.592636 
L 82.469258 91.399193 
L 82.530314 86.756567 
L 82.713481 92.463129 
L 82.774537 89.883892 
L 82.835593 91.205751 
L 82.896649 90.109575 
L 82.957704 94.010671 
L 83.01876 93.430343 
L 83.140872 90.560941 
L 83.324039 96.331984 
L 83.385095 91.044548 
L 83.446151 93.91395 
L 83.507207 92.463129 
L 83.568263 96.170782 
L 83.629318 91.753838 
L 83.690374 91.8828 
L 83.75143 92.495369 
L 83.812486 91.721598 
L 83.934598 96.203022 
L 83.995653 94.204114 
L 84.056709 92.52761 
L 84.178821 98.008488 
L 84.423044 93.559304 
L 84.4841 95.945099 
L 84.545156 95.558213 
L 84.606211 96.235263 
L 84.789379 93.430343 
L 84.850435 94.397556 
L 84.911491 95.042366 
L 85.094658 98.975702 
L 85.155714 96.589908 
L 85.21677 97.782805 
L 85.277825 96.203022 
L 85.338881 97.4604 
L 85.460993 96.170782 
L 85.522049 97.4604 
L 85.583105 94.977885 
L 85.766272 98.911221 
L 85.827328 97.170236 
L 85.888384 98.427614 
L 85.949439 100.329802 
L 86.010495 96.396465 
L 86.071551 100.555485 
L 86.132607 98.685538 
L 86.193663 97.39592 
L 86.315774 99.846195 
L 86.37683 98.10521 
L 86.437886 98.492095 
L 86.498942 98.8145 
L 86.559998 98.459855 
L 86.682109 100.587725 
L 86.743165 100.265321 
L 86.804221 97.4604 
L 86.865277 101.103573 
L 86.926332 99.49155 
L 86.987388 98.911221 
L 87.048444 99.684992 
L 87.1095 102.135268 
L 87.170556 100.555485 
L 87.231612 99.459309 
L 87.414779 101.329256 
L 87.475835 101.683901 
L 87.536891 98.975702 
L 87.720058 104.972428 
L 87.964281 101.297016 
L 88.025337 100.748928 
L 88.208505 103.553848 
L 88.26956 102.586634 
L 88.391672 105.198112 
L 88.452728 100.748928 
L 88.513784 103.392646 
L 88.574839 103.00576 
L 88.635895 104.585543 
L 88.696951 103.070241 
L 88.758007 105.198112 
L 88.819063 103.586088 
L 88.880118 103.424886 
L 88.941174 102.683355 
L 89.00223 104.650024 
L 89.063286 102.425432 
L 89.124342 105.971883 
L 89.185398 100.716687 
L 89.307509 107.003578 
L 89.368565 106.068604 
L 89.490677 106.616692 
L 89.551732 106.48773 
L 89.612788 106.004123 
L 89.673844 106.197566 
L 89.795956 107.390463 
L 89.918067 105.036909 
L 89.979123 105.004669 
L 90.040179 107.487184 
L 90.101235 105.520516 
L 90.162291 104.327619 
L 90.345458 107.583906 
L 90.406514 106.068604 
L 90.46757 108.003032 
L 90.528625 106.777894 
L 90.650737 108.003032 
L 90.711793 107.16478 
L 90.89496 110.163143 
L 91.017072 107.712868 
L 91.078128 109.034727 
L 91.139184 108.744563 
L 91.200239 107.487184 
L 91.261295 109.324891 
L 91.322351 109.26041 
L 91.444463 107.616146 
L 91.62763 111.871887 
L 91.749742 106.745654 
L 91.871853 109.647296 
L 91.932909 108.325437 
L 91.993965 111.775166 
L 92.055021 109.389372 
L 92.177132 112.548937 
L 92.238188 110.807952 
L 92.299244 110.807952 
L 92.3603 110.969154 
L 92.421356 109.066967 
L 92.482412 111.065876 
L 92.543467 109.872979 
L 92.665579 111.646204 
L 92.726635 109.711776 
L 92.787691 113.580632 
L 92.848746 112.516697 
L 92.970858 113.677353 
L 93.031914 111.35604 
L 93.09297 111.742926 
L 93.154026 114.257682 
L 93.215081 110.324345 
L 93.276137 112.613418 
L 93.398249 113.387189 
L 93.459305 113.258227 
L 93.52036 113.612872 
L 93.581416 112.613418 
L 93.642472 113.41943 
L 93.703528 113.580632 
L 93.825639 111.291559 
L 93.886695 112.645659 
L 93.947751 111.420521 
L 94.008807 115.095934 
L 94.069863 114.418884 
L 94.130919 113.709594 
L 94.191974 111.613964 
L 94.25303 114.870251 
L 94.314086 113.129266 
L 94.436198 115.418338 
L 94.558309 113.645113 
L 94.741477 116.19211 
L 94.802532 114.225441 
L 94.863588 115.257136 
L 94.924644 116.127629 
L 94.9857 114.612327 
L 95.046756 116.321071 
L 95.107812 114.322163 
L 95.229923 117.191564 
L 95.290979 117.159323 
L 95.352035 115.772983 
L 95.413091 118.706866 
L 95.474146 111.710685 
L 95.535202 114.322163 
L 95.596258 114.225441 
L 95.657314 119.158232 
L 95.71837 117.578449 
L 95.779426 116.353312 
L 95.840481 116.385552 
L 95.962593 117.578449 
L 96.023649 116.385552 
L 96.084705 116.514514 
L 96.267872 119.190473 
L 96.328928 119.964244 
L 96.389984 117.417247 
L 96.451039 119.803041 
L 96.512095 117.481728 
L 96.573151 119.061511 
L 96.634207 118.384461 
L 96.695263 118.964789 
L 96.817374 118.029816 
L 96.87843 118.126537 
L 96.939486 120.705774 
L 97.000542 120.286648 
L 97.061598 116.836919 
L 97.122653 118.31998 
L 97.305821 121.253862 
L 97.366877 118.352221 
L 97.427933 119.835282 
L 97.488988 119.996484 
L 97.550044 120.866977 
L 97.672156 118.706866 
L 97.733212 120.38337 
L 97.794267 118.577904 
L 97.855323 119.480637 
L 97.916379 120.351129 
L 97.977435 119.287194 
L 98.160602 121.898671 
L 98.282714 119.02927 
L 98.404826 122.350038 
L 98.526937 120.028725 
L 98.587993 120.866977 
L 98.649049 123.575176 
L 98.710105 122.156595 
L 98.832216 120.480091 
L 98.954328 121.705229 
L 99.015384 120.899217 
L 99.198551 122.736924 
L 99.259607 121.576267 
L 99.320663 123.510695 
L 99.381719 122.382278 
L 99.50383 124.735832 
L 99.564886 121.576267 
L 99.625942 124.091023 
L 99.748053 122.543481 
L 99.809109 123.478454 
L 99.870165 123.800859 
L 99.931221 122.156595 
L 99.992277 122.446759 
L 100.053333 122.672443 
L 100.114388 124.671351 
L 100.175444 122.027633 
L 100.2365 124.219985 
L 100.297556 122.833645 
L 100.358612 120.576812 
L 100.541779 124.60687 
L 100.602835 122.672443 
L 100.663891 125.219439 
L 100.724946 123.446214 
L 100.786002 123.671897 
L 100.847058 124.60687 
L 100.908114 124.187744 
L 100.96917 123.575176 
L 101.030226 123.639656 
L 101.091281 125.316161 
L 101.152337 122.930366 
L 101.213393 125.187199 
L 101.335505 121.995393 
L 101.39656 126.218894 
L 101.457616 123.349492 
L 101.518672 124.639111 
L 101.579728 123.833099 
L 101.640784 122.221076 
L 101.70184 124.252225 
L 101.762895 123.349492 
L 101.823951 123.446214 
L 101.946063 125.380641 
L 102.007119 123.285011 
L 102.068174 123.413973 
L 102.190286 125.832008 
L 102.312398 123.413973 
L 102.373453 125.154958 
L 102.434509 123.962061 
L 102.617677 125.703046 
L 102.678733 123.800859 
L 102.739788 126.573539 
L 102.800844 124.961515 
L 102.8619 124.800313 
L 102.922956 125.154958 
L 102.984012 124.316706 
L 103.045067 125.928729 
L 103.106123 123.994302 
L 103.167179 126.63802 
L 103.228235 124.703592 
L 103.289291 124.57463 
L 103.350347 122.672443 
L 103.472458 126.928184 
L 103.533514 123.575176 
L 103.59457 127.153867 
L 103.655626 126.315615 
L 103.716681 126.7025 
L 103.777737 124.091023 
L 103.838793 127.508512 
L 103.899849 126.766981 
L 104.02196 125.090477 
L 104.083016 127.057146 
L 104.144072 124.155504 
L 104.205128 125.735287 
L 104.266184 125.187199 
L 104.32724 128.669169 
L 104.449351 124.155504 
L 104.571463 126.057691 
L 104.632519 123.349492 
L 104.693574 125.025996 
L 104.75463 125.25168 
L 104.815686 124.961515 
L 104.937798 126.734741 
L 104.998854 125.380641 
L 105.059909 127.540753 
L 105.120965 124.993756 
L 105.182021 126.154413 
L 105.304133 124.864794 
L 105.365188 124.864794 
L 105.426244 125.025996 
L 105.4873 127.218348 
L 105.609412 124.671351 
L 105.792579 127.089386 
L 105.853635 124.381187 
L 105.914691 126.476817 
L 105.975747 126.218894 
L 106.097858 125.187199 
L 106.21997 127.057146 
L 106.281026 124.316706 
L 106.403137 127.540753 
L 106.64736 125.799768 
L 106.708416 125.767527 
L 106.769472 125.896489 
L 106.830528 126.476817 
L 107.013695 125.28392 
L 107.135807 126.863703 
L 107.196863 124.57463 
L 107.38003 129.249497 
L 107.563198 126.605779 
L 107.624254 127.476272 
L 107.685309 127.444031 
L 107.746365 126.347855 
L 107.807421 127.186107 
L 107.868477 128.572447 
L 107.990588 124.542389 
L 108.051644 129.47518 
L 108.1127 126.380096 
L 108.234812 127.669714 
L 108.295867 127.540753 
L 108.356923 127.572993 
L 108.417979 125.735287 
L 108.479035 128.507966 
L 108.540091 126.573539 
L 108.601147 126.347855 
L 108.723258 127.669714 
L 108.84537 125.348401 
L 108.906426 127.895398 
L 108.967481 127.024905 
L 109.028537 127.121626 
L 109.089593 127.057146 
L 109.150649 127.830917 
L 109.211705 126.573539 
L 109.272761 127.572993 
L 109.394872 124.929275 
L 109.455928 126.7025 
L 109.516984 128.443485 
L 109.57804 125.187199 
L 109.639095 126.347855 
L 109.700151 126.895943 
L 109.761207 125.928729 
L 109.822263 126.831462 
L 109.883319 129.44294 
L 109.944374 129.313978 
L 110.066486 126.218894 
L 110.127542 127.959879 
L 110.188598 126.734741 
L 110.249654 126.766981 
L 110.310709 126.509058 
L 110.432821 128.475726 
L 110.615988 124.864794 
L 110.7381 126.799222 
L 110.799156 125.219439 
L 110.860212 125.864248 
L 110.921268 127.024905 
L 110.982323 126.831462 
L 111.104435 124.864794 
L 111.165491 126.380096 
L 111.226547 124.897035 
L 111.287602 126.605779 
L 111.409714 124.639111 
L 111.47077 127.057146 
L 111.592881 122.833645 
L 111.653937 125.541844 
L 111.714993 125.477363 
L 111.776049 125.670806 
L 111.837105 127.927638 
L 111.898161 124.800313 
L 111.959216 125.445122 
L 112.020272 125.090477 
L 112.081328 126.895943 
L 112.142384 125.896489 
L 112.264495 128.540207 
L 112.386607 125.025996 
L 112.447663 127.572993 
L 112.508719 127.024905 
L 112.569774 127.992119 
L 112.63083 127.895398 
L 112.813998 126.67026 
L 112.936109 129.668623 
L 113.119277 128.08884 
L 113.180333 129.700864 
L 113.241388 128.669169 
L 113.302444 128.443485 
L 113.3635 126.67026 
L 113.424556 130.410154 
L 113.485612 128.76589 
L 113.546668 127.895398 
L 113.607723 128.0566 
L 113.668779 128.669169 
L 113.729835 128.121081 
L 113.790891 130.087749 
L 113.851947 129.926547 
L 113.913002 129.668623 
L 114.035114 127.282829 
L 114.09617 127.508512 
L 114.157226 129.088295 
L 114.279337 126.895943 
L 114.340393 130.571356 
L 114.401449 128.572447 
L 114.462505 131.151684 
L 114.523561 126.766981 
L 114.584616 127.927638 
L 114.645672 130.345673 
L 114.706728 129.507421 
L 114.82884 130.345673 
L 114.950951 128.73365 
L 115.012007 130.474635 
L 115.073063 128.572447 
L 115.134119 129.281738 
L 115.195175 131.345127 
L 115.317286 129.185016 
L 115.500454 131.409608 
L 115.622565 128.73365 
L 115.683621 130.797039 
L 115.744677 130.216711 
L 115.805733 129.668623 
L 115.866788 130.248951 
L 115.927844 127.476272 
L 115.9889 128.73365 
L 116.049956 130.506875 
L 116.111012 128.185562 
L 116.172068 128.991573 
L 116.233123 130.764799 
L 116.294179 127.927638 
L 116.355235 128.991573 
L 116.416291 129.765344 
L 116.477347 128.443485 
L 116.538402 132.634746 
L 116.599458 130.18447 
L 116.660514 128.604688 
L 116.72157 130.15223 
L 116.782626 127.540753 
L 116.843682 128.862612 
L 116.904737 131.280646 
L 116.965793 129.765344 
L 117.026849 130.958242 
L 117.087905 130.926001 
L 117.148961 130.797039 
L 117.210016 132.022177 
L 117.271072 127.734195 
L 117.332128 130.248951 
L 117.393184 129.958787 
L 117.45424 128.669169 
L 117.576351 132.24786 
L 117.637407 132.022177 
L 117.759519 129.636383 
L 117.88163 131.925455 
L 117.942686 130.990482 
L 118.064798 129.926547 
L 118.125854 132.795948 
L 118.186909 129.571902 
L 118.247965 129.829825 
L 118.370077 133.182834 
L 118.553244 129.829825 
L 118.6143 129.636383 
L 118.736412 131.667532 
L 118.797468 131.603051 
L 118.919579 130.345673 
L 118.980635 132.731467 
L 119.041691 132.538024 
L 119.102747 129.47518 
L 119.163802 131.57081 
L 119.34697 128.636928 
L 119.530137 131.828734 
L 119.591193 131.151684 
L 119.652249 131.699772 
L 119.713305 131.764253 
L 119.774361 132.441303 
L 119.835416 129.636383 
L 119.896472 131.828734 
L 119.957528 131.53857 
L 120.018584 132.21562 
L 120.07964 129.313978 
L 120.140695 131.506329 
L 120.201751 132.086658 
L 120.323863 130.926001 
L 120.384919 132.022177 
L 120.445975 131.474089 
L 120.50703 131.183925 
L 120.629142 130.15223 
L 120.690198 130.82928 
L 120.751254 132.892669 
L 120.812309 132.344582 
L 120.873365 131.312887 
L 120.934421 132.409062 
L 121.056533 130.216711 
L 121.178644 132.441303 
L 121.2397 130.571356 
L 121.300756 131.474089 
L 121.544979 132.731467 
L 121.667091 131.183925 
L 121.728147 130.023268 
L 121.789202 132.634746 
L 121.850258 129.507421 
L 121.911314 129.571902 
L 121.97237 133.118353 
L 122.033426 131.796494 
L 122.094482 131.764253 
L 122.155537 131.312887 
L 122.216593 132.473543 
L 122.277649 130.926001 
L 122.338705 131.087203 
L 122.399761 133.344036 
L 122.460816 129.765344 
L 122.521872 131.280646 
L 122.582928 130.442394 
L 122.766096 133.6342 
L 122.827151 130.11999 
L 122.888207 131.699772 
L 122.949263 131.183925 
L 123.010319 132.086658 
L 123.071375 131.280646 
L 123.13243 132.118898 
L 123.193486 131.893215 
L 123.315598 131.377368 
L 123.437709 134.150047 
L 123.498765 132.086658 
L 123.559821 134.214528 
L 123.620877 132.763708 
L 123.681933 132.795948 
L 123.804044 130.023268 
L 123.987212 131.893215 
L 124.048268 131.603051 
L 124.231435 132.828188 
L 124.292491 132.92491 
L 124.353547 132.022177 
L 124.414603 132.473543 
L 124.475658 133.344036 
L 124.536714 132.763708 
L 124.59777 132.795948 
L 124.658826 133.795402 
L 124.841993 132.24786 
L 124.903049 133.60196 
L 125.025161 129.539661 
L 125.086216 133.569719 
L 125.147272 132.666986 
L 125.208328 132.312341 
L 125.269384 133.859883 
L 125.33044 133.376276 
L 125.452551 132.21562 
L 125.513607 132.95715 
L 125.574663 130.15223 
L 125.75783 133.472998 
L 125.818886 131.183925 
L 125.879942 131.53857 
L 125.940998 131.57081 
L 126.124165 133.698681 
L 126.246277 133.376276 
L 126.368389 131.603051 
L 126.4905 133.440757 
L 126.551556 131.409608 
L 126.612612 133.279555 
L 126.673668 133.086112 
L 126.795779 132.828188 
L 126.856835 132.95715 
L 126.917891 133.150593 
L 126.978947 132.505784 
L 127.040003 134.569173 
L 127.101058 133.086112 
L 127.162114 133.698681 
L 127.22317 132.763708 
L 127.284226 133.215074 
L 127.345282 133.537479 
L 127.467393 132.538024 
L 127.589505 134.633654 
L 127.650561 133.60196 
L 127.772672 132.538024 
L 127.833728 131.860975 
L 128.016896 134.569173 
L 128.139007 132.344582 
L 128.261119 134.279009 
L 128.322175 130.18447 
L 128.38323 133.376276 
L 128.444286 133.344036 
L 128.566398 131.312887 
L 128.68851 132.892669 
L 128.749565 132.699227 
L 128.810621 130.345673 
L 128.871677 130.668077 
L 128.932733 133.666441 
L 128.993789 132.634746 
L 129.176956 134.698135 
L 129.238012 132.441303 
L 129.299068 132.699227 
L 129.360123 134.053326 
L 129.421179 133.472998 
L 129.543291 134.375731 
L 129.726458 132.505784 
L 129.787514 130.990482 
L 129.970682 134.279009 
L 130.214905 131.506329 
L 130.337017 134.569173 
L 130.398072 132.312341 
L 130.459128 134.053326 
L 130.642296 132.376822 
L 130.703351 132.118898 
L 130.764407 134.407971 
L 130.947575 131.409608 
L 131.00863 134.472452 
L 131.069686 132.473543 
L 131.130742 134.827097 
L 131.191798 133.182834 
L 131.374965 131.216165 
L 131.436021 135.02054 
L 131.497077 133.698681 
L 131.619189 132.92491 
L 131.680244 134.762616 
L 131.7413 133.182834 
L 131.802356 134.633654 
L 131.863412 133.150593 
L 131.924468 133.763162 
L 132.046579 134.407971 
L 132.107635 134.182288 
L 132.229747 134.956059 
L 132.47397 131.474089 
L 132.657137 135.181742 
L 132.718193 135.149502 
L 132.840305 134.923819 
L 132.901361 132.95715 
L 133.023472 134.633654 
L 133.084528 134.891578 
L 133.20664 132.505784 
L 133.267696 133.763162 
L 133.328751 131.764253 
L 133.389807 131.989936 
L 133.450863 134.923819 
L 133.511919 133.505238 
L 133.572975 131.860975 
L 133.756142 133.956605 
L 133.817198 132.505784 
L 133.878254 134.34349 
L 133.93931 134.246769 
L 134.122477 133.408517 
L 134.305644 134.827097 
L 134.3667 134.988299 
L 134.427756 132.602505 
L 134.488812 135.213983 
L 134.549868 133.408517 
L 134.610924 133.6342 
L 134.671979 132.892669 
L 134.733035 134.053326 
L 134.855147 132.054417 
L 134.916203 134.375731 
L 134.977258 132.538024 
L 135.09937 134.665895 
L 135.282537 133.279555 
L 135.343593 134.730376 
L 135.404649 134.214528 
L 135.465705 134.633654 
L 135.526761 134.021086 
L 135.587817 135.536387 
L 135.770984 132.699227 
L 135.83204 133.247314 
L 135.893096 132.022177 
L 136.076263 135.117261 
L 136.198375 133.118353 
L 136.259431 133.408517 
L 136.381542 134.440212 
L 136.442598 134.021086 
L 136.503654 132.505784 
L 136.56471 133.698681 
L 136.625765 133.086112 
L 136.686821 134.601414 
L 136.747877 133.763162 
L 136.808933 134.440212 
L 136.869989 132.989391 
L 136.931044 134.150047 
L 136.9921 133.60196 
L 137.053156 131.409608 
L 137.114212 133.730921 
L 137.175268 133.311795 
L 137.236324 132.763708 
L 137.358435 134.891578 
L 137.419491 134.698135 
L 137.480547 132.892669 
L 137.541603 133.988845 
L 137.72477 131.119444 
L 137.846882 133.763162 
L 137.907937 133.118353 
L 137.968993 134.569173 
L 138.030049 132.828188 
L 138.091105 135.085021 
L 138.152161 134.956059 
L 138.213217 132.344582 
L 138.274272 134.117807 
L 138.45744 132.95715 
L 138.518496 133.537479 
L 138.579551 135.471906 
L 138.640607 132.183379 
L 138.701663 133.215074 
L 138.762719 134.021086 
L 138.823775 133.150593 
L 139.006942 135.536387 
L 139.19011 132.602505 
L 139.312221 135.02054 
L 139.373277 132.473543 
L 139.434333 133.505238 
L 139.556444 134.633654 
L 139.678556 133.569719 
L 139.739612 134.569173 
L 139.922779 132.538024 
L 140.105947 133.956605 
L 140.228058 134.730376 
L 140.289114 136.052235 
L 140.35017 132.828188 
L 140.411226 134.021086 
L 140.472282 132.731467 
L 140.533338 134.053326 
L 140.594393 132.860429 
L 140.655449 133.698681 
L 140.716505 134.117807 
L 140.777561 135.826552 
L 140.960728 132.989391 
L 141.021784 132.118898 
L 141.08284 134.279009 
L 141.143896 132.699227 
L 141.204951 133.988845 
L 141.266007 133.795402 
L 141.327063 133.247314 
L 141.388119 134.085567 
L 141.449175 133.827643 
L 141.632342 132.473543 
L 141.81551 135.02054 
L 142.059733 130.958242 
L 142.120789 132.24786 
L 142.2429 133.666441 
L 142.303956 133.215074 
L 142.365012 131.699772 
L 142.426068 134.182288 
L 142.487124 133.988845 
L 142.548179 132.376822 
L 142.609235 133.569719 
L 142.670291 135.149502 
L 142.731347 134.31125 
L 142.792403 132.763708 
L 142.853458 133.215074 
L 142.97557 134.085567 
L 143.097682 132.989391 
L 143.158738 134.472452 
L 143.219793 131.667532 
L 143.280849 132.828188 
L 143.341905 133.892124 
L 143.402961 132.280101 
L 143.464017 132.666986 
L 143.525072 133.698681 
L 143.586128 133.311795 
L 143.647184 132.989391 
L 143.769296 134.085567 
L 143.830351 133.827643 
L 143.891407 135.600868 
L 143.952463 133.053872 
L 144.013519 133.795402 
L 144.074575 134.665895 
L 144.135631 133.182834 
L 144.196686 134.698135 
L 144.257742 131.796494 
L 144.318798 134.569173 
L 144.379854 133.505238 
L 144.44091 134.34349 
L 144.501965 133.150593 
L 144.563021 133.182834 
L 144.624077 134.407971 
L 144.685133 133.408517 
L 144.807245 131.925455 
L 144.990412 134.891578 
L 145.173579 133.215074 
L 145.234635 134.279009 
L 145.295691 130.958242 
L 145.356747 132.280101 
L 145.539914 133.892124 
L 145.60097 133.053872 
L 145.784138 134.407971 
L 145.845193 132.699227 
L 145.906249 135.02054 
L 145.967305 133.827643 
L 146.028361 134.085567 
L 146.089417 133.053872 
L 146.150472 134.407971 
L 146.211528 133.60196 
L 146.33364 130.926001 
L 146.394696 133.956605 
L 146.455752 133.215074 
L 146.516807 133.892124 
L 146.638919 132.054417 
L 146.883142 136.052235 
L 147.06631 131.925455 
L 147.127365 133.956605 
L 147.188421 132.344582 
L 147.249477 131.925455 
L 147.310533 133.344036 
L 147.371589 133.021631 
L 147.432645 133.311795 
L 147.4937 132.151139 
L 147.554756 133.472998 
L 147.615812 131.925455 
L 147.676868 132.21562 
L 147.860035 133.053872 
L 147.921091 132.602505 
L 148.104259 135.278464 
L 148.165314 134.246769 
L 148.22637 130.86152 
L 148.348482 134.31125 
L 148.531649 132.795948 
L 148.592705 133.666441 
L 148.653761 132.505784 
L 148.714817 134.859338 
L 148.775872 134.407971 
L 148.836928 134.407971 
L 148.95904 134.794857 
L 149.020096 134.182288 
L 149.081152 135.310704 
L 149.203263 132.92491 
L 149.264319 134.665895 
L 149.325375 133.505238 
L 149.386431 131.989936 
L 149.447486 132.538024 
L 149.569598 134.827097 
L 149.630654 134.375731 
L 149.69171 134.536933 
L 149.752765 132.054417 
L 149.813821 133.505238 
L 149.935933 135.310704 
L 150.058045 132.538024 
L 150.302268 135.600868 
L 150.363324 131.054963 
L 150.424379 132.24786 
L 150.607547 134.214528 
L 150.729659 130.668077 
L 150.790714 134.536933 
L 150.85177 131.280646 
L 150.912826 134.31125 
L 150.973882 133.344036 
L 151.034938 133.924364 
L 151.095993 133.6342 
L 151.157049 133.730921 
L 151.279161 131.989936 
L 151.462328 135.762071 
L 151.58444 132.312341 
L 151.645496 134.698135 
L 151.706552 133.795402 
L 151.767607 134.021086 
L 151.889719 132.634746 
L 152.011831 134.246769 
L 152.072886 132.022177 
L 152.133942 132.441303 
L 152.194998 134.182288 
L 152.256054 131.860975 
L 152.31711 134.762616 
L 152.378166 134.279009 
L 152.500277 133.118353 
L 152.683445 135.536387 
L 152.866612 132.409062 
L 152.988724 134.665895 
L 153.049779 131.893215 
L 153.110835 134.794857 
L 153.171891 133.698681 
L 153.232947 131.248406 
L 153.355059 133.763162 
L 153.416114 132.054417 
L 153.47717 134.31125 
L 153.538226 132.538024 
L 153.782449 134.988299 
L 153.843505 133.150593 
L 153.904561 134.730376 
L 153.965617 132.409062 
L 154.026673 135.471906 
L 154.087728 133.988845 
L 154.148784 133.247314 
L 154.20984 133.924364 
L 154.393007 133.053872 
L 154.637231 134.214528 
L 154.759342 132.538024 
L 154.820398 132.602505 
L 154.881454 132.989391 
L 154.94251 135.407426 
L 155.003566 133.505238 
L 155.064621 133.730921 
L 155.186733 131.860975 
L 155.247789 133.440757 
L 155.308845 133.247314 
L 155.3699 132.183379 
L 155.430956 134.31125 
L 155.492012 133.053872 
L 155.553068 133.988845 
L 155.614124 132.828188 
L 155.675179 133.827643 
L 155.736235 132.570265 
L 155.797291 133.924364 
L 155.858347 132.312341 
L 155.919403 132.538024 
L 156.041514 133.859883 
L 156.10257 132.570265 
L 156.163626 132.95715 
L 156.224682 134.053326 
L 156.285738 133.730921 
L 156.346793 133.086112 
L 156.407849 133.408517 
L 156.468905 134.440212 
L 156.529961 131.409608 
L 156.591017 132.24786 
L 156.774184 134.536933 
L 156.896296 130.990482 
L 156.957352 132.731467 
L 157.018407 133.247314 
L 157.079463 132.054417 
L 157.140519 133.021631 
L 157.201575 133.956605 
L 157.262631 133.408517 
L 157.323686 134.117807 
L 157.384742 132.570265 
L 157.445798 134.31125 
L 157.506854 131.57081 
L 157.56791 133.311795 
L 157.628966 134.214528 
L 157.690021 133.569719 
L 157.751077 133.924364 
L 157.812133 131.860975 
L 157.873189 135.72983 
L 157.934245 133.472998 
L 157.9953 135.117261 
L 158.056356 132.666986 
L 158.117412 132.92491 
L 158.239524 134.504693 
L 158.30058 133.150593 
L 158.361635 133.795402 
L 158.422691 134.117807 
L 158.483747 132.795948 
L 158.544803 133.118353 
L 158.605859 133.569719 
L 158.666914 135.762071 
L 158.72797 133.279555 
L 158.789026 134.31125 
L 158.850082 134.246769 
L 158.911138 133.118353 
L 158.972193 133.6342 
L 159.033249 134.407971 
L 159.094305 133.440757 
L 159.155361 134.279009 
L 159.216417 132.570265 
L 159.338528 135.213983 
L 159.399584 134.633654 
L 159.521696 136.793765 
L 159.582752 136.052235 
L 159.643807 133.053872 
L 159.704863 133.311795 
L 159.765919 133.376276 
L 159.826975 132.409062 
L 159.888031 136.342399 
L 159.949087 135.69759 
L 160.071198 134.214528 
L 160.132254 134.988299 
L 160.19331 134.569173 
L 160.254366 133.279555 
L 160.315421 133.472998 
L 160.376477 134.988299 
L 160.437533 133.892124 
L 160.498589 133.60196 
L 160.681756 135.69759 
L 160.803868 134.375731 
L 160.864924 136.858246 
L 160.92598 135.504147 
L 161.048091 134.053326 
L 161.109147 136.277918 
L 161.170203 134.279009 
L 161.231259 134.536933 
L 161.292314 135.310704 
L 161.35337 133.311795 
L 161.414426 134.569173 
L 161.475482 133.344036 
L 161.536538 134.279009 
L 161.597594 134.407971 
L 161.658649 135.568628 
L 161.719705 133.795402 
L 161.780761 134.665895 
L 161.902873 136.310158 
L 162.024984 133.827643 
L 162.08604 134.150047 
L 162.147096 135.375185 
L 162.208152 134.956059 
L 162.330263 135.246223 
L 162.391319 134.988299 
L 162.452375 134.891578 
L 162.513431 133.408517 
L 162.574487 136.922727 
L 162.635542 134.31125 
L 162.696598 133.956605 
L 162.757654 135.181742 
L 162.81871 133.021631 
L 162.879766 134.569173 
" clip-path="url(#p4aadd9f050)" style="fill: none; stroke: #1f77b4; stroke-width: 0.5; stroke-linecap: square"/>
   </g>
   <g id="patch_3">
    <path d="M 23.410312 143.1 
L 23.410312 7.2 
" style="fill: none; stroke: #000000; stroke-width: 0.8; stroke-linejoin: miter; stroke-linecap: square"/>
   </g>
   <g id="patch_4">
    <path d="M 162.910313 143.1 
L 162.910313 7.2 
" style="fill: none; stroke: #000000; stroke-width: 0.8; stroke-linejoin: miter; stroke-linecap: square"/>
   </g>
   <g id="patch_5">
    <path d="M 23.410312 143.1 
L 162.910313 143.1 
" style="fill: none; stroke: #000000; stroke-width: 0.8; stroke-linejoin: miter; stroke-linecap: square"/>
   </g>
   <g id="patch_6">
    <path d="M 23.410312 7.2 
L 162.910313 7.2 
" style="fill: none; stroke: #000000; stroke-width: 0.8; stroke-linejoin: miter; stroke-linecap: square"/>
   </g>
  </g>
 </g>
 <defs>
  <clipPath id="p4aadd9f050">
   <rect x="23.410312" y="7.2" width="139.5" height="135.9"/>
  </clipPath>
 </defs>
</svg>
