<?xml version="1.0" encoding="utf-8" standalone="no"?>
<!DOCTYPE svg PUBLIC "-//W3C//DTD SVG 1.1//EN"
  "http://www.w3.org/Graphics/SVG/1.1/DTD/svg11.dtd">
<svg xmlns:xlink="http://www.w3.org/1999/xlink" width="170.110313pt" height="177.752813pt" viewBox="0 0 170.110313 177.752813" xmlns="http://www.w3.org/2000/svg" version="1.1">
 <metadata>
  <rdf:RDF xmlns:dc="http://purl.org/dc/elements/1.1/" xmlns:cc="http://creativecommons.org/ns#" xmlns:rdf="http://www.w3.org/1999/02/22-rdf-syntax-ns#">
   <cc:Work>
    <dc:type rdf:resource="http://purl.org/dc/dcmitype/StillImage"/>
    <dc:date>2023-02-25T15:21:28.855893</dc:date>
    <dc:format>image/svg+xml</dc:format>
    <dc:creator>
     <cc:Agent>
      <dc:title>Matplotlib v3.5.2, https://matplotlib.org/</dc:title>
     </cc:Agent>
    </dc:creator>
   </cc:Work>
  </rdf:RDF>
 </metadata>
 <defs>
  <style type="text/css">*{stroke-linejoin: round; stroke-linecap: butt}</style>
 </defs>
 <g id="figure_1">
  <g id="patch_1">
   <path d="M 0 177.752813 
L 170.110313 177.752813 
L 170.110313 0 
L 0 0 
z
" style="fill: #ffffff"/>
  </g>
  <g id="axes_1">
   <g id="patch_2">
    <path d="M 23.410312 143.1 
L 162.910313 143.1 
L 162.910313 7.2 
L 23.410312 7.2 
z
" style="fill: #ffffff"/>
   </g>
   <g id="matplotlib.axis_1">
    <g id="xtick_1">
     <g id="line2d_1">
      <defs>
       <path id="me0ed614354" d="M 0 0 
L 0 3.5 
" style="stroke: #000000; stroke-width: 0.8"/>
      </defs>
      <g>
       <use xlink:href="#me0ed614354" x="58.285313" y="143.1" style="stroke: #000000; stroke-width: 0.8"/>
      </g>
     </g>
     <g id="text_1">
      <!-- 20 -->
      <g transform="translate(53.195312 156.17875)scale(0.08 -0.08)">
       <defs>
        <path id="DejaVuSans-32" d="M 1228 531 
L 3431 531 
L 3431 0 
L 469 0 
L 469 531 
Q 828 903 1448 1529 
Q 2069 2156 2228 2338 
Q 2531 2678 2651 2914 
Q 2772 3150 2772 3378 
Q 2772 3750 2511 3984 
Q 2250 4219 1831 4219 
Q 1534 4219 1204 4116 
Q 875 4013 500 3803 
L 500 4441 
Q 881 4594 1212 4672 
Q 1544 4750 1819 4750 
Q 2544 4750 2975 4387 
Q 3406 4025 3406 3419 
Q 3406 3131 3298 2873 
Q 3191 2616 2906 2266 
Q 2828 2175 2409 1742 
Q 1991 1309 1228 531 
z
" transform="scale(0.015625)"/>
        <path id="DejaVuSans-30" d="M 2034 4250 
Q 1547 4250 1301 3770 
Q 1056 3291 1056 2328 
Q 1056 1369 1301 889 
Q 1547 409 2034 409 
Q 2525 409 2770 889 
Q 3016 1369 3016 2328 
Q 3016 3291 2770 3770 
Q 2525 4250 2034 4250 
z
M 2034 4750 
Q 2819 4750 3233 4129 
Q 3647 3509 3647 2328 
Q 3647 1150 3233 529 
Q 2819 -91 2034 -91 
Q 1250 -91 836 529 
Q 422 1150 422 2328 
Q 422 3509 836 4129 
Q 1250 4750 2034 4750 
z
" transform="scale(0.015625)"/>
       </defs>
       <use xlink:href="#DejaVuSans-32"/>
       <use xlink:href="#DejaVuSans-30" x="63.623047"/>
      </g>
     </g>
    </g>
    <g id="xtick_2">
     <g id="line2d_2">
      <g>
       <use xlink:href="#me0ed614354" x="104.785313" y="143.1" style="stroke: #000000; stroke-width: 0.8"/>
      </g>
     </g>
     <g id="text_2">
      <!-- 40 -->
      <g transform="translate(99.695312 156.17875)scale(0.08 -0.08)">
       <defs>
        <path id="DejaVuSans-34" d="M 2419 4116 
L 825 1625 
L 2419 1625 
L 2419 4116 
z
M 2253 4666 
L 3047 4666 
L 3047 1625 
L 3713 1625 
L 3713 1100 
L 3047 1100 
L 3047 0 
L 2419 0 
L 2419 1100 
L 313 1100 
L 313 1709 
L 2253 4666 
z
" transform="scale(0.015625)"/>
       </defs>
       <use xlink:href="#DejaVuSans-34"/>
       <use xlink:href="#DejaVuSans-30" x="63.623047"/>
      </g>
     </g>
    </g>
    <g id="xtick_3">
     <g id="line2d_3">
      <g>
       <use xlink:href="#me0ed614354" x="151.285313" y="143.1" style="stroke: #000000; stroke-width: 0.8"/>
      </g>
     </g>
     <g id="text_3">
      <!-- 60 -->
      <g transform="translate(146.195312 156.17875)scale(0.08 -0.08)">
       <defs>
        <path id="DejaVuSans-36" d="M 2113 2584 
Q 1688 2584 1439 2293 
Q 1191 2003 1191 1497 
Q 1191 994 1439 701 
Q 1688 409 2113 409 
Q 2538 409 2786 701 
Q 3034 994 3034 1497 
Q 3034 2003 2786 2293 
Q 2538 2584 2113 2584 
z
M 3366 4563 
L 3366 3988 
Q 3128 4100 2886 4159 
Q 2644 4219 2406 4219 
Q 1781 4219 1451 3797 
Q 1122 3375 1075 2522 
Q 1259 2794 1537 2939 
Q 1816 3084 2150 3084 
Q 2853 3084 3261 2657 
Q 3669 2231 3669 1497 
Q 3669 778 3244 343 
Q 2819 -91 2113 -91 
Q 1303 -91 875 529 
Q 447 1150 447 2328 
Q 447 3434 972 4092 
Q 1497 4750 2381 4750 
Q 2619 4750 2861 4703 
Q 3103 4656 3366 4563 
z
" transform="scale(0.015625)"/>
       </defs>
       <use xlink:href="#DejaVuSans-36"/>
       <use xlink:href="#DejaVuSans-30" x="63.623047"/>
      </g>
     </g>
    </g>
    <g id="xtick_4">
     <g id="line2d_4">
      <defs>
       <path id="ma0f7f68c5b" d="M 0 0 
L 0 2 
" style="stroke: #000000; stroke-width: 0.6"/>
      </defs>
      <g>
       <use xlink:href="#ma0f7f68c5b" x="23.410312" y="143.1" style="stroke: #000000; stroke-width: 0.6"/>
      </g>
     </g>
    </g>
    <g id="xtick_5">
     <g id="line2d_5">
      <g>
       <use xlink:href="#ma0f7f68c5b" x="29.222812" y="143.1" style="stroke: #000000; stroke-width: 0.6"/>
      </g>
     </g>
    </g>
    <g id="xtick_6">
     <g id="line2d_6">
      <g>
       <use xlink:href="#ma0f7f68c5b" x="35.035313" y="143.1" style="stroke: #000000; stroke-width: 0.6"/>
      </g>
     </g>
    </g>
    <g id="xtick_7">
     <g id="line2d_7">
      <g>
       <use xlink:href="#ma0f7f68c5b" x="40.847813" y="143.1" style="stroke: #000000; stroke-width: 0.6"/>
      </g>
     </g>
    </g>
    <g id="xtick_8">
     <g id="line2d_8">
      <g>
       <use xlink:href="#ma0f7f68c5b" x="46.660313" y="143.1" style="stroke: #000000; stroke-width: 0.6"/>
      </g>
     </g>
    </g>
    <g id="xtick_9">
     <g id="line2d_9">
      <g>
       <use xlink:href="#ma0f7f68c5b" x="52.472813" y="143.1" style="stroke: #000000; stroke-width: 0.6"/>
      </g>
     </g>
    </g>
    <g id="xtick_10">
     <g id="line2d_10">
      <g>
       <use xlink:href="#ma0f7f68c5b" x="64.097813" y="143.1" style="stroke: #000000; stroke-width: 0.6"/>
      </g>
     </g>
    </g>
    <g id="xtick_11">
     <g id="line2d_11">
      <g>
       <use xlink:href="#ma0f7f68c5b" x="69.910313" y="143.1" style="stroke: #000000; stroke-width: 0.6"/>
      </g>
     </g>
    </g>
    <g id="xtick_12">
     <g id="line2d_12">
      <g>
       <use xlink:href="#ma0f7f68c5b" x="75.722813" y="143.1" style="stroke: #000000; stroke-width: 0.6"/>
      </g>
     </g>
    </g>
    <g id="xtick_13">
     <g id="line2d_13">
      <g>
       <use xlink:href="#ma0f7f68c5b" x="81.535313" y="143.1" style="stroke: #000000; stroke-width: 0.6"/>
      </g>
     </g>
    </g>
    <g id="xtick_14">
     <g id="line2d_14">
      <g>
       <use xlink:href="#ma0f7f68c5b" x="87.347813" y="143.1" style="stroke: #000000; stroke-width: 0.6"/>
      </g>
     </g>
    </g>
    <g id="xtick_15">
     <g id="line2d_15">
      <g>
       <use xlink:href="#ma0f7f68c5b" x="93.160313" y="143.1" style="stroke: #000000; stroke-width: 0.6"/>
      </g>
     </g>
    </g>
    <g id="xtick_16">
     <g id="line2d_16">
      <g>
       <use xlink:href="#ma0f7f68c5b" x="98.972813" y="143.1" style="stroke: #000000; stroke-width: 0.6"/>
      </g>
     </g>
    </g>
    <g id="xtick_17">
     <g id="line2d_17">
      <g>
       <use xlink:href="#ma0f7f68c5b" x="110.597813" y="143.1" style="stroke: #000000; stroke-width: 0.6"/>
      </g>
     </g>
    </g>
    <g id="xtick_18">
     <g id="line2d_18">
      <g>
       <use xlink:href="#ma0f7f68c5b" x="116.410313" y="143.1" style="stroke: #000000; stroke-width: 0.6"/>
      </g>
     </g>
    </g>
    <g id="xtick_19">
     <g id="line2d_19">
      <g>
       <use xlink:href="#ma0f7f68c5b" x="122.222813" y="143.1" style="stroke: #000000; stroke-width: 0.6"/>
      </g>
     </g>
    </g>
    <g id="xtick_20">
     <g id="line2d_20">
      <g>
       <use xlink:href="#ma0f7f68c5b" x="128.035313" y="143.1" style="stroke: #000000; stroke-width: 0.6"/>
      </g>
     </g>
    </g>
    <g id="xtick_21">
     <g id="line2d_21">
      <g>
       <use xlink:href="#ma0f7f68c5b" x="133.847813" y="143.1" style="stroke: #000000; stroke-width: 0.6"/>
      </g>
     </g>
    </g>
    <g id="xtick_22">
     <g id="line2d_22">
      <g>
       <use xlink:href="#ma0f7f68c5b" x="139.660313" y="143.1" style="stroke: #000000; stroke-width: 0.6"/>
      </g>
     </g>
    </g>
    <g id="xtick_23">
     <g id="line2d_23">
      <g>
       <use xlink:href="#ma0f7f68c5b" x="145.472813" y="143.1" style="stroke: #000000; stroke-width: 0.6"/>
      </g>
     </g>
    </g>
    <g id="xtick_24">
     <g id="line2d_24">
      <g>
       <use xlink:href="#ma0f7f68c5b" x="157.097813" y="143.1" style="stroke: #000000; stroke-width: 0.6"/>
      </g>
     </g>
    </g>
    <g id="xtick_25">
     <g id="line2d_25">
      <g>
       <use xlink:href="#ma0f7f68c5b" x="162.910313" y="143.1" style="stroke: #000000; stroke-width: 0.6"/>
      </g>
     </g>
    </g>
    <g id="text_4">
     <!-- Two Theta (degrees) -->
     <g transform="translate(47.344688 168.681094)scale(0.09 -0.09)">
      <defs>
       <path id="DejaVuSans-54" d="M -19 4666 
L 3928 4666 
L 3928 4134 
L 2272 4134 
L 2272 0 
L 1638 0 
L 1638 4134 
L -19 4134 
L -19 4666 
z
" transform="scale(0.015625)"/>
       <path id="DejaVuSans-77" d="M 269 3500 
L 844 3500 
L 1563 769 
L 2278 3500 
L 2956 3500 
L 3675 769 
L 4391 3500 
L 4966 3500 
L 4050 0 
L 3372 0 
L 2619 2869 
L 1863 0 
L 1184 0 
L 269 3500 
z
" transform="scale(0.015625)"/>
       <path id="DejaVuSans-6f" d="M 1959 3097 
Q 1497 3097 1228 2736 
Q 959 2375 959 1747 
Q 959 1119 1226 758 
Q 1494 397 1959 397 
Q 2419 397 2687 759 
Q 2956 1122 2956 1747 
Q 2956 2369 2687 2733 
Q 2419 3097 1959 3097 
z
M 1959 3584 
Q 2709 3584 3137 3096 
Q 3566 2609 3566 1747 
Q 3566 888 3137 398 
Q 2709 -91 1959 -91 
Q 1206 -91 779 398 
Q 353 888 353 1747 
Q 353 2609 779 3096 
Q 1206 3584 1959 3584 
z
" transform="scale(0.015625)"/>
       <path id="DejaVuSans-20" transform="scale(0.015625)"/>
       <path id="DejaVuSans-68" d="M 3513 2113 
L 3513 0 
L 2938 0 
L 2938 2094 
Q 2938 2591 2744 2837 
Q 2550 3084 2163 3084 
Q 1697 3084 1428 2787 
Q 1159 2491 1159 1978 
L 1159 0 
L 581 0 
L 581 4863 
L 1159 4863 
L 1159 2956 
Q 1366 3272 1645 3428 
Q 1925 3584 2291 3584 
Q 2894 3584 3203 3211 
Q 3513 2838 3513 2113 
z
" transform="scale(0.015625)"/>
       <path id="DejaVuSans-65" d="M 3597 1894 
L 3597 1613 
L 953 1613 
Q 991 1019 1311 708 
Q 1631 397 2203 397 
Q 2534 397 2845 478 
Q 3156 559 3463 722 
L 3463 178 
Q 3153 47 2828 -22 
Q 2503 -91 2169 -91 
Q 1331 -91 842 396 
Q 353 884 353 1716 
Q 353 2575 817 3079 
Q 1281 3584 2069 3584 
Q 2775 3584 3186 3129 
Q 3597 2675 3597 1894 
z
M 3022 2063 
Q 3016 2534 2758 2815 
Q 2500 3097 2075 3097 
Q 1594 3097 1305 2825 
Q 1016 2553 972 2059 
L 3022 2063 
z
" transform="scale(0.015625)"/>
       <path id="DejaVuSans-74" d="M 1172 4494 
L 1172 3500 
L 2356 3500 
L 2356 3053 
L 1172 3053 
L 1172 1153 
Q 1172 725 1289 603 
Q 1406 481 1766 481 
L 2356 481 
L 2356 0 
L 1766 0 
Q 1100 0 847 248 
Q 594 497 594 1153 
L 594 3053 
L 172 3053 
L 172 3500 
L 594 3500 
L 594 4494 
L 1172 4494 
z
" transform="scale(0.015625)"/>
       <path id="DejaVuSans-61" d="M 2194 1759 
Q 1497 1759 1228 1600 
Q 959 1441 959 1056 
Q 959 750 1161 570 
Q 1363 391 1709 391 
Q 2188 391 2477 730 
Q 2766 1069 2766 1631 
L 2766 1759 
L 2194 1759 
z
M 3341 1997 
L 3341 0 
L 2766 0 
L 2766 531 
Q 2569 213 2275 61 
Q 1981 -91 1556 -91 
Q 1019 -91 701 211 
Q 384 513 384 1019 
Q 384 1609 779 1909 
Q 1175 2209 1959 2209 
L 2766 2209 
L 2766 2266 
Q 2766 2663 2505 2880 
Q 2244 3097 1772 3097 
Q 1472 3097 1187 3025 
Q 903 2953 641 2809 
L 641 3341 
Q 956 3463 1253 3523 
Q 1550 3584 1831 3584 
Q 2591 3584 2966 3190 
Q 3341 2797 3341 1997 
z
" transform="scale(0.015625)"/>
       <path id="DejaVuSans-28" d="M 1984 4856 
Q 1566 4138 1362 3434 
Q 1159 2731 1159 2009 
Q 1159 1288 1364 580 
Q 1569 -128 1984 -844 
L 1484 -844 
Q 1016 -109 783 600 
Q 550 1309 550 2009 
Q 550 2706 781 3412 
Q 1013 4119 1484 4856 
L 1984 4856 
z
" transform="scale(0.015625)"/>
       <path id="DejaVuSans-64" d="M 2906 2969 
L 2906 4863 
L 3481 4863 
L 3481 0 
L 2906 0 
L 2906 525 
Q 2725 213 2448 61 
Q 2172 -91 1784 -91 
Q 1150 -91 751 415 
Q 353 922 353 1747 
Q 353 2572 751 3078 
Q 1150 3584 1784 3584 
Q 2172 3584 2448 3432 
Q 2725 3281 2906 2969 
z
M 947 1747 
Q 947 1113 1208 752 
Q 1469 391 1925 391 
Q 2381 391 2643 752 
Q 2906 1113 2906 1747 
Q 2906 2381 2643 2742 
Q 2381 3103 1925 3103 
Q 1469 3103 1208 2742 
Q 947 2381 947 1747 
z
" transform="scale(0.015625)"/>
       <path id="DejaVuSans-67" d="M 2906 1791 
Q 2906 2416 2648 2759 
Q 2391 3103 1925 3103 
Q 1463 3103 1205 2759 
Q 947 2416 947 1791 
Q 947 1169 1205 825 
Q 1463 481 1925 481 
Q 2391 481 2648 825 
Q 2906 1169 2906 1791 
z
M 3481 434 
Q 3481 -459 3084 -895 
Q 2688 -1331 1869 -1331 
Q 1566 -1331 1297 -1286 
Q 1028 -1241 775 -1147 
L 775 -588 
Q 1028 -725 1275 -790 
Q 1522 -856 1778 -856 
Q 2344 -856 2625 -561 
Q 2906 -266 2906 331 
L 2906 616 
Q 2728 306 2450 153 
Q 2172 0 1784 0 
Q 1141 0 747 490 
Q 353 981 353 1791 
Q 353 2603 747 3093 
Q 1141 3584 1784 3584 
Q 2172 3584 2450 3431 
Q 2728 3278 2906 2969 
L 2906 3500 
L 3481 3500 
L 3481 434 
z
" transform="scale(0.015625)"/>
       <path id="DejaVuSans-72" d="M 2631 2963 
Q 2534 3019 2420 3045 
Q 2306 3072 2169 3072 
Q 1681 3072 1420 2755 
Q 1159 2438 1159 1844 
L 1159 0 
L 581 0 
L 581 3500 
L 1159 3500 
L 1159 2956 
Q 1341 3275 1631 3429 
Q 1922 3584 2338 3584 
Q 2397 3584 2469 3576 
Q 2541 3569 2628 3553 
L 2631 2963 
z
" transform="scale(0.015625)"/>
       <path id="DejaVuSans-73" d="M 2834 3397 
L 2834 2853 
Q 2591 2978 2328 3040 
Q 2066 3103 1784 3103 
Q 1356 3103 1142 2972 
Q 928 2841 928 2578 
Q 928 2378 1081 2264 
Q 1234 2150 1697 2047 
L 1894 2003 
Q 2506 1872 2764 1633 
Q 3022 1394 3022 966 
Q 3022 478 2636 193 
Q 2250 -91 1575 -91 
Q 1294 -91 989 -36 
Q 684 19 347 128 
L 347 722 
Q 666 556 975 473 
Q 1284 391 1588 391 
Q 1994 391 2212 530 
Q 2431 669 2431 922 
Q 2431 1156 2273 1281 
Q 2116 1406 1581 1522 
L 1381 1569 
Q 847 1681 609 1914 
Q 372 2147 372 2553 
Q 372 3047 722 3315 
Q 1072 3584 1716 3584 
Q 2034 3584 2315 3537 
Q 2597 3491 2834 3397 
z
" transform="scale(0.015625)"/>
       <path id="DejaVuSans-29" d="M 513 4856 
L 1013 4856 
Q 1481 4119 1714 3412 
Q 1947 2706 1947 2009 
Q 1947 1309 1714 600 
Q 1481 -109 1013 -844 
L 513 -844 
Q 928 -128 1133 580 
Q 1338 1288 1338 2009 
Q 1338 2731 1133 3434 
Q 928 4138 513 4856 
z
" transform="scale(0.015625)"/>
      </defs>
      <use xlink:href="#DejaVuSans-54"/>
      <use xlink:href="#DejaVuSans-77" x="44.583984"/>
      <use xlink:href="#DejaVuSans-6f" x="126.371094"/>
      <use xlink:href="#DejaVuSans-20" x="187.552734"/>
      <use xlink:href="#DejaVuSans-54" x="219.339844"/>
      <use xlink:href="#DejaVuSans-68" x="280.423828"/>
      <use xlink:href="#DejaVuSans-65" x="343.802734"/>
      <use xlink:href="#DejaVuSans-74" x="405.326172"/>
      <use xlink:href="#DejaVuSans-61" x="444.535156"/>
      <use xlink:href="#DejaVuSans-20" x="505.814453"/>
      <use xlink:href="#DejaVuSans-28" x="537.601562"/>
      <use xlink:href="#DejaVuSans-64" x="576.615234"/>
      <use xlink:href="#DejaVuSans-65" x="640.091797"/>
      <use xlink:href="#DejaVuSans-67" x="701.615234"/>
      <use xlink:href="#DejaVuSans-72" x="765.091797"/>
      <use xlink:href="#DejaVuSans-65" x="803.955078"/>
      <use xlink:href="#DejaVuSans-65" x="865.478516"/>
      <use xlink:href="#DejaVuSans-73" x="927.001953"/>
      <use xlink:href="#DejaVuSans-29" x="979.101562"/>
     </g>
    </g>
   </g>
   <g id="matplotlib.axis_2">
    <g id="ytick_1">
     <g id="line2d_26"/>
    </g>
    <g id="ytick_2">
     <g id="line2d_27"/>
    </g>
    <g id="ytick_3">
     <g id="line2d_28"/>
    </g>
    <g id="ytick_4">
     <g id="line2d_29"/>
    </g>
    <g id="ytick_5">
     <g id="line2d_30"/>
    </g>
    <g id="text_5">
     <!-- Intensity -->
     <g transform="translate(14.038594 94.73625)rotate(-90)scale(0.09 -0.09)">
      <defs>
       <path id="DejaVuSans-49" d="M 628 4666 
L 1259 4666 
L 1259 0 
L 628 0 
L 628 4666 
z
" transform="scale(0.015625)"/>
       <path id="DejaVuSans-6e" d="M 3513 2113 
L 3513 0 
L 2938 0 
L 2938 2094 
Q 2938 2591 2744 2837 
Q 2550 3084 2163 3084 
Q 1697 3084 1428 2787 
Q 1159 2491 1159 1978 
L 1159 0 
L 581 0 
L 581 3500 
L 1159 3500 
L 1159 2956 
Q 1366 3272 1645 3428 
Q 1925 3584 2291 3584 
Q 2894 3584 3203 3211 
Q 3513 2838 3513 2113 
z
" transform="scale(0.015625)"/>
       <path id="DejaVuSans-69" d="M 603 3500 
L 1178 3500 
L 1178 0 
L 603 0 
L 603 3500 
z
M 603 4863 
L 1178 4863 
L 1178 4134 
L 603 4134 
L 603 4863 
z
" transform="scale(0.015625)"/>
       <path id="DejaVuSans-79" d="M 2059 -325 
Q 1816 -950 1584 -1140 
Q 1353 -1331 966 -1331 
L 506 -1331 
L 506 -850 
L 844 -850 
Q 1081 -850 1212 -737 
Q 1344 -625 1503 -206 
L 1606 56 
L 191 3500 
L 800 3500 
L 1894 763 
L 2988 3500 
L 3597 3500 
L 2059 -325 
z
" transform="scale(0.015625)"/>
      </defs>
      <use xlink:href="#DejaVuSans-49"/>
      <use xlink:href="#DejaVuSans-6e" x="29.492188"/>
      <use xlink:href="#DejaVuSans-74" x="92.871094"/>
      <use xlink:href="#DejaVuSans-65" x="132.080078"/>
      <use xlink:href="#DejaVuSans-6e" x="193.603516"/>
      <use xlink:href="#DejaVuSans-73" x="256.982422"/>
      <use xlink:href="#DejaVuSans-69" x="309.082031"/>
      <use xlink:href="#DejaVuSans-74" x="336.865234"/>
      <use xlink:href="#DejaVuSans-79" x="376.074219"/>
     </g>
    </g>
   </g>
   <g id="line2d_31">
    <path d="M 23.428285 49.099678 
L 23.489341 51.566913 
L 23.550397 47.183635 
L 23.611453 49.782105 
L 23.672509 53.981653 
L 23.733564 52.748036 
L 23.79462 50.517026 
L 23.855676 54.637832 
L 23.916732 51.199452 
L 23.977788 51.934373 
L 24.160955 58.128707 
L 24.222011 57.315044 
L 24.344123 60.622188 
L 24.405178 56.842595 
L 24.466234 60.490953 
L 24.52729 58.942369 
L 24.588346 57.971224 
L 24.710458 61.803311 
L 24.771513 59.519807 
L 24.832569 61.015896 
L 24.893625 61.094638 
L 24.954681 62.74821 
L 25.076792 59.782279 
L 25.137848 66.081601 
L 25.198904 64.375535 
L 25.25996 61.619581 
L 25.321016 67.420207 
L 25.382071 63.430636 
L 25.443127 64.244299 
L 25.504183 63.141917 
L 25.626295 67.472701 
L 25.687351 64.13931 
L 25.748406 64.690501 
L 25.809462 66.265331 
L 25.870518 65.241691 
L 25.931574 66.501556 
L 25.99263 63.798097 
L 26.053685 66.002859 
L 26.114741 66.239084 
L 26.175797 65.057961 
L 26.236853 65.320433 
L 26.297909 67.39396 
L 26.358964 67.288971 
L 26.542132 63.95558 
L 26.603188 68.102633 
L 26.664244 67.57769 
L 26.725299 64.952972 
L 26.786355 70.83234 
L 26.847411 68.128881 
L 26.908467 70.674857 
L 26.969523 69.414992 
L 27.091634 67.656431 
L 27.213746 70.596115 
L 27.274802 67.866409 
L 27.335858 68.680071 
L 27.396913 72.328429 
L 27.457969 70.806092 
L 27.519025 69.62497 
L 27.641137 72.22344 
L 27.702192 71.278542 
L 27.763248 69.966183 
L 27.88536 72.302181 
L 27.946416 71.882227 
L 28.129583 74.165731 
L 28.251695 72.958361 
L 28.373806 73.982001 
L 28.556974 70.018677 
L 28.679085 73.273327 
L 28.740141 71.882227 
L 28.923309 75.714314 
L 28.984365 72.853372 
L 29.04542 74.218225 
L 29.106476 74.27072 
L 29.167532 73.745776 
L 29.228588 76.449235 
L 29.289644 76.344246 
L 29.350699 73.850765 
L 29.533867 76.842943 
L 29.594923 73.982001 
L 29.655978 76.842943 
L 29.717034 75.950539 
L 29.77809 73.089597 
L 29.961258 78.312785 
L 30.266537 74.244472 
L 30.449704 79.546402 
L 30.51076 75.294359 
L 30.571816 78.102807 
L 30.632872 78.312785 
L 30.693927 77.184156 
L 30.754983 78.680245 
L 30.816039 75.66182 
L 30.877095 77.315392 
L 30.938151 78.811481 
L 31.060262 75.793056 
L 31.121318 76.081775 
L 31.24343 76.842943 
L 31.304485 80.333817 
L 31.365541 77.735347 
L 31.426597 79.257683 
L 31.487653 79.126447 
L 31.548709 79.1002 
L 31.731876 81.252468 
L 31.792932 82.564827 
L 31.976099 78.758987 
L 32.037155 78.785234 
L 32.220323 81.409951 
L 32.281378 79.46766 
L 32.342434 82.90604 
L 32.40349 80.727525 
L 32.525602 82.643569 
L 32.586658 78.522762 
L 32.647713 81.856153 
L 32.708769 79.28393 
L 32.769825 81.226221 
L 32.830881 81.199974 
L 32.891937 80.885008 
L 33.075104 83.588467 
L 33.13616 81.829906 
L 33.197216 84.480871 
L 33.258272 81.751165 
L 33.319327 82.302355 
L 33.441439 85.661994 
L 33.563551 82.328602 
L 33.624606 82.486086 
L 33.685662 81.226221 
L 33.807774 84.900826 
L 33.86883 83.483478 
L 33.929885 83.483478 
L 33.990941 84.244646 
L 34.051997 82.748557 
L 34.174109 85.268286 
L 34.235165 82.90604 
L 34.357276 87.997992 
L 34.540444 83.693456 
L 34.601499 86.213184 
L 34.662555 84.717095 
L 34.723611 85.79323 
L 34.845723 82.591074 
L 34.967834 86.606892 
L 35.02889 84.270893 
L 35.089946 85.268286 
L 35.151002 86.265679 
L 35.212058 86.134443 
L 35.334169 84.612107 
L 35.395225 86.790622 
L 35.456281 85.478264 
L 35.517337 84.087163 
L 35.76156 88.916643 
L 35.822616 85.661994 
L 35.883672 86.948105 
L 36.005783 85.609499 
L 36.066839 85.740735 
L 36.127895 87.499296 
L 36.188951 86.003207 
L 36.250006 89.809047 
L 36.311062 87.079341 
L 36.433174 89.887789 
L 36.49423 84.848331 
L 36.616341 90.412732 
L 36.738453 85.478264 
L 36.799509 89.520329 
L 36.860565 86.029454 
L 36.92162 87.656779 
L 36.982676 90.885182 
L 37.043732 88.470442 
L 37.104788 88.969138 
L 37.165844 88.339206 
L 37.226899 88.942891 
L 37.287955 88.129228 
L 37.349011 89.887789 
L 37.410067 87.840509 
L 37.471123 90.386485 
L 37.532179 88.942891 
L 37.65429 87.578038 
L 37.776402 92.250035 
L 37.837458 91.121406 
L 37.898513 90.858934 
L 38.020625 86.580645 
L 38.203792 92.538754 
L 38.325904 87.683026 
L 38.38696 90.255249 
L 38.448016 90.307744 
L 38.509072 91.331384 
L 38.570127 88.129228 
L 38.631183 92.276282 
L 38.692239 91.751338 
L 38.814351 89.520329 
L 38.936462 91.147653 
L 39.058574 90.570216 
L 39.11963 90.753946 
L 39.363853 92.932461 
L 39.485965 91.331384 
L 39.608076 92.591248 
L 39.669132 92.643742 
L 39.730188 91.436372 
L 39.852299 92.932461 
L 40.035467 91.46262 
L 40.096523 91.672597 
L 40.157579 90.885182 
L 40.218634 92.328776 
L 40.27969 91.541361 
L 40.340746 92.092552 
L 40.401802 94.087337 
L 40.462858 92.145046 
L 40.523913 93.483652 
L 40.584969 93.483652 
L 40.646025 91.252642 
L 40.707081 94.113584 
L 40.768137 92.328776 
L 40.829193 91.567608 
L 40.890248 93.824865 
L 40.951304 92.118799 
L 41.01236 92.460012 
L 41.073416 93.483652 
L 41.134472 90.43898 
L 41.195527 92.276282 
L 41.256583 92.355023 
L 41.317639 94.113584 
L 41.378695 92.827473 
L 41.439751 90.071519 
L 41.561862 96.633313 
L 41.622918 92.407518 
L 41.683974 93.378663 
L 41.867141 96.344594 
L 41.928197 92.879967 
L 41.989253 94.743516 
L 42.050309 96.003381 
L 42.111365 95.163471 
L 42.17242 92.66999 
L 42.233476 93.956101 
L 42.4777 97.6832 
L 42.538755 92.407518 
L 42.599811 92.774978 
L 42.660867 96.528324 
L 42.721923 96.344594 
L 42.782979 94.743516 
L 42.844034 96.895785 
L 42.90509 95.872145 
L 42.966146 92.722484 
L 43.027202 95.714662 
L 43.088258 93.40491 
L 43.149313 95.425943 
L 43.210369 94.113584 
L 43.271425 94.848505 
L 43.332481 97.132009 
L 43.393537 96.528324 
L 43.576704 94.271067 
L 43.63776 95.63592 
L 43.698816 93.903607 
L 43.820927 96.528324 
L 43.881983 95.347201 
L 44.004095 97.289492 
L 44.126206 94.953494 
L 44.187262 98.391874 
L 44.248318 95.977134 
L 44.309374 96.134617 
L 44.37043 93.929854 
L 44.553597 97.394481 
L 44.614653 94.402303 
L 44.675709 96.213358 
L 44.736765 94.533539 
L 44.79782 94.979741 
L 44.919932 97.604459 
L 45.1031 92.958708 
L 45.164155 96.84329 
L 45.225211 95.662168 
L 45.347323 98.470615 
L 45.408379 97.893177 
L 45.591546 93.168686 
L 45.652602 96.502077 
L 45.713658 93.562394 
L 45.774713 95.609673 
L 45.835769 95.478437 
L 45.896825 96.502077 
L 45.957881 94.087337 
L 46.018937 95.45219 
L 46.141048 95.399696 
L 46.202104 93.457405 
L 46.385272 97.551964 
L 46.690551 94.192326 
L 46.812662 96.712055 
L 46.873718 96.502077 
L 47.056886 94.376056 
L 47.117941 96.502077 
L 47.178997 95.373449 
L 47.362165 96.685807 
L 47.42322 96.607066 
L 47.606388 94.769764 
L 47.667444 96.869538 
L 47.850611 92.748731 
L 48.15589 97.840683 
L 48.278002 93.641135 
L 48.400114 95.294707 
L 48.461169 91.882574 
L 48.522225 94.376056 
L 48.644337 96.213358 
L 48.827504 92.958708 
L 48.88856 94.087337 
L 48.949616 92.171293 
L 49.071727 95.819651 
L 49.254895 91.383878 
L 49.315951 95.294707 
L 49.377007 94.42855 
L 49.499118 90.675204 
L 49.62123 93.247427 
L 49.804397 91.173901 
L 49.926509 91.147653 
L 49.987565 91.698844 
L 50.048621 91.593855 
L 50.109676 89.730306 
L 50.292844 93.614888 
L 50.3539 90.386485 
L 50.414955 90.465227 
L 50.476011 91.147653 
L 50.537067 90.911429 
L 50.598123 91.173901 
L 50.659179 91.095159 
L 50.720234 91.068912 
L 50.78129 91.777586 
L 50.964458 87.131836 
L 51.025514 90.543968 
L 51.086569 89.310351 
L 51.147625 89.310351 
L 51.208681 91.173901 
L 51.269737 90.045272 
L 51.391848 88.155475 
L 51.452904 89.940283 
L 51.51396 88.601677 
L 51.636072 89.441587 
L 51.758183 85.819477 
L 51.819239 89.520329 
L 51.880295 86.265679 
L 51.941351 87.735521 
L 52.063462 85.635747 
L 52.124518 86.685634 
L 52.185574 86.16069 
L 52.24663 84.402129 
L 52.307686 86.108196 
L 52.429797 84.507118 
L 52.551909 87.158083 
L 52.674021 81.567434 
L 52.735076 84.638354 
L 52.796132 83.457231 
L 52.857188 83.168512 
L 52.918244 86.423162 
L 53.101411 80.071345 
L 53.223523 83.877186 
L 53.284579 83.614714 
L 53.345634 84.297141 
L 53.40669 81.619929 
L 53.467746 84.270893 
L 53.528802 79.782626 
L 53.589858 82.276108 
L 53.650914 83.903433 
L 53.711969 80.858761 
L 53.773025 81.068738 
L 53.834081 81.252468 
L 54.322528 75.950539 
L 54.505695 81.593682 
L 54.627807 75.556831 
L 54.688862 79.205189 
L 54.749918 73.194585 
L 54.810974 76.134269 
L 54.933086 73.299574 
L 54.994141 77.394133 
L 55.055197 73.982001 
L 55.116253 75.635573 
L 55.421532 71.226047 
L 55.482588 69.887441 
L 55.543644 70.622362 
L 55.6047 70.228655 
L 55.665755 74.559439 
L 55.726811 71.357283 
L 55.787867 70.044924 
L 55.848923 70.911081 
L 55.909979 70.727351 
L 55.971035 68.890049 
L 56.03209 71.226047 
L 56.093146 71.01607 
L 56.154202 68.837554 
L 56.215258 69.310003 
L 56.337369 71.987215 
L 56.581593 64.008074 
L 56.642648 67.105241 
L 56.703704 64.638006 
L 56.825816 65.792882 
L 56.886872 65.451669 
L 56.947928 64.769242 
L 57.008983 65.372927 
L 57.070039 62.249513 
L 57.131095 63.063176 
L 57.192151 61.9083 
L 57.253207 63.2994 
L 57.314262 60.333469 
L 57.375318 62.27576 
L 57.436374 62.328255 
L 57.558486 59.782279 
L 57.619541 60.333469 
L 57.680597 56.212663 
L 57.741653 58.942369 
L 57.802709 59.782279 
L 58.046932 54.060395 
L 58.107988 58.207448 
L 58.169044 51.514419 
L 58.2301 52.43307 
L 58.291155 50.805745 
L 58.352211 51.59316 
L 58.413267 50.543273 
L 58.474323 45.057613 
L 58.535379 47.734825 
L 58.779602 40.438111 
L 59.023825 32.17025 
L 59.145937 36.474787 
L 59.206993 36.474787 
L 59.268048 36.238562 
L 59.39016 33.246384 
L 59.512272 37.47218 
L 59.573328 34.270024 
L 59.634383 40.018156 
L 59.695439 38.548314 
L 59.756495 38.207101 
L 59.817551 34.768721 
L 59.878607 36.107327 
L 59.939662 36.658517 
L 60.000718 41.487998 
L 60.061774 40.779324 
L 60.183886 35.372406 
L 60.305997 39.073257 
L 60.367053 37.078472 
L 60.428109 37.918382 
L 60.489165 37.28845 
L 60.550221 38.810786 
L 60.611276 36.291057 
L 60.672332 38.259595 
L 60.733388 38.522067 
L 61.099723 28.941848 
L 61.160779 32.222745 
L 61.527114 17.156866 
L 61.649225 22.852503 
L 61.710281 13.377273 
L 61.771337 18.128011 
L 62.01556 27.209534 
L 62.076616 23.53493 
L 62.137672 31.199105 
L 62.198728 28.653129 
L 62.259783 32.353981 
L 62.320839 28.968095 
L 62.381895 30.542925 
L 62.504007 36.317304 
L 62.565062 33.01016 
L 62.687174 39.020763 
L 62.809286 34.558743 
L 62.870342 37.787146 
L 62.931397 36.501034 
L 62.992453 37.603416 
L 63.114565 34.060047 
L 63.175621 40.07065 
L 63.236676 38.915774 
L 63.297732 40.464358 
L 63.419844 33.85007 
L 63.4809 39.729437 
L 63.541955 35.398653 
L 63.786179 40.621841 
L 63.847235 37.025978 
L 63.90829 39.755684 
L 63.969346 36.999731 
L 64.030402 38.443325 
L 64.091458 39.283235 
L 64.152514 38.364584 
L 64.213569 38.417078 
L 64.274625 40.201886 
L 64.396737 38.075865 
L 64.518849 38.942022 
L 64.579904 38.443325 
L 64.702016 39.571954 
L 64.763072 39.309482 
L 64.824128 39.755684 
L 64.885183 39.676942 
L 64.946239 41.960447 
L 65.007295 40.543099 
L 65.068351 41.724222 
L 65.190462 39.256988 
L 65.251518 44.506423 
L 65.312574 43.614019 
L 65.37363 41.592986 
L 65.434686 41.645481 
L 65.495742 43.850243 
L 65.556797 41.855458 
L 65.617853 45.74004 
L 65.678909 45.477568 
L 65.739965 46.291231 
L 65.801021 45.425074 
L 65.862076 47.314871 
L 65.923132 44.060221 
L 65.984188 47.944803 
L 66.045244 47.367365 
L 66.1063 47.629837 
L 66.167356 51.146958 
L 66.228411 48.627229 
L 66.411579 50.307048 
L 66.472635 46.76368 
L 66.53369 48.548488 
L 66.716858 52.958013 
L 66.777914 52.721789 
L 66.838969 53.299226 
L 66.900025 52.249339 
L 66.961081 55.740214 
L 67.022137 54.427855 
L 67.083193 53.325474 
L 67.144249 56.133921 
L 67.205304 53.220485 
L 67.26636 55.110282 
L 67.327416 53.089249 
L 67.388472 53.82417 
L 67.449528 53.482957 
L 67.510583 60.123492 
L 67.571639 57.026325 
L 67.693751 58.312437 
L 67.754807 56.343899 
L 67.815863 56.685112 
L 67.876918 59.49356 
L 67.937974 58.259943 
L 67.99903 59.624796 
L 68.060086 56.081427 
L 68.121142 59.178594 
L 68.182197 58.46992 
L 68.243253 59.519807 
L 68.304309 56.475135 
L 68.365365 58.811133 
L 68.609588 62.511985 
L 68.670644 61.567087 
L 68.7317 60.989649 
L 69.036979 64.690501 
L 69.098035 63.089423 
L 69.15909 63.168164 
L 69.220146 63.719355 
L 69.281202 66.580297 
L 69.342258 62.669468 
L 69.403314 65.057961 
L 69.464369 64.244299 
L 69.586481 66.73778 
L 69.708593 63.666861 
L 69.769649 68.496341 
L 69.830704 66.869016 
L 70.013872 65.950365 
L 70.074928 69.99243 
L 70.135983 68.627577 
L 70.197039 69.703711 
L 70.319151 66.029107 
L 70.380207 68.522588 
L 70.441263 64.926725 
L 70.563374 71.619755 
L 70.62443 68.732566 
L 70.685486 71.829732 
L 70.746542 68.916296 
L 70.807597 72.617148 
L 70.868653 71.829732 
L 70.929709 71.121059 
L 70.990765 74.191978 
L 71.051821 70.35989 
L 71.112876 74.848157 
L 71.173932 72.485912 
L 71.234988 75.031888 
L 71.3571 71.672249 
L 71.418156 73.772023 
L 71.479211 72.22344 
L 71.540267 72.40717 
L 71.601323 74.323214 
L 71.662379 71.672249 
L 71.723435 73.693282 
L 71.845546 77.577864 
L 71.967658 73.693282 
L 72.028714 74.323214 
L 72.211881 76.842943 
L 72.272937 75.399348 
L 72.333993 77.604111 
L 72.395049 75.819303 
L 72.456104 75.556831 
L 72.639272 78.207796 
L 72.761383 79.362672 
L 72.822439 76.659213 
L 72.883495 77.23665 
L 73.005607 80.517547 
L 73.066663 80.202581 
L 73.127718 80.596289 
L 73.188774 77.315392 
L 73.24983 79.887615 
L 73.310886 78.129054 
L 73.371942 81.856153 
L 73.432997 81.383704 
L 73.616165 78.653998 
L 73.738277 82.827299 
L 73.799332 81.226221 
L 73.860388 81.751165 
L 73.921444 82.013636 
L 73.9825 81.567434 
L 74.043556 79.756379 
L 74.165667 83.142265 
L 74.226723 81.908648 
L 74.287779 82.669816 
L 74.348835 82.118625 
L 74.40989 85.242039 
L 74.470946 83.719703 
L 74.532002 84.848331 
L 74.654114 83.011029 
L 74.71517 83.116018 
L 74.959393 87.814262 
L 75.020449 87.18433 
L 75.081504 84.874578 
L 75.14256 86.816869 
L 75.203616 84.428376 
L 75.264672 84.979567 
L 75.325728 85.583252 
L 75.447839 87.893004 
L 75.508895 85.032062 
L 75.569951 85.740735 
L 75.631007 85.819477 
L 75.692063 89.152868 
L 75.753118 88.286711 
L 75.814174 87.55179 
L 75.87523 90.229002 
L 75.936286 87.236824 
L 75.997342 90.071519 
L 76.058397 87.866756 
L 76.119453 89.100374 
L 76.180509 87.210577 
L 76.363677 92.512507 
L 76.485788 89.625317 
L 76.546844 90.885182 
L 76.6079 92.223788 
L 76.730011 89.940283 
L 76.791067 90.124014 
L 76.974235 93.22118 
L 77.157402 88.20797 
L 77.401625 93.87736 
L 77.462681 93.588641 
L 77.523737 91.357631 
L 77.584793 95.189718 
L 77.645849 92.381271 
L 77.76796 91.856327 
L 77.829016 92.066305 
L 77.951128 95.110977 
L 78.012184 91.488867 
L 78.073239 93.431158 
L 78.134295 92.171293 
L 78.195351 96.160864 
L 78.256407 92.66999 
L 78.317463 95.583426 
L 78.378518 95.08473 
L 78.439574 94.008596 
L 78.50063 94.034843 
L 78.683797 97.105762 
L 78.744853 94.743516 
L 78.805909 96.397088 
L 78.866965 94.927247 
L 78.928021 96.712055 
L 79.050132 94.06109 
L 79.111188 95.557179 
L 79.172244 95.347201 
L 79.2333 94.796011 
L 79.294356 98.365627 
L 79.355411 97.210751 
L 79.416467 97.053268 
L 79.477523 95.662168 
L 79.538579 99.651738 
L 79.599635 96.2921 
L 79.660691 98.313132 
L 79.721746 98.70684 
L 79.782802 98.628098 
L 79.843858 98.496863 
L 79.904914 97.368234 
L 79.96597 98.759334 
L 80.027025 97.236998 
L 80.088081 100.176682 
L 80.149137 100.09794 
L 80.271249 98.155649 
L 80.332304 99.704233 
L 80.39336 96.764549 
L 80.454416 98.864323 
L 80.515472 100.360412 
L 80.576528 99.310525 
L 80.637584 99.310525 
L 80.698639 98.391874 
L 80.759695 100.675378 
L 80.820751 99.468008 
L 80.881807 99.992952 
L 80.942863 98.208144 
L 81.003918 99.310525 
L 81.12603 98.916817 
L 81.309197 102.171467 
L 81.370253 102.223961 
L 81.431309 101.987737 
L 81.492365 101.069086 
L 81.553421 102.932635 
L 81.614477 101.935242 
L 81.675532 102.407692 
L 81.797644 100.75412 
L 81.8587 102.958882 
L 81.919756 101.095333 
L 81.980811 101.882748 
L 82.041867 105.084904 
L 82.102923 101.357805 
L 82.163979 102.670163 
L 82.225035 102.906388 
L 82.286091 104.37623 
L 82.347146 102.801399 
L 82.408202 103.510073 
L 82.530314 104.140005 
L 82.59137 101.069086 
L 82.652425 105.95106 
L 82.713481 103.667556 
L 82.835593 107.893351 
L 82.896649 102.538928 
L 82.957704 106.266026 
L 83.01876 104.1925 
L 83.079816 105.294881 
L 83.140872 103.851286 
L 83.201928 104.901173 
L 83.262984 104.533713 
L 83.324039 105.636094 
L 83.507207 104.140005 
L 83.568263 104.244994 
L 83.629318 103.982522 
L 83.690374 107.394655 
L 83.75143 106.476004 
L 83.812486 106.685981 
L 83.873542 104.92742 
L 83.934598 106.344768 
L 83.995653 106.79097 
L 84.056709 105.662341 
L 84.117765 106.738476 
L 84.239877 105.216139 
L 84.300932 105.5836 
L 84.4841 109.914384 
L 84.545156 104.717443 
L 84.667267 109.888137 
L 84.789379 106.082296 
L 84.850435 107.289666 
L 84.911491 105.609847 
L 85.094658 110.22935 
L 85.277825 107.604632 
L 85.399937 110.04562 
L 85.460993 108.575778 
L 85.522049 109.546923 
L 85.583105 110.150608 
L 85.64416 108.602025 
L 85.705216 108.654519 
L 85.827328 110.649305 
L 85.888384 109.730654 
L 85.949439 108.287059 
L 86.010495 111.25299 
L 86.071551 110.255597 
L 86.132607 109.756901 
L 86.193663 110.675552 
L 86.254718 110.150608 
L 86.315774 109.704406 
L 86.37683 113.930202 
L 86.437886 109.231957 
L 86.498942 112.092899 
L 86.559998 109.546923 
L 86.621053 109.756901 
L 86.682109 113.982696 
L 86.743165 112.355371 
L 86.804221 112.066652 
L 86.865277 110.124361 
L 87.048444 113.037798 
L 87.1095 112.250382 
L 87.170556 112.355371 
L 87.231612 112.145394 
L 87.292667 111.489214 
L 87.353723 113.405258 
L 87.414779 112.670337 
L 87.475835 111.489214 
L 87.536891 111.515461 
L 87.659002 113.116539 
L 87.720058 110.911776 
L 87.781114 113.746471 
L 87.84217 113.641483 
L 87.964281 114.140179 
L 88.025337 112.224135 
L 88.086393 113.693977 
L 88.147449 112.775326 
L 88.208505 113.326517 
L 88.330616 113.85146 
L 88.391672 113.090292 
L 88.513784 114.402651 
L 88.574839 113.037798 
L 88.635895 115.89874 
L 88.696951 113.274022 
L 88.758007 113.379011 
L 88.819063 113.037798 
L 88.880118 115.163819 
L 88.941174 113.66773 
L 89.00223 114.533887 
L 89.124342 113.379011 
L 89.185398 115.478785 
L 89.246453 113.903954 
L 89.307509 115.741257 
L 89.368565 115.347549 
L 89.429621 114.533887 
L 89.551732 117.342334 
L 89.673844 113.66773 
L 89.7349 114.560134 
L 89.795956 116.423683 
L 89.857012 114.953841 
L 89.918067 114.481392 
L 89.979123 116.476178 
L 90.040179 115.137572 
L 90.162291 116.239953 
L 90.223346 115.452538 
L 90.284402 115.951234 
L 90.345458 116.712402 
L 90.406514 116.239953 
L 90.46757 114.980089 
L 90.528625 115.610021 
L 90.589681 117.841031 
L 90.650737 115.137572 
L 90.711793 116.686155 
L 90.772849 115.268808 
L 90.833905 117.158604 
L 90.89496 117.001121 
L 90.956016 116.738649 
L 91.017072 115.977481 
L 91.078128 116.2662 
L 91.139184 116.344942 
L 91.322351 117.394829 
L 91.383407 114.770111 
L 91.444463 115.321302 
L 91.505519 118.995906 
L 91.566574 116.712402 
L 91.62763 116.659908 
L 91.688686 116.213706 
L 91.810798 118.575952 
L 91.871853 117.631053 
L 91.932909 119.048401 
L 92.055021 116.764897 
L 92.116077 119.809569 
L 92.177132 117.736042 
L 92.238188 118.470963 
L 92.299244 117.972267 
L 92.3603 118.339727 
L 92.421356 117.919772 
L 92.482412 118.182244 
L 92.543467 120.938197 
L 92.604523 119.048401 
L 92.665579 119.100895 
L 92.726635 117.28984 
L 92.787691 119.547097 
L 92.909802 116.44993 
L 92.970858 117.237346 
L 93.09297 120.465748 
L 93.154026 118.785929 
L 93.337193 117.237346 
L 93.398249 116.2662 
L 93.459305 116.633661 
L 93.52036 117.998514 
L 93.581416 117.736042 
L 93.764584 116.161212 
L 93.825639 118.051008 
L 93.886695 114.848853 
L 93.947751 115.767504 
L 94.008807 114.350156 
L 94.130919 115.977481 
L 94.191974 114.665123 
L 94.314086 116.476178 
L 94.375142 115.163819 
L 94.436198 116.003728 
L 94.497253 116.161212 
L 94.558309 116.056223 
L 94.680421 118.759682 
L 94.741477 117.342334 
L 94.924644 119.88831 
L 94.9857 117.578559 
L 95.046756 120.570737 
L 95.107812 119.33712 
L 95.290979 120.570737 
L 95.352035 120.54449 
L 95.413091 121.253164 
L 95.474146 119.415861 
L 95.535202 122.985477 
L 95.596258 121.121928 
L 95.657314 119.547097 
L 95.779426 121.463141 
L 95.840481 119.678333 
L 95.901537 120.754467 
L 95.962593 121.620624 
L 96.023649 121.410647 
L 96.084705 120.938197 
L 96.14576 121.358152 
L 96.206816 120.675726 
L 96.267872 121.804354 
L 96.328928 121.069433 
L 96.451039 121.988084 
L 96.573151 120.91195 
L 96.634207 123.300443 
L 96.695263 121.909343 
L 96.756319 121.463141 
L 96.817374 123.772892 
L 96.87843 121.043186 
L 96.939486 122.723005 
L 97.061598 124.927768 
L 97.305821 121.463141 
L 97.366877 123.457926 
L 97.427933 123.064219 
L 97.488988 123.510421 
L 97.6111 122.696758 
L 97.733212 123.877881 
L 97.794267 126.345116 
L 97.916379 122.7755 
L 98.038491 125.715183 
L 98.160602 123.851634 
L 98.221658 124.035364 
L 98.282714 123.457926 
L 98.34377 123.720398 
L 98.526937 125.321476 
L 98.587993 126.21388 
L 98.77116 123.536668 
L 98.832216 126.371363 
L 98.893272 126.056397 
L 98.954328 124.297836 
L 99.015384 126.423857 
L 99.07644 125.426464 
L 99.259607 124.717791 
L 99.320663 124.770285 
L 99.381719 125.688936 
L 99.442774 125.242734 
L 99.50383 125.662689 
L 99.564886 124.691544 
L 99.625942 125.478959 
L 99.686998 124.796532 
L 99.748053 127.683722 
L 99.809109 125.19024 
L 99.870165 126.633835 
L 99.992277 125.137746 
L 100.053333 126.712576 
L 100.114388 125.793925 
L 100.175444 125.5577 
L 100.2365 127.499991 
L 100.358612 125.137746 
L 100.419667 127.814957 
L 100.480723 125.505206 
L 100.541779 126.450104 
L 100.602835 126.292621 
L 100.724946 127.657474 
L 100.786002 127.631227 
L 100.908114 126.082644 
L 100.96917 127.473744 
L 101.030226 126.318868 
L 101.091281 126.896306 
L 101.213393 128.261159 
L 101.335505 126.108891 
L 101.457616 127.946193 
L 101.518672 125.347723 
L 101.579728 125.846419 
L 101.640784 128.103676 
L 101.70184 127.447497 
L 101.762895 128.261159 
L 101.823951 127.657474 
L 101.946063 128.182418 
L 102.007119 126.371363 
L 102.12923 129.284799 
L 102.190286 128.864844 
L 102.251342 127.368755 
L 102.312398 128.44489 
L 102.434509 128.418642 
L 102.495565 130.098462 
L 102.556621 127.027542 
L 102.617677 128.943586 
L 102.678733 127.919946 
L 102.8619 130.544664 
L 103.045067 127.316261 
L 103.106123 129.284799 
L 103.167179 129.022327 
L 103.228235 128.523631 
L 103.350347 129.704754 
L 103.411402 129.626013 
L 103.472458 128.733609 
L 103.59457 130.150956 
L 103.655626 127.631227 
L 103.716681 129.468529 
L 103.777737 129.573518 
L 103.838793 128.759856 
L 103.899849 130.01972 
L 103.960905 128.313654 
L 104.02196 129.232305 
L 104.083016 128.44489 
L 104.144072 131.279585 
L 104.205128 128.917339 
L 104.266184 129.179811 
L 104.32724 130.20345 
L 104.388295 130.150956 
L 104.571463 128.707361 
L 104.75463 130.308439 
L 104.815686 128.81235 
L 104.876742 130.177203 
L 104.937798 128.62862 
L 104.998854 129.993473 
L 105.059909 129.626013 
L 105.120965 128.707361 
L 105.182021 128.838597 
L 105.304133 130.150956 
L 105.365188 128.891092 
L 105.4873 131.200843 
L 105.548356 130.85963 
L 105.609412 131.04336 
L 105.670467 128.917339 
L 105.731523 130.150956 
L 105.853635 130.885877 
L 105.975747 130.01972 
L 106.036802 131.778281 
L 106.097858 129.284799 
L 106.158914 130.439675 
L 106.21997 130.413428 
L 106.281026 129.599765 
L 106.342081 131.830775 
L 106.403137 130.360933 
L 106.464193 129.83599 
L 106.525249 130.964618 
L 106.586305 129.862237 
L 106.64736 131.069607 
L 106.708416 128.313654 
L 106.769472 129.521024 
L 106.891584 131.437068 
L 106.95264 129.074822 
L 107.013695 130.150956 
L 107.074751 130.544664 
L 107.135807 129.232305 
L 107.196863 129.783496 
L 107.257919 131.515809 
L 107.318974 130.807135 
L 107.441086 128.969833 
L 107.624254 131.253337 
L 107.685309 129.599765 
L 107.746365 130.518416 
L 107.807421 131.332079 
L 107.868477 130.282192 
L 107.929533 130.570911 
L 107.990588 131.332079 
L 108.051644 129.967226 
L 108.1127 131.095854 
L 108.173756 129.442282 
L 108.234812 131.673292 
L 108.295867 129.547271 
L 108.356923 130.229698 
L 108.417979 132.093247 
L 108.479035 129.258552 
L 108.601147 133.064392 
L 108.723258 129.284799 
L 108.784314 130.150956 
L 108.84537 129.914731 
L 108.906426 130.229698 
L 108.967481 131.935764 
L 109.089593 129.704754 
L 109.272761 130.833383 
L 109.394872 129.153563 
L 109.455928 131.542056 
L 109.516984 130.807135 
L 109.57804 129.809743 
L 109.639095 130.20345 
L 109.700151 129.83599 
L 109.761207 131.41082 
L 109.822263 131.305832 
L 109.883319 128.576125 
L 109.944374 131.122102 
L 110.00543 130.570911 
L 110.127542 130.124709 
L 110.188598 132.198236 
L 110.249654 131.095854 
L 110.432821 129.048575 
L 110.493877 129.547271 
L 110.615988 132.119494 
L 110.799156 129.757248 
L 110.860212 131.542056 
L 110.921268 128.864844 
L 110.982323 129.442282 
L 111.043379 131.41082 
L 111.104435 129.179811 
L 111.165491 130.072214 
L 111.287602 129.127316 
L 111.348658 130.833383 
L 111.409714 128.99608 
L 111.47077 129.704754 
L 111.531826 129.809743 
L 111.592881 129.153563 
L 111.714993 130.938371 
L 111.837105 129.704754 
L 111.898161 130.728394 
L 111.959216 129.809743 
L 112.020272 129.914731 
L 112.081328 130.413428 
L 112.142384 129.547271 
L 112.264495 130.597158 
L 112.325551 130.570911 
L 112.386607 129.494777 
L 112.508719 131.909517 
L 112.569774 130.544664 
L 112.63083 131.200843 
L 112.752942 130.938371 
L 112.813998 132.040753 
L 112.936109 129.389788 
L 112.997165 130.465922 
L 113.058221 129.65226 
L 113.119277 129.206058 
L 113.180333 129.468529 
L 113.241388 131.437068 
L 113.302444 131.122102 
L 113.3635 129.967226 
L 113.424556 130.597158 
L 113.607723 129.599765 
L 113.668779 130.255945 
L 113.729835 129.626013 
L 113.790891 130.124709 
L 113.851947 130.255945 
L 113.974058 128.129924 
L 114.035114 131.647045 
L 114.09617 130.177203 
L 114.157226 130.990866 
L 114.218281 129.547271 
L 114.279337 131.253337 
L 114.340393 130.990866 
L 114.401449 131.122102 
L 114.462505 131.647045 
L 114.645672 129.547271 
L 114.706728 133.09064 
L 114.767784 131.962011 
L 114.889895 131.88327 
L 115.012007 130.85963 
L 115.073063 131.568303 
L 115.195175 130.334686 
L 115.317286 131.594551 
L 115.378342 130.780888 
L 115.439398 131.647045 
L 115.500454 130.334686 
L 115.561509 132.749426 
L 115.622565 131.830775 
L 115.744677 130.360933 
L 115.805733 132.618191 
L 115.866788 131.673292 
L 115.9889 131.253337 
L 116.111012 132.854415 
L 116.233123 129.967226 
L 116.355235 132.014505 
L 116.416291 129.83599 
L 116.477347 132.067 
L 116.538402 131.41082 
L 116.599458 130.702147 
L 116.660514 131.542056 
L 116.72157 130.6759 
L 116.782626 131.988258 
L 116.843682 131.332079 
L 116.904737 130.308439 
L 117.026849 131.804528 
L 117.087905 131.515809 
L 117.148961 130.518416 
L 117.271072 132.696932 
L 117.332128 132.093247 
L 117.393184 132.723179 
L 117.515295 131.04336 
L 117.637407 132.25073 
L 117.698463 131.437068 
L 117.759519 131.962011 
L 117.88163 133.038145 
L 117.942686 132.460707 
L 118.003742 133.195628 
L 118.064798 131.542056 
L 118.125854 132.565696 
L 118.186909 131.305832 
L 118.247965 131.909517 
L 118.309021 131.909517 
L 118.370077 132.171989 
L 118.553244 131.22709 
L 118.6143 131.489562 
L 118.675356 130.85963 
L 118.858523 132.749426 
L 118.919579 133.4581 
L 118.980635 132.460707 
L 119.041691 133.326864 
L 119.102747 131.542056 
L 119.163802 132.276977 
L 119.285914 132.749426 
L 119.34697 131.752034 
L 119.408026 132.276977 
L 119.469082 131.673292 
L 119.591193 132.959404 
L 119.713305 130.6759 
L 119.774361 132.43446 
L 119.835416 131.752034 
L 119.896472 132.644438 
L 119.957528 132.040753 
L 120.018584 131.909517 
L 120.201751 132.644438 
L 120.262807 131.962011 
L 120.323863 132.959404 
L 120.384919 131.489562 
L 120.445975 132.25073 
L 120.50703 133.773066 
L 120.568086 132.906909 
L 120.690198 132.591943 
L 120.812309 133.195628 
L 120.873365 132.749426 
L 120.934421 133.431853 
L 120.995477 132.093247 
L 121.056533 132.43446 
L 121.117589 132.093247 
L 121.178644 132.119494 
L 121.2397 132.093247 
L 121.361812 130.807135 
L 121.544979 132.880662 
L 121.606035 132.145741 
L 121.667091 132.408213 
L 121.728147 132.644438 
L 121.789202 133.825561 
L 121.911314 130.728394 
L 122.033426 133.851808 
L 122.094482 130.990866 
L 122.155537 132.43446 
L 122.216593 133.064392 
L 122.277649 131.594551 
L 122.338705 131.909517 
L 122.399761 133.851808 
L 122.460816 132.618191 
L 122.521872 132.145741 
L 122.582928 132.303224 
L 122.643984 133.116887 
L 122.766096 131.568303 
L 122.827151 134.770459 
L 122.888207 132.696932 
L 122.949263 133.038145 
L 123.010319 132.276977 
L 123.071375 132.408213 
L 123.13243 133.773066 
L 123.193486 133.09064 
L 123.315598 132.460707 
L 123.376654 133.589336 
L 123.437709 131.699539 
L 123.498765 133.64183 
L 123.559821 131.804528 
L 123.620877 132.119494 
L 123.681933 133.4581 
L 123.742989 132.539449 
L 123.8651 133.668078 
L 123.987212 132.329472 
L 124.048268 132.565696 
L 124.109323 132.539449 
L 124.170379 132.171989 
L 124.292491 133.720572 
L 124.353547 132.933157 
L 124.414603 132.985651 
L 124.475658 132.880662 
L 124.658826 133.983044 
L 124.719882 132.539449 
L 124.780937 133.720572 
L 124.903049 132.355719 
L 124.964105 133.851808 
L 125.025161 132.145741 
L 125.086216 132.696932 
L 125.208328 133.563089 
L 125.33044 132.749426 
L 125.391496 133.904302 
L 125.452551 132.067 
L 125.513607 132.565696 
L 125.635719 133.668078 
L 125.696775 133.746819 
L 125.75783 132.513202 
L 125.818886 132.644438 
L 125.879942 132.696932 
L 125.940998 133.405606 
L 126.002054 133.248123 
L 126.124165 133.983044 
L 126.185221 133.221876 
L 126.246277 133.668078 
L 126.307333 133.64183 
L 126.368389 133.904302 
L 126.551556 131.778281 
L 126.734723 134.429246 
L 126.795779 134.193021 
L 126.917891 134.770459 
L 127.162114 133.09064 
L 127.22317 134.271763 
L 127.406337 132.539449 
L 127.467393 134.140527 
L 127.528449 133.746819 
L 127.650561 133.038145 
L 127.833728 134.219268 
L 127.894784 134.612976 
L 128.077951 132.513202 
L 128.200063 135.006683 
L 128.322175 132.119494 
L 128.38323 133.353111 
L 128.444286 132.828168 
L 128.627454 135.426638 
L 128.68851 132.539449 
L 128.749565 134.376751 
L 128.932733 132.408213 
L 129.054844 134.376751 
L 129.176956 133.248123 
L 129.299068 133.930549 
L 129.360123 132.381966 
L 129.421179 134.193021 
L 129.482235 132.723179 
L 129.543291 132.618191 
L 129.604347 134.271763 
L 129.665403 133.799313 
L 129.787514 132.985651 
L 129.970682 134.927942 
L 130.031737 133.878055 
L 130.092793 134.245515 
L 130.153849 134.271763 
L 130.275961 132.408213 
L 130.459128 135.164167 
L 130.520184 132.723179 
L 130.58124 135.137919 
L 130.642296 133.878055 
L 130.703351 133.510594 
L 130.764407 134.822953 
L 130.825463 133.746819 
L 131.00863 135.006683 
L 131.252854 132.933157 
L 131.374965 135.400391 
L 131.497077 135.111672 
L 131.558133 133.799313 
L 131.619189 135.085425 
L 131.680244 134.009291 
L 131.7413 135.899087 
L 131.802356 134.48174 
L 131.863412 133.694325 
L 131.924468 134.954189 
L 131.985523 133.536842 
L 132.046579 133.668078 
L 132.107635 134.744212 
L 132.168691 134.429246 
L 132.229747 133.300617 
L 132.412914 135.794099 
L 132.535026 133.536842 
L 132.718193 135.846593 
L 132.901361 133.248123 
L 133.084528 135.951582 
L 133.145584 135.426638 
L 133.20664 132.933157 
L 133.267696 135.295402 
L 133.328751 134.455493 
L 133.389807 134.507987 
L 133.450863 135.059178 
L 133.511919 133.064392 
L 133.572975 135.190414 
L 133.63403 134.717965 
L 133.756142 132.801921 
L 133.817198 133.589336 
L 134.000365 134.980436 
L 134.061421 134.822953 
L 134.122477 133.4581 
L 134.183533 133.64183 
L 134.244589 135.137919 
L 134.305644 134.744212 
L 134.3667 134.455493 
L 134.427756 134.980436 
L 134.488812 134.009291 
L 134.549868 134.48174 
L 134.610924 134.717965 
L 134.671979 134.612976 
L 134.733035 134.140527 
L 134.855147 135.242908 
L 134.977258 133.615583 
L 135.09937 134.744212 
L 135.160426 134.455493 
L 135.221482 134.560481 
L 135.282537 135.216661 
L 135.404649 133.116887 
L 135.526761 135.216661 
L 135.587817 134.140527 
L 135.648872 134.429246 
L 135.709928 134.219268 
L 135.83204 135.190414 
L 136.015207 133.904302 
L 136.137319 134.796706 
L 136.198375 134.48174 
L 136.259431 135.190414 
L 136.320486 135.164167 
L 136.381542 135.269155 
L 136.625765 133.064392 
L 136.686821 134.66547 
L 136.747877 132.539449 
L 136.808933 133.143134 
L 136.9921 135.216661 
L 137.053156 133.484347 
L 137.114212 134.796706 
L 137.175268 134.954189 
L 137.358435 133.668078 
L 137.480547 134.534234 
L 137.541603 135.400391 
L 137.602658 134.061785 
L 137.663714 134.560481 
L 137.72477 134.560481 
L 137.785826 134.29801 
L 137.846882 136.922727 
L 137.907937 135.006683 
L 137.968993 133.694325 
L 138.030049 136.371537 
L 138.091105 134.796706 
L 138.152161 136.397784 
L 138.274272 133.169381 
L 138.335328 133.536842 
L 138.396384 134.954189 
L 138.45744 134.350504 
L 138.579551 135.531627 
L 138.640607 134.376751 
L 138.701663 134.586729 
L 138.762719 135.164167 
L 138.823775 134.954189 
L 138.945886 133.799313 
L 139.129054 134.875448 
L 139.19011 135.111672 
L 139.251165 135.032931 
L 139.312221 133.878055 
L 139.373277 135.164167 
L 139.434333 134.035538 
L 139.495389 135.137919 
L 139.556444 134.507987 
L 139.739612 133.825561 
L 139.800668 135.137919 
L 139.861724 133.011898 
L 139.922779 135.68911 
L 139.983835 135.479133 
L 140.044891 133.878055 
L 140.105947 134.66547 
L 140.167003 134.560481 
L 140.228058 136.581514 
L 140.289114 134.11428 
L 140.35017 135.164167 
L 140.472282 133.983044 
L 140.533338 134.744212 
L 140.594393 134.29801 
L 140.655449 133.510594 
L 140.716505 135.164167 
L 140.777561 133.27437 
L 140.838617 134.061785 
L 140.899672 133.484347 
L 140.960728 134.088032 
L 141.021784 132.959404 
L 141.08284 134.954189 
L 141.143896 134.455493 
L 141.204951 134.11428 
L 141.266007 135.295402 
L 141.449175 132.801921 
L 141.632342 134.586729 
L 141.693398 135.715357 
L 141.876565 134.245515 
L 141.937621 133.4581 
L 141.998677 135.347897 
L 142.059733 134.770459 
L 142.120789 133.116887 
L 142.181845 134.612976 
L 142.2429 134.586729 
L 142.303956 133.983044 
L 142.365012 135.006683 
L 142.426068 133.799313 
L 142.487124 135.164167 
L 142.548179 133.510594 
L 142.609235 134.796706 
L 142.670291 134.770459 
L 142.731347 133.536842 
L 142.792403 135.426638 
L 142.853458 133.536842 
L 142.914514 133.878055 
L 143.158738 135.400391 
L 143.219793 134.954189 
L 143.280849 134.245515 
L 143.464017 135.347897 
L 143.525072 133.563089 
L 143.586128 135.32165 
L 143.647184 135.269155 
L 143.70824 133.248123 
L 143.769296 134.219268 
L 143.830351 135.006683 
L 143.891407 134.11428 
L 143.952463 134.901695 
L 144.135631 133.773066 
L 144.196686 134.271763 
L 144.257742 132.408213 
L 144.379854 135.794099 
L 144.44091 134.744212 
L 144.501965 134.927942 
L 144.624077 133.746819 
L 144.685133 135.032931 
L 144.8683 133.64183 
L 144.929356 135.68911 
L 145.051468 133.589336 
L 145.295691 135.741604 
L 145.356747 134.534234 
L 145.417803 135.242908 
L 145.478858 135.347897 
L 145.539914 133.956796 
L 145.60097 135.242908 
L 145.662026 135.032931 
L 145.723082 134.927942 
L 145.784138 135.452885 
L 145.845193 135.085425 
L 145.906249 134.927942 
L 145.967305 136.240301 
L 146.089417 134.507987 
L 146.150472 135.374144 
L 146.211528 134.901695 
L 146.33364 134.66547 
L 146.394696 133.825561 
L 146.516807 134.822953 
L 146.577863 134.29801 
L 146.638919 135.164167 
L 146.699975 134.507987 
L 146.761031 134.980436 
L 146.822086 134.429246 
L 146.883142 135.269155 
L 146.944198 135.137919 
L 147.005254 135.32165 
L 147.06631 135.059178 
L 147.127365 133.668078 
L 147.188421 133.773066 
L 147.249477 133.825561 
L 147.371589 134.901695 
L 147.4937 132.801921 
L 147.554756 136.109065 
L 147.615812 134.429246 
L 147.676868 134.639223 
L 147.737924 135.741604 
L 147.798979 135.190414 
L 147.860035 134.271763 
L 147.921091 134.717965 
L 148.043203 136.686503 
L 148.104259 134.455493 
L 148.165314 135.269155 
L 148.22637 134.534234 
L 148.287426 134.717965 
L 148.470593 133.536842 
L 148.531649 134.901695 
L 148.592705 134.534234 
L 148.653761 133.536842 
L 148.714817 135.374144 
L 148.775872 133.143134 
L 148.836928 134.954189 
L 148.897984 134.48174 
L 148.95904 135.977829 
L 149.020096 132.696932 
L 149.081152 134.324257 
L 149.142207 133.904302 
L 149.203263 135.452885 
L 149.264319 135.269155 
L 149.447486 134.140527 
L 149.508542 136.135312 
L 149.569598 133.221876 
L 149.630654 133.956796 
L 149.813821 136.502772 
L 149.935933 134.088032 
L 149.996989 135.557874 
L 150.058045 134.66547 
L 150.1191 134.140527 
L 150.180156 134.534234 
L 150.363324 133.4581 
L 150.607547 135.87284 
L 150.668603 133.143134 
L 150.729659 134.140527 
L 150.790714 135.87284 
L 150.85177 133.799313 
L 150.912826 134.088032 
L 151.034938 134.639223 
L 151.095993 134.140527 
L 151.157049 134.927942 
L 151.218105 133.64183 
L 151.279161 134.691717 
L 151.340217 134.245515 
L 151.401272 134.402998 
L 151.462328 136.109065 
L 151.523384 135.767852 
L 151.58444 133.799313 
L 151.645496 135.557874 
L 151.706552 133.878055 
L 151.767607 134.8492 
L 151.950775 133.353111 
L 152.011831 134.822953 
L 152.072886 134.612976 
L 152.133942 134.429246 
L 152.194998 135.137919 
L 152.256054 133.353111 
L 152.31711 133.64183 
L 152.378166 135.610369 
L 152.439221 134.061785 
L 152.622389 135.164167 
L 152.683445 134.901695 
L 152.7445 133.300617 
L 152.805556 134.245515 
L 152.866612 134.48174 
L 152.927668 133.799313 
L 153.110835 134.822953 
L 153.171891 134.350504 
L 153.294003 135.216661 
L 153.47717 134.612976 
L 153.538226 135.610369 
L 153.721393 133.589336 
L 153.782449 134.954189 
L 153.843505 133.956796 
L 153.965617 135.032931 
L 154.026673 134.586729 
L 154.087728 132.696932 
L 154.148784 134.8492 
L 154.20984 133.379359 
L 154.270896 133.510594 
L 154.454063 134.980436 
L 154.576175 133.956796 
L 154.820398 136.161559 
L 154.881454 133.668078 
L 154.94251 134.009291 
L 155.003566 134.796706 
L 155.064621 133.405606 
L 155.125677 134.980436 
L 155.186733 133.4581 
L 155.247789 134.061785 
L 155.308845 134.717965 
L 155.3699 134.061785 
L 155.430956 134.29801 
L 155.553068 135.50538 
L 155.614124 133.589336 
L 155.675179 135.032931 
L 155.797291 135.636616 
L 155.858347 135.059178 
L 155.919403 135.846593 
L 155.980459 134.11428 
L 156.041514 134.48174 
L 156.224682 134.796706 
L 156.285738 134.11428 
L 156.468905 136.319042 
L 156.591017 132.539449 
L 156.652073 132.985651 
L 156.774184 135.820346 
L 156.896296 135.242908 
L 156.957352 133.615583 
L 157.018407 135.059178 
L 157.140519 133.379359 
L 157.323686 134.534234 
L 157.384742 133.484347 
L 157.506854 135.032931 
L 157.56791 133.510594 
L 157.628966 134.219268 
L 157.751077 134.11428 
L 157.812133 133.221876 
L 157.873189 135.426638 
L 157.934245 134.639223 
L 157.9953 133.773066 
L 158.056356 133.904302 
L 158.117412 134.954189 
L 158.178468 134.140527 
L 158.239524 133.956796 
L 158.30058 135.242908 
L 158.361635 134.324257 
L 158.422691 134.770459 
L 158.483747 134.193021 
L 158.544803 135.085425 
L 158.605859 133.851808 
L 158.666914 133.878055 
L 158.72797 134.927942 
L 158.789026 134.612976 
L 158.850082 134.954189 
L 158.911138 132.591943 
L 158.972193 133.799313 
L 159.033249 133.64183 
L 159.094305 134.560481 
L 159.155361 133.011898 
L 159.216417 134.875448 
L 159.277473 134.035538 
L 159.338528 133.563089 
L 159.399584 133.983044 
L 159.46064 132.670685 
L 159.521696 133.694325 
L 159.582752 134.271763 
L 159.643807 136.030323 
L 159.704863 135.059178 
L 159.765919 135.190414 
L 159.888031 133.510594 
L 159.949087 134.980436 
L 160.010142 133.956796 
L 160.19331 134.8492 
L 160.254366 135.059178 
L 160.315421 134.219268 
L 160.376477 134.376751 
L 160.498589 133.484347 
L 160.681756 135.032931 
L 160.742812 136.187806 
L 160.803868 134.11428 
L 160.864924 134.717965 
L 160.92598 134.402998 
L 160.987035 136.52902 
L 161.109147 133.510594 
L 161.170203 135.006683 
L 161.231259 134.875448 
L 161.35337 133.536842 
L 161.414426 134.11428 
L 161.475482 136.05657 
L 161.536538 134.48174 
L 161.719705 133.668078 
L 161.780761 135.767852 
L 161.841817 135.426638 
L 161.963928 133.851808 
L 162.08604 135.111672 
L 162.208152 134.088032 
L 162.269207 135.584121 
L 162.330263 135.269155 
L 162.452375 133.09064 
L 162.513431 135.479133 
L 162.574487 134.927942 
L 162.696598 134.8492 
L 162.879766 136.030323 
L 162.879766 136.030323 
" clip-path="url(#p2cc63754ef)" style="fill: none; stroke: #1f77b4; stroke-width: 0.5; stroke-linecap: square"/>
   </g>
   <g id="patch_3">
    <path d="M 23.410312 143.1 
L 23.410312 7.2 
" style="fill: none; stroke: #000000; stroke-width: 0.8; stroke-linejoin: miter; stroke-linecap: square"/>
   </g>
   <g id="patch_4">
    <path d="M 162.910313 143.1 
L 162.910313 7.2 
" style="fill: none; stroke: #000000; stroke-width: 0.8; stroke-linejoin: miter; stroke-linecap: square"/>
   </g>
   <g id="patch_5">
    <path d="M 23.410312 143.1 
L 162.910313 143.1 
" style="fill: none; stroke: #000000; stroke-width: 0.8; stroke-linejoin: miter; stroke-linecap: square"/>
   </g>
   <g id="patch_6">
    <path d="M 23.410312 7.2 
L 162.910313 7.2 
" style="fill: none; stroke: #000000; stroke-width: 0.8; stroke-linejoin: miter; stroke-linecap: square"/>
   </g>
  </g>
 </g>
 <defs>
  <clipPath id="p2cc63754ef">
   <rect x="23.410312" y="7.2" width="139.5" height="135.9"/>
  </clipPath>
 </defs>
</svg>
