<?xml version="1.0" encoding="utf-8" standalone="no"?>
<!DOCTYPE svg PUBLIC "-//W3C//DTD SVG 1.1//EN"
  "http://www.w3.org/Graphics/SVG/1.1/DTD/svg11.dtd">
<svg xmlns:xlink="http://www.w3.org/1999/xlink" width="170.110313pt" height="177.752813pt" viewBox="0 0 170.110313 177.752813" xmlns="http://www.w3.org/2000/svg" version="1.1">
 <metadata>
  <rdf:RDF xmlns:dc="http://purl.org/dc/elements/1.1/" xmlns:cc="http://creativecommons.org/ns#" xmlns:rdf="http://www.w3.org/1999/02/22-rdf-syntax-ns#">
   <cc:Work>
    <dc:type rdf:resource="http://purl.org/dc/dcmitype/StillImage"/>
    <dc:date>2023-02-25T15:21:28.938913</dc:date>
    <dc:format>image/svg+xml</dc:format>
    <dc:creator>
     <cc:Agent>
      <dc:title>Matplotlib v3.5.2, https://matplotlib.org/</dc:title>
     </cc:Agent>
    </dc:creator>
   </cc:Work>
  </rdf:RDF>
 </metadata>
 <defs>
  <style type="text/css">*{stroke-linejoin: round; stroke-linecap: butt}</style>
 </defs>
 <g id="figure_1">
  <g id="patch_1">
   <path d="M 0 177.752813 
L 170.110313 177.752813 
L 170.110313 0 
L 0 0 
z
" style="fill: #ffffff"/>
  </g>
  <g id="axes_1">
   <g id="patch_2">
    <path d="M 23.410312 143.1 
L 162.910313 143.1 
L 162.910313 7.2 
L 23.410312 7.2 
z
" style="fill: #ffffff"/>
   </g>
   <g id="matplotlib.axis_1">
    <g id="xtick_1">
     <g id="line2d_1">
      <defs>
       <path id="mc6a25563eb" d="M 0 0 
L 0 3.5 
" style="stroke: #000000; stroke-width: 0.8"/>
      </defs>
      <g>
       <use xlink:href="#mc6a25563eb" x="58.285313" y="143.1" style="stroke: #000000; stroke-width: 0.8"/>
      </g>
     </g>
     <g id="text_1">
      <!-- 20 -->
      <g transform="translate(53.195312 156.17875)scale(0.08 -0.08)">
       <defs>
        <path id="DejaVuSans-32" d="M 1228 531 
L 3431 531 
L 3431 0 
L 469 0 
L 469 531 
Q 828 903 1448 1529 
Q 2069 2156 2228 2338 
Q 2531 2678 2651 2914 
Q 2772 3150 2772 3378 
Q 2772 3750 2511 3984 
Q 2250 4219 1831 4219 
Q 1534 4219 1204 4116 
Q 875 4013 500 3803 
L 500 4441 
Q 881 4594 1212 4672 
Q 1544 4750 1819 4750 
Q 2544 4750 2975 4387 
Q 3406 4025 3406 3419 
Q 3406 3131 3298 2873 
Q 3191 2616 2906 2266 
Q 2828 2175 2409 1742 
Q 1991 1309 1228 531 
z
" transform="scale(0.015625)"/>
        <path id="DejaVuSans-30" d="M 2034 4250 
Q 1547 4250 1301 3770 
Q 1056 3291 1056 2328 
Q 1056 1369 1301 889 
Q 1547 409 2034 409 
Q 2525 409 2770 889 
Q 3016 1369 3016 2328 
Q 3016 3291 2770 3770 
Q 2525 4250 2034 4250 
z
M 2034 4750 
Q 2819 4750 3233 4129 
Q 3647 3509 3647 2328 
Q 3647 1150 3233 529 
Q 2819 -91 2034 -91 
Q 1250 -91 836 529 
Q 422 1150 422 2328 
Q 422 3509 836 4129 
Q 1250 4750 2034 4750 
z
" transform="scale(0.015625)"/>
       </defs>
       <use xlink:href="#DejaVuSans-32"/>
       <use xlink:href="#DejaVuSans-30" x="63.623047"/>
      </g>
     </g>
    </g>
    <g id="xtick_2">
     <g id="line2d_2">
      <g>
       <use xlink:href="#mc6a25563eb" x="104.785313" y="143.1" style="stroke: #000000; stroke-width: 0.8"/>
      </g>
     </g>
     <g id="text_2">
      <!-- 40 -->
      <g transform="translate(99.695312 156.17875)scale(0.08 -0.08)">
       <defs>
        <path id="DejaVuSans-34" d="M 2419 4116 
L 825 1625 
L 2419 1625 
L 2419 4116 
z
M 2253 4666 
L 3047 4666 
L 3047 1625 
L 3713 1625 
L 3713 1100 
L 3047 1100 
L 3047 0 
L 2419 0 
L 2419 1100 
L 313 1100 
L 313 1709 
L 2253 4666 
z
" transform="scale(0.015625)"/>
       </defs>
       <use xlink:href="#DejaVuSans-34"/>
       <use xlink:href="#DejaVuSans-30" x="63.623047"/>
      </g>
     </g>
    </g>
    <g id="xtick_3">
     <g id="line2d_3">
      <g>
       <use xlink:href="#mc6a25563eb" x="151.285313" y="143.1" style="stroke: #000000; stroke-width: 0.8"/>
      </g>
     </g>
     <g id="text_3">
      <!-- 60 -->
      <g transform="translate(146.195312 156.17875)scale(0.08 -0.08)">
       <defs>
        <path id="DejaVuSans-36" d="M 2113 2584 
Q 1688 2584 1439 2293 
Q 1191 2003 1191 1497 
Q 1191 994 1439 701 
Q 1688 409 2113 409 
Q 2538 409 2786 701 
Q 3034 994 3034 1497 
Q 3034 2003 2786 2293 
Q 2538 2584 2113 2584 
z
M 3366 4563 
L 3366 3988 
Q 3128 4100 2886 4159 
Q 2644 4219 2406 4219 
Q 1781 4219 1451 3797 
Q 1122 3375 1075 2522 
Q 1259 2794 1537 2939 
Q 1816 3084 2150 3084 
Q 2853 3084 3261 2657 
Q 3669 2231 3669 1497 
Q 3669 778 3244 343 
Q 2819 -91 2113 -91 
Q 1303 -91 875 529 
Q 447 1150 447 2328 
Q 447 3434 972 4092 
Q 1497 4750 2381 4750 
Q 2619 4750 2861 4703 
Q 3103 4656 3366 4563 
z
" transform="scale(0.015625)"/>
       </defs>
       <use xlink:href="#DejaVuSans-36"/>
       <use xlink:href="#DejaVuSans-30" x="63.623047"/>
      </g>
     </g>
    </g>
    <g id="xtick_4">
     <g id="line2d_4">
      <defs>
       <path id="m36708ab8e4" d="M 0 0 
L 0 2 
" style="stroke: #000000; stroke-width: 0.6"/>
      </defs>
      <g>
       <use xlink:href="#m36708ab8e4" x="23.410312" y="143.1" style="stroke: #000000; stroke-width: 0.6"/>
      </g>
     </g>
    </g>
    <g id="xtick_5">
     <g id="line2d_5">
      <g>
       <use xlink:href="#m36708ab8e4" x="29.222812" y="143.1" style="stroke: #000000; stroke-width: 0.6"/>
      </g>
     </g>
    </g>
    <g id="xtick_6">
     <g id="line2d_6">
      <g>
       <use xlink:href="#m36708ab8e4" x="35.035313" y="143.1" style="stroke: #000000; stroke-width: 0.6"/>
      </g>
     </g>
    </g>
    <g id="xtick_7">
     <g id="line2d_7">
      <g>
       <use xlink:href="#m36708ab8e4" x="40.847813" y="143.1" style="stroke: #000000; stroke-width: 0.6"/>
      </g>
     </g>
    </g>
    <g id="xtick_8">
     <g id="line2d_8">
      <g>
       <use xlink:href="#m36708ab8e4" x="46.660313" y="143.1" style="stroke: #000000; stroke-width: 0.6"/>
      </g>
     </g>
    </g>
    <g id="xtick_9">
     <g id="line2d_9">
      <g>
       <use xlink:href="#m36708ab8e4" x="52.472813" y="143.1" style="stroke: #000000; stroke-width: 0.6"/>
      </g>
     </g>
    </g>
    <g id="xtick_10">
     <g id="line2d_10">
      <g>
       <use xlink:href="#m36708ab8e4" x="64.097813" y="143.1" style="stroke: #000000; stroke-width: 0.6"/>
      </g>
     </g>
    </g>
    <g id="xtick_11">
     <g id="line2d_11">
      <g>
       <use xlink:href="#m36708ab8e4" x="69.910313" y="143.1" style="stroke: #000000; stroke-width: 0.6"/>
      </g>
     </g>
    </g>
    <g id="xtick_12">
     <g id="line2d_12">
      <g>
       <use xlink:href="#m36708ab8e4" x="75.722813" y="143.1" style="stroke: #000000; stroke-width: 0.6"/>
      </g>
     </g>
    </g>
    <g id="xtick_13">
     <g id="line2d_13">
      <g>
       <use xlink:href="#m36708ab8e4" x="81.535313" y="143.1" style="stroke: #000000; stroke-width: 0.6"/>
      </g>
     </g>
    </g>
    <g id="xtick_14">
     <g id="line2d_14">
      <g>
       <use xlink:href="#m36708ab8e4" x="87.347813" y="143.1" style="stroke: #000000; stroke-width: 0.6"/>
      </g>
     </g>
    </g>
    <g id="xtick_15">
     <g id="line2d_15">
      <g>
       <use xlink:href="#m36708ab8e4" x="93.160313" y="143.1" style="stroke: #000000; stroke-width: 0.6"/>
      </g>
     </g>
    </g>
    <g id="xtick_16">
     <g id="line2d_16">
      <g>
       <use xlink:href="#m36708ab8e4" x="98.972813" y="143.1" style="stroke: #000000; stroke-width: 0.6"/>
      </g>
     </g>
    </g>
    <g id="xtick_17">
     <g id="line2d_17">
      <g>
       <use xlink:href="#m36708ab8e4" x="110.597813" y="143.1" style="stroke: #000000; stroke-width: 0.6"/>
      </g>
     </g>
    </g>
    <g id="xtick_18">
     <g id="line2d_18">
      <g>
       <use xlink:href="#m36708ab8e4" x="116.410313" y="143.1" style="stroke: #000000; stroke-width: 0.6"/>
      </g>
     </g>
    </g>
    <g id="xtick_19">
     <g id="line2d_19">
      <g>
       <use xlink:href="#m36708ab8e4" x="122.222813" y="143.1" style="stroke: #000000; stroke-width: 0.6"/>
      </g>
     </g>
    </g>
    <g id="xtick_20">
     <g id="line2d_20">
      <g>
       <use xlink:href="#m36708ab8e4" x="128.035313" y="143.1" style="stroke: #000000; stroke-width: 0.6"/>
      </g>
     </g>
    </g>
    <g id="xtick_21">
     <g id="line2d_21">
      <g>
       <use xlink:href="#m36708ab8e4" x="133.847813" y="143.1" style="stroke: #000000; stroke-width: 0.6"/>
      </g>
     </g>
    </g>
    <g id="xtick_22">
     <g id="line2d_22">
      <g>
       <use xlink:href="#m36708ab8e4" x="139.660313" y="143.1" style="stroke: #000000; stroke-width: 0.6"/>
      </g>
     </g>
    </g>
    <g id="xtick_23">
     <g id="line2d_23">
      <g>
       <use xlink:href="#m36708ab8e4" x="145.472813" y="143.1" style="stroke: #000000; stroke-width: 0.6"/>
      </g>
     </g>
    </g>
    <g id="xtick_24">
     <g id="line2d_24">
      <g>
       <use xlink:href="#m36708ab8e4" x="157.097813" y="143.1" style="stroke: #000000; stroke-width: 0.6"/>
      </g>
     </g>
    </g>
    <g id="xtick_25">
     <g id="line2d_25">
      <g>
       <use xlink:href="#m36708ab8e4" x="162.910313" y="143.1" style="stroke: #000000; stroke-width: 0.6"/>
      </g>
     </g>
    </g>
    <g id="text_4">
     <!-- Two Theta (degrees) -->
     <g transform="translate(47.344688 168.681094)scale(0.09 -0.09)">
      <defs>
       <path id="DejaVuSans-54" d="M -19 4666 
L 3928 4666 
L 3928 4134 
L 2272 4134 
L 2272 0 
L 1638 0 
L 1638 4134 
L -19 4134 
L -19 4666 
z
" transform="scale(0.015625)"/>
       <path id="DejaVuSans-77" d="M 269 3500 
L 844 3500 
L 1563 769 
L 2278 3500 
L 2956 3500 
L 3675 769 
L 4391 3500 
L 4966 3500 
L 4050 0 
L 3372 0 
L 2619 2869 
L 1863 0 
L 1184 0 
L 269 3500 
z
" transform="scale(0.015625)"/>
       <path id="DejaVuSans-6f" d="M 1959 3097 
Q 1497 3097 1228 2736 
Q 959 2375 959 1747 
Q 959 1119 1226 758 
Q 1494 397 1959 397 
Q 2419 397 2687 759 
Q 2956 1122 2956 1747 
Q 2956 2369 2687 2733 
Q 2419 3097 1959 3097 
z
M 1959 3584 
Q 2709 3584 3137 3096 
Q 3566 2609 3566 1747 
Q 3566 888 3137 398 
Q 2709 -91 1959 -91 
Q 1206 -91 779 398 
Q 353 888 353 1747 
Q 353 2609 779 3096 
Q 1206 3584 1959 3584 
z
" transform="scale(0.015625)"/>
       <path id="DejaVuSans-20" transform="scale(0.015625)"/>
       <path id="DejaVuSans-68" d="M 3513 2113 
L 3513 0 
L 2938 0 
L 2938 2094 
Q 2938 2591 2744 2837 
Q 2550 3084 2163 3084 
Q 1697 3084 1428 2787 
Q 1159 2491 1159 1978 
L 1159 0 
L 581 0 
L 581 4863 
L 1159 4863 
L 1159 2956 
Q 1366 3272 1645 3428 
Q 1925 3584 2291 3584 
Q 2894 3584 3203 3211 
Q 3513 2838 3513 2113 
z
" transform="scale(0.015625)"/>
       <path id="DejaVuSans-65" d="M 3597 1894 
L 3597 1613 
L 953 1613 
Q 991 1019 1311 708 
Q 1631 397 2203 397 
Q 2534 397 2845 478 
Q 3156 559 3463 722 
L 3463 178 
Q 3153 47 2828 -22 
Q 2503 -91 2169 -91 
Q 1331 -91 842 396 
Q 353 884 353 1716 
Q 353 2575 817 3079 
Q 1281 3584 2069 3584 
Q 2775 3584 3186 3129 
Q 3597 2675 3597 1894 
z
M 3022 2063 
Q 3016 2534 2758 2815 
Q 2500 3097 2075 3097 
Q 1594 3097 1305 2825 
Q 1016 2553 972 2059 
L 3022 2063 
z
" transform="scale(0.015625)"/>
       <path id="DejaVuSans-74" d="M 1172 4494 
L 1172 3500 
L 2356 3500 
L 2356 3053 
L 1172 3053 
L 1172 1153 
Q 1172 725 1289 603 
Q 1406 481 1766 481 
L 2356 481 
L 2356 0 
L 1766 0 
Q 1100 0 847 248 
Q 594 497 594 1153 
L 594 3053 
L 172 3053 
L 172 3500 
L 594 3500 
L 594 4494 
L 1172 4494 
z
" transform="scale(0.015625)"/>
       <path id="DejaVuSans-61" d="M 2194 1759 
Q 1497 1759 1228 1600 
Q 959 1441 959 1056 
Q 959 750 1161 570 
Q 1363 391 1709 391 
Q 2188 391 2477 730 
Q 2766 1069 2766 1631 
L 2766 1759 
L 2194 1759 
z
M 3341 1997 
L 3341 0 
L 2766 0 
L 2766 531 
Q 2569 213 2275 61 
Q 1981 -91 1556 -91 
Q 1019 -91 701 211 
Q 384 513 384 1019 
Q 384 1609 779 1909 
Q 1175 2209 1959 2209 
L 2766 2209 
L 2766 2266 
Q 2766 2663 2505 2880 
Q 2244 3097 1772 3097 
Q 1472 3097 1187 3025 
Q 903 2953 641 2809 
L 641 3341 
Q 956 3463 1253 3523 
Q 1550 3584 1831 3584 
Q 2591 3584 2966 3190 
Q 3341 2797 3341 1997 
z
" transform="scale(0.015625)"/>
       <path id="DejaVuSans-28" d="M 1984 4856 
Q 1566 4138 1362 3434 
Q 1159 2731 1159 2009 
Q 1159 1288 1364 580 
Q 1569 -128 1984 -844 
L 1484 -844 
Q 1016 -109 783 600 
Q 550 1309 550 2009 
Q 550 2706 781 3412 
Q 1013 4119 1484 4856 
L 1984 4856 
z
" transform="scale(0.015625)"/>
       <path id="DejaVuSans-64" d="M 2906 2969 
L 2906 4863 
L 3481 4863 
L 3481 0 
L 2906 0 
L 2906 525 
Q 2725 213 2448 61 
Q 2172 -91 1784 -91 
Q 1150 -91 751 415 
Q 353 922 353 1747 
Q 353 2572 751 3078 
Q 1150 3584 1784 3584 
Q 2172 3584 2448 3432 
Q 2725 3281 2906 2969 
z
M 947 1747 
Q 947 1113 1208 752 
Q 1469 391 1925 391 
Q 2381 391 2643 752 
Q 2906 1113 2906 1747 
Q 2906 2381 2643 2742 
Q 2381 3103 1925 3103 
Q 1469 3103 1208 2742 
Q 947 2381 947 1747 
z
" transform="scale(0.015625)"/>
       <path id="DejaVuSans-67" d="M 2906 1791 
Q 2906 2416 2648 2759 
Q 2391 3103 1925 3103 
Q 1463 3103 1205 2759 
Q 947 2416 947 1791 
Q 947 1169 1205 825 
Q 1463 481 1925 481 
Q 2391 481 2648 825 
Q 2906 1169 2906 1791 
z
M 3481 434 
Q 3481 -459 3084 -895 
Q 2688 -1331 1869 -1331 
Q 1566 -1331 1297 -1286 
Q 1028 -1241 775 -1147 
L 775 -588 
Q 1028 -725 1275 -790 
Q 1522 -856 1778 -856 
Q 2344 -856 2625 -561 
Q 2906 -266 2906 331 
L 2906 616 
Q 2728 306 2450 153 
Q 2172 0 1784 0 
Q 1141 0 747 490 
Q 353 981 353 1791 
Q 353 2603 747 3093 
Q 1141 3584 1784 3584 
Q 2172 3584 2450 3431 
Q 2728 3278 2906 2969 
L 2906 3500 
L 3481 3500 
L 3481 434 
z
" transform="scale(0.015625)"/>
       <path id="DejaVuSans-72" d="M 2631 2963 
Q 2534 3019 2420 3045 
Q 2306 3072 2169 3072 
Q 1681 3072 1420 2755 
Q 1159 2438 1159 1844 
L 1159 0 
L 581 0 
L 581 3500 
L 1159 3500 
L 1159 2956 
Q 1341 3275 1631 3429 
Q 1922 3584 2338 3584 
Q 2397 3584 2469 3576 
Q 2541 3569 2628 3553 
L 2631 2963 
z
" transform="scale(0.015625)"/>
       <path id="DejaVuSans-73" d="M 2834 3397 
L 2834 2853 
Q 2591 2978 2328 3040 
Q 2066 3103 1784 3103 
Q 1356 3103 1142 2972 
Q 928 2841 928 2578 
Q 928 2378 1081 2264 
Q 1234 2150 1697 2047 
L 1894 2003 
Q 2506 1872 2764 1633 
Q 3022 1394 3022 966 
Q 3022 478 2636 193 
Q 2250 -91 1575 -91 
Q 1294 -91 989 -36 
Q 684 19 347 128 
L 347 722 
Q 666 556 975 473 
Q 1284 391 1588 391 
Q 1994 391 2212 530 
Q 2431 669 2431 922 
Q 2431 1156 2273 1281 
Q 2116 1406 1581 1522 
L 1381 1569 
Q 847 1681 609 1914 
Q 372 2147 372 2553 
Q 372 3047 722 3315 
Q 1072 3584 1716 3584 
Q 2034 3584 2315 3537 
Q 2597 3491 2834 3397 
z
" transform="scale(0.015625)"/>
       <path id="DejaVuSans-29" d="M 513 4856 
L 1013 4856 
Q 1481 4119 1714 3412 
Q 1947 2706 1947 2009 
Q 1947 1309 1714 600 
Q 1481 -109 1013 -844 
L 513 -844 
Q 928 -128 1133 580 
Q 1338 1288 1338 2009 
Q 1338 2731 1133 3434 
Q 928 4138 513 4856 
z
" transform="scale(0.015625)"/>
      </defs>
      <use xlink:href="#DejaVuSans-54"/>
      <use xlink:href="#DejaVuSans-77" x="44.583984"/>
      <use xlink:href="#DejaVuSans-6f" x="126.371094"/>
      <use xlink:href="#DejaVuSans-20" x="187.552734"/>
      <use xlink:href="#DejaVuSans-54" x="219.339844"/>
      <use xlink:href="#DejaVuSans-68" x="280.423828"/>
      <use xlink:href="#DejaVuSans-65" x="343.802734"/>
      <use xlink:href="#DejaVuSans-74" x="405.326172"/>
      <use xlink:href="#DejaVuSans-61" x="444.535156"/>
      <use xlink:href="#DejaVuSans-20" x="505.814453"/>
      <use xlink:href="#DejaVuSans-28" x="537.601562"/>
      <use xlink:href="#DejaVuSans-64" x="576.615234"/>
      <use xlink:href="#DejaVuSans-65" x="640.091797"/>
      <use xlink:href="#DejaVuSans-67" x="701.615234"/>
      <use xlink:href="#DejaVuSans-72" x="765.091797"/>
      <use xlink:href="#DejaVuSans-65" x="803.955078"/>
      <use xlink:href="#DejaVuSans-65" x="865.478516"/>
      <use xlink:href="#DejaVuSans-73" x="927.001953"/>
      <use xlink:href="#DejaVuSans-29" x="979.101562"/>
     </g>
    </g>
   </g>
   <g id="matplotlib.axis_2">
    <g id="ytick_1">
     <g id="line2d_26"/>
    </g>
    <g id="ytick_2">
     <g id="line2d_27"/>
    </g>
    <g id="ytick_3">
     <g id="line2d_28"/>
    </g>
    <g id="ytick_4">
     <g id="line2d_29"/>
    </g>
    <g id="text_5">
     <!-- Intensity -->
     <g transform="translate(14.038594 94.73625)rotate(-90)scale(0.09 -0.09)">
      <defs>
       <path id="DejaVuSans-49" d="M 628 4666 
L 1259 4666 
L 1259 0 
L 628 0 
L 628 4666 
z
" transform="scale(0.015625)"/>
       <path id="DejaVuSans-6e" d="M 3513 2113 
L 3513 0 
L 2938 0 
L 2938 2094 
Q 2938 2591 2744 2837 
Q 2550 3084 2163 3084 
Q 1697 3084 1428 2787 
Q 1159 2491 1159 1978 
L 1159 0 
L 581 0 
L 581 3500 
L 1159 3500 
L 1159 2956 
Q 1366 3272 1645 3428 
Q 1925 3584 2291 3584 
Q 2894 3584 3203 3211 
Q 3513 2838 3513 2113 
z
" transform="scale(0.015625)"/>
       <path id="DejaVuSans-69" d="M 603 3500 
L 1178 3500 
L 1178 0 
L 603 0 
L 603 3500 
z
M 603 4863 
L 1178 4863 
L 1178 4134 
L 603 4134 
L 603 4863 
z
" transform="scale(0.015625)"/>
       <path id="DejaVuSans-79" d="M 2059 -325 
Q 1816 -950 1584 -1140 
Q 1353 -1331 966 -1331 
L 506 -1331 
L 506 -850 
L 844 -850 
Q 1081 -850 1212 -737 
Q 1344 -625 1503 -206 
L 1606 56 
L 191 3500 
L 800 3500 
L 1894 763 
L 2988 3500 
L 3597 3500 
L 2059 -325 
z
" transform="scale(0.015625)"/>
      </defs>
      <use xlink:href="#DejaVuSans-49"/>
      <use xlink:href="#DejaVuSans-6e" x="29.492188"/>
      <use xlink:href="#DejaVuSans-74" x="92.871094"/>
      <use xlink:href="#DejaVuSans-65" x="132.080078"/>
      <use xlink:href="#DejaVuSans-6e" x="193.603516"/>
      <use xlink:href="#DejaVuSans-73" x="256.982422"/>
      <use xlink:href="#DejaVuSans-69" x="309.082031"/>
      <use xlink:href="#DejaVuSans-74" x="336.865234"/>
      <use xlink:href="#DejaVuSans-79" x="376.074219"/>
     </g>
    </g>
   </g>
   <g id="line2d_30">
    <path d="M 23.428285 40.802796 
L 23.489341 38.484687 
L 23.550397 41.814929 
L 23.611453 39.986561 
L 23.916732 47.626528 
L 23.977788 39.660066 
L 24.038844 47.561229 
L 24.099899 45.079872 
L 24.160955 45.308418 
L 24.283067 49.193701 
L 24.344123 48.63866 
L 24.405178 46.875591 
L 24.466234 48.703959 
L 24.52729 47.920373 
L 24.588346 47.887723 
L 24.710458 50.793523 
L 24.771513 48.867206 
L 24.832569 52.458644 
L 24.893625 47.397982 
L 24.954681 53.503426 
L 25.015737 52.71984 
L 25.076792 50.826172 
L 25.137848 51.675058 
L 25.321016 54.678805 
L 25.443127 49.618143 
L 25.626295 55.56034 
L 25.687351 55.59299 
L 25.748406 53.013684 
L 25.809462 55.723587 
L 25.870518 52.458644 
L 25.931574 55.625639 
L 25.99263 53.013684 
L 26.114741 57.682553 
L 26.358964 51.707707 
L 26.542132 57.87845 
L 26.725299 54.580857 
L 26.786355 55.723587 
L 26.847411 55.690938 
L 26.908467 54.711455 
L 26.969523 55.854185 
L 27.030578 60.16391 
L 27.091634 59.935364 
L 27.15269 58.172295 
L 27.213746 61.143393 
L 27.335858 55.168547 
L 27.519025 58.629387 
L 27.580081 57.225461 
L 27.641137 57.649904 
L 27.702192 57.715203 
L 27.824304 59.510922 
L 27.88536 62.612618 
L 27.946416 55.495041 
L 28.007471 57.421358 
L 28.068527 61.143393 
L 28.129583 57.715203 
L 28.190639 59.315025 
L 28.251695 59.445623 
L 28.373806 61.208692 
L 28.434862 60.849548 
L 28.495918 59.412973 
L 28.556974 60.523054 
L 28.61803 59.282376 
L 28.679085 61.143393 
L 28.740141 60.7516 
L 28.801197 60.261859 
L 28.862253 63.690049 
L 28.923309 56.964266 
L 28.984365 63.167658 
L 29.04542 58.564088 
L 29.167532 62.841164 
L 29.228588 61.567836 
L 29.289644 63.200308 
L 29.350699 62.220825 
L 29.472811 59.315025 
L 29.533867 62.939112 
L 29.594923 61.829031 
L 29.655978 62.253474 
L 29.717034 61.92698 
L 29.839146 64.310388 
L 29.961258 64.049193 
L 30.022313 67.379435 
L 30.144425 59.380324 
L 30.266537 65.38782 
L 30.327592 64.245089 
L 30.388648 68.979257 
L 30.51076 62.057577 
L 30.754983 66.661147 
L 30.877095 63.820647 
L 30.938151 67.314136 
L 30.999206 63.135009 
L 31.060262 67.967125 
L 31.121318 66.073458 
L 31.182374 64.245089 
L 31.24343 68.163021 
L 31.304485 65.844912 
L 31.365541 66.302004 
L 31.426597 69.795493 
L 31.548709 66.661147 
L 31.67082 69.011907 
L 31.731876 66.595849 
L 31.792932 67.08559 
L 31.853988 68.358918 
L 31.915044 64.963377 
L 32.098211 69.534298 
L 32.281378 65.061325 
L 32.464546 70.154637 
L 32.586658 66.269354 
L 32.708769 68.718062 
L 32.769825 70.383183 
L 32.830881 67.412084 
L 32.891937 70.970873 
L 32.952992 68.195671 
L 33.075104 67.705929 
L 33.197216 71.950356 
L 33.319327 65.91021 
L 33.380383 68.587464 
L 33.502495 71.13412 
L 33.563551 67.183538 
L 33.685662 74.137868 
L 33.807774 67.510033 
L 33.86883 72.83189 
L 33.929885 70.840275 
L 33.990941 71.787108 
L 34.051997 70.742327 
L 34.113053 71.199419 
L 34.174109 75.933586 
L 34.235165 73.811373 
L 34.357276 69.893441 
L 34.418332 70.840275 
L 34.479388 71.297367 
L 34.540444 73.582827 
L 34.601499 73.484879 
L 34.662555 73.060436 
L 34.784667 74.431712 
L 34.845723 74.301115 
L 35.02889 72.701293 
L 35.151002 74.105218 
L 35.212058 73.713425 
L 35.334169 71.787108 
L 35.395225 75.73769 
L 35.456281 74.366414 
L 35.578392 73.876672 
L 35.639448 72.015654 
L 35.883672 76.749822 
L 35.944727 72.83189 
L 36.005783 75.215299 
L 36.188951 73.550178 
L 36.250006 74.333764 
L 36.311062 71.950356 
L 36.433174 74.921454 
L 36.49423 72.635994 
L 36.555286 75.73769 
L 36.616341 74.301115 
L 36.677397 74.431712 
L 36.738453 76.815121 
L 36.799509 72.83189 
L 36.860565 78.251696 
L 36.92162 73.97462 
L 36.982676 77.957851 
L 37.043732 75.182649 
L 37.226899 72.799241 
L 37.287955 78.088449 
L 37.349011 75.70504 
L 37.532179 73.484879 
L 37.65429 81.418691 
L 37.715346 76.88042 
L 37.776402 79.100581 
L 37.959569 75.607092 
L 38.020625 77.108966 
L 38.081681 75.182649 
L 38.264848 80.243312 
L 38.325904 80.700404 
L 38.448016 75.117351 
L 38.509072 81.026898 
L 38.570127 78.186397 
L 38.631183 81.059547 
L 38.692239 75.70504 
L 38.753295 77.272213 
L 38.814351 82.169628 
L 38.875406 79.035283 
L 39.058574 81.679887 
L 39.180686 80.275961 
L 39.241741 81.48399 
L 39.302797 76.782472 
L 39.363853 78.643489 
L 39.424909 80.863651 
L 39.485965 78.969984 
L 39.54702 80.112714 
L 39.669132 82.822617 
L 39.730188 81.190145 
L 39.791244 81.712536 
L 39.852299 82.594071 
L 39.974411 80.014766 
L 40.035467 82.202278 
L 40.157579 78.447593 
L 40.340746 83.540904 
L 40.401802 80.667754 
L 40.462858 81.647237 
L 40.584969 81.092197 
L 40.707081 81.973732 
L 40.768137 81.843134 
L 40.951304 80.961599 
L 41.01236 80.34126 
L 41.073416 83.279709 
L 41.134472 80.602455 
L 41.195527 81.549289 
L 41.256583 84.814232 
L 41.317639 80.700404 
L 41.378695 85.434571 
L 41.439751 82.757318 
L 41.500806 81.843134 
L 41.561862 82.300226 
L 41.622918 82.463473 
L 41.74503 79.263829 
L 41.867141 85.303974 
L 41.928197 80.112714 
L 41.989253 83.736801 
L 42.050309 84.455088 
L 42.111365 81.777835 
L 42.17242 82.430824 
L 42.233476 82.724668 
L 42.416644 84.030646 
L 42.4777 82.887916 
L 42.538755 83.410307 
L 42.660867 82.789967 
L 42.721923 80.504507 
L 42.782979 82.169628 
L 42.844034 82.398174 
L 43.027202 80.178013 
L 43.088258 80.961599 
L 43.149313 84.193893 
L 43.271425 80.831001 
L 43.332481 84.846882 
L 43.393537 84.095945 
L 43.454593 84.35714 
L 43.515648 81.288093 
L 43.576704 82.496122 
L 43.63776 82.692019 
L 43.698816 84.35714 
L 43.759872 81.679887 
L 43.820927 81.712536 
L 43.881983 82.594071 
L 43.943039 85.434571 
L 44.004095 82.65937 
L 44.065151 83.181761 
L 44.126206 83.247059 
L 44.187262 82.267576 
L 44.37043 85.53252 
L 44.431486 82.332875 
L 44.492541 84.814232 
L 44.553597 84.455088 
L 44.614653 80.733053 
L 44.675709 83.018513 
L 44.79782 85.108077 
L 44.858876 81.549289 
L 44.919932 87.197641 
L 44.980988 83.475605 
L 45.042044 84.193893 
L 45.1031 81.712536 
L 45.164155 83.508255 
L 45.225211 85.173376 
L 45.286267 82.62672 
L 45.347323 85.434571 
L 45.408379 83.442956 
L 45.469434 83.410307 
L 45.591546 81.614588 
L 45.652602 81.712536 
L 45.713658 81.614588 
L 45.774713 82.332875 
L 45.835769 85.238675 
L 45.957881 81.908433 
L 46.202104 84.618336 
L 46.26316 84.193893 
L 46.446327 80.635105 
L 46.507383 80.145363 
L 46.568439 80.667754 
L 46.690551 84.030646 
L 46.751607 80.112714 
L 46.812662 84.226542 
L 46.873718 82.463473 
L 46.99583 80.112714 
L 47.117941 85.630468 
L 47.178997 80.700404 
L 47.240053 83.018513 
L 47.42322 80.014766 
L 47.484276 81.418691 
L 47.545332 78.02315 
L 47.606388 81.679887 
L 47.667444 79.002633 
L 47.7285 79.002633 
L 47.850611 82.006381 
L 47.911667 79.949467 
L 47.972723 83.704151 
L 48.094834 80.373909 
L 48.15589 82.724668 
L 48.216946 78.121098 
L 48.278002 81.059547 
L 48.461169 77.859903 
L 48.583281 76.455977 
L 48.705393 79.427076 
L 48.766448 78.676139 
L 48.827504 75.933586 
L 48.88856 76.749822 
L 48.949616 76.096834 
L 49.010672 72.048304 
L 49.071727 72.407448 
L 49.132783 75.607092 
L 49.254895 70.774976 
L 49.499118 78.121098 
L 49.560174 74.954103 
L 49.62123 77.011018 
L 49.743341 80.406559 
L 49.865453 77.206914 
L 49.926509 78.088449 
L 49.987565 78.219047 
L 50.109676 76.815121 
L 50.231788 77.141615 
L 50.292844 76.847771 
L 50.3539 79.786219 
L 50.414955 78.349644 
L 50.476011 79.231179 
L 50.537067 75.052052 
L 50.598123 80.373909 
L 50.659179 77.533409 
L 50.720234 77.500759 
L 50.842346 79.622972 
L 51.025514 76.358029 
L 51.086569 76.358029 
L 51.147625 77.500759 
L 51.208681 75.313247 
L 51.269737 75.345897 
L 51.330793 75.770339 
L 51.391848 75.15 
L 51.452904 71.395315 
L 51.636072 76.29273 
L 51.758183 73.844023 
L 51.819239 75.70504 
L 51.880295 71.493264 
L 51.941351 72.929839 
L 52.063462 76.390678 
L 52.124518 71.525913 
L 52.185574 74.497011 
L 52.307686 72.407448 
L 52.368741 72.733942 
L 52.429797 72.309499 
L 52.551909 67.118239 
L 52.735076 73.811373 
L 52.857188 71.983005 
L 52.918244 72.766591 
L 52.9793 69.4037 
L 53.040355 71.264717 
L 53.284579 68.293619 
L 53.345634 69.926091 
L 53.467746 68.326268 
L 53.650914 70.089338 
L 53.834081 62.906463 
L 53.895137 63.03706 
L 54.017248 67.803878 
L 54.078304 63.135009 
L 54.13936 66.824395 
L 54.322528 62.612618 
L 54.383583 64.114492 
L 54.505695 68.750711 
L 54.627807 63.461503 
L 54.688862 63.428854 
L 54.749918 65.975509 
L 54.810974 60.131261 
L 54.87203 64.310388 
L 54.933086 64.016543 
L 54.994141 66.889693 
L 55.116253 59.837416 
L 55.177309 63.396204 
L 55.238365 62.155526 
L 55.299421 63.820647 
L 55.421532 59.772117 
L 55.482588 61.437238 
L 55.543644 60.359807 
L 55.665755 61.012796 
L 55.726811 58.531439 
L 55.787867 60.261859 
L 55.848923 61.208692 
L 55.909979 57.225461 
L 55.971035 58.988531 
L 56.03209 58.662036 
L 56.093146 56.050082 
L 56.154202 60.131261 
L 56.215258 56.311277 
L 56.276314 57.160162 
L 56.337369 58.596737 
L 56.398425 57.715203 
L 56.520537 51.446512 
L 56.642648 57.356059 
L 56.703704 56.213329 
L 56.76476 58.400841 
L 56.825816 52.850437 
L 56.886872 54.319662 
L 56.947928 54.776754 
L 57.070039 53.405478 
L 57.131095 55.756237 
L 57.253207 50.238483 
L 57.436374 57.356059 
L 57.49743 54.515558 
L 57.680597 50.075235 
L 57.741653 50.760874 
L 57.802709 46.90824 
L 57.863765 49.781391 
L 57.924821 47.430631 
L 57.985876 48.050971 
L 58.046932 48.377465 
L 58.169044 43.414751 
L 58.2301 48.63866 
L 58.413267 40.215107 
L 58.779602 25.000471 
L 58.962769 30.779421 
L 59.084881 31.758904 
L 59.39016 43.806544 
L 59.451216 39.660066 
L 59.512272 42.957659 
L 59.573328 43.382102 
L 59.634383 40.672199 
L 59.695439 41.912877 
L 59.939662 38.223491 
L 60.000718 39.46417 
L 60.061774 39.398871 
L 60.12283 39.627417 
L 60.183886 38.615284 
L 60.244942 39.137675 
L 60.305997 40.05186 
L 60.428109 35.448289 
L 60.550221 38.256141 
L 60.611276 36.068629 
L 60.672332 36.329824 
L 60.733388 37.14606 
L 60.8555 33.456674 
L 60.916555 33.489323 
L 60.977611 35.807433 
L 61.160779 25.62081 
L 61.221835 31.334461 
L 61.28289 27.579776 
L 61.466058 17.066659 
L 61.588169 17.262555 
L 61.649225 13.377273 
L 61.954504 27.775673 
L 62.01556 25.65346 
L 62.076616 30.518225 
L 62.137672 28.232765 
L 62.320839 30.583524 
L 62.381895 30.061133 
L 62.442951 28.983702 
L 62.626118 33.358726 
L 62.687174 29.865236 
L 62.74823 31.693605 
L 62.809286 32.999582 
L 62.870342 32.248645 
L 62.931397 32.118047 
L 62.992453 32.444542 
L 63.114565 30.583524 
L 63.175621 30.616173 
L 63.236676 30.746771 
L 63.297732 28.200115 
L 63.358788 32.248645 
L 63.419844 29.63669 
L 63.541955 34.795301 
L 63.603011 31.889501 
L 63.664067 32.248645 
L 63.786179 29.734639 
L 63.847235 32.999582 
L 63.90829 29.832587 
L 63.969346 31.36711 
L 64.030402 35.089146 
L 64.091458 29.66934 
L 64.152514 30.028484 
L 64.213569 31.660955 
L 64.274625 27.024736 
L 64.335681 29.66934 
L 64.396737 30.910018 
L 64.457793 28.49396 
L 64.518849 30.322328 
L 64.579904 29.571392 
L 64.64096 32.934283 
L 64.702016 25.555511 
L 64.763072 27.645075 
L 64.824128 27.808322 
L 64.946239 23.367999 
L 65.007295 25.718758 
L 65.068351 24.576028 
L 65.129407 24.967821 
L 65.37363 33.162829 
L 65.434686 31.073265 
L 65.495742 31.138564 
L 65.617853 31.824202 
L 65.739965 33.554622 
L 65.801021 32.118047 
L 66.1063 36.656318 
L 66.167356 36.493071 
L 66.228411 36.623669 
L 66.350523 33.260777 
L 66.411579 40.704848 
L 66.472635 32.738387 
L 66.53369 35.97068 
L 66.594746 36.721617 
L 66.655802 30.550874 
L 66.716858 34.8606 
L 66.838969 38.680583 
L 66.900025 35.219743 
L 66.961081 41.227239 
L 67.022137 38.778532 
L 67.083193 39.627417 
L 67.144249 34.142312 
L 67.205304 38.582635 
L 67.26636 40.345704 
L 67.388472 36.623669 
L 67.449528 36.656318 
L 67.632695 41.74963 
L 67.693751 37.472554 
L 67.754807 41.357837 
L 67.815863 40.6069 
L 67.876918 40.802796 
L 67.937974 42.435268 
L 67.99903 41.031342 
L 68.060086 41.096641 
L 68.121142 45.308418 
L 68.182197 42.206722 
L 68.243253 42.533216 
L 68.304309 45.112522 
L 68.426421 40.737498 
L 68.609588 48.018321 
L 68.670644 45.145171 
L 68.7317 46.124654 
L 68.792756 46.647045 
L 68.853811 48.442764 
L 68.914867 44.753378 
L 68.975923 49.422247 
L 69.098035 44.557481 
L 69.220146 49.291649 
L 69.281202 48.377465 
L 69.403314 49.389597 
L 69.464369 49.063103 
L 69.525425 47.169436 
L 69.586481 49.781391 
L 69.647537 48.377465 
L 69.708593 48.116269 
L 69.769649 47.038838 
L 69.89176 52.328046 
L 69.952816 50.107885 
L 70.013872 52.066851 
L 70.074928 48.965155 
L 70.135983 49.552845 
L 70.197039 48.67131 
L 70.258095 53.601374 
L 70.319151 52.164799 
L 70.380207 48.63866 
L 70.563374 54.058466 
L 70.685486 48.344815 
L 70.746542 53.27488 
L 70.807597 52.034201 
L 70.868653 52.164799 
L 70.929709 56.082731 
L 70.990765 55.429742 
L 71.112876 54.646156 
L 71.173932 55.984783 
L 71.234988 54.482909 
L 71.296044 58.46614 
L 71.3571 55.788886 
L 71.418156 57.029565 
L 71.479211 53.209581 
L 71.540267 53.895219 
L 71.967658 62.351422 
L 72.028714 62.710566 
L 72.08977 65.616366 
L 72.272937 59.315025 
L 72.51716 65.714314 
L 72.700328 63.232957 
L 72.761383 66.4979 
L 72.822439 62.775865 
L 72.883495 67.771228 
L 72.944551 63.102359 
L 73.005607 64.114492 
L 73.066663 63.6574 
L 73.188774 66.4979 
L 73.310886 64.081842 
L 73.371942 68.065073 
L 73.432997 65.746963 
L 73.494053 65.420469 
L 73.555109 70.317884 
L 73.616165 66.138756 
L 73.677221 66.628498 
L 73.799332 70.579079 
L 73.860388 68.783361 
L 73.921444 67.510033 
L 74.104611 71.623861 
L 74.165667 69.697545 
L 74.226723 73.158385 
L 74.287779 70.383183 
L 74.40989 72.86454 
L 74.470946 72.668643 
L 74.532002 70.219936 
L 74.593058 72.929839 
L 74.654114 70.187286 
L 74.71517 71.754459 
L 74.837281 75.280598 
L 75.020449 71.983005 
L 75.203616 78.284346 
L 75.264672 77.076317 
L 75.325728 74.072569 
L 75.386783 76.455977 
L 75.447839 77.859903 
L 75.508895 77.402811 
L 75.569951 76.096834 
L 75.631007 78.643489 
L 75.692063 77.990501 
L 75.753118 74.954103 
L 75.936286 79.557673 
L 76.058397 78.676139 
L 76.119453 78.153748 
L 76.180509 78.284346 
L 76.241565 79.590323 
L 76.302621 79.492375 
L 76.363677 78.774087 
L 76.424732 75.835638 
L 76.485788 80.178013 
L 76.546844 78.382294 
L 76.791067 83.410307 
L 76.852123 82.855266 
L 76.913179 79.655622 
L 76.974235 84.553037 
L 77.03529 81.777835 
L 77.096346 80.373909 
L 77.157402 84.650985 
L 77.218458 79.982116 
L 77.279514 81.581938 
L 77.34057 82.398174 
L 77.401625 82.202278 
L 77.462681 82.463473 
L 77.584793 83.867399 
L 77.645849 83.377657 
L 77.829016 84.553037 
L 77.890072 87.26294 
L 77.951128 83.345008 
L 78.012184 84.716284 
L 78.073239 83.638853 
L 78.134295 84.128594 
L 78.317463 85.989612 
L 78.378518 84.520387 
L 78.439574 88.37302 
L 78.50063 86.08756 
L 78.561686 85.075428 
L 78.683797 89.515751 
L 78.744853 87.393537 
L 78.805909 87.948578 
L 78.866965 90.13609 
L 78.928021 83.965347 
L 78.989077 91.605314 
L 79.050132 89.874894 
L 79.111188 86.6426 
L 79.172244 87.034394 
L 79.2333 87.850629 
L 79.294356 86.609951 
L 79.416467 89.483101 
L 79.477523 87.197641 
L 79.538579 92.42155 
L 79.599635 86.512003 
L 79.660691 88.503618 
L 79.721746 87.001744 
L 79.782802 87.785331 
L 79.843858 87.001744 
L 79.904914 88.568917 
L 79.96597 84.879531 
L 80.027025 85.434571 
L 80.088081 86.348756 
L 80.149137 86.08756 
L 80.210193 78.708788 
L 80.271249 82.267576 
L 80.759695 57.976398 
L 80.820751 61.110744 
L 80.881807 57.584605 
L 81.12603 70.252585 
L 81.187086 69.795493 
L 81.370253 81.614588 
L 81.431309 80.275961 
L 81.492365 81.48399 
L 81.736588 92.225653 
L 81.8587 87.426187 
L 81.980811 90.919676 
L 82.041867 87.393537 
L 82.102923 90.495234 
L 82.163979 85.924313 
L 82.225035 88.209773 
L 82.286091 86.022261 
L 82.347146 89.189256 
L 82.408202 87.785331 
L 82.469258 88.764814 
L 82.530314 88.503618 
L 82.59137 87.589434 
L 82.652425 88.079175 
L 82.774537 89.385153 
L 82.835593 88.307722 
L 83.01876 95.555896 
L 83.079816 93.825476 
L 83.140872 95.164102 
L 83.201928 96.43743 
L 83.262984 96.045637 
L 83.385095 96.927172 
L 83.446151 95.588545 
L 83.507207 98.494345 
L 83.568263 96.959821 
L 83.629318 96.959821 
L 83.812486 100.943052 
L 83.873542 97.547511 
L 83.934598 98.984086 
L 83.995653 101.922535 
L 84.056709 101.367495 
L 84.239877 100.681857 
L 84.300932 103.522357 
L 84.361988 101.726638 
L 84.423044 103.881501 
L 84.4841 103.293811 
L 84.606211 103.750903 
L 84.728323 102.967317 
L 84.789379 103.032616 
L 84.850435 103.750903 
L 84.911491 100.747155 
L 85.094658 105.350726 
L 85.155714 105.481323 
L 85.21677 104.044748 
L 85.277825 106.81995 
L 85.338881 101.726638 
L 85.399937 102.80407 
L 85.460993 104.860984 
L 85.583105 102.640823 
L 85.64416 105.383375 
L 85.705216 104.828335 
L 85.766272 104.53449 
L 85.827328 104.893633 
L 85.888384 106.526105 
L 86.010495 104.338593 
L 86.193663 107.96268 
L 86.254718 106.23226 
L 86.315774 107.505588 
L 86.37683 106.23226 
L 86.437886 107.832082 
L 86.498942 106.885249 
L 86.559998 107.440289 
L 86.621053 106.23226 
L 86.682109 108.974813 
L 86.743165 106.624053 
L 86.804221 107.440289 
L 86.865277 109.13806 
L 86.926332 108.027979 
L 86.987388 108.942163 
L 87.048444 108.615669 
L 87.1095 108.419772 
L 87.231612 102.80407 
L 87.292667 109.72575 
L 87.353723 108.942163 
L 87.414779 107.99533 
L 87.475835 108.583019 
L 87.536891 107.96268 
L 87.720058 112.01121 
L 87.84217 109.10541 
L 87.964281 111.129675 
L 88.086393 109.888997 
L 88.147449 112.043859 
L 88.208505 109.660451 
L 88.330616 113.447785 
L 88.452728 110.24814 
L 88.513784 113.023342 
L 88.574839 110.999077 
L 88.635895 111.358221 
L 88.696951 113.284538 
L 88.758007 110.737882 
L 88.819063 112.664199 
L 88.941174 110.639934 
L 89.00223 113.806929 
L 89.063286 113.219239 
L 89.124342 114.035475 
L 89.185398 112.370354 
L 89.246453 115.831194 
L 89.429621 111.162325 
L 89.551732 111.945911 
L 89.612788 113.970176 
L 89.7349 111.097026 
L 89.918067 114.623165 
L 89.979123 112.762147 
L 90.040179 114.035475 
L 90.101235 112.631549 
L 90.162291 113.317187 
L 90.223346 115.896492 
L 90.284402 113.055992 
L 90.345458 113.74163 
L 90.528625 115.700596 
L 90.650737 114.819061 
L 90.772849 115.243504 
L 90.956016 113.513084 
L 91.078128 114.721113 
L 91.139184 112.500951 
L 91.261295 114.982308 
L 91.322351 114.851711 
L 91.383407 115.210854 
L 91.444463 117.333067 
L 91.505519 116.516832 
L 91.566574 114.264021 
L 91.62763 115.014958 
L 91.688686 116.712728 
L 91.810798 114.88436 
L 91.871853 116.288286 
L 91.932909 113.643682 
L 91.993965 115.602648 
L 92.055021 116.288286 
L 92.116077 118.377849 
L 92.299244 115.080257 
L 92.482412 118.671694 
L 92.604523 115.798544 
L 92.787691 117.79016 
L 92.909802 117.561613 
L 92.970858 114.753762 
L 93.031914 116.680079 
L 93.09297 117.626912 
L 93.154026 114.721113 
L 93.276137 119.324683 
L 93.337193 117.20247 
L 93.398249 117.822809 
L 93.459305 117.920757 
L 93.52036 116.092389 
L 93.642472 118.149303 
L 93.703528 115.47205 
L 93.764584 115.994441 
L 93.825639 115.994441 
L 94.008807 114.231371 
L 94.069863 115.961791 
L 94.130919 113.480434 
L 94.191974 115.602648 
L 94.25303 114.786412 
L 94.314086 115.112906 
L 94.375142 114.361969 
L 94.619365 116.680079 
L 94.680421 115.276153 
L 94.741477 116.451533 
L 94.802532 115.406751 
L 94.863588 116.255636 
L 94.924644 116.288286 
L 94.9857 115.961791 
L 95.046756 118.214602 
L 95.107812 116.712728 
L 95.474146 119.259384 
L 95.535202 121.479545 
L 95.596258 118.802292 
L 95.657314 119.912373 
L 95.71837 120.206218 
L 95.779426 118.769643 
L 95.901537 121.087752 
L 95.962593 120.140919 
L 96.023649 121.153051 
L 96.084705 120.924505 
L 96.14576 121.120402 
L 96.267872 119.716476 
L 96.389984 123.373213 
L 96.451039 122.197833 
L 96.573151 120.434764 
L 96.634207 123.144667 
L 96.695263 121.087752 
L 96.87843 123.112017 
L 96.939486 119.324683 
L 97.000542 121.871339 
L 97.061598 121.903988 
L 97.122653 122.067235 
L 97.183709 121.185701 
L 97.244765 123.112017 
L 97.305821 122.720224 
L 97.427933 120.173568 
L 97.488988 122.39373 
L 97.550044 122.36108 
L 97.6111 122.034586 
L 97.672156 123.601759 
L 97.733212 120.467413 
L 97.794267 122.94877 
L 97.855323 122.883471 
L 97.916379 121.479545 
L 98.038491 123.242615 
L 98.099546 122.916121 
L 98.160602 120.989804 
L 98.221658 124.842437 
L 98.282714 121.316298 
L 98.34377 122.785523 
L 98.404826 124.058851 
L 98.465881 120.010321 
L 98.526937 121.871339 
L 98.587993 125.397477 
L 98.649049 123.53646 
L 98.710105 123.928253 
L 98.77116 123.667057 
L 98.832216 123.960902 
L 99.015384 121.642793 
L 99.198551 125.495426 
L 99.259607 121.414247 
L 99.320663 123.438511 
L 99.381719 123.340563 
L 99.442774 122.622276 
L 99.50383 122.752873 
L 99.625942 125.658673 
L 99.686998 122.197833 
L 99.748053 124.352696 
L 99.809109 125.364828 
L 99.870165 125.070983 
L 99.992277 124.483293 
L 100.053333 124.907736 
L 100.114388 126.148414 
L 100.2365 122.916121 
L 100.419667 125.854569 
L 100.602835 124.64654 
L 100.663891 125.168931 
L 100.724946 123.405862 
L 100.786002 125.854569 
L 100.847058 125.299529 
L 100.908114 124.385345 
L 100.96917 125.854569 
L 101.030226 124.777138 
L 101.091281 125.168931 
L 101.213393 122.94877 
L 101.274449 126.932001 
L 101.335505 125.789271 
L 101.39656 126.736104 
L 101.457616 124.842437 
L 101.518672 125.070983 
L 101.579728 127.160547 
L 101.640784 124.744489 
L 101.70184 126.507558 
L 101.823951 125.103633 
L 101.946063 128.793018 
L 102.007119 126.37696 
L 102.068174 128.662421 
L 102.12923 127.617639 
L 102.190286 126.866702 
L 102.373453 128.10738 
L 102.434509 126.572857 
L 102.617677 129.543955 
L 102.739788 126.932001 
L 102.800844 126.9973 
L 102.922956 127.944133 
L 102.984012 127.682938 
L 103.045067 126.866702 
L 103.106123 127.356443 
L 103.167179 127.160547 
L 103.289291 128.69507 
L 103.350347 127.127897 
L 103.411402 128.793018 
L 103.472458 127.878834 
L 103.533514 128.401225 
L 103.59457 128.205329 
L 103.716681 127.389093 
L 103.838793 130.098996 
L 104.02196 127.127897 
L 104.083016 128.825668 
L 104.144072 127.487041 
L 104.266184 128.303277 
L 104.32724 128.205329 
L 104.449351 126.605506 
L 104.510407 130.164295 
L 104.571463 129.021564 
L 104.693574 128.172679 
L 104.75463 129.707203 
L 104.815686 126.899351 
L 104.876742 130.294892 
L 104.937798 127.780886 
L 105.120965 129.674553 
L 105.182021 126.834052 
L 105.304133 129.348059 
L 105.365188 129.217461 
L 105.426244 129.87045 
L 105.548356 126.213713 
L 105.609412 127.682938 
L 105.670467 128.760369 
L 105.731523 127.193196 
L 105.792579 129.805151 
L 105.853635 127.944133 
L 105.914691 127.356443 
L 105.975747 129.903099 
L 106.036802 129.707203 
L 106.097858 128.074731 
L 106.158914 128.172679 
L 106.21997 128.499174 
L 106.281026 129.903099 
L 106.342081 128.890967 
L 106.586305 128.074731 
L 106.64736 130.229594 
L 106.708416 128.793018 
L 106.769472 128.433875 
L 106.891584 130.098996 
L 107.013695 129.315409 
L 107.074751 129.511306 
L 107.135807 130.229594 
L 107.196863 130.001047 
L 107.257919 129.413358 
L 107.563198 131.176427 
L 107.624254 127.617639 
L 107.685309 130.42549 
L 107.746365 129.903099 
L 107.807421 128.270628 
L 107.868477 129.576605 
L 108.051644 128.303277 
L 108.1127 128.564472 
L 108.173756 130.654036 
L 108.234812 129.250111 
L 108.295867 129.28276 
L 108.356923 129.152162 
L 108.417979 131.111128 
L 108.479035 127.454392 
L 108.540091 130.882582 
L 108.601147 130.229594 
L 108.662202 128.72772 
L 108.723258 130.327542 
L 108.784314 129.87045 
L 108.84537 128.988915 
L 108.906426 130.229594 
L 108.967481 129.021564 
L 109.028537 130.98053 
L 109.089593 128.433875 
L 109.150649 129.707203 
L 109.211705 131.666169 
L 109.272761 130.392841 
L 109.333816 130.327542 
L 109.394872 131.045829 
L 109.516984 129.739852 
L 109.639095 131.339674 
L 109.822263 128.009432 
L 109.944374 130.621387 
L 110.066486 129.739852 
L 110.188598 131.209076 
L 110.249654 130.392841 
L 110.432821 127.911484 
L 110.493877 130.392841 
L 110.554933 129.903099 
L 110.615988 128.825668 
L 110.677044 130.588737 
L 110.7381 128.956266 
L 110.799156 130.066346 
L 110.860212 129.805151 
L 110.921268 130.066346 
L 110.982323 128.793018 
L 111.043379 129.250111 
L 111.104435 129.054214 
L 111.165491 127.976783 
L 111.226547 128.10738 
L 111.348658 129.576605 
L 111.531826 127.160547 
L 111.592881 129.739852 
L 111.653937 129.119513 
L 111.714993 126.050466 
L 111.776049 128.368576 
L 111.837105 127.715587 
L 111.898161 125.495426 
L 111.959216 126.311662 
L 112.020272 126.050466 
L 112.081328 127.454392 
L 112.142384 126.37696 
L 112.20344 126.540208 
L 112.325551 128.531823 
L 112.386607 127.650288 
L 112.447663 130.131645 
L 112.508719 127.258495 
L 112.569774 127.944133 
L 112.63083 129.152162 
L 112.691886 128.368576 
L 112.875054 129.413358 
L 112.936109 129.28276 
L 112.997165 128.303277 
L 113.058221 128.988915 
L 113.119277 130.654036 
L 113.180333 128.433875 
L 113.241388 129.903099 
L 113.302444 129.641904 
L 113.3635 129.903099 
L 113.485612 127.911484 
L 113.546668 129.674553 
L 113.607723 127.127897 
L 113.668779 131.241726 
L 113.729835 130.229594 
L 113.851947 125.691322 
L 113.913002 129.609254 
L 113.974058 127.095248 
L 114.035114 128.890967 
L 114.157226 126.703455 
L 114.218281 129.152162 
L 114.279337 128.69507 
L 114.340393 128.531823 
L 114.401449 127.878834 
L 114.462505 128.858317 
L 114.523561 128.270628 
L 114.584616 128.69507 
L 114.645672 126.638156 
L 114.706728 127.127897 
L 114.82884 129.086863 
L 114.950951 127.911484 
L 115.073063 129.250111 
L 115.134119 128.923616 
L 115.195175 129.054214 
L 115.378342 130.849933 
L 115.439398 128.172679 
L 115.500454 128.956266 
L 115.622565 130.001047 
L 115.683621 129.674553 
L 115.805733 131.176427 
L 115.866788 130.098996 
L 115.927844 130.360191 
L 115.9889 131.796766 
L 116.111012 129.119513 
L 116.233123 130.229594 
L 116.294179 128.858317 
L 116.355235 130.490789 
L 116.416291 128.858317 
L 116.477347 129.935749 
L 116.538402 131.01318 
L 116.599458 128.69507 
L 116.660514 130.490789 
L 116.843682 128.662421 
L 116.965793 132.678301 
L 117.148961 128.303277 
L 117.332128 131.241726 
L 117.393184 131.274375 
L 117.45424 132.253858 
L 117.515295 129.413358 
L 117.576351 131.372324 
L 117.637407 130.556088 
L 117.698463 132.319157 
L 117.759519 132.253858 
L 117.820575 129.674553 
L 117.88163 131.241726 
L 117.942686 130.294892 
L 118.003742 131.731467 
L 118.064798 131.209076 
L 118.125854 131.927364 
L 118.309021 129.772501 
L 118.370077 131.666169 
L 118.431133 130.033697 
L 118.492188 134.114876 
L 118.553244 131.176427 
L 118.675356 130.45814 
L 118.858523 132.090611 
L 118.919579 131.209076 
L 118.980635 131.731467 
L 119.041691 131.56822 
L 119.102747 132.906847 
L 119.163802 131.307025 
L 119.224858 133.135393 
L 119.34697 128.499174 
L 119.408026 130.490789 
L 119.469082 131.437623 
L 119.530137 128.858317 
L 119.591193 133.592485 
L 119.652249 132.090611 
L 119.713305 128.923616 
L 119.774361 131.339674 
L 119.835416 132.057962 
L 119.896472 130.42549 
L 119.957528 131.045829 
L 120.018584 130.164295 
L 120.140695 131.960013 
L 120.201751 130.490789 
L 120.262807 131.894715 
L 120.323863 131.437623 
L 120.445975 130.164295 
L 120.50703 132.15591 
L 120.568086 131.796766 
L 120.690198 130.98053 
L 120.873365 133.168042 
L 121.178644 131.078479 
L 121.2397 132.515054 
L 121.300756 131.307025 
L 121.422868 132.776249 
L 121.483923 132.482404 
L 121.544979 130.784634 
L 121.606035 133.135393 
L 121.667091 131.470272 
L 121.728147 132.678301 
L 121.789202 130.001047 
L 121.850258 131.470272 
L 121.911314 132.417106 
L 121.97237 129.8378 
L 122.033426 132.972146 
L 122.094482 131.862065 
L 122.216593 132.123261 
L 122.338705 131.176427 
L 122.399761 131.796766 
L 122.521872 130.947881 
L 122.643984 132.874198 
L 122.70504 131.56822 
L 122.766096 131.731467 
L 122.888207 133.037445 
L 123.071375 130.947881 
L 123.254542 132.15591 
L 123.376654 132.090611 
L 123.437709 131.339674 
L 123.498765 132.939496 
L 123.559821 131.633519 
L 123.620877 130.42549 
L 123.804044 132.253858 
L 123.8651 131.731467 
L 123.926156 131.862065 
L 123.987212 133.559836 
L 124.048268 131.209076 
L 124.109323 132.351807 
L 124.170379 131.698818 
L 124.231435 133.625135 
L 124.414603 129.968398 
L 124.475658 133.29864 
L 124.536714 130.131645 
L 124.59777 130.784634 
L 124.658826 130.45814 
L 124.719882 131.992663 
L 124.780937 131.829416 
L 124.841993 129.935749 
L 124.903049 131.078479 
L 124.964105 131.56822 
L 125.086216 130.066346 
L 125.147272 130.523438 
L 125.208328 132.253858 
L 125.269384 130.621387 
L 125.33044 130.849933 
L 125.391496 130.849933 
L 125.452551 130.164295 
L 125.513607 131.078479 
L 125.574663 129.152162 
L 125.75783 133.984278 
L 125.879942 131.796766 
L 125.940998 133.494537 
L 126.002054 130.915232 
L 126.063109 132.874198 
L 126.307333 128.760369 
L 126.429444 133.657784 
L 126.4905 130.229594 
L 126.551556 131.078479 
L 126.673668 132.188559 
L 126.795779 129.935749 
L 126.978947 131.502921 
L 127.162114 131.894715 
L 127.22317 129.87045 
L 127.284226 130.686686 
L 127.467393 132.090611 
L 127.528449 130.98053 
L 127.650561 132.15591 
L 127.711616 131.078479 
L 127.772672 132.057962 
L 127.833728 131.209076 
L 127.894784 131.764117 
L 128.016896 133.625135 
L 128.077951 131.176427 
L 128.139007 132.808899 
L 128.200063 133.625135 
L 128.322175 131.209076 
L 128.38323 134.049577 
L 128.444286 132.841548 
L 128.505342 133.396589 
L 128.566398 130.523438 
L 128.749565 135.975894 
L 128.871677 133.004795 
L 129.054844 135.192307 
L 129.1159 133.102744 
L 129.176956 133.429238 
L 129.238012 133.853681 
L 129.421179 132.482404 
L 129.543291 133.527186 
L 129.726458 132.253858 
L 129.787514 133.723083 
L 129.84857 132.286508 
L 129.970682 133.788382 
L 130.031737 132.841548 
L 130.092793 135.518802 
L 130.153849 133.494537 
L 130.275961 135.257606 
L 130.337017 134.931112 
L 130.520184 133.29864 
L 130.58124 133.363939 
L 130.642296 135.845296 
L 130.825463 132.939496 
L 130.886519 133.33129 
L 130.947575 135.943244 
L 131.00863 133.755732 
L 131.069686 135.192307 
L 131.130742 133.723083 
L 131.191798 133.755732 
L 131.252854 135.812647 
L 131.31391 134.343422 
L 131.374965 135.61675 
L 131.558133 133.429238 
L 131.619189 136.008543 
L 131.680244 132.482404 
L 131.7413 134.767865 
L 131.802356 134.702566 
L 131.863412 134.082227 
L 131.924468 135.975894 
L 131.985523 133.070094 
L 132.046579 133.29864 
L 132.107635 133.461887 
L 132.168691 133.33129 
L 132.229747 135.322905 
L 132.351858 133.168042 
L 132.412914 136.139141 
L 132.47397 135.192307 
L 132.596082 132.874198 
L 132.718193 134.800514 
L 132.779249 133.559836 
L 132.840305 135.518802 
L 132.901361 134.833164 
L 133.084528 135.518802 
L 133.145584 133.233341 
L 133.20664 133.396589 
L 133.267696 134.898462 
L 133.328751 133.788382 
L 133.389807 133.755732 
L 133.450863 132.351807 
L 133.511919 134.114876 
L 133.572975 133.004795 
L 133.63403 132.384456 
L 133.695086 134.278123 
L 133.756142 134.180175 
L 133.817198 133.396589 
L 134.000365 134.898462 
L 134.122477 133.918979 
L 134.183533 136.17179 
L 134.244589 134.604618 
L 134.305644 135.910595 
L 134.427756 133.984278 
L 134.488812 134.343422 
L 134.549868 132.972146 
L 134.671979 135.159658 
L 134.733035 135.453503 
L 134.794091 132.71095 
L 134.855147 134.931112 
L 134.916203 133.88633 
L 134.977258 134.539319 
L 135.038314 135.257606 
L 135.09937 134.082227 
L 135.160426 135.747348 
L 135.221482 133.723083 
L 135.282537 135.845296 
L 135.343593 134.44137 
L 135.404649 134.767865 
L 135.526761 133.135393 
L 135.587817 136.367687 
L 135.648872 134.931112 
L 135.770984 133.363939 
L 135.83204 134.147525 
L 135.893096 134.082227 
L 135.954151 133.037445 
L 136.015207 133.559836 
L 136.076263 132.874198 
L 136.198375 134.539319 
L 136.259431 134.408721 
L 136.381542 133.88633 
L 136.442598 134.865813 
L 136.503654 133.853681 
L 136.625765 135.551451 
L 136.808933 132.71095 
L 136.931044 136.465635 
L 137.053156 133.168042 
L 137.114212 134.212824 
L 137.175268 132.939496 
L 137.236324 134.082227 
L 137.297379 132.319157 
L 137.419491 134.539319 
L 137.541603 132.71095 
L 137.602658 134.669916 
L 137.663714 134.180175 
L 137.72477 134.212824 
L 137.846882 132.841548 
L 137.907937 134.016928 
L 137.968993 133.494537 
L 138.030049 134.049577 
L 138.091105 133.853681 
L 138.152161 134.016928 
L 138.274272 133.461887 
L 138.335328 132.090611 
L 138.396384 134.669916 
L 138.45744 133.461887 
L 138.518496 133.494537 
L 138.640607 133.723083 
L 138.762719 132.449755 
L 138.823775 133.821031 
L 138.884831 133.690433 
L 139.006942 134.114876 
L 139.067998 134.082227 
L 139.129054 132.939496 
L 139.19011 133.200692 
L 139.251165 135.355554 
L 139.312221 132.613002 
L 139.373277 133.559836 
L 139.434333 133.625135 
L 139.495389 133.461887 
L 139.6175 135.127008 
L 139.678556 133.233341 
L 139.739612 134.767865 
L 139.861724 136.008543 
L 139.922779 134.865813 
L 139.983835 134.931112 
L 140.044891 134.800514 
L 140.167003 132.906847 
L 140.228058 133.004795 
L 140.411226 136.302388 
L 140.533338 133.559836 
L 140.594393 134.114876 
L 140.716505 136.073842 
L 140.899672 132.384456 
L 140.960728 134.114876 
L 141.021784 133.657784 
L 141.08284 134.082227 
L 141.143896 133.396589 
L 141.266007 136.237089 
L 141.327063 135.453503 
L 141.449175 133.592485 
L 141.510231 134.800514 
L 141.571286 133.037445 
L 141.632342 135.388204 
L 141.693398 134.147525 
L 141.754454 134.604618 
L 141.81551 134.408721 
L 141.876565 134.571968 
L 141.937621 136.922727 
L 142.059733 134.669916 
L 142.120789 135.779997 
L 142.2429 133.461887 
L 142.303956 134.604618 
L 142.365012 134.278123 
L 142.426068 133.004795 
L 142.548179 135.812647 
L 142.731347 132.71095 
L 142.914514 134.44137 
L 142.97557 133.821031 
L 143.036626 135.192307 
L 143.097682 133.690433 
L 143.158738 134.245474 
L 143.219793 134.47402 
L 143.280849 134.44137 
L 143.341905 133.396589 
L 143.402961 134.245474 
L 143.464017 134.767865 
L 143.525072 133.396589 
L 143.586128 134.278123 
L 143.830351 131.829416 
L 143.891407 136.302388 
L 143.952463 133.690433 
L 144.013519 134.376071 
L 144.074575 133.918979 
L 144.257742 134.865813 
L 144.318798 134.571968 
L 144.379854 132.449755 
L 144.44091 133.29864 
L 144.501965 133.527186 
L 144.563021 132.319157 
L 144.624077 133.168042 
L 144.746189 134.278123 
L 144.8683 132.547703 
L 145.051468 136.073842 
L 145.234635 132.906847 
L 145.356747 134.147525 
L 145.417803 132.351807 
L 145.539914 135.551451 
L 145.662026 132.906847 
L 145.784138 135.322905 
L 145.845193 133.592485 
L 145.906249 134.376071 
L 146.089417 135.224957 
L 146.150472 133.984278 
L 146.211528 134.245474 
L 146.272584 135.61675 
L 146.394696 133.33129 
L 146.516807 133.984278 
L 146.577863 133.853681 
L 146.761031 134.963761 
L 147.005254 132.221209 
L 147.06631 134.637267 
L 147.127365 133.396589 
L 147.188421 131.927364 
L 147.249477 133.037445 
L 147.310533 133.918979 
L 147.4937 132.090611 
L 147.615812 130.686686 
L 147.676868 131.927364 
L 147.737924 130.882582 
L 147.798979 132.482404 
L 147.921091 130.915232 
L 147.982147 131.307025 
L 148.043203 131.143778 
L 148.104259 130.131645 
L 148.287426 131.698818 
L 148.348482 130.45814 
L 148.409538 132.841548 
L 148.470593 132.515054 
L 148.653761 133.984278 
L 148.714817 133.592485 
L 148.775872 131.60087 
L 148.836928 132.613002 
L 148.95904 135.257606 
L 149.020096 133.33129 
L 149.081152 134.245474 
L 149.203263 132.515054 
L 149.264319 132.645652 
L 149.325375 133.494537 
L 149.386431 132.678301 
L 149.508542 136.106491 
L 149.569598 134.735215 
L 149.630654 133.690433 
L 149.69171 136.106491 
L 149.813821 133.984278 
L 149.874877 134.539319 
L 149.996989 132.972146 
L 150.1191 134.408721 
L 150.180156 132.057962 
L 150.363324 135.420853 
L 150.424379 133.200692 
L 150.485435 133.723083 
L 150.668603 132.841548 
L 150.790714 134.506669 
L 150.85177 133.363939 
L 151.034938 135.779997 
L 151.095993 133.984278 
L 151.157049 134.180175 
L 151.218105 133.984278 
L 151.279161 135.257606 
L 151.340217 134.539319 
L 151.462328 132.972146 
L 151.645496 136.20444 
L 151.706552 133.200692 
L 151.767607 134.245474 
L 151.828663 134.571968 
L 152.011831 133.102744 
L 152.133942 134.735215 
L 152.194998 132.972146 
L 152.256054 135.257606 
L 152.31711 134.735215 
L 152.378166 132.384456 
L 152.439221 133.070094 
L 152.561333 135.192307 
L 152.622389 134.506669 
L 152.683445 132.613002 
L 152.866612 135.322905 
L 153.049779 132.841548 
L 153.294003 134.767865 
L 153.416114 132.645652 
L 153.538226 134.571968 
L 153.721393 132.808899 
L 153.782449 133.951629 
L 153.843505 132.906847 
L 153.904561 135.388204 
L 153.965617 134.310773 
L 154.087728 133.690433 
L 154.148784 133.723083 
L 154.20984 134.049577 
L 154.331952 132.123261 
L 154.515119 135.649399 
L 154.637231 131.731467 
L 154.698286 134.245474 
L 154.759342 133.527186 
L 154.820398 132.515054 
L 154.881454 134.016928 
L 154.94251 133.88633 
L 155.003566 133.951629 
L 155.064621 132.613002 
L 155.125677 132.939496 
L 155.247789 134.114876 
L 155.492012 131.862065 
L 155.614124 135.584101 
L 155.675179 132.482404 
L 155.736235 133.559836 
L 155.797291 131.927364 
L 155.858347 132.808899 
L 155.980459 135.453503 
L 156.10257 131.894715 
L 156.163626 133.559836 
L 156.224682 135.224957 
L 156.285738 132.808899 
L 156.346793 134.735215 
L 156.407849 135.388204 
L 156.529961 133.135393 
L 156.591017 135.02906 
L 156.652073 132.188559 
L 156.713128 133.102744 
L 156.774184 133.102744 
L 156.83524 132.808899 
L 156.896296 133.821031 
L 156.957352 132.972146 
L 157.018407 134.147525 
L 157.079463 132.906847 
L 157.140519 134.180175 
L 157.201575 133.723083 
L 157.323686 132.7436 
L 157.445798 133.690433 
L 157.506854 132.482404 
L 157.690021 133.821031 
L 157.751077 132.188559 
L 157.812133 133.070094 
L 157.873189 133.135393 
L 157.934245 134.408721 
L 158.056356 131.437623 
L 158.239524 133.755732 
L 158.361635 130.947881 
L 158.422691 132.7436 
L 158.483747 132.384456 
L 158.544803 132.71095 
L 158.605859 132.057962 
L 158.72797 133.461887 
L 158.850082 131.698818 
L 158.911138 132.906847 
L 158.972193 130.42549 
L 159.033249 133.461887 
L 159.094305 132.025312 
L 159.216417 132.580353 
L 159.277473 131.176427 
L 159.338528 131.339674 
L 159.46064 134.212824 
L 159.521696 132.71095 
L 159.582752 134.180175 
L 159.765919 131.372324 
L 159.826975 134.082227 
L 159.888031 131.894715 
L 159.949087 132.025312 
L 160.010142 134.800514 
L 160.071198 130.588737 
L 160.132254 133.788382 
L 160.19331 135.159658 
L 160.254366 133.070094 
L 160.315421 134.506669 
L 160.376477 134.212824 
L 160.498589 132.025312 
L 160.742812 134.47402 
L 160.803868 133.102744 
L 160.864924 133.363939 
L 160.92598 133.29864 
L 160.987035 134.996411 
L 161.109147 132.580353 
L 161.292314 136.073842 
L 161.414426 133.004795 
L 161.475482 134.44137 
L 161.536538 133.494537 
L 161.597594 133.494537 
L 161.658649 135.02906 
L 161.719705 133.396589 
L 161.780761 133.788382 
L 161.841817 133.592485 
L 161.963928 134.376071 
L 162.024984 132.808899 
L 162.08604 133.853681 
L 162.147096 133.102744 
L 162.208152 135.192307 
L 162.269207 135.06171 
L 162.330263 133.233341 
L 162.391319 134.082227 
L 162.452375 133.88633 
L 162.513431 135.127008 
L 162.574487 134.571968 
L 162.635542 133.037445 
L 162.696598 135.649399 
L 162.757654 133.102744 
L 162.81871 133.657784 
L 162.879766 133.396589 
L 162.879766 133.396589 
" clip-path="url(#p5ab26f8176)" style="fill: none; stroke: #1f77b4; stroke-width: 0.5; stroke-linecap: square"/>
   </g>
   <g id="patch_3">
    <path d="M 23.410312 143.1 
L 23.410312 7.2 
" style="fill: none; stroke: #000000; stroke-width: 0.8; stroke-linejoin: miter; stroke-linecap: square"/>
   </g>
   <g id="patch_4">
    <path d="M 162.910313 143.1 
L 162.910313 7.2 
" style="fill: none; stroke: #000000; stroke-width: 0.8; stroke-linejoin: miter; stroke-linecap: square"/>
   </g>
   <g id="patch_5">
    <path d="M 23.410312 143.1 
L 162.910313 143.1 
" style="fill: none; stroke: #000000; stroke-width: 0.8; stroke-linejoin: miter; stroke-linecap: square"/>
   </g>
   <g id="patch_6">
    <path d="M 23.410312 7.2 
L 162.910313 7.2 
" style="fill: none; stroke: #000000; stroke-width: 0.8; stroke-linejoin: miter; stroke-linecap: square"/>
   </g>
  </g>
 </g>
 <defs>
  <clipPath id="p5ab26f8176">
   <rect x="23.410312" y="7.2" width="139.5" height="135.9"/>
  </clipPath>
 </defs>
</svg>
