<?xml version="1.0" encoding="utf-8" standalone="no"?>
<!DOCTYPE svg PUBLIC "-//W3C//DTD SVG 1.1//EN"
  "http://www.w3.org/Graphics/SVG/1.1/DTD/svg11.dtd">
<svg xmlns:xlink="http://www.w3.org/1999/xlink" width="170.110313pt" height="177.752813pt" viewBox="0 0 170.110313 177.752813" xmlns="http://www.w3.org/2000/svg" version="1.1">
 <metadata>
  <rdf:RDF xmlns:dc="http://purl.org/dc/elements/1.1/" xmlns:cc="http://creativecommons.org/ns#" xmlns:rdf="http://www.w3.org/1999/02/22-rdf-syntax-ns#">
   <cc:Work>
    <dc:type rdf:resource="http://purl.org/dc/dcmitype/StillImage"/>
    <dc:date>2023-02-25T15:21:29.025965</dc:date>
    <dc:format>image/svg+xml</dc:format>
    <dc:creator>
     <cc:Agent>
      <dc:title>Matplotlib v3.5.2, https://matplotlib.org/</dc:title>
     </cc:Agent>
    </dc:creator>
   </cc:Work>
  </rdf:RDF>
 </metadata>
 <defs>
  <style type="text/css">*{stroke-linejoin: round; stroke-linecap: butt}</style>
 </defs>
 <g id="figure_1">
  <g id="patch_1">
   <path d="M 0 177.752813 
L 170.110313 177.752813 
L 170.110313 0 
L 0 0 
z
" style="fill: #ffffff"/>
  </g>
  <g id="axes_1">
   <g id="patch_2">
    <path d="M 23.410312 143.1 
L 162.910313 143.1 
L 162.910313 7.2 
L 23.410312 7.2 
z
" style="fill: #ffffff"/>
   </g>
   <g id="matplotlib.axis_1">
    <g id="xtick_1">
     <g id="line2d_1">
      <defs>
       <path id="m9af6d3e356" d="M 0 0 
L 0 3.5 
" style="stroke: #000000; stroke-width: 0.8"/>
      </defs>
      <g>
       <use xlink:href="#m9af6d3e356" x="58.285313" y="143.1" style="stroke: #000000; stroke-width: 0.8"/>
      </g>
     </g>
     <g id="text_1">
      <!-- 20 -->
      <g transform="translate(53.195312 156.17875)scale(0.08 -0.08)">
       <defs>
        <path id="DejaVuSans-32" d="M 1228 531 
L 3431 531 
L 3431 0 
L 469 0 
L 469 531 
Q 828 903 1448 1529 
Q 2069 2156 2228 2338 
Q 2531 2678 2651 2914 
Q 2772 3150 2772 3378 
Q 2772 3750 2511 3984 
Q 2250 4219 1831 4219 
Q 1534 4219 1204 4116 
Q 875 4013 500 3803 
L 500 4441 
Q 881 4594 1212 4672 
Q 1544 4750 1819 4750 
Q 2544 4750 2975 4387 
Q 3406 4025 3406 3419 
Q 3406 3131 3298 2873 
Q 3191 2616 2906 2266 
Q 2828 2175 2409 1742 
Q 1991 1309 1228 531 
z
" transform="scale(0.015625)"/>
        <path id="DejaVuSans-30" d="M 2034 4250 
Q 1547 4250 1301 3770 
Q 1056 3291 1056 2328 
Q 1056 1369 1301 889 
Q 1547 409 2034 409 
Q 2525 409 2770 889 
Q 3016 1369 3016 2328 
Q 3016 3291 2770 3770 
Q 2525 4250 2034 4250 
z
M 2034 4750 
Q 2819 4750 3233 4129 
Q 3647 3509 3647 2328 
Q 3647 1150 3233 529 
Q 2819 -91 2034 -91 
Q 1250 -91 836 529 
Q 422 1150 422 2328 
Q 422 3509 836 4129 
Q 1250 4750 2034 4750 
z
" transform="scale(0.015625)"/>
       </defs>
       <use xlink:href="#DejaVuSans-32"/>
       <use xlink:href="#DejaVuSans-30" x="63.623047"/>
      </g>
     </g>
    </g>
    <g id="xtick_2">
     <g id="line2d_2">
      <g>
       <use xlink:href="#m9af6d3e356" x="104.785313" y="143.1" style="stroke: #000000; stroke-width: 0.8"/>
      </g>
     </g>
     <g id="text_2">
      <!-- 40 -->
      <g transform="translate(99.695312 156.17875)scale(0.08 -0.08)">
       <defs>
        <path id="DejaVuSans-34" d="M 2419 4116 
L 825 1625 
L 2419 1625 
L 2419 4116 
z
M 2253 4666 
L 3047 4666 
L 3047 1625 
L 3713 1625 
L 3713 1100 
L 3047 1100 
L 3047 0 
L 2419 0 
L 2419 1100 
L 313 1100 
L 313 1709 
L 2253 4666 
z
" transform="scale(0.015625)"/>
       </defs>
       <use xlink:href="#DejaVuSans-34"/>
       <use xlink:href="#DejaVuSans-30" x="63.623047"/>
      </g>
     </g>
    </g>
    <g id="xtick_3">
     <g id="line2d_3">
      <g>
       <use xlink:href="#m9af6d3e356" x="151.285313" y="143.1" style="stroke: #000000; stroke-width: 0.8"/>
      </g>
     </g>
     <g id="text_3">
      <!-- 60 -->
      <g transform="translate(146.195312 156.17875)scale(0.08 -0.08)">
       <defs>
        <path id="DejaVuSans-36" d="M 2113 2584 
Q 1688 2584 1439 2293 
Q 1191 2003 1191 1497 
Q 1191 994 1439 701 
Q 1688 409 2113 409 
Q 2538 409 2786 701 
Q 3034 994 3034 1497 
Q 3034 2003 2786 2293 
Q 2538 2584 2113 2584 
z
M 3366 4563 
L 3366 3988 
Q 3128 4100 2886 4159 
Q 2644 4219 2406 4219 
Q 1781 4219 1451 3797 
Q 1122 3375 1075 2522 
Q 1259 2794 1537 2939 
Q 1816 3084 2150 3084 
Q 2853 3084 3261 2657 
Q 3669 2231 3669 1497 
Q 3669 778 3244 343 
Q 2819 -91 2113 -91 
Q 1303 -91 875 529 
Q 447 1150 447 2328 
Q 447 3434 972 4092 
Q 1497 4750 2381 4750 
Q 2619 4750 2861 4703 
Q 3103 4656 3366 4563 
z
" transform="scale(0.015625)"/>
       </defs>
       <use xlink:href="#DejaVuSans-36"/>
       <use xlink:href="#DejaVuSans-30" x="63.623047"/>
      </g>
     </g>
    </g>
    <g id="xtick_4">
     <g id="line2d_4">
      <defs>
       <path id="me7117d8252" d="M 0 0 
L 0 2 
" style="stroke: #000000; stroke-width: 0.6"/>
      </defs>
      <g>
       <use xlink:href="#me7117d8252" x="23.410312" y="143.1" style="stroke: #000000; stroke-width: 0.6"/>
      </g>
     </g>
    </g>
    <g id="xtick_5">
     <g id="line2d_5">
      <g>
       <use xlink:href="#me7117d8252" x="29.222812" y="143.1" style="stroke: #000000; stroke-width: 0.6"/>
      </g>
     </g>
    </g>
    <g id="xtick_6">
     <g id="line2d_6">
      <g>
       <use xlink:href="#me7117d8252" x="35.035313" y="143.1" style="stroke: #000000; stroke-width: 0.6"/>
      </g>
     </g>
    </g>
    <g id="xtick_7">
     <g id="line2d_7">
      <g>
       <use xlink:href="#me7117d8252" x="40.847813" y="143.1" style="stroke: #000000; stroke-width: 0.6"/>
      </g>
     </g>
    </g>
    <g id="xtick_8">
     <g id="line2d_8">
      <g>
       <use xlink:href="#me7117d8252" x="46.660313" y="143.1" style="stroke: #000000; stroke-width: 0.6"/>
      </g>
     </g>
    </g>
    <g id="xtick_9">
     <g id="line2d_9">
      <g>
       <use xlink:href="#me7117d8252" x="52.472813" y="143.1" style="stroke: #000000; stroke-width: 0.6"/>
      </g>
     </g>
    </g>
    <g id="xtick_10">
     <g id="line2d_10">
      <g>
       <use xlink:href="#me7117d8252" x="64.097813" y="143.1" style="stroke: #000000; stroke-width: 0.6"/>
      </g>
     </g>
    </g>
    <g id="xtick_11">
     <g id="line2d_11">
      <g>
       <use xlink:href="#me7117d8252" x="69.910313" y="143.1" style="stroke: #000000; stroke-width: 0.6"/>
      </g>
     </g>
    </g>
    <g id="xtick_12">
     <g id="line2d_12">
      <g>
       <use xlink:href="#me7117d8252" x="75.722813" y="143.1" style="stroke: #000000; stroke-width: 0.6"/>
      </g>
     </g>
    </g>
    <g id="xtick_13">
     <g id="line2d_13">
      <g>
       <use xlink:href="#me7117d8252" x="81.535313" y="143.1" style="stroke: #000000; stroke-width: 0.6"/>
      </g>
     </g>
    </g>
    <g id="xtick_14">
     <g id="line2d_14">
      <g>
       <use xlink:href="#me7117d8252" x="87.347813" y="143.1" style="stroke: #000000; stroke-width: 0.6"/>
      </g>
     </g>
    </g>
    <g id="xtick_15">
     <g id="line2d_15">
      <g>
       <use xlink:href="#me7117d8252" x="93.160313" y="143.1" style="stroke: #000000; stroke-width: 0.6"/>
      </g>
     </g>
    </g>
    <g id="xtick_16">
     <g id="line2d_16">
      <g>
       <use xlink:href="#me7117d8252" x="98.972813" y="143.1" style="stroke: #000000; stroke-width: 0.6"/>
      </g>
     </g>
    </g>
    <g id="xtick_17">
     <g id="line2d_17">
      <g>
       <use xlink:href="#me7117d8252" x="110.597813" y="143.1" style="stroke: #000000; stroke-width: 0.6"/>
      </g>
     </g>
    </g>
    <g id="xtick_18">
     <g id="line2d_18">
      <g>
       <use xlink:href="#me7117d8252" x="116.410313" y="143.1" style="stroke: #000000; stroke-width: 0.6"/>
      </g>
     </g>
    </g>
    <g id="xtick_19">
     <g id="line2d_19">
      <g>
       <use xlink:href="#me7117d8252" x="122.222813" y="143.1" style="stroke: #000000; stroke-width: 0.6"/>
      </g>
     </g>
    </g>
    <g id="xtick_20">
     <g id="line2d_20">
      <g>
       <use xlink:href="#me7117d8252" x="128.035313" y="143.1" style="stroke: #000000; stroke-width: 0.6"/>
      </g>
     </g>
    </g>
    <g id="xtick_21">
     <g id="line2d_21">
      <g>
       <use xlink:href="#me7117d8252" x="133.847813" y="143.1" style="stroke: #000000; stroke-width: 0.6"/>
      </g>
     </g>
    </g>
    <g id="xtick_22">
     <g id="line2d_22">
      <g>
       <use xlink:href="#me7117d8252" x="139.660313" y="143.1" style="stroke: #000000; stroke-width: 0.6"/>
      </g>
     </g>
    </g>
    <g id="xtick_23">
     <g id="line2d_23">
      <g>
       <use xlink:href="#me7117d8252" x="145.472813" y="143.1" style="stroke: #000000; stroke-width: 0.6"/>
      </g>
     </g>
    </g>
    <g id="xtick_24">
     <g id="line2d_24">
      <g>
       <use xlink:href="#me7117d8252" x="157.097813" y="143.1" style="stroke: #000000; stroke-width: 0.6"/>
      </g>
     </g>
    </g>
    <g id="xtick_25">
     <g id="line2d_25">
      <g>
       <use xlink:href="#me7117d8252" x="162.910313" y="143.1" style="stroke: #000000; stroke-width: 0.6"/>
      </g>
     </g>
    </g>
    <g id="text_4">
     <!-- Two Theta (degrees) -->
     <g transform="translate(47.344688 168.681094)scale(0.09 -0.09)">
      <defs>
       <path id="DejaVuSans-54" d="M -19 4666 
L 3928 4666 
L 3928 4134 
L 2272 4134 
L 2272 0 
L 1638 0 
L 1638 4134 
L -19 4134 
L -19 4666 
z
" transform="scale(0.015625)"/>
       <path id="DejaVuSans-77" d="M 269 3500 
L 844 3500 
L 1563 769 
L 2278 3500 
L 2956 3500 
L 3675 769 
L 4391 3500 
L 4966 3500 
L 4050 0 
L 3372 0 
L 2619 2869 
L 1863 0 
L 1184 0 
L 269 3500 
z
" transform="scale(0.015625)"/>
       <path id="DejaVuSans-6f" d="M 1959 3097 
Q 1497 3097 1228 2736 
Q 959 2375 959 1747 
Q 959 1119 1226 758 
Q 1494 397 1959 397 
Q 2419 397 2687 759 
Q 2956 1122 2956 1747 
Q 2956 2369 2687 2733 
Q 2419 3097 1959 3097 
z
M 1959 3584 
Q 2709 3584 3137 3096 
Q 3566 2609 3566 1747 
Q 3566 888 3137 398 
Q 2709 -91 1959 -91 
Q 1206 -91 779 398 
Q 353 888 353 1747 
Q 353 2609 779 3096 
Q 1206 3584 1959 3584 
z
" transform="scale(0.015625)"/>
       <path id="DejaVuSans-20" transform="scale(0.015625)"/>
       <path id="DejaVuSans-68" d="M 3513 2113 
L 3513 0 
L 2938 0 
L 2938 2094 
Q 2938 2591 2744 2837 
Q 2550 3084 2163 3084 
Q 1697 3084 1428 2787 
Q 1159 2491 1159 1978 
L 1159 0 
L 581 0 
L 581 4863 
L 1159 4863 
L 1159 2956 
Q 1366 3272 1645 3428 
Q 1925 3584 2291 3584 
Q 2894 3584 3203 3211 
Q 3513 2838 3513 2113 
z
" transform="scale(0.015625)"/>
       <path id="DejaVuSans-65" d="M 3597 1894 
L 3597 1613 
L 953 1613 
Q 991 1019 1311 708 
Q 1631 397 2203 397 
Q 2534 397 2845 478 
Q 3156 559 3463 722 
L 3463 178 
Q 3153 47 2828 -22 
Q 2503 -91 2169 -91 
Q 1331 -91 842 396 
Q 353 884 353 1716 
Q 353 2575 817 3079 
Q 1281 3584 2069 3584 
Q 2775 3584 3186 3129 
Q 3597 2675 3597 1894 
z
M 3022 2063 
Q 3016 2534 2758 2815 
Q 2500 3097 2075 3097 
Q 1594 3097 1305 2825 
Q 1016 2553 972 2059 
L 3022 2063 
z
" transform="scale(0.015625)"/>
       <path id="DejaVuSans-74" d="M 1172 4494 
L 1172 3500 
L 2356 3500 
L 2356 3053 
L 1172 3053 
L 1172 1153 
Q 1172 725 1289 603 
Q 1406 481 1766 481 
L 2356 481 
L 2356 0 
L 1766 0 
Q 1100 0 847 248 
Q 594 497 594 1153 
L 594 3053 
L 172 3053 
L 172 3500 
L 594 3500 
L 594 4494 
L 1172 4494 
z
" transform="scale(0.015625)"/>
       <path id="DejaVuSans-61" d="M 2194 1759 
Q 1497 1759 1228 1600 
Q 959 1441 959 1056 
Q 959 750 1161 570 
Q 1363 391 1709 391 
Q 2188 391 2477 730 
Q 2766 1069 2766 1631 
L 2766 1759 
L 2194 1759 
z
M 3341 1997 
L 3341 0 
L 2766 0 
L 2766 531 
Q 2569 213 2275 61 
Q 1981 -91 1556 -91 
Q 1019 -91 701 211 
Q 384 513 384 1019 
Q 384 1609 779 1909 
Q 1175 2209 1959 2209 
L 2766 2209 
L 2766 2266 
Q 2766 2663 2505 2880 
Q 2244 3097 1772 3097 
Q 1472 3097 1187 3025 
Q 903 2953 641 2809 
L 641 3341 
Q 956 3463 1253 3523 
Q 1550 3584 1831 3584 
Q 2591 3584 2966 3190 
Q 3341 2797 3341 1997 
z
" transform="scale(0.015625)"/>
       <path id="DejaVuSans-28" d="M 1984 4856 
Q 1566 4138 1362 3434 
Q 1159 2731 1159 2009 
Q 1159 1288 1364 580 
Q 1569 -128 1984 -844 
L 1484 -844 
Q 1016 -109 783 600 
Q 550 1309 550 2009 
Q 550 2706 781 3412 
Q 1013 4119 1484 4856 
L 1984 4856 
z
" transform="scale(0.015625)"/>
       <path id="DejaVuSans-64" d="M 2906 2969 
L 2906 4863 
L 3481 4863 
L 3481 0 
L 2906 0 
L 2906 525 
Q 2725 213 2448 61 
Q 2172 -91 1784 -91 
Q 1150 -91 751 415 
Q 353 922 353 1747 
Q 353 2572 751 3078 
Q 1150 3584 1784 3584 
Q 2172 3584 2448 3432 
Q 2725 3281 2906 2969 
z
M 947 1747 
Q 947 1113 1208 752 
Q 1469 391 1925 391 
Q 2381 391 2643 752 
Q 2906 1113 2906 1747 
Q 2906 2381 2643 2742 
Q 2381 3103 1925 3103 
Q 1469 3103 1208 2742 
Q 947 2381 947 1747 
z
" transform="scale(0.015625)"/>
       <path id="DejaVuSans-67" d="M 2906 1791 
Q 2906 2416 2648 2759 
Q 2391 3103 1925 3103 
Q 1463 3103 1205 2759 
Q 947 2416 947 1791 
Q 947 1169 1205 825 
Q 1463 481 1925 481 
Q 2391 481 2648 825 
Q 2906 1169 2906 1791 
z
M 3481 434 
Q 3481 -459 3084 -895 
Q 2688 -1331 1869 -1331 
Q 1566 -1331 1297 -1286 
Q 1028 -1241 775 -1147 
L 775 -588 
Q 1028 -725 1275 -790 
Q 1522 -856 1778 -856 
Q 2344 -856 2625 -561 
Q 2906 -266 2906 331 
L 2906 616 
Q 2728 306 2450 153 
Q 2172 0 1784 0 
Q 1141 0 747 490 
Q 353 981 353 1791 
Q 353 2603 747 3093 
Q 1141 3584 1784 3584 
Q 2172 3584 2450 3431 
Q 2728 3278 2906 2969 
L 2906 3500 
L 3481 3500 
L 3481 434 
z
" transform="scale(0.015625)"/>
       <path id="DejaVuSans-72" d="M 2631 2963 
Q 2534 3019 2420 3045 
Q 2306 3072 2169 3072 
Q 1681 3072 1420 2755 
Q 1159 2438 1159 1844 
L 1159 0 
L 581 0 
L 581 3500 
L 1159 3500 
L 1159 2956 
Q 1341 3275 1631 3429 
Q 1922 3584 2338 3584 
Q 2397 3584 2469 3576 
Q 2541 3569 2628 3553 
L 2631 2963 
z
" transform="scale(0.015625)"/>
       <path id="DejaVuSans-73" d="M 2834 3397 
L 2834 2853 
Q 2591 2978 2328 3040 
Q 2066 3103 1784 3103 
Q 1356 3103 1142 2972 
Q 928 2841 928 2578 
Q 928 2378 1081 2264 
Q 1234 2150 1697 2047 
L 1894 2003 
Q 2506 1872 2764 1633 
Q 3022 1394 3022 966 
Q 3022 478 2636 193 
Q 2250 -91 1575 -91 
Q 1294 -91 989 -36 
Q 684 19 347 128 
L 347 722 
Q 666 556 975 473 
Q 1284 391 1588 391 
Q 1994 391 2212 530 
Q 2431 669 2431 922 
Q 2431 1156 2273 1281 
Q 2116 1406 1581 1522 
L 1381 1569 
Q 847 1681 609 1914 
Q 372 2147 372 2553 
Q 372 3047 722 3315 
Q 1072 3584 1716 3584 
Q 2034 3584 2315 3537 
Q 2597 3491 2834 3397 
z
" transform="scale(0.015625)"/>
       <path id="DejaVuSans-29" d="M 513 4856 
L 1013 4856 
Q 1481 4119 1714 3412 
Q 1947 2706 1947 2009 
Q 1947 1309 1714 600 
Q 1481 -109 1013 -844 
L 513 -844 
Q 928 -128 1133 580 
Q 1338 1288 1338 2009 
Q 1338 2731 1133 3434 
Q 928 4138 513 4856 
z
" transform="scale(0.015625)"/>
      </defs>
      <use xlink:href="#DejaVuSans-54"/>
      <use xlink:href="#DejaVuSans-77" x="44.583984"/>
      <use xlink:href="#DejaVuSans-6f" x="126.371094"/>
      <use xlink:href="#DejaVuSans-20" x="187.552734"/>
      <use xlink:href="#DejaVuSans-54" x="219.339844"/>
      <use xlink:href="#DejaVuSans-68" x="280.423828"/>
      <use xlink:href="#DejaVuSans-65" x="343.802734"/>
      <use xlink:href="#DejaVuSans-74" x="405.326172"/>
      <use xlink:href="#DejaVuSans-61" x="444.535156"/>
      <use xlink:href="#DejaVuSans-20" x="505.814453"/>
      <use xlink:href="#DejaVuSans-28" x="537.601562"/>
      <use xlink:href="#DejaVuSans-64" x="576.615234"/>
      <use xlink:href="#DejaVuSans-65" x="640.091797"/>
      <use xlink:href="#DejaVuSans-67" x="701.615234"/>
      <use xlink:href="#DejaVuSans-72" x="765.091797"/>
      <use xlink:href="#DejaVuSans-65" x="803.955078"/>
      <use xlink:href="#DejaVuSans-65" x="865.478516"/>
      <use xlink:href="#DejaVuSans-73" x="927.001953"/>
      <use xlink:href="#DejaVuSans-29" x="979.101562"/>
     </g>
    </g>
   </g>
   <g id="matplotlib.axis_2">
    <g id="ytick_1">
     <g id="line2d_26"/>
    </g>
    <g id="ytick_2">
     <g id="line2d_27"/>
    </g>
    <g id="ytick_3">
     <g id="line2d_28"/>
    </g>
    <g id="ytick_4">
     <g id="line2d_29"/>
    </g>
    <g id="ytick_5">
     <g id="line2d_30"/>
    </g>
    <g id="text_5">
     <!-- Intensity -->
     <g transform="translate(14.038594 94.73625)rotate(-90)scale(0.09 -0.09)">
      <defs>
       <path id="DejaVuSans-49" d="M 628 4666 
L 1259 4666 
L 1259 0 
L 628 0 
L 628 4666 
z
" transform="scale(0.015625)"/>
       <path id="DejaVuSans-6e" d="M 3513 2113 
L 3513 0 
L 2938 0 
L 2938 2094 
Q 2938 2591 2744 2837 
Q 2550 3084 2163 3084 
Q 1697 3084 1428 2787 
Q 1159 2491 1159 1978 
L 1159 0 
L 581 0 
L 581 3500 
L 1159 3500 
L 1159 2956 
Q 1366 3272 1645 3428 
Q 1925 3584 2291 3584 
Q 2894 3584 3203 3211 
Q 3513 2838 3513 2113 
z
" transform="scale(0.015625)"/>
       <path id="DejaVuSans-69" d="M 603 3500 
L 1178 3500 
L 1178 0 
L 603 0 
L 603 3500 
z
M 603 4863 
L 1178 4863 
L 1178 4134 
L 603 4134 
L 603 4863 
z
" transform="scale(0.015625)"/>
       <path id="DejaVuSans-79" d="M 2059 -325 
Q 1816 -950 1584 -1140 
Q 1353 -1331 966 -1331 
L 506 -1331 
L 506 -850 
L 844 -850 
Q 1081 -850 1212 -737 
Q 1344 -625 1503 -206 
L 1606 56 
L 191 3500 
L 800 3500 
L 1894 763 
L 2988 3500 
L 3597 3500 
L 2059 -325 
z
" transform="scale(0.015625)"/>
      </defs>
      <use xlink:href="#DejaVuSans-49"/>
      <use xlink:href="#DejaVuSans-6e" x="29.492188"/>
      <use xlink:href="#DejaVuSans-74" x="92.871094"/>
      <use xlink:href="#DejaVuSans-65" x="132.080078"/>
      <use xlink:href="#DejaVuSans-6e" x="193.603516"/>
      <use xlink:href="#DejaVuSans-73" x="256.982422"/>
      <use xlink:href="#DejaVuSans-69" x="309.082031"/>
      <use xlink:href="#DejaVuSans-74" x="336.865234"/>
      <use xlink:href="#DejaVuSans-79" x="376.074219"/>
     </g>
    </g>
   </g>
   <g id="line2d_31">
    <path d="M 23.428285 13.377273 
L 23.611453 21.244871 
L 23.672509 20.65413 
L 23.733564 21.218019 
L 23.855676 24.037465 
L 23.977788 20.251351 
L 24.160955 33.43562 
L 24.222011 30.777285 
L 24.405178 35.691177 
L 24.466234 32.603212 
L 24.649402 38.188401 
L 24.710458 36.523585 
L 24.771513 37.758771 
L 24.832569 39.90692 
L 24.893625 39.155068 
L 25.015737 40.685625 
L 25.076792 40.068032 
L 25.137848 42.430996 
L 25.198904 41.759699 
L 25.25996 42.243033 
L 25.443127 45.304146 
L 25.504183 45.169887 
L 25.565239 45.894887 
L 25.626295 44.49859 
L 25.687351 45.116183 
L 25.748406 45.384702 
L 25.931574 50.030075 
L 25.99263 47.962481 
L 26.053685 51.96341 
L 26.114741 51.184706 
L 26.175797 50.164335 
L 26.236853 53.869893 
L 26.297909 50.647668 
L 26.358964 53.171744 
L 26.42002 53.708782 
L 26.481076 55.373598 
L 26.542132 52.930077 
L 26.603188 53.332856 
L 26.664244 57.790266 
L 26.725299 52.500448 
L 26.786355 57.306932 
L 26.847411 55.26619 
L 26.908467 58.13934 
L 26.969523 57.84397 
L 27.15269 55.722672 
L 27.213746 60.153231 
L 27.274802 58.112488 
L 27.335858 57.897673 
L 27.396913 59.079156 
L 27.457969 56.447672 
L 27.580081 59.213415 
L 27.641137 57.897673 
L 27.702192 58.622674 
L 27.763248 58.864341 
L 27.946416 63.858789 
L 28.007471 59.85786 
L 28.068527 61.57638 
L 28.190639 62.811566 
L 28.251695 61.925454 
L 28.312751 62.516195 
L 28.373806 62.677306 
L 28.434862 63.294899 
L 28.495918 65.657864 
L 28.556974 63.563418 
L 28.740141 67.993977 
L 28.862253 64.181011 
L 29.04542 67.376384 
L 29.167532 62.543047 
L 29.350699 68.90694 
L 29.411755 66.382864 
L 29.472811 68.316199 
L 29.533867 69.846756 
L 29.594923 69.229163 
L 29.655978 64.100455 
L 29.717034 69.443978 
L 29.77809 66.597679 
L 30.083369 70.974534 
L 30.144425 68.933792 
L 30.205481 69.121755 
L 30.266537 72.746758 
L 30.327592 71.726387 
L 30.388648 66.570827 
L 30.449704 70.088422 
L 30.571816 73.015276 
L 30.632872 68.155088 
L 30.693927 71.672683 
L 30.754983 73.525462 
L 30.877095 70.571756 
L 30.938151 73.283795 
L 30.999206 73.042128 
L 31.060262 70.62546 
L 31.182374 75.5125 
L 31.24343 75.351389 
L 31.304485 73.606017 
L 31.365541 73.981944 
L 31.426597 73.92824 
L 31.487653 72.988424 
L 31.548709 75.431945 
L 31.609765 74.250462 
L 31.67082 73.203239 
L 31.792932 75.888426 
L 31.853988 73.364351 
L 31.915044 74.304166 
L 31.976099 73.015276 
L 32.037155 77.096761 
L 32.098211 74.545833 
L 32.220323 78.38565 
L 32.281378 76.07639 
L 32.342434 76.291204 
L 32.464546 77.526391 
L 32.525602 76.452316 
L 32.586658 78.761577 
L 32.647713 77.123612 
L 32.708769 77.123612 
L 32.769825 79.406021 
L 32.830881 78.09028 
L 32.891937 76.479168 
L 32.952992 76.693983 
L 33.014048 79.701392 
L 33.075104 77.66065 
L 33.13616 78.224539 
L 33.197216 75.351389 
L 33.258272 75.861575 
L 33.502495 80.882874 
L 33.563551 77.66065 
L 33.624606 79.916207 
L 33.685662 78.681021 
L 33.746718 79.459725 
L 33.807774 79.486577 
L 33.990941 77.016205 
L 34.113053 83.487506 
L 34.235165 78.734725 
L 34.29622 81.903245 
L 34.357276 81.795838 
L 34.418332 80.480096 
L 34.540444 83.031024 
L 34.601499 83.004172 
L 34.662555 81.849542 
L 34.723611 81.956949 
L 34.784667 81.903245 
L 34.845723 80.587504 
L 35.02889 85.528248 
L 35.089946 81.876393 
L 35.151002 81.983801 
L 35.273113 85.743063 
L 35.456281 82.601394 
L 35.517337 83.433802 
L 35.578392 82.386579 
L 35.639448 84.615284 
L 35.700504 83.272691 
L 35.76156 82.869913 
L 35.883672 86.790286 
L 35.944727 84.024543 
L 36.005783 84.212506 
L 36.127895 87.381027 
L 36.188951 86.494915 
L 36.372118 82.869913 
L 36.433174 83.729173 
L 36.49423 86.548619 
L 36.555286 83.594913 
L 36.616341 85.689359 
L 36.677397 85.044914 
L 36.860565 88.481954 
L 36.982676 85.474544 
L 37.104788 87.461582 
L 37.165844 89.072695 
L 37.226899 88.320842 
L 37.287955 88.750472 
L 37.349011 86.145841 
L 37.410067 87.461582 
L 37.471123 89.529176 
L 37.65429 86.226396 
L 37.715346 86.387508 
L 37.898513 89.15325 
L 37.959569 89.663436 
L 38.142737 87.407879 
L 38.264848 90.844918 
L 38.325904 89.314362 
L 38.38696 92.429178 
L 38.448016 88.106027 
L 38.509072 90.281029 
L 38.570127 89.770843 
L 38.631183 87.730101 
L 38.692239 90.254177 
L 38.753295 89.475473 
L 38.936462 91.113437 
L 38.997518 89.099547 
L 39.058574 91.838437 
L 39.11963 90.791214 
L 39.241741 89.099547 
L 39.302797 91.73103 
L 39.363853 90.844918 
L 39.424909 91.3014 
L 39.485965 90.334733 
L 39.669132 95.32918 
L 39.791244 89.824547 
L 39.852299 93.879179 
L 39.913355 91.918993 
L 39.974411 91.462511 
L 40.035467 92.59029 
L 40.096523 92.482882 
L 40.157579 90.925474 
L 40.218634 92.133808 
L 40.27969 91.650474 
L 40.340746 91.999549 
L 40.523913 92.724549 
L 40.584969 90.415288 
L 40.646025 95.060662 
L 40.707081 93.44955 
L 40.829193 93.691216 
L 40.890248 91.3014 
L 40.951304 95.973625 
L 41.01236 93.073623 
L 41.073416 91.999549 
L 41.195527 97.289367 
L 41.256583 93.556957 
L 41.317639 95.382884 
L 41.439751 94.631032 
L 41.500806 92.670845 
L 41.561862 97.396774 
L 41.622918 94.093994 
L 41.806086 92.375475 
L 41.867141 97.235663 
L 41.928197 94.335661 
L 42.050309 96.698626 
L 42.111365 96.18844 
L 42.233476 92.482882 
L 42.355588 95.624551 
L 42.416644 94.792143 
L 42.4777 93.959735 
L 42.538755 97.450478 
L 42.599811 93.181031 
L 42.660867 96.268996 
L 42.844034 95.46344 
L 42.90509 93.879179 
L 42.966146 96.107885 
L 43.027202 95.302329 
L 43.088258 94.496772 
L 43.271425 97.504182 
L 43.393537 97.020848 
L 43.454593 94.953254 
L 43.515648 98.014367 
L 43.576704 96.886589 
L 43.63776 96.993996 
L 43.698816 94.657884 
L 43.759872 96.859737 
L 43.820927 96.027329 
L 43.881983 94.872699 
L 44.065151 98.954183 
L 44.126206 97.745849 
L 44.248318 99.92085 
L 44.37043 95.946773 
L 44.431486 97.155108 
L 44.492541 98.256034 
L 44.553597 96.591218 
L 44.614653 98.470849 
L 44.675709 98.390294 
L 44.736765 95.866218 
L 44.79782 96.61807 
L 44.858876 97.799552 
L 44.919932 97.47733 
L 44.980988 96.349551 
L 45.042044 98.282886 
L 45.1031 96.698626 
L 45.164155 97.316219 
L 45.225211 95.75881 
L 45.347323 98.094923 
L 45.408379 98.068071 
L 45.53049 100.269925 
L 45.591546 99.598628 
L 45.652602 96.107885 
L 45.774713 99.893998 
L 45.835769 97.826404 
L 45.896825 99.383813 
L 46.079993 97.531034 
L 46.141048 98.551405 
L 46.26316 96.940293 
L 46.324216 97.396774 
L 46.385272 99.356961 
L 46.446327 97.074552 
L 46.507383 99.598628 
L 46.568439 97.557886 
L 46.751607 100.296776 
L 46.812662 99.732887 
L 46.873718 100.592147 
L 46.934774 98.121775 
L 46.99583 99.893998 
L 47.056886 98.148627 
L 47.117941 99.786591 
L 47.178997 99.303257 
L 47.301109 98.605109 
L 47.362165 99.142146 
L 47.484276 97.880108 
L 47.545332 98.068071 
L 47.606388 99.518072 
L 47.7285 95.141217 
L 47.789555 100.431036 
L 47.850611 98.793072 
L 47.911667 97.181959 
L 47.972723 97.584738 
L 48.033779 97.745849 
L 48.094834 97.396774 
L 48.216946 99.168998 
L 48.278002 98.282886 
L 48.339058 100.108813 
L 48.400114 98.282886 
L 48.461169 100.833814 
L 48.522225 98.256034 
L 48.583281 98.927331 
L 48.644337 98.846775 
L 48.705393 96.134737 
L 48.766448 97.369923 
L 48.827504 96.61807 
L 48.88856 100.296776 
L 49.010672 96.859737 
L 49.193839 100.645851 
L 49.254895 99.115294 
L 49.315951 97.343071 
L 49.377007 98.739368 
L 49.438062 99.383813 
L 49.62123 95.490292 
L 49.682286 96.537515 
L 49.865453 99.92085 
L 49.926509 95.839366 
L 49.987565 97.262515 
L 50.048621 98.605109 
L 50.231788 95.46344 
L 50.414955 99.840295 
L 50.476011 98.551405 
L 50.537067 95.946773 
L 50.598123 98.309738 
L 50.659179 96.61807 
L 50.78129 97.826404 
L 50.842346 95.168069 
L 50.903402 97.584738 
L 50.964458 97.020848 
L 51.025514 96.967144 
L 51.086569 95.731958 
L 51.147625 97.772701 
L 51.208681 96.18844 
L 51.330793 96.886589 
L 51.391848 94.765291 
L 51.452904 95.03381 
L 51.51396 98.229182 
L 51.575016 96.349551 
L 51.697127 95.006958 
L 51.758183 97.718997 
L 51.819239 97.450478 
L 51.880295 97.101404 
L 51.941351 95.302329 
L 52.002407 97.074552 
L 52.124518 94.228254 
L 52.185574 94.792143 
L 52.24663 91.784734 
L 52.307686 92.348623 
L 52.490853 94.335661 
L 52.551909 91.193992 
L 52.612965 94.228254 
L 52.674021 93.073623 
L 52.735076 93.31529 
L 52.796132 94.469921 
L 52.918244 93.127327 
L 52.9793 93.234735 
L 53.040355 95.382884 
L 53.101411 92.724549 
L 53.162467 92.858808 
L 53.223523 95.006958 
L 53.345634 90.415288 
L 53.40669 90.818066 
L 53.528802 95.275477 
L 53.589858 93.01992 
L 53.711969 89.556028 
L 53.773025 92.670845 
L 53.834081 91.918993 
L 53.895137 92.133808 
L 54.017248 89.072695 
L 54.200416 91.838437 
L 54.261472 91.811585 
L 54.322528 89.851399 
L 54.505695 91.784734 
L 54.566751 89.394917 
L 54.627807 89.690288 
L 54.688862 89.690288 
L 54.810974 88.401398 
L 54.87203 91.247696 
L 54.994141 88.132879 
L 55.055197 90.173621 
L 55.177309 86.790286 
L 55.238365 89.609732 
L 55.299421 88.320842 
L 55.482588 85.904174 
L 55.543644 87.783805 
L 55.6047 86.494915 
L 55.665755 85.501396 
L 55.787867 87.381027 
L 55.909979 84.078247 
L 55.971035 85.42084 
L 56.093146 84.319914 
L 56.154202 85.769915 
L 56.337369 82.896765 
L 56.459481 85.581952 
L 56.520537 80.829171 
L 56.581593 84.400469 
L 56.642648 84.26621 
L 56.76476 81.82269 
L 56.947928 85.716211 
L 57.008983 80.372689 
L 57.070039 81.768986 
L 57.131095 79.781948 
L 57.192151 81.527319 
L 57.253207 79.056947 
L 57.314262 82.386579 
L 57.436374 76.908797 
L 57.49743 82.574542 
L 57.558486 81.205097 
L 57.619541 80.211578 
L 57.680597 81.527319 
L 57.985876 75.485648 
L 58.046932 78.466206 
L 58.107988 75.968982 
L 58.169044 77.418983 
L 58.2301 77.311576 
L 58.291155 79.271762 
L 58.413267 75.5125 
L 58.474323 75.539352 
L 58.535379 76.693983 
L 58.596435 72.854165 
L 58.65749 76.156945 
L 58.718546 75.002315 
L 58.779602 76.156945 
L 58.901714 71.91435 
L 58.962769 73.122684 
L 59.145937 71.806942 
L 59.206993 73.740277 
L 59.268048 69.631941 
L 59.329104 70.732867 
L 59.39016 70.330089 
L 59.451216 70.518052 
L 59.512272 75.673611 
L 59.573328 70.088422 
L 59.634383 71.618979 
L 59.695439 71.645831 
L 59.756495 69.873608 
L 59.817551 70.92083 
L 59.878607 70.383793 
L 59.939662 71.565275 
L 60.000718 69.712496 
L 60.061774 72.317128 
L 60.12283 71.511572 
L 60.305997 65.765271 
L 60.428109 70.410645 
L 60.489165 70.061571 
L 60.550221 70.115274 
L 60.611276 69.578237 
L 60.794444 66.946754 
L 60.8555 68.826385 
L 60.916555 67.671754 
L 60.977611 68.799533 
L 61.038667 68.128236 
L 61.099723 68.450458 
L 61.160779 65.60416 
L 61.221835 66.194901 
L 61.28289 67.779162 
L 61.343946 67.32268 
L 61.405002 63.187492 
L 61.466058 66.490272 
L 61.527114 72.370831 
L 61.649225 66.758791 
L 61.710281 66.651383 
L 61.771337 63.214344 
L 61.832393 64.556937 
L 61.893449 64.87916 
L 61.954504 62.945825 
L 62.01556 63.268047 
L 62.137672 67.188421 
L 62.320839 63.321751 
L 62.381895 66.89305 
L 62.442951 62.516195 
L 62.504007 63.456011 
L 62.565062 62.918973 
L 62.74823 60.71712 
L 62.931397 63.912492 
L 62.992453 63.429159 
L 63.053509 64.986567 
L 63.114565 64.368974 
L 63.175621 62.569899 
L 63.236676 62.784714 
L 63.297732 63.268047 
L 63.358788 62.30138 
L 63.419844 65.362493 
L 63.4809 61.495824 
L 63.541955 63.643974 
L 63.603011 61.361565 
L 63.664067 61.495824 
L 63.725123 65.765271 
L 63.786179 59.374526 
L 63.847235 61.388417 
L 63.90829 61.415268 
L 64.030402 64.181011 
L 64.274625 61.093046 
L 64.518849 66.436568 
L 64.579904 62.00601 
L 64.64096 63.321751 
L 64.763072 61.656935 
L 64.885183 64.825456 
L 65.007295 63.751381 
L 65.068351 63.88564 
L 65.129407 63.053232 
L 65.190462 63.456011 
L 65.251518 64.046752 
L 65.312574 61.952306 
L 65.495742 66.570827 
L 65.556797 65.792123 
L 65.617853 63.509714 
L 65.739965 66.812494 
L 65.801021 62.462491 
L 65.862076 64.073604 
L 65.984188 67.483791 
L 66.1063 63.106936 
L 66.228411 67.779162 
L 66.289467 64.637493 
L 66.350523 65.980086 
L 66.411579 65.872679 
L 66.472635 67.430087 
L 66.53369 67.000457 
L 66.655802 66.946754 
L 66.777914 70.813423 
L 66.838969 67.000457 
L 66.900025 67.940273 
L 67.022137 68.987496 
L 67.144249 68.826385 
L 67.26636 68.101384 
L 67.388472 69.524533 
L 67.449528 67.725458 
L 67.510583 69.33657 
L 67.571639 67.376384 
L 67.754807 70.437497 
L 67.815863 68.933792 
L 67.937974 71.081942 
L 68.121142 69.497681 
L 68.182197 70.061571 
L 68.243253 73.337499 
L 68.304309 72.854165 
L 68.365365 69.927311 
L 68.426421 73.740277 
L 68.487476 71.592127 
L 68.548532 70.62546 
L 68.670644 75.405093 
L 68.792756 72.424535 
L 68.853811 73.525462 
L 68.914867 72.63935 
L 68.975923 72.317128 
L 69.098035 75.888426 
L 69.15909 72.585646 
L 69.220146 75.08287 
L 69.281202 75.458797 
L 69.342258 75.136574 
L 69.403314 75.21713 
L 69.464369 71.592127 
L 69.647537 76.344908 
L 69.708593 73.981944 
L 69.830704 77.392131 
L 69.89176 71.457868 
L 69.952816 76.586575 
L 70.013872 76.291204 
L 70.074928 73.095832 
L 70.135983 77.016205 
L 70.197039 75.593056 
L 70.380207 78.009724 
L 70.441263 77.794909 
L 70.502318 76.452316 
L 70.563374 77.418983 
L 70.685486 81.017134 
L 70.746542 76.935649 
L 70.807597 79.593985 
L 70.868653 80.506948 
L 70.929709 80.426392 
L 70.990765 80.292133 
L 71.051821 80.372689 
L 71.112876 78.842132 
L 71.173932 81.68843 
L 71.234988 78.734725 
L 71.296044 80.131022 
L 71.3571 81.956949 
L 71.418156 79.459725 
L 71.479211 81.500467 
L 71.540267 81.715282 
L 71.601323 80.157874 
L 71.662379 80.829171 
L 71.78449 83.514358 
L 71.967658 81.419912 
L 72.028714 84.346766 
L 72.08977 80.802319 
L 72.150825 81.983801 
L 72.211881 85.716211 
L 72.272937 83.433802 
L 72.333993 86.360656 
L 72.456104 81.124541 
L 72.51716 84.615284 
L 72.578216 84.373617 
L 72.700328 83.380098 
L 72.822439 85.743063 
L 72.883495 83.057876 
L 72.944551 84.481025 
L 73.066663 86.951397 
L 73.127718 80.157874 
L 73.188774 85.393988 
L 73.24983 84.239358 
L 73.310886 88.481954 
L 73.371942 87.381027 
L 73.432997 87.300471 
L 73.555109 86.226396 
L 73.616165 88.643065 
L 73.677221 87.300471 
L 73.799332 83.997691 
L 73.921444 88.831028 
L 74.043556 86.199545 
L 74.165667 90.979177 
L 74.226723 89.233806 
L 74.287779 87.783805 
L 74.348835 87.971768 
L 74.40989 90.388436 
L 74.470946 87.944916 
L 74.593058 90.764362 
L 74.654114 87.193064 
L 74.71517 88.750472 
L 74.776225 87.327323 
L 74.959393 91.167141 
L 75.081504 90.522696 
L 75.264672 92.536586 
L 75.325728 88.508805 
L 75.386783 91.704178 
L 75.447839 90.468992 
L 75.508895 91.167141 
L 75.569951 91.408807 
L 75.631007 94.201402 
L 75.692063 91.3014 
L 75.753118 91.972697 
L 75.814174 91.086585 
L 75.936286 92.482882 
L 75.997342 91.408807 
L 76.058397 92.939364 
L 76.119453 92.429178 
L 76.180509 92.778253 
L 76.241565 92.187512 
L 76.302621 92.831956 
L 76.424732 90.844918 
L 76.546844 94.818995 
L 76.6079 93.664364 
L 76.730011 94.953254 
L 76.791067 93.44955 
L 76.852123 93.503253 
L 77.03529 98.256034 
L 77.157402 92.268067 
L 77.218458 95.32918 
L 77.279514 93.932883 
L 77.401625 95.302329 
L 77.462681 94.228254 
L 77.523737 96.242144 
L 77.584793 93.637513 
L 77.645849 94.255106 
L 77.76796 96.268996 
L 77.829016 96.268996 
L 77.890072 97.101404 
L 77.951128 94.89955 
L 78.012184 98.605109 
L 78.073239 96.161588 
L 78.134295 96.000477 
L 78.256407 99.142146 
L 78.439574 95.194921 
L 78.50063 100.726406 
L 78.561686 97.90696 
L 78.622742 96.859737 
L 78.683797 97.208811 
L 78.744853 98.793072 
L 78.805909 96.430107 
L 78.866965 98.175479 
L 78.928021 96.832885 
L 79.111188 101.505111 
L 79.172244 99.168998 
L 79.2333 99.276405 
L 79.294356 100.323628 
L 79.355411 98.148627 
L 79.416467 100.484739 
L 79.477523 98.470849 
L 79.538579 98.954183 
L 79.599635 99.652332 
L 79.721746 98.175479 
L 79.904914 102.659741 
L 79.96597 100.404184 
L 80.027025 100.726406 
L 80.088081 100.404184 
L 80.149137 98.685664 
L 80.210193 99.088442 
L 80.271249 101.102332 
L 80.332304 100.726406 
L 80.39336 100.35048 
L 80.454416 101.827333 
L 80.515472 100.457888 
L 80.576528 102.49863 
L 80.637584 101.773629 
L 80.698639 101.63937 
L 80.881807 104.297705 
L 81.064974 101.021777 
L 81.309197 103.438445 
L 81.370253 103.143075 
L 81.431309 104.807891 
L 81.492365 103.626408 
L 81.553421 103.062519 
L 81.675532 104.163446 
L 81.736588 103.545853 
L 81.919756 106.714373 
L 81.980811 102.391222 
L 82.041867 104.297705 
L 82.102923 106.66067 
L 82.163979 103.948631 
L 82.225035 106.338447 
L 82.286091 104.888446 
L 82.347146 105.80141 
L 82.530314 102.310667 
L 82.59137 105.291224 
L 82.652425 103.411593 
L 82.774537 107.0903 
L 82.835593 106.204188 
L 82.896649 105.720854 
L 82.957704 106.09678 
L 83.079816 107.358818 
L 83.140872 103.975483 
L 83.201928 106.687521 
L 83.262984 107.117151 
L 83.385095 105.264372 
L 83.446151 108.352337 
L 83.507207 106.472707 
L 83.568263 106.311595 
L 83.629318 107.38567 
L 83.690374 106.633818 
L 83.812486 107.305115 
L 83.873542 107.224559 
L 83.995653 108.96993 
L 84.056709 108.755115 
L 84.178821 105.747706 
L 84.239877 105.640299 
L 84.300932 108.701412 
L 84.361988 108.030115 
L 84.423044 107.305115 
L 84.4841 109.426412 
L 84.545156 107.788448 
L 84.606211 107.842152 
L 84.728323 109.560672 
L 84.789379 108.432893 
L 84.850435 108.701412 
L 84.911491 108.567152 
L 85.033602 109.694931 
L 85.094658 107.627337 
L 85.155714 107.734744 
L 85.21677 110.903265 
L 85.277825 109.39956 
L 85.338881 110.795858 
L 85.399937 110.715302 
L 85.522049 109.39956 
L 85.64416 110.366228 
L 85.705216 111.923636 
L 85.766272 111.332895 
L 85.827328 111.225488 
L 85.888384 108.728264 
L 85.949439 111.708821 
L 86.010495 110.634746 
L 86.071551 112.057896 
L 86.132607 111.144932 
L 86.193663 109.560672 
L 86.315774 112.353266 
L 86.37683 111.869932 
L 86.498942 109.506968 
L 86.621053 113.319933 
L 86.682109 110.581043 
L 86.743165 110.849561 
L 86.804221 114.018082 
L 86.865277 112.40697 
L 86.926332 111.54771 
L 86.987388 114.635675 
L 87.048444 112.70234 
L 87.1095 112.621785 
L 87.170556 112.084747 
L 87.231612 113.293082 
L 87.292667 113.26623 
L 87.353723 112.809748 
L 87.414779 111.010673 
L 87.475835 113.883823 
L 87.536891 113.642156 
L 87.597946 114.394008 
L 87.659002 113.26623 
L 87.720058 113.749563 
L 87.781114 115.28012 
L 87.84217 114.232897 
L 87.903225 113.373637 
L 87.964281 114.313453 
L 88.025337 113.26623 
L 88.086393 115.414379 
L 88.147449 114.447712 
L 88.208505 113.078267 
L 88.391672 114.769934 
L 88.452728 114.635675 
L 88.513784 114.796786 
L 88.574839 114.689379 
L 88.635895 113.910675 
L 88.696951 114.018082 
L 88.819063 115.70975 
L 88.880118 114.635675 
L 88.941174 116.13938 
L 89.124342 114.071786 
L 89.185398 113.830119 
L 89.368565 117.535677 
L 89.429621 114.796786 
L 89.490677 116.515306 
L 89.551732 116.354195 
L 89.612788 117.481973 
L 89.7349 115.978269 
L 89.795956 116.166232 
L 89.857012 116.354195 
L 90.040179 114.796786 
L 90.101235 118.341233 
L 90.162291 115.387527 
L 90.223346 115.844009 
L 90.284402 115.736602 
L 90.46757 117.455121 
L 90.528625 117.320862 
L 90.589681 118.878271 
L 90.650737 117.777344 
L 90.711793 117.669936 
L 90.772849 118.475492 
L 90.89496 115.468083 
L 90.956016 117.669936 
L 91.017072 116.730121 
L 91.078128 117.320862 
L 91.139184 115.978269 
L 91.200239 119.01253 
L 91.261295 117.589381 
L 91.322351 118.368085 
L 91.383407 118.180122 
L 91.444463 118.502344 
L 91.62763 116.730121 
L 91.688686 119.656975 
L 91.749742 115.897713 
L 91.810798 116.837528 
L 91.871853 119.3079 
L 91.932909 119.119937 
L 91.993965 119.200493 
L 92.055021 118.421789 
L 92.116077 119.73753 
L 92.177132 117.938455 
L 92.299244 119.73753 
L 92.3603 118.394937 
L 92.421356 120.032901 
L 92.482412 119.44216 
L 92.604523 118.126418 
L 92.665579 120.59679 
L 92.726635 119.388456 
L 92.848746 119.173641 
L 93.031914 120.30142 
L 93.09297 119.119937 
L 93.154026 119.764382 
L 93.215081 121.133828 
L 93.276137 120.972716 
L 93.52036 119.603271 
L 93.581416 121.617161 
L 93.642472 120.757901 
L 93.703528 120.892161 
L 93.764584 120.30142 
L 93.886695 121.482902 
L 93.947751 121.321791 
L 94.130919 121.993087 
L 94.191974 120.569938 
L 94.25303 121.482902 
L 94.314086 122.369014 
L 94.375142 121.831976 
L 94.436198 119.925493 
L 94.558309 124.060681 
L 94.619365 122.154199 
L 94.680421 120.757901 
L 94.741477 121.429198 
L 94.863588 123.04031 
L 94.9857 120.784753 
L 95.107812 123.711607 
L 95.290979 121.241235 
L 95.352035 123.953274 
L 95.413091 121.831976 
L 95.535202 123.684755 
L 95.596258 123.013459 
L 95.657314 121.509754 
L 95.71837 123.845867 
L 95.779426 121.321791 
L 95.840481 122.825495 
L 95.962593 122.234754 
L 96.023649 123.89957 
L 96.084705 121.429198 
L 96.14576 122.798644 
L 96.206816 123.067162 
L 96.267872 124.544015 
L 96.328928 123.550496 
L 96.389984 122.932903 
L 96.451039 123.255125 
L 96.512095 123.335681 
L 96.573151 124.114385 
L 96.634207 123.819015 
L 96.695263 122.771792 
L 96.756319 123.577348 
L 96.817374 123.89957 
L 96.87843 123.6042 
L 96.939486 124.785682 
L 97.000542 124.141237 
L 97.061598 123.684755 
L 97.122653 124.114385 
L 97.183709 123.711607 
L 97.244765 123.926422 
L 97.305821 121.966236 
L 97.427933 125.537534 
L 97.488988 123.89957 
L 97.550044 124.060681 
L 97.6111 125.832905 
L 97.672156 124.570867 
L 97.733212 124.3292 
L 97.794267 126.128275 
L 97.855323 125.000497 
L 97.977435 123.953274 
L 98.038491 125.913461 
L 98.099546 125.215312 
L 98.160602 124.731978 
L 98.221658 125.081053 
L 98.282714 125.322719 
L 98.34377 126.128275 
L 98.465881 123.631052 
L 98.649049 126.128275 
L 98.77116 124.46346 
L 98.954328 126.880128 
L 99.137495 124.302348 
L 99.198551 126.369942 
L 99.259607 124.973645 
L 99.381719 127.309758 
L 99.564886 124.517163 
L 99.809109 127.524573 
L 99.870165 124.597719 
L 99.931221 126.262535 
L 99.992277 127.148647 
L 100.053333 125.456979 
L 100.114388 128.06161 
L 100.175444 127.685684 
L 100.2365 126.074572 
L 100.297556 126.181979 
L 100.358612 127.444017 
L 100.419667 126.396794 
L 100.480723 126.531054 
L 100.602835 128.518092 
L 100.663891 127.470869 
L 100.724946 128.222721 
L 100.786002 128.625499 
L 100.847058 125.483831 
L 100.908114 127.363462 
L 100.96917 126.853276 
L 101.030226 128.007906 
L 101.091281 127.417165 
L 101.152337 126.638461 
L 101.274449 127.685684 
L 101.39656 126.665313 
L 101.579728 127.873647 
L 101.640784 127.148647 
L 101.70184 129.753278 
L 101.762895 126.611609 
L 101.823951 127.309758 
L 101.885007 127.981055 
L 101.946063 127.148647 
L 102.007119 127.470869 
L 102.068174 127.282906 
L 102.190286 128.706055 
L 102.251342 127.927351 
L 102.312398 128.894018 
L 102.373453 128.303277 
L 102.434509 127.33661 
L 102.495565 127.900499 
L 102.556621 128.195869 
L 102.617677 129.833834 
L 102.678733 128.356981 
L 102.739788 128.437536 
L 102.8619 127.900499 
L 102.922956 129.243092 
L 103.106123 126.719017 
L 103.228235 130.558834 
L 103.289291 127.444017 
L 103.350347 128.544944 
L 103.411402 130.102352 
L 103.59457 126.745868 
L 103.838793 128.947722 
L 103.899849 128.786611 
L 103.960905 128.840314 
L 104.083016 129.699574 
L 104.205128 127.658832 
L 104.266184 128.49124 
L 104.32724 130.129204 
L 104.388295 127.094943 
L 104.449351 127.954203 
L 104.571463 128.195869 
L 104.632519 127.819943 
L 104.693574 129.484759 
L 104.75463 128.303277 
L 104.815686 128.195869 
L 104.876742 128.464388 
L 104.998854 131.444946 
L 105.059909 129.860685 
L 105.182021 130.585686 
L 105.304133 129.162537 
L 105.365188 128.007906 
L 105.4873 129.457907 
L 105.548356 129.081981 
L 105.609412 129.806982 
L 105.670467 129.3505 
L 105.792579 129.941241 
L 105.853635 128.732907 
L 105.914691 129.108833 
L 105.975747 128.518092 
L 106.036802 129.833834 
L 106.097858 128.840314 
L 106.158914 129.135685 
L 106.281026 130.290315 
L 106.464193 128.088462 
L 106.525249 130.048649 
L 106.586305 129.001426 
L 106.708416 129.484759 
L 106.891584 130.666242 
L 107.074751 128.894018 
L 107.135807 130.424575 
L 107.196863 129.323648 
L 107.257919 129.135685 
L 107.318974 128.115314 
L 107.38003 128.974574 
L 107.441086 128.303277 
L 107.502142 128.330129 
L 107.624254 129.672722 
L 107.746365 129.753278 
L 107.807421 129.323648 
L 107.868477 130.317167 
L 107.929533 129.323648 
L 107.990588 129.511611 
L 108.051644 130.451427 
L 108.1127 128.840314 
L 108.173756 128.92087 
L 108.234812 129.431056 
L 108.295867 128.947722 
L 108.356923 129.699574 
L 108.417979 129.055129 
L 108.479035 129.243092 
L 108.540091 129.538463 
L 108.601147 128.464388 
L 108.662202 129.162537 
L 108.723258 128.437536 
L 108.784314 130.048649 
L 108.84537 129.833834 
L 108.906426 130.236612 
L 109.089593 129.108833 
L 109.272761 130.0755 
L 109.394872 128.813462 
L 109.57804 131.606057 
L 109.639095 129.565315 
L 109.700151 130.961612 
L 109.761207 130.63939 
L 109.822263 129.055129 
L 109.883319 131.042168 
L 109.944374 128.732907 
L 110.00543 129.592167 
L 110.066486 131.015316 
L 110.127542 129.941241 
L 110.188598 129.511611 
L 110.249654 130.021797 
L 110.310709 129.323648 
L 110.371765 129.753278 
L 110.432821 131.337538 
L 110.493877 130.424575 
L 110.615988 129.914389 
L 110.677044 131.36439 
L 110.7381 130.746797 
L 110.799156 131.042168 
L 110.860212 130.156056 
L 110.921268 130.800501 
L 111.104435 129.672722 
L 111.226547 130.156056 
L 111.287602 130.129204 
L 111.348658 129.323648 
L 111.409714 129.457907 
L 111.47077 129.538463 
L 111.531826 128.947722 
L 111.653937 130.63939 
L 111.714993 129.108833 
L 111.776049 130.773649 
L 111.837105 129.994945 
L 111.898161 129.028277 
L 112.020272 131.525501 
L 112.142384 130.182908 
L 112.20344 131.579205 
L 112.264495 128.464388 
L 112.325551 130.854205 
L 112.447663 129.672722 
L 112.63083 130.961612 
L 112.691886 128.759759 
L 112.752942 131.820872 
L 112.813998 130.370871 
L 112.875054 130.800501 
L 112.936109 130.63939 
L 113.119277 129.296796 
L 113.180333 131.713464 
L 113.241388 130.827353 
L 113.302444 131.632909 
L 113.3635 130.129204 
L 113.424556 130.50513 
L 113.485612 130.102352 
L 113.607723 131.337538 
L 113.668779 129.672722 
L 113.729835 130.370871 
L 113.790891 131.928279 
L 113.851947 131.686613 
L 113.974058 130.370871 
L 114.035114 132.035687 
L 114.157226 129.162537 
L 114.218281 132.599576 
L 114.279337 130.263463 
L 114.340393 131.955131 
L 114.401449 129.726426 
L 114.462505 132.062539 
L 114.523561 130.854205 
L 114.645672 131.981983 
L 114.706728 129.699574 
L 114.767784 131.552353 
L 114.950951 130.263463 
L 115.012007 131.256983 
L 115.073063 129.833834 
L 115.134119 130.827353 
L 115.195175 130.612538 
L 115.25623 131.230131 
L 115.317286 130.236612 
L 115.439398 131.525501 
L 115.500454 130.317167 
L 115.561509 130.800501 
L 115.622565 131.042168 
L 115.683621 132.089391 
L 115.744677 131.095871 
L 115.805733 131.122723 
L 115.866788 131.79402 
L 115.927844 131.471798 
L 115.9889 131.606057 
L 116.049956 132.411613 
L 116.111012 130.854205 
L 116.172068 130.907908 
L 116.355235 132.572724 
L 116.416291 130.558834 
L 116.477347 131.49865 
L 116.538402 131.847724 
L 116.660514 131.122723 
L 116.782626 131.981983 
L 116.843682 130.854205 
L 116.904737 132.545872 
L 116.965793 131.767168 
L 117.026849 132.169946 
L 117.087905 132.062539 
L 117.148961 131.632909 
L 117.210016 132.169946 
L 117.271072 129.726426 
L 117.332128 130.988464 
L 117.45424 132.65328 
L 117.515295 130.585686 
L 117.576351 132.331057 
L 117.637407 130.451427 
L 117.698463 131.042168 
L 117.820575 131.874576 
L 117.942686 130.20976 
L 118.003742 132.438465 
L 118.064798 132.22365 
L 118.247965 131.042168 
L 118.309021 131.79402 
L 118.370077 130.451427 
L 118.553244 132.545872 
L 118.6143 130.881056 
L 118.675356 132.22365 
L 118.736412 131.767168 
L 118.797468 132.599576 
L 118.858523 131.901428 
L 118.919579 133.136614 
L 118.980635 132.357909 
L 119.102747 130.907908 
L 119.163802 132.438465 
L 119.224858 130.666242 
L 119.285914 131.256983 
L 119.34697 132.706984 
L 119.469082 130.451427 
L 119.530137 132.921799 
L 119.591193 131.471798 
L 119.652249 131.874576 
L 119.774361 131.176427 
L 119.896472 133.270873 
L 120.07964 131.310686 
L 120.140695 130.63939 
L 120.323863 132.277354 
L 120.384919 131.659761 
L 120.50703 132.22365 
L 120.568086 131.686613 
L 120.629142 132.411613 
L 120.690198 132.089391 
L 120.751254 132.169946 
L 120.812309 130.907908 
L 120.873365 131.874576 
L 120.934421 132.089391 
L 120.995477 133.431984 
L 121.056533 131.955131 
L 121.117589 132.277354 
L 121.178644 132.384761 
L 121.2397 130.93476 
L 121.300756 132.492169 
L 121.361812 130.881056 
L 121.422868 133.244021 
L 121.483923 131.444946 
L 121.544979 133.619947 
L 121.606035 132.65328 
L 121.667091 133.51254 
L 121.728147 132.143094 
L 121.789202 132.438465 
L 121.850258 132.277354 
L 121.911314 133.351429 
L 121.97237 132.169946 
L 122.033426 132.357909 
L 122.094482 132.841243 
L 122.155537 130.63939 
L 122.216593 132.089391 
L 122.277649 131.955131 
L 122.338705 132.062539 
L 122.460816 133.190317 
L 122.521872 131.901428 
L 122.582928 133.539392 
L 122.643984 131.955131 
L 122.70504 132.143094 
L 122.766096 132.814391 
L 122.827151 131.203279 
L 122.888207 132.357909 
L 123.071375 133.270873 
L 123.13243 132.787539 
L 123.193486 133.217169 
L 123.254542 132.519021 
L 123.315598 133.217169 
L 123.376654 132.411613 
L 123.437709 133.056058 
L 123.498765 133.08291 
L 123.620877 131.525501 
L 123.681933 133.539392 
L 123.742989 133.244021 
L 123.8651 131.820872 
L 124.109323 133.297725 
L 124.170379 132.572724 
L 124.231435 133.485688 
L 124.292491 132.331057 
L 124.353547 133.539392 
L 124.414603 132.733836 
L 124.475658 132.357909 
L 124.658826 134.264392 
L 124.841993 131.122723 
L 124.964105 133.80791 
L 125.208328 131.310686 
L 125.269384 134.049577 
L 125.33044 132.492169 
L 125.391496 131.49865 
L 125.513607 133.781058 
L 125.696775 132.008835 
L 125.75783 132.22365 
L 125.818886 133.619947 
L 125.879942 133.458836 
L 125.940998 132.250502 
L 126.002054 133.190317 
L 126.063109 133.915318 
L 126.124165 133.754207 
L 126.246277 131.471798 
L 126.307333 134.3718 
L 126.368389 133.646799 
L 126.551556 132.94865 
L 126.734723 133.646799 
L 126.795779 132.062539 
L 126.856835 132.438465 
L 126.978947 134.318096 
L 127.101058 133.995873 
L 127.162114 133.593095 
L 127.22317 131.955131 
L 127.284226 132.841243 
L 127.345282 134.103281 
L 127.406337 133.405132 
L 127.528449 132.599576 
L 127.589505 131.955131 
L 127.833728 133.270873 
L 127.95584 132.733836 
L 128.077951 134.586615 
L 128.261119 132.814391 
L 128.38323 133.727355 
L 128.444286 134.80143 
L 128.566398 132.841243 
L 128.68851 134.130133 
L 128.749565 132.599576 
L 128.810621 134.264392 
L 128.871677 132.465317 
L 128.932733 133.190317 
L 128.993789 134.23754 
L 129.054844 133.861614 
L 129.1159 133.324577 
L 129.176956 133.834762 
L 129.360123 132.250502 
L 129.482235 134.049577 
L 129.543291 133.754207 
L 129.604347 134.532911 
L 129.665403 132.22365 
L 129.726458 133.727355 
L 129.787514 133.163465 
L 129.970682 134.022725 
L 130.031737 134.103281 
L 130.092793 133.297725 
L 130.153849 133.431984 
L 130.214905 134.479207 
L 130.275961 132.357909 
L 130.337017 133.244021 
L 130.398072 133.51254 
L 130.459128 132.626428 
L 130.520184 132.733836 
L 130.703351 133.834762 
L 130.764407 133.002354 
L 130.825463 135.069948 
L 130.886519 133.969022 
L 131.00863 135.633838 
L 131.130742 132.841243 
L 131.252854 134.425503 
L 131.31391 134.318096 
L 131.436021 133.351429 
L 131.497077 133.37828 
L 131.680244 134.66717 
L 131.7413 133.244021 
L 131.802356 135.204208 
L 131.863412 134.183837 
L 131.924468 134.344948 
L 131.985523 133.834762 
L 132.046579 134.398651 
L 132.107635 133.485688 
L 132.168691 134.264392 
L 132.229747 133.781058 
L 132.351858 133.915318 
L 132.412914 133.619947 
L 132.47397 132.572724 
L 132.535026 135.365319 
L 132.596082 134.264392 
L 132.657137 133.969022 
L 132.718193 135.580134 
L 132.779249 135.472726 
L 132.901361 132.975502 
L 132.962417 134.559763 
L 133.023472 134.103281 
L 133.084528 134.318096 
L 133.145584 135.016244 
L 133.267696 133.566244 
L 133.328751 134.506059 
L 133.389807 133.485688 
L 133.450863 134.210688 
L 133.572975 134.049577 
L 133.63403 134.264392 
L 133.695086 133.51254 
L 133.756142 134.559763 
L 133.817198 134.452355 
L 133.878254 134.049577 
L 133.93931 134.506059 
L 134.000365 133.270873 
L 134.122477 135.284763 
L 134.244589 133.485688 
L 134.305644 133.646799 
L 134.488812 135.069948 
L 134.549868 134.908837 
L 134.671979 133.593095 
L 134.733035 133.995873 
L 134.916203 133.109762 
L 134.977258 134.049577 
L 135.038314 133.888466 
L 135.282537 134.720874 
L 135.343593 133.80791 
L 135.404649 135.257911 
L 135.465705 134.264392 
L 135.526761 133.270873 
L 135.648872 135.338467 
L 135.709928 132.841243 
L 135.770984 134.828281 
L 135.954151 133.244021 
L 136.015207 133.405132 
L 136.076263 134.559763 
L 136.137319 133.915318 
L 136.259431 134.989393 
L 136.320486 134.130133 
L 136.442598 135.419023 
L 136.503654 132.572724 
L 136.56471 134.156985 
L 136.625765 134.318096 
L 136.686821 134.881985 
L 136.747877 133.969022 
L 136.808933 135.231059 
L 136.869989 134.774578 
L 136.931044 134.398651 
L 136.9921 135.338467 
L 137.053156 133.163465 
L 137.114212 135.768097 
L 137.175268 135.687541 
L 137.297379 134.049577 
L 137.358435 134.479207 
L 137.419491 135.311615 
L 137.480547 133.485688 
L 137.541603 134.962541 
L 137.602658 133.593095 
L 137.663714 134.586615 
L 137.72477 134.559763 
L 137.785826 133.270873 
L 137.846882 134.156985 
L 137.907937 135.204208 
L 137.968993 133.754207 
L 138.030049 134.264392 
L 138.152161 135.150504 
L 138.213217 134.506059 
L 138.335328 135.741245 
L 138.396384 134.479207 
L 138.45744 134.694022 
L 138.579551 135.687541 
L 138.640607 135.338467 
L 138.701663 134.989393 
L 138.762719 136.144023 
L 138.884831 133.029206 
L 138.945886 133.029206 
L 139.067998 134.989393 
L 139.129054 134.049577 
L 139.19011 133.37828 
L 139.312221 134.747726 
L 139.373277 134.318096 
L 139.434333 135.419023 
L 139.556444 133.969022 
L 139.739612 134.855133 
L 139.800668 134.855133 
L 139.922779 133.37828 
L 139.983835 134.962541 
L 140.044891 133.94217 
L 140.105947 134.855133 
L 140.167003 134.452355 
L 140.228058 134.210688 
L 140.289114 135.0968 
L 140.35017 134.049577 
L 140.411226 134.694022 
L 140.472282 133.888466 
L 140.533338 133.995873 
L 140.594393 133.781058 
L 140.716505 134.640318 
L 140.838617 133.646799 
L 140.960728 135.633838 
L 141.143896 134.130133 
L 141.204951 134.855133 
L 141.266007 134.344948 
L 141.327063 133.244021 
L 141.510231 135.204208 
L 141.571286 135.150504 
L 141.632342 133.94217 
L 141.693398 134.80143 
L 141.754454 135.768097 
L 141.81551 134.425503 
L 141.876565 135.392171 
L 141.937621 134.935689 
L 142.059733 133.324577 
L 142.181845 134.774578 
L 142.2429 134.183837 
L 142.303956 134.506059 
L 142.365012 133.109762 
L 142.426068 133.915318 
L 142.487124 133.270873 
L 142.548179 135.016244 
L 142.609235 133.915318 
L 142.731347 134.855133 
L 142.853458 134.264392 
L 142.914514 134.506059 
L 142.97557 134.3718 
L 143.036626 135.768097 
L 143.097682 134.962541 
L 143.219793 134.23754 
L 143.280849 134.210688 
L 143.341905 134.318096 
L 143.402961 135.150504 
L 143.464017 133.915318 
L 143.525072 135.150504 
L 143.586128 134.613466 
L 143.647184 135.016244 
L 143.830351 133.270873 
L 143.891407 133.458836 
L 144.013519 135.016244 
L 144.074575 133.593095 
L 144.135631 134.049577 
L 144.196686 134.210688 
L 144.257742 133.94217 
L 144.379854 132.975502 
L 144.44091 135.606986 
L 144.501965 134.210688 
L 144.563021 133.888466 
L 144.624077 134.828281 
L 144.685133 134.774578 
L 144.807245 134.156985 
L 144.990412 135.419023 
L 145.051468 134.210688 
L 145.112524 134.962541 
L 145.173579 134.103281 
L 145.234635 134.640318 
L 145.356747 135.043096 
L 145.417803 134.425503 
L 145.478858 134.559763 
L 145.723082 135.284763 
L 145.784138 133.458836 
L 145.845193 134.908837 
L 146.028361 133.754207 
L 146.089417 136.036616 
L 146.150472 135.016244 
L 146.272584 134.156985 
L 146.33364 134.183837 
L 146.394696 134.80143 
L 146.455752 133.056058 
L 146.638919 135.043096 
L 146.761031 135.123652 
L 146.822086 133.915318 
L 146.883142 134.318096 
L 146.944198 134.613466 
L 147.005254 134.559763 
L 147.06631 134.344948 
L 147.188421 135.445874 
L 147.249477 135.419023 
L 147.432645 134.022725 
L 147.554756 135.177356 
L 147.615812 133.754207 
L 147.676868 134.80143 
L 147.860035 136.439394 
L 147.921091 135.95606 
L 147.982147 133.861614 
L 148.043203 133.94217 
L 148.165314 135.445874 
L 148.22637 133.51254 
L 148.287426 133.94217 
L 148.348482 135.714393 
L 148.409538 135.0968 
L 148.531649 135.419023 
L 148.592705 134.425503 
L 148.653761 135.0968 
L 148.714817 135.633838 
L 148.775872 134.398651 
L 148.836928 134.586615 
L 148.897984 134.506059 
L 148.95904 135.284763 
L 149.020096 134.23754 
L 149.081152 135.499578 
L 149.264319 133.995873 
L 149.447486 135.204208 
L 149.508542 135.069948 
L 149.69171 133.727355 
L 149.752765 133.834762 
L 149.813821 134.908837 
L 149.874877 133.700503 
L 149.935933 134.049577 
L 150.058045 134.66717 
L 150.1191 134.076429 
L 150.180156 134.425503 
L 150.241212 134.398651 
L 150.302268 134.80143 
L 150.363324 133.969022 
L 150.424379 136.278282 
L 150.485435 134.183837 
L 150.546491 134.747726 
L 150.607547 134.532911 
L 150.668603 133.888466 
L 150.729659 134.398651 
L 150.912826 133.619947 
L 151.034938 135.150504 
L 151.095993 134.049577 
L 151.157049 135.150504 
L 151.218105 134.3718 
L 151.279161 134.532911 
L 151.340217 133.190317 
L 151.401272 135.848652 
L 151.462328 134.452355 
L 151.523384 133.002354 
L 151.58444 134.425503 
L 151.645496 133.163465 
L 151.706552 135.472726 
L 151.767607 134.908837 
L 151.889719 133.754207 
L 151.950775 133.80791 
L 152.011831 133.646799 
L 152.194998 135.204208 
L 152.256054 134.344948 
L 152.31711 134.398651 
L 152.378166 136.922727 
L 152.439221 133.94217 
L 152.500277 134.828281 
L 152.561333 135.794949 
L 152.683445 133.485688 
L 152.7445 133.673651 
L 152.805556 135.150504 
L 152.866612 134.479207 
L 152.927668 133.969022 
L 153.049779 135.204208 
L 153.110835 134.183837 
L 153.171891 135.445874 
L 153.232947 134.962541 
L 153.416114 134.586615 
L 153.660338 135.257911 
L 153.721393 135.043096 
L 153.782449 133.727355 
L 153.843505 134.80143 
L 154.026673 133.995873 
L 154.087728 134.130133 
L 154.20984 134.962541 
L 154.270896 134.828281 
L 154.331952 134.291244 
L 154.393007 134.747726 
L 154.454063 133.727355 
L 154.515119 134.506059 
L 154.698286 133.969022 
L 154.759342 134.720874 
L 154.820398 134.156985 
L 154.881454 134.828281 
L 154.94251 134.774578 
L 155.125677 133.700503 
L 155.3699 135.929208 
L 155.430956 133.458836 
L 155.492012 134.855133 
L 155.675179 134.183837 
L 155.736235 134.962541 
L 155.797291 133.646799 
L 155.919403 134.80143 
L 156.163626 133.217169 
L 156.224682 133.754207 
L 156.285738 133.619947 
L 156.346793 133.351429 
L 156.407849 135.150504 
L 156.468905 134.694022 
L 156.529961 134.103281 
L 156.591017 134.130133 
L 156.652073 134.3718 
L 156.713128 135.150504 
L 156.83524 133.861614 
L 157.018407 135.016244 
L 157.079463 133.888466 
L 157.140519 135.257911 
L 157.201575 134.049577 
L 157.323686 135.392171 
L 157.56791 132.760687 
L 157.751077 134.640318 
L 157.873189 134.425503 
L 157.934245 134.318096 
L 157.9953 133.351429 
L 158.117412 134.264392 
L 158.30058 132.65328 
L 158.422691 135.52643 
L 158.605859 133.80791 
L 158.72797 135.445874 
L 158.911138 134.398651 
L 158.972193 135.0968 
L 159.033249 133.593095 
L 159.094305 134.049577 
L 159.155361 135.445874 
L 159.216417 134.156985 
L 159.277473 134.80143 
L 159.338528 135.177356 
L 159.46064 133.727355 
L 159.643807 135.284763 
L 159.826975 132.438465 
L 159.949087 135.231059 
L 160.071198 133.646799 
L 160.19331 135.231059 
L 160.376477 133.673651 
L 160.437533 135.499578 
L 160.498589 135.419023 
L 160.559645 134.479207 
L 160.6207 134.828281 
L 160.681756 135.043096 
L 160.803868 134.613466 
L 160.864924 133.405132 
L 160.92598 134.506059 
L 160.987035 134.344948 
L 161.048091 133.888466 
L 161.109147 134.747726 
L 161.170203 133.915318 
L 161.292314 135.794949 
L 161.414426 134.049577 
L 161.597594 135.392171 
L 161.780761 133.915318 
L 161.902873 135.365319 
L 161.963928 135.0968 
L 162.024984 134.881985 
L 162.08604 134.022725 
L 162.147096 135.016244 
L 162.208152 134.344948 
L 162.269207 134.640318 
L 162.330263 134.479207 
L 162.391319 134.318096 
L 162.513431 135.445874 
L 162.574487 133.593095 
L 162.635542 134.881985 
L 162.696598 135.499578 
L 162.757654 134.264392 
L 162.81871 135.741245 
L 162.879766 135.392171 
" clip-path="url(#p267987790f)" style="fill: none; stroke: #1f77b4; stroke-width: 0.5; stroke-linecap: square"/>
   </g>
   <g id="patch_3">
    <path d="M 23.410312 143.1 
L 23.410312 7.2 
" style="fill: none; stroke: #000000; stroke-width: 0.8; stroke-linejoin: miter; stroke-linecap: square"/>
   </g>
   <g id="patch_4">
    <path d="M 162.910313 143.1 
L 162.910313 7.2 
" style="fill: none; stroke: #000000; stroke-width: 0.8; stroke-linejoin: miter; stroke-linecap: square"/>
   </g>
   <g id="patch_5">
    <path d="M 23.410312 143.1 
L 162.910313 143.1 
" style="fill: none; stroke: #000000; stroke-width: 0.8; stroke-linejoin: miter; stroke-linecap: square"/>
   </g>
   <g id="patch_6">
    <path d="M 23.410312 7.2 
L 162.910313 7.2 
" style="fill: none; stroke: #000000; stroke-width: 0.8; stroke-linejoin: miter; stroke-linecap: square"/>
   </g>
  </g>
 </g>
 <defs>
  <clipPath id="p267987790f">
   <rect x="23.410312" y="7.2" width="139.5" height="135.9"/>
  </clipPath>
 </defs>
</svg>
