<?xml version="1.0" encoding="utf-8" standalone="no"?>
<!DOCTYPE svg PUBLIC "-//W3C//DTD SVG 1.1//EN"
  "http://www.w3.org/Graphics/SVG/1.1/DTD/svg11.dtd">
<svg xmlns:xlink="http://www.w3.org/1999/xlink" width="170.110313pt" height="177.752813pt" viewBox="0 0 170.110313 177.752813" xmlns="http://www.w3.org/2000/svg" version="1.1">
 <metadata>
  <rdf:RDF xmlns:dc="http://purl.org/dc/elements/1.1/" xmlns:cc="http://creativecommons.org/ns#" xmlns:rdf="http://www.w3.org/1999/02/22-rdf-syntax-ns#">
   <cc:Work>
    <dc:type rdf:resource="http://purl.org/dc/dcmitype/StillImage"/>
    <dc:date>2023-02-25T15:21:29.104984</dc:date>
    <dc:format>image/svg+xml</dc:format>
    <dc:creator>
     <cc:Agent>
      <dc:title>Matplotlib v3.5.2, https://matplotlib.org/</dc:title>
     </cc:Agent>
    </dc:creator>
   </cc:Work>
  </rdf:RDF>
 </metadata>
 <defs>
  <style type="text/css">*{stroke-linejoin: round; stroke-linecap: butt}</style>
 </defs>
 <g id="figure_1">
  <g id="patch_1">
   <path d="M 0 177.752813 
L 170.110313 177.752813 
L 170.110313 0 
L 0 0 
z
" style="fill: #ffffff"/>
  </g>
  <g id="axes_1">
   <g id="patch_2">
    <path d="M 23.410312 143.1 
L 162.910313 143.1 
L 162.910313 7.2 
L 23.410312 7.2 
z
" style="fill: #ffffff"/>
   </g>
   <g id="matplotlib.axis_1">
    <g id="xtick_1">
     <g id="line2d_1">
      <defs>
       <path id="m2f294eea26" d="M 0 0 
L 0 3.5 
" style="stroke: #000000; stroke-width: 0.8"/>
      </defs>
      <g>
       <use xlink:href="#m2f294eea26" x="58.285313" y="143.1" style="stroke: #000000; stroke-width: 0.8"/>
      </g>
     </g>
     <g id="text_1">
      <!-- 20 -->
      <g transform="translate(53.195312 156.17875)scale(0.08 -0.08)">
       <defs>
        <path id="DejaVuSans-32" d="M 1228 531 
L 3431 531 
L 3431 0 
L 469 0 
L 469 531 
Q 828 903 1448 1529 
Q 2069 2156 2228 2338 
Q 2531 2678 2651 2914 
Q 2772 3150 2772 3378 
Q 2772 3750 2511 3984 
Q 2250 4219 1831 4219 
Q 1534 4219 1204 4116 
Q 875 4013 500 3803 
L 500 4441 
Q 881 4594 1212 4672 
Q 1544 4750 1819 4750 
Q 2544 4750 2975 4387 
Q 3406 4025 3406 3419 
Q 3406 3131 3298 2873 
Q 3191 2616 2906 2266 
Q 2828 2175 2409 1742 
Q 1991 1309 1228 531 
z
" transform="scale(0.015625)"/>
        <path id="DejaVuSans-30" d="M 2034 4250 
Q 1547 4250 1301 3770 
Q 1056 3291 1056 2328 
Q 1056 1369 1301 889 
Q 1547 409 2034 409 
Q 2525 409 2770 889 
Q 3016 1369 3016 2328 
Q 3016 3291 2770 3770 
Q 2525 4250 2034 4250 
z
M 2034 4750 
Q 2819 4750 3233 4129 
Q 3647 3509 3647 2328 
Q 3647 1150 3233 529 
Q 2819 -91 2034 -91 
Q 1250 -91 836 529 
Q 422 1150 422 2328 
Q 422 3509 836 4129 
Q 1250 4750 2034 4750 
z
" transform="scale(0.015625)"/>
       </defs>
       <use xlink:href="#DejaVuSans-32"/>
       <use xlink:href="#DejaVuSans-30" x="63.623047"/>
      </g>
     </g>
    </g>
    <g id="xtick_2">
     <g id="line2d_2">
      <g>
       <use xlink:href="#m2f294eea26" x="104.785313" y="143.1" style="stroke: #000000; stroke-width: 0.8"/>
      </g>
     </g>
     <g id="text_2">
      <!-- 40 -->
      <g transform="translate(99.695312 156.17875)scale(0.08 -0.08)">
       <defs>
        <path id="DejaVuSans-34" d="M 2419 4116 
L 825 1625 
L 2419 1625 
L 2419 4116 
z
M 2253 4666 
L 3047 4666 
L 3047 1625 
L 3713 1625 
L 3713 1100 
L 3047 1100 
L 3047 0 
L 2419 0 
L 2419 1100 
L 313 1100 
L 313 1709 
L 2253 4666 
z
" transform="scale(0.015625)"/>
       </defs>
       <use xlink:href="#DejaVuSans-34"/>
       <use xlink:href="#DejaVuSans-30" x="63.623047"/>
      </g>
     </g>
    </g>
    <g id="xtick_3">
     <g id="line2d_3">
      <g>
       <use xlink:href="#m2f294eea26" x="151.285313" y="143.1" style="stroke: #000000; stroke-width: 0.8"/>
      </g>
     </g>
     <g id="text_3">
      <!-- 60 -->
      <g transform="translate(146.195312 156.17875)scale(0.08 -0.08)">
       <defs>
        <path id="DejaVuSans-36" d="M 2113 2584 
Q 1688 2584 1439 2293 
Q 1191 2003 1191 1497 
Q 1191 994 1439 701 
Q 1688 409 2113 409 
Q 2538 409 2786 701 
Q 3034 994 3034 1497 
Q 3034 2003 2786 2293 
Q 2538 2584 2113 2584 
z
M 3366 4563 
L 3366 3988 
Q 3128 4100 2886 4159 
Q 2644 4219 2406 4219 
Q 1781 4219 1451 3797 
Q 1122 3375 1075 2522 
Q 1259 2794 1537 2939 
Q 1816 3084 2150 3084 
Q 2853 3084 3261 2657 
Q 3669 2231 3669 1497 
Q 3669 778 3244 343 
Q 2819 -91 2113 -91 
Q 1303 -91 875 529 
Q 447 1150 447 2328 
Q 447 3434 972 4092 
Q 1497 4750 2381 4750 
Q 2619 4750 2861 4703 
Q 3103 4656 3366 4563 
z
" transform="scale(0.015625)"/>
       </defs>
       <use xlink:href="#DejaVuSans-36"/>
       <use xlink:href="#DejaVuSans-30" x="63.623047"/>
      </g>
     </g>
    </g>
    <g id="xtick_4">
     <g id="line2d_4">
      <defs>
       <path id="m169477b1ea" d="M 0 0 
L 0 2 
" style="stroke: #000000; stroke-width: 0.6"/>
      </defs>
      <g>
       <use xlink:href="#m169477b1ea" x="23.410312" y="143.1" style="stroke: #000000; stroke-width: 0.6"/>
      </g>
     </g>
    </g>
    <g id="xtick_5">
     <g id="line2d_5">
      <g>
       <use xlink:href="#m169477b1ea" x="29.222812" y="143.1" style="stroke: #000000; stroke-width: 0.6"/>
      </g>
     </g>
    </g>
    <g id="xtick_6">
     <g id="line2d_6">
      <g>
       <use xlink:href="#m169477b1ea" x="35.035313" y="143.1" style="stroke: #000000; stroke-width: 0.6"/>
      </g>
     </g>
    </g>
    <g id="xtick_7">
     <g id="line2d_7">
      <g>
       <use xlink:href="#m169477b1ea" x="40.847813" y="143.1" style="stroke: #000000; stroke-width: 0.6"/>
      </g>
     </g>
    </g>
    <g id="xtick_8">
     <g id="line2d_8">
      <g>
       <use xlink:href="#m169477b1ea" x="46.660313" y="143.1" style="stroke: #000000; stroke-width: 0.6"/>
      </g>
     </g>
    </g>
    <g id="xtick_9">
     <g id="line2d_9">
      <g>
       <use xlink:href="#m169477b1ea" x="52.472813" y="143.1" style="stroke: #000000; stroke-width: 0.6"/>
      </g>
     </g>
    </g>
    <g id="xtick_10">
     <g id="line2d_10">
      <g>
       <use xlink:href="#m169477b1ea" x="64.097813" y="143.1" style="stroke: #000000; stroke-width: 0.6"/>
      </g>
     </g>
    </g>
    <g id="xtick_11">
     <g id="line2d_11">
      <g>
       <use xlink:href="#m169477b1ea" x="69.910313" y="143.1" style="stroke: #000000; stroke-width: 0.6"/>
      </g>
     </g>
    </g>
    <g id="xtick_12">
     <g id="line2d_12">
      <g>
       <use xlink:href="#m169477b1ea" x="75.722813" y="143.1" style="stroke: #000000; stroke-width: 0.6"/>
      </g>
     </g>
    </g>
    <g id="xtick_13">
     <g id="line2d_13">
      <g>
       <use xlink:href="#m169477b1ea" x="81.535313" y="143.1" style="stroke: #000000; stroke-width: 0.6"/>
      </g>
     </g>
    </g>
    <g id="xtick_14">
     <g id="line2d_14">
      <g>
       <use xlink:href="#m169477b1ea" x="87.347813" y="143.1" style="stroke: #000000; stroke-width: 0.6"/>
      </g>
     </g>
    </g>
    <g id="xtick_15">
     <g id="line2d_15">
      <g>
       <use xlink:href="#m169477b1ea" x="93.160313" y="143.1" style="stroke: #000000; stroke-width: 0.6"/>
      </g>
     </g>
    </g>
    <g id="xtick_16">
     <g id="line2d_16">
      <g>
       <use xlink:href="#m169477b1ea" x="98.972813" y="143.1" style="stroke: #000000; stroke-width: 0.6"/>
      </g>
     </g>
    </g>
    <g id="xtick_17">
     <g id="line2d_17">
      <g>
       <use xlink:href="#m169477b1ea" x="110.597813" y="143.1" style="stroke: #000000; stroke-width: 0.6"/>
      </g>
     </g>
    </g>
    <g id="xtick_18">
     <g id="line2d_18">
      <g>
       <use xlink:href="#m169477b1ea" x="116.410313" y="143.1" style="stroke: #000000; stroke-width: 0.6"/>
      </g>
     </g>
    </g>
    <g id="xtick_19">
     <g id="line2d_19">
      <g>
       <use xlink:href="#m169477b1ea" x="122.222813" y="143.1" style="stroke: #000000; stroke-width: 0.6"/>
      </g>
     </g>
    </g>
    <g id="xtick_20">
     <g id="line2d_20">
      <g>
       <use xlink:href="#m169477b1ea" x="128.035313" y="143.1" style="stroke: #000000; stroke-width: 0.6"/>
      </g>
     </g>
    </g>
    <g id="xtick_21">
     <g id="line2d_21">
      <g>
       <use xlink:href="#m169477b1ea" x="133.847813" y="143.1" style="stroke: #000000; stroke-width: 0.6"/>
      </g>
     </g>
    </g>
    <g id="xtick_22">
     <g id="line2d_22">
      <g>
       <use xlink:href="#m169477b1ea" x="139.660313" y="143.1" style="stroke: #000000; stroke-width: 0.6"/>
      </g>
     </g>
    </g>
    <g id="xtick_23">
     <g id="line2d_23">
      <g>
       <use xlink:href="#m169477b1ea" x="145.472813" y="143.1" style="stroke: #000000; stroke-width: 0.6"/>
      </g>
     </g>
    </g>
    <g id="xtick_24">
     <g id="line2d_24">
      <g>
       <use xlink:href="#m169477b1ea" x="157.097813" y="143.1" style="stroke: #000000; stroke-width: 0.6"/>
      </g>
     </g>
    </g>
    <g id="xtick_25">
     <g id="line2d_25">
      <g>
       <use xlink:href="#m169477b1ea" x="162.910313" y="143.1" style="stroke: #000000; stroke-width: 0.6"/>
      </g>
     </g>
    </g>
    <g id="text_4">
     <!-- Two Theta (degrees) -->
     <g transform="translate(47.344688 168.681094)scale(0.09 -0.09)">
      <defs>
       <path id="DejaVuSans-54" d="M -19 4666 
L 3928 4666 
L 3928 4134 
L 2272 4134 
L 2272 0 
L 1638 0 
L 1638 4134 
L -19 4134 
L -19 4666 
z
" transform="scale(0.015625)"/>
       <path id="DejaVuSans-77" d="M 269 3500 
L 844 3500 
L 1563 769 
L 2278 3500 
L 2956 3500 
L 3675 769 
L 4391 3500 
L 4966 3500 
L 4050 0 
L 3372 0 
L 2619 2869 
L 1863 0 
L 1184 0 
L 269 3500 
z
" transform="scale(0.015625)"/>
       <path id="DejaVuSans-6f" d="M 1959 3097 
Q 1497 3097 1228 2736 
Q 959 2375 959 1747 
Q 959 1119 1226 758 
Q 1494 397 1959 397 
Q 2419 397 2687 759 
Q 2956 1122 2956 1747 
Q 2956 2369 2687 2733 
Q 2419 3097 1959 3097 
z
M 1959 3584 
Q 2709 3584 3137 3096 
Q 3566 2609 3566 1747 
Q 3566 888 3137 398 
Q 2709 -91 1959 -91 
Q 1206 -91 779 398 
Q 353 888 353 1747 
Q 353 2609 779 3096 
Q 1206 3584 1959 3584 
z
" transform="scale(0.015625)"/>
       <path id="DejaVuSans-20" transform="scale(0.015625)"/>
       <path id="DejaVuSans-68" d="M 3513 2113 
L 3513 0 
L 2938 0 
L 2938 2094 
Q 2938 2591 2744 2837 
Q 2550 3084 2163 3084 
Q 1697 3084 1428 2787 
Q 1159 2491 1159 1978 
L 1159 0 
L 581 0 
L 581 4863 
L 1159 4863 
L 1159 2956 
Q 1366 3272 1645 3428 
Q 1925 3584 2291 3584 
Q 2894 3584 3203 3211 
Q 3513 2838 3513 2113 
z
" transform="scale(0.015625)"/>
       <path id="DejaVuSans-65" d="M 3597 1894 
L 3597 1613 
L 953 1613 
Q 991 1019 1311 708 
Q 1631 397 2203 397 
Q 2534 397 2845 478 
Q 3156 559 3463 722 
L 3463 178 
Q 3153 47 2828 -22 
Q 2503 -91 2169 -91 
Q 1331 -91 842 396 
Q 353 884 353 1716 
Q 353 2575 817 3079 
Q 1281 3584 2069 3584 
Q 2775 3584 3186 3129 
Q 3597 2675 3597 1894 
z
M 3022 2063 
Q 3016 2534 2758 2815 
Q 2500 3097 2075 3097 
Q 1594 3097 1305 2825 
Q 1016 2553 972 2059 
L 3022 2063 
z
" transform="scale(0.015625)"/>
       <path id="DejaVuSans-74" d="M 1172 4494 
L 1172 3500 
L 2356 3500 
L 2356 3053 
L 1172 3053 
L 1172 1153 
Q 1172 725 1289 603 
Q 1406 481 1766 481 
L 2356 481 
L 2356 0 
L 1766 0 
Q 1100 0 847 248 
Q 594 497 594 1153 
L 594 3053 
L 172 3053 
L 172 3500 
L 594 3500 
L 594 4494 
L 1172 4494 
z
" transform="scale(0.015625)"/>
       <path id="DejaVuSans-61" d="M 2194 1759 
Q 1497 1759 1228 1600 
Q 959 1441 959 1056 
Q 959 750 1161 570 
Q 1363 391 1709 391 
Q 2188 391 2477 730 
Q 2766 1069 2766 1631 
L 2766 1759 
L 2194 1759 
z
M 3341 1997 
L 3341 0 
L 2766 0 
L 2766 531 
Q 2569 213 2275 61 
Q 1981 -91 1556 -91 
Q 1019 -91 701 211 
Q 384 513 384 1019 
Q 384 1609 779 1909 
Q 1175 2209 1959 2209 
L 2766 2209 
L 2766 2266 
Q 2766 2663 2505 2880 
Q 2244 3097 1772 3097 
Q 1472 3097 1187 3025 
Q 903 2953 641 2809 
L 641 3341 
Q 956 3463 1253 3523 
Q 1550 3584 1831 3584 
Q 2591 3584 2966 3190 
Q 3341 2797 3341 1997 
z
" transform="scale(0.015625)"/>
       <path id="DejaVuSans-28" d="M 1984 4856 
Q 1566 4138 1362 3434 
Q 1159 2731 1159 2009 
Q 1159 1288 1364 580 
Q 1569 -128 1984 -844 
L 1484 -844 
Q 1016 -109 783 600 
Q 550 1309 550 2009 
Q 550 2706 781 3412 
Q 1013 4119 1484 4856 
L 1984 4856 
z
" transform="scale(0.015625)"/>
       <path id="DejaVuSans-64" d="M 2906 2969 
L 2906 4863 
L 3481 4863 
L 3481 0 
L 2906 0 
L 2906 525 
Q 2725 213 2448 61 
Q 2172 -91 1784 -91 
Q 1150 -91 751 415 
Q 353 922 353 1747 
Q 353 2572 751 3078 
Q 1150 3584 1784 3584 
Q 2172 3584 2448 3432 
Q 2725 3281 2906 2969 
z
M 947 1747 
Q 947 1113 1208 752 
Q 1469 391 1925 391 
Q 2381 391 2643 752 
Q 2906 1113 2906 1747 
Q 2906 2381 2643 2742 
Q 2381 3103 1925 3103 
Q 1469 3103 1208 2742 
Q 947 2381 947 1747 
z
" transform="scale(0.015625)"/>
       <path id="DejaVuSans-67" d="M 2906 1791 
Q 2906 2416 2648 2759 
Q 2391 3103 1925 3103 
Q 1463 3103 1205 2759 
Q 947 2416 947 1791 
Q 947 1169 1205 825 
Q 1463 481 1925 481 
Q 2391 481 2648 825 
Q 2906 1169 2906 1791 
z
M 3481 434 
Q 3481 -459 3084 -895 
Q 2688 -1331 1869 -1331 
Q 1566 -1331 1297 -1286 
Q 1028 -1241 775 -1147 
L 775 -588 
Q 1028 -725 1275 -790 
Q 1522 -856 1778 -856 
Q 2344 -856 2625 -561 
Q 2906 -266 2906 331 
L 2906 616 
Q 2728 306 2450 153 
Q 2172 0 1784 0 
Q 1141 0 747 490 
Q 353 981 353 1791 
Q 353 2603 747 3093 
Q 1141 3584 1784 3584 
Q 2172 3584 2450 3431 
Q 2728 3278 2906 2969 
L 2906 3500 
L 3481 3500 
L 3481 434 
z
" transform="scale(0.015625)"/>
       <path id="DejaVuSans-72" d="M 2631 2963 
Q 2534 3019 2420 3045 
Q 2306 3072 2169 3072 
Q 1681 3072 1420 2755 
Q 1159 2438 1159 1844 
L 1159 0 
L 581 0 
L 581 3500 
L 1159 3500 
L 1159 2956 
Q 1341 3275 1631 3429 
Q 1922 3584 2338 3584 
Q 2397 3584 2469 3576 
Q 2541 3569 2628 3553 
L 2631 2963 
z
" transform="scale(0.015625)"/>
       <path id="DejaVuSans-73" d="M 2834 3397 
L 2834 2853 
Q 2591 2978 2328 3040 
Q 2066 3103 1784 3103 
Q 1356 3103 1142 2972 
Q 928 2841 928 2578 
Q 928 2378 1081 2264 
Q 1234 2150 1697 2047 
L 1894 2003 
Q 2506 1872 2764 1633 
Q 3022 1394 3022 966 
Q 3022 478 2636 193 
Q 2250 -91 1575 -91 
Q 1294 -91 989 -36 
Q 684 19 347 128 
L 347 722 
Q 666 556 975 473 
Q 1284 391 1588 391 
Q 1994 391 2212 530 
Q 2431 669 2431 922 
Q 2431 1156 2273 1281 
Q 2116 1406 1581 1522 
L 1381 1569 
Q 847 1681 609 1914 
Q 372 2147 372 2553 
Q 372 3047 722 3315 
Q 1072 3584 1716 3584 
Q 2034 3584 2315 3537 
Q 2597 3491 2834 3397 
z
" transform="scale(0.015625)"/>
       <path id="DejaVuSans-29" d="M 513 4856 
L 1013 4856 
Q 1481 4119 1714 3412 
Q 1947 2706 1947 2009 
Q 1947 1309 1714 600 
Q 1481 -109 1013 -844 
L 513 -844 
Q 928 -128 1133 580 
Q 1338 1288 1338 2009 
Q 1338 2731 1133 3434 
Q 928 4138 513 4856 
z
" transform="scale(0.015625)"/>
      </defs>
      <use xlink:href="#DejaVuSans-54"/>
      <use xlink:href="#DejaVuSans-77" x="44.583984"/>
      <use xlink:href="#DejaVuSans-6f" x="126.371094"/>
      <use xlink:href="#DejaVuSans-20" x="187.552734"/>
      <use xlink:href="#DejaVuSans-54" x="219.339844"/>
      <use xlink:href="#DejaVuSans-68" x="280.423828"/>
      <use xlink:href="#DejaVuSans-65" x="343.802734"/>
      <use xlink:href="#DejaVuSans-74" x="405.326172"/>
      <use xlink:href="#DejaVuSans-61" x="444.535156"/>
      <use xlink:href="#DejaVuSans-20" x="505.814453"/>
      <use xlink:href="#DejaVuSans-28" x="537.601562"/>
      <use xlink:href="#DejaVuSans-64" x="576.615234"/>
      <use xlink:href="#DejaVuSans-65" x="640.091797"/>
      <use xlink:href="#DejaVuSans-67" x="701.615234"/>
      <use xlink:href="#DejaVuSans-72" x="765.091797"/>
      <use xlink:href="#DejaVuSans-65" x="803.955078"/>
      <use xlink:href="#DejaVuSans-65" x="865.478516"/>
      <use xlink:href="#DejaVuSans-73" x="927.001953"/>
      <use xlink:href="#DejaVuSans-29" x="979.101562"/>
     </g>
    </g>
   </g>
   <g id="matplotlib.axis_2">
    <g id="ytick_1">
     <g id="line2d_26"/>
    </g>
    <g id="ytick_2">
     <g id="line2d_27"/>
    </g>
    <g id="ytick_3">
     <g id="line2d_28"/>
    </g>
    <g id="ytick_4">
     <g id="line2d_29"/>
    </g>
    <g id="ytick_5">
     <g id="line2d_30"/>
    </g>
    <g id="text_5">
     <!-- Intensity -->
     <g transform="translate(14.038594 94.73625)rotate(-90)scale(0.09 -0.09)">
      <defs>
       <path id="DejaVuSans-49" d="M 628 4666 
L 1259 4666 
L 1259 0 
L 628 0 
L 628 4666 
z
" transform="scale(0.015625)"/>
       <path id="DejaVuSans-6e" d="M 3513 2113 
L 3513 0 
L 2938 0 
L 2938 2094 
Q 2938 2591 2744 2837 
Q 2550 3084 2163 3084 
Q 1697 3084 1428 2787 
Q 1159 2491 1159 1978 
L 1159 0 
L 581 0 
L 581 3500 
L 1159 3500 
L 1159 2956 
Q 1366 3272 1645 3428 
Q 1925 3584 2291 3584 
Q 2894 3584 3203 3211 
Q 3513 2838 3513 2113 
z
" transform="scale(0.015625)"/>
       <path id="DejaVuSans-69" d="M 603 3500 
L 1178 3500 
L 1178 0 
L 603 0 
L 603 3500 
z
M 603 4863 
L 1178 4863 
L 1178 4134 
L 603 4134 
L 603 4863 
z
" transform="scale(0.015625)"/>
       <path id="DejaVuSans-79" d="M 2059 -325 
Q 1816 -950 1584 -1140 
Q 1353 -1331 966 -1331 
L 506 -1331 
L 506 -850 
L 844 -850 
Q 1081 -850 1212 -737 
Q 1344 -625 1503 -206 
L 1606 56 
L 191 3500 
L 800 3500 
L 1894 763 
L 2988 3500 
L 3597 3500 
L 2059 -325 
z
" transform="scale(0.015625)"/>
      </defs>
      <use xlink:href="#DejaVuSans-49"/>
      <use xlink:href="#DejaVuSans-6e" x="29.492188"/>
      <use xlink:href="#DejaVuSans-74" x="92.871094"/>
      <use xlink:href="#DejaVuSans-65" x="132.080078"/>
      <use xlink:href="#DejaVuSans-6e" x="193.603516"/>
      <use xlink:href="#DejaVuSans-73" x="256.982422"/>
      <use xlink:href="#DejaVuSans-69" x="309.082031"/>
      <use xlink:href="#DejaVuSans-74" x="336.865234"/>
      <use xlink:href="#DejaVuSans-79" x="376.074219"/>
     </g>
    </g>
   </g>
   <g id="line2d_31">
    <path d="M 23.428285 16.285995 
L 23.489341 13.377273 
L 23.550397 15.107461 
L 23.79462 22.103438 
L 23.855676 23.156596 
L 23.916732 22.780468 
L 23.977788 29.350168 
L 24.038844 25.864717 
L 24.222011 30.704228 
L 24.283067 30.403326 
L 24.466234 36.621973 
L 24.52729 33.6631 
L 24.588346 33.763401 
L 24.649402 39.330093 
L 24.710458 35.092386 
L 25.015737 40.383251 
L 25.076792 41.185657 
L 25.137848 40.659078 
L 25.198904 39.305018 
L 25.25996 42.21374 
L 25.321016 39.480544 
L 25.382071 41.060281 
L 25.504183 46.025168 
L 25.565239 45.949943 
L 25.748406 48.106409 
L 25.809462 43.542725 
L 25.870518 49.56077 
L 25.931574 49.51062 
L 25.99263 47.078326 
L 26.053685 47.278928 
L 26.114741 51.316033 
L 26.175797 49.761371 
L 26.297909 49.184642 
L 26.42002 53.322048 
L 26.481076 50.939905 
L 26.542132 53.748326 
L 26.603188 53.447424 
L 26.725299 52.293966 
L 26.847411 56.882725 
L 26.908467 53.873702 
L 26.969523 54.024154 
L 27.030578 54.475507 
L 27.091634 54.074304 
L 27.15269 58.011109 
L 27.213746 54.776409 
L 27.274802 57.359154 
L 27.519025 59.114417 
L 27.641137 58.487537 
L 27.763248 62.349116 
L 27.88536 58.88874 
L 28.068527 61.571785 
L 28.129583 59.916823 
L 28.190639 64.605883 
L 28.251695 61.922838 
L 28.312751 62.349116 
L 28.434862 65.50859 
L 28.61803 61.747312 
L 28.862253 64.856635 
L 28.923309 61.897763 
L 28.984365 63.101372 
L 29.04542 65.157537 
L 29.106476 63.928853 
L 29.167532 63.728252 
L 29.411755 68.89374 
L 29.472811 67.514605 
L 29.533867 67.815507 
L 29.594923 69.420319 
L 29.717034 66.411297 
L 29.839146 68.79344 
L 29.900202 66.962951 
L 29.961258 69.896748 
L 30.022313 69.871673 
L 30.083369 68.141485 
L 30.144425 69.370169 
L 30.205481 69.645996 
L 30.266537 69.47047 
L 30.327592 71.576786 
L 30.449704 67.464455 
L 30.51076 70.498553 
L 30.571816 68.918816 
L 30.632872 69.971974 
L 30.693927 69.47047 
L 30.754983 68.291936 
L 30.999206 73.006071 
L 31.060262 70.523628 
L 31.24343 73.984004 
L 31.304485 73.407274 
L 31.365541 74.585808 
L 31.426597 72.604868 
L 31.487653 74.736259 
L 31.548709 72.579793 
L 31.609765 74.711184 
L 31.67082 73.407274 
L 31.731876 73.332049 
L 31.792932 73.808477 
L 31.853988 71.702162 
L 31.915044 76.692124 
L 31.976099 75.839568 
L 32.037155 74.034154 
L 32.098211 76.290921 
L 32.220323 74.309981 
L 32.281378 75.889718 
L 32.342434 75.187613 
L 32.40349 74.15953 
L 32.586658 78.723214 
L 32.708769 74.936861 
L 32.830881 77.344079 
L 32.952992 74.20968 
L 33.075104 79.575771 
L 33.13616 77.268853 
L 33.197216 75.388214 
L 33.258272 78.873666 
L 33.319327 77.143477 
L 33.380383 78.472462 
L 33.441439 78.422312 
L 33.502495 77.344079 
L 33.563551 77.820508 
L 33.624606 78.071259 
L 33.685662 75.739267 
L 33.746718 81.230733 
L 33.807774 78.547688 
L 33.86883 76.667049 
L 33.929885 79.450395 
L 33.990941 78.447387 
L 34.051997 77.644981 
L 34.235165 80.353102 
L 34.357276 75.939868 
L 34.540444 80.353102 
L 34.601499 80.027124 
L 34.662555 80.528628 
L 34.845723 77.770357 
L 34.906779 80.277876 
L 34.967834 80.252801 
L 35.02889 79.224718 
L 35.089946 79.676072 
L 35.212058 84.84156 
L 35.273113 81.50656 
L 35.334169 83.989004 
L 35.395225 82.559718 
L 35.456281 83.688102 
L 35.517337 83.587801 
L 35.578392 83.086297 
L 35.639448 80.553703 
L 35.700504 82.308966 
L 35.883672 83.913778 
L 35.944727 81.957914 
L 36.005783 82.509568 
L 36.066839 82.509568 
L 36.127895 83.136448 
L 36.188951 80.854605 
L 36.372118 85.618891 
L 36.433174 81.782387 
L 36.49423 84.390207 
L 36.555286 85.719192 
L 36.616341 82.334042 
L 36.677397 87.424305 
L 36.738453 85.694117 
L 36.799509 86.270846 
L 36.860565 83.136448 
L 36.92162 85.518591 
L 36.982676 83.938854 
L 37.043732 85.819493 
L 37.104788 82.18359 
L 37.165844 82.935846 
L 37.226899 87.649982 
L 37.287955 85.593816 
L 37.349011 83.938854 
L 37.410067 88.903741 
L 37.471123 87.073252 
L 37.532179 83.136448 
L 37.593234 86.120395 
L 37.65429 86.045169 
L 37.715346 88.878666 
L 37.776402 86.847576 
L 37.837458 87.925809 
L 37.898513 85.744267 
L 37.959569 86.195621 
L 38.020625 87.424305 
L 38.081681 83.713177 
L 38.203792 88.703139 
L 38.264848 86.998027 
L 38.325904 87.775357 
L 38.38696 89.004042 
L 38.448016 87.750282 
L 38.509072 89.129418 
L 38.570127 86.998027 
L 38.631183 87.725207 
L 38.814351 91.912764 
L 38.997518 87.048177 
L 39.058574 89.405245 
L 39.11963 89.029117 
L 39.180686 88.402237 
L 39.241741 88.527613 
L 39.302797 89.179568 
L 39.363853 86.747275 
L 39.424909 90.533628 
L 39.485965 90.483478 
L 39.54702 90.984982 
L 39.669132 88.301936 
L 39.730188 88.552688 
L 39.913355 92.364117 
L 39.974411 89.154493 
L 40.035467 89.505546 
L 40.096523 91.035132 
L 40.157579 89.756297 
L 40.401802 92.614869 
L 40.462858 92.439343 
L 40.523913 90.282876 
L 40.584969 90.909756 
L 40.646025 94.169531 
L 40.707081 90.859606 
L 40.768137 91.837538 
L 40.829193 93.016072 
L 40.951304 90.73423 
L 41.01236 91.862613 
L 41.073416 91.361109 
L 41.195527 92.188591 
L 41.256583 91.436335 
L 41.317639 92.013064 
L 41.378695 92.464418 
L 41.439751 91.687087 
L 41.561862 94.370132 
L 41.622918 93.367125 
L 41.74503 96.05017 
L 41.806086 95.097313 
L 41.867141 95.799418 
L 41.928197 95.297914 
L 42.050309 92.063215 
L 42.111365 94.395207 
L 42.17242 92.740245 
L 42.233476 92.76532 
L 42.294532 92.990997 
L 42.355588 92.690094 
L 42.416644 91.085282 
L 42.4777 93.617876 
L 42.538755 91.636937 
L 42.721923 96.852576 
L 42.782979 94.244756 
L 42.844034 95.398215 
L 42.90509 95.097313 
L 43.027202 93.592801 
L 43.088258 95.949869 
L 43.149313 94.370132 
L 43.210369 94.194606 
L 43.271425 95.749267 
L 43.332481 95.172538 
L 43.454593 96.250771 
L 43.576704 94.946861 
L 43.63776 96.702125 
L 43.698816 93.367125 
L 43.820927 98.683065 
L 44.004095 94.169531 
L 44.065151 95.874643 
L 44.126206 95.122388 
L 44.187262 92.639944 
L 44.37043 96.77735 
L 44.492541 92.489493 
L 44.553597 94.620884 
L 44.614653 96.300922 
L 44.675709 95.924794 
L 44.736765 95.924794 
L 44.858876 98.75829 
L 44.919932 98.557689 
L 45.1031 93.291899 
L 45.225211 96.250771 
L 45.286267 93.367125 
L 45.408379 98.507538 
L 45.469434 95.974944 
L 45.53049 97.705132 
L 45.591546 96.476448 
L 45.652602 96.877651 
L 45.713658 97.730207 
L 45.774713 95.448365 
L 45.835769 96.852576 
L 45.896825 95.172538 
L 45.957881 97.253779 
L 46.018937 95.749267 
L 46.079993 95.974944 
L 46.141048 95.272839 
L 46.202104 98.306937 
L 46.26316 97.654982 
L 46.324216 98.457388 
L 46.385272 98.382162 
L 46.507383 95.172538 
L 46.568439 95.623892 
L 46.629495 96.752275 
L 46.690551 95.924794 
L 46.751607 93.693102 
L 46.812662 99.761298 
L 46.873718 97.053177 
L 46.934774 96.827501 
L 47.056886 95.122388 
L 47.117941 97.379155 
L 47.178997 96.77735 
L 47.362165 93.994004 
L 47.42322 96.125395 
L 47.484276 94.69611 
L 47.545332 93.617876 
L 47.606388 98.883666 
L 47.667444 95.548666 
L 47.7285 95.849568 
L 47.789555 97.303929 
L 47.850611 95.247764 
L 47.911667 98.256786 
L 47.972723 94.570734 
L 48.033779 96.526598 
L 48.094834 95.172538 
L 48.15589 96.300922 
L 48.216946 96.075245 
L 48.339058 94.11938 
L 48.400114 94.294907 
L 48.461169 96.376147 
L 48.522225 93.3922 
L 48.583281 95.222689 
L 48.644337 96.752275 
L 48.705393 96.651974 
L 48.766448 94.846561 
L 48.827504 96.401222 
L 48.88856 93.893704 
L 48.949616 95.623892 
L 49.010672 94.997012 
L 49.071727 96.300922 
L 49.132783 95.47344 
L 49.193839 93.642952 
L 49.254895 95.37314 
L 49.315951 95.222689 
L 49.377007 94.345057 
L 49.438062 95.498516 
L 49.499118 94.671034 
L 49.560174 94.395207 
L 49.62123 94.69611 
L 49.743341 93.542651 
L 49.865453 95.623892 
L 49.926509 92.063215 
L 49.987565 94.721185 
L 50.048621 94.79641 
L 50.109676 96.325997 
L 50.231788 92.389192 
L 50.3539 95.623892 
L 50.414955 95.448365 
L 50.537067 92.188591 
L 50.598123 94.721185 
L 50.659179 93.417275 
L 50.720234 93.668027 
L 50.78129 94.921786 
L 50.903402 92.339042 
L 50.964458 92.76532 
L 51.025514 93.291899 
L 51.086569 92.013064 
L 51.147625 93.141448 
L 51.269737 91.361109 
L 51.391848 92.965922 
L 51.452904 89.931824 
L 51.51396 91.310959 
L 51.575016 92.790395 
L 51.636072 91.536636 
L 51.697127 87.223703 
L 51.758183 89.981974 
L 51.819239 91.386185 
L 51.880295 91.210658 
L 52.002407 89.856598 
L 52.124518 92.414267 
L 52.24663 90.307952 
L 52.307686 90.207651 
L 52.490853 87.39923 
L 52.551909 90.358102 
L 52.612965 89.580771 
L 52.796132 87.975959 
L 52.857188 86.596824 
L 52.918244 87.298929 
L 52.9793 87.298929 
L 53.040355 87.675057 
L 53.284579 85.117387 
L 53.345634 88.80344 
L 53.40669 87.675057 
L 53.528802 85.092312 
L 53.589858 86.14547 
L 53.650914 84.565733 
L 53.773025 87.975959 
L 53.834081 83.763327 
L 53.895137 84.992012 
L 53.956193 85.368139 
L 54.017248 83.311974 
L 54.078304 84.239756 
L 54.13936 85.568741 
L 54.322528 81.50656 
L 54.383583 84.289906 
L 54.444639 82.484493 
L 54.505695 82.584793 
L 54.566751 79.575771 
L 54.627807 81.882688 
L 54.688862 83.311974 
L 54.749918 82.233741 
L 54.810974 80.077275 
L 54.87203 81.631936 
L 54.933086 79.826523 
L 54.994141 80.603854 
L 55.055197 79.976974 
L 55.177309 80.82953 
L 55.299421 75.789417 
L 55.421532 78.823515 
L 55.482588 77.644981 
L 55.543644 80.679079 
L 55.6047 76.466447 
L 55.665755 79.299944 
L 55.726811 78.698139 
L 55.848923 76.09032 
L 55.971035 79.274869 
L 56.03209 75.864643 
L 56.093146 75.990019 
L 56.154202 76.466447 
L 56.337369 72.780395 
L 56.459481 76.290921 
L 56.520537 75.087312 
L 56.581593 70.849605 
L 56.642648 73.507575 
L 56.76476 70.949906 
L 56.825816 74.435357 
L 57.008983 69.796447 
L 57.070039 69.495545 
L 57.253207 72.12844 
L 57.314262 70.272876 
L 57.375318 70.573778 
L 57.436374 72.103365 
L 57.619541 67.213703 
L 57.680597 67.940883 
L 57.741653 67.213703 
L 57.802709 67.715207 
L 57.863765 68.21671 
L 57.985876 65.809492 
L 58.107988 67.339079 
L 58.169044 66.86265 
L 58.352211 62.825545 
L 58.413267 65.358139 
L 58.474323 62.399267 
L 58.535379 63.953928 
L 58.65749 60.694154 
L 58.718546 63.602876 
L 58.779602 62.700169 
L 58.840658 64.054229 
L 59.084881 59.289943 
L 59.268048 63.226748 
L 59.329104 56.782424 
L 59.39016 58.036184 
L 59.451216 61.045206 
L 59.512272 58.537688 
L 59.573328 59.014116 
L 59.634383 61.145507 
L 59.695439 56.481522 
L 59.756495 58.236785 
L 59.817551 58.286936 
L 60.000718 55.052236 
L 60.061774 53.347123 
L 60.183886 59.089342 
L 60.244942 56.055244 
L 60.367053 53.372199 
L 60.428109 53.397274 
L 60.489165 53.071296 
L 60.550221 52.118439 
L 60.672332 55.202687 
L 60.8555 49.009116 
L 60.977611 52.745319 
L 61.160779 51.115432 
L 61.221835 52.795469 
L 61.28289 50.463477 
L 61.343946 50.689153 
L 61.466058 51.917838 
L 61.710281 47.304003 
L 61.771337 52.996071 
L 61.832393 49.987048 
L 62.01556 47.178627 
L 62.076616 48.056259 
L 62.259783 50.137499 
L 62.320839 47.855657 
L 62.381895 49.335093 
L 62.442951 51.441409 
L 62.504007 47.52968 
L 62.565062 49.686146 
L 62.626118 48.156559 
L 62.687174 50.2378 
L 62.809286 45.924868 
L 62.931397 49.836597 
L 62.992453 45.749341 
L 63.053509 47.504604 
L 63.114565 51.967988 
L 63.175621 49.686146 
L 63.236676 47.780432 
L 63.297732 49.661071 
L 63.358788 48.031183 
L 63.419844 48.482537 
L 63.4809 50.062274 
L 63.541955 49.711221 
L 63.603011 49.51062 
L 63.725123 46.27592 
L 63.786179 47.730281 
L 63.847235 46.501597 
L 64.091458 52.293966 
L 64.213569 48.833589 
L 64.274625 50.990056 
L 64.335681 48.683138 
L 64.396737 48.93389 
L 64.457793 48.88374 
L 64.518849 51.967988 
L 64.579904 48.708214 
L 64.64096 51.667086 
L 64.702016 49.284943 
L 64.763072 49.134492 
L 64.824128 51.792462 
L 64.885183 44.445431 
L 65.007295 52.444417 
L 65.129407 50.613928 
L 65.251518 54.099379 
L 65.312574 50.18765 
L 65.37363 53.798477 
L 65.434686 50.012123 
L 65.495742 50.2378 
L 65.556797 55.428364 
L 65.617853 51.240808 
L 65.739965 56.807499 
L 65.801021 50.91483 
L 65.862076 54.701184 
L 65.984188 51.993063 
L 66.045244 54.274905 
L 66.1063 54.099379 
L 66.167356 53.547725 
L 66.228411 54.19968 
L 66.350523 56.983026 
L 66.411579 54.149529 
L 66.472635 54.651033 
L 66.53369 54.676108 
L 66.594746 55.704191 
L 66.655802 54.550733 
L 66.777914 58.412312 
L 66.838969 54.851635 
L 66.900025 55.754342 
L 66.961081 58.136484 
L 67.022137 53.497575 
L 67.083193 59.415319 
L 67.144249 58.537688 
L 67.205304 59.841597 
L 67.26636 58.111409 
L 67.388472 62.123439 
L 67.510583 57.935883 
L 67.632695 59.841597 
L 67.693751 63.251823 
L 67.754807 62.22374 
L 67.876918 59.039191 
L 67.937974 61.697161 
L 67.99903 59.390244 
L 68.182197 65.408289 
L 68.243253 59.56577 
L 68.304309 62.324041 
L 68.365365 64.530658 
L 68.426421 64.279906 
L 68.487476 63.627951 
L 68.548532 65.959943 
L 68.609588 65.182613 
L 68.670644 63.828552 
L 68.7317 64.756334 
L 68.792756 64.931861 
L 68.853811 64.480507 
L 68.914867 66.988026 
L 68.975923 66.461447 
L 69.036979 66.988026 
L 69.098035 64.505582 
L 69.15909 64.681109 
L 69.220146 64.706184 
L 69.281202 70.523628 
L 69.342258 66.787425 
L 69.403314 66.210695 
L 69.464369 68.317011 
L 69.586481 64.355131 
L 69.647537 68.818515 
L 69.708593 68.592838 
L 69.769649 68.89374 
L 69.830704 67.53968 
L 69.89176 68.317011 
L 69.952816 67.639981 
L 70.013872 67.915808 
L 70.197039 72.028139 
L 70.258095 70.297951 
L 70.319151 71.100357 
L 70.380207 71.702162 
L 70.441263 71.175583 
L 70.502318 72.629944 
L 70.563374 71.351109 
L 70.62443 73.53265 
L 70.685486 72.604868 
L 70.746542 70.82453 
L 70.807597 74.084304 
L 70.868653 72.755319 
L 70.929709 73.908778 
L 70.990765 72.228741 
L 71.112876 76.993026 
L 71.173932 75.588816 
L 71.296044 73.031147 
L 71.479211 76.993026 
L 71.540267 75.212688 
L 71.601323 75.889718 
L 71.662379 75.889718 
L 71.723435 75.664041 
L 71.845546 77.544681 
L 71.906602 76.366147 
L 71.967658 78.397237 
L 72.028714 75.964944 
L 72.08977 77.218703 
L 72.333993 78.12141 
L 72.395049 80.453402 
L 72.456104 79.149493 
L 72.51716 77.970959 
L 72.578216 83.211673 
L 72.639272 81.40626 
L 72.761383 79.375169 
L 72.944551 81.857613 
L 73.005607 81.606861 
L 73.066663 80.227726 
L 73.188774 83.663027 
L 73.371942 79.375169 
L 73.494053 83.337049 
L 73.555109 81.957914 
L 73.616165 83.562726 
L 73.677221 80.453402 
L 73.738277 83.4875 
L 73.799332 83.086297 
L 73.860388 82.835545 
L 74.043556 84.289906 
L 74.104611 83.086297 
L 74.165667 84.089305 
L 74.226723 81.807463 
L 74.40989 85.969944 
L 74.470946 87.073252 
L 74.532002 84.891711 
L 74.593058 87.073252 
L 74.654114 85.267839 
L 74.71517 88.176561 
L 74.776225 87.048177 
L 74.837281 85.343064 
L 75.081504 88.828515 
L 75.203616 87.624906 
L 75.325728 89.38017 
L 75.386783 85.292914 
L 75.447839 87.574756 
L 75.508895 88.301936 
L 75.569951 91.887688 
L 75.631007 90.433327 
L 75.692063 89.355094 
L 75.753118 90.383177 
L 75.814174 89.505546 
L 75.87523 90.909756 
L 75.936286 87.875658 
L 75.997342 89.681072 
L 76.058397 94.11938 
L 76.119453 90.483478 
L 76.180509 90.483478 
L 76.241565 90.282876 
L 76.302621 92.514568 
L 76.363677 91.712162 
L 76.424732 92.03814 
L 76.485788 91.987989 
L 76.546844 93.342049 
L 76.668956 91.687087 
L 76.730011 92.639944 
L 76.791067 90.483478 
L 76.852123 91.46141 
L 76.974235 93.542651 
L 77.03529 92.389192 
L 77.157402 92.740245 
L 77.218458 95.899719 
L 77.279514 91.937839 
L 77.34057 92.965922 
L 77.462681 94.595809 
L 77.523737 93.342049 
L 77.584793 93.617876 
L 77.645849 94.896711 
L 77.706904 93.668027 
L 77.829016 96.77735 
L 77.890072 94.269831 
L 77.951128 94.921786 
L 78.073239 97.755283 
L 78.195351 95.573741 
L 78.256407 96.576749 
L 78.317463 95.47344 
L 78.378518 97.680057 
L 78.439574 97.329004 
L 78.622742 95.47344 
L 78.744853 98.306937 
L 78.805909 95.924794 
L 78.866965 97.128403 
L 78.928021 97.654982 
L 78.989077 95.222689 
L 79.050132 96.902726 
L 79.172244 100.312952 
L 79.355411 97.128403 
L 79.477523 99.034117 
L 79.538579 97.028102 
L 79.721746 101.692087 
L 79.782802 98.632914 
L 79.843858 100.513553 
L 79.904914 99.284869 
L 79.96597 100.814456 
L 80.027025 99.485471 
L 80.088081 102.369117 
L 80.149137 101.115358 
L 80.210193 100.037125 
L 80.332304 102.494493 
L 80.39336 101.967914 
L 80.454416 99.635922 
L 80.515472 103.848553 
L 80.576528 102.04314 
L 80.637584 99.936824 
L 80.698639 101.466411 
L 80.759695 101.566711 
L 80.881807 103.121373 
L 80.942863 100.363102 
L 81.003918 101.641937 
L 81.064974 101.667012 
L 81.12603 103.647952 
L 81.187086 101.215659 
L 81.248142 104.801411 
L 81.309197 103.497501 
L 81.492365 103.146448 
L 81.614477 104.625884 
L 81.736588 102.695095 
L 81.8587 103.422275 
L 82.041867 105.302914 
L 82.102923 106.080245 
L 82.163979 103.622877 
L 82.225035 104.726185 
L 82.286091 104.70111 
L 82.347146 106.030095 
L 82.408202 103.898704 
L 82.469258 105.002012 
L 82.59137 103.547651 
L 82.652425 104.450358 
L 82.713481 103.372125 
L 82.774537 104.826486 
L 82.835593 104.249756 
L 82.896649 104.450358 
L 83.01876 106.556674 
L 83.079816 105.127388 
L 83.140872 106.506523 
L 83.201928 106.130396 
L 83.262984 105.603817 
L 83.324039 105.729193 
L 83.385095 109.314945 
L 83.507207 105.453365 
L 83.568263 105.202614 
L 83.629318 108.537614 
L 83.690374 108.337012 
L 83.75143 108.011035 
L 83.812486 106.857576 
L 83.873542 107.785358 
L 83.934598 108.136411 
L 84.117765 105.077238 
L 84.300932 108.587764 
L 84.361988 108.562689 
L 84.423044 110.092275 
L 84.4841 106.932802 
L 84.545156 107.685057 
L 84.606211 106.406223 
L 84.667267 109.665997 
L 84.728323 108.66299 
L 84.911491 110.393178 
L 84.972546 109.089268 
L 85.033602 109.139418 
L 85.155714 109.816448 
L 85.277825 108.913742 
L 85.338881 106.531599 
L 85.460993 110.192576 
L 85.522049 109.741223 
L 85.583105 109.540621 
L 85.64416 110.593779 
L 85.705216 108.136411 
L 85.827328 112.649945 
L 86.010495 109.816448 
L 86.132607 110.844531 
L 86.193663 109.314945 
L 86.254718 112.349042 
L 86.315774 110.969907 
L 86.498942 113.051148 
L 86.559998 111.571712 
L 86.621053 111.897689 
L 86.682109 113.602802 
L 86.743165 111.245734 
L 86.804221 112.800396 
L 86.865277 111.822463 
L 86.926332 113.126373 
L 86.987388 110.69408 
L 87.048444 111.045133 
L 87.231612 113.251749 
L 87.292667 112.72517 
L 87.353723 113.452351 
L 87.414779 111.220659 
L 87.475835 111.672012 
L 87.536891 113.3019 
L 87.597946 110.493478 
L 87.659002 113.953854 
L 87.720058 112.850546 
L 87.903225 114.831486 
L 87.964281 114.65596 
L 88.025337 114.956862 
L 88.147449 113.151448 
L 88.330616 117.740208 
L 88.452728 113.4022 
L 88.635895 114.75626 
L 88.696951 114.154456 
L 88.758007 114.956862 
L 88.819063 113.678027 
L 88.880118 115.082238 
L 88.941174 115.007012 
L 89.00223 113.97893 
L 89.124342 115.95987 
L 89.185398 112.700095 
L 89.246453 113.35205 
L 89.307509 113.803403 
L 89.368565 115.884644 
L 89.429621 114.831486 
L 89.490677 116.110321 
L 89.551732 115.33299 
L 89.612788 116.110321 
L 89.673844 115.207614 
L 89.795956 117.163479 
L 89.857012 115.608817 
L 89.918067 116.185546 
L 89.979123 115.684042 
L 90.162291 117.815434 
L 90.223346 117.213629 
L 90.345458 114.781336 
L 90.46757 117.013027 
L 90.528625 116.035095 
L 90.650737 117.589757 
L 90.711793 116.987952 
L 90.772849 117.038103 
L 90.89496 118.943817 
L 91.078128 115.558667 
L 91.261295 118.71814 
L 91.383407 115.809418 
L 91.444463 115.934794 
L 91.566574 119.094268 
L 91.62763 118.71814 
L 91.688686 117.840509 
L 91.749742 117.940809 
L 91.810798 119.821449 
L 91.871853 117.113328 
L 91.932909 118.116336 
L 92.116077 118.843516 
L 92.177132 117.940809 
L 92.238188 118.216637 
L 92.299244 119.069193 
L 92.3603 118.943817 
L 92.421356 118.818441 
L 92.543467 119.896674 
L 92.604523 119.996975 
L 92.665579 120.473404 
L 92.726635 119.370095 
L 92.787691 120.423253 
L 92.848746 119.319945 
L 92.909802 120.573704 
L 92.970858 117.489456 
L 93.154026 121.175509 
L 93.215081 121.401185 
L 93.276137 119.269794 
L 93.337193 121.526561 
L 93.398249 120.047125 
L 93.459305 119.746223 
L 93.642472 121.125358 
L 93.703528 119.319945 
L 93.764584 119.996975 
L 93.886695 120.749231 
L 93.947751 120.047125 
L 94.008807 122.028065 
L 94.069863 119.796373 
L 94.130919 120.774306 
L 94.191974 122.554644 
L 94.25303 120.623855 
L 94.314086 121.125358 
L 94.375142 120.69908 
L 94.436198 121.025058 
L 94.497253 122.579719 
L 94.558309 122.504494 
L 94.680421 121.752238 
L 94.741477 123.507501 
L 94.924644 121.451336 
L 95.046756 123.482426 
L 95.107812 120.799381 
L 95.168867 122.00299 
L 95.229923 121.401185 
L 95.413091 122.328967 
L 95.535202 121.32596 
L 95.596258 122.00299 
L 95.657314 124.009005 
L 95.71837 123.005998 
L 95.840481 124.309907 
L 95.901537 122.354043 
L 95.962593 122.830471 
L 96.023649 122.62987 
L 96.267872 125.438291 
L 96.389984 122.103291 
L 96.451039 124.986937 
L 96.512095 124.836486 
L 96.573151 124.736186 
L 96.634207 123.758253 
L 96.695263 124.510509 
L 96.756319 124.259757 
L 96.817374 123.056148 
L 96.87843 124.560659 
L 96.939486 123.858554 
L 97.000542 124.535584 
L 97.061598 123.958855 
L 97.122653 124.811411 
L 97.183709 122.830471 
L 97.244765 123.231674 
L 97.305821 123.181524 
L 97.427933 125.889644 
L 97.488988 124.886637 
L 97.6111 125.814419 
L 97.672156 123.98393 
L 97.733212 125.663968 
L 97.794267 123.582727 
L 97.855323 124.686035 
L 97.916379 126.240697 
L 97.977435 125.613817 
L 98.038491 123.833479 
L 98.160602 126.366073 
L 98.465881 123.733178 
L 98.587993 126.391148 
L 98.77116 125.187539 
L 98.893272 125.663968 
L 98.954328 127.018028 
L 99.015384 125.137389 
L 99.07644 125.187539 
L 99.137495 125.062163 
L 99.381719 127.293855 
L 99.442774 127.118329 
L 99.50383 124.836486 
L 99.564886 126.340998 
L 99.686998 126.717125 
L 99.748053 125.312915 
L 99.809109 126.541599 
L 99.870165 126.240697 
L 99.931221 126.566674 
L 99.992277 125.96487 
L 100.053333 125.989945 
L 100.175444 127.720133 
L 100.297556 125.513516 
L 100.419667 128.121336 
L 100.480723 125.914719 
L 100.541779 127.243704 
L 100.663891 126.59175 
L 100.724946 128.422238 
L 100.786002 127.018028 
L 100.847058 127.31893 
L 100.908114 127.243704 
L 100.96917 125.563667 
L 101.030226 126.240697 
L 101.091281 127.619832 
L 101.152337 125.538592 
L 101.213393 126.666975 
L 101.457616 129.29987 
L 101.518672 127.093253 
L 101.579728 127.26878 
L 101.70184 126.842501 
L 101.762895 127.544607 
L 101.823951 126.967877 
L 102.007119 128.271787 
L 102.068174 128.04611 
L 102.12923 128.321938 
L 102.190286 127.26878 
L 102.251342 128.973892 
L 102.312398 128.497464 
L 102.373453 126.842501 
L 102.434509 129.049118 
L 102.495565 128.071186 
L 102.617677 129.776299 
L 102.800844 127.26878 
L 102.984012 129.600772 
L 103.106123 127.845509 
L 103.167179 127.920735 
L 103.289291 129.701073 
L 103.350347 128.347013 
L 103.411402 129.24972 
L 103.655626 128.196562 
L 103.777737 129.550622 
L 103.838793 129.500471 
L 104.02196 129.801374 
L 104.205128 128.121336 
L 104.266184 130.578705 
L 104.32724 129.92675 
L 104.388295 128.748216 
L 104.449351 129.475396 
L 104.510407 129.199569 
L 104.571463 127.619832 
L 104.693574 130.177502 
L 104.815686 128.372088 
L 104.998854 130.353028 
L 105.059909 128.62284 
L 105.120965 130.052126 
L 105.182021 129.751223 
L 105.243077 127.594757 
L 105.304133 128.62284 
L 105.365188 127.845509 
L 105.426244 130.277802 
L 105.4873 130.02705 
L 105.609412 128.522539 
L 105.670467 130.979908 
L 105.731523 129.475396 
L 105.792579 130.553629 
L 105.853635 127.419231 
L 105.914691 128.422238 
L 105.975747 130.327953 
L 106.036802 129.92675 
L 106.158914 127.920735 
L 106.21997 128.221637 
L 106.281026 128.798366 
L 106.342081 130.528554 
L 106.403137 127.870584 
L 106.464193 130.177502 
L 106.525249 129.901674 
L 106.586305 129.851524 
L 106.769472 128.698065 
L 106.95264 129.901674 
L 107.074751 128.848517 
L 107.257919 131.406186 
L 107.38003 129.049118 
L 107.441086 130.052126 
L 107.502142 129.525547 
L 107.563198 129.324945 
L 107.624254 130.102276 
L 107.685309 128.998968 
L 107.868477 131.707088 
L 108.051644 129.801374 
L 108.173756 130.65393 
L 108.234812 130.779306 
L 108.356923 129.24972 
L 108.540091 130.754231 
L 108.662202 130.001975 
L 108.723258 130.578705 
L 108.784314 130.403178 
L 108.906426 130.979908 
L 108.967481 130.628855 
L 109.028537 131.080208 
L 109.211705 129.174494 
L 109.272761 130.353028 
L 109.394872 128.748216 
L 109.455928 130.929757 
L 109.516984 130.277802 
L 109.57804 129.751223 
L 109.639095 130.804381 
L 109.700151 130.152426 
L 109.761207 130.829456 
L 109.822263 130.202577 
L 109.883319 131.456336 
L 110.00543 129.726148 
L 110.066486 131.130359 
L 110.127542 130.503479 
L 110.188598 129.751223 
L 110.249654 131.807389 
L 110.310709 130.403178 
L 110.371765 129.475396 
L 110.493877 131.757238 
L 110.554933 128.848517 
L 110.615988 130.578705 
L 110.677044 130.127351 
L 110.860212 131.90769 
L 111.104435 129.450321 
L 111.287602 130.929757 
L 111.348658 130.252727 
L 111.47077 131.155434 
L 111.531826 129.826449 
L 111.592881 130.152426 
L 111.653937 132.258742 
L 111.714993 130.578705 
L 111.776049 128.698065 
L 111.837105 130.979908 
L 111.898161 129.174494 
L 111.959216 130.528554 
L 112.020272 129.650923 
L 112.081328 129.450321 
L 112.142384 131.431261 
L 112.20344 129.801374 
L 112.264495 130.979908 
L 112.325551 130.102276 
L 112.386607 130.879607 
L 112.447663 129.801374 
L 112.63083 131.506487 
L 112.813998 130.077201 
L 112.997165 131.030058 
L 113.058221 129.9769 
L 113.119277 130.829456 
L 113.180333 132.258742 
L 113.241388 131.28081 
L 113.302444 131.456336 
L 113.3635 130.829456 
L 113.424556 131.832464 
L 113.485612 129.650923 
L 113.546668 130.478404 
L 113.607723 130.202577 
L 113.668779 130.954832 
L 113.790891 128.547614 
L 113.851947 130.904682 
L 113.913002 130.854532 
L 113.974058 129.701073 
L 114.157226 131.807389 
L 114.218281 128.397163 
L 114.279337 131.757238 
L 114.340393 131.356035 
L 114.401449 130.729156 
L 114.462505 130.829456 
L 114.523561 131.932765 
L 114.584616 131.105284 
L 114.706728 131.431261 
L 114.767784 131.230659 
L 114.82884 132.183517 
L 114.889895 131.832464 
L 114.950951 131.180509 
L 115.012007 131.33096 
L 115.073063 131.255735 
L 115.195175 131.732163 
L 115.25623 130.829456 
L 115.317286 131.732163 
L 115.378342 130.679005 
L 115.439398 131.857539 
L 115.500454 131.230659 
L 115.683621 132.108291 
L 115.866788 130.252727 
L 115.927844 132.333968 
L 115.9889 130.428253 
L 116.049956 133.412201 
L 116.172068 130.102276 
L 116.294179 131.481411 
L 116.355235 130.829456 
L 116.416291 131.656938 
L 116.538402 129.675998 
L 116.72157 133.061148 
L 116.782626 131.406186 
L 116.843682 132.735171 
L 116.904737 132.308893 
L 116.965793 131.030058 
L 117.026849 131.807389 
L 117.087905 131.807389 
L 117.210016 130.102276 
L 117.271072 131.707088 
L 117.332128 131.631862 
L 117.393184 131.456336 
L 117.45424 130.127351 
L 117.515295 130.829456 
L 117.576351 132.434269 
L 117.637407 132.158441 
L 117.759519 131.205584 
L 117.820575 128.748216 
L 117.88163 131.255735 
L 117.942686 131.030058 
L 118.003742 131.406186 
L 118.064798 131.230659 
L 118.125854 130.227652 
L 118.186909 132.158441 
L 118.247965 130.65393 
L 118.370077 131.757238 
L 118.431133 131.230659 
L 118.492188 132.835472 
L 118.553244 130.378103 
L 118.6143 130.854532 
L 118.797468 133.813404 
L 118.858523 131.606787 
L 118.919579 133.186524 
L 118.980635 131.832464 
L 119.041691 132.960847 
L 119.102747 131.356035 
L 119.163802 133.010998 
L 119.224858 132.108291 
L 119.34697 131.356035 
L 119.408026 133.387126 
L 119.469082 130.804381 
L 119.530137 131.982915 
L 119.652249 132.058141 
L 119.713305 132.985923 
L 119.774361 132.384118 
L 119.957528 130.779306 
L 120.140695 132.384118 
L 120.262807 130.052126 
L 120.323863 130.528554 
L 120.384919 132.459344 
L 120.445975 132.00799 
L 120.568086 130.70408 
L 120.751254 132.484419 
L 120.812309 132.133366 
L 120.873365 132.183517 
L 120.934421 132.534569 
L 120.995477 130.428253 
L 121.056533 131.95784 
L 121.117589 130.628855 
L 121.2397 132.63487 
L 121.300756 132.509494 
L 121.422868 130.453329 
L 121.483923 132.434269 
L 121.544979 132.384118 
L 121.606035 132.58472 
L 121.728147 131.531562 
L 121.789202 132.459344 
L 121.850258 131.982915 
L 121.911314 131.606787 
L 121.97237 133.637878 
L 122.033426 132.68502 
L 122.094482 132.459344 
L 122.216593 131.732163 
L 122.338705 133.136374 
L 122.399761 132.534569 
L 122.460816 132.68502 
L 122.521872 131.581712 
L 122.582928 133.963855 
L 122.643984 133.111299 
L 122.766096 132.63487 
L 122.827151 131.406186 
L 122.888207 134.089231 
L 122.949263 133.111299 
L 123.010319 133.963855 
L 123.071375 133.462351 
L 123.13243 132.534569 
L 123.193486 132.659945 
L 123.254542 132.68502 
L 123.315598 133.387126 
L 123.376654 132.710096 
L 123.437709 130.60378 
L 123.620877 134.114306 
L 123.804044 131.932765 
L 123.8651 132.63487 
L 123.987212 131.606787 
L 124.048268 133.437276 
L 124.109323 132.735171 
L 124.292491 132.00799 
L 124.353547 132.810396 
L 124.414603 131.757238 
L 124.536714 134.289832 
L 124.59777 133.36205 
L 124.658826 133.387126 
L 124.780937 133.036073 
L 124.841993 132.434269 
L 124.903049 132.760246 
L 124.964105 133.863554 
L 125.086216 132.208592 
L 125.147272 132.233667 
L 125.33044 135.067163 
L 125.391496 135.017013 
L 125.513607 132.033065 
L 125.574663 133.713103 
L 125.635719 132.885622 
L 125.696775 132.68502 
L 125.879942 133.512502 
L 126.002054 133.36205 
L 126.124165 133.437276 
L 126.185221 132.509494 
L 126.307333 134.189532 
L 126.4905 132.935772 
L 126.551556 133.587727 
L 126.612612 131.807389 
L 126.673668 134.490434 
L 126.734723 132.735171 
L 126.795779 132.158441 
L 126.978947 133.788329 
L 127.040003 133.286825 
L 127.101058 133.487426 
L 127.162114 135.142389 
L 127.22317 133.336975 
L 127.284226 134.791336 
L 127.467393 132.810396 
L 127.528449 133.36205 
L 127.589505 132.484419 
L 127.772672 135.468366 
L 127.894784 133.186524 
L 127.95584 134.314908 
L 128.016896 133.763254 
L 128.077951 134.039081 
L 128.139007 132.459344 
L 128.200063 133.336975 
L 128.261119 134.214607 
L 128.322175 133.93878 
L 128.38323 134.239682 
L 128.444286 134.089231 
L 128.627454 133.637878 
L 128.68851 133.587727 
L 128.810621 134.691035 
L 128.871677 132.359043 
L 128.993789 134.766261 
L 129.176956 132.935772 
L 129.238012 134.189532 
L 129.299068 133.562652 
L 129.360123 133.3119 
L 129.421179 133.863554 
L 129.543291 132.158441 
L 129.604347 136.045096 
L 129.665403 134.440284 
L 129.84857 133.487426 
L 129.970682 134.540584 
L 130.031737 133.111299 
L 130.092793 133.387126 
L 130.153849 133.437276 
L 130.214905 134.164457 
L 130.275961 133.738178 
L 130.337017 134.139381 
L 130.398072 133.462351 
L 130.520184 135.017013 
L 130.703351 132.810396 
L 130.825463 134.741186 
L 130.947575 132.68502 
L 131.00863 133.387126 
L 131.069686 135.042088 
L 131.130742 134.289832 
L 131.191798 133.98893 
L 131.252854 134.716111 
L 131.31391 133.688028 
L 131.374965 134.966863 
L 131.436021 134.816411 
L 131.497077 133.487426 
L 131.558133 134.289832 
L 131.619189 133.788329 
L 131.7413 135.192539 
L 131.802356 134.089231 
L 131.863412 135.668968 
L 131.924468 133.913705 
L 131.985523 135.24269 
L 132.046579 135.468366 
L 132.107635 133.713103 
L 132.168691 134.014005 
L 132.229747 133.637878 
L 132.290803 134.56566 
L 132.351858 132.559644 
L 132.412914 134.239682 
L 132.47397 133.738178 
L 132.596082 135.017013 
L 132.657137 134.540584 
L 132.779249 133.713103 
L 132.901361 133.838479 
L 133.084528 134.791336 
L 133.267696 133.186524 
L 133.328751 134.56566 
L 133.389807 132.459344 
L 133.511919 136.471374 
L 133.63403 133.412201 
L 133.756142 135.29284 
L 133.93931 132.835472 
L 134.000365 134.014005 
L 134.061421 133.562652 
L 134.122477 134.189532 
L 134.183533 134.139381 
L 134.244589 133.387126 
L 134.305644 134.741186 
L 134.3667 133.537577 
L 134.549868 135.518517 
L 134.610924 134.139381 
L 134.671979 134.214607 
L 134.794091 135.29284 
L 134.977258 133.537577 
L 135.038314 134.691035 
L 135.09937 133.93878 
L 135.221482 133.688028 
L 135.282537 135.568667 
L 135.343593 134.66596 
L 135.404649 134.164457 
L 135.587817 134.866562 
L 135.709928 133.387126 
L 135.83204 134.966863 
L 136.015207 134.189532 
L 136.198375 135.117314 
L 136.259431 135.067163 
L 136.320486 133.913705 
L 136.503654 135.744193 
L 136.686821 134.139381 
L 136.747877 135.994945 
L 136.808933 133.612802 
L 136.869989 134.239682 
L 136.931044 134.214607 
L 137.053156 135.443291 
L 137.114212 133.93878 
L 137.175268 135.017013 
L 137.236324 133.813404 
L 137.297379 134.415208 
L 137.358435 135.443291 
L 137.419491 135.042088 
L 137.480547 134.61581 
L 137.602658 135.518517 
L 137.72477 134.239682 
L 137.785826 134.490434 
L 137.846882 134.164457 
L 137.907937 134.791336 
L 137.968993 133.788329 
L 138.152161 135.443291 
L 138.274272 134.66596 
L 138.335328 135.167464 
L 138.45744 133.838479 
L 138.579551 135.393141 
L 138.701663 132.960847 
L 138.884831 136.421223 
L 139.067998 133.036073 
L 139.129054 134.766261 
L 139.19011 134.189532 
L 139.251165 133.36205 
L 139.312221 136.722126 
L 139.373277 134.56566 
L 139.434333 133.512502 
L 139.495389 135.142389 
L 139.556444 134.189532 
L 139.678556 135.994945 
L 139.739612 134.465359 
L 139.800668 135.317915 
L 139.861724 134.540584 
L 139.922779 134.816411 
L 139.983835 134.966863 
L 140.167003 133.662953 
L 140.228058 134.289832 
L 140.289114 133.136374 
L 140.472282 135.769269 
L 140.533338 135.593742 
L 140.655449 133.763254 
L 140.716505 133.963855 
L 140.838617 135.819419 
L 140.960728 134.139381 
L 141.204951 135.994945 
L 141.327063 133.863554 
L 141.449175 135.668968 
L 141.510231 133.36205 
L 141.571286 134.791336 
L 141.632342 136.396148 
L 141.81551 132.960847 
L 141.876565 135.042088 
L 141.937621 134.365058 
L 142.059733 135.518517 
L 142.120789 133.93878 
L 142.181845 134.189532 
L 142.2429 133.738178 
L 142.303956 134.640885 
L 142.365012 133.387126 
L 142.426068 133.562652 
L 142.609235 135.894645 
L 142.792403 133.738178 
L 142.914514 134.640885 
L 142.97557 134.064156 
L 143.036626 135.844494 
L 143.097682 135.017013 
L 143.158738 134.966863 
L 143.280849 134.640885 
L 143.402961 135.894645 
L 143.586128 134.716111 
L 143.647184 136.220622 
L 143.70824 134.716111 
L 143.769296 134.966863 
L 143.891407 133.963855 
L 143.952463 136.195547 
L 144.013519 135.944795 
L 144.135631 134.264757 
L 144.196686 134.691035 
L 144.257742 134.640885 
L 144.318798 135.34299 
L 144.44091 133.863554 
L 144.563021 135.217614 
L 144.624077 134.766261 
L 144.685133 133.136374 
L 144.807245 135.794344 
L 144.8683 134.841487 
L 144.929356 136.571675 
L 144.990412 135.543592 
L 145.051468 133.913705 
L 145.112524 134.891637 
L 145.173579 133.813404 
L 145.234635 133.963855 
L 145.295691 136.045096 
L 145.356747 133.462351 
L 145.417803 134.139381 
L 145.539914 134.465359 
L 145.60097 133.412201 
L 145.662026 135.944795 
L 145.723082 134.540584 
L 145.906249 135.468366 
L 146.028361 133.562652 
L 146.150472 134.66596 
L 146.211528 134.089231 
L 146.272584 134.791336 
L 146.33364 134.56566 
L 146.394696 133.537577 
L 146.455752 135.493442 
L 146.516807 133.813404 
L 146.577863 134.891637 
L 146.638919 135.267765 
L 146.699975 133.98893 
L 146.761031 134.415208 
L 146.822086 135.117314 
L 146.883142 133.763254 
L 146.944198 134.114306 
L 147.06631 135.317915 
L 147.127365 133.562652 
L 147.188421 134.61581 
L 147.249477 133.763254 
L 147.310533 134.365058 
L 147.371589 134.716111 
L 147.432645 135.91972 
L 147.4937 135.34299 
L 147.554756 134.56566 
L 147.615812 136.922727 
L 147.798979 133.713103 
L 147.860035 134.816411 
L 147.921091 134.61581 
L 147.982147 134.490434 
L 148.043203 135.96987 
L 148.165314 134.415208 
L 148.22637 135.994945 
L 148.287426 134.891637 
L 148.348482 134.114306 
L 148.409538 136.220622 
L 148.470593 134.064156 
L 148.531649 135.042088 
L 148.592705 135.844494 
L 148.653761 134.139381 
L 148.714817 135.368066 
L 148.897984 134.540584 
L 149.020096 135.543592 
L 149.081152 133.387126 
L 149.142207 133.98893 
L 149.325375 134.941787 
L 149.386431 134.766261 
L 149.447486 133.26175 
L 149.508542 134.365058 
L 149.569598 133.813404 
L 149.630654 135.543592 
L 149.69171 134.189532 
L 149.752765 134.691035 
L 149.813821 133.487426 
L 149.874877 133.863554 
L 149.935933 134.064156 
L 149.996989 133.913705 
L 150.058045 135.769269 
L 150.1191 132.333968 
L 150.180156 134.289832 
L 150.302268 134.515509 
L 150.363324 134.415208 
L 150.546491 132.785321 
L 150.668603 134.590735 
L 150.729659 134.390133 
L 150.790714 133.36205 
L 150.85177 134.66596 
L 150.912826 133.913705 
L 151.095993 135.393141 
L 151.218105 135.167464 
L 151.279161 133.161449 
L 151.340217 133.813404 
L 151.401272 134.766261 
L 151.462328 133.061148 
L 151.645496 135.29284 
L 151.706552 133.813404 
L 151.767607 133.963855 
L 151.828663 134.841487 
L 151.889719 134.56566 
L 151.950775 134.816411 
L 152.011831 133.688028 
L 152.072886 134.540584 
L 152.133942 134.791336 
L 152.194998 133.086223 
L 152.256054 134.716111 
L 152.31711 133.98893 
L 152.378166 134.089231 
L 152.500277 134.66596 
L 152.561333 134.365058 
L 152.622389 135.24269 
L 152.683445 133.111299 
L 152.7445 135.092239 
L 152.805556 133.637878 
L 152.988724 135.518517 
L 153.110835 134.465359 
L 153.171891 133.863554 
L 153.232947 135.017013 
L 153.294003 134.791336 
L 153.416114 133.863554 
L 153.47717 135.067163 
L 153.538226 134.465359 
L 153.599282 134.490434 
L 153.660338 132.960847 
L 153.721393 134.264757 
L 153.782449 133.662953 
L 153.965617 134.66596 
L 154.026673 133.161449 
L 154.087728 136.120321 
L 154.148784 133.888629 
L 154.20984 133.813404 
L 154.270896 135.518517 
L 154.331952 135.418216 
L 154.393007 133.211599 
L 154.454063 134.590735 
L 154.515119 136.671975 
L 154.698286 132.534569 
L 154.881454 134.390133 
L 154.94251 134.415208 
L 155.064621 134.941787 
L 155.125677 133.738178 
L 155.186733 134.064156 
L 155.3699 135.443291 
L 155.492012 133.788329 
L 155.736235 135.418216 
L 155.858347 133.512502 
L 155.919403 135.24269 
L 155.980459 133.437276 
L 156.041514 134.991938 
L 156.10257 134.766261 
L 156.224682 134.264757 
L 156.285738 135.418216 
L 156.407849 133.788329 
L 156.529961 134.891637 
L 156.591017 134.314908 
L 156.713128 133.738178 
L 156.774184 133.963855 
L 156.83524 134.61581 
L 156.896296 133.437276 
L 156.957352 133.863554 
L 157.079463 134.716111 
L 157.140519 133.161449 
L 157.201575 133.211599 
L 157.262631 133.93878 
L 157.323686 133.738178 
L 157.384742 134.014005 
L 157.445798 133.512502 
L 157.506854 133.662953 
L 157.628966 134.314908 
L 157.690021 134.139381 
L 157.751077 134.214607 
L 157.812133 134.164457 
L 157.873189 135.543592 
L 157.934245 134.014005 
L 157.9953 135.694043 
L 158.117412 132.434269 
L 158.178468 135.543592 
L 158.239524 134.991938 
L 158.30058 134.440284 
L 158.361635 134.465359 
L 158.422691 134.365058 
L 158.483747 135.192539 
L 158.544803 133.738178 
L 158.605859 134.490434 
L 158.666914 134.390133 
L 158.72797 133.537577 
L 158.789026 133.788329 
L 158.850082 134.189532 
L 158.911138 134.014005 
L 158.972193 134.139381 
L 159.033249 134.816411 
L 159.094305 134.189532 
L 159.155361 134.314908 
L 159.216417 135.368066 
L 159.277473 133.662953 
L 159.338528 134.365058 
L 159.399584 134.214607 
L 159.46064 135.719118 
L 159.521696 135.543592 
L 159.582752 134.264757 
L 159.643807 135.117314 
L 159.765919 133.713103 
L 159.826975 135.29284 
L 159.888031 133.788329 
L 159.949087 134.991938 
L 160.071198 133.487426 
L 160.132254 134.365058 
L 160.19331 135.96987 
L 160.254366 135.042088 
L 160.315421 134.590735 
L 160.376477 135.568667 
L 160.498589 133.186524 
L 160.559645 135.794344 
L 160.6207 133.111299 
L 160.681756 134.640885 
L 160.742812 134.139381 
L 160.803868 135.518517 
L 160.864924 134.691035 
L 161.048091 133.186524 
L 161.109147 134.741186 
L 161.170203 134.61581 
L 161.231259 133.487426 
L 161.292314 133.863554 
L 161.35337 135.192539 
L 161.475482 132.935772 
L 161.536538 133.036073 
L 161.597594 135.217614 
L 161.658649 133.713103 
L 161.780761 134.314908 
L 161.841817 133.487426 
L 161.902873 135.34299 
L 161.963928 133.813404 
L 162.024984 134.916712 
L 162.08604 134.314908 
L 162.147096 135.042088 
L 162.208152 133.061148 
L 162.269207 134.540584 
L 162.391319 134.014005 
L 162.452375 134.214607 
L 162.635542 135.443291 
L 162.696598 133.713103 
L 162.757654 135.668968 
L 162.81871 133.763254 
L 162.879766 134.515509 
" clip-path="url(#p56c06c8433)" style="fill: none; stroke: #1f77b4; stroke-width: 0.5; stroke-linecap: square"/>
   </g>
   <g id="patch_3">
    <path d="M 23.410312 143.1 
L 23.410312 7.2 
" style="fill: none; stroke: #000000; stroke-width: 0.8; stroke-linejoin: miter; stroke-linecap: square"/>
   </g>
   <g id="patch_4">
    <path d="M 162.910313 143.1 
L 162.910313 7.2 
" style="fill: none; stroke: #000000; stroke-width: 0.8; stroke-linejoin: miter; stroke-linecap: square"/>
   </g>
   <g id="patch_5">
    <path d="M 23.410312 143.1 
L 162.910313 143.1 
" style="fill: none; stroke: #000000; stroke-width: 0.8; stroke-linejoin: miter; stroke-linecap: square"/>
   </g>
   <g id="patch_6">
    <path d="M 23.410312 7.2 
L 162.910313 7.2 
" style="fill: none; stroke: #000000; stroke-width: 0.8; stroke-linejoin: miter; stroke-linecap: square"/>
   </g>
  </g>
 </g>
 <defs>
  <clipPath id="p56c06c8433">
   <rect x="23.410312" y="7.2" width="139.5" height="135.9"/>
  </clipPath>
 </defs>
</svg>
