<?xml version="1.0" encoding="utf-8" standalone="no"?>
<!DOCTYPE svg PUBLIC "-//W3C//DTD SVG 1.1//EN"
  "http://www.w3.org/Graphics/SVG/1.1/DTD/svg11.dtd">
<svg xmlns:xlink="http://www.w3.org/1999/xlink" width="198.010312pt" height="177.752813pt" viewBox="0 0 198.010312 177.752813" xmlns="http://www.w3.org/2000/svg" version="1.1">
 <metadata>
  <rdf:RDF xmlns:dc="http://purl.org/dc/elements/1.1/" xmlns:cc="http://creativecommons.org/ns#" xmlns:rdf="http://www.w3.org/1999/02/22-rdf-syntax-ns#">
   <cc:Work>
    <dc:type rdf:resource="http://purl.org/dc/dcmitype/StillImage"/>
    <dc:date>2023-04-25T23:45:42.504349</dc:date>
    <dc:format>image/svg+xml</dc:format>
    <dc:creator>
     <cc:Agent>
      <dc:title>Matplotlib v3.5.2, https://matplotlib.org/</dc:title>
     </cc:Agent>
    </dc:creator>
   </cc:Work>
  </rdf:RDF>
 </metadata>
 <defs>
  <style type="text/css">*{stroke-linejoin: round; stroke-linecap: butt}</style>
 </defs>
 <g id="figure_1">
  <g id="patch_1">
   <path d="M 0 177.752813 
L 198.010312 177.752813 
L 198.010312 0 
L 0 0 
z
" style="fill: #ffffff"/>
  </g>
  <g id="axes_1">
   <g id="patch_2">
    <path d="M 23.410313 143.1 
L 190.810313 143.1 
L 190.810313 7.2 
L 23.410313 7.2 
z
" style="fill: #ffffff"/>
   </g>
   <g id="matplotlib.axis_1">
    <g id="xtick_1">
     <g id="line2d_1">
      <defs>
       <path id="me96c9101a3" d="M 0 0 
L 0 3.5 
" style="stroke: #000000; stroke-width: 0.8"/>
      </defs>
      <g>
       <use xlink:href="#me96c9101a3" x="37.360313" y="143.1" style="stroke: #000000; stroke-width: 0.8"/>
      </g>
     </g>
     <g id="text_1">
      <!-- 10 -->
      <g transform="translate(32.270313 156.17875)scale(0.08 -0.08)">
       <defs>
        <path id="DejaVuSans-31" d="M 794 531 
L 1825 531 
L 1825 4091 
L 703 3866 
L 703 4441 
L 1819 4666 
L 2450 4666 
L 2450 531 
L 3481 531 
L 3481 0 
L 794 0 
L 794 531 
z
" transform="scale(0.015625)"/>
        <path id="DejaVuSans-30" d="M 2034 4250 
Q 1547 4250 1301 3770 
Q 1056 3291 1056 2328 
Q 1056 1369 1301 889 
Q 1547 409 2034 409 
Q 2525 409 2770 889 
Q 3016 1369 3016 2328 
Q 3016 3291 2770 3770 
Q 2525 4250 2034 4250 
z
M 2034 4750 
Q 2819 4750 3233 4129 
Q 3647 3509 3647 2328 
Q 3647 1150 3233 529 
Q 2819 -91 2034 -91 
Q 1250 -91 836 529 
Q 422 1150 422 2328 
Q 422 3509 836 4129 
Q 1250 4750 2034 4750 
z
" transform="scale(0.015625)"/>
       </defs>
       <use xlink:href="#DejaVuSans-31"/>
       <use xlink:href="#DejaVuSans-30" x="63.623047"/>
      </g>
     </g>
    </g>
    <g id="xtick_2">
     <g id="line2d_2">
      <g>
       <use xlink:href="#me96c9101a3" x="65.260312" y="143.1" style="stroke: #000000; stroke-width: 0.8"/>
      </g>
     </g>
     <g id="text_2">
      <!-- 20 -->
      <g transform="translate(60.170312 156.17875)scale(0.08 -0.08)">
       <defs>
        <path id="DejaVuSans-32" d="M 1228 531 
L 3431 531 
L 3431 0 
L 469 0 
L 469 531 
Q 828 903 1448 1529 
Q 2069 2156 2228 2338 
Q 2531 2678 2651 2914 
Q 2772 3150 2772 3378 
Q 2772 3750 2511 3984 
Q 2250 4219 1831 4219 
Q 1534 4219 1204 4116 
Q 875 4013 500 3803 
L 500 4441 
Q 881 4594 1212 4672 
Q 1544 4750 1819 4750 
Q 2544 4750 2975 4387 
Q 3406 4025 3406 3419 
Q 3406 3131 3298 2873 
Q 3191 2616 2906 2266 
Q 2828 2175 2409 1742 
Q 1991 1309 1228 531 
z
" transform="scale(0.015625)"/>
       </defs>
       <use xlink:href="#DejaVuSans-32"/>
       <use xlink:href="#DejaVuSans-30" x="63.623047"/>
      </g>
     </g>
    </g>
    <g id="xtick_3">
     <g id="line2d_3">
      <g>
       <use xlink:href="#me96c9101a3" x="93.160313" y="143.1" style="stroke: #000000; stroke-width: 0.8"/>
      </g>
     </g>
     <g id="text_3">
      <!-- 30 -->
      <g transform="translate(88.070312 156.17875)scale(0.08 -0.08)">
       <defs>
        <path id="DejaVuSans-33" d="M 2597 2516 
Q 3050 2419 3304 2112 
Q 3559 1806 3559 1356 
Q 3559 666 3084 287 
Q 2609 -91 1734 -91 
Q 1441 -91 1130 -33 
Q 819 25 488 141 
L 488 750 
Q 750 597 1062 519 
Q 1375 441 1716 441 
Q 2309 441 2620 675 
Q 2931 909 2931 1356 
Q 2931 1769 2642 2001 
Q 2353 2234 1838 2234 
L 1294 2234 
L 1294 2753 
L 1863 2753 
Q 2328 2753 2575 2939 
Q 2822 3125 2822 3475 
Q 2822 3834 2567 4026 
Q 2313 4219 1838 4219 
Q 1578 4219 1281 4162 
Q 984 4106 628 3988 
L 628 4550 
Q 988 4650 1302 4700 
Q 1616 4750 1894 4750 
Q 2613 4750 3031 4423 
Q 3450 4097 3450 3541 
Q 3450 3153 3228 2886 
Q 3006 2619 2597 2516 
z
" transform="scale(0.015625)"/>
       </defs>
       <use xlink:href="#DejaVuSans-33"/>
       <use xlink:href="#DejaVuSans-30" x="63.623047"/>
      </g>
     </g>
    </g>
    <g id="xtick_4">
     <g id="line2d_4">
      <g>
       <use xlink:href="#me96c9101a3" x="121.060312" y="143.1" style="stroke: #000000; stroke-width: 0.8"/>
      </g>
     </g>
     <g id="text_4">
      <!-- 40 -->
      <g transform="translate(115.970312 156.17875)scale(0.08 -0.08)">
       <defs>
        <path id="DejaVuSans-34" d="M 2419 4116 
L 825 1625 
L 2419 1625 
L 2419 4116 
z
M 2253 4666 
L 3047 4666 
L 3047 1625 
L 3713 1625 
L 3713 1100 
L 3047 1100 
L 3047 0 
L 2419 0 
L 2419 1100 
L 313 1100 
L 313 1709 
L 2253 4666 
z
" transform="scale(0.015625)"/>
       </defs>
       <use xlink:href="#DejaVuSans-34"/>
       <use xlink:href="#DejaVuSans-30" x="63.623047"/>
      </g>
     </g>
    </g>
    <g id="xtick_5">
     <g id="line2d_5">
      <g>
       <use xlink:href="#me96c9101a3" x="148.960313" y="143.1" style="stroke: #000000; stroke-width: 0.8"/>
      </g>
     </g>
     <g id="text_5">
      <!-- 50 -->
      <g transform="translate(143.870313 156.17875)scale(0.08 -0.08)">
       <defs>
        <path id="DejaVuSans-35" d="M 691 4666 
L 3169 4666 
L 3169 4134 
L 1269 4134 
L 1269 2991 
Q 1406 3038 1543 3061 
Q 1681 3084 1819 3084 
Q 2600 3084 3056 2656 
Q 3513 2228 3513 1497 
Q 3513 744 3044 326 
Q 2575 -91 1722 -91 
Q 1428 -91 1123 -41 
Q 819 9 494 109 
L 494 744 
Q 775 591 1075 516 
Q 1375 441 1709 441 
Q 2250 441 2565 725 
Q 2881 1009 2881 1497 
Q 2881 1984 2565 2268 
Q 2250 2553 1709 2553 
Q 1456 2553 1204 2497 
Q 953 2441 691 2322 
L 691 4666 
z
" transform="scale(0.015625)"/>
       </defs>
       <use xlink:href="#DejaVuSans-35"/>
       <use xlink:href="#DejaVuSans-30" x="63.623047"/>
      </g>
     </g>
    </g>
    <g id="xtick_6">
     <g id="line2d_6">
      <g>
       <use xlink:href="#me96c9101a3" x="176.860313" y="143.1" style="stroke: #000000; stroke-width: 0.8"/>
      </g>
     </g>
     <g id="text_6">
      <!-- 60 -->
      <g transform="translate(171.770313 156.17875)scale(0.08 -0.08)">
       <defs>
        <path id="DejaVuSans-36" d="M 2113 2584 
Q 1688 2584 1439 2293 
Q 1191 2003 1191 1497 
Q 1191 994 1439 701 
Q 1688 409 2113 409 
Q 2538 409 2786 701 
Q 3034 994 3034 1497 
Q 3034 2003 2786 2293 
Q 2538 2584 2113 2584 
z
M 3366 4563 
L 3366 3988 
Q 3128 4100 2886 4159 
Q 2644 4219 2406 4219 
Q 1781 4219 1451 3797 
Q 1122 3375 1075 2522 
Q 1259 2794 1537 2939 
Q 1816 3084 2150 3084 
Q 2853 3084 3261 2657 
Q 3669 2231 3669 1497 
Q 3669 778 3244 343 
Q 2819 -91 2113 -91 
Q 1303 -91 875 529 
Q 447 1150 447 2328 
Q 447 3434 972 4092 
Q 1497 4750 2381 4750 
Q 2619 4750 2861 4703 
Q 3103 4656 3366 4563 
z
" transform="scale(0.015625)"/>
       </defs>
       <use xlink:href="#DejaVuSans-36"/>
       <use xlink:href="#DejaVuSans-30" x="63.623047"/>
      </g>
     </g>
    </g>
    <g id="xtick_7">
     <g id="line2d_7">
      <defs>
       <path id="m7221e7f9a9" d="M 0 0 
L 0 2 
" style="stroke: #000000; stroke-width: 0.6"/>
      </defs>
      <g>
       <use xlink:href="#m7221e7f9a9" x="23.410313" y="143.1" style="stroke: #000000; stroke-width: 0.6"/>
      </g>
     </g>
    </g>
    <g id="xtick_8">
     <g id="line2d_8">
      <g>
       <use xlink:href="#m7221e7f9a9" x="30.385313" y="143.1" style="stroke: #000000; stroke-width: 0.6"/>
      </g>
     </g>
    </g>
    <g id="xtick_9">
     <g id="line2d_9">
      <g>
       <use xlink:href="#m7221e7f9a9" x="44.335313" y="143.1" style="stroke: #000000; stroke-width: 0.6"/>
      </g>
     </g>
    </g>
    <g id="xtick_10">
     <g id="line2d_10">
      <g>
       <use xlink:href="#m7221e7f9a9" x="51.310313" y="143.1" style="stroke: #000000; stroke-width: 0.6"/>
      </g>
     </g>
    </g>
    <g id="xtick_11">
     <g id="line2d_11">
      <g>
       <use xlink:href="#m7221e7f9a9" x="58.285313" y="143.1" style="stroke: #000000; stroke-width: 0.6"/>
      </g>
     </g>
    </g>
    <g id="xtick_12">
     <g id="line2d_12">
      <g>
       <use xlink:href="#m7221e7f9a9" x="72.235313" y="143.1" style="stroke: #000000; stroke-width: 0.6"/>
      </g>
     </g>
    </g>
    <g id="xtick_13">
     <g id="line2d_13">
      <g>
       <use xlink:href="#m7221e7f9a9" x="79.210313" y="143.1" style="stroke: #000000; stroke-width: 0.6"/>
      </g>
     </g>
    </g>
    <g id="xtick_14">
     <g id="line2d_14">
      <g>
       <use xlink:href="#m7221e7f9a9" x="86.185312" y="143.1" style="stroke: #000000; stroke-width: 0.6"/>
      </g>
     </g>
    </g>
    <g id="xtick_15">
     <g id="line2d_15">
      <g>
       <use xlink:href="#m7221e7f9a9" x="100.135312" y="143.1" style="stroke: #000000; stroke-width: 0.6"/>
      </g>
     </g>
    </g>
    <g id="xtick_16">
     <g id="line2d_16">
      <g>
       <use xlink:href="#m7221e7f9a9" x="107.110313" y="143.1" style="stroke: #000000; stroke-width: 0.6"/>
      </g>
     </g>
    </g>
    <g id="xtick_17">
     <g id="line2d_17">
      <g>
       <use xlink:href="#m7221e7f9a9" x="114.085313" y="143.1" style="stroke: #000000; stroke-width: 0.6"/>
      </g>
     </g>
    </g>
    <g id="xtick_18">
     <g id="line2d_18">
      <g>
       <use xlink:href="#m7221e7f9a9" x="128.035313" y="143.1" style="stroke: #000000; stroke-width: 0.6"/>
      </g>
     </g>
    </g>
    <g id="xtick_19">
     <g id="line2d_19">
      <g>
       <use xlink:href="#m7221e7f9a9" x="135.010312" y="143.1" style="stroke: #000000; stroke-width: 0.6"/>
      </g>
     </g>
    </g>
    <g id="xtick_20">
     <g id="line2d_20">
      <g>
       <use xlink:href="#m7221e7f9a9" x="141.985313" y="143.1" style="stroke: #000000; stroke-width: 0.6"/>
      </g>
     </g>
    </g>
    <g id="xtick_21">
     <g id="line2d_21">
      <g>
       <use xlink:href="#m7221e7f9a9" x="155.935313" y="143.1" style="stroke: #000000; stroke-width: 0.6"/>
      </g>
     </g>
    </g>
    <g id="xtick_22">
     <g id="line2d_22">
      <g>
       <use xlink:href="#m7221e7f9a9" x="162.910313" y="143.1" style="stroke: #000000; stroke-width: 0.6"/>
      </g>
     </g>
    </g>
    <g id="xtick_23">
     <g id="line2d_23">
      <g>
       <use xlink:href="#m7221e7f9a9" x="169.885313" y="143.1" style="stroke: #000000; stroke-width: 0.6"/>
      </g>
     </g>
    </g>
    <g id="xtick_24">
     <g id="line2d_24">
      <g>
       <use xlink:href="#m7221e7f9a9" x="183.835313" y="143.1" style="stroke: #000000; stroke-width: 0.6"/>
      </g>
     </g>
    </g>
    <g id="xtick_25">
     <g id="line2d_25">
      <g>
       <use xlink:href="#m7221e7f9a9" x="190.810313" y="143.1" style="stroke: #000000; stroke-width: 0.6"/>
      </g>
     </g>
    </g>
    <g id="text_7">
     <!-- Two Theta (degrees) -->
     <g transform="translate(61.294688 168.681094)scale(0.09 -0.09)">
      <defs>
       <path id="DejaVuSans-54" d="M -19 4666 
L 3928 4666 
L 3928 4134 
L 2272 4134 
L 2272 0 
L 1638 0 
L 1638 4134 
L -19 4134 
L -19 4666 
z
" transform="scale(0.015625)"/>
       <path id="DejaVuSans-77" d="M 269 3500 
L 844 3500 
L 1563 769 
L 2278 3500 
L 2956 3500 
L 3675 769 
L 4391 3500 
L 4966 3500 
L 4050 0 
L 3372 0 
L 2619 2869 
L 1863 0 
L 1184 0 
L 269 3500 
z
" transform="scale(0.015625)"/>
       <path id="DejaVuSans-6f" d="M 1959 3097 
Q 1497 3097 1228 2736 
Q 959 2375 959 1747 
Q 959 1119 1226 758 
Q 1494 397 1959 397 
Q 2419 397 2687 759 
Q 2956 1122 2956 1747 
Q 2956 2369 2687 2733 
Q 2419 3097 1959 3097 
z
M 1959 3584 
Q 2709 3584 3137 3096 
Q 3566 2609 3566 1747 
Q 3566 888 3137 398 
Q 2709 -91 1959 -91 
Q 1206 -91 779 398 
Q 353 888 353 1747 
Q 353 2609 779 3096 
Q 1206 3584 1959 3584 
z
" transform="scale(0.015625)"/>
       <path id="DejaVuSans-20" transform="scale(0.015625)"/>
       <path id="DejaVuSans-68" d="M 3513 2113 
L 3513 0 
L 2938 0 
L 2938 2094 
Q 2938 2591 2744 2837 
Q 2550 3084 2163 3084 
Q 1697 3084 1428 2787 
Q 1159 2491 1159 1978 
L 1159 0 
L 581 0 
L 581 4863 
L 1159 4863 
L 1159 2956 
Q 1366 3272 1645 3428 
Q 1925 3584 2291 3584 
Q 2894 3584 3203 3211 
Q 3513 2838 3513 2113 
z
" transform="scale(0.015625)"/>
       <path id="DejaVuSans-65" d="M 3597 1894 
L 3597 1613 
L 953 1613 
Q 991 1019 1311 708 
Q 1631 397 2203 397 
Q 2534 397 2845 478 
Q 3156 559 3463 722 
L 3463 178 
Q 3153 47 2828 -22 
Q 2503 -91 2169 -91 
Q 1331 -91 842 396 
Q 353 884 353 1716 
Q 353 2575 817 3079 
Q 1281 3584 2069 3584 
Q 2775 3584 3186 3129 
Q 3597 2675 3597 1894 
z
M 3022 2063 
Q 3016 2534 2758 2815 
Q 2500 3097 2075 3097 
Q 1594 3097 1305 2825 
Q 1016 2553 972 2059 
L 3022 2063 
z
" transform="scale(0.015625)"/>
       <path id="DejaVuSans-74" d="M 1172 4494 
L 1172 3500 
L 2356 3500 
L 2356 3053 
L 1172 3053 
L 1172 1153 
Q 1172 725 1289 603 
Q 1406 481 1766 481 
L 2356 481 
L 2356 0 
L 1766 0 
Q 1100 0 847 248 
Q 594 497 594 1153 
L 594 3053 
L 172 3053 
L 172 3500 
L 594 3500 
L 594 4494 
L 1172 4494 
z
" transform="scale(0.015625)"/>
       <path id="DejaVuSans-61" d="M 2194 1759 
Q 1497 1759 1228 1600 
Q 959 1441 959 1056 
Q 959 750 1161 570 
Q 1363 391 1709 391 
Q 2188 391 2477 730 
Q 2766 1069 2766 1631 
L 2766 1759 
L 2194 1759 
z
M 3341 1997 
L 3341 0 
L 2766 0 
L 2766 531 
Q 2569 213 2275 61 
Q 1981 -91 1556 -91 
Q 1019 -91 701 211 
Q 384 513 384 1019 
Q 384 1609 779 1909 
Q 1175 2209 1959 2209 
L 2766 2209 
L 2766 2266 
Q 2766 2663 2505 2880 
Q 2244 3097 1772 3097 
Q 1472 3097 1187 3025 
Q 903 2953 641 2809 
L 641 3341 
Q 956 3463 1253 3523 
Q 1550 3584 1831 3584 
Q 2591 3584 2966 3190 
Q 3341 2797 3341 1997 
z
" transform="scale(0.015625)"/>
       <path id="DejaVuSans-28" d="M 1984 4856 
Q 1566 4138 1362 3434 
Q 1159 2731 1159 2009 
Q 1159 1288 1364 580 
Q 1569 -128 1984 -844 
L 1484 -844 
Q 1016 -109 783 600 
Q 550 1309 550 2009 
Q 550 2706 781 3412 
Q 1013 4119 1484 4856 
L 1984 4856 
z
" transform="scale(0.015625)"/>
       <path id="DejaVuSans-64" d="M 2906 2969 
L 2906 4863 
L 3481 4863 
L 3481 0 
L 2906 0 
L 2906 525 
Q 2725 213 2448 61 
Q 2172 -91 1784 -91 
Q 1150 -91 751 415 
Q 353 922 353 1747 
Q 353 2572 751 3078 
Q 1150 3584 1784 3584 
Q 2172 3584 2448 3432 
Q 2725 3281 2906 2969 
z
M 947 1747 
Q 947 1113 1208 752 
Q 1469 391 1925 391 
Q 2381 391 2643 752 
Q 2906 1113 2906 1747 
Q 2906 2381 2643 2742 
Q 2381 3103 1925 3103 
Q 1469 3103 1208 2742 
Q 947 2381 947 1747 
z
" transform="scale(0.015625)"/>
       <path id="DejaVuSans-67" d="M 2906 1791 
Q 2906 2416 2648 2759 
Q 2391 3103 1925 3103 
Q 1463 3103 1205 2759 
Q 947 2416 947 1791 
Q 947 1169 1205 825 
Q 1463 481 1925 481 
Q 2391 481 2648 825 
Q 2906 1169 2906 1791 
z
M 3481 434 
Q 3481 -459 3084 -895 
Q 2688 -1331 1869 -1331 
Q 1566 -1331 1297 -1286 
Q 1028 -1241 775 -1147 
L 775 -588 
Q 1028 -725 1275 -790 
Q 1522 -856 1778 -856 
Q 2344 -856 2625 -561 
Q 2906 -266 2906 331 
L 2906 616 
Q 2728 306 2450 153 
Q 2172 0 1784 0 
Q 1141 0 747 490 
Q 353 981 353 1791 
Q 353 2603 747 3093 
Q 1141 3584 1784 3584 
Q 2172 3584 2450 3431 
Q 2728 3278 2906 2969 
L 2906 3500 
L 3481 3500 
L 3481 434 
z
" transform="scale(0.015625)"/>
       <path id="DejaVuSans-72" d="M 2631 2963 
Q 2534 3019 2420 3045 
Q 2306 3072 2169 3072 
Q 1681 3072 1420 2755 
Q 1159 2438 1159 1844 
L 1159 0 
L 581 0 
L 581 3500 
L 1159 3500 
L 1159 2956 
Q 1341 3275 1631 3429 
Q 1922 3584 2338 3584 
Q 2397 3584 2469 3576 
Q 2541 3569 2628 3553 
L 2631 2963 
z
" transform="scale(0.015625)"/>
       <path id="DejaVuSans-73" d="M 2834 3397 
L 2834 2853 
Q 2591 2978 2328 3040 
Q 2066 3103 1784 3103 
Q 1356 3103 1142 2972 
Q 928 2841 928 2578 
Q 928 2378 1081 2264 
Q 1234 2150 1697 2047 
L 1894 2003 
Q 2506 1872 2764 1633 
Q 3022 1394 3022 966 
Q 3022 478 2636 193 
Q 2250 -91 1575 -91 
Q 1294 -91 989 -36 
Q 684 19 347 128 
L 347 722 
Q 666 556 975 473 
Q 1284 391 1588 391 
Q 1994 391 2212 530 
Q 2431 669 2431 922 
Q 2431 1156 2273 1281 
Q 2116 1406 1581 1522 
L 1381 1569 
Q 847 1681 609 1914 
Q 372 2147 372 2553 
Q 372 3047 722 3315 
Q 1072 3584 1716 3584 
Q 2034 3584 2315 3537 
Q 2597 3491 2834 3397 
z
" transform="scale(0.015625)"/>
       <path id="DejaVuSans-29" d="M 513 4856 
L 1013 4856 
Q 1481 4119 1714 3412 
Q 1947 2706 1947 2009 
Q 1947 1309 1714 600 
Q 1481 -109 1013 -844 
L 513 -844 
Q 928 -128 1133 580 
Q 1338 1288 1338 2009 
Q 1338 2731 1133 3434 
Q 928 4138 513 4856 
z
" transform="scale(0.015625)"/>
      </defs>
      <use xlink:href="#DejaVuSans-54"/>
      <use xlink:href="#DejaVuSans-77" x="44.583984"/>
      <use xlink:href="#DejaVuSans-6f" x="126.371094"/>
      <use xlink:href="#DejaVuSans-20" x="187.552734"/>
      <use xlink:href="#DejaVuSans-54" x="219.339844"/>
      <use xlink:href="#DejaVuSans-68" x="280.423828"/>
      <use xlink:href="#DejaVuSans-65" x="343.802734"/>
      <use xlink:href="#DejaVuSans-74" x="405.326172"/>
      <use xlink:href="#DejaVuSans-61" x="444.535156"/>
      <use xlink:href="#DejaVuSans-20" x="505.814453"/>
      <use xlink:href="#DejaVuSans-28" x="537.601562"/>
      <use xlink:href="#DejaVuSans-64" x="576.615234"/>
      <use xlink:href="#DejaVuSans-65" x="640.091797"/>
      <use xlink:href="#DejaVuSans-67" x="701.615234"/>
      <use xlink:href="#DejaVuSans-72" x="765.091797"/>
      <use xlink:href="#DejaVuSans-65" x="803.955078"/>
      <use xlink:href="#DejaVuSans-65" x="865.478516"/>
      <use xlink:href="#DejaVuSans-73" x="927.001953"/>
      <use xlink:href="#DejaVuSans-29" x="979.101562"/>
     </g>
    </g>
   </g>
   <g id="matplotlib.axis_2">
    <g id="ytick_1">
     <g id="line2d_26"/>
    </g>
    <g id="ytick_2">
     <g id="line2d_27"/>
    </g>
    <g id="ytick_3">
     <g id="line2d_28"/>
    </g>
    <g id="ytick_4">
     <g id="line2d_29"/>
    </g>
    <g id="text_8">
     <!-- Intensity -->
     <g transform="translate(14.038594 94.73625)rotate(-90)scale(0.09 -0.09)">
      <defs>
       <path id="DejaVuSans-49" d="M 628 4666 
L 1259 4666 
L 1259 0 
L 628 0 
L 628 4666 
z
" transform="scale(0.015625)"/>
       <path id="DejaVuSans-6e" d="M 3513 2113 
L 3513 0 
L 2938 0 
L 2938 2094 
Q 2938 2591 2744 2837 
Q 2550 3084 2163 3084 
Q 1697 3084 1428 2787 
Q 1159 2491 1159 1978 
L 1159 0 
L 581 0 
L 581 3500 
L 1159 3500 
L 1159 2956 
Q 1366 3272 1645 3428 
Q 1925 3584 2291 3584 
Q 2894 3584 3203 3211 
Q 3513 2838 3513 2113 
z
" transform="scale(0.015625)"/>
       <path id="DejaVuSans-69" d="M 603 3500 
L 1178 3500 
L 1178 0 
L 603 0 
L 603 3500 
z
M 603 4863 
L 1178 4863 
L 1178 4134 
L 603 4134 
L 603 4863 
z
" transform="scale(0.015625)"/>
       <path id="DejaVuSans-79" d="M 2059 -325 
Q 1816 -950 1584 -1140 
Q 1353 -1331 966 -1331 
L 506 -1331 
L 506 -850 
L 844 -850 
Q 1081 -850 1212 -737 
Q 1344 -625 1503 -206 
L 1606 56 
L 191 3500 
L 800 3500 
L 1894 763 
L 2988 3500 
L 3597 3500 
L 2059 -325 
z
" transform="scale(0.015625)"/>
      </defs>
      <use xlink:href="#DejaVuSans-49"/>
      <use xlink:href="#DejaVuSans-6e" x="29.492188"/>
      <use xlink:href="#DejaVuSans-74" x="92.871094"/>
      <use xlink:href="#DejaVuSans-65" x="132.080078"/>
      <use xlink:href="#DejaVuSans-6e" x="193.603516"/>
      <use xlink:href="#DejaVuSans-73" x="256.982422"/>
      <use xlink:href="#DejaVuSans-69" x="309.082031"/>
      <use xlink:href="#DejaVuSans-74" x="336.865234"/>
      <use xlink:href="#DejaVuSans-79" x="376.074219"/>
     </g>
    </g>
   </g>
   <g id="line2d_30">
    <path d="M 23.43188 13.377273 
L 23.505147 16.010306 
L 23.578414 14.116889 
L 23.724948 17.874138 
L 23.798215 23.376881 
L 23.871482 19.294201 
L 24.091283 27.015792 
L 24.16455 26.098668 
L 24.237817 26.956622 
L 24.311084 24.530682 
L 24.384351 26.927038 
L 24.457618 25.714067 
L 24.677419 28.79087 
L 24.750686 25.122375 
L 24.89722 32.784796 
L 24.970487 31.128056 
L 25.043753 31.542241 
L 25.11702 33.376489 
L 25.263554 29.027547 
L 25.410088 35.891183 
L 25.483355 38.405878 
L 25.556622 32.696042 
L 25.703156 36.689969 
L 25.776423 34.91489 
L 25.84969 37.459169 
L 25.922957 36.305368 
L 26.142758 39.263832 
L 26.216025 38.701724 
L 26.289292 42.399804 
L 26.362559 37.636677 
L 26.435826 42.69565 
L 26.509093 37.4 
L 26.58236 43.760697 
L 26.728894 38.731309 
L 26.802161 44.145298 
L 26.875428 43.52402 
L 26.948695 38.790478 
L 27.021962 38.967986 
L 27.168496 43.435266 
L 27.31503 39.678017 
L 27.461564 43.169005 
L 27.534831 40.180956 
L 27.608098 46.216223 
L 27.681365 46.038715 
L 27.754632 44.322806 
L 27.827899 46.659992 
L 27.901166 42.488558 
L 27.974433 42.932328 
L 28.0477 42.399804 
L 28.194234 46.955839 
L 28.2675 45.802038 
L 28.340767 47.991301 
L 28.414034 46.926254 
L 28.487301 44.589067 
L 28.560568 47.813793 
L 28.633835 44.914498 
L 28.780369 47.961716 
L 28.853636 45.742868 
L 29.073437 49.352194 
L 29.146704 50.032641 
L 29.293238 46.985423 
L 29.366505 48.523824 
L 29.439772 47.547531 
L 29.513039 47.813793 
L 29.586306 50.032641 
L 29.659573 47.370024 
L 29.73284 48.287147 
L 29.806107 50.890596 
L 29.879374 46.600823 
L 29.952641 47.162931 
L 30.025908 50.032641 
L 30.099175 46.068299 
L 30.172442 47.2221 
L 30.245709 45.831622 
L 30.318976 53.139028 
L 30.392243 49.648041 
L 30.46551 48.819671 
L 30.538777 51.541458 
L 30.758578 47.961716 
L 30.831845 47.606701 
L 30.978379 52.458582 
L 31.051646 46.571238 
L 31.271447 52.991105 
L 31.491247 46.600823 
L 31.564514 53.079859 
L 31.637781 51.630212 
L 31.711048 49.026763 
L 31.784315 51.985227 
L 31.930849 49.500118 
L 32.004116 53.109444 
L 32.077383 51.955643 
L 32.15065 51.837304 
L 32.223917 50.121395 
L 32.297184 53.139028 
L 32.443718 47.636285 
L 32.516985 48.938009 
L 32.736786 51.304781 
L 32.810053 50.003056 
L 32.88332 53.494044 
L 32.956587 48.020886 
L 33.029854 49.529702 
L 33.103121 46.896669 
L 33.176388 48.080055 
L 33.249655 51.216027 
L 33.322922 50.062226 
L 33.542723 46.689577 
L 33.61599 50.92018 
L 33.689257 49.618456 
L 33.909058 48.405486 
L 33.982325 48.582994 
L 34.128859 46.659992 
L 34.202126 47.399608 
L 34.275393 45.772453 
L 34.34866 46.097884 
L 34.568461 50.210149 
L 34.714994 43.731113 
L 34.788261 50.476411 
L 34.861528 46.630408 
L 35.008062 52.044397 
L 35.227863 47.813793 
L 35.30113 47.695455 
L 35.374397 51.216027 
L 35.520931 45.920376 
L 35.594198 47.695455 
L 35.667465 43.849451 
L 35.740732 48.730917 
L 35.813999 48.701332 
L 35.887266 45.121591 
L 35.960533 46.216223 
L 36.0338 46.068299 
L 36.107067 48.287147 
L 36.180334 47.429193 
L 36.253601 49.026763 
L 36.326868 46.068299 
L 36.400135 50.653918 
L 36.473402 45.476607 
L 36.546669 47.517947 
L 36.693203 49.411364 
L 36.839737 45.476607 
L 36.913004 48.967594 
L 36.986271 48.375901 
L 37.059538 46.068299 
L 37.132805 46.896669 
L 37.206072 51.186442 
L 37.279339 48.080055 
L 37.352606 50.97935 
L 37.425873 44.293221 
L 37.49914 47.991301 
L 37.572407 47.074177 
L 37.645674 49.115517 
L 37.792208 45.417437 
L 37.865475 45.772453 
L 37.938741 49.914303 
L 38.012008 47.517947 
L 38.085275 50.032641 
L 38.158542 49.588871 
L 38.231809 44.470729 
L 38.378343 48.819671 
L 38.45161 49.618456 
L 38.524877 49.559287 
L 38.744678 47.133346 
L 38.817945 49.233856 
L 39.037746 41.808111 
L 39.111013 46.8375 
L 39.18428 45.594945 
L 39.257547 48.87884 
L 39.330814 44.35239 
L 39.477348 49.085933 
L 39.550615 45.979545 
L 39.623882 46.157053 
L 39.697149 45.387853 
L 39.843683 48.464655 
L 39.91695 44.056544 
L 39.990217 47.28127 
L 40.063484 45.210345 
L 40.136751 48.287147 
L 40.210018 47.103762 
L 40.283285 45.742868 
L 40.356552 51.926058 
L 40.429819 48.997179 
L 40.503086 46.867085 
L 40.576353 47.429193 
L 40.64962 49.085933 
L 40.796154 47.074177 
L 40.869421 49.32261 
L 40.942688 46.216223 
L 41.015955 51.718966 
L 41.162488 48.198393 
L 41.235755 50.565165 
L 41.309022 47.843378 
L 41.382289 51.304781 
L 41.455556 51.008934 
L 41.528823 49.884718 
L 41.60209 52.340243 
L 41.675357 51.097688 
L 41.895158 49.825549 
L 41.968425 51.630212 
L 42.041692 49.085933 
L 42.114959 53.257367 
L 42.188226 49.293025 
L 42.33476 54.677429 
L 42.408027 53.139028 
L 42.481294 55.298707 
L 42.554561 52.636089 
L 42.627828 54.499922 
L 42.701095 53.523629 
L 42.774362 61.245219 
L 42.847629 57.192124 
L 42.920896 57.990909 
L 42.994163 57.280878 
L 43.06743 59.055956 
L 43.140697 56.807524 
L 43.213964 58.257171 
L 43.287231 57.280878 
L 43.507032 62.694867 
L 43.580299 57.635893 
L 43.8001 63.641575 
L 43.873367 61.836912 
L 43.946634 64.292437 
L 44.019901 63.28656 
L 44.093168 62.724451 
L 44.166435 68.13844 
L 44.239702 66.037931 
L 44.312969 64.49953 
L 44.386235 65.091223 
L 44.459502 69.913519 
L 44.532769 65.387069 
L 44.606036 68.907641 
L 44.679303 68.315948 
L 44.75257 67.990517 
L 44.825837 69.736011 
L 44.899104 65.742085 
L 44.972371 73.167829 
L 45.045638 68.670964 
L 45.118905 71.244828 
L 45.192172 69.380995 
L 45.338706 72.783229 
L 45.411973 71.570259 
L 45.48524 72.014028 
L 45.558507 72.043613 
L 45.631774 74.025784 
L 45.705041 71.83652 
L 45.924842 75.297923 
L 45.998109 76.096708 
L 46.144643 73.789107 
L 46.291177 77.280094 
L 46.364444 74.7654 
L 46.437711 75.652939 
L 46.510978 76.570063 
L 46.584245 80.268143 
L 46.657512 77.398433 
L 46.730779 80.001881 
L 46.804046 79.410188 
L 46.877313 79.942712 
L 46.95058 78.581818 
L 47.023847 82.516575 
L 47.097114 80.771082 
L 47.243648 79.587696 
L 47.390182 83.492868 
L 47.609983 79.439773 
L 47.756516 83.788715 
L 47.829783 83.37453 
L 47.90305 82.960345 
L 47.976317 85.060854 
L 48.196118 82.93076 
L 48.269385 83.463284 
L 48.342652 86.688009 
L 48.415919 85.238362 
L 48.489186 84.114146 
L 48.63572 86.155486 
L 48.708987 85.445455 
L 48.855521 87.043025 
L 48.928788 87.398041 
L 49.002055 84.114146 
L 49.148589 87.989734 
L 49.221856 86.835933 
L 49.295123 87.190948 
L 49.441657 90.445259 
L 49.514924 90.977782 
L 49.734725 88.611011 
L 49.807992 88.847688 
L 49.954526 87.545964 
L 50.10106 92.634522 
L 50.174327 91.066536 
L 50.247594 91.421552 
L 50.320861 91.510306 
L 50.394128 91.036951 
L 50.467395 91.480721 
L 50.540662 89.11395 
L 50.613929 91.717398 
L 50.687196 89.794397 
L 50.760463 90.267751 
L 50.83373 92.36826 
L 50.906996 89.705643 
L 51.05353 95.385893 
L 51.126797 90.001489 
L 51.200064 90.918613 
L 51.273331 91.746983 
L 51.346598 94.705447 
L 51.419865 91.806152 
L 51.493132 92.042829 
L 51.566399 92.664107 
L 51.712933 90.918613 
L 51.7862 91.480721 
L 51.859467 90.918613 
L 52.079268 93.669984 
L 52.225802 94.202508 
L 52.299069 93.58123 
L 52.372336 95.68174 
L 52.445603 93.344553 
L 52.51887 93.462892 
L 52.592137 93.374138 
L 52.665404 91.303213 
L 52.811938 94.882955 
L 52.885205 92.545768 
L 52.958472 94.971708 
L 53.031739 92.900784 
L 53.105006 95.474647 
L 53.178273 94.557524 
L 53.25154 95.592986 
L 53.398074 93.167045 
L 53.471341 93.965831 
L 53.544608 96.569279 
L 53.617875 93.167045 
L 53.691142 96.214263 
L 53.764409 93.936246 
L 53.837676 94.202508 
L 53.910943 96.89471 
L 53.98421 94.439185 
L 54.057477 95.563401 
L 54.130743 96.155094 
L 54.20401 95.888832 
L 54.277277 93.6404 
L 54.350544 96.598864 
L 54.423811 94.320846 
L 54.570345 98.403527 
L 54.716879 93.758738 
L 54.863413 94.912539 
L 54.93668 95.060462 
L 55.009947 96.214263 
L 55.083214 96.155094 
L 55.156481 96.421356 
L 55.229748 96.214263 
L 55.303015 94.113754 
L 55.376282 97.220141 
L 55.449549 94.232092 
L 55.522816 97.841418 
L 55.596083 94.320846 
L 55.66935 97.72308 
L 55.742617 96.805956 
L 55.815884 96.924295 
L 55.962418 95.208386 
L 56.108952 97.782249 
L 56.182219 94.084169 
L 56.255486 96.865125 
L 56.328753 96.628448 
L 56.40202 96.362187 
L 56.475287 95.119632 
L 56.548554 95.149216 
L 56.621821 94.675862 
L 56.695088 94.882955 
L 56.768355 97.013049 
L 56.841622 95.918417 
L 56.914889 94.202508 
L 56.988156 97.131387 
L 57.061423 95.297139 
L 57.13469 95.770494 
L 57.207957 96.095925 
L 57.35449 93.255799 
L 57.427757 93.699569 
L 57.501024 97.220141 
L 57.574291 96.391771 
L 57.647558 95.385893 
L 57.720825 95.592986 
L 57.794092 95.060462 
L 57.867359 98.55145 
L 58.08716 93.906661 
L 58.160427 95.060462 
L 58.233694 94.882955 
L 58.306961 95.119632 
L 58.380228 94.291262 
L 58.453495 94.380016 
L 58.526762 93.995415 
L 58.600029 95.060462 
L 58.746563 93.374138 
L 58.81983 94.439185 
L 58.893097 94.350431 
L 58.966364 93.965831 
L 59.039631 95.030878 
L 59.112898 92.072414 
L 59.186165 94.794201 
L 59.259432 91.59906 
L 59.332699 93.107876 
L 59.405966 94.202508 
L 59.479233 91.510306 
L 59.5525 93.699569 
L 59.625767 91.98366 
L 59.699034 96.036755 
L 59.772301 91.451136 
L 59.845568 92.930368 
L 59.918835 89.409796 
L 60.065369 93.965831 
L 60.211903 92.190752 
L 60.28517 92.900784 
L 60.358437 90.090243 
L 60.431704 92.930368 
L 60.578237 89.764812 
L 60.651504 93.344553 
L 60.724771 91.036951 
L 60.798038 93.137461 
L 60.871305 92.279506 
L 60.944572 92.664107 
L 61.017839 93.936246 
L 61.091106 90.563597 
L 61.164373 94.616693 
L 61.310907 89.764812 
L 61.384174 93.433307 
L 61.457441 90.356505 
L 61.530708 91.421552 
L 61.603975 91.066536 
L 61.677242 89.11395 
L 61.750509 89.823981 
L 61.823776 92.545768 
L 61.97031 89.11395 
L 62.043577 90.534013 
L 62.116844 90.267751 
L 62.190111 90.474843 
L 62.263378 87.01344 
L 62.336645 90.267751 
L 62.409912 88.906857 
L 62.70298 86.983856 
L 62.849514 85.504624 
L 62.996048 87.960149 
L 63.069315 85.327116 
L 63.215849 87.605133 
L 63.289116 85.386285 
L 63.362383 86.954271 
L 63.43565 85.682132 
L 63.508917 81.806544 
L 63.582184 84.528331 
L 63.655451 83.37453 
L 63.728718 85.475039 
L 63.801984 83.285776 
L 63.875251 88.167241 
L 63.948518 83.936638 
L 64.021785 84.557915 
L 64.095052 82.279898 
L 64.168319 84.054976 
L 64.241586 82.516575 
L 64.314853 84.054976 
L 64.38812 78.966418 
L 64.607921 85.208777 
L 64.681188 79.262265 
L 64.754455 86.658425 
L 64.827722 78.640987 
L 64.900989 83.167437 
L 64.974256 81.776959 
L 65.047523 81.599451 
L 65.12079 81.688205 
L 65.194057 82.664498 
L 65.267324 82.279898 
L 65.413858 81.71779 
L 65.487125 80.001881 
L 65.560392 81.776959 
L 65.706926 78.493064 
L 65.780193 81.481113 
L 65.999994 76.274216 
L 66.219795 80.800666 
L 66.293062 79.558111 
L 66.366329 76.067124 
L 66.439596 79.587696 
L 66.512863 77.546356 
L 66.58613 79.913127 
L 66.659397 75.712108 
L 66.805931 79.410188 
L 67.025731 73.907445 
L 67.098998 74.587892 
L 67.245532 77.871787 
L 67.318799 74.824569 
L 67.392066 76.658817 
L 67.465333 75.97837 
L 67.5386 74.942908 
L 67.611867 76.36297 
L 67.685134 73.611599 
L 67.758401 75.327508 
L 67.904935 71.777351 
L 68.051469 75.682524 
L 68.198003 72.931152 
L 68.344537 73.079075 
L 68.417804 73.522845 
L 68.491071 68.463871 
L 68.564338 70.919397 
L 68.637605 72.487382 
L 68.710872 72.428213 
L 68.784139 69.883934 
L 68.857406 74.025784 
L 68.930673 72.428213 
L 69.00394 74.824569 
L 69.077207 73.079075 
L 69.150474 74.32163 
L 69.370275 71.156074 
L 69.443542 70.357288 
L 69.516809 71.599843 
L 69.663343 66.955055 
L 69.73661 71.540674 
L 69.809877 70.830643 
L 69.956411 66.92547 
L 70.102945 66.984639 
L 70.396012 69.262657 
L 70.469279 67.694671 
L 70.542546 69.055564 
L 70.68908 64.854545 
L 70.835614 67.694671 
L 70.908881 64.262853 
L 70.982148 64.706622 
L 71.128682 68.730133 
L 71.201949 68.168025 
L 71.495017 64.765792 
L 71.568284 67.813009 
L 71.641551 65.682915 
L 71.714818 67.457994 
L 71.788085 64.262853 
L 71.861352 66.984639 
L 71.934619 66.274608 
L 72.007886 66.866301 
L 72.081153 64.677038 
L 72.15442 69.233072 
L 72.227687 64.085345 
L 72.300954 65.002469 
L 72.374221 61.955251 
L 72.447488 62.546944 
L 72.520755 67.724255 
L 72.594022 66.037931 
L 72.667289 66.718378 
L 72.813823 62.191928 
L 72.960357 67.310071 
L 73.033624 63.434483 
L 73.106891 66.747962 
L 73.180158 65.682915 
L 73.253425 67.191732 
L 73.326692 65.475823 
L 73.399959 65.801254 
L 73.473226 65.594161 
L 73.546492 66.392947 
L 73.693026 65.061638 
L 73.766293 66.245024 
L 73.83956 64.824961 
L 74.059361 67.635502 
L 74.132628 66.984639 
L 74.205895 66.333777 
L 74.279162 66.363362 
L 74.352429 68.19761 
L 74.425696 68.13844 
L 74.57223 66.067516 
L 74.645497 66.422531 
L 74.792031 71.570259 
L 74.865298 71.659013 
L 74.938565 67.014224 
L 75.011832 68.463871 
L 75.085099 74.528723 
L 75.158366 68.907641 
L 75.231633 74.055368 
L 75.3049 68.13844 
L 75.378167 71.45192 
L 75.451434 68.345533 
L 75.524701 73.167829 
L 75.597968 70.830643 
L 75.744502 72.309875 
L 75.817769 71.984444 
L 75.891036 74.647061 
L 75.964303 71.511089 
L 76.03757 76.510893 
L 76.110837 72.901567 
L 76.184104 73.374922 
L 76.257371 76.510893 
L 76.330638 76.36297 
L 76.403905 77.694279 
L 76.477172 72.694475 
L 76.550439 76.599647 
L 76.623706 74.528723 
L 76.696973 78.640987 
L 76.770239 78.46348 
L 76.843506 77.694279 
L 76.916773 75.505016 
L 76.99004 78.138049 
L 77.063307 76.067124 
L 77.136574 76.777155 
L 77.209841 77.546356 
L 77.283108 76.895494 
L 77.356375 79.321434 
L 77.429642 78.138049 
L 77.502909 78.729741 
L 77.576176 81.451528 
L 77.649443 78.729741 
L 77.72271 81.481113 
L 77.795977 79.321434 
L 77.869244 82.309483 
L 77.942511 80.652743 
L 78.089045 83.404114 
L 78.162312 81.126097 
L 78.235579 84.114146 
L 78.308846 83.670376 
L 78.382113 81.481113 
L 78.45538 84.794592 
L 78.528647 83.907053 
L 78.601914 83.522453 
L 78.675181 85.149608 
L 78.748448 83.729545 
L 78.821715 85.682132 
L 78.894982 85.327116 
L 78.968249 86.096317 
L 79.041516 85.534208 
L 79.114783 87.161364 
L 79.18805 85.386285 
L 79.261317 85.948393 
L 79.481118 89.468966 
L 79.554385 88.255995 
L 79.700919 90.090243 
L 79.774186 88.019318 
L 79.847453 90.622766 
L 79.92072 90.178997 
L 79.993986 90.001489 
L 80.067253 88.048903 
L 80.14052 88.72935 
L 80.213787 92.427429 
L 80.287054 89.11395 
L 80.360321 90.32692 
L 80.433588 91.184875 
L 80.506855 90.741105 
L 80.580122 91.036951 
L 80.653389 90.474843 
L 80.799923 92.457014 
L 80.87319 90.474843 
L 80.946457 93.374138 
L 81.019724 91.924491 
L 81.166258 90.918613 
L 81.312792 95.770494 
L 81.459326 93.255799 
L 81.532593 96.125509 
L 81.60586 92.36826 
L 81.679127 93.403723 
L 81.752394 93.522061 
L 81.825661 91.658229 
L 81.898928 92.397845 
L 81.972195 95.356309 
L 82.045462 94.971708 
L 82.118729 91.835737 
L 82.191996 95.385893 
L 82.265263 94.823785 
L 82.33853 92.782445 
L 82.411797 93.344553 
L 82.704865 95.445063 
L 82.778132 94.85337 
L 82.851399 95.68174 
L 82.924666 94.646277 
L 82.997933 98.048511 
L 83.0712 96.45094 
L 83.144467 94.202508 
L 83.217733 94.764616 
L 83.437534 96.924295 
L 83.657335 94.646277 
L 83.730602 96.362187 
L 83.803869 94.261677 
L 83.877136 100.060266 
L 83.950403 93.551646 
L 84.02367 98.93605 
L 84.096937 96.628448 
L 84.170204 96.303017 
L 84.243471 97.308895 
L 84.316738 93.669984 
L 84.390005 98.906466 
L 84.463272 98.403527 
L 84.536539 98.196434 
L 84.609806 97.013049 
L 84.683073 97.190556 
L 84.75634 96.924295 
L 84.829607 98.876881 
L 84.902874 97.308895 
L 84.976141 97.515987 
L 85.049408 98.462696 
L 85.122675 94.616693 
L 85.269209 98.965635 
L 85.415743 99.823589 
L 85.48901 99.261481 
L 85.562277 97.33848 
L 85.708811 100.001097 
L 85.855345 96.89471 
L 85.928612 99.941928 
L 86.075146 95.711324 
L 86.294947 101.03656 
L 86.44148 98.314773 
L 86.514747 99.705251 
L 86.661281 97.752665 
L 86.734548 97.634326 
L 86.881082 98.876881 
L 86.954349 97.634326 
L 87.100883 101.628252 
L 87.17415 99.557328 
L 87.320684 102.545376 
L 87.467218 99.202312 
L 87.613752 101.125313 
L 87.687019 100.770298 
L 87.760286 102.219945 
L 87.833553 101.184483 
L 87.90682 98.403527 
L 87.980087 100.533621 
L 88.053354 99.468574 
L 88.126621 101.066144 
L 88.199888 97.782249 
L 88.273155 101.746591 
L 88.346422 100.740713 
L 88.419689 101.03656 
L 88.492956 101.983268 
L 88.566223 100.001097 
L 88.63949 101.953683 
L 88.712757 98.876881 
L 88.786024 103.432915 
L 88.859291 103.048315 
L 88.932558 102.811638 
L 89.079092 100.326528 
L 89.152359 100.622375 
L 89.37216 102.663715 
L 89.518694 99.853174 
L 89.591961 100.888636 
L 89.665227 104.172531 
L 89.738494 103.0779 
L 89.811761 101.302821 
L 89.885028 104.497962 
L 89.958295 103.551254 
L 90.104829 102.811638 
L 90.178096 101.746591 
L 90.251363 102.545376 
L 90.32463 99.586912 
L 90.397897 104.202116 
L 90.471164 103.225823 
L 90.544431 102.989146 
L 90.617698 104.527547 
L 90.690965 101.03656 
L 90.764232 104.586716 
L 90.837499 104.083777 
L 90.984033 102.841223 
L 91.0573 104.172531 
L 91.130567 102.012853 
L 91.277101 104.172531 
L 91.423635 103.314577 
L 91.496902 104.438793 
L 91.570169 101.894514 
L 91.643436 106.154702 
L 91.78997 99.468574 
L 91.863237 104.202116 
L 91.936504 102.929976 
L 92.009771 106.302625 
L 92.083038 103.876685 
L 92.156305 105.385502 
L 92.229572 105.326332 
L 92.302839 105.030486 
L 92.376106 107.308503 
L 92.449373 103.432915 
L 92.52264 104.941732 
L 92.595907 105.030486 
L 92.669174 103.90627 
L 92.888974 106.687226 
L 92.962241 105.148824 
L 93.035508 105.829271 
L 93.182042 106.036364 
L 93.255309 106.450549 
L 93.328576 104.379624 
L 93.401843 104.497962 
L 93.548377 107.900196 
L 93.621644 105.799687 
L 93.694911 106.480133 
L 93.768178 106.657641 
L 93.841445 105.563009 
L 93.914712 107.60435 
L 93.987979 104.645886 
L 94.20778 108.462304 
L 94.354314 104.557132 
L 94.500848 107.071826 
L 94.574115 107.130995 
L 94.647382 109.616105 
L 94.720649 105.94761 
L 94.793916 108.343966 
L 94.867183 108.077704 
L 94.94045 107.130995 
L 95.013717 107.60435 
L 95.086984 107.486011 
L 95.160251 109.172335 
L 95.233518 108.698981 
L 95.306785 109.024412 
L 95.453319 107.60435 
L 95.599853 108.37355 
L 95.67312 106.953487 
L 95.819654 108.728566 
L 95.892921 107.574765 
L 95.966188 108.698981 
L 96.039455 107.16058 
L 96.185988 108.728566 
L 96.259255 108.787735 
L 96.332522 108.107288 
L 96.552323 111.065752 
L 96.62559 107.900196 
L 96.698857 110.947414 
L 96.772124 107.16058 
L 96.845391 107.722688 
L 96.918658 111.598276 
L 96.991925 110.296552 
L 97.138459 108.521473 
L 97.211726 109.290674 
L 97.284993 110.03029 
L 97.35826 109.083582 
L 97.578061 111.24326 
L 97.651328 109.971121 
L 97.724595 110.533229 
L 97.797862 110.947414 
L 97.871129 108.314381 
L 97.944396 110.947414 
L 98.017663 109.497766 
L 98.09093 112.012461 
L 98.310731 108.698981 
L 98.383998 112.07163 
L 98.457265 110.41489 
L 98.603799 111.598276 
L 98.677066 108.965243 
L 98.750333 112.811246 
L 98.8236 108.994828 
L 98.896867 112.426646 
L 98.970134 111.894122 
L 99.043401 110.740321 
L 99.116668 110.829075 
L 99.189935 111.095337 
L 99.263202 110.710737 
L 99.336469 112.337892 
L 99.409735 111.065752 
L 99.483002 112.219553 
L 99.629536 109.438597 
L 99.77607 111.657445 
L 99.849337 110.888245 
L 99.995871 112.633738 
L 100.069138 112.101215 
L 100.142405 112.219553 
L 100.288939 112.929585 
L 100.362206 111.332014 
L 100.435473 111.953292 
L 100.50874 113.34377 
L 100.582007 111.509522 
L 100.655274 112.189969 
L 100.728541 111.539107 
L 100.801808 111.627861 
L 100.875075 113.72837 
L 100.948342 111.332014 
L 101.021609 113.432524 
L 101.094876 112.752077 
L 101.168143 112.692908 
L 101.24141 113.669201 
L 101.314677 112.042045 
L 101.387944 112.308307 
L 101.461211 112.042045 
L 101.534478 112.574569 
L 101.607745 114.290478 
L 101.681012 112.929585 
L 101.754279 113.432524 
L 101.97408 110.621983 
L 102.193881 114.320063 
L 102.267148 113.402939 
L 102.486949 111.332014 
L 102.560216 114.320063 
L 102.633482 112.189969 
L 102.706749 113.669201 
L 102.780016 112.367476 
L 102.853283 109.083582 
L 102.999817 113.373354 
L 103.219618 110.533229 
L 103.292885 112.9 
L 103.366152 112.544984 
L 103.439419 113.136677 
L 103.585953 110.03029 
L 103.65922 110.148629 
L 103.732487 110.592398 
L 103.805754 108.81732 
L 103.879021 110.385306 
L 103.952288 108.935658 
L 104.025555 109.58652 
L 104.172089 107.367672 
L 104.245356 109.764028 
L 104.318623 107.60435 
L 104.39189 107.959365 
L 104.465157 107.397257 
L 104.684958 102.515792 
L 104.758225 105.267163 
L 104.978026 99.32065 
L 105.051293 99.37982 
L 105.197827 101.302821 
L 105.344361 95.829663 
L 105.417628 97.427234 
L 105.490895 94.172923 
L 105.564162 97.368064 
L 105.710696 94.025 
L 105.783963 94.882955 
L 106.003763 91.98366 
L 106.07703 92.309091 
L 106.223564 90.918613 
L 106.296831 92.397845 
L 106.443365 90.149412 
L 106.516632 91.362382 
L 106.589899 91.214459 
L 106.8097 88.640596 
L 106.882967 91.391967 
L 106.956234 90.474843 
L 107.029501 90.71152 
L 107.102768 91.59906 
L 107.176035 89.557719 
L 107.249302 93.344553 
L 107.395836 89.528135 
L 107.762171 96.036755 
L 107.835438 93.847492 
L 107.908705 96.480525 
L 107.981972 96.391771 
L 108.055239 96.924295 
L 108.128506 96.89471 
L 108.201773 97.160972 
L 108.27504 96.628448 
L 108.348307 98.876881 
L 108.421574 98.55145 
L 108.494841 96.835541 
L 108.568108 97.545572 
L 108.641375 97.27931 
L 108.714642 100.651959 
L 108.787909 98.078096 
L 108.861176 100.296944 
L 108.934443 98.55145 
L 109.154243 101.835345 
L 109.22751 100.947806 
L 109.300777 103.728762 
L 109.374044 102.959561 
L 109.447311 100.740713 
L 109.520578 103.965439 
L 109.593845 100.533621 
L 109.667112 104.645886 
L 109.740379 103.314577 
L 109.813646 100.237774 
L 109.886913 106.243456 
L 109.96018 103.551254 
L 110.106714 107.900196 
L 110.179981 103.403331 
L 110.253248 108.196042 
L 110.326515 106.71681 
L 110.473049 107.130995 
L 110.546316 106.568887 
L 110.69285 108.077704 
L 110.766117 106.213871 
L 110.912651 110.178213 
L 111.059185 107.042241 
L 111.205719 111.539107 
L 111.278986 108.314381 
L 111.352253 109.113166 
L 111.498787 112.042045 
L 111.572054 111.332014 
L 111.718588 107.308503 
L 111.865122 111.716614 
L 111.938389 111.509522 
L 112.011656 112.160384 
L 112.15819 111.213676 
L 112.231457 111.894122 
L 112.304723 113.698785 
L 112.37799 112.870415 
L 112.451257 112.012461 
L 112.524524 114.467986 
L 112.597791 110.533229 
L 112.671058 113.077508 
L 112.744325 112.278723 
L 112.890859 111.894122 
L 112.964126 113.639616 
L 113.037393 111.184091 
L 113.11066 111.982876 
L 113.257194 113.314185 
L 113.330461 112.219553 
L 113.403728 113.462108 
L 113.476995 112.189969 
L 113.550262 113.136677 
L 113.623529 111.746199 
L 113.696796 114.734248 
L 113.770063 113.018339 
L 113.916597 114.497571 
L 113.989864 112.840831 
L 114.063131 115.32594 
L 114.136398 111.24326 
L 114.209665 112.130799 
L 114.282932 115.296356 
L 114.356199 112.160384 
L 114.429466 113.521277 
L 114.576 114.586324 
L 114.649267 114.201724 
L 114.795801 111.272845 
L 114.869068 112.633738 
L 114.942335 112.367476 
L 115.015602 111.302429 
L 115.088869 112.012461 
L 115.162136 114.231309 
L 115.235403 113.107092 
L 115.381937 115.710541 
L 115.52847 110.976998 
L 115.748271 113.669201 
L 115.894805 111.450353 
L 115.968072 112.012461 
L 116.041339 113.462108 
L 116.114606 111.006583 
L 116.187873 114.172139 
L 116.26114 113.34377 
L 116.334407 111.154506 
L 116.407674 113.72837 
L 116.480941 112.811246 
L 116.554208 112.722492 
L 116.627475 112.45623 
L 116.700742 113.965047 
L 116.774009 111.982876 
L 116.847276 113.402939 
L 116.920543 111.006583 
L 116.99381 111.095337 
L 117.067077 114.438401 
L 117.140344 111.479937 
L 117.286878 114.320063 
L 117.360145 112.337892 
L 117.433412 114.349647 
L 117.579946 112.042045 
L 117.72648 113.107092 
L 117.799747 110.326136 
L 117.873014 114.94134 
L 117.946281 112.604154 
L 118.166082 114.645494 
L 118.239349 113.432524 
L 118.312616 114.408817 
L 118.45915 112.781661 
L 118.605684 115.38511 
L 118.678951 112.604154 
L 118.752217 114.675078 
L 118.825484 114.024216 
L 119.045285 110.888245 
L 119.191819 114.704663 
L 119.265086 114.734248 
L 119.338353 114.053801 
L 119.484887 116.21348 
L 119.558154 114.675078 
L 119.631421 115.296356 
L 119.704688 114.260893 
L 119.851222 115.740125 
L 119.924489 115.237187 
L 120.071023 116.331818 
L 120.14429 115.089263 
L 120.217557 116.834757 
L 120.290824 116.716418 
L 120.364091 115.473864 
L 120.437358 115.976803 
L 120.510625 118.136481 
L 120.583892 115.799295 
L 120.657159 117.189773 
L 120.730426 117.04185 
L 120.950227 114.793417 
L 121.170028 116.420572 
L 121.243295 118.728174 
L 121.316562 116.479741 
L 121.389829 119.704467 
L 121.463096 116.864342 
L 121.60963 119.526959 
L 121.756164 116.775588 
L 121.829431 118.876097 
L 121.902698 117.988558 
L 121.975965 118.077312 
L 122.122498 116.627665 
L 122.269032 119.556544 
L 122.342299 118.047727 
L 122.5621 120.266575 
L 122.635367 119.231113 
L 122.708634 119.822806 
L 122.781901 117.42645 
L 122.928435 120.858268 
L 123.001702 118.343574 
L 123.074969 121.420376 
L 123.148236 120.089067 
L 123.221503 120.887853 
L 123.368037 119.290282 
L 123.514571 119.379036 
L 123.661105 121.716223 
L 123.807639 118.432328 
L 124.02744 121.627469 
L 124.100707 121.804976 
L 124.320508 119.201528 
L 124.393775 121.982484 
L 124.467042 120.828683 
L 124.76011 122.751685 
L 124.833377 120.769514 
L 124.979911 122.899608 
L 125.126445 120.947022 
L 125.199712 121.420376 
L 125.272978 122.692516 
L 125.346245 122.278331 
L 125.419512 123.136285 
L 125.492779 121.361207 
L 125.566046 121.686638 
L 125.71258 123.047531 
L 125.785847 122.041654 
L 125.859114 122.130408 
L 125.932381 122.633346 
L 126.005648 122.3375 
L 126.225449 123.16587 
L 126.298716 121.302038 
L 126.371983 122.159992 
L 126.591784 123.787147 
L 126.665051 123.077116 
L 126.738318 124.970533 
L 126.811585 123.017947 
L 126.884852 123.284208 
L 126.958119 124.970533 
L 127.17792 122.100823 
L 127.251187 124.201332 
L 127.324454 123.668809 
L 127.397721 125.029702 
L 127.470988 123.16587 
L 127.544255 124.970533 
L 127.690789 122.219161 
L 127.837323 124.556348 
L 127.91059 123.254624 
L 127.983857 124.349255 
L 128.057124 124.053409 
L 128.130391 124.793025 
L 128.203658 123.698393 
L 128.276925 124.37884 
L 128.350192 124.023824 
L 128.423459 122.958777 
L 128.496725 123.313793 
L 128.569992 123.225039 
L 128.643259 123.698393 
L 128.716526 125.177625 
L 128.789793 123.372962 
L 128.86306 124.526763 
L 128.936327 123.55047 
L 129.082861 124.76344 
L 129.156128 123.343378 
L 129.229395 123.639224 
L 129.302662 124.112578 
L 129.375929 125.621395 
L 129.522463 123.846317 
L 129.668997 125.088871 
L 129.742264 123.047531 
L 129.888798 125.59181 
L 129.962065 122.485423 
L 130.035332 123.284208 
L 130.108599 125.000118 
L 130.181866 123.698393 
L 130.255133 124.556348 
L 130.3284 122.870024 
L 130.474934 125.000118 
L 130.548201 123.047531 
L 130.621468 124.615517 
L 130.694735 124.408425 
L 130.768002 121.50913 
L 130.841269 125.503056 
L 130.914536 123.077116 
L 130.987803 123.55047 
L 131.06107 123.787147 
L 131.134337 124.970533 
L 131.207604 122.840439 
L 131.280871 125.532641 
L 131.354138 123.195455 
L 131.427405 124.112578 
L 131.500672 125.473472 
L 131.647206 124.319671 
L 131.720472 124.704271 
L 131.867006 122.3375 
L 131.940273 122.426254 
L 132.086807 123.905486 
L 132.233341 123.254624 
L 132.306608 124.438009 
L 132.379875 123.668809 
L 132.526409 125.148041 
L 132.599676 121.834561 
L 132.672943 123.284208 
L 132.74621 121.775392 
L 132.819477 124.82261 
L 132.892744 123.225039 
L 132.966011 124.497179 
L 133.039278 124.37884 
L 133.185812 122.278331 
L 133.259079 122.988362 
L 133.405613 121.331622 
L 133.47888 123.16587 
L 133.552147 122.219161 
L 133.625414 121.686638 
L 133.771948 124.704271 
L 133.845215 122.012069 
L 133.918482 122.633346 
L 133.991749 123.491301 
L 134.065016 120.651176 
L 134.138283 125.177625 
L 134.21155 121.716223 
L 134.284817 121.745807 
L 134.358084 121.804976 
L 134.431351 123.225039 
L 134.504618 121.50913 
L 134.577885 122.159992 
L 134.651152 121.89373 
L 134.724419 120.621591 
L 134.797686 122.426254 
L 134.870953 122.367085 
L 134.944219 120.858268 
L 135.017486 122.278331 
L 135.090753 121.686638 
L 135.16402 121.627469 
L 135.237287 120.029898 
L 135.310554 121.864146 
L 135.383821 119.91156 
L 135.457088 122.574177 
L 135.530355 120.947022 
L 135.603622 122.870024 
L 135.750156 121.006191 
L 135.89669 122.219161 
L 135.969957 119.91156 
L 136.043224 120.384914 
L 136.116491 119.85239 
L 136.189758 121.449961 
L 136.263025 121.272453 
L 136.336292 121.775392 
L 136.482826 119.556544 
L 136.556093 120.177821 
L 136.62936 119.46779 
L 136.702627 121.390792 
L 136.775894 119.408621 
L 136.849161 120.325745 
L 136.922428 119.674882 
L 137.068962 121.657053 
L 137.142229 120.444083 
L 137.215496 120.562422 
L 137.288763 123.284208 
L 137.435297 119.645298 
L 137.581831 121.50913 
L 137.655098 119.763636 
L 137.874899 121.538715 
L 137.948166 121.89373 
L 138.021433 121.597884 
L 138.0947 121.775392 
L 138.167966 119.526959 
L 138.241233 121.716223 
L 138.3145 121.538715 
L 138.461034 120.29616 
L 138.534301 121.834561 
L 138.607568 120.473668 
L 138.680835 122.100823 
L 138.827369 120.148237 
L 139.04717 121.538715 
L 139.120437 119.615713 
L 139.193704 120.562422 
L 139.266971 121.89373 
L 139.340238 121.272453 
L 139.413505 120.858268 
L 139.560039 121.597884 
L 139.633306 120.384914 
L 139.77984 122.041654 
L 139.926374 120.710345 
L 139.999641 120.651176 
L 140.072908 122.159992 
L 140.146175 121.597884 
L 140.219442 122.633346 
L 140.292709 120.621591 
L 140.365976 121.302038 
L 140.439243 120.059483 
L 140.585777 121.627469 
L 140.659044 121.597884 
L 140.732311 122.455839 
L 140.805578 121.183699 
L 140.878845 123.99424 
L 140.952112 120.384914 
L 141.025379 122.012069 
L 141.098646 121.006191 
L 141.171913 122.633346 
L 141.24518 121.065361 
L 141.318447 123.461716 
L 141.391713 122.810854 
L 141.538247 121.449961 
L 141.611514 123.668809 
L 141.684781 121.361207 
L 141.758048 121.50913 
L 141.831315 122.041654 
L 141.904582 124.290086 
L 141.977849 122.012069 
L 142.051116 122.603762 
L 142.124383 123.343378 
L 142.19765 123.284208 
L 142.270917 123.313793 
L 142.417451 124.911364 
L 142.490718 122.870024 
L 142.563985 124.674687 
L 142.637252 123.047531 
L 142.710519 123.402547 
L 142.783786 123.846317 
L 142.857053 121.775392 
L 143.003587 125.59181 
L 143.150121 122.130408 
L 143.223388 124.615517 
L 143.296655 123.727978 
L 143.369922 122.130408 
L 143.443189 122.633346 
L 143.516456 122.189577 
L 143.736257 126.361011 
L 143.882791 123.787147 
L 143.956058 125.059287 
L 144.029325 124.112578 
L 144.175859 125.65098 
L 144.249126 122.189577 
L 144.322393 123.106701 
L 144.39566 122.278331 
L 144.542194 125.621395 
L 144.688727 122.633346 
L 144.761994 123.964655 
L 144.835261 126.656857 
L 144.981795 123.461716 
L 145.128329 126.597688 
L 145.34813 124.171748 
L 145.494664 126.538519 
L 145.641198 124.349255 
L 145.714465 125.710149 
L 145.787732 124.733856 
L 145.860999 127.662735 
L 145.934266 126.508934 
L 146.154067 125.59181 
L 146.227334 126.094749 
L 146.300601 128.284013 
L 146.373868 126.923119 
L 146.447135 127.455643 
L 146.520402 126.804781 
L 146.593669 124.733856 
L 146.666936 127.721904 
L 146.740203 126.124334 
L 146.81347 128.224843 
L 147.033271 125.710149 
L 147.179805 127.307719 
L 147.253072 126.331426 
L 147.326339 128.816536 
L 147.399606 128.313597 
L 147.472873 127.988166 
L 147.619407 124.970533 
L 147.692674 128.313597 
L 147.765941 127.011873 
L 147.839208 126.627273 
L 147.912474 128.284013 
L 147.985741 127.485227 
L 148.059008 126.449765 
L 148.132275 128.609444 
L 148.205542 126.47935 
L 148.278809 129.851998 
L 148.425343 126.301842 
L 148.49861 128.491105 
L 148.571877 127.396473 
L 148.718411 129.585737 
L 148.938212 127.100627 
L 149.158013 129.230721 
L 149.304547 128.224843 
L 149.377814 129.585737 
L 149.451081 129.112382 
L 149.524348 128.224843 
L 149.597615 129.467398 
L 149.670882 126.627273 
L 149.744149 129.230721 
L 149.817416 128.402351 
L 149.890683 129.911168 
L 149.96395 129.526567 
L 150.110484 128.609444 
L 150.183751 128.668613 
L 150.330285 129.763245 
L 150.476819 128.431936 
L 150.550086 129.851998 
L 150.623353 128.343182 
L 150.69662 129.201136 
L 150.769887 128.343182 
L 150.916421 129.437813 
L 150.989688 128.195259 
L 151.062955 129.73366 
L 151.136221 129.28989 
L 151.209488 129.141967 
L 151.356022 130.443691 
L 151.429289 128.46152 
L 151.64909 131.597492 
L 151.795624 129.408229 
L 151.868891 129.792829 
L 151.942158 129.644906 
L 152.088692 127.988166 
L 152.161959 131.242476 
L 152.235226 129.171552 
L 152.308493 130.11826 
L 152.601561 132.337108 
L 152.674828 130.414107 
L 152.748095 131.952508 
L 152.894629 129.408229 
L 153.041163 131.715831 
L 153.11443 131.183307 
L 153.187697 129.230721 
L 153.260964 129.496983 
L 153.334231 131.656661 
L 153.407498 130.857876 
L 153.480765 128.136089 
L 153.627299 131.212892 
L 153.700566 130.798707 
L 153.773833 131.745415 
L 153.920367 130.56203 
L 153.993634 130.680368 
L 154.066901 129.73366 
L 154.213435 131.952508 
L 154.286702 131.715831 
L 154.359968 132.544201 
L 154.506502 129.881583 
L 154.79957 133.047139 
L 154.872837 131.212892 
L 154.946104 131.419984 
L 155.019371 130.828292 
L 155.092638 132.130016 
L 155.165905 131.242476 
L 155.239172 131.804585 
L 155.312439 130.857876 
L 155.385706 132.840047 
L 155.53224 130.354937 
L 155.605507 131.745415 
L 155.678774 131.272061 
L 155.752041 132.041262 
L 155.825308 131.242476 
L 155.898575 132.721708 
L 155.971842 129.615321 
L 156.045109 132.98797 
L 156.118376 131.508738 
L 156.191643 131.715831 
L 156.26491 131.035384 
L 156.338177 131.183307 
L 156.411444 131.094553 
L 156.557978 131.656661 
L 156.631245 131.508738 
L 156.704512 132.396277 
L 156.851046 130.976215 
L 156.99758 131.686246 
L 157.144114 132.751293 
L 157.363915 130.207014 
L 157.583715 133.81634 
L 157.730249 131.272061 
L 157.803516 132.98797 
L 157.876783 132.130016 
L 157.95005 131.33123 
L 158.023317 131.627077 
L 158.096584 131.094553 
L 158.243118 133.579663 
L 158.316385 131.686246 
L 158.389652 132.425862 
L 158.462919 131.893339 
L 158.536186 131.952508 
L 158.609453 131.952508 
L 158.68272 129.615321 
L 158.829254 133.017555 
L 158.902521 132.958386 
L 158.975788 131.775 
L 159.049055 133.757171 
L 159.268856 131.775 
L 159.41539 133.520494 
L 159.561924 133.283817 
L 159.635191 133.076724 
L 159.708458 133.786755 
L 159.854992 131.035384 
L 160.001526 133.81634 
L 160.074793 133.224647 
L 160.14806 133.520494 
L 160.221327 133.81634 
L 160.367861 132.455447 
L 160.441128 133.727586 
L 160.514395 133.490909 
L 160.587662 132.485031 
L 160.660929 132.958386 
L 160.734196 132.721708 
L 160.807462 134.171356 
L 160.880729 133.757171 
L 160.953996 133.81634 
L 161.027263 133.372571 
L 161.10053 133.520494 
L 161.173797 133.461324 
L 161.320331 131.449569 
L 161.393598 133.727586 
L 161.540132 132.011677 
L 161.613399 133.786755 
L 161.686666 132.721708 
L 161.759933 133.254232 
L 161.979734 133.934679 
L 162.053001 133.993848 
L 162.126268 133.313401 
L 162.272802 134.20094 
L 162.346069 133.698002 
L 162.419336 133.727586 
L 162.492603 133.579663 
L 162.56587 133.934679 
L 162.712404 133.283817 
L 162.858938 133.757171 
L 162.932205 133.195063 
L 163.005472 133.993848 
L 163.078739 132.810462 
L 163.225273 134.555956 
L 163.29854 133.875509 
L 163.371807 134.20094 
L 163.445074 133.845925 
L 163.518341 134.378448 
L 163.738142 133.550078 
L 163.811409 133.135893 
L 163.957943 134.319279 
L 164.031209 133.017555 
L 164.177743 133.875509 
L 164.25101 133.875509 
L 164.397544 133.43174 
L 164.470811 134.64471 
L 164.544078 133.402155 
L 164.617345 133.905094 
L 164.690612 133.905094 
L 164.763879 132.425862 
L 164.98368 135.147649 
L 165.056947 132.662539 
L 165.203481 135.02931 
L 165.276748 133.372571 
L 165.350015 133.461324 
L 165.423282 133.165478 
L 165.569816 133.964263 
L 165.643083 132.751293 
L 165.71635 133.609248 
L 165.789617 133.195063 
L 165.862884 133.964263 
L 165.936151 132.189185 
L 166.009418 134.437618 
L 166.082685 134.26011 
L 166.155952 133.490909 
L 166.302486 134.230525 
L 166.375753 133.313401 
L 166.44902 134.378448 
L 166.522287 133.135893 
L 166.595554 134.023433 
L 166.742088 132.721708 
L 166.815355 134.348864 
L 166.888622 134.112187 
L 166.961889 133.254232 
L 167.18169 134.940556 
L 167.328223 133.698002 
L 167.40149 135.295572 
L 167.474757 134.674295 
L 167.548024 135.295572 
L 167.621291 133.698002 
L 167.694558 134.289694 
L 167.767825 133.135893 
L 167.841092 135.798511 
L 167.914359 134.674295 
L 167.987626 135.147649 
L 168.13416 133.786755 
L 168.207427 133.845925 
L 168.353961 134.26011 
L 168.500495 133.106309 
L 168.647029 134.615125 
L 168.720296 132.485031 
L 168.940097 135.739342 
L 169.086631 133.520494 
L 169.159898 136.035188 
L 169.233165 133.964263 
L 169.306432 135.058895 
L 169.379699 133.845925 
L 169.452966 134.408033 
L 169.5995 133.609248 
L 169.672767 135.413911 
L 169.819301 134.112187 
L 169.892568 134.082602 
L 170.039102 134.230525 
L 170.112369 133.342986 
L 170.185636 135.058895 
L 170.258903 134.141771 
L 170.33217 134.585541 
L 170.405437 134.733464 
L 170.478704 134.26011 
L 170.625237 135.828096 
L 170.698504 135.621003 
L 170.771771 133.372571 
L 170.845038 135.02931 
L 170.991572 133.698002 
L 171.064839 133.875509 
L 171.211373 135.08848 
L 171.28464 134.408033 
L 171.357907 135.118064 
L 171.431174 134.763049 
L 171.577708 133.550078 
L 171.650975 134.526371 
L 171.724242 133.786755 
L 171.797509 134.763049 
L 171.870776 134.348864 
L 172.01731 133.668417 
L 172.090577 134.851803 
L 172.237111 132.277939 
L 172.383645 135.08848 
L 172.456912 134.082602 
L 172.530179 135.02931 
L 172.603446 134.851803 
L 172.74998 133.668417 
L 172.896514 133.372571 
L 172.969781 134.881387 
L 173.043048 133.905094 
L 173.116315 134.230525 
L 173.189582 133.461324 
L 173.262849 133.520494 
L 173.409383 135.828096 
L 173.48265 133.668417 
L 173.555917 134.082602 
L 173.629184 133.135893 
L 173.702451 133.845925 
L 173.848984 132.958386 
L 173.922251 134.112187 
L 173.995518 133.905094 
L 174.068785 133.195063 
L 174.142052 134.171356 
L 174.215319 133.698002 
L 174.288586 133.609248 
L 174.43512 135.206818 
L 174.654921 132.751293 
L 174.728188 134.378448 
L 174.801455 132.100431 
L 174.874722 132.869632 
L 174.947989 133.165478 
L 175.021256 134.141771 
L 175.094523 132.98797 
L 175.16779 134.940556 
L 175.314324 132.425862 
L 175.534125 134.526371 
L 175.753926 131.508738 
L 175.90046 133.254232 
L 175.973727 132.100431 
L 176.046994 132.396277 
L 176.120261 133.283817 
L 176.266795 131.567908 
L 176.413329 132.337108 
L 176.486596 132.277939 
L 176.706397 131.627077 
L 176.779664 129.940752 
L 176.852931 130.739538 
L 177.145998 130.029506 
L 177.219265 131.745415 
L 177.365799 129.28989 
L 177.439066 128.550274 
L 177.512333 128.757367 
L 177.5856 129.260306 
L 177.732134 127.307719 
L 177.805401 127.988166 
L 177.878668 127.63315 
L 178.171736 123.99424 
L 178.245003 125.295964 
L 178.391537 123.875901 
L 178.464804 123.905486 
L 178.538071 125.029702 
L 178.684605 120.118652 
L 178.757872 120.444083 
L 178.831139 122.455839 
L 178.904406 121.538715 
L 178.977673 120.917437 
L 179.05094 122.100823 
L 179.124207 119.881975 
L 179.197474 120.917437 
L 179.417275 117.42645 
L 179.563809 119.645298 
L 179.637076 117.337696 
L 179.710343 119.586129 
L 179.78361 119.171944 
L 179.856877 119.08319 
L 180.076678 116.627665 
L 180.223211 119.941144 
L 180.296478 119.408621 
L 180.369745 119.142359 
L 180.443012 119.645298 
L 180.516279 118.876097 
L 180.589546 118.994436 
L 180.662813 120.887853 
L 180.73608 120.29616 
L 180.809347 118.491497 
L 180.882614 120.68076 
L 180.955881 120.592006 
L 181.029148 119.08319 
L 181.175682 120.651176 
L 181.248949 120.384914 
L 181.395483 121.065361 
L 181.46875 120.532837 
L 181.688551 122.012069 
L 181.761818 122.159992 
L 181.835085 121.804976 
L 181.908352 120.355329 
L 182.054886 122.219161 
L 182.128153 120.177821 
L 182.347954 122.810854 
L 182.421221 120.029898 
L 182.494488 121.449961 
L 182.567755 119.734052 
L 182.714289 122.485423 
L 182.787556 122.219161 
L 182.860823 122.367085 
L 182.93409 123.580055 
L 183.007357 122.426254 
L 183.080624 122.633346 
L 183.153891 124.201332 
L 183.227158 123.491301 
L 183.300425 123.313793 
L 183.373692 125.236795 
L 183.446958 123.491301 
L 183.520225 123.935071 
L 183.666759 125.680564 
L 183.740026 124.704271 
L 183.813293 126.183503 
L 183.88656 125.473472 
L 183.959827 125.443887 
L 184.033094 128.313597 
L 184.106361 127.011873 
L 184.179628 125.503056 
L 184.252895 128.816536 
L 184.326162 127.544397 
L 184.399429 127.544397 
L 184.545963 129.023629 
L 184.61923 125.59181 
L 184.765764 128.727782 
L 184.839031 128.579859 
L 185.132099 129.556152 
L 185.205366 129.28989 
L 185.425167 130.414107 
L 185.498434 129.437813 
L 185.718235 131.479154 
L 185.864769 131.508738 
L 185.938036 131.301646 
L 186.011303 132.307524 
L 186.08457 130.709953 
L 186.231104 132.396277 
L 186.377638 133.372571 
L 186.450905 134.378448 
L 186.524172 131.005799 
L 186.597439 131.153723 
L 186.743972 134.348864 
L 186.817239 132.810462 
L 186.890506 132.869632 
L 186.963773 133.786755 
L 187.03704 132.899216 
L 187.110307 132.928801 
L 187.183574 135.02931 
L 187.330108 132.721708 
L 187.623176 135.887265 
L 187.76971 133.490909 
L 187.842977 135.502665 
L 187.916244 134.970141 
L 187.989511 135.828096 
L 188.062778 133.875509 
L 188.136045 135.91685 
L 188.209312 135.058895 
L 188.282579 135.739342 
L 188.355846 134.526371 
L 188.429113 136.242281 
L 188.575647 133.550078 
L 188.648914 135.621003 
L 188.795448 133.402155 
L 189.015249 135.502665 
L 189.088516 135.265987 
L 189.23505 135.502665 
L 189.381584 134.496787 
L 189.454851 136.064773 
L 189.528118 134.970141 
L 189.601385 135.08848 
L 189.674652 136.922727 
L 189.747919 135.295572 
L 189.821186 135.650588 
L 189.894452 135.236403 
L 189.967719 135.946434 
L 190.040986 135.118064 
L 190.114253 135.206818 
L 190.260787 134.881387 
L 190.334054 135.887265 
L 190.407321 135.236403 
L 190.480588 133.461324 
L 190.553855 135.91685 
L 190.627122 133.934679 
L 190.773656 135.621003 
L 190.773656 135.621003 
" clip-path="url(#p8c64168852)" style="fill: none; stroke: #1f77b4; stroke-width: 0.5; stroke-linecap: square"/>
   </g>
   <g id="patch_3">
    <path d="M 23.410313 143.1 
L 23.410313 7.2 
" style="fill: none; stroke: #000000; stroke-width: 0.8; stroke-linejoin: miter; stroke-linecap: square"/>
   </g>
   <g id="patch_4">
    <path d="M 190.810313 143.1 
L 190.810313 7.2 
" style="fill: none; stroke: #000000; stroke-width: 0.8; stroke-linejoin: miter; stroke-linecap: square"/>
   </g>
   <g id="patch_5">
    <path d="M 23.410313 143.1 
L 190.810313 143.1 
" style="fill: none; stroke: #000000; stroke-width: 0.8; stroke-linejoin: miter; stroke-linecap: square"/>
   </g>
   <g id="patch_6">
    <path d="M 23.410313 7.2 
L 190.810313 7.2 
" style="fill: none; stroke: #000000; stroke-width: 0.8; stroke-linejoin: miter; stroke-linecap: square"/>
   </g>
  </g>
 </g>
 <defs>
  <clipPath id="p8c64168852">
   <rect x="23.410313" y="7.2" width="167.4" height="135.9"/>
  </clipPath>
 </defs>
</svg>
