<?xml version="1.0" encoding="utf-8" standalone="no"?>
<!DOCTYPE svg PUBLIC "-//W3C//DTD SVG 1.1//EN"
  "http://www.w3.org/Graphics/SVG/1.1/DTD/svg11.dtd">
<svg xmlns:xlink="http://www.w3.org/1999/xlink" width="365.410312pt" height="177.823125pt" viewBox="0 0 365.410312 177.823125" xmlns="http://www.w3.org/2000/svg" version="1.1">
 <metadata>
  <rdf:RDF xmlns:dc="http://purl.org/dc/elements/1.1/" xmlns:cc="http://creativecommons.org/ns#" xmlns:rdf="http://www.w3.org/1999/02/22-rdf-syntax-ns#">
   <cc:Work>
    <dc:type rdf:resource="http://purl.org/dc/dcmitype/StillImage"/>
    <dc:date>2023-06-11T15:29:11.723091</dc:date>
    <dc:format>image/svg+xml</dc:format>
    <dc:creator>
     <cc:Agent>
      <dc:title>Matplotlib v3.7.1, https://matplotlib.org/</dc:title>
     </cc:Agent>
    </dc:creator>
   </cc:Work>
  </rdf:RDF>
 </metadata>
 <defs>
  <style type="text/css">*{stroke-linejoin: round; stroke-linecap: butt}</style>
 </defs>
 <g id="figure_1">
  <g id="patch_1">
   <path d="M -0 177.823125 
L 365.410312 177.823125 
L 365.410312 0 
L -0 0 
z
" style="fill: #ffffff"/>
  </g>
  <g id="axes_1">
   <g id="patch_2">
    <path d="M 23.410313 143.1 
L 358.210312 143.1 
L 358.210312 7.2 
L 23.410313 7.2 
z
" style="fill: #ffffff"/>
   </g>
   <g id="matplotlib.axis_1">
    <g id="xtick_1">
     <g id="line2d_1">
      <defs>
       <path id="m8edb83ff61" d="M 0 0 
L 0 3.5 
" style="stroke: #000000; stroke-width: 0.8"/>
      </defs>
      <g>
       <use xlink:href="#m8edb83ff61" x="51.310312" y="143.1" style="stroke: #000000; stroke-width: 0.8"/>
      </g>
     </g>
     <g id="text_1">
      <!-- 10 -->
      <g transform="translate(46.220312 156.17875) scale(0.08 -0.08)">
       <defs>
        <path id="DejaVuSans-31" d="M 794 531 
L 1825 531 
L 1825 4091 
L 703 3866 
L 703 4441 
L 1819 4666 
L 2450 4666 
L 2450 531 
L 3481 531 
L 3481 0 
L 794 0 
L 794 531 
z
" transform="scale(0.015625)"/>
        <path id="DejaVuSans-30" d="M 2034 4250 
Q 1547 4250 1301 3770 
Q 1056 3291 1056 2328 
Q 1056 1369 1301 889 
Q 1547 409 2034 409 
Q 2525 409 2770 889 
Q 3016 1369 3016 2328 
Q 3016 3291 2770 3770 
Q 2525 4250 2034 4250 
z
M 2034 4750 
Q 2819 4750 3233 4129 
Q 3647 3509 3647 2328 
Q 3647 1150 3233 529 
Q 2819 -91 2034 -91 
Q 1250 -91 836 529 
Q 422 1150 422 2328 
Q 422 3509 836 4129 
Q 1250 4750 2034 4750 
z
" transform="scale(0.015625)"/>
       </defs>
       <use xlink:href="#DejaVuSans-31"/>
       <use xlink:href="#DejaVuSans-30" x="63.623047"/>
      </g>
     </g>
    </g>
    <g id="xtick_2">
     <g id="line2d_2">
      <g>
       <use xlink:href="#m8edb83ff61" x="107.110312" y="143.1" style="stroke: #000000; stroke-width: 0.8"/>
      </g>
     </g>
     <g id="text_2">
      <!-- 20 -->
      <g transform="translate(102.020312 156.17875) scale(0.08 -0.08)">
       <defs>
        <path id="DejaVuSans-32" d="M 1228 531 
L 3431 531 
L 3431 0 
L 469 0 
L 469 531 
Q 828 903 1448 1529 
Q 2069 2156 2228 2338 
Q 2531 2678 2651 2914 
Q 2772 3150 2772 3378 
Q 2772 3750 2511 3984 
Q 2250 4219 1831 4219 
Q 1534 4219 1204 4116 
Q 875 4013 500 3803 
L 500 4441 
Q 881 4594 1212 4672 
Q 1544 4750 1819 4750 
Q 2544 4750 2975 4387 
Q 3406 4025 3406 3419 
Q 3406 3131 3298 2873 
Q 3191 2616 2906 2266 
Q 2828 2175 2409 1742 
Q 1991 1309 1228 531 
z
" transform="scale(0.015625)"/>
       </defs>
       <use xlink:href="#DejaVuSans-32"/>
       <use xlink:href="#DejaVuSans-30" x="63.623047"/>
      </g>
     </g>
    </g>
    <g id="xtick_3">
     <g id="line2d_3">
      <g>
       <use xlink:href="#m8edb83ff61" x="162.910312" y="143.1" style="stroke: #000000; stroke-width: 0.8"/>
      </g>
     </g>
     <g id="text_3">
      <!-- 30 -->
      <g transform="translate(157.820312 156.17875) scale(0.08 -0.08)">
       <defs>
        <path id="DejaVuSans-33" d="M 2597 2516 
Q 3050 2419 3304 2112 
Q 3559 1806 3559 1356 
Q 3559 666 3084 287 
Q 2609 -91 1734 -91 
Q 1441 -91 1130 -33 
Q 819 25 488 141 
L 488 750 
Q 750 597 1062 519 
Q 1375 441 1716 441 
Q 2309 441 2620 675 
Q 2931 909 2931 1356 
Q 2931 1769 2642 2001 
Q 2353 2234 1838 2234 
L 1294 2234 
L 1294 2753 
L 1863 2753 
Q 2328 2753 2575 2939 
Q 2822 3125 2822 3475 
Q 2822 3834 2567 4026 
Q 2313 4219 1838 4219 
Q 1578 4219 1281 4162 
Q 984 4106 628 3988 
L 628 4550 
Q 988 4650 1302 4700 
Q 1616 4750 1894 4750 
Q 2613 4750 3031 4423 
Q 3450 4097 3450 3541 
Q 3450 3153 3228 2886 
Q 3006 2619 2597 2516 
z
" transform="scale(0.015625)"/>
       </defs>
       <use xlink:href="#DejaVuSans-33"/>
       <use xlink:href="#DejaVuSans-30" x="63.623047"/>
      </g>
     </g>
    </g>
    <g id="xtick_4">
     <g id="line2d_4">
      <g>
       <use xlink:href="#m8edb83ff61" x="218.710312" y="143.1" style="stroke: #000000; stroke-width: 0.8"/>
      </g>
     </g>
     <g id="text_4">
      <!-- 40 -->
      <g transform="translate(213.620312 156.17875) scale(0.08 -0.08)">
       <defs>
        <path id="DejaVuSans-34" d="M 2419 4116 
L 825 1625 
L 2419 1625 
L 2419 4116 
z
M 2253 4666 
L 3047 4666 
L 3047 1625 
L 3713 1625 
L 3713 1100 
L 3047 1100 
L 3047 0 
L 2419 0 
L 2419 1100 
L 313 1100 
L 313 1709 
L 2253 4666 
z
" transform="scale(0.015625)"/>
       </defs>
       <use xlink:href="#DejaVuSans-34"/>
       <use xlink:href="#DejaVuSans-30" x="63.623047"/>
      </g>
     </g>
    </g>
    <g id="xtick_5">
     <g id="line2d_5">
      <g>
       <use xlink:href="#m8edb83ff61" x="274.510312" y="143.1" style="stroke: #000000; stroke-width: 0.8"/>
      </g>
     </g>
     <g id="text_5">
      <!-- 50 -->
      <g transform="translate(269.420312 156.17875) scale(0.08 -0.08)">
       <defs>
        <path id="DejaVuSans-35" d="M 691 4666 
L 3169 4666 
L 3169 4134 
L 1269 4134 
L 1269 2991 
Q 1406 3038 1543 3061 
Q 1681 3084 1819 3084 
Q 2600 3084 3056 2656 
Q 3513 2228 3513 1497 
Q 3513 744 3044 326 
Q 2575 -91 1722 -91 
Q 1428 -91 1123 -41 
Q 819 9 494 109 
L 494 744 
Q 775 591 1075 516 
Q 1375 441 1709 441 
Q 2250 441 2565 725 
Q 2881 1009 2881 1497 
Q 2881 1984 2565 2268 
Q 2250 2553 1709 2553 
Q 1456 2553 1204 2497 
Q 953 2441 691 2322 
L 691 4666 
z
" transform="scale(0.015625)"/>
       </defs>
       <use xlink:href="#DejaVuSans-35"/>
       <use xlink:href="#DejaVuSans-30" x="63.623047"/>
      </g>
     </g>
    </g>
    <g id="xtick_6">
     <g id="line2d_6">
      <g>
       <use xlink:href="#m8edb83ff61" x="330.310312" y="143.1" style="stroke: #000000; stroke-width: 0.8"/>
      </g>
     </g>
     <g id="text_6">
      <!-- 60 -->
      <g transform="translate(325.220312 156.17875) scale(0.08 -0.08)">
       <defs>
        <path id="DejaVuSans-36" d="M 2113 2584 
Q 1688 2584 1439 2293 
Q 1191 2003 1191 1497 
Q 1191 994 1439 701 
Q 1688 409 2113 409 
Q 2538 409 2786 701 
Q 3034 994 3034 1497 
Q 3034 2003 2786 2293 
Q 2538 2584 2113 2584 
z
M 3366 4563 
L 3366 3988 
Q 3128 4100 2886 4159 
Q 2644 4219 2406 4219 
Q 1781 4219 1451 3797 
Q 1122 3375 1075 2522 
Q 1259 2794 1537 2939 
Q 1816 3084 2150 3084 
Q 2853 3084 3261 2657 
Q 3669 2231 3669 1497 
Q 3669 778 3244 343 
Q 2819 -91 2113 -91 
Q 1303 -91 875 529 
Q 447 1150 447 2328 
Q 447 3434 972 4092 
Q 1497 4750 2381 4750 
Q 2619 4750 2861 4703 
Q 3103 4656 3366 4563 
z
" transform="scale(0.015625)"/>
       </defs>
       <use xlink:href="#DejaVuSans-36"/>
       <use xlink:href="#DejaVuSans-30" x="63.623047"/>
      </g>
     </g>
    </g>
    <g id="xtick_7">
     <g id="line2d_7">
      <defs>
       <path id="mef71538614" d="M 0 0 
L 0 2 
" style="stroke: #000000; stroke-width: 0.6"/>
      </defs>
      <g>
       <use xlink:href="#mef71538614" x="23.410313" y="143.1" style="stroke: #000000; stroke-width: 0.6"/>
      </g>
     </g>
    </g>
    <g id="xtick_8">
     <g id="line2d_8">
      <g>
       <use xlink:href="#mef71538614" x="37.360313" y="143.1" style="stroke: #000000; stroke-width: 0.6"/>
      </g>
     </g>
    </g>
    <g id="xtick_9">
     <g id="line2d_9">
      <g>
       <use xlink:href="#mef71538614" x="65.260312" y="143.1" style="stroke: #000000; stroke-width: 0.6"/>
      </g>
     </g>
    </g>
    <g id="xtick_10">
     <g id="line2d_10">
      <g>
       <use xlink:href="#mef71538614" x="79.210313" y="143.1" style="stroke: #000000; stroke-width: 0.6"/>
      </g>
     </g>
    </g>
    <g id="xtick_11">
     <g id="line2d_11">
      <g>
       <use xlink:href="#mef71538614" x="93.160313" y="143.1" style="stroke: #000000; stroke-width: 0.6"/>
      </g>
     </g>
    </g>
    <g id="xtick_12">
     <g id="line2d_12">
      <g>
       <use xlink:href="#mef71538614" x="121.060312" y="143.1" style="stroke: #000000; stroke-width: 0.6"/>
      </g>
     </g>
    </g>
    <g id="xtick_13">
     <g id="line2d_13">
      <g>
       <use xlink:href="#mef71538614" x="135.010312" y="143.1" style="stroke: #000000; stroke-width: 0.6"/>
      </g>
     </g>
    </g>
    <g id="xtick_14">
     <g id="line2d_14">
      <g>
       <use xlink:href="#mef71538614" x="148.960312" y="143.1" style="stroke: #000000; stroke-width: 0.6"/>
      </g>
     </g>
    </g>
    <g id="xtick_15">
     <g id="line2d_15">
      <g>
       <use xlink:href="#mef71538614" x="176.860312" y="143.1" style="stroke: #000000; stroke-width: 0.6"/>
      </g>
     </g>
    </g>
    <g id="xtick_16">
     <g id="line2d_16">
      <g>
       <use xlink:href="#mef71538614" x="190.810312" y="143.1" style="stroke: #000000; stroke-width: 0.6"/>
      </g>
     </g>
    </g>
    <g id="xtick_17">
     <g id="line2d_17">
      <g>
       <use xlink:href="#mef71538614" x="204.760312" y="143.1" style="stroke: #000000; stroke-width: 0.6"/>
      </g>
     </g>
    </g>
    <g id="xtick_18">
     <g id="line2d_18">
      <g>
       <use xlink:href="#mef71538614" x="232.660312" y="143.1" style="stroke: #000000; stroke-width: 0.6"/>
      </g>
     </g>
    </g>
    <g id="xtick_19">
     <g id="line2d_19">
      <g>
       <use xlink:href="#mef71538614" x="246.610312" y="143.1" style="stroke: #000000; stroke-width: 0.6"/>
      </g>
     </g>
    </g>
    <g id="xtick_20">
     <g id="line2d_20">
      <g>
       <use xlink:href="#mef71538614" x="260.560312" y="143.1" style="stroke: #000000; stroke-width: 0.6"/>
      </g>
     </g>
    </g>
    <g id="xtick_21">
     <g id="line2d_21">
      <g>
       <use xlink:href="#mef71538614" x="288.460312" y="143.1" style="stroke: #000000; stroke-width: 0.6"/>
      </g>
     </g>
    </g>
    <g id="xtick_22">
     <g id="line2d_22">
      <g>
       <use xlink:href="#mef71538614" x="302.410312" y="143.1" style="stroke: #000000; stroke-width: 0.6"/>
      </g>
     </g>
    </g>
    <g id="xtick_23">
     <g id="line2d_23">
      <g>
       <use xlink:href="#mef71538614" x="316.360312" y="143.1" style="stroke: #000000; stroke-width: 0.6"/>
      </g>
     </g>
    </g>
    <g id="xtick_24">
     <g id="line2d_24">
      <g>
       <use xlink:href="#mef71538614" x="344.260312" y="143.1" style="stroke: #000000; stroke-width: 0.6"/>
      </g>
     </g>
    </g>
    <g id="xtick_25">
     <g id="line2d_25">
      <g>
       <use xlink:href="#mef71538614" x="358.210312" y="143.1" style="stroke: #000000; stroke-width: 0.6"/>
      </g>
     </g>
    </g>
    <g id="text_7">
     <!-- 2θ (degrees) -->
     <g transform="translate(162.138984 168.751406) scale(0.09 -0.09)">
      <defs>
       <path id="DejaVuSans-3b8" d="M 2953 2219 
L 963 2219 
Q 1009 1284 1225 888 
Q 1494 400 1959 400 
Q 2428 400 2688 891 
Q 2916 1322 2953 2219 
z
M 2944 2750 
Q 2856 3638 2688 3950 
Q 2419 4444 1959 4444 
Q 1481 4444 1228 3956 
Q 1028 3563 969 2750 
L 2944 2750 
z
M 1959 4913 
Q 2709 4913 3138 4250 
Q 3566 3591 3566 2422 
Q 3566 1256 3138 594 
Q 2709 -72 1959 -72 
Q 1206 -72 781 594 
Q 353 1256 353 2422 
Q 353 3591 781 4250 
Q 1206 4913 1959 4913 
z
" transform="scale(0.015625)"/>
       <path id="DejaVuSans-20" transform="scale(0.015625)"/>
       <path id="DejaVuSans-28" d="M 1984 4856 
Q 1566 4138 1362 3434 
Q 1159 2731 1159 2009 
Q 1159 1288 1364 580 
Q 1569 -128 1984 -844 
L 1484 -844 
Q 1016 -109 783 600 
Q 550 1309 550 2009 
Q 550 2706 781 3412 
Q 1013 4119 1484 4856 
L 1984 4856 
z
" transform="scale(0.015625)"/>
       <path id="DejaVuSans-64" d="M 2906 2969 
L 2906 4863 
L 3481 4863 
L 3481 0 
L 2906 0 
L 2906 525 
Q 2725 213 2448 61 
Q 2172 -91 1784 -91 
Q 1150 -91 751 415 
Q 353 922 353 1747 
Q 353 2572 751 3078 
Q 1150 3584 1784 3584 
Q 2172 3584 2448 3432 
Q 2725 3281 2906 2969 
z
M 947 1747 
Q 947 1113 1208 752 
Q 1469 391 1925 391 
Q 2381 391 2643 752 
Q 2906 1113 2906 1747 
Q 2906 2381 2643 2742 
Q 2381 3103 1925 3103 
Q 1469 3103 1208 2742 
Q 947 2381 947 1747 
z
" transform="scale(0.015625)"/>
       <path id="DejaVuSans-65" d="M 3597 1894 
L 3597 1613 
L 953 1613 
Q 991 1019 1311 708 
Q 1631 397 2203 397 
Q 2534 397 2845 478 
Q 3156 559 3463 722 
L 3463 178 
Q 3153 47 2828 -22 
Q 2503 -91 2169 -91 
Q 1331 -91 842 396 
Q 353 884 353 1716 
Q 353 2575 817 3079 
Q 1281 3584 2069 3584 
Q 2775 3584 3186 3129 
Q 3597 2675 3597 1894 
z
M 3022 2063 
Q 3016 2534 2758 2815 
Q 2500 3097 2075 3097 
Q 1594 3097 1305 2825 
Q 1016 2553 972 2059 
L 3022 2063 
z
" transform="scale(0.015625)"/>
       <path id="DejaVuSans-67" d="M 2906 1791 
Q 2906 2416 2648 2759 
Q 2391 3103 1925 3103 
Q 1463 3103 1205 2759 
Q 947 2416 947 1791 
Q 947 1169 1205 825 
Q 1463 481 1925 481 
Q 2391 481 2648 825 
Q 2906 1169 2906 1791 
z
M 3481 434 
Q 3481 -459 3084 -895 
Q 2688 -1331 1869 -1331 
Q 1566 -1331 1297 -1286 
Q 1028 -1241 775 -1147 
L 775 -588 
Q 1028 -725 1275 -790 
Q 1522 -856 1778 -856 
Q 2344 -856 2625 -561 
Q 2906 -266 2906 331 
L 2906 616 
Q 2728 306 2450 153 
Q 2172 0 1784 0 
Q 1141 0 747 490 
Q 353 981 353 1791 
Q 353 2603 747 3093 
Q 1141 3584 1784 3584 
Q 2172 3584 2450 3431 
Q 2728 3278 2906 2969 
L 2906 3500 
L 3481 3500 
L 3481 434 
z
" transform="scale(0.015625)"/>
       <path id="DejaVuSans-72" d="M 2631 2963 
Q 2534 3019 2420 3045 
Q 2306 3072 2169 3072 
Q 1681 3072 1420 2755 
Q 1159 2438 1159 1844 
L 1159 0 
L 581 0 
L 581 3500 
L 1159 3500 
L 1159 2956 
Q 1341 3275 1631 3429 
Q 1922 3584 2338 3584 
Q 2397 3584 2469 3576 
Q 2541 3569 2628 3553 
L 2631 2963 
z
" transform="scale(0.015625)"/>
       <path id="DejaVuSans-73" d="M 2834 3397 
L 2834 2853 
Q 2591 2978 2328 3040 
Q 2066 3103 1784 3103 
Q 1356 3103 1142 2972 
Q 928 2841 928 2578 
Q 928 2378 1081 2264 
Q 1234 2150 1697 2047 
L 1894 2003 
Q 2506 1872 2764 1633 
Q 3022 1394 3022 966 
Q 3022 478 2636 193 
Q 2250 -91 1575 -91 
Q 1294 -91 989 -36 
Q 684 19 347 128 
L 347 722 
Q 666 556 975 473 
Q 1284 391 1588 391 
Q 1994 391 2212 530 
Q 2431 669 2431 922 
Q 2431 1156 2273 1281 
Q 2116 1406 1581 1522 
L 1381 1569 
Q 847 1681 609 1914 
Q 372 2147 372 2553 
Q 372 3047 722 3315 
Q 1072 3584 1716 3584 
Q 2034 3584 2315 3537 
Q 2597 3491 2834 3397 
z
" transform="scale(0.015625)"/>
       <path id="DejaVuSans-29" d="M 513 4856 
L 1013 4856 
Q 1481 4119 1714 3412 
Q 1947 2706 1947 2009 
Q 1947 1309 1714 600 
Q 1481 -109 1013 -844 
L 513 -844 
Q 928 -128 1133 580 
Q 1338 1288 1338 2009 
Q 1338 2731 1133 3434 
Q 928 4138 513 4856 
z
" transform="scale(0.015625)"/>
      </defs>
      <use xlink:href="#DejaVuSans-32"/>
      <use xlink:href="#DejaVuSans-3b8" x="63.623047"/>
      <use xlink:href="#DejaVuSans-20" x="124.804688"/>
      <use xlink:href="#DejaVuSans-28" x="156.591797"/>
      <use xlink:href="#DejaVuSans-64" x="195.605469"/>
      <use xlink:href="#DejaVuSans-65" x="259.082031"/>
      <use xlink:href="#DejaVuSans-67" x="320.605469"/>
      <use xlink:href="#DejaVuSans-72" x="384.082031"/>
      <use xlink:href="#DejaVuSans-65" x="422.945312"/>
      <use xlink:href="#DejaVuSans-65" x="484.46875"/>
      <use xlink:href="#DejaVuSans-73" x="545.992188"/>
      <use xlink:href="#DejaVuSans-29" x="598.091797"/>
     </g>
    </g>
   </g>
   <g id="matplotlib.axis_2">
    <g id="ytick_1">
     <g id="line2d_26"/>
    </g>
    <g id="ytick_2">
     <g id="line2d_27"/>
    </g>
    <g id="ytick_3">
     <g id="line2d_28"/>
    </g>
    <g id="ytick_4">
     <g id="line2d_29"/>
    </g>
    <g id="ytick_5">
     <g id="line2d_30"/>
    </g>
    <g id="ytick_6">
     <g id="line2d_31"/>
    </g>
    <g id="ytick_7">
     <g id="line2d_32"/>
    </g>
    <g id="text_8">
     <!-- Intensity -->
     <g transform="translate(14.038594 94.73625) rotate(-90) scale(0.09 -0.09)">
      <defs>
       <path id="DejaVuSans-49" d="M 628 4666 
L 1259 4666 
L 1259 0 
L 628 0 
L 628 4666 
z
" transform="scale(0.015625)"/>
       <path id="DejaVuSans-6e" d="M 3513 2113 
L 3513 0 
L 2938 0 
L 2938 2094 
Q 2938 2591 2744 2837 
Q 2550 3084 2163 3084 
Q 1697 3084 1428 2787 
Q 1159 2491 1159 1978 
L 1159 0 
L 581 0 
L 581 3500 
L 1159 3500 
L 1159 2956 
Q 1366 3272 1645 3428 
Q 1925 3584 2291 3584 
Q 2894 3584 3203 3211 
Q 3513 2838 3513 2113 
z
" transform="scale(0.015625)"/>
       <path id="DejaVuSans-74" d="M 1172 4494 
L 1172 3500 
L 2356 3500 
L 2356 3053 
L 1172 3053 
L 1172 1153 
Q 1172 725 1289 603 
Q 1406 481 1766 481 
L 2356 481 
L 2356 0 
L 1766 0 
Q 1100 0 847 248 
Q 594 497 594 1153 
L 594 3053 
L 172 3053 
L 172 3500 
L 594 3500 
L 594 4494 
L 1172 4494 
z
" transform="scale(0.015625)"/>
       <path id="DejaVuSans-69" d="M 603 3500 
L 1178 3500 
L 1178 0 
L 603 0 
L 603 3500 
z
M 603 4863 
L 1178 4863 
L 1178 4134 
L 603 4134 
L 603 4863 
z
" transform="scale(0.015625)"/>
       <path id="DejaVuSans-79" d="M 2059 -325 
Q 1816 -950 1584 -1140 
Q 1353 -1331 966 -1331 
L 506 -1331 
L 506 -850 
L 844 -850 
Q 1081 -850 1212 -737 
Q 1344 -625 1503 -206 
L 1606 56 
L 191 3500 
L 800 3500 
L 1894 763 
L 2988 3500 
L 3597 3500 
L 2059 -325 
z
" transform="scale(0.015625)"/>
      </defs>
      <use xlink:href="#DejaVuSans-49"/>
      <use xlink:href="#DejaVuSans-6e" x="29.492188"/>
      <use xlink:href="#DejaVuSans-74" x="92.871094"/>
      <use xlink:href="#DejaVuSans-65" x="132.080078"/>
      <use xlink:href="#DejaVuSans-6e" x="193.603516"/>
      <use xlink:href="#DejaVuSans-73" x="256.982422"/>
      <use xlink:href="#DejaVuSans-69" x="309.082031"/>
      <use xlink:href="#DejaVuSans-74" x="336.865234"/>
      <use xlink:href="#DejaVuSans-79" x="376.074219"/>
     </g>
    </g>
   </g>
   <g id="line2d_33">
    <path d="M 23.453446 68.148033 
L 23.599982 68.148033 
L 23.746519 39.07065 
L 23.893055 48.662844 
L 24.039591 50.902137 
L 24.186128 61.563844 
L 24.332664 50.041513 
L 24.479201 61.739311 
L 24.625737 57.085258 
L 24.772273 66.393363 
L 24.91881 61.7978 
L 25.065346 64.429804 
L 25.211882 58.280105 
L 25.358419 64.58856 
L 25.504955 60.059841 
L 25.798028 64.797449 
L 25.944564 65.54945 
L 26.091101 57.152103 
L 26.237637 70.495948 
L 26.384174 71.640661 
L 26.53071 67.429454 
L 26.677246 69.100567 
L 26.823783 72.28404 
L 27.116855 62.541445 
L 27.263392 77.614893 
L 27.409928 74.113909 
L 27.556465 80.213475 
L 27.703001 65.749984 
L 27.849537 75.843512 
L 27.996074 74.9996 
L 28.14261 71.005637 
L 28.289146 77.364226 
L 28.435683 72.718529 
L 28.582219 77.013292 
L 28.728756 74.289376 
L 28.875292 79.11054 
L 29.021828 76.161024 
L 29.168365 84.875883 
L 29.314901 71.465194 
L 29.461437 86.237841 
L 29.607974 69.835858 
L 29.75451 88.460423 
L 29.901047 73.24493 
L 30.047583 75.567778 
L 30.194119 86.697397 
L 30.340656 81.684056 
L 30.487192 72.175417 
L 30.633729 75.066444 
L 30.780265 82.143612 
L 30.926801 81.491877 
L 31.219874 73.637642 
L 31.36641 82.202101 
L 31.512947 79.528319 
L 31.659483 73.194797 
L 31.80602 88.577401 
L 32.099092 80.530987 
L 32.245629 86.346463 
L 32.392165 74.615244 
L 32.538701 78.976851 
L 32.685238 76.03569 
L 32.978311 84.708772 
L 33.124847 81.040677 
L 33.271383 86.948065 
L 33.564456 77.990894 
L 33.710993 86.538642 
L 33.857529 76.662358 
L 34.004065 85.210106 
L 34.150602 83.522281 
L 34.297138 78.542361 
L 34.443674 85.185039 
L 34.590211 80.35552 
L 34.736747 87.048331 
L 34.883284 86.087441 
L 35.176356 79.662008 
L 35.322893 83.998548 
L 35.469429 79.870897 
L 35.615965 81.567078 
L 35.762502 85.920329 
L 35.909038 77.748582 
L 36.202111 86.672331 
L 36.348647 74.598532 
L 36.64172 84.516594 
L 36.788256 73.002619 
L 36.934793 79.46983 
L 37.081329 73.495597 
L 37.227866 92.89723 
L 37.374402 77.238892 
L 37.667475 85.56104 
L 37.814011 78.508939 
L 37.960548 80.848499 
L 38.107084 75.693112 
L 38.25362 76.344846 
L 38.546693 85.168328 
L 38.693229 69.292746 
L 38.839766 84.850816 
L 38.986302 84.148949 
L 39.132839 84.357838 
L 39.572448 70.96386 
L 39.718984 88.151267 
L 40.012057 74.874266 
L 40.158593 82.962458 
L 40.30513 75.133289 
L 40.451666 75.993913 
L 40.598202 84.31606 
L 40.744739 77.898982 
L 40.891275 79.720497 
L 41.037812 74.372932 
L 41.184348 83.664326 
L 41.477421 69.008656 
L 41.623957 74.164043 
L 41.91703 75.601201 
L 42.063566 76.495247 
L 42.210103 72.492929 
L 42.356639 82.586457 
L 42.503175 64.312826 
L 42.649712 75.099867 
L 42.796248 63.711225 
L 43.089321 75.684756 
L 43.235857 70.462525 
L 43.382394 70.261992 
L 43.675466 63.92847 
L 43.822003 76.060757 
L 43.968539 67.370965 
L 44.115075 69.451501 
L 44.261612 66.242963 
L 44.408148 67.212209 
L 44.554685 66.911408 
L 44.847757 62.650068 
L 44.994294 64.680471 
L 45.14083 59.224284 
L 45.580439 69.677102 
L 45.726976 67.237275 
L 46.020048 54.561876 
L 46.166585 73.370264 
L 46.313121 54.779121 
L 46.459658 67.755321 
L 46.606194 70.746615 
L 46.75273 61.66411 
L 46.899267 64.479937 
L 47.045803 59.909441 
L 47.192339 61.237976 
L 47.338876 69.64368 
L 47.631949 55.806856 
L 47.778485 61.613977 
L 47.925021 48.395466 
L 48.071558 66.978253 
L 48.36463 52.188894 
L 48.511167 57.47797 
L 48.657703 54.32792 
L 48.80424 61.36331 
L 48.950776 55.4977 
L 49.097312 62.106956 
L 49.243849 50.735025 
L 49.390385 67.980921 
L 49.536922 45.688261 
L 49.683458 61.104287 
L 49.829994 57.569881 
L 49.976531 60.051485 
L 50.123067 50.718314 
L 50.269603 51.787827 
L 50.41614 60.452553 
L 50.709213 50.567914 
L 50.855749 54.286142 
L 51.002285 63.945181 
L 51.148822 50.484358 
L 51.295358 64.471582 
L 51.441889 39.045583 
L 51.58842 60.978954 
L 51.73495 47.610042 
L 51.881481 59.291129 
L 52.028012 44.393148 
L 52.174599 49.882757 
L 52.321129 47.852354 
L 52.46766 59.976285 
L 52.614191 47.06693 
L 52.760722 59.984641 
L 53.053783 41.284876 
L 53.200314 56.550502 
L 53.346845 50.509425 
L 53.493432 55.364011 
L 53.639962 52.439561 
L 53.786493 51.938227 
L 53.933024 48.579288 
L 54.079555 47.885776 
L 54.226086 53.793164 
L 54.372617 43.248435 
L 54.519147 45.278838 
L 54.665678 33.221751 
L 54.812209 53.099651 
L 54.95874 39.521851 
L 55.105326 55.088277 
L 55.251857 34.45002 
L 55.398388 51.002403 
L 55.544919 49.331289 
L 55.69145 40.908875 
L 55.83798 45.23706 
L 55.984511 40.783542 
L 56.131042 49.774135 
L 56.277573 46.715996 
L 56.424159 35.302288 
L 56.57069 49.665512 
L 56.717221 36.864779 
L 56.863752 51.085959 
L 57.010283 40.959009 
L 57.156813 41.318298 
L 57.303344 58.57255 
L 57.449875 41.844699 
L 57.742936 44.217681 
L 57.889467 47.994398 
L 58.036054 42.813945 
L 58.182585 42.237411 
L 58.329116 48.754755 
L 58.475646 36.697668 
L 58.622177 57.302503 
L 58.768708 38.769849 
L 59.061769 49.540179 
L 59.2083 39.438295 
L 59.354887 53.375385 
L 59.501418 46.356707 
L 59.647948 45.471016 
L 59.794479 52.848984 
L 59.94101 45.771817 
L 60.087541 46.156173 
L 60.234072 46.983374 
L 60.380603 43.975369 
L 60.527133 50.100002 
L 60.673664 40.073318 
L 60.820195 55.698234 
L 60.966781 37.875803 
L 61.113312 57.945882 
L 61.406374 48.637777 
L 61.552905 56.199568 
L 61.699436 45.303905 
L 61.845966 54.561876 
L 61.992497 48.219999 
L 62.139028 71.891328 
L 62.285615 50.392447 
L 62.432145 60.009708 
L 62.578676 55.113344 
L 62.725207 61.271399 
L 62.871738 52.381072 
L 63.018269 59.53344 
L 63.164799 54.144098 
L 63.31133 64.220915 
L 63.457861 64.471582 
L 63.604392 65.649717 
L 63.750923 50.584625 
L 63.897509 67.629987 
L 64.04404 64.688827 
L 64.190571 66.903053 
L 64.337102 60.878687 
L 64.483632 69.844213 
L 64.630163 63.585891 
L 64.776694 63.510691 
L 64.923225 79.135607 
L 65.069755 66.577185 
L 65.216342 65.633006 
L 65.362873 68.607589 
L 65.509404 80.856854 
L 65.655935 62.599934 
L 65.802465 78.425383 
L 65.948996 71.966528 
L 66.095527 71.791061 
L 66.242058 77.188759 
L 66.388588 63.535758 
L 66.535119 89.08709 
L 66.681706 67.504654 
L 66.828237 80.28032 
L 66.974767 72.083506 
L 67.121298 82.912324 
L 67.41436 76.052402 
L 67.560891 78.826451 
L 67.707421 78.007605 
L 67.853952 83.35517 
L 68.000483 74.974533 
L 68.147014 82.553035 
L 68.2936 80.255253 
L 68.440131 84.641927 
L 68.586662 85.276951 
L 68.733193 79.411341 
L 68.879724 79.611874 
L 69.026254 88.878201 
L 69.172785 86.162641 
L 69.319316 78.642628 
L 69.758964 94.376166 
L 69.905495 82.553035 
L 70.052026 92.771897 
L 70.198557 88.744512 
L 70.345088 90.073048 
L 70.491618 86.062374 
L 70.638149 98.194661 
L 70.78468 89.237491 
L 70.931211 89.396246 
L 71.077742 88.1262 
L 71.224328 98.83804 
L 71.370859 95.504168 
L 71.51739 87.349132 
L 71.663921 91.886206 
L 71.810451 85.928685 
L 72.103513 97.868794 
L 72.250044 93.540609 
L 72.396574 92.755185 
L 72.543161 99.397863 
L 72.689692 93.749498 
L 72.836223 94.894211 
L 72.982754 91.911273 
L 73.129284 94.008521 
L 73.275815 102.664891 
L 73.568877 92.796963 
L 73.715407 99.097063 
L 73.861938 98.411906 
L 74.008469 95.345412 
L 74.155056 100.500799 
L 74.301586 99.356086 
L 74.448117 99.615108 
L 74.594648 90.223448 
L 74.741179 103.859738 
L 75.03424 95.997147 
L 75.180771 98.879818 
L 75.327302 106.984721 
L 75.473889 104.494761 
L 75.620419 105.088006 
L 75.76695 102.456002 
L 75.913481 102.288891 
L 76.060012 99.264174 
L 76.206543 100.684621 
L 76.353073 97.835372 
L 76.499604 97.300615 
L 76.792666 109.32428 
L 76.939197 101.996446 
L 77.232314 105.129784 
L 77.378845 102.882136 
L 77.525376 104.444628 
L 77.671906 97.526216 
L 77.818437 106.408186 
L 77.964968 99.523197 
L 78.111499 100.868444 
L 78.25803 107.594677 
L 78.404616 97.609772 
L 78.551147 103.675915 
L 78.697678 115.064557 
L 78.844209 95.078034 
L 79.283801 111.104017 
L 79.430332 100.099731 
L 79.723394 105.731385 
L 80.016511 99.314308 
L 80.163042 102.255468 
L 80.309573 100.199998 
L 80.602634 104.55325 
L 80.749165 105.739741 
L 80.895696 105.756452 
L 81.042226 106.02383 
L 81.188757 103.985071 
L 81.335344 110.19326 
L 81.481875 102.205335 
L 81.774936 104.210672 
L 81.921467 97.651549 
L 82.214529 109.157169 
L 82.361059 99.464708 
L 82.50759 106.926232 
L 82.654121 101.319645 
L 82.800652 107.995745 
L 82.947238 104.879117 
L 83.093769 106.742409 
L 83.2403 100.074665 
L 83.386831 100.993777 
L 83.679892 110.544194 
L 83.826423 98.361773 
L 83.972954 108.21299 
L 84.119485 102.288891 
L 84.266016 101.754134 
L 84.412602 110.811572 
L 84.559133 101.645512 
L 84.852195 107.653166 
L 84.998725 105.21334 
L 85.145256 98.395195 
L 85.291787 108.789524 
L 85.438318 101.570312 
L 85.731435 112.073263 
L 85.877966 99.93262 
L 86.024497 97.534571 
L 86.171028 104.11876 
L 86.317559 103.441959 
L 86.464089 101.996446 
L 86.61062 105.57263 
L 86.903682 104.55325 
L 87.050213 104.04356 
L 87.196743 98.111106 
L 87.34333 108.112723 
L 87.489861 99.030218 
L 87.636392 108.112723 
L 87.782922 98.662573 
L 87.929453 107.452633 
L 88.515576 100.241776 
L 88.808694 107.494411 
L 88.955224 94.961056 
L 89.101755 104.361072 
L 89.248286 105.388807 
L 89.541348 98.194661 
L 89.687878 99.93262 
L 89.834409 99.055285 
L 89.98094 99.097063 
L 90.127527 105.188273 
L 90.420588 94.668611 
L 90.567119 105.280185 
L 90.71365 99.840709 
L 90.860181 98.670929 
L 91.006711 101.336356 
L 91.153242 98.370128 
L 91.299773 92.529585 
L 91.446304 95.604435 
L 91.592891 106.68392 
L 91.885952 95.587724 
L 92.032483 98.746129 
L 92.179014 98.345062 
L 92.325545 107.068277 
L 92.618606 92.997497 
L 92.765137 94.894211 
L 92.911668 98.988441 
L 93.204785 96.456703 
L 93.351316 94.693678 
L 93.497847 95.245145 
L 93.644377 94.484788 
L 93.790908 97.258838 
L 94.08397 91.643895 
L 94.230501 96.089058 
L 94.377032 95.554301 
L 94.523562 92.838741 
L 94.670149 96.281236 
L 94.81668 88.176333 
L 94.963211 95.704702 
L 95.109741 88.234822 
L 95.256272 90.774915 
L 95.402803 95.963724 
L 95.549334 86.546997 
L 95.695864 92.061673 
L 95.842395 89.630202 
L 95.988982 99.27253 
L 96.135513 85.686373 
L 96.282043 88.092778 
L 96.428574 82.569746 
L 96.575105 93.891543 
L 96.721636 95.470746 
L 96.868167 87.198732 
L 97.014698 86.287974 
L 97.161228 91.292961 
L 97.307759 82.878902 
L 97.454346 89.95607 
L 97.747407 80.898632 
L 97.893938 93.214742 
L 98.040469 86.563708 
L 98.187 88.5022 
L 98.33353 88.193044 
L 98.480061 88.418645 
L 98.626592 91.944695 
L 98.773123 81.759256 
L 98.919654 92.872163 
L 99.212771 78.124583 
L 99.359302 92.203718 
L 99.505833 84.382905 
L 99.652364 82.594813 
L 99.798894 84.683705 
L 99.945425 79.494896 
L 100.091956 81.057388 
L 100.238487 90.482471 
L 100.531604 75.785023 
L 100.678135 82.99588 
L 100.824666 84.725483 
L 100.971196 82.093478 
L 101.117727 71.715861 
L 101.264258 82.795346 
L 101.410789 81.968145 
L 101.55732 76.135957 
L 101.70385 77.013292 
L 101.850437 76.161024 
L 102.29003 71.389994 
L 102.43656 77.380937 
L 102.583091 78.767962 
L 102.729622 68.574167 
L 103.022683 78.734539 
L 103.169214 69.401368 
L 103.315745 72.718529 
L 103.462332 72.676751 
L 103.608862 60.176819 
L 103.755393 68.641011 
L 104.048455 72.033372 
L 104.194986 64.989627 
L 104.341516 78.216494 
L 104.634578 64.805805 
L 104.781109 62.767046 
L 104.927695 69.276034 
L 105.074226 65.282072 
L 105.220757 66.861275 
L 105.367288 54.010408 
L 105.660349 73.762975 
L 105.80688 71.431771 
L 105.953411 50.242047 
L 106.099942 73.136308 
L 106.246528 58.664461 
L 106.53959 64.045448 
L 106.832652 61.070865 
L 106.979183 64.697182 
L 107.125713 63.686158 
L 107.565306 56.834591 
L 107.711892 62.165445 
L 108.004954 51.91316 
L 108.151485 62.449534 
L 108.298015 59.934507 
L 108.591077 46.248084 
L 108.884139 63.819847 
L 109.030669 60.569531 
L 109.323787 44.65217 
L 109.470318 58.28846 
L 109.616849 56.032456 
L 109.763379 56.107657 
L 109.90991 45.186927 
L 110.202972 60.653086 
L 110.496033 46.473685 
L 110.642564 41.827988 
L 110.789151 46.039195 
L 110.935681 56.984991 
L 111.082212 55.113344 
L 111.228743 41.009142 
L 111.521805 51.946583 
L 111.668335 45.872084 
L 111.814866 47.351019 
L 111.961397 42.463011 
L 112.107984 46.448618 
L 112.401045 36.622468 
L 112.694107 52.255739 
L 112.987168 36.497134 
L 113.28023 44.434926 
L 113.426761 43.089679 
L 113.573347 27.26423 
L 113.866409 46.674218 
L 114.01294 43.039545 
L 114.159471 29.82939 
L 114.306001 42.930923 
L 114.599063 45.345683 
L 114.745594 39.162561 
L 114.892125 42.195633 
L 115.331773 35.603088 
L 115.478304 34.349753 
L 115.624834 38.677938 
L 115.917896 23.980491 
L 116.064427 39.179272 
L 116.210958 41.552254 
L 116.504019 21.925021 
L 116.650606 29.595434 
L 116.797137 31.182992 
L 116.943668 29.528589 
L 117.236729 33.43064 
L 117.38326 32.503172 
L 117.529791 27.280941 
L 117.676322 31.358459 
L 117.969439 20.086795 
L 118.2625 33.037928 
L 118.409031 20.537996 
L 118.555562 18.499237 
L 118.848624 36.421934 
L 119.288216 22.125554 
L 119.434747 23.245201 
L 119.581333 22.902622 
L 119.727864 30.957392 
L 119.874395 24.899603 
L 120.020926 26.353473 
L 120.167457 19.251238 
L 120.313987 26.637562 
L 120.460518 27.439697 
L 120.607049 26.378539 
L 120.75358 19.192749 
L 120.900111 32.327705 
L 121.046697 20.788663 
L 121.193228 18.315414 
L 121.339759 13.377273 
L 121.48629 22.008576 
L 121.63282 22.810711 
L 121.779351 22.7188 
L 122.072413 21.081108 
L 122.218944 22.008576 
L 122.36553 20.496218 
L 122.658592 24.531958 
L 122.805123 24.306358 
L 122.951653 22.041999 
L 123.098184 23.144934 
L 123.391246 23.37889 
L 123.537777 22.067065 
L 123.684308 25.267249 
L 123.977425 19.20946 
L 124.123956 23.880224 
L 124.270486 20.855508 
L 124.563548 21.824754 
L 124.710079 27.656941 
L 124.85661 25.451071 
L 125.003141 21.18973 
L 125.149671 21.356842 
L 125.296202 28.317031 
L 125.442789 28.484143 
L 125.73585 18.858526 
L 125.882381 21.741198 
L 126.028912 36.697668 
L 126.175443 37.800603 
L 126.321973 31.985127 
L 126.468504 16.477189 
L 126.615035 22.493199 
L 126.761566 46.014128 
L 126.908152 29.821034 
L 127.054683 34.809309 
L 127.201214 20.838797 
L 127.347745 30.422635 
L 127.494276 25.969116 
L 127.640807 37.909226 
L 127.787337 31.500504 
L 127.933868 30.05499 
L 128.080399 32.427972 
L 128.226985 32.829039 
L 128.373516 39.613762 
L 128.520047 30.171968 
L 128.666578 41.736077 
L 128.813109 33.781574 
L 128.959639 32.344416 
L 129.10617 42.170566 
L 129.399232 43.816613 
L 129.545763 27.690364 
L 129.692349 38.276871 
L 129.83888 37.800603 
L 129.985411 48.219999 
L 130.131942 46.114395 
L 130.425003 33.146551 
L 130.571534 42.755456 
L 130.718065 40.173585 
L 130.864596 40.064963 
L 131.011126 41.410209 
L 131.157657 39.947985 
L 131.304244 46.273151 
L 131.450775 43.089679 
L 131.597305 42.847367 
L 131.743836 50.384091 
L 131.890367 43.240079 
L 132.036898 48.520799 
L 132.183429 43.306924 
L 132.329959 51.219648 
L 132.47649 47.175552 
L 132.769608 53.024451 
L 132.916138 46.080973 
L 133.062669 53.066229 
L 133.2092 53.500719 
L 133.355731 46.339995 
L 133.502262 54.160809 
L 133.648792 53.701252 
L 133.795323 51.470315 
L 133.941854 54.620365 
L 134.088441 51.286493 
L 134.234971 56.191212 
L 134.381502 55.489344 
L 134.528033 56.751035 
L 134.674564 54.319565 
L 134.821095 58.580905 
L 134.967625 53.960275 
L 135.114156 54.678854 
L 135.553749 64.22927 
L 135.700335 58.422149 
L 135.993397 63.844914 
L 136.139928 58.463927 
L 136.286458 64.346248 
L 136.432989 63.886692 
L 136.57952 62.792112 
L 136.726051 56.049168 
L 136.872582 58.28846 
L 137.019112 70.780037 
L 137.165699 62.198867 
L 137.31223 61.580555 
L 137.605291 64.254337 
L 137.751822 64.621982 
L 137.898353 62.315845 
L 138.191415 68.014343 
L 138.337945 61.639044 
L 138.484532 68.381988 
L 138.924124 61.471932 
L 139.217186 77.322448 
L 139.510248 64.471582 
L 139.656778 72.033372 
L 139.803309 64.546782 
L 139.949896 67.245631 
L 140.096427 67.521365 
L 140.242957 63.360291 
L 140.389488 64.630338 
L 140.536019 73.871598 
L 140.68255 73.437108 
L 140.829081 61.914777 
L 140.975611 69.618613 
L 141.122142 70.863593 
L 141.268673 66.117629 
L 141.415204 65.340561 
L 141.708321 69.334523 
L 141.854852 69.936124 
L 142.001383 71.866261 
L 142.147914 69.50999 
L 142.294444 71.164393 
L 142.440975 68.198166 
L 142.587506 77.982538 
L 142.734037 73.620931 
L 142.880568 65.783406 
L 143.027154 65.607939 
L 143.320216 75.793379 
L 143.466747 75.467512 
L 143.759808 68.841545 
L 143.906339 66.017362 
L 144.05287 72.501284 
L 144.199401 67.788743 
L 144.345987 83.50557 
L 144.492518 64.204204 
L 144.639049 77.364226 
L 144.78558 70.295414 
L 144.93211 72.15035 
L 145.078641 72.551418 
L 145.225172 63.886692 
L 145.371703 77.982538 
L 145.518234 78.132938 
L 145.664764 77.197115 
L 145.811351 69.560124 
L 146.104413 71.105904 
L 146.250943 78.734539 
L 146.544005 72.609907 
L 146.690536 73.821464 
L 146.837067 64.621982 
L 147.130128 78.291694 
L 147.276659 80.915343 
L 147.569776 74.456488 
L 147.716307 68.724567 
L 148.009369 79.787341 
L 148.30243 68.457189 
L 148.448961 76.486891 
L 148.742023 67.88901 
L 149.181671 83.363525 
L 149.474733 70.420748 
L 149.621263 74.372932 
L 149.767794 74.013643 
L 150.060856 71.231238 
L 150.353973 75.559423 
L 150.500504 72.258973 
L 150.793566 82.051701 
L 150.940096 76.236224 
L 151.233158 81.575433 
L 151.379689 78.467161 
L 151.52622 72.526351 
L 151.819337 79.093829 
L 151.965868 79.528319 
L 152.112399 81.759256 
L 152.258929 77.823782 
L 152.40546 69.43479 
L 152.551991 75.141644 
L 152.698522 74.657021 
L 152.845053 81.349833 
L 152.991583 70.011325 
L 153.138114 80.422365 
L 153.284701 76.595514 
L 153.431232 80.138275 
L 153.577762 79.428052 
L 153.724293 74.723866 
L 153.870824 78.951784 
L 154.017355 71.072482 
L 154.163886 85.101484 
L 154.310416 83.35517 
L 154.456947 83.856504 
L 154.603534 72.877285 
L 154.750065 72.242262 
L 154.896595 74.138976 
L 155.189657 84.065393 
L 155.336188 82.394279 
L 155.629249 70.45417 
L 155.77578 74.71551 
L 155.922311 87.115176 
L 156.068898 85.544329 
L 156.215428 77.472848 
L 156.361959 81.742545 
L 156.50849 80.472498 
L 156.655021 82.076767 
L 156.948082 76.737558 
L 157.094613 78.550717 
L 157.241144 71.456838 
L 157.387675 85.360506 
L 157.534206 82.48619 
L 157.680792 83.330103 
L 157.827323 82.243879 
L 157.973854 73.420397 
L 158.120385 83.14628 
L 158.266915 82.895613 
L 158.413446 83.948415 
L 158.559977 78.066094 
L 158.706508 81.784322 
L 158.853039 75.684756 
L 158.999569 81.542011 
L 159.146156 82.761924 
L 159.292687 82.878902 
L 159.439218 79.77063 
L 159.585748 82.369212 
L 159.732279 75.317111 
L 159.87881 88.418645 
L 160.171872 70.913726 
L 160.318402 79.202451 
L 160.464989 79.77063 
L 160.61152 92.638208 
L 160.758051 82.118545 
L 160.904581 85.243528 
L 161.051112 80.096497 
L 161.344174 88.93669 
L 161.490705 79.987875 
L 161.637235 82.344146 
L 161.783766 80.698098 
L 161.930353 81.308055 
L 162.076884 82.803702 
L 162.369945 88.401934 
L 162.516476 83.154636 
L 162.663007 83.288325 
L 162.809538 82.778635 
L 163.102599 86.597131 
L 163.24913 80.815076 
L 163.395661 79.804052 
L 163.688778 91.752517 
L 163.835309 86.07073 
L 163.98184 85.644596 
L 164.128371 82.795346 
L 164.274901 82.310723 
L 164.421432 88.318378 
L 164.567963 81.266277 
L 165.007611 92.529585 
L 165.300673 77.673382 
L 165.886796 95.412257 
L 166.033327 82.603168 
L 166.179858 87.307354 
L 166.326444 84.274282 
L 166.472975 87.700066 
L 166.619506 86.739175 
L 166.766037 87.800333 
L 166.912567 90.858471 
L 167.059098 89.931003 
L 167.205629 90.265226 
L 167.35216 85.12655 
L 167.498691 85.118195 
L 167.645221 86.104152 
L 167.791752 89.613491 
L 167.938339 85.56104 
L 168.08487 88.869846 
L 168.2314 88.251533 
L 168.377931 86.95642 
L 168.524462 88.460423 
L 168.670993 84.366193 
L 168.817524 88.970112 
L 168.964054 88.619178 
L 169.110585 90.733138 
L 169.257116 86.563708 
L 169.550233 92.08674 
L 169.696764 95.880169 
L 169.843295 84.90095 
L 169.989826 92.788608 
L 170.136357 80.20512 
L 170.575949 96.406569 
L 170.869066 84.75055 
L 171.015597 85.694729 
L 171.162128 89.74718 
L 171.308659 90.582737 
L 171.45519 94.075366 
L 171.60172 90.61616 
L 171.748251 93.891543 
L 171.894782 88.610823 
L 172.041313 91.635539 
L 172.187899 91.384872 
L 172.33443 86.212774 
L 172.480961 92.429318 
L 172.627492 88.293311 
L 172.774023 97.72675 
L 173.067084 87.282287 
L 173.213615 83.171347 
L 173.360146 95.320345 
L 173.506677 92.529585 
L 173.653207 97.191993 
L 173.946325 85.728151 
L 174.092856 94.635189 
L 174.239386 85.594462 
L 174.385917 98.545595 
L 174.532448 93.48212 
L 174.678979 93.624165 
L 174.82551 88.719445 
L 174.972096 90.833404 
L 175.118627 89.972781 
L 175.265158 96.648881 
L 175.411689 92.429318 
L 175.558219 95.880169 
L 175.70475 88.2766 
L 175.851281 86.488508 
L 176.144343 94.493144 
L 176.290873 93.615809 
L 176.437404 96.582036 
L 176.877052 92.563007 
L 177.170114 95.704702 
L 177.316645 91.643895 
L 177.463176 92.888875 
L 177.609706 95.921946 
L 177.756237 92.212073 
L 177.902768 93.950032 
L 178.049355 90.733138 
L 178.195885 92.178651 
L 178.342416 97.718394 
L 178.488947 92.053318 
L 178.635478 97.676616 
L 178.782009 93.356787 
L 179.07507 95.921946 
L 179.221601 92.446029 
L 179.368132 93.005853 
L 179.514718 91.643895 
L 179.661249 94.376166 
L 179.80778 99.339374 
L 179.954311 95.938658 
L 180.100842 96.406569 
L 180.393903 90.198381 
L 180.540434 87.115176 
L 180.980026 101.68729 
L 181.566205 87.633221 
L 181.712736 98.278217 
L 181.859267 94.534922 
L 182.005798 99.615108 
L 182.298915 82.786991 
L 182.591977 95.545946 
L 182.738508 96.072347 
L 183.031569 87.399265 
L 183.1781 93.172964 
L 183.324631 93.515542 
L 183.471162 97.392527 
L 183.617692 88.017577 
L 183.910754 85.093128 
L 184.057341 89.053668 
L 184.203871 86.028952 
L 184.350402 91.092427 
L 184.496933 85.753218 
L 184.643464 88.009222 
L 184.936525 81.458455 
L 185.083056 88.251533 
L 185.229587 83.246547 
L 185.376118 85.661307 
L 185.522649 82.101834 
L 185.815766 73.788042 
L 185.962297 69.626968 
L 186.108828 80.079786 
L 186.255358 74.072132 
L 186.401889 75.333823 
L 186.54842 63.869981 
L 186.695007 64.204204 
L 186.988068 73.704486 
L 187.28113 58.739661 
L 187.427661 60.744998 
L 187.574191 52.598317 
L 187.720722 65.47425 
L 187.867253 59.349618 
L 188.160315 58.94855 
L 188.453432 53.550852 
L 188.599963 51.528804 
L 188.746494 53.534141 
L 189.039555 51.787827 
L 189.186086 55.7233 
L 189.479148 49.657157 
L 189.625678 52.021783 
L 189.772209 51.996716 
L 189.918796 48.712977 
L 190.065327 49.231023 
L 190.211857 45.303905 
L 190.358388 50.818581 
L 190.65145 52.264094 
L 190.797981 53.057874 
L 190.944511 52.698584 
L 191.237629 51.069248 
L 191.53069 55.038144 
L 191.970283 60.661442 
L 192.116814 60.836909 
L 192.263344 60.394064 
L 192.556406 61.789444 
L 192.702937 65.064827 
L 192.849468 64.931138 
L 192.996054 63.945181 
L 193.142585 61.613977 
L 193.289116 67.220564 
L 193.435647 66.56883 
L 193.582177 62.541445 
L 193.728708 63.602603 
L 193.875239 61.672466 
L 194.02177 72.375951 
L 194.168356 65.775051 
L 194.314887 72.258973 
L 194.461418 65.039761 
L 194.75448 72.977552 
L 194.90101 73.503953 
L 195.047541 71.565461 
L 195.194072 77.414359 
L 195.340603 74.306087 
L 195.487134 68.365277 
L 195.63372 76.503602 
L 195.780251 66.05914 
L 195.926782 79.887608 
L 196.073313 75.676401 
L 196.219843 67.354253 
L 196.366374 83.73117 
L 196.512905 73.47053 
L 196.805967 87.156954 
L 196.952497 72.459507 
L 197.099028 86.680686 
L 197.245559 78.993562 
L 197.538676 82.929035 
L 197.685207 79.169029 
L 197.978269 83.781304 
L 198.1248 79.077118 
L 198.27133 88.293311 
L 198.417917 89.52158 
L 198.710979 80.439076 
L 198.857509 84.39126 
L 199.00404 91.35145 
L 199.150571 84.67535 
L 199.590163 91.677317 
L 199.736694 91.192694 
L 200.029756 77.172048 
L 200.322873 90.774915 
L 200.615935 95.771546 
L 200.908996 87.499532 
L 201.055527 88.109489 
L 201.202058 93.649231 
L 201.348589 93.540609 
L 201.49512 91.760873 
L 201.64165 97.44266 
L 201.788237 84.608505 
L 201.934768 92.136873 
L 202.081299 89.37118 
L 202.227829 88.819712 
L 202.520891 94.518211 
L 202.667422 88.543978 
L 202.814008 90.482471 
L 202.960539 90.908605 
L 203.10707 92.880519 
L 203.253601 91.376516 
L 203.400132 94.158921 
L 203.546662 90.073048 
L 203.693193 92.337407 
L 203.839724 88.418645 
L 203.986255 96.590392 
L 204.132786 92.721763 
L 204.425847 96.740792 
L 204.572434 89.897581 
L 204.718965 97.735105 
L 204.865495 84.992861 
L 205.012026 88.218111 
L 205.158557 98.278217 
L 205.305088 88.652601 
L 205.451619 96.406569 
L 205.598149 96.172614 
L 205.74468 94.668611 
L 205.891211 95.788257 
L 206.184328 85.084772 
L 206.330859 89.287624 
L 206.623921 88.652601 
L 206.916982 96.63217 
L 207.063513 93.599098 
L 207.210044 98.019194 
L 207.356631 98.787907 
L 207.649692 84.566727 
L 207.942754 87.558021 
L 208.089285 95.855102 
L 208.382346 89.981136 
L 208.528877 89.972781 
L 208.675408 91.326383 
L 208.821939 85.920329 
L 208.968469 95.838391 
L 209.115056 93.323364 
L 209.261587 87.232154 
L 209.408118 95.420612 
L 209.554648 89.287624 
L 209.994241 93.089408 
L 210.140772 89.722114 
L 210.287358 93.097764 
L 210.433889 85.86184 
L 210.58042 85.769929 
L 210.726951 96.180969 
L 210.873481 87.198732 
L 211.020012 97.434305 
L 211.166543 97.100082 
L 211.313074 88.167978 
L 211.459605 96.490125 
L 211.606135 88.3518 
L 211.752722 86.789309 
L 211.899253 91.159272 
L 212.045784 89.972781 
L 212.192314 85.586107 
L 212.338845 98.871463 
L 212.485376 90.549315 
L 212.778438 97.868794 
L 212.924968 92.989141 
L 213.071499 92.813674 
L 213.21803 94.033588 
L 213.364561 90.298648 
L 213.511147 89.939358 
L 213.804209 96.999815 
L 213.95074 90.749849 
L 214.097271 96.490125 
L 214.390332 88.677667 
L 214.536919 91.06736 
L 214.68345 82.954102 
L 214.976511 97.225415 
L 215.123042 96.732437 
L 215.269573 97.701683 
L 215.416104 97.300615 
L 215.562634 97.334038 
L 215.709165 93.139542 
L 215.855696 94.468077 
L 216.002227 91.710739 
L 216.295344 97.87715 
L 216.441875 95.97208 
L 216.588406 99.439641 
L 216.734937 98.136172 
L 216.881467 93.766209 
L 217.027998 99.406219 
L 217.32106 94.768878 
L 217.614121 101.528534 
L 217.760652 95.880169 
L 217.907239 100.968711 
L 218.2003 95.337057 
L 218.346831 98.244795 
L 218.493362 91.209405 
L 218.639893 93.682654 
L 218.786424 98.303284 
L 218.93301 97.242126 
L 219.079541 107.04321 
L 219.226072 99.406219 
L 219.372603 106.30792 
L 219.519133 98.604084 
L 219.665664 99.840709 
L 219.812195 105.088006 
L 219.958726 97.242126 
L 220.105257 97.785238 
L 220.251787 103.040892 
L 220.398318 98.035906 
L 220.544849 102.113424 
L 220.691436 99.874131 
L 220.837966 95.128167 
L 220.984497 103.675915 
L 221.131028 103.81796 
L 221.277559 100.659554 
L 221.42409 106.775832 
L 221.57062 101.2528 
L 221.717151 104.920895 
L 222.010213 102.196979 
L 222.156799 98.10275 
L 222.30333 100.59271 
L 222.449861 106.650498 
L 222.596392 100.208354 
L 222.742923 110.895127 
L 222.889453 105.973697 
L 223.035984 105.246762 
L 223.182515 106.575298 
L 223.329046 98.68764 
L 223.475632 101.595378 
L 223.622163 101.528534 
L 223.768694 103.324981 
L 223.915225 111.212639 
L 224.208286 100.684621 
L 224.354817 105.514141 
L 224.501348 104.745428 
L 224.79441 110.460638 
L 224.94094 105.154851 
L 225.087471 105.580985 
L 225.234058 99.690308 
L 225.380589 106.257786 
L 225.527119 105.330318 
L 225.67365 106.75912 
L 225.820181 112.348997 
L 225.966712 108.087656 
L 226.113243 110.803216 
L 226.259773 104.586672 
L 226.552891 109.633436 
L 226.699422 104.361072 
L 227.432076 111.713973 
L 227.578606 106.30792 
L 227.725137 106.216008 
L 227.871724 108.304901 
L 228.018255 108.488723 
L 228.164785 107.8537 
L 228.457847 108.998413 
L 228.604378 107.9289 
L 228.750909 108.764457 
L 228.897439 108.94828 
L 229.04397 110.009437 
L 229.190501 105.154851 
L 229.483563 109.566592 
L 229.630149 108.179567 
L 229.77668 113.20962 
L 229.923211 110.694594 
L 230.069742 114.905801 
L 230.216272 109.767126 
L 230.362803 108.555568 
L 230.509334 113.903133 
L 230.802451 107.920545 
L 230.948982 106.951299 
L 231.095513 110.811572 
L 231.242044 110.427216 
L 231.388575 115.432202 
L 231.535105 110.736372 
L 231.681636 114.3794 
L 231.974698 104.40285 
L 232.121229 112.006418 
L 232.267759 111.388106 
L 232.414346 109.483036 
L 232.560877 114.905801 
L 232.707408 111.571929 
L 232.853938 113.05922 
L 233.000469 110.769794 
L 233.147 110.803216 
L 233.293531 110.452282 
L 233.440062 107.252099 
L 233.586592 108.94828 
L 233.733123 108.94828 
L 233.879654 110.402149 
L 234.026241 115.824914 
L 234.172771 110.468993 
L 234.319302 113.510421 
L 234.465833 110.201615 
L 234.612364 110.585971 
L 234.758895 112.699931 
L 234.905425 108.246412 
L 235.198543 111.521795 
L 235.345074 114.955934 
L 235.491604 111.847662 
L 235.638135 111.262773 
L 235.784666 113.117709 
L 235.931197 112.482686 
L 236.077728 107.335655 
L 236.370789 114.579934 
L 236.51732 105.756452 
L 236.810437 113.852999 
L 236.956968 108.580635 
L 237.103499 113.677532 
L 237.25003 108.822946 
L 237.543091 114.020111 
L 237.689622 107.577966 
L 237.836153 112.841975 
L 237.982684 112.348997 
L 238.129215 102.756803 
L 238.275801 115.666158 
L 238.422332 108.104367 
L 238.568863 108.731035 
L 238.715394 112.649797 
L 238.861924 113.343309 
L 239.008455 107.603033 
L 239.154986 116.292826 
L 239.301517 108.304901 
L 239.448048 109.976015 
L 239.594634 115.540824 
L 239.741165 111.087306 
L 239.887696 111.496728 
L 240.034227 113.485354 
L 240.327288 105.104718 
L 240.62035 107.084988 
L 240.766881 111.204284 
L 241.059942 111.179217 
L 241.206473 114.011755 
L 241.35306 110.368727 
L 241.646121 113.752732 
L 241.792652 103.525515 
L 241.939183 108.146145 
L 242.085714 103.81796 
L 242.232244 111.66384 
L 242.378775 110.009437 
L 242.525362 114.337622 
L 242.671893 114.3042 
L 242.964954 105.814941 
L 243.111485 106.917876 
L 243.404547 103.049247 
L 243.551077 110.218326 
L 243.844139 106.725698 
L 243.990726 113.318243 
L 244.137256 114.446245 
L 244.283787 105.923563 
L 244.576849 109.349347 
L 244.72338 99.523197 
L 244.86991 114.345978 
L 245.016441 105.823297 
L 245.162972 105.079651 
L 245.456034 110.034504 
L 245.602564 103.943293 
L 245.749151 107.987389 
L 245.895682 106.734054 
L 246.042213 101.896179 
L 246.188743 107.987389 
L 246.335274 108.254767 
L 246.481805 103.316626 
L 246.628336 108.856368 
L 247.067984 101.729067 
L 247.214515 106.767476 
L 247.361046 100.342043 
L 247.507576 108.797879 
L 247.654107 105.464007 
L 247.800638 110.535838 
L 248.0937 105.146495 
L 248.24023 105.221696 
L 248.386761 106.825965 
L 248.533348 99.606753 
L 248.679879 102.288891 
L 248.826409 101.453334 
L 248.97294 105.57263 
L 249.119471 106.274497 
L 249.266002 109.048547 
L 249.559063 101.528534 
L 249.705594 101.979735 
L 249.852125 99.163908 
L 249.998656 104.578317 
L 250.145242 100.826666 
L 250.291773 104.452983 
L 250.438304 103.091025 
L 250.584835 107.745078 
L 250.731366 107.561255 
L 250.877896 104.444628 
L 251.024427 104.010138 
L 251.171014 111.120728 
L 251.317545 101.520178 
L 251.464075 100.199998 
L 251.610606 105.547563 
L 251.757137 105.154851 
L 251.903668 100.024531 
L 252.050199 106.416542 
L 252.196729 104.411205 
L 252.489791 108.070945 
L 252.636322 107.561255 
L 252.782853 106.483387 
L 252.929439 100.450665 
L 253.07597 105.748096 
L 253.515562 102.965692 
L 253.662093 108.246412 
L 253.808624 102.907203 
L 253.955155 107.953967 
L 254.101686 103.166225 
L 254.248216 102.230402 
L 254.394803 102.547913 
L 254.687865 105.405518 
L 254.834395 104.77885 
L 254.980926 105.046229 
L 255.127457 104.870762 
L 255.420519 106.040541 
L 255.567049 104.770495 
L 255.713636 104.770495 
L 255.860167 105.338674 
L 256.153228 104.411205 
L 256.44629 105.330318 
L 256.592821 104.962673 
L 256.739352 106.174231 
L 256.885882 106.157519 
L 257.032413 106.274497 
L 257.178944 105.012806 
L 257.325475 105.121429 
L 257.472061 100.918577 
L 257.618592 104.920895 
L 257.765123 104.670228 
L 258.058185 109.040191 
L 258.204715 106.408186 
L 258.351246 112.925531 
L 258.497777 102.564624 
L 258.644364 106.149164 
L 258.790894 102.715025 
L 258.937425 107.427566 
L 259.083956 101.91289 
L 259.230487 112.073263 
L 259.670079 105.071295 
L 259.81661 112.190241 
L 259.963141 102.13849 
L 260.256258 105.87343 
L 260.402789 112.750064 
L 260.54932 104.712006 
L 260.695851 110.084637 
L 260.842381 111.329617 
L 261.135443 107.803567 
L 261.281974 113.727666 
L 261.428505 112.649797 
L 261.575035 106.566942 
L 261.721566 112.541175 
L 262.014684 106.775832 
L 262.161214 109.048547 
L 262.307745 105.071295 
L 262.454276 108.756102 
L 262.600807 115.791491 
L 262.747338 112.750064 
L 262.893924 105.739741 
L 263.040455 114.061888 
L 263.333517 102.255468 
L 263.773109 110.903483 
L 263.91964 110.56926 
L 264.066171 120.428833 
L 264.359232 110.953616 
L 264.505763 112.691575 
L 264.65235 109.441258 
L 264.79888 109.925881 
L 264.945411 113.468643 
L 265.091942 104.394494 
L 265.238473 106.441609 
L 265.385004 105.472363 
L 265.678065 113.485354 
L 265.824596 114.496378 
L 265.971127 108.045878 
L 266.264244 117.120027 
L 266.557306 106.617076 
L 266.850367 116.150781 
L 266.996898 110.41886 
L 267.143429 114.187222 
L 267.290016 111.856018 
L 267.436546 112.516108 
L 267.583077 114.345978 
L 267.729608 113.635754 
L 267.876139 108.981702 
L 268.02267 113.86971 
L 268.1692 110.736372 
L 268.315731 118.172829 
L 268.462262 115.390424 
L 268.608793 116.409803 
L 268.755324 114.120377 
L 268.901854 113.86971 
L 269.048441 111.856018 
L 269.194972 119.317542 
L 269.341503 115.047846 
L 269.488033 117.638072 
L 269.634564 115.950247 
L 269.781095 110.920194 
L 269.927626 115.841625 
L 270.074157 113.343309 
L 270.220687 118.03914 
L 270.367218 114.571578 
L 270.513805 117.796828 
L 270.660336 111.822596 
L 270.806866 116.668826 
L 271.099928 114.145444 
L 271.39299 121.113989 
L 271.832638 110.502416 
L 271.979169 117.237005 
L 272.125699 112.783486 
L 272.27223 113.326598 
L 272.418761 119.977632 
L 272.565292 119.367675 
L 272.711823 113.176198 
L 272.858353 121.373012 
L 273.004884 115.131401 
L 273.151415 121.423145 
L 273.297946 114.262422 
L 273.444477 114.571578 
L 273.591063 116.927849 
L 273.737594 116.652115 
L 273.884125 117.872028 
L 274.030656 123.219593 
L 274.470248 115.156468 
L 274.616779 118.256384 
L 274.763365 114.705267 
L 274.909896 118.916474 
L 275.056427 118.306518 
L 275.202958 118.92483 
L 275.349489 121.456568 
L 275.496019 121.632035 
L 275.64255 117.328916 
L 275.789081 120.938522 
L 275.935612 112.658153 
L 276.082143 118.824563 
L 276.228729 116.28447 
L 276.37526 122.475947 
L 276.521791 119.960921 
L 276.668322 121.322879 
L 276.814852 118.56554 
L 277.254445 120.763055 
L 277.400976 117.713272 
L 277.547506 117.663139 
L 277.694037 121.41479 
L 277.840568 116.919493 
L 277.987155 118.941541 
L 278.133685 117.780117 
L 278.280216 120.921811 
L 278.573278 117.621361 
L 278.719809 121.41479 
L 278.866339 120.504033 
L 279.012926 118.832919 
L 279.159457 120.453899 
L 279.305988 123.762705 
L 279.452518 116.710604 
L 279.599049 120.044476 
L 279.74558 119.718609 
L 279.892111 125.859953 
L 280.038642 121.26439 
L 280.185172 120.779766 
L 280.331703 121.113989 
L 280.478234 120.520744 
L 280.771351 114.655134 
L 280.917882 124.472928 
L 281.064413 118.523763 
L 281.504005 126.578532 
L 281.650536 124.406084 
L 281.797067 128.074179 
L 281.943598 122.125013 
L 282.090129 124.765373 
L 282.236659 117.888739 
L 282.383246 117.211938 
L 282.529777 119.033452 
L 282.676308 124.422795 
L 282.969369 119.376031 
L 283.1159 121.189189 
L 283.262431 126.670443 
L 283.555548 114.496378 
L 283.84861 124.322528 
L 283.995141 120.871678 
L 284.141671 124.514706 
L 284.288202 124.990974 
L 284.727795 119.559853 
L 285.020856 124.289106 
L 285.167443 124.230617 
L 285.313974 127.439156 
L 285.607035 120.002698 
L 285.753566 121.197545 
L 285.900097 124.213906 
L 286.046628 123.929816 
L 286.193158 127.506 
L 286.339689 124.071861 
L 286.48622 124.723595 
L 286.632807 121.824213 
L 286.779337 125.124663 
L 286.925868 121.439856 
L 287.072399 123.612305 
L 287.21893 121.26439 
L 287.365461 127.723245 
L 287.511991 120.487322 
L 287.658522 120.746344 
L 287.805053 124.556484 
L 287.95164 123.629016 
L 288.09817 124.063505 
L 288.244701 123.069193 
L 288.391232 128.408402 
L 288.537763 118.33994 
L 288.684294 127.497645 
L 288.830824 123.336571 
L 288.977355 124.155417 
L 289.123886 120.704566 
L 289.270417 123.336571 
L 289.416948 122.041458 
L 289.710065 123.745994 
L 289.856596 124.238972 
L 290.003127 126.586887 
L 290.296188 122.342258 
L 290.442719 122.701548 
L 290.882367 126.160753 
L 291.028898 124.673462 
L 291.175429 125.258352 
L 291.32196 119.877365 
L 291.615021 123.336571 
L 291.761552 129.051781 
L 292.054614 123.420127 
L 292.201144 128.776047 
L 292.494262 121.381368 
L 292.640793 121.891057 
L 292.787323 121.757368 
L 293.080385 127.514356 
L 293.226916 124.030083 
L 293.373447 126.904399 
L 293.813039 122.968926 
L 293.95957 116.961271 
L 294.106156 125.024396 
L 294.399218 126.812488 
L 294.545749 124.063505 
L 294.69228 131.54174 
L 295.131928 122.576214 
L 295.424989 126.887688 
L 295.57152 123.47026 
L 295.718051 127.246977 
L 295.864582 127.948845 
L 296.011113 129.745293 
L 296.157643 121.322879 
L 296.304174 121.155767 
L 296.597236 127.840223 
L 296.743767 125.559152 
L 297.036884 131.006984 
L 297.329946 124.305817 
L 297.476476 127.990623 
L 297.623007 127.405733 
L 297.769538 123.219593 
L 298.0626 125.458886 
L 298.20913 129.678448 
L 298.355717 127.614623 
L 298.502248 128.859602 
L 298.795309 128.374979 
L 298.94184 127.029733 
L 299.234902 120.913456 
L 299.381433 127.063155 
L 299.528019 123.102615 
L 299.67455 122.676481 
L 299.821081 128.809469 
L 299.967612 127.372311 
L 300.114142 128.416757 
L 300.260673 128.542091 
L 300.407204 129.48627 
L 300.553735 129.502981 
L 300.846796 126.419776 
L 300.993327 128.082534 
L 301.139858 128.374979 
L 301.286445 126.662088 
L 301.579506 127.3556 
L 301.726037 128.583869 
L 302.019099 126.403065 
L 302.31216 128.065823 
L 302.458691 126.160753 
L 302.605222 128.333202 
L 302.751808 125.642708 
L 303.04487 130.154716 
L 303.191401 128.308135 
L 303.337932 129.511337 
L 303.484462 128.24129 
L 303.630993 130.196494 
L 303.777524 127.389022 
L 303.924055 127.464222 
L 304.070641 126.829199 
L 304.217172 125.458886 
L 304.363703 126.603599 
L 304.510234 128.717558 
L 304.656765 126.010353 
L 304.949826 128.959869 
L 305.096357 129.285737 
L 305.389419 126.987955 
L 305.535949 131.107251 
L 305.68248 126.762354 
L 305.829067 127.815156 
L 305.975598 127.890356 
L 306.122128 124.330884 
L 306.268659 128.341557 
L 306.41519 127.514356 
L 306.561721 132.41072 
L 306.708252 125.01604 
L 307.001369 132.978898 
L 307.1479 126.92111 
L 307.294431 126.896044 
L 307.440961 125.141374 
L 307.587492 129.18547 
L 307.734023 127.363955 
L 307.880554 123.54546 
L 308.027085 128.31649 
L 308.173615 127.372311 
L 308.320146 129.787071 
L 308.466733 123.428482 
L 308.613264 130.931784 
L 308.759794 131.424762 
L 308.906325 127.506 
L 309.052856 129.310803 
L 309.199387 129.452848 
L 309.345918 128.650713 
L 309.492448 128.642358 
L 309.638979 125.341908 
L 309.78551 129.269025 
L 310.078572 124.915774 
L 310.225158 129.862271 
L 310.371689 129.511337 
L 310.51822 128.124312 
L 310.664751 128.659069 
L 310.957812 133.104232 
L 311.104343 127.840223 
L 311.25093 127.86529 
L 311.39746 132.945476 
L 311.543991 130.722895 
L 311.690522 130.973562 
L 311.837053 126.453198 
L 311.983584 130.388672 
L 312.130114 126.779066 
L 312.276645 132.302097 
L 312.423176 130.096227 
L 312.569707 131.642007 
L 312.716238 131.458185 
L 312.862768 128.074179 
L 313.009355 129.511337 
L 313.155886 128.416757 
L 313.302417 129.327514 
L 313.448947 125.75133 
L 313.595478 125.709553 
L 313.88854 130.873295 
L 314.035071 125.333552 
L 314.181601 129.970893 
L 314.328132 130.605917 
L 314.474719 135.819792 
L 314.76778 127.439156 
L 314.914311 136.922727 
L 315.060842 128.943158 
L 315.207373 131.575163 
L 315.353904 125.901731 
L 315.500434 129.427781 
L 315.647021 129.294092 
L 315.793552 124.873996 
L 315.940083 133.672411 
L 316.086613 129.77036 
L 316.233144 131.558451 
L 316.379675 129.837204 
L 316.526206 130.447161 
L 316.672737 132.402364 
L 316.819267 125.784753 
L 316.965798 132.502631 
L 317.112329 129.11027 
L 317.25886 131.215873 
L 317.405446 131.341207 
L 317.551977 129.152047 
L 317.698508 135.026013 
L 317.845039 133.547077 
L 317.99157 134.641657 
L 318.1381 127.2804 
L 318.284631 131.934452 
L 318.577693 126.386354 
L 318.87081 128.97658 
L 319.017341 134.232234 
L 319.163872 130.087871 
L 319.310403 133.354899 
L 319.456933 133.864589 
L 319.749995 129.243959 
L 319.896526 129.461203 
L 320.043057 129.33587 
L 320.189643 130.614272 
L 320.336174 129.168759 
L 320.482705 129.076847 
L 320.629236 129.56147 
L 320.775766 132.870276 
L 321.068828 125.116307 
L 321.36189 133.847878 
L 321.50842 130.80645 
L 321.801482 133.14601 
L 321.948069 132.034719 
L 322.24113 127.297111 
L 322.387661 128.207868 
L 322.534192 132.101564 
L 322.680723 128.784402 
L 322.827253 130.179782 
L 322.973784 129.043425 
L 323.266902 132.527698 
L 323.413432 135.034369 
L 323.559963 130.229916 
L 323.706494 130.990273 
L 323.853025 128.767691 
L 323.999556 130.22156 
L 324.292617 125.584219 
L 324.439148 130.798095 
L 324.585735 130.22156 
L 324.732265 129.152047 
L 324.878796 131.46654 
L 325.025327 131.525029 
L 325.171858 132.059786 
L 325.318389 131.717207 
L 325.464919 134.349212 
L 325.757981 127.990623 
L 325.904512 126.887688 
L 326.051043 131.282718 
L 326.197573 124.974263 
L 326.34416 126.11062 
L 326.637222 132.502631 
L 326.783752 129.92076 
L 326.930283 133.772677 
L 327.223345 129.010003 
L 327.369931 129.569826 
L 327.516462 129.160403 
L 327.662993 132.736587 
L 327.809524 128.650713 
L 327.956055 127.756667 
L 328.102585 124.899062 
L 328.395647 129.853915 
L 328.542178 125.275063 
L 328.835239 130.65605 
L 328.98177 129.619959 
L 329.128357 126.302798 
L 329.274888 127.104933 
L 329.421418 128.851247 
L 329.567949 128.491957 
L 329.71448 126.093909 
L 329.861011 125.584219 
L 330.007542 126.553465 
L 330.154072 121.932835 
L 330.300603 123.461904 
L 330.447134 122.968926 
L 330.593721 123.996661 
L 330.886782 122.592925 
L 331.033313 128.984936 
L 331.179844 122.668125 
L 331.326375 122.141724 
L 331.472905 119.777098 
L 331.619436 120.6043 
L 331.766023 122.317191 
L 332.059084 115.900114 
L 332.205615 118.974963 
L 332.352146 118.883052 
L 332.498677 116.217625 
L 332.645208 111.51344 
L 332.791738 111.789173 
L 332.938269 110.702949 
L 333.0848 113.627399 
L 333.231331 109.742059 
L 333.377862 110.076282 
L 333.524392 112.181885 
L 333.670979 116.067225 
L 333.964041 101.76249 
L 334.110571 103.450315 
L 334.257102 109.716992 
L 334.550164 103.040892 
L 334.696695 108.488723 
L 334.843281 105.580985 
L 334.989812 108.990058 
L 335.136343 103.467026 
L 335.282874 104.595028 
L 335.429404 98.420262 
L 335.575935 103.149514 
L 335.722466 103.508804 
L 335.868997 96.515192 
L 336.015528 103.884804 
L 336.162058 103.467026 
L 336.308645 104.854051 
L 336.748237 98.695996 
L 336.894768 102.848714 
L 337.041299 103.099381 
L 337.18783 104.486405 
L 337.334361 104.77885 
L 337.480891 104.494761 
L 337.773953 105.823297 
L 337.920484 105.054584 
L 338.213601 106.149164 
L 338.360132 105.146495 
L 338.506663 105.06294 
L 338.653194 105.94863 
L 338.799724 105.87343 
L 338.946255 106.048897 
L 339.239373 107.101699 
L 339.385903 107.795211 
L 339.532434 106.951299 
L 339.678965 109.666859 
L 339.825496 108.238056 
L 339.972027 110.276815 
L 340.118557 110.251749 
L 340.265088 109.198947 
L 340.411619 105.355385 
L 340.55815 109.265791 
L 340.704736 109.691925 
L 340.851267 103.776182 
L 341.29086 112.148463 
L 341.43739 104.336005 
L 341.583921 107.227032 
L 341.730452 103.66756 
L 341.876983 111.388106 
L 342.023514 111.505084 
L 342.170044 109.349347 
L 342.316575 110.235037 
L 342.463162 115.089623 
L 342.609693 111.847662 
L 342.756223 111.647129 
L 342.902754 113.928199 
L 343.049285 112.357352 
L 343.195816 112.24873 
L 343.342347 116.351315 
L 343.488933 110.753083 
L 343.635464 112.950598 
L 343.781995 117.01976 
L 343.928526 117.111671 
L 344.075056 114.81389 
L 344.221587 118.156118 
L 344.368118 116.100647 
L 344.514649 117.186871 
L 344.66118 123.804483 
L 344.954241 115.047846 
L 345.100772 124.414439 
L 345.247359 120.203232 
L 345.393889 120.595944 
L 345.54042 122.977281 
L 345.686951 122.049813 
L 345.833482 114.588289 
L 345.980013 122.183502 
L 346.126543 120.704566 
L 346.419605 121.765724 
L 346.566136 122.250347 
L 346.859253 125.726264 
L 347.005784 122.776748 
L 347.298846 125.433819 
L 347.445376 125.75133 
L 347.591907 122.417458 
L 348.031555 128.032401 
L 348.324617 126.92111 
L 348.471148 126.745643 
L 348.617679 130.397027 
L 348.764209 124.857285 
L 348.91074 128.52538 
L 349.057271 128.174446 
L 349.350333 131.374629 
L 349.496863 133.714188 
L 349.643394 123.687505 
L 349.936512 128.667424 
L 350.083042 133.179432 
L 350.229573 128.065823 
L 350.376104 127.221911 
L 350.669166 131.174095 
L 350.815696 130.154716 
L 350.962283 134.31579 
L 351.108814 128.349913 
L 351.255345 128.742624 
L 351.548406 134.048411 
L 351.694937 133.229565 
L 351.841468 135.93677 
L 351.987999 129.436137 
L 352.134529 130.472227 
L 352.28106 135.602547 
L 352.427647 132.594542 
L 352.574178 134.290723 
L 352.720708 128.767691 
L 352.867239 134.148678 
L 353.01377 134.140323 
L 353.160301 135.092857 
L 353.306832 129.92076 
L 353.453362 135.769659 
L 353.74648 129.670093 
L 353.893011 133.329832 
L 354.186072 127.013022 
L 354.332603 132.494275 
L 354.479134 131.182451 
L 354.625665 133.856233 
L 354.772195 134.090189 
L 354.918726 133.430099 
L 355.065257 135.610903 
L 355.358319 130.814806 
L 355.504905 135.569125 
L 355.651436 131.299429 
L 355.797967 131.550096 
L 355.944498 136.830816 
L 356.091028 131.408051 
L 356.237559 133.396677 
L 356.38409 133.137654 
L 356.530621 133.329832 
L 356.823682 132.594542 
L 356.970213 130.321827 
L 357.263275 133.847878 
L 357.409861 132.093208 
L 357.556392 126.987955 
L 357.702923 134.140323 
L 357.849454 128.725913 
L 357.995985 132.736587 
L 358.142515 118.883052 
L 358.142515 118.883052 
" clip-path="url(#p23805f322c)" style="fill: none; stroke: #000000; stroke-width: 0.5; stroke-linecap: square"/>
   </g>
   <g id="patch_3">
    <path d="M 23.410313 143.1 
L 23.410313 7.2 
" style="fill: none; stroke: #000000; stroke-width: 0.8; stroke-linejoin: miter; stroke-linecap: square"/>
   </g>
   <g id="patch_4">
    <path d="M 23.410313 143.1 
L 358.210312 143.1 
" style="fill: none; stroke: #000000; stroke-width: 0.8; stroke-linejoin: miter; stroke-linecap: square"/>
   </g>
  </g>
 </g>
 <defs>
  <clipPath id="p23805f322c">
   <rect x="23.410313" y="7.2" width="334.8" height="135.9"/>
  </clipPath>
 </defs>
</svg>
