<svg xmlns="http://www.w3.org/2000/svg" xmlns:xlink="http://www.w3.org/1999/xlink" width="426.92" height="368.08" viewBox="0 0 426.92 368.08"><defs><style>.cls-1,.cls-11,.cls-12,.cls-6,.cls-7,.cls-8,.cls-9{fill:none;}.cls-2{fill:#fff;}.cls-3,.cls-4,.cls-9{stroke:#000;}.cls-3,.cls-4,.cls-6,.cls-7,.cls-8{stroke-linejoin:round;}.cls-3,.cls-9{stroke-width:0.8px;}.cls-4{stroke-width:0.6px;}.cls-5{clip-path:url(#clip-path);}.cls-6{stroke:#17045c;}.cls-6,.cls-7,.cls-8,.cls-9{stroke-linecap:square;}.cls-6,.cls-7,.cls-8{stroke-width:0.5px;}.cls-7{stroke:#73005d;}.cls-8{stroke:#b20046;}.cls-10{fill:#17045c;}.cls-11,.cls-12{stroke:#787878;stroke-miterlimit:10;}.cls-12{stroke-dasharray:6.02 6.02;}</style><clipPath id="clip-path"><rect class="cls-1" x="23.41" y="7.2" width="395.06" height="326.16"/></clipPath></defs><g id="Layer_1" data-name="Layer 1"><g id="patch_1" data-name="patch 1"><path class="cls-2" d="M0,368.08H425.67V0H0Z"/></g><path class="cls-2" d="M23.41,333.36H418.47V7.2H23.41Z"/><g id="matplotlib.axis_1" data-name="matplotlib.axis 1"><g id="xtick_1" data-name="xtick 1"><g id="line2d_1" data-name="line2d 1"><path id="m11cfcfe9fc" class="cls-3" d="M56.33,333.36v3.5"/></g><g id="text_1" data-name="text 1"><path id="DejaVuSans-31" d="M52.23,345.78h1.29v-4.45l-1.4.28v-.72l1.4-.28h.78v5.17h1.29v.66H52.23Z"/><path id="DejaVuSans-30" d="M58.87,341.13a1,1,0,0,0-.91.6,5.38,5.38,0,0,0,0,3.6,1,1,0,0,0,1.83,0,5.38,5.38,0,0,0,0-3.6A1,1,0,0,0,58.87,341.13Zm0-.63a1.68,1.68,0,0,1,1.5.78,4,4,0,0,1,.52,2.25,4,4,0,0,1-.52,2.25,1.84,1.84,0,0,1-3,0,4,4,0,0,1-.52-2.25,4,4,0,0,1,.52-2.25A1.67,1.67,0,0,1,58.87,340.5Z"/></g></g><g id="xtick_2" data-name="xtick 2"><g id="line2d_2" data-name="line2d 2"><path id="m11cfcfe9fc-2" data-name="m11cfcfe9fc" class="cls-3" d="M122.18,333.36v3.5"/></g><g id="text_2" data-name="text 2"><path id="DejaVuSans-32" d="M118.62,345.78h2.76v.66h-3.71v-.66l1.23-1.25c.51-.52.84-.86,1-1a4.26,4.26,0,0,0,.53-.72,1.28,1.28,0,0,0,.15-.58,1,1,0,0,0-.32-.76,1.22,1.22,0,0,0-.85-.29,2.86,2.86,0,0,0-.79.12,4.76,4.76,0,0,0-.88.4v-.8a5.71,5.71,0,0,1,.89-.29,3.12,3.12,0,0,1,.76-.1,2.16,2.16,0,0,1,1.45.46,1.51,1.51,0,0,1,.53,1.21,1.75,1.75,0,0,1-.13.68,3.48,3.48,0,0,1-.49.76l-.62.65Z"/><path id="DejaVuSans-30-2" data-name="DejaVuSans-30" d="M124.72,341.13a1,1,0,0,0-.92.6,5.55,5.55,0,0,0,0,3.6,1,1,0,0,0,1.84,0,5.38,5.38,0,0,0,0-3.6A1,1,0,0,0,124.72,341.13Zm0-.63a1.7,1.7,0,0,1,1.5.78,4.07,4.07,0,0,1,.51,2.25,4.12,4.12,0,0,1-.51,2.25,1.85,1.85,0,0,1-3,0,4.11,4.11,0,0,1-.52-2.25,4.07,4.07,0,0,1,.52-2.25A1.7,1.7,0,0,1,124.72,340.5Z"/></g></g><g id="xtick_3" data-name="xtick 3"><g id="line2d_3" data-name="line2d 3"><path id="m11cfcfe9fc-3" data-name="m11cfcfe9fc" class="cls-3" d="M188,333.36v3.5"/></g><g id="text_3" data-name="text 3"><path id="DejaVuSans-33" d="M186.18,343.29a1.5,1.5,0,0,1,.88.51,1.43,1.43,0,0,1,.32.94,1.63,1.63,0,0,1-.59,1.34,2.64,2.64,0,0,1-1.69.47,4,4,0,0,1-.76-.07,5.35,5.35,0,0,1-.8-.22v-.76a2.53,2.53,0,0,0,.72.29,3.12,3.12,0,0,0,.82.1,1.9,1.9,0,0,0,1.13-.29,1,1,0,0,0,.38-.86,1,1,0,0,0-.36-.8,1.51,1.51,0,0,0-1-.29h-.68V343h.71a1.5,1.5,0,0,0,.89-.23.89.89,0,0,0,0-1.36,1.49,1.49,0,0,0-.91-.24,3.53,3.53,0,0,0-.7.07,6.08,6.08,0,0,0-.81.21v-.7c.3-.08.58-.14.84-.19a4.91,4.91,0,0,1,.74-.06,2.26,2.26,0,0,1,1.42.41,1.32,1.32,0,0,1,.52,1.1,1.25,1.25,0,0,1-.27.82A1.45,1.45,0,0,1,186.18,343.29Z"/><path id="DejaVuSans-30-3" data-name="DejaVuSans-30" d="M190.56,341.13a1,1,0,0,0-.91.6,5.38,5.38,0,0,0,0,3.6,1,1,0,0,0,1.83,0,5.38,5.38,0,0,0,0-3.6A1,1,0,0,0,190.56,341.13Zm0-.63a1.68,1.68,0,0,1,1.5.78,4,4,0,0,1,.52,2.25,4,4,0,0,1-.52,2.25,1.84,1.84,0,0,1-3,0,4,4,0,0,1-.52-2.25,4,4,0,0,1,.52-2.25A1.67,1.67,0,0,1,190.56,340.5Z"/></g></g><g id="xtick_4" data-name="xtick 4"><g id="line2d_4" data-name="line2d 4"><path id="m11cfcfe9fc-4" data-name="m11cfcfe9fc" class="cls-3" d="M253.86,333.36v3.5"/></g><g id="text_4" data-name="text 4"><path id="DejaVuSans-34" d="M251.8,341.29l-2,3.12h2Zm-.21-.68h1v3.8h.84v.65h-.84v1.38h-.78v-1.38h-2.63v-.76Z"/><path id="DejaVuSans-30-4" data-name="DejaVuSans-30" d="M256.41,341.13a1,1,0,0,0-.92.6,5.38,5.38,0,0,0,0,3.6,1,1,0,0,0,1.84,0,5.55,5.55,0,0,0,0-3.6A1,1,0,0,0,256.41,341.13Zm0-.63a1.7,1.7,0,0,1,1.5.78,4.07,4.07,0,0,1,.51,2.25,4.12,4.12,0,0,1-.51,2.25,1.71,1.71,0,0,1-1.5.77,1.69,1.69,0,0,1-1.5-.77,4,4,0,0,1-.52-2.25,4,4,0,0,1,.52-2.25A1.68,1.68,0,0,1,256.41,340.5Z"/></g></g><g id="xtick_5" data-name="xtick 5"><g id="line2d_5" data-name="line2d 5"><path id="m11cfcfe9fc-5" data-name="m11cfcfe9fc" class="cls-3" d="M319.71,333.36v3.5"/></g><g id="text_5" data-name="text 5"><path id="DejaVuSans-35" d="M315.48,340.61h3.1v.66H316.2v1.43a2.25,2.25,0,0,1,.35-.09,2,2,0,0,1,.34,0,2.17,2.17,0,0,1,1.55.54,1.9,1.9,0,0,1,.57,1.45,1.85,1.85,0,0,1-.59,1.46,2.38,2.38,0,0,1-1.65.52,4.89,4.89,0,0,1-1.53-.25v-.79a2.76,2.76,0,0,0,.72.28,3,3,0,0,0,.79.1,1.51,1.51,0,0,0,1.07-.36,1.2,1.2,0,0,0,.4-1,1.22,1.22,0,0,0-.4-1,1.55,1.55,0,0,0-1.07-.35,2.7,2.7,0,0,0-.63.07,2.86,2.86,0,0,0-.64.22Z"/><path id="DejaVuSans-30-5" data-name="DejaVuSans-30" d="M322.25,341.13a1,1,0,0,0-.92.6,5.55,5.55,0,0,0,0,3.6,1,1,0,0,0,1.84,0,5.38,5.38,0,0,0,0-3.6A1,1,0,0,0,322.25,341.13Zm0-.63a1.7,1.7,0,0,1,1.5.78,4.07,4.07,0,0,1,.52,2.25,4.11,4.11,0,0,1-.52,2.25,1.85,1.85,0,0,1-3,0,4.12,4.12,0,0,1-.51-2.25,4.07,4.07,0,0,1,.51-2.25A1.7,1.7,0,0,1,322.25,340.5Z"/></g></g><g id="xtick_6" data-name="xtick 6"><g id="line2d_6" data-name="line2d 6"><path id="m11cfcfe9fc-6" data-name="m11cfcfe9fc" class="cls-3" d="M385.55,333.36v3.5"/></g><g id="text_6" data-name="text 6"><path id="DejaVuSans-36" d="M383.1,343.21a1.06,1.06,0,0,0-.84.36,1.48,1.48,0,0,0-.31,1,1.45,1.45,0,0,0,.31,1,1,1,0,0,0,.84.37,1,1,0,0,0,.84-.37,1.45,1.45,0,0,0,.31-1,1.48,1.48,0,0,0-.31-1A1,1,0,0,0,383.1,343.21Zm1.57-2.47v.71a3.57,3.57,0,0,0-.6-.21,2.46,2.46,0,0,0-.6-.07,1.41,1.41,0,0,0-1.19.52,2.81,2.81,0,0,0-.47,1.6,1.49,1.49,0,0,1,.57-.52,1.57,1.57,0,0,1,.77-.19,1.82,1.82,0,0,1,1.39.54,2,2,0,0,1,.51,1.45,2,2,0,0,1-.53,1.44,1.91,1.91,0,0,1-1.42.54,1.76,1.76,0,0,1-1.54-.77,3.94,3.94,0,0,1-.54-2.25,3.44,3.44,0,0,1,.66-2.21,2.14,2.14,0,0,1,1.76-.82,3.05,3.05,0,0,1,.6.06A4.34,4.34,0,0,1,384.67,340.74Z"/><path id="DejaVuSans-30-6" data-name="DejaVuSans-30" d="M388.09,341.13a1,1,0,0,0-.91.6,5.38,5.38,0,0,0,0,3.6,1,1,0,0,0,1.83,0,5.38,5.38,0,0,0,0-3.6A1,1,0,0,0,388.09,341.13Zm0-.63a1.68,1.68,0,0,1,1.5.78,4,4,0,0,1,.52,2.25,4,4,0,0,1-.52,2.25,1.84,1.84,0,0,1-3,0,4,4,0,0,1-.52-2.25,4,4,0,0,1,.52-2.25A1.67,1.67,0,0,1,388.09,340.5Z"/></g></g><g id="xtick_7" data-name="xtick 7"><g id="line2d_7" data-name="line2d 7"><path id="ma8e40dfadb" class="cls-4" d="M23.41,333.36v2"/></g></g><g id="xtick_8" data-name="xtick 8"><g id="line2d_8" data-name="line2d 8"><path id="ma8e40dfadb-2" data-name="ma8e40dfadb" class="cls-4" d="M39.87,333.36v2"/></g></g><g id="xtick_9" data-name="xtick 9"><g id="line2d_9" data-name="line2d 9"><path id="ma8e40dfadb-3" data-name="ma8e40dfadb" class="cls-4" d="M72.79,333.36v2"/></g></g><g id="xtick_10" data-name="xtick 10"><g id="line2d_10" data-name="line2d 10"><path id="ma8e40dfadb-4" data-name="ma8e40dfadb" class="cls-4" d="M89.25,333.36v2"/></g></g><g id="xtick_11" data-name="xtick 11"><g id="line2d_11" data-name="line2d 11"><path id="ma8e40dfadb-5" data-name="ma8e40dfadb" class="cls-4" d="M105.72,333.36v2"/></g></g><g id="xtick_12" data-name="xtick 12"><g id="line2d_12" data-name="line2d 12"><path id="ma8e40dfadb-6" data-name="ma8e40dfadb" class="cls-4" d="M138.64,333.36v2"/></g></g><g id="xtick_13" data-name="xtick 13"><g id="line2d_13" data-name="line2d 13"><path id="ma8e40dfadb-7" data-name="ma8e40dfadb" class="cls-4" d="M155.1,333.36v2"/></g></g><g id="xtick_14" data-name="xtick 14"><g id="line2d_14" data-name="line2d 14"><path id="ma8e40dfadb-8" data-name="ma8e40dfadb" class="cls-4" d="M171.56,333.36v2"/></g></g><g id="xtick_15" data-name="xtick 15"><g id="line2d_15" data-name="line2d 15"><path id="ma8e40dfadb-9" data-name="ma8e40dfadb" class="cls-4" d="M204.48,333.36v2"/></g></g><g id="xtick_16" data-name="xtick 16"><g id="line2d_16" data-name="line2d 16"><path id="ma8e40dfadb-10" data-name="ma8e40dfadb" class="cls-4" d="M220.94,333.36v2"/></g></g><g id="xtick_17" data-name="xtick 17"><g id="line2d_17" data-name="line2d 17"><path id="ma8e40dfadb-11" data-name="ma8e40dfadb" class="cls-4" d="M237.4,333.36v2"/></g></g><g id="xtick_18" data-name="xtick 18"><g id="line2d_18" data-name="line2d 18"><path id="ma8e40dfadb-12" data-name="ma8e40dfadb" class="cls-4" d="M270.33,333.36v2"/></g></g><g id="xtick_19" data-name="xtick 19"><g id="line2d_19" data-name="line2d 19"><path id="ma8e40dfadb-13" data-name="ma8e40dfadb" class="cls-4" d="M286.79,333.36v2"/></g></g><g id="xtick_20" data-name="xtick 20"><g id="line2d_20" data-name="line2d 20"><path id="ma8e40dfadb-14" data-name="ma8e40dfadb" class="cls-4" d="M303.25,333.36v2"/></g></g><g id="xtick_21" data-name="xtick 21"><g id="line2d_21" data-name="line2d 21"><path id="ma8e40dfadb-15" data-name="ma8e40dfadb" class="cls-4" d="M336.17,333.36v2"/></g></g><g id="xtick_22" data-name="xtick 22"><g id="line2d_22" data-name="line2d 22"><path id="ma8e40dfadb-16" data-name="ma8e40dfadb" class="cls-4" d="M352.63,333.36v2"/></g></g><g id="xtick_23" data-name="xtick 23"><g id="line2d_23" data-name="line2d 23"><path id="ma8e40dfadb-17" data-name="ma8e40dfadb" class="cls-4" d="M369.09,333.36v2"/></g></g><g id="xtick_24" data-name="xtick 24"><g id="line2d_24" data-name="line2d 24"><path id="ma8e40dfadb-18" data-name="ma8e40dfadb" class="cls-4" d="M402,333.36v2"/></g></g><g id="xtick_25" data-name="xtick 25"><g id="line2d_25" data-name="line2d 25"><path id="ma8e40dfadb-19" data-name="ma8e40dfadb" class="cls-4" d="M418.47,333.36v2"/></g></g><g id="text_7" data-name="text 7"><path id="DejaVuSans-32-2" data-name="DejaVuSans-32" d="M194,358.26h3.1V359h-4.17v-.75l1.38-1.4c.58-.59.95-1,1.09-1.14a3.92,3.92,0,0,0,.6-.81,1.47,1.47,0,0,0,.17-.65,1.07,1.07,0,0,0-.37-.85,1.36,1.36,0,0,0-1-.33,3.22,3.22,0,0,0-.89.14,6.74,6.74,0,0,0-1,.44v-.89a6.21,6.21,0,0,1,1-.33,3.89,3.89,0,0,1,.85-.11,2.42,2.42,0,0,1,1.62.51,1.68,1.68,0,0,1,.61,1.36,2,2,0,0,1-.15.77,3.73,3.73,0,0,1-.55.85c-.08.09-.31.34-.7.74S194.71,357.54,194,358.26Z"/><path id="DejaVuSans-3b8" d="M202.15,355.89h-2.8a4.62,4.62,0,0,0,.37,1.87,1.11,1.11,0,0,0,2.06,0A4.6,4.6,0,0,0,202.15,355.89Zm0-.75a5.47,5.47,0,0,0-.36-1.68,1.15,1.15,0,0,0-1-.7,1.12,1.12,0,0,0-1,.69,4.93,4.93,0,0,0-.36,1.69Zm-1.39-3a1.87,1.87,0,0,1,1.66.93,5.83,5.83,0,0,1,0,5.15,1.94,1.94,0,0,1-3.31,0,5.74,5.74,0,0,1,0-5.15A1.86,1.86,0,0,1,200.75,352.1Z"/><path id="DejaVuSans-20" d="M203.5,359"/><path id="DejaVuSans-28" d="M209.15,352.18a9.06,9.06,0,0,0-.87,2,7.24,7.24,0,0,0-.29,2,7.34,7.34,0,0,0,.29,2,9.34,9.34,0,0,0,.87,2h-.7a8.75,8.75,0,0,1-1-2,6.32,6.32,0,0,1-.33-2,6.56,6.56,0,0,1,.32-2,9.23,9.23,0,0,1,1-2Z"/><path id="DejaVuSans-64" d="M214,354.84v-2.67h.81V359H214v-.74a1.7,1.7,0,0,1-.64.66,2,2,0,0,1-.94.21,1.79,1.79,0,0,1-1.45-.71,3.42,3.42,0,0,1,0-3.75,1.79,1.79,0,0,1,1.45-.71,1.84,1.84,0,0,1,.94.22A1.6,1.6,0,0,1,214,354.84Zm-2.75,1.71a2.36,2.36,0,0,0,.36,1.4,1.19,1.19,0,0,0,1,.51,1.17,1.17,0,0,0,1-.51,2.81,2.81,0,0,0,0-2.79,1.17,1.17,0,0,0-1-.51,1.19,1.19,0,0,0-1,.51A2.34,2.34,0,0,0,211.21,356.55Z"/><path id="DejaVuSans-65" d="M220.65,356.35v.39h-3.72a1.87,1.87,0,0,0,.5,1.28,1.74,1.74,0,0,0,1.26.43,3.36,3.36,0,0,0,.9-.11,4.47,4.47,0,0,0,.87-.34v.76a4.83,4.83,0,0,1-.89.28,4.2,4.2,0,0,1-.93.1,2.52,2.52,0,0,1-1.87-.69,2.47,2.47,0,0,1-.69-1.85,2.7,2.7,0,0,1,.66-1.92,2.28,2.28,0,0,1,1.76-.71,2,2,0,0,1,1.57.64A2.54,2.54,0,0,1,220.65,356.35Zm-.81-.24a1.58,1.58,0,0,0-.37-1.06,1.27,1.27,0,0,0-1-.39,1.51,1.51,0,0,0-1.09.38,1.59,1.59,0,0,0-.46,1.08Z"/><path id="DejaVuSans-67" d="M225.21,356.49a2.24,2.24,0,0,0-.36-1.36,1.31,1.31,0,0,0-2,0,2.75,2.75,0,0,0,0,2.72,1.3,1.3,0,0,0,2,0A2.22,2.22,0,0,0,225.21,356.49Zm.81,1.91a2.71,2.71,0,0,1-.56,1.87,2.19,2.19,0,0,1-1.71.61,5.1,5.1,0,0,1-.8-.06,3.58,3.58,0,0,1-.73-.2v-.78a2.93,2.93,0,0,0,.7.28,2.83,2.83,0,0,0,.71.1,1.57,1.57,0,0,0,1.19-.42,1.77,1.77,0,0,0,.39-1.25v-.4a1.67,1.67,0,0,1-.64.65,2,2,0,0,1-.94.21,1.77,1.77,0,0,1-1.45-.69,3.27,3.27,0,0,1,0-3.66,1.77,1.77,0,0,1,1.45-.69,1.84,1.84,0,0,1,.94.22,1.6,1.6,0,0,1,.64.65v-.75H226Z"/><path id="DejaVuSans-72" d="M230.54,354.84a1,1,0,0,0-.3-.11,1.29,1.29,0,0,0-.35,0,1.27,1.27,0,0,0-1,.45,1.92,1.92,0,0,0-.37,1.28V359h-.81v-4.92h.81v.76a1.67,1.67,0,0,1,.66-.66,2.05,2.05,0,0,1,1-.22h.18l.22,0Z"/><path id="DejaVuSans-65-2" data-name="DejaVuSans-65" d="M235.39,356.35v.39h-3.71a1.87,1.87,0,0,0,.5,1.28,1.73,1.73,0,0,0,1.25.43,3.44,3.44,0,0,0,.91-.11,4.47,4.47,0,0,0,.87-.34v.76a4.7,4.7,0,0,1-.9.28,4.05,4.05,0,0,1-.92.1,2.52,2.52,0,0,1-1.87-.69,2.47,2.47,0,0,1-.69-1.85,2.74,2.74,0,0,1,.65-1.92,2.31,2.31,0,0,1,1.77-.71,2,2,0,0,1,1.57.64A2.53,2.53,0,0,1,235.39,356.35Zm-.8-.24a1.54,1.54,0,0,0-.38-1.06,1.24,1.24,0,0,0-1-.39,1.49,1.49,0,0,0-1.08.38,1.6,1.6,0,0,0-.47,1.08Z"/><path id="DejaVuSans-65-3" data-name="DejaVuSans-65" d="M240.93,356.35v.39h-3.72a1.93,1.93,0,0,0,.51,1.28,1.71,1.71,0,0,0,1.25.43,3.36,3.36,0,0,0,.9-.11,4,4,0,0,0,.87-.34v.76a4.83,4.83,0,0,1-.89.28,4.08,4.08,0,0,1-.93.1,2.51,2.51,0,0,1-1.86-.69,2.47,2.47,0,0,1-.69-1.85,2.74,2.74,0,0,1,.65-1.92,2.29,2.29,0,0,1,1.76-.71,2,2,0,0,1,1.57.64A2.49,2.49,0,0,1,240.93,356.35Zm-.81-.24a1.54,1.54,0,0,0-.37-1.06,1.24,1.24,0,0,0-1-.39,1.49,1.49,0,0,0-1.08.38,1.6,1.6,0,0,0-.47,1.08Z"/><path id="DejaVuSans-73" d="M245.4,354.23V355a2.7,2.7,0,0,0-.72-.26,3.16,3.16,0,0,0-.76-.09,1.78,1.78,0,0,0-.9.18.61.61,0,0,0-.3.56.54.54,0,0,0,.21.44,2.52,2.52,0,0,0,.87.3l.27.06a2.62,2.62,0,0,1,1.23.53,1.2,1.2,0,0,1,.36.93,1.29,1.29,0,0,1-.54,1.09,2.44,2.44,0,0,1-1.49.4,4.85,4.85,0,0,1-.83-.08,7,7,0,0,1-.9-.23V358a4.88,4.88,0,0,0,.88.35,3.69,3.69,0,0,0,.86.11,1.64,1.64,0,0,0,.88-.19.62.62,0,0,0,.31-.56.64.64,0,0,0-.22-.5,2.67,2.67,0,0,0-1-.34l-.28-.06a2.18,2.18,0,0,1-1.08-.49,1.18,1.18,0,0,1-.34-.9,1.27,1.27,0,0,1,.5-1.07,2.23,2.23,0,0,1,1.39-.38,4.64,4.64,0,0,1,.85.07A4.11,4.11,0,0,1,245.4,354.23Z"/><path id="DejaVuSans-29" d="M246.82,352.18h.7a9.23,9.23,0,0,1,1,2,6.11,6.11,0,0,1,0,4,9.23,9.23,0,0,1-1,2h-.7a8.86,8.86,0,0,0,.87-2,7.34,7.34,0,0,0,.29-2,7.24,7.24,0,0,0-.29-2A9.06,9.06,0,0,0,246.82,352.18Z"/></g></g><g id="matplotlib.axis_2" data-name="matplotlib.axis 2"><g id="text_8" data-name="text 8"><path id="DejaVuSans-49" d="M7.48,189v-.88H14V189Z"/><path id="DejaVuSans-6e" d="M11.07,182.27h3v.81H11.09a1.68,1.68,0,0,0-1,.27,1,1,0,0,0-.35.82,1.31,1.31,0,0,0,.42,1,1.6,1.6,0,0,0,1.14.38H14v.81H9.12v-.81h.76a1.94,1.94,0,0,1-.66-.68A1.8,1.8,0,0,1,9,184a1.56,1.56,0,0,1,.52-1.28A2.39,2.39,0,0,1,11.07,182.27Z"/><path id="DejaVuSans-74" d="M7.72,179.86h1.4v-1.67h.63v1.67h2.67a1.26,1.26,0,0,0,.77-.16,1,1,0,0,0,.17-.68v-.83H14V179a1.87,1.87,0,0,1-.35,1.3,1.8,1.8,0,0,1-1.27.35H9.75v.6H9.12v-.6H7.72Z"/><path id="DejaVuSans-65-4" data-name="DejaVuSans-65" d="M11.38,172.92h.39v3.72a1.87,1.87,0,0,0,1.27-.5,1.74,1.74,0,0,0,.44-1.26,3.82,3.82,0,0,0-.11-.9,4,4,0,0,0-.35-.87h.77a5.73,5.73,0,0,1,.28.89,4.9,4.9,0,0,1,.1.93,2.38,2.38,0,0,1-2.54,2.55,2.69,2.69,0,0,1-1.92-.65A2.28,2.28,0,0,1,9,175.07a2,2,0,0,1,.64-1.57A2.46,2.46,0,0,1,11.38,172.92Zm-.24.81a1.52,1.52,0,0,0-1.06.37,1.25,1.25,0,0,0-.4,1,1.49,1.49,0,0,0,.39,1.08,1.59,1.59,0,0,0,1.07.47Z"/><path id="DejaVuSans-6e-2" data-name="DejaVuSans-6e" d="M11.07,167.5h3v.81H11.09a1.68,1.68,0,0,0-1,.27,1,1,0,0,0-.35.82,1.31,1.31,0,0,0,.42,1,1.6,1.6,0,0,0,1.14.38H14v.81H9.12v-.81h.76a1.94,1.94,0,0,1-.66-.68,1.8,1.8,0,0,1-.22-.91,1.56,1.56,0,0,1,.52-1.28A2.39,2.39,0,0,1,11.07,167.5Z"/><path id="DejaVuSans-73-2" data-name="DejaVuSans-73" d="M9.26,162.75H10a3,3,0,0,0-.35,1.48,1.78,1.78,0,0,0,.18.9.61.61,0,0,0,.55.3.51.51,0,0,0,.44-.21,2.56,2.56,0,0,0,.31-.87l.06-.28a2.63,2.63,0,0,1,.52-1.22,1.24,1.24,0,0,1,.94-.36,1.29,1.29,0,0,1,1.09.54,2.51,2.51,0,0,1,.4,1.49,4.85,4.85,0,0,1-.08.83,7.46,7.46,0,0,1-.23.9H13a3.75,3.75,0,0,0,.35-.88,3.26,3.26,0,0,0,.12-.87,1.6,1.6,0,0,0-.2-.87.61.61,0,0,0-.55-.31.58.58,0,0,0-.5.22,2.68,2.68,0,0,0-.34,1l-.07.29a2.09,2.09,0,0,1-.48,1.08,1.22,1.22,0,0,1-.9.33,1.26,1.26,0,0,1-1.07-.49,2.2,2.2,0,0,1-.38-1.4,5.73,5.73,0,0,1,.06-.84A3.89,3.89,0,0,1,9.26,162.75Z"/><path id="DejaVuSans-69" d="M9.12,161.2v-.81H14v.81Zm-1.92,0v-.81h1v.81Z"/><path id="DejaVuSans-74-2" data-name="DejaVuSans-74" d="M7.72,157.9h1.4v-1.66h.63v1.66h2.67a1.2,1.2,0,0,0,.77-.16,1,1,0,0,0,.17-.68v-.82H14v.82a1.87,1.87,0,0,1-.35,1.3,1.8,1.8,0,0,1-1.27.35H9.75v.6H9.12v-.6H7.72Z"/><path id="DejaVuSans-79" d="M14.5,153.12a2.92,2.92,0,0,1,1.14.67,1.33,1.33,0,0,1,.27.87v.65h-.68v-.48a.78.78,0,0,0-.15-.51,2,2,0,0,0-.75-.41l-.37-.15-4.84,2v-.86L13,153.36l-3.85-1.54V151Z"/></g></g><g id="line2d_32" data-name="line2d 32"><g class="cls-5"><path class="cls-6" d="M23.45,261.6l.57.61.58,4.25.57,2.43.57.6.57,1.22.57,3,.57,1.22.58,1.82L28.6,278l.57,1.82.57.61,1.15,2.42.57,1.83,1.14,1.21.57,1.21,2.29,2.43.57,1.21L37.18,292h.57l1.71,1.82H40l2.85,3h.58l.57.61h1.14l1.15,1.21h.57l.57.61H48l.57.61h1.15l.57.6h1.14l1.15,1.22h1.14l.57.6h1.14l.58.61h1.71l1.15,1.21h1.14l.57.61h1.15l.57.61.57-.61.57.61h3.43l.57.6h1.15l.57.61h.57l.57-.61,1.15,1.22h.57l.57-.61h2.29l.57.61h4l.57-.61h.58l.57-.61H83.5l1.14-1.21h.57l1.72-1.82.57-1.21,1.14-1.22.57-1.21.58-.61,2.28-4.85L93.79,292h.57l.57-.61h1.15l.57.61h1.14l1.72,1.82h.57l.57.6h1.14l1.72,1.82h.57l.57.61h1.72l.57.61h.57l.57,1.21h2.29l.57.61h1.15l.57.61h2.86l.57.6.57-.6h.57l.58.6H119l.57.61h1.15l.57.61.57-.61.57.61.57-.61h.57l.58.61h9.15l.57.6h4.57l.57.61.58-.61h1.14l.57.61h.57l.58-.61.57.61h.57l1.14,1.21.58-.61h.57l1.14,1.22h2.29l.57.61h.57l.57.6h1.15l1.14,1.22h.57l.57.6h1.15l.57.61h1.14l1.15,1.21H159l.57.61h1.15l.57.61h.57l.57.6h1.14l.58,1.22h1.71l.57.6H167l.57.61h1.71l.57,1.22h.58l.57-.61.57.61h.57l.57.6h5.15l.57.61h2.86l.57-.61.58.61.57-.61h2.28l.58-.6h.57l2.86-3,.57-1.21.57-.61.57-1.21.57-.61.58-1.82,2.86-6.07,1.14-3.64,1.72-3.64.57-.61,1.14-2.42,1.14-1.22h1.15l.57-.61h1.14l.58.61h1.14l1.71,1.82h1.15l.57.61h.57l.57.61.58,1.21H211l5.14,5.46h.58l1.14,1.22h.57l.57.6h.58l.57,1.22h.57l1.14,1.21h.57l1.15,1.21h.57l.57.61h1.15l.57.61H227l.57.6h.57l.58.61h.57l1.14,1.21h1.14l.58.61h.57l.57.61h1.14l.58.6h1.14l.57.61h1.14l.58.61h1.14l.57,1.21h2.29l.57.61h1.14l.58.6h.57l.57.61h2.29l.57.61h.57l.57.61h.58l.57.6h2.28l.58.61h1.71l.57.61h1.15l.57.6h.57l.57.61h1.15l.57.61h2.29l.57.6.57-.6,1.14,1.21h1.15l.57.61h4.57l.58.6h2.28l.57.61h4.58l1.14,1.21h3.43l.58.61h5.71l.58.61.57-.61h1.14l.57.61h5.72l.57.6h2.29l.57-.6h1.15l.57.6.57-.6h.57l.57.6h1.72l.57-.6h7.44l.57-.61h.57l.57.61H318l.58-.61h2.85l.58-.61.57.61h.57l.57-.61h.57l.58-.6h.57l.57-.61h4l.57-.61.58.61.57-.61h5.14l.58.61h1.14l.57-.61h.57l.58.61h22.3l.57-.61h.57l.57-.6h1.15l.57-1.22.57,1.22.57-1.22.57-.6h.58l2.28-2.43,1.72-3.64.57-.61,1.14-2.43.58-.6.57-1.22.57-.6.57-1.22,1.15-1.21h1.71l.57-.61h1.15l.57.61H382l2.86,3,.57,1.22.57.6.58,1.22.57.6,1.14,2.43.57.61.57,1.21.58.61.57,1.21,1.71,1.82.58,1.22h.57l.57.6h1.14l.57.61h.58l.57,1.21h.57l.57.61h2.86l.57.61h2.86l.57.6h3.44l.57-.6h.57l.57.6.57-.6.57.6h15.51"/></g></g><g id="line2d_33" data-name="line2d 33"><g class="cls-5"><path class="cls-7" d="M30,251.74h1.2l1.2.76,1.21,3.79,1.2.76H36l4.8,3h2.4l1.2-.76,2.4-3,1.2-.75L49.2,254l1.2-.76,1.2-4.55h1.2l1.2-4.55,1.2-9.86,1.2-3.79,1.2-8.35,1.2-13.65,1.2-22,1.2-10.62,1.2-12.13,1.2.75,1.2,3,2.4,9.1,1.2,19.72,1.2,23.52,1.2,9.86L72,241.12l1.2,8.35,1.2,3.79,1.2.76,1.2,7.58,2.4,3,1.2,2.27,1.2.76,1.2,1.52L84,270h3.6l1.2,1.52,1.2.75h6l1.2,1.52h3.6L102,273h2.4l1.2-.76h1.2l1.2,1.52,2.4-1.52h4.8l1.2-.75h1.2L120,270h1.2l1.2-.76,1.2-2.28,1.2-1.51H126l1.2-1.52,1.2-.76,1.2-3.79,1.2-3,1.2-3.79,1.2-.76h1.2l1.2-6.06,1.2-5.31,1.2-.76h2.41l1.2,3,1.2,5.31,1.2,1.52,1.2,9.1,1.2,4.55,1.2,2.28,1.2,3.79,1.2,2.28,3.6,2.27,1.2-.76H156l1.2.76,1.2,1.52h1.2l1.2.76,1.2-.76h1.2l1.2.76h1.2l1.2.76L168,276h2.4l1.2-.76,3.6,2.27,1.2-.75h1.2l1.2.75h2.4l1.2-2.27,1.2-1.52,1.2.76,1.2,2.28,1.2.75H198l1.2.76h1.2l1.2-.76h1.2l1.2-.75h3.6l2.4-3,1.2-3.79,1.2-3,1.2-3.79,1.2-8.34,2.4-4.55h1.2l1.2.76,1.2,2.27,1.2,1.52,1.2,2.27,1.2.76,1.2,3.79,1.2,1.52,1.2,2.28,1.2-.76h1.2l1.2,1.52,1.2.75,1.2,1.52,2.4-1.52h1.2l2.4-1.51,1.2-1.52,1.2.76h1.2l1.2.76H246l1.21.76h1.2l1.2,1.51,1.2.76H252l1.2.76,1.2,1.52,1.2.76h1.2l1.2.75h3.6l2.4,1.52h2.4l1.2.76h1.2l1.2-.76h3.6l1.2.76h3.6l1.2-.76h1.2l2.4-1.52h2.4l2.4-1.51,1.2.76h3.6l1.2-.76,1.2,1.51h1.2l1.2,1.52h1.2l1.2.76h3.6l1.2.76H306l1.2,2.27h2.4l1.2-.75H312l1.2-.76,1.2,2.27,1.2.76h1.2l1.2.76h3.6l1.2.76H324l1.2-1.52h1.2l1.2,1.52h1.2l1.2-.76h1.2l1.2.76h1.2l1.2.76H336l1.2-.76,2.4,1.52h7.2l1.2.75h1.2l1.2-.75h2.4l1.21.75h13.2l1.2.76,1.2-1.51h1.2l2.4,1.51,1.2-.76h2.4l1.2-.75h2.4l1.2-.76,1.2-2.28,1.2-1.52,1.2-2.27,1.2-5.31,2.4-3H390l1.2-.75h1.2l1.2.75,1.2,2.28,3.6,2.28,1.2,3,1.2,2.28,2.4,3h1.2l4.8,3,1.2-.75h1.2l1.2.75h2.4l1.2.76,1.2-.76h1.2l1.2.76h4.8l1.84,1.17h0"/></g></g><g id="line2d_34" data-name="line2d 34"><g class="cls-5"><path class="cls-8" d="M23.46,163.55h.17l.18-10.22.34,7.82.18,10.24.17-11.94L24.67,171l.17-5,.18,9.14.17-5,.17,2.37.18-6.56.17,6.1.17-4.9.35,4.19.17.46.17-8.83.18,13.23.17.61.17-4.29.18,1.34.17,3,.34-10.48L28,176.8h.34l.18-9,.17,9h.17l.17-4.13.18,4.13.17-2.56.17,2.56.18-1.56.17,1.56h.34l.18-6.3.17,6.3.17-8,.18,8,.17-4.92.52,4.92.17-8.14.35,8.14h.17l.35-6.6.17,6.6.17-1.18.17-6.66.18,7.84h.17l.17-2.06.18,2.06.17-7.65.17,4.51.17-3.27.18,6.41h.17l.17-2,.18,2h.17l.17-5.92.18,5.92.17-6.69.17,6.69.17-.5.18-5.29.17,5.79.17-4.24.18,4.24H37l.34-5.4.18,4.07.17-4.25.17,1.56.18,4,.17-8.15.34,8.15.18-11.74.34,9.83.18-11.8.17,6.45.17-6.18.18,13.44.17-8.25.17,1,.17,5.85.18-7.54.17,2.37.17-5.36.18.58.34,8.75.17-16.2.18,15.7.17-.81L42,173l.52-13.84.17,17.35.18-10.63.17-3,.17,8.12.18-8,.17.8.17,8.36.17-6.58.18,1.77.17-5.5.17,9.35.35-15,.17,5.17.35,1.31.17.84.17-4.13.18,10.17.17-18.6.17,10.86.18-11.61.34,12,.17-5.36.18-.28.34-6.56.18,12.24.17-8.88.17,2.05.17-3.32.18.92.17-.37.35-4.46.17,2,.17-5.59.35,5.52.17,4.88.17-2.54.35-13,.17,19,.18-18.92.17,13.09.17,3,.17-9.29.18,2.79.17-4.71.17,1.28.18,8.46.17-10.82.17-3.36.17,5.82.18-13.48L52.51,151l.35-15.15.17,5.3.17-3.27.18,7.06.17-6,.17,6.64L53.89,134l.18,17.42.17-22.71.17,15.58.18-3.67.17,2.43.17-9.54.17,1,.18,8.72.34-10.2.18,3.69.17,9.71.17-13.74.17,14.11.18-25.89L56.66,143l.17-13.65L57,141.15l.17-15.21.17,5.47.18-2.15.17,12.21.17-13.2.17,13,.35-19.18.17,15.4.18-6.23.17,4.81.17-3.06.17-.61.18-3.53.17-.82.17,5.89L60,123.12l.17,1.92.17-12.38.17,20,.18-13.92.17,15.64L61,113.33,61.16,130l.17-1.85.17-8.7.17,4.25.18-4.67.17,9,.17-3.25L62.37,113l.17,14.42.17-13.14.18,14.27.17-10.43.17.21.17,17.35.18-17.13.34,2.08.18,3.67.17-5.42.17-.74.17,6.44.18-12.39L65,132.92l.17-19,.35,10.6.17-10.41.17,14,.18-7.29.17-1.07.17,7.32.18-7.35.17.22.17.67L67,117.4l.17,6,.17-10.35.17,15.69.18-18.26.17,20.2.35-9.79.17,7.5.17-11.23.17,9.22.18-6.6.17,23.84.17-22,.18,9.59.17-5.15.17,6.08L70,123l.18,7.09.17-5.64.17,10.06.18.08.17,1L71,120.16l.18,17.14.17-3.17.17,2.07.17-6.27.18,8.93.17-6.53.17-.24.18,15.69.17-12.91.17-1.13.17,2.85.18,12.26.17-18.68.17,15.88.18-6.71.17-.36L74,144.3l.17-14,.18,25.76L74.47,134l.17,12.79.18-8.47L75,149.14l.35-7.28.17,2.65.17-1,.17,5.26.18-8.66.17,7.54.17-2.49.18,4.3.17.49.17-6.11.17.06.18,9.25.17-2.91.17-7.78.18,5.32.17,1.21.17,9,.17-12.14.18,10.23.17-4.24.17,1.2.18-4.21L79.14,161l.17-9.23.17,0,.18-1.44.17,10.74.17-3.53.18-8.41.17,4.46.17-6.18.35,11.83.17-4.52.17-.94.18,6.6.17-5.86.17,1,.18-3.16.17,2,.17,8.65.17-7.82.18-2.46.17,6.26.17-.83.18-3.24.17,5.1.17-1.29.17.14.18-9.66L84,163l.17-3.07.18-5.16.17,2.8.17,8.09.18-2.64.17.47.17-2.79.17-.3.18-3.19.17,1.32.17-3,.18-.65.17,8.84.17,3.12.17-7.56.18,2.31.17.63.17-2.4.18,1.47.17-7.14.17,8.9.17-7.1.18,1.25.17,6.71.17-10.24.18,6,.17,11.43.17-20.39.52,15.92.17-11.26.35,5.48.35-6.72.17,2.87.17-2.19.17,3.4.35,1.9.17-.09.18.16.17-2.17.17,6.19.17-8.21.35,1.83.17-6.76.35,11.47.17-9.94.18,7.47.17-5.79.17,6.67.17-3.26.18,1.79.17-6.87.17.83.18,3.46.17,6,.17-12.45.17,9.89.18-6.1.17-.65.17,9.1.18-9.4.34,5.9.17-2.56.18-7,.17,10.45.17-7.42L97,163.11l.17-12.41.18-2.53.17,6.59.17-.78.17-1.55L98,156l.34-1.22.18-.6.17-6.12.17,10.06.17-9.3.18,9.13.17-9.69.17,8.84.69-7.67.35,7.19.17-12.81.18,9.46.17,1,.34-7.46.18,1.67.17-1,.17,0,.18,6.1.34-10.84.18,10.68.17-5.6.17-1.27.17,2.62.18-3.1.17-6,.17,3,.18,11.17.34-11.43.17,3.13.18-.49.17,8.76.35-14.43.17,1.84.17,4.08.17-2.09.18-.64.17-1.86.17.47.18-.85.17,2.74.35-5.86L107,142l.17-.62.17-2.83.18,3.41.17-8.3.17,7.56.18-7.66.17,2.5.17,5.19.17-9.64.18,5.53.17-2.55.17,9.71.18-13.87.17,2.38.17-5.68.17,11.41.18,1.53.17-8.47.17-1,.18,5,.17-8.62.17,7.11.35-9.34.17,12.41.17-6.81.18,1.89.17-.38.17.15.18,3.5.17-10.4.17,11.19.35-15.1L113,135.4l.17-8,.18-1.89.17,2,.17-5.34.17,1.51.18,9.49.34-15.06.18,7.25.17,1.69.17-2.75.18-10.59.17,11.17.17-.91.17-6,.18.82.17-.93.52-5,.17,6,.17,1.34L117,109.8l.34,10.16.18-9.54.17,3.31.17-.12.17-12.75.18,8.53.34,3.3.18-7.22.17,13.36.17-10.15.35-5.73.17,6.54.17-4.12.18,1.54.17-13.1.35,19.9.17-2.42.17-21.57.17,23.17.18-14.75.34,5.32.35-3.14.17,3.61.17-1.09.18-2.34.17-.75.17-4,.18,5.35.34-10.53.17,10.63.18-2.62.34-14,.35,17.7.17-3.35.35-16.28L125,96.36l.17-2.34h.18l.17-11.14.35,15.57L126.17,84l.17-4.77.18,4.21.17,11,.17-2L127,78.11l.34,11,.17-6.22.18,1.43.17-5,.17,4,.18-3.74.17-6.34.35,15.75.34-16.12.35,8,.17-1.43.17-16.11.35,19.58.17-3.74.17-13.46.18,13.23.17,1.73.17.61.18-6.33.17,3,.52-6.85.17-1.33.17,4.34.18-5.55.17-9.48.17,15.37.18,2.35.34-20,.17,7.73.18,1.55.17-1.73.35,3.85.17-1,.17-5.36.17,4.08L135,54.31l.35,13,.17-12.74.17-2.13L136,70.58l.52-14.67.17,1.09.17-.4.18,8.13.17-6.2.17,1.42.17-7.25.18,7.44.17.76.17-1.12.18-7.35.17,13.29L138.62,54l.17-2.56.18-5.06.17,8.71.17.77.18-.15.34-1.75.17.9.18-1.59.34,4,.18-.27.17-2.35.17,1.08.35.15.17-1.39.17,3.21.18-4.61.17-1.63.17,4.7.18-3.12.34.89.17,5.87.18-2.28.17-4.37.17.12.18,7,.17.12.34-9.85.18,2.87.17,15.14.17,1.07.18-5.94L145,47.87l.17,6.07.17,23.81.18-16.47.17,5,.17-14.22.18,9.69.17-4.57.17,12.07.18-6.54.17-1.5.17,2.35.17.37.18,6.84.17-9.62.17,11.7.18-8.12.17-1.5.17,9.93.35,1.59.17-16.4.17,10.7.18-.53.17,10.53.17-2.18.35-13.23.17,9.71.17-2.66.18-.15.17,1.32.17-1.52.18,6.39.17-3.27.17-.29.17,7.61.18-7.29.17,5.32.17-5.33.18,8,.17-4.15.34,5.87.18-7.09.17,7,.17.41.18-7.31.17,7.91.17-.5.17-2.3.18,3.15.17-3.42.17,5,.18-.75.17,1.24.17-2.5.18,4.29.17-4.73.17.7.35,9.14.17.44.17-5.93.35,5.44.17-5.49.17,5.93.18-.51.17-1.14.17-6.88.18,2.25.17,12.63.17-8.74.17-.66.35,2.65.17.34.18-2.38.17,4.61.17,1.11.17-6.5.18,6.81.52-7.11.34,16,.35-13.1.17,7.64.17-7.62.18,2.7.17.25.17-4.26.18,1.25.17,9.35.17-.47L162,90.36l.18,7.78.17,1.24.17-4.84.18-.83.34,4,.17.58.18,1.93.17-2.42.17,1.64.18-3,.17,9.9.17-4.45.18-8,.17-.21.34,10.28.18-.36.34-6.78.18-2.9.17,6.55.17-4.81.17,15.92.18-19.62.17,13.33.17-7.19.18,1.85.17.38.17-8.82.17,14.27.18.13.17-1,.17-7.77.18.55.17,1,.17,7.71.18-5,.17-1.31.17,1.2.17-9.36.18,10.33.34,6.13.35-6.61.17-5.85.35,11.18.34-11.55.18,8.12.34-8.77.52,15.62.17-10.06.18-3.12.17,4,.17-.39.35-2.87.34,4.34.18-3.36.34,9.88.18-5.93.17,2,.17,3.36.17-3.18.18-6,.34,6.6.18.43.17,2.23.17-4,.17-8.52.18,5.76.17-.52.17,6.77.18-11.53.17,10.54.17-3.9.17,3.57.18-.74.17-4.8.17,4.26.18-8,.17,14.2.17-1.79.18.49L178.22,99l.17-.66.17,1.9.18,7.8.17,2.23.17-1.72.35-12.16.17,4.3.17,12.56.18-1.62.17-8.2.17,4.3.18-1.31.17,1.61.34-5.47.18,1.83.17-7.22.17,14.07.18-2.93.17.83L182,108l.18-9,.17,9.85.17-.27.17,1,.18-6,.17,3.75.17-6.21.18,5.92.17,1.22.17.1.17-3.18.18,2.62.17-7.18.17,13.28.35-17.8.17,8.38.17.55.18,13,.17-10.7.17,3.16.18-5.24.34,8.92.18-9.09.17,2.36.17-1.68.17.59L187,108l.34,5.65.18-5.35.17.11.17-.54.35,3.84.17-5.89.17-1,.18,4.41.17,7.67.17-5.78.17-.45.18-2.92.17-.51.17,6.07.18-7.17.52,11.37.34-15.11.69,17.92.18-13,.17,4.76.17-3.1.17,3.45.18-1,.17,1.06.17,3.08.18-1,.17.31.17-5.23.17,0,.18,1,.17,3.55L194,110l.18,3.35.17-.66.17-1.33.18,1.5.17-4.17.17,4.66.17-.38.18,2.13.17-4.25.17,4.29.18,1.28.17,3.83.17-11.16.17,8,.18-12.79.52,16.39.17-4.46.17-7.41.17.94.18,4.09.17.83.17,3.53.18-3.54.17,3.32.17-5.39.17,3.06.18-.28.17-5.26.17,6.28.18-4.21.17,9.54.35-10.63.17-4.18.17,12.31.17-2.85.18,4.7L201,109.4l.18,9,.17-9.19.17,13.12.17-5.15.18.12.17-5,.17,2.14.18-.9.17,6.76.17-4.3.17,3.48.18-7.74.17-1.84.35,8.1.17-.92.17,3,.52-4.14.35,3.15L205,115l.17,1.24.18,3.06.17-3.78.17,1.75.17-3.29.18,1.45.17,5.6.17-5.77.18,5.69.17-4.4.34,2.57.18-3.55.17.55.17-1.4.18,2.75.17,5,.17-3.47.18.45.17-4.85.17-1.49.17-3.14.52,14.72.69-14.33.18,10.79.17-3.83.17,5.14.35-17.11.34,12.91.18.52.34-8.85.18,5.84.17.34.17,3.9.18-9.52.34-3,.17,4,.18-3.1.17,5.12.17-5.43.18,2.27.34-6.69.17,6.88.18-5.1.17,2.43.17-3.62.18-6.49.17-2,.17-4.24.17,10.59.18-6.12.17,1.26.17-11.64.18.31.34,9.61.35-15.23.17,2,.17-8.29.18,13,.17-6.23.35-.44.34-5.52.17-2.06.18,2,.34-1.79.18,4,.34-6.19.17,2.38.18,0,.17-3.35.17.51.18-4,.17,5.58.34,1.43.18.78.17-.38.35-1.68.34,4,.52,5.65.17.16.18-.47.34,1.39.18,3.3.17-.16.17-1,.17-2.39.18,5.67.17-.67.17-4.11.18,1.06.17-2,.17,10.84.17-6.71.18,6.56.17-7.34.35,8,.17.51.17-2,.18,5.93.17-3.17.17-6.06.17,8.25.18-10.61.17,14,.17-4.29.18-8.46.17,16.6.17-10.42L228,108l.17-14.93.17,14.42.18-7.82.17,3,.17.91.17-3.82.35,4.65.17-4.79.18,9.33.17,1.23.17-7.1.18-2.15.17,4,.17,7,.17-6.79.18,2,.34,5,.18-.51.34-14.25.35,13.77.34,5,.35-8.42.17.61.17,5.6.18-.12.17-1.82.17,5.76.18-13,.17,7.62.17-2.82.17-.57.35,5.75.17-6.07.18,2,.17.42.17,2,.18-1.53.17,2.81.17-4.16.17,2.28.18-4,.17,8.28.17-3.94.18,3.07.17,1,.17-7,.17,7.93.18-12.93.17,3.25.17,10.19.18-9.76.17,7.85.17-.26.17-1.53.18,1.12.34-10.88.18,4.25.34-.66.35,8.07.17-3.09.17,4.47.18.77.17-10.73.17-3.72.35,3,.17,8.4.35-6,.17,0,.17,1.36.18-5.49.17,10,.17-2.56.17-6.19.18,8.3.17-6.24.52,3.82.17-3.41.18,3.41.17-7.35.17-.11.17,10.56.18-9.13.17,10.37.17-.34.18-9.07.17,8.43.17-8.27.17-1.59.18,4.43.17-1.22.17-4.46.18,13.47.17-8.46.17,2.8.17,4.62.18-5,.17-.18.17,1.24.18-3.8.17-.38.35,7.15.17-6.35.17,5.81.35-7.95.17,2.43.17-8.24.18,11.44.17,3,.17-.51.17,1,.18-.41.17,0,.17-4.27.18,1.34.17-2.8.34,6.25.18-2,.17,3.51.17-1.33.18-4.44.17,5.71.34-4.72.35,6.85.17-5.74.18,5.16.17-2.08.17-3.64.18,2.93.17-7.14.17,2.5.17,4.68.18-1.08.17,9.93.17-7.75.18,7,.17-7.83.17,1.26.17,5.31.18-8,.17.55.17,5.33.18-5.1.17,4.14.17-2.27.17-4.83.18,8.67.17.13.17-3.2.18,6.2.17-5.62.17,3.72.35-2.77.17-4.17.17,2.53.18,6.14.17-6.54.17,10.84.18-5,.17-.74.17,1.35.17-8,.18,2.94.17-.07.17,1.81.18,8,.34-10.69.17,4.9.18-.78.34,5.78.18-5.38.17.42.17-6,.18,6.66.17-.95.17,1.44.17,5.67.18-4.32.17,2.74.17-6.3.35,5.11.17-5.36.87,7.44.17-5.5.17-.09.17,2.12.18.18L265,127l.35,1.16.17-1.09.17.85.18.18.17,1.07.17-4.93.35,4.47.17-1.42.17,5.11.18-2.56.17,4.28.17-5.23.17-1.23.18,5.42.34-6.08.18-1,.17,3.92.17-.4.17,5.08.18-4.77.17,3.69.35-10.12.17,7.71.17-.64.18-1.93.17,5.49.17-3.37.17,1.5.18-2.34.17,0,.17-.36.18-3.25.17,1.72h.17l.17,1.48.18,5.49.17-5.44.17,3.09.18-3.37.17.39.17,2.14.17-4.51.35,3.31.17,3.48.18-3.16.17-.59.17,1.88.17-.65.18-5.22.34,7.34.18-9,.34,8.21.18-5.35.17,5.17.17-4.93.35,5.26.17-6.53.17,5.34.18-.5.17-9.75.17,13.1.17-7.67.18.63.17,4,.17.71.18-5.83.17,8.81.17-8.11.17,1.69.18,5.65.17-4.53.17.42.18,2,.17-6.78.17-1.74.35,2,.17,4.18.35,0,.17,2.87.17-3.7.18,2.67.17.75.17-10.37.17,4.68.18-4.4.17,8,.17-1.68.18,4.38.17,0,.34-8.63.18,1.12.34-3.92.18,7.26.34-3.55.18,6.7.17,1.13.17-8.64.17,2.62.18.84.17-10,.17,15,.18-8.65.17-.76.34,5,.18-6.19.17,4.11.17-1.27.18-4.91.17,6.17.17.27.17-5,.18,5.61.52-7.24.17,5.11.17-6.52.18,8.58.17-3.39.17,5.14.35-5.47.17.08.17,1.62.18-7.33.17,2.72.17-.84.17,4.17.18.71.17,2.81.35-7.63.17.45.17-2.86.17,5.49.18-3.8.17,3.67.17-1.39.18,4.72.17-.18.17-3.17.17-.44.18,7.2.17-9.74.17-1.34.18,5.42.17-.4.17-5.21.18,6.49.17-2,.34,3.71.18-.52.17-1.1.17-6.13.18,5.37.51-2.82.18,5.34.17-5.41.17,5.11.18-4.86.17-.94.17.31.35,2.9.17-.65.17.27.18-.18.17.94.17.24.18-1.29h.17l.17.57.35-.95.34.93.18-.38.17,1.22h.17l.17.11.18-1.28.17.1.17-4.27.18,4.06.17-.25.34,4.42.18-2.67.17,6.61.17-10.51.18,3.63.17-3.48.17,4.77.18-5.6.17,10.3.17-2.79.17-.74.18-3.58.17,7.22.17-10.2.35,3.78.17,7,.17-8.16.18,5.45.17,1.26.35-3.58.17,6,.17-1.1.17-6.17.18,6.05.17-4.57.17-1.28.18,2.3.17-4,.17,3.73.18,7.14.17-3.09.17-7.12.17,8.44.35-12,.17,3.31.18,1,.17,4.47.17-.33.17,10,.18-7.67.17-2,.17,1.75.18-3.29.17.49.17,3.58.17-9.2.18,2.07.17-1,.35,8.11.17,1,.17-6.55.35,9.2.34-10.66.18,7.64.17,2,.17-5.81.18,3.81.17-2.36.17.67.17,1.84.18-.72.17-4.73.17,5,.18-3.18.17,7.55.17-2.82.17,1,.18-2.32.17-.25.17-2.06.18,7.57.17-4.34.17,2.63.17-1.71.18-5.1.17,5,.17-2.53.18,4.76.17-3.52.17,3.27.18-6.07.17,4.91.34-2.57.18,5.53.17,1.55.52-10.78.17,6.82.17-4.51.18.55.17,6.74.17-.62.18-6.29.17,8.31.17-6.33.17,6.38.18-7.27.17.31.17,2.39.18-.28.17,1.23.17,5.42.52-8.19.17,3.15L320,133l.17,4.27.17-.62.18.62.17,2.57.17.18.17-4.38.18,3.66.17-8.4.17,6.25.18-2.58.17,6.29.17-2.56.17,1.38.18-2.8.34,1.37.18.85.17-3.09.17-.05.18,3.79.17-4.56.17,2L324,136l.18,3.18.34-3.34.18,3.84.17-.93.17-1.69.17,1.63.18,3.36.17-7.16.17,3.38.18-.33.17,6.23.17-4.67.17-.49.18.34.17-.61.17-4.63.18-1.33.17,10,.17-6,.52,8.16.17-2.21.18,3.72.17-6,.17,2.67.18-7,.17-.69.17,1.84.17,5.47.18-1.88.17-3.24.17,1.83L330,145l.17-4.59.17-7.77.35,10,.17-3.5.17,3.7.18.48.51-5.52.35,4.79.17-.05.18,3.25.34-7.55.18,1.21.17,3.06.17-.29.17,3.62.18-3.48.17.67.17-3,.18,3.35.17-3.75.17,2.21.17-2.39.18,6.57.17-7.36.17.27.18,3.86.17-.94.17.44.17-1,.18,5.41.17-10.2.17,9.28.18-4.22.17.83.17-3.5.18,2.67.17-1.32.34,1.73.18.5.17,2.38.35-4.31.17.36.52,3.51.17-1.5.17.59.18-5.46.34,3.51.17,5.8.35-5.72.17,5.44.35-7.5.17.51.18-.13.17,4.35.17,1.48.17-3.54.18,2.93.52-4,.17-6.1.17,8.18.17,1.35.18.47.17-2.79.17,7.58.52-9.09.35,4.37.17-3.47.17,3.84.18.72.17,1.82.17-8.55.18-.17.17,5.15.17,1.64.17-2.32.35,5.54.35-6.81.17,3.74.17-.59.17-4.24.35,2.27.17,4.28.18-2.09.17,1.27.34-.49.18-1.38.34-6.19.18,6.24.17-4,.17-.44.18,6.24.17-1.46.17,1.06.17.12.18,1,.17,0,.35-3.13.17,1.69.17.29.17-1.73.35.71.17,1.25.18-1.77.17-.44.34,1.69.18-1.93.17,2.2.17-2.72.35,4.57.17-1.86.17,1.22.18-1.29.17,2,.17-2.84.18.07.17-.64.17-1.38.18,1.17.17,2.13.17-2.74.35,3,.17.34.35-2.33.17,4.18.17-4.41.17,1.08.18.08.17-3.62.17,4.07.18-.83.17,5,.17-7.5.35,8.09.17-6.14.17,0,.18-1.78.17,4.11.17-1.84.18-3.86.17,4.83.17-1,.17,2.46.18-6.45.17,7.61.17.51.18-4,.17,1.84.17.16.17-.82H361l.17-3.35.17,4,.18-3.44.17-1,.17,5L362,148l.18-1.41.17.56.17,3.48.18,1,.17-5.33.17,0,.18,5.16.17-2.24.17.26.17-4.59.18,4,.17-3.64.17,5.6.18-2.23.17,1.59.17-.18.17-3.42.18,1.45.17-1.1.17.94.18-3.62.17,0,.17,4.11.17,1.14.18-5.61.17,4.71.17.67.18,5.29.34-8.46.18,9.63.17-8.08.17,2.68.17-5.74.18,3.59.17-.13.17-4.46.18,8.93.17-3.94.17,1.83.17-1.74.18.64.17,2,.17-6.7.18,6.83.17-3.43.17,2.15.17.15.18-2.21.17,6,.17-1.48.18,1.13.17-7.46.17,4.74.35-5.59.34,2.67.18,5.35.17-4.2.17,3.33.18.54.34-4.65.17.25.18-.12.17,1.32.17-1.45.18-.08.17.52.17,3.38.35-7.84.34,8.9.18-3.06.34,2.41.17-1.11.35-4.76.17.94.18,4,.17-3.35.17,1.44.18-1.13.34,3.58.17,2.56.18-4.86.17.8.17-2.24.18,1.49.17-3.48.17-1.18.17,5.31.18-.56.17-1.07.17,2.36.18.09.17.56.17-.33.17,2.69.35-6.41.17-1.1.18,4.48.17-6.38.17,1.17.18,2.4.17,4.13.17-2.6.17,3.93.18-3.8.17-1,.17.59.18-.39.17,3.63.17-4.12.17-.89.18-2.88.34,5.07.18-4.63.34,5.5.17-1,.18-3.35.17.83.17,1.8.18-.35.17-2.41.17-.5.18,1,.17-4.66.17,1.56.17-.49.18,1.06.17-1,.17-.34.18,6.5.17-6.39.17-.51.17-2.39.18.86.17,1.75.17-4.81.18-1.67.17,3.13.17-.08.17-2.68.18-4.77.17.3.17-1.09.18,3,.17-3.93.17.35.17,2.15.18,4,.34-14.49.18,1.73.17,6.37.35-6.76.17,5.55.17-2.94.17,3.46.18-5.59.17,1.15.17-6.26.18,4.81.17.37.17-7.08.17,7.48.18-.41.17,1.41.17-1.94.18-.56.17-3.73.17,4.22.17.27.18,1.4.17.31.17-.29.35,1.37.17-.78.35,1.12.17-1,.17-.09.18.91.17-.09.17.19.18.86.17.22.17.7.17-.86.18,2.77.17-1.45.17,2.06.18,0,.17-1.07.17-3.9.17,4,.18.43.17-6,.52,8.5.17-7.93.18,2.92.17-3.6.17,7.83.17.12.18-2.19.17.9.17,4.92.18-3.29.17-.2.17,2.3.17-1.59.18-.12.17,4.16.17-5.68.18,2.23.17,4.12.17.1.17-2.34.18,3.38.17-2.08.17,1.1.18,6.7.34-8.89.18,9.5.17-4.28.17.4.17,2.41.18-.95.17-7.58.17,7.7.18-1.5.17.81.17.26.17.48.35,3.51.17-3,.35,2.69.17.31.17-3.39.52,5.68.35-1.15.17-.18.17,3.69.18-5.63.17,3.73.17-.38.35,3.23.17,2.38.18-10.19.17,1.84.34,7.76.18-5.2.17-.86.17,3.11.18.88.17-1,.17,4.21.17-6.06.18.39.34,5.36.18-.84L411,157l.17-6.61.17,1,.18,5.19.17-3.07.17,1.72.18-5.61.17,5.45.17,0,.18.95.17-5.26.17,5.93.35-6.21.17,3.7.35-6.43.17,5.55.17-1.34.17,2.7.18.23.17-.69.17,2.21.35-4.88.17,4.8.17-4.34.18.25.17,5.34.17-5.51.18,2,.17-.28.17.18.35-.77.17-2.31.35,3.55.17-1.79.17-5.19.18,7.25.17-5.51.17,4.06.17-11.24h0"/></g></g><g id="patch_3" data-name="patch 3"><path class="cls-9" d="M23.41,333.36V7.2"/></g><g id="patch_4" data-name="patch 4"><path class="cls-9" d="M418.47,333.36V7.2"/></g><g id="patch_5" data-name="patch 5"><path class="cls-9" d="M23.41,333.36H418.47"/></g><g id="patch_6" data-name="patch 6"><path class="cls-9" d="M23.41,7.2H418.47"/></g><path d="M246,244.47a9.62,9.62,0,0,1,1.5-.11,2.53,2.53,0,0,1,1.71.5,1.65,1.65,0,0,1,.53,1.27,1.79,1.79,0,0,1-.47,1.3,2.51,2.51,0,0,1-1.85.66,2.92,2.92,0,0,1-.63-.05v2.43H246Zm.79,2.93a2.36,2.36,0,0,0,.64.06c.95,0,1.52-.46,1.52-1.29s-.56-1.19-1.43-1.19a3.64,3.64,0,0,0-.73.06Z"/><path d="M250.72,244.08h.79v2.72h0a1.37,1.37,0,0,1,.56-.56,1.63,1.63,0,0,1,.82-.23c.58,0,1.52.36,1.52,1.87v2.59h-.8V248c0-.7-.26-1.3-1-1.3a1.15,1.15,0,0,0-1.07.79,1.09,1.09,0,0,0-.05.38v2.63h-.79Z"/><path d="M259.66,248.26a2.13,2.13,0,0,1-2.17,2.31,2.07,2.07,0,0,1-2.09-2.24,2.13,2.13,0,0,1,2.16-2.32A2.07,2.07,0,0,1,259.66,248.26Zm-3.46,0c0,.95.55,1.68,1.32,1.68s1.33-.72,1.33-1.7c0-.74-.37-1.67-1.31-1.67S256.2,247.47,256.2,248.3Z"/><path d="M260.55,249.66a2.06,2.06,0,0,0,1,.32c.58,0,.85-.29.85-.65s-.23-.59-.81-.8c-.79-.28-1.16-.72-1.16-1.24A1.35,1.35,0,0,1,262,246a2.21,2.21,0,0,1,1.07.27l-.2.58a1.66,1.66,0,0,0-.89-.25c-.47,0-.73.27-.73.59s.26.52.83.74c.75.29,1.14.67,1.14,1.31s-.59,1.31-1.63,1.31a2.47,2.47,0,0,1-1.22-.3Z"/><path d="M264.22,247.54c0-.56,0-1,0-1.43h.71l0,.75h0a1.71,1.71,0,0,1,1.55-.85,2,2,0,0,1,1.84,2.22,2.06,2.06,0,0,1-2,2.34,1.52,1.52,0,0,1-1.34-.68h0v2.36h-.78Zm.78,1.16a1.65,1.65,0,0,0,0,.32,1.22,1.22,0,0,0,1.19.93c.83,0,1.32-.69,1.32-1.69s-.46-1.62-1.3-1.62a1.28,1.28,0,0,0-1.2,1,1.53,1.53,0,0,0-.05.32Z"/><path d="M269.34,244.08h.79v2.72h0a1.4,1.4,0,0,1,.57-.56,1.56,1.56,0,0,1,.81-.23c.58,0,1.52.36,1.52,1.87v2.59h-.79V248c0-.7-.27-1.3-1-1.3a1.13,1.13,0,0,0-1.06.79.89.89,0,0,0-.06.38v2.63h-.79Z"/><path d="M278.28,248.26a2.13,2.13,0,0,1-2.17,2.31,2.07,2.07,0,0,1-2.09-2.24,2.13,2.13,0,0,1,2.16-2.32A2.07,2.07,0,0,1,278.28,248.26Zm-3.46,0c0,.95.55,1.68,1.32,1.68s1.33-.72,1.33-1.7c0-.74-.37-1.67-1.31-1.67S274.82,247.47,274.82,248.3Z"/><path d="M279.28,247.47c0-.51,0-.95,0-1.36h.69l0,.86h0a1.29,1.29,0,0,1,1.2-1,.8.8,0,0,1,.23,0v.75a1.09,1.09,0,0,0-1.34,1,3.7,3.7,0,0,0,0,.37v2.32h-.78Z"/><path d="M283.14,244.89a.49.49,0,1,1-1,0,.48.48,0,0,1,.49-.5A.48.48,0,0,1,283.14,244.89Zm-.89,5.58v-4.36h.8v4.36Z"/><path d="M287.47,250.31a2.93,2.93,0,0,1-1.26.25,2.07,2.07,0,0,1-2.17-2.22,2.22,2.22,0,0,1,2.35-2.32,2.57,2.57,0,0,1,1.09.23l-.18.61a1.76,1.76,0,0,0-.91-.21,1.51,1.51,0,0,0-1.54,1.65,1.49,1.49,0,0,0,1.51,1.63,2.2,2.2,0,0,0,1-.22Z"/><path d="M292.71,250.47l-.06-.55h0a1.62,1.62,0,0,1-1.33.65,1.24,1.24,0,0,1-1.33-1.25c0-1.06.93-1.63,2.62-1.62v-.09a.9.9,0,0,0-1-1,2.26,2.26,0,0,0-1.14.32l-.18-.52a2.77,2.77,0,0,1,1.44-.39c1.33,0,1.65.91,1.65,1.79v1.63a6.63,6.63,0,0,0,.07,1Zm-.11-2.22c-.87,0-1.85.13-1.85,1a.7.7,0,0,0,.75.75,1.07,1.07,0,0,0,1.05-.73.74.74,0,0,0,.05-.25Z"/><path d="M297.74,250.31a2.84,2.84,0,0,1-1.25.25,2.07,2.07,0,0,1-2.17-2.22,2.22,2.22,0,0,1,2.34-2.32,2.59,2.59,0,0,1,1.1.23l-.18.61a1.8,1.8,0,0,0-.92-.21,1.51,1.51,0,0,0-1.54,1.65,1.5,1.5,0,0,0,1.52,1.63,2.24,2.24,0,0,0,1-.22Z"/><path d="M299.55,244.89a.47.47,0,0,1-.5.49.48.48,0,0,1-.48-.49.49.49,0,0,1,.5-.5A.47.47,0,0,1,299.55,244.89Zm-.88,5.58v-4.36h.79v4.36Z"/><path d="M304.54,244.08v5.27c0,.38,0,.82,0,1.12h-.72l0-.76h0a1.6,1.6,0,0,1-1.48.86,2,2,0,0,1-1.87-2.21,2.09,2.09,0,0,1,2-2.35,1.46,1.46,0,0,1,1.31.67h0v-2.6Zm-.79,3.81a1.32,1.32,0,0,0,0-.34,1.16,1.16,0,0,0-1.14-.91c-.82,0-1.31.72-1.31,1.68s.43,1.61,1.29,1.61a1.19,1.19,0,0,0,1.16-.94,1.29,1.29,0,0,0,0-.35Z"/><path d="M308.64,244.89a.47.47,0,0,1-.5.49.48.48,0,0,1-.48-.49.49.49,0,0,1,.5-.5A.47.47,0,0,1,308.64,244.89Zm-.88,5.58v-4.36h.79v4.36Z"/><path d="M309.87,247.29c0-.45,0-.82,0-1.18h.7l.05.72h0A1.6,1.6,0,0,1,312,246c.6,0,1.54.36,1.54,1.86v2.6h-.8V248c0-.7-.26-1.29-1-1.29a1.13,1.13,0,0,0-1.06.81,1.38,1.38,0,0,0,0,.37v2.62h-.79Z"/><path d="M315.78,244.86v1.25h1.13v.61h-1.13v2.35c0,.54.15.84.59.84a1.67,1.67,0,0,0,.46,0l0,.59a1.79,1.79,0,0,1-.7.11,1.13,1.13,0,0,1-.86-.33,1.65,1.65,0,0,1-.31-1.14v-2.37h-.67v-.61H315v-1Z"/><path d="M318.19,248.44a1.4,1.4,0,0,0,1.5,1.51,2.8,2.8,0,0,0,1.2-.23l.14.57a3.48,3.48,0,0,1-1.45.27,2,2,0,0,1-2.15-2.2,2.12,2.12,0,0,1,2.05-2.35,1.85,1.85,0,0,1,1.8,2.06,2.73,2.73,0,0,1,0,.37Zm2.32-.57a1.13,1.13,0,0,0-1.09-1.29,1.31,1.31,0,0,0-1.22,1.29Z"/><path d="M322.26,247.47c0-.51,0-.95,0-1.36h.7l0,.86h0a1.3,1.3,0,0,1,1.21-1,.73.73,0,0,1,.22,0v.75a1.06,1.06,0,0,0-.27,0,1.11,1.11,0,0,0-1.06,1,2,2,0,0,0,0,.37v2.32h-.78Z"/><path d="M328.22,250.31a2.92,2.92,0,0,1-1.25.25,2.07,2.07,0,0,1-2.17-2.22,2.22,2.22,0,0,1,2.34-2.32,2.62,2.62,0,0,1,1.1.23l-.18.61a1.83,1.83,0,0,0-.92-.21,1.51,1.51,0,0,0-1.54,1.65,1.49,1.49,0,0,0,1.51,1.63,2.2,2.2,0,0,0,1-.22Z"/><path d="M331.56,250.47l-.07-.55h0a1.64,1.64,0,0,1-1.34.65,1.24,1.24,0,0,1-1.33-1.25c0-1.06.94-1.63,2.62-1.62v-.09a.9.9,0,0,0-1-1,2.23,2.23,0,0,0-1.13.32l-.18-.52a2.73,2.73,0,0,1,1.43-.39c1.33,0,1.66.91,1.66,1.79v1.63a5.61,5.61,0,0,0,.07,1Zm-.12-2.22c-.86,0-1.85.13-1.85,1a.7.7,0,0,0,.75.75,1,1,0,0,0,1.1-1Z"/><path d="M333.48,244.08h.79v6.39h-.79Z"/><path d="M338,250.47l-.06-.55h0a1.62,1.62,0,0,1-1.33.65,1.24,1.24,0,0,1-1.34-1.25c0-1.06.94-1.63,2.62-1.62v-.09a.89.89,0,0,0-1-1,2.26,2.26,0,0,0-1.13.32l-.18-.52A2.73,2.73,0,0,1,337,246c1.33,0,1.66.91,1.66,1.79v1.63a6.63,6.63,0,0,0,.07,1Zm-.12-2.22c-.86,0-1.84.13-1.84,1a.69.69,0,0,0,.74.75,1,1,0,0,0,1.1-1Z"/><path d="M340.86,244.86v1.25H342v.61h-1.14v2.35c0,.54.16.84.6.84a1.72,1.72,0,0,0,.46,0l0,.59a1.76,1.76,0,0,1-.7.11,1.13,1.13,0,0,1-.86-.33,1.66,1.66,0,0,1-.3-1.14v-2.37h-.68v-.61h.68v-1Z"/><path d="M343.27,248.44a1.4,1.4,0,0,0,1.5,1.51,2.73,2.73,0,0,0,1.2-.23l.14.57a3.48,3.48,0,0,1-1.45.27,2,2,0,0,1-2.14-2.2,2.11,2.11,0,0,1,2-2.35,1.85,1.85,0,0,1,1.8,2.06,2.73,2.73,0,0,1,0,.37Zm2.33-.57a1.13,1.13,0,0,0-1.1-1.29,1.33,1.33,0,0,0-1.22,1.29Z"/><path d="M351.1,244.08v5.27c0,.38,0,.82,0,1.12h-.71l0-.76h0a1.62,1.62,0,0,1-1.49.86,2,2,0,0,1-1.86-2.21,2.09,2.09,0,0,1,2-2.35,1.44,1.44,0,0,1,1.31.67h0v-2.6Zm-.79,3.81a2,2,0,0,0,0-.34,1.17,1.17,0,0,0-1.15-.91c-.82,0-1.3.72-1.3,1.68s.43,1.61,1.29,1.61a1.19,1.19,0,0,0,1.16-.94,1.9,1.9,0,0,0,0-.35Z"/><path d="M354.35,244.4h.79v5.41h2.59v.66h-3.38Z"/><path d="M358.6,244.48a11.67,11.67,0,0,1,1.67-.12,3.48,3.48,0,0,1,2.45.75,2.81,2.81,0,0,1,.86,2.18,3.24,3.24,0,0,1-.87,2.36,3.75,3.75,0,0,1-2.69.87,11.69,11.69,0,0,1-1.42-.07Zm.78,5.37a4.67,4.67,0,0,0,.8,0,2.33,2.33,0,0,0,2.58-2.57A2.16,2.16,0,0,0,360.3,245a4.21,4.21,0,0,0-.92.08Z"/><path d="M365.38,244.4v2.54h2.93V244.4h.8v6.07h-.8v-2.84h-2.93v2.84h-.78V244.4Z"/><path d="M250.62,261a5.53,5.53,0,0,1-1.86.33,2.85,2.85,0,0,1-3.12-3.06,3,3,0,0,1,3.29-3.13,3.67,3.67,0,0,1,1.51.28l-.19.64a3,3,0,0,0-1.34-.26,2.26,2.26,0,0,0-2.44,2.44,2.23,2.23,0,0,0,2.34,2.45,2.51,2.51,0,0,0,1-.17v-1.81h-1.23v-.63h2Z"/><path d="M251.79,254.88h.79v2.72h0a1.34,1.34,0,0,1,.57-.56,1.56,1.56,0,0,1,.81-.23c.58,0,1.52.36,1.52,1.87v2.59h-.79v-2.5c0-.7-.27-1.3-1-1.3a1.15,1.15,0,0,0-1.07.79,1.09,1.09,0,0,0,0,.38v2.63h-.79Z"/><path d="M260.73,259.06a2.13,2.13,0,0,1-2.17,2.31,2.07,2.07,0,0,1-2.09-2.24,2.13,2.13,0,0,1,2.16-2.32A2.07,2.07,0,0,1,260.73,259.06Zm-3.46,0c0,.95.55,1.68,1.32,1.68s1.33-.72,1.33-1.7c0-.74-.37-1.67-1.31-1.67S257.27,258.27,257.27,259.1Z"/><path d="M261.72,258.27c0-.51,0-.95,0-1.36h.69l0,.86h0a1.31,1.31,0,0,1,1.21-1,.85.85,0,0,1,.23,0v.75a1.18,1.18,0,0,0-.27,0,1.12,1.12,0,0,0-1.07,1,3.7,3.7,0,0,0,0,.37v2.32h-.79Z"/><path d="M264.67,261.27c0-.3,0-.74,0-1.12v-5.27h.79v2.74h0a1.63,1.63,0,0,1,1.49-.81,2,2,0,0,1,1.84,2.23,2.07,2.07,0,0,1-2,2.33,1.53,1.53,0,0,1-1.45-.82h0l0,.72Zm.82-1.75a1.36,1.36,0,0,0,0,.29,1.24,1.24,0,0,0,1.19.93c.83,0,1.33-.68,1.33-1.68s-.46-1.62-1.3-1.62a1.27,1.27,0,0,0-1.21,1,1.39,1.39,0,0,0,0,.32Z"/><path d="M270.27,259.24a1.39,1.39,0,0,0,1.49,1.51,2.81,2.81,0,0,0,1.21-.23l.13.57a3.45,3.45,0,0,1-1.45.27,2,2,0,0,1-2.14-2.2,2.11,2.11,0,0,1,2-2.35,1.85,1.85,0,0,1,1.8,2.06,3.12,3.12,0,0,1,0,.37Zm2.32-.57a1.13,1.13,0,0,0-1.1-1.29,1.31,1.31,0,0,0-1.21,1.29Z"/><path d="M274.33,254.88h.8v6.39h-.8Z"/><path d="M278.11,261.27v-.49l.63-.6c1.49-1.42,2.17-2.18,2.17-3.06a1,1,0,0,0-1.16-1.14,2,2,0,0,0-1.24.49l-.25-.56a2.57,2.57,0,0,1,1.66-.59,1.65,1.65,0,0,1,1.79,1.7c0,1.08-.79,2-2,3.14l-.47.44h2.63v.66Z"/><path d="M286.62,258.28c0,2-.74,3.09-2,3.09s-1.92-1.07-1.94-3,.85-3,2-3S286.62,256.42,286.62,258.28Zm-3.18.09c0,1.52.47,2.39,1.19,2.39s1.2-.95,1.2-2.44-.37-2.39-1.19-2.39S283.44,256.78,283.44,258.37Z"/><path d="M289.07,256.16h0l-1,.55-.15-.61,1.28-.68h.67v5.85h-.76Z"/><path d="M295.46,256.08h-2.23l-.23,1.51a2.87,2.87,0,0,1,.48,0,2.44,2.44,0,0,1,1.26.32,1.66,1.66,0,0,1,.84,1.5,2,2,0,0,1-2.18,2,2.87,2.87,0,0,1-1.46-.36l.2-.6a2.66,2.66,0,0,0,1.25.32,1.29,1.29,0,0,0,1.38-1.27c0-.75-.51-1.29-1.68-1.29a5.73,5.73,0,0,0-.81.06l.38-2.81h2.8Z"/><path d="M279.52,310.79c0-.84-.1-1.86-.09-2.62h0c-.21.72-.46,1.47-.77,2.31l-1.07,2.94H277l-1-2.89c-.29-.85-.53-1.64-.7-2.36h0c0,.76-.06,1.78-.12,2.69l-.16,2.6h-.75l.42-6.07h1l1,2.94c.25.74.46,1.41.61,2h0c.15-.61.37-1.28.64-2l1.08-2.94h1l.38,6.07h-.77Z"/><path d="M283.5,310.73v.59h-2.22v-.59Z"/><path d="M284.35,312.5a2.72,2.72,0,0,0,1.4.4c.8,0,1.27-.42,1.27-1s-.32-.9-1.14-1.21c-1-.35-1.6-.87-1.6-1.72a1.74,1.74,0,0,1,2-1.65,2.78,2.78,0,0,1,1.34.3l-.22.64a2.35,2.35,0,0,0-1.15-.29c-.83,0-1.14.5-1.14.91,0,.57.37.85,1.21,1.17,1,.4,1.54.89,1.54,1.78s-.69,1.75-2.12,1.75a3.07,3.07,0,0,1-1.55-.39Z"/><path d="M290.75,310.73v.59h-2.23v-.59Z"/><path d="M292.48,307.39v2.54h2.94v-2.54h.79v6.07h-.79v-2.85h-2.94v2.85h-.78v-6.07Z"/><path d="M299.48,313.46v-6.07h.85l1.95,3.07a17.49,17.49,0,0,1,1.09,2h0c-.07-.81-.09-1.54-.09-2.49v-2.54H304v6.07h-.79l-1.93-3.08a18,18,0,0,1-1.13-2h0c.05.77.06,1.5.06,2.51v2.59Z"/><path d="M306.34,307.88a.46.46,0,0,1-.5.48.47.47,0,0,1-.48-.48.49.49,0,0,1,.5-.5A.47.47,0,0,1,306.34,307.88Zm-.88,5.58V309.1h.79v4.36Z"/><path d="M308,311.42a1.4,1.4,0,0,0,1.49,1.52,2.81,2.81,0,0,0,1.21-.23l.13.57a3.57,3.57,0,0,1-1.45.27,2,2,0,0,1-2.14-2.2A2.12,2.12,0,0,1,309.3,309a1.85,1.85,0,0,1,1.8,2.05,2.58,2.58,0,0,1,0,.37Zm2.32-.56a1.13,1.13,0,0,0-1.1-1.29,1.31,1.31,0,0,0-1.21,1.29Z"/><path d="M315.84,307.07v5.26c0,.39,0,.83,0,1.13h-.72l0-.76h0a1.6,1.6,0,0,1-1.49.86,2,2,0,0,1-1.86-2.22,2.08,2.08,0,0,1,1.95-2.34,1.47,1.47,0,0,1,1.32.67h0v-2.6Zm-.79,3.81a1.32,1.32,0,0,0,0-.34,1.17,1.17,0,0,0-1.14-.92c-.82,0-1.31.72-1.31,1.69s.43,1.61,1.29,1.61a1.27,1.27,0,0,0,1.2-1.29Z"/><path d="M318.81,313.46V313l.62-.6c1.49-1.42,2.17-2.18,2.18-3.06a1,1,0,0,0-1.16-1.14,2,2,0,0,0-1.25.49l-.25-.56a2.59,2.59,0,0,1,1.66-.59,1.64,1.64,0,0,1,1.79,1.7c0,1.08-.78,2-2,3.14l-.46.43v0h2.62v.66Z"/><path d="M327.31,310.47c0,2-.73,3.09-2,3.09-1.14,0-1.92-1.07-1.94-3s.85-3,2-3S327.31,308.61,327.31,310.47Zm-3.17.09c0,1.52.47,2.39,1.19,2.39s1.19-.95,1.19-2.44-.37-2.39-1.19-2.39S324.14,309,324.14,310.56Z"/><path d="M329.76,308.35h0l-1,.54-.16-.6,1.28-.68h.68v5.85h-.77Z"/><path d="M336,308.17a3.14,3.14,0,0,0-.59,0,2.38,2.38,0,0,0-2,2.08h0a1.79,1.79,0,0,1,3.18,1.22,2,2,0,0,1-1.95,2.06c-1.25,0-2.07-1-2.07-2.5a3.64,3.64,0,0,1,1-2.63,3.17,3.17,0,0,1,1.87-.87,4.81,4.81,0,0,1,.58,0Zm-.23,3.37a1.18,1.18,0,0,0-1.2-1.34,1.32,1.32,0,0,0-1.14.72.72.72,0,0,0-.09.35c0,1,.46,1.68,1.29,1.68S335.77,312.38,335.77,311.54Z"/><path d="M336.52,121.84h-1.84v-.67h4.49v.67h-1.85v5.4h-.8Z"/><path d="M339.75,120.85h.8v2.72h0a1.44,1.44,0,0,1,.56-.56,1.72,1.72,0,0,1,.81-.22c.59,0,1.52.36,1.52,1.86v2.59h-.79v-2.5c0-.7-.26-1.3-1-1.3a1.14,1.14,0,0,0-1.06.8,1,1,0,0,0-.05.37v2.63h-.8Z"/><path d="M345.63,121.66a.47.47,0,0,1-.5.49.48.48,0,0,1-.48-.49.48.48,0,0,1,.5-.49A.46.46,0,0,1,345.63,121.66Zm-.88,5.58v-4.35h.79v4.35Z"/><path d="M346.75,126.43a2,2,0,0,0,1,.32c.58,0,.85-.29.85-.65s-.23-.59-.81-.8c-.79-.28-1.15-.71-1.15-1.24a1.33,1.33,0,0,1,1.5-1.27,2.1,2.1,0,0,1,1.07.27l-.2.57a1.66,1.66,0,0,0-.89-.25c-.47,0-.73.27-.73.59s.26.53.83.74c.76.29,1.14.67,1.14,1.32s-.59,1.3-1.63,1.3a2.5,2.5,0,0,1-1.22-.29Z"/><path d="M352.64,122.89l.58,2.21c.13.49.24.94.32,1.39h0c.1-.44.24-.91.39-1.38l.71-2.22h.66l.68,2.17c.16.53.29,1,.39,1.43h0a14.35,14.35,0,0,1,.34-1.42l.62-2.18h.78l-1.4,4.35H356l-.67-2.08c-.15-.48-.28-.92-.39-1.43h0a14.34,14.34,0,0,1-.4,1.44l-.7,2.07h-.72l-1.32-4.35Z"/><path d="M362.8,125a2.12,2.12,0,0,1-2.17,2.31,2.07,2.07,0,0,1-2.08-2.24,2.12,2.12,0,0,1,2.16-2.31A2.06,2.06,0,0,1,362.8,125Zm-3.45,0c0,1,.55,1.68,1.32,1.68S362,126,362,125.06c0-.74-.37-1.68-1.3-1.68S359.35,124.24,359.35,125.07Z"/><path d="M363.8,124.24c0-.51,0-.95,0-1.35h.69l0,.85h0a1.32,1.32,0,0,1,1.21-.95l.22,0v.75a1.06,1.06,0,0,0-.27,0,1.12,1.12,0,0,0-1.06,1,2.13,2.13,0,0,0,0,.37v2.32h-.79Z"/><path d="M367.57,124.88h0c.11-.15.26-.34.39-.49l1.28-1.5h.95l-1.68,1.79,1.92,2.56h-1l-1.5-2.09-.4.45v1.64h-.79v-6.39h.79Z"/></g><g id="Layer_2" data-name="Layer 2"><line class="cls-10" x1="63.1" y1="7.73" x2="63.03" y2="332.88"/><line class="cls-11" x1="63.1" y1="7.73" x2="63.1" y2="10.73"/><line class="cls-12" x1="63.1" y1="16.76" x2="63.04" y2="326.87"/><line class="cls-11" x1="63.03" y1="329.88" x2="63.03" y2="332.88"/><line class="cls-10" x1="140.87" y1="7.47" x2="140.81" y2="332.61"/><line class="cls-11" x1="140.87" y1="7.47" x2="140.87" y2="10.47"/><line class="cls-12" x1="140.87" y1="16.49" x2="140.81" y2="326.6"/><line class="cls-11" x1="140.81" y1="329.61" x2="140.81" y2="332.61"/><line class="cls-10" x1="220.01" y1="7.98" x2="219.95" y2="333.12"/><line class="cls-11" x1="220.01" y1="7.98" x2="220.01" y2="10.98"/><line class="cls-12" x1="220.01" y1="17" x2="219.95" y2="327.11"/><line class="cls-11" x1="219.95" y1="330.12" x2="219.95" y2="333.12"/><line class="cls-10" x1="392.87" y1="7.47" x2="392.81" y2="332.61"/><line class="cls-11" x1="392.87" y1="7.47" x2="392.87" y2="10.47"/><line class="cls-12" x1="392.87" y1="16.49" x2="392.81" y2="326.6"/><line class="cls-11" x1="392.81" y1="329.61" x2="392.81" y2="332.61"/></g></svg>