<?xml version="1.0" encoding="utf-8" standalone="no"?>
<!DOCTYPE svg PUBLIC "-//W3C//DTD SVG 1.1//EN"
  "http://www.w3.org/Graphics/SVG/1.1/DTD/svg11.dtd">
<svg xmlns:xlink="http://www.w3.org/1999/xlink" width="425.674312pt" height="368.083125pt" viewBox="0 0 425.674312 368.083125" xmlns="http://www.w3.org/2000/svg" version="1.1">
 <metadata>
  <rdf:RDF xmlns:dc="http://purl.org/dc/elements/1.1/" xmlns:cc="http://creativecommons.org/ns#" xmlns:rdf="http://www.w3.org/1999/02/22-rdf-syntax-ns#">
   <cc:Work>
    <dc:type rdf:resource="http://purl.org/dc/dcmitype/StillImage"/>
    <dc:date>2023-04-29T20:44:21.466031</dc:date>
    <dc:format>image/svg+xml</dc:format>
    <dc:creator>
     <cc:Agent>
      <dc:title>Matplotlib v3.7.1, https://matplotlib.org/</dc:title>
     </cc:Agent>
    </dc:creator>
   </cc:Work>
  </rdf:RDF>
 </metadata>
 <defs>
  <style type="text/css">*{stroke-linejoin: round; stroke-linecap: butt}</style>
 </defs>
 <g id="figure_1">
  <g id="patch_1">
   <path d="M 0 368.083125 
L 425.674312 368.083125 
L 425.674312 0 
L 0 0 
z
" style="fill: #ffffff"/>
  </g>
  <g id="axes_1">
   <g id="patch_2">
    <path d="M 23.410313 333.36 
L 418.474312 333.36 
L 418.474312 7.2 
L 23.410313 7.2 
z
" style="fill: #ffffff"/>
   </g>
   <g id="matplotlib.axis_1">
    <g id="xtick_1">
     <g id="line2d_1">
      <defs>
       <path id="m11cfcfe9fc" d="M 0 0 
L 0 3.5 
" style="stroke: #000000; stroke-width: 0.8"/>
      </defs>
      <g>
       <use xlink:href="#m11cfcfe9fc" x="56.332313" y="333.36" style="stroke: #000000; stroke-width: 0.8"/>
      </g>
     </g>
     <g id="text_1">
      <!-- 10 -->
      <g transform="translate(51.242312 346.43875) scale(0.08 -0.08)">
       <defs>
        <path id="DejaVuSans-31" d="M 794 531 
L 1825 531 
L 1825 4091 
L 703 3866 
L 703 4441 
L 1819 4666 
L 2450 4666 
L 2450 531 
L 3481 531 
L 3481 0 
L 794 0 
L 794 531 
z
" transform="scale(0.015625)"/>
        <path id="DejaVuSans-30" d="M 2034 4250 
Q 1547 4250 1301 3770 
Q 1056 3291 1056 2328 
Q 1056 1369 1301 889 
Q 1547 409 2034 409 
Q 2525 409 2770 889 
Q 3016 1369 3016 2328 
Q 3016 3291 2770 3770 
Q 2525 4250 2034 4250 
z
M 2034 4750 
Q 2819 4750 3233 4129 
Q 3647 3509 3647 2328 
Q 3647 1150 3233 529 
Q 2819 -91 2034 -91 
Q 1250 -91 836 529 
Q 422 1150 422 2328 
Q 422 3509 836 4129 
Q 1250 4750 2034 4750 
z
" transform="scale(0.015625)"/>
       </defs>
       <use xlink:href="#DejaVuSans-31"/>
       <use xlink:href="#DejaVuSans-30" x="63.623047"/>
      </g>
     </g>
    </g>
    <g id="xtick_2">
     <g id="line2d_2">
      <g>
       <use xlink:href="#m11cfcfe9fc" x="122.176312" y="333.36" style="stroke: #000000; stroke-width: 0.8"/>
      </g>
     </g>
     <g id="text_2">
      <!-- 20 -->
      <g transform="translate(117.086312 346.43875) scale(0.08 -0.08)">
       <defs>
        <path id="DejaVuSans-32" d="M 1228 531 
L 3431 531 
L 3431 0 
L 469 0 
L 469 531 
Q 828 903 1448 1529 
Q 2069 2156 2228 2338 
Q 2531 2678 2651 2914 
Q 2772 3150 2772 3378 
Q 2772 3750 2511 3984 
Q 2250 4219 1831 4219 
Q 1534 4219 1204 4116 
Q 875 4013 500 3803 
L 500 4441 
Q 881 4594 1212 4672 
Q 1544 4750 1819 4750 
Q 2544 4750 2975 4387 
Q 3406 4025 3406 3419 
Q 3406 3131 3298 2873 
Q 3191 2616 2906 2266 
Q 2828 2175 2409 1742 
Q 1991 1309 1228 531 
z
" transform="scale(0.015625)"/>
       </defs>
       <use xlink:href="#DejaVuSans-32"/>
       <use xlink:href="#DejaVuSans-30" x="63.623047"/>
      </g>
     </g>
    </g>
    <g id="xtick_3">
     <g id="line2d_3">
      <g>
       <use xlink:href="#m11cfcfe9fc" x="188.020312" y="333.36" style="stroke: #000000; stroke-width: 0.8"/>
      </g>
     </g>
     <g id="text_3">
      <!-- 30 -->
      <g transform="translate(182.930312 346.43875) scale(0.08 -0.08)">
       <defs>
        <path id="DejaVuSans-33" d="M 2597 2516 
Q 3050 2419 3304 2112 
Q 3559 1806 3559 1356 
Q 3559 666 3084 287 
Q 2609 -91 1734 -91 
Q 1441 -91 1130 -33 
Q 819 25 488 141 
L 488 750 
Q 750 597 1062 519 
Q 1375 441 1716 441 
Q 2309 441 2620 675 
Q 2931 909 2931 1356 
Q 2931 1769 2642 2001 
Q 2353 2234 1838 2234 
L 1294 2234 
L 1294 2753 
L 1863 2753 
Q 2328 2753 2575 2939 
Q 2822 3125 2822 3475 
Q 2822 3834 2567 4026 
Q 2313 4219 1838 4219 
Q 1578 4219 1281 4162 
Q 984 4106 628 3988 
L 628 4550 
Q 988 4650 1302 4700 
Q 1616 4750 1894 4750 
Q 2613 4750 3031 4423 
Q 3450 4097 3450 3541 
Q 3450 3153 3228 2886 
Q 3006 2619 2597 2516 
z
" transform="scale(0.015625)"/>
       </defs>
       <use xlink:href="#DejaVuSans-33"/>
       <use xlink:href="#DejaVuSans-30" x="63.623047"/>
      </g>
     </g>
    </g>
    <g id="xtick_4">
     <g id="line2d_4">
      <g>
       <use xlink:href="#m11cfcfe9fc" x="253.864312" y="333.36" style="stroke: #000000; stroke-width: 0.8"/>
      </g>
     </g>
     <g id="text_4">
      <!-- 40 -->
      <g transform="translate(248.774312 346.43875) scale(0.08 -0.08)">
       <defs>
        <path id="DejaVuSans-34" d="M 2419 4116 
L 825 1625 
L 2419 1625 
L 2419 4116 
z
M 2253 4666 
L 3047 4666 
L 3047 1625 
L 3713 1625 
L 3713 1100 
L 3047 1100 
L 3047 0 
L 2419 0 
L 2419 1100 
L 313 1100 
L 313 1709 
L 2253 4666 
z
" transform="scale(0.015625)"/>
       </defs>
       <use xlink:href="#DejaVuSans-34"/>
       <use xlink:href="#DejaVuSans-30" x="63.623047"/>
      </g>
     </g>
    </g>
    <g id="xtick_5">
     <g id="line2d_5">
      <g>
       <use xlink:href="#m11cfcfe9fc" x="319.708312" y="333.36" style="stroke: #000000; stroke-width: 0.8"/>
      </g>
     </g>
     <g id="text_5">
      <!-- 50 -->
      <g transform="translate(314.618313 346.43875) scale(0.08 -0.08)">
       <defs>
        <path id="DejaVuSans-35" d="M 691 4666 
L 3169 4666 
L 3169 4134 
L 1269 4134 
L 1269 2991 
Q 1406 3038 1543 3061 
Q 1681 3084 1819 3084 
Q 2600 3084 3056 2656 
Q 3513 2228 3513 1497 
Q 3513 744 3044 326 
Q 2575 -91 1722 -91 
Q 1428 -91 1123 -41 
Q 819 9 494 109 
L 494 744 
Q 775 591 1075 516 
Q 1375 441 1709 441 
Q 2250 441 2565 725 
Q 2881 1009 2881 1497 
Q 2881 1984 2565 2268 
Q 2250 2553 1709 2553 
Q 1456 2553 1204 2497 
Q 953 2441 691 2322 
L 691 4666 
z
" transform="scale(0.015625)"/>
       </defs>
       <use xlink:href="#DejaVuSans-35"/>
       <use xlink:href="#DejaVuSans-30" x="63.623047"/>
      </g>
     </g>
    </g>
    <g id="xtick_6">
     <g id="line2d_6">
      <g>
       <use xlink:href="#m11cfcfe9fc" x="385.552312" y="333.36" style="stroke: #000000; stroke-width: 0.8"/>
      </g>
     </g>
     <g id="text_6">
      <!-- 60 -->
      <g transform="translate(380.462312 346.43875) scale(0.08 -0.08)">
       <defs>
        <path id="DejaVuSans-36" d="M 2113 2584 
Q 1688 2584 1439 2293 
Q 1191 2003 1191 1497 
Q 1191 994 1439 701 
Q 1688 409 2113 409 
Q 2538 409 2786 701 
Q 3034 994 3034 1497 
Q 3034 2003 2786 2293 
Q 2538 2584 2113 2584 
z
M 3366 4563 
L 3366 3988 
Q 3128 4100 2886 4159 
Q 2644 4219 2406 4219 
Q 1781 4219 1451 3797 
Q 1122 3375 1075 2522 
Q 1259 2794 1537 2939 
Q 1816 3084 2150 3084 
Q 2853 3084 3261 2657 
Q 3669 2231 3669 1497 
Q 3669 778 3244 343 
Q 2819 -91 2113 -91 
Q 1303 -91 875 529 
Q 447 1150 447 2328 
Q 447 3434 972 4092 
Q 1497 4750 2381 4750 
Q 2619 4750 2861 4703 
Q 3103 4656 3366 4563 
z
" transform="scale(0.015625)"/>
       </defs>
       <use xlink:href="#DejaVuSans-36"/>
       <use xlink:href="#DejaVuSans-30" x="63.623047"/>
      </g>
     </g>
    </g>
    <g id="xtick_7">
     <g id="line2d_7">
      <defs>
       <path id="ma8e40dfadb" d="M 0 0 
L 0 2 
" style="stroke: #000000; stroke-width: 0.6"/>
      </defs>
      <g>
       <use xlink:href="#ma8e40dfadb" x="23.410313" y="333.36" style="stroke: #000000; stroke-width: 0.6"/>
      </g>
     </g>
    </g>
    <g id="xtick_8">
     <g id="line2d_8">
      <g>
       <use xlink:href="#ma8e40dfadb" x="39.871313" y="333.36" style="stroke: #000000; stroke-width: 0.6"/>
      </g>
     </g>
    </g>
    <g id="xtick_9">
     <g id="line2d_9">
      <g>
       <use xlink:href="#ma8e40dfadb" x="72.793312" y="333.36" style="stroke: #000000; stroke-width: 0.6"/>
      </g>
     </g>
    </g>
    <g id="xtick_10">
     <g id="line2d_10">
      <g>
       <use xlink:href="#ma8e40dfadb" x="89.254312" y="333.36" style="stroke: #000000; stroke-width: 0.6"/>
      </g>
     </g>
    </g>
    <g id="xtick_11">
     <g id="line2d_11">
      <g>
       <use xlink:href="#ma8e40dfadb" x="105.715312" y="333.36" style="stroke: #000000; stroke-width: 0.6"/>
      </g>
     </g>
    </g>
    <g id="xtick_12">
     <g id="line2d_12">
      <g>
       <use xlink:href="#ma8e40dfadb" x="138.637313" y="333.36" style="stroke: #000000; stroke-width: 0.6"/>
      </g>
     </g>
    </g>
    <g id="xtick_13">
     <g id="line2d_13">
      <g>
       <use xlink:href="#ma8e40dfadb" x="155.098312" y="333.36" style="stroke: #000000; stroke-width: 0.6"/>
      </g>
     </g>
    </g>
    <g id="xtick_14">
     <g id="line2d_14">
      <g>
       <use xlink:href="#ma8e40dfadb" x="171.559313" y="333.36" style="stroke: #000000; stroke-width: 0.6"/>
      </g>
     </g>
    </g>
    <g id="xtick_15">
     <g id="line2d_15">
      <g>
       <use xlink:href="#ma8e40dfadb" x="204.481313" y="333.36" style="stroke: #000000; stroke-width: 0.6"/>
      </g>
     </g>
    </g>
    <g id="xtick_16">
     <g id="line2d_16">
      <g>
       <use xlink:href="#ma8e40dfadb" x="220.942312" y="333.36" style="stroke: #000000; stroke-width: 0.6"/>
      </g>
     </g>
    </g>
    <g id="xtick_17">
     <g id="line2d_17">
      <g>
       <use xlink:href="#ma8e40dfadb" x="237.403312" y="333.36" style="stroke: #000000; stroke-width: 0.6"/>
      </g>
     </g>
    </g>
    <g id="xtick_18">
     <g id="line2d_18">
      <g>
       <use xlink:href="#ma8e40dfadb" x="270.325312" y="333.36" style="stroke: #000000; stroke-width: 0.6"/>
      </g>
     </g>
    </g>
    <g id="xtick_19">
     <g id="line2d_19">
      <g>
       <use xlink:href="#ma8e40dfadb" x="286.786313" y="333.36" style="stroke: #000000; stroke-width: 0.6"/>
      </g>
     </g>
    </g>
    <g id="xtick_20">
     <g id="line2d_20">
      <g>
       <use xlink:href="#ma8e40dfadb" x="303.247312" y="333.36" style="stroke: #000000; stroke-width: 0.6"/>
      </g>
     </g>
    </g>
    <g id="xtick_21">
     <g id="line2d_21">
      <g>
       <use xlink:href="#ma8e40dfadb" x="336.169312" y="333.36" style="stroke: #000000; stroke-width: 0.6"/>
      </g>
     </g>
    </g>
    <g id="xtick_22">
     <g id="line2d_22">
      <g>
       <use xlink:href="#ma8e40dfadb" x="352.630313" y="333.36" style="stroke: #000000; stroke-width: 0.6"/>
      </g>
     </g>
    </g>
    <g id="xtick_23">
     <g id="line2d_23">
      <g>
       <use xlink:href="#ma8e40dfadb" x="369.091312" y="333.36" style="stroke: #000000; stroke-width: 0.6"/>
      </g>
     </g>
    </g>
    <g id="xtick_24">
     <g id="line2d_24">
      <g>
       <use xlink:href="#ma8e40dfadb" x="402.013312" y="333.36" style="stroke: #000000; stroke-width: 0.6"/>
      </g>
     </g>
    </g>
    <g id="xtick_25">
     <g id="line2d_25">
      <g>
       <use xlink:href="#ma8e40dfadb" x="418.474312" y="333.36" style="stroke: #000000; stroke-width: 0.6"/>
      </g>
     </g>
    </g>
    <g id="text_7">
     <!-- 2θ (degrees) -->
     <g transform="translate(192.270984 359.011406) scale(0.09 -0.09)">
      <defs>
       <path id="DejaVuSans-3b8" d="M 2953 2219 
L 963 2219 
Q 1009 1284 1225 888 
Q 1494 400 1959 400 
Q 2428 400 2688 891 
Q 2916 1322 2953 2219 
z
M 2944 2750 
Q 2856 3638 2688 3950 
Q 2419 4444 1959 4444 
Q 1481 4444 1228 3956 
Q 1028 3563 969 2750 
L 2944 2750 
z
M 1959 4913 
Q 2709 4913 3138 4250 
Q 3566 3591 3566 2422 
Q 3566 1256 3138 594 
Q 2709 -72 1959 -72 
Q 1206 -72 781 594 
Q 353 1256 353 2422 
Q 353 3591 781 4250 
Q 1206 4913 1959 4913 
z
" transform="scale(0.015625)"/>
       <path id="DejaVuSans-20" transform="scale(0.015625)"/>
       <path id="DejaVuSans-28" d="M 1984 4856 
Q 1566 4138 1362 3434 
Q 1159 2731 1159 2009 
Q 1159 1288 1364 580 
Q 1569 -128 1984 -844 
L 1484 -844 
Q 1016 -109 783 600 
Q 550 1309 550 2009 
Q 550 2706 781 3412 
Q 1013 4119 1484 4856 
L 1984 4856 
z
" transform="scale(0.015625)"/>
       <path id="DejaVuSans-64" d="M 2906 2969 
L 2906 4863 
L 3481 4863 
L 3481 0 
L 2906 0 
L 2906 525 
Q 2725 213 2448 61 
Q 2172 -91 1784 -91 
Q 1150 -91 751 415 
Q 353 922 353 1747 
Q 353 2572 751 3078 
Q 1150 3584 1784 3584 
Q 2172 3584 2448 3432 
Q 2725 3281 2906 2969 
z
M 947 1747 
Q 947 1113 1208 752 
Q 1469 391 1925 391 
Q 2381 391 2643 752 
Q 2906 1113 2906 1747 
Q 2906 2381 2643 2742 
Q 2381 3103 1925 3103 
Q 1469 3103 1208 2742 
Q 947 2381 947 1747 
z
" transform="scale(0.015625)"/>
       <path id="DejaVuSans-65" d="M 3597 1894 
L 3597 1613 
L 953 1613 
Q 991 1019 1311 708 
Q 1631 397 2203 397 
Q 2534 397 2845 478 
Q 3156 559 3463 722 
L 3463 178 
Q 3153 47 2828 -22 
Q 2503 -91 2169 -91 
Q 1331 -91 842 396 
Q 353 884 353 1716 
Q 353 2575 817 3079 
Q 1281 3584 2069 3584 
Q 2775 3584 3186 3129 
Q 3597 2675 3597 1894 
z
M 3022 2063 
Q 3016 2534 2758 2815 
Q 2500 3097 2075 3097 
Q 1594 3097 1305 2825 
Q 1016 2553 972 2059 
L 3022 2063 
z
" transform="scale(0.015625)"/>
       <path id="DejaVuSans-67" d="M 2906 1791 
Q 2906 2416 2648 2759 
Q 2391 3103 1925 3103 
Q 1463 3103 1205 2759 
Q 947 2416 947 1791 
Q 947 1169 1205 825 
Q 1463 481 1925 481 
Q 2391 481 2648 825 
Q 2906 1169 2906 1791 
z
M 3481 434 
Q 3481 -459 3084 -895 
Q 2688 -1331 1869 -1331 
Q 1566 -1331 1297 -1286 
Q 1028 -1241 775 -1147 
L 775 -588 
Q 1028 -725 1275 -790 
Q 1522 -856 1778 -856 
Q 2344 -856 2625 -561 
Q 2906 -266 2906 331 
L 2906 616 
Q 2728 306 2450 153 
Q 2172 0 1784 0 
Q 1141 0 747 490 
Q 353 981 353 1791 
Q 353 2603 747 3093 
Q 1141 3584 1784 3584 
Q 2172 3584 2450 3431 
Q 2728 3278 2906 2969 
L 2906 3500 
L 3481 3500 
L 3481 434 
z
" transform="scale(0.015625)"/>
       <path id="DejaVuSans-72" d="M 2631 2963 
Q 2534 3019 2420 3045 
Q 2306 3072 2169 3072 
Q 1681 3072 1420 2755 
Q 1159 2438 1159 1844 
L 1159 0 
L 581 0 
L 581 3500 
L 1159 3500 
L 1159 2956 
Q 1341 3275 1631 3429 
Q 1922 3584 2338 3584 
Q 2397 3584 2469 3576 
Q 2541 3569 2628 3553 
L 2631 2963 
z
" transform="scale(0.015625)"/>
       <path id="DejaVuSans-73" d="M 2834 3397 
L 2834 2853 
Q 2591 2978 2328 3040 
Q 2066 3103 1784 3103 
Q 1356 3103 1142 2972 
Q 928 2841 928 2578 
Q 928 2378 1081 2264 
Q 1234 2150 1697 2047 
L 1894 2003 
Q 2506 1872 2764 1633 
Q 3022 1394 3022 966 
Q 3022 478 2636 193 
Q 2250 -91 1575 -91 
Q 1294 -91 989 -36 
Q 684 19 347 128 
L 347 722 
Q 666 556 975 473 
Q 1284 391 1588 391 
Q 1994 391 2212 530 
Q 2431 669 2431 922 
Q 2431 1156 2273 1281 
Q 2116 1406 1581 1522 
L 1381 1569 
Q 847 1681 609 1914 
Q 372 2147 372 2553 
Q 372 3047 722 3315 
Q 1072 3584 1716 3584 
Q 2034 3584 2315 3537 
Q 2597 3491 2834 3397 
z
" transform="scale(0.015625)"/>
       <path id="DejaVuSans-29" d="M 513 4856 
L 1013 4856 
Q 1481 4119 1714 3412 
Q 1947 2706 1947 2009 
Q 1947 1309 1714 600 
Q 1481 -109 1013 -844 
L 513 -844 
Q 928 -128 1133 580 
Q 1338 1288 1338 2009 
Q 1338 2731 1133 3434 
Q 928 4138 513 4856 
z
" transform="scale(0.015625)"/>
      </defs>
      <use xlink:href="#DejaVuSans-32"/>
      <use xlink:href="#DejaVuSans-3b8" x="63.623047"/>
      <use xlink:href="#DejaVuSans-20" x="124.804688"/>
      <use xlink:href="#DejaVuSans-28" x="156.591797"/>
      <use xlink:href="#DejaVuSans-64" x="195.605469"/>
      <use xlink:href="#DejaVuSans-65" x="259.082031"/>
      <use xlink:href="#DejaVuSans-67" x="320.605469"/>
      <use xlink:href="#DejaVuSans-72" x="384.082031"/>
      <use xlink:href="#DejaVuSans-65" x="422.945312"/>
      <use xlink:href="#DejaVuSans-65" x="484.46875"/>
      <use xlink:href="#DejaVuSans-73" x="545.992188"/>
      <use xlink:href="#DejaVuSans-29" x="598.091797"/>
     </g>
    </g>
   </g>
   <g id="matplotlib.axis_2">
    <g id="ytick_1">
     <g id="line2d_26"/>
    </g>
    <g id="ytick_2">
     <g id="line2d_27"/>
    </g>
    <g id="ytick_3">
     <g id="line2d_28"/>
    </g>
    <g id="ytick_4">
     <g id="line2d_29"/>
    </g>
    <g id="ytick_5">
     <g id="line2d_30"/>
    </g>
    <g id="ytick_6">
     <g id="line2d_31"/>
    </g>
    <g id="text_8">
     <!-- Intensity -->
     <g transform="translate(14.038594 189.86625) rotate(-90) scale(0.09 -0.09)">
      <defs>
       <path id="DejaVuSans-49" d="M 628 4666 
L 1259 4666 
L 1259 0 
L 628 0 
L 628 4666 
z
" transform="scale(0.015625)"/>
       <path id="DejaVuSans-6e" d="M 3513 2113 
L 3513 0 
L 2938 0 
L 2938 2094 
Q 2938 2591 2744 2837 
Q 2550 3084 2163 3084 
Q 1697 3084 1428 2787 
Q 1159 2491 1159 1978 
L 1159 0 
L 581 0 
L 581 3500 
L 1159 3500 
L 1159 2956 
Q 1366 3272 1645 3428 
Q 1925 3584 2291 3584 
Q 2894 3584 3203 3211 
Q 3513 2838 3513 2113 
z
" transform="scale(0.015625)"/>
       <path id="DejaVuSans-74" d="M 1172 4494 
L 1172 3500 
L 2356 3500 
L 2356 3053 
L 1172 3053 
L 1172 1153 
Q 1172 725 1289 603 
Q 1406 481 1766 481 
L 2356 481 
L 2356 0 
L 1766 0 
Q 1100 0 847 248 
Q 594 497 594 1153 
L 594 3053 
L 172 3053 
L 172 3500 
L 594 3500 
L 594 4494 
L 1172 4494 
z
" transform="scale(0.015625)"/>
       <path id="DejaVuSans-69" d="M 603 3500 
L 1178 3500 
L 1178 0 
L 603 0 
L 603 3500 
z
M 603 4863 
L 1178 4863 
L 1178 4134 
L 603 4134 
L 603 4863 
z
" transform="scale(0.015625)"/>
       <path id="DejaVuSans-79" d="M 2059 -325 
Q 1816 -950 1584 -1140 
Q 1353 -1331 966 -1331 
L 506 -1331 
L 506 -850 
L 844 -850 
Q 1081 -850 1212 -737 
Q 1344 -625 1503 -206 
L 1606 56 
L 191 3500 
L 800 3500 
L 1894 763 
L 2988 3500 
L 3597 3500 
L 2059 -325 
z
" transform="scale(0.015625)"/>
      </defs>
      <use xlink:href="#DejaVuSans-49"/>
      <use xlink:href="#DejaVuSans-6e" x="29.492188"/>
      <use xlink:href="#DejaVuSans-74" x="92.871094"/>
      <use xlink:href="#DejaVuSans-65" x="132.080078"/>
      <use xlink:href="#DejaVuSans-6e" x="193.603516"/>
      <use xlink:href="#DejaVuSans-73" x="256.982422"/>
      <use xlink:href="#DejaVuSans-69" x="309.082031"/>
      <use xlink:href="#DejaVuSans-74" x="336.865234"/>
      <use xlink:href="#DejaVuSans-79" x="376.074219"/>
     </g>
    </g>
   </g>
   <g id="line2d_32">
    <path d="M 23.451419 261.6048 
L 24.023267 262.21443 
L 24.595116 266.459497 
L 25.166965 268.888442 
L 25.738813 269.49488 
L 26.310662 270.707756 
L 26.88251 273.743139 
L 27.454359 274.956015 
L 28.026207 276.775329 
L 28.598056 277.991398 
L 29.169904 279.810712 
L 29.741753 280.41715 
L 30.88545 282.842903 
L 31.457299 284.665409 
L 32.600996 285.878286 
L 33.172844 287.091162 
L 35.460239 289.520106 
L 36.032087 290.732983 
L 37.175784 291.945859 
L 37.747633 291.945859 
L 39.463178 293.768365 
L 40.035027 293.768365 
L 42.89427 296.800556 
L 43.466118 296.800556 
L 44.037967 297.406994 
L 45.181657 297.406994 
L 46.325361 298.619871 
L 46.89721 298.619871 
L 47.469058 299.2295 
L 48.0409 299.2295 
L 48.612755 299.835939 
L 49.756452 299.835939 
L 50.328294 300.442377 
L 51.471998 300.442377 
L 52.615695 301.655253 
L 53.759392 301.655253 
L 54.331241 302.261691 
L 55.474931 302.261691 
L 56.04678 302.868129 
L 57.762312 302.868129 
L 58.906023 304.081006 
L 60.049733 304.081006 
L 60.621588 304.690636 
L 61.765298 304.690636 
L 62.337088 305.297074 
L 62.908943 304.690636 
L 63.480798 305.297074 
L 66.911929 305.297074 
L 67.483784 305.903512 
L 68.627428 305.903512 
L 69.199284 306.50995 
L 69.771139 306.50995 
L 70.342994 305.903512 
L 71.486704 307.116388 
L 72.058559 307.116388 
L 72.630414 306.50995 
L 74.917769 306.50995 
L 75.489624 307.116388 
L 79.492544 307.116388 
L 80.0644 306.50995 
L 80.636255 306.50995 
L 81.20811 305.903512 
L 83.49553 305.903512 
L 84.639241 304.690636 
L 85.21103 304.690636 
L 86.926595 302.868129 
L 87.498451 301.655253 
L 88.642161 300.442377 
L 89.214016 299.2295 
L 89.785871 298.619871 
L 92.073226 293.768365 
L 93.788791 291.945859 
L 94.360646 291.945859 
L 94.932502 291.339421 
L 96.076212 291.339421 
L 96.648067 291.945859 
L 97.791711 291.945859 
L 99.507277 293.768365 
L 100.079132 293.768365 
L 100.650987 294.374803 
L 101.794697 294.374803 
L 103.510197 296.194118 
L 104.082052 296.194118 
L 104.653907 296.800556 
L 106.369473 296.800556 
L 106.941328 297.406994 
L 107.513117 297.406994 
L 108.084972 298.619871 
L 110.372393 298.619871 
L 110.944248 299.2295 
L 112.087958 299.2295 
L 112.659813 299.835939 
L 115.519023 299.835939 
L 116.090878 300.442377 
L 116.662733 299.835939 
L 117.234589 299.835939 
L 117.806444 300.442377 
L 118.950154 300.442377 
L 119.521943 301.048815 
L 120.665654 301.048815 
L 121.237509 301.655253 
L 121.809364 301.048815 
L 122.381219 301.655253 
L 122.953074 301.048815 
L 123.524929 301.048815 
L 124.096784 301.655253 
L 133.246335 301.655253 
L 133.81819 302.261691 
L 138.392965 302.261691 
L 138.964821 302.868129 
L 139.536676 302.261691 
L 140.680386 302.261691 
L 141.252241 302.868129 
L 141.824096 302.868129 
L 142.395886 302.261691 
L 142.967741 302.868129 
L 143.539596 302.868129 
L 144.683306 304.081006 
L 145.255161 303.474568 
L 145.827016 303.474568 
L 146.970727 304.690636 
L 149.258081 304.690636 
L 149.829937 305.297074 
L 150.401792 305.297074 
L 150.973647 305.903512 
L 152.117357 305.903512 
L 153.261002 307.116388 
L 153.832857 307.116388 
L 154.404712 307.722827 
L 155.548422 307.722827 
L 156.120277 308.329265 
L 157.263988 308.329265 
L 158.407698 309.542141 
L 158.979487 309.542141 
L 159.551342 310.151771 
L 160.695053 310.151771 
L 161.266908 310.758209 
L 161.838763 310.758209 
L 162.410618 311.364647 
L 163.554328 311.364647 
L 164.126183 312.577524 
L 165.841683 312.577524 
L 166.413538 313.183962 
L 166.985393 313.183962 
L 167.557248 313.7904 
L 169.272814 313.7904 
L 169.844669 315.006468 
L 170.416524 315.006468 
L 170.988313 314.396838 
L 171.560168 315.006468 
L 172.132024 315.006468 
L 172.703879 315.612906 
L 177.850509 315.612906 
L 178.422364 316.219344 
L 181.28164 316.219344 
L 181.853495 315.612906 
L 182.425284 316.219344 
L 182.99714 315.612906 
L 185.28456 315.612906 
L 185.856415 315.006468 
L 186.42827 315.006468 
L 189.28748 311.971086 
L 189.859335 310.758209 
L 190.431191 310.151771 
L 191.003046 308.935703 
L 191.574901 308.329265 
L 192.146756 306.50995 
L 195.005966 300.442377 
L 196.149676 296.800556 
L 197.865242 293.158735 
L 198.437097 292.552297 
L 199.580741 290.126544 
L 200.724451 288.913668 
L 201.868162 288.913668 
L 202.440017 288.304038 
L 203.583727 288.304038 
L 204.155582 288.913668 
L 205.299293 288.913668 
L 207.014792 290.732983 
L 208.158502 290.732983 
L 208.730358 291.339421 
L 209.302213 291.339421 
L 209.874068 291.945859 
L 210.445857 293.158735 
L 211.017712 293.158735 
L 216.164343 298.619871 
L 216.736198 298.619871 
L 217.879908 299.835939 
L 218.451763 299.835939 
L 219.023618 300.442377 
L 219.595473 300.442377 
L 220.167329 301.655253 
L 220.739184 301.655253 
L 221.882894 302.868129 
L 222.454683 302.868129 
L 223.598394 304.081006 
L 224.170249 304.081006 
L 224.742104 304.690636 
L 225.885814 304.690636 
L 226.457669 305.297074 
L 227.029459 305.297074 
L 227.601314 305.903512 
L 228.173169 305.903512 
L 228.745024 306.50995 
L 229.316879 306.50995 
L 230.460589 307.722827 
L 231.6043 307.722827 
L 232.176155 308.329265 
L 232.74801 308.329265 
L 233.319865 308.935703 
L 234.46351 308.935703 
L 235.035365 309.542141 
L 236.179075 309.542141 
L 236.75093 310.151771 
L 237.89464 310.151771 
L 238.46643 310.758209 
L 239.61014 310.758209 
L 240.181995 311.971086 
L 242.469416 311.971086 
L 243.041271 312.577524 
L 244.184981 312.577524 
L 244.756836 313.183962 
L 245.328691 313.183962 
L 245.900481 313.7904 
L 248.187901 313.7904 
L 248.759756 314.396838 
L 249.331612 314.396838 
L 249.903467 315.006468 
L 250.475256 315.006468 
L 251.047111 315.612906 
L 253.334532 315.612906 
L 253.906387 316.219344 
L 255.621952 316.219344 
L 256.193742 316.825783 
L 257.337452 316.825783 
L 257.909307 317.432221 
L 258.481162 317.432221 
L 259.053017 318.038659 
L 260.196728 318.038659 
L 260.768583 318.645097 
L 263.055937 318.645097 
L 263.627793 319.251535 
L 264.199648 318.645097 
L 265.343358 319.857973 
L 266.487002 319.857973 
L 267.058858 320.467603 
L 271.633699 320.467603 
L 272.205554 321.074042 
L 274.492908 321.074042 
L 275.064764 321.68048 
L 279.639539 321.68048 
L 280.783249 322.893356 
L 284.21438 322.893356 
L 284.786235 323.499794 
L 290.504655 323.499794 
L 291.07651 324.106232 
L 291.648365 323.499794 
L 292.792075 323.499794 
L 293.363931 324.106232 
L 299.082416 324.106232 
L 299.654271 324.712671 
L 301.941626 324.712671 
L 302.513481 324.106232 
L 303.657191 324.106232 
L 304.229047 324.712671 
L 304.800902 324.106232 
L 305.372757 324.106232 
L 305.944612 324.712671 
L 307.660112 324.712671 
L 308.231967 324.106232 
L 315.666018 324.106232 
L 316.237873 323.499794 
L 316.809728 323.499794 
L 317.381583 324.106232 
L 317.953372 324.106232 
L 318.525228 323.499794 
L 321.384503 323.499794 
L 321.956358 322.893356 
L 322.528213 323.499794 
L 323.100069 323.499794 
L 323.671924 322.893356 
L 324.243779 322.893356 
L 324.815634 322.286918 
L 325.387423 322.286918 
L 325.959278 321.68048 
L 329.962199 321.68048 
L 330.534054 321.074042 
L 331.105909 321.68048 
L 331.677764 321.074042 
L 336.824394 321.074042 
L 337.39625 321.68048 
L 338.53996 321.68048 
L 339.111815 321.074042 
L 339.68367 321.074042 
L 340.255525 321.68048 
L 362.557612 321.68048 
L 363.129468 321.074042 
L 363.701323 321.074042 
L 364.273178 320.467603 
L 365.416822 320.467603 
L 365.988677 319.251535 
L 366.560533 320.467603 
L 367.132388 319.251535 
L 367.704243 318.645097 
L 368.276098 318.645097 
L 370.563453 316.219344 
L 372.279018 312.577524 
L 372.850873 311.971086 
L 373.994583 309.542141 
L 374.566439 308.935703 
L 375.138294 307.722827 
L 375.710149 307.116388 
L 376.282004 305.903512 
L 377.425648 304.690636 
L 379.141214 304.690636 
L 379.713069 304.081006 
L 380.856779 304.081006 
L 381.428569 304.690636 
L 382.000424 304.690636 
L 384.859699 307.722827 
L 385.431555 308.935703 
L 386.00341 309.542141 
L 386.575265 310.758209 
L 387.14712 311.364647 
L 388.290764 313.7904 
L 388.86262 314.396838 
L 389.434475 315.612906 
L 390.00633 316.219344 
L 390.578185 317.432221 
L 392.29375 319.251535 
L 392.86554 320.467603 
L 393.437395 320.467603 
L 394.00925 321.074042 
L 395.15296 321.074042 
L 395.724815 321.68048 
L 396.296671 321.68048 
L 396.868526 322.893356 
L 397.440315 322.893356 
L 398.01217 323.499794 
L 400.871446 323.499794 
L 401.443301 324.106232 
L 404.302577 324.106232 
L 404.874366 324.712671 
L 408.305497 324.712671 
L 408.877352 324.106232 
L 409.449141 324.106232 
L 410.020996 324.712671 
L 410.592852 324.106232 
L 411.164707 324.712671 
L 426.674312 324.712671 
L 426.674312 324.712671 
" clip-path="url(#p2a3a119427)" style="fill: none; stroke: #17045c; stroke-width: 0.5; stroke-linecap: square"/>
   </g>
   <g id="line2d_33">
    <path d="M 29.994713 251.744331 
L 31.194825 251.744331 
L 32.394937 252.502327 
L 33.595049 256.294915 
L 34.795162 257.054216 
L 35.995274 257.054216 
L 40.795723 260.087504 
L 43.195947 260.087504 
L 44.39606 259.329508 
L 46.796284 256.294915 
L 47.996396 255.536919 
L 49.196509 254.019623 
L 50.396621 253.261627 
L 51.596733 248.709738 
L 52.796845 248.709738 
L 53.996958 244.159154 
L 55.19707 234.298685 
L 56.397182 230.506096 
L 57.597294 222.161619 
L 58.797407 208.508561 
L 59.997519 186.512331 
L 61.197631 175.892561 
L 62.397743 163.7568 
L 63.597856 164.514796 
L 64.797968 167.549388 
L 67.198192 176.651862 
L 68.398305 196.3728 
L 69.598417 219.886327 
L 70.798529 229.746796 
L 71.998641 241.124561 
L 73.198754 249.469039 
L 74.398866 253.261627 
L 75.598978 254.019623 
L 76.79909 261.6048 
L 79.199315 264.639393 
L 80.399427 266.914685 
L 81.599539 267.672681 
L 82.799652 269.189977 
L 83.999764 269.947973 
L 87.600101 269.947973 
L 88.800213 271.465269 
L 90.000325 272.22457 
L 96.000893 272.22457 
L 97.201005 273.740561 
L 100.801342 273.740561 
L 102.001454 272.982565 
L 104.401679 272.982565 
L 105.601791 272.22457 
L 106.801903 272.22457 
L 108.002015 273.740561 
L 110.40224 272.22457 
L 115.202689 272.22457 
L 116.402801 271.465269 
L 117.602913 271.465269 
L 120.003138 269.947973 
L 121.20325 269.947973 
L 122.403362 269.189977 
L 123.603475 266.914685 
L 124.803587 265.397388 
L 126.003699 265.397388 
L 127.203811 263.880092 
L 128.403924 263.122096 
L 129.604036 259.329508 
L 130.804148 256.294915 
L 132.00426 252.502327 
L 133.204373 251.744331 
L 134.404485 251.744331 
L 135.604597 245.67645 
L 136.804709 240.366565 
L 138.004822 239.60857 
L 140.405046 239.60857 
L 141.605158 242.641858 
L 142.805271 247.951742 
L 144.005383 249.469039 
L 145.205495 258.570207 
L 146.405607 263.122096 
L 147.60572 265.397388 
L 148.805832 269.189977 
L 150.005944 271.465269 
L 153.606281 273.740561 
L 154.806393 272.982565 
L 156.006505 272.982565 
L 157.206618 273.740561 
L 158.40673 275.257858 
L 159.606842 275.257858 
L 160.806954 276.017158 
L 162.007067 275.257858 
L 163.207179 275.257858 
L 164.407291 276.017158 
L 165.607403 276.017158 
L 166.807516 276.775154 
L 168.007628 276.017158 
L 170.407852 276.017158 
L 171.607965 275.257858 
L 175.208301 277.53315 
L 176.408414 276.775154 
L 177.608526 276.775154 
L 178.808638 277.53315 
L 181.208863 277.53315 
L 182.408975 275.257858 
L 183.609087 273.740561 
L 184.809199 274.499862 
L 186.009312 276.775154 
L 187.209424 277.53315 
L 198.010434 277.53315 
L 199.210546 278.29245 
L 200.410659 278.29245 
L 201.610771 277.53315 
L 202.810883 277.53315 
L 204.010995 276.775154 
L 207.611332 276.775154 
L 210.011557 273.740561 
L 211.211669 269.947973 
L 212.411781 266.914685 
L 213.6119 263.122096 
L 214.812012 254.777619 
L 217.212237 250.227035 
L 218.412349 250.227035 
L 219.612461 250.98503 
L 220.812573 253.261627 
L 222.012686 254.777619 
L 223.212798 257.054216 
L 224.41291 257.812212 
L 225.613022 261.6048 
L 226.813135 263.122096 
L 228.013247 265.397388 
L 229.213359 264.639393 
L 230.413471 264.639393 
L 231.613584 266.155384 
L 232.813696 266.914685 
L 234.013808 268.431981 
L 236.414033 266.914685 
L 237.614145 266.914685 
L 240.014369 265.397388 
L 241.214482 263.880092 
L 242.414594 264.639393 
L 243.614706 264.639393 
L 244.814818 265.397388 
L 246.014931 265.397388 
L 247.215043 266.155384 
L 248.415155 266.155384 
L 249.615267 267.672681 
L 250.81538 268.431981 
L 252.015492 268.431981 
L 253.215604 269.189977 
L 254.415716 270.707273 
L 255.615829 271.465269 
L 256.815941 271.465269 
L 258.016053 272.22457 
L 261.61639 272.22457 
L 264.016614 273.740561 
L 266.416839 273.740561 
L 267.616951 274.499862 
L 268.817063 274.499862 
L 270.017176 273.740561 
L 273.617512 273.740561 
L 274.817625 274.499862 
L 278.417962 274.499862 
L 279.618074 273.740561 
L 280.818186 273.740561 
L 283.218411 272.22457 
L 285.618635 272.22457 
L 288.01886 270.707273 
L 289.218972 271.465269 
L 292.819309 271.465269 
L 294.019421 270.707273 
L 295.219533 272.22457 
L 296.419645 272.22457 
L 297.619758 273.740561 
L 298.81987 273.740561 
L 300.019982 274.499862 
L 303.620319 274.499862 
L 304.820431 275.257858 
L 306.020543 275.257858 
L 307.220656 277.53315 
L 309.62088 277.53315 
L 310.820992 276.775154 
L 312.021105 276.775154 
L 313.221217 276.017158 
L 314.421329 278.29245 
L 315.621441 279.050446 
L 316.821554 279.050446 
L 318.021666 279.808442 
L 321.622003 279.808442 
L 322.822115 280.567742 
L 324.022227 280.567742 
L 325.222339 279.050446 
L 326.422452 279.050446 
L 327.622564 280.567742 
L 328.822676 280.567742 
L 330.022788 279.808442 
L 331.222901 279.808442 
L 332.423013 280.567742 
L 333.623125 280.567742 
L 334.823244 281.325738 
L 336.023356 281.325738 
L 337.223468 280.567742 
L 339.623693 282.085039 
L 346.824366 282.085039 
L 348.024479 282.843035 
L 349.224591 282.843035 
L 350.424703 282.085039 
L 352.824928 282.085039 
L 354.02504 282.843035 
L 367.226275 282.843035 
L 368.426387 283.60103 
L 369.626499 282.085039 
L 370.826611 282.085039 
L 373.226836 283.60103 
L 374.426948 282.843035 
L 376.827173 282.843035 
L 378.027285 282.085039 
L 380.427509 282.085039 
L 381.627622 281.325738 
L 382.827734 279.050446 
L 384.027846 277.53315 
L 385.227958 275.257858 
L 386.428071 269.947973 
L 388.828295 266.914685 
L 390.028407 266.914685 
L 391.22852 266.155384 
L 392.428632 266.155384 
L 393.628744 266.914685 
L 394.828856 269.189977 
L 398.429193 271.465269 
L 399.629305 274.499862 
L 400.829418 276.775154 
L 403.229642 279.808442 
L 404.429754 279.808442 
L 409.230203 282.843035 
L 410.430316 282.085039 
L 411.630428 282.085039 
L 412.83054 282.843035 
L 415.230765 282.843035 
L 416.430877 283.60103 
L 417.630989 282.843035 
L 418.831101 282.843035 
L 420.031214 283.60103 
L 424.831663 283.60103 
L 426.674312 284.76616 
L 426.674312 284.76616 
" clip-path="url(#p2a3a119427)" style="fill: none; stroke: #73005d; stroke-width: 0.5; stroke-linecap: square"/>
   </g>
   <g id="line2d_34">
    <path d="M 23.46121 163.552486 
L 23.634123 163.552486 
L 23.807036 153.328327 
L 24.152862 161.153285 
L 24.325775 171.385922 
L 24.498687 159.449258 
L 24.6716 170.995945 
L 24.844513 165.968643 
L 25.017426 175.107651 
L 25.190339 170.131216 
L 25.363252 172.496506 
L 25.536165 165.94321 
L 25.709078 172.038708 
L 25.881991 167.138572 
L 26.227817 171.326577 
L 26.40073 171.792853 
L 26.573643 162.959044 
L 26.746556 176.192802 
L 26.919468 176.8032 
L 27.092381 172.513462 
L 27.265294 173.852945 
L 27.438207 176.8032 
L 27.784033 166.316231 
L 27.956946 176.8032 
L 28.302772 176.8032 
L 28.475685 167.799836 
L 28.648598 176.8032 
L 28.821511 176.8032 
L 28.994424 172.674539 
L 29.167337 176.8032 
L 29.340249 174.242921 
L 29.513162 176.8032 
L 29.686075 175.243295 
L 29.858988 176.8032 
L 30.204814 176.8032 
L 30.377727 170.504236 
L 30.55064 176.8032 
L 30.723553 168.825643 
L 30.896466 176.8032 
L 31.069379 171.877631 
L 31.588118 176.8032 
L 31.76103 168.656088 
L 32.106856 176.8032 
L 32.279769 176.8032 
L 32.625595 170.199038 
L 32.798508 176.8032 
L 32.971421 175.616316 
L 33.144334 168.961287 
L 33.317247 176.8032 
L 33.49016 176.8032 
L 33.663073 174.743108 
L 33.835986 176.8032 
L 34.008899 169.147797 
L 34.181811 173.657957 
L 34.354724 170.394026 
L 34.527637 176.8032 
L 34.70055 176.8032 
L 34.873463 174.777019 
L 35.046376 176.8032 
L 35.219289 176.8032 
L 35.392202 170.877257 
L 35.565115 176.8032 
L 35.738028 170.11426 
L 35.910941 176.8032 
L 36.083854 176.303013 
L 36.256767 171.012901 
L 36.42968 176.8032 
L 36.602592 172.55585 
L 36.775505 176.8032 
L 36.948418 176.8032 
L 37.294244 171.402877 
L 37.467157 175.472194 
L 37.64007 171.216367 
L 37.812983 172.776272 
L 37.985896 176.8032 
L 38.158809 168.64761 
L 38.504635 176.8032 
L 38.677548 165.061525 
L 39.023373 174.88723 
L 39.196286 163.08621 
L 39.369199 169.537774 
L 39.542112 163.357498 
L 39.715025 176.8032 
L 39.887938 168.545877 
L 40.060851 169.520818 
L 40.233764 175.370461 
L 40.406677 167.833747 
L 40.57959 170.199038 
L 40.752503 164.841103 
L 40.925416 165.41759 
L 41.271242 174.166622 
L 41.444154 157.974131 
L 41.617067 173.666435 
L 41.78998 172.861049 
L 41.962893 172.979738 
L 42.481632 159.135582 
L 42.654545 176.489523 
L 42.827458 165.858433 
L 43.000371 162.857311 
L 43.173284 170.97899 
L 43.346197 162.959044 
L 43.51911 163.755952 
L 43.692023 172.123485 
L 43.864935 165.536278 
L 44.037848 167.308127 
L 44.210761 161.806071 
L 44.383674 171.157023 
L 44.7295 156.142938 
L 44.902413 161.305884 
L 45.248239 162.619935 
L 45.421152 163.459231 
L 45.594065 159.33057 
L 45.766978 169.503863 
L 45.939891 150.895215 
L 46.112804 161.763682 
L 46.285716 150.149173 
L 46.631542 162.162136 
L 46.804455 156.795725 
L 46.977368 156.524437 
L 47.323194 149.962663 
L 47.496107 162.204525 
L 47.66902 153.31985 
L 47.841933 155.371464 
L 48.014846 152.048188 
L 48.187759 152.972262 
L 48.360672 152.599241 
L 48.706497 148.139948 
L 48.87941 150.132218 
L 49.052323 144.536907 
L 49.398149 150.055918 
L 49.571062 154.939099 
L 49.743975 152.395775 
L 50.089801 139.399394 
L 50.262714 158.414974 
L 50.435627 139.492649 
L 50.60854 152.582286 
L 50.781453 155.557974 
L 50.954366 146.266367 
L 51.127278 149.055544 
L 51.300191 144.350397 
L 51.473104 145.630536 
L 51.646017 154.091324 
L 51.81893 143.265245 
L 51.991843 139.908059 
L 52.164756 145.732269 
L 52.337669 132.252656 
L 52.510582 151.030859 
L 52.856408 135.88113 
L 53.029321 141.17972 
L 53.202234 137.907311 
L 53.375147 144.969272 
L 53.548059 138.941596 
L 53.720972 145.579669 
L 53.893885 133.96516 
L 54.066798 151.386924 
L 54.239711 128.683526 
L 54.412624 144.257141 
L 54.585537 140.586278 
L 54.75845 143.019391 
L 54.931363 133.481929 
L 55.104276 134.473825 
L 55.277189 143.188946 
L 55.623015 132.99022 
L 55.795928 136.678038 
L 55.96884 146.393533 
L 56.141753 132.65111 
L 56.314666 146.758076 
L 56.487573 120.867046 
L 56.660479 143.044824 
L 56.833385 129.387179 
L 57.006292 141.145809 
L 57.179198 125.936737 
L 57.35217 131.413359 
L 57.525077 129.260013 
L 57.697983 141.467964 
L 57.870889 128.268116 
L 58.043796 141.281453 
L 58.389608 122.104797 
L 58.562515 137.50038 
L 58.735421 131.269238 
L 58.908393 136.084596 
L 59.0813 133.015653 
L 59.254206 132.405255 
L 59.427112 128.878514 
L 59.600019 128.064651 
L 59.772925 133.948205 
L 59.945831 123.122126 
L 60.118738 125.038096 
L 60.291644 112.66059 
L 60.46455 132.685021 
L 60.637457 118.773043 
L 60.810429 134.414481 
L 60.983335 113.330332 
L 61.156241 129.980621 
L 61.329148 128.132473 
L 61.502054 119.434307 
L 61.674961 123.681657 
L 61.847867 119.01042 
L 62.020773 127.979873 
L 62.19368 124.732897 
L 62.366652 112.991222 
L 62.539558 127.411864 
L 62.712464 114.271361 
L 62.885371 128.539404 
L 63.058277 118.111779 
L 63.231183 118.315245 
L 63.40409 135.669187 
L 63.576996 118.535667 
L 63.922809 120.621192 
L 64.095715 124.292055 
L 64.268687 118.874776 
L 64.441594 118.128735 
L 64.6145 124.57182 
L 64.787406 112.177359 
L 64.960313 132.922398 
L 65.133219 113.949207 
L 65.479032 124.546387 
L 65.651938 114.135718 
L 65.82491 128.107039 
L 65.997817 120.81618 
L 66.170723 119.747984 
L 66.343629 127.072755 
L 66.516536 119.722551 
L 66.689442 119.942972 
L 66.862348 120.612714 
L 67.035255 117.399649 
L 67.208161 123.435803 
L 67.381067 113.092955 
L 67.553974 128.776781 
L 67.726946 110.524199 
L 67.899852 130.718184 
L 68.245665 120.934868 
L 68.418571 128.429194 
L 68.591478 117.204661 
L 68.764384 126.419968 
L 68.93729 119.824284 
L 69.110197 143.663699 
L 69.283169 121.68091 
L 69.456075 131.269238 
L 69.628982 126.123247 
L 69.801888 132.20179 
L 69.974794 123.011915 
L 70.147701 130.099309 
L 70.320607 124.46161 
L 70.493513 134.516214 
L 70.66642 134.600991 
L 70.839326 135.61832 
L 71.012232 120.163393 
L 71.185204 137.296914 
L 71.358111 134.134715 
L 71.531017 136.203285 
L 71.703924 129.929754 
L 71.87683 138.856819 
L 72.049736 132.328956 
L 72.222643 132.091579 
L 72.395549 147.775405 
L 72.568455 134.872279 
L 72.741427 133.744739 
L 72.914334 136.593261 
L 73.08724 148.852079 
L 73.260146 130.167131 
L 73.433053 146.054423 
L 73.605959 139.34005 
L 73.778865 138.983985 
L 73.951772 144.29953 
L 74.124678 130.28582 
L 74.297585 156.049683 
L 74.470557 133.990594 
L 74.643463 146.783509 
L 74.816369 138.314243 
L 74.989276 149.140322 
L 75.335088 141.85794 
L 75.507995 144.511474 
L 75.680901 143.528055 
L 75.853807 148.792734 
L 76.026714 140.12848 
L 76.19962 147.665194 
L 76.372592 145.181215 
L 76.545499 149.479432 
L 76.718405 149.971141 
L 76.891311 143.858687 
L 77.064218 143.918032 
L 77.237124 153.16725 
L 77.41003 150.259384 
L 77.582937 142.476815 
L 77.755843 147.800838 
L 77.928815 149.013156 
L 78.101722 157.991086 
L 78.274628 145.850957 
L 78.447534 156.075116 
L 78.620441 151.836244 
L 78.793347 153.040084 
L 78.966253 148.826645 
L 79.13916 160.992208 
L 79.312066 151.759945 
L 79.484972 151.7769 
L 79.657879 150.344161 
L 79.830851 161.076985 
L 80.003757 157.550244 
L 80.176664 149.140322 
L 80.34957 153.599615 
L 80.522476 147.41934 
L 80.868289 159.25427 
L 81.041195 154.727155 
L 81.214102 153.786125 
L 81.387074 160.390288 
L 81.55998 154.532167 
L 81.732887 155.557974 
L 81.905793 152.395775 
L 82.078699 154.388045 
L 82.251606 163.035344 
L 82.424512 155.218864 
L 82.597418 152.760318 
L 82.770325 159.016893 
L 82.943231 158.194552 
L 83.116137 154.947576 
L 83.289109 160.051178 
L 83.462016 158.762561 
L 83.634922 158.898205 
L 83.807829 149.242055 
L 83.980735 162.950567 
L 84.153641 159.881623 
L 84.326548 154.718677 
L 84.499454 157.516333 
L 84.67236 165.612578 
L 84.845332 162.967522 
L 85.018239 163.442276 
L 85.191145 160.653098 
L 85.364051 160.347899 
L 85.536958 157.160268 
L 85.709864 158.482796 
L 85.88277 155.464719 
L 86.055677 154.811932 
L 86.228583 163.654219 
L 86.40149 166.765551 
L 86.574396 159.211882 
L 86.747368 161.517828 
L 86.920274 162.153659 
L 87.093181 159.754457 
L 87.266087 161.221107 
L 87.438993 154.082847 
L 87.6119 162.976 
L 87.784806 155.880128 
L 87.957712 157.126357 
L 88.130619 163.84073 
L 88.303591 153.599615 
L 88.476497 159.635769 
L 88.649404 171.072245 
L 88.82231 150.683271 
L 89.341029 166.604474 
L 89.513935 155.337553 
L 89.859748 160.822653 
L 90.205627 154.099802 
L 90.378533 156.965279 
L 90.551439 154.778021 
L 90.724346 158.177597 
L 91.070158 160.076611 
L 91.243065 159.991834 
L 91.415971 160.152911 
L 91.588877 157.982609 
L 91.76185 164.171362 
L 91.934756 155.964906 
L 92.280569 157.787621 
L 92.453475 151.030859 
L 92.799288 162.501246 
L 92.972194 152.556853 
L 93.1451 160.034223 
L 93.318007 154.235446 
L 93.490913 160.90743 
L 93.663885 157.651977 
L 93.836792 159.440781 
L 94.009698 152.573808 
L 94.182604 153.404627 
L 94.355511 156.855069 
L 94.528417 162.8997 
L 94.701323 150.445894 
L 94.87423 160.339421 
L 95.047136 154.235446 
L 95.220042 153.591137 
L 95.393014 162.687757 
L 95.565921 153.285939 
L 95.911733 159.194926 
L 96.08464 156.62617 
L 96.257546 149.606598 
L 96.430453 160.059656 
L 96.603359 152.64163 
L 96.949237 163.111644 
L 97.122144 150.700227 
L 97.29505 148.173859 
L 97.467956 154.761066 
L 97.640863 153.981114 
L 97.813769 152.429686 
L 97.986675 155.964906 
L 98.332488 154.744111 
L 98.505395 154.142191 
L 98.678301 148.02126 
L 98.851273 158.084342 
L 99.024179 148.775779 
L 99.197086 157.906309 
L 99.369992 148.224726 
L 99.542898 157.058535 
L 100.234524 149.394654 
L 100.580402 156.575303 
L 100.753309 143.765432 
L 100.926215 153.226594 
L 101.099121 154.184579 
L 101.444934 146.715687 
L 101.61784 148.385803 
L 101.790747 147.41934 
L 101.963653 147.368473 
L 102.136625 153.472449 
L 102.482438 142.629415 
L 102.655344 153.311372 
L 102.828251 147.707583 
L 103.001157 146.444399 
L 103.174063 149.064022 
L 103.34697 145.961168 
L 103.519876 139.958925 
L 103.692782 142.993958 
L 103.865755 154.159146 
L 104.211567 142.731147 
L 104.384474 145.859435 
L 104.55738 145.367726 
L 104.730286 154.133713 
L 105.076099 139.704593 
L 105.249005 141.544263 
L 105.421912 145.622058 
L 105.594818 143.528055 
L 105.76779 142.892225 
L 105.940697 141.027121 
L 106.113603 141.501875 
L 106.286509 140.6541 
L 106.459416 143.392412 
L 106.805228 137.534291 
L 106.978135 141.968151 
L 107.151041 141.349275 
L 107.323947 138.517709 
L 107.496919 141.925762 
L 107.669826 133.626051 
L 107.842732 141.188198 
L 108.015638 133.532795 
L 108.188545 136.03373 
L 108.361451 141.222109 
L 108.534358 131.582914 
L 108.707264 137.110403 
L 108.88017 134.558602 
L 109.053142 144.274097 
L 109.226049 130.404508 
L 109.398955 132.778276 
L 109.571861 127.098188 
L 109.744768 138.509231 
L 109.917674 140.035225 
L 110.09058 131.565959 
L 110.263487 130.565585 
L 110.436393 135.575932 
L 110.609299 126.962544 
L 110.782272 134.066893 
L 111.128084 124.732897 
L 111.300991 137.144314 
L 111.473897 130.328208 
L 111.646803 132.218745 
L 111.81971 131.837247 
L 111.992616 131.989846 
L 112.165522 135.491154 
L 112.338429 125.088963 
L 112.511335 136.279584 
L 112.857214 121.180723 
L 113.03012 135.397899 
L 113.203026 127.386431 
L 113.375933 125.495894 
L 113.548839 127.547508 
L 113.721745 122.20653 
L 113.894652 123.724046 
L 114.067558 133.210641 
L 114.413437 118.154168 
L 114.586343 125.402639 
L 114.759249 127.08971 
L 114.932156 124.342921 
L 115.105062 113.745741 
L 115.277968 124.919408 
L 115.450875 124.012289 
L 115.623781 118.018524 
L 115.796687 118.840865 
L 115.96966 117.908314 
L 116.488379 112.855578 
L 116.661285 118.866299 
L 116.834191 120.205782 
L 117.007098 109.795113 
L 117.35291 119.959928 
L 117.525817 110.422466 
L 117.698723 113.728786 
L 117.871695 113.610097 
L 118.044601 100.859571 
L 118.217508 109.388181 
L 118.563321 112.686023 
L 118.736227 105.471463 
L 118.909133 118.832388 
L 119.08204 108.684528 
L 119.427852 102.953573 
L 119.600824 109.489914 
L 119.773731 105.36973 
L 119.946637 106.91268 
L 120.119543 93.806088 
L 120.465356 113.71183 
L 120.638263 111.287196 
L 120.811169 89.719815 
L 120.984075 112.889489 
L 121.157047 98.138215 
L 121.50286 103.462238 
L 121.848673 100.316995 
L 122.021579 103.928514 
L 122.194485 102.843363 
L 122.367392 100.495028 
L 122.540298 99.748986 
L 122.713204 95.696625 
L 122.886177 101.046081 
L 123.231989 90.516723 
L 123.404896 101.147814 
L 123.577802 98.528191 
L 123.923615 84.522958 
L 124.269427 102.224487 
L 124.442334 98.867301 
L 124.788212 82.590033 
L 124.961119 96.357889 
L 125.134025 94.018031 
L 125.306931 94.026509 
L 125.479838 82.886754 
L 125.82565 98.460369 
L 126.171463 83.954949 
L 126.344369 79.18198 
L 126.517342 83.386941 
L 126.690248 94.441919 
L 126.863154 92.48356 
L 127.036061 78.113784 
L 127.381873 89.092462 
L 127.55478 82.869798 
L 127.727686 84.302537 
L 127.900592 79.29219 
L 128.073565 83.268252 
L 128.246471 79.529567 
L 128.419377 73.188215 
L 128.76519 88.939863 
L 129.111003 72.823672 
L 129.456815 80.767318 
L 129.629722 79.343057 
L 129.802694 63.226866 
L 130.148506 82.810454 
L 130.321413 79.071769 
L 130.494319 65.609112 
L 130.667226 78.84287 
L 130.840132 80.57233 
L 131.013038 81.182727 
L 131.185945 74.849853 
L 131.358851 77.876407 
L 131.877636 71.02639 
L 132.050542 69.695384 
L 132.223448 74.035989 
L 132.396355 68.491545 
L 132.569261 59.013427 
L 132.742167 74.375099 
L 132.915074 76.731912 
L 133.260887 56.707481 
L 133.433859 64.439183 
L 133.606765 65.99061 
L 133.779671 64.26115 
L 134.125484 68.110046 
L 134.29839 67.126628 
L 134.471297 61.768694 
L 134.644203 65.854966 
L 134.990082 54.308279 
L 135.335894 67.355527 
L 135.508801 54.621956 
L 135.681707 52.494042 
L 136.02752 70.57707 
L 136.546239 55.910573 
L 136.719145 56.995724 
L 136.892117 56.59727 
L 137.065024 64.727426 
L 137.23793 58.530196 
L 137.410836 59.954457 
L 137.583743 52.697508 
L 137.756649 60.140967 
L 137.929555 60.903964 
L 138.102462 59.784902 
L 138.275368 52.434698 
L 138.448274 65.719322 
L 138.621247 53.960692 
L 138.794153 51.400413 
L 138.967059 46.3392 
L 139.139966 55.045843 
L 139.312872 55.817318 
L 139.485778 55.673196 
L 139.831591 53.918303 
L 140.004497 54.816944 
L 140.17747 53.231606 
L 140.523282 57.224623 
L 140.696189 56.953335 
L 140.869095 54.605 
L 141.042001 55.681674 
L 141.387814 55.825795 
L 141.56072 54.443923 
L 141.733627 57.64851 
L 141.906599 53.036618 
L 142.079505 51.408891 
L 142.252411 56.105561 
L 142.425318 52.985751 
L 142.771131 53.875914 
L 142.944037 59.750991 
L 143.116943 57.470478 
L 143.28985 53.095962 
L 143.462756 53.223128 
L 143.635662 60.2427 
L 143.808634 60.361388 
L 144.154447 50.51025 
L 144.327353 53.384205 
L 144.50026 68.516978 
L 144.673166 69.593651 
L 144.846072 63.650753 
L 145.018979 47.873672 
L 145.191885 53.935258 
L 145.364792 77.749241 
L 145.537764 61.276985 
L 145.71067 66.304287 
L 145.883576 52.078633 
L 146.056483 61.768694 
L 146.229389 57.19919 
L 146.402295 69.271497 
L 146.575202 62.726679 
L 146.748108 61.226118 
L 146.921014 63.582931 
L 147.093987 63.947474 
L 147.266893 70.789013 
L 147.439799 61.166774 
L 147.612706 72.86606 
L 147.785612 64.75286 
L 147.958518 63.252299 
L 148.131425 73.179737 
L 148.477237 74.765075 
L 148.650144 58.369119 
L 148.823116 69.068031 
L 148.996022 68.542411 
L 149.168929 79.071769 
L 149.341835 76.892989 
L 149.687648 63.659231 
L 149.860554 73.374725 
L 150.03346 70.712714 
L 150.206367 70.560114 
L 150.379273 71.882642 
L 150.552179 70.356648 
L 150.725152 76.748867 
L 150.898058 73.476458 
L 151.070964 73.188215 
L 151.243871 80.801229 
L 151.416777 73.510369 
L 151.589683 78.825914 
L 151.76259 73.501891 
L 151.935496 81.496404 
L 152.108402 77.350787 
L 152.454281 83.217386 
L 152.627187 76.129992 
L 152.800094 83.174997 
L 152.973 83.581929 
L 153.145906 76.274114 
L 153.318813 84.175371 
L 153.491719 83.675184 
L 153.664625 81.377715 
L 153.837532 84.531436 
L 154.010504 81.114905 
L 154.18341 86.05743 
L 154.356316 85.311388 
L 154.529223 86.549139 
L 154.702129 84.048205 
L 154.875035 88.337943 
L 155.047942 83.607362 
L 155.220848 84.311015 
L 155.566661 93.450023 
L 155.739567 93.890865 
L 155.912539 87.956445 
L 156.258352 93.399156 
L 156.431258 87.905578 
L 156.604165 93.839999 
L 156.777071 93.331334 
L 156.949977 92.186839 
L 157.122884 85.311388 
L 157.29579 87.557991 
L 157.468696 100.189829 
L 157.641669 91.449275 
L 157.814575 90.788011 
L 158.160388 93.441545 
L 158.333294 93.780655 
L 158.5062 91.398409 
L 158.679107 96.010301 
L 158.852013 97.120886 
L 159.024919 90.618456 
L 159.197892 97.426084 
L 159.716611 90.321735 
L 160.062423 106.336193 
L 160.408236 93.238079 
L 160.581142 100.876526 
L 160.754049 93.255034 
L 160.927021 95.959435 
L 161.099927 96.205289 
L 161.272834 91.949462 
L 161.44574 93.204168 
L 161.618646 102.546642 
L 161.791553 102.080366 
L 161.964459 90.355646 
L 162.137365 98.138215 
L 162.310272 99.375965 
L 162.483178 94.535174 
L 162.656084 93.712833 
L 163.001963 97.714328 
L 163.174869 98.290814 
L 163.347776 100.215262 
L 163.520682 97.799105 
L 163.693588 99.443787 
L 163.866495 96.400277 
L 164.039401 106.302282 
L 164.212307 101.851467 
L 164.385214 93.865432 
L 164.558186 93.661966 
L 164.903999 103.936992 
L 165.076905 103.580926 
L 165.422718 96.798731 
L 165.595624 93.899343 
L 165.76853 100.452639 
L 165.941437 95.63728 
L 166.114409 111.558483 
L 166.287315 91.940984 
L 166.460221 105.267997 
L 166.633128 98.078871 
L 166.806034 99.927019 
L 166.97894 100.308517 
L 167.151847 91.491664 
L 167.324753 105.759707 
L 167.49766 105.886873 
L 167.670566 104.903454 
L 167.843538 97.129363 
L 168.016444 97.680417 
L 168.189351 98.64688 
L 168.362257 106.361626 
L 168.535163 101.402146 
L 168.70807 100.088096 
L 168.880976 101.291936 
L 169.053882 91.932506 
L 169.226789 102.258398 
L 169.572601 108.387807 
L 169.91848 101.783645 
L 170.091386 95.934001 
L 170.437199 107.107668 
L 170.783012 95.560981 
L 170.955918 103.682659 
L 171.301731 94.908194 
L 171.820516 110.532676 
L 171.993422 100.469594 
L 172.166328 97.349785 
L 172.339235 101.334324 
L 172.512141 100.944348 
L 172.857954 98.070393 
L 173.203832 102.410998 
L 173.376739 99.045333 
L 173.722551 108.930383 
L 173.895458 103.00444 
L 174.068364 105.005187 
L 174.24127 108.370852 
L 174.414177 105.191698 
L 174.587083 99.147066 
L 174.932962 105.751229 
L 175.105868 106.175116 
L 175.278774 108.41324 
L 175.451681 104.39479 
L 175.624587 95.86618 
L 175.797493 101.631045 
L 175.9704 101.113903 
L 176.143306 107.879143 
L 176.316212 96.349411 
L 176.489119 106.887247 
L 176.662091 102.987484 
L 176.834997 106.556615 
L 177.007903 105.819051 
L 177.18081 101.020648 
L 177.353716 105.284953 
L 177.526623 97.265007 
L 177.699529 111.473706 
L 177.872435 109.676424 
L 178.045342 110.168133 
L 178.218314 99.002945 
L 178.39122 98.341681 
L 178.564126 100.240695 
L 178.737033 108.04022 
L 178.909939 110.269866 
L 179.082845 108.548884 
L 179.428658 96.3918 
L 179.601565 100.690016 
L 179.774471 113.245554 
L 179.947443 111.634783 
L 180.120349 103.428327 
L 180.293256 107.726543 
L 180.466162 106.420971 
L 180.639068 108.031742 
L 180.984881 102.563597 
L 181.157787 104.386312 
L 181.330694 97.171752 
L 181.5036 111.244807 
L 181.676506 108.311507 
L 181.849479 109.142326 
L 182.022385 108.023264 
L 182.195291 99.053811 
L 182.368198 108.896472 
L 182.541104 108.625184 
L 182.71401 109.667947 
L 182.886917 103.682659 
L 183.059823 107.429822 
L 183.232729 101.224114 
L 183.405636 107.141579 
L 183.578608 108.362374 
L 183.751514 108.455629 
L 183.924421 105.284953 
L 184.097327 107.896098 
L 184.270233 100.715449 
L 184.44314 114.000074 
L 184.788952 96.196812 
L 184.961859 104.5813 
L 185.134831 105.132354 
L 185.307737 118.171124 
L 185.480644 107.472211 
L 185.65355 110.625932 
L 185.826456 105.386686 
L 186.172269 114.31375 
L 186.345175 105.217131 
L 186.518082 107.582422 
L 186.690988 105.89535 
L 186.86396 106.488793 
L 187.036867 107.989353 
L 187.382679 113.635531 
L 187.555586 108.286074 
L 187.728492 108.396285 
L 187.901398 107.862187 
L 188.247211 111.702605 
L 188.420117 105.810573 
L 188.593024 104.767811 
L 188.765996 109.184715 
L 188.938902 116.848596 
L 189.111808 111.066774 
L 189.284715 110.617454 
L 189.457621 107.70111 
L 189.630528 107.192445 
L 189.803434 113.26251 
L 189.97634 106.090339 
L 190.495125 117.458993 
L 190.840938 102.351654 
L 191.532563 120.265126 
L 191.705469 107.25179 
L 191.878376 112.007804 
L 192.051348 108.913427 
L 192.224254 112.363869 
L 192.397161 111.371973 
L 192.570067 112.431691 
L 192.742973 115.509112 
L 192.91588 114.559605 
L 193.088786 114.873281 
L 193.261692 109.642513 
L 193.434599 109.61708 
L 193.607505 110.592021 
L 193.780411 114.135718 
L 193.953384 109.998579 
L 194.12629 113.347287 
L 194.299196 112.694501 
L 194.472103 111.363495 
L 194.645009 112.864056 
L 194.817915 108.693006 
L 194.990822 113.347287 
L 195.163728 112.974267 
L 195.336634 115.10218 
L 195.509541 110.846353 
L 195.682513 115.144569 
L 195.855419 116.416231 
L 196.028326 120.248171 
L 196.201232 109.09146 
L 196.374138 117.069017 
L 196.547045 104.284579 
L 197.065764 120.672058 
L 197.238736 116.212765 
L 197.411642 108.803217 
L 197.584549 109.744246 
L 197.757455 113.830519 
L 197.930361 114.661338 
L 198.103268 118.188079 
L 198.276174 114.65286 
L 198.44908 117.967658 
L 198.621987 112.58429 
L 198.794893 115.636278 
L 198.967865 115.356513 
L 199.140772 110.100311 
L 199.313678 116.38232 
L 199.486584 112.168881 
L 199.659491 121.714821 
L 200.005303 111.08373 
L 200.17821 106.895724 
L 200.351116 119.205408 
L 200.524022 116.356886 
L 200.696929 121.062034 
L 201.042807 109.396659 
L 201.215713 118.4085 
L 201.38862 109.218626 
L 201.561526 122.342174 
L 201.734433 117.187705 
L 201.907339 117.314871 
L 202.080245 112.313003 
L 202.253217 114.449394 
L 202.426124 113.550753 
L 202.59903 120.307515 
L 202.771936 116.009299 
L 202.944843 119.493652 
L 203.117749 111.753471 
L 203.290655 109.913801 
L 203.636468 118.010046 
L 203.809374 117.09445 
L 203.982281 120.087094 
L 204.501066 115.949955 
L 204.846878 119.095198 
L 205.019785 114.958059 
L 205.192691 116.204287 
L 205.365597 119.256275 
L 205.538504 115.483679 
L 205.71141 117.230094 
L 205.884382 113.940729 
L 206.057289 115.390424 
L 206.230195 120.985735 
L 206.403101 115.220869 
L 206.576008 120.909435 
L 206.748914 116.509486 
L 207.094727 119.078242 
L 207.267633 115.526068 
L 207.440539 116.077121 
L 207.613512 114.678293 
L 207.786418 117.43356 
L 207.959324 122.452384 
L 208.132231 118.976509 
L 208.305137 119.434307 
L 208.478043 114.57656 
L 208.65095 113.092955 
L 208.823856 109.947712 
L 209.342575 124.673553 
L 210.034266 110.337688 
L 210.207173 121.129856 
L 210.380079 117.297916 
L 210.552985 122.443906 
L 210.898864 105.327342 
L 211.244676 118.238946 
L 211.417583 118.756088 
L 211.763396 109.913801 
L 211.936302 115.754967 
L 212.109208 116.085599 
L 212.282115 119.993839 
L 212.455021 110.473332 
L 212.800834 107.463733 
L 212.973806 111.465228 
L 213.146712 108.370852 
L 213.319618 113.491409 
L 213.492525 108.057175 
L 213.665431 110.329211 
L 214.011244 103.640271 
L 214.18415 110.515721 
L 214.357057 105.420597 
L 214.529963 107.853709 
L 214.702869 104.225235 
L 214.875841 97.739761 
L 215.048748 95.747491 
L 215.221654 91.508619 
L 215.39456 102.097321 
L 215.567467 95.984868 
L 215.740373 97.239574 
L 215.913279 85.599632 
L 216.086252 85.913308 
L 216.432064 95.518592 
L 216.777877 80.292564 
L 216.950783 82.318745 
L 217.12369 74.027511 
L 217.296596 87.074759 
L 217.469502 80.843617 
L 217.815315 80.402775 
L 218.161194 74.883764 
L 218.3341 72.815194 
L 218.507006 74.832897 
L 218.852819 73.035615 
L 219.025725 77.003199 
L 219.371538 70.814446 
L 219.544444 73.188215 
L 219.717351 73.154304 
L 219.890323 69.797117 
L 220.063229 70.305782 
L 220.236136 66.312764 
L 220.409042 71.89112 
L 220.754855 73.315381 
L 220.927761 74.103811 
L 221.100667 73.722313 
L 221.446546 72.035242 
L 221.792359 76.028259 
L 222.311078 81.682914 
L 222.483984 81.835513 
L 222.65689 81.369238 
L 223.002703 82.759588 
L 223.175609 86.05743 
L 223.348516 85.904831 
L 223.521488 84.895979 
L 223.694394 82.513733 
L 223.867301 88.176866 
L 224.040207 87.507124 
L 224.213113 83.403896 
L 224.38602 84.463614 
L 224.558926 82.4883 
L 224.731832 93.331334 
L 224.904804 86.616961 
L 225.077711 93.178735 
L 225.250617 85.837009 
L 225.59643 93.856954 
L 225.769336 94.374097 
L 225.942242 92.390305 
L 226.115149 98.316248 
L 226.288055 95.145571 
L 226.460962 89.092462 
L 226.633934 97.341307 
L 226.80684 86.727172 
L 226.979746 100.740882 
L 227.152653 96.451144 
L 227.325559 87.990356 
L 227.498465 104.589778 
L 227.671372 94.170631 
L 228.017184 108.023264 
L 228.190091 93.093957 
L 228.362997 107.506122 
L 228.535903 99.689642 
L 228.708876 102.74163 
L 228.881782 103.648748 
L 229.054688 99.825286 
L 229.400501 104.479567 
L 229.573407 99.689642 
L 229.746314 109.023638 
L 229.919286 110.252911 
L 230.092192 103.148561 
L 230.265099 101.003692 
L 230.438005 104.99671 
L 230.610911 112.050193 
L 230.783818 105.25952 
L 230.956724 107.2857 
L 231.302537 112.32148 
L 231.475443 111.812816 
L 231.821256 97.561728 
L 232.167134 111.329584 
L 232.512947 116.373842 
L 232.85876 107.946965 
L 233.031666 108.557362 
L 233.204572 114.161151 
L 233.377479 114.042462 
L 233.550385 112.219747 
L 233.723291 117.976135 
L 233.896264 104.937365 
L 234.06917 112.558857 
L 234.242076 109.744246 
L 234.414983 109.16776 
L 234.760795 114.924148 
L 234.933702 108.854083 
L 235.106674 110.803964 
L 235.27958 111.219374 
L 235.452486 113.203166 
L 235.625393 111.668694 
L 235.798299 114.483305 
L 235.971205 110.320733 
L 236.144112 112.601246 
L 236.317018 108.616706 
L 236.489925 116.899462 
L 236.662831 112.957311 
L 236.835737 116.026254 
L 237.008644 117.009673 
L 237.181616 110.057923 
L 237.354522 117.993091 
L 237.527428 105.056054 
L 237.700335 108.311507 
L 237.873241 118.501756 
L 238.046147 108.735395 
L 238.219054 116.585785 
L 238.39196 116.331453 
L 238.564867 114.796982 
L 238.737773 115.916044 
L 239.083651 105.039098 
L 239.256558 109.286448 
L 239.60237 108.625184 
L 239.948183 116.695996 
L 240.121089 113.610097 
L 240.293996 118.077868 
L 240.466968 118.849343 
L 240.639874 108.124997 
L 240.812781 104.403268 
L 241.158593 107.412867 
L 241.3315 115.814311 
L 241.677312 109.837501 
L 241.850219 109.820546 
L 242.023125 111.176985 
L 242.196031 105.691885 
L 242.368938 115.738011 
L 242.54191 113.177732 
L 242.714816 106.988979 
L 242.887723 115.288691 
L 243.060629 109.049071 
L 243.579348 112.872534 
L 243.752254 109.456003 
L 243.925227 112.872534 
L 244.098133 105.52233 
L 244.271039 105.412119 
L 244.443946 115.96691 
L 244.616852 106.83638 
L 244.789758 117.213139 
L 244.962665 116.874029 
L 245.135571 107.802843 
L 245.308477 116.22972 
L 245.481384 107.96392 
L 245.654356 106.370104 
L 245.827262 110.795486 
L 246.000169 109.583169 
L 246.173075 105.123876 
L 246.345981 118.586533 
L 246.518888 110.134222 
L 246.691794 112.931878 
L 246.8647 117.552248 
L 247.037607 112.58429 
L 247.210513 112.39778 
L 247.383419 113.635531 
L 247.556326 109.837501 
L 247.729298 109.464481 
L 248.07511 116.611219 
L 248.248017 110.261389 
L 248.420923 116.068643 
L 248.766736 108.124997 
L 248.939708 110.549632 
L 249.112614 102.309265 
L 249.285521 113.745741 
L 249.458427 116.772296 
L 249.631333 116.263631 
L 249.80424 117.238572 
L 249.977146 116.83164 
L 250.150052 116.848596 
L 250.322959 112.58429 
L 250.495865 113.923774 
L 250.668771 111.117641 
L 251.01465 117.365738 
L 251.187556 115.424335 
L 251.360463 118.934121 
L 251.533369 117.603115 
L 251.706275 113.160777 
L 251.879182 118.874776 
L 252.224994 114.152673 
L 252.570807 121.00269 
L 252.743713 115.263257 
L 252.916686 120.417726 
L 253.089592 118.340678 
L 253.262498 114.695249 
L 253.435405 117.628548 
L 253.608311 110.490288 
L 253.781217 112.991222 
L 253.954124 117.670937 
L 254.127096 116.594263 
L 254.300002 126.521701 
L 254.472909 118.773043 
L 254.645815 125.767182 
L 254.818721 117.942224 
L 254.991628 119.196931 
L 255.164534 124.512476 
L 255.33744 116.543397 
L 255.510347 117.085972 
L 255.683253 122.418473 
L 255.856159 117.323349 
L 256.029066 121.460488 
L 256.202038 119.188453 
L 256.374944 114.364617 
L 256.547851 123.028871 
L 256.720757 123.164515 
L 256.893663 119.959928 
L 257.06657 126.157158 
L 257.239476 120.544892 
L 257.412382 124.258144 
L 257.758195 121.485921 
L 257.931167 117.323349 
L 258.104074 119.849717 
L 258.27698 125.987603 
L 258.449886 119.451263 
L 258.622793 130.28582 
L 258.795699 125.283951 
L 258.968605 124.537909 
L 259.141512 125.88587 
L 259.314418 117.88288 
L 259.48739 120.824657 
L 259.660296 120.748358 
L 259.833203 122.562595 
L 260.006109 130.557107 
L 260.351922 119.866672 
L 260.524828 124.766808 
L 260.697735 123.986856 
L 261.043547 129.768677 
L 261.216454 124.38531 
L 261.38936 124.809197 
L 261.562332 118.832388 
L 261.735238 125.487417 
L 261.908145 124.537909 
L 262.081051 125.979126 
L 262.253957 131.650736 
L 262.426864 127.327087 
L 262.59977 130.073876 
L 262.772676 123.766435 
L 263.118555 128.878514 
L 263.291461 123.52058 
L 264.155993 130.955561 
L 264.328899 125.461983 
L 264.501806 125.368728 
L 264.674778 127.488164 
L 264.847684 127.666197 
L 265.020591 127.01341 
L 265.366403 128.166384 
L 265.53931 127.081232 
L 265.712216 127.929007 
L 265.885122 128.107039 
L 266.058029 129.183713 
L 266.230935 124.249666 
L 266.576748 128.717437 
L 266.74972 127.301654 
L 266.922626 132.405255 
L 267.095533 129.853455 
L 267.268439 134.126237 
L 267.441345 128.903947 
L 267.614252 127.666197 
L 267.787158 133.091953 
L 268.133037 127.01341 
L 268.305943 126.021514 
L 268.478849 129.938232 
L 268.651756 129.539778 
L 268.824662 134.617947 
L 268.997568 129.853455 
L 269.170475 133.541273 
L 269.516287 123.418847 
L 269.689194 131.125116 
L 269.8621 130.489285 
L 270.035072 128.55636 
L 270.207978 134.049938 
L 270.380885 130.675796 
L 270.553791 132.176356 
L 270.726698 129.844977 
L 270.899604 129.878888 
L 271.07251 129.522823 
L 271.245417 126.267369 
L 271.418323 127.988351 
L 271.591229 127.979873 
L 271.764136 129.455001 
L 271.937108 134.948579 
L 272.110014 129.514345 
L 272.28292 132.600244 
L 272.455827 129.234579 
L 272.628733 129.624556 
L 272.801639 131.760947 
L 272.974546 127.250787 
L 273.320424 130.557107 
L 273.493331 134.04146 
L 273.666237 130.879262 
L 273.839143 130.294297 
L 274.01205 132.167879 
L 274.184956 131.52357 
L 274.357862 126.30128 
L 274.703675 133.643006 
L 274.876581 124.682031 
L 275.22246 132.888487 
L 275.395366 127.539031 
L 275.568273 132.710454 
L 275.741179 127.776407 
L 276.086992 133.041086 
L 276.259898 126.513224 
L 276.432804 131.845724 
L 276.605711 131.345538 
L 276.778617 121.60461 
L 276.951589 134.702724 
L 277.124496 127.030366 
L 277.297402 127.657719 
L 277.470308 131.633781 
L 277.643215 132.337434 
L 277.816121 126.513224 
L 277.989027 135.321599 
L 278.161934 127.208399 
L 278.33484 128.903947 
L 278.507812 134.550125 
L 278.680719 130.023009 
L 278.853625 130.438419 
L 279.026531 132.456122 
L 279.199438 125.682405 
L 279.372344 123.944467 
L 279.718157 125.953692 
L 279.891063 130.13322 
L 280.236876 130.099309 
L 280.409782 132.973264 
L 280.582754 129.26849 
L 280.755661 131.93898 
L 280.928567 132.693499 
L 281.101473 122.31674 
L 281.27438 126.996455 
L 281.447286 122.604984 
L 281.620192 130.565585 
L 281.793099 128.886992 
L 281.966071 133.269985 
L 282.138977 133.236074 
L 282.48479 124.614209 
L 282.657696 125.733271 
L 283.003509 121.808076 
L 283.176415 129.073502 
L 283.522228 125.521327 
L 283.6952 132.218745 
L 283.868106 133.354763 
L 284.041013 124.707464 
L 284.213919 127.327087 
L 284.386825 128.174861 
L 284.559732 118.196557 
L 284.732638 133.236074 
L 284.905544 124.588776 
L 285.078451 123.834256 
L 285.424264 128.853081 
L 285.59717 122.664328 
L 285.770142 126.767556 
L 285.943048 125.495894 
L 286.115955 120.587281 
L 286.288861 126.759078 
L 286.461767 127.030366 
L 286.634674 122.020019 
L 286.80758 127.632286 
L 287.326365 120.392292 
L 287.499271 125.504372 
L 287.672178 118.984987 
L 287.845084 127.564464 
L 288.01799 124.173366 
L 288.190897 129.310879 
L 288.536709 123.842734 
L 288.709616 123.919034 
L 288.882522 125.538283 
L 289.055494 118.213512 
L 289.228401 120.92639 
L 289.401307 120.087094 
L 289.574213 124.258144 
L 289.74712 124.970274 
L 289.920026 127.776407 
L 290.265839 120.146438 
L 290.438745 120.604236 
L 290.611651 117.738759 
L 290.784558 123.232337 
L 290.95753 119.42583 
L 291.130436 123.096693 
L 291.303343 121.706343 
L 291.476249 126.428446 
L 291.649155 126.250413 
L 291.822062 123.079737 
L 291.994968 122.638895 
L 292.16794 129.844977 
L 292.340846 120.104049 
L 292.513753 118.764566 
L 292.686659 124.181844 
L 292.859566 123.78339 
L 293.032472 118.569578 
L 293.205378 125.055052 
L 293.378285 123.020393 
L 293.724097 126.725167 
L 293.897004 126.208025 
L 294.06991 125.105918 
L 294.242882 118.984987 
L 294.415788 124.351399 
L 294.934507 121.52831 
L 295.107414 126.869289 
L 295.28032 121.460488 
L 295.453227 126.572568 
L 295.626133 121.714821 
L 295.799039 120.765313 
L 295.972011 121.07899 
L 296.317824 123.978378 
L 296.49073 123.325592 
L 296.663637 123.59688 
L 296.836543 123.418847 
L 297.009449 124.359877 
L 297.182356 124.597253 
L 297.355262 123.308636 
L 297.528234 123.308636 
L 297.701141 123.876645 
L 298.046953 122.927138 
L 298.392766 123.85969 
L 298.565672 123.478191 
L 298.738579 124.698986 
L 298.911485 124.690509 
L 299.084391 124.800719 
L 299.257298 123.52058 
L 299.430204 123.622313 
L 299.603176 119.34953 
L 299.776083 123.410369 
L 299.948989 123.156037 
L 300.294802 127.581419 
L 300.467708 124.91093 
L 300.640614 131.515092 
L 300.813521 121.011168 
L 300.986493 124.639642 
L 301.159399 121.155289 
L 301.332306 125.928259 
L 301.505212 120.332948 
L 301.678118 130.633407 
L 301.851025 127.835752 
L 302.023931 127.098188 
L 302.196837 123.52058 
L 302.369744 130.73514 
L 302.54265 120.536414 
L 302.888529 124.317488 
L 303.061435 131.294671 
L 303.234341 123.130604 
L 303.407248 128.581793 
L 303.580154 129.844977 
L 303.925967 126.258891 
L 304.098873 132.269612 
L 304.271779 131.167505 
L 304.444686 124.995707 
L 304.617592 131.048816 
L 304.790564 126.479313 
L 304.963471 125.199173 
L 305.136377 127.496642 
L 305.309283 123.461236 
L 305.48219 127.191443 
L 305.655096 134.329703 
L 305.828002 131.243805 
L 306.000974 124.1225 
L 306.173881 132.557855 
L 306.519693 120.578803 
L 306.6926 123.885123 
L 306.865506 124.868541 
L 307.038412 129.34479 
L 307.211319 129.00568 
L 307.384225 139.00094 
L 307.557132 131.328582 
L 307.730038 129.378701 
L 307.902944 131.133594 
L 308.075916 127.844229 
L 308.248823 128.327461 
L 308.421729 131.913546 
L 308.594635 122.706717 
L 308.767542 124.783764 
L 308.940448 123.800345 
L 309.286261 131.913546 
L 309.459167 132.939353 
L 309.632073 126.386057 
L 309.977952 135.592887 
L 310.323765 124.927885 
L 310.496671 132.566333 
L 310.669577 134.592513 
L 310.842484 128.776781 
L 311.01539 132.591766 
L 311.188362 130.226475 
L 311.361269 130.896217 
L 311.534175 132.744365 
L 311.707081 132.023757 
L 311.879988 127.293176 
L 312.052894 132.252656 
L 312.2258 129.065024 
L 312.398707 136.618694 
L 312.571613 133.795605 
L 312.744519 134.812935 
L 312.917426 132.490033 
L 313.090332 132.235701 
L 313.263304 130.184087 
L 313.436211 137.754712 
L 313.609117 133.414107 
L 313.782023 136.042208 
L 313.95493 134.329703 
L 314.127836 129.226102 
L 314.300742 134.211015 
L 314.473649 131.67617 
L 314.646555 136.440662 
L 314.819461 132.922398 
L 314.992434 136.186329 
L 315.16534 130.116265 
L 315.338246 135.033356 
L 315.684059 132.4646 
L 315.856965 137.992089 
L 316.029872 139.535038 
L 316.548656 128.759826 
L 316.721563 135.584409 
L 316.894469 131.065772 
L 317.067376 131.616825 
L 317.240282 138.356632 
L 317.413188 137.737756 
L 317.586095 131.44727 
L 317.759001 139.763937 
L 317.931907 133.431062 
L 318.104814 139.814804 
L 318.27772 132.540899 
L 318.450626 132.854576 
L 318.623598 135.236822 
L 318.796505 134.957056 
L 318.969411 136.186329 
L 319.142317 141.612085 
L 319.661037 133.422585 
L 319.833943 136.567828 
L 320.006915 132.964787 
L 320.179821 137.229092 
L 320.352728 136.610216 
L 320.525634 137.229092 
L 320.69854 139.797848 
L 320.871447 139.975881 
L 321.044353 135.601365 
L 321.217259 139.26375 
L 321.390166 130.862306 
L 321.563072 137.110403 
L 321.736044 134.533169 
L 321.908951 140.815177 
L 322.081857 138.263376 
L 322.254763 139.636771 
L 322.42767 136.839116 
L 322.773482 138.21251 
L 322.946389 139.060284 
L 323.119295 135.965908 
L 323.292201 135.915041 
L 323.465108 139.713071 
L 323.638014 135.152044 
L 323.810986 137.203659 
L 323.983893 136.016774 
L 324.156799 139.204406 
L 324.502612 135.855697 
L 324.675518 139.696115 
L 324.848424 138.772041 
L 325.021397 137.076492 
L 325.194303 138.712697 
L 325.367209 142.069883 
L 325.540116 134.914668 
L 325.713022 138.28881 
L 325.885928 137.958178 
L 326.058835 144.189319 
L 326.231741 139.518083 
L 326.404647 139.026373 
L 326.577554 139.365483 
L 326.75046 138.763563 
L 326.923366 134.126237 
L 327.096339 132.803709 
L 327.269245 142.756581 
L 327.442151 136.728905 
L 327.96087 144.892972 
L 328.133777 142.680281 
L 328.306683 146.402011 
L 328.479589 140.365857 
L 328.652496 143.044824 
L 328.825402 136.067641 
L 328.998374 135.380944 
L 329.17128 137.220614 
L 329.344187 142.688759 
L 329.517093 140.8067 
L 329.69 137.568201 
L 329.862906 139.399394 
L 330.035812 144.960794 
L 330.208784 140.374335 
L 330.381691 132.600244 
L 330.727503 142.57007 
L 330.90041 139.068762 
L 331.073316 142.765058 
L 331.246222 143.24829 
L 331.764941 137.729279 
L 332.110754 142.519204 
L 332.283726 142.468337 
L 332.456633 145.715313 
L 332.802445 138.170121 
L 332.975352 139.382439 
L 333.148258 142.442904 
L 333.321164 142.146183 
L 333.494071 145.774658 
L 333.666977 142.290305 
L 333.839883 142.960047 
L 334.012856 140.009792 
L 334.185762 143.358501 
L 334.358668 139.611338 
L 334.531575 141.824029 
L 334.704481 139.433305 
L 334.877387 145.995079 
L 335.050294 138.644875 
L 335.2232 138.907685 
L 335.396106 142.773536 
L 335.569079 141.832507 
L 335.741985 142.273349 
L 335.914891 141.264498 
L 336.087798 146.673298 
L 336.260704 136.466095 
L 336.43361 145.749224 
L 336.606517 141.527308 
L 336.779423 142.358127 
L 336.952329 138.856819 
L 337.125236 141.527308 
L 337.298142 140.213258 
L 337.644021 141.942717 
L 337.816927 142.442904 
L 337.989833 144.816672 
L 338.335646 140.509979 
L 338.508552 140.874522 
L 339.027337 144.384308 
L 339.200244 142.875269 
L 339.37315 143.468711 
L 339.546056 138.009044 
L 339.891869 141.51883 
L 340.064775 147.317607 
L 340.410588 141.603608 
L 340.583494 147.037841 
L 340.929373 139.535038 
L 341.102279 140.05218 
L 341.275185 139.916537 
L 341.448092 144.265619 
L 341.620998 145.749224 
L 341.793905 142.214005 
L 341.966811 145.138827 
L 342.48553 141.145809 
L 342.658436 135.050312 
L 342.831408 143.231334 
L 343.004315 144.579296 
L 343.177221 145.045572 
L 343.350127 142.256394 
L 343.523034 149.843975 
L 344.041819 140.747355 
L 344.387631 145.121871 
L 344.560538 141.654474 
L 344.733444 145.486414 
L 344.90635 146.207022 
L 345.079257 148.029737 
L 345.252163 139.475694 
L 345.425069 139.314617 
L 345.597976 144.460607 
L 345.770882 146.096812 
L 345.943788 143.782388 
L 346.289667 149.318354 
L 346.63548 142.510726 
L 346.808386 146.249411 
L 346.981292 145.655969 
L 347.154199 141.417097 
L 347.500011 143.689133 
L 347.672918 147.970393 
L 347.84589 145.87639 
L 348.018796 147.148052 
L 348.364609 146.656343 
L 348.537515 145.282948 
L 348.883328 139.085718 
L 349.056234 145.325337 
L 349.229207 141.306887 
L 349.402113 140.874522 
L 349.575019 147.105663 
L 349.747926 145.647491 
L 349.920832 146.707209 
L 350.093738 146.834376 
L 350.266645 147.800838 
L 350.439551 147.817794 
L 350.785364 144.689506 
L 350.95827 146.376577 
L 351.131176 146.673298 
L 351.304148 144.943839 
L 351.649961 145.647491 
L 351.822868 146.902197 
L 351.995774 145.130349 
L 352.16868 144.689506 
L 352.514493 146.376577 
L 352.687399 144.452129 
L 352.860306 146.647865 
L 353.033278 143.926509 
L 353.37909 148.504491 
L 353.551997 146.639387 
L 353.724903 147.860183 
L 353.897809 146.571565 
L 354.070716 148.555358 
L 354.243622 145.715313 
L 354.416529 145.791613 
L 354.589501 145.147304 
L 354.762407 143.765432 
L 354.935313 144.935361 
L 355.10822 147.071752 
L 355.281126 144.333441 
L 355.626939 147.326085 
L 355.799845 147.665194 
L 356.145658 145.342293 
L 356.318564 149.52182 
L 356.491471 145.113394 
L 356.664443 146.190067 
L 356.837349 146.266367 
L 357.010255 142.654848 
L 357.183162 146.724165 
L 357.356068 145.893346 
L 357.528974 150.861304 
L 357.701881 143.358501 
L 358.047759 151.446268 
L 358.220666 145.308382 
L 358.393572 145.282948 
L 358.566478 143.502622 
L 358.739385 147.614328 
L 358.912291 145.76618 
L 359.085197 141.908806 
L 359.258104 146.74112 
L 359.43101 145.791613 
L 359.603916 148.250159 
L 359.776889 141.798596 
L 359.949795 149.41161 
L 360.122701 149.920274 
L 360.295608 145.944212 
L 360.468514 147.783883 
L 360.64142 147.936482 
L 360.814327 147.122619 
L 360.987233 147.122619 
L 361.160139 143.77391 
L 361.333046 147.766927 
L 361.505952 144.333441 
L 361.678858 143.358501 
L 361.851831 148.385803 
L 362.024737 148.038215 
L 362.197643 146.63091 
L 362.37055 147.190441 
L 362.543456 150.674793 
L 362.716362 151.709078 
L 362.889269 146.376577 
L 363.062241 146.410488 
L 363.235147 151.573434 
L 363.408053 149.326832 
L 363.58096 149.589642 
L 363.753866 145.003183 
L 363.926773 149.004678 
L 364.099679 145.359248 
L 364.272585 150.963037 
L 364.445492 148.73339 
L 364.618398 150.318728 
L 364.791304 150.140696 
L 364.964211 146.715687 
L 365.137183 148.173859 
L 365.310089 147.071752 
L 365.482995 148.012782 
L 365.655902 144.392785 
L 365.828808 144.367352 
L 366.001714 148.479058 
L 366.174621 149.623553 
L 366.347527 144.011287 
L 366.520434 148.724912 
L 366.69334 149.386176 
L 366.866312 154.684766 
L 367.212125 146.2155 
L 367.385031 155.846217 
L 367.557937 147.766927 
L 367.730844 150.445894 
L 367.90375 144.706462 
L 368.076656 148.301025 
L 368.249629 148.165381 
L 368.422535 143.706088 
L 368.595441 152.64163 
L 368.768348 148.699479 
L 368.941254 150.530672 
L 369.11416 148.792734 
L 369.287067 149.428565 
L 369.459973 151.429313 
L 369.632879 144.731895 
L 369.805786 151.556479 
L 369.978692 148.13147 
L 370.151598 150.284817 
L 370.324571 150.428939 
L 370.497477 148.224726 
L 370.670383 154.201535 
L 370.84329 152.71793 
L 371.016196 153.853947 
L 371.189102 146.393533 
L 371.362009 151.132592 
L 371.707821 145.537281 
L 372.0537 148.20777 
L 372.226606 153.557226 
L 372.399513 149.360743 
L 372.572419 152.692497 
L 372.745325 153.226594 
L 373.091138 148.580791 
L 373.264044 148.826645 
L 373.436951 148.707957 
L 373.609923 150.030485 
L 373.782829 148.580791 
L 373.955736 148.504491 
L 374.128642 149.021633 
L 374.301548 152.395775 
L 374.647361 144.56234 
L 374.993174 153.463971 
L 375.16608 150.395028 
L 375.511893 152.811185 
L 375.684865 151.7006 
L 376.030678 146.936108 
L 376.203584 147.877138 
L 376.37649 151.8532 
L 376.549397 148.504491 
L 376.722303 149.93723 
L 376.895209 148.80969 
L 377.241088 152.387298 
L 377.413994 154.947576 
L 377.5869 150.089829 
L 377.759807 150.886737 
L 377.932713 148.648613 
L 378.105619 150.140696 
L 378.278526 146.664821 
L 378.451432 145.477937 
L 378.624339 150.785004 
L 378.797311 150.225473 
L 378.970217 149.157277 
L 379.143123 151.522568 
L 379.31603 151.607345 
L 379.488936 152.166876 
L 379.661842 151.836244 
L 379.834749 154.532167 
L 380.180561 148.122993 
L 380.353468 147.020886 
L 380.526374 151.497135 
L 380.69928 145.121871 
L 380.872253 146.2918 
L 381.045159 148.691001 
L 381.218065 152.819663 
L 381.390972 150.216995 
L 381.563878 154.150668 
L 381.736784 150.352639 
L 381.909691 149.352265 
L 382.082663 149.93723 
L 382.255569 149.547254 
L 382.428476 153.184206 
L 382.601382 149.064022 
L 382.774288 148.173859 
L 382.947195 145.291426 
L 383.293007 150.361117 
L 383.465914 145.732269 
L 383.811726 151.225847 
L 383.984633 150.191562 
L 384.157605 146.842853 
L 384.330511 147.673672 
L 384.503418 149.470954 
L 384.676324 149.123366 
L 384.84923 146.707209 
L 385.022137 146.207022 
L 385.195043 147.198919 
L 385.367949 142.536159 
L 385.540856 144.104542 
L 385.713762 143.612833 
L 385.886734 144.672551 
L 386.059641 143.621311 
L 386.232547 143.282201 
L 386.405453 149.78463 
L 386.57836 143.392412 
L 386.751266 142.875269 
L 386.924172 140.493023 
L 387.097079 141.349275 
L 387.270051 143.104168 
L 387.442957 138.28881 
L 387.615863 136.618694 
L 387.78877 139.746982 
L 387.961676 139.670682 
L 388.134582 136.991715 
L 388.307489 132.218745 
L 388.480395 132.515466 
L 388.653302 131.430315 
L 388.826208 134.406003 
L 388.999114 130.480808 
L 389.172021 130.828395 
L 389.344927 132.981742 
L 389.517899 136.932371 
L 389.863712 122.443906 
L 390.036618 124.173366 
L 390.209524 130.540152 
L 390.555337 123.78339 
L 390.728243 129.327834 
L 390.901216 126.386057 
L 391.074122 129.853455 
L 391.247028 124.258144 
L 391.419935 125.411117 
L 391.592841 119.154542 
L 391.765747 123.961423 
L 391.938654 124.334443 
L 392.11156 117.24705 
L 392.284466 124.732897 
L 392.457373 124.317488 
L 392.630345 125.733271 
L 392.803251 123.791868 
L 392.976158 123.232337 
L 393.149064 119.502129 
L 393.32197 123.724046 
L 393.494877 123.986856 
L 393.667783 125.394161 
L 393.840689 125.69936 
L 394.013596 125.411117 
L 394.359408 126.776034 
L 394.532315 125.996081 
L 394.878193 127.115143 
L 395.0511 126.106292 
L 395.224006 126.021514 
L 395.396912 126.928633 
L 395.569819 126.843856 
L 395.742725 127.030366 
L 395.915697 127.886618 
L 396.088604 128.107039 
L 396.26151 128.810692 
L 396.434416 127.95444 
L 396.607323 130.718184 
L 396.780229 129.26849 
L 396.953135 131.328582 
L 397.126042 131.311627 
L 397.298948 130.243431 
L 397.471854 126.343669 
L 397.644761 130.311253 
L 397.817733 130.743618 
L 397.990639 124.741375 
L 398.509358 133.236074 
L 398.682265 125.309384 
L 398.855171 128.234206 
L 399.028077 124.631164 
L 399.200984 132.4646 
L 399.37389 132.583288 
L 399.546796 130.387552 
L 399.719703 131.286193 
L 399.892675 136.211762 
L 400.065581 132.922398 
L 400.238487 132.718932 
L 400.411394 135.024878 
L 400.5843 133.431062 
L 400.757207 133.312374 
L 400.930113 137.474946 
L 401.103085 131.794858 
L 401.275991 134.024505 
L 401.448898 138.144688 
L 401.621804 138.237943 
L 401.79471 135.898086 
L 401.967617 139.280706 
L 402.140523 137.195181 
L 402.313429 138.297287 
L 402.486336 145.003183 
L 402.832148 136.11003 
L 403.005055 145.605103 
L 403.178027 141.33232 
L 403.350933 141.730774 
L 403.52384 144.138453 
L 403.696746 143.188946 
L 403.869652 135.609843 
L 404.042559 143.307634 
L 404.215465 141.807073 
L 404.388371 142.620937 
L 404.561278 142.875269 
L 404.734184 143.358501 
L 405.080063 146.868286 
L 405.252969 143.867165 
L 405.598782 146.563088 
L 405.771688 146.868286 
L 405.944594 143.477189 
L 406.463379 149.157277 
L 406.809192 148.012782 
L 406.982098 147.826272 
L 407.155005 151.522568 
L 407.327911 145.893346 
L 407.500817 149.615075 
L 407.673724 149.242055 
L 408.019536 152.472075 
L 408.192443 154.845843 
L 408.365349 144.664073 
L 408.538321 146.503744 
L 408.884134 154.260879 
L 409.05704 149.064022 
L 409.229947 148.199292 
L 409.402853 151.310624 
L 409.575759 152.19231 
L 409.748666 151.149547 
L 409.921638 155.362986 
L 410.094544 149.301399 
L 410.26745 149.691375 
L 410.613263 155.049309 
L 410.78617 154.210013 
L 410.959076 156.948324 
L 411.131982 150.344161 
L 411.304889 151.386924 
L 411.477795 156.583781 
L 411.650767 153.514838 
L 411.823673 155.227342 
L 411.99658 149.615075 
L 412.169486 155.066265 
L 412.342392 155.049309 
L 412.515299 155.998817 
L 412.688205 150.742615 
L 412.861111 156.668558 
L 413.20699 150.46285 
L 413.379896 154.159146 
L 413.725709 147.733016 
L 413.898615 153.277461 
L 414.071522 151.937977 
L 414.244428 154.642378 
L 414.417334 154.871277 
L 414.590241 154.184579 
L 414.763147 156.388793 
L 415.10896 151.505612 
L 415.281932 156.312493 
L 415.454838 151.971888 
L 415.627745 152.217743 
L 415.800651 157.558721 
L 415.973557 152.048188 
L 416.146464 154.057413 
L 416.31937 153.777648 
L 416.492276 153.964158 
L 416.838089 153.192683 
L 417.010995 150.878259 
L 417.356808 154.430434 
L 417.52978 152.64163 
L 417.702687 147.453251 
L 417.875593 154.701722 
L 418.048499 149.191188 
L 418.221406 153.252028 
L 418.394312 142.010539 
L 418.394312 142.010539 
" clip-path="url(#p2a3a119427)" style="fill: none; stroke: #b20046; stroke-width: 0.5; stroke-linecap: square"/>
   </g>
   <g id="patch_3">
    <path d="M 23.410313 333.36 
L 23.410313 7.2 
" style="fill: none; stroke: #000000; stroke-width: 0.8; stroke-linejoin: miter; stroke-linecap: square"/>
   </g>
   <g id="patch_4">
    <path d="M 418.474312 333.36 
L 418.474312 7.2 
" style="fill: none; stroke: #000000; stroke-width: 0.8; stroke-linejoin: miter; stroke-linecap: square"/>
   </g>
   <g id="patch_5">
    <path d="M 23.410313 333.36 
L 418.474312 333.36 
" style="fill: none; stroke: #000000; stroke-width: 0.8; stroke-linejoin: miter; stroke-linecap: square"/>
   </g>
   <g id="patch_6">
    <path d="M 23.410313 7.2 
L 418.474312 7.2 
" style="fill: none; stroke: #000000; stroke-width: 0.8; stroke-linejoin: miter; stroke-linecap: square"/>
   </g>
   <g id="legend_1">
    <g id="patch_7">
     <path d="M 213.477437 59.234375 
L 411.474312 59.234375 
Q 413.474312 59.234375 413.474312 57.234375 
L 413.474312 14.2 
Q 413.474312 12.2 411.474312 12.2 
L 213.477437 12.2 
Q 211.477437 12.2 211.477437 14.2 
L 211.477437 57.234375 
Q 211.477437 59.234375 213.477437 59.234375 
z
" style="fill: #ffffff; opacity: 0.8; stroke: #cccccc; stroke-linejoin: miter"/>
    </g>
    <g id="line2d_35">
     <path d="M 215.477437 20.298438 
L 225.477437 20.298438 
L 235.477437 20.298438 
" style="fill: none; stroke: #b20046; stroke-width: 0.5; stroke-linecap: square"/>
    </g>
    <g id="text_9">
     <!-- This study -->
     <g transform="translate(243.477437 23.798438) scale(0.1 -0.1)">
      <defs>
       <path id="DejaVuSans-54" d="M -19 4666 
L 3928 4666 
L 3928 4134 
L 2272 4134 
L 2272 0 
L 1638 0 
L 1638 4134 
L -19 4134 
L -19 4666 
z
" transform="scale(0.015625)"/>
       <path id="DejaVuSans-68" d="M 3513 2113 
L 3513 0 
L 2938 0 
L 2938 2094 
Q 2938 2591 2744 2837 
Q 2550 3084 2163 3084 
Q 1697 3084 1428 2787 
Q 1159 2491 1159 1978 
L 1159 0 
L 581 0 
L 581 4863 
L 1159 4863 
L 1159 2956 
Q 1366 3272 1645 3428 
Q 1925 3584 2291 3584 
Q 2894 3584 3203 3211 
Q 3513 2838 3513 2113 
z
" transform="scale(0.015625)"/>
       <path id="DejaVuSans-75" d="M 544 1381 
L 544 3500 
L 1119 3500 
L 1119 1403 
Q 1119 906 1312 657 
Q 1506 409 1894 409 
Q 2359 409 2629 706 
Q 2900 1003 2900 1516 
L 2900 3500 
L 3475 3500 
L 3475 0 
L 2900 0 
L 2900 538 
Q 2691 219 2414 64 
Q 2138 -91 1772 -91 
Q 1169 -91 856 284 
Q 544 659 544 1381 
z
M 1991 3584 
L 1991 3584 
z
" transform="scale(0.015625)"/>
      </defs>
      <use xlink:href="#DejaVuSans-54"/>
      <use xlink:href="#DejaVuSans-68" x="61.083984"/>
      <use xlink:href="#DejaVuSans-69" x="124.462891"/>
      <use xlink:href="#DejaVuSans-73" x="152.246094"/>
      <use xlink:href="#DejaVuSans-20" x="204.345703"/>
      <use xlink:href="#DejaVuSans-73" x="236.132812"/>
      <use xlink:href="#DejaVuSans-74" x="288.232422"/>
      <use xlink:href="#DejaVuSans-75" x="327.441406"/>
      <use xlink:href="#DejaVuSans-64" x="390.820312"/>
      <use xlink:href="#DejaVuSans-79" x="454.296875"/>
     </g>
    </g>
    <g id="line2d_36">
     <path d="M 215.477437 34.976563 
L 225.477437 34.976563 
L 235.477437 34.976563 
" style="fill: none; stroke: #73005d; stroke-width: 0.5; stroke-linecap: square"/>
    </g>
    <g id="text_10">
     <!-- Phosphoric acid intercalated LDH -->
     <g transform="translate(243.477437 38.476563) scale(0.1 -0.1)">
      <defs>
       <path id="DejaVuSans-50" d="M 1259 4147 
L 1259 2394 
L 2053 2394 
Q 2494 2394 2734 2622 
Q 2975 2850 2975 3272 
Q 2975 3691 2734 3919 
Q 2494 4147 2053 4147 
L 1259 4147 
z
M 628 4666 
L 2053 4666 
Q 2838 4666 3239 4311 
Q 3641 3956 3641 3272 
Q 3641 2581 3239 2228 
Q 2838 1875 2053 1875 
L 1259 1875 
L 1259 0 
L 628 0 
L 628 4666 
z
" transform="scale(0.015625)"/>
       <path id="DejaVuSans-6f" d="M 1959 3097 
Q 1497 3097 1228 2736 
Q 959 2375 959 1747 
Q 959 1119 1226 758 
Q 1494 397 1959 397 
Q 2419 397 2687 759 
Q 2956 1122 2956 1747 
Q 2956 2369 2687 2733 
Q 2419 3097 1959 3097 
z
M 1959 3584 
Q 2709 3584 3137 3096 
Q 3566 2609 3566 1747 
Q 3566 888 3137 398 
Q 2709 -91 1959 -91 
Q 1206 -91 779 398 
Q 353 888 353 1747 
Q 353 2609 779 3096 
Q 1206 3584 1959 3584 
z
" transform="scale(0.015625)"/>
       <path id="DejaVuSans-70" d="M 1159 525 
L 1159 -1331 
L 581 -1331 
L 581 3500 
L 1159 3500 
L 1159 2969 
Q 1341 3281 1617 3432 
Q 1894 3584 2278 3584 
Q 2916 3584 3314 3078 
Q 3713 2572 3713 1747 
Q 3713 922 3314 415 
Q 2916 -91 2278 -91 
Q 1894 -91 1617 61 
Q 1341 213 1159 525 
z
M 3116 1747 
Q 3116 2381 2855 2742 
Q 2594 3103 2138 3103 
Q 1681 3103 1420 2742 
Q 1159 2381 1159 1747 
Q 1159 1113 1420 752 
Q 1681 391 2138 391 
Q 2594 391 2855 752 
Q 3116 1113 3116 1747 
z
" transform="scale(0.015625)"/>
       <path id="DejaVuSans-63" d="M 3122 3366 
L 3122 2828 
Q 2878 2963 2633 3030 
Q 2388 3097 2138 3097 
Q 1578 3097 1268 2742 
Q 959 2388 959 1747 
Q 959 1106 1268 751 
Q 1578 397 2138 397 
Q 2388 397 2633 464 
Q 2878 531 3122 666 
L 3122 134 
Q 2881 22 2623 -34 
Q 2366 -91 2075 -91 
Q 1284 -91 818 406 
Q 353 903 353 1747 
Q 353 2603 823 3093 
Q 1294 3584 2113 3584 
Q 2378 3584 2631 3529 
Q 2884 3475 3122 3366 
z
" transform="scale(0.015625)"/>
       <path id="DejaVuSans-61" d="M 2194 1759 
Q 1497 1759 1228 1600 
Q 959 1441 959 1056 
Q 959 750 1161 570 
Q 1363 391 1709 391 
Q 2188 391 2477 730 
Q 2766 1069 2766 1631 
L 2766 1759 
L 2194 1759 
z
M 3341 1997 
L 3341 0 
L 2766 0 
L 2766 531 
Q 2569 213 2275 61 
Q 1981 -91 1556 -91 
Q 1019 -91 701 211 
Q 384 513 384 1019 
Q 384 1609 779 1909 
Q 1175 2209 1959 2209 
L 2766 2209 
L 2766 2266 
Q 2766 2663 2505 2880 
Q 2244 3097 1772 3097 
Q 1472 3097 1187 3025 
Q 903 2953 641 2809 
L 641 3341 
Q 956 3463 1253 3523 
Q 1550 3584 1831 3584 
Q 2591 3584 2966 3190 
Q 3341 2797 3341 1997 
z
" transform="scale(0.015625)"/>
       <path id="DejaVuSans-6c" d="M 603 4863 
L 1178 4863 
L 1178 0 
L 603 0 
L 603 4863 
z
" transform="scale(0.015625)"/>
       <path id="DejaVuSans-4c" d="M 628 4666 
L 1259 4666 
L 1259 531 
L 3531 531 
L 3531 0 
L 628 0 
L 628 4666 
z
" transform="scale(0.015625)"/>
       <path id="DejaVuSans-44" d="M 1259 4147 
L 1259 519 
L 2022 519 
Q 2988 519 3436 956 
Q 3884 1394 3884 2338 
Q 3884 3275 3436 3711 
Q 2988 4147 2022 4147 
L 1259 4147 
z
M 628 4666 
L 1925 4666 
Q 3281 4666 3915 4102 
Q 4550 3538 4550 2338 
Q 4550 1131 3912 565 
Q 3275 0 1925 0 
L 628 0 
L 628 4666 
z
" transform="scale(0.015625)"/>
       <path id="DejaVuSans-48" d="M 628 4666 
L 1259 4666 
L 1259 2753 
L 3553 2753 
L 3553 4666 
L 4184 4666 
L 4184 0 
L 3553 0 
L 3553 2222 
L 1259 2222 
L 1259 0 
L 628 0 
L 628 4666 
z
" transform="scale(0.015625)"/>
      </defs>
      <use xlink:href="#DejaVuSans-50"/>
      <use xlink:href="#DejaVuSans-68" x="60.302734"/>
      <use xlink:href="#DejaVuSans-6f" x="123.681641"/>
      <use xlink:href="#DejaVuSans-73" x="184.863281"/>
      <use xlink:href="#DejaVuSans-70" x="236.962891"/>
      <use xlink:href="#DejaVuSans-68" x="300.439453"/>
      <use xlink:href="#DejaVuSans-6f" x="363.818359"/>
      <use xlink:href="#DejaVuSans-72" x="425"/>
      <use xlink:href="#DejaVuSans-69" x="466.113281"/>
      <use xlink:href="#DejaVuSans-63" x="493.896484"/>
      <use xlink:href="#DejaVuSans-20" x="548.876953"/>
      <use xlink:href="#DejaVuSans-61" x="580.664062"/>
      <use xlink:href="#DejaVuSans-63" x="641.943359"/>
      <use xlink:href="#DejaVuSans-69" x="696.923828"/>
      <use xlink:href="#DejaVuSans-64" x="724.707031"/>
      <use xlink:href="#DejaVuSans-20" x="788.183594"/>
      <use xlink:href="#DejaVuSans-69" x="819.970703"/>
      <use xlink:href="#DejaVuSans-6e" x="847.753906"/>
      <use xlink:href="#DejaVuSans-74" x="911.132812"/>
      <use xlink:href="#DejaVuSans-65" x="950.341797"/>
      <use xlink:href="#DejaVuSans-72" x="1011.865234"/>
      <use xlink:href="#DejaVuSans-63" x="1050.728516"/>
      <use xlink:href="#DejaVuSans-61" x="1105.708984"/>
      <use xlink:href="#DejaVuSans-6c" x="1166.988281"/>
      <use xlink:href="#DejaVuSans-61" x="1194.771484"/>
      <use xlink:href="#DejaVuSans-74" x="1256.050781"/>
      <use xlink:href="#DejaVuSans-65" x="1295.259766"/>
      <use xlink:href="#DejaVuSans-64" x="1356.783203"/>
      <use xlink:href="#DejaVuSans-20" x="1420.259766"/>
      <use xlink:href="#DejaVuSans-4c" x="1452.046875"/>
      <use xlink:href="#DejaVuSans-44" x="1507.759766"/>
      <use xlink:href="#DejaVuSans-48" x="1584.761719"/>
     </g>
    </g>
    <g id="line2d_37">
     <path d="M 215.477437 49.654688 
L 225.477437 49.654688 
L 235.477437 49.654688 
" style="fill: none; stroke: #17045c; stroke-width: 0.5; stroke-linecap: square"/>
    </g>
    <g id="text_11">
     <!-- M-S-H Nied 2016 -->
     <g transform="translate(243.477437 53.154688) scale(0.1 -0.1)">
      <defs>
       <path id="DejaVuSans-4d" d="M 628 4666 
L 1569 4666 
L 2759 1491 
L 3956 4666 
L 4897 4666 
L 4897 0 
L 4281 0 
L 4281 4097 
L 3078 897 
L 2444 897 
L 1241 4097 
L 1241 0 
L 628 0 
L 628 4666 
z
" transform="scale(0.015625)"/>
       <path id="DejaVuSans-2d" d="M 313 2009 
L 1997 2009 
L 1997 1497 
L 313 1497 
L 313 2009 
z
" transform="scale(0.015625)"/>
       <path id="DejaVuSans-53" d="M 3425 4513 
L 3425 3897 
Q 3066 4069 2747 4153 
Q 2428 4238 2131 4238 
Q 1616 4238 1336 4038 
Q 1056 3838 1056 3469 
Q 1056 3159 1242 3001 
Q 1428 2844 1947 2747 
L 2328 2669 
Q 3034 2534 3370 2195 
Q 3706 1856 3706 1288 
Q 3706 609 3251 259 
Q 2797 -91 1919 -91 
Q 1588 -91 1214 -16 
Q 841 59 441 206 
L 441 856 
Q 825 641 1194 531 
Q 1563 422 1919 422 
Q 2459 422 2753 634 
Q 3047 847 3047 1241 
Q 3047 1584 2836 1778 
Q 2625 1972 2144 2069 
L 1759 2144 
Q 1053 2284 737 2584 
Q 422 2884 422 3419 
Q 422 4038 858 4394 
Q 1294 4750 2059 4750 
Q 2388 4750 2728 4690 
Q 3069 4631 3425 4513 
z
" transform="scale(0.015625)"/>
       <path id="DejaVuSans-4e" d="M 628 4666 
L 1478 4666 
L 3547 763 
L 3547 4666 
L 4159 4666 
L 4159 0 
L 3309 0 
L 1241 3903 
L 1241 0 
L 628 0 
L 628 4666 
z
" transform="scale(0.015625)"/>
      </defs>
      <use xlink:href="#DejaVuSans-4d"/>
      <use xlink:href="#DejaVuSans-2d" x="86.279297"/>
      <use xlink:href="#DejaVuSans-53" x="122.363281"/>
      <use xlink:href="#DejaVuSans-2d" x="185.839844"/>
      <use xlink:href="#DejaVuSans-48" x="221.923828"/>
      <use xlink:href="#DejaVuSans-20" x="297.119141"/>
      <use xlink:href="#DejaVuSans-4e" x="328.90625"/>
      <use xlink:href="#DejaVuSans-69" x="403.710938"/>
      <use xlink:href="#DejaVuSans-65" x="431.494141"/>
      <use xlink:href="#DejaVuSans-64" x="493.017578"/>
      <use xlink:href="#DejaVuSans-20" x="556.494141"/>
      <use xlink:href="#DejaVuSans-32" x="588.28125"/>
      <use xlink:href="#DejaVuSans-30" x="651.904297"/>
      <use xlink:href="#DejaVuSans-31" x="715.527344"/>
      <use xlink:href="#DejaVuSans-36" x="779.150391"/>
     </g>
    </g>
   </g>
  </g>
 </g>
 <defs>
  <clipPath id="p2a3a119427">
   <rect x="23.410313" y="7.2" width="395.064" height="326.16"/>
  </clipPath>
 </defs>
</svg>
