<svg xmlns="http://www.w3.org/2000/svg" xmlns:xlink="http://www.w3.org/1999/xlink" width="365.41" height="192.94" viewBox="0 0 365.41 192.94"><defs><style>.cls-1,.cls-13,.cls-6,.cls-7,.cls-8,.cls-9{fill:none;}.cls-2{fill:#fff;}.cls-3,.cls-4,.cls-8,.cls-9{stroke:#000;}.cls-3,.cls-4,.cls-6,.cls-7,.cls-8{stroke-linejoin:round;}.cls-3,.cls-9{stroke-width:0.8px;}.cls-4{stroke-width:0.6px;}.cls-5{clip-path:url(#clip-path);}.cls-6{stroke:#4db758;}.cls-6,.cls-7,.cls-8,.cls-9{stroke-linecap:square;}.cls-7{stroke:#145092;}.cls-10{fill:#478d02;}.cls-11{fill:#8d026a;}.cls-12{fill:#565656;}.cls-13{stroke:#565656;stroke-miterlimit:10;stroke-width:0.75px;}.cls-14{fill:#4db758;}.cls-15{fill:#145092;}</style><clipPath id="clip-path"><rect class="cls-1" x="23.41" y="22.32" width="334.8" height="135.9"/></clipPath></defs><g id="Layer_1" data-name="Layer 1"><g id="figure_1" data-name="figure 1"><g id="patch_1" data-name="patch 1"><path class="cls-2" d="M0,192.94H365.41V0H0Z"/></g><g id="axes_1" data-name="axes 1"><g id="patch_2" data-name="patch 2"><path class="cls-2" d="M23.41,158.22h334.8V22.32H23.41Z"/></g><g id="matplotlib.axis_1" data-name="matplotlib.axis 1"><g id="xtick_1" data-name="xtick 1"><g id="line2d_1" data-name="line2d 1"><path id="m5b14c03ee3" class="cls-3" d="M51.31,158.22v3.5"/></g><g id="text_1" data-name="text 1"><path id="DejaVuSans-31" d="M47.21,170.63H48.5v-4.45l-1.4.28v-.71l1.39-.29h.79v5.17h1.29v.67H47.21Z"/><path id="DejaVuSans-30" d="M53.85,166a1,1,0,0,0-.91.6,5.41,5.41,0,0,0,0,3.61,1,1,0,0,0,1.83,0,5.41,5.41,0,0,0,0-3.61A1,1,0,0,0,53.85,166Zm0-.62a1.68,1.68,0,0,1,1.5.78,4,4,0,0,1,.52,2.25,4,4,0,0,1-.52,2.25,1.84,1.84,0,0,1-3,0,4,4,0,0,1-.52-2.25,4,4,0,0,1,.52-2.25A1.67,1.67,0,0,1,53.85,165.36Z"/></g></g><g id="xtick_2" data-name="xtick 2"><g id="line2d_2" data-name="line2d 2"><path id="m5b14c03ee3-2" data-name="m5b14c03ee3" class="cls-3" d="M107.11,158.22v3.5"/></g><g id="text_2" data-name="text 2"><path id="DejaVuSans-32" d="M103.56,170.63h2.75v.67h-3.7v-.67l1.22-1.24c.52-.53.84-.86,1-1a3.47,3.47,0,0,0,.52-.72,1.27,1.27,0,0,0,.16-.58.94.94,0,0,0-.33-.75,1.21,1.21,0,0,0-.85-.3,2.77,2.77,0,0,0-.78.13,5.06,5.06,0,0,0-.88.39v-.79a5.1,5.1,0,0,1,.89-.29,3,3,0,0,1,.75-.1,2.19,2.19,0,0,1,1.45.45,1.5,1.5,0,0,1,.54,1.21,1.81,1.81,0,0,1-.14.69,3.23,3.23,0,0,1-.49.75c-.06.08-.27.3-.62.66Z"/><path id="DejaVuSans-30-2" data-name="DejaVuSans-30" d="M109.65,166a1,1,0,0,0-.91.6,5.41,5.41,0,0,0,0,3.61,1,1,0,0,0,1.83,0,5.41,5.41,0,0,0,0-3.61A1,1,0,0,0,109.65,166Zm0-.62a1.68,1.68,0,0,1,1.5.78,4,4,0,0,1,.52,2.25,4,4,0,0,1-.52,2.25,1.84,1.84,0,0,1-3,0,4,4,0,0,1-.52-2.25,4,4,0,0,1,.52-2.25A1.67,1.67,0,0,1,109.65,165.36Z"/></g></g><g id="xtick_3" data-name="xtick 3"><g id="line2d_3" data-name="line2d 3"><path id="m5b14c03ee3-3" data-name="m5b14c03ee3" class="cls-3" d="M162.91,158.22v3.5"/></g><g id="text_3" data-name="text 3"><path id="DejaVuSans-33" d="M161.07,168.15a1.5,1.5,0,0,1,.88.51,1.43,1.43,0,0,1,.32.94,1.63,1.63,0,0,1-.59,1.34,2.7,2.7,0,0,1-1.69.47,4,4,0,0,1-.76-.07,5.35,5.35,0,0,1-.8-.22v-.76a2.86,2.86,0,0,0,.72.29,3.61,3.61,0,0,0,.82.1,1.83,1.83,0,0,0,1.13-.3,1,1,0,0,0,.38-.85,1,1,0,0,0-.36-.8,1.51,1.51,0,0,0-1-.3h-.68v-.64h.71a1.43,1.43,0,0,0,.89-.24.8.8,0,0,0,.31-.67.82.82,0,0,0-.32-.69,1.49,1.49,0,0,0-.91-.24,4.48,4.48,0,0,0-.7.07,6.21,6.21,0,0,0-.81.22v-.7a8.18,8.18,0,0,1,.84-.19,4.91,4.91,0,0,1,.74-.06,2.26,2.26,0,0,1,1.42.41,1.32,1.32,0,0,1,.52,1.1,1.26,1.26,0,0,1-.27.82A1.45,1.45,0,0,1,161.07,168.15Z"/><path id="DejaVuSans-30-3" data-name="DejaVuSans-30" d="M165.45,166a1,1,0,0,0-.91.6,5.41,5.41,0,0,0,0,3.61,1,1,0,0,0,1.83,0,5.41,5.41,0,0,0,0-3.61A1,1,0,0,0,165.45,166Zm0-.62a1.68,1.68,0,0,1,1.5.78,4,4,0,0,1,.52,2.25,4,4,0,0,1-.52,2.25,1.84,1.84,0,0,1-3,0,4,4,0,0,1-.52-2.25,4,4,0,0,1,.52-2.25A1.67,1.67,0,0,1,165.45,165.36Z"/></g></g><g id="xtick_4" data-name="xtick 4"><g id="line2d_4" data-name="line2d 4"><path id="m5b14c03ee3-4" data-name="m5b14c03ee3" class="cls-3" d="M218.71,158.22v3.5"/></g><g id="text_4" data-name="text 4"><path id="DejaVuSans-34" d="M216.64,166.15l-2,3.12h2Zm-.2-.69h1v3.81h.83v.65h-.83v1.38h-.79v-1.38H214v-.76Z"/><path id="DejaVuSans-30-4" data-name="DejaVuSans-30" d="M221.25,166a1,1,0,0,0-.91.6,5.41,5.41,0,0,0,0,3.61,1,1,0,0,0,1.83,0,5.41,5.41,0,0,0,0-3.61A1,1,0,0,0,221.25,166Zm0-.62a1.68,1.68,0,0,1,1.5.78,4,4,0,0,1,.52,2.25,4,4,0,0,1-.52,2.25,1.84,1.84,0,0,1-3,0,4,4,0,0,1-.52-2.25,4,4,0,0,1,.52-2.25A1.67,1.67,0,0,1,221.25,165.36Z"/></g></g><g id="xtick_5" data-name="xtick 5"><g id="line2d_5" data-name="line2d 5"><path id="m5b14c03ee3-5" data-name="m5b14c03ee3" class="cls-3" d="M274.51,158.22v3.5"/></g><g id="text_5" data-name="text 5"><path id="DejaVuSans-35" d="M270.28,165.46h3.1v.67H271v1.43a1.89,1.89,0,0,1,.34-.09,2,2,0,0,1,.34,0,2.17,2.17,0,0,1,1.55.54,1.88,1.88,0,0,1,.57,1.45,1.86,1.86,0,0,1-.58,1.46,2.43,2.43,0,0,1-1.66.52,4.93,4.93,0,0,1-.75-.06,6.3,6.3,0,0,1-.78-.19v-.79a3.16,3.16,0,0,0,.72.28,3.44,3.44,0,0,0,.8.1,1.54,1.54,0,0,0,1.07-.36,1.39,1.39,0,0,0,0-1.93,1.53,1.53,0,0,0-1.07-.35,2.7,2.7,0,0,0-.63.07,3.5,3.5,0,0,0-.65.21Z"/><path id="DejaVuSans-30-5" data-name="DejaVuSans-30" d="M277.05,166a1,1,0,0,0-.91.6,5.41,5.41,0,0,0,0,3.61,1,1,0,0,0,1.83,0,5.41,5.41,0,0,0,0-3.61A1,1,0,0,0,277.05,166Zm0-.62a1.68,1.68,0,0,1,1.5.78,4,4,0,0,1,.52,2.25,4,4,0,0,1-.52,2.25,1.84,1.84,0,0,1-3,0,4,4,0,0,1-.52-2.25,4,4,0,0,1,.52-2.25A1.67,1.67,0,0,1,277.05,165.36Z"/></g></g><g id="xtick_6" data-name="xtick 6"><g id="line2d_6" data-name="line2d 6"><path id="m5b14c03ee3-6" data-name="m5b14c03ee3" class="cls-3" d="M330.31,158.22v3.5"/></g><g id="text_6" data-name="text 6"><path id="DejaVuSans-36" d="M327.86,168.07a1.06,1.06,0,0,0-.84.36,1.75,1.75,0,0,0,0,2,1.07,1.07,0,0,0,.84.37,1,1,0,0,0,.84-.37,1.75,1.75,0,0,0,0-2A1,1,0,0,0,327.86,168.07Zm1.57-2.48v.72a3.57,3.57,0,0,0-.6-.21,2.47,2.47,0,0,0-.6-.08,1.45,1.45,0,0,0-1.2.53,2.86,2.86,0,0,0-.47,1.59,1.69,1.69,0,0,1,.58-.52,1.65,1.65,0,0,1,.77-.18,1.83,1.83,0,0,1,1.39.54,2.27,2.27,0,0,1,0,2.89,1.91,1.91,0,0,1-1.42.54,1.79,1.79,0,0,1-1.55-.77,4,4,0,0,1-.53-2.25,3.44,3.44,0,0,1,.66-2.21,2.11,2.11,0,0,1,1.76-.82,3.21,3.21,0,0,1,.6.06A6,6,0,0,1,329.43,165.59Z"/><path id="DejaVuSans-30-6" data-name="DejaVuSans-30" d="M332.85,166a1,1,0,0,0-.91.6,5.41,5.41,0,0,0,0,3.61,1,1,0,0,0,1.83,0,5.41,5.41,0,0,0,0-3.61A1,1,0,0,0,332.85,166Zm0-.62a1.68,1.68,0,0,1,1.5.78,4,4,0,0,1,.52,2.25,4,4,0,0,1-.52,2.25,1.84,1.84,0,0,1-3,0,4,4,0,0,1-.52-2.25,4,4,0,0,1,.52-2.25A1.67,1.67,0,0,1,332.85,165.36Z"/></g></g><g id="xtick_7" data-name="xtick 7"><g id="line2d_7" data-name="line2d 7"><path id="mfa0b0ac612" class="cls-4" d="M23.41,158.22v2"/></g></g><g id="xtick_8" data-name="xtick 8"><g id="line2d_8" data-name="line2d 8"><path id="mfa0b0ac612-2" data-name="mfa0b0ac612" class="cls-4" d="M37.36,158.22v2"/></g></g><g id="xtick_9" data-name="xtick 9"><g id="line2d_9" data-name="line2d 9"><path id="mfa0b0ac612-3" data-name="mfa0b0ac612" class="cls-4" d="M65.26,158.22v2"/></g></g><g id="xtick_10" data-name="xtick 10"><g id="line2d_10" data-name="line2d 10"><path id="mfa0b0ac612-4" data-name="mfa0b0ac612" class="cls-4" d="M79.21,158.22v2"/></g></g><g id="xtick_11" data-name="xtick 11"><g id="line2d_11" data-name="line2d 11"><path id="mfa0b0ac612-5" data-name="mfa0b0ac612" class="cls-4" d="M93.16,158.22v2"/></g></g><g id="xtick_12" data-name="xtick 12"><g id="line2d_12" data-name="line2d 12"><path id="mfa0b0ac612-6" data-name="mfa0b0ac612" class="cls-4" d="M121.06,158.22v2"/></g></g><g id="xtick_13" data-name="xtick 13"><g id="line2d_13" data-name="line2d 13"><path id="mfa0b0ac612-7" data-name="mfa0b0ac612" class="cls-4" d="M135,158.22v2"/></g></g><g id="xtick_14" data-name="xtick 14"><g id="line2d_14" data-name="line2d 14"><path id="mfa0b0ac612-8" data-name="mfa0b0ac612" class="cls-4" d="M149,158.22v2"/></g></g><g id="xtick_15" data-name="xtick 15"><g id="line2d_15" data-name="line2d 15"><path id="mfa0b0ac612-9" data-name="mfa0b0ac612" class="cls-4" d="M176.86,158.22v2"/></g></g><g id="xtick_16" data-name="xtick 16"><g id="line2d_16" data-name="line2d 16"><path id="mfa0b0ac612-10" data-name="mfa0b0ac612" class="cls-4" d="M190.81,158.22v2"/></g></g><g id="xtick_17" data-name="xtick 17"><g id="line2d_17" data-name="line2d 17"><path id="mfa0b0ac612-11" data-name="mfa0b0ac612" class="cls-4" d="M204.76,158.22v2"/></g></g><g id="xtick_18" data-name="xtick 18"><g id="line2d_18" data-name="line2d 18"><path id="mfa0b0ac612-12" data-name="mfa0b0ac612" class="cls-4" d="M232.66,158.22v2"/></g></g><g id="xtick_19" data-name="xtick 19"><g id="line2d_19" data-name="line2d 19"><path id="mfa0b0ac612-13" data-name="mfa0b0ac612" class="cls-4" d="M246.61,158.22v2"/></g></g><g id="xtick_20" data-name="xtick 20"><g id="line2d_20" data-name="line2d 20"><path id="mfa0b0ac612-14" data-name="mfa0b0ac612" class="cls-4" d="M260.56,158.22v2"/></g></g><g id="xtick_21" data-name="xtick 21"><g id="line2d_21" data-name="line2d 21"><path id="mfa0b0ac612-15" data-name="mfa0b0ac612" class="cls-4" d="M288.46,158.22v2"/></g></g><g id="xtick_22" data-name="xtick 22"><g id="line2d_22" data-name="line2d 22"><path id="mfa0b0ac612-16" data-name="mfa0b0ac612" class="cls-4" d="M302.41,158.22v2"/></g></g><g id="xtick_23" data-name="xtick 23"><g id="line2d_23" data-name="line2d 23"><path id="mfa0b0ac612-17" data-name="mfa0b0ac612" class="cls-4" d="M316.36,158.22v2"/></g></g><g id="xtick_24" data-name="xtick 24"><g id="line2d_24" data-name="line2d 24"><path id="mfa0b0ac612-18" data-name="mfa0b0ac612" class="cls-4" d="M344.26,158.22v2"/></g></g><g id="xtick_25" data-name="xtick 25"><g id="line2d_25" data-name="line2d 25"><path id="mfa0b0ac612-19" data-name="mfa0b0ac612" class="cls-4" d="M358.21,158.22v2"/></g></g><g id="text_7" data-name="text 7"><path id="DejaVuSans-32-2" data-name="DejaVuSans-32" d="M163.87,183.12H167v.75H162.8v-.75l1.38-1.4c.58-.59.94-1,1.09-1.14a4.33,4.33,0,0,0,.6-.81,1.47,1.47,0,0,0,.17-.65,1.1,1.1,0,0,0-.37-.85,1.37,1.37,0,0,0-1-.33,2.87,2.87,0,0,0-.88.14,5.21,5.21,0,0,0-1,.44v-.9a7.14,7.14,0,0,1,1-.32,4,4,0,0,1,.86-.11,2.42,2.42,0,0,1,1.62.51,1.67,1.67,0,0,1,.61,1.36,2,2,0,0,1-.15.77,4,4,0,0,1-.55.85l-.7.74Z"/><path id="DejaVuSans-3b8" d="M172,180.75h-2.8a4.62,4.62,0,0,0,.37,1.87,1.11,1.11,0,0,0,2.06,0A4.78,4.78,0,0,0,172,180.75Zm0-.75a5.64,5.64,0,0,0-.36-1.69,1.16,1.16,0,0,0-1-.69,1.12,1.12,0,0,0-1,.69,4.45,4.45,0,0,0-.36,1.69Zm-1.39-3a1.88,1.88,0,0,1,1.66.93,5.8,5.8,0,0,1,0,5.14,1.94,1.94,0,0,1-3.32,0,5.8,5.8,0,0,1,0-5.14A1.87,1.87,0,0,1,170.62,177Z"/><path id="DejaVuSans-20" d="M173.37,183.87"/><path id="DejaVuSans-28" d="M179,177a8.86,8.86,0,0,0-.87,2,7.08,7.08,0,0,0,0,4,8.74,8.74,0,0,0,.87,2h-.7a9.23,9.23,0,0,1-1-2,6.32,6.32,0,0,1-.32-2,6.2,6.2,0,0,1,.32-2,9.23,9.23,0,0,1,1-2Z"/><path id="DejaVuSans-64" d="M183.83,179.69V177h.81v6.84h-.81v-.74a1.67,1.67,0,0,1-.64.65,1.84,1.84,0,0,1-.94.22,1.77,1.77,0,0,1-1.45-.71,3.42,3.42,0,0,1,0-3.75,1.77,1.77,0,0,1,1.45-.71,2,2,0,0,1,.94.21A1.67,1.67,0,0,1,183.83,179.69Zm-2.75,1.72a2.38,2.38,0,0,0,.36,1.4,1.26,1.26,0,0,0,2,0,2.83,2.83,0,0,0,0-2.8,1.27,1.27,0,0,0-2,0A2.4,2.4,0,0,0,181.08,181.41Z"/><path id="DejaVuSans-65" d="M190.51,181.21v.39H186.8a1.83,1.83,0,0,0,.5,1.27,1.69,1.69,0,0,0,1.25.44,3.91,3.91,0,0,0,.91-.11,4,4,0,0,0,.87-.35v.77a4.7,4.7,0,0,1-.9.28,4.05,4.05,0,0,1-.92.1,2.52,2.52,0,0,1-1.87-.69,2.47,2.47,0,0,1-.69-1.85,2.7,2.7,0,0,1,.66-1.92,2.28,2.28,0,0,1,1.76-.71,2,2,0,0,1,1.57.64A2.52,2.52,0,0,1,190.51,181.21Zm-.8-.24a1.52,1.52,0,0,0-.38-1.06,1.25,1.25,0,0,0-1-.4,1.49,1.49,0,0,0-1.08.39,1.59,1.59,0,0,0-.47,1.07Z"/><path id="DejaVuSans-67" d="M195.08,181.35a2.24,2.24,0,0,0-.36-1.36,1.31,1.31,0,0,0-2,0,2.75,2.75,0,0,0,0,2.72,1.31,1.31,0,0,0,2,0A2.24,2.24,0,0,0,195.08,181.35Zm.81,1.91a2.71,2.71,0,0,1-.56,1.87,2.19,2.19,0,0,1-1.71.61,5.1,5.1,0,0,1-.8-.06,3.86,3.86,0,0,1-.74-.2v-.78a3.49,3.49,0,0,0,.71.28,2.74,2.74,0,0,0,.7.09,1.55,1.55,0,0,0,1.19-.41,1.75,1.75,0,0,0,.4-1.26V183a1.67,1.67,0,0,1-.64.65,1.84,1.84,0,0,1-.94.22,1.79,1.79,0,0,1-1.46-.69,3.32,3.32,0,0,1,0-3.66,1.79,1.79,0,0,1,1.46-.69,2,2,0,0,1,.94.21,1.74,1.74,0,0,1,.64.65V179h.81Z"/><path id="DejaVuSans-72" d="M200.41,179.7a1,1,0,0,0-.3-.11,1.34,1.34,0,0,0-.35,0,1.3,1.3,0,0,0-1.06.45,2,2,0,0,0-.36,1.28v2.59h-.82V179h.82v.76a1.61,1.61,0,0,1,.66-.66,2,2,0,0,1,1-.22h.19l.22,0Z"/><path id="DejaVuSans-65-2" data-name="DejaVuSans-65" d="M205.26,181.21v.39h-3.72a1.88,1.88,0,0,0,.51,1.27,1.69,1.69,0,0,0,1.25.44,3.82,3.82,0,0,0,.9-.11,3.6,3.6,0,0,0,.87-.35v.77a4.6,4.6,0,0,1-.89.28,4.08,4.08,0,0,1-.93.1,2.51,2.51,0,0,1-1.86-.69,2.47,2.47,0,0,1-.69-1.85,2.74,2.74,0,0,1,.65-1.92,2.29,2.29,0,0,1,1.76-.71,2,2,0,0,1,1.57.64A2.47,2.47,0,0,1,205.26,181.21Zm-.81-.24a1.52,1.52,0,0,0-.37-1.06,1.25,1.25,0,0,0-1-.4,1.49,1.49,0,0,0-1.08.39,1.59,1.59,0,0,0-.47,1.07Z"/><path id="DejaVuSans-65-3" data-name="DejaVuSans-65" d="M210.8,181.21v.39h-3.72a1.87,1.87,0,0,0,.5,1.27,1.7,1.7,0,0,0,1.26.44,3.82,3.82,0,0,0,.9-.11,4,4,0,0,0,.87-.35v.77a4.83,4.83,0,0,1-.89.28,4.2,4.2,0,0,1-.93.1,2.38,2.38,0,0,1-2.55-2.54,2.74,2.74,0,0,1,.65-1.92,2.29,2.29,0,0,1,1.76-.71,2,2,0,0,1,1.57.64A2.47,2.47,0,0,1,210.8,181.21ZM210,181a1.52,1.52,0,0,0-.37-1.06,1.25,1.25,0,0,0-1-.4,1.49,1.49,0,0,0-1.08.39,1.59,1.59,0,0,0-.47,1.07Z"/><path id="DejaVuSans-73" d="M215.26,179.09v.77a2.89,2.89,0,0,0-.71-.27,3.77,3.77,0,0,0-.76-.08,1.83,1.83,0,0,0-.91.18.61.61,0,0,0-.3.55.52.52,0,0,0,.22.45,2.77,2.77,0,0,0,.86.3l.28.06a2.79,2.79,0,0,1,1.23.52,1.24,1.24,0,0,1,.36.94,1.29,1.29,0,0,1-.54,1.09,2.54,2.54,0,0,1-1.5.4,4.74,4.74,0,0,1-.82-.08,6.62,6.62,0,0,1-.9-.23v-.84a3.75,3.75,0,0,0,.88.35,3.24,3.24,0,0,0,.86.12,1.66,1.66,0,0,0,.88-.2.62.62,0,0,0,.31-.55.6.6,0,0,0-.23-.5,2.6,2.6,0,0,0-1-.34l-.28-.07a2.17,2.17,0,0,1-1.09-.48,1.22,1.22,0,0,1-.33-.9,1.29,1.29,0,0,1,.49-1.07,2.29,2.29,0,0,1,1.4-.38,4.46,4.46,0,0,1,.84.07A3.12,3.12,0,0,1,215.26,179.09Z"/><path id="DejaVuSans-29" d="M216.69,177h.7a9.23,9.23,0,0,1,1,2,6.21,6.21,0,0,1,.33,2,6.34,6.34,0,0,1-.33,2,9.23,9.23,0,0,1-1,2h-.7a8.74,8.74,0,0,0,.87-2,7.08,7.08,0,0,0,0-4A8.86,8.86,0,0,0,216.69,177Z"/></g></g><g id="matplotlib.axis_2" data-name="matplotlib.axis 2"><g id="text_8" data-name="text 8"><path id="DejaVuSans-49" d="M7.48,109v-.89H14V109Z"/><path id="DejaVuSans-6e" d="M11.07,102.26h3v.81H11.09a1.68,1.68,0,0,0-1,.27,1,1,0,0,0-.35.82,1.31,1.31,0,0,0,.42,1,1.65,1.65,0,0,0,1.14.38H14v.81H9.12v-.81h.76a1.94,1.94,0,0,1-.66-.68A1.83,1.83,0,0,1,9,104a1.56,1.56,0,0,1,.52-1.28A2.39,2.39,0,0,1,11.07,102.26Z"/><path id="DejaVuSans-74" d="M7.72,99.85h1.4V98.18h.63v1.67h2.67a1.18,1.18,0,0,0,.77-.17.92.92,0,0,0,.17-.67v-.83H14V99a1.83,1.83,0,0,1-.35,1.29,1.75,1.75,0,0,1-1.27.36H9.75v.59H9.12v-.59H7.72Z"/><path id="DejaVuSans-65-4" data-name="DejaVuSans-65" d="M11.38,92.91h.39v3.72A1.88,1.88,0,0,0,13,96.12a1.72,1.72,0,0,0,.44-1.25,3.82,3.82,0,0,0-.11-.9A3.77,3.77,0,0,0,13,93.1h.77a5.73,5.73,0,0,1,.28.89,4.73,4.73,0,0,1,.1.93,2.38,2.38,0,0,1-2.54,2.55,2.74,2.74,0,0,1-1.92-.65A2.29,2.29,0,0,1,9,95.06a2,2,0,0,1,.64-1.57A2.46,2.46,0,0,1,11.38,92.91Zm-.24.81a1.52,1.52,0,0,0-1.06.37,1.25,1.25,0,0,0-.4,1,1.49,1.49,0,0,0,.39,1.08,1.59,1.59,0,0,0,1.07.47Z"/><path id="DejaVuSans-6e-2" data-name="DejaVuSans-6e" d="M11.07,87.49h3v.81H11.09a1.68,1.68,0,0,0-1,.27,1,1,0,0,0-.35.82,1.31,1.31,0,0,0,.42,1,1.65,1.65,0,0,0,1.14.38H14v.81H9.12V90.8h.76a1.94,1.94,0,0,1-.66-.68A1.83,1.83,0,0,1,9,89.21a1.56,1.56,0,0,1,.52-1.28A2.39,2.39,0,0,1,11.07,87.49Z"/><path id="DejaVuSans-73-2" data-name="DejaVuSans-73" d="M9.26,82.74H10a3,3,0,0,0-.35,1.48,1.78,1.78,0,0,0,.18.9.61.61,0,0,0,.55.3.51.51,0,0,0,.44-.21,2.65,2.65,0,0,0,.31-.87l.06-.28a2.63,2.63,0,0,1,.52-1.22,1.24,1.24,0,0,1,.94-.36,1.29,1.29,0,0,1,1.09.54,2.51,2.51,0,0,1,.4,1.49,5,5,0,0,1-.08.83,7.46,7.46,0,0,1-.23.9H13a3.82,3.82,0,0,0,.35-.89,3.13,3.13,0,0,0,.12-.86,1.6,1.6,0,0,0-.2-.87.61.61,0,0,0-.55-.31.58.58,0,0,0-.5.22,2.68,2.68,0,0,0-.34,1l-.07.28a2.13,2.13,0,0,1-.48,1.09,1.22,1.22,0,0,1-.9.33,1.26,1.26,0,0,1-1.07-.49A2.2,2.2,0,0,1,9,84.31a5.53,5.53,0,0,1,.06-.84A3.89,3.89,0,0,1,9.26,82.74Z"/><path id="DejaVuSans-69" d="M9.12,81.19v-.81H14v.81Zm-1.92,0v-.81h1v.81Z"/><path id="DejaVuSans-74-2" data-name="DejaVuSans-74" d="M7.72,77.89h1.4V76.22h.63v1.67h2.67a1.18,1.18,0,0,0,.77-.17.92.92,0,0,0,.17-.67v-.83H14v.83a1.87,1.87,0,0,1-.35,1.3,1.8,1.8,0,0,1-1.27.35H9.75v.59H9.12V78.7H7.72Z"/><path id="DejaVuSans-79" d="M14.5,73.11a2.92,2.92,0,0,1,1.14.67,1.33,1.33,0,0,1,.27.87v.65h-.68v-.48a.82.82,0,0,0-.15-.52,2.16,2.16,0,0,0-.75-.41L14,73.75l-4.84,2v-.86L13,73.34,9.12,71.81V71Z"/></g></g><g id="line2d_31" data-name="line2d 31"><g class="cls-5"><path class="cls-6" d="M23.45,134l.15-.43.15.6.14-.24.15.2.15-.42.14.55.15,0,.15,1.12.14-.43.15.23.29.72.15-.41.14.49.15-.12.15.38.14-.69.15.75.15-.65.14.43.15-.22.15.14.14.39.59-.19.15.44.14-.34.3.52.14.07.15-.3.15,0,.14.39.15-.58.44,1.12.14-.63.15,0,.29,1,.3-1,.14.58.15-.15.29.26.15-.31.15.28.14.58.15-.19.15,0,.14.17.15-.43.15.45.14,0,.15-.44.44.36.29-.13.15.2.14-.64.15.93.15-.39.14.6.15,0,.15-.49.14.39.15-.16.15.29.14-.64.15.5.15-.35.14.7.15-.36.15.34.14-.41.3.1.14-.11.15.07.15.47.29-.39.14-.34.15,1,.15-1.19.44,1,.14.16.15-.53.15-.1.14.8.15-.41.15.49.29-.57.15.31.14-.35h.44l.15-.44.15.86.14-.11.15.13.15-.81.29.45.29-.26.15-.84.29-.16.29-.82.3,1.73.14.08.15-.29.15.7.14-.47.15.51.15-.78.14.66.3,0,.29,1,.29-1.35.15.06.15.52.14-.26.15,0,.14.17.15-.21.15,0,.14.27.15-.47.15.48.29-1.12.15,1.3.44-.79.14.18.15-.23.15.16.29-.67.44,1.05.44-1.17.15.28.14,0,.29.64.15-1.07.15,0,.14.61.15.12.29-1,.15.16.29.62.15-.46.15.14.14-.16.15.79.15-1.2.14.58.15-.4.29.32.15-.36.15,0L51,138l.15,0,.14.28.15-.57.15,0,.14.24.3-.75.14.23.15-.77.15,1.12.14-.5.88-.46.15.44.29-.15.15.19.44-.53.15.63.14-.51.15.43.14-.31.15-.72.15.6.14-.09.15.07.15.47.14-.43.15.19.29-.36.15.2.15-.88.29.91.15-.1.14-.57.15,0,.15.36.14-.72.15.2.15,1.1.44-.81.14,1,.15-.25.14.18.15-.31.15,0,.14.23.15-.11.15-.51.29.53.15.48.14-.35.44.19.15-.11.15.23.29-.09.15.44.14-.11.15,0,.15.31.14-.49.29.12.3.94.14-.6.15.15.15-.27.14,1.16.3-1.34.29,1.06.15.33.14-.81.15,1.16.15-.45.14.17.15-.49.15,1,.14-.38.15.39.15-.07.14-.36.3,1,.14-.6.15-.11.14.42.15-.45.15.5.14-.09.15.62.29.06.3-.34.14.54.3,0,.29.49.15-.27.29.3.15,0,.14-.51.44,1,.15-.49.44.39.14-.67.15.46.15-.06.14-.52.15.89.15-.39.29-1.28.15-.07.14.62.15,1.34.15-.08.29.42.29.21.3-.81.14,1,.3-.66.14.44.29-1.17.44,1.65.15-.33.15.46.14-.46.15.64.29-.41.44-1.85.15.3.15-.62.14-1.29.3,2.63.14.61.15-.1.44-2,.44-3,.44,5.57.29.67.15.09.14-.17.15.48.15-.25.14.23.15.59.15-.77.14.49.15-.31.15.26.14-.35.15,0,.15-.42.14,0,.3-1.2.14.1.15-.66.29-2.25.15.44.14-1,.15.15.15.64.29,3.93.59,1.11.14-.18.15.09.15.27.44-.5.14.06.15-.54.15.26.14-.53.44,1,.15-.19.15.05.14.28.15,0,.14.26.15-.62.29.58.15.3.15-.9.14.85.15-1.15.15.66.14-.71.15,0,.44-1.67.29-2,.15.79.44,3.8.15.48.43-.28.15.18.44-.56.29.18.15.12.15.32.14-.3.15.1.15-.48.14.13.3.71.14-.68.15.23.15-.32.14.69.15-.73.15.26.14.64.15-.45.15.17.14-.7.29.32.15-.67.15.8.14,0,.15.17.44-.3.15.17.29-.16.15,0,.14.49.15-.81.29.48.15-.33.15.44.14-.3.15.1.15-.35.14.19.15-.56h.15l.14-.25.15.84.14-.9.15.32.15-.07.29-.36.15-.63.14.18.59-2.31.15-1.68.14-.27.3-3.85.14-.35.59-4.09.29-2.68.29-1.72.15.88.29-.63.15.45.88-10.2.29,7.23.44,11.29.15.22.88,6.32.29.77.15.27.14,0,.15.34.15-.31.14.44.15-.83.15,0,.14-1,.15.13.29-.45.15,1,.15.07.29,1.11.15,0,.14-.43.3.35.44-1.52.14.87.15-.05.29-.91.15,0,.73-5.68.29,2.55.15,1,.29-1.51.3-3.92.73-18,.29,3.77.3,4.32.73,9.43.14-.08.15-.5.15-1,.58-13.81.59,20.84.15,1.62.14,0,.15-.34.15.56.14-.1.15.07.15.55.14-.08.15-.34.44.84.29-.76.15.31.14-.23.3-1.12.14.14.15.28.15.8.14,0,.3,1,.29-.93.29-.7.3-1.36.14,0,.3,1.38.44,1.51.14-.3.29.68.3-.63.14-.08.15.16.15.4.14-.43.3.53.14-.79.15.58.15-.49.14.28.3-.32.14-.41.15.83.15-.46.14,0,.3-.37.14.39.3-.19.29-.57.14.14.15-.82.15-.06.14.35.15,0,.15-.23.14.09.15.38.15-1.1.14-.13L123,140l.29-1,.15-.5.29,1,.15.56.15-.53.29.33.15.38.73-2.51.14.1.3,1.08.14.59.15-.18.15.07.14-.32.44,1.48.15.1.15.33.44-.77.44,1.46.29-.1.15.24h.14l.15.69.14-.12.15.28.15-.47.44.42.14-.11.3.2.14-.06.15.19.15-1.43.14,1,.15-.9.29.33L131,143l.15-.09.14.05.15.36h.15l.14.38.15-.16.15.71.29-.62.14.41.15-.23.15.07.14.73.3-.6.14.49.15-.65.15.63.14-.15.15.31.15-.63.14.05.15-.46.15,1,.14-.22.44.9.15.24.15-.33.14.44.15-.24.14.15.15-.29.15.37.14-.22.15.18.15-.06.14.17h.15l.15-1.16.14.46.44-2.49.59,2.19.29,1.35.3.28.29-.51.15.38.14-.2.15.11.14-.12.15-.49.15.89.14.06.15-.28.29.26.15-.6.29.38.3.13.14-.4.15.19.15-.19.14.61.15-.3.15.08.29-.37.29.33h.15L143,146l.14.28.15-.26.14,0,.3-.27.14.36.15-.29.15.22.14-.12.3-1.15.14-.13.44-2.85.15-.34.15.12.44,2.36.14-.64.15-.05.29-2,.15-1.4.15-.13.14.72.29-2.65.15-2.54.15-.43.58,8,.15,1.13.15.18.14.6.15-.17.15.38.14.05.3-.16.14.11.3-.91.14-.06.3-1.77.73-1.57.29.62.15.52.14.05.3,1.67.14-.09.3,1.12.14,0,.15.18.15-.43.29,1.39.15-.4.14.64.15,0,.15-.57.14.37.15-.63.29.55.15-.57.14.29.3.18.14.14.15-.39.15,0,.29.39.15-.66.14.58.3-.32.14-.44h.15l.15-.26.14.57.15-.2.15.89.14,0,.15-.35.29.4.15-.54.15-.05.29-2.09.14-.56.15,0,.15-.37.14.19.15-.18.15.12.29-2.37.44,1.79.29.5.15-.77.29.49.3,1.84.58,1.12.15.12.29-.42.29,1.15.15.18.15.42.14-.38.15.41.15-.13.14-.28.15,0,.29.29.15-.1.29.11.3.39h.44l.14,0,.15-.72.15.66.14-.19.15.23.29-1,.15.71.44-.65.14-.72.15.12.15-1.06.14.25.15-.44.15,0,.14.58.15-.21.29.41.15-.45.29.32.15.86.15,0,.14.5.3-.18.29.08.29-.59L170,140l.14,0,.15.32.15,0,.29,1.94.15,0,.14.17.3,1.53.44.5.14,1,.44-.13.15.53.15.11.14.71.29-.28.3.23.14-.27.44-2.48.15-1.17.29-5.17.3-5.49.14.44.44,7.09.44,3.9.15-.79.15.42.29,1.76.14.28.15,1.26.15.23.14,0,.15.25.15-.06.14-.26.15.49.15-.16.14-.61.15.28.29-.9.15-.09.29.95.15-.44.29.57.15-.24.15.2.29-.55.15.06.58-1,.15.13.14.79.15-.58.59-.31.14.28.15.57.15,0,.14.31.15-.24.15.39.14-.72.15-.13.15.11.14-.13.15,0,.29-.75.15.13.15-.77.14.55.15-.3.14,0,.15-.38.15.09.58-2.93.3-2.37.14.1.15.24.29,1.61H186l.29,1.42.15.27.15-.65.14.59.15-.85.15.52.14,0,.15-.75.14.35.15-.32.59-3.65.14-.09.3-1.35.14-.12.59,3.49.15.78h.14l.15.73.73-2.8.15-.8.15.27.29,2,.58,1.88.3.43.29-.21,1,2.66.14.07.15-.1.29.55.15-.18.15.29.14-.76.15,0,.15.51.14-.51.15.25.29-.4h.15l.14.45.15,0,.29-1.17.15-.26.15-.77.14-.06.15.37.15-.06.14.18.15-.52.15.65.29-1.33.29-1.57.15.12.58,3.89.15.8.15,0,.29,1.26.15-.21.29.29.59-.22.58.59.15.5.15-.1.14.06.15-.13.15.35.14-.59.15.74.15-.3.14.21.15-.21.14.05.15-.29.15.31.14-.58.15.3L203,147l.14.19.15-.25.15-.54.14,0,.3.56.29-.65.15.46.14-.89.3-.29.29-.78.15.48.29-.76.15-.32.14,1,.15-.93.29-.24.29-.48.15,1.16.15-1,.14-.12.15.1.29,1.1.15-.33.29.42.15.11.15.26.29-.38.15.53.14-.66.15-.08.15.4.14.89.15-.09.15.43.14,0,.29.51.15-.41.15.42.14-.14.15,0,.15-.22.14.27.15,0,.15-.21.14.32.15-.06.15-.68.14.2.3-.2.29-.67.15.77.14.15.15-.24.15.1.14.24.15.72.14-.45.15.21.15-.13.29.32.15-.53.29.53.29-1,.15.27.29-.3.15.12.15-.14.29-.61.15-1.25.14.14.3,1.41.14-.53.44,1.26.29.08.15.28.44-.45.15,0,.14-.46.3-.09.14.27.15-.06.15.09.29-.42.15-.14.29-1,.15.32.14-.61.15.5.15.1.14-.53.15.11.15-.61.14-.05.15-.47.88-6.08.14-.82.15-1.87.15-.39.14-.76.3,1.65.58,4.66.3,3.4.58,2.81.44,1.51.29-.71.3,1.23.44.25.29-.45.15.56.14-.81.15.24.59-2.53.14.34.15,1.39.15.28.29-.35.44,1.24.14.14.15-.49.44.29.15-.06.29-.49.29.67.15-.29.15.7.14-.53.15.51.15-.22.73-2.06.15-.87.14.38.3,1.19.14-.22.15.36.29,1.4.15-.18.29.9.15-.09.14-.08.15-.37.15.16.14-.45.15.36.15,0,.14.21.15-.06.29-.58.59.9.15-.42.14.63.15-.63.29,1.06.15-.43h.14l.15-.23.15.24.14-.34.15,0,.15.21.14-.62.44.35.15-.12.29.46.3,0,.14.27.15-.11.15.39.14-.72.15.21.29-.38.15.1.14-.23.15.4.15-.84.14-.11.59-1.65.29.77.15.58.15-.49.29.83.29.85.15-.75.29.53.15-.27.15.22.14.5.3-.68.14-.06.15.21.14-.17L243,148l.15-.15.14,0,.15-.15.59.9.14-.14.3.28.14-.2.3.67.14-.36.15,0,.15.35.14-.61.3-.22.29.39.15-.18.14.27.15-.5.14.63h.15l.15-.38.14,0,.15-.18.29-1.09.59.76.15-.69.29.1.15-.29.29.74.15-.49.14-.07.15-.51.15.06.29.75.14.13.15-.36.29.65.15-.37.15.22.14.52.15-.14.29.19.59-.48.29.48.3-.59.14.32.3-.61.14.51.3-1.17.14-.55.15.16.14-.44.44,1,.15-.3.15.19.29.87.15.12.29.64.15-.54.29.53.15-.26.29.31.15-.56.14.39h.15l.15.25.14-.47.15,0,.29.49.15-.23.14.06.15-.59.15.18.14-.21.15.67.15-.26.29.34.15-.24.14.3.15-.31.29.13.15-.16.15.13.29-.17.29.27.15-.18.15-.38.29,0,.14.4.3.07.14-.15.15.27.15,0,.14-.12.15.12.15-.12.14-.44.15.09.15-.19.14.75.15-.3.15.07.14.54.44-.18.15-.24.15.07.44-.48.14.59.15-.39.14.19.15-.22.29.73.15-.69h.15l.29-.43.15-.76.14,0,.15-.5.29.48.15.24.15.74.14-.24.3.63.14-.07.15.53.29.2.15-.18.15,0,.14-.16.15,0,.14.26.15-.37.29.37.44-.61.15.38.29-.79.15.65.29-.5.44.93.15-.23.15.33.14-.51.15.54.29.21.15-.19.15.06.14-.27.15.09.14-.16.15.09.15-.12.14.56.15-.39.15.25.14,0,.15-.4.44.26H274l.14.52.15-.52.29.36.15-.19.44.08.15-.08.14.25.29-.25.15-.16.15-.7h.14l.3.47.29.14L277,149l.14.28.15-.49.15.06.14-.12.15.07.44.62.15-.07.14.27.3-.22.14.28.44.1.15-.23.14.15.15-.07.15.06.14.43.15-.79.15-.14.14.32.15-.43.15.15.14-.14.15.28.15-.11.14.13.15-.32.15.47.14-.08.3.23.14.35.3-.2.14.09.3.6.14-.3.15,0,.14.21.74-.16.14-.23.15.41.15-.63.44-.24.14.42.15-.51.15.45.14-.28.15,0,.29-.17.15.27.44-.32.14.07.3-.61h.14l.3-.17.14.29h.15l.44.43.15-.3.14.2.15.42.15-.43.14.36.15-.3h.15l.14.28.15-.66.29.39.15-.19.15-.41.14.07.15-.26.14-.74.15.14.29-.45.3-.28.29-.91.15,0,.14-.3.15-.74.15.11.14-.06.15.54.15-.57.44,1.62h.14l.15.81.44.61.15.69.14.1.15-.42.14.94.15-.44.15.64.14-.17.15.31h.15l.14.3.15-.16.15.17.14-.52.15.55.15-.11.14-.46h.15l.15-.73.14.45.15-.53.15.59.29-.14h.29l.3-.31.29.44.14-.32.15.29.15-.18.14.26.15-.59.29.67.15-.05.73.8.3-.22.29.68.15-.17.14.43.15-.46.29.31.15.2.14-.2.15.25.15-.18.14.1.15-.38.29.51.15-.48.29.58.15-.34.15.23.14-.12.15.42.15-.48.29.34.15-.48.14.31.74-.56.87-.23.44.64.15,0,.15-.41h.14l.15-.51.15.51h.14l.15-.19.29.39.3-.34h.29l.15-.19.14.18.15-.3.29.11.15.43.29-.4.15.25.14-.34.15.55.29.09.15-.37.15.62.14-.42.15.09.15-.13.14.12.15-.06.29.37.44.05.15-.28.15.28.14-.13.15.12.14,0,.15.32.15-.25.14.18.3-.27.14.29.3-.34.14.36.15-.38.15.17.29-.75.15.19h.14l.15-.22.29,0,.15-.3.44.26.15,0,.14.22.15-.18.14.26.3-.18.29.53.29-.41.15-.21.29.15.15.34.29-.26.3.16.14.24.3-.29.14-.17.15.13.59-.82.43,1.05.3,0,.14-.29.15.32.15-.3.14.65.15-.23.15.23.14-.1.15.13.44-.33.15.26.14-.47.15.07.15-.11.14-.31.15.6.15-.76.29.62.14.14.3-.25.29.34.15-.21.44.16.14-.21.3.17.29-.43.15.36.14-.37.15.27.15-.1.29-.46.15.19.29-.06.15.06.14-.13.15.24.14-.22.44.25.15-.15.15.28.29,0,.44,0,.15.21.14-.05.15-.32.15.36.14-.15.15.45L330,151h.15l.29-.24.15.37L331,151l.14-.54.3.71.29-.54.15-.06.14.46.15-.48.15.07.14-.32.74-.08.14-.4.3.09.44-.75.14.13.15-.1.15-.37.14.32.29-.59.3.32.14-.27.44,0,.15-.43.29.71.15-.07.15-.37.58.36.15-.05.29.32.15-.47.44,1,.14-.4.15,0,.15.25.29-.52.15-.11.14.73.3-.35.29.27.29-.06.15.41.15,0,.14-.47.15.46.29,0,.3-.32.14.34.3-.29.14.19.15-.49.14.52.15.06.15-.54.14.55.15-.67.29.5.15-.2.44.36.29.14.15,0,.15.35.14-.21.3.39.14-.22.15.06.15-.16.14.1.15-.2.29.38.44.25.15-.16.14.1.15.35h.29l.15.18.29-.12.3.41.14-.09.3.34h.14l.15.11.29-.17.15,0,.29.17.15-.4.14.27.3-.22.29,0,.15-.14.14.22.3-.76h.14l.3-.28.29-1,.15.19.14-.61.3-.4.29,1,.15,0,.14.37.3-.38.29.59.44.65.14-.45.15.25.29-.56.15.6.15-.33.14.43h.15l.15-.39.29.48.44-.18.29.33h.44l.15.72.15-.34.14,0,.29.18.15,0,.29.35.3.06.29,0,.15-.13h0"/></g></g><g id="line2d_32" data-name="line2d 32"><g class="cls-5"><path class="cls-7" d="M23.45,87.14l.3.5.14.23H24l.15-.23.14.65.15-.27.15.46.14-.74.3,1.32.14-.42.15.52.14,0,.15.24.15-.24.14.53.15-.1.29-.39.15,1.14.15-.95.14.35.15-.16.29.33.3.26.14-1.13.15.86.15.18.14-.17.15.48.15-.42.14.52.15-.6.15.34L29,90l.15.59.29-1,.15,1.16.14-1.21.15.23.15.77.14-.12.15.12.15-.33.14.22.15.54.15-.06.14.25.15-.87.29,1.18.15-.59.15.3.14-.25.15.46.15-.49.29.28.15-.28.14.17.15-.65.14.64h.15l.29-.56.15.62.15-.65.14.32.15-.85.15.33.14-.28.3-.93.14-.35.59-4.45.29-3.9.15.85L36.2,89l.15,1.56.14-.71.3,1.23.14-.09.15.77.15-.66.14.25.3-.26.14.18.15.46.15-.23.14.4.15-.3.15.7.14-.63L39,92l.14-.27.15.14.15-.78.29.74.15-1L40,92l.29-.66.15.51L40.6,91l.14.19.15-.46.15.1.14-.8.3,1.44.14-.41.15,1,.29-.31.15.16.29-.4.15.09.15-.07.14.07.15.23.15.49.14-.75h.15l.15.24.14.6.44-1.16.29.8.15-.33.15.17.14-.32.59-.22.15.44.14-.11L46,91l.29,1,.15-.6.15.1.14-.53.15,1,.15-.46.14.42.15-.27h.15l.14.27.15-.79.58.74.15-.55.15.19.14-.09L49,91.1l.15.79.44-.49.14.07.15-.09.29-.62.15.83.15-1.21.29.33.15,0,.14-.41.15.25.14-.83.15-.16.15.21.29-.93.29-3.47.15-1.11.15-.14.44,6,.29.52.15-.54.14.46.15-.15.15.28.14-.49.15.59.15,0,.14-.44.15.74.15-.2.14.79.15-.09.14-.89.3.41.29.22.15-.69.14.15.15-.14.15.6.14.1.3-.73.14.11.15-.16.15.53.14-.05.15-.27.15.69.29-.8L58,91l.14.69.15-.77.15.7.14-.67h.15l.29.34.15.32.14-.47.15.4.15-.26.14.46.15-.22h.15l.14-.59.44.64.15-.34.44,1.24.15-.44.14.36.15-.51.15.73.29-.1.14-.51.15.72.15-.29.14,0,.15-.48L63,92l.14.65.3-.18.14.58.44-.66.3.16.58-2.14.15-1.05.15-.17.14.49.59,4,.14-.27.15.24.15-.08.14-.36.3,1,.14.34.15-.18.15.24.14-.24.15.43.15-.49.14.36.15-.42.15.52.14-.05.15.13.29-.28.15.43.15-.08.14.43.15-.43.15.23.14-.34.15.26.29-.14.15-.27.14.1.15-.12.15-1.17.14.57.15-1.69.15.13.14,1.5.15.25.15.78.14.16.15-.11.15.16.14-.54.15.12.44-1.51.15.08.29.82.14-.37.3,1.48.14.14.15.62.29-1,.15.68.59-2.31.14-1,.3-2.62.14.53.3,4.13.14.92.3-.1.58-2.83.59,3.86.14-.35.15,0,.15.51.14-.15.15.67.44-.35.15,0,.14-.26.15.34.15-.27.14.22.15-.34.15,0,.14-.53.15,0,.29-.83.3-2.47.14-.35.29-1.75.15-.43.44,6.15.15.59.44-.53.29.65.15,0,.14.61.15-.79.15.49.14-.45.15.11.15-.53.29.48.29.62.15.34.29-.79.15.28.14-.19.3-1,.14,0,.3-2.07.29.77.44,1.48.44-.94.15-1,.14.42.44,2.47h.15l.15.29.14-.35.15.26.14,0,.15.1.15.48.14-.26.15.47.29-.4.15,0,.15-.49.29.71.15-.52.14.07.3-.08.14-.38.15.37.15,0,.14.62.15-.16.15.21.14-.4.3.39.14-.11.15.07.14.51.3-1.09.14.12.15-.23.15-.47.14-.06.15.18.15.53.14-.38.15,1,.29-.52.3.21.14-.32.15.29.15-.34.14.51.15-.38.29.38.15-.2.15.21.14-.71.15.29.14-.32.15.07.15-.79.14.54.15-.62.15.09.14-.06L97,94.51l.44-3.94.44-6,.15.11.15-.06.44-4.41.14-.28.15.41.44,2.22.14-.41.3-.95.14-.74.3-4.65.14-1.35.15,1,.59,15.08.29,1.48.29,1.08.3,2.13.14.87.15-.55.29,1,.15-.13.14.71L103,97l.15-.63.14.36.59-2.84.15-.33.14.58.15-.28.15,1h.14l.3.81.14.9.3-.72.14-1.3.3-.48.14-.9.15-1.68.29,1.89.59-5.57.14-2.07.59,7.62.15-.09.29-3,.44-8.6.29-6.73.15-1,.15,1.91.14-.14.15,1.43.15-.1.14,1.25.44,8.31.15.16.14-.42.15-1.85.44-12.26.15-5.66.14,4.2L111.81,92l.3,3.35.14.39.15-.09.29.07.3.88.14.06.15-.33.15.69.43-.88.3.08.44-1.18.14-.06.3.45.14,1.24h.15l.44-1.62.15-.06.44-4,.14-.61.15.63.29,2.68.3,1.5.29,1.23h.29l.15.56.14,0,.15-.76.29.42h.15l.15-.39.14.41.15-.36.15.26.14-.44.15.47.15-.27.14.26.15,0,.15.47.14-.7h.15l.15.19.14-.35.3,0,.14.27.29-.73.3-.08.29-.13.29.19.15-.64.15-.12.44-1.49.14-.29.15.35.15-.33.29,1.65.29-.66.15.48.44-.22.14-1.24.3-.34.29,1.29.15.26.44-.57.14-.29.3.78.14-.14.44-1.32.74,2.47.29.12.15-.34.14.71.15-1.59.14.72.3-.6.44-4,.14-.46.59,3.3.15.67.29-1.11.15-.16.14.78.15.06.29,1.63.44.89.3.86.14.3.15-.69h.14l.15.45.15-.36.14.66.15-.69.15.23.14.89.15-.28.15.21.29-.06.29.15.3-.47.29.73.15-.34.29.7.15-.11.14-.48.15.93.14-.44.15.18.15-.17.14,0,.15-.09.15.13.58-2.53.15-.76.29-3,.59,5,.29,1.86.15-.18.29.34.15-.11.15-.32.14.32.15-.6.14.33.15-.15.15-.33.14.35.3-.22.14.49.44-1.07.15,0,.15-.55.29-.1.29,1.08.3.27.44.72.14-.38.3,0,.14-.4.44.54.15-.24.14.18.15-.39.29.07.15-.22.15-1,.29-.17.29-1.84.15-.09.15.46.29-.1.15.2.29-.76,1.17-10.92.59,11,.14.82.15.16.15.88.14-.17.3,1,.14-.36.15.55.29-.42.15-.93.15,0,.73-2.09.29-.27.15.15.14.32.15-.1.44,2.1.29,0,.44,1.37.15-.62.15.22.29.73.29-.3.15-.43.29.75.15-.33.15.2.14.41.15-.28.29.32.15-.08.14-.39.3.58.14-.19.3.14.14-.44.15-1,.15,0,.14.33.15,0,.29.77.15-.28.44.7.15-.19.29-1.12.58-2.23.3.93.14,0,.3-.82.14-.9.15.25.15.69.29.12.15.91.14-.31.15-1.06.29,1.59.15.56.15,0,.14.52.15-.12.15.16h.14l.15-1,.14.84.15-.46.15.67.58-4,.15-1.61.59,2.41.29,2,.29,1.34.44.75.3-.13.14.07.15.38.15-.57.29.28.29-1,.15-.16.14-.84.15.54.15-.41.14.14.15-.38.29-2.38.3,0,.14-.56.15.81.29-.28.3,1.75.14.41.3,1,.14.16.15.52.29-.15.29-.5.59-6.38.15.44.14,1.26.15-.56.44,3.24.15-.59.14,1.45.15.21.15-.62.44.45.14.61.15-.11.29-.84.15.22.29-.47.29,1.73.15-.18.15.39.14-.74h.15l.29-3.52.44-10.91.15-4.83.15-1,.44,11.59.29,6.33.15,1.67.14-.58.44,2.14.15-.54.14.27.3,1.09.29-.21.15.12.14-.63.3.14.29-.69.15,0,.29,1.11.15-.19.14.06.15,1h.15l.14-.52.15,0,.29-.91.15-.3.15.23.14-.66.29,0,.15.31.29-.93.15.88.29-.42.15,0,.15.56.14-.62.15.23.29-.12.44-1.69.15,1.47.29.67.3,1.26.29-.2.15.67.29-.39.14,0,.15.43,1-8.13.14.4.15,2.11.15.2.29,1.15.29-.78.3-.57.29,1.18.29.08.29.25.15-.31.73-2.82.15.08.15-.73.14.24.15,1.59.29.33.15.57.29-.11.15.27.15-.2.73-5.33.15.13.73,5.25.14,1.11.15.16.29-1,.15.12.29,1.48.15,0,.29.58.15,1.34.15-.54.14,0,.15.33.15-.11.14-.45L194,98l.15,0,.29-.81.15-.06.14-.27.15.48.14-.13.15.06.15.33.14-.57.15.36.15-.07.44-1.28.29.32.15.8.29-.46.15,0,.14.28.3-1.67.14.68.15-.26.29,1.5.15-.37.44,1.33.14-.38.15.5.15-.21.44.54.73,1,.15-.25.14.33.15-.16.15.56.14-.17.15.22.15-.14.14.48.3-.7.58.32.15-.51.14.49.15-.58.15.33.14,0,.15-.53.15.08.14-.28.15.42.15-.1L204,99l.3.32.14-.34.15-.7.15.47.29-.66.15.08.14-.27.15.16.15-.14.14-.42.15,0,.29-1.92.29.66.15-.4.15.65.14-.06.3,1.18h.14l.15-.14.15.59.14-.53.44.79.15-1.06.29.31.15,0L209,98l.14-.22.3.43.29.69.14.45.15-.3.59.87.29-.92.44.49.15-.13L211.9,98l.14.42.15-.53.15.83.29.1.15.17.14.73.15-.1.14.35.3-.21.29.16.29-.13.15-.61.15.2.29-1.15.15.73.29-.06.59-2.39.14.36.3,1.38.14-.21.3,1.07.29.45.29.08.15-.17.14.17.15-.58.15,0,.14-.39.15.43.29.06.3-.36.14.68.15-.83.15,0,.14-.58.15-.06.29-.74.15.29.15-.48.14.31.15-.5.15.34.14-.18.15-.81.14-.06.59-3.81.15-.06.14-1.75.15-.29.15.32.14-1.51.15.51,1.32,9.34.15.32.14.64.15-.11.14.15.15.68.15-.47.14.08.15-.08.15.39.14-.31.15.42.15-.23.14.44.15-.07.59-2.18.14-.38.15-.71.15.05.14,1.07.3.39.14-.09.59,1.63.29.19.15.46.14-.65.3-.27.14.61.15-.07.15.49.14-.08.15-.28.44.39.15-.37.14,0,.15-.48.44-2.62.15-.19.14.59.15,1.28.15-.52h.14l.29,1.81.15-.09.15.68.14-.34.15.19h.15l.29-.43.15.17.14-.22.3.07.14.42.15-.67.15.35.14-.41.15.86.15-.19.14.44h.15l.15-.16.29.36.15.23.14-.2.15.13.14-.26.15.29.15-.49.14,0,.15.5.29-.41.3.47.29-.49.29.49.15-.16.44,0,.15.26.44-.66.29.2.14-.33.15.21.44-1.87.15-.43.14-.89.15.54.15,1.06.29.22.15-.25.29.91.15.19.14-.07.15.4.15-.2.14-.54.15.59.15-.47.14.07.15.38.29-1.25.15.18h.14l.15.13.15-.52.29.12.29.43.15.16.15.45.14-.12.15.3.15,0,.14.43.59-.37.29.29.3-.6.29-.32.29,1,.29-.23.15.09.59-1.72.14-.82.3,1.42.14-.52.15.08.15-.14.14.35.3-.43.14.7.15-.81.15.08.29-.59.15.32.14.79.15-.09.14,0,.15.29.15-.52.29,1.62.15-1,.14.54.44,0,.3.6.14-.47.15.22.44-.44.15.55.29-.85.15-.16.14-.82.15.37.44-1.44.14,0,.59,1.39.15-.25.73,1.71.15,0,.14-.35h.3l.14-.39.15.17.15-.35.14,0,.15.3.15.66.14-.28.15.28.29-.27.15.19.44-.52.14.59.15-.43.15.33.29-.4.29.47.15-.19.15.11.29-.56.15.44.14.07.15-.39.15.38.14-.42.3.52.14-.22.15.11.14.55.3-.43.14.29.15-.06.15-.35.14,0,.15.22.15,0,.14-.23.15.32.59-.34.14.49.15-.29.15.19.73-.81.15.41.14-.38.15.27.14.6.15-.66.29,1,.15-.44.29,0,.15-.24.15-1.08.14.38.15-.1.15.3.14-.17.44.84.15,0,.15.7.29.2.15.24.29-.32.15.37.43-.16.3,0,.14-.11.15.13.15-.33.14.24.3-.5.14.23.15-.06.29.22.15-.2.44.52.29-.46.15.32.15-.21.29.13.15,0,.14-.19.29.37.15-.66.15.32.14-.33.15.24.15-.06.14-.2.44.34.15.47.29-.19.15.55.15-.3.14,0,.3.2.14-.16.15.29.29-.56.15-.51.14.05.44-.72.3.83.29-.4.29.26.15.11.15-.05.14.24.15-.38.29.73.3,0,.14.25.15-.13.15.18.14-.34.15.53.15-.2.14-.58.15.56.29-.4.15.31.44-.64.29.09.15-.31.14.32.15-.12.15-.43.14,0,.15.6.15-.2.14.49.44-.1.15-.21.15.67.14,0,.15-.24.15,0,.29.34.14-.13.15.12.15-.05.14.35.15-.23.15.27.44-.83h.14l.15-.32.15.14.14.39.59-.56.29.27.3-.06.14-.63.15.12.14-.39.15-.87.29.82.3-.56.44.93.29-.19.15.28.14,0,.15-.49.15,0,.14-.27.15-.68.15.89.14-.41.15.06.29-.37.15.32h.15l.14.26.15-.25.14-.57.3.36.14-.55.15.23h.15l.73-2,.15,0,.14-.39.74,2h.14l.59,1.64.15-.09.43.92.15-.13.29.47.15-.27.29.33.15-.43.29.61.15-.28H296l.14.13.3-.7.14-.26.15.69.15-.62.14.18.74-.58.29.42.29-.3.15-.31.14.19h.3l.14.3.15-.35.15.74.14,0,.3.44.14,0,.15.39.15-.31.14,0,.44.7.15-.14.15.27.14-.31.15,0,.14.28.3-.39.14.26.3-.07.14.25.15-.28.15.1.14-.27.15.13.29.33.59-.26.15.09.14-.42.15.36.29-.32.3.24.29,0,.14,0,.3-.42.29.11h.15l.29.4.29-.68.15.28.15-.07.29.2.29.28.15-.44.29.26h.15l.15-.19.14.09.15-.13.44.51.29-.21.29-.07.15.43.29-.3.3.11.29-.24.15.13.14-.09.44.38.15-.21.29.09.44.42.15-.45.14.23L313,104l.15.12.73-.11.15.36.29-.67.15.14.15-.05.14-.34.3.35.14-.2.15.13.29-.51.15.29.15,0,.14-.19.15.07.14-.09.15-.37.29.08.15.45.15-.39.14,0,.15.32.15-.38.14.38.15-.1.15.49.14-.41.3.4.14.16.3-.12.14.19.3-.82.14.32.15-.88.15.78.14-.24.15.39h.14l.15.25.15-.29.29.34.29.2.15-.15.15.36.29-.35.29.4.3-.75.29-.23.15.35.14,0,.15.08.29-.56.15.31.14-.12.3.49.14-.16.15.5.29-.25.15.3.59-.35.58-.08.15-.3.15.24.14-.27.15.14.29-.36.15.33.15.05.14-.11.15,0,.29-.37.15.28.14-.07.15.12.15.29.44-.14.29.35.29-.68.15.16.15.51.14-.17.15.07.15-.29.14.11.74-.22.14.45.29-.53.15.08.73-.4.3.38.14,0,.44-.44.15.23.15-.62.14.24.15-.42.15.2.29-.44.15.09.14-.52.15.11.15-.37.14.16.15-.28.14.38.15-.42.44.36.15-.16.14,0,.15-.38.29.63.15,0,.15-.5.29.67.44,0,.15.07.14-.22.15.34.15-.07.43.38.15-.67.29.31.15.06.15.37.14-.3.15.15.15-.13.14.12.15-.18.29.4.15-.18h.15l.14.13.15-.09.15.51.14-.6.15.28.15-.16.14.28.3-.18.14,0,.15-.26.14.22.15,0,.15.11.14,0,.15-.69.15.64.29,0,.29.17.3-.22.29.15.15.47.14-.24.15.57.15-.39.29.26.15-.89.14.7.15-.38.15.35.14,0,.15.26L346,103l.3.3.29.3.15.19.14-.19.15.32.15-.18.14.11.15.46.15-.09.14-.29.15.3.15,0,.14-.19.15.19.29,0,.15.26.15-.25.14.26.15-.08.14-.22.15.06.15-.25.14.06.15-.09.15-.27.14.26.3-.19.14-.51.3.08.14-.7.3-.25.14-.53.15.68.15-.28.14,0,.15.23.15-.11.14.35.15-.25.15.33.14-.18.29.6h.15l.15-.11.29.31.44-.58.15.35.14-.29.15.56.15-.31.14.58.3-.27.29.3.29,0,.44.35.15,0,.15.13.14-.26.15.08.29.46.15-.18.29.17.15-.08.14.22H358l.15-.26h0"/></g></g><g id="line2d_33" data-name="line2d 33"><g class="cls-5"><path class="cls-8" d="M23.45,42.77l.15.15.15-.5.14.22.3.81.14.21.15-.6.15.74.29-.32.15.46.14-.24.15.62.14-.45.15,0,.15-.27.14,0,.15.74.15-.21.14-1,.15,1.24.15-.09L27,44l.15-.08.14.35.74-.4.14.63.15-.19.15-.46.14.22.15-.18.15-.41.14,0,.15-.35.14.25.15-.69.29.66.15.82.15-.21.14.14.15,1.07.15-.3.14.1.15.5.15-.17.14.17.3-.61.14.38.15-.85.15.66.29.14.15-.15.14,0,.15.28.15-.23.14.09L33,44.5l.14.56.15-.67.15.69.14-.08.15-.33.15.07L34,43.63l.15.49.29-1.51.15-.07.15-.35.44-4,.29-4.64.15-3.11.14,1.72.3,11,.14,1.63.15.05.29,1.13.15-.5.14.73.15-.17.15-.43.14.25.3.76.14-.9.15.68.15-.13.14-.51.3.68.29-.95L39,46.53l.14-.16.15-.73.15.66.14-.29.3.19.29-.48.14.15.44-1.64.3,0,.14.45.3,1.88.14.12.15-.64.15,0,.58-.34.3.52.29-.25.15.33.14-.53.15.29.15-.29.14.5.29-.37.15-.11.15.1.14.37.3-.22.14.07.15-.33.29,0,.15.3.29-.52.15,0,.15.47.14-.34.15.34.15-.7.14-.06.15.64.15-.78.14.3.3-.66.14.79.29-.67.15.1.15-.27.14.73h.15l.15-.66.14.49L49,45l.15.25.29-.94.15.57.14-.59.15.6.29-.34.15.57.29-1.15.3-.71.14-.08.15-.66.14.52.44-2,.3-3.58.29-3.38L52.76,43l.15.6.14,0,.3.8.14-.18.15.28.15-.63.29,1,.29-.57.15.15.15-.19.14.69.44-.67.15,0,.29.33.15,0,.14-.35.15.76.15-.31.14.24.3-.32.14.23.15-.38.15.35.14-.93.3,1.5.14-.51.15.48.44-1.08.15.69.43.38.15-.22.15.08.29.49.29-.76h.15l.15.37.29-.31.15.37.14-.07.15-.26.29.49.15.09.15.36.29-.43.15.61H62l.15-.45.14.61.15-.24.15.77.29-.44.29-.31.15.09.15-.25.14.51.59-1.06.15.51.29-1.24.15-1,.14-1.84.3-.69.44,5.36.14.06.15.78h.14l.15.9.29-.93.3.79.14-.61.15.94.29-.72.15.31.15-.09.14.08.15.56.15-.49.29.61.15-.63.14.64.15-.27.15.12.14-.11.15.5.15-.39.14.26.15,0,.14.36.15-.6.15.22.29-.18.29.33.15.27.15-.28.29.55.15-.19.14-.39.15.93.15-.31.14-.82.15.3.15.76.14-.31.3-.06.14-.53.15.91.29-.4.15.19.14.48.15-.52.15.33.14-.71.15.58h.15l.29.26.29-.07.15-1.05.15.69.14-.59.15.37.15-.05L75.91,48l.15-.2.15-.57.14-1.29.3-3.84.58,7.61.15,0,.29.36.15.39.29.11.15-.51.14.33.15-.15.15.29.29-.62.29.46.15-.49.15.08.14-.17.15-.69.15-.1L80.31,47l.15.41.14,0,.15-.25.14.81.15.18.15.79.14-.07.15.37.15,1.15.14,0,.3.18.14.09.15.28.15-.29.14.05.15-.13.15-.92.14.06.15-.66.29,1.33.15.31.15-.05.14.57.3-1.07.14.63.15-.4.14-.05.15-.81.15-.15.58-3.2.3,2.46.14-.1.15.15.15-.55.29-2.32.15.48.29,3.93.15.82.14-.29.15.7.15-.45.14.29.15-.07.29.38.15-.41.14.21L89,51.2l.15.53.15,0,.14.14.15-.61.15.07.14.54.15.09.29-.54.15.32.15,0,.14.18.15-.34h.29l.15.23.15-.23.14.27.15-.45.29.36.15.07.14-.11.15.21.15-.4.29-.1.15.37.14-.31h.15l.15.33.29-.5.29-.06.15-.52.29.65.15.13.15-.24.14.19.15-.22h.15l.29.22.14-.21.15.08.15-.68.14.27.15-.83.15.13.44-1.6.88-6,.14-.33.74-4.49.29,0,.14-.23.15.3.44-2,.15-1.28.29-4.45.15-1.59.14.61L101,41.94l.29,1.62.15.47.44,5,.15-.63.29.49.15,1.09.14.14.15.47.14-.3.3.2.29-.62.15.59.29-.5.15.14.29.12.29.41.15-.33h.15l.14-.33.44.29.15.53.29-.31.3-.68.14.81.15-1,.29.31.29-1.18.59-1.59.29-2.56.44-9.31.3-6.12.14.45.44,5.4.3,2.27.58,6.16.29.88.15-.14.15.5.14-.45.15-.92.29,2.28.15.23.29,2.5.15,0,.15.74.14,0,.15.31h.15l.58.71.15-.41.15,0,.14.44.15-.64.14,0,.15-.25.15-.52.29-1.44.15.27.44,1.58.14.09.15-.42.15.71.58-5.31.15-2.23.15-.45.58,5.94.15,1.61.44.9.14.52.3-.74.14.11.15.32h.15l.14.11.3-.1.29-.63.15.42.29-.09.29-.29.15-.43.15.32.14-.3.3.05.14,0,.15-.56.29.76.15-.86.14.35.15-.79.29.16.15.59.15-.81.14.29.74-3.91.29,1.2.15.16.14,1,.15-.28.15-.9.14,0,.15.12.15-.83.43-3.93.15.35.15-.13.29,3.68.15.39.14-.36.15-.81.15.17.44,2.69.14-.33.15.17.29-.37.74,1.66.14-.43.15.25.15-.28.14-.71.15-.1.44-1.82.44-5.22.14.39.59,6.37.15,1.42.88,1.19.29.06.15.5.14-.24.3.64.14.19.15-.5.14.4.15-.25.15.78.14-.81.15.42.15-.24.14.1.15-.28.15.53.29-.47.29.8.15.22.15-.67.14.82.15-.39.29.36.15.84.15-.71.14.35.15-.18.58.13.3.51.14-.2.15.33L137,52l.29.44.15-.42.14.53.15-.16.15-.58.44.56.29-.1.15.09.14-.52.15.64.15-.13.14.11.15-.19.14.18.3-.36.14-.11.15-.35.15,0,.44-.76.14-.54.15-1,.29.15.3,1.07.14.72.15-.1.29.78.3-.22.29-.28.15,0,.14-.16.29-1.11.15.32.15-.51.14.14.15.58.44-.77.15-.66.44-3.5.14.14.3,2.44.14,1,.3-.53.29-3.21.29-2.75.15-.43.29-4,.15.1.14.44L148,49.63l.29.95.44.24.15.23.58-.32.15-.06.44-1.16.15-.06.14-1,.15.33.29-.81.15.86.14-.73.15,1.29.15-.11.14.81.15.14.15.43.14,0,.3.87.14-.18.15.36.15-.34.29.74.15-.22.14.16.15-.3.15.27.29-.81.15.07.14.62.15-.6.14.25.15-.11.15.26.14-.12.15.09.29.76.15-.21h.15l.14.15h.15l.15.27.29-.76.15.07.29-.25.15.19.29-.12.15.22.14-.46.15-.08.15-.81L158,51l.29-1.94.15-.11.29-1.15.15-1.9.29-.82.15,2.18.15-.06.29.52.15-.16.14-1,.15.63.29,2.39.15.07.29,1.08.15.37.15-.41.58.1.29-.95.3-2.74.29-3.85.15-.68.44,5,.44,3.59.58,1,.15,0,.15.33.14-.39.15.34.15-.41.14.35.15-.86.29.76.15-.07.14.07.44-.74.15.06.15-1.09.14.78.15-.29.29-.88.15-.28.15-1.25.29.09.29,1.56.15.12.29,1.35.15.28.15-.47.29.65.29-.69.59-4.43.14-.46.3,1.11.14-.64.44,3.35.15,1,.15-.1.29.88.29.29.15.3.15-.17.14,0,.15.21.29-.63.15.42.29-1.28h.15l.14-.63.15.06.15-.3.29.65.29-.72.3-.16.29.9.59-3.35.14.33.44,3.13.44,1.59.15-.24.14-1,.15-.06.29-1,.15.82.29-.89.15.93.29-.16.3.41.14.21.15.4.15-.5.14.15.15-.27.15-.67.14.2.3-.25.14-.18.15.13.14,0,.15-.34.15.84.14-1.12.15.87.29,0,.15.39.15-.15.14.61.15-.51.15.26.14-.27.3-.09.14.43.15-.17.29,0,.3-.68.29-.41.15.52.14-.5.29.94.3-1.28.14-.27.15-.54h.15l.14-1.06.15-.12.15-1.5.14-.18.15-.43.59-4.1h.14l.15-.28.15.24.73,4.77.29-.56.44-2.45.15-.22.14-.53.15-1,.15.67.44,3.67.58,2.36.15.09.15-.25.58,1.28.15-.55.15.28.14-.28.15-.53.14.47.15-.4.15.51.29-.52.15.72.14-.22.3.68.14.86.15-.11L193,51h.15l.15.78.14-.67.3.54.14-.23.15,0,.29-.42.15.07.15-.25.14.22.15-.82.14.8.3-.54.14-.05.59-3.18h.15l.14,1.22.3-.38.14.33.15,0,.15-.48.44-2.89.29,3.2.29.93.15,1.83.44,1.27.14-.27.3-.08.14-.25.15.39.29-.26.74,1.35.14-.44.15.68.15-.49.14.31.15-.45.29.53.3.09.29-.74.14.42.15.07.15-.73.14.1.15-.1.15-.61.14-.08.15-.32.15.09.29.62.15-.17L204,52l.15-.71.15.49.14-.47.15-.87.15.18.14-.12.15.15.29-.28.15.85.15,0,.14-.15.29.48.15-.35.15-.93.14.09.15-.82.15-.07.14.69.15.1.15-.19.14-.58.15.7.15.08.14.45.15,0,.15.41.14-.3.15.57.15,0,.14.09.3.33.14.08.59,1,.14-.15.15.33.15-.17.29.07.15-.56.14.13.15-.14.29.68.15-.07.15-.53.14.37.3-.12.29.25.15-.23.14.29.3-.08.14-.27.15.56.14-.45.15.6.29-.57.15-.14.15.44.14-.59.15,0,.15-.46.14.15.15.66.29-.59.15.65.15-.06.14-.4.15.22.15-.13.14-.29.3.2.14,0,.15.12.88-.32.14-.42.15.59.15-.84.14.7.15-.22.29.08.3-.31.29.05.15-.07.14.1.44-.66.59-.66L222,42.55l.14.61.15-.21,1,7.93.29,1.26.15-.07.29.66.29.42h.15l.14-.27.15.12.15,0,.14.48.15-.53.29.84.3-.49L226,54l.15-.06.15-.27.44.16.58-1,.15.57.15-.88.14.72.15-.13.14.29.15-.37.15.06.29-.74.15.22.14.74H229l.44.63.44.14.73-3.16.15,0,.15.48.14.08.59,1.58.14.12.3.77.14.28.15-.33.29.68.44-.18.15.06.44-.83.15-.07.14.09.15.47.15-.17.29.22.15-.07.29.21.15-.28.14.73.29-.24h.15l.29-.42.15-.7.44,1.25.29-.26.15.58.15-.16.14.09.15-.08.15-.48.14-.07.15.28.15,0,.29-.53.15.58.14-.25.15.09L239,54l.3.69.14.15.15-.5.15.63.14-.34.15.07.15-.37.14,0,.15.17.44.11.15-.33.14.36.15-.55.15.12.29-.7.15-.17.14.23.15-.38.15.5.14-.36.29.42.15-.33.15.32.14.75.15-.21.44.4.15-.55.29.22.29-.29.15.45.15-.15.29,0,.29-.45.15.48.15-.22.14.16.15.5.15-.62.43.43.15.35.29-.42.3-.3.14.27.15-.37.29.37.15-.34.44.53.15-.37.14.15.15-.26.15.22.14-.27.3.24.14-.4.15,0L250,54l.15.14.15.33.14,0,.15-.49h.29l.15.4.15-.4.29.26.15-.09.14.27h.15l.15-.36.44.28,1-1.8.44.87.29.12.3.71.14-.24.15.4.29-.23.15.27.44,0,.15-.21.14,0,.15-.48.15.44.73.23.15-.14.29.66.14-.37.15.28.15-.07.14.07.15-.19.15-.38.29.45.15-.18.14.11.15-.34h.15l.14-.12.15-.79.15.2.14-.42.3.35.44-.12.58,1,.15.12.29-.5.15.31.14-.6.3-.15.44.47.14-.16.3.52.14-.14.3.15.14.12.15-.25.29.4.15,0,.15.22.29-.41.29.36.15-.66.14.09.15-.59.15.07.29-.8.15.5h.14l.15-.16.29.3.15.73.15.07.14-.1.15.51.15.1.14-.11.3.18.14-.58.15.06.29.45.29-.19.15-.49.15.22.14-.33.15.2.15-.31.14,0,.15-.42.15.83.14-.7.3.18.29,1,.15-.31.14.5.15-.38.15.16.14.53.3-.19.29.09.15-.18.14-.42.15.3.14-.08.15-.52.15,0,.29.46.15-.52.14.1.15-.06.44.86.15-.12.14.22.15-.23.15.3.14-.06.15-.2.15.44h.14l.15-.15.15.22.14-.16.15-.34.14.17.15-.11.15.28.44-.47.14.06.44-1.43.15.33h.15l.29.45.15,0,.14-.16.15.44.29-.07.3.22.29-.2.29.23.29,0,.15.39.15-.7L280,55l.3-.59h.29l.29.41.15.29.15-.4.29.45.44.51.15-.22.14.27.74-.12.14.11.73-.24.3.16.14,0,.3-.74.14.19.15-.37.29.29.15.26.15-.18.14-.57.3.61.29.11.15-.5.29.52.14-.16.15.48.15-.54.44.38.14-.32h.3l.58-.32.3-.71.14.11.15-.48.15.14.14-.08.15.17h.15l.14-.35L290,54l.15-.14.14.16.15-.32.29,0,.15-.19H291l.44-1,.44-.7.15.16.15-.46.44,1,.14.21.15-.06.15.25.14.64h.15l.29,1.1.3-.2.29.69.14-.36.59.81h.15l.14.18.3-.56.14.16.15-.16.44-.91.29-.06.15.34.29-.1.3.49.14,0,.15.34.15,0,.29-.57.29.18.29-.48.15.13.15-.05.14-.18.3.74.14,0,.3.57.14-.08.3.72.14-.41.15.25.15-.46.29.61.15-.38.14,0,.29.27.15-.33.29.44.3-.25.14.25.44,0,.15-.1.29.14.15.19.15-.24.14.1.15-.64.29.41.15-.58.15.07.14,0,.44.38.15-.21.29.54.15-.16.14.33.3-.39.14.3.15-.35.15.2.14-.19.15.17.29-.51.3.1h.14l.15.3.29-.47.3-.2.29.21.15-.24h.43l.15.31h.29l.44.65.15-.45.29-.18.15-.09.15-.23.29.14.15.65.14-.21.15-.41.15.32.14,0,.3.38.14-.13.15.48.14-.37.88.21.15-.34.15.21.14-.39.15.21.15-.35.14,0,.15-.52.15.27.44-.38.14.45.15-.28.15,0,.14-.22.15.49.15-.17.29.28.29-.34.15-.42.14.35.15-.31.29.52.15-.3.15.41.14-.26.74.57.14-.19.15.15.15.35.29-.39.15.12.14-.37.15.29.15,0,.14.3.29-.16.3.18.29.11.15-.17.29.13.15-.29.73.16.15-.42.29,0,.29-.33.15.09.15.35.14-.25.15.26.73.12.29-.15.3.21.29-.47.15.36.14,0,.15-.2.15.42.29-.37.15.1.14-.21.15,0,.15.15.14-.08.15.2.44-.11.44,0,.14.26,1.76.14.3-.18.14.33.3-.3.14-.12.15.38.15-.44.14-.05.15.2.29-.53.15.14.29-.14.29.36.15-.13.15-.45.14.13.44-.57.15-.12.15.12.14-.34.15.43.29-1,.15.34.29-.68.15.18.15-.5.14.19.29-.29.15.32.15-.64.14.5.44-.27.15.4.15-.11.14-.49.15.56.15-.09.14.27.15-.3.29.67.15-.28.15.59.14,0,.3.29.29.12.14.35.3-.4.14.2.3-.32.14.47.15-.13.15.29.14,0,.15-.32.44.12.15.26.29-.08h.15l.29-.27.15.23.29-.26.15.22.14-.22.15.09.14-.34.15.59.15-.44.14.22.15-.48.15.49.14-.44.3,0,.29.3.44.1.29.38.15.11.15.29.14-.17.3.06.14.26.15-.18.15.1.14-.15.15-.38L346,56h.3l.14.2.15,0,.15.25.14-.23.15.08.29.35.15-.13.44.41.15-.11.14-.35.44.5.15-.4.29,0,.44.18.59-.27.14-.36.15.2.15-.22.14.14.3-.64.14-.09.15-.72.15.35.14-.35.59.61h.15l.14.32.3.06.14.23H353l.14-.09.3.23.14,0,.15-.15.15,0,.29-.42.15.3.14-.15.15.28.15-.23.29.48.15-.35.29.55.15-.14.29.36.15,0,.14.15.3-.22.29.36L357,57l.15-.11.15.24.29-.22.15.26h.14l.15-.27.15.31h0"/></g></g><g id="patch_3" data-name="patch 3"><path class="cls-9" d="M23.41,158.22V22.32"/></g><g id="patch_4" data-name="patch 4"><path class="cls-9" d="M23.41,158.22h334.8"/></g><g id="text_9" data-name="text 9"><path id="DejaVuSans-4d" d="M155.65,7.57h1.76l2.24,5.95,2.24-5.95h1.76v8.75H162.5V8.64l-2.26,6h-1.18l-2.26-6v7.68h-1.15Z"/><path id="DejaVuSans-6f" d="M168.5,10.51a1.63,1.63,0,0,0-1.37.68,3,3,0,0,0-.51,1.85,3,3,0,0,0,.51,1.86,1.6,1.6,0,0,0,1.37.67,1.58,1.58,0,0,0,1.36-.68,3,3,0,0,0,.51-1.85,3,3,0,0,0-.51-1.85A1.61,1.61,0,0,0,168.5,10.51Zm0-.91a2.79,2.79,0,0,1,2.21.91,3.73,3.73,0,0,1,.8,2.53,3.73,3.73,0,0,1-.8,2.53,3.11,3.11,0,0,1-4.42,0,3.68,3.68,0,0,1-.8-2.53,3.68,3.68,0,0,1,.8-2.53A2.77,2.77,0,0,1,168.5,9.6Z"/><path id="DejaVuSans-64-2" data-name="DejaVuSans-64" d="M177.62,10.75V7.2h1.07v9.12h-1.07v-1a2.32,2.32,0,0,1-.86.87,2.57,2.57,0,0,1-1.25.29,2.34,2.34,0,0,1-1.93-.95,3.92,3.92,0,0,1-.75-2.5,3.89,3.89,0,0,1,.75-2.49,2.32,2.32,0,0,1,1.93-1,2.57,2.57,0,0,1,1.25.28A2.32,2.32,0,0,1,177.62,10.75ZM173.94,13a3.19,3.19,0,0,0,.49,1.87,1.58,1.58,0,0,0,1.35.67,1.55,1.55,0,0,0,1.34-.67,3.12,3.12,0,0,0,.5-1.87,3.09,3.09,0,0,0-.5-1.86,1.56,1.56,0,0,0-1.34-.68,1.59,1.59,0,0,0-1.35.68A3.16,3.16,0,0,0,173.94,13Z"/><path id="DejaVuSans-65-5" data-name="DejaVuSans-65" d="M186.53,12.77v.52h-5a2.5,2.5,0,0,0,.67,1.7,2.3,2.3,0,0,0,1.68.58,4.81,4.81,0,0,0,1.2-.15,5.09,5.09,0,0,0,1.16-.46v1a6.58,6.58,0,0,1-1.19.38,5.74,5.74,0,0,1-1.24.13,3.42,3.42,0,0,1-2.49-.91,3.35,3.35,0,0,1-.91-2.48,3.64,3.64,0,0,1,.87-2.56,3,3,0,0,1,2.34-.94,2.67,2.67,0,0,1,2.1.85A3.35,3.35,0,0,1,186.53,12.77Zm-1.08-.32A2.06,2.06,0,0,0,185,11a1.67,1.67,0,0,0-1.28-.53,2,2,0,0,0-1.45.51,2.14,2.14,0,0,0-.62,1.44Z"/><path id="DejaVuSans-72-2" data-name="DejaVuSans-72" d="M192.1,10.76a1.32,1.32,0,0,0-.39-.15,1.82,1.82,0,0,0-.48,0,1.73,1.73,0,0,0-1.4.59,2.62,2.62,0,0,0-.49,1.71v3.46h-1.08V9.76h1.08v1a2.18,2.18,0,0,1,.89-.89,2.8,2.8,0,0,1,1.32-.29h.25l.3.05Z"/><path id="DejaVuSans-61" d="M196.22,13a3.87,3.87,0,0,0-1.82.3,1.1,1.1,0,0,0-.5,1,1.18,1.18,0,0,0,.38.91,1.5,1.5,0,0,0,1,.33,1.83,1.83,0,0,0,1.44-.63,2.52,2.52,0,0,0,.54-1.69V13Zm2.15-.45v3.75h-1.08v-1a2.41,2.41,0,0,1-.92.88,2.93,2.93,0,0,1-1.35.29,2.21,2.21,0,0,1-1.6-.57,2,2,0,0,1-.6-1.51,2,2,0,0,1,.74-1.67,3.6,3.6,0,0,1,2.21-.56h1.52v-.11a1.42,1.42,0,0,0-.49-1.15,2.12,2.12,0,0,0-1.38-.41,4.4,4.4,0,0,0-1.09.14,4.31,4.31,0,0,0-1,.4v-1a8.18,8.18,0,0,1,1.15-.34,5.82,5.82,0,0,1,1.08-.11,2.79,2.79,0,0,1,2.13.74A3.11,3.11,0,0,1,198.37,12.57Z"/><path id="DejaVuSans-74-3" data-name="DejaVuSans-74" d="M201.65,7.89V9.76h2.22v.83h-2.22v3.57a1.67,1.67,0,0,0,.22,1,1.3,1.3,0,0,0,.9.23h1.1v.9h-1.1a2.47,2.47,0,0,1-1.73-.47,2.37,2.37,0,0,1-.47-1.69V10.59h-.79V9.76h.79V7.89Z"/><path id="DejaVuSans-65-6" data-name="DejaVuSans-65" d="M210.9,12.77v.52h-5a2.46,2.46,0,0,0,.67,1.7,2.29,2.29,0,0,0,1.67.58,4.75,4.75,0,0,0,1.2-.15,4.92,4.92,0,0,0,1.16-.46v1a6.11,6.11,0,0,1-1.19.38,5.65,5.65,0,0,1-1.23.13,3.4,3.4,0,0,1-2.49-.91,3.36,3.36,0,0,1-.92-2.48,3.64,3.64,0,0,1,.87-2.56A3,3,0,0,1,208,9.6a2.66,2.66,0,0,1,2.09.85A3.3,3.3,0,0,1,210.9,12.77Zm-1.07-.32a2.07,2.07,0,0,0-.5-1.41,1.66,1.66,0,0,0-1.28-.53,2,2,0,0,0-1.44.51,2.19,2.19,0,0,0-.63,1.44Z"/><path id="DejaVuSans-2d" d="M212.13,12.55h3.16v1h-3.16Z"/><path id="DejaVuSans-41" d="M219.71,8.74l-1.61,4.35h3.22ZM219,7.57h1.34l3.33,8.75h-1.23l-.79-2.25h-3.95L217,16.32H215.7Z"/><path id="DejaVuSans-6c" d="M224.94,7.2H226v9.12h-1.08Z"/></g></g></g></g><g id="Phases"><g id="LDH"><path class="cls-10" d="M54.58,53.18V46.74h.85v2.64h3.35V46.74h.85v6.44h-.85v-3H55.43v3Z"/><path class="cls-10" d="M123.89,55.8V49.36h.85V52h3.35V49.36h.85V55.8h-.85v-3h-3.35v3Z"/><path class="cls-10" d="M333.2,50.66V44.22h.85v2.64h3.35V44.22h.85v6.44h-.85v-3h-3.35v3Z"/></g><g id="Bayerite"><path d="M220.4,41.39V34.94h2.42a3,3,0,0,1,1.18.2,1.52,1.52,0,0,1,.7.6,1.56,1.56,0,0,1,.25.85,1.44,1.44,0,0,1-.22.78,1.59,1.59,0,0,1-.68.59,1.69,1.69,0,0,1,.9.58,1.58,1.58,0,0,1,.32,1,2,2,0,0,1-.19.84,1.63,1.63,0,0,1-.48.6,1.89,1.89,0,0,1-.7.32,4.42,4.42,0,0,1-1,.11Zm.85-3.74h1.4a3.61,3.61,0,0,0,.81-.07.93.93,0,0,0,.49-.33.91.91,0,0,0,.17-.56,1,1,0,0,0-.16-.56.75.75,0,0,0-.44-.34,3.69,3.69,0,0,0-1-.09h-1.29Zm0,3h1.61a3.82,3.82,0,0,0,.58,0,1.35,1.35,0,0,0,.49-.17,1,1,0,0,0,.33-.36,1.19,1.19,0,0,0,.12-.54,1.11,1.11,0,0,0-.18-.63,1,1,0,0,0-.51-.37,3.29,3.29,0,0,0-.95-.11h-1.49Z"/><path d="M98.61,27V20.58H101a3,3,0,0,1,1.19.2,1.5,1.5,0,0,1,.69.6,1.57,1.57,0,0,1,.26.85,1.5,1.5,0,0,1-.23.78,1.62,1.62,0,0,1-.67.59,1.69,1.69,0,0,1,.9.58,1.64,1.64,0,0,1,.31,1,1.85,1.85,0,0,1-.19.84,1.72,1.72,0,0,1-.47.6,2.22,2.22,0,0,1-.71.32,4.41,4.41,0,0,1-1,.1Zm.86-3.73h1.39a3,3,0,0,0,.81-.08.87.87,0,0,0,.49-.32.91.91,0,0,0,.17-.56,1,1,0,0,0-.16-.56.72.72,0,0,0-.44-.34,3.64,3.64,0,0,0-1-.09H99.47Zm0,3h1.6a3.73,3.73,0,0,0,.58,0,1.28,1.28,0,0,0,.49-.17.89.89,0,0,0,.33-.36,1.2,1.2,0,0,0,.13-.54,1.12,1.12,0,0,0-.19-.63.92.92,0,0,0-.51-.37,2.9,2.9,0,0,0-.94-.11H99.47Z"/><path d="M106.94,27.8V21.36h2.42a3,3,0,0,1,1.19.2,1.5,1.5,0,0,1,.69.6,1.57,1.57,0,0,1,.26.85,1.5,1.5,0,0,1-.23.78,1.62,1.62,0,0,1-.67.59,1.66,1.66,0,0,1,.89.58,1.58,1.58,0,0,1,.32,1,2,2,0,0,1-.19.84,1.72,1.72,0,0,1-.47.6,2.22,2.22,0,0,1-.71.32,4.41,4.41,0,0,1-1,.1Zm.86-3.73h1.39A3,3,0,0,0,110,24a.87.87,0,0,0,.49-.32.91.91,0,0,0,.17-.56,1,1,0,0,0-.16-.56.75.75,0,0,0-.44-.34,3.64,3.64,0,0,0-1-.09H107.8Zm0,3h1.6a3.73,3.73,0,0,0,.58,0,1.28,1.28,0,0,0,.49-.17,1,1,0,0,0,.33-.36,1.2,1.2,0,0,0,.13-.54,1.12,1.12,0,0,0-.19-.63.92.92,0,0,0-.51-.37,2.9,2.9,0,0,0-.94-.11H107.8Z"/></g><g id="ZeoliteA"><path class="cls-11" d="M32.71,29l2.48-6.44h.92L38.74,29h-1L37,27H34.33L33.62,29Zm1.86-2.64h2.19l-.67-1.79c-.21-.54-.36-1-.46-1.33a8.11,8.11,0,0,1-.35,1.23Z"/><path class="cls-11" d="M49.4,33.82l2.47-6.44h.92l2.63,6.44h-1l-.75-1.95H51l-.71,1.95Zm1.85-2.65h2.19l-.67-1.78c-.21-.54-.36-1-.46-1.34A7.5,7.5,0,0,1,52,29.28Z"/><path class="cls-11" d="M62,39.67l2.48-6.44h.92l2.63,6.44h-1l-.75-2H63.64l-.71,2ZM63.88,37h2.19l-.68-1.79c-.2-.54-.35-1-.45-1.33a9.46,9.46,0,0,1-.35,1.23Z"/><path class="cls-11" d="M83.77,45.26l2.47-6.45h.92l2.64,6.45h-1l-.75-1.95h-2.7l-.71,1.95Zm1.86-2.65h2.18l-.67-1.78c-.21-.54-.36-1-.46-1.34a8.11,8.11,0,0,1-.35,1.23Z"/><path class="cls-11" d="M113.43,41.65l2.48-6.44h.92l2.63,6.44h-1l-.75-1.95h-2.69l-.71,1.95ZM115.29,39h2.19l-.68-1.79c-.2-.54-.35-1-.45-1.33a9.46,9.46,0,0,1-.35,1.23Z"/><path class="cls-11" d="M126.52,38.18,129,31.73h.92l2.64,6.45h-1l-.76-2h-2.69l-.71,2Zm1.86-2.65h2.18l-.67-1.78c-.21-.54-.36-1-.46-1.34a8.11,8.11,0,0,1-.35,1.23Z"/><path class="cls-11" d="M144.3,37.3l2.47-6.44h.92l2.64,6.44h-1l-.75-1.95h-2.69l-.71,1.95Zm1.86-2.64h2.18l-.67-1.79c-.21-.54-.36-1-.46-1.33a8.11,8.11,0,0,1-.35,1.23Z"/><path class="cls-11" d="M159.89,40.13l2.47-6.44h.92l2.64,6.44h-1l-.75-2h-2.7l-.71,2Zm1.86-2.64h2.18l-.67-1.79c-.21-.54-.36-1-.46-1.33a9.4,9.4,0,0,1-.34,1.23Z"/></g><g id="DSP"><path class="cls-12" d="M90.3,30.78V24.34h2.22a5.42,5.42,0,0,1,1.14.09,2.28,2.28,0,0,1,1,.46,2.69,2.69,0,0,1,.76,1.1,5,5,0,0,1,.08,2.84,3,3,0,0,1-.44.94,2.13,2.13,0,0,1-1.35.9,4.1,4.1,0,0,1-1,.11Zm.85-.76h1.38a3.25,3.25,0,0,0,1-.12,1.41,1.41,0,0,0,.58-.33,2,2,0,0,0,.48-.82,4.06,4.06,0,0,0,.16-1.24A3,3,0,0,0,94.41,26a1.73,1.73,0,0,0-.8-.73,3.33,3.33,0,0,0-1.11-.13H91.15Z"/><path class="cls-12" d="M186.69,39.86V33.42h2.22a5.53,5.53,0,0,1,1.15.09A2.24,2.24,0,0,1,191,34a2.71,2.71,0,0,1,.77,1.1,4.33,4.33,0,0,1,.25,1.54,4.71,4.71,0,0,1-.17,1.3,3.22,3.22,0,0,1-.44.93,2.2,2.2,0,0,1-.59.59,2.35,2.35,0,0,1-.77.32,4,4,0,0,1-1,.11Zm.86-.76h1.37a3.27,3.27,0,0,0,1-.12,1.47,1.47,0,0,0,.58-.33,2,2,0,0,0,.47-.82,4,4,0,0,0,.17-1.24,3,3,0,0,0-.33-1.55,1.66,1.66,0,0,0-.81-.73,3.26,3.26,0,0,0-1.1-.13h-1.35Z"/><line x1="95.32" y1="31.48" x2="97.74" y2="37.03"/><line class="cls-13" x1="95.32" y1="31.48" x2="97.29" y2="35.99"/><path class="cls-12" d="M97.74,37a5.71,5.71,0,0,0-1.46-1.11l1-.06.69-.66A5.56,5.56,0,0,0,97.74,37Z"/><path class="cls-12" d="M173.64,45.87V39.43h2.22a5.42,5.42,0,0,1,1.14.09A2.18,2.18,0,0,1,178,40a2.56,2.56,0,0,1,.76,1.1,4.23,4.23,0,0,1,.25,1.53,4.31,4.31,0,0,1-.17,1.3,3,3,0,0,1-.44.94,2.13,2.13,0,0,1-1.35.9,4.1,4.1,0,0,1-1,.11Zm.85-.76h1.38a3.79,3.79,0,0,0,1-.11,1.44,1.44,0,0,0,.57-.34,2,2,0,0,0,.48-.81,4.15,4.15,0,0,0,.17-1.25,3,3,0,0,0-.34-1.55,1.73,1.73,0,0,0-.8-.73,3.62,3.62,0,0,0-1.11-.13h-1.35Z"/><path class="cls-12" d="M196.17,44.06V37.62h2.22a5.6,5.6,0,0,1,1.15.09,2.3,2.3,0,0,1,.94.46,2.69,2.69,0,0,1,.76,1.1,4.3,4.3,0,0,1,.26,1.53,4.37,4.37,0,0,1-.18,1.31,3,3,0,0,1-.44.93,2.18,2.18,0,0,1-.58.59,2.44,2.44,0,0,1-.77.32,4.61,4.61,0,0,1-1,.11Zm.85-.76h1.38a3.32,3.32,0,0,0,1-.12,1.43,1.43,0,0,0,.57-.33,2,2,0,0,0,.48-.82,4,4,0,0,0,.17-1.24,2.9,2.9,0,0,0-.34-1.55,1.68,1.68,0,0,0-.8-.73,3.3,3.3,0,0,0-1.1-.13H197Z"/></g><g id="MSP"><path class="cls-12" d="M73.4,39.86V33.42h1.28L76.21,38q.21.65.3,1c.08-.24.19-.58.35-1l1.54-4.48h1.15v6.44h-.82V34.47l-1.88,5.39h-.77l-1.86-5.48v5.48Z"/><path class="cls-12" d="M113.68,31.6V25.16H115l1.52,4.56.31,1c.07-.23.19-.58.34-1l1.54-4.48h1.15V31.6H119V26.21l-1.87,5.39h-.77l-1.87-5.49V31.6Z"/><line x1="114.47" y1="33.2" x2="111.15" y2="40.28"/><line class="cls-13" x1="114.47" y1="33.2" x2="111.63" y2="39.25"/><path class="cls-12" d="M111.15,40.28a5.56,5.56,0,0,0-.13-1.83l.67.67,1,.08A5.56,5.56,0,0,0,111.15,40.28Z"/></g></g><g id="Age_Lables" data-name="Age Lables"><path class="cls-14" d="M322.76,141.28H322v-5a4,4,0,0,1-.75.54,4.84,4.84,0,0,1-.83.41v-.76a5,5,0,0,0,1.16-.76,2.91,2.91,0,0,0,.7-.86h.51Z"/><path class="cls-14" d="M324.7,139.35v-.8h2.43v.8Z"/><path class="cls-14" d="M331,141.28v-.59a1.46,1.46,0,0,1-1.31.69,1.84,1.84,0,0,1-1-.3,2.06,2.06,0,0,1-.73-.86,3,3,0,0,1-.25-1.27,3.23,3.23,0,0,1,.23-1.27,1.79,1.79,0,0,1,.7-.87,1.86,1.86,0,0,1,1-.3,1.52,1.52,0,0,1,1.29.64v-2.31h.78v6.44Zm-2.5-2.33a2,2,0,0,0,.38,1.34,1.13,1.13,0,0,0,1.77,0A2,2,0,0,0,331,139a2.18,2.18,0,0,0-.37-1.41,1.13,1.13,0,0,0-1.79,0A2.17,2.17,0,0,0,328.53,139Z"/><path class="cls-14" d="M336.05,140.7a2.84,2.84,0,0,1-.84.53,2.58,2.58,0,0,1-.88.15,1.7,1.7,0,0,1-1.18-.37,1.25,1.25,0,0,1-.41-1,1.33,1.33,0,0,1,.15-.63,1.28,1.28,0,0,1,.41-.45,1.85,1.85,0,0,1,.57-.26,6.31,6.31,0,0,1,.71-.12,8.4,8.4,0,0,0,1.41-.27v-.21a.87.87,0,0,0-.22-.68,1.34,1.34,0,0,0-.9-.27,1.41,1.41,0,0,0-.83.2,1.15,1.15,0,0,0-.39.69l-.78-.11a2,2,0,0,1,.35-.8,1.57,1.57,0,0,1,.7-.47,3.11,3.11,0,0,1,1.06-.16,2.65,2.65,0,0,1,1,.14,1.28,1.28,0,0,1,.55.35,1.23,1.23,0,0,1,.25.54,5.29,5.29,0,0,1,0,.73v1a10.14,10.14,0,0,0,0,1.4,1.71,1.71,0,0,0,.2.56h-.83A1.89,1.89,0,0,1,336.05,140.7Zm-.06-1.76a6.85,6.85,0,0,1-1.3.3,3.35,3.35,0,0,0-.69.15.72.72,0,0,0-.31.26.7.7,0,0,0-.11.38.66.66,0,0,0,.24.52,1,1,0,0,0,.7.22,1.62,1.62,0,0,0,.81-.2,1.27,1.27,0,0,0,.53-.55,2,2,0,0,0,.13-.79Z"/><path class="cls-14" d="M338,143.08l-.09-.75a1.6,1.6,0,0,0,.45.07.83.83,0,0,0,.42-.08.63.63,0,0,0,.26-.25,4,4,0,0,0,.24-.59s0-.11.07-.19l-1.77-4.68h.86l1,2.7c.12.35.24.71.34,1.09a9.45,9.45,0,0,1,.32-1.07l1-2.72h.79l-1.78,4.75a9.36,9.36,0,0,1-.44,1.06,1.55,1.55,0,0,1-.48.57,1.15,1.15,0,0,1-.65.18A1.61,1.61,0,0,1,338,143.08Z"/><path class="cls-15" d="M323.94,89.36v.76h-4.26a1.3,1.3,0,0,1,.09-.55,3,3,0,0,1,.52-.86,7.91,7.91,0,0,1,1-1,9,9,0,0,0,1.42-1.37,1.64,1.64,0,0,0,.36-1,1.07,1.07,0,0,0-.33-.79,1.21,1.21,0,0,0-.88-.32,1.22,1.22,0,0,0-.91.34,1.28,1.28,0,0,0-.35.95l-.81-.08a2,2,0,0,1,.63-1.39,2.12,2.12,0,0,1,1.46-.48,2,2,0,0,1,1.47.52,1.67,1.67,0,0,1,.54,1.27,2,2,0,0,1-.16.76,3,3,0,0,1-.53.79A12.75,12.75,0,0,1,322,88.12c-.47.4-.77.67-.91.81a2.47,2.47,0,0,0-.33.43Z"/><path class="cls-15" d="M326,86.63a1.45,1.45,0,0,1-.73-.52,1.33,1.33,0,0,1-.24-.8,1.55,1.55,0,0,1,.51-1.18,2.12,2.12,0,0,1,2.7,0,1.62,1.62,0,0,1,.52,1.2,1.28,1.28,0,0,1-.24.77,1.44,1.44,0,0,1-.71.52,1.74,1.74,0,0,1,.9.62,1.7,1.7,0,0,1,.31,1,1.86,1.86,0,0,1-.58,1.39,2.4,2.4,0,0,1-3.08,0,1.89,1.89,0,0,1-.58-1.41,1.75,1.75,0,0,1,.31-1.06A1.63,1.63,0,0,1,326,86.63Zm-.41,1.63a1.4,1.4,0,0,0,.16.66,1.17,1.17,0,0,0,.47.49,1.5,1.5,0,0,0,.69.17,1.27,1.27,0,0,0,.93-.36,1.26,1.26,0,0,0,.37-.93A1.28,1.28,0,0,0,326.88,87a1.22,1.22,0,0,0-.92.37A1.24,1.24,0,0,0,325.59,88.26Zm.25-3a1,1,0,0,0,.3.74,1.14,1.14,0,0,0,1.51,0,1,1,0,0,0,.29-.71,1,1,0,0,0-.3-.73,1,1,0,0,0-.75-.3,1.05,1.05,0,0,0-.75.29A1,1,0,0,0,325.84,85.29Z"/><path class="cls-15" d="M329.7,88.19v-.8h2.43v.8Z"/><path class="cls-15" d="M336,90.12v-.59a1.45,1.45,0,0,1-1.3.7,1.89,1.89,0,0,1-1-.31,2,2,0,0,1-.72-.86,3,3,0,0,1-.26-1.27,3.46,3.46,0,0,1,.23-1.27,1.85,1.85,0,0,1,.7-.87,1.89,1.89,0,0,1,1-.3,1.55,1.55,0,0,1,.76.18A1.58,1.58,0,0,1,336,86V83.68h.79v6.44Zm-2.5-2.33a2,2,0,0,0,.38,1.34,1.11,1.11,0,0,0,1.77,0,1.89,1.89,0,0,0,.37-1.29,2.24,2.24,0,0,0-.37-1.41,1.14,1.14,0,0,0-.91-.45,1.11,1.11,0,0,0-.88.43A2.11,2.11,0,0,0,333.53,87.79Z"/><path class="cls-15" d="M341.06,89.54a3,3,0,0,1-.85.53,2.49,2.49,0,0,1-.87.16,1.69,1.69,0,0,1-1.18-.38,1.31,1.31,0,0,1-.26-1.59,1.19,1.19,0,0,1,.41-.45,1.85,1.85,0,0,1,.57-.26,6.05,6.05,0,0,1,.7-.12,8,8,0,0,0,1.41-.27c0-.11,0-.18,0-.21a.87.87,0,0,0-.23-.68,1.31,1.31,0,0,0-.9-.27,1.37,1.37,0,0,0-.82.2,1.21,1.21,0,0,0-.4.69l-.77-.11a2,2,0,0,1,.35-.8,1.52,1.52,0,0,1,.7-.47,3.05,3.05,0,0,1,1.05-.16,3,3,0,0,1,1,.14,1.12,1.12,0,0,1,.79.89,4.11,4.11,0,0,1,0,.73v1.06a12,12,0,0,0,0,1.39,1.88,1.88,0,0,0,.2.56h-.83A1.59,1.59,0,0,1,341.06,89.54ZM341,87.78a5.6,5.6,0,0,1-1.29.3,2.49,2.49,0,0,0-.69.16.6.6,0,0,0-.31.25.63.63,0,0,0-.11.38.68.68,0,0,0,.24.53,1,1,0,0,0,.7.21,1.68,1.68,0,0,0,.81-.2,1.25,1.25,0,0,0,.52-.55,1.82,1.82,0,0,0,.13-.79Z"/><path class="cls-15" d="M343,91.92l-.09-.74a2.24,2.24,0,0,0,.46.07.87.87,0,0,0,.42-.09.77.77,0,0,0,.26-.25,3.57,3.57,0,0,0,.24-.59s0-.11.07-.19l-1.77-4.68h.85l1,2.71a10.52,10.52,0,0,1,.34,1.08,9.48,9.48,0,0,1,.33-1.07l1-2.72h.79l-1.77,4.75a8.22,8.22,0,0,1-.45,1.06,1.55,1.55,0,0,1-.48.57,1.16,1.16,0,0,1-.65.19A1.76,1.76,0,0,1,343,91.92Z"/><path class="cls-15" d="M347.2,88.73l.78-.13a1.14,1.14,0,0,0,.37.73,1.31,1.31,0,0,0,.84.25,1.24,1.24,0,0,0,.81-.23.63.63,0,0,0,.26-.52.46.46,0,0,0-.23-.42,3.56,3.56,0,0,0-.81-.27,6.32,6.32,0,0,1-1.2-.38,1.06,1.06,0,0,1-.51-.44,1.19,1.19,0,0,1,0-1.21,1.33,1.33,0,0,1,.38-.44,2,2,0,0,1,.51-.23,2.48,2.48,0,0,1,.68-.09,2.63,2.63,0,0,1,1,.16,1.23,1.23,0,0,1,.61.43,1.64,1.64,0,0,1,.27.72l-.77.1a.87.87,0,0,0-.31-.56,1.13,1.13,0,0,0-.71-.2,1.3,1.3,0,0,0-.78.18.51.51,0,0,0-.23.42.47.47,0,0,0,.09.28.84.84,0,0,0,.31.21c.08,0,.31.1.7.2a9.3,9.3,0,0,1,1.17.37,1.18,1.18,0,0,1,.52.41,1.21,1.21,0,0,1,.19.68,1.34,1.34,0,0,1-.23.74,1.44,1.44,0,0,1-.67.54,2.38,2.38,0,0,1-1,.2,2.21,2.21,0,0,1-1.39-.38A1.77,1.77,0,0,1,347.2,88.73Z"/><path d="M322.31,28.08V26.54h-2.79v-.73l2.94-4.17h.65v4.17H324v.73h-.87v1.54Zm0-2.27v-2.9l-2,2.9Z"/><path d="M324.84,22.48v-.76H329v.61a8.89,8.89,0,0,0-1.22,1.74,10.87,10.87,0,0,0-.94,2.24,8.6,8.6,0,0,0-.3,1.77h-.81a8,8,0,0,1,.3-1.84,9.21,9.21,0,0,1,.82-2.07A8.71,8.71,0,0,1,328,22.48Z"/><path d="M329.79,24.9a5.82,5.82,0,0,1,.24-1.84,2.29,2.29,0,0,1,.69-1.07,1.81,1.81,0,0,1,1.17-.38,1.88,1.88,0,0,1,.91.21,1.78,1.78,0,0,1,.65.6,3.26,3.26,0,0,1,.4,1A6.7,6.7,0,0,1,334,24.9a6,6,0,0,1-.23,1.83,2.34,2.34,0,0,1-.7,1.08,1.81,1.81,0,0,1-1.17.38,1.75,1.75,0,0,1-1.46-.67A4.22,4.22,0,0,1,329.79,24.9Zm.81,0A4.11,4.11,0,0,0,331,27a1.06,1.06,0,0,0,1.84,0,4.11,4.11,0,0,0,.37-2.11,4.11,4.11,0,0,0-.37-2.11,1.12,1.12,0,0,0-.93-.53,1,1,0,0,0-.87.47A4.07,4.07,0,0,0,330.6,24.9Z"/><path d="M334.71,26.14v-.79h2.43v.79Z"/><path d="M341,28.08v-.59a1.44,1.44,0,0,1-1.3.69,1.85,1.85,0,0,1-1-.3A2.2,2.2,0,0,1,338,27a3,3,0,0,1-.25-1.27,3.23,3.23,0,0,1,.23-1.27,1.85,1.85,0,0,1,.7-.87,1.89,1.89,0,0,1,1-.3A1.52,1.52,0,0,1,341,24V21.64h.79v6.44Zm-2.5-2.33a2,2,0,0,0,.38,1.34,1.13,1.13,0,0,0,1.77,0,2,2,0,0,0,.36-1.3,2.23,2.23,0,0,0-.36-1.4,1.14,1.14,0,0,0-.91-.45,1.1,1.1,0,0,0-.89.43A2.17,2.17,0,0,0,338.54,25.75Z"/><path d="M346.06,27.5a2.84,2.84,0,0,1-.84.53,2.5,2.5,0,0,1-.88.15,1.7,1.7,0,0,1-1.18-.37,1.25,1.25,0,0,1-.41-1,1.23,1.23,0,0,1,.16-.63,1.25,1.25,0,0,1,.4-.45,1.85,1.85,0,0,1,.57-.26,6.31,6.31,0,0,1,.71-.12,8,8,0,0,0,1.41-.27v-.21a.87.87,0,0,0-.22-.68,1.31,1.31,0,0,0-.9-.27,1.41,1.41,0,0,0-.83.2,1.2,1.2,0,0,0-.39.69l-.77-.11a1.9,1.9,0,0,1,.34-.8,1.57,1.57,0,0,1,.7-.47,3.15,3.15,0,0,1,1.06-.16,2.65,2.65,0,0,1,1,.14,1.28,1.28,0,0,1,.55.35,1.23,1.23,0,0,1,.25.54,5.29,5.29,0,0,1,0,.73v1.05a10.14,10.14,0,0,0,.05,1.4,1.71,1.71,0,0,0,.2.56h-.83A2,2,0,0,1,346.06,27.5ZM346,25.74a6.91,6.91,0,0,1-1.29.3,2.58,2.58,0,0,0-.69.15.75.75,0,0,0-.32.26.7.7,0,0,0-.11.38.66.66,0,0,0,.24.52,1,1,0,0,0,.7.21,1.58,1.58,0,0,0,.82-.2,1.23,1.23,0,0,0,.52-.54A1.82,1.82,0,0,0,346,26Z"/><path d="M348,29.88l-.09-.75a1.6,1.6,0,0,0,.45.07,1,1,0,0,0,.43-.08.75.75,0,0,0,.25-.25,3.68,3.68,0,0,0,.25-.59.93.93,0,0,1,.07-.19l-1.77-4.68h.85l1,2.7c.13.35.24.71.34,1.09.09-.37.2-.72.32-1.07l1-2.72h.79l-1.77,4.75a8.92,8.92,0,0,1-.45,1.06,1.55,1.55,0,0,1-.48.57,1.15,1.15,0,0,1-.65.18A1.72,1.72,0,0,1,348,29.88Z"/><path d="M352.21,26.69l.78-.13a1.05,1.05,0,0,0,.37.72,1.26,1.26,0,0,0,.84.25,1.24,1.24,0,0,0,.81-.22.68.68,0,0,0,.26-.52.48.48,0,0,0-.23-.42,3.56,3.56,0,0,0-.81-.27,7.72,7.72,0,0,1-1.21-.38,1.22,1.22,0,0,1-.51-.44,1.24,1.24,0,0,1-.17-.63,1.27,1.27,0,0,1,.14-.58,1.49,1.49,0,0,1,.39-.44,1.56,1.56,0,0,1,.5-.23,2.56,2.56,0,0,1,.69-.09,2.8,2.8,0,0,1,1,.15,1.4,1.4,0,0,1,.62.43,1.69,1.69,0,0,1,.27.73l-.78.1a.8.8,0,0,0-.3-.56,1.1,1.1,0,0,0-.72-.2,1.26,1.26,0,0,0-.77.18.52.52,0,0,0-.24.42.45.45,0,0,0,.1.27.71.71,0,0,0,.3.22l.7.2a8.77,8.77,0,0,1,1.17.37,1.1,1.1,0,0,1,.71,1.09,1.27,1.27,0,0,1-.23.74,1.43,1.43,0,0,1-.66.54,2.4,2.4,0,0,1-1,.19,2.18,2.18,0,0,1-1.38-.37A1.79,1.79,0,0,1,352.21,26.69Z"/></g></svg>