<?xml version="1.0" encoding="utf-8" standalone="no"?>
<!DOCTYPE svg PUBLIC "-//W3C//DTD SVG 1.1//EN"
  "http://www.w3.org/Graphics/SVG/1.1/DTD/svg11.dtd">
<svg xmlns:xlink="http://www.w3.org/1999/xlink" width="147.300313pt" height="192.94125pt" viewBox="0 0 147.300313 192.94125" xmlns="http://www.w3.org/2000/svg" version="1.1">
 <metadata>
  <rdf:RDF xmlns:dc="http://purl.org/dc/elements/1.1/" xmlns:cc="http://creativecommons.org/ns#" xmlns:rdf="http://www.w3.org/1999/02/22-rdf-syntax-ns#">
   <cc:Work>
    <dc:type rdf:resource="http://purl.org/dc/dcmitype/StillImage"/>
    <dc:date>2023-06-05T22:11:26.063131</dc:date>
    <dc:format>image/svg+xml</dc:format>
    <dc:creator>
     <cc:Agent>
      <dc:title>Matplotlib v3.7.1, https://matplotlib.org/</dc:title>
     </cc:Agent>
    </dc:creator>
   </cc:Work>
  </rdf:RDF>
 </metadata>
 <defs>
  <style type="text/css">*{stroke-linejoin: round; stroke-linecap: butt}</style>
 </defs>
 <g id="figure_1">
  <g id="patch_1">
   <path d="M 0 192.94125 
L 147.300313 192.94125 
L 147.300313 0 
L 0 0 
z
" style="fill: #ffffff"/>
  </g>
  <g id="axes_1">
   <g id="patch_2">
    <path d="M 23.410313 158.218125 
L 135.010312 158.218125 
L 135.010312 22.318125 
L 23.410313 22.318125 
z
" style="fill: #ffffff"/>
   </g>
   <g id="matplotlib.axis_1">
    <g id="xtick_1">
     <g id="line2d_1">
      <defs>
       <path id="m08af98be4b" d="M 0 0 
L 0 3.5 
" style="stroke: #000000; stroke-width: 0.8"/>
      </defs>
      <g>
       <use xlink:href="#m08af98be4b" x="23.410312" y="158.218125" style="stroke: #000000; stroke-width: 0.8"/>
      </g>
     </g>
     <g id="text_1">
      <!-- 10 -->
      <g transform="translate(18.320312 171.296875) scale(0.08 -0.08)">
       <defs>
        <path id="DejaVuSans-31" d="M 794 531 
L 1825 531 
L 1825 4091 
L 703 3866 
L 703 4441 
L 1819 4666 
L 2450 4666 
L 2450 531 
L 3481 531 
L 3481 0 
L 794 0 
L 794 531 
z
" transform="scale(0.015625)"/>
        <path id="DejaVuSans-30" d="M 2034 4250 
Q 1547 4250 1301 3770 
Q 1056 3291 1056 2328 
Q 1056 1369 1301 889 
Q 1547 409 2034 409 
Q 2525 409 2770 889 
Q 3016 1369 3016 2328 
Q 3016 3291 2770 3770 
Q 2525 4250 2034 4250 
z
M 2034 4750 
Q 2819 4750 3233 4129 
Q 3647 3509 3647 2328 
Q 3647 1150 3233 529 
Q 2819 -91 2034 -91 
Q 1250 -91 836 529 
Q 422 1150 422 2328 
Q 422 3509 836 4129 
Q 1250 4750 2034 4750 
z
" transform="scale(0.015625)"/>
       </defs>
       <use xlink:href="#DejaVuSans-31"/>
       <use xlink:href="#DejaVuSans-30" x="63.623047"/>
      </g>
     </g>
    </g>
    <g id="xtick_2">
     <g id="line2d_2">
      <g>
       <use xlink:href="#m08af98be4b" x="60.610312" y="158.218125" style="stroke: #000000; stroke-width: 0.8"/>
      </g>
     </g>
     <g id="text_2">
      <!-- 11 -->
      <g transform="translate(55.520312 171.296875) scale(0.08 -0.08)">
       <use xlink:href="#DejaVuSans-31"/>
       <use xlink:href="#DejaVuSans-31" x="63.623047"/>
      </g>
     </g>
    </g>
    <g id="xtick_3">
     <g id="line2d_3">
      <g>
       <use xlink:href="#m08af98be4b" x="97.810313" y="158.218125" style="stroke: #000000; stroke-width: 0.8"/>
      </g>
     </g>
     <g id="text_3">
      <!-- 12 -->
      <g transform="translate(92.720313 171.296875) scale(0.08 -0.08)">
       <defs>
        <path id="DejaVuSans-32" d="M 1228 531 
L 3431 531 
L 3431 0 
L 469 0 
L 469 531 
Q 828 903 1448 1529 
Q 2069 2156 2228 2338 
Q 2531 2678 2651 2914 
Q 2772 3150 2772 3378 
Q 2772 3750 2511 3984 
Q 2250 4219 1831 4219 
Q 1534 4219 1204 4116 
Q 875 4013 500 3803 
L 500 4441 
Q 881 4594 1212 4672 
Q 1544 4750 1819 4750 
Q 2544 4750 2975 4387 
Q 3406 4025 3406 3419 
Q 3406 3131 3298 2873 
Q 3191 2616 2906 2266 
Q 2828 2175 2409 1742 
Q 1991 1309 1228 531 
z
" transform="scale(0.015625)"/>
       </defs>
       <use xlink:href="#DejaVuSans-31"/>
       <use xlink:href="#DejaVuSans-32" x="63.623047"/>
      </g>
     </g>
    </g>
    <g id="xtick_4">
     <g id="line2d_4">
      <g>
       <use xlink:href="#m08af98be4b" x="135.010312" y="158.218125" style="stroke: #000000; stroke-width: 0.8"/>
      </g>
     </g>
     <g id="text_4">
      <!-- 13 -->
      <g transform="translate(129.920312 171.296875) scale(0.08 -0.08)">
       <defs>
        <path id="DejaVuSans-33" d="M 2597 2516 
Q 3050 2419 3304 2112 
Q 3559 1806 3559 1356 
Q 3559 666 3084 287 
Q 2609 -91 1734 -91 
Q 1441 -91 1130 -33 
Q 819 25 488 141 
L 488 750 
Q 750 597 1062 519 
Q 1375 441 1716 441 
Q 2309 441 2620 675 
Q 2931 909 2931 1356 
Q 2931 1769 2642 2001 
Q 2353 2234 1838 2234 
L 1294 2234 
L 1294 2753 
L 1863 2753 
Q 2328 2753 2575 2939 
Q 2822 3125 2822 3475 
Q 2822 3834 2567 4026 
Q 2313 4219 1838 4219 
Q 1578 4219 1281 4162 
Q 984 4106 628 3988 
L 628 4550 
Q 988 4650 1302 4700 
Q 1616 4750 1894 4750 
Q 2613 4750 3031 4423 
Q 3450 4097 3450 3541 
Q 3450 3153 3228 2886 
Q 3006 2619 2597 2516 
z
" transform="scale(0.015625)"/>
       </defs>
       <use xlink:href="#DejaVuSans-31"/>
       <use xlink:href="#DejaVuSans-33" x="63.623047"/>
      </g>
     </g>
    </g>
    <g id="xtick_5">
     <g id="line2d_5">
      <defs>
       <path id="m53c25958da" d="M 0 0 
L 0 2 
" style="stroke: #000000; stroke-width: 0.6"/>
      </defs>
      <g>
       <use xlink:href="#m53c25958da" x="116.410312" y="158.218125" style="stroke: #000000; stroke-width: 0.6"/>
      </g>
     </g>
    </g>
    <g id="text_5">
     <!-- 2θ (degrees) -->
     <g transform="translate(50.538984 183.869531) scale(0.09 -0.09)">
      <defs>
       <path id="DejaVuSans-3b8" d="M 2953 2219 
L 963 2219 
Q 1009 1284 1225 888 
Q 1494 400 1959 400 
Q 2428 400 2688 891 
Q 2916 1322 2953 2219 
z
M 2944 2750 
Q 2856 3638 2688 3950 
Q 2419 4444 1959 4444 
Q 1481 4444 1228 3956 
Q 1028 3563 969 2750 
L 2944 2750 
z
M 1959 4913 
Q 2709 4913 3138 4250 
Q 3566 3591 3566 2422 
Q 3566 1256 3138 594 
Q 2709 -72 1959 -72 
Q 1206 -72 781 594 
Q 353 1256 353 2422 
Q 353 3591 781 4250 
Q 1206 4913 1959 4913 
z
" transform="scale(0.015625)"/>
       <path id="DejaVuSans-20" transform="scale(0.015625)"/>
       <path id="DejaVuSans-28" d="M 1984 4856 
Q 1566 4138 1362 3434 
Q 1159 2731 1159 2009 
Q 1159 1288 1364 580 
Q 1569 -128 1984 -844 
L 1484 -844 
Q 1016 -109 783 600 
Q 550 1309 550 2009 
Q 550 2706 781 3412 
Q 1013 4119 1484 4856 
L 1984 4856 
z
" transform="scale(0.015625)"/>
       <path id="DejaVuSans-64" d="M 2906 2969 
L 2906 4863 
L 3481 4863 
L 3481 0 
L 2906 0 
L 2906 525 
Q 2725 213 2448 61 
Q 2172 -91 1784 -91 
Q 1150 -91 751 415 
Q 353 922 353 1747 
Q 353 2572 751 3078 
Q 1150 3584 1784 3584 
Q 2172 3584 2448 3432 
Q 2725 3281 2906 2969 
z
M 947 1747 
Q 947 1113 1208 752 
Q 1469 391 1925 391 
Q 2381 391 2643 752 
Q 2906 1113 2906 1747 
Q 2906 2381 2643 2742 
Q 2381 3103 1925 3103 
Q 1469 3103 1208 2742 
Q 947 2381 947 1747 
z
" transform="scale(0.015625)"/>
       <path id="DejaVuSans-65" d="M 3597 1894 
L 3597 1613 
L 953 1613 
Q 991 1019 1311 708 
Q 1631 397 2203 397 
Q 2534 397 2845 478 
Q 3156 559 3463 722 
L 3463 178 
Q 3153 47 2828 -22 
Q 2503 -91 2169 -91 
Q 1331 -91 842 396 
Q 353 884 353 1716 
Q 353 2575 817 3079 
Q 1281 3584 2069 3584 
Q 2775 3584 3186 3129 
Q 3597 2675 3597 1894 
z
M 3022 2063 
Q 3016 2534 2758 2815 
Q 2500 3097 2075 3097 
Q 1594 3097 1305 2825 
Q 1016 2553 972 2059 
L 3022 2063 
z
" transform="scale(0.015625)"/>
       <path id="DejaVuSans-67" d="M 2906 1791 
Q 2906 2416 2648 2759 
Q 2391 3103 1925 3103 
Q 1463 3103 1205 2759 
Q 947 2416 947 1791 
Q 947 1169 1205 825 
Q 1463 481 1925 481 
Q 2391 481 2648 825 
Q 2906 1169 2906 1791 
z
M 3481 434 
Q 3481 -459 3084 -895 
Q 2688 -1331 1869 -1331 
Q 1566 -1331 1297 -1286 
Q 1028 -1241 775 -1147 
L 775 -588 
Q 1028 -725 1275 -790 
Q 1522 -856 1778 -856 
Q 2344 -856 2625 -561 
Q 2906 -266 2906 331 
L 2906 616 
Q 2728 306 2450 153 
Q 2172 0 1784 0 
Q 1141 0 747 490 
Q 353 981 353 1791 
Q 353 2603 747 3093 
Q 1141 3584 1784 3584 
Q 2172 3584 2450 3431 
Q 2728 3278 2906 2969 
L 2906 3500 
L 3481 3500 
L 3481 434 
z
" transform="scale(0.015625)"/>
       <path id="DejaVuSans-72" d="M 2631 2963 
Q 2534 3019 2420 3045 
Q 2306 3072 2169 3072 
Q 1681 3072 1420 2755 
Q 1159 2438 1159 1844 
L 1159 0 
L 581 0 
L 581 3500 
L 1159 3500 
L 1159 2956 
Q 1341 3275 1631 3429 
Q 1922 3584 2338 3584 
Q 2397 3584 2469 3576 
Q 2541 3569 2628 3553 
L 2631 2963 
z
" transform="scale(0.015625)"/>
       <path id="DejaVuSans-73" d="M 2834 3397 
L 2834 2853 
Q 2591 2978 2328 3040 
Q 2066 3103 1784 3103 
Q 1356 3103 1142 2972 
Q 928 2841 928 2578 
Q 928 2378 1081 2264 
Q 1234 2150 1697 2047 
L 1894 2003 
Q 2506 1872 2764 1633 
Q 3022 1394 3022 966 
Q 3022 478 2636 193 
Q 2250 -91 1575 -91 
Q 1294 -91 989 -36 
Q 684 19 347 128 
L 347 722 
Q 666 556 975 473 
Q 1284 391 1588 391 
Q 1994 391 2212 530 
Q 2431 669 2431 922 
Q 2431 1156 2273 1281 
Q 2116 1406 1581 1522 
L 1381 1569 
Q 847 1681 609 1914 
Q 372 2147 372 2553 
Q 372 3047 722 3315 
Q 1072 3584 1716 3584 
Q 2034 3584 2315 3537 
Q 2597 3491 2834 3397 
z
" transform="scale(0.015625)"/>
       <path id="DejaVuSans-29" d="M 513 4856 
L 1013 4856 
Q 1481 4119 1714 3412 
Q 1947 2706 1947 2009 
Q 1947 1309 1714 600 
Q 1481 -109 1013 -844 
L 513 -844 
Q 928 -128 1133 580 
Q 1338 1288 1338 2009 
Q 1338 2731 1133 3434 
Q 928 4138 513 4856 
z
" transform="scale(0.015625)"/>
      </defs>
      <use xlink:href="#DejaVuSans-32"/>
      <use xlink:href="#DejaVuSans-3b8" x="63.623047"/>
      <use xlink:href="#DejaVuSans-20" x="124.804688"/>
      <use xlink:href="#DejaVuSans-28" x="156.591797"/>
      <use xlink:href="#DejaVuSans-64" x="195.605469"/>
      <use xlink:href="#DejaVuSans-65" x="259.082031"/>
      <use xlink:href="#DejaVuSans-67" x="320.605469"/>
      <use xlink:href="#DejaVuSans-72" x="384.082031"/>
      <use xlink:href="#DejaVuSans-65" x="422.945312"/>
      <use xlink:href="#DejaVuSans-65" x="484.46875"/>
      <use xlink:href="#DejaVuSans-73" x="545.992188"/>
      <use xlink:href="#DejaVuSans-29" x="598.091797"/>
     </g>
    </g>
   </g>
   <g id="matplotlib.axis_2">
    <g id="ytick_1">
     <g id="line2d_6"/>
    </g>
    <g id="ytick_2">
     <g id="line2d_7"/>
    </g>
    <g id="ytick_3">
     <g id="line2d_8"/>
    </g>
    <g id="ytick_4">
     <g id="line2d_9"/>
    </g>
    <g id="ytick_5">
     <g id="line2d_10"/>
    </g>
    <g id="ytick_6">
     <g id="line2d_11"/>
    </g>
    <g id="ytick_7">
     <g id="line2d_12"/>
    </g>
    <g id="ytick_8">
     <g id="line2d_13"/>
    </g>
    <g id="text_6">
     <!-- Intensity -->
     <g transform="translate(14.038594 109.854375) rotate(-90) scale(0.09 -0.09)">
      <defs>
       <path id="DejaVuSans-49" d="M 628 4666 
L 1259 4666 
L 1259 0 
L 628 0 
L 628 4666 
z
" transform="scale(0.015625)"/>
       <path id="DejaVuSans-6e" d="M 3513 2113 
L 3513 0 
L 2938 0 
L 2938 2094 
Q 2938 2591 2744 2837 
Q 2550 3084 2163 3084 
Q 1697 3084 1428 2787 
Q 1159 2491 1159 1978 
L 1159 0 
L 581 0 
L 581 3500 
L 1159 3500 
L 1159 2956 
Q 1366 3272 1645 3428 
Q 1925 3584 2291 3584 
Q 2894 3584 3203 3211 
Q 3513 2838 3513 2113 
z
" transform="scale(0.015625)"/>
       <path id="DejaVuSans-74" d="M 1172 4494 
L 1172 3500 
L 2356 3500 
L 2356 3053 
L 1172 3053 
L 1172 1153 
Q 1172 725 1289 603 
Q 1406 481 1766 481 
L 2356 481 
L 2356 0 
L 1766 0 
Q 1100 0 847 248 
Q 594 497 594 1153 
L 594 3053 
L 172 3053 
L 172 3500 
L 594 3500 
L 594 4494 
L 1172 4494 
z
" transform="scale(0.015625)"/>
       <path id="DejaVuSans-69" d="M 603 3500 
L 1178 3500 
L 1178 0 
L 603 0 
L 603 3500 
z
M 603 4863 
L 1178 4863 
L 1178 4134 
L 603 4134 
L 603 4863 
z
" transform="scale(0.015625)"/>
       <path id="DejaVuSans-79" d="M 2059 -325 
Q 1816 -950 1584 -1140 
Q 1353 -1331 966 -1331 
L 506 -1331 
L 506 -850 
L 844 -850 
Q 1081 -850 1212 -737 
Q 1344 -625 1503 -206 
L 1606 56 
L 191 3500 
L 800 3500 
L 1894 763 
L 2988 3500 
L 3597 3500 
L 2059 -325 
z
" transform="scale(0.015625)"/>
      </defs>
      <use xlink:href="#DejaVuSans-49"/>
      <use xlink:href="#DejaVuSans-6e" x="29.492188"/>
      <use xlink:href="#DejaVuSans-74" x="92.871094"/>
      <use xlink:href="#DejaVuSans-65" x="132.080078"/>
      <use xlink:href="#DejaVuSans-6e" x="193.603516"/>
      <use xlink:href="#DejaVuSans-73" x="256.982422"/>
      <use xlink:href="#DejaVuSans-69" x="309.082031"/>
      <use xlink:href="#DejaVuSans-74" x="336.865234"/>
      <use xlink:href="#DejaVuSans-79" x="376.074219"/>
     </g>
    </g>
   </g>
   <g id="line2d_14">
    <path d="M 23.307555 120.242153 
L 24.284448 117.153517 
L 25.261341 115.04374 
L 26.238234 112.506307 
L 27.215127 109.284622 
L 28.19202 103.649048 
L 29.168913 98.479146 
L 30.145806 90.524719 
L 31.122699 85.592405 
L 32.099592 87.388566 
L 33.076485 100.047223 
L 34.053378 110.349013 
L 35.030271 118.246419 
L 36.007164 120.973922 
L 36.984057 122.247391 
L 37.96095 123.036181 
L 38.937843 122.732069 
L 39.914736 123.777454 
L 40.891629 123.729936 
L 41.868522 124.737307 
L 42.845415 125.107943 
L 43.822309 124.091069 
L 44.799202 125.307517 
L 45.776095 124.670782 
L 46.752988 124.670782 
L 47.729881 124.537733 
L 48.706774 124.737307 
L 49.683667 124.794328 
L 50.66056 123.682419 
L 51.637453 123.00767 
L 52.614346 124.167097 
L 53.591239 123.397314 
L 54.568132 122.703559 
L 55.545025 124.803831 
L 56.521918 123.492349 
L 57.498811 124.822838 
L 58.475704 123.596887 
L 59.452597 123.38781 
L 60.42949 122.741573 
L 61.406383 123.349796 
L 62.383276 122.817601 
L 63.360169 122.618027 
L 64.337062 123.340293 
L 65.313955 122.798594 
L 66.290848 122.171363 
L 67.267741 122.580013 
L 68.244634 123.691922 
L 69.221527 122.161859 
L 70.19842 122.808097 
L 71.175313 122.59902 
L 72.152206 123.454335 
L 73.129099 121.886258 
L 74.105992 122.741573 
L 75.082885 122.865118 
L 76.059779 121.724698 
L 77.036672 123.131216 
L 78.013565 122.865118 
L 78.990458 123.055188 
L 79.967351 122.02881 
L 80.944244 122.694055 
L 81.921137 123.805964 
L 82.89803 122.494482 
L 83.874923 122.427957 
L 84.851816 123.159726 
L 85.828709 122.827104 
L 86.805602 123.254761 
L 87.782495 122.941146 
L 88.759388 124.034048 
L 89.736281 123.3593 
L 90.713174 123.920006 
L 91.690067 123.634901 
L 92.66696 124.186104 
L 93.643853 123.92951 
L 94.620746 123.76795 
L 95.597639 124.480712 
L 96.574532 124.965391 
L 97.551425 123.701426 
L 98.528318 125.09844 
L 99.505211 125.060426 
L 100.482104 125.09844 
L 101.458997 125.107943 
L 102.43589 124.946384 
L 103.412783 125.364538 
L 104.389676 124.794328 
L 105.366569 123.910503 
L 106.343463 123.76795 
L 107.320356 123.245258 
L 108.297249 123.112209 
L 109.274142 119.938041 
L 110.251035 120.194635 
L 111.227928 120.004566 
L 112.204821 117.35309 
L 113.181714 114.311971 
L 114.158607 110.36802 
L 115.1355 105.09358 
L 116.112393 99.343964 
L 117.089286 97.889929 
L 118.066179 104.029188 
L 119.043072 115.23381 
L 120.019965 120.707824 
L 120.996858 125.402552 
L 121.973751 125.858719 
L 122.950644 127.417293 
L 123.927537 128.652747 
L 124.90443 129.137426 
L 125.881323 129.812174 
L 126.858216 130.72451 
L 127.835109 130.106782 
L 128.812002 130.34437 
L 129.788895 130.990608 
L 130.765788 131.019118 
L 131.742681 132.026489 
L 132.719574 131.826915 
L 133.696467 133.043363 
L 134.67336 132.340104 
L 135.650253 132.283083 
" clip-path="url(#p589e6fae24)" style="fill: none; stroke: #4db758; stroke-linecap: square"/>
   </g>
   <g id="line2d_15">
    <path d="M 23.307555 124.091069 
L 24.284448 120.593782 
L 25.261341 119.2823 
L 26.238234 115.110265 
L 27.215127 108.942496 
L 28.19202 103.430468 
L 29.168913 94.601719 
L 30.145806 82.893412 
L 31.122699 72.544104 
L 32.099592 75.423663 
L 33.076485 94.554202 
L 34.053378 114.22644 
L 35.030271 120.907398 
L 36.007164 125.668649 
L 36.984057 126.618999 
L 37.96095 127.569349 
L 38.937843 129.251468 
L 39.914736 128.899838 
L 40.891629 128.187076 
L 41.868522 129.222957 
L 42.845415 129.298985 
L 43.822309 129.279978 
L 44.799202 128.757286 
L 45.776095 128.700265 
L 46.752988 128.899838 
L 47.729881 129.384517 
L 48.706774 128.956859 
L 49.683667 128.747782 
L 50.66056 128.519698 
L 51.637453 128.529202 
L 52.614346 129.384517 
L 53.591239 128.111048 
L 54.568132 127.559845 
L 55.545025 126.83758 
L 56.521918 127.284244 
L 57.498811 126.695027 
L 58.475704 126.913608 
L 59.452597 127.122684 
L 60.42949 126.714034 
L 61.406383 126.058293 
L 62.383276 126.514461 
L 63.360169 125.88723 
L 64.337062 126.343398 
L 65.313955 126.343398 
L 66.290848 125.88723 
L 67.267741 124.680286 
L 68.244634 123.967524 
L 69.221527 124.195608 
L 70.19842 124.024545 
L 71.175313 123.606391 
L 72.152206 122.285405 
L 73.129099 122.38044 
L 74.105992 122.665545 
L 75.082885 121.962286 
L 76.059779 122.684552 
L 77.036672 121.487111 
L 78.013565 122.085831 
L 78.990458 120.204139 
L 79.967351 119.320314 
L 80.944244 120.07109 
L 81.921137 119.31081 
L 82.89803 119.966552 
L 83.874923 120.052083 
L 84.851816 119.548398 
L 85.828709 120.318181 
L 86.805602 120.992929 
L 87.782495 119.66244 
L 88.759388 119.871517 
L 89.736281 120.47974 
L 90.713174 120.983426 
L 91.690067 123.074195 
L 92.66696 122.931642 
L 93.643853 123.16923 
L 94.620746 123.663412 
L 95.597639 123.539866 
L 96.574532 124.14809 
L 97.551425 125.09844 
L 98.528318 125.659146 
L 99.505211 125.972761 
L 100.482104 125.393048 
L 101.458997 127.27474 
L 102.43589 127.797433 
L 103.412783 126.818573 
L 104.389676 127.369775 
L 105.366569 125.28851 
L 106.343463 126.210349 
L 107.320356 125.592622 
L 108.297249 125.269503 
L 109.274142 124.993901 
L 110.251035 123.57788 
L 111.227928 120.66981 
L 112.204821 119.301307 
L 113.181714 114.63509 
L 114.158607 109.113559 
L 115.1355 101.140125 
L 116.112393 92.872083 
L 117.089286 89.906992 
L 118.066179 100.09474 
L 119.043072 115.499908 
L 120.019965 124.110076 
L 120.996858 128.890335 
L 121.973751 130.933587 
L 122.950644 131.437272 
L 123.927537 132.131027 
L 124.90443 132.463649 
L 125.881323 132.824782 
L 126.858216 133.965202 
L 127.835109 134.63995 
L 128.812002 134.782503 
L 129.788895 135.789873 
L 130.765788 135.229167 
L 131.742681 134.811013 
L 132.719574 134.868034 
L 133.696467 135.846894 
L 134.67336 136.103489 
L 135.650253 135.504768 
" clip-path="url(#p589e6fae24)" style="fill: none; stroke: #145092; stroke-linecap: square"/>
   </g>
   <g id="line2d_16">
    <path d="M 23.307555 129.821677 
L 24.284448 127.977999 
L 25.261341 126.514461 
L 26.238234 123.235754 
L 27.215127 118.560034 
L 28.19202 112.667866 
L 29.168913 106.557118 
L 30.145806 103.972167 
L 31.122699 109.60774 
L 32.099592 121.411083 
L 33.076485 129.717139 
L 34.053378 132.49216 
L 35.030271 134.164775 
L 36.007164 135.324202 
L 36.984057 136.055971 
L 37.96095 136.626181 
L 38.937843 136.797244 
L 39.914736 136.35058 
L 40.891629 136.683202 
L 41.868522 135.989447 
L 42.845415 136.208027 
L 43.822309 137.186887 
L 44.799202 136.170013 
L 45.776095 135.704342 
L 46.752988 135.884908 
L 47.729881 136.540649 
L 48.706774 136.835258 
L 49.683667 135.951433 
L 50.66056 135.913419 
L 51.637453 135.552286 
L 52.614346 136.75923 
L 53.591239 136.35058 
L 54.568132 136.208027 
L 55.545025 135.80888 
L 56.521918 136.084482 
L 57.498811 135.153139 
L 58.475704 134.687468 
L 59.452597 134.202789 
L 60.42949 134.953566 
L 61.406383 135.153139 
L 62.383276 133.528041 
L 63.360169 134.183782 
L 64.337062 133.680097 
L 65.313955 133.033859 
L 66.290848 132.786768 
L 67.267741 132.615705 
L 68.244634 130.895573 
L 69.221527 130.515433 
L 70.19842 131.038125 
L 71.175313 130.125789 
L 72.152206 127.711901 
L 73.129099 126.096307 
L 74.105992 125.231489 
L 75.082885 121.933775 
L 76.059779 119.187265 
L 77.036672 116.697349 
L 78.013565 112.629852 
L 78.990458 109.883342 
L 79.967351 105.435705 
L 80.944244 100.883531 
L 81.921137 93.860447 
L 82.89803 89.526852 
L 83.874923 85.868006 
L 84.851816 81.781503 
L 85.828709 81.752992 
L 86.805602 85.250279 
L 87.782495 90.116069 
L 88.759388 97.37674 
L 89.736281 103.95316 
L 90.713174 110.310999 
L 91.690067 114.815656 
L 92.66696 120.061587 
L 93.643853 123.758447 
L 94.620746 125.145957 
L 95.597639 128.405656 
L 96.574532 128.956859 
L 97.551425 130.686496 
L 98.528318 132.596698 
L 99.505211 132.425635 
L 100.482104 132.340104 
L 101.458997 134.145768 
L 102.43589 133.946195 
L 103.412783 134.620943 
L 104.389676 133.518538 
L 105.366569 133.556552 
L 106.343463 133.556552 
L 107.320356 133.480524 
L 108.297249 133.052866 
L 109.274142 131.009615 
L 110.251035 131.066635 
L 111.227928 128.586223 
L 112.204821 126.923111 
L 113.181714 124.585251 
L 114.158607 119.900027 
L 115.1355 116.839901 
L 116.112393 118.379468 
L 117.089286 125.526097 
L 118.066179 130.125789 
L 119.043072 134.592433 
L 120.019965 136.521642 
L 120.996858 137.510006 
L 121.973751 137.16788 
L 122.950644 137.510006 
L 123.927537 138.422342 
L 124.90443 137.776104 
L 125.881323 138.393831 
L 126.858216 137.871139 
L 127.835109 139.144608 
L 128.812002 139.28716 
L 129.788895 138.859503 
L 130.765788 138.612412 
L 131.742681 139.714817 
L 132.719574 138.707447 
L 133.696467 139.676803 
L 134.67336 139.828859 
L 135.650253 139.334677 
" clip-path="url(#p589e6fae24)" style="fill: none; stroke: #000000; stroke-linecap: square"/>
   </g>
   <g id="patch_3">
    <path d="M 23.410313 158.218125 
L 23.410313 22.318125 
" style="fill: none; stroke: #000000; stroke-width: 0.8; stroke-linejoin: miter; stroke-linecap: square"/>
   </g>
   <g id="patch_4">
    <path d="M 23.410312 158.218125 
L 135.010312 158.218125 
" style="fill: none; stroke: #000000; stroke-width: 0.8; stroke-linejoin: miter; stroke-linecap: square"/>
   </g>
   <g id="text_7">
    <!-- High-Al -->
    <g transform="translate(57.61875 16.318125) scale(0.12 -0.12)">
     <defs>
      <path id="DejaVuSans-48" d="M 628 4666 
L 1259 4666 
L 1259 2753 
L 3553 2753 
L 3553 4666 
L 4184 4666 
L 4184 0 
L 3553 0 
L 3553 2222 
L 1259 2222 
L 1259 0 
L 628 0 
L 628 4666 
z
" transform="scale(0.015625)"/>
      <path id="DejaVuSans-68" d="M 3513 2113 
L 3513 0 
L 2938 0 
L 2938 2094 
Q 2938 2591 2744 2837 
Q 2550 3084 2163 3084 
Q 1697 3084 1428 2787 
Q 1159 2491 1159 1978 
L 1159 0 
L 581 0 
L 581 4863 
L 1159 4863 
L 1159 2956 
Q 1366 3272 1645 3428 
Q 1925 3584 2291 3584 
Q 2894 3584 3203 3211 
Q 3513 2838 3513 2113 
z
" transform="scale(0.015625)"/>
      <path id="DejaVuSans-2d" d="M 313 2009 
L 1997 2009 
L 1997 1497 
L 313 1497 
L 313 2009 
z
" transform="scale(0.015625)"/>
      <path id="DejaVuSans-41" d="M 2188 4044 
L 1331 1722 
L 3047 1722 
L 2188 4044 
z
M 1831 4666 
L 2547 4666 
L 4325 0 
L 3669 0 
L 3244 1197 
L 1141 1197 
L 716 0 
L 50 0 
L 1831 4666 
z
" transform="scale(0.015625)"/>
      <path id="DejaVuSans-6c" d="M 603 4863 
L 1178 4863 
L 1178 0 
L 603 0 
L 603 4863 
z
" transform="scale(0.015625)"/>
     </defs>
     <use xlink:href="#DejaVuSans-48"/>
     <use xlink:href="#DejaVuSans-69" x="75.195312"/>
     <use xlink:href="#DejaVuSans-67" x="102.978516"/>
     <use xlink:href="#DejaVuSans-68" x="166.455078"/>
     <use xlink:href="#DejaVuSans-2d" x="229.833984"/>
     <use xlink:href="#DejaVuSans-41" x="263.667969"/>
     <use xlink:href="#DejaVuSans-6c" x="332.076172"/>
    </g>
   </g>
  </g>
 </g>
 <defs>
  <clipPath id="p589e6fae24">
   <rect x="23.410313" y="22.318125" width="111.6" height="135.9"/>
  </clipPath>
 </defs>
</svg>
