<svg xmlns="http://www.w3.org/2000/svg" xmlns:xlink="http://www.w3.org/1999/xlink" width="365.41" height="192.94" viewBox="0 0 365.41 192.94"><defs><style>.cls-1,.cls-12,.cls-13,.cls-15,.cls-17,.cls-6,.cls-7,.cls-8,.cls-9{fill:none;}.cls-2{fill:#fff;}.cls-13,.cls-3,.cls-4,.cls-8,.cls-9{stroke:#000;}.cls-3,.cls-4,.cls-6,.cls-7,.cls-8{stroke-linejoin:round;}.cls-3,.cls-9{stroke-width:0.8px;}.cls-4{stroke-width:0.6px;}.cls-5{clip-path:url(#clip-path);}.cls-6{stroke:#4db758;}.cls-6,.cls-7,.cls-8,.cls-9{stroke-linecap:square;}.cls-7{stroke:#145092;}.cls-10{fill:#478d02;}.cls-11{fill:#020202;}.cls-12{stroke:#478d02;}.cls-12,.cls-13,.cls-15,.cls-17{stroke-miterlimit:10;stroke-width:0.75px;}.cls-14{fill:#8d026a;}.cls-15{stroke:#8d026a;}.cls-16{fill:#565656;}.cls-17{stroke:#565656;}.cls-18{fill:#4db758;}.cls-19{fill:#145092;}</style><clipPath id="clip-path" transform="translate(0 -1)"><rect class="cls-1" x="23.41" y="23.32" width="334.8" height="135.9"/></clipPath></defs><g id="Layer_1" data-name="Layer 1"><g id="figure_1" data-name="figure 1"><g id="patch_1" data-name="patch 1"><path class="cls-2" d="M0,193.94H365.41V1H0Z" transform="translate(0 -1)"/></g><g id="axes_1" data-name="axes 1"><g id="patch_2" data-name="patch 2"><path class="cls-2" d="M23.41,159.22h334.8V23.32H23.41Z" transform="translate(0 -1)"/></g><g id="matplotlib.axis_1" data-name="matplotlib.axis 1"><g id="xtick_1" data-name="xtick 1"><g id="line2d_1" data-name="line2d 1"><path id="mc07f607639" class="cls-3" d="M51.31,159.22v3.5" transform="translate(0 -1)"/></g><g id="text_1" data-name="text 1"><path id="DejaVuSans-31" d="M47.21,171.63H48.5v-4.45l-1.4.28v-.71l1.39-.29h.79v5.17h1.29v.67H47.21Z" transform="translate(0 -1)"/><path id="DejaVuSans-30" d="M53.85,167a1,1,0,0,0-.91.6,5.41,5.41,0,0,0,0,3.61,1,1,0,0,0,1.83,0,5.41,5.41,0,0,0,0-3.61A1,1,0,0,0,53.85,167Zm0-.62a1.68,1.68,0,0,1,1.5.78,4,4,0,0,1,.52,2.25,4,4,0,0,1-.52,2.25,1.84,1.84,0,0,1-3,0,4,4,0,0,1-.52-2.25,4,4,0,0,1,.52-2.25A1.67,1.67,0,0,1,53.85,166.36Z" transform="translate(0 -1)"/></g></g><g id="xtick_2" data-name="xtick 2"><g id="line2d_2" data-name="line2d 2"><path id="mc07f607639-2" data-name="mc07f607639" class="cls-3" d="M107.11,159.22v3.5" transform="translate(0 -1)"/></g><g id="text_2" data-name="text 2"><path id="DejaVuSans-32" d="M103.56,171.63h2.75v.67h-3.7v-.67l1.22-1.24c.52-.53.84-.86,1-1a3.47,3.47,0,0,0,.52-.72,1.27,1.27,0,0,0,.16-.58.94.94,0,0,0-.33-.75,1.21,1.21,0,0,0-.85-.3,2.77,2.77,0,0,0-.78.13,5.06,5.06,0,0,0-.88.39v-.79a5.1,5.1,0,0,1,.89-.29,3,3,0,0,1,.75-.1,2.19,2.19,0,0,1,1.45.45,1.5,1.5,0,0,1,.54,1.21,1.81,1.81,0,0,1-.14.69,3.23,3.23,0,0,1-.49.75c-.06.08-.27.3-.62.66Z" transform="translate(0 -1)"/><path id="DejaVuSans-30-2" data-name="DejaVuSans-30" d="M109.65,167a1,1,0,0,0-.91.6,5.41,5.41,0,0,0,0,3.61,1,1,0,0,0,1.83,0,5.41,5.41,0,0,0,0-3.61A1,1,0,0,0,109.65,167Zm0-.62a1.68,1.68,0,0,1,1.5.78,4,4,0,0,1,.52,2.25,4,4,0,0,1-.52,2.25,1.84,1.84,0,0,1-3,0,4,4,0,0,1-.52-2.25,4,4,0,0,1,.52-2.25A1.67,1.67,0,0,1,109.65,166.36Z" transform="translate(0 -1)"/></g></g><g id="xtick_3" data-name="xtick 3"><g id="line2d_3" data-name="line2d 3"><path id="mc07f607639-3" data-name="mc07f607639" class="cls-3" d="M162.91,159.22v3.5" transform="translate(0 -1)"/></g><g id="text_3" data-name="text 3"><path id="DejaVuSans-33" d="M161.07,169.15a1.5,1.5,0,0,1,.88.51,1.43,1.43,0,0,1,.32.94,1.63,1.63,0,0,1-.59,1.34,2.7,2.7,0,0,1-1.69.47,4,4,0,0,1-.76-.07,5.35,5.35,0,0,1-.8-.22v-.76a2.86,2.86,0,0,0,.72.29,3.61,3.61,0,0,0,.82.1,1.83,1.83,0,0,0,1.13-.3,1,1,0,0,0,.38-.85,1,1,0,0,0-.36-.8,1.51,1.51,0,0,0-1-.3h-.68v-.64h.71a1.43,1.43,0,0,0,.89-.24.8.8,0,0,0,.31-.67.82.82,0,0,0-.32-.69,1.49,1.49,0,0,0-.91-.24,4.48,4.48,0,0,0-.7.07,6.21,6.21,0,0,0-.81.22v-.7a8.18,8.18,0,0,1,.84-.19,4.91,4.91,0,0,1,.74-.06,2.26,2.26,0,0,1,1.42.41,1.32,1.32,0,0,1,.52,1.1,1.26,1.26,0,0,1-.27.82A1.45,1.45,0,0,1,161.07,169.15Z" transform="translate(0 -1)"/><path id="DejaVuSans-30-3" data-name="DejaVuSans-30" d="M165.45,167a1,1,0,0,0-.91.6,5.41,5.41,0,0,0,0,3.61,1,1,0,0,0,1.83,0,5.41,5.41,0,0,0,0-3.61A1,1,0,0,0,165.45,167Zm0-.62a1.68,1.68,0,0,1,1.5.78,4,4,0,0,1,.52,2.25,4,4,0,0,1-.52,2.25,1.84,1.84,0,0,1-3,0,4,4,0,0,1-.52-2.25,4,4,0,0,1,.52-2.25A1.67,1.67,0,0,1,165.45,166.36Z" transform="translate(0 -1)"/></g></g><g id="xtick_4" data-name="xtick 4"><g id="line2d_4" data-name="line2d 4"><path id="mc07f607639-4" data-name="mc07f607639" class="cls-3" d="M218.71,159.22v3.5" transform="translate(0 -1)"/></g><g id="text_4" data-name="text 4"><path id="DejaVuSans-34" d="M216.64,167.15l-2,3.12h2Zm-.2-.69h1v3.81h.83v.65h-.83v1.38h-.79v-1.38H214v-.76Z" transform="translate(0 -1)"/><path id="DejaVuSans-30-4" data-name="DejaVuSans-30" d="M221.25,167a1,1,0,0,0-.91.6,5.41,5.41,0,0,0,0,3.61,1,1,0,0,0,1.83,0,5.41,5.41,0,0,0,0-3.61A1,1,0,0,0,221.25,167Zm0-.62a1.68,1.68,0,0,1,1.5.78,4,4,0,0,1,.52,2.25,4,4,0,0,1-.52,2.25,1.84,1.84,0,0,1-3,0,4,4,0,0,1-.52-2.25,4,4,0,0,1,.52-2.25A1.67,1.67,0,0,1,221.25,166.36Z" transform="translate(0 -1)"/></g></g><g id="xtick_5" data-name="xtick 5"><g id="line2d_5" data-name="line2d 5"><path id="mc07f607639-5" data-name="mc07f607639" class="cls-3" d="M274.51,159.22v3.5" transform="translate(0 -1)"/></g><g id="text_5" data-name="text 5"><path id="DejaVuSans-35" d="M270.28,166.46h3.1v.67H271v1.43a1.89,1.89,0,0,1,.34-.09,2,2,0,0,1,.34,0,2.17,2.17,0,0,1,1.55.54,1.88,1.88,0,0,1,.57,1.45,1.86,1.86,0,0,1-.58,1.46,2.43,2.43,0,0,1-1.66.52,4.93,4.93,0,0,1-.75-.06,6.3,6.3,0,0,1-.78-.19v-.79a3.16,3.16,0,0,0,.72.28,3.44,3.44,0,0,0,.8.1,1.54,1.54,0,0,0,1.07-.36,1.39,1.39,0,0,0,0-1.93,1.53,1.53,0,0,0-1.07-.35,2.7,2.7,0,0,0-.63.07,3.5,3.5,0,0,0-.65.21Z" transform="translate(0 -1)"/><path id="DejaVuSans-30-5" data-name="DejaVuSans-30" d="M277.05,167a1,1,0,0,0-.91.6,5.41,5.41,0,0,0,0,3.61,1,1,0,0,0,1.83,0,5.41,5.41,0,0,0,0-3.61A1,1,0,0,0,277.05,167Zm0-.62a1.68,1.68,0,0,1,1.5.78,4,4,0,0,1,.52,2.25,4,4,0,0,1-.52,2.25,1.84,1.84,0,0,1-3,0,4,4,0,0,1-.52-2.25,4,4,0,0,1,.52-2.25A1.67,1.67,0,0,1,277.05,166.36Z" transform="translate(0 -1)"/></g></g><g id="xtick_6" data-name="xtick 6"><g id="line2d_6" data-name="line2d 6"><path id="mc07f607639-6" data-name="mc07f607639" class="cls-3" d="M330.31,159.22v3.5" transform="translate(0 -1)"/></g><g id="text_6" data-name="text 6"><path id="DejaVuSans-36" d="M327.86,169.07a1.06,1.06,0,0,0-.84.36,1.75,1.75,0,0,0,0,2,1.07,1.07,0,0,0,.84.37,1,1,0,0,0,.84-.37,1.75,1.75,0,0,0,0-2A1,1,0,0,0,327.86,169.07Zm1.57-2.48v.72a3.57,3.57,0,0,0-.6-.21,2.47,2.47,0,0,0-.6-.08,1.45,1.45,0,0,0-1.2.53,2.86,2.86,0,0,0-.47,1.59,1.69,1.69,0,0,1,.58-.52,1.65,1.65,0,0,1,.77-.18,1.83,1.83,0,0,1,1.39.54,2.27,2.27,0,0,1,0,2.89,1.91,1.91,0,0,1-1.42.54,1.79,1.79,0,0,1-1.55-.77,4,4,0,0,1-.53-2.25,3.44,3.44,0,0,1,.66-2.21,2.11,2.11,0,0,1,1.76-.82,3.21,3.21,0,0,1,.6.06A6,6,0,0,1,329.43,166.59Z" transform="translate(0 -1)"/><path id="DejaVuSans-30-6" data-name="DejaVuSans-30" d="M332.85,167a1,1,0,0,0-.91.6,5.41,5.41,0,0,0,0,3.61,1,1,0,0,0,1.83,0,5.41,5.41,0,0,0,0-3.61A1,1,0,0,0,332.85,167Zm0-.62a1.68,1.68,0,0,1,1.5.78,4,4,0,0,1,.52,2.25,4,4,0,0,1-.52,2.25,1.84,1.84,0,0,1-3,0,4,4,0,0,1-.52-2.25,4,4,0,0,1,.52-2.25A1.67,1.67,0,0,1,332.85,166.36Z" transform="translate(0 -1)"/></g></g><g id="xtick_7" data-name="xtick 7"><g id="line2d_7" data-name="line2d 7"><path id="m172b6adb58" class="cls-4" d="M23.41,159.22v2" transform="translate(0 -1)"/></g></g><g id="xtick_8" data-name="xtick 8"><g id="line2d_8" data-name="line2d 8"><path id="m172b6adb58-2" data-name="m172b6adb58" class="cls-4" d="M37.36,159.22v2" transform="translate(0 -1)"/></g></g><g id="xtick_9" data-name="xtick 9"><g id="line2d_9" data-name="line2d 9"><path id="m172b6adb58-3" data-name="m172b6adb58" class="cls-4" d="M65.26,159.22v2" transform="translate(0 -1)"/></g></g><g id="xtick_10" data-name="xtick 10"><g id="line2d_10" data-name="line2d 10"><path id="m172b6adb58-4" data-name="m172b6adb58" class="cls-4" d="M79.21,159.22v2" transform="translate(0 -1)"/></g></g><g id="xtick_11" data-name="xtick 11"><g id="line2d_11" data-name="line2d 11"><path id="m172b6adb58-5" data-name="m172b6adb58" class="cls-4" d="M93.16,159.22v2" transform="translate(0 -1)"/></g></g><g id="xtick_12" data-name="xtick 12"><g id="line2d_12" data-name="line2d 12"><path id="m172b6adb58-6" data-name="m172b6adb58" class="cls-4" d="M121.06,159.22v2" transform="translate(0 -1)"/></g></g><g id="xtick_13" data-name="xtick 13"><g id="line2d_13" data-name="line2d 13"><path id="m172b6adb58-7" data-name="m172b6adb58" class="cls-4" d="M135,159.22v2" transform="translate(0 -1)"/></g></g><g id="xtick_14" data-name="xtick 14"><g id="line2d_14" data-name="line2d 14"><path id="m172b6adb58-8" data-name="m172b6adb58" class="cls-4" d="M149,159.22v2" transform="translate(0 -1)"/></g></g><g id="xtick_15" data-name="xtick 15"><g id="line2d_15" data-name="line2d 15"><path id="m172b6adb58-9" data-name="m172b6adb58" class="cls-4" d="M176.86,159.22v2" transform="translate(0 -1)"/></g></g><g id="xtick_16" data-name="xtick 16"><g id="line2d_16" data-name="line2d 16"><path id="m172b6adb58-10" data-name="m172b6adb58" class="cls-4" d="M190.81,159.22v2" transform="translate(0 -1)"/></g></g><g id="xtick_17" data-name="xtick 17"><g id="line2d_17" data-name="line2d 17"><path id="m172b6adb58-11" data-name="m172b6adb58" class="cls-4" d="M204.76,159.22v2" transform="translate(0 -1)"/></g></g><g id="xtick_18" data-name="xtick 18"><g id="line2d_18" data-name="line2d 18"><path id="m172b6adb58-12" data-name="m172b6adb58" class="cls-4" d="M232.66,159.22v2" transform="translate(0 -1)"/></g></g><g id="xtick_19" data-name="xtick 19"><g id="line2d_19" data-name="line2d 19"><path id="m172b6adb58-13" data-name="m172b6adb58" class="cls-4" d="M246.61,159.22v2" transform="translate(0 -1)"/></g></g><g id="xtick_20" data-name="xtick 20"><g id="line2d_20" data-name="line2d 20"><path id="m172b6adb58-14" data-name="m172b6adb58" class="cls-4" d="M260.56,159.22v2" transform="translate(0 -1)"/></g></g><g id="xtick_21" data-name="xtick 21"><g id="line2d_21" data-name="line2d 21"><path id="m172b6adb58-15" data-name="m172b6adb58" class="cls-4" d="M288.46,159.22v2" transform="translate(0 -1)"/></g></g><g id="xtick_22" data-name="xtick 22"><g id="line2d_22" data-name="line2d 22"><path id="m172b6adb58-16" data-name="m172b6adb58" class="cls-4" d="M302.41,159.22v2" transform="translate(0 -1)"/></g></g><g id="xtick_23" data-name="xtick 23"><g id="line2d_23" data-name="line2d 23"><path id="m172b6adb58-17" data-name="m172b6adb58" class="cls-4" d="M316.36,159.22v2" transform="translate(0 -1)"/></g></g><g id="xtick_24" data-name="xtick 24"><g id="line2d_24" data-name="line2d 24"><path id="m172b6adb58-18" data-name="m172b6adb58" class="cls-4" d="M344.26,159.22v2" transform="translate(0 -1)"/></g></g><g id="xtick_25" data-name="xtick 25"><g id="line2d_25" data-name="line2d 25"><path id="m172b6adb58-19" data-name="m172b6adb58" class="cls-4" d="M358.21,159.22v2" transform="translate(0 -1)"/></g></g><g id="text_7" data-name="text 7"><path id="DejaVuSans-32-2" data-name="DejaVuSans-32" d="M163.87,184.12H167v.75H162.8v-.75l1.38-1.4c.58-.59.94-1,1.09-1.14a4.33,4.33,0,0,0,.6-.81,1.47,1.47,0,0,0,.17-.65,1.1,1.1,0,0,0-.37-.85,1.37,1.37,0,0,0-1-.33,2.87,2.87,0,0,0-.88.14,5.21,5.21,0,0,0-1,.44v-.9a7.14,7.14,0,0,1,1-.32,4,4,0,0,1,.86-.11,2.42,2.42,0,0,1,1.62.51,1.67,1.67,0,0,1,.61,1.36,2,2,0,0,1-.15.77,4,4,0,0,1-.55.85l-.7.74Z" transform="translate(0 -1)"/><path id="DejaVuSans-3b8" d="M172,181.75h-2.8a4.62,4.62,0,0,0,.37,1.87,1.11,1.11,0,0,0,2.06,0A4.78,4.78,0,0,0,172,181.75Zm0-.75a5.64,5.64,0,0,0-.36-1.69,1.16,1.16,0,0,0-1-.69,1.12,1.12,0,0,0-1,.69,4.45,4.45,0,0,0-.36,1.69Zm-1.39-3a1.88,1.88,0,0,1,1.66.93,5.8,5.8,0,0,1,0,5.14,1.94,1.94,0,0,1-3.32,0,5.8,5.8,0,0,1,0-5.14A1.87,1.87,0,0,1,170.62,178Z" transform="translate(0 -1)"/><path id="DejaVuSans-20" d="M173.37,184.87" transform="translate(0 -1)"/><path id="DejaVuSans-28" d="M179,178a8.86,8.86,0,0,0-.87,2,7.08,7.08,0,0,0,0,4,8.74,8.74,0,0,0,.87,2h-.7a9.23,9.23,0,0,1-1-2,6.32,6.32,0,0,1-.32-2,6.2,6.2,0,0,1,.32-2,9.23,9.23,0,0,1,1-2Z" transform="translate(0 -1)"/><path id="DejaVuSans-64" d="M183.83,180.69V178h.81v6.84h-.81v-.74a1.67,1.67,0,0,1-.64.65,1.84,1.84,0,0,1-.94.22,1.77,1.77,0,0,1-1.45-.71,3.42,3.42,0,0,1,0-3.75,1.77,1.77,0,0,1,1.45-.71,2,2,0,0,1,.94.21A1.67,1.67,0,0,1,183.83,180.69Zm-2.75,1.72a2.38,2.38,0,0,0,.36,1.4,1.26,1.26,0,0,0,2,0,2.83,2.83,0,0,0,0-2.8,1.27,1.27,0,0,0-2,0A2.4,2.4,0,0,0,181.08,182.41Z" transform="translate(0 -1)"/><path id="DejaVuSans-65" d="M190.51,182.21v.39H186.8a1.83,1.83,0,0,0,.5,1.27,1.69,1.69,0,0,0,1.25.44,3.91,3.91,0,0,0,.91-.11,4,4,0,0,0,.87-.35v.77a4.7,4.7,0,0,1-.9.28,4.05,4.05,0,0,1-.92.1,2.52,2.52,0,0,1-1.87-.69,2.47,2.47,0,0,1-.69-1.85,2.7,2.7,0,0,1,.66-1.92,2.28,2.28,0,0,1,1.76-.71,2,2,0,0,1,1.57.64A2.52,2.52,0,0,1,190.51,182.21Zm-.8-.24a1.52,1.52,0,0,0-.38-1.06,1.25,1.25,0,0,0-1-.4,1.49,1.49,0,0,0-1.08.39,1.59,1.59,0,0,0-.47,1.07Z" transform="translate(0 -1)"/><path id="DejaVuSans-67" d="M195.08,182.35a2.24,2.24,0,0,0-.36-1.36,1.31,1.31,0,0,0-2,0,2.75,2.75,0,0,0,0,2.72,1.31,1.31,0,0,0,2,0A2.24,2.24,0,0,0,195.08,182.35Zm.81,1.91a2.71,2.71,0,0,1-.56,1.87,2.19,2.19,0,0,1-1.71.61,5.1,5.1,0,0,1-.8-.06,3.86,3.86,0,0,1-.74-.2v-.78a3.49,3.49,0,0,0,.71.28,2.74,2.74,0,0,0,.7.09,1.55,1.55,0,0,0,1.19-.41,1.75,1.75,0,0,0,.4-1.26V184a1.67,1.67,0,0,1-.64.65,1.84,1.84,0,0,1-.94.22,1.79,1.79,0,0,1-1.46-.69,3.32,3.32,0,0,1,0-3.66,1.79,1.79,0,0,1,1.46-.69,2,2,0,0,1,.94.21,1.74,1.74,0,0,1,.64.65V180h.81Z" transform="translate(0 -1)"/><path id="DejaVuSans-72" d="M200.41,180.7a1,1,0,0,0-.3-.11,1.34,1.34,0,0,0-.35,0,1.3,1.3,0,0,0-1.06.45,2,2,0,0,0-.36,1.28v2.59h-.82V180h.82v.76a1.61,1.61,0,0,1,.66-.66,2,2,0,0,1,1-.22h.19l.22,0Z" transform="translate(0 -1)"/><path id="DejaVuSans-65-2" data-name="DejaVuSans-65" d="M205.26,182.21v.39h-3.72a1.88,1.88,0,0,0,.51,1.27,1.69,1.69,0,0,0,1.25.44,3.82,3.82,0,0,0,.9-.11,3.6,3.6,0,0,0,.87-.35v.77a4.6,4.6,0,0,1-.89.28,4.08,4.08,0,0,1-.93.1,2.51,2.51,0,0,1-1.86-.69,2.47,2.47,0,0,1-.69-1.85,2.74,2.74,0,0,1,.65-1.92,2.29,2.29,0,0,1,1.76-.71,2,2,0,0,1,1.57.64A2.47,2.47,0,0,1,205.26,182.21Zm-.81-.24a1.52,1.52,0,0,0-.37-1.06,1.25,1.25,0,0,0-1-.4,1.49,1.49,0,0,0-1.08.39,1.59,1.59,0,0,0-.47,1.07Z" transform="translate(0 -1)"/><path id="DejaVuSans-65-3" data-name="DejaVuSans-65" d="M210.8,182.21v.39h-3.72a1.87,1.87,0,0,0,.5,1.27,1.7,1.7,0,0,0,1.26.44,3.82,3.82,0,0,0,.9-.11,4,4,0,0,0,.87-.35v.77a4.83,4.83,0,0,1-.89.28,4.2,4.2,0,0,1-.93.1,2.38,2.38,0,0,1-2.55-2.54,2.74,2.74,0,0,1,.65-1.92,2.29,2.29,0,0,1,1.76-.71,2,2,0,0,1,1.57.64A2.47,2.47,0,0,1,210.8,182.21ZM210,182a1.52,1.52,0,0,0-.37-1.06,1.25,1.25,0,0,0-1-.4,1.49,1.49,0,0,0-1.08.39,1.59,1.59,0,0,0-.47,1.07Z" transform="translate(0 -1)"/><path id="DejaVuSans-73" d="M215.26,180.09v.77a2.89,2.89,0,0,0-.71-.27,3.77,3.77,0,0,0-.76-.08,1.83,1.83,0,0,0-.91.18.61.61,0,0,0-.3.55.52.52,0,0,0,.22.45,2.77,2.77,0,0,0,.86.3l.28.06a2.79,2.79,0,0,1,1.23.52,1.24,1.24,0,0,1,.36.94,1.29,1.29,0,0,1-.54,1.09,2.54,2.54,0,0,1-1.5.4,4.74,4.74,0,0,1-.82-.08,6.62,6.62,0,0,1-.9-.23v-.84a3.75,3.75,0,0,0,.88.35,3.24,3.24,0,0,0,.86.12,1.66,1.66,0,0,0,.88-.2.62.62,0,0,0,.31-.55.6.6,0,0,0-.23-.5,2.6,2.6,0,0,0-1-.34l-.28-.07a2.17,2.17,0,0,1-1.09-.48,1.22,1.22,0,0,1-.33-.9,1.29,1.29,0,0,1,.49-1.07,2.29,2.29,0,0,1,1.4-.38,4.46,4.46,0,0,1,.84.07A3.12,3.12,0,0,1,215.26,180.09Z" transform="translate(0 -1)"/><path id="DejaVuSans-29" d="M216.69,178h.7a9.23,9.23,0,0,1,1,2,6.21,6.21,0,0,1,.33,2,6.34,6.34,0,0,1-.33,2,9.23,9.23,0,0,1-1,2h-.7a8.74,8.74,0,0,0,.87-2,7.08,7.08,0,0,0,0-4A8.86,8.86,0,0,0,216.69,178Z" transform="translate(0 -1)"/></g></g><g id="matplotlib.axis_2" data-name="matplotlib.axis 2"><g id="text_8" data-name="text 8"><path id="DejaVuSans-49" d="M7.48,110v-.89H14V110Z" transform="translate(0 -1)"/><path id="DejaVuSans-6e" d="M11.07,103.26h3v.81H11.09a1.68,1.68,0,0,0-1,.27,1,1,0,0,0-.35.82,1.31,1.31,0,0,0,.42,1,1.65,1.65,0,0,0,1.14.38H14v.81H9.12v-.81h.76a1.94,1.94,0,0,1-.66-.68A1.83,1.83,0,0,1,9,105a1.56,1.56,0,0,1,.52-1.28A2.39,2.39,0,0,1,11.07,103.26Z" transform="translate(0 -1)"/><path id="DejaVuSans-74" d="M7.72,100.85h1.4V99.18h.63v1.67h2.67a1.18,1.18,0,0,0,.77-.17.92.92,0,0,0,.17-.67v-.83H14V100a1.83,1.83,0,0,1-.35,1.29,1.75,1.75,0,0,1-1.27.36H9.75v.59H9.12v-.59H7.72Z" transform="translate(0 -1)"/><path id="DejaVuSans-65-4" data-name="DejaVuSans-65" d="M11.38,93.91h.39v3.72A1.88,1.88,0,0,0,13,97.12a1.72,1.72,0,0,0,.44-1.25,3.82,3.82,0,0,0-.11-.9A3.77,3.77,0,0,0,13,94.1h.77a5.73,5.73,0,0,1,.28.89,4.73,4.73,0,0,1,.1.93,2.38,2.38,0,0,1-2.54,2.55,2.74,2.74,0,0,1-1.92-.65A2.29,2.29,0,0,1,9,96.06a2,2,0,0,1,.64-1.57A2.46,2.46,0,0,1,11.38,93.91Zm-.24.81a1.52,1.52,0,0,0-1.06.37,1.25,1.25,0,0,0-.4,1,1.49,1.49,0,0,0,.39,1.08,1.59,1.59,0,0,0,1.07.47Z" transform="translate(0 -1)"/><path id="DejaVuSans-6e-2" data-name="DejaVuSans-6e" d="M11.07,88.49h3v.81H11.09a1.68,1.68,0,0,0-1,.27,1,1,0,0,0-.35.82,1.31,1.31,0,0,0,.42,1,1.65,1.65,0,0,0,1.14.38H14v.81H9.12V91.8h.76a1.94,1.94,0,0,1-.66-.68A1.83,1.83,0,0,1,9,90.21a1.56,1.56,0,0,1,.52-1.28A2.39,2.39,0,0,1,11.07,88.49Z" transform="translate(0 -1)"/><path id="DejaVuSans-73-2" data-name="DejaVuSans-73" d="M9.26,83.74H10a3,3,0,0,0-.35,1.48,1.78,1.78,0,0,0,.18.9.61.61,0,0,0,.55.3.51.51,0,0,0,.44-.21,2.65,2.65,0,0,0,.31-.87l.06-.28a2.63,2.63,0,0,1,.52-1.22,1.24,1.24,0,0,1,.94-.36,1.29,1.29,0,0,1,1.09.54,2.51,2.51,0,0,1,.4,1.49,5,5,0,0,1-.08.83,7.46,7.46,0,0,1-.23.9H13a3.82,3.82,0,0,0,.35-.89,3.13,3.13,0,0,0,.12-.86,1.6,1.6,0,0,0-.2-.87.61.61,0,0,0-.55-.31.58.58,0,0,0-.5.22,2.68,2.68,0,0,0-.34,1l-.07.28a2.13,2.13,0,0,1-.48,1.09,1.22,1.22,0,0,1-.9.33,1.26,1.26,0,0,1-1.07-.49A2.2,2.2,0,0,1,9,85.31a5.53,5.53,0,0,1,.06-.84A3.89,3.89,0,0,1,9.26,83.74Z" transform="translate(0 -1)"/><path id="DejaVuSans-69" d="M9.12,82.19v-.81H14v.81Zm-1.92,0v-.81h1v.81Z" transform="translate(0 -1)"/><path id="DejaVuSans-74-2" data-name="DejaVuSans-74" d="M7.72,78.89h1.4V77.22h.63v1.67h2.67a1.18,1.18,0,0,0,.77-.17.92.92,0,0,0,.17-.67v-.83H14v.83a1.87,1.87,0,0,1-.35,1.3,1.8,1.8,0,0,1-1.27.35H9.75v.59H9.12V79.7H7.72Z" transform="translate(0 -1)"/><path id="DejaVuSans-79" d="M14.5,74.11a2.92,2.92,0,0,1,1.14.67,1.33,1.33,0,0,1,.27.87v.65h-.68v-.48a.82.82,0,0,0-.15-.52,2.16,2.16,0,0,0-.75-.41L14,74.75l-4.84,2v-.86L13,74.34,9.12,72.81V72Z" transform="translate(0 -1)"/></g></g><g id="line2d_34" data-name="line2d 34"><g class="cls-5"><path class="cls-6" d="M23.45,140.89l.3.59.14,0,.15-.34.15.67.14-.37.15.12.15-.33.29.86.15-.25.29.72.14-.31.15.12.15-.33.14.15.3.46.14-.31.15.33.15-.12.14.23.15-.21.15.42.29-.27.15.28h.14l.15.39.15-.48.14.42.3,0,.44.09L29,143l.15.31.14-.14.15.09.15-.13.14.43.44-.14.15.1.15-.42.14.3.3-.09.14.27.15,0,.44-.92.29.68.15-.11.15.11.14-.41.15.1.15-.26.58.11.29-1.23.15-.08.73-2,.74-6.83.29-5.08.29-8.7.15.52.44,19.89.29,2.72.29,1.17.15-.17.15.66.14-.06.3.76h.14l.15-.21.29.47.15-.68.15,1,.14-.12.15-.53.29.46.3.3.29.24.15-.35.73.49.14.32.15-.75.15.28.29,0,.15-.32.14.11.15.48.15-.23.14.14.3-.18.14-.33.15,0,.29.34.15-.53h.15l.14-1.46.15-.06.15-1,.14.77.29,2.49.15-.26.15.5h.14l.15.29.15-.37.14.43.15-.49.15.39.44-.21.14,0,.15-.24.15.06.14.22.3-.29.14.21.44-.36.15.41.15.07.29-.31.14.06.15.21.15-.14.14.08.15-.37.15.28.14-.17.15.19.15-.45.14.32.15-.67.15,0,.14.29.15-.67.15.42.14-.52.15.11.15-.58.14,0,.44-1.08.15-.19.44-2.72.29-2.18.59-8.93.14.68.44,11.63.3,1.51.14.3.15-.11.15.39.14,0,.3.52.14-.38.15.46.15-.24.58,0,.29-.67.15.44.29-.56.15.8.15-.5.14.5.15-.46.15-.08.14-.24.15.23.29-.28.15.27.29-.44.15.16.15.42.14-.58.15.24.15-.08.14.33.15-.59.14.32.15.05.15-.43.14.53.15-.1.15.07.14-.39.3.67.14-.49.15,0,.15.28.14-.13.15.16.15-.12.14.42.15-.26.15.21.14-.1.15.2.29-.15.29.45.15-.48.15.53.58-.06.15.16.59-.8.14,0,.15-1.2.15.1.14-.07.44-3.64.44-4.7.15,2.31.29,6.29L66,144.1l.14.17.3,1.06.29.44.15.34.14-.23.15.09.15.24h.14l.15.38.15-.07.14.45.15-.26.29-.14.3.54.29.11.15-.11.29.31.15-.07.14-.25.15.26.14-.14.3.23.29-.63.29-1.06.3-.85.29,2.24.29.61.15.16.88-.21.15.21.29-.76.14-.17.15.08.44,1.39.15.15.14-.4.15.07.29-.46.44-1.25.15-1.34.15-.05.58,3.47.15.36.15-.12.14.26.15-.27.15.31.14-.38.15.27.14-.05.15.23.15-.13.14.23.15-.36.15.05.14-.12.3.12.29-.49.15.17.14-.37.44.32.15.45.15-.27.29.36.59-1.77.43-2.59.15.49.29,2.7.3,1.21.14-.18.15.12.15-.23.29.63.73-.4.15.2.15-.17.29.18.44-.3.15-.43.14,0,.15-.61.14-.08.44-1.6.44-3.88.15-.29.29,2.6.3,3.05.14.09.3,1,.14-.34.15-.68.15.13.14.36.15.06.29.7.15-.1.14.49.15,0,.15.47.14-.5.15.44.15-.34L89,150l.15-.35.15.27.14-.12.3.15.14-.11L90,150l.44-.27.15.49.29-.15.15.16.14-.24.15.07.29-.13.15.15L92,150l.15.12.14-.18.3.15.14.06.15-.13.15.18.14-.21.15.07.44-.2.15,0,.14-.24.15-.45.59.32.14.5.3-.39.14.29.29-.31.15.2.59-1.1.14-.12.74-2.89,1.32-14.69.14-.5.59.5.14.92.15-.18.15,0,.14-.1.3-1.86.14,0,.3,5.91.44,9.5.58,3.47.15,0,.15.56.14-.26.15.31h.29l.15.6.29-.27.15-.09.14.08.15-.47.15-.09.44-1.61.73,2.28.29-.25.3-.6.29.13.29-.24.15.22.29-1,.15-.91.58-6.8.3,3.06.29,2.25.15-.31.14-.74.44-7.89.44-10.55.15-2.29.29,4.25.59,4.48.29,4.85.29,2.15.15-1.06.29-6.59.3-9.68.14,3.82.44,17.85.3,3.54.14.6.15-.14.29.95.15-.06.29.55.15-.05.44.57.14-.45.3.31.29-.51.15-.05.14.09.15-.49.15.27.14-.15.15-.53.29.15.44-1.6.3-2.55.29-3.62.15-.47.14.32.44,6.54.29,1.87.15.06.44.92.15-.41.29.35.15-.23.14.19.15-.51.15.22.14-.1.15-.82.15-.19.14.42H120l.59,1.21.29-.27.15-.13.29.29.14.07.15-.52.15.25.14-.2.15.11.44-.28.29-.62.15.06.15-.54.14-.08.15-.3.44.71.15,0,.14.09.3,0,.14.15.15-.12.14.34.15-.57.15,0,.29.23.44-.62.44.5.29-.34.15.28.15-.28.14.3.15-.57.15-.12.14.06.3-.32.29-.4.15-.08.29-.67.44-2.66.29-3.34.44-7.47.15-.38.73,11.41.59,4.29h.14l.44,1.25.15-.11.29.21.15.2.14-.19.15.42.15-.08.29.4.15,0,.14-.18.15.22.29-.07.15.12.29.39.3-.35.14.24.44.07.15-.21.15.11.14.36.44-.56.15.18.29.09.15-.26.14.32.3-1,.29-1.25.29-2.55.15.51.73,4.21.15-.25.44.55.15-.28.14,0,.15.28.29-.32.29-.18.3-.54.14-.17.3-1.12.29-.32.44-2.19.15.25.88,3.6.29.14.15.47.14-.64.29.35.15-.34.15.22.14-.15.15.18.15-.17.14.3.3-.64h.14l.44-.51.3-1.1.14-.33.15-.77.15.26.14-.36.15-.81h.15l.29-4,.58-11.34.15.63.59,13.77.29,2.12.29,1,.15,0,.15.39.29-.23.15-.13.14-.6.15.61.15-.23.29-.86.15.07.14-.58.29-.14.3-.76.14.75.15.08.15.38.14.76.15-.09.29.9.3.42.14-.16.15.42.15.06.14.22.3.59.14.23.15-.28.15.06.29.37.29-.38.29.51.15-.23.29.33.44-.13.3-.51.14-.19.3-.73.14-.18.15.62.15-.17.14.3.3.72.14-.14.15.05.88-2.41.14.32.44,1.67.15.17.15-.16.14.36.59-.44.15.17.14-.12.15-.3.29.34.3-.44.14.22.73-.79.3-1.06.44-3.75.29-5.25.29-4.46.15-.7,1,14,.44,1.84.29.21.29.5.29,0,.3.14.29-.14.44-.85.15-.82.14-.1.15.12.15.42.88-2.36.14-.05.3.77.14,1h.15l.15,1,.14.15.29-.56.59-4.84.73,4.36h.15l.29.35.15.25.29-.47.44.15.15.17.15.38.14-.38.3,1h.14l.15.21.14-.07.15.05.29-.93.44-3.92.3-7,.29-7.53.15.41.58,12.56.3,4.17.29,1.24.44.49.44,0,.44-1,.14-1,.15.07.15-.15.44,1.08.29,1.21.44.45.15-.07.14.09.15.28.29-.48.15.14.15-.26.14.13.15-.27.14.1.15-.16.15-.67.29.25.29.28.15-.18.15-.37h.14l.3-.62.14.3.3.11.29-.25.15.54.14-.09.44.36.15-.49.15.1.29-.3.14-.54.15.16.15-1.23.14-.24.3-2.35.29-3.91.15-.21.44,1.87.14.42.15-.11.15.09.58-5.4.15,1.6.15.3.58,3.93.29.47.15-.38.59,1.89.44,1.34.14-.07.15-.25.15.23.14-.41.15.27.15-.53.58-4.18.15-.63.29,3.1.88,4.21.15.63.29-.09.15.18h.14l.15.19.15-.16.44.49.14.14.15-.43.29.46.15-.37.15,0,.14-.56.15.35.15-.2.14.25.29-.43.15.19.15-.45h.29l.15-.06.44,1,.14.08.15.24.15-.06.14.17.3-.2.14.33.15,0,.59-.43.29.35.14,0,.15.12.15-.3.14,0,.15.14.44-1.17.15.08.14.24.15-.06.44,1,.29.21.15.55.44-.3.15.45.14-.18.15.07.15-.39.14.44.15,0,.14-.22.3.23.14-.31.15.19.15-.16.14.13.3-.19.29-.18.15,0,.58-.51.15.24.44-.57.29.2.15-.7.15.3.14-.47.29-1.49.15-.45.29.56.15.48.15-.12.58,1.07.15-.21.15.11.44-.83h.14l.15.2.15-.14.29.3.15.8h.14l.59.74.14-.1.15.17,1-.79.14.12.15-.07.44-.92.29-.7.44,1.34.3.53.14.29h.15l.14.23.3.06.14.39.15-.51.44.1.15-.05.73-1.08.59-2.49.44,1.7.14-.13.59,1.64.14.09.15-.24.15.31.29-.21.15.17.14-.1.15-.31.15,0,.14-.22.3,0,.73-1.64.29-.6.15-.07.15.08.44-1.45.14.2.29-1.27,1.18-5.29.14.22.15.53,1,7.17.14.69.15.08.29,1,.15.49.14-.06.15.31.15-.09.14,0,.15.48.15-.16.14.19.44-.21.15.13.15-.16.58-2.5.3-.5L227,148l.15-.37.14.51.3.08.14.2.15.53.14-.29.15.64.15,0,.14.26.15.49.15-.05.29.32.44.28.73,0,.44-.89.3-.3.14.36.3-.1h.29l.44.84.14-.16.15.29h.15l.29-.69.15.2.14-.26.3.47.14.22.15-.31.44.91.29.19.44-.39.15-.35.15,0,.14.26.15-.07.29.44.15-.1.14.2.15-.16.29,0,.15.26.15-.1.14.19.15-.36.29.17.74-.25.14-.38.15.16.15-.47.14,0,.15-.34.14.11.3-.7.14-.4.3-1,.14-.52.3,1.16.14.17.15-.06.44,1.63.15,0,.29.35.73-.66.3-.77.14.06.29-.17.15-.47.15.08.14.27.15-.26.59,1.4.14.17.3.58.14.33.74.08.58-1,.15,0,.15.25.43-.07.3-.26.29-.45.15-.81.14.21.15.47.29.09.15-.23.15.05.14-.3.15,0,.15-.26.14.44.15.06.29-1,.15.13.58,1.11.3.28.29.43.15.05.29-.26.29.1.15-.05.15.17.14-.09.44.49.15-.29h.29l.15.22.15-.17.14.05.15-.1.44-.68.14-.09.44.34.15-.1.29.3.59.65.29-.18.15.44.15-.17.14.22.15-.12.15.16.14-.15.15.25.29-.25.15.09.44-.46.29-.34.29-.33.15.57.29-.25.15.09.15-.06.29.21.15.05.14-.48h.15L260,150l.29.12.15.07.15-.11.29.56.14.25.15-.06.29.38.15,0,.15.22.14-.15.15.26.29-.09.44-.1.15-.1.15-.47h.14l.44-.31.15.14.44-.51.15.33.14-.27.29.42.44.76.15.15.15-.34.29.25.29-.68.15-.19.44.58.15-.09.88.8.14-.18.15.17h.15l.14-.17.29.19.3-.33H269l.15.21.29,0,.15,0,.59-.35.29.21.15.28.14-.19.15.06.15-.19.14.46.15-.35.88.2.14,0,.15.11.29-.1.15-.26h.29l.15-.17.15.5.44-.23.14.2.15-.09.44.37.15.11.14-.37.15.29.88-1.43.29.59.15,0,.14-.12.59.77.15-.07.29.26.15,0,.14-.2.15.29.15-.11.14.18.15-.24.15.13.14-.27.15.2.29,0,.15.05.14.18.3-.18.14.08.74-.31.14.21.15-.38.15,0,.14-.23.15.11.15-.25.14.33.15-.12.15.22.14-.07.59.42.15-.22.14.24.59-.11.14.34.15-.41.15-.06.14-.32.15.1.15-.07.29.08.15.06.14-.28.15.28.15,0,.14-.34.15.16.15-.08.14-.27.15.13.73-1.57.15.13.14-.19.15.08.15-.1.29.53.15,0,.29.13.15.36.14-.25.15.12.59-1.34.29-.95.15.07.14.42.15-.27.44.25.14-.29.15.47.15,0,.29.33.73-1,.15-.12.29.06.15-.23.15.66.14,0,.15.64.15,0,.29.77.15.05.14.55.15-.09.15,0,.14.43.15,0,.29.52.15-.08.14.18H295l.29.26.15.09.15-.09.29.25.29-.21.15.2.15-.17.29,0,.29,0,.15-.42.15.11.44-.48.14-.15.15.12.44-.31.29-.62.15.13.14.32.15,0,.29.48h.15l.73,1.14.15-.09.15.31.29-.12.15.12.29-.05.14.1.15-.23.44.26.29-.33.15.18.15-.07.29.28.15-.14.29.35.44-.26.29.27.15-.31.15.18.29-.15.15.08.29-.29.44-.16.14.13L306,152l.15.26.29,0,.15-.08.14.07.3-.1.14.35.3-.15.14.13.44-.06.15.2.15-.3.44.23.29.26.14-.31.15.15.29-.05.15.27.44-.22.29.06.15-.31.15.08.29-.12.15-.17.14.12.15-.06.15.29.14-.31.44.4.15.07.14-.19.88.23.88-.33.15.09.29-.07.3,0,.14-.22.15.3.15-.18.14,0,.15-.23.15.17.58-.36.15.11.14-.3.15,0,.29-.44.59.78.15-.18.14.25.15,0,.15.15.14-.12.3.43.14-.09.3-.4.14-.16.15-.42.15,0,.14.72.15.14.14-.15.15.17.15-.08,1,.39.3.06.14-.43.15.07.15-.1.14-.29h.15l.15-.24.14.09.15-.55.29.49.15-.15.29.19.15.07.14.21.15,0,.15.24.29.12.15-.22.14.06.3.24h.14l.15-.14.15.09.14-.31.15.14.29-.36.3-.05.29.55.29-.19.29,0,.59.08.15.23.14-.09.3.23.29-.17.15.2.14-.31.15.27.29-.13.15.1.44-.25.59,0,.14-.13.44.23.59-.17.44.07.14-.22.3.11.14-.21.15.21.29-.09.15,0,.15.16.14-.29H334l.29-.5.15-.06.29-.57.15-.28.14,0,.3-.51.14.24h.15l.15.17h.14l.44.52.15.32.29.06.15.36.15-.23.14.47.15-.32.15.23.14-.22.15.32.15.05.14-.1.29.18.15-.37.73.26.3.32.14-.1.15-.4.15.3.58.08.3-.24.14.06.15-.13.15.08.14-.35.15,0,.15-.11.43.11.3-.21.14.08.3-.24.14.43.3-.31.44.26.29-.08.44.51.29-.26.44-.07.15.3.29-.22.15.23.29-.17.15.2.14-.07.15.31.15,0,.14.25.15-.11.15.25.29-.07.15.26.14-.1.15.2.29-.25.3.12.58-.17h.15l.14-.13.15.12.73-.15.3-.32.29-.28.44-1,.29-.34.15,0,.15.17.29,0,.29.43.15.05.15-.29.14.49.15,0,.29.44,1-.22.14-.25.44.3.15,0,.15.13.14,0,.15.46.15-.24.44.53.14.13.3-.08.29.42.14-.34.15.16h.15l.29.2.29-.13.15.14.15-.12h0" transform="translate(0 -1)"/></g></g><g id="line2d_35" data-name="line2d 35"><g class="cls-5"><path class="cls-7" d="M23.45,94.93l.3-.53.44.49.14-.24.15.38.15,0,.14.3.15,0,.15.45.29-.56.29,1,.15-.27.14,0,.15-.44.15.33h.14l.15-.24.15.39.14-.07.3.34.14-.13.15.7.15-.65.14.08.15-.08.29.17.15-.35.15.58.14-.4.15.25.73,0,.15.07.14-.24.15.31.15-.12.29.2.15-.09.29.37.29-.55.15.41.15,0,.14.15.3-.46.14.07.15-.12.15.15.14-.08.15.22L33,96h.14L34,93.55l.15-.78.15,0,.14-1.56.15-.21.59-7.65.29-7.66.29-13,.15-.53.44,29.27.29,3.8.15.22.14,1,.15.09.29.53.3.51.14-.38.15.2h.15l.14.24.15-.12.15.17.14-.21.15.52.29-.14.15.31.15-.25.14.15.15.36.44-.26.14.26.15-.28.44.19L41,98l.14.33.3-.46.14.35.15-.2.29.43.3-.23.29.4.15-.35.14,0,.59-.92.29.71.29.56.15.26.15,0,.14-.3.15,0,.15.25.58-.25.15.11.15.49.58-.47.15.22.15-.21.14,0,.15-.19.29.5.15-.6.29.49.15-.26.29.17,1-.12.14-.13.15.11.15-.41.14.21.15-.14.15-.3.14,0,.15.09.29-.81.15-.64.15.39.73-3.65.29-3.9.29-5.41.3-8.32.14,1.09L53.05,94l.15,1.8.44,1.35.15-.13.14-.27.15.39.29,0,.3-.22.29.26.44-.33h.14l.15.32.29-.69.15-.27.15.17.14-.22.3.16L57,96l.15.17.14-.24.15.17h.15l.14-.17.3-.72.14.08.3-.22.14-.5.29.15.15-.27.15.27.14-.45.15.23.29-1,.15.29.15-.29.29.28.15-.19.29.54.15-.5.14.08.3.42.14.79.15,0,.58.45.3.57.14.12.15-.22.29.91.15-.37.15.21.14-.79.15.35.29-.35.15-.11.15-.53.44-3.37.29-5.09.29-4.24L66,97l.29,1,.29.39.15.14.29.68.15.06.15.38.29-.37.15,0,.29.46.15-.22.14.57.15-.38.44.33.15.14.29-.23h.15l.14-.18.15.29.29-.67.15.39.14-.32.44-1.77.3-2.57.44,4.7.29.82.15.27.14-.5.15.32.15,0,.29-.66.15-.34.14.07.29-1.05.15,0,.44,1.92.15-.08.14-.28.15.14.59-1.6.44-4.81.14.59.3,5.1.29,1.36.29,0,.3.61.29-.41.14.22.3.09.14-.28.15,0,.15.2.14-.24.15.12.29-.14.15.19h.15l.14-.27.15.31.15-.06.14-.35.15.19.29-.08.3-.8.14,0,.44-3.15.44-5,.44,8.27.15.16.29.55.29.33.3.3.73-.09.15-.37.14.05.15-.09.29.2.3-.61.14,0,.29-.81.44-2.29.3-4,.29-2.85.73,9.93.59.47.29-.24.15.58.15-.1.29.49.14-.15.15.14.15-.06.14.16.15-.33.29.34.59-.5.15.15.14-.25.15.33.15,0,.14.25h.15l.15-.15.14-.33.15.46.15,0,.29-.12.29-.07.15.19.14-.09.15.07.15-.16.14,0,.3-.11.58.18.3-.24.14.08.15-.34.15.12.44-.7.58.89.15-.19.15,0,.14-.16.15.18.14-.07.15-.21H96l.29-.69.15.27.14-.23.74-3,.58-6.26.44-7.48.3-4.91.14-.84.29,1.72.44,4.16.3.74.14-.26.44-2.81.15,1.38.59,14.94.44,2.47.14,0,.15.39.15-.13.14.61.15,0,.15.16.14-.11.15.16.14-.12.15,0,.15-.26.14,0,.44-1.84.44-2.52.44,3.8.3.54.29-.46.15-.41.14-.89.59.76.15-.35.29-2,.29-4.22.29-9.27.15.37.44,12,.15.93.14-.79.3-3.33.29-6.85.29-8.71.15-1.59.15.83,1.17,14.55.14-.65.15-1.63.29-10.53.3-23.46.14-.45.44,36.83.15,5.95.29,2.18.44,1.23.3.28.14.37.15-.32.44.49.29-.3.15.2.14-.32h.15l.59-1.28.14.22.15,0,.15.42.29-.64.44-4,.29-5.9.15-2.7.15-.65.58,12.32.29,1.95.3.4.29,0,.15,0,.14.15.15-.15.15.22H119l.15.25.29-.49.15.16.15-.25.29.44.29,0,.3-.29.14.3.59-.24.14.16.15-.45.15.46.44-.66.14.16.74-1,.29-.72.59.83.14.15.15-.16.15,0,.29-.12.29.09.15-.48.14,0,.15.24.15-.53.29,0,.15-.09.14-.35.3.51.14-.71.15,0,.29-.29.3.33.29-.32.15-.16.14.57.44-1,.44-2.51.29-3.92.15-2.62L129.69,77l.29,8,.3,8.34.29,2.61.15.38.58,4.74.74,1.34.43.07.15.43.15-.21.14.26.15-.06.15.1.29-.17.15.22.14-.09.3.16h.14l.15-.18.15.12.29,0,.29,0,.3-.09.14-.12.15.23.14-.12.15.14.44-.15.15-.14.14,0,.44-2.14.3-3.45.29-4.18.44,6.42.29,3.1.3.56.44-.18.14.18.44-.13.44-.33.15-.45.14,0,.59-2.46.44-3.69.73,5.67.15.56h.15l.14.44.3-.31.43,0,.15.23.29-.29.15.44.15-.09.29-.42.29-.07.15.33.88-1.56.29-1.19.44-4.84.3-8,.29-11.78.14-1.78.15,1.94.73,23.4.15,1.24.88,1,.15-.62.14.24.3-.61.14.13.15-.16.29-1.05.29-.49.15.35.15-.44.29.19.29,1.11.3.63.29.12.29.73.15-.13.15.31.14,0,.3.57.29.68.15-.13.29.28.29-.27.29.49.3-.26.14.16.15-.12.15.13.14-.34.15.07.73-2.94.15.25.29,1.41.15.2.15.88.14.06.15-.49.15.26.29-1.32.44-3h.14l.44,3.09.15,1,.15.06.14.57.3.13.14-.08.15-.26.29.28.15-.35.15.46.14,0,.3-.48.44-.34.43-1,.3-1.45.29-3.21.29-7L163,77.22l1,23.54.29,1,.3.69.14,0,.3.16.29.26.14-.09.15.2.59-.64.44-2.46.14-.78.15.06.15.5.29-.39.29-1.76.15-1.4.44,2.62.44,3.22.44-.22.29-1.93.44-7.15L170,93l.29,3.61.29,3.56.15,1.41.29.39.3-.54.29-1.27.29.48.3-1,.14.28.3,1.34.14.33.15,0,.14.73.15-.16.29-1.4.3-1.94.29-7,.15-5.48.44-24.92.88,37.87.29,2.18.15.57.14-.14.15.25.29-.23.44-1.28.44-2.21.44,1.75.59,2.32.29.32.15.43.44-.27.44-.19.29.24.29-.71.15.12.29-.23.15.25.29-.36.15.42.29-.28.29-.52.3-.28.29,1,.15,0,.14.17H183l.15.26.58,0,.29-.47.3-.63.29-2.13.29-4.81.3-7.18.14,1.84.15,3.34.15-.39.14.67.15,1.49h.15l.44-7.78.58,6.85.29,3.85.3.89.14-.33.15-.73.15,0,.29,1.06.15.51.14,0,.15,1.07.15-.37.44-.11.29-.83.29-2.41.3-4.82.29-3.43.15.64.73,10.85.44,1.75.14-.09.3.38.29-.26.15.38.29-.14.15.25.14-.1.15.16.29-.19.15.22.15-.34.29-1.29.15.07.14.55.44-1.28.44.65.15-.18.29,1.2.15.18.29.73.15,0,.14.22.3-.42.14.26.44-.22.15.24.29-.15.15.15.29-.28.29-.2.3-.26.29-.77.29.16.15.08.15.73.14,0,.59,1,.29.07.15,0,.59.3.43-.22.15.08.29-.09.3.14.14-.38h.15l.15.17.14-.49.59-.23.15.22.14-.39.15.08.15-.26h.14l.15.22.44-1,.15-.07.29-1.89.14-.58.3-2,.14.7.15,1.84.15-.35.44,2,.29.25.15-.39.14-.06.15-.35.15.26.14-.53.15.44.15-.48.14,0,.15-.15.44,1.4.15.15.14,0,.29.84.3-.32.14,0,.15-.2.15.39.14-.25.15.11.15-.45.14.06.15-.36.15.28L212,98l.15-.14.29,1.89.15-.07.44,1.72.14.13.15.43.15-.1.14.22.3-.36.14.25.15-.06.29-.42.15,0,.59-2.3.44-4.59.14-.11.3,3.08.14-.07.15.74.29,2.47.29.48.15,0,.15.29.29-.09.29-.24.15.22.44-.47.29-.19.15-.55.15-.08.44-1.83.29-.3.29.18.15-.3.29.28.15-.86.14.32.59-3.7.29-1.13L222,91l.14-.84.15-.11.29,3,.15.52.59,5.63.14.47.3,1.21.43.81.3-.26.29.49.15-.13.29.11.44-.18.29-.78.3-2.28.44-4,.29,2.77.15,0,.14-.49.3,1.57.29,2,.14-.13.44,1.55.3.25.29.26.15-.17.14.29h.15l.15.39.29-.53.15-.13.14.11.15-.23.44-2.2.15,0,.14.15.15-.32.73,2.47.15,0,.14.5.15-.2.15.07.29-.86.29-.91.15.09.59,1.41.14,0,.3.64.29-.07.59-.6.14.61.15-.32.14.32h.15l.29.5.15-.22.15.27.14-.13.3.25.29-.24.15,0,.29-.24.29,0,.15,0,.15-.53h.14l.44-.62.44-.49.15-.52.44-3.31.14-1.53.15.85.29,2.39.3-.28.44,2.66h.14l.15.29.15-.16.14.12.3-.74.14-.9.15-.13.15.07.14-.22.15.49.14,0,.3-1,.29-.39.15.06.29,1.68.15-.09.44,1.91.29.34h.15l.14.22.3-.14.29-.46.59-.79.14.57.15.07.29-.38.15.19.73-2.8.29,1.69.3-1.29.14.14.15-.21.15-.72.29,1,.15-.32.44-1.67.29,2.44.29.22.15.13.44,1.56h.14l.15-.29.15.12.14-.39.15,0,.15.36h.29l.15.19.14-.42.15.3.15-.14.14.28.3,0,.29-.56h.15l.14-.29.29-1,.15-.24.29,1.38.15-.13h.15l.14-.25.44,1.32.3.12h.14l.15.3.15-.22.14.14,1-.2.15-.29h.14l.73-2,.15.92.29.22.3-.09.29.67.44-1.23.29-.87.59,1.36.15-.12,1,1.77.15-.21.29.37h.15l.58-.36.15-.64.29-.29.15.39.15-.39.14.13.3-.43.29-.7.15,0,.29,1.29.14,0,.15-.33.15.16.29,1,.15.14.14-.09.59-1.76.15-.41.14.3.3,1,.14,0,.3.3.29,1,.29.31.3-.17.29-.1.29.18.15-.18.29.22.29-.45.15.13.15,0,.14-.27.15.21.15-.14.29.1.15-.14.44.41.44-.1.14-.12.15.17.44-.41.14.06.15.31.29-.45.15-.4.15-.07.29.52.29-.11.59.52.73.26.15-.27.15.08.14-.22.59-2.68.14-.17.3,1.55.29.29.15-.08.29,1,.29.47.15-.12.15.2.44-.2.14.14.15,0,.15.18.29-.16.29.21.29-.27.44.2.3-.24.14.1.3-.18.29-.49.15-.57.14-.12.15-.44.44,1,.15-.22.14.22.3,0,.29.63.44.09.14-.22.15.1.15-.06.14.33.3-.39.29.07.29-.54.15-.17.15.18.29,0,.15-.38.14.08.15-.25.15.1.14-.37.15.11.44-1.39.44-1.35.14-.13.3.22.14.11.3,1,.14-.25.3.63.14.13.3-.89.44-2,.29.08.29.72H290l.15.13.43.85.15.26h.15l.14.25.3-.71.14.2.3-.57.29-.27.15-.35.29,0,.15-.28,1.46,3.62.15.16.14,0,.15.52.15-.08.14.3.15-.22.15.42.14-.26.15.49.15-.21.14.23.15,0,.29.26.15-.32.29.25.15-.27.15.08.58-.85.15-.28.44-1.24.14.09.3-.38.29-.88.15.19.29,1.34.29.42.15.56.15-.19.14.62.15,0,.44.79.15.18.14-.26.15.07.15-.12.29.13.14-.07.15.23L302,104l.15.09.15-.11.14.28.44-.16.3.51.29-.13.15.1.14-.17.15.1.15-.11.29.06.15-.24.14.24.3-.27.14.12.15-.06.58-.9.15,0,.15.08.14.43.15,0,.44-.52.73.87.15-.32.59.23.14.09.15-.41.15.38.14-.07.29.24.74.15.58-.54.3-.3.14-.33.44.52.15-.07.29.25H312l.44.34H313l.15-.25.29,0,.15.16.15-.13.14.16.3,0,.14-.2.15.32.15-.27h.14l.15.24.15-.19.14,0,1.17-1,.44-.71.15-.13.15.13.14.32.15,0,.29.48.15,0,.15.37h.14l.3.44.14,0,.3.11.44-.89.44-1.23.14.22.29,1.06.44,0,.3.46.29.59.29-.11.44-.12.3-.52.44-1.54.73,1,.29-.21.15.41.14.06.3.62h.29l.15.14.14-.1.15.32h.15l.29-.4.44,0,.15-.52.14.05.15-.14.15-.31.14.58.3.26.29-.14.14.22.15-.15.15.19.29-.14h.15l.29.48.15-.26.14,0,.15.19.15,0,.14-.24,1-.13.29-.26.15.31.29-.08.29-.33.15-.07.15.12.14-.18.3.27.14-.12.3.59.29-.24.44.14.29.12.15-.21.15.28.14-.21.3-.65.44-.84.29-.26H335l.44-.42.15,0,.15.71.14.06.88,1.1.15-.08.15.07.14-.07.15.08.15.25.29-.07.29,0,.29,0,.15-.39.15.07.14-.44h.15l.29.74.3.15h.14l.15-.18.29-.08.15.25h.29l.15.14.15,0,.14-.38.3,0,.14-.18.3.1.14-.2.15.07.14-.12.3-.42.14,0,.15-.2.29,0,.15-.12.73.79.3-.06.29.56.29,0,.15-.24.15,0,.44-1.15.14.17.29.65.15-.17.15.45.14-.19.15.09.29.6.15,0,.29.51.15-.1.15.27.14-.14.3.09.14-.18.15.14.29-.21.15,0,.15-.24.29.32.44-.25.29.2.15-.34.29.15.44-.92.29-.59.3-.82.29-.79.29.35.3.8.14.19.15-.21.29.35H353l.14.55.44.24.3-.24.14-.78.15.17.29-.11.15.44.15-.1.14.17.15-.27.15.39.14-.07.3.61.29.09.15.24.14-.1.15.17.15,0,.14.3.44-.16.59.36.29,0,.15.07h0" transform="translate(0 -1)"/></g></g><g id="line2d_36" data-name="line2d 36"><g class="cls-5"><path class="cls-8" d="M23.45,47.77l.15.38.29-.23.15.51.15-.12.14.26.15-.52.15,0,.14.46.15,0,.15-.22.14.15.15.38.14-.36.15.2.15-.23.14.47.15-.33.15.21.44-.09.14.16H27l.15.27.14-.21.15-.54.29.52.15-.11.15,0,.14-.1.15.17.15-.16.14.63.3-.25.14-.46.29.52h.15l.15-.33h.14l.15.23.15-.13.14.11.15.27.15-.42.29.37.15-.3.14.37.3-.28.14,0,.15.35.15-.11L32,49l.15.16.15-.09.14.14.15-.33.15,0,.29.3.14-.4.15.15.44-1,.15.23L34.74,44,35,41.66l.59-12.16.14,2.81.3,12.5.29,3.92.29.75.15.07.29.62.15.1.14-.1.15.16.15-.18.14.23.3-.42.14.6.15-.28.15,0,.29.58.29-.39.15.27.15-.21.29.2.15-.23.14.11.15-.31.29.62.15-.36.29.1.15-.12.14.15.15-.07.15.42.14-.09.15-.45.44.47.15.1.14-.05.15-.28.15.34.14-.36.3.46.14-.29.15.19.15-.33.14.42.15-.59.14.54.15-.09.15.12.14-.31.3.57L45,51l.44.39.15,0,.15-.19.14.19.15-.05.29.11.15-.17.15.45.29-.52.15.26.14-.31.15.23.15-.14.14.2.29-.13.15.29.15-.5.14.47.3-.48.14.11.3.51.14-.48L50,51l.29-.27.15.24.44-.71.14-.21.59-2.34.29-3,.44-5.5.15,2.13L52.76,49l.29,1.68.3.71.29.28.15-.17.14.13.15-.26.15.08.14.37.3-.56.14.07.29.35.15-.33h.15l.14-.14.15.46.44-.36.15.1.29-.53.15-.18L57,51l.15-.61.14.24.59-.59L58,49.4l.14-.14.15.2.15-.35.29-1.52.14-.32,1-9.18.29-4.29.3-2.92h.14L61,34l.58,9.31.3,3.37.14.53.15,1.23.14.2.3,1.38.29-.1.15.68.14-.07.15.25.15-.42h.44l.14-.16.15-.77.15,0,.73-5.37.15.58.44,6.12L66,51.9l.14-.13.15.13.15.34.14-.24.15.23.15-.19.14.48.15,0,.29-.26.15.42.15-.38.14.37.15.05.29-.19.15.08.15-.14.29.52.15-.46.58.08.15-.22.14.17.15,0,.29-.77.15.23.29-1.49.15.15.29,1.34.15.35.15-.2.14-.44.3,0,.14-.52.15-.08.44-1.7L73,47.69l.15-1.9.14-.41.15.11.15,1L73.86,50l.29,1.17.3.43.14,0,.3-.8.29-.51.15.28.29,2.22.15.07.14.25.3-.14.14.23.15-.08.29.31.15.06.14-.13.15.27h.15l.14-.32.59.34.15,0,.14.29.3-.49.14.33.3-.22.14.19.3-.4.14-.12.15.08.59-1.76.29-2,.58,4,.15,0,.15.21.14-.22.15,0,.15.23.14-.17.15.24.44-.34L83,54l.29-.07.15.13,1.17-.89L85.14,51l.3-2.15.14.33.59,4.23.29.43.15.07.15-.12.44.35.14-.35.15.35.29.06.15-.35.14.35.15-.08.15.09.14-.11.3.25.29-.2.29.09.3-.23.14.42.3-.17.14.16h.15l.15.11.14-.39.3.24.44-.24.14.38.29-.12.3.14h.14l.15-.14.15.18.14-.24.15,0,.15-.18.14.22.3.13.29-.55.29.1.44-.14.3.23.14-.36.59.18.14-.44.15-.08.29-.6.3-.7.29-1.49.44-4.55.44-9.93.29,1.44.15,0,.44-2.85.15.28.29,2.69.29,3.18.29.95h.15l.15.12.14-.31.15-.93.15.11.44,6.08.29,3.58.73,2.79.3.16.14.24.3,0,.14.15.29-.11.15.17.15-.21h.14l.59-1.86.15.33.29,1,.15.41.14.07.3-.09.29-.54.15,0,.14-.28.44.29.15-.37.58-3.55.3-3.7.44,4.54.14.87.15,0,.29-3.53.3-5.78.44-9.94.73,9,.15.26.29,2.42.29,2.31.15-.3.29-2.19.44-11.3.73,19.74.15,1.08.15-.05.14.72.15,0,.73.92.15.15.15,0,.29.18.14-.34.3.07.44-1h.14l.15-.57.15.6.14-.21.15.51.29-.09.3-1.16.29-2.35.29-2.44.15.39.59,5.94.29.51.73.48.59-.16.14.26.44-.38.15.13.44-.38.44-.47.59.29.14.19.15,0,.14.24.15-.22.29.26.15,0,.15.07.29-.24.59-.58.14-.2.3.3.29-.11.59-1,.29-1.3.14-.43.15,0,.15.1.14-.23.15.1.44-2.21.59-2.56.14-.25.15.08.59,3.35.29,1.42.15,0,.14.74h.15l.15.13.29-.85.29-1.71.73-8.43.59,5.59.29-.75.44-3L131,42l.15.52.73,7.44.58,2.45.3,1,.44.19.14.41.3.12.29.4.29-.2.15.24.15-.07.14.26.15-.17.15.23.14-.18,1,0,.14.3.15-.41.15.36.14-.23.88-3.61.3,2.07.14.53.15,1,.29.13.15-.17.29.4.44,0,.15-.39.14.17.15-.08.29-.33.15-.14.29-1,.3-.76.14.12.3-1.32.29,1,.59,2,.14.25.15,0,.15-.35.14.19.44.05.15-.25.58.2.15-.39.29.4.15-.34.29.11.44-.68.3-.26L146,52.1l.14-.1.3-2.58.29-4.48.29-4.58.15.23.14,1.45.44,6.8.3,2.34.14.07.15-.33.15.07.29-.61.15-.14.29.6.15.2.14.59.15-.11.15.25.14-.36.15.09.15-.16.14.2.15-.42.14-.07.3.33.14.12.3.92.14,0,.15.17.15,0,1,1.67.44.48.3-.09.29.41.15-.21.29.17.14-.18.3.4.14-.33L155,55l.29-.34.3-.42.44-.62.14,0,.3.92.14-.18.3.56.14,0,.15-.47.29-.27.44-1.32.15.22.44,1.42.29.77.15-.47.14.27.15-.13.15.2.14-.2.15.28.15-.36L160,55l.15-.22.15.29.88-.45.14-.6h.15l.29-.86.59-5.6.29-4.82.15.61.73,8.59.44,1.85.15.4.14,0,.3.57.14-.2.3.5.29-.24.14.17.88-.9.15-.8.29.22.3-.25.29-.34.15-.76.14-.16.15.28.29,1.2.15.18.15.48.14-.11.3.18.43-1.45.44-3,.74,3.2.14.17h.15l.15-.41.14.14.3-.78.14.06.15.24.29-.12.44.84.3.37.14-.27.15.11.14,0,.74-4.73.44-8.07.14-3.26.15.43.44,9.12.44,6,.15,0,.44.54.14.12.44-.36.15-.39.44-2.12h.14l.3.82.44,1.81.14-.06.3.63.14.08.15-.52.15.11.58-.25.15.19.15,0,.14.25.15-.12.14.1.15.38.15-.42.29.61.15-.09.14,0,.59-.71.15.17.14-.16.15.41.15-.3h.14l.15.42.15-.56L183,54l.29-.19.15.12.88-2.1.44-3.91.29-2.65.29,1.43.3-.37.14.41.44-3,.15-.88.29,2.06.59,3.69.29.22.29-.78.15.36.15.73.14-.15.15.07.59,1,.14-.2.15.16.15-.39.44-2.33.44-5,.29,1,.29,4.17.59,4.76L192,53l.14.19.15.42.15-.35.14,0,.15.6.15-.18.14.23.15-.1.29.2h.15l.15.2.14-.63.15.06.29-.38.3,0,.29.32.29-.36.15.32.14-.15.15.58.44.13.29.37.15-.22.15.13.73-.26.15,0,.14-.17.15,0,.29-.33.15,0,.14-.31.15.28.59-.45.14.09.3-.51.29.33.29.29.44.63.3.17.14-.17.15,0,.29-.55.15.26.15-.2.14-.4.15.28.29,0,.29.43.15,0,.15-.15.29.33.29-.35.15.08.29-.21.15,0,.15-.19.14.07.15-.13.29-.45.3-.37.44-.8.14-.43.15-.8.14,0,.15.15.29.88.15-.34.29.85.3.52h.14l.15-.15.15,0,.14.64.15-.45.15.48.14-.2.59.47.15.38h.14l.3.49.43.19.3-.19.14.05.15-.27.15.25.29-.28.15.32.14-.11.15.06.59-1.21H212l.15.5.15,0,.29.32.44.77.14-.23.15.15.15-.17.14.07.15-.31.29.09.59-1.21.29-1,.59-3.76.15,0,.14.54.3.27.44,2.1.43,1.41.15.16.15.65.29-.14.15.37.14-.28.15.25.44-.1.29-.44.44-.89.15.08.29-.36.15.15.15-.14.14,0,.15-.34.15.22.58-1.21.15-.86.14-.15.44-2,.15.05.15-.21.73,3.61.29,1.56.3,1,.29.45.15,0,.14-.11.15.35.14-.05.3-.3.14,0,.15.1.15-.32.14.27.15-.24.15.39.14,0,.74-2.41.29-1.32.15,1,.14.22h.3l.44,1.4.43.41.3.69.29.24.15-.17.29.54.15-.18.14.45.15-.27.15.18.14,0,.15.14.15-.45.14.39.15-.25.15-.69.44-.26.14.2.3.1.29.61.14-.13.15.16.29-.33.15-.08.29-.54.3-1.08.14.09.15.29.29-.72.15-.08.15-.26.29.09.29.76.15-.2.15.22L235.2,54l.43.6.15.38.15-.16.29.29h.15l.14.16.15-.07.15.12.14-.25.15.39.15.06.29-.35.15.11L238,55h.29l.3-.35.14-.17.29.18.74-2.45.44,1.49.29-.17.29.9.3.35.14-.06.3-.41.14-.58.15.06.15-.43h.14l.15-.16.29.61.15-.27.14.09.15-.51.15.49.14-.1.15.64.29.08.15.33.15,0,.14.47h.15l.29.44.15-.19.29,0,.15-.16.15.18.29-.6.15.14.14,0,.3.34.29-.35.29,0,.44-1.1.15.06.29.5.15.21.29-.75.15,0,.14-.39.3.41.29-.56.15-.56.29,0,.15,1,.73.79.14.4.15-.23h.15l.29.39.15-.18.14.16.15,0,.15.19.29-.15.29.23.3-.22.14.11.44-.31.15.23.15-.43.14,0,.15-.36.14,0L254,55h.15l.29-.37.15.32.58.22.15-.24.15.12.14.27.15-.41.29,0,.3-.13.14-.51.3-.17.29-.69.15-.32.58-2,.44.77.29.09.44,1,.15-.18.29.31.15,0,.15-.21.14.61.44.33.15.11.29.59h.15l.14.58.59.39.29.12.15.22.29-.4.3-.1L263,55h.44l.73-.59.15.32h.14l.29.19.15-.06.29.64.15-.14.15.18h.14l.59-.93.44.92.15-.38.29.29.15.39.14-.09.3.12.29,0,.15-.06.29.11.14,0,.15.12.15-.36.44-.15.29.08.15,0,.14-.18.3.3h.29l.15.19.29-.12.29.11.15.15.15-.24.14,0,.15-.1L272,56l.14-.18.15.15.29-.14.29-.35.44,0,.44.39.44-.27.15.36h.15l.14-.12.15.17.15-.36.14.24.3-.16.43-1.22.3.14.14.54.15.06.29-.3.3.35.14-.13.44.3.3-.14.14.36.3,0,.44.32.73,0,.14-.1L280,56l.15-.17.29.13.3-.2.29-.16.29-.36.15,0,.29.51.3-.06.14.09.15-.14.29.29.15-.07.15-.2.29.28.14-.18h.3l.14-.17L284,56l.29-.64.15.16.29-.56.3-.18.29-.45.15-.08.29.06.15,0,.14.16.15-.59.15.17.29-1,.14.19.15-.13.15.37.14-.16.44.52.15.39.29-.26.3.38.29-.07.15-.52.14-.08.3-.54.14.32.3.1.44.51.29-.24.29.25.15-.09.14.1.59-1,.15.14.29-.5.29-.2.15.12.29.66.15.14.15.6.14-.17.3.47.14.06.15.33.15-.08.14.07.15.42.29-.06.15,0,.14.43.15-.17.29.41.3,0,.14.33.15-.27.15,0,.14.16.15-.08.15.14.14-.14.15.07.15-.07L297,56l.15-.12.15-.45h.14l.15-.15.15-.39.29.28h.14l.44-.85.15,0,.29.46.44.53.15-.2.29.43.44.63.15-.09.15.08.14-.19.3.42.14.1.15-.29.58.09,1-.07.15.28,1.17-.21.15-.18.14.23.15-.05.15-.17.29.14h.14l.15-.42.29-.12.3.4.44-.26.29.05.29.23,1.76-.18.15-.09.29.33.15-.23.14.16.15-.08.15.1.14-.2.15.12.59-.44.14,0,.15.11.29-.09.3.1.14.18.15,0,.29.24.15,0,.14-.25.15.22.15-.08.14.17.15-.22.29.26.74-.12.14.12.44-.21.15.17.29-.17.15.15.59-.29.14,0,.15-.29.14,0,.15-.31.29,0,.15-.16.15.33.14,0,.3.09.14-.07.3.24.14.21.3-.16.29-.12.15.16.58-1.19h.3l.14.61.29-.15.15-.08.59.83.14-.12.44.27.15-.17.15.34.14-.45.15.16.29-.59.3-.09.29.43.73.23.15.14.14-.12.15.24h.73l.44.33.3-.31.14.18.15-.32.29.06.15-.15.44.35.15-.07.14.23.29-.2.3.32.29-.26.15.09.14-.11.15.19.15-.24.14.05.15-.08.15.12.29-.11.15.06.14-.07.15.15.15,0,.29-.4.44.17.15-.31.29.09.14-.2.15.16.15-.09.14.08.15-.27.59.53.29-.12.15.09.14-.22.3.28.29-.44.15,0,.29-.28.15-.15.87-2.1.3.66.29.56.15.14.14-.07.59,1.38.29.19.3-.15.14.16.15-.08.15.15.29-.11.15.15.29-.15.14.09.44-.41.3.67.14-.42.15.33.29-.3.15,0L340,56l.14-.07.15.08.29-.31.15,0,.88-.64.29-.68H342l.14-.53.44-.14.15-.08.15.64.29,0,.44.81.15.16.29.55.15-.09.14.09.3.35.14,0,.44-.34.3-.11.14.23.15-.14.14.3.15-.15.15.28.14-.16.3.35.14,0,.44.39.15-.15.44.1.15-.12.14,0,.15-.24.44.11.15-.22h.14l.15-.17.14.29.3-.2.14,0,.3-.34.14.15,1.32-2.7.15.53.15-.21L352,54l.59.3.15.6.14,0,.59.67.29-.39.15.33.14-.42.3.1.14.3.15,0,.44.22.15,0,.29.26,1,.3.29.18.29.22.29-.11.15.18.15-.09.29.16.15-.12h0" transform="translate(0 -1)"/></g></g><g id="patch_3" data-name="patch 3"><path class="cls-9" d="M23.41,159.22V23.32" transform="translate(0 -1)"/></g><g id="patch_4" data-name="patch 4"><path class="cls-9" d="M23.41,159.22h334.8" transform="translate(0 -1)"/></g><g id="text_9" data-name="text 9"><path id="DejaVuSans-48" d="M170.4,8.57h1.18v3.59h4.3V8.57h1.18v8.75h-1.18V13.15h-4.3v4.17H170.4Z" transform="translate(0 -1)"/><path id="DejaVuSans-69-2" data-name="DejaVuSans-69" d="M179.37,10.76h1.08v6.56h-1.08Zm0-2.56h1.08V9.57h-1.08Z" transform="translate(0 -1)"/><path id="DejaVuSans-67-2" data-name="DejaVuSans-67" d="M187,14a3,3,0,0,0-.48-1.82,1.74,1.74,0,0,0-2.7,0,2.94,2.94,0,0,0-.49,1.82,2.91,2.91,0,0,0,.49,1.81,1.73,1.73,0,0,0,2.7,0A3,3,0,0,0,187,14Zm1.08,2.54a3.66,3.66,0,0,1-.74,2.5,3,3,0,0,1-2.28.81,6,6,0,0,1-1.07-.08,5.44,5.44,0,0,1-1-.26v-1a4.31,4.31,0,0,0,.94.38,3.73,3.73,0,0,0,.94.12,2.09,2.09,0,0,0,1.59-.55A2.35,2.35,0,0,0,187,16.7v-.54a2.16,2.16,0,0,1-.85.87,2.57,2.57,0,0,1-1.25.29A2.37,2.37,0,0,1,183,16.4a3.74,3.74,0,0,1-.74-2.44,3.74,3.74,0,0,1,.74-2.44,2.37,2.37,0,0,1,1.94-.92,2.57,2.57,0,0,1,1.25.28,2.22,2.22,0,0,1,.85.87v-1h1.08Z" transform="translate(0 -1)"/><path id="DejaVuSans-68" d="M195.78,13.36v4H194.7V13.39a2.24,2.24,0,0,0-.36-1.39,1.3,1.3,0,0,0-1.09-.46,1.78,1.78,0,0,0-1.38.55,2.16,2.16,0,0,0-.5,1.52v3.71h-1.09V8.2h1.09v3.58a2.66,2.66,0,0,1,.91-.89,2.49,2.49,0,0,1,1.21-.29,2.09,2.09,0,0,1,1.71.7A3.12,3.12,0,0,1,195.78,13.36Z" transform="translate(0 -1)"/><path id="DejaVuSans-2d" d="M197.39,13.55h3.15v1h-3.15Z" transform="translate(0 -1)"/><path id="DejaVuSans-41" d="M205,9.74l-1.61,4.35h3.22Zm-.67-1.17h1.34L209,17.32h-1.23l-.8-2.25H203l-.8,2.25H201Z" transform="translate(0 -1)"/><path id="DejaVuSans-6c" d="M210.2,8.2h1.08v9.12H210.2Z" transform="translate(0 -1)"/></g></g></g></g><g id="Layer_2" data-name="Layer 2"><g id="LDH"><path class="cls-10" d="M58.39,29.63V23.19h.85v2.64h3.35V23.19h.85v6.44h-.85v-3H59.24v3Z" transform="translate(0 -1)"/><path class="cls-10" d="M120,40.24V33.8h.85v2.64h3.35V33.8H125v6.44h-.85v-3h-3.35v3Z" transform="translate(0 -1)"/><line class="cls-11" x1="122.91" y1="40.24" x2="126" y2="44.59"/><line class="cls-12" x1="122.91" y1="40.24" x2="125.35" y2="43.67"/><path class="cls-10" d="M126,45.59a5.82,5.82,0,0,0-1.65-.79l.91-.25.54-.78A5.69,5.69,0,0,0,126,45.59Z" transform="translate(0 -1)"/><path class="cls-10" d="M188.48,41.48V35h.85v2.64h3.35V35h.86v6.44h-.86v-3h-3.35v3Z" transform="translate(0 -1)"/><path class="cls-10" d="M213.23,48V41.58h.86v2.65h3.34V41.58h.86V48h-.86V45h-3.34v3Z" transform="translate(0 -1)"/><path class="cls-10" d="M340.87,44.89V38.45h.86V41.1h3.35V38.45h.85v6.44h-.85v-3h-3.35v3Z" transform="translate(0 -1)"/><line class="cls-10" x1="347.77" y1="46.72" x2="350.87" y2="51.07"/><line class="cls-13" x1="347.77" y1="46.72" x2="350.21" y2="50.15"/><path d="M350.87,52.07a5.74,5.74,0,0,0-1.66-.79l.92-.25.54-.78A5.39,5.39,0,0,0,350.87,52.07Z" transform="translate(0 -1)"/><line class="cls-10" x1="339.31" y1="46.45" x2="335.36" y2="50.55"/><line class="cls-13" x1="339.31" y1="46.45" x2="336.14" y2="49.74"/><path d="M335.36,51.55a5.67,5.67,0,0,0,.47-1.77l.42.85.86.39A5.35,5.35,0,0,0,335.36,51.55Z" transform="translate(0 -1)"/><line class="cls-10" x1="342.75" y1="46.15" x2="342.75" y2="51.31"/><line class="cls-13" x1="342.75" y1="46.15" x2="342.75" y2="50.17"/><path d="M342.75,52.31a5.62,5.62,0,0,0-.9-1.61l.9.33.89-.33A5.37,5.37,0,0,0,342.75,52.31Z" transform="translate(0 -1)"/></g><g id="Bayerite"><path d="M220.31,46.31V39.87h2.42a3,3,0,0,1,1.19.2,1.5,1.5,0,0,1,.69.6,1.57,1.57,0,0,1,.26.85,1.5,1.5,0,0,1-.23.78,1.62,1.62,0,0,1-.67.59,1.61,1.61,0,0,1,.89.58,1.58,1.58,0,0,1,.32,1,2,2,0,0,1-.19.84,1.63,1.63,0,0,1-.48.6,2.06,2.06,0,0,1-.7.32,4.41,4.41,0,0,1-1,.1Zm.86-3.73h1.39a3,3,0,0,0,.81-.08.87.87,0,0,0,.49-.32.91.91,0,0,0,.17-.56,1,1,0,0,0-.16-.56.75.75,0,0,0-.44-.34,3.64,3.64,0,0,0-1-.09h-1.28Zm0,3h1.6a3.73,3.73,0,0,0,.58,0,1.28,1.28,0,0,0,.49-.17,1,1,0,0,0,.33-.36,1.19,1.19,0,0,0,.12-.54,1.11,1.11,0,0,0-.18-.63.92.92,0,0,0-.51-.37,2.9,2.9,0,0,0-.94-.11h-1.49Z" transform="translate(0 -1)"/><path d="M102.67,36.51V30.07h2.41a3,3,0,0,1,1.19.19,1.6,1.6,0,0,1,.7.61,1.56,1.56,0,0,1,.25.85,1.49,1.49,0,0,1-.22.78,1.63,1.63,0,0,1-.68.58,1.7,1.7,0,0,1,.9.59,1.54,1.54,0,0,1,.31,1,1.86,1.86,0,0,1-.19.85,1.7,1.7,0,0,1-.47.6,1.93,1.93,0,0,1-.71.31,3.9,3.9,0,0,1-1,.11Zm.85-3.73h1.39a3.13,3.13,0,0,0,.82-.08.9.9,0,0,0,.49-.32.93.93,0,0,0,.16-.56,1.08,1.08,0,0,0-.15-.57.81.81,0,0,0-.44-.33,3.69,3.69,0,0,0-1-.09h-1.29Zm0,3h1.6a3.73,3.73,0,0,0,.58,0,1.24,1.24,0,0,0,.5-.18.91.91,0,0,0,.32-.35,1.09,1.09,0,0,0,.13-.55,1,1,0,0,0-.19-.62,1,1,0,0,0-.51-.38,3.27,3.27,0,0,0-.94-.1h-1.49Z" transform="translate(0 -1)"/><line x1="102.32" y1="35.84" x2="101.14" y2="38.75"/><line class="cls-13" x1="102.32" y1="35.84" x2="101.57" y2="37.7"/><path d="M101.14,39.75a5.79,5.79,0,0,0-.22-1.82l.7.64.95,0A5.61,5.61,0,0,0,101.14,39.75Z" transform="translate(0 -1)"/><line x1="108.51" y1="18.98" x2="108.52" y2="29.25"/><line class="cls-13" x1="108.51" y1="18.98" x2="108.52" y2="28.12"/><path d="M108.52,30.25a5.7,5.7,0,0,0-.9-1.6l.9.32.89-.32A5.44,5.44,0,0,0,108.52,30.25Z" transform="translate(0 -1)"/></g><g id="ZeoliteA"><path class="cls-14" d="M32.29,28l2.48-6.44h.92L38.32,28h-1L36.6,26H33.91L33.2,28Zm1.86-2.65h2.19l-.68-1.78c-.2-.54-.35-1-.45-1.34a8.64,8.64,0,0,1-.35,1.23Z" transform="translate(0 -1)"/><path class="cls-14" d="M49.26,38.57l2.48-6.44h.92l2.63,6.44h-1l-.75-2H50.88l-.71,2Zm1.86-2.64h2.19l-.68-1.79c-.2-.54-.35-1-.45-1.33A8.11,8.11,0,0,1,51.83,34Z" transform="translate(0 -1)"/><path class="cls-14" d="M63.17,42.67l2.48-6.44h.92l2.63,6.44h-1l-.75-2H64.79l-.71,2ZM65,40h2.19l-.68-1.78c-.2-.54-.35-1-.45-1.34a7.5,7.5,0,0,1-.35,1.23Z" transform="translate(0 -1)"/><path class="cls-14" d="M82.74,48.49,85.22,42h.91l2.64,6.45h-1l-.75-2h-2.7l-.7,2Zm1.86-2.65h2.18l-.67-1.78c-.2-.55-.36-1-.46-1.34A8.06,8.06,0,0,1,85.31,44Z" transform="translate(0 -1)"/><path class="cls-14" d="M113.83,48.41,116.3,42h.92l2.64,6.44h-1l-.75-1.95h-2.69l-.71,1.95Zm1.86-2.64h2.18L117.2,44c-.21-.54-.36-1-.46-1.33a8.11,8.11,0,0,1-.35,1.23Z" transform="translate(0 -1)"/><path class="cls-14" d="M126.87,34l2.47-6.44h.92L132.9,34h-1l-.75-2h-2.69l-.71,2Zm1.86-2.64h2.18l-.67-1.79c-.21-.54-.36-1-.46-1.33a8.11,8.11,0,0,1-.35,1.23Z" transform="translate(0 -1)"/><line x1="129.51" y1="33.64" x2="129.51" y2="38.79"/><line class="cls-15" x1="129.51" y1="33.64" x2="129.51" y2="37.66"/><path class="cls-14" d="M129.51,39.79a5.7,5.7,0,0,0-.9-1.6l.9.32.89-.32A5.44,5.44,0,0,0,129.51,39.79Z" transform="translate(0 -1)"/><path class="cls-14" d="M144.19,40l2.47-6.45h.92L150.21,40h-1l-.75-2H145.8l-.71,2ZM146,37.38h2.19l-.67-1.78c-.21-.54-.36-1-.46-1.34a8.11,8.11,0,0,1-.35,1.23Z" transform="translate(0 -1)"/><path class="cls-14" d="M286.89,51.23l2.48-6.45h.92l2.63,6.45h-1l-.75-2h-2.69l-.71,2Zm1.86-2.65h2.19l-.68-1.78c-.2-.55-.35-1-.45-1.34a8.11,8.11,0,0,1-.35,1.23Z" transform="translate(0 -1)"/><path class="cls-14" d="M159.81,41.33l2.47-6.44h.92l2.64,6.44h-1l-.75-1.95h-2.7l-.7,1.95Zm1.86-2.65h2.18l-.67-1.78c-.2-.54-.36-1-.46-1.34a7.47,7.47,0,0,1-.34,1.23Z" transform="translate(0 -1)"/></g><g id="DSP"><path class="cls-16" d="M90.66,25.62V19.18h2.22a5.6,5.6,0,0,1,1.15.09,2.14,2.14,0,0,1,.94.47,2.48,2.48,0,0,1,.76,1.1A4.23,4.23,0,0,1,96,22.37a4.66,4.66,0,0,1-.17,1.3,3.29,3.29,0,0,1-.44.94,2.48,2.48,0,0,1-.59.58,2.35,2.35,0,0,1-.77.32,4,4,0,0,1-1,.11Zm.85-.76h1.38a3.74,3.74,0,0,0,1-.11,1.44,1.44,0,0,0,.58-.34,2,2,0,0,0,.47-.81,4.1,4.1,0,0,0,.17-1.25,3,3,0,0,0-.33-1.55,1.71,1.71,0,0,0-.81-.73,3.59,3.59,0,0,0-1.1-.13H91.51Z" transform="translate(0 -1)"/><path class="cls-16" d="M97.29,27.52V19.07H98v8.45Z" transform="translate(0 -1)"/><path class="cls-16" d="M99.21,23.55l.8-.07a1.8,1.8,0,0,0,.27.8,1.49,1.49,0,0,0,.65.5,2.4,2.4,0,0,0,1,.19,2.31,2.31,0,0,0,.86-.15,1.1,1.1,0,0,0,.55-.39,1,1,0,0,0,.19-.55.81.81,0,0,0-.18-.53,1.3,1.3,0,0,0-.58-.38,9.78,9.78,0,0,0-1.15-.32,5.58,5.58,0,0,1-1.24-.4,1.71,1.71,0,0,1-.69-.6,1.49,1.49,0,0,1-.23-.8,1.65,1.65,0,0,1,.28-.91,1.76,1.76,0,0,1,.81-.65,3.18,3.18,0,0,1,1.18-.22,3.34,3.34,0,0,1,1.27.23,1.9,1.9,0,0,1,.84.68,2,2,0,0,1,.31,1l-.81.06a1.33,1.33,0,0,0-.45-.92,1.72,1.72,0,0,0-1.12-.32,1.8,1.8,0,0,0-1.13.29.83.83,0,0,0-.35.68.72.72,0,0,0,.25.57,3.39,3.39,0,0,0,1.28.46,8.81,8.81,0,0,1,1.43.41,1.94,1.94,0,0,1,.83.66,1.58,1.58,0,0,1,.27.92,1.7,1.7,0,0,1-.3,1,1.9,1.9,0,0,1-.84.71,2.92,2.92,0,0,1-1.24.25,3.7,3.7,0,0,1-1.47-.25,2.13,2.13,0,0,1-.93-.77A2.17,2.17,0,0,1,99.21,23.55Z" transform="translate(0 -1)"/><path class="cls-16" d="M184.37,32.77V26.32h2.22a4.87,4.87,0,0,1,1.15.1,2.18,2.18,0,0,1,.94.46,2.62,2.62,0,0,1,.76,1.1,4.7,4.7,0,0,1,.08,2.83,3,3,0,0,1-.44.94,2.13,2.13,0,0,1-.58.58,2.36,2.36,0,0,1-.77.33,4.61,4.61,0,0,1-1,.11Zm.85-.76h1.38a3.32,3.32,0,0,0,1-.12,1.34,1.34,0,0,0,.57-.34,2,2,0,0,0,.48-.81,4.08,4.08,0,0,0,.17-1.24,2.94,2.94,0,0,0-.34-1.56,1.66,1.66,0,0,0-.8-.72,3.25,3.25,0,0,0-1.1-.14h-1.36Z" transform="translate(0 -1)"/><line x1="186.18" y1="32.89" x2="186.27" y2="39.95"/><line class="cls-17" x1="186.18" y1="32.89" x2="186.25" y2="38.82"/><path class="cls-16" d="M186.27,41a5.93,5.93,0,0,0-.91-1.59l.89.31.89-.33A5.82,5.82,0,0,0,186.27,41Z" transform="translate(0 -1)"/><line x1="97.59" y1="27.39" x2="97.58" y2="32.78"/><line class="cls-17" x1="97.59" y1="27.39" x2="97.58" y2="31.65"/><path class="cls-16" d="M97.58,33.78a5.93,5.93,0,0,0-.89-1.6l.89.32.89-.32A5.68,5.68,0,0,0,97.58,33.78Z" transform="translate(0 -1)"/></g><g id="TSP"><path class="cls-16" d="M174.92,35.35V29.67h-2.13v-.76h5.11v.76h-2.13v5.68Z" transform="translate(0 -1)"/><path d="M102,15.59V9.15h2.42a3.05,3.05,0,0,1,1.19.19,1.46,1.46,0,0,1,.69.61,1.57,1.57,0,0,1,.26.85,1.44,1.44,0,0,1-.23.77,1.56,1.56,0,0,1-.67.59,1.67,1.67,0,0,1,.89.59,1.55,1.55,0,0,1,.32,1,2,2,0,0,1-.19.84,1.72,1.72,0,0,1-.47.6,2,2,0,0,1-.71.32,4.36,4.36,0,0,1-1,.11Zm.86-3.74h1.39a3.09,3.09,0,0,0,.81-.07.87.87,0,0,0,.49-.32.93.93,0,0,0,.17-.56,1,1,0,0,0-.16-.57.78.78,0,0,0-.44-.33,3.64,3.64,0,0,0-1-.09h-1.28Zm0,3h1.6a3.73,3.73,0,0,0,.58,0,1.29,1.29,0,0,0,.49-.18,1,1,0,0,0,.33-.35,1.21,1.21,0,0,0,.13-.55,1.06,1.06,0,0,0-.19-.62.94.94,0,0,0-.51-.38,3.27,3.27,0,0,0-.94-.1h-1.49Z" transform="translate(0 -1)"/><path d="M108.15,17.48V9h.69v8.44Z" transform="translate(0 -1)"/><path class="cls-16" d="M112,15.59V9.91h-2.12V9.15H115v.76h-2.13v5.68Z" transform="translate(0 -1)"/></g><g id="Sodium_Silicate" data-name="Sodium Silicate"><line x1="118.14" y1="22.11" x2="112.33" y2="29.38"/><line class="cls-17" x1="118.14" y1="22.11" x2="113.04" y2="28.5"/><path class="cls-16" d="M112.33,30.38a5.41,5.41,0,0,0,.3-1.81l.5.81.9.31A5.53,5.53,0,0,0,112.33,30.38Z" transform="translate(0 -1)"/><path class="cls-16" d="M118.24,19.75l.8-.07a1.8,1.8,0,0,0,.27.79,1.49,1.49,0,0,0,.65.5,2.4,2.4,0,0,0,1,.19,2.54,2.54,0,0,0,.86-.14,1.18,1.18,0,0,0,.55-.4.93.93,0,0,0,.18-.55.8.8,0,0,0-.17-.53,1.3,1.3,0,0,0-.58-.38,9.78,9.78,0,0,0-1.15-.32,5.58,5.58,0,0,1-1.24-.4,1.71,1.71,0,0,1-.69-.6,1.49,1.49,0,0,1-.23-.8,1.65,1.65,0,0,1,.28-.91,1.76,1.76,0,0,1,.81-.65,3.18,3.18,0,0,1,1.18-.22,3.34,3.34,0,0,1,1.27.23,1.9,1.9,0,0,1,.84.68,2,2,0,0,1,.31,1l-.81.06a1.33,1.33,0,0,0-.45-.92,1.72,1.72,0,0,0-1.12-.32,1.8,1.8,0,0,0-1.13.29.83.83,0,0,0-.35.68.72.72,0,0,0,.25.57,3.22,3.22,0,0,0,1.28.46,10,10,0,0,1,1.43.41,2,2,0,0,1,.83.66,1.61,1.61,0,0,1,.27.92,1.7,1.7,0,0,1-.3,1,1.9,1.9,0,0,1-.84.71,3,3,0,0,1-1.25.26,3.67,3.67,0,0,1-1.46-.26,2,2,0,0,1-.93-.77A2.16,2.16,0,0,1,118.24,19.75Z" transform="translate(0 -1)"/><path class="cls-16" d="M178.94,39l.8-.07a1.8,1.8,0,0,0,.27.79,1.44,1.44,0,0,0,.64.5,2.69,2.69,0,0,0,1.85,0,1.21,1.21,0,0,0,.56-.4.93.93,0,0,0,.18-.55.88.88,0,0,0-.17-.53,1.3,1.3,0,0,0-.58-.38c-.18-.07-.56-.17-1.15-.32a5.4,5.4,0,0,1-1.24-.4,1.71,1.71,0,0,1-.69-.6,1.47,1.47,0,0,1-.23-.8,1.6,1.6,0,0,1,.28-.91,1.72,1.72,0,0,1,.81-.65,3.18,3.18,0,0,1,1.18-.22,3.08,3.08,0,0,1,1.26.24,1.78,1.78,0,0,1,.84.67,1.89,1.89,0,0,1,.32,1l-.82.06a1.3,1.3,0,0,0-.44-.92,1.75,1.75,0,0,0-1.13-.31,1.77,1.77,0,0,0-1.12.28.85.85,0,0,0-.36.68.74.74,0,0,0,.25.57,3.36,3.36,0,0,0,1.29.46,10,10,0,0,1,1.43.41,2.1,2.1,0,0,1,.83.66,1.6,1.6,0,0,1,.26.92,1.74,1.74,0,0,1-.29,1,1.91,1.91,0,0,1-.85.7,2.89,2.89,0,0,1-1.24.26,3.67,3.67,0,0,1-1.46-.26,2,2,0,0,1-.93-.76A2.22,2.22,0,0,1,178.94,39Z" transform="translate(0 -1)"/><line x1="181.94" y1="40.85" x2="184.02" y2="43.39"/><line class="cls-17" x1="181.94" y1="40.85" x2="183.3" y2="42.52"/><path class="cls-16" d="M184,44.39a5.8,5.8,0,0,0-1.71-.67l.9-.32.48-.81A5.66,5.66,0,0,0,184,44.39Z" transform="translate(0 -1)"/></g></g><g id="Age_Lables" data-name="Age Lables"><path class="cls-18" d="M320.56,144.17h-.79v-5a4.05,4.05,0,0,1-.75.55,5.72,5.72,0,0,1-.83.41v-.77a5.26,5.26,0,0,0,1.16-.75,3.07,3.07,0,0,0,.7-.87h.51Z" transform="translate(0 -1)"/><path class="cls-18" d="M322.5,142.24v-.8h2.43v.8Z" transform="translate(0 -1)"/><path class="cls-18" d="M328.83,144.17v-.59a1.45,1.45,0,0,1-1.31.7,1.78,1.78,0,0,1-1-.31,2,2,0,0,1-.73-.86,3,3,0,0,1-.25-1.27,3.21,3.21,0,0,1,.23-1.26,1.81,1.81,0,0,1,1.74-1.18,1.54,1.54,0,0,1,.75.18,1.61,1.61,0,0,1,.54.46v-2.31h.78v6.44Zm-2.5-2.33a2,2,0,0,0,.38,1.34,1.13,1.13,0,0,0,.89.45,1.11,1.11,0,0,0,.88-.43,2,2,0,0,0,.36-1.29,2.18,2.18,0,0,0-.37-1.41,1.12,1.12,0,0,0-.91-.44,1.09,1.09,0,0,0-.88.43A2.14,2.14,0,0,0,326.33,141.84Z" transform="translate(0 -1)"/><path class="cls-18" d="M333.85,143.6a2.79,2.79,0,0,1-.84.52,2.37,2.37,0,0,1-.88.16,1.71,1.71,0,0,1-1.18-.38,1.34,1.34,0,0,1-.26-1.58,1.4,1.4,0,0,1,.41-.46,2.12,2.12,0,0,1,.57-.26,6.31,6.31,0,0,1,.71-.12,6.75,6.75,0,0,0,1.41-.27V141a.92.92,0,0,0-.22-.68,1.34,1.34,0,0,0-.9-.26,1.41,1.41,0,0,0-.83.19,1.15,1.15,0,0,0-.39.69l-.78-.1a1.9,1.9,0,0,1,.35-.8,1.43,1.43,0,0,1,.7-.47,3.1,3.1,0,0,1,1.06-.17,2.89,2.89,0,0,1,1,.14,1.28,1.28,0,0,1,.55.35,1.35,1.35,0,0,1,.25.54,5.41,5.41,0,0,1,0,.73v1.06a10,10,0,0,0,.05,1.39,1.64,1.64,0,0,0,.2.56H334A1.82,1.82,0,0,1,333.85,143.6Zm-.06-1.77a5.58,5.58,0,0,1-1.3.3,3.22,3.22,0,0,0-.69.16.7.7,0,0,0-.31.25.73.73,0,0,0-.11.38.68.68,0,0,0,.24.53,1,1,0,0,0,.7.21,1.62,1.62,0,0,0,.81-.2,1.22,1.22,0,0,0,.53-.55,2,2,0,0,0,.13-.79Z" transform="translate(0 -1)"/><path class="cls-18" d="M335.78,146l-.09-.74a2.07,2.07,0,0,0,.45.07.82.82,0,0,0,.42-.09.69.69,0,0,0,.26-.25,3.73,3.73,0,0,0,.24-.58l.07-.2-1.77-4.67h.86l1,2.7c.12.34.24.7.34,1.08a9.28,9.28,0,0,1,.32-1.06l1-2.72h.79l-1.78,4.74a8.6,8.6,0,0,1-.44,1.06,1.55,1.55,0,0,1-.48.57,1.11,1.11,0,0,1-.65.19A1.64,1.64,0,0,1,335.78,146Z" transform="translate(0 -1)"/><path class="cls-19" d="M321.74,92.25V93h-4.26a1.3,1.3,0,0,1,.09-.55,2.87,2.87,0,0,1,.52-.85,8.38,8.38,0,0,1,1-1,8.21,8.21,0,0,0,1.42-1.36,1.61,1.61,0,0,0,.37-1,1.08,1.08,0,0,0-.33-.8,1.25,1.25,0,0,0-.88-.32,1.22,1.22,0,0,0-.91.34,1.29,1.29,0,0,0-.35.95l-.81-.08a2,2,0,0,1,.63-1.39,2.12,2.12,0,0,1,1.46-.48,2.06,2.06,0,0,1,1.47.52,1.69,1.69,0,0,1,.54,1.27,2,2,0,0,1-.16.76,2.87,2.87,0,0,1-.53.79A11.56,11.56,0,0,1,319.82,91a11.16,11.16,0,0,0-.91.82,2.42,2.42,0,0,0-.33.42Z" transform="translate(0 -1)"/><path class="cls-19" d="M323.8,89.52a1.5,1.5,0,0,1-.73-.51,1.35,1.35,0,0,1-.24-.8,1.57,1.57,0,0,1,.51-1.19,1.91,1.91,0,0,1,1.34-.48A1.87,1.87,0,0,1,326,87a1.58,1.58,0,0,1,.52,1.19,1.29,1.29,0,0,1-.24.78,1.49,1.49,0,0,1-.71.51,1.8,1.8,0,0,1,.9.62,1.7,1.7,0,0,1,.31,1,1.88,1.88,0,0,1-.58,1.39,2.4,2.4,0,0,1-3.08,0,1.89,1.89,0,0,1-.58-1.41,1.7,1.7,0,0,1,.31-1.05A1.64,1.64,0,0,1,323.8,89.52Zm-.41,1.63a1.4,1.4,0,0,0,.16.66,1.17,1.17,0,0,0,.47.49,1.38,1.38,0,0,0,.69.17,1.27,1.27,0,0,0,.93-.36,1.23,1.23,0,0,0,.37-.93,1.27,1.27,0,0,0-.38-.94,1.37,1.37,0,0,0-1.88,0A1.28,1.28,0,0,0,323.39,91.15Zm.25-3a1,1,0,0,0,.3.75,1,1,0,0,0,.76.29,1,1,0,0,0,.75-.29.94.94,0,0,0,.29-.71,1,1,0,0,0-.3-.73,1.11,1.11,0,0,0-1.5,0A.92.92,0,0,0,323.64,88.18Z" transform="translate(0 -1)"/><path class="cls-19" d="M327.5,91.08v-.79h2.43v.79Z" transform="translate(0 -1)"/><path class="cls-19" d="M333.83,93v-.59a1.43,1.43,0,0,1-1.3.7,1.81,1.81,0,0,1-1-.31,2,2,0,0,1-.72-.86,3,3,0,0,1-.26-1.27,3.4,3.4,0,0,1,.23-1.26,1.93,1.93,0,0,1,.7-.88,1.89,1.89,0,0,1,1-.3,1.55,1.55,0,0,1,.76.18,1.68,1.68,0,0,1,.53.46V86.57h.79V93Zm-2.5-2.33a2.07,2.07,0,0,0,.38,1.35,1.15,1.15,0,0,0,.89.44,1.09,1.09,0,0,0,.88-.43,1.89,1.89,0,0,0,.37-1.29,2.24,2.24,0,0,0-.37-1.41,1.13,1.13,0,0,0-.91-.44,1.08,1.08,0,0,0-.88.43A2.08,2.08,0,0,0,331.33,90.68Z" transform="translate(0 -1)"/><path class="cls-19" d="M338.86,92.44A3,3,0,0,1,338,93a2.28,2.28,0,0,1-.87.16,1.67,1.67,0,0,1-1.18-.38,1.23,1.23,0,0,1-.42-1,1.19,1.19,0,0,1,.16-.62,1.3,1.3,0,0,1,.41-.46,2.12,2.12,0,0,1,.57-.26,6.05,6.05,0,0,1,.7-.12,6.48,6.48,0,0,0,1.41-.27v-.2a.89.89,0,0,0-.22-.69,1.36,1.36,0,0,0-.9-.26,1.38,1.38,0,0,0-.82.19,1.21,1.21,0,0,0-.4.69l-.77-.1a1.9,1.9,0,0,1,.35-.8,1.45,1.45,0,0,1,.7-.47,3,3,0,0,1,1-.17,2.85,2.85,0,0,1,1,.14,1.23,1.23,0,0,1,.55.36,1.24,1.24,0,0,1,.25.53,4.11,4.11,0,0,1,0,.73v1.06a12,12,0,0,0,.05,1.39,1.64,1.64,0,0,0,.2.56H339A1.59,1.59,0,0,1,338.86,92.44Zm-.07-1.77a5.6,5.6,0,0,1-1.29.3,2.93,2.93,0,0,0-.69.16.62.62,0,0,0-.31.26.6.6,0,0,0-.11.37.68.68,0,0,0,.24.53,1,1,0,0,0,.7.21,1.68,1.68,0,0,0,.81-.2,1.2,1.2,0,0,0,.52-.55,1.82,1.82,0,0,0,.13-.79Z" transform="translate(0 -1)"/><path class="cls-19" d="M340.78,94.81l-.09-.74a1.72,1.72,0,0,0,.46.07.87.87,0,0,0,.42-.09.77.77,0,0,0,.26-.25,3.31,3.31,0,0,0,.24-.58s0-.11.07-.2l-1.77-4.67h.85l1,2.7a10.52,10.52,0,0,1,.34,1.08,9.32,9.32,0,0,1,.33-1.06l1-2.72h.79l-1.77,4.74a7.62,7.62,0,0,1-.45,1.06,1.67,1.67,0,0,1-.48.58,1.15,1.15,0,0,1-.65.18A1.48,1.48,0,0,1,340.78,94.81Z" transform="translate(0 -1)"/><path class="cls-19" d="M345,91.62l.78-.12a1.14,1.14,0,0,0,.37.72,1.57,1.57,0,0,0,1.65,0,.65.65,0,0,0,.26-.52.49.49,0,0,0-.23-.43A3.23,3.23,0,0,0,347,91a8.27,8.27,0,0,1-1.2-.38,1.13,1.13,0,0,1-.51-.45,1.15,1.15,0,0,1-.18-.62,1.3,1.3,0,0,1,.53-1,1.73,1.73,0,0,1,.51-.23,2.15,2.15,0,0,1,.68-.1,2.63,2.63,0,0,1,1,.16,1.29,1.29,0,0,1,.61.43,1.69,1.69,0,0,1,.27.72l-.77.11a.9.9,0,0,0-.31-.57,1.13,1.13,0,0,0-.71-.2,1.3,1.3,0,0,0-.78.18.51.51,0,0,0-.23.42.45.45,0,0,0,.09.28.66.66,0,0,0,.31.21c.08,0,.31.1.7.2a11.39,11.39,0,0,1,1.17.37,1.2,1.2,0,0,1,.52.42,1.18,1.18,0,0,1,.19.67,1.38,1.38,0,0,1-.23.75,1.58,1.58,0,0,1-.67.54,2.38,2.38,0,0,1-1,.19,2.21,2.21,0,0,1-1.39-.38A1.74,1.74,0,0,1,345,91.62Z" transform="translate(0 -1)"/><path d="M320.11,31V29.43h-2.79V28.7l2.94-4.17h.65V28.7h.87v.73h-.87V31Zm0-2.27V25.8l-2,2.9Z" transform="translate(0 -1)"/><path d="M322.64,25.37v-.76h4.17v.62A8.32,8.32,0,0,0,325.59,27a10.79,10.79,0,0,0-.94,2.23,8.6,8.6,0,0,0-.3,1.77h-.81a8,8,0,0,1,.3-1.84,9.4,9.4,0,0,1,.82-2.07,8.71,8.71,0,0,1,1.13-1.69Z" transform="translate(0 -1)"/><path d="M327.59,27.79a5.82,5.82,0,0,1,.24-1.84,2.22,2.22,0,0,1,.69-1.07,1.81,1.81,0,0,1,1.17-.38,1.88,1.88,0,0,1,.91.21,1.78,1.78,0,0,1,.65.6,3.51,3.51,0,0,1,.4,1,6.83,6.83,0,0,1,.14,1.52,6,6,0,0,1-.23,1.83,2.29,2.29,0,0,1-.7,1.08,1.81,1.81,0,0,1-1.17.38,1.75,1.75,0,0,1-1.46-.67A4.2,4.2,0,0,1,327.59,27.79Zm.81,0a4.15,4.15,0,0,0,.37,2.12,1.1,1.1,0,0,0,.92.52,1.11,1.11,0,0,0,.92-.53,4.11,4.11,0,0,0,.37-2.11,4.11,4.11,0,0,0-.37-2.11,1.11,1.11,0,0,0-.93-.52,1,1,0,0,0-.87.46A4.1,4.1,0,0,0,328.4,27.79Z" transform="translate(0 -1)"/><path d="M332.51,29v-.8h2.43V29Z" transform="translate(0 -1)"/><path d="M338.84,31v-.59a1.44,1.44,0,0,1-1.3.7,1.86,1.86,0,0,1-1-.31,2.13,2.13,0,0,1-.73-.86,3,3,0,0,1-.25-1.27,3.26,3.26,0,0,1,.23-1.27,1.85,1.85,0,0,1,.7-.87,1.89,1.89,0,0,1,1-.3,1.54,1.54,0,0,1,.75.18,1.61,1.61,0,0,1,.54.46V24.53h.79V31Zm-2.5-2.33a2,2,0,0,0,.38,1.34,1.11,1.11,0,0,0,1.77,0,2,2,0,0,0,.36-1.29,2.25,2.25,0,0,0-.36-1.41,1.14,1.14,0,0,0-.91-.45,1.13,1.13,0,0,0-.89.43A2.17,2.17,0,0,0,336.34,28.64Z" transform="translate(0 -1)"/><path d="M343.86,30.4a2.79,2.79,0,0,1-.84.52,2.5,2.5,0,0,1-.88.16A1.71,1.71,0,0,1,341,30.7a1.25,1.25,0,0,1-.41-1,1.23,1.23,0,0,1,.16-.63,1.34,1.34,0,0,1,.4-.45,2.12,2.12,0,0,1,.57-.26,6.31,6.31,0,0,1,.71-.12A7.16,7.16,0,0,0,343.8,28V27.8a.87.87,0,0,0-.22-.68,1.31,1.31,0,0,0-.9-.27,1.41,1.41,0,0,0-.83.2,1.2,1.2,0,0,0-.39.69l-.77-.1a2,2,0,0,1,.34-.81,1.57,1.57,0,0,1,.7-.47,3.15,3.15,0,0,1,1.06-.16,2.89,2.89,0,0,1,1,.14,1.28,1.28,0,0,1,.55.35,1.35,1.35,0,0,1,.25.54,5.41,5.41,0,0,1,0,.73V29a10,10,0,0,0,0,1.39,1.64,1.64,0,0,0,.2.56H344A1.82,1.82,0,0,1,343.86,30.4Zm-.06-1.77a5.6,5.6,0,0,1-1.29.3,2.93,2.93,0,0,0-.69.16.65.65,0,0,0-.43.63.68.68,0,0,0,.24.53,1,1,0,0,0,.7.21,1.69,1.69,0,0,0,.82-.2,1.31,1.31,0,0,0,.52-.55,2,2,0,0,0,.13-.79Z" transform="translate(0 -1)"/><path d="M345.79,32.77,345.7,32a2.07,2.07,0,0,0,.45.07.89.89,0,0,0,.43-.09.67.67,0,0,0,.25-.25,4.3,4.3,0,0,0,.25-.59.93.93,0,0,1,.07-.19l-1.77-4.68h.85l1,2.71a10.52,10.52,0,0,1,.34,1.08c.09-.36.2-.72.32-1.07l1-2.72h.79l-1.77,4.75a8.22,8.22,0,0,1-.45,1.06,1.55,1.55,0,0,1-.48.57,1.16,1.16,0,0,1-.65.19A1.76,1.76,0,0,1,345.79,32.77Z" transform="translate(0 -1)"/><path d="M350,29.58l.78-.12a1.1,1.1,0,0,0,.37.72,1.31,1.31,0,0,0,.84.25,1.24,1.24,0,0,0,.81-.23.66.66,0,0,0,.26-.52.49.49,0,0,0-.23-.42A3.56,3.56,0,0,0,352,29a6.76,6.76,0,0,1-1.21-.38,1.16,1.16,0,0,1-.51-.44,1.24,1.24,0,0,1,0-1.2,1.41,1.41,0,0,1,.39-.45,1.8,1.8,0,0,1,.5-.23,2.56,2.56,0,0,1,.69-.09,2.61,2.61,0,0,1,1,.16,1.26,1.26,0,0,1,.62.43,1.69,1.69,0,0,1,.27.72l-.78.1a.82.82,0,0,0-.3-.56,1.16,1.16,0,0,0-.72-.2,1.26,1.26,0,0,0-.77.18.52.52,0,0,0-.24.42.48.48,0,0,0,.1.28.79.79,0,0,0,.3.21l.7.2a8.77,8.77,0,0,1,1.17.37,1.1,1.1,0,0,1,.71,1.09,1.32,1.32,0,0,1-.23.75,1.49,1.49,0,0,1-.66.54,2.57,2.57,0,0,1-1,.19,2.18,2.18,0,0,1-1.38-.38A1.77,1.77,0,0,1,350,29.58Z" transform="translate(0 -1)"/></g></svg>