<svg id="Layer_1" data-name="Layer 1" xmlns="http://www.w3.org/2000/svg" xmlns:xlink="http://www.w3.org/1999/xlink" width="198.01" height="204.93" viewBox="0 0 198.01 204.93"><defs><style>.cls-1,.cls-10,.cls-11,.cls-6,.cls-7,.cls-8,.cls-9{fill:none;}.cls-2{fill:#fff;}.cls-11,.cls-3,.cls-4,.cls-6{stroke:#000;}.cls-10,.cls-3,.cls-4,.cls-6,.cls-7,.cls-8,.cls-9{stroke-linejoin:round;}.cls-11,.cls-3{stroke-width:0.8px;}.cls-4{stroke-width:0.6px;}.cls-5{clip-path:url(#clip-path);}.cls-10,.cls-11,.cls-6,.cls-7,.cls-8,.cls-9{stroke-linecap:square;}.cls-10,.cls-6,.cls-7,.cls-8,.cls-9{stroke-width:0.5px;}.cls-7{stroke:#008068;}.cls-8{stroke:#00699c;}.cls-9{stroke:#02458d;}.cls-10{stroke:#478d02;}</style><clipPath id="clip-path"><rect class="cls-1" x="23.41" y="7.2" width="167.4" height="163.08"/></clipPath></defs><g id="figure_1" data-name="figure 1"><g id="patch_1" data-name="patch 1"><path class="cls-2" d="M0,204.93H198V0H0Z"/></g><g id="axes_1" data-name="axes 1"><g id="patch_2" data-name="patch 2"><path class="cls-2" d="M23.41,170.28h167.4V7.2H23.41Z"/></g><g id="matplotlib.axis_1" data-name="matplotlib.axis 1"><g id="xtick_1" data-name="xtick 1"><g id="line2d_1" data-name="line2d 1"><path id="m5966c6544c" class="cls-3" d="M37.36,170.28v3.5"/></g><g id="text_1" data-name="text 1"><path id="DejaVuSans-31" d="M33.26,182.69h1.29v-4.45l-1.4.29v-.72l1.39-.28h.79v5.16h1.29v.67H33.26Z"/><path id="DejaVuSans-30" d="M39.9,178.05a1,1,0,0,0-.91.6,5.38,5.38,0,0,0,0,3.6,1,1,0,0,0,1.83,0,5.38,5.38,0,0,0,0-3.6A1,1,0,0,0,39.9,178.05Zm0-.63a1.68,1.68,0,0,1,1.5.78,4,4,0,0,1,.52,2.25,4,4,0,0,1-.52,2.25,1.84,1.84,0,0,1-3,0,4,4,0,0,1-.52-2.25,4,4,0,0,1,.52-2.25A1.67,1.67,0,0,1,39.9,177.42Z"/></g></g><g id="xtick_2" data-name="xtick 2"><g id="line2d_2" data-name="line2d 2"><path id="m5966c6544c-2" data-name="m5966c6544c" class="cls-3" d="M65.26,170.28v3.5"/></g><g id="text_2" data-name="text 2"><path id="DejaVuSans-32" d="M61.71,182.69h2.75v.67h-3.7v-.67L62,181.45l1-1a4.1,4.1,0,0,0,.52-.72,1.3,1.3,0,0,0,.16-.58,1,1,0,0,0-.33-.76,1.21,1.21,0,0,0-.85-.3,2.77,2.77,0,0,0-.78.13,5.06,5.06,0,0,0-.88.39v-.79a5.1,5.1,0,0,1,.89-.29,3,3,0,0,1,.75-.1,2.19,2.19,0,0,1,1.45.45,1.52,1.52,0,0,1,.54,1.21,1.81,1.81,0,0,1-.14.69,3.48,3.48,0,0,1-.49.76l-.62.65Z"/><path id="DejaVuSans-30-2" data-name="DejaVuSans-30" d="M67.8,178.05a1,1,0,0,0-.91.6,5.38,5.38,0,0,0,0,3.6,1,1,0,0,0,1.83,0,5.38,5.38,0,0,0,0-3.6A1,1,0,0,0,67.8,178.05Zm0-.63a1.68,1.68,0,0,1,1.5.78,4,4,0,0,1,.52,2.25,4,4,0,0,1-.52,2.25,1.84,1.84,0,0,1-3,0,4,4,0,0,1-.52-2.25,4,4,0,0,1,.52-2.25A1.67,1.67,0,0,1,67.8,177.42Z"/></g></g><g id="xtick_3" data-name="xtick 3"><g id="line2d_3" data-name="line2d 3"><path id="m5966c6544c-3" data-name="m5966c6544c" class="cls-3" d="M93.16,170.28v3.5"/></g><g id="text_3" data-name="text 3"><path id="DejaVuSans-33" d="M91.32,180.21a1.5,1.5,0,0,1,.88.51,1.43,1.43,0,0,1,.32.94,1.63,1.63,0,0,1-.59,1.34,2.7,2.7,0,0,1-1.69.47,4,4,0,0,1-.76-.07,5.35,5.35,0,0,1-.8-.22v-.76a2.86,2.86,0,0,0,.72.29,3.61,3.61,0,0,0,.82.1,1.83,1.83,0,0,0,1.13-.3,1,1,0,0,0,.38-.85,1,1,0,0,0-.36-.8,1.51,1.51,0,0,0-1-.29h-.68v-.65h.71a1.43,1.43,0,0,0,.89-.24.79.79,0,0,0,.31-.67.81.81,0,0,0-.32-.68,1.49,1.49,0,0,0-.91-.25,3.58,3.58,0,0,0-.7.08,6.08,6.08,0,0,0-.81.21v-.7c.3-.08.58-.14.84-.19a4.91,4.91,0,0,1,.74-.06,2.26,2.26,0,0,1,1.42.41,1.32,1.32,0,0,1,.52,1.1,1.25,1.25,0,0,1-.27.82A1.45,1.45,0,0,1,91.32,180.21Z"/><path id="DejaVuSans-30-3" data-name="DejaVuSans-30" d="M95.7,178.05a1,1,0,0,0-.91.6,5.38,5.38,0,0,0,0,3.6,1,1,0,0,0,1.83,0,5.38,5.38,0,0,0,0-3.6A1,1,0,0,0,95.7,178.05Zm0-.63a1.68,1.68,0,0,1,1.5.78,4,4,0,0,1,.52,2.25,4,4,0,0,1-.52,2.25,1.84,1.84,0,0,1-3,0,4,4,0,0,1-.52-2.25,4,4,0,0,1,.52-2.25A1.67,1.67,0,0,1,95.7,177.42Z"/></g></g><g id="xtick_4" data-name="xtick 4"><g id="line2d_4" data-name="line2d 4"><path id="m5966c6544c-4" data-name="m5966c6544c" class="cls-3" d="M121.06,170.28v3.5"/></g><g id="text_4" data-name="text 4"><path id="DejaVuSans-34" d="M119,178.21l-2,3.12h2Zm-.2-.68h1v3.8h.83V182h-.83v1.38H119V182h-2.63v-.76Z"/><path id="DejaVuSans-30-4" data-name="DejaVuSans-30" d="M123.6,178.05a1,1,0,0,0-.91.6,5.38,5.38,0,0,0,0,3.6,1,1,0,0,0,1.83,0,5.38,5.38,0,0,0,0-3.6A1,1,0,0,0,123.6,178.05Zm0-.63a1.68,1.68,0,0,1,1.5.78,4,4,0,0,1,.52,2.25,4,4,0,0,1-.52,2.25,1.84,1.84,0,0,1-3,0,4,4,0,0,1-.52-2.25,4,4,0,0,1,.52-2.25A1.67,1.67,0,0,1,123.6,177.42Z"/></g></g><g id="xtick_5" data-name="xtick 5"><g id="line2d_5" data-name="line2d 5"><path id="m5966c6544c-5" data-name="m5966c6544c" class="cls-3" d="M149,170.28v3.5"/></g><g id="text_5" data-name="text 5"><path id="DejaVuSans-35" d="M144.73,177.53h3.1v.66h-2.37v1.43a1.89,1.89,0,0,1,.34-.09,2,2,0,0,1,.34,0,2.17,2.17,0,0,1,1.55.54,1.9,1.9,0,0,1,.57,1.45,1.86,1.86,0,0,1-.58,1.46,2.43,2.43,0,0,1-1.66.52,4.89,4.89,0,0,1-1.53-.25v-.79a2.76,2.76,0,0,0,.72.28,3,3,0,0,0,.8.1,1.54,1.54,0,0,0,1.07-.36,1.23,1.23,0,0,0,.39-1,1.25,1.25,0,0,0-.39-1,1.58,1.58,0,0,0-1.07-.35,2.7,2.7,0,0,0-.63.07,2.93,2.93,0,0,0-.65.22Z"/><path id="DejaVuSans-30-5" data-name="DejaVuSans-30" d="M151.5,178.05a1,1,0,0,0-.91.6,5.38,5.38,0,0,0,0,3.6,1,1,0,0,0,1.83,0,5.38,5.38,0,0,0,0-3.6A1,1,0,0,0,151.5,178.05Zm0-.63a1.68,1.68,0,0,1,1.5.78,4,4,0,0,1,.52,2.25,4,4,0,0,1-.52,2.25,1.84,1.84,0,0,1-3,0,4,4,0,0,1-.52-2.25,4,4,0,0,1,.52-2.25A1.67,1.67,0,0,1,151.5,177.42Z"/></g></g><g id="xtick_6" data-name="xtick 6"><g id="line2d_6" data-name="line2d 6"><path id="m5966c6544c-6" data-name="m5966c6544c" class="cls-3" d="M176.86,170.28v3.5"/></g><g id="text_6" data-name="text 6"><path id="DejaVuSans-36" d="M174.41,180.13a1.06,1.06,0,0,0-.84.36,1.48,1.48,0,0,0-.31,1,1.45,1.45,0,0,0,.31,1,1,1,0,0,0,.84.37,1,1,0,0,0,.84-.37,1.45,1.45,0,0,0,.31-1,1.48,1.48,0,0,0-.31-1A1,1,0,0,0,174.41,180.13Zm1.57-2.48v.72a3.57,3.57,0,0,0-.6-.21,2.47,2.47,0,0,0-.6-.08,1.45,1.45,0,0,0-1.2.53,2.89,2.89,0,0,0-.47,1.6,1.72,1.72,0,0,1,.58-.53,1.65,1.65,0,0,1,.77-.18,1.83,1.83,0,0,1,1.39.54,2,2,0,0,1,.51,1.45,2,2,0,0,1-.53,1.44,1.91,1.91,0,0,1-1.42.54,1.79,1.79,0,0,1-1.55-.77,4,4,0,0,1-.53-2.25,3.44,3.44,0,0,1,.66-2.21,2.14,2.14,0,0,1,1.76-.82,3.21,3.21,0,0,1,.6.06A6,6,0,0,1,176,177.65Z"/><path id="DejaVuSans-30-6" data-name="DejaVuSans-30" d="M179.4,178.05a1,1,0,0,0-.91.6,5.38,5.38,0,0,0,0,3.6,1,1,0,0,0,1.83,0,5.38,5.38,0,0,0,0-3.6A1,1,0,0,0,179.4,178.05Zm0-.63a1.68,1.68,0,0,1,1.5.78,4,4,0,0,1,.52,2.25,4,4,0,0,1-.52,2.25,1.84,1.84,0,0,1-3,0,4,4,0,0,1-.52-2.25,4,4,0,0,1,.52-2.25A1.67,1.67,0,0,1,179.4,177.42Z"/></g></g><g id="xtick_7" data-name="xtick 7"><g id="line2d_7" data-name="line2d 7"><path id="md5f31c8b51" class="cls-4" d="M23.41,170.28v2"/></g></g><g id="xtick_8" data-name="xtick 8"><g id="line2d_8" data-name="line2d 8"><path id="md5f31c8b51-2" data-name="md5f31c8b51" class="cls-4" d="M30.39,170.28v2"/></g></g><g id="xtick_9" data-name="xtick 9"><g id="line2d_9" data-name="line2d 9"><path id="md5f31c8b51-3" data-name="md5f31c8b51" class="cls-4" d="M44.34,170.28v2"/></g></g><g id="xtick_10" data-name="xtick 10"><g id="line2d_10" data-name="line2d 10"><path id="md5f31c8b51-4" data-name="md5f31c8b51" class="cls-4" d="M51.31,170.28v2"/></g></g><g id="xtick_11" data-name="xtick 11"><g id="line2d_11" data-name="line2d 11"><path id="md5f31c8b51-5" data-name="md5f31c8b51" class="cls-4" d="M58.29,170.28v2"/></g></g><g id="xtick_12" data-name="xtick 12"><g id="line2d_12" data-name="line2d 12"><path id="md5f31c8b51-6" data-name="md5f31c8b51" class="cls-4" d="M72.24,170.28v2"/></g></g><g id="xtick_13" data-name="xtick 13"><g id="line2d_13" data-name="line2d 13"><path id="md5f31c8b51-7" data-name="md5f31c8b51" class="cls-4" d="M79.21,170.28v2"/></g></g><g id="xtick_14" data-name="xtick 14"><g id="line2d_14" data-name="line2d 14"><path id="md5f31c8b51-8" data-name="md5f31c8b51" class="cls-4" d="M86.19,170.28v2"/></g></g><g id="xtick_15" data-name="xtick 15"><g id="line2d_15" data-name="line2d 15"><path id="md5f31c8b51-9" data-name="md5f31c8b51" class="cls-4" d="M100.14,170.28v2"/></g></g><g id="xtick_16" data-name="xtick 16"><g id="line2d_16" data-name="line2d 16"><path id="md5f31c8b51-10" data-name="md5f31c8b51" class="cls-4" d="M107.11,170.28v2"/></g></g><g id="xtick_17" data-name="xtick 17"><g id="line2d_17" data-name="line2d 17"><path id="md5f31c8b51-11" data-name="md5f31c8b51" class="cls-4" d="M114.09,170.28v2"/></g></g><g id="xtick_18" data-name="xtick 18"><g id="line2d_18" data-name="line2d 18"><path id="md5f31c8b51-12" data-name="md5f31c8b51" class="cls-4" d="M128,170.28v2"/></g></g><g id="xtick_19" data-name="xtick 19"><g id="line2d_19" data-name="line2d 19"><path id="md5f31c8b51-13" data-name="md5f31c8b51" class="cls-4" d="M135,170.28v2"/></g></g><g id="xtick_20" data-name="xtick 20"><g id="line2d_20" data-name="line2d 20"><path id="md5f31c8b51-14" data-name="md5f31c8b51" class="cls-4" d="M142,170.28v2"/></g></g><g id="xtick_21" data-name="xtick 21"><g id="line2d_21" data-name="line2d 21"><path id="md5f31c8b51-15" data-name="md5f31c8b51" class="cls-4" d="M155.94,170.28v2"/></g></g><g id="xtick_22" data-name="xtick 22"><g id="line2d_22" data-name="line2d 22"><path id="md5f31c8b51-16" data-name="md5f31c8b51" class="cls-4" d="M162.91,170.28v2"/></g></g><g id="xtick_23" data-name="xtick 23"><g id="line2d_23" data-name="line2d 23"><path id="md5f31c8b51-17" data-name="md5f31c8b51" class="cls-4" d="M169.89,170.28v2"/></g></g><g id="xtick_24" data-name="xtick 24"><g id="line2d_24" data-name="line2d 24"><path id="md5f31c8b51-18" data-name="md5f31c8b51" class="cls-4" d="M183.84,170.28v2"/></g></g><g id="xtick_25" data-name="xtick 25"><g id="line2d_25" data-name="line2d 25"><path id="md5f31c8b51-19" data-name="md5f31c8b51" class="cls-4" d="M190.81,170.28v2"/></g></g><g id="text_7" data-name="text 7"><path id="DejaVuSans-54" d="M61.27,189.3h5.55v.75H64.49v5.81H63.6v-5.81H61.27Z"/><path id="DejaVuSans-77" d="M65.69,190.94h.8l1,3.84,1-3.84h.95l1,3.84,1-3.84h.81L71,195.86h-1l-1.06-4-1.06,4H67Z"/><path id="DejaVuSans-6f" d="M75.42,191.51a1.25,1.25,0,0,0-1,.5,2.81,2.81,0,0,0,0,2.79,1.23,1.23,0,0,0,1,.5,1.22,1.22,0,0,0,1-.51,2.78,2.78,0,0,0,0-2.77A1.22,1.22,0,0,0,75.42,191.51Zm0-.69a2.08,2.08,0,0,1,1.66.69,3.29,3.29,0,0,1,0,3.79,2.34,2.34,0,0,1-3.32,0,3.29,3.29,0,0,1,0-3.79A2.09,2.09,0,0,1,75.42,190.82Z"/><path id="DejaVuSans-20" d="M78.17,195.86"/><path id="DejaVuSans-54-2" data-name="DejaVuSans-54" d="M81,189.3h5.55v.75H84.23v5.81h-.89v-5.81H81Z"/><path id="DejaVuSans-68" d="M91.47,192.89v3h-.81v-2.94a1.69,1.69,0,0,0-.27-1,1,1,0,0,0-.82-.35,1.32,1.32,0,0,0-1,.42,1.65,1.65,0,0,0-.38,1.14v2.78h-.81V189h.81v2.68a2.06,2.06,0,0,1,.69-.66,1.77,1.77,0,0,1,.9-.22,1.58,1.58,0,0,1,1.29.53A2.36,2.36,0,0,1,91.47,192.89Z"/><path id="DejaVuSans-65" d="M97.3,193.2v.39H93.58a1.87,1.87,0,0,0,.5,1.28,1.73,1.73,0,0,0,1.25.43,3.84,3.84,0,0,0,.91-.11,4.47,4.47,0,0,0,.87-.34v.76a4.7,4.7,0,0,1-.9.28,4.05,4.05,0,0,1-.92.1,2.52,2.52,0,0,1-1.87-.69,2.47,2.47,0,0,1-.69-1.85,2.7,2.7,0,0,1,.66-1.92,2.28,2.28,0,0,1,1.76-.71,2,2,0,0,1,1.57.64A2.54,2.54,0,0,1,97.3,193.2Zm-.81-.24a1.58,1.58,0,0,0-.37-1.06,1.28,1.28,0,0,0-1-.39,1.49,1.49,0,0,0-1.08.38A1.64,1.64,0,0,0,93.6,193Z"/><path id="DejaVuSans-74" d="M99.42,189.54v1.4h1.67v.63H99.42v2.67a1.18,1.18,0,0,0,.17.77.92.92,0,0,0,.67.17h.83v.68h-.83a1.83,1.83,0,0,1-1.29-.35,1.75,1.75,0,0,1-.36-1.27v-2.67H98v-.63h.59v-1.4Z"/><path id="DejaVuSans-61" d="M104.39,193.39a2.88,2.88,0,0,0-1.36.22.83.83,0,0,0-.38.77.88.88,0,0,0,.29.68,1.08,1.08,0,0,0,.77.25,1.34,1.34,0,0,0,1.08-.48,1.87,1.87,0,0,0,.4-1.26v-.18Zm1.61-.34v2.81h-.81v-.75a1.77,1.77,0,0,1-.69.67,2.19,2.19,0,0,1-1,.21,1.65,1.65,0,0,1-1.2-.43,1.66,1.66,0,0,1,.11-2.38,2.72,2.72,0,0,1,1.66-.43h1.13v-.08a1.06,1.06,0,0,0-.36-.86,1.61,1.61,0,0,0-1-.3,3.23,3.23,0,0,0-.82.1,3.32,3.32,0,0,0-.77.3v-.75a5.43,5.43,0,0,1,.86-.25,3.88,3.88,0,0,1,.82-.09,2.09,2.09,0,0,1,1.59.56A2.28,2.28,0,0,1,106,193.05Z"/><path id="DejaVuSans-20-2" data-name="DejaVuSans-20" d="M106.82,195.86"/><path id="DejaVuSans-28" d="M112.47,189a9.62,9.62,0,0,0-.88,2,7.23,7.23,0,0,0-.28,2,7,7,0,0,0,.29,2,8.86,8.86,0,0,0,.87,2h-.7a9.23,9.23,0,0,1-1-2,6.32,6.32,0,0,1-.33-2,6.23,6.23,0,0,1,.33-2,8.42,8.42,0,0,1,1-2Z"/><path id="DejaVuSans-64" d="M117.28,191.69V189h.81v6.84h-.81v-.74a1.72,1.72,0,0,1-.65.66,1.94,1.94,0,0,1-.93.21,1.76,1.76,0,0,1-1.45-.71,3.42,3.42,0,0,1,0-3.75,1.76,1.76,0,0,1,1.45-.71,1.94,1.94,0,0,1,.93.21A1.72,1.72,0,0,1,117.28,191.69Zm-2.76,1.71a2.29,2.29,0,0,0,.37,1.4,1.17,1.17,0,0,0,1,.51,1.19,1.19,0,0,0,1-.51,2.81,2.81,0,0,0,0-2.79,1.19,1.19,0,0,0-1-.51,1.17,1.17,0,0,0-1,.51A2.27,2.27,0,0,0,114.52,193.4Z"/><path id="DejaVuSans-65-2" data-name="DejaVuSans-65" d="M124,193.2v.39h-3.72a1.93,1.93,0,0,0,.51,1.28,1.71,1.71,0,0,0,1.25.43,3.82,3.82,0,0,0,.9-.11,4.24,4.24,0,0,0,.87-.34v.76a4.83,4.83,0,0,1-.89.28,4.08,4.08,0,0,1-.93.1,2.51,2.51,0,0,1-1.86-.69,2.47,2.47,0,0,1-.69-1.85,2.74,2.74,0,0,1,.65-1.92,2.29,2.29,0,0,1,1.76-.71,2,2,0,0,1,1.57.64A2.49,2.49,0,0,1,124,193.2Zm-.81-.24a1.54,1.54,0,0,0-.37-1.06,1.24,1.24,0,0,0-1-.39,1.49,1.49,0,0,0-1.08.38,1.6,1.6,0,0,0-.47,1.08Z"/><path id="DejaVuSans-67" d="M128.53,193.34a2.18,2.18,0,0,0-.37-1.36,1.19,1.19,0,0,0-1-.48,1.21,1.21,0,0,0-1,.48,2.75,2.75,0,0,0,0,2.72,1.21,1.21,0,0,0,1,.48,1.19,1.19,0,0,0,1-.48A2.16,2.16,0,0,0,128.53,193.34Zm.81,1.91a2.71,2.71,0,0,1-.56,1.87,2.19,2.19,0,0,1-1.71.61,5.23,5.23,0,0,1-.81-.06,3.76,3.76,0,0,1-.73-.2v-.78a3.1,3.1,0,0,0,.7.28,2.82,2.82,0,0,0,.71.09,1.55,1.55,0,0,0,1.19-.41,1.77,1.77,0,0,0,.4-1.25V195a1.7,1.7,0,0,1-.64.66,2,2,0,0,1-.94.21,1.79,1.79,0,0,1-1.46-.69,3.32,3.32,0,0,1,0-3.66,1.79,1.79,0,0,1,1.46-.69,1.89,1.89,0,0,1,.94.22,1.67,1.67,0,0,1,.64.65v-.75h.81Z"/><path id="DejaVuSans-72" d="M133.85,191.69a1,1,0,0,0-.29-.11,1.37,1.37,0,0,0-.36,0,1.28,1.28,0,0,0-1,.45,2,2,0,0,0-.37,1.28v2.59H131v-4.92h.81v.76a1.64,1.64,0,0,1,.67-.66,2,2,0,0,1,1-.22h.18l.23,0Z"/><path id="DejaVuSans-65-3" data-name="DejaVuSans-65" d="M138.71,193.2v.39H135a1.92,1.92,0,0,0,.5,1.28,1.74,1.74,0,0,0,1.26.43,3.82,3.82,0,0,0,.9-.11,4.47,4.47,0,0,0,.87-.34v.76a4.83,4.83,0,0,1-.89.28,4.2,4.2,0,0,1-.93.1,2.54,2.54,0,0,1-1.87-.69,2.51,2.51,0,0,1-.68-1.85,2.69,2.69,0,0,1,.65-1.92,2.28,2.28,0,0,1,1.76-.71,2,2,0,0,1,1.57.64A2.49,2.49,0,0,1,138.71,193.2Zm-.81-.24a1.58,1.58,0,0,0-.37-1.06,1.24,1.24,0,0,0-1-.39,1.49,1.49,0,0,0-1.08.38A1.55,1.55,0,0,0,135,193Z"/><path id="DejaVuSans-65-4" data-name="DejaVuSans-65" d="M144.25,193.2v.39h-3.72a1.87,1.87,0,0,0,.5,1.28,1.74,1.74,0,0,0,1.26.43,3.82,3.82,0,0,0,.9-.11,4.47,4.47,0,0,0,.87-.34v.76a4.7,4.7,0,0,1-.9.28,4.05,4.05,0,0,1-.92.1,2.52,2.52,0,0,1-1.87-.69,2.47,2.47,0,0,1-.69-1.85,2.7,2.7,0,0,1,.66-1.92,2.28,2.28,0,0,1,1.76-.71,2,2,0,0,1,1.57.64A2.54,2.54,0,0,1,144.25,193.2Zm-.81-.24a1.58,1.58,0,0,0-.37-1.06,1.27,1.27,0,0,0-1-.39,1.49,1.49,0,0,0-1.09.38,1.64,1.64,0,0,0-.47,1.08Z"/><path id="DejaVuSans-73" d="M148.71,191.08v.77a2.64,2.64,0,0,0-.71-.26,3.25,3.25,0,0,0-.77-.09,1.78,1.78,0,0,0-.9.18.61.61,0,0,0-.3.56.52.52,0,0,0,.22.44,2.53,2.53,0,0,0,.86.3l.28.06a2.74,2.74,0,0,1,1.22.52,1.24,1.24,0,0,1,.36.94,1.29,1.29,0,0,1-.54,1.09,2.44,2.44,0,0,1-1.49.4,4.74,4.74,0,0,1-.82-.08,7.14,7.14,0,0,1-.91-.23v-.83a5,5,0,0,0,.89.35,3.62,3.62,0,0,0,.86.11,1.67,1.67,0,0,0,.88-.19.63.63,0,0,0,.3-.56.61.61,0,0,0-.22-.5,2.68,2.68,0,0,0-1-.34l-.28-.07a2.13,2.13,0,0,1-1.09-.48,1.22,1.22,0,0,1-.33-.9,1.26,1.26,0,0,1,.49-1.07,2.26,2.26,0,0,1,1.4-.38,4.46,4.46,0,0,1,.84.07A3.89,3.89,0,0,1,148.71,191.08Z"/><path id="DejaVuSans-29" d="M150.14,189h.7a8.75,8.75,0,0,1,1,2,6.23,6.23,0,0,1,.33,2,6.32,6.32,0,0,1-.33,2,8.75,8.75,0,0,1-1,2h-.7a9.87,9.87,0,0,0,.87-2,7.34,7.34,0,0,0,.29-2,7.24,7.24,0,0,0-.29-2A10.11,10.11,0,0,0,150.14,189Z"/></g></g><g id="matplotlib.axis_2" data-name="matplotlib.axis 2"><g id="text_8" data-name="text 8"><path id="DejaVuSans-49" d="M7.48,107.44v-.88H14v.88Z"/><path id="DejaVuSans-6e" d="M11.07,100.73h3v.81H11.09a1.68,1.68,0,0,0-1,.27,1,1,0,0,0-.35.82,1.31,1.31,0,0,0,.42,1,1.6,1.6,0,0,0,1.14.38H14v.81H9.12V104h.76a1.94,1.94,0,0,1-.66-.68,1.8,1.8,0,0,1-.22-.91,1.56,1.56,0,0,1,.52-1.28A2.39,2.39,0,0,1,11.07,100.73Z"/><path id="DejaVuSans-74-2" data-name="DejaVuSans-74" d="M7.72,98.32h1.4V96.65h.63v1.67h2.67a1.26,1.26,0,0,0,.77-.16,1,1,0,0,0,.17-.68v-.83H14v.83a1.87,1.87,0,0,1-.35,1.3,1.8,1.8,0,0,1-1.27.35H9.75v.6H9.12v-.6H7.72Z"/><path id="DejaVuSans-65-5" data-name="DejaVuSans-65" d="M11.38,91.38h.39V95.1A1.87,1.87,0,0,0,13,94.6a1.74,1.74,0,0,0,.44-1.26,3.82,3.82,0,0,0-.11-.9,4,4,0,0,0-.35-.87h.77a5.73,5.73,0,0,1,.28.89,4.9,4.9,0,0,1,.1.93,2.38,2.38,0,0,1-2.54,2.55,2.69,2.69,0,0,1-1.92-.65A2.28,2.28,0,0,1,9,93.53,2,2,0,0,1,9.64,92,2.46,2.46,0,0,1,11.38,91.38Zm-.24.81a1.52,1.52,0,0,0-1.06.37,1.25,1.25,0,0,0-.4,1,1.49,1.49,0,0,0,.39,1.08,1.59,1.59,0,0,0,1.07.47Z"/><path id="DejaVuSans-6e-2" data-name="DejaVuSans-6e" d="M11.07,86h3v.81H11.09a1.68,1.68,0,0,0-1,.27,1,1,0,0,0-.35.82,1.31,1.31,0,0,0,.42,1,1.6,1.6,0,0,0,1.14.38H14v.81H9.12v-.81h.76a1.94,1.94,0,0,1-.66-.68A1.8,1.8,0,0,1,9,87.68a1.56,1.56,0,0,1,.52-1.28A2.39,2.39,0,0,1,11.07,86Z"/><path id="DejaVuSans-73-2" data-name="DejaVuSans-73" d="M9.26,81.21H10a3,3,0,0,0-.35,1.48,1.78,1.78,0,0,0,.18.9.61.61,0,0,0,.55.3.51.51,0,0,0,.44-.21,2.56,2.56,0,0,0,.31-.87l.06-.28a2.63,2.63,0,0,1,.52-1.22,1.24,1.24,0,0,1,.94-.36,1.29,1.29,0,0,1,1.09.54,2.51,2.51,0,0,1,.4,1.49,4.85,4.85,0,0,1-.08.83,7.46,7.46,0,0,1-.23.9H13a3.75,3.75,0,0,0,.35-.88,3.26,3.26,0,0,0,.12-.87,1.6,1.6,0,0,0-.2-.87.61.61,0,0,0-.55-.31.58.58,0,0,0-.5.22,2.68,2.68,0,0,0-.34,1l-.07.29a2.09,2.09,0,0,1-.48,1.08,1.22,1.22,0,0,1-.9.33,1.26,1.26,0,0,1-1.07-.49A2.2,2.2,0,0,1,9,82.78a5.73,5.73,0,0,1,.06-.84A3.89,3.89,0,0,1,9.26,81.21Z"/><path id="DejaVuSans-69" d="M9.12,79.66v-.81H14v.81Zm-1.92,0v-.81h1v.81Z"/><path id="DejaVuSans-74-3" data-name="DejaVuSans-74" d="M7.72,76.36h1.4V74.7h.63v1.66h2.67a1.2,1.2,0,0,0,.77-.16,1,1,0,0,0,.17-.68V74.7H14v.82a1.87,1.87,0,0,1-.35,1.3,1.8,1.8,0,0,1-1.27.35H9.75v.6H9.12v-.6H7.72Z"/><path id="DejaVuSans-79" d="M14.5,71.58a2.92,2.92,0,0,1,1.14.67,1.33,1.33,0,0,1,.27.87v.65h-.68v-.48a.78.78,0,0,0-.15-.51,2,2,0,0,0-.75-.41L14,72.22l-4.84,2v-.86L13,71.82,9.12,70.28v-.86Z"/></g></g><g id="line2d_39" data-name="line2d 39"><g class="cls-5"><path class="cls-6" d="M23.43,102.82l.08,2.14.07-.88.07-1.19.07,2.69.08-1,.07-.08.07,1.81.08-.56.22,1,.07,4.61.07-6.4.08,4,.07-.91.07-.69.15,2.37.07-.15.08-.67.07.46.07-.79.15,3.11.07-1.58.08.06.07-.22.15,1.06.07,2.76.07-2.3.08.16.07.91.07-2.74L26,113.2l.07-1.66.15-.22.07,2.34.07-1.19.08,1.13.07-2,.07,1.08.08-1.3.07,1.35.07-.49.08-.72.22,3.86.07-.57.22-3.6.22,3.18.07.1.07-.64.08.47.07,2.19.07-2.08.08.15.07-.31.07.42.08-.42.14.78.08-.84.14,2,.22-1.06.08.11.07-.66.15,1.26.22-1.76.29,3.84.22-2.3L30,115l.08.37.07,1.06.07-1.12.08.15.14,1,.15-.83.07,2.62.08-2.51.07.15.07.44.08-1.35.07,1.5.07-.17.07-1.39.08,2.25.07-.79.07-.2.08,2.14.07-.44.22-2.94.07-.15.08,1.67.07-1.26.15,1.31.07-2.48.07,1.6.08-.29.07-.11.07.11.15.93.07-.62.22,2.8.08-.53.07-1.94.07.39.08.51.07-2.2.07,1.56.08-.71.07-.75.22,2.87.15-3.26.07.66.22,1.68.15-2.21.07,2.12.07-1h.08l.07.49.14-.93.08,1.76.07-.79.07-.14.08.18.14,1.95.08-2.76.07,1.74.07-.71.08-1.26.07,2.72.07-.29.08.56.07-3,.15,4,.14-1.86.08.51.07,0,.07.09.08-1.48.07,1.45.22-3,.07,1.76.08-1.52.14,3.67.08,1,.07-.22.07-.77.08.48.07-1,.07.09.08,1L37.5,117l.07,1.48.08-3.29.14,3.13.08-.31.07-.81.07,1.32.08-2.58.07,1.77.07-1.61.08,1.38.36-16.73.15,18.68.07-1.46.07,2.9.08-1,.07-1.08.07,1.46.08-1.37.07.51.07,0,.22-1.23.08,1.32L40,115l.07-2.24.08.93.07-.48.29,9.16.08-.71.14.56.15-1.75.29,1.61.08-.9.07,1.26.15-2.26.14,2.21.08-.17.07-.44.07.52.08-1.43.21,3,.08-.46.07.68.07-1.69.08.59.14.77.08-.33.14,1.57.15-1.83.07.24.08,2.89.07-1.25.22-1.13.07,2.16.08-.93.07.25.07-.44.15,3.15.22-2.34.07,2.17.08-.36.07.14.07-.71.08.16.14,3.33.08-1.94.07,1.87.07-1.92.08.33.07-1.12.07,1.56.08-1.05.07.86.07-1.2.08.69.07,2.76.07-2.8.08,3.26.07-2.16.07,1,.08-.53.14,1.7.07-.33.15-1.81.07-.06.08.77.07-1.15.29,3.36.15-2.23.15,2.16L47,130l.07,1.52.37-6.1.07,2.72.08-.84.07.4.07-.07.08-.09L48,89.77l.07,10.51.22,31.07.07.6.08,2.39.14-2.12.22.95.37-16.68.22-43.8.22,61,.07,2.24.07-2.23.08,1,.14-1.15.08-1.39.14,3.65.22,1.94.08-.31.07-2.19.07,2.39.08-.16.07-.57.07,1.22.15-1.75.07,2,.22-3.22.08,2.89.07-.68.07-.25.08,2,.14-1.94.15,1.33.07-1.69L52,137l.22,2.33.07-1.09.07,1.09.08-.47.07-.15.07-.95.08.28.14-.09.22,1.27.08-.25.07-1.81.07,1.85.07-.86.08,1.09.07-.36.07-.62.08.22.07,1.86.07-2.07.08.59.07-.07.22-1.05.07-1,.15,2.65.07-1.61.08,2.1.07-.78.07-2,.08,2.18.07-.68.07-.71.15,1.74.07-1.12.08,1.28.14-1.5.15,1.28.15-.44.14.73.08.41.07-1.69L56,139l.15-.55.07,1.22.15-2.59.15.87.07-.2.15-4.93.29,7.36.07-3.71.07,3.46.08-1.46.07-.22.07-.73.15,1,.15-.89.36-6.52.08.6.22,6.23.07,1.39.22-1.63.15.62.07-.23.07,1.79.08-.4.07-1.65.07.57.08.47.14-1.15.08.68.07-.59.15,1.12.36-6.12.22.8.15-5,.14-7.5.22,8.52.22-6.73.3,14,.07-1,.07,1.75.08,0,.14-1.87.08.9.22-1.45.07.28.22-3,.07.93.22-6.51.22,8.94.08.66.14-1.78.22,1.41.08,0,.07-2.08.07,1,.15-2.69.15-8,.07.24.15-3.41.22,9.79.07,1.55.22-5.92.22-18.2.07,2.67.22,19.63.15,4.11.14-2.38.08,1.12.07-.46.07.75.08-1.17.07,1,.07,0,.08.22.07-2.08.07,1.2.3-6.89.22-21.1.14-42.41.08,37.47.07-.74.15,21.38.14-4.1.37,12.89.15,1.62.07,0,.07.3.08-.37.07.57.22-4.33.07.09.07.62.22,4.37.08-.81.14,1.41.08-2.38.07,1.52.07-.55.15.57.15-1.35.07,1,.22-1.75.07.64.08-.38.07,2.24.37-6.47.07-5,.15,6.77.07-.88.15,6.41.07-2.76.07-1.07.15,1.93.22-2L71,130l.08.09.07.44.07-1.79.08,1.68.07-1.92.07,2.09.08-.92.07.73.07-1,.07,1.32.08-1,.07,2.33.15-2.92.07.91.15-3.32.07,3,.22-4.48.29,4.79.08-.94.07.68.22-6,.07.35.15,2.88.07.33.22,2.61.08-2.11.14,3.43.08-2.67.07,0,.07-.6.08,1.53.07-.2.07-.2.08-1,.07.66.15-8.5.14,2.09.15-9.32.15-12.34.07,3.27.29,26.34.07.36.08-.27.07,1.5.07-1.49.15,1.63.07,0,.08-.73.07,2.76.07-2.16.08,2,.14-2.8.08,1.1.07-.7.15-4.36.07.84.07.64.3-21.09.14,12.19.08-.55.36,13.94.3-12.46.07,7.76.07-.87.15,7.84.07-.86.22,2.3.08-1.46.14,2.3.22-2.79.07.51.15-1.7.07.66.22,2.81.08-.4.07,2.5.07-2.5.08,1,.07.06.22-2.6.22-11.78.07.73L80.65,136l.15,3.53.07-1.63.08,1,.07-2.16.07.53.08-.09.07,1.19.07-.53.08.49.22-5.36.44,7.9h.07l.15-.57.07.68.07-.37.15.68.07-2.29.07.75.08-.8.07.26L83,141l.07-1.09.07,2.68.15-2,.07,1.22.08-.47.07-1.5.07,1.1.08-.66.07,1,.15-3.73.44,3.62.07-2.21.07.71.08-.6.07-3.47.07.84.08.09.22,3.05.14-.09.08-.6.07.62.37-5.63.07-2.36.22,7.44.22,2.85.07-.13.07,0,.22-2.36.08-1.11.07-4.9.07.7.08,3.27.07-1.1.07-.75.15,3.93.07-1.75.15,3.89.22,1.09.15-.95.14-.56.08.09.07-1.19.07,1.15.15-8.6.07-8.63.08,2.3.22,9.78.22,6.72.07,0,.15-3,.07.4.15,1.74.07-.5.29,1.59.15-2.23.07,2.07.08-1,.07-1.37.07,1.84L90.1,141l.08.13.14-.24.08,1.77.07-.34.07-.77.08-2.08.07.14.15.48.07-.17.07.66.08,1.86.07-.54.07-.13.08-.51.07-1.47.07.42.15,1.43.07-1.61.08.37.07,1.95.07-.55.15-2.7.07.15.15.8.22,3h.07l.08-1.74.07.64.07,0,.08-1.39L93,142.8l.08-.64.14,1.1.08-1.21.07.31.15,1.65.21-1.55.08.51.07-1.06.15,1.2.07-.22.29-3.67.08-5.72.07-17.19.07,5.83.08,8,.07-4.15.15,5,.22-30.84.07-37.5.07,3,.08,47.48L95.38,101l.07,3.45.15,32.66.15,1.81.14.82.08,0,.07-3.49.15,4.34.07-1.46.29,4.46.15-1.81.07-2,.08,1.1.07-1.94.07.15.08.77.07-.08.07-.67.07-3.07.08.71.22,3.93L97.87,122l.07-12.81L98,110.7l.14,19.13.08-1.39.14,13.14.22-4.66.3,4.57.07-.59.07,1.56.22-1.92.08,3.1.07-.27.15-3.36.07,1.35.07,1.55.08-2.45.07.64.07,1.08.08-2.65.22,4.73.29-4.91.07.73.08-2.05.07.7.22,5.63.07-1.76.07.28.08-.28.07-4.55.07.92.52-18.66.07,1.22.44,14.77.07.29.08-2.41.22-32.35.14-10.52.3,40,.14,11.82.08-.48.14.75.08-.82.07,1,.37-6.89.07,1.1.07-.51.08-1.3.29,3.74.07.95.07-1.22.08.69.07-.53.15-4,.07,1.48.15-7,.07,1.92.15-.55.14,3.62.22,1.44.15-2,.07-.64.22-6,.08,3.91.07-1.28.07,1.48.08-1.53.14,4.51.08-.07.14-2.82.15-9.94.07-8.91.08,2.48.14,9.23.08-.31.14,6.94.15-9.32.07,2,.15,7.4.07-1.77.22,9.35.08.28.07.93.07-1.77.07,1.93.15-2.88.15,1,.07-.33.07-2.32.08.11.22,3.73.14-2,.08,1.48.07-.77.07.48.15-3.16.15-3.24.07.81.15,6.23.07-.75.22,5.54.07-1.39.08.86.07-.63.29-6,.08-1,.14,6.32.08-2.39.29,6,.07-.38.3-6.62.14,6.05.07-.16.08-1.56.14,4.13.08-.76.07,1.29.07-.42.08-.64.07.09.07-.09.15-1,.15,1.13.07-.38.07,1.11.08-1.51.07,1.2.07-.29h.08l.07-.49.07.18.08-2.23.07,1,.15,1.3.07-1,.07,1.48.08,0,.07-.65.07,1.37.08-.55.07-1.24.07.73.08-1.32.07.57.15,1.2.22-5.84.07,1.44.15-3,.14,6,.08-2,.14,2.32.08-.17.14-3,.07,2.45.08-1.06.36-13.06.22,8.55.08-1,.22,7.18.07.2.07-.16.08,1.75.07-1.13.07.29.08.44.07-1.21.07,1.83.08-.77.07-1.2.22,2.15.07-.54.15.95.07,0,.22-4.88.08.68.07,2.72.07-.55.15-.93.07-2.43.22-23.66.22,18,.08-2.54.21,12.9.08,1.26.07-.49.15.4.22-1.95.14.82.08-1.21.22-5.11.07-.39.07-1,.15,4.71.07-.2.08.44.14,4.5.08-.74.07-1.22.07.26.08.91.22-6.74.07,2.46.15,2.36.07-1.22.22,3.76.22,1.35.07.59.08-.62.07.78.22-2,.07,1.08.08-.51.07.42.07-.71.07,1.55.08-.53.07-.13.15,1.43.14-.82.15,1,.07.06.08-1.39.07,2L124,153l.08-2,.07,1.35.07-1.88.15,2.52.07-1.82.15,1.82.37-12.86.14,9.59.08-.88.07-3.27.15,7.08.07-.81.15,2,.07-1,.15,1.28.07-.61.07.11.08.57.07-1.57.15,2.35.14-1.53.08.29.07,1.76.15-1.81.07.45.29-10.58.07,1.81.08,2,.07-.37.15-2.56.22,7.9.07.22.15,1.53.07.42.07-.82.08.66.07-.53.07-2.27.08,1.1.14,0,.08-.31.07.51.15-3.43.22,4L129,152l.29,2.67.08-.51.07-1.42.15,1.75.07-.26.07.84.15-1.95.15,2.43.07-1.17.22-1.75.14,2.54.08-.88.07.16.07.44.15-1.73.07,1,.08-1.68.07,1.1.07-1.1.15,1.75h.07l.08-.35.07,1.33.07-.82.08.38.07-.07.15.38L132,154l.15,1.3.15-1.1.07-.07.07.56.44-4,.15,2.59.07,0,.08-.16.07-.73.22,1.59.07-.66.15,1.33.07-1.64.08.86.07-.49.07.49.08-.55.29-4.59.07-.07.07,1.57.08-2.5.07.46.22,4.29.07-1.1.15,1.85.29-5.3.08.16.07,3.51.07-1.7.08-.76.22,3.41.22-1.09.14.73.08,1.93.14-2,.08-.5.07-2.83.07.73.08-.33.14,1.79.08-.69.07.79.07-.42.15,2.59.07-.49.08-1.19.07,2.38.07-1.25.08,1.06.07-1.17.07.11.07.11L138,151l.07-.14.22-11.79.08,2.8.07,3,.07-1.4.08-3,.22,6.86.07-1.56.07-1,.3,3.84.14-1,.08,1.47.07-.33.15-3.69.22,5.06.07-.55.07-.35.22,5.43.08-.81.07.1.15.64.14-1.69.08,1.17.07-.09.07-.4.08.15.07.89.15-1.61.07,1.74.07-.51.15-1.24.07.22.07,1,.15-.82.15.73.14-1.42.08.47.14,1.75.22-1.91.15,1.6.07.33.08,1.25.07-1.78.07.26.15-.86.07.88.08-.93.07.73.07-1.19.08.69.07,0,.15-2.5.22,3.13.07-.22.07-.83.15,2.29.07-2.38.08,1.25.07-.06.15-1.75.07.4.07-.55.08.86.07-.79.07.42.08-.18.07-.15.07,2.12.15-2,.07,1,.07-.48.08.22.07-.14.15,1.4.07-.51.07.73.08-2.45.07,2,.07-1.54.15,2.56.22-2.17.22,3.2.07-1.67.08.59.07.36.15-1.09.14-.57.08.9.07-1,.15.93.22-1.48.07.13.22-1.32.07.84.08-1.61.22,3.09.07-.78.07,1.57.08-.84.36,3.23.07-.16.08-.84.07.73.22-1.78.15,1.41.07-.2.07-1.32.08,1.05.07-.19.07-1,.08,2,.07-.73.15.77h.07l.07-2.36.08,1.1.07.35.07,1.66.15-1.54.29.81.08-1.57.14,1.68.08-.61.07,1,.07-.34.08-.41.22-4.49.22,3.4.07-.61.07-2.24.22,4.35.08-.26.07,1,.07-.4.15-1.1.14-4.17.3,4.06.14-1.59.15,2.92.07-1,.08.4.07,0,.15.57.22-1.06.07,1.17.15-1.87.14,1.74.08-.9.07.3.07-.46.22,1.57.08-.95.07.44.07-.38.08.78.07-1.66.07,1.28.08-1.5.07.82.15-2.28.14-.33.15,2.12.22-2.91.22,3.15.07-3.29.07,0,.3,3.07.22-3.73.07.57.07,2.74.08-.75.07.68.15-.48.07.13.07-.18.08-.53.14-1.77.22,3.58.15-1.45.44,3.7.07-1.61.08,1.57.07-.71.07-.48.08,1.44.07-.53.07,0,.08-1.31.14,1.66.37-3.53.07.07L160,158l.44-2.39.07.59.08-.52.07,2.73.07,0,.15-1.92.15.16.22,2.34.07-1.13.07,1.43.08,0,.07-1.15.07,1.2.15-2.63.07,2.16.08-.91.07,1,.07-.9.08.32.07-.13.07.62.08-.81.07,1.32.22-2.58.07.11.15-1.09.07.12.22,1.87.08-.49.43,2.88.08-.69.07.64.29-3,.08,0,.14,2.82.08-.75.07.18.07-.66.08,1,.07-.31.15.78.07.86.07-.95.08.19.14.62.08-.84.07.89.15-1,.07.2.07-.06.08-.51.07.33.15-1.24.07,1.64.07-.54.08.29.07-.6.15.87.07-.2.07,0,.08.27.14-.62.08.55.14-1.08.08,1.28.14-1.22.15.89.14-.13.08-.07.14.68.08-.22.14,1.26.08-2.27.07.13.29,1.68.08-.71.07.71.07-.29.08-.46.07.29.15-.31.07.86.07-1.28.08.44.07.42.07-.09.08-1.21.07,1.08.07-.49.15-.37.22-1.75.07,0,.15.7.07-.06.15-4.71.07-7.93.22,11,.08.11.14-2.91.08,1.08.07,3.53.07-.13.15,2.07.07-.22.07-.77.15.51.15.4.14-.45h.08l.07.67.15-1.41.07.19.15.78.29-1.22.15.8.07-.33.22,1.32.07-.4.08-.31.07,1.55.07-.79.08-.74.07.58.07-1,.08,1.78.07-.77.07,0,.15-.27.07.14.08-.09.07.86.22-1.83.07,1.1.08-.48.21-.16.15.46.15-1.34.07.82.07-.56.08.13.07,1.09.07-1.64.08.47.07-.58.07,1.79.08-.68.07.28.15-1.63.14.44.08,1.1.14-1,.08,1.08.14-1.08.08.57.07-.13.07.13.22-1.14.15,1.28.07-.29.08.49.14-1.22.08-.27.07.43h.07l.08-.1.07-.31.07.44.15-1.17H178l.08-1.33.07,1.79.07-2.07.08.57.07.26.07-.2.15-2.14.07.51.07.13.08-.17.07.95.22-1.42.07.11.08-1.46.14,1.49.08-.23.36-4.12.08.22.14,2.32.15-1.38.07.58.08-.11.07.09.07,1.72.15-1.63.07.83.08-.75.14,3.19.08-.74.07.54.07-2.12.08.86.14.66.08-.66.07.3.22,1.6.15-2.19L182,156l.07-.88.08.2.07,1.37.15-1.66.14.53.15.46.07-.79.08,1.41.07-.09.07-1.21.08.29.07.86.07-.73.08.15.14,1.33.08-1.37.07,2,.07-.7.15-1.08.29,2.05.22-1.57.15,2.3.07-.49.08.44.07-.13.07-.61.08,1.12.14-.88.15,1.63.07-.88.15,1.59.15-.82.07-.07.07-.28.15,1.15.07-.87.22.87.07.09.08-1.24.07,1,.07-.51.08.76.07-.25.07.36.08-.95.07.77.07-.31.08.33.07-.26.07.53.08-.47.07,1.15.07-.9.15,1,.15-.78.07-.73.07.43.15-1.55.07.88.08-1.35.22,2.19.14-1.26.08,1.26.07-.93.07,2,.08-.53.07.44.07-.79.15,1.12.07-.18L189,161l.14,1.41.08-.66.07,1.15.14-1,.08,1,.07-.42.07-1,.08.62.07-1.53.07.09.08-.17.07-.54.22,1.11.07,1.11.15-1.66.07,1.21.08-.13.07-1.11.07,1.06h0"/></g></g><g id="line2d_36" data-name="line2d 36"><g class="cls-5"><path class="cls-7" d="M23.43,92.33l.08.27.07,3.4.07-1.7.07-.43.15,2.35.07-4.07.22,6.23.08-2,.07,1.77.07-2.34.08,2.34.07-.51.29,3.51.08-.17.14-2,.08-.19.14,3.62.08-1.95.07.31.07,2.54.08-3.2.07,2.17.07-1.08.22.63.08.25.07,1,.07-1.19.08,1.34.07-.59.07-1.32.08,2,.07-.67.07-1.72.08,2,.07-.8.15,2.28L27,103l.08,2.58.14-1.9.08-.15.07,2.65.07-1.29.15-1.21.07,1.1.07-1,.08,1.24.07-.95.29,2.51.08-.86.14,1.33.08-.78.07.93.07-1.48.08.6.14-.18.08,2.27.07-1.81.07.09.08-.86.07.56.07,3.11.08-2,.07.5.07-.7.08.15.07,0,.22,1L30,106.8l.08,1.39.14-2.74.22,1.24.08-1,.22,4.64.07-2.92.07,0,.08.83.07-1.34.14,2.16.08.16.07-.27.07-1.55.08.49.07-.15.15,1.34.14-1,.08,0,.07-.33L32,109.6l.22-2.54.15,1.61.07-.53.15,2.9.22-2.9.07,3,.15-2.87L33.1,111l.08-1.39.07.9.07-.18.22-1.59.08,3.2.14-3.86.22,3.09.08-.09.07-.88.07,2.67.08-.62.14-2.89.08,3.8.07-1.15.07-2.49.22,2.62.07-1.48.15,1.7.07-3.09.08,3,.07-.33.15-1.92.07,2.67.15-1.83.14.84.08-1.31.07.27.07,1.63.08-3.11.07,2.5.07-1.31.15,1.79.07-.51.22,2.1.08-2.63.07.42.15,2,.07-2,.07.24.08.42.07-.22.07-.13.08.37.07,1,.07-.26.08-2.41.22,3,.07-.09.07.25.37-2.23.22-7.6.07-1.06.22,9.76L39,114.3l.08-1.47.22,1.87.07-.2.07-1.21.08.95.07-.71.07.77.08-1.63.07.66.07.75.22-5,.08,2.4.07-1.67.22,5.27.07-.28.08-.09.22,2,.14-2.54.08,2.39.07,0,.07.23.08-.58.07,1.5.07-.64.08-.42.07.69.15-1.29.07,3.36.07-.17.22-2,.15,2.58.07-1,.07-2.65.08,2.34.07-.06.07-.4.08,3,.07-2.56.07,1,.08.17.07,1,.07-1.83.08,2,.07-.45.07.09.08,1.22.07-1.31.07.64.15,1.44.15-2.19.14,2.66.08-1.16.07.45.07-.33.08.44.07,1.79.15-2.85.14,1.37.08-2.41.07,1.79.22-2.65.07.2.15,3.46.22,3,.07-1.46.08.07.07.47.07,2.14.15-2.39.22,1.37.07.27.07,1.15.08-1.84.07,1.7.07-2.36.08.53.14,1.3.15-2.16.07,1.57.15-1.7.22-5.7.15,3.57h.07l.07.22.08,2.63.07-1.13.07,1.77.08-.4.36-5.75.08,4.67.07-1,.22,4.37.15-2.25.14,1.94.3-12.45.29-47.27.22,60.43.07-.42.07,1.28.15-1.72.07-2.21.08.16.07-.73.07,1.12.22,7,.22-2.09.15,2.58.07-1.94.08.08.07.6.07-.24.08-1.08.14,1,.08-1.35.07.55.07.07.08.55.07-.6.51-17.11.37,15.59.07-.06.08,2.36.07-.58.07.2.15,1.95L53,131.4l.08,1,.14-1.33.07,2.76.08-.84.07.64.07-.9.08,1.17.07-2.19.07,1,.08,0,.07-1.36.15,1.65.07-.2.07-1.1.08.53.07-.58.07,1.82.08,0,.07-1.32.07,3.11.08-1.33.07-2.93.07.7.08-.33.07-2.25.07.55.15,2.3.07.07.08,1.69.14-1.36L55.6,134l.14-1.45.08,0,.07,2,.07-.42.08-1.32.14,2.21.08-1.82.07.23.22-1.22.07.79.08-2,.07.4.07,2,.07-1.08.08,1.9.07-.18.22,2.1.07-2.74.08.17.14-.64.08,0,.07.59.15-3.44.36,2.6.08-.39.14,1.65.22-.92.08.64.14-.75L59,134.2l.07-.63.07,1,.08-1.77.07.48.07.14.08-1.06.07,1.52.07-1.7.15,2.3.15-2.92.07.47.07-.18.08-1.31.07.58.07,1.76.08-.79.07.33.14-7.77.08.33.14,4.83.08-.95.07-.5.15-3.47.07,4.73.07-.56.08,2.52.07-1.52.07,2.54.08-2.69.07,3,.07-1.75.08,1.07.14-3.14.15.86.37-5.59.07.49.07-3.71.22,4.59.08.86.07-.61.15,3,.07-.88.15,1.61.07-2.12.07.05.08-.73.22-6.87.14-1.19.3,8.08.07-1,.14,1.33.37-11.89.15,3.1.07.7.15-5.34.14-12,.08.24.29,23.46.07,1.26.08-.11.07,0,.07,1.59.08-1.68.07.34.07-.85.37-13.73.07-11.82.08,11.57.07-3,.07,4.86.08-1.59L67,93.3l.22-34.61.07.58.29,60.14.22,6.43.15-3.38.07-.09.37,4.81.07-2.07.07.08.08.44.07-.26.07.35.22-2.84.15,1.9.22,2.44.29-6.53.08.33.07.86.07-.44L70,122l.14,3.85.08-1.33.07,1.84.07-2.44.08,2.13.07-1,.07,1.59.08-1.4.07,1.9.15-1.65.07,0,.07-3.25.08,1.55.07.16.07-2.77.08,1.22.14,2.25.08-.4.07.34.14-.73.15,1.37.07-.49L72,126l.07-1.55.07.62.08.9.14-4.74.08.61.14.14.08,2.45.07-.67.07,0,.08,1.31.07-.34.22-3.81.07,1.5.15-3.16.07,4,.08-.72.07-1.46.07,2.2.08-2,.14,2.69.08-1.73.07,0,.07-.64.08.92.07-1.54.15,2.74.07-1,.07,1.75.08-2.39.07,2.65.07-3.14.08,2.37.07-1.13.07.07.08-2.94.07-11.09.07,5,.37,13.76.07-.37.15-1.11.07,1.88L76,126.5l.08,3.55.07-1.46.07-.39.08-1.64.14,2,.08-.22.14-2.85.08,2.1.36-9.57.08,2.24.14,3.46.08-2.63.14,7.18.08-2.69.07,3.71.07-.42.15-4.11.22-33.83.07,26.34.08-8.35.14,20.61.15,2.76.15-.7.07,1.34.07-1.54.07,1.63.08-.37.07-1.42.07,1.84.22-2.92.15,3.29.15-.46.07-1.08.15,3,.07-.42.22-2.24.29-13.38.08.35L81,134.8l.07-.68.07,1.68.08-1.2.07,1.84.07-.2.08-1.35.07.88.22-1.67.22,1.8.07-2.38.08,3.6.07-1,.15.37.07,1.06.07-.55.08-.27.07.73.07-.83.07.88.15-1,.07-.13.08.47.07-1,.15,1.3.14-2.25.08,2.14.07-.93.07-.46.08,2.06.07-.74.07-3.22.08,2.37.07-.21.07.54.22-3.18.15,1.21.07-.46.15,1.7.44-8.51.29-14.88.08,2.16.22,13.41.14.53.22,7.49.15,3.73.07-1.2.15,1.95.22-3.89.07,2.06.07-.67.08-.9.14,1.79.08-1.11.07,2,.07-2.27.08.95.07.18.07-.67.08,2.34.07-.55.07-2,.08,1.28.14-1.1.08-.2.07.18.07,1.12.08-.33.07-2.17.22,2.7.15-1.72.22,2.45.07-.29.07-1.5.08.79.07-.32.07-1.15.22,3.35.22-4.21.08,1.61.07-3.45.07.07.08,1.3.07-.48.29,2.93.07-2.1.08,1.5.36-7.72.15,1.52.15,2.78.22-2.21.07.53.07,1.55.08-1.06.07,2.12.07-1.21.08.72.07-.77.07,1.59.08-.09L92,136l.07-.6.22,3.16.08-2.1.07,3.28.07-1.53.22,2.16.08-2,.07,2L93,140l.08.31.07-1.7.07.35.15,1.81.07-.62.15-.9.14,1.23.08-1.72.07,1.66.07-2.65.08,1.1.14.6.08-.36.14-1.19.08-4.51.07.25.07,1.34.15-2,.07,1.5.22-9,.22-5.1.44,14.33.08,0,.22,3.86.07-1.15.07.09.15-2.6.15-6.17.22-9.29.22,6.36.22,4.42.07-.09.07,2.76.15-5.79.22,3.11.22-9.31.07,1,.07-23.66.15,23.59.07-2,.22,15.59.08-3.6.07-1.12.15-8.51L99,81.37,99,87.52l.37,42.24.15,3.56.22,4.17.14,1.22.08-.11.07,2.05.07-.11.08.27.07-1.22.07.6.08-.86.07.4.15-1.26.07-3.51.15,3.9.07-.55.14,2.46.08-.65.29-5.19.07,1.75.22-4.07.08.23.14,1.61.08-2.61.22,3.95.14,1.55.3-6.76.07-8.35.22,8.22.37,9.3.14,1.37.08-1.53.07,1,.15-1.3L104,134l.37-15.41.15,8.19.36,9.59.15.81.14-4,.08,1,.07-3.05.07,1.08.08-2.16.07.53.07-1.15.08-3.23.07.53.22-2.78.07-.13.3,1.13.07,2.86.07-.08.08.55.22-2.8.29-14.16.37,12.9.07.61.07,4.78.08-.23.07-1.94.07.47.15,3.07L108,130l.22,4.44.15,1.94.07-1.12.07,1.14.08-2.36.07.09.07.68.15-.62.07.85.08-1.18.07,1.75.15-2.36.14,2.42.08-.5.14-2.76.08,1.59.07-3.41.07,1.38.08,1.76.14-4.24.15,5.12h.07l.08.86.22-1.9.22,2.65.22-1.75.14,3.8.08-.79.22,3.44.14.55.08,1.24.22-3.13.21,1.76.08,0,.07,1.6.07-.34.15,1.39.07-1,.08.6.07-1.35.07.82.08-1.48.22,2.59.14-1.27.08,1,.07-1.37.07.69.08.59.29-2,.15,1.38.14-1.49.15.2.07-1.34.08,1.12.07-3.05.07,1.75.3-6.32.14,2.65L115,136l.07.47.29,5.25.08-.5.07,1.69.07-.31.08.54.36-3.83.07.95.08-.28.07.62.07-.45.22,4.14.08-.25.07-2,.07.63.15,1.38.15-1.3.07,1.4.07-.52.08,1.18.14-4.73.08,1.79.22-3.51.44,6.76.22,2.29.07-1,.07.05.08,1.48.29-4.51.07.26.08.67.14-2,.08.38.21-5.83.66,9.5.37-3.07.15,2.32.07-1,.07,1.48.08-.31L121,145l.07,1.85.08-1.67.07.17.07-.18.08.71.07-1.79.07.22.08-.08.22,4.17.07-1.66.07,1.75.08-.69.07.38.07-.56.22,2.46.08-.47.29-4.32.07.55.08-.8.14,2.14.07-.46.22,2.87.08,2.08.07-2,.07.09.08,1.81.14-2.14.08-.24.07,1.17.22-3,.22,2.63.07-1.13.08,1.15.07-.34L125,139.4l.22,5.5.07-1.06.3,6.25.14-.43h.08l.07.14.22,1.39.15-2.27.22,2.07.14-2.25.15,1,.22-6.58.14-6.57.15,6.78.15,0,.14,4.38.22,2.87.3-2.26.07.66.15-2.22.07.17.15,1.26.14-.84.22,3.11.08-1.17.07.2.15,2.83.07-.11.07-1.86.08.78.07,1.1.07-.53.22-1.87.08,1.69.07-1,.07,2.07.08-1.26.07,1.15.07-.22.08-1.34.07.68.07-.82.15,2.39.07-2.21.07,1.08.08-.27.14.43.22-1.86.08.11.07.88.15-4.19.07-.66.07-3.43.08.58.07.35.07,2.41.08-.49.07-1.21.22,4.28.22,2.1.07-.53.08.68.07-.11.07.31.22-3.73.08.31.07.62.29-4,.3,3.27.07-.9.22,2.74.07.26.15-1.32.07.15.07-.16.08-1.7.07,1.71h.07l.08-1.45.07.33.22,1.9.07-.15.08-1.22.07.88.15-2.52.14-2.87.3,2h.07l.07-.7.08,1.74.07-2,.07.26.08,1.37.22-2.6.07.41.15,1.42.14,2.83.15-1.46.07,2,.08-.2.07.68.07-1.06.22,2.92.08-2,.07,1.48.07-.55.08-1.09.07.4.07-.33.07.29.08-.62.07.06.07.22.15-2.89.07.73.08-.42.14-3.78.08,0,.07-.42.07.37.08-.35.07-3.78.07,0,.15,6.45.07.72.08-.31.07-.53.15,3.83.14-.45.15.18.07.36.08,0,.07-.26.22,1.14.07.1.22-2.63.08,1.61.07-1.11.22,1.62.07.57.08-.68.07,2,.07-.93.08,1.06.07-.92.07.57.07-.77.08.17.07-.08.07-.62.08,1.68.14-1.86.15,1.19.07-.39.08.13.07-.29.15,1.13.07-.36.07-.94.08.26.07,1,.15-.95.07.81.07-.51.08,0,.14.86.08.82.29-3.56.07,1.5.15-2,.07,2.07L144,150l.07-.91.22,2.14.07-.26.08.09.29-3.34.07-.11.08.71.07-1.17.22,3.58.07.28.07-.29.22,2.79.15-3,.07,1.17.08,1.94.07-.48.07-1.5.15,2,.07-1.47.08.22.07-.71.07.71.08-.34.07-.42.07.12.08.2.07,2.38.07-1.39.08,1,.07-1,.07,2.17.08-1.09.07,0,.07-2.19.08,1.19.07-.93.15,1.77.14-2.45.08,2,.07-.67.07-.17.08.44.14-1.9.15,2.3.15-1,.14,1.86.08-.91.14,1.3.15.36.07-.82.07.09.3.88.36-5.3.15,1.52L150,151l.07,1.83.07-.57.08-.09.14,1.72.08-.66.22,1.55.14-1.11.08,1.28.07-.24.15-.71.14,1.5.3-1.5.07.88.07-.86.15-3.46.15,3,.07-.82.07-1,.08.09.07-.13.15,1.89.07-.33.14,1.64.08-.73.07-.31.22,1.59.07-.38.08,1.29.07-.6.07.46.08-.4.07,1.46.07-.93.08.95.14-1.74.08-.06.07-1.35.07,1.45.08-.11.07-.08.07-.69.08,1,.07-.64.07.75.08-.33.07-1.5.07,2.32.08-2.23.07,1.52.07-1.54.08,1,.36-4.11.08.6.14-2,.15,3.57.07,0,.08-.55L156,154l.22,2,.07.64.08-.2.07.09.07-1.52.15,1.28.15-.33h.07l.29-2,.22,2.45.08-.18.07-1.45.07.66.3-1.15.07.46L158,156l.08-.93.14,1.26.08-1.33.07,0,.07-.06.08,2.52.07-1.39.07.31.08.41.07-.11.07-.44.08.14.07,1.58.15-1.5.22,1.3.07-.85.07.32.08-.15.21-3.27.15,3.21.07-2.61.08.86.07-1.06.07.6.22-2.13.08.45.22,1.65.07-1.57.07.76.08.19.07,1.26.07-.94.08,1.37.07-.45.22,1.51.22-1.31.07,1.48.08-1.81.14,2.07.08-1.28.07,2,.22-2.52.22,1.83.15-3.68.07.37.15,3.41.22-1.53.07.38.07,1.65.08-1,.07,1.22.07-.33.15.72.07-.83.07,1.43.08-.53.07-1.39.07.24.08.49.14-.57.08.41.07-.64.07.36.08-1.29.07,1.55.07-.73.08.07.07.38.07-.29.08-1,.07.14.29,3.11.15-1.77.07,1.2.08-.62.36-2,.15,1,.07-.19.08.22.07-1.57.15,2.32.07,0,.07-.86.15.73.07,0,.08.53.07-1.15.14,1.44.08-.16.07-.4.15.6.14-.2.08.22L168,158l.14,1.44.15-1.48.15,1.26.07-.84.15,1,.29-1.66.07-.11.08.73.07-.46.07.73.08-.29.07-.24.07.51.08-.91.07.81.07-.26.22-.68L170,157l.14,1.73.15-.6.07-.31.08-1.37.07,1.35.07-.77.22,1.68.08-.16.07-.73.07.75.07-1.08.08.22.14-1.17.15-1.68.07.2.22,2.19.08-.67.22,1.6.07-.76.29,2.21.08-.59.07,0,.07-.45.08.73.07-.2.07,0,.08-1.19.07,1.43.07-.59.08-1.15.22,2.19.14-1.35.08,1.35.14-1.64.08,1.95.07-.29.07-.75.08.24.07.07.07.41.08-2.25.14,2.32.15-1.13.07.42.07-.52.08-1.37.07.37.22-.35.07-.64.15,1.59.07-.75.08.08.07-.08.07.64.08-.34.07.12.07-.18.08-.51.22.93.29-1.44.07.2.08,1,.07-.09.07-1.13.08.07.07.37.15-1.5.14,1.22.15-.53.07.22.08-1.06.07,1,.07-1,.08.78.07-.45.07.51.44-2.39.15,1.6.07-.82.07.46.22-1,.15-1.37.07.55.08-.66.07,1,.07-1.15.08,0,.14.51.08-1.57.07,1.57.07-.27.08-1.59.07.2.07,1.59.08-1.17.07,1,.29-3.64.08,2.09.07-.26.15-.51.07-.71.22,2.48.07-2.19.08.45.07-.63.15,1.42.07-.51.07.36.08.94.07-.19.07.26.08-.24.07,1.5.07-1.83.08,1.21.07-1.32.22,2.07.07.09.07-1.17.08,1.35.07-.4.07,1,.08-.56.07.54.22-1.66.07.55.08-.46.07.66.07-.91.15,1.84.15-.33.29,1.19.07-.55.15,1.41.07-1.33.08.91.07-1.13.07.76.08-.89.07.46.07,1,.08-.26.07-1,.15,2,.07-.22.07-.59.3,2.2h.14l.08.88.07-1.17.07,1.79.07-.89.15-.3.07.39.08-.06.07-.33.15.79.07-.93.07,1.06.15-.75.07.18.08.51.07-.09.07,0,.15-.33.15,1.24.29-2.06.07.67.08-1.15.07,1.44.07-.34.08.29.07-.53.07.2.08.2.07.62.07-1.15.15.82.07-.16.08-.57.14,1.46.15-1,.07.57.08-.26.07-.09.07,1.15.08-.31.07.61.07-.24.08-.37.07-1.84.07,2.08.07-1.08.22,1.48.15-.91.07.55.08-.28.07.19.07.6.15-1,.07,1.06.08-.76.07.69.07-.53.15.69.07-.45h0"/></g></g><g id="line2d_37" data-name="line2d 37"><g class="cls-5"><path class="cls-8" d="M23.43,94.23l.08-1.41.07,2.53.07-1.1.15,1.28.14-2.36.15,3.75.07-.24.15,1.1.15-.5.07,3,.07-.86.08-.18.14,1.26.08-1.08.07-3L25,100l.08,0,.14-1.54.08,2.14.07-1.9.15,2.82.07-.41.07.86.15-2.74.07,2.74.15-3.56.07,5.19.08-1.39.07.53.22-1.61.07,3.49.08-1.73.07-.39.07.33.08-2.25.07,3.9.07-.57.22-1.19.08-.09.07.68.07-.26.07-2.65.22,5.37.22-2.66.08-.53.07,1.75.07-.42.08-1.77.14,3.52.15-3.47.15,4.26.07-5,.07,2.8.08-.47.07.62.07-1.32.08.29.22,4,.07-3.32.07.67.15-2,.15,3,.22-3.23.14,2.17.08-1,.07,3.86.15-2.49.14,3.53.15-2.58.07,1.17.08-1.53.07,1.79.07-.71.07-1.12.08,1.15.07-1.42.22,2.06.07-2.17.08,3.43.07-3.36.07,1,.3,2.68.07-.86.07.86.08-2.59.07,3.63.22-3.76.15,2.45.14-1.9.08,2.47.07-.9.07-2.5.22,4.07.08-.71.07-1.19.15,1.12.14-1.14.08,1.15.07-2.32.07,2,.08-1.94.14,2.91.08-4.13.14,6.25.15-1.63.07-.45.07.31.3-1.36.22,3.49.07-1.24.07,1.59.08-2.36.07.57.07-1.61.08.57.07,1,.15-.93.07,1.28.07-1.25.08,2.76.07-.87.07-2,.08,3.49.07-1.32.07.81.08-1.92.07,2.19.07-2.67.08,1.28.07-1.46.15,2.48.14-2.59.08,2.34.14-1.87.08,3,.07-.72.07,1.3.08-1.83.07.64.07,1,.08-2.5.07,2.83.07-1.72.08,0,.07,0,.07-1.09.15,3.14.07-1.83.07.84.08-1.06.07,1.43.07-.59.08,1,.07-1.67L39,114l.08-.66.22,1,.07-.48.15.35.07-2.18.15,1.52.07-1,.07,4,.08-1.62.07-3.15.15,2.47.07-.11.07.79.08-.59.07.4.15,1.65.07-.09.15,1.95.07-1.15.07-3.16.15,3.53.07-3,.08,2.85.07-1,.07,1.46.08-1.39.29,3.36.22-3,.07.19.07,2.08.08-.93.07.56.07-1.42.15,4,.07-2.42.08.31.14,2.73.08-2,.07,2.07.07-.18.15-1.52.15,2.5.07.19.15-2.14.14,2.79.15-3.16.15,3.68.07-1.76.07.33.08-.07.07,1.59.07-.09.08-.46.07-1.35.07.87.08-.47.07,1,.15-1.58.22,2.49.07-1.63.15,3.46.07-.51.15-1.47.07.41.07-.64.08,2.06.07-.47.07-.75.07.8.08-1.41.14,2,.08-.25.14.86.22-1.54.15-.46.22-4.67.07.54.15-5.93.22,12.06.15-.94.14,2.12.08-.47.14-1.54.15-1.4.15-2.21.14.89.15,5.65.07-1.48.08,1.42.07-.71.37-4.88.22-13,.36,18.78.07-.45.08,1.44.07-2.28.07,1.48.08,0,.07-1,.29,5,.15-2.06.07.18.08.22.07-.51.15,1.88.07-3.57.07,1.52.08.26.07-1.37.07,3,.08-2.56.07.69.07.48.22-4.53.08,1,.29-16.83.07-.84.3,21,.07-.33.15,2.34.07-1.65.07.81.08,1L53,133l.07.24.08-.08.07-1,.22,3.27.14-2.41.15.68.22-1.21.15,1.87.07-1,.07-2.65.08,3.57.07-.66.15-.7.14,2.25.22-2.14.08.9.22-2,.14,1.94.15.29.07-1.42.08,1.48.07-1.9.07.84.08.89.07-.38L56,133l.08,1.26.07-.44.07.73.08-2.92.07,1.37h.07l.22,2.16.08-2.56.07.11.07-.55.07,1.89L57,133l.07,1.28.07-1.5.08.4.29,1.1.07-1.68.08,1.29.07-.14.22-1.74.07,1,.15-1.86.07,3.33.08-2.65.07,2.13.07-.47.15-1.85.07,1.9.08-.2.07,1,.07-1.92.08,1.74.07-.51.07-1,.08,1.46.22-2.94.14,3,.15-.11.15-2.36.07,1.52.15-2.3.14,2.24.15-2.86.07,1.37.07-1.8.08,1.92.07-3.05.07.92.22,1.82.08-1.26.07.09.07,1.94.08-.29.22-.15.07-.09.07.2.08,0,.07-.7.07.62L62,129.7l.07,1.37.08-3,.07.86.07,1.41.15-2.2.07.81.08,2.08.07-2.5.07.76.08,2.09.14-2.05.08.44.14-.75.15.6.37-10.78.07-.66L64,127l.15-.62.07.2.07-3.89.08.25.22-2.39.07-.24L65.05,103l.14-17.83.15,17.25.22,22.22.15,2.65.07.35.07-1.21.08,0,.07.16.07-1.81.08,1,.44-7.23.29-16.6L67,95.88l.3-81.27.07,4,.29,98.21.22,6.61.29,1.48.08.73.14-1.64.08,2.65.07-1,.07.53.08-1.15.07,0,.07,1.92.08-1.81.07.12L69,125l.15,1.24.07-1.35.08,2.27.22-2.45.07-.11.22,1.44.07-2.08.08.47.07.17.22,1.1.07-.41.08.61.07-1.74.07,1.33.08-1.07.07,2.59.07-.53.22-2.41.08.35.07,2.13.15-1.9.14,1.87.08-.61.14.81.07-1,.08.73.14-1.72.15,2.39.07-3,.08.34.14,2.36.15-1.59.07.4.08-.56.07.25.07.57.08-2.23.07.07.07,1.48.15-1.79.07.17.22,1.6.08-2.35.14,2.92.08-2.21.07,2.16.07-.5.15-.42.07-.82.08.36.44,2.12.07,1.06.15-3.65.07,3.16L75,125.5l.15-1.25.07,1.83.07-.09.08-1,.22,3.2.07-2.49.07.93.08.39.07,2.63.15-2.84.07,2.14.07-.75.15-1.77.07,3.42.08-1.15.07-.39.29-8.09.08-1.85.14,2.2.22,7.07.08-.2.07,3,.07-.49.08-1.64.14,3.36.08-2.21.07,1.7.07-1.46.08.65.07,0,.15,2.06h.07l.07-1,.08,2.81.07-1.26.07.13.15-1.57.14,3.25.08-2.1.07.8.22-1.46.07,2.27.08-1.1.22,1.9.07,0,.15-2.72.07,1.51.29-7.8.22-14.11.08.09L81,135.42l.07-.55.07,1.46.08-.78.07,1,.07-.88.08,1,.07-.31.07-1.25.22,1.06.08-2.06.07.15.37,3.47.07,0,.15-2.07.07,2.64.07-.59.07-.55.08.4.22-1.68.07,1.08.07-.88.08.32.07.43.07-1.28.08,1.12.07-.71.15,2.34.14-.75.15.8.22-2.89.22,1.59.07.5.08-1.83.07,2.34.44-10.25.15-11.64.14-7.86.22,15.6.22,12.17.08,1.1.07-1.63.07,2.2.08-.72.14.68.07-.91.08.62.07,1.77.07-1.13.08.35.07-.55.07.8.08-.88.07,1.06.07-.76.08,0,.07.31.07-.71.08,1.28.07-1.81.07,1,.08-1.55.07.37.15,0,.07-.45.07.38.08-1.15.07.47.07-.53.15,1.65.07-.09.15.8.07-1,.15,2.36.07-1.15.08.27.07,0,.07-1.13.08,1.09.07-.53.07.21.08-.21.07-.63.15-2.91.07,1.06.15-3.09.07-2.28.36,8,.08-.44.29-3.56.22-6.67.07.91.3,6.36.14,2.39.08-1.18.14,2,.08-.42.14-.09.15-.89.15,2.26.07-.33.07.53.08-1.15.07,1.25.07-2.05.08.26.07.6.07,1.7.08-.31.07-.64.07,1.22.15-2,.22,3,.07-2,.08.22.07,1,.15-1.7.14,1.26.15-1.12.07.41.07-.33.15,1.48.07-.72.22-3.19.08.05.14-.27.08.42.07-.61.44-7.69.07.09.15,1.78.15,0,.07-.09.07,4.24.08-1.32.14,4.5.08-1.54.07.35.15-1.68.22-10.07.14-11,.08-1.42.29,19.68.07,2.49.15-1.9.07,1.86.15-3.93.07.35.07,1.53.08-2.65.07,1.26.15-1.2.07,2.48.07-1,.08,2.16.07-.68.15,2.12.14-2.78.22-17.52L99,42.13,99,58.47l.3,62,.22,15.15.07.07.15,2.25.07-1.5.07,2.36.08-.68.07.35.07-.22.22,1.94.08-.49.14-2.93.08,1.41.07.88.15-1.74.21,3,.08.31.29-3,.07,1.12.15-1.43.07-.09.08-1.22.07,1.28.07-1.45.22,2.32.08-.53.07,1.39.07-.44.08.24.07-1.15.07-2.92.08.4.07-.79.15,1.37L103,135l.15,2.67.22.85.07-.34.07,1.48.3-5.81.07-.84.37-28.15.07,1.63.15,13.49.07.71.22,13.1.07-1.46.22,2.65.07-3.23.08,1.24.44-7.9.07.55.07,1.76.08-.73.07-.19.07.28.15,3.56.07-.16.15-.52.37-14.56.22-13.8.58,28.82.15-.2.07,1.85.08-.74.07.3.07-.53.15,3.49.07-.83.08.28.07.53.36-1.5.08.38.07-1.51.22,2.56.07-1,.08.68.07-1.13.07,2.25.08-.85.14,1.78.08-.86.07.6.07-.31.3.38.14,2.89.08-3.27.07,1.9.07-.44.3,2.85.07-1.48.07.19.08,0,.07,1.15.07-.51.22,1.85.08-.55.14.86.08-.17.14,0,.08,0,.07.37.07-.79.07.31.08-.07.14,1.35.08-.71.07.44.07-.68.15,1.92.22-2.72.15,2.12.14-1.28.08-.17.07.13.22,2.56.15-2.32.07,1.33.07-1,.08.24.14-.82.08.12.07,2.29.22-4.94.07-.78.22-7.18.08.09.29,5.13.15,4.59.22,2.36.07-1.87.07.3.15-.19.22-2.92L116,138l.07.82.08,2.23.07-1.66.22,2.61.07.28.08-.22.07,1.77.07-.95.08.13.07-.26.07-1.35.08,1.64.07-.78.07.36.3-5.48.07-.33.15-2.34.14,3.77.08-.92.22,7.19.07-1.12.07,2,.08-.48.14,0,.08-.33.07.06.15.51.51-10.69.14-4.59.37,10,.29,5.12.08-.84.07.64.07,1.83.08-1.1.07.31.07.82.08-2.74.07,1.43.07-.79.15,2.56.22-2.49.29-1.49.15,1.09.07.37L122,148l.07-1.88.07.27.22,1.56.08-2.56.07,1,.29-2.63.08.06.07,1.55.07-.86.15,3.16.07-.35.07.85.08-1,.07,1.69.07-.95.08,1.11.07-.57.07.68.15-1.9.07.29.22,1.57.08-2.23.07.66.07.62.22-3.32.3-12.68.07,1.2.44,13.51.07.09.22,3,.08-1.13.07.24.07-.13.08.95.07-.91.15,2.23.07-.75.07-.93.15,1,.07-1.78.08,1,.29-5.34.07-.62.15,1.15.07-.22.07.33.22,3.69.08.1.07-.68.07,2.23.22-3,.08-.42.07-2.42.07,1.08.08.53.07-.07.07,2,.08-1.66.14,2.1.15.72.07-.43.15,2.25.07-2.15.08,1.35.07-.51.07-.41.15,1,.07.58.08-1.06.07.82.07-.71.08.8.07-.82.07.24.08.73.07-.66.15,1.94.14-2.06.07.07.08-.88.07,1.59.07-.31.08.9.29-3.53.07.44.08-.29.36-14.09.52,10.1.29,4.13.15-.24.14,1.41.08-.57.07.39.07-.55.22-4.09.08-1.14.07-3.27.07,1.26.08-.51.51,8,.07-1.46.15,2.16.07-1.52.07.57.22-1.94.08-2.45.14,2.8.15-.37.07.53.08-2.94.07.4.07-.2.22-5.47.37,3.77.15-3.53H136l.07,1.74.08-.79.07,1.17.07-3,.08.33.14,2.12.08,3.09.07-.39.07-.31.22,5.26.08-1.37.07.06.07,1.3.08-.42.07-1.23.07.09.15,1.14.15-.53.07-2,.07,2.3.07-.29.08-.28.07.2.22-2.94.07.62.3-3.84.07.06.15,2.56.07-1.1.37,5.74.14-1.81.15,1.9.07-.71.15,1.28.15-2.2.07,1.21.07.84.22-1.66.08.49.14-3.09.08.33.07.86.07-.55.08.37.07,1.13.07-.42.22,2.56.08-.51.14-.77.07.16.08,1.14.07-1.45.22,2.78.07-2.56.08,1.26.07-.22.07,1.21.08-1.35.14,1.06.08-.26.14,1.39.08-.68.07.94.07-.42.08-1.28.14,2.25.15-1.89.07.42.22-2.66.08.89.29-2.65.22,2.34.07-.53.08.31.14,1.41.52-4.53.29,4,.14-.75.08,2.91.07,0,.29,1.06.15-.09.07-.61L146,153l.07-1.66.07.91.08-1.53.14,2.48.08-1.26.07.17.07.18.15-1.92.07,2.1.08-.82.07-.73.07,1.39.08-.37.14,1.08.08-1.21.07.3.07.78.22-2,.22,2.19.15-1.55.15,2,.07-.49h.07l.08-1,.14,1.3.22-.72.07,1.45.08-1.65L149,154l.07-1.15.08.64.07-1.57.07,1.07.3-6.14.07-.34.07,0,.15,3.15.07.09.08-.24.22,2.91.07-.64.15,2.46.07-1.35.07,1.41.08-1.66.07,1.11.07-.33.08-1.94.14,2.67.08-1,.07,1.08.07-.28.08.46.07-.64.07.24.15-.38.15.89.07-1.2.07.1.15-.09.07-2,.08,1.7.07-3,.07.8.15,1.08.07-.75.15,1.44.07-.11.07,1.81.08-.14.14,1,.08-1.21.07,2.25.07-.86.08-.11.07-.6.07.47.15-1.06.07.15.08-.57.07,1,.22-1.9.07.29.08.4.07-.91.15,1.7.44-4.07.29-3,.29,3.47.08-.89.07.29.07,3.16.08-.9.14,1.67.08.25.07,1.15.07-.53.07-.25.08.18.07-.2.07-1.19.08,0,.07-.22.07.6.08-.4.07.09.07.31.08-.4.07.57.07-.28.08-.49.14,1.85.15.23.07-1.28.08,1.32.07-.66.07-1.06.08.73.14-.62.08.84.14-1.2.15.67.07-.14.22,1.2.08-.93.14,1.44.15-.91.07,1.7.08-.16.07.69.15-1.08.07,1,.07-.15.08-.13.07-1,.07.79.07-1.39.08.17.07.89.07-.27.22-2.4.37-1.71.07,1.55.08-.06.14-.87.08-1.48.29,3.76.07.28.08,1.2.07-1.81.07,1.39.08-1.41.07,1.63.07-.46.22,2.87.08-2.28.07.58.15.83.07-1,.07,1.32.15-1.08.07.22.08-.09.07-.93.07,1.49.08-.31.07.61.15-1.1.07,0,.07,2.12.08-.93.07.16.07-1,.07.27.08-.2.07,1.14.07-1.92.08.16.07,1.06.15-1.08.07,0,.07.53.08-2,.07.3.07-.9.08.28.07,1.71.07-.29.08-.26.07.72.15-.95.07.11.07,1.88.08-.93.07-.48.22,1.43.07-.61.08,0,.07.6.07-1.15.08,1,.07-1,.07.33.08,1.68.14-1.5.08,0,.07.93.07-1.88.08,2,.07-.49.07-.26.08.85.14-.9.08,1,.07-.58.07.64.07-.66.15.51.15-1.34.07.19.22,1.9.15-1.37.14.67.22-1.73.15,2.14.07-.92.08.33.07.2.15-1.09.22,2.44.14-2.23.15.86.15-1,.07.4.07-1.59.08,1.79.07-.28h.07l.08.32L170,157l.07.57.08-.06.07-1.09.22,2.39.15-1.59.07.55.07-1.64.15.91.51-6.18.22,4,.15-.56.07.82.07-1,.22,2.63.08,1.4.07-1.79.15,1.58.07-1.1.07.66.08-1.08.07,1.81.22-1.59.07.18.22-.37.15.9.07-.44.15,1.15.07-.09.08-.31.07.15.07.09.15-.55.07.18.08.09.07-.43.07.45.08-.27.07.16.07-.56.07-1.61.08.88.07-.17.07-1.11.22,2.06.15-1.72.07,1.89.08-2.34.07.47.22.93.07,0,.08-.42.07.71.15-1.33.07.38.07-.53.08.62.14-1.68.08.71.07.94.07-2.12.08.6.07-.24.07-1.19.08,2.22.22-1.76.07.59.07-1.17.08.82.07-.06.29-.45.08,1.15.07-.17.15-1.13.14.82.15-1.66.07.55.07-1.23.15,1.3.22-1.44.22.31.15-1.48.07.11.07,1.06.08-1,.07,0,.07,1,.15-2.11.07.66.08-.33.07.26.15-1.13.07.22.07.73.08-.9.07,1.41.07-.92.08.59.07-.55.07.93.22-2.83.15-.6.07-.06.08.31.14,2.69.08-.64.07.84.07-.8.15.64.07,1.48.08-1.59.07.44.07,1.09.07-.46.08-.73.07.44.07,1.34.08-.37.07.57.07-.72.15,1.08.15-.8.07,1.75.07-.76.08-1,.07,1.9.07-.33.08,1.13.14-1.37.08-.44.14,1.59.08-.58.07.25.07.42.08-.56.07.55.07-.32.15-1.11.07.26.22-1.23.08,2.56.07-.53.07.71.08-1.55.07,1.59.07-2,.08,3.33.07-.7.22,2.23.07-1,.22,1.3.07-.7.22,1.68.08-1.62.07.56.07.22.08-1,.07,1.23.07-.28.08-.22.14,1.36.08-.06.07-1.35.07,1.2.15-1.64L187,158l.14-1.79.08,1,.22-1.32.07-.05.07-.69.15,1.68.22.16.07-.78.08,1.49.07-.58.07.44.22-1.12.08.88.07-.24.07.35.08-.73.07.88.07-.53.08.18.07.6.07-.6.22,1.92.07-.59.15,1.21.07-1.65.08.52.07-.57.15,1.55.07-.29.07.38.08-1.59.07.55.07.82.08-.31.07-.14.07.58.08-1.22.07.14.07-.1h0"/></g></g><g id="line2d_38" data-name="line2d 38"><g class="cls-5"><path class="cls-9" d="M23.43,91.34l.15,2,.07-2.32L23.87,95l.07.24.15,1.48.07-1.11L24.31,98l.15-1.48.22,3.59.07-.81.07,3.13L24.9,100l.07.22.07.62L25.19,99l.07,3.8.08-.53.07-1.26.22,2.94.07-2.92.08,1.84.07-.11.07.15.08,1.33.07-1.33.22,2.52.07.35.08-1.54.07,2.93.07-2.93.08.55.07,0,.07-1.14.15,3.29.07-.84.08-1,.07,1.37.07-.61.08-.36.07,1.66.07-1.61.07,3.69.15-3,.07,1.37.08-1.7.07.74.07-1.05.08,2.29.07-1,.07.64.08-1.19.07,2.16.07-.92.15-.62.07.07.08.24.22,2.65.07-1.88.07,2.17.08-2.46.07.38.07,1.13.08-.27.07-.8.07.43.08-1.37.07,4.32.07-3.82.08,2.39.14-2.65.08,2.27.07-.44.07.66.15-1.58.07.08.08.73.07-1.24.22,1.88.07-.29.08-1.1.14,3.2.07-1,.08.39.07-.1.07-1.77.08.5.22-1.47.07.24.07.81.08-.68.22,2.47.07-1.06.07.14.08-.34.07.51.07,1.57.08-3.38.07,1,.07-.78.22,2.23.08-2.1.07,2.88.07-1.24.08-.27.07,1.81.07-1.85.08,2.25.07-.44.07-3.18.08,1.66.07-2.48.07,3.52.08-.14.07-2.45.07,2.47.08-.68.07.11.07.9.08-1.28.07,3.16.07-.2.15-2.67.07,3.34.07-1.62.15-3,.15.24.07,1.19.07-.13.08-.09.07-.86.07,4.46.08-1.72.07-1.48.07,2.34.08-1.15.07.11.15-.64.07,1.95.22-2.32.07.69.08,4.57.22-6.26.07,3.56.07-2.49.15,2.67.07-2.47.22,3,.08-2.58.07.17.07-.61.22,3.6.15-3.21.07-.06.08,1.66.07-.09L38,113l.08,1,.14-2.76.08,2.24.21-3.67.15,2.71.07,0,.08,1.43.07-1.12.07,2.84.15-1.81.07.73.15-3.36.07,1,.22,2.61.22-3.49.22,2.05.08-.91.07-2.54.29,6.63.08-3.29.07.77.15,3.09.14-1.06.08-.37.07.35.15,1.9.07-2.4.15,3.06.07-1.81.07.45.37,2,.07-.31.15-.36.07-.86.07,2.12.08-2.54.14,3.2.15-1.5.07,2.12.08-2.76.07,3.16.07-2.23.08,2.43.07-1.88.07,0,.08,2.06.07-1.22.07.16.08.46.07-2.58.07,1,.15,2.25.07-.91.08.45.07-.54.07,1.91.08-2.35.07.29.07,2.94.22-4.79.08.53.22-2.5.14-2,.37,9.5.07-1.44.15,3,.29-2.45.22,2.94.07-1,.08,2.3.07-.21.07-1.87.08.35.22-.75.14,1,.3-6.38.07.44.22,7,.07-1.63.08-.69.07.42.07-.42.37-11.64.22,12.94.29,1.42.08.31.07-2.35.07,1.77.37-14.77.15-9.61.36,26.72.07.78.08-.71.07.7.07-.11.08-.06.07-.6.07.34.08-.16.07-.33.07,2.18.08-1.32.07,1.17.07-1.61.08,2.89.07-3,.07,1,.08,1.33L51.2,130l.07,2.64.08-1.76.07.39.07-.74.08,1.27.29-11.44.07.65.22-7.2.08,1.34.22,7.29.22,8.5.07-.08L53,133l.07-.77.08,1.9.07-1.7.07.51.07-1.17.22,3.55.08-2.07.07.44.07-1,.08,1.11.14-2.12.08,2.36.07-.4.07-1.12.08.31.14.41.15,1.88.07-1.3.08,1.61.07-3,.07,2.15.08-.16.07-.95.07,1,.08-1,.07,1,.07-1.7.08.46.07,2L55.6,133l.07.53.07.42.08,1.39L56,133.9,56,134l.07-1.68.07.34.08,1.15.07-.76.07,1,.08-.56.07,1.09.15-3.17.07.93.07,2.43.07-2.65.15,1.95.07-.67.08,1.09.07-1.84.07,1.4.08-1.16.14,1.07.08-3.32.07,1.22.15-2.67.07.5.07-1.1.08.37.22,4.69.07-.84.22,1.88.07-1.7.08.21.07.69.07-1.37.08,1.88.07-.84.07-1.19.15,2.38.15-3.45.07,2.72.07-.33.08.44.44-3.07.07-2.76.15,2.58.29-3.22.07.77.07-4.19.08,2,.07,0,.29,6.08.15-.62.22,1.48.07-1.77.08,1.64.07-1.27.07,1.07.08-.38.22-2.65.07,1.5.29-6.45.08,3.82.22-7,.22,7,.22,1.51.07,0,.29-8.7.08-.8.14,1.83.08.09.07-.71.29,6.72.22-10.67.07-2.25.15-33,.22,28,.15-3.75.14-13.35.15,10.27.29,23.44.08,1L66,125.5l.07.87.81-25.54L67.1,81.6l.15-24.15.07,6.23.29,57.74.08,2.89.07-.15.07-.27.07,2.43.15-2,.07-.2.08,2,.07-.56.07-1.28.08,2.92.14-3.49.08.57.29,3.32L69,126l.08.44.14.35.15-.44.15,2,.07-3.18.15,1.88.07-1.39.07.33.08-.49.14-5.3.37,6.92.07.06.22-3.66.08.06.07.49.07-1.5.08.94.07-3.31.07.67.08.48.29,3.69.22,1.63.07.55.07-1.34.08.66.07-.7.07,1,.08-2.14.07.09.07.19.08.91.07-1.39.07,1,.08,3.07.07-2.24.07,2.34.08-4,.07,1.91.15-2.68.07.33.07.89.08-1.81.07.22.07,1.9.08-2.24.07,5.17.15-3.59.07.37.07,3.33.08-3.59.07,1.14.22,2,.07-1.37.08,1.83.07-.49.07-2.52.08,3.36.07-1.41L75,108.14l.22,16.39.07.11.3,4.48h.07l.07.22.15-1.85.22,1.86.07-.82.08.88.07-1.1.07.66.08-1.43.07,1.1.22-4.09.07.71.22-9.36L77.43,127l.15,1.12.07,3.12.07-2.37.15,2.5.15-4,.14,5,.08-.73.07,1.13.07-.86.08.39.07-.55.22,2.67.07-1.72.07,1.15.08-1.79.29,2.61.07-.6.22,1.13.08-2.24.07.23.07.39.15-1.94.07.73.08-.18.36-12,.08.68L81,136.48l.07-.55.08-.77.07,2.76.07-.76.15-1.59.07-.17.22-2.65.08-1.66.14,3.53.08.18.07,2.52.07-.47.15,2.35.22-3.51.14,1.76.08-.39.07,1.12.37-6.2.07.24.22,4.61.07-.66.08,2.19.07-1.2.07.45.08,1.26.07-.4.15,1.5.07-2.16.15,1.45.07.13.07,1.11.22-4.37h.08l.07.68.29-6.4.22-9.26.37,14.22.07-3.18.15,6.19.15-.24.14,2.32.07-3.05.08,2.36.07-.06.07-1.24.08,1.06.22-4,.22,2.81.07-.16.07.95.08-.93.14,2.59.08-1.31.07.12.07.32.08-1.32.07.26.07.31.08-.06.22-2.78.07,2.21.15-4.78.29,5.41.07.27.08-.49.14,1.86.08.11.07-.42.07.38.15-1.06.15.83.22-5.27.07.53.07-1.13.22,5.79.29-2.15.08,1.82.07-4.18.07,2.47.15-3.84.07-1,.08,1.08.22,4.73.07,1.39.07-1.63.08,2.4.07-.95.07.42.15-.86.07.18.08-2,.07,3.31.07-2.14.08.68.07,1.31.07-1.72.08.55.07,1,.07-1.68.08.09.07,1.77.07-.65.08-1.7.07.4.07.71.15-1.28.15,2.47.07-.2.15-.09.22-2,.07.42.07.35.07,1,.22-3.62L94,136l.36,3.67.22-4.62.08,2.36.29-5.63.29-5.67.22,4.77.08-.44.22,4.88.07.81.29-2.12.08,0,.14-3.07.22-15,.44,18,.29-5,.15-4.12.15,4.46.07-.42.15,1.34.14-15.55.15,13,.07-2.17.15,8.92.07.14.22-9.86L98.75,106,99,78.83l.44,55.59.22,3,.07.35.15,2,.07-1.08.08.35.07.73.07-1.57.08,1.15.07-1.92.07.48.08.23.07,1,.07-2.61.22,4,.15-.73.07,1.66.07-.4.08-.35.29-6.26.22-4.17.07.27.22-6.7.15,7.29.15-6.4.14,7,.15-1.82.07,2.5.22-5.65.59,15.57.22-1,.07-2,.08.33.07-1.08.22-10.41.15-7.62.22,8.64.29,8.73.07,1,.22-3.51.07.64.08-.07.44-6.65.07,1,.37-5.9.07-3.34.07,2,.08-2.19.14,2.89.08-1.57.07,2.06.15-4.35.29-12.62.29,13.88.22,9.38.15-.5.07-2.68.44,8.2.08-.42.21,1.72.15-1.61.07,1.3.08-1.74.07,2.54.07-2.43.08.86.07-1.7.15,4.5.22-3,.14,2.51.08-1.32.07-1.82.07.69.22,3.14.15,0,.07-.12.08-.41.07.17.15,4,.14-1.52.15-.75.22-12,.07,12.24.08-1.26.07-4.13.29,8.48h.08l.22-3.09.21,1.84.08-2.08.14,2.36.08-.42.07.05.07,1,.08-.75.07,1.6.07-.56.08-.57.07.15.22.69.15-1.44.14-1,.22,2.65.15-.94.15,2.16.07-.69.07-.37.08,1.77.07-.78.07-.26.22-4.15.08.17.14-4.88.08-.33.07-1.17.07,2.69.08-.33.22,4.6.22,4.37.07-.69h.07l.08-.2.14-4.35.07,3.2.08-2.08.07,1,.07-.28.08.3.14-1.78.22,5,.08-2,.22,2.47.14-.9.08.75.07-1.61.07,2.56.15-3.34.07.2.08-.68.14-3.32.08,0,.14,4.28.08-1,.14,3,.08-.24.07,0,.22,1.88.15-.77.07.62.07-1.44.08.79.14-3.49.15,2.24.29-7,.07-1.86.3,5.94.07.62.07-1,.15,3,.15-1,.07-.08.07.77.15-3.64.15,3.53.07-.2.07,0,.08-.8.22,3.38.07-2.14.07.88.08-1.55.07,0,.07-.16.22-4.64.15,6.12.15.27.14,2.6.08-.26.07.17.07.76.15-3.08.07.6.08.71.22-2.14.21,3.26.08-.33.07-.46.07.68.08,2.08.07-.22.07-.11.08-.53.07,1.21.07-1.34.08,1.94.14-2.72.08.86.07-.64.22,2.35.07-1.57.08.33.07.57.37-9.76.07-.51.15,4.29.07,0,.07.37.3,5.54.07-1.21.07,1.5.08-.71.07-.11.15,1.31.14-1.11.15,1.31.07-.55.08.74.07-.33.07-.19.08-1.71.14,1.09.29-4.64.22,3.29.08-1.41.22,3.6.07-.25.07-.72.08.11.07.06.15-1.68.07.91.15-3.05.14,4.17.08-.46.07-1.35.07.49.22.66.08-1.41.07.28.15-.46.07.31.07,1,.08-.95.07,1.92.07-.75.08.62.07-.75.07,1.26.08-.15.07-.23.07.07.08.16.07,1.37.07-.34.08-.17.07,0,.07.16.07.55.15-1.2h.07l.15.11.07-.84.08.53.14-.89.08-.17.07-.47.15-4.31.14-2.29.22,3.95.08-1.92.29,5.39.07-.69.15,1.68.07-.62.08.11.14,1.49.22-3.52.08,2,.22-4.52.07.64.07-2,.22,4,.15-2,.07.51.08-.17.14.39.08.29.21-3.76.08.32.14,2.36.15-3.42.07.59.08,3.64.07-.15.07-1.57.08.16.07.48.22-3.2.07,1.46.08-.73.14,2.54.08-2.92.07,1.48.07.09.08.47.07-1.31.15,1.9.14-3.64.15,2.47.15,2.21.07-.4.07-.84.3,3.91.07-.93.07,1.79.08-1.61.07.93.07-.73.08.29.07.08.07-.35.08.91.07-2.36.07,1.43.07-.84.08.55L138,149l.15,1.24.07-.25.15-3.6.07,1,.07-.89.22,2,.3-3.6.14,4.95.08-.2.07-.86.07.16.15,2.12.29-2.88.08.91.07-.46.07-1.44.08.13.14,1.81.22-3.33.66,4.77.08.15.07-1.08.22,1.79.07-.93.15,2,.14-1.46.15,1.23.07.38.08-.27.07,1,.07-1.11.08.57.07.31.07-.94.08.7.07-.26h.07l.08-.93.07.31.15-.09.14.82.08-.6.07.33.37-3.62.07.27.15,2,.07.07.07.51.08-.33.22,2.16.07.57.44-5.19.15,2.39.07-1.42.29,4.27.15-.91.07.05.07,1.36.08-.74.07,1.83.07-1.35.08.77.07-1.15.07.56.15-.93.07.62.08-.56.07.42.07,1.09.08-1.09.07.87.07-.18.15-.4.07.13.15-.68.07.68.15-.79.15,1.1.07-1,.07.6.08-.14.14-1.65.08.24.22,1.5.14-1.57.22,2.13.08,1,.07-.29.22,1.12.07-.28.07-1.42.15,1.2.07-1.95.08,1.13.29-4.4.22,2.9L150,153l.08.51.07,1.61.07-.75.15,1.57.07-.58.08.14.14.57.08-.09.07-.69.15,1.66.07-1.26.07.89.08-.51.07.26.07,0,.08-.15.14-1.13.08.57.07-.1.07.1.22.76.44-1.92.29,2.05.08-.58.07.09.07.56.08-.93.07,1.88.07-.84.08,1,.07-.79.07-2.66.15,3.3.22-1.48.07-.22.08.15.14,1.33.08-1.28.07.39.07,1.31.22-1.53.08,1.39.07-.4.15.53.14-2,.15-2.18.07.22.08,1.23.22-2,.07.11.15,2.23.07-.57.15.88.14.69.15-2,.07-6.78.15,8,.07.81.07-.72.08-3.23.07.55.22,2.79L157,155l.07,0,.15.53.07,1,.07-.33.08.48.07-1.21.15,1.94.22-1.86.07,1.06.07-.95.08,1.4.07-.36.07-1.06.08.36.07-.4.22,1.46.07.24.15-1.08.07.5.08,1.28.07-1.12.07.59.08-.32.07.88.07-.25.15-.1.07.86.15-1,.14,1.17.15-1.36.07.88.22-4.15.08-4.15.22,4.83.22-2.49.07,3.57.07-.11.08,1.11.07-1.77.07.49.08,2.6.07-.93.07,0,.08.48.07-.51.07.22.08-.22.07.34.07-.14.08.29.07,1,.15-.86.07.62.15-3.25.22,4.38.07-1.18.07-.22.08-2.2.07.83.15.78.22-2.46.14,3,.08.17.14-1.1.22,2.19.15-1.24.14,1.37.15-.07.07-.84.08.51.07-1.9.07,1,.15-1.08.07,1.48.08-.51.07.44.07-1.15.15,1.21.07-1.39.22,1.62.08-.09.07.57.07-.44.08.16.22-.6.07,1,.07-.49.08.73.07-1.32.07,0,.22,1.9.08-.24.07.06.15-1.52.14,1.7.22-1.37.07.88.08-.13.07-.79.07.09.08.19.22,2,.07-1.83.07.46.08,0,.22.88.14-.93.08.16.07-.24.07-.62.15,1.76.07-1.47.08.68.07-.18.15.49.07-.15.07.39.15-1.21.07.11.08-.18.07.07.22-1.73.22,2.12.22-1.3.22.77.07-.84.08,1.33.07-.82.07.58.15-.53.07,0,.15.49.14-1.52.08.42.14-1.81.08.44.07,2.07.07-.61.15-.71.22,1.92.07.48.08-1.12.14,1.3.08-.18.14-.85.08.53.07-.53.07.66.15-.45H173l.08,1,.07-.12.07.4.08-1.06.07.69.07-.31.08-.24.07.39.07-.77.08.77.07-.26.15.35.07,0,.07.2.3-.77.07.16.22-1.93.07.33.15,1.64.22-.89.07-.66.07.93.08-.35.14.64.08-.51.07,1,.07-.83.08.06.07.84.07-.27.08-.86.07.2.07.07.22-.49.08-1,.07.51.07-.79.08.28.07.27.07-.82.08.35.07.09.07.58.22-1.72.08.73.07-1.33.22,1.85.07-.73.08.42.07-.19.07,0,.08.93.07-2.34.07.57.08-.92.07.64.07-.31.07.18.08-.91.07.9.15-1.52.07-.82.07,1.49.08-.47.07.07.22-1.44.07-.7.08.35.07.51.15-1.2.07.31.07.22.08-.19.07-1.26.15-4.07.07,1.22.15,3.38.07.1.22-2.05.22,3,.07-1.54.08,1.21L181,151l.07.62.08.37.07,1.07.07-.64.22,1.54.15-1,.07,1.17.08-.49.07-.55.07.84.07-.38.08-.11.22,1.37.07-1.12.07.24.08-.51.22,2.7.07-2,.22,2.46.15-1,.22,1,.14-.91.3,2.56.22-2.05.07,1.1.07-1.65.08.37.07.13.07-.68.08,2,.07-1.09.07,1.5.08-1.72L185,158l.07,0,.07-.35.08.93.07-.07.07.18.08-.33.14.26.07,1.33.08-.42.14-.34.08.43.07-.2.07-.84.22,1.39.08.39.07-1.16.07.35.15-.27.07,1.62.08-.18.07-1.5.22,1.5.07.06.08-.59.07.66.22-2.12.29,1.81.22-1.66.08,1.24.07-.57.07.48.08-.7.07.44.07-.55.08.7.07-.77.22,1.11.22-.27.07.73.08-.57.07.94.07-.86.07.82.08-.46.07.15.15-.17.07,1.38.07-1.43.08.57.14-2.21.08.4.14,1.42.15-.36.07.47.22-2.61h0"/></g></g><g id="line2d_35" data-name="line2d 35"><g class="cls-5"><path class="cls-10" d="M23.43,93.7l.15-2.47.07,0,.15,1.85.07-.35.22,4,.07-2.34.08,2.6.07-.64.07-.51.08,2.23.07-.51.07-.5.08,2.47.07-1.19.15.86.07-.57.15,1.17.07-1.46.07.15.15,3.65.07-2.25.08,1.47.07-1.3.15,1.81.07-.88.07,3.18.08-3,.07,2.14.07-.13.08-.53.07.09.15,1.66.07-2.59.07.16.08,2.18.14-2.47.22,3.87.08-2.26.07,3.34.07-.31.08-.58.07-2.47.14,3.18.08-1,.07.17.07.51.15-2.43.07,3.18.08-.17.14-1.57.08,0,.14,3.07.08-2.38.07.33.07.26.08,1,.07-.55.07.84.08-1.33L29,108l.07-.88.15,1.37.07-.4.08.37.07-1.52.07.18.08,2.18.07-.08.07.28.15-3.29.07,3.43L30,107l.07.46.15,1.37.07-.2.07-1.85.22,4.26.08-1,.07.62.22-2.55.22,4.14.14-2,.08.53.07-2.17.07.74.08,1.58.07-1.61.07.78.37-4.53.07,3.69.08-1.13.14,2.54.15-1.26.07-1.37.08,4.22.07-.4.07-.22.08.49.07-3,.07,1,.08,1.76.07-1.7.07,1.17.08-.53.07.34.07-1,.08.09.14,2.34.08-.9.07-1.26L34,113l.08,0,.07,0,.15-.88.07-1.72.22,4,.07-3.42.07,1.74.08-.21.07,1.25.07-.7.08.51.14-2.61.15,3.38.07-.16.15-1.41.07-.36.08.43.07-1.82.15,2.37L36,111l.07,2.52.08-.54.07.45.07-1.44.15,3.62.15-2.72.07,2,.07-.55.08-.39.07-3,.07,3.88.08-1.37.07.88.07-2.73.08,1.15.07,1.26.07-.65.08,1.88.07-.79.15-.4.07.11.07.86.08-2.38.07,1.78.07-.88.08-1,.14,3,.29-5.19.08-11.42.07,3.45.15,13.25.07-1.67L39,115.7l.08-1.84.07.36.15-.8.07,2.47.07-.94.08-.09.07.24L39.7,114l.14,1.22.08-.27.07-2.65.07-7.44.22,9.72.37,3.06.15-2.87.22,5.39.07-3.13.07,1.57.15-3,.22,3.34.07,0,.15-.81.07,2.47.15-2.38.07,2,.07-.25.08-2.2.07,3.53.07-3,.08.49.07,1.61.07-1.68.15,2.8.07-.41.08-.18.07-.66.07.39.08-.57.14.9.08,3,.07-3.69.07,1.7.08-1.76.14,1.88.08-.25.07,1.19.07-1.26.08.65.14-2.44.08,2,.07-.64.07.77.08-.24.29-2.63.15,2.14.07-.83.29,3.31.08-.35.14,2,.15-1.56.07,3.07.08-2.63.07,1.34.14,1.24.08,0,.07-.71.07.24.08-.28.07-1.09.07.27.08.33.07,1,.07-2.5.08,1.11.07-.58.07,2.67.22-4.65.08.79.07,2.25.07-.92.08,1.83.07-.93.22.84.15-4.59.07.26.07-.07.15,3.1.07,0,.15,3.16.07-.82.08.86.14-2.23.15,1,.07-2.19.15,1.83.29-25,.08-17.25.21,41.73.15.88L50,115.68l.08.77.29,15.15.15-1.95.14.73.08-1.52.07,2.41.07-1.72.08,1.72.07-2,.07.91.08,1.5.07-1.74.07.33.08,0,.14-1.86.08.13.36-8.92.08-.22.14,1.23.22,7,.08-1.31.14,4.2.08-.73.07,2.39.07-1,.08,1.28L53,132l.22-2.72.07,1.88.07-.89.08.47.07,1.5.07-.48.08,0,.07,1.5.07-.9.08.71.07-.23.07-1.16.22,1.23.15-1.61.07,2.41.08-1,.07-2.54.07.2.08.91.22-8.28.07.3.22,7.49.29,3.18.08-1.72.07.62.07,2.27.15-2.51.22.74.07-1,.08.16.22.79.07-.95.15,1.46.07-1.11.07.51.07.42.08-1.17.07,1.79.22-2.41.07,1.79.08-1.45.07,1.87.07-.88.3-2.74.22,1.1.07-.73.07,2.88.08-2,.07,1,.15-1.17.07.64.07,1.76.08-1.48.07,1.31.07-1.11L59,134l.07-1.39.07,0,.08-.58.07,0,.07,1.48.08-.68.07.43.07-.44.08-1.72.07.66.15-2.6.22,2.19.07-1.75.07,1.12.29-2.54.15,2.17.07-.15.15-3.82.07-.23.15,3.16.07,1.92.08-.83.07,1.1.15-1.24.07.95.07-2.1.08.2.14-.71.08-1.3.22-7.62.07-1.37.07.22.08.44.07-2.36L62.7,124l.22,4.81.15-.84.07.75.08-1,.07.86.22-2.53.07,1,.08-.47.07-1.85.15,3.2.07.88.07-2.21.08.27.07,2.45.14-3.8.08.64.22-8.57.07,1,.07.8.08,2.41.07-.29.07,1.14.15-7.61.07.3.22,7.54.15,4.64.07-.53.15.66.15-3.69.07,2.89.22-5.56.07-1.44.15-11.93.22,9.68.15-4.82.07,1.06.29-18.08.08,4.76.07,2.46.22,18.66.15,1.54.07-1.34.07,2.14.22-6.27.22,5.61.07.92.08-.92.07,1.19.15-3.2.07,2.36.22-2.47.22,2.21.07-.18.08.42.07,1.74.51-8,.52,9.49.07-1.79.07,1.35.08-3.44.07,1.87.07-1.23.08,1.59.07-.45.07.2.08-3.24.07,1.28.07,1.57.08-1.42.14,3.74.08-1,.07-.31.07-1.12.07.32.08,2.15.14-2.12.08.53.14-1.06.08,1.32.07-3.13.07,1.46.08-1.62.14,1.41.08-.7.07,1.13.07-2.19.08,1.15.22-6.16.07,1.45.07-2.91.22,4.83.08-.09.07.38.07-.84.08,0,.07.54.22-4,.07,1.42.37,5.58.07-5.81.08,2.37.07-1.61.07,4.08.08-1.17.07-1,.15-12.46.21,12.64.15,5.5.07-.32.08,0,.14,2.76.15-3L76,126l.08,1.87.07,0,.15.9.14-1.19.08,1.46.07-2.72.07,1,.3-6.67.07.46.29,6,.08-.12.14,3,.08-.17.07-2.21.07,1.74.08-1.92L77.94,112l.08,9,.07-.34.29,11.24.08-3.06.07,2.84.07-.28.08.24.14,3,.07-2.39.08.38.14-.42.08,1.7.14-2.61.15,3,.07-2.3.08,1.48.07-1.43.15,1.9.07-1.86.07.22.08-.75.14-20.08.08,7.29.07-.39.37,15.87.07-.72.07.15L81,136l.07,0,.07-1.13.08.11.07,1.18.07-1.6.08,1.28.07-.66.07-1.12.08.37.07,1,.07-.59.08,1.26.07-1.81.22,2.45.15,1.72.07-.38.15.05.07-2.37.07,1,.07.59.08-1.05.07.84.07-1.24.08,2,.14-3.31.22,1.59.08,0,.07.5.07-.11.08-1,.07.57.29-3.47.22-5.32.22,4.64.08-.82.07.33.07,1.06.22-6.71.08-.37.29-7,.07.61.15,6.92.29,9.72.08-.25.14,3.19.08-1.06.07,1.1.07-.88.07,3,.08-2.76.07.9.07.69.22-2,.3,2.59.07-.75.07.06.08.36.22-2.13.07,1.88.07-.55.15-2.45.07,1.5.08-.66.07.26.07,1.28.15-2.32.07-1.27.08,2.38.14-1.63.08-.16.07-1,.07,3.25.08-.32.07.31.07-1.21.08,1.15.07-.27.07.29.08-.53.07,1.37.07-.22.15.46.07-.57.08-2,.07.42.07,1.77.08-4.2.07,3.1.07-1,.07.47.15-.8.07,1.9.08-2.45.07.4.07,0,.22-5.12.15.66.22-6.41.07.84.08.56.07,2.11.07-.13.08-.29.07.05.07.22.22,4.42.15,2.76.07-.78.15,1.79.15-1.19.14,2.25L92.6,140l.07-1.19.07,1.43.15-3,.07,2.14.08-1.06.14.13.08,1.81.14-1.79.15,1.73.07,0,.07-1.95.08,1.94.14-2.38.08.66.07-.13.15-.29.07-.73.07.71.15-1.41.07,1.45.08-.64.07.56.22-5.79.07-1,.15-11.68.15,9.8.07-2.43.22,7.45.15,1.39.07,2L96,134.8l.07,1.72.07-.61.3-7,.14-4.48.08.17.07-.06.07-1.79.3,5.1.07-.27.14-1.63.22,6.14.08-1.79.07,1.11.07-.34.08-2.62.07-11.64L97.94,46,98,82.43l.07,36.91.07-23.28.08,11.82.14,26.19.08.89.07-1,.29-17.09.08-.84.44,15.74.07-.24.07-.55.08.31.07,1,.22,6.2.07.27.08,1.7.07-.86.07.44.08-.79.07,1.78.07-3.26.08,2.1.07-.4.07-.86.08.59.07-2,.15,1.92.14-.68.07,1.37.08-.68.07-.71.22-4.11.07,1.35.08-2.77.07,2.52.15-2.42.07-.47.15,3,.07-1.55.15,1.19.07-2.05.07.95.08,1.67.22-6.14.14-25,.08,19.39.07-.62.07-4.44.22,18.64.15-.85.07,1.85.15-3.4.15.91.29-6.79.07-.3.08-2.64.07.69.22,4.13.22,1.41.07-.09.07-.28.08-1.94.07.55.15-1.35.07-1.46.07,2.81.52-10.23.36,3.73.08,3.61.07-.34.07.77.08-1.23.07,1.81.07-1.41.08.79.22-8.92.14,1.19.3,9.72.07-1.52.07.9.22-2.36.15,3.07.07.9.22,4.58.08,0,.14-1.26.07,1.66.08-.84.07.71.07-1.73.08.09.07,1.53.15-3.27.07,2.05.07-1.17.08,1.55.14-2.74.08,2.28.22-7.29.14.28.22,3.78.08-.46.07-.27.07-.73.22-4.37.22,8,.08.29.07-.55.22,6,.07-.26.15.66.15,1.24.29-4.37.36,5.78.08-.79.14-.84.3,2.25.07.22.07-2.16.15,1.23.07-.11.22-2.23.15.49.07.17.08-1.58.22,2.87.07-2.68.07,1.44.08-.68.14-1,.15.24.07,2.06.08-.88.07-.12.07-.95.08.54.14-2.32.08.48.14-3,.08-5,.07,2,.15,4.95.07-.93.15,3.86.07-.22.07,3.51.08-2.4.07,1.48.07-.62.07-.9.15,1,.07-1.35.08.31.07,2.54.07-1.41.15,2.39.15-1,.07,2.17.07-.18.08-1.55.07,1.13.22-1.79.07,1.17.08-2.74.14,3.07.08-1.86.07.54.07-1.07.08.2.07,1.71.07-.34.08-.2.22,4.07.07-1.66.07,1.13.22-1.3.08.5.14-2.65.08,3,.14-3.22.15.84.07,0,.08-.37.07.8.14-2.15.22,2.26.08,0,.07,1,.07-.41.08-.53.07.28.07.69.08-.44.07-1.24.07,1.24.08-.45.14.05.08,1.37.07-2.56.15,1.83.22-.68.29,1.89.15-.93.07.05.29,3,.08-.53.22.45.22-2,.07.75.15-2.18.07,1.5.07-.53.29,2.12.08-.62.14,1.9.08-.29.07-.26.07,1.12.08-.22.07.24.15-1.56.07.33.15-2.36.14,1.65.08,1.53.14-1.9.08-.11.07,2.52.07-.76.08-1.81.07,1,.15-5,.29,4.25.07-1,.22,1.3.08,2.39.07-.84.22-1,.07.91.08-1.62.07,1,.07-1,.08,2,.07-.86.22,1.17.44-7.95.07.61.22,2.54.07-.39.15,2.56.22,2.12.07,1.64.08-.76.07.2.07-1.34.08,1.76.22-3,.07.84.15-2,.07,1.6.15-10.83.07,4.58.07,5.36.08-.44.07-3.34.22,5.44.07-.38.15,1.73.07-.89.08.2.07-.48.07.32.08-.11.07,1.37.07-2.11L130,151l.07-.92.07,1.21.08-.91.07,1.92.07-.74.07-.42.15,1.06.07-2.06.08,1.73.07-1.13.07,1.13.15-.93.22-.34.07-.15.08-2.28.07,1,.15-.88.07,1.47.07-.32.08.74.07-.28.07-.16.08.4.07-.7.22,2.4.07-1.63.08,1.12.22-1.67.07-.11.07.53.22-1,.08-1.54.07.49.22.79.07.07.08-.4.07.26.07-.31.08,1.64.14-1.42.08,1.58.07-2.92.07,1.76.07-.17.08.62.07-1.92.07,2.11.08-2,.07,2.34.07-1.46.08.31.14.75.08-1.86.07.45.07.5.22-5.47.08,1.05.07,3.45.07-1.17.08.73.07-.84.07.13.22,2.7.08.17.07,1.24.15-2.14.14,1.85.08.56.14-1.51.08.71.29-1.81.15,1.52.07-.71.07.6.08-1,.14,1.9.15-1.06.07.73.66-5.19.07-3.36.08.6.14,4.08.08-1,.07-1.21.29,4.41.08-1.43.14,1.88.15-2.41.07-.31.08,2.71.07-.92.07.15.08-.59.14,1.81.08-1.48.14,1.77.15-1.68.07,0,.15-2.32.07,2.61.08-.13h.07l.07,1.24.08-1.65.14,3,.08-.16.07-1.68.07,2.5.07-1.06.08-.09.07,1.12.07-2.29.08,1.1.07-1.06.07.36.08.72.22-1,.07.18.07,1.06.08-.05.29-1.43.07.07.08,1.19.07-.73.07.18.08-.33.07.84.07-1.46.08,2.69.07-.42.07-.24.08-.82.07.38.07.88.08-.73.07.67.07-1,.08.21.29.85.29-3.63.08.66.14-.79.22,3.56.15-1.35.14,2.12.08-.07.07-.28.07.26.08-.26.07,1.79.07-.62.08.11.14-.76.08.47.07-1.15.07.46.08-.64.07,1.75.07-.68.08-2.37.07,2,.07-1,.08,1.19.07-.35.15.95.07-1.64.22,2.39.07-2,.22,1.89.15.27.07-1.17.08.48.07-.28.07-1.81.08.19.22,1.59.07-.32.07,0,.15,1.86.07-1.15.08.41.07.42.07-1.1.07.57.08-.39.14,1.45.08-1,.07,1.19.07-2.23.08,2.59.07-1.32.15-.89.07.31.22-1.15.07.47.15-.84.15-.23.36,1.42.08-.46.22,2.09.07-1.37.07.58.08.24.07-.06.15-.93.22,2.62.14-5,.15,1.86.07-1.13L152,153l.07-.57.07.84.08-1.13.14,1.77.08-.55.14,1.3.07,1.41.08-.6.07-1.43L153,156l.07.26.07-.84.08.42.07-.52.07.66.08-.18.14.89.08-.49.07-1.37.07,1.21.22-1.45.08,1.06.07-.34.15-.63.22,1.05.07-.55.07.87.08-.11.22-1.69.22,1.18.07-1.22.07.13.08,1.81.07-.42.07-1.45.08.55.07-.27.22,1.46.07-.33.08.07.07-.16.14.66.08.12.07-.22.07-1,.08-3.37.14,3.48.08-.32.07.66.07-.42.08-1.11.22,1.68.07.33.07-1,.08,1.17.14-2,.15,2.17.07-1,.08.07.07-.11.07.09.08-.16.07.31.07-.53.08.73.07-.16.07,0,.08,1.28.14-.88.15.93.22-1,.07.07.22,1.35.08-1.37.07,1,.07-.31.15-1.63.07.46.07-1.43.08,1.68.07-.8.15-.66.14.46.08.42.14-1.65.08,1.5.07-.42.07-1.06.22,2.2.08-.26.14-1.22.15,1.06.07-.15.08.25.14,1.17h.08l.07.81.15-.68.22,2.09.07-2.07.07,1.17.15-.84.07.36.08-.74.07.64.07-.08.08-.47.14.76.08-.76.07.75.07-.83.08,1.54.07-1.61.07.44.15,1,.14-.71.15.79.07-.5.08-1.31.07.47.07-.49.15,1.5.07-1.15.08,1.57.07-1,.07.29.08-.07.07.36.07-.33.08,1.06.07-.31.07-.44.15.44.07-.22.08.42.14-1.82.08,1.6.14-1.15.08.64.22-1.59.07,1,.07-1.55.15,2.46.07-1.86.08,2.16.07-.84.07.91.15-1.81.07.6.08,1,.14-1.41.15,1.36.07-.13.07-.77.15,1.48.15-1.35.14.91.15-.33.22.53.07-.12.08-1.06.07,1.38.07-.69.08.53.07-.66.07.61.08-.33.07,0,.07.06.08-.26.07-1.22.07,1.93.08-.76.07.18.07-.29.08,1.46.14-3.11.22,2,.08-.88.07.22.15.75.07-1,.07.24.08-.2.07.53.07-.64.22,1.24.08.14.07-.93.07.13.15-.75.14,1.61.22-1.88.08.14.07-1.81.22,2.6.07.24.08-1.25.07.22.07,2,.08-.73.07.69.15-.49.07.11.07.4.08-.18.07.27.07-1.26.08,1.26.07-.25.15-.55.22,1.5.22-1.45.07.86.07-.6.08.24.07,1.06.15-1.37.07.49.07,0,.15-.27.22,1.18.29-1.59.07,1,.15-2,.07-.12.08-.48.07.09.15,1,.07-.24.15-.91.22,2.19.44-1.5.14-5,.08,4.62.07,0,.07,1.15.08-.33.14-3.69.3,4.27.14-1.48.08,0,.07-.31.07.35.15-.61.07.68.08-1.46.07.38.15-.27.07.27.07-.34.08.29.07-1,.07.83.08-.17.21-2.27.08,1.21.07-.42.07-.58.08,1.51.07-.49.15-1.77.07-.33.07,1.09.08-1.37.07.33.29-1.83.15.81.07-.37.08-1.53.14,1.72.08-1.58.07,1.23.07-1.17.08,1.06.07-1.21.07.42.22,1.78.08-.08.14-1,.15,1.85.15-1.65.14,2.14.22-1.24.15.91.15.4.07-.33.07.75.15-1.11.07,1,.07-.2.08.12.14,1.25.08-1.8.07,1.17.07-.49.08-.36.07,1.84.07-.25.08-.15.07-.82.07,1.09.08-.29.07-.71.15,1.51.07,0,.07-.38.22,1.28.15-1,.07,1.26.08-1.3.07,1.19.07-1.12.15,2.42.07-2.53.08,1.06.14,1.39.08-1.15.14,1.63.08-.28.14.26.08-.64.14,1.46.08-1.72.07,1.23.07-.39.07-.34.08,2.24.07-.87.07.2.15-.9.07.7.08-.11.14-2.6.37,2.47.07-2.08.15,2.35.07-.53H187l.07.42.07,0,.08.14.07-.32.07.71.15-.62.15.95.07-.77.07,1.08.08-1.5.07.53.07-.42.15,1,.07-1,.08,1.45.07-1.25.22,2.27.15-1.23.07-.18.15.93.07-.89.07,1,.08-2,.07,1.63.07-.13.07.66.08,0,.07-.43.22.75.07-.75.08,0,.07-.24.07,1.45.15-1.83.22,1.48.07.07.15-1.53.07.8h0"/></g></g><g id="patch_3" data-name="patch 3"><path class="cls-11" d="M23.41,170.28V7.2"/></g><g id="patch_4" data-name="patch 4"><path class="cls-11" d="M23.41,170.28h167.4"/></g></g></g></svg>