<svg xmlns="http://www.w3.org/2000/svg" xmlns:xlink="http://www.w3.org/1999/xlink" width="198.01" height="204.93" viewBox="0 0 198.01 204.93"><defs><style>.cls-1,.cls-10,.cls-11,.cls-6,.cls-7,.cls-8,.cls-9{fill:none;}.cls-2{fill:#fff;}.cls-10,.cls-11,.cls-3,.cls-4{stroke:#000;}.cls-10,.cls-3,.cls-4,.cls-6,.cls-7,.cls-8,.cls-9{stroke-linejoin:round;}.cls-11,.cls-3{stroke-width:0.8px;}.cls-4{stroke-width:0.6px;}.cls-5{clip-path:url(#clip-path);}.cls-6{stroke:#478d02;}.cls-10,.cls-11,.cls-6,.cls-7,.cls-8,.cls-9{stroke-linecap:square;}.cls-10,.cls-6,.cls-7,.cls-8,.cls-9{stroke-width:0.5px;}.cls-7{stroke:#008068;}.cls-8{stroke:#00699c;}.cls-9{stroke:#02458d;}.cls-12{fill:#02458d;}.cls-13{fill:#00699c;}.cls-14{fill:#008068;}.cls-15{fill:#478d02;}</style><clipPath id="clip-path"><rect class="cls-1" x="23.41" y="7.2" width="167.4" height="163.08"/></clipPath></defs><g id="Layer_1" data-name="Layer 1"><g id="patch_1" data-name="patch 1"><path class="cls-2" d="M0,204.93H198V0H0Z"/></g><g id="axes_1" data-name="axes 1"><g id="patch_2" data-name="patch 2"><path class="cls-2" d="M23.41,170.28h167.4V7.2H23.41Z"/></g><g id="matplotlib.axis_1" data-name="matplotlib.axis 1"><g id="xtick_1" data-name="xtick 1"><g id="line2d_1" data-name="line2d 1"><path id="m8c984da01d" class="cls-3" d="M37.36,170.28v3.5"/></g><g id="text_1" data-name="text 1"><path id="DejaVuSans-31" d="M33.26,182.69h1.29v-4.45l-1.4.29v-.72l1.39-.28h.79v5.16h1.29v.67H33.26Z"/><path id="DejaVuSans-30" d="M39.9,178.05a1,1,0,0,0-.91.6,5.38,5.38,0,0,0,0,3.6,1,1,0,0,0,1.83,0,5.38,5.38,0,0,0,0-3.6A1,1,0,0,0,39.9,178.05Zm0-.63a1.68,1.68,0,0,1,1.5.78,4,4,0,0,1,.52,2.25,4,4,0,0,1-.52,2.25,1.84,1.84,0,0,1-3,0,4,4,0,0,1-.52-2.25,4,4,0,0,1,.52-2.25A1.67,1.67,0,0,1,39.9,177.42Z"/></g></g><g id="xtick_2" data-name="xtick 2"><g id="line2d_2" data-name="line2d 2"><path id="m8c984da01d-2" data-name="m8c984da01d" class="cls-3" d="M65.26,170.28v3.5"/></g><g id="text_2" data-name="text 2"><path id="DejaVuSans-32" d="M61.71,182.69h2.75v.67h-3.7v-.67L62,181.45l1-1a4.1,4.1,0,0,0,.52-.72,1.3,1.3,0,0,0,.16-.58,1,1,0,0,0-.33-.76,1.21,1.21,0,0,0-.85-.3,2.77,2.77,0,0,0-.78.13,5.06,5.06,0,0,0-.88.39v-.79a5.1,5.1,0,0,1,.89-.29,3,3,0,0,1,.75-.1,2.19,2.19,0,0,1,1.45.45,1.52,1.52,0,0,1,.54,1.21,1.81,1.81,0,0,1-.14.69,3.48,3.48,0,0,1-.49.76l-.62.65Z"/><path id="DejaVuSans-30-2" data-name="DejaVuSans-30" d="M67.8,178.05a1,1,0,0,0-.91.6,5.38,5.38,0,0,0,0,3.6,1,1,0,0,0,1.83,0,5.38,5.38,0,0,0,0-3.6A1,1,0,0,0,67.8,178.05Zm0-.63a1.68,1.68,0,0,1,1.5.78,4,4,0,0,1,.52,2.25,4,4,0,0,1-.52,2.25,1.84,1.84,0,0,1-3,0,4,4,0,0,1-.52-2.25,4,4,0,0,1,.52-2.25A1.67,1.67,0,0,1,67.8,177.42Z"/></g></g><g id="xtick_3" data-name="xtick 3"><g id="line2d_3" data-name="line2d 3"><path id="m8c984da01d-3" data-name="m8c984da01d" class="cls-3" d="M93.16,170.28v3.5"/></g><g id="text_3" data-name="text 3"><path id="DejaVuSans-33" d="M91.32,180.21a1.5,1.5,0,0,1,.88.51,1.43,1.43,0,0,1,.32.94,1.63,1.63,0,0,1-.59,1.34,2.7,2.7,0,0,1-1.69.47,4,4,0,0,1-.76-.07,5.35,5.35,0,0,1-.8-.22v-.76a2.86,2.86,0,0,0,.72.29,3.61,3.61,0,0,0,.82.1,1.83,1.83,0,0,0,1.13-.3,1,1,0,0,0,.38-.85,1,1,0,0,0-.36-.8,1.51,1.51,0,0,0-1-.29h-.68v-.65h.71a1.43,1.43,0,0,0,.89-.24.79.79,0,0,0,.31-.67.81.81,0,0,0-.32-.68,1.49,1.49,0,0,0-.91-.25,3.58,3.58,0,0,0-.7.08,6.08,6.08,0,0,0-.81.21v-.7c.3-.08.58-.14.84-.19a4.91,4.91,0,0,1,.74-.06,2.26,2.26,0,0,1,1.42.41,1.32,1.32,0,0,1,.52,1.1,1.25,1.25,0,0,1-.27.82A1.45,1.45,0,0,1,91.32,180.21Z"/><path id="DejaVuSans-30-3" data-name="DejaVuSans-30" d="M95.7,178.05a1,1,0,0,0-.91.6,5.38,5.38,0,0,0,0,3.6,1,1,0,0,0,1.83,0,5.38,5.38,0,0,0,0-3.6A1,1,0,0,0,95.7,178.05Zm0-.63a1.68,1.68,0,0,1,1.5.78,4,4,0,0,1,.52,2.25,4,4,0,0,1-.52,2.25,1.84,1.84,0,0,1-3,0,4,4,0,0,1-.52-2.25,4,4,0,0,1,.52-2.25A1.67,1.67,0,0,1,95.7,177.42Z"/></g></g><g id="xtick_4" data-name="xtick 4"><g id="line2d_4" data-name="line2d 4"><path id="m8c984da01d-4" data-name="m8c984da01d" class="cls-3" d="M121.06,170.28v3.5"/></g><g id="text_4" data-name="text 4"><path id="DejaVuSans-34" d="M119,178.21l-2,3.12h2Zm-.2-.68h1v3.8h.83V182h-.83v1.38H119V182h-2.63v-.76Z"/><path id="DejaVuSans-30-4" data-name="DejaVuSans-30" d="M123.6,178.05a1,1,0,0,0-.91.6,5.38,5.38,0,0,0,0,3.6,1,1,0,0,0,1.83,0,5.38,5.38,0,0,0,0-3.6A1,1,0,0,0,123.6,178.05Zm0-.63a1.68,1.68,0,0,1,1.5.78,4,4,0,0,1,.52,2.25,4,4,0,0,1-.52,2.25,1.84,1.84,0,0,1-3,0,4,4,0,0,1-.52-2.25,4,4,0,0,1,.52-2.25A1.67,1.67,0,0,1,123.6,177.42Z"/></g></g><g id="xtick_5" data-name="xtick 5"><g id="line2d_5" data-name="line2d 5"><path id="m8c984da01d-5" data-name="m8c984da01d" class="cls-3" d="M149,170.28v3.5"/></g><g id="text_5" data-name="text 5"><path id="DejaVuSans-35" d="M144.73,177.53h3.1v.66h-2.37v1.43a1.89,1.89,0,0,1,.34-.09,2,2,0,0,1,.34,0,2.17,2.17,0,0,1,1.55.54,1.9,1.9,0,0,1,.57,1.45,1.86,1.86,0,0,1-.58,1.46,2.43,2.43,0,0,1-1.66.52,4.89,4.89,0,0,1-1.53-.25v-.79a2.76,2.76,0,0,0,.72.28,3,3,0,0,0,.8.1,1.54,1.54,0,0,0,1.07-.36,1.23,1.23,0,0,0,.39-1,1.25,1.25,0,0,0-.39-1,1.58,1.58,0,0,0-1.07-.35,2.7,2.7,0,0,0-.63.07,2.93,2.93,0,0,0-.65.22Z"/><path id="DejaVuSans-30-5" data-name="DejaVuSans-30" d="M151.5,178.05a1,1,0,0,0-.91.6,5.38,5.38,0,0,0,0,3.6,1,1,0,0,0,1.83,0,5.38,5.38,0,0,0,0-3.6A1,1,0,0,0,151.5,178.05Zm0-.63a1.68,1.68,0,0,1,1.5.78,4,4,0,0,1,.52,2.25,4,4,0,0,1-.52,2.25,1.84,1.84,0,0,1-3,0,4,4,0,0,1-.52-2.25,4,4,0,0,1,.52-2.25A1.67,1.67,0,0,1,151.5,177.42Z"/></g></g><g id="xtick_6" data-name="xtick 6"><g id="line2d_6" data-name="line2d 6"><path id="m8c984da01d-6" data-name="m8c984da01d" class="cls-3" d="M176.86,170.28v3.5"/></g><g id="text_6" data-name="text 6"><path id="DejaVuSans-36" d="M174.41,180.13a1.06,1.06,0,0,0-.84.36,1.48,1.48,0,0,0-.31,1,1.45,1.45,0,0,0,.31,1,1,1,0,0,0,.84.37,1,1,0,0,0,.84-.37,1.45,1.45,0,0,0,.31-1,1.48,1.48,0,0,0-.31-1A1,1,0,0,0,174.41,180.13Zm1.57-2.48v.72a3.57,3.57,0,0,0-.6-.21,2.47,2.47,0,0,0-.6-.08,1.45,1.45,0,0,0-1.2.53,2.89,2.89,0,0,0-.47,1.6,1.72,1.72,0,0,1,.58-.53,1.65,1.65,0,0,1,.77-.18,1.83,1.83,0,0,1,1.39.54,2,2,0,0,1,.51,1.45,2,2,0,0,1-.53,1.44,1.91,1.91,0,0,1-1.42.54,1.79,1.79,0,0,1-1.55-.77,4,4,0,0,1-.53-2.25,3.44,3.44,0,0,1,.66-2.21,2.14,2.14,0,0,1,1.76-.82,3.21,3.21,0,0,1,.6.06A6,6,0,0,1,176,177.65Z"/><path id="DejaVuSans-30-6" data-name="DejaVuSans-30" d="M179.4,178.05a1,1,0,0,0-.91.6,5.38,5.38,0,0,0,0,3.6,1,1,0,0,0,1.83,0,5.38,5.38,0,0,0,0-3.6A1,1,0,0,0,179.4,178.05Zm0-.63a1.68,1.68,0,0,1,1.5.78,4,4,0,0,1,.52,2.25,4,4,0,0,1-.52,2.25,1.84,1.84,0,0,1-3,0,4,4,0,0,1-.52-2.25,4,4,0,0,1,.52-2.25A1.67,1.67,0,0,1,179.4,177.42Z"/></g></g><g id="xtick_7" data-name="xtick 7"><g id="line2d_7" data-name="line2d 7"><path id="m29b7ffab91" class="cls-4" d="M23.41,170.28v2"/></g></g><g id="xtick_8" data-name="xtick 8"><g id="line2d_8" data-name="line2d 8"><path id="m29b7ffab91-2" data-name="m29b7ffab91" class="cls-4" d="M30.39,170.28v2"/></g></g><g id="xtick_9" data-name="xtick 9"><g id="line2d_9" data-name="line2d 9"><path id="m29b7ffab91-3" data-name="m29b7ffab91" class="cls-4" d="M44.34,170.28v2"/></g></g><g id="xtick_10" data-name="xtick 10"><g id="line2d_10" data-name="line2d 10"><path id="m29b7ffab91-4" data-name="m29b7ffab91" class="cls-4" d="M51.31,170.28v2"/></g></g><g id="xtick_11" data-name="xtick 11"><g id="line2d_11" data-name="line2d 11"><path id="m29b7ffab91-5" data-name="m29b7ffab91" class="cls-4" d="M58.29,170.28v2"/></g></g><g id="xtick_12" data-name="xtick 12"><g id="line2d_12" data-name="line2d 12"><path id="m29b7ffab91-6" data-name="m29b7ffab91" class="cls-4" d="M72.24,170.28v2"/></g></g><g id="xtick_13" data-name="xtick 13"><g id="line2d_13" data-name="line2d 13"><path id="m29b7ffab91-7" data-name="m29b7ffab91" class="cls-4" d="M79.21,170.28v2"/></g></g><g id="xtick_14" data-name="xtick 14"><g id="line2d_14" data-name="line2d 14"><path id="m29b7ffab91-8" data-name="m29b7ffab91" class="cls-4" d="M86.19,170.28v2"/></g></g><g id="xtick_15" data-name="xtick 15"><g id="line2d_15" data-name="line2d 15"><path id="m29b7ffab91-9" data-name="m29b7ffab91" class="cls-4" d="M100.14,170.28v2"/></g></g><g id="xtick_16" data-name="xtick 16"><g id="line2d_16" data-name="line2d 16"><path id="m29b7ffab91-10" data-name="m29b7ffab91" class="cls-4" d="M107.11,170.28v2"/></g></g><g id="xtick_17" data-name="xtick 17"><g id="line2d_17" data-name="line2d 17"><path id="m29b7ffab91-11" data-name="m29b7ffab91" class="cls-4" d="M114.09,170.28v2"/></g></g><g id="xtick_18" data-name="xtick 18"><g id="line2d_18" data-name="line2d 18"><path id="m29b7ffab91-12" data-name="m29b7ffab91" class="cls-4" d="M128,170.28v2"/></g></g><g id="xtick_19" data-name="xtick 19"><g id="line2d_19" data-name="line2d 19"><path id="m29b7ffab91-13" data-name="m29b7ffab91" class="cls-4" d="M135,170.28v2"/></g></g><g id="xtick_20" data-name="xtick 20"><g id="line2d_20" data-name="line2d 20"><path id="m29b7ffab91-14" data-name="m29b7ffab91" class="cls-4" d="M142,170.28v2"/></g></g><g id="xtick_21" data-name="xtick 21"><g id="line2d_21" data-name="line2d 21"><path id="m29b7ffab91-15" data-name="m29b7ffab91" class="cls-4" d="M155.94,170.28v2"/></g></g><g id="xtick_22" data-name="xtick 22"><g id="line2d_22" data-name="line2d 22"><path id="m29b7ffab91-16" data-name="m29b7ffab91" class="cls-4" d="M162.91,170.28v2"/></g></g><g id="xtick_23" data-name="xtick 23"><g id="line2d_23" data-name="line2d 23"><path id="m29b7ffab91-17" data-name="m29b7ffab91" class="cls-4" d="M169.89,170.28v2"/></g></g><g id="xtick_24" data-name="xtick 24"><g id="line2d_24" data-name="line2d 24"><path id="m29b7ffab91-18" data-name="m29b7ffab91" class="cls-4" d="M183.84,170.28v2"/></g></g><g id="xtick_25" data-name="xtick 25"><g id="line2d_25" data-name="line2d 25"><path id="m29b7ffab91-19" data-name="m29b7ffab91" class="cls-4" d="M190.81,170.28v2"/></g></g><g id="text_7" data-name="text 7"><path id="DejaVuSans-54" d="M61.27,189.3h5.55v.75H64.49v5.81H63.6v-5.81H61.27Z"/><path id="DejaVuSans-77" d="M65.69,190.94h.8l1,3.84,1-3.84h.95l1,3.84,1-3.84h.81L71,195.86h-1l-1.06-4-1.06,4H67Z"/><path id="DejaVuSans-6f" d="M75.42,191.51a1.25,1.25,0,0,0-1,.5,2.81,2.81,0,0,0,0,2.79,1.23,1.23,0,0,0,1,.5,1.22,1.22,0,0,0,1-.51,2.78,2.78,0,0,0,0-2.77A1.22,1.22,0,0,0,75.42,191.51Zm0-.69a2.08,2.08,0,0,1,1.66.69,3.29,3.29,0,0,1,0,3.79,2.34,2.34,0,0,1-3.32,0,3.29,3.29,0,0,1,0-3.79A2.09,2.09,0,0,1,75.42,190.82Z"/><path id="DejaVuSans-20" d="M78.17,195.86"/><path id="DejaVuSans-54-2" data-name="DejaVuSans-54" d="M81,189.3h5.55v.75H84.23v5.81h-.89v-5.81H81Z"/><path id="DejaVuSans-68" d="M91.47,192.89v3h-.81v-2.94a1.69,1.69,0,0,0-.27-1,1,1,0,0,0-.82-.35,1.32,1.32,0,0,0-1,.42,1.65,1.65,0,0,0-.38,1.14v2.78h-.81V189h.81v2.68a2.06,2.06,0,0,1,.69-.66,1.77,1.77,0,0,1,.9-.22,1.58,1.58,0,0,1,1.29.53A2.36,2.36,0,0,1,91.47,192.89Z"/><path id="DejaVuSans-65" d="M97.3,193.2v.39H93.58a1.87,1.87,0,0,0,.5,1.28,1.73,1.73,0,0,0,1.25.43,3.84,3.84,0,0,0,.91-.11,4.47,4.47,0,0,0,.87-.34v.76a4.7,4.7,0,0,1-.9.28,4.05,4.05,0,0,1-.92.1,2.52,2.52,0,0,1-1.87-.69,2.47,2.47,0,0,1-.69-1.85,2.7,2.7,0,0,1,.66-1.92,2.28,2.28,0,0,1,1.76-.71,2,2,0,0,1,1.57.64A2.54,2.54,0,0,1,97.3,193.2Zm-.81-.24a1.58,1.58,0,0,0-.37-1.06,1.28,1.28,0,0,0-1-.39,1.49,1.49,0,0,0-1.08.38A1.64,1.64,0,0,0,93.6,193Z"/><path id="DejaVuSans-74" d="M99.42,189.54v1.4h1.67v.63H99.42v2.67a1.18,1.18,0,0,0,.17.77.92.92,0,0,0,.67.17h.83v.68h-.83a1.83,1.83,0,0,1-1.29-.35,1.75,1.75,0,0,1-.36-1.27v-2.67H98v-.63h.59v-1.4Z"/><path id="DejaVuSans-61" d="M104.39,193.39a2.88,2.88,0,0,0-1.36.22.83.83,0,0,0-.38.77.88.88,0,0,0,.29.68,1.08,1.08,0,0,0,.77.25,1.34,1.34,0,0,0,1.08-.48,1.87,1.87,0,0,0,.4-1.26v-.18Zm1.61-.34v2.81h-.81v-.75a1.77,1.77,0,0,1-.69.67,2.19,2.19,0,0,1-1,.21,1.65,1.65,0,0,1-1.2-.43,1.66,1.66,0,0,1,.11-2.38,2.72,2.72,0,0,1,1.66-.43h1.13v-.08a1.06,1.06,0,0,0-.36-.86,1.61,1.61,0,0,0-1-.3,3.23,3.23,0,0,0-.82.1,3.32,3.32,0,0,0-.77.3v-.75a5.43,5.43,0,0,1,.86-.25,3.88,3.88,0,0,1,.82-.09,2.09,2.09,0,0,1,1.59.56A2.28,2.28,0,0,1,106,193.05Z"/><path id="DejaVuSans-20-2" data-name="DejaVuSans-20" d="M106.82,195.86"/><path id="DejaVuSans-28" d="M112.47,189a9.62,9.62,0,0,0-.88,2,7.23,7.23,0,0,0-.28,2,7,7,0,0,0,.29,2,8.86,8.86,0,0,0,.87,2h-.7a9.23,9.23,0,0,1-1-2,6.32,6.32,0,0,1-.33-2,6.23,6.23,0,0,1,.33-2,8.42,8.42,0,0,1,1-2Z"/><path id="DejaVuSans-64" d="M117.28,191.69V189h.81v6.84h-.81v-.74a1.72,1.72,0,0,1-.65.66,1.94,1.94,0,0,1-.93.21,1.76,1.76,0,0,1-1.45-.71,3.42,3.42,0,0,1,0-3.75,1.76,1.76,0,0,1,1.45-.71,1.94,1.94,0,0,1,.93.21A1.72,1.72,0,0,1,117.28,191.69Zm-2.76,1.71a2.29,2.29,0,0,0,.37,1.4,1.17,1.17,0,0,0,1,.51,1.19,1.19,0,0,0,1-.51,2.81,2.81,0,0,0,0-2.79,1.19,1.19,0,0,0-1-.51,1.17,1.17,0,0,0-1,.51A2.27,2.27,0,0,0,114.52,193.4Z"/><path id="DejaVuSans-65-2" data-name="DejaVuSans-65" d="M124,193.2v.39h-3.72a1.93,1.93,0,0,0,.51,1.28,1.71,1.71,0,0,0,1.25.43,3.82,3.82,0,0,0,.9-.11,4.24,4.24,0,0,0,.87-.34v.76a4.83,4.83,0,0,1-.89.28,4.08,4.08,0,0,1-.93.1,2.51,2.51,0,0,1-1.86-.69,2.47,2.47,0,0,1-.69-1.85,2.74,2.74,0,0,1,.65-1.92,2.29,2.29,0,0,1,1.76-.71,2,2,0,0,1,1.57.64A2.49,2.49,0,0,1,124,193.2Zm-.81-.24a1.54,1.54,0,0,0-.37-1.06,1.24,1.24,0,0,0-1-.39,1.49,1.49,0,0,0-1.08.38,1.6,1.6,0,0,0-.47,1.08Z"/><path id="DejaVuSans-67" d="M128.53,193.34a2.18,2.18,0,0,0-.37-1.36,1.19,1.19,0,0,0-1-.48,1.21,1.21,0,0,0-1,.48,2.75,2.75,0,0,0,0,2.72,1.21,1.21,0,0,0,1,.48,1.19,1.19,0,0,0,1-.48A2.16,2.16,0,0,0,128.53,193.34Zm.81,1.91a2.71,2.71,0,0,1-.56,1.87,2.19,2.19,0,0,1-1.71.61,5.23,5.23,0,0,1-.81-.06,3.76,3.76,0,0,1-.73-.2v-.78a3.1,3.1,0,0,0,.7.28,2.82,2.82,0,0,0,.71.09,1.55,1.55,0,0,0,1.19-.41,1.77,1.77,0,0,0,.4-1.25V195a1.7,1.7,0,0,1-.64.66,2,2,0,0,1-.94.21,1.79,1.79,0,0,1-1.46-.69,3.32,3.32,0,0,1,0-3.66,1.79,1.79,0,0,1,1.46-.69,1.89,1.89,0,0,1,.94.22,1.67,1.67,0,0,1,.64.65v-.75h.81Z"/><path id="DejaVuSans-72" d="M133.85,191.69a1,1,0,0,0-.29-.11,1.37,1.37,0,0,0-.36,0,1.28,1.28,0,0,0-1,.45,2,2,0,0,0-.37,1.28v2.59H131v-4.92h.81v.76a1.64,1.64,0,0,1,.67-.66,2,2,0,0,1,1-.22h.18l.23,0Z"/><path id="DejaVuSans-65-3" data-name="DejaVuSans-65" d="M138.71,193.2v.39H135a1.92,1.92,0,0,0,.5,1.28,1.74,1.74,0,0,0,1.26.43,3.82,3.82,0,0,0,.9-.11,4.47,4.47,0,0,0,.87-.34v.76a4.83,4.83,0,0,1-.89.28,4.2,4.2,0,0,1-.93.1,2.54,2.54,0,0,1-1.87-.69,2.51,2.51,0,0,1-.68-1.85,2.69,2.69,0,0,1,.65-1.92,2.28,2.28,0,0,1,1.76-.71,2,2,0,0,1,1.57.64A2.49,2.49,0,0,1,138.71,193.2Zm-.81-.24a1.58,1.58,0,0,0-.37-1.06,1.24,1.24,0,0,0-1-.39,1.49,1.49,0,0,0-1.08.38A1.55,1.55,0,0,0,135,193Z"/><path id="DejaVuSans-65-4" data-name="DejaVuSans-65" d="M144.25,193.2v.39h-3.72a1.87,1.87,0,0,0,.5,1.28,1.74,1.74,0,0,0,1.26.43,3.82,3.82,0,0,0,.9-.11,4.47,4.47,0,0,0,.87-.34v.76a4.7,4.7,0,0,1-.9.28,4.05,4.05,0,0,1-.92.1,2.52,2.52,0,0,1-1.87-.69,2.47,2.47,0,0,1-.69-1.85,2.7,2.7,0,0,1,.66-1.92,2.28,2.28,0,0,1,1.76-.71,2,2,0,0,1,1.57.64A2.54,2.54,0,0,1,144.25,193.2Zm-.81-.24a1.58,1.58,0,0,0-.37-1.06,1.27,1.27,0,0,0-1-.39,1.49,1.49,0,0,0-1.09.38,1.64,1.64,0,0,0-.47,1.08Z"/><path id="DejaVuSans-73" d="M148.71,191.08v.77a2.64,2.64,0,0,0-.71-.26,3.25,3.25,0,0,0-.77-.09,1.78,1.78,0,0,0-.9.18.61.61,0,0,0-.3.56.52.52,0,0,0,.22.44,2.53,2.53,0,0,0,.86.3l.28.06a2.74,2.74,0,0,1,1.22.52,1.24,1.24,0,0,1,.36.94,1.29,1.29,0,0,1-.54,1.09,2.44,2.44,0,0,1-1.49.4,4.74,4.74,0,0,1-.82-.08,7.14,7.14,0,0,1-.91-.23v-.83a5,5,0,0,0,.89.35,3.62,3.62,0,0,0,.86.11,1.67,1.67,0,0,0,.88-.19.63.63,0,0,0,.3-.56.61.61,0,0,0-.22-.5,2.68,2.68,0,0,0-1-.34l-.28-.07a2.13,2.13,0,0,1-1.09-.48,1.22,1.22,0,0,1-.33-.9,1.26,1.26,0,0,1,.49-1.07,2.26,2.26,0,0,1,1.4-.38,4.46,4.46,0,0,1,.84.07A3.89,3.89,0,0,1,148.71,191.08Z"/><path id="DejaVuSans-29" d="M150.14,189h.7a8.75,8.75,0,0,1,1,2,6.23,6.23,0,0,1,.33,2,6.32,6.32,0,0,1-.33,2,8.75,8.75,0,0,1-1,2h-.7a9.87,9.87,0,0,0,.87-2,7.34,7.34,0,0,0,.29-2,7.24,7.24,0,0,0-.29-2A10.11,10.11,0,0,0,150.14,189Z"/></g></g><g id="matplotlib.axis_2" data-name="matplotlib.axis 2"><g id="text_8" data-name="text 8"><path id="DejaVuSans-49" d="M7.48,107.44v-.88H14v.88Z"/><path id="DejaVuSans-6e" d="M11.07,100.73h3v.81H11.09a1.68,1.68,0,0,0-1,.27,1,1,0,0,0-.35.82,1.31,1.31,0,0,0,.42,1,1.6,1.6,0,0,0,1.14.38H14v.81H9.12V104h.76a1.94,1.94,0,0,1-.66-.68,1.8,1.8,0,0,1-.22-.91,1.56,1.56,0,0,1,.52-1.28A2.39,2.39,0,0,1,11.07,100.73Z"/><path id="DejaVuSans-74-2" data-name="DejaVuSans-74" d="M7.72,98.32h1.4V96.65h.63v1.67h2.67a1.26,1.26,0,0,0,.77-.16,1,1,0,0,0,.17-.68v-.83H14v.83a1.87,1.87,0,0,1-.35,1.3,1.8,1.8,0,0,1-1.27.35H9.75v.6H9.12v-.6H7.72Z"/><path id="DejaVuSans-65-5" data-name="DejaVuSans-65" d="M11.38,91.38h.39V95.1A1.87,1.87,0,0,0,13,94.6a1.74,1.74,0,0,0,.44-1.26,3.82,3.82,0,0,0-.11-.9,4,4,0,0,0-.35-.87h.77a5.73,5.73,0,0,1,.28.89,4.9,4.9,0,0,1,.1.93,2.38,2.38,0,0,1-2.54,2.55,2.69,2.69,0,0,1-1.92-.65A2.28,2.28,0,0,1,9,93.53,2,2,0,0,1,9.64,92,2.46,2.46,0,0,1,11.38,91.38Zm-.24.81a1.52,1.52,0,0,0-1.06.37,1.25,1.25,0,0,0-.4,1,1.49,1.49,0,0,0,.39,1.08,1.59,1.59,0,0,0,1.07.47Z"/><path id="DejaVuSans-6e-2" data-name="DejaVuSans-6e" d="M11.07,86h3v.81H11.09a1.68,1.68,0,0,0-1,.27,1,1,0,0,0-.35.82,1.31,1.31,0,0,0,.42,1,1.6,1.6,0,0,0,1.14.38H14v.81H9.12v-.81h.76a1.94,1.94,0,0,1-.66-.68A1.8,1.8,0,0,1,9,87.68a1.56,1.56,0,0,1,.52-1.28A2.39,2.39,0,0,1,11.07,86Z"/><path id="DejaVuSans-73-2" data-name="DejaVuSans-73" d="M9.26,81.21H10a3,3,0,0,0-.35,1.48,1.78,1.78,0,0,0,.18.9.61.61,0,0,0,.55.3.51.51,0,0,0,.44-.21,2.56,2.56,0,0,0,.31-.87l.06-.28a2.63,2.63,0,0,1,.52-1.22,1.24,1.24,0,0,1,.94-.36,1.29,1.29,0,0,1,1.09.54,2.51,2.51,0,0,1,.4,1.49,4.85,4.85,0,0,1-.08.83,7.46,7.46,0,0,1-.23.9H13a3.75,3.75,0,0,0,.35-.88,3.26,3.26,0,0,0,.12-.87,1.6,1.6,0,0,0-.2-.87.61.61,0,0,0-.55-.31.58.58,0,0,0-.5.22,2.68,2.68,0,0,0-.34,1l-.07.29a2.09,2.09,0,0,1-.48,1.08,1.22,1.22,0,0,1-.9.33,1.26,1.26,0,0,1-1.07-.49A2.2,2.2,0,0,1,9,82.78a5.73,5.73,0,0,1,.06-.84A3.89,3.89,0,0,1,9.26,81.21Z"/><path id="DejaVuSans-69" d="M9.12,79.66v-.81H14v.81Zm-1.92,0v-.81h1v.81Z"/><path id="DejaVuSans-74-3" data-name="DejaVuSans-74" d="M7.72,76.36h1.4V74.7h.63v1.66h2.67a1.2,1.2,0,0,0,.77-.16,1,1,0,0,0,.17-.68V74.7H14v.82a1.87,1.87,0,0,1-.35,1.3,1.8,1.8,0,0,1-1.27.35H9.75v.6H9.12v-.6H7.72Z"/><path id="DejaVuSans-79" d="M14.5,71.58a2.92,2.92,0,0,1,1.14.67,1.33,1.33,0,0,1,.27.87v.65h-.68v-.48a.78.78,0,0,0-.15-.51,2,2,0,0,0-.75-.41L14,72.22l-4.84,2v-.86L13,71.82,9.12,70.28v-.86Z"/></g></g><g id="line2d_32" data-name="line2d 32"><g class="cls-5"><path class="cls-6" d="M23.43,139.45l.15-.86h.07l.15.64.07-.12.22,1.38.07-.81.08.9.07-.22.07-.18.08.78.07-.18.07-.17.08.85.07-.41.15.3.07-.2.15.41.07-.51.07.05.15,1.27.07-.78.08.51.07-.45.15.62.07-.3.07,1.1L26,142l.07.74.07,0,.08-.19.07,0,.15.57.07-.9.07.06.08.75.14-.85.22,1.34.08-.78.07,1.15.07-.1.08-.21.07-.85.14,1.1.08-.34.07.06.07.17.15-.84L28,144l.08,0,.14-.55h.08l.14,1.06.08-.82.07.11.07.09.08.36.07-.19.07.29.08-.47.07.56.07-.31.15.48.07-.14.08.12.07-.52.07.06.08.76.07,0,.07.1.15-1.14L30,145l.08-.92.07.16.15.48.07-.07.07-.64.22,1.47.08-.33.07.21.22-.88.22,1.43.14-.68.08.18.07-.75.07.26.08.54.07-.55.07.27.37-1.57.07,1.28.08-.39.14.88.15-.44.07-.48.08,1.47.07-.14.07-.08.08.17.07-1,.07.35.08.61.07-.59.07.41.08-.19.07.12.07-.35.08,0,.14.81.08-.31.07-.44.07.86h.08l.14-.08.08-.22.07-.59.22,1.38.07-1.19.07.6.08-.07.07.43.07-.24.08.18.14-.9.15,1.17.07-.06.15-.49.07-.12.08.15.07-.64.15.83.07-.81.07.87.08-.19.07.16.07-.5.15,1.25.15-.94.07.7.07-.19.08-.14.07-1,.07,1.34.08-.47.07.3.07-.94.08.4.22.86.22-.41.07,0,.07.29.08-.82.07.61.07-.3.08-.33.14,1,.29-1.8.08-4,.07,1.2.15,4.59.07-.58.07.56.08-.64.07.13.15-.28.07.86.07-.33.15.05.15-.4.14.43.08-.1.07-.91.07-2.58.22,3.37.37,1.05.15-1L41,148.6l.07-1.08.07.54.15-1,.22,1.16h.07l.15-.28.07.86L42,148l.07.71.07-.09.08-.76.07,1.22.07-1,.08.17.07.56.07-.59.15,1,.07-.14.08-.06.07-.23.07.13.08-.19.14.31.08,1.06.07-1.28.07.59.08-.61.14.65.08-.09.07.41.22-.82.07-.24.08.69.07-.22.07.26.08-.08.29-.91.15.74.07-.29.29,1.15.08-.12.14.68.15-.53.07,1.06.08-.91.07.46L46,151l.07-.25.07.08.08-.09.07-.38.07.09.08.12.07.36.07-.87.08.39.07-.2.07.92.22-1.61.08.27.07.78.07-.31.08.63.07-.32.22.29.15-1.59.07.09.07,0,.15,1.08h.07l.15,1.1.07-.29.08.3.14-.77.08.22.07.14.07-.76.15.63.29-8.66.08-6,.21,14.47.15.3.29-4.08.08.26.29,5.25.15-.68.14.26.08-.53.07.84.07-.6.08.6.07-.71.07.32.08.51.07-.6.07.12.08,0,.14-.64.08,0,.36-3.09.08-.07.14.42.22,2.44.08-.46.14,1.46.08-.25.07.83.07-.34.08.44.07-.14.22-.95.07.66.07-.31.08.16.07.52.07-.16.08,0,.07.52.07-.31.08.25.07-.08.07-.4.08.21.07,0,.07.19.15-.56.07.84.08-.35.07-.88.07.07.08.32.22-2.87.07.1.22,2.6.29,1.1.08-.6.07.22.07.78.15-.86.22.25.07-.34.08.06.22.27.07-.33.15.5.07-.38.07.18.07.14.08-.4.07.62.22-.84.07.62.08-.5.07.65.07-.31.3-.95.22.38.07-.25.07,1,.08-.68.07.34.15-.4.07.22.07.61.08-.51.07.45.07-.38.08.46.14-.47.15-.18.07.51.08-.24.07.15.07-.15.08-.6.07.23.15-.9.22.76.07-.61.07.39.29-.88.15.75.07-.05.15-1.32.07-.08.15,1.09.07.67.08-.29.07.38.15-.43.07.33.07-.73.08.07.14-.24.08-.45.22-2.65.07-.47.07.08.08.15.07-.82.29,2.52.22,1.67.15-.29.07.26.08-.34.07.3.22-.88.07.33.08-.16.07-.64.15,1.11.07.3.07-.77.08.1.07.85.14-1.32.08.22.22-3,.07.33.07.28.08.84.07-.11.07.4.15-2.64.07.1.22,2.62.15,1.61.07-.19.15.23.15-1.28.07,1,.22-1.92.07-.5.15-4.14.22,3.36.15-1.67.07.36.29-6.26.08,1.65.07.85.22,6.47.15.53.07-.46.07.74.22-2.17.22,1.94.07.32.08-.32.07.41.15-1.11.07.82.22-.85.22.76.07-.06.08.15.07.6.51-2.78.52,3.29.07-.62.07.47.08-1.19.07.64.07-.42.08.55.07-.16.07.07.08-1.12.07.44.07.55.08-.5.14,1.3.08-.35.07-.11.07-.39.07.11.08.75.14-.74.08.19.14-.37.08.46.07-1.09.07.51.08-.56.14.48.08-.24.07.4.07-.76.08.4.22-2.14.07.5.07-1,.22,1.68.08,0,.07.14.15-.29.07.19.22-1.37.07.49.37,1.93.07-2,.08.82.07-.55.07,1.41.08-.41.07-.33.15-4.32.21,4.38.15,1.91.07-.12.08,0,.14.95.15-1,.07.22.15.63.15.32.14-.42.08.51.07-.94.07.36.3-2.31.07.15.29,2.1.08,0,.14,1,.08-.06.07-.77.07.61.08-.67.14-5.37L78,148.9l.07-.12.29,3.9.08-1.06.07,1,.07-.09.08.08.14,1.06.07-.83L79,153l.14-.15.08.59.14-.9.15,1,.07-.8.08.51.07-.49.15.66.07-.65.07.08.08-.26.14-7,.08,2.53.07-.14.37,5.5.07-.25.07,0,.15.77.07-.39.08,0,.07.42.07-.56.08.44.07-.23.07-.38.08.12.07.34.07-.2.08.43.07-.62.22.85.15.59.07-.13.15,0,.07-.83.07.35.07.21.08-.37.07.3.07-.43.08.7.14-1.15.22.55h.08l.07.17.07,0,.08-.34.07.19.29-1.2.22-1.84.22,1.61.08-.29.07.12.07.36.22-2.32.08-.13.29-2.41.07.21.15,2.4.29,3.37.08-.09L86,155l.08-.37.07.38.07-.3.07,1,.08-1,.07.31.07.24.22-.69.3.9.14-.24.08.13.22-.74.07.65.07-.19.15-.85.07.52.08-.23.07.09.07.45.22-1.25.08.83.14-.57.08-.05.07-.34.07,1.13.08-.11.07.1.07-.42.08.4.07-.09.07.1.08-.18.07.47.07-.07.15.15.07-.19.08-.68.07.15.07.61.08-1.46.07,1.08.07-.35.07.17.15-.28.07.66.08-.85.07.14h.07l.22-1.77.15.23.22-2.23.07.3.08.19.07.73.07,0,.15-.09.07.08.22,1.53.15,1,.07-.27.15.62.15-.41.14.77.08.61.07-.42.07.5.15-1,.07.74.08-.37.14.05.08.63.14-.63.22.6.07-.68.08.67.14-.82.08.23.07-.05.15-.1.07-.25.07.25.15-.49.07.5.08-.22.07.19.22-2,.07-.37.15-4,.15,3.39.07-.84.22,2.58.15.49.07.7.15-1,.07.6.07-.21.3-2.42.14-1.55.15,0,.07-.62.3,1.77.14-.37.07-.29.22,2.13.08-.62.07.38.07-.12.08-.9.07-4,.07-24.57L98,135.54l.07,12.79.07-8.07.08,4.1.14,9.08.08.31.07-.35.29-5.92.08-.29.44,5.45.07-.08.07-.19.08.1.07.33.22,2.15.07.1.08.58.07-.29.07.15.08-.27.07.61.07-1.13.08.73.07-.14.07-.29.08.2.07-.7.15.67.14-.24.07.48.08-.24.07-.24.22-1.43.07.47.08-1,.07.87.15-.84.07-.16.15,1,.07-.53.15.41.07-.71.07.33.08.57.22-2.12.14-8.67.08,6.72.07-.22.07-1.54.22,6.46.15-.29.07.64.15-1.18.15.32.29-2.36.07-.1.08-.92.07.24.22,1.43.22.49.14-.12.08-.68.07.19.15-.46.07-.51.07,1,.52-3.54.36,1.29.08,1.25.07-.12.07.27.08-.42.07.62.07-.49.08.28.22-3.09.14.41.3,3.37.07-.53.07.31.22-.82.15,1.07.07.31.22,1.59h.08l.14-.44.07.58.08-.3.07.25.07-.6.08,0,.07.53L109,153l.07.71.07-.41.08.54.14-.95.08.79.22-2.52.14.09.22,1.31.08-.16.14-.34.22-1.52.22,2.76.08.1.07-.19.22,2.08.07-.09.15.23.15.43.29-1.51.36,2,.08-.27.14-.29.3.78.07.07.07-.75.15.43.07,0,.22-.77.15.17.07.06.08-.55.22,1,.07-.94.07.5.08-.23.14-.35.15.08.07.72.08-.3.07-.05.07-.33.08.19.14-.8.08.16.14-1L115,152l.07.69.15,1.71.07-.32.15,1.34.07-.08.07,1.22.08-.83.07.51.07-.22.07-.31.15.35.07-.47.08.11.07.88.07-.49.15.83.15-.35.07.76.07-.06.08-.54.07.39.22-.62.07.4.08-.95.14,1.07.08-.65.07.19.07-.37.08.07.07.59.07-.12.08-.07.22,1.42.07-.58.07.39.22-.45.08.17.14-.91.08,1,.14-1.11.22.28.08-.13.07.28.14-.75.22.79.08,0,.07.34.07-.14.08-.18.07.09.07.24.08-.15.07-.43.07.43.08-.16.14,0,.08.47.07-.88.15.63.22-.23.29.65.22-.3.29,1,.08-.18.07.11.15,0,.22-.68.07.26.15-.75.07.52.07-.19.51,1.18.08-.1.07-.09.07.39.08-.08.07.08.15-.54.07.12.15-.82.22,1.1.14-.65.08,0,.07.87.07-.26.08-.63.07.34.15-1.73.29,1.48.07-.36.22.45.08.83.07-.29.22-.36.07.32.08-.57.07.36.07-.34.08.7.07-.29.22.4.44-2.75.07.21.22.88.07-.14.15.89.22.73.07.57.08-.26.07.07.07-.46.08.6.22-1,.07.29.15-.69.07.56.15-3.76.07,1.59.07,1.86.08-.16L129,157l.22,1.89.07-.13.15.6.07-.31.08.07.07-.16.07.1.08,0,.07.47.07-.73.08.58.07-.32.07.42.08-.32.07.67.07-.26.07-.14.15.37.07-.72.08.6.07-.39.07.39.15-.32.29-.17.08-.79.07.34.15-.3.07.51.07-.11.08.25.07-.09.07-.06.08.14.07-.24.22.83.07-.56.08.38.22-.57.07,0,.07.18.08-.1.07,0,.15-.8.07.17.22.28.07,0,.08-.14.07.09.07-.11.08.57.14-.49.08.55.07-1,.07.61.07-.06.08.21.07-.66.07.73.08-.7.07.81.07-.51.08.11.14.26.08-.64.07.15.07.18.22-1.9.08.36.07,1.2.07-.41.08.26.07-.29.07,0,.22.94.08.06.07.43.15-.75.22.84.07-.39.07-.13.08.24.29-.62.15.52.07-.25.07.21.08-.34.14.66.15-.37.07.26.66-1.8.07-1.17.08.21.14,1.41.08-.33.07-.41.29,1.52.08-.49.14.65.15-.84.07-.1.08.93.07-.31.07.05.08-.2.14.62.08-.51.14.61.3-1,.07-.39.07.9.08,0h.07l.07.43.08-.57.14,1,.08-.06.07-.58.07.87.07-.37.08,0,.07.39.07-.8.08.38.07-.36.07.12.08.25.07-.13.15-.2.07.06.07.37.08,0,.29-.5.07,0,.08.41.07-.25.07.06.08-.11.07.29.07-.51.08.93.07-.14.07-.09.08-.28.07.13.07.31.08-.26.07.24.07-.33.08.07.29.29.29-1.26.08.23.14-.27.22,1.23.15-.46.14.73.08,0,.07-.1.07.09.08-.09.07.62.07-.21.08,0,.14-.26.08.16.07-.4.07.16.08-.22.07.61.07-.24.08-.82.07.7.07-.35.08.41.07-.12.15.33.07-.57.22.83.07-.7.22.65.15.1.07-.41.08.17.07-.1.07-.62.08.06.22.55.14-.09.15.64.07-.4.08.14.07.15.07-.38.07.19.08-.13.14.5.08-.33.07.41.07-.77.08.89.07-.45.15-.31.07.11.22-.4.07.16.15-.29.15-.08.36.49.08-.16.22.73.07-.48.07.2.15.07.15-.33.22.91.14-1.73.15.65.07-.4.08.55.07-.2.07.29.08-.39.14.61.08-.19.14.45.07.49.08-.21.07-.49.15.66.07.09.07-.29.08.15.07-.18.07.23.08-.07.14.31.08-.17.07-.47.07.42.22-.5.08.36.07-.12.15-.21.22.36.07-.19.07.3.08,0,.22-.59.22.41.07-.43.07,0,.08.62.07-.14.07-.5.08.19.07-.1.22.51.22-.15.14.23.15,0,.07-.33.08-1.17.14,1.2.08-.1.07.22.15-.53.22.58.07.12.07-.34.08.4.14-.68.15.75.07-.35.08,0,.22-.06.07.11.07-.19.08.26.07-.06h.07l.08.44.14-.3.15.32.22-.35.07,0,.22.46.08-.47.07.35.07-.11.15-.56.07.15.07-.49.08.58.07-.28.15-.22.22.3.14-.57.08.52.07-.15.07-.36.22.76.15-.33.07-.19.15.37.07,0,.08.09.14.4h.08l.07.28.15-.23.22.72.07-.71.07.4.15-.29.07.13.08-.26.07.22.07,0,.08-.16.14.26.08-.26.07.26.07-.29.08.53.07-.55.07.15.15.35.14-.25.15.27.07-.17.08-.45.07.16.07-.17.15.52.07-.4.08.54.07-.36.07.11.08,0,.07.13.07-.12.08.37.07-.11.07-.15.15.15.07-.07.08.14.14-.63.08.56.14-.4.08.22.22-.55.07.33.07-.54.15.86.07-.65.08.75.07-.29.07.32.15-.63.07.21.08.34.14-.49.15.47.07,0,.07-.27.15.51.15-.46.14.31.15-.11.22.18.07,0,.08-.37.07.48.07-.24.08.18.07-.22.07.21.08-.12.22-.05.07-.42.07.67.08-.27.07.07.07-.11.08.51.14-1.08.22.68.08-.3.07.07.15.26.07-.33.07.08.08-.07.07.18.07-.22.22.43.08,0,.07-.32.07,0,.15-.25.14.55.22-.65.08.05.07-.63.22.9.07.09.08-.44.07.08.07.68.08-.25.07.24.15-.18.29.21.07-.43.08.43.07-.08.15-.19.22.51.22-.5.07.3.07-.21.08.09.07.36.15-.47.14.16.15-.09.22.41.29-.55.07.33.15-.7.29-.07.08.24.07-.09.15-.31.22.76.44-.52.14-1.75.08,1.6.07,0,.07.4.08-.11.14-1.28.3,1.48.14-.51h.08l.07-.11.07.12.15-.21.07.24.08-.51.07.13.15-.09.07.09.07-.12.08.1.07-.34.07.28.08-.06.21-.78.08.42.07-.15.07-.2.08.52.07-.17.15-.61.07-.11.07.38.08-.48.07.11.29-.63.15.28.07-.13.08-.53.14.6.08-.55.07.43.07-.41.08.37.07-.42.07.15.22.61.08,0,.14-.36.15.64.15-.57.14.74.22-.43.15.32.29.29.15-.39.07.34.07-.07.08.05.14.43.08-.62.07.4.07-.17.08-.13.07.64.07-.09.08,0,.07-.28.07.38.08-.1.07-.25.22.51.07-.14.22.45.15-.34.07.44.08-.45.07.41.07-.39.15.84.07-.87.08.36.14.48.08-.39.14.56.08-.1.14.09.08-.22.14.51.08-.6.07.43.07-.14.07-.12.08.78.07-.3.07.07.15-.31.07.24.08,0,.14-.9.37.86.07-.73.15.82.07-.18H187l.22.19.07-.11.07.24.15-.21.15.33.07-.27.07.38.08-.52.07.18.07-.15.15.35.07-.36.08.5.07-.43.22.79.15-.43.07-.06.15.32.07-.31.07.34.08-.69.07.57.07,0,.15.21.07-.14.07.09.15.17.15-.25.07-.08.07.5.15-.64.22.52.07,0,.15-.53.07.28h0"/></g></g><g id="line2d_33" data-name="line2d 33"><g class="cls-5"><path class="cls-7" d="M23.43,110.47l.08.1.07,1.18.07-.59.07-.16.15.82.07-1.41.22,2.16.08-.69.07.62.07-.81.08.81.07-.18.29,1.22.08-.06.14-.68.08-.06.14,1.25.08-.67.07.1.07.88.08-1.1.07.75.07-.37.3.3.07.34.07-.41.08.46.07-.2.07-.46.08.7.07-.23.07-.6.08.68.07-.27.15.79.14-.52.08.9.14-.66.08-.05.07.92.07-.45.15-.42.07.38.07-.35.08.43.07-.33.29.87.08-.3.14.46.08-.27.07.33.07-.52.08.21.14-.06.08.78.07-.62.07,0,.08-.3.07.2.07,1.07.08-.71.07.17.07-.24.08.05h.07l.22.34.07-.53L30,116l.14-1,.22.43.08-.35.22,1.6.07-1h.07l.08.29.07-.46.14.74.08.06.07-.09.07-.54.08.17.07-.05.15.46.14-.33h.08l.07-.12.07.62.22-.88.15.55.07-.18.15,1,.22-1,.07,1.06.15-1,.07.95.08-.48.07.31.07-.07.22-.55.08,1.11.14-1.34L34,117l.08,0,.07-.3.07.92.08-.21.14-1,.08,1.32.07-.4.07-.87.22.91.07-.51.15.59.07-1.07.08,1,.07-.11.15-.67.07.93.15-.63.14.29.08-.46.07.1.07.56.08-1.08.07.87.07-.45.15.62.07-.18.22.73.08-.92.07.15.15.7.07-.68.07.08.08.15.07-.08.07,0,.15.47.07-.09.08-.84.22,1.06.22-.15.29-.57.22-2.63.07-.37.22,3.38.07.54.08-.51.22.64.07-.07.07-.41.08.33.07-.25.07.27.08-.57.07.23.07.26.22-1.75.08.83.07-.58.22,1.83.07-.1.08,0,.22.7.14-.88.08.83h.07l.07.08.08-.2.07.52.07-.22.08-.15.07.24.15-.45.07,1.17.07-.06.22-.7.15.89.14-1.28.08.81.07,0,.07-.13.08,1,.07-.89.07.34.08,0,.07.35.07-.63.08.7.07-.16.07,0,.08.42.07-.45.07.22.15.5.15-.76.14.92.08-.4.07.16.07-.12.08.15.07.63.15-1,.14.47.08-.83.07.62.22-.92.07.07.15,1.2.22,1,.07-.5.08,0,.07.17.07.74.15-.83.22.47.07.1.07.4.08-.64.07.59.07-.82.08.18.14.45.15-.75.07.55.15-.59.22-2,.15,1.24.14.08.08.91.07-.39.07.62.08-.14.36-2,.08,1.62.07-.35.22,1.51.15-.78.14.67.3-4.31L49.37,102l.22,20.94.07-.14.07.44.15-.6.07-.76.08.05.07-.25.07.39.22,2.42.22-.72.15.89.07-.67.08,0,.07.21.07-.09.08-.37.07.2.07.14.08-.47.07.19.07,0,.08.19.07-.21.51-5.93.37,5.4h.07l.08.81.07-.2.07.07.15.68L53,124l.08.36.14-.46.07,1,.08-.29.07.22.07-.31.08.4.07-.76.07.36h.08l.07-.47.15.57.07-.07.07-.38.08.19.07-.21.07.64.08,0,.07-.46.07,1.08.08-.46.07-1,.07.24.08-.11.07-.78.07.19.15.8.07,0,.08.59.14-.47.08.53.14-.5h.08l.07.7L56,125l.08-.46.14.77.08-.63.07.08.22-.43.07.28.08-.7.07.14.07.68.07-.37L57,125l.07-.07.22.73.07-1,.08.06.14-.22h.08l.07.2.15-1.19.36.9.08-.13.14.57.22-.32.08.22.07-.12.07-.14L59,125l.07-.21.07.33.08-.62.07.17.07,0,.08-.37.07.53.07-.59.15.79.15-1,.07.17.07-.07.08-.45.07.2.07.61.08-.28.07.12.14-2.69.08.11.14,1.67.08-.33.14-.6.08-.77.07,1.64.07-.2.08.88.07-.53.07.88.08-.93.07,1,.07-.61.08.37.14-1.09.15.3.37-1.94.07.17.07-1.28L62.7,122l.08.29.07-.2.15,1.05.07-.31.15.56.07-.73h.07l.08-.25.22-2.38.14-.41.3,2.8.07-.36.14.47.37-4.13.15,1.08.07.24.15-1.85.14-4.15.08.08.29,8.14.07.43.08,0,.07,0,.07.55.08-.59.07.12.07-.29.37-4.76.07-4.1.08,4,.07-1,.07,1.68.08-.55.22-6.6.22-12,.07.21.29,20.84.22,2.23.15-1.17.07,0,.37,1.67.07-.72.07,0,.08.15.07-.09.07.12.22-1,.15.66.22.84.29-2.26.08.12.07.29.07-.15.08.2.14,1.33.08-.46.07.64.07-.85.08.74.07-.33.07.56.08-.49.07.66.15-.57h.07l.07-1.13.08.54.07.06.07-1,.08.43.14.78.08-.14.07.12.14-.25.15.47.07-.17.08.39.07-.54.07.22.08.31.14-1.64.08.21.14,0,.08.85.07-.24h.07l.08.45.07-.12.22-1.32.07.52.15-1.09.07,1.37.08-.24.07-.51.07.76.08-.7.14.93.08-.6h.07l.07-.22.08.32.07-.53.15,1,.07-.36.07.6.08-.83.07.92.07-1.09.08.83.07-.4.07,0,.08-1,.07-3.84.07,1.72.37,4.77.07-.13.15-.39.07.66.07-.48.08,1.22.07-.5.07-.14.08-.57.14.69.08-.07.14-1,.08.73.36-3.32.08.78.14,1.2.08-.92.14,2.49.08-.93.07,1.29.07-.15.15-1.42L78.09,110l.07,9.13.08-2.89.14,7.14.15,1,.15-.24.07.46.07-.53.07.56.08-.13L79,124l.07.64.22-1,.15,1.14.15-.16.07-.38.15,1,.07-.15.22-.77.29-4.64.08.12.44,5.42L81,125l.07.58.08-.42.07.64.07-.07.08-.47.07.31.22-.58.22.62.07-.82.08,1.25.07-.35.15.13.07.37.07-.19.08-.1.07.26.07-.29.07.3.15-.34.07-.05.08.17.07-.36.15.45.14-.78.08.74.07-.32.07-.16.08.72.07-.26.07-1.12.08.83.07-.08.07.19.22-1.1.15.42.07-.16.15.59.44-3,.29-5.16.08.75.22,4.65.14.18.22,2.6.15,1.29.07-.42.15.68.22-1.35.07.72.07-.24.08-.31.14.62.08-.38.07.7.07-.79.08.33.07.07.07-.24.08.81.07-.19.07-.7.08.44.14-.38H88l.07.38.08-.11.07-.76.22.94.15-.59.07.22.15.63.07-.11.07-.52.08.28.07-.11.07-.4.22,1.16.22-1.46.08.56.07-1.2.07,0,.08.45.07-.17.29,1,.07-.73.08.52.36-2.68.15.53.15,1,.22-.76.07.18.07.54.08-.37.07.74.07-.42.08.25.07-.27.07.55.08,0,.07.11.07-.21.22,1.09.08-.73.07,1.14.07-.53.22.75.08-.7.07.69L93,127l.08.1.07-.58.07.12.15.62.07-.21.15-.31.14.42.08-.59.07.57.07-.92.08.38.14.21.08-.12.14-.42.08-1.56.07.09.07.46.15-.68.07.52L95,122l.22-1.77.44,5h.08l.22,1.33.07-.4.07,0,.15-.9.15-2.14.22-3.22.22,2.2.22,1.53.07,0,.07,1,.15-2,.22,1.08.22-3.23.07.34.07-8.2.15,8.18.07-.71.22,5.4.08-1.24.07-.39.15-2.95L99,106.67l.07,2.14.37,14.63.15,1.24.22,1.44.14.43.08,0,.07.71.07,0,.08.09.07-.42.07.21.22-.43.08-.17.07-1.21.15,1.35.07-.19.14.85.08-.23.29-1.79.07.6.22-1.41.08.08.14.56.08-.91.22,1.37.14.54.3-2.34.07-2.9.22,2.85.37,3.23.14.47.08-.53.07.36.07-.19.15-.79.44-6.66.15,2.83.36,3.33.15.28.14-1.4.08.35.07-1.06.07.37.08-.74.07.18.07-.4.08-1.12.07.18.22-1,.07,0,.3.39.07,1,.07,0,.08.19.22-1L107,117l.37,4.47.07.21.07,1.66.08-.08.07-.67.07.16.15,1.07.07-.32.22,1.54.15.67.07-.38.07.39.08-.82.07,0,.07.24.15-.22.07.3.08-.41.07.61.15-.82.14.83.08-.17.14-.95.08.55.07-1.19.07.49.08.6.14-1.47.15,1.78h.07l.08.3.22-.66.22.92.22-.61.14,1.32.08-.27.22,1.19.14.19.08.43.22-1.08.21.6.08,0,.07.55.07-.12.15.49.07-.34.08.21.07-.47.07.29.08-.52.22.9.14-.44.08.35.07-.48.07.24.08.2.29-.68.15.48.14-.52.15.07.07-.46.08.39.07-1.06.07.61.3-2.19.14.91.08-.29.07.16.29,1.82.08-.17.07.58.07-.11.08.19.36-1.33.07.33.08-.09.07.21.07-.16.22,1.44.08-.09.07-.68.07.22.15.48.15-.45.22.71.14-1.64.08.62.22-1.21.44,2.34.22.79.07-.33h.07l.08.52.29-1.57.15.33.14-.71.08.13.21-2,.66,3.29.37-1.06.15.8.07-.34.07.51.08-.1.07-.28.07.64.08-.58.07.06.07-.07.08.25.07-.62.07.08.08,0,.22,1.45.07-.58.07.61.08-.24.07.13.07-.2.22.86.08-.17.29-1.49.07.19.08-.28.14.74.07-.16.22,1,.08.72.07-.68.07,0,.08.62.14-.74.08-.08.07.41.22-1,.37.92.07-.12.44-3.59.22,1.9.07-.36.3,2.16.14-.15.15,0,.22.48.15-.78.22.71.14-.78.15.36.22-2.28.14-2.28.15,2.35h.15l.14,1.52.22,1,.3-.79.07.23.15-.77.07.06.15.44.14-.3.22,1.08.08-.4.07.07.15,1,.07,0,.07-.65.08.28.07.38.07-.19.22-.64.08.58.07-.36.07.72.08-.44.07.4.07-.07.08-.47.07.24.07-.29.15.83.07-.76.07.37.08-.1.14.16.22-.65.08,0,.07.3.15-1.45.07-.23.07-1.19.08.21.07.12.07.83.08-.17.07-.42.22,1.49.22.72.07-.18.08.23.07,0,.07.1.22-1.29.08.11.07.22.29-1.38.3,1.13.07-.31.22.95.07.09.15-.45.07,0,.07-.06.08-.59.14.59.08-.5.07.11.22.66.07-.05.08-.42.07.3.15-.87.14-1,.3.7h.07l.07-.24.08.6.07-.68.07.09.08.48.22-.9.07.14.15.49.14,1,.15-.5.07.7L137,130l.07.23.07-.36.22,1,.08-.7.07.51.07-.19.08-.38.07.14.07-.11.07.1.15-.2.07.08.15-1,.07.25.08-.15.14-1.31h.08l.07-.14.07.13.08-.12.07-1.32.07,0,.15,2.24.07.25.08-.11.07-.19.15,1.33.22-.12.36.28.15.17.07,0,.22-.92.08.56.07-.39.22.57.07.19.08-.23.07.68.07-.32.08.36.07-.31.07.19.07-.26.08.05.07,0,.07-.22.08.59.14-.65.15.41.22-.19.15.39.14-.45.08.09.07.36.15-.33.07.28.15-.16.22.58.29-1.23.07.52.15-.68.07.71.08-.13.07-.32.22.74.22-.41.15-.31.14-.53.08.25.07-.41.22,1.24.07.1.07-.1.22,1,.15-1,.07.41.08.67.07-.17.07-.52.15.69.07-.5.08.07.07-.24.07.24.08-.12.07-.14.07,0,.08.07.07.82.07-.48.08.35.07-.34.07.75.08-.38.07,0,.07-.76.08.41.07-.32.15.61.14-.84.08.68.07-.23.07-.06.08.15.14-.66.15.8.15-.35.14.64.08-.32.14.45.15.13.07-.28.07,0,.3.3.36-1.84.15.53.15-.16.07.63.07-.2.08,0,.29.67.07,0,.08.28.14-.39.08.44.07-.08.15-.25.14.52.3-.52.07.31.07-.3.15-1.2.15,1,.07-.29.07-.33.08,0,.07-.05.15.66.07-.12.14.57.08-.25.07-.11.37.87.07-.21.07.16.08-.14.07.5.07-.32.08.33.14-.6.08,0,.07-.47.07.5.08,0,.07,0,.07-.24.08.33.07-.22.07.26.08-.12.07-.52.07.81.08-.78.07.53.07-.53.08.33.36-1.42.08.21.14-.7.15,1.24h.07l.08-.19.58,1.42.07-.53.15.45.44-.69.07-.11.22.85.08-.06.07-.51.07.23.3-.4.36.69.08-.46h.07l.07,0,.08.87.07-.48.07.11.15.1.07-.15.08.05.07.54.15-.52.22.45.07-.29.07.11.08,0,.21-1.13.15,1.11.07-.9.08.29.07-.36.07.2.22-.74.08.16.22.57.07-.54.07.26.08.07.07.43.07-.32.08.48.07-.16.22.52.22-.45.07.51.08-.63.14.72.08-.44.07.68.22-.87.22.63.15-1.27.07.12.15,1.19.22-.54.07.14.07.57.08-.33.07.42.07-.11.15.25.07-.29.07.49.08-.18L164,133l.07.08.08.17.14-.19.08.14.22-.55.07.54.07-.25.22.05.08-.34.07,0,.29,1.07.15-.61.07.42.08-.22.36-.68.15.34h.15l.07-.54.15.8.07,0,.07-.3.15.26H167l.08.19.07-.4.14.5.08-.06.07-.14.22.18.37-.26.14.5.08-.28.07-.23.15.43.07-.29.15.34.29-.58.07,0,.08.26.07-.16.07.25.08-.1.07-.08.07.17.08-.31.07.28.07-.09.22-.24.08-.19.14.6.22-.32.08-.47.07.47.07-.27.22.58.08-.05.07-.26.07.26.07-.37.08.07.14-.4.15-.58.07.07.22.76.08-.24.22.56.07-.27.29.77.08-.2h.07l.07-.16.08.25.07-.06h.07l.08-.41.07.49.07-.2.08-.4.22.76.14-.47.08.47.14-.57.08.68.07-.1.07-.26.08.08.14.16.08-.78.14.81.15-.39.07.14.07-.18.08-.47.07.13.29-.35.15.55.07-.25h.15l.07.22.08-.12.14,0,.08-.18.22.32.29-.5.07.07.08.35.07,0,.07-.39.08,0,.07.13.15-.52.14.42.3-.47.07.34.07-.36.08.27.07-.16.07.18.44-.83.15.56.07-.29.07.16.22-.35.15-.48.07.19.08-.23.07.34.15-.39.14.18.08-.54.07.54.07-.09.08-.56.07.07.07.56.08-.41.07.36.29-1.26.08.72.07-.09.15-.17.07-.25.22.86.07-.76.08.16.07-.22.15.49.07-.18.29.48.08-.08.07.52.07-.64.08.42.07-.45.22.71.07,0,.07-.4.22.69.08-.2.07.19.22-.58.07.19.08-.15.07.22.07-.31.15.64.15-.12.29.42.07-.19.15.48.07-.46.08.32.07-.4.07.27.08-.31.07.16.07.33.08-.09.07-.36.15.7.07-.07.07-.21.3.76h.14l.08.3.07-.4.07.62.07-.31.15-.1.15.11.07-.11.07.08.08.19.07-.32.07.36.15-.26.29.19.15-.11.15.43.29-.72.07.24.08-.4.07.5.07-.12.08.1.07-.18.07.07.15.28.07-.4.15.29.15-.26.14.51.15-.33.07.2.08-.09.07,0,.07.4.08-.11.07.21.07-.08.08-.13.07-.64.07.72.07-.37.22.51.15-.32.07.19.08-.09.14.27.08-.19.07-.15.07.37.08-.27.07.24.07-.18.15.24.07-.16h0"/></g></g><g id="line2d_34" data-name="line2d 34"><g class="cls-5"><path class="cls-8" d="M23.43,82.63l.08-.49.07.88.07-.38.15.44.14-.82.15,1.3.07-.08.15.38.15-.17.07,1,.07-.29.08-.07.14.44.08-.37.07-1L25,84.63h.08l.14-.53.08.74.07-.66.15,1,.07-.14.07.29.15-1,.07,1,.15-1.23.07,1.8.08-.48.07.18.22-.56.07,1.21.08-.6.07-.13.07.11.08-.78L27,86.17,27,86l.22-.42.08,0,.07.24.07-.09.07-.92.22,1.86L28,85.7l.08-.19.07.61.07-.14.08-.62.14,1.22.15-1.2.15,1.48.07-1.75.07,1,.08-.16.07.21.07-.45.08.1.22,1.39L29.44,86l.07.23.15-.68.15,1.05L30,85.5l.14.75.08-.36.07,1.34.15-.86.14,1.22.15-.89.07.4.08-.53.07.62.07-.25.07-.38.08.4.07-.5.22.72.07-.75.08,1.19.07-1.17.07.34.3.93.07-.29.07.29.08-.9.07,1.26.22-1.3.15.85.14-.66.08.85.07-.31.07-.86.22,1.41.08-.25.07-.41.15.39.14-.4.08.4.07-.8.07.71.08-.67.14,1,.08-1.43.14,2.17.15-.57.07-.15.07.1.3-.46.22,1.21.07-.44.07.56.08-.82.07.19.07-.55.08.19.07.33.15-.32.07.44.07-.43.08,1,.07-.3.07-.71.08,1.21.07-.45.07.27.08-.66.07.76.07-.93.08.45.07-.51L37,89l.14-.9.08.81.14-.64.08,1L37.5,89l.07.45.08-.63.07.22.07.35.08-.87.07,1L38,89h.15l.07-.38.15,1.09.07-.63.07.29L38.6,89l.07.5.07-.21.08.36.07-.58.07.43.08-.23.22.35.07-.17.15.12.07-.75.15.52.07-.34.07,1.39.08-.56L40,88.71l.15.86.07,0,.07.27.08-.2.07.14.15.57.07,0,.15.67.07-.4.07-1.09.15,1.22.07-1,.08,1,.07-.35.07.51.08-.49.29,1.17L42,90.4l.07.07.07.72.08-.33.07.2.07-.49.15,1.37.07-.84.08.11.14.94.08-.69.07.72.07-.07.15-.52.15.86.07.07.15-.74.14,1,.15-1.1L44,92.92l.07-.6.07.11.08,0,.07.55.07,0,.08-.16.07-.46.22.48.15-.55.22.86.07-.56.15,1.2.07-.18.15-.51.07.14.07-.22.08.72.07-.17.07-.26.07.28L46,93l.14.7.08-.09.14.3.22-.53.15-.16L47,91.64l.07.19.15-2.06L47.39,94l.15-.32.14.73.08-.16.14-.54.15-.48.15-.77.14.31.15,2,.07-.52.08.5.07-.25.37-1.69.22-4.5.36,6.51.07-.16.08.5.07-.79.07.51H50l.07-.34.29,1.73.15-.71.07.06.08.08.07-.18.15.65L51,94.84l.07.52.08.09L51.2,95l.07,1,.08-.89.07.25.07.16L51.71,94l.08.35.29-5.84.07-.29.3,7.29.07-.12.15.81.07-.57.07.28.08.35.07-.14.15.06.07-.34.22,1.14.14-.84.15.23.22-.41.15.64.07-.35.07-.92.08,1.23.07-.22.15-.24.14.77.22-.74.08.31.22-.67.14.67.15.1.07-.5.08.52.07-.66.07.29.08.31.07-.13.07-.24.08.43.07-.15.07.26.08-1,.07.48h.07l.22.75.08-.89.07,0,.07-.19.07.65.08-.37.07.44.07-.52.08.14.29.38.07-.58.08.45.07,0,.22-.6.07.35.15-.64.07,1.15.08-.92.07.74.07-.16.15-.64.07.66.08-.07.07.33.07-.66.08.6.07-.18.07-.36.08.51.22-1,.14,1,.15,0,.15-.82.07.53.15-.8.14.78.15-1,.07.47L60.5,95l.08.67.07-1.06.07.32.22.63L61,95.1l.07,0,.07.67.08-.1.44,0,.07-.24.07.22.15-.73.07.48.08-1.06.07.3.07.49.15-.76.07.28.08.72.07-.87.07.27.08.72.14-.71.08.15.14-.26.08.09.07.12.37-3.74.07-.22L64,94l.22-.14.07-1.35.08.09.22-.83.07-.08.37-6,.14-6.19.15,6,.22,7.7.15.92.07.12.15-.41.07.06.07-.63.08.34.44-2.51.29-5.75L67,83.2,67.25,55l.07,1.38.29,34,.22,2.29.29.52.08.25.14-.57.08.92.07-.35.07.19.15-.39.07.67.08-.63.07,0,.07-.09.15.43.07-.47.08.79.22-.85.07,0,.22.5.07-.72.08.16.14.24.08-.09.07.29.07-.14.08.21.07-.6.07.46.08-.37.07.9.07-.19L71,93l.08.12.07.74.15-.66.14.65.08-.21.14.27.07-.35.08.25.14-.59.15.83.07-1,.08.12.14.82.15-.55.07.13.08-.19.07.09.07.19.08-.77.07,0,.07.51.15-.62.07.06.22.55.08-.81.14,1,.08-.77.07.75.07-.17.15-.15.07-.28.08.13.44.73.07.37.15-1.27.07,1.1.07-.54.15-.43.07.63.07,0,.08-.36.22,1.11.07-.86.07.32.08.14.07.91.15-1,.07.74.07-.26.15-.62L76.4,95l.08-.4.07-.13.29-2.81.08-.64.14.76.22,2.45.08-.07.07,1L77.5,95l.08-.57.14,1.17.08-.77.07.59.07-.5.08.22h.07l.22.72.07-.36.08,1,.07-.44.07,0,.15-.54.14,1.13.08-.73.07.28.22-.51.07.79.08-.38.22.65.07,0,.15-1,.07.53.29-2.7.22-4.89.08,0L81,96.91l.07-.19.07.5.08-.27.07.36.07-.31.08.36.07-.11.07-.43.08.23.07-.09.07.23.08-.72.07,0,.44,1.2.15-.72.07.91.07-.2.07-.19.08.14.22-.58.07.37.07-.3.08.11.07.15.07-.45.08.39.07-.25.15.81.14-.26.15.28.22-1,.22.55.07.17.08-.63.07.81.44-3.55.15-4,.14-2.72.22,5.41.22,4.22.08.38.07-.57.07.76.08-.24.14.23.07-.32.08.22.07.61.07-.39.08.12.07-.19.07.28.08-.3.07.36.15-.25.07.11.07-.25.08.44.07-.62.07.35.08-.54.07.13h.15l.07-.16.07.14.08-.4.07.16.07-.18.15.57.07,0,.15.28.07-.34.15.82.07-.4.08.09h.07l.07-.39L89,98l.07-.19h.15l.07-.22.15-1,.07.36.15-1.07.07-.79.36,2.78.08-.15.29-1.24.22-2.31.07.32.3,2.2.14.83.08-.41.14.7.08-.14.14,0,.15-.31.15.78L92,98l.07.18.08-.4.07.43.07-.71.08.09.07.21.07.59.08-.11.07-.22.07.43.15-.69.22,1,.07-.68.08.08.07.34.15-.58.14.43.15-.38.07.14.07-.12.15.51.07-.24.22-1.11.08,0,.14-.1.08.15.14-.74.37-2.14.07,0,.3.61.07,0,.07,1.47.08-.45.14,1.56L96,97.2l.15-.58.22-3.49.14-3.8.08-.49.29,6.82.07.86.15-.66.07.65.15-1.36.07.12.07.53.08-.92.07.44.15-.42.07.86.07-.36.08.75.07-.24.15.74.14-1,.22-6.07.37-25L99,70.24l.3,21.49L99.56,97l.07,0,.15.78.07-.52.07.82.08-.24.36.72.08-.17.14-1,.08.48.07.31.15-.6.21,1.05.08.1.29-1,.07.38.15-.49.07,0,.08-.43.07.45.07-.5.22.8.08-.18.07.48.07-.15.08.08.29-1.55.15.48.07-.24.15.92.22.3.07-.12.07.51.3-2,.07-.29.37-9.76.07.57.15,4.67.07.25.22,4.54.07-.51.22.92.07-1.12.08.43.44-2.74.07.19.07.61.08-.25.07-.06.07.09.15,1.24.07-.06.15-.18.37-5,.22-4.78.58,10,.15-.07.07.64.08-.25.07.1.07-.19.15,1.21.07-.28.08.09.07.19.07-.12.29-.4.08.13.07-.52.22.88.07-.36.08.24.07-.4.07.78.08-.29.14.62.08-.3.07.21.07-.11.3.13.14,1,.08-1.13.07.66.07-.15.3,1,.07-.51.07.06.08,0,.07.4.07-.18.44.75.22-.07.15.14.07-.27.07.11.08,0,.14.47.08-.25.07.15.07-.23.15.67.22-1,.15.74.14-.45h.15l.22.89.15-.81.07.47.07-.37.08.09.14-.29.08,0,.07.79.22-1.71.07-.27.22-2.49.08,0,.29,1.78.15,1.59.22.81.07-.64.07.1.15-.06.22-1,.07-.07.07.28.08.77.07-.57.22.9.07.1.08-.08.07.62.07-.33.08,0,.07-.09L117,99l.08.57.07-.27.07.13.3-1.9.07-.11.15-.82.14,1.31.08-.32.22,2.49.07-.38.07.7.08-.17.36,0,.08.12.51-3.7.14-1.59.37,3.45.29,1.77.08-.29.07.22.07.64.08-.38.07.1.07.29.08-1,.07.49.07-.27.15.89.22-.86.29-.52.15.38.15.47.22.84.07-.65.07.1.22.53.08-.88.07.35.37-.89.07.54.07-.3.15,1.1.07-.12.07.29.08-.33.07.58.07-.33.08.39.07-.2.07.24.15-.66.07.1.22.54.08-.77.07.23.07.21.22-1.15.3-4.39.07.41.44,4.68.07,0,.22,1,.08-.39.07.08.07,0,.08.33.07-.32.15.77.07-.25.07-.33.15.36.07-.61.08.35.29-1.85.07-.22.15.4.07-.07.07.11.22,1.28.08,0,.07-.23.07.77.22-1.05.08-.15.07-.83.07.37.22.84.08-.58.14.73.15.24.07-.14.15.78.07-.75.08.47.07-.18.07-.14.15.36.07.21.08-.37.07.28.07-.24.08.28.07-.29.07.08.08.26.07-.23.15.67.14-.72.07,0,.08-.3.07.55.07-.11.08.31.29-1.22.07.15.08-.1.36-4.89.52,3.51.29,1.43.15-.08.14.48.08-.19.07.13.07-.19.22-1.42.08-.39.07-1.13.07.43.08-.18.51,2.76.07-.51.15.75.07-.53.07.2.22-.67.08-.85.14,1,.15-.13.07.19.08-1,.07.14.07-.07.22-1.9.37,1.31.15-1.22H136l.07.6.08-.27.07.4.07-1,.08.11.14.74.08,1.07.07-.14.07-.1.22,1.82L137,101l.07,0,.07.44.08-.14.07-.43.07,0,.15.39.15-.18.07-.7.07.8.07-.1.3-.56.07-.49.07.22.3-1.33h.07l.15.89.07-.38.37,2,.14-.63.15.66.07-.25.15.45.15-.76.07.42.07.29.22-.58.08.17.14-1.07.52.81.14.67.22-.44.07.06.08.39.07-.5.22,1,.07-.88.08.43.07-.07.07.41.08-.46.14.36.08-.09.14.49.08-.24.07.32.07-.14.08-.44.14.77.15-.65.07.15.44-1.5.08.21.07-.24.22.81.07-.19.08.11.14.49.52-1.57.29,1.38.14-.26.08,1h.07l.44.33.07-.2.08.55.07-.57.07.31.08-.53.14.86.08-.43.07.05.07.07.15-.67.07.73.08-.29.07-.25.07.48.08-.12.14.37.08-.42.07.1.07.27.22-.69.22.76.15-.54.15.7.07-.17h.07l.08-.34.14.45.22-.25.07.5.08-.57.07.53.07-.4.08.22.07-.54.07.37.37-2.25h.07l.15,1.09.15,0,.22,1,.07-.22.15.85.07-.47.07.49.08-.57.07.38.07-.11.08-.67.14.92.08-.36.07.37.07-.09.08.16.07-.22.07.08.15-.13.15.31.07-.42.07,0,.15,0,.07-.69.08.59.07-1,.07.28.15.37.07-.26.15.5.07,0,.07.63.08-.05.14.35.08-.41.07.77.07-.29.08,0,.07-.21.07.16.15-.36.07.05.08-.2.07.34.07-.18.15-.47.15.24.07-.32.15.59.51-1.69.22-.76.29,1.2.08-.31.07.1.07,1.1.08-.31.22.66.07.4.07-.18.44-.58.07.21.15-.11.07.11.08-.14.07.2.07-.1.08-.17.14.64.15.08.07-.44.08.46.07-.23.07-.37.08.25.14-.21.08.29.14-.42.15.24.07,0,.22.41.08-.32.14.5.15-.32.07.59.08,0,.07.24.15-.38.07.35.07-.05.08,0,.07-.34.07.27.07-.48.08.06.07.31.07-.1.22-.83.37-.59.07.54.08,0,.14-.31.08-.51.29,1.31.07.09.08.42.07-.63.07.48.08-.48.07.56.07-.16.22,1,.08-.8.07.21.15.28.07-.35.07.45.15-.37.15,0,.07-.32.07.52.08-.11.07.21.22-.37.07.73.08-.32.07.06.07-.37.07.1.08-.07.07.39.07-.66.08,0,.07.37.15-.37.07,0,.07.18.08-.68.07.1.07-.31.08.1.07.59.07-.1.08-.09.07.25.15-.33.07,0,.07.65.08-.32.07-.17.22.49.15-.19.07.21.07-.4.08.33.07-.33.07.11.08.59.14-.52.08,0,.07.33.07-.66.08.71.07-.17.07-.09.08.29.14-.31.08.33.07-.2.07.22.07-.23.15.18.15-.46.07.06.22.66.15-.47.14.23.22-.6.15.74.07-.32.08.12.07.07.15-.38.22.85.14-.78.15.3.15-.33.07.13.07-.55.08.62.07-.09h.07l.08.12.07-.18.15.18.07-.38.22.83.15-.55.07.19.07-.57.15.31.51-2.14.07.5.08,0,.07.94.07-.18h.08l.07.28.07-.36.22.91.08.49.07-.62.15.54.07-.38.07.23.08-.37.07.62.22-.55.22,0,.07-.11.15.31.07-.15.15.4.66-.31.07.16.08-.09.07,0,.07-.19.07-.56.08.3.07,0,.07-.39.22.72.15-.6.07.65.08-.81.07.17.29.3.08-.14.07.24.15-.46.07.13.07-.18.08.21.14-.58.08.25.07.32.07-.73.08.21.07-.09.07-.41.08.77.22-.61.07.2.07-.4.08.28.07,0,.29-.15.08.39.07,0,.15-.39.14.28.15-.58.07.19.07-.42.15.45.22-.5.22.11.15-.52.07,0,.07.37.15-.35.07.36.15-.73.07.22.3-.41.07.07.07.26.08-.31.07.48.07-.31.08.2.07-.19.07.32.22-1,.15-.21.07,0,.08.11.14.93.08-.22.07.29.07-.28.08.15.07.07.07.52.08-.55.07.15.07.38.07-.16.08-.25.07.15.07.46.08-.13.07.2.07-.25.15.38.15-.28.07.61.07-.27.08-.34.07.66.07-.11.08.39.14-.47.08-.15.14.55.08-.21.07.09.07.15.08-.2.07.19.07-.11.15-.38.07.09.22-.43.08.89.07-.19.07.25.08-.54.07.55.07-.7.08,1.15.07-.24.22.78.07-.36.22.44.07-.24.22.59.08-.57.07.2.07.08.08-.37.07.43.07-.1.08-.07.14.47.08,0,.07-.47.07.42.15-.57.15.47.14-.62.08.36.22-.45.07,0,.07-.24.15.58.22.06.07-.28.08.52.07-.2.07.15.22-.38.08.3.07-.08.07.12.08-.26.07.31.07-.18.08.06.07.21.07-.21.22.66.07-.2.15.42.07-.57.08.18.07-.2.15.54.07-.1.07.13.08-.55.07.19.07.28.08-.1.07-.05.07.2.08-.43.07,0,.07,0h0"/></g></g><g id="line2d_35" data-name="line2d 35"><g class="cls-5"><path class="cls-9" d="M23.43,53.13l.15.71.07-.8.22,1.35.07.08.15.51.07-.39.15.85.15-.51.22,1.24.07-.28L24.82,57l.08-.85.07.07.07.22.15-.62.07,1.32.08-.19.07-.44.22,1,.07-1,.08.64.07,0,.07,0,.08.47.07-.47.22.88.07.12.08-.53.07,1,.07-1,.08.19.07,0,.07-.4L27,58.53l.07-.29.08-.35.07.48.07-.21.08-.13.07.58.07-.56.07,1.28.15-1,.07.47.08-.59.07.26.07-.37.08.8.07-.33.07.22.08-.41.07.74.07-.31.22-.19.08.08.22.92L29,59l.07.75.08-.86.07.14.07.39.08-.1.22-.6.07,1.5.07-1.33.08.83.14-.91.08.78.07-.15.07.23.15-.55.07,0,.08.25.07-.43.22.65.07-.1.08-.38.14,1.11.07-.35.08.13.07,0,.07-.61.08.17.22-.51.07.08.07.28.08-.23.22.85.07-.36.07.05.08-.12.07.17.07.55.08-1.17.07.34.07-.27.22.77.08-.73.07,1,.07-.43.08-.09.07.62.07-.64.08.78.07-.15.07-1.1.08.57.07-.86.07,1.23.08,0,.07-.85.07.85.08-.23.07,0,.07.31.08-.45.07,1.1.07-.07.15-.93L34.64,61l.07-.56.15-1,.15.08.07.41.07,0,.08,0,.07-.3.07,1.55.08-.6.07-.51.07.81.08-.4.07,0,.15-.22.07.67.22-.8.07.24.08,1.58.22-2.17L36.62,61l.07-.87.15.93.07-.86.22,1.06.08-.9.07.06.07-.21.22,1.25.15-1.12.07,0,.08.58.07,0,.07-.19.08.36.14-1,.08.78.21-1.27.15.94h.07l.08.49.07-.38.07,1,.15-.63.07.26.15-1.17.07.35.22.9.22-1.21.22.71.08-.31.07-.88.29,2.3.08-1.14.07.26.15,1.07.14-.37.08-.12.07.12.15.66.07-.83.15,1,.07-.62.07.16.37.69.07-.1.15-.13.07-.3.07.74.08-.88.14,1.1.15-.52.07.74.08-1,.07,1.1.07-.77.08.84.14-.65.08.72.07-.43.07.06.08.16.07-.89.07.32.15.78.07-.31.08.16.07-.19.07.66.08-.82.07.1.07,1,.22-1.65.08.18.22-.87.14-.7.37,3.3.07-.5.15,1.06.29-.85.22,1,.07-.36.08.79.07-.07.07-.65.08.12.22-.26.14.36.3-2.21.07.15.22,2.43.07-.56.08-.24.07.14.07-.14.37-4,.22,4.49.29.49.08.11.07-.82.07.61.37-5.11.15-3.33.36,9.26.07.27.08-.25.07.24.07,0,.08,0,.07-.2.07.12.15-.18.07.76.08-.46.07.41.07-.56.08,1,.07-1,.07.36.08.46.29-.89.07.91.08-.61.07.14.07-.26.08.44.29-4,.07.22.22-2.49.08.46.22,2.53.22,2.94.07,0,.22.75.07-.26.08.65.07-.59.07.18.07-.4.22,1.23.08-.72.07.15.07-.35.08.39.14-.73.08.81.07-.14.07-.38.08.1.14.14.15.66.07-.45.08.55.07-1,.07.74.08,0,.07-.33.07.33.08-.33.07.33.07-.58.08.15.07.69.15-.76.07.18.07.15.08.48.14-.51.08,0,.07-.59.07.12.08.4.07-.26.07.33.08-.19.07.38L56.7,67l.07.33.07.84.07-.92.15.68.07-.23.08.38.07-.64.07.48.08-.4.14.37.08-1.15.07.42.15-.92.07.17L58,66l.08.13.22,1.62.07-.29.22.65.07-.58.08.07.07.24.07-.48L59,68l.07-.29.07-.41.15.82L59.41,67l.07.94.07-.11.08.15.44-1.07.07-1,.15.89.29-1.11.07.26.07-1.45.08.69.07,0,.29,2.11.15-.21.22.51L61.6,67l.08.57.07-.45.07.38.08-.14.22-.92.07.52.29-2.23L62.56,66l.22-2.41L63,66l.22.53h.07l.29-3,.08-.28.14.63.08,0,.07-.25L64.24,66l.22-3.7.07-.78.15-11.44.22,9.69.15-1.3.14-4.63.15,3.56.29,8.12.08.35L66,65l.07.3.81-8.85.22-6.66.15-8.38.07,2.16.29,20,.08,1,.07,0,.07-.1.07.84.15-.7.07-.07.08.69.07-.2.07-.44.08,1,.14-1.21.08.2.29,1.15.07-.54.08.15.14.12.15-.15.15.7.07-1.11.15.66.07-.48.07.11L70,65l.14-1.84.37,2.4.07,0,.22-1.27.08,0,.07.17L71,64l.08.33.07-1.15.07.24.08.16.29,1.28.22.56.07.19.07-.46.08.23.07-.24.07.34.08-.74.07,0,.07.06.08.32.07-.48.07.36L72.67,66l.07-.77.07.81.08-1.4.07.67.15-.93.07.11.07.31.08-.63.07.08.07.66.08-.78L73.62,66l.15-1.24.07.13L73.91,66,74,64.76l.07.39.22.71.07-.47.08.63.07-.17.07-.88.08,1.17.07-.49L75,59l.22,5.68.07,0,.3,1.55.14.08.15-.64.22.64.07-.28.08.3.07-.38.07.23.08-.49.07.38.22-1.42.07.25.22-3.25.37,3.86.15.39L77.65,67l.07-.82.15.86L78,65.64l.14,1.73.08-.25.07.39.07-.29.08.13.07-.19.22.92.07-.59.07.4.08-.62.29.9.07-.21.22.4.08-.78.07.08.07.13.15-.67.07.25.08-.06.36-4.16.08.23L81,68.77l.07-.19.08-.26.07,1,.07-.26.15-.55.07-.06.22-.92.08-.57L82,68.13l.08.06.07.88.07-.17.15.82.22-1.22.14.61.08-.13.07.38.37-2.14.07.08.22,1.59.07-.22.08.76.07-.42.07.16.08.43.07-.14.15.52.07-.74.15.5.07,0,.07.39.22-1.52h.08l.07.24.29-2.22.22-3.21.37,4.93.07-1.1.15,2.14.15-.08.14.81.07-1.06.08.81h.07l.07-.44.08.37.22-1.38.22,1,.07-.06.07.33.08-.32.14.9.08-.46.07,0,.07.11.08-.46.07.09.15.09.22-1,.07.77.15-1.66.29,1.88.07.09.08-.17.14.65.08,0,.07-.14.07.13.15-.37.15.29.22-1.83.07.19.07-.39.22,2,.29-.74.08.63.07-1.45.07.85.15-1.33.07-.33.08.37.22,1.64.07.48.07-.56.08.83.07-.33.07.15.15-.3.07.06.08-.69.07,1.15.07-.74.08.23.07.46.07-.6.08.19.07.34.07-.59.08,0,.07.61.07-.23.08-.59.07.14.07.25.15-.44.15.85.07-.07.15,0,.22-.69.07.15.07.12.07.34.22-1.26.08-.51.07.27.22,1,.07,0,.22-1.6.08.82.29-2,.29-2,.22,1.66.08-.15.22,1.69.07.28.29-.74h.08l.14-1.06.22-5.21L97,67.87l.29-1.72.15-1.43.15,1.55.07-.15.15.46.14-5.39.15,4.53.07-.76.15,3.09.07,0,.22-3.42.15-6.46L99,48.79l.44,19.27.22,1,.07.12.15.69.07-.38.08.12.07.26.07-.55.08.4.07-.66.07.16.08.08.07.35.07-.91.22,1.38.15-.25.07.57.07-.13.08-.13.29-2.17.22-1.44.07.09.22-2.32.15,2.53.15-2.22.14,2.42.15-.63.07.86.22-2,.59,5.39.22-.36.07-.7.08.12.07-.38.22-3.61.15-2.64.22,3,.29,3,.07.33.22-1.21.07.22.08,0,.44-2.3.07.35.37-2,.07-1.16.07.7.08-.76.14,1,.08-.54.07.71.15-1.51.29-4.37.29,4.81.22,3.25.15-.17.07-.93.44,2.84.08-.14.21.59.15-.56.07.45.08-.6.07.88.07-.84.08.3.07-.59.15,1.56.22-1,.14.86.08-.45.07-.64.07.25.37,1.08.22-.13.15,1.39.14-.52.15-.26.22-4.16.07,4.25.08-.44.07-1.43.29,2.94h.08l.22-1.07.21.64.08-.72.14.81.15-.12.07.36.08-.26.07.55.07-.19.08-.2.07,0,.22.24.22-.65.07-.21.22.92.15-.32.15.74.07-.24.07-.12.08.61.07-.27.07-.09.22-1.44.08.06.14-1.69.08-.11.07-.41.07.93.08-.11.22,1.59.22,1.52.14-.24.08-.07.14-1.5.07,1.1.08-.72.07.34.07-.1.08.1.14-.61.22,1.73.08-.69.22.85.14-.31.08.26.07-.56.07.89.15-1.16.07.07.08-.23.14-1.15h.08l.14,1.48.08-.35.14,1,.08-.08h.07l.22.65.15-.26.07.21.07-.5.08.27.14-1.21.15.78.29-2.41.07-.65.3,2.06.07.22.07-.34.15,1,.15-.34.07,0,.07.27.15-1.26.15,1.22.07-.07.07,0,.08-.28.22,1.18.07-.75.07.31.08-.54h.07l.07,0,.22-1.61.15,2.12.15.09.14.9.15,0,.07.27.15-1.07.07.21.08.24.22-.74.21,1.13.08-.11.07-.16.07.23.08.72.07-.07.07,0,.08-.18.07.41.07-.46.08.67.14-.94.08.3.07-.23.22.82.07-.54.08.11.07.2.37-3.38.07-.18.22,1.48.07.13.3,1.92.07-.42.07.52.08-.25.07,0,.15.46.14-.39.15.46.07-.19.08.25.07-.11.07-.07.08-.59.07.31.07.07.29-1.61.22,1.14.08-.49.22,1.25.07-.09.07-.25.08,0,.07,0,.15-.58.07.32.15-1.06.14,1.44.08-.16.07-.47.07.18.22.22.08-.48.07.09.15-.16.07.11.07.34.08-.33.07.66.07-.26.08.22.07-.26.07.43.08,0L130,74,130,74l.07.48.07-.12.15-.05.14.25.22-.41.15,0,.07-.29.08.18.14-.31.15-.22.15-1.5.14-.79.22,1.37.08-.67.29,1.87.07-.24.44.93.22-1.23.08.7.22-1.56.07.22.07-.71.22,1.39.15-.69.07.17h.15l.15.19.21-1.3.08.11.14.82.15-1.19.07.21.08,1.26.07-.06.07-.54.08.06.07.16.22-1.11.07.51.08-.25.14.88.08-1,.07.52.07,0,.08.16.07-.45.15.66.14-1.26.15.85.15.77.07-.14.07-.29.3,1.35.07-.32.07.62.08-.56.07.32.07-.25.08.1.07,0,.07-.12.08.31.07-.81.07.49.07-.29.08.19.07-.37.15.43.07-.09.15-1.25.07.35.07-.31.22.69.3-1.25.14,1.72.08-.07.07-.3.07.06.15.73.29-1,.08.32L140,73l.07-.5.08,0,.14.63.22-1.15.66,1.65.08,0,.07-.37.22.62.07-.32.15.71.14-.51.22.56.08-.1.07.34.07-.38.08.19.07.11.07-.32.08.24.07-.09h.07l.08-.32.07.1.15,0,.14.29.22-.33.08,0,.22-1,.07.09.15.68.07,0,.07.17.08-.11.22.75.07.19.44-1.8.15.83.07-.49.29,1.48.22-.3.07.47.08-.25.07.63.07-.47.08.27.07-.4.07.2.15-.32.07.21.08-.2.14.53.08-.38.07.3.07-.06.37-.33.07.24.15-.28.15.38.07-.34.07.21.08,0,.14-.57.22.34.08.26.14-.54.22.74.08.33.07-.1.22.38.07-.09.07-.5.15.42.07-.68.08.4.29-1.53.22,1,.07-.33.08.18.07.56.07-.26.15.54.07-.2.08,0,.14.2.08,0,.07-.24.15.57.07-.44.07.31.08-.17.07.09.15-.06.14-.39.08.19.07,0,.22.08.07.22.44-.67.29.71.08-.2.07,0,.07.2.08-.32.07.65.07-.29.08.34.07-.27.07-.92.15,1.14.29-.58.08,0L154,76l.08-.45.07.14.07.45.22-.53.08.48.07-.14.15.19.14-.71.15-.76.07.08.08.42.22-.69.07,0,.15.77.07-.2.15.31.14.24.15-.69.07-2.35.15,2.78.07.28.07-.25.08-1.12.07.19.22,1,.15-.26.07,0,.37.59.07-.42.15.67.22-.65.07.37.07-.33.08.49.07-.13.07-.36.08.12.07-.14.22.51.07.08.15-.37.15.61.07-.38.07.2.08-.11.07.31.07-.09.15,0,.07.29.15-.34.14.41L160,76l.07.3.22-1.44.08-1.43.22,1.67.22-.86.07,1.23.07,0,.08.39.07-.61.07.17.08.9.07-.33.07,0,.08.16.07-.18.07.08.08-.08.29.5.15-.29.07.21.15-1.13.22,1.52.07-.41.07-.07.08-.76.07.28.15.27.22-.85.14,1,.08.06.14-.38.22.76.15-.43.14.48.15,0,.07-.29.08.18.07-.66.07.35.15-.38.07.52.08-.18.07.15L165,76l.15.42.07-.48.22.56.08,0,.07.2.07-.16.08.06.22-.21.07.34.07-.17.08.26.14-.45.22.66.08-.09.07,0,.15-.52L167,77l.22-.48.07.3.08,0,.07-.27.07,0,.22.33.08.42.07-.63.07.16H168l.22.3.14-.32.15,0,.07-.21.15.6.07-.5.08.23.07-.06.15.17.07,0,.07.13.15-.42.07,0,.22-.33.15-.31.22.74.22-.45.22.26.07-.29.08.46.07-.28.07.2.22-.2.15.18.36-1,.08.15.07.72.07-.21.15-.25.22.67.07.16.08-.39.14.45.15-.24.07-.11.08.18.07-.18.07.23.08-.12.14,0,.08.33.07,0,.07.14.08-.37.07.24.07-.11.08-.08.07.14.07-.27.08.27.07-.09L174,77l.29,0,.15-.15.07.06.22-.67.07.11.15.57.22-.31.07-.23.07.33.08-.12.14.22.08-.18.07.34.07-.28.08,0,.07.29.07-.1.08-.29.07.07.15,0,.36-.59.15.19.07-.28.08.12.07,0,.07.2.22-.59.08.25.07-.46.22.64.07-.25.08.14.14-.07.08.32.07-.81.07.19.08-.31.07.22.07-.11.07.07.08-.32.07.31.07-.17.15-.64.07.52L179,75l.07,0,.22-.5.07-.24.08.12.07.17.15-.41.07.1.15,0,.07-.44.15-1.41.07.42L180.3,74l.07,0,.22-.71.22,1,.07-.53.08.42.07-.48.07.22.08.13.07.37.07-.22.22.53.15-.34.07.4.08-.17.07-.19.07.29.07-.13.08,0,.22.48.07-.39.07.08.08-.17.22.93.07-.7.22.85.15-.36.22.36.14-.32.3.89.22-.71.07.38.07-.57.08.13.07,0,.07-.23.08.69.07-.38.07.52.08-.6.22.65h.07l.07-.12.08.32.07,0,.07.06.08-.11.14.08.07.47.08-.15.14-.12.08.15.07-.07.07-.29.22.48.08.14.07-.4.07.12.15-.1.07.57.08-.07.07-.52.22.52.07,0,.08-.2.07.23.22-.74.29.63.22-.58.08.43.07-.19.07.16.08-.24.07.15.07-.19.08.24.07-.26.22.38.22-.09.07.25.08-.19.07.32.07-.3.07.29.08-.16h.14l.08,0,.07.48.07-.5.08.2.14-.77.08.14.14.5.15-.13.07.16.22-.9h0"/></g></g><g id="line2d_36" data-name="line2d 36"><g class="cls-5"><path class="cls-10" d="M23.43,28.61l.08.74.07-.3.07-.42.07.94.08-.37.07,0,.07.63.08-.2.22.35.07,1.59.07-2.21.08,1.38.07-.31.07-.24.15.82.07,0,.08-.23.07.15.07-.27.15,1.08.07-.55.08,0,.07-.07.15.36.07,1,.07-.8.08.06.07.32.07-.95L26,32.21l.07-.58.15-.08.07.81.07-.41.08.4.07-.69.07.38.08-.45.07.46.07-.17.08-.24L27.1,33l.07-.19.22-1.25.22,1.1.07,0,.07-.22.08.17.07.76.07-.73.08,0,.07-.1.07.14.08-.14.14.27.08-.29.14.68.22-.37.08,0,.07-.23.15.43.22-.6.29,1.33.22-.8.07-.22L30,33l.07.37.07-.39.08.06.14.32.15-.28.07.91.08-.87.07,0,.07.15.08-.47.07.52.07-.06.07-.48.08.78.07-.27.07-.07.08.74.07-.15.22-1,.07,0,.08.57.07-.43.15.45.07-.86.07.56.08-.1h.14l.15.32.07-.21.22,1,.08-.19.07-.67.07.13.08.18.07-.76.07.54L33.4,33l.07-.26.22,1,.15-1.13.07.23.22.58.15-.77.07.74.07-.34h.08l.07.17.14-.32.08.61.07-.27H35l.14.68.08-1,.07.6.07-.25.08-.43.07.94.07-.1.08.2.07-1.06.15,1.39.14-.64.15.16.07,0,.08-.51.07.5.22-1,.07.61.08-.52.14,1.27.08.34.07-.08.07-.27.08.17.07-.36.07,0,.08.35.07-.77.07.52.08-1.14L37.79,34l.08-.11.07-.28.07.46.08-.89.07.61.07-.56.08.48.36-5.8.15,6.48.07-.51.07,1,.08-.35.07-.38.07.51.08-.47.07.17.22-.08.07-.35.08.45L40,32.85l.07-.78.08.32.07-.16.29,3.17.08-.25.14.2.15-.61.29.56.08-.31.07.43.15-.78.14.76.15-.2.07.17.08-.49.21,1,.08-.15.07.23.07-.58.08.2.14.27.08-.12.14.55.15-.64.07.09.08,1,.07-.43.22-.4.07.75.08-.32.07.09.07-.16.15,1.09.22-.81.07.76.08-.13.07,0,.07-.25.08.06.14,1.15.08-.67.07.65.07-.67.08.12.07-.39.07.54.08-.36.07.3.07-.42.08.24.07.95.07-1,.08,1.12.07-.74.07.34.08-.19.14.59.07-.11.15-.63.07,0,.08.27.07-.4.29,1.16.15-.77.15.75L47,38l.07.53.37-2.12.07.94.08-.29.14.12.08,0L48,24.09l.07,3.64.22,10.77.07.2.08.83.14-.73.22.33.37-5.78.22-15.18.22,21.13.07.78.07-.77.08.35.14-.4.08-.48.14,1.27.22.67.08-.11.07-.76.07.83.08-.06.07-.19.07.42.15-.61.07.71.22-1.12.08,1,.07-.23.07-.09.08.69.14-.67.15.46.07-.59.08,0,.22.81.07-.38.07.38.08-.16.07-.06.07-.32.08.09.14,0,.22.44.08-.09.07-.62.07.64.07-.3.08.38.07-.13.07-.21.08.07.07.65.07-.72.08.21.22-.1.14-.65.15.92.07-.55.08.72.07-.27.07-.68.08.75.07-.23.07-.25.15.6.07-.38.08.44.14-.52.15.44.07-.13.15.06.15.31.07-.58.07.15.15-.19.07.42.15-.9.15.31.07-.07L56.7,39,57,41.55l.07-1.29.07,1.2.08-.51.07-.07.07-.26.15.37.15-.31L58,38.42l.08.21.22,2.16.07.48.22-.56.15.21.07-.08.07.62.08-.14.07-.57.07.2.08.16.14-.4.08.24.07-.21.07.12.08.27L60,39l.22.28.15-1.75.14-2.6.22,3,.22-2.33.3,4.86.07-.35.07.6.08,0L61.6,40l.08.31.22-.5.07.09.22-1,.07.33.22-2.26L62.7,40l.08.23.14-.62.22.49h.08l.07-.73.07.35.15-.93L63.66,36l.07.08.15-1.18.22,3.39.07.54.22-2,.22-6.31.07.92.22,6.81.15,1.42.14-.82.08.38.07-.15.07.25.08-.4.14.32.08.08.07-.72.07.41.3-2.38.22-7.32.14-14.7.08,13,.07-.26.15,7.41L67,33.33l.37,4.47.15.56.22,0,.07.2L68,37l.07,0,.07.21.22,1.52.08-.28.14.49.08-.83.07.53.07-.19.15.19.15-.46.07.33.22-.61.07.23.08-.14.07.78L70,36.59,70,34.87l.15,2.34.07-.3.15,2.22.07-1,.07-.37.15.67.22-.68L71,38l.15.18.07-.62.08.58.07-.66.07.72.08-.32.07.26.07-.36.07.45.08-.35.07.81.15-1,.07.32.15-1.15.07,1,.22-1.56L72.81,38l.08-.32.07.24.22-2.09.07.12.15,1,.07.12.22.9.08-.73.14,1.19.08-.93.07,0,.07-.21.08.53.07-.07.07-.07.08-.34.07.23.15-3,.14.72.15-3.23.15-4.27L75.16,29l.29,9.13.22.55.07-.51.15.56H76l.08-.26.07,1,.07-.75.08.68.14-1,.08.38.07-.24L76.7,37l.07.29.07.22.3-7.31.14,4.22.08-.19.36,4.84.3-4.32.07,2.69.07-.3.15,2.71.07-.3.22.8.08-.5.14.79.22-1,.07.18.15-.59.07.23.22,1,.08-.14.07.86.07-.86.08.34.07,0,.22-.9.22-4.09.07.26.22,4.13.15,1.23.07-.57.08.36.07-.75.07.18.08,0,.07.41.07-.18.08.17.22-1.86.44,2.74h.07l.15-.2.07.24.07-.13.15.24.07-.8.07.26.08-.27.07.08.15.6.07-.38.07.93.15-.68.07.43.08-.17.07-.52.07.38.08-.23.07.35.15-1.29.44,1.26.07-.77.07.25.08-.21L84.61,40l.07.29.08,0,.36,1,.08-.21.07.22.37-2,.07-.82.22,2.58.22,1,.07,0,.07,0,.22-.82.08-.39.07-1.7.07.25.08,1.13.07-.38.07-.26.15,1.36.07-.61L87.32,42l.22.38.15-.33.14-.19.08,0,.07-.41.07.4.15-3,.07-3,.08.8.22,3.39.22,2.33h.07l.15-1,.07.14.15.6L89.3,42l.29.55.15-.77.07.72.08-.33.07-.48.07.64.07-.47.08,0,.14-.09.08.62.07-.12.07-.27.08-.72.07,0,.15.17.07-.06.07.23.08.64.07-.19.07,0,.08-.18.07-.51.07.15.15.49.07-.55.08.12.07.68.07-.19.15-.94.07.05.15.28.22,1h.07l.08-.6.07.22h.07l.08-.48.14.79.08-.23.14.38.08-.41.07.1.15.57.21-.53.08.17.07-.36.15.41.07-.07.29-1.28.08-2,.07-6,.07,2,.08,2.79.07-1.44.15,1.74.22-10.69.07-13,.07,1,.08,16.45L95.38,28l.07,1.2L95.6,40.5l.15.63.14.28.08,0L96,40.22l.15,1.51.07-.51.29,1.54.15-.62.07-.71.08.38.07-.67.07,0,.08.27.07,0,.07-.23.07-1.06.08.24.22,1.36.29-6.47.07-4.44.08.51L98.16,38l.08-.48L98.38,42l.22-1.61L98.9,42l.07-.2.07.54.22-.67.08,1.08.07-.1.15-1.16.07.47.07.53.08-.84.07.22.07.37.08-.92.22,1.64.29-1.7.07.25.08-.71.07.24.22,2,.07-.6.07.09.08-.09.07-1.58.07.32.52-6.47.07.42.44,5.12.07.1.08-.83.22-11.21.14-3.65.3,13.87.14,4.1.08-.17.14.26.08-.28.07.33.37-2.39.07.38.07-.17.08-.45.29,1.3.07.33.07-.43.08.24.07-.18L105,40l.07.51.15-2.42.07.67.15-.19.14,1.25.22.5.15-.68.07-.23.22-2.09.08,1.35.07-.44.07.51.08-.53.14,1.57.08,0,.14-1,.15-3.44.07-3.09.08.86.14,3.2.08-.11.14,2.41.15-3.23.07.71.15,2.56L108,38l.22,3.24.08.1.07.32.07-.62.07.68.15-1,.15.35.07-.11.07-.81.08,0,.22,1.29.14-.69.08.51.07-.27.07.17.15-1.1.15-1.12.07.28.15,2.16.07-.26.22,1.92.07-.48.08.3.07-.22.29-2.07.08-.34.14,2.19.08-.83.29,2.09.07-.13.3-2.3.14,2.1.07-.06.08-.53.14,1.43.08-.27.07.45.07-.15.08-.22.07,0,.07,0,.15-.35.29.64.08-.52.07.42.07-.1h.08l.07-.18.07.07.08-.77.07.35.15.45.07-.33.07.51h.08l.07-.23.07.48.08-.19.07-.43.07.25.08-.46.07.2.15.42.22-2,.07.5.15-1,.14,2.08.08-.71.14.81.08-.06.14-1,.07.84.08-.36.36-4.53.22,3,.08-.33.22,2.49H117l.08.61.07-.4.07.11.08.15.07-.42.07.63.08-.26.07-.42.22.75.07-.19.15.33h.07l.22-1.69.08.23.07.94.07-.19.15-.32.07-.84.22-8.2.22,6.26.08-.89.21,4.48.08.43.07-.17.15.14.22-.68.14.29.08-.42.22-1.77.14-.48.15,1.63.07-.07.08.15.14,1.56.08-.25.07-.43.07.09.08.32.22-2.34.07.86.15.81.07-.42.22,1.3.22.47.07.2.08-.21.07.27.22-.7.07.37.08-.17.07.14.07-.25.07.54.08-.18.07-.05.15.5.14-.29.15.35.07,0,.08-.48.07.69L124,46l.08-.7.07.47.07-.66.15.88.07-.64.15.64.37-4.46.14,3.32.08-.3.07-1.13.15,2.45.07-.28.15.68.07-.33.15.44.07-.21.07,0,.08.2.07-.55.15.82.14-.53.08.1.07.61.15-.63.07.16.29-3.67.07.63.08.67.07-.12.15-.89.22,2.74.07.07.15.53.07.15.07-.28.08.22.07-.18.07-.79.08.38h.14l.08-.11.07.18.15-1.19.22,1.37.07-.45.29.93.08-.18.07-.49.15.6.07-.09.07.3.15-.68.15.84.07-.4.22-.61.14.88.08-.31.07.06.07.15.15-.6.07.35.08-.58.07.38.07-.38.15.6h.07l.08-.12.07.46.07-.28.08.13.07,0,.15.14.14-.39.15.45.22-.41.07.2.44-1.4.15.9.15-.07.07-.25.22.55.07-.23.15.46.07-.57.08.3.07-.17.07.17.08-.19.29-1.59.07,0,.07.55.08-.87.07.16.22,1.49.07-.38.15.64.29-1.84.08.06.07,1.21.07-.58.08-.27.22,1.18.22-.38.07.09.07.17.08.67.14-.71.08-.17.07-1,.07.25.08-.11.14.62L137,45l.29,1,.15-.58.07.82.07-.43.08.37.07-.41.07,0,.07,0,.15-.56.07,0,.22-4.08.08,1,.07,1,.07-.48.08-1.05.22,2.37.07-.54.07-.33.3,1.33.14-.34.08.51.07-.12.15-1.28.22,1.76.07-.19.07-.12.22,1.88.08-.28.07,0,.15.22.14-.58.08.41.07,0,.07-.13.08.05.07.31.15-.56.07.6.07-.18.15-.43.07.08.07.34.15-.28.15.25.14-.49.08.16.14.61.22-.67.15.56.07.11.08.43.07-.61.07.09.15-.3.07.31.08-.33.07.26.07-.42.15.24.15-.87.22,1.08.07-.07.07-.29.15.79.07-.82.08.43.07,0,.15-.61.07.14.07-.19.08.3.07-.27.07.15.15-.12.07.74.15-.7.07.35.07-.16.22.26.08.25.07-.18.07.26L146,46l.07.68.07-.53.15.88.22-.75.22,1.11.07-.58.08.2.07.13.15-.38.14-.2.08.31.07-.33.15.32.22-.51.07,0,.22-.45.07.29.08-.56.22,1.07.07-.27.07.54.08-.29.36,1.12.07,0,.08-.3.07.26.22-.62.15.49.07-.07.07-.45.08.36.07-.07L150,47l.08.71.07-.25.15.26h.07l.07-.81.08.38.07.12.07.57.15-.53.29.28.08-.55.14.59.08-.21.07.33.07-.12.08-.14.22-1.55.22,1.17.07-.2.07-.78.22,1.5.08-.09.07.35.07-.14.15-.38.14-1.45.3,1.41.14-.55.15,1,.07-.36.08.14.14.11.08.09.22-.36.07.4.15-.65.14.61.08-.31.07.1.07-.16.22.54.08-.33.07.16.07-.14.08.28.07-.58.07.44.08-.52.07.29.15-.79.14-.12.15.74.22-1,.22,1.09.07-1.14.07,0,.3,1.06.22-1.29.07.2.07,1,.08-.26.07.23.15-.16.14,0,.08-.19.14-.61.22,1.24.15-.5.44,1.28.07-.56.08.55.07-.25.07-.16.08.5.07-.19.07,0,.08-.46.14.58.37-1.23.07,0,.22.51.44-.83.07.2.08-.17.07.94h.07l.15-.66.15.06.22.81.07-.4.07.5h.08l.07-.4.07.42.15-.92.07.75.08-.32.07.35.07-.31.08.11.07,0,.07.21.08-.28.07.46.22-.9.07,0,.15-.38.07,0,.22.64.08-.17.43,1,.08-.24.07.22.37-1,.14,1,.08-.26.07.06.07-.22.08.33.07-.11.15.28.07.29.07-.33.08.07.14.21.08-.29.07.31.15-.35.14,0,.08-.18.07.12.15-.44.07.57.07-.19.08.11.07-.21.15.3.14-.06.08.1.07-.07.07-.15.08.19.14-.37.08.44.14-.42.29.26.08,0,.14.23.08-.07.14.43.08-.78.07,0,.29.59.08-.25.07.25.07-.1.08-.16.07.1.15-.11.07.3.07-.45.08.16.14.11.08-.42.07.38.07-.17.22-.38.15-.36.07,0L170,48l.07,0,.15-1.63.07-2.75.22,3.81.08,0,.14-1,.08.38.07,1.22L171,48l.15.72.07-.08.07-.26.15.18.15.13.14-.15h.08l.07.23.15-.49.07.07.15.27.29-.43.15.28.07-.11.22.45.07-.13.08-.11.07.54.07-.28.08-.26.07.21.07-.35.08.62.07-.27.37-.08.07.3.22-.63.07.38.08-.17.21-.06.15.16.15-.46.07.28.07-.19.08,0,.07.38.07-.57.08.17.07-.21.07.63.08-.24.07.1.15-.57.14.15.08.38.14-.34.08.37.14-.37.08.19.07,0,.07,0,.22-.39.15.44.07-.1.08.17.14-.42.08-.1.14.15h.22l.15-.4H178l.08-.47.07.62.07-.71.08.2.07.08.07-.07.15-.74.07.18h.15l.07.33.22-.5.07,0,.08-.51.14.52.08-.08.36-1.42.08.07.14.81.15-.48.07.2.08,0,.07,0,.07.6.15-.57.07.29.08-.26.14,1.11.08-.26.07.19.07-.74.08.3.14.23.08-.23.07.1.22.56.15-.76L182,47l.07-.3.08.07.07.47.15-.57.14.18.15.16.07-.27.08.48.07,0,.07-.42.08.11.07.29.07-.25.08,0,.14.46.08-.47.07.68.07-.24.15-.38.29.71.22-.54.15.79.07-.17.08.16.07,0,.07-.21.08.39.07-.21.07-.1.15.57.07-.31.15.55.15-.28.21,0,.08.25.07-.31.22.31.07,0,.08-.43.07.34.07-.18.08.27.07-.09.07.13.08-.33.07.26.07-.1.22.21.08-.17.07.4.07-.31.15.34.37-.54.07-.38.07.31.08-.47.07.25.07-.1.08.61.07-.32.07-.12.08.44.07-.32.07.68.08-.18.07.15.07-.27.15.38.07-.06.08-.3.14.48.08-.23.07.4.14-.34.08.35.07-.15.07-.34.08.22.07-.53.07,0,.15-.25.07.13.22.64.15-.57.07.41.08,0,.07-.39.07.37h0"/></g></g><g id="patch_3" data-name="patch 3"><path class="cls-11" d="M23.41,170.28V7.2"/></g><g id="patch_4" data-name="patch 4"><path class="cls-11" d="M23.41,170.28h167.4"/></g></g></g><g id="Time_label" data-name="Time label"><path d="M153.52,39.65l.83-.07a1.47,1.47,0,0,0,.43.91,1.16,1.16,0,0,0,.81.3,1.23,1.23,0,0,0,1-.43,1.6,1.6,0,0,0,.4-1.14,1.49,1.49,0,0,0-.38-1.07,1.35,1.35,0,0,0-1-.39,1.47,1.47,0,0,0-.69.17,1.48,1.48,0,0,0-.48.45l-.74-.09.62-3.31h3.2v.75h-2.57l-.34,1.74a2.07,2.07,0,0,1,1.21-.41,1.94,1.94,0,0,1,1.43.59,2.07,2.07,0,0,1,.58,1.5,2.34,2.34,0,0,1-.51,1.51,2,2,0,0,1-1.69.78,2.08,2.08,0,0,1-1.44-.49A1.9,1.9,0,0,1,153.52,39.65Z"/><path d="M161.5,41.33h-.79v-5a4.05,4.05,0,0,1-.75.55,5.72,5.72,0,0,1-.83.41v-.77a5,5,0,0,0,1.16-.75,3.07,3.07,0,0,0,.7-.87h.51Z"/><path d="M163.53,38.16a6.07,6.07,0,0,1,.23-1.84,2.29,2.29,0,0,1,.7-1.08,1.81,1.81,0,0,1,1.17-.38,1.91,1.91,0,0,1,.91.21,1.75,1.75,0,0,1,.64.6,3.23,3.23,0,0,1,.4,1,6.24,6.24,0,0,1,.15,1.53A6.14,6.14,0,0,1,167.5,40a2.3,2.3,0,0,1-.7,1.07,1.75,1.75,0,0,1-1.17.38,1.78,1.78,0,0,1-1.47-.67A4.24,4.24,0,0,1,163.53,38.16Zm.81,0a4,4,0,0,0,.37,2.11,1.09,1.09,0,0,0,.92.52,1.07,1.07,0,0,0,.91-.52,4,4,0,0,0,.38-2.11,4,4,0,0,0-.38-2.12,1.08,1.08,0,0,0-.92-.52,1,1,0,0,0-.87.46A4.12,4.12,0,0,0,164.34,38.16Z"/><path d="M174.28,41.33v-.59a1.44,1.44,0,0,1-1.3.7,1.78,1.78,0,0,1-1-.31,2.07,2.07,0,0,1-.73-.86A3,3,0,0,1,171,39a3.21,3.21,0,0,1,.23-1.26,1.87,1.87,0,0,1,.7-.88,1.89,1.89,0,0,1,1-.3,1.54,1.54,0,0,1,.75.18,1.61,1.61,0,0,1,.54.46V34.89H175v6.44ZM171.78,39a2,2,0,0,0,.38,1.34,1.13,1.13,0,0,0,.89.45,1.09,1.09,0,0,0,.88-.43,2,2,0,0,0,.36-1.29,2.18,2.18,0,0,0-.37-1.41,1.14,1.14,0,0,0-1.79,0A2.14,2.14,0,0,0,171.78,39Z"/><path d="M179.3,40.76a2.79,2.79,0,0,1-.84.52,2.3,2.3,0,0,1-.88.16,1.71,1.71,0,0,1-1.18-.38,1.25,1.25,0,0,1-.41-1,1.19,1.19,0,0,1,.16-.62,1.37,1.37,0,0,1,.4-.46,2.12,2.12,0,0,1,.57-.26,6.31,6.31,0,0,1,.71-.12,6.48,6.48,0,0,0,1.41-.27v-.21a.88.88,0,0,0-.22-.68,1.31,1.31,0,0,0-.9-.26,1.43,1.43,0,0,0-.83.19,1.2,1.2,0,0,0-.39.69l-.77-.1a1.9,1.9,0,0,1,.34-.8,1.43,1.43,0,0,1,.7-.47,3.14,3.14,0,0,1,1.06-.17,2.89,2.89,0,0,1,1,.14,1.28,1.28,0,0,1,.55.35,1.35,1.35,0,0,1,.25.54,5.41,5.41,0,0,1,0,.73v1.06a10,10,0,0,0,.05,1.39,1.64,1.64,0,0,0,.2.56h-.83A1.82,1.82,0,0,1,179.3,40.76ZM179.24,39a5.6,5.6,0,0,1-1.29.3,2.93,2.93,0,0,0-.69.16.69.69,0,0,0-.32.26.67.67,0,0,0-.11.37.68.68,0,0,0,.24.53,1,1,0,0,0,.7.21,1.69,1.69,0,0,0,.82-.2,1.2,1.2,0,0,0,.52-.55,1.82,1.82,0,0,0,.13-.79Z"/><path d="M181.23,43.13l-.09-.74a2.07,2.07,0,0,0,.45.07.82.82,0,0,0,.42-.09.63.63,0,0,0,.26-.25,4.58,4.58,0,0,0,.25-.58,1,1,0,0,1,.07-.2l-1.78-4.67h.86l1,2.7c.12.34.24.7.34,1.08.09-.36.2-.72.32-1.06l1-2.72h.79l-1.77,4.74a10,10,0,0,1-.45,1.06,1.55,1.55,0,0,1-.48.57,1.08,1.08,0,0,1-.65.19A1.7,1.7,0,0,1,181.23,43.13Z"/><path d="M185.45,39.94l.78-.12a1.1,1.1,0,0,0,.37.72,1.57,1.57,0,0,0,1.65,0,.69.69,0,0,0,.26-.52.51.51,0,0,0-.23-.43,3.23,3.23,0,0,0-.81-.26,9,9,0,0,1-1.21-.38,1.25,1.25,0,0,1-.51-.45,1.23,1.23,0,0,1-.17-.62,1.24,1.24,0,0,1,.14-.58,1.28,1.28,0,0,1,.39-.44,1.37,1.37,0,0,1,.5-.23,2.21,2.21,0,0,1,.69-.1,2.61,2.61,0,0,1,1,.16,1.33,1.33,0,0,1,.62.43,1.69,1.69,0,0,1,.27.72l-.78.11a.84.84,0,0,0-.3-.57,1.16,1.16,0,0,0-.72-.2,1.26,1.26,0,0,0-.77.18.52.52,0,0,0-.24.42.45.45,0,0,0,.1.28.7.7,0,0,0,.3.21c.08,0,.31.1.7.2a8.77,8.77,0,0,1,1.17.37,1.15,1.15,0,0,1,.52.42,1.11,1.11,0,0,1,.19.67,1.3,1.3,0,0,1-.23.75,1.49,1.49,0,0,1-.66.54,2.4,2.4,0,0,1-1,.19,2.18,2.18,0,0,1-1.38-.38A1.74,1.74,0,0,1,185.45,39.94Z"/><path d="M190,36.07l.2-.62a5.42,5.42,0,0,1,1,.43c-.06-.54-.09-.9-.09-1.1h.64c0,.29-.05.65-.1,1.09a7.84,7.84,0,0,1,1-.42l.21.62a5.1,5.1,0,0,1-1.1.25,7,7,0,0,1,.76.83l-.53.37a10,10,0,0,1-.6-.94,7.55,7.55,0,0,1-.57.94l-.52-.37a7.89,7.89,0,0,1,.73-.83C190.65,36.25,190.29,36.16,190,36.07Z"/><path class="cls-12" d="M157.67,66.89v.76h-4.25a1.3,1.3,0,0,1,.09-.55,2.87,2.87,0,0,1,.52-.85,8.38,8.38,0,0,1,1-1,8.6,8.6,0,0,0,1.42-1.36,1.64,1.64,0,0,0,.37-.95,1.08,1.08,0,0,0-.33-.8,1.39,1.39,0,0,0-1.8,0,1.33,1.33,0,0,0-.34,1l-.82-.08a2,2,0,0,1,.63-1.39,2.15,2.15,0,0,1,1.47-.48,2.05,2.05,0,0,1,1.46.52,1.69,1.69,0,0,1,.54,1.27,2,2,0,0,1-.15.76,3,3,0,0,1-.53.79,11.56,11.56,0,0,1-1.22,1.13c-.47.4-.78.67-.91.81a3,3,0,0,0-.34.43Z"/><path class="cls-12" d="M159.74,64.16a1.5,1.5,0,0,1-.73-.51,1.35,1.35,0,0,1-.24-.8,1.57,1.57,0,0,1,.51-1.19,1.85,1.85,0,0,1,1.34-.48,1.92,1.92,0,0,1,1.36.49,1.61,1.61,0,0,1,.51,1.2,1.28,1.28,0,0,1-.23.78,1.52,1.52,0,0,1-.72.51,1.79,1.79,0,0,1,.91.62,1.77,1.77,0,0,1,.31,1,1.85,1.85,0,0,1-.59,1.39,2.38,2.38,0,0,1-3.07,0,1.89,1.89,0,0,1-.59-1.41,1.7,1.7,0,0,1,.32-1.05A1.61,1.61,0,0,1,159.74,64.16Zm-.41,1.63a1.4,1.4,0,0,0,.16.66,1.11,1.11,0,0,0,.47.49,1.35,1.35,0,0,0,.68.17,1.3,1.3,0,0,0,.94-.36,1.24,1.24,0,0,0,.37-.93,1.26,1.26,0,0,0-.38-.94,1.37,1.37,0,0,0-1.88,0A1.28,1.28,0,0,0,159.33,65.79Zm.25-3a1.05,1.05,0,0,0,.29.75,1.08,1.08,0,0,0,.77.29,1.05,1.05,0,0,0,.75-.29,1,1,0,0,0,.29-.71,1,1,0,0,0-.3-.73,1,1,0,0,0-.75-.3,1.05,1.05,0,0,0-.75.29A1,1,0,0,0,159.58,62.82Z"/><path class="cls-12" d="M169.27,67.65v-.59a1.43,1.43,0,0,1-1.3.7,1.81,1.81,0,0,1-1-.31,2,2,0,0,1-.72-.86,3,3,0,0,1-.26-1.27,3.4,3.4,0,0,1,.23-1.26,1.93,1.93,0,0,1,.7-.88,1.89,1.89,0,0,1,1-.3,1.55,1.55,0,0,1,.76.18,1.58,1.58,0,0,1,.53.46V61.21H170v6.44Zm-2.5-2.33a2,2,0,0,0,.38,1.34,1.13,1.13,0,0,0,.89.45,1.09,1.09,0,0,0,.88-.43,1.89,1.89,0,0,0,.37-1.29,2.18,2.18,0,0,0-.37-1.41,1.16,1.16,0,0,0-.91-.44,1.08,1.08,0,0,0-.88.43A2.08,2.08,0,0,0,166.77,65.32Z"/><path class="cls-12" d="M174.3,67.08a3,3,0,0,1-.85.52,2.28,2.28,0,0,1-.87.16,1.69,1.69,0,0,1-1.18-.38,1.23,1.23,0,0,1-.42-1,1.33,1.33,0,0,1,.57-1.08,2.12,2.12,0,0,1,.57-.26,6.05,6.05,0,0,1,.7-.12,6.48,6.48,0,0,0,1.41-.27c0-.11,0-.18,0-.21a.88.88,0,0,0-.23-.68,1.31,1.31,0,0,0-.9-.26,1.38,1.38,0,0,0-.82.19,1.21,1.21,0,0,0-.4.69l-.77-.1a1.9,1.9,0,0,1,.35-.8,1.45,1.45,0,0,1,.7-.47,3.06,3.06,0,0,1,1.06-.17,2.93,2.93,0,0,1,1,.14,1.28,1.28,0,0,1,.55.36,1.23,1.23,0,0,1,.24.53,4.11,4.11,0,0,1,0,.73V65.7a12,12,0,0,0,.05,1.39,1.88,1.88,0,0,0,.2.56h-.82A1.41,1.41,0,0,1,174.3,67.08Zm-.07-1.77a5.6,5.6,0,0,1-1.29.3,2.93,2.93,0,0,0-.69.16.66.66,0,0,0-.31.26.6.6,0,0,0-.11.37.68.68,0,0,0,.24.53,1,1,0,0,0,.7.21,1.68,1.68,0,0,0,.81-.2,1.2,1.2,0,0,0,.52-.55,1.82,1.82,0,0,0,.13-.79Z"/><path class="cls-12" d="M176.22,69.45l-.08-.74a2.07,2.07,0,0,0,.45.07.87.87,0,0,0,.42-.09.69.69,0,0,0,.26-.25,3.31,3.31,0,0,0,.24-.58l.07-.2L175.81,63h.85l1,2.7a10.52,10.52,0,0,1,.34,1.08,9.32,9.32,0,0,1,.33-1.06l1-2.72h.8l-1.78,4.74a9.63,9.63,0,0,1-.44,1.06,1.69,1.69,0,0,1-.49.58,1.15,1.15,0,0,1-.65.18A1.48,1.48,0,0,1,176.22,69.45Z"/><path class="cls-12" d="M180.44,66.26l.78-.12a1.14,1.14,0,0,0,.37.72,1.31,1.31,0,0,0,.84.25,1.26,1.26,0,0,0,.81-.22.66.66,0,0,0,.26-.52.49.49,0,0,0-.23-.43,3.23,3.23,0,0,0-.81-.26,8.27,8.27,0,0,1-1.2-.38,1.13,1.13,0,0,1-.51-.45,1.15,1.15,0,0,1-.18-.62,1.17,1.17,0,0,1,.15-.58,1.1,1.1,0,0,1,.39-.44,1.56,1.56,0,0,1,.5-.23,2.15,2.15,0,0,1,.68-.1,2.63,2.63,0,0,1,1,.16,1.29,1.29,0,0,1,.61.43,1.69,1.69,0,0,1,.27.72l-.77.11a.9.9,0,0,0-.31-.57,1.13,1.13,0,0,0-.71-.2,1.32,1.32,0,0,0-.78.18.53.53,0,0,0-.23.42.45.45,0,0,0,.09.28.66.66,0,0,0,.31.21c.08,0,.31.1.7.2a10.6,10.6,0,0,1,1.17.37,1.2,1.2,0,0,1,.52.42,1.18,1.18,0,0,1,.19.67,1.38,1.38,0,0,1-.23.75,1.58,1.58,0,0,1-.67.54,2.38,2.38,0,0,1-1,.19,2.21,2.21,0,0,1-1.39-.38A1.74,1.74,0,0,1,180.44,66.26Z"/><path class="cls-13" d="M156.5,100h-.79v-5a4.29,4.29,0,0,1-.75.55,5.32,5.32,0,0,1-.84.41V95.1a5,5,0,0,0,1.16-.75,3.25,3.25,0,0,0,.71-.86h.51Z"/><path class="cls-13" d="M161.06,100V98.41h-2.8v-.72l2.94-4.18h.65v4.18h.87v.72h-.87V100Zm0-2.26V94.78l-2,2.91Z"/><path class="cls-13" d="M169.27,100v-.58a1.44,1.44,0,0,1-1.3.69,1.81,1.81,0,0,1-1-.31,2,2,0,0,1-.72-.86,3,3,0,0,1-.26-1.27,3.4,3.4,0,0,1,.23-1.26,1.93,1.93,0,0,1,.7-.88,1.89,1.89,0,0,1,1-.3,1.55,1.55,0,0,1,.76.18,1.58,1.58,0,0,1,.53.46V93.51H170V100Zm-2.5-2.33a2.07,2.07,0,0,0,.38,1.35,1.15,1.15,0,0,0,.89.44,1.11,1.11,0,0,0,.88-.42,1.94,1.94,0,0,0,.37-1.3,2.18,2.18,0,0,0-.37-1.41,1.16,1.16,0,0,0-.91-.44,1.08,1.08,0,0,0-.88.43A2.08,2.08,0,0,0,166.77,97.62Z"/><path class="cls-13" d="M174.3,99.38a3.25,3.25,0,0,1-.85.53,2.49,2.49,0,0,1-.87.15,1.69,1.69,0,0,1-1.18-.38,1.23,1.23,0,0,1-.42-1,1.33,1.33,0,0,1,.16-.62,1.3,1.3,0,0,1,.41-.46,2.12,2.12,0,0,1,.57-.26,6.05,6.05,0,0,1,.7-.12,6.48,6.48,0,0,0,1.41-.27c0-.11,0-.18,0-.2a.89.89,0,0,0-.23-.69,1.36,1.36,0,0,0-.9-.26,1.38,1.38,0,0,0-.82.19,1.21,1.21,0,0,0-.4.69l-.77-.1a1.9,1.9,0,0,1,.35-.8,1.45,1.45,0,0,1,.7-.47,3.06,3.06,0,0,1,1.06-.17,2.93,2.93,0,0,1,1,.14,1.28,1.28,0,0,1,.55.36,1.23,1.23,0,0,1,.24.53,4.11,4.11,0,0,1,0,.73V98a12,12,0,0,0,.05,1.39,1.78,1.78,0,0,0,.2.56h-.82A1.41,1.41,0,0,1,174.3,99.38Zm-.07-1.77a5.6,5.6,0,0,1-1.29.3,2.93,2.93,0,0,0-.69.16.66.66,0,0,0-.31.26.6.6,0,0,0-.11.37.68.68,0,0,0,.24.53,1,1,0,0,0,.7.21,1.68,1.68,0,0,0,.81-.2,1.2,1.2,0,0,0,.52-.55,1.82,1.82,0,0,0,.13-.79Z"/><path class="cls-13" d="M176.22,101.75l-.08-.74a1.6,1.6,0,0,0,.45.07A.87.87,0,0,0,177,101a.75.75,0,0,0,.26-.24,4,4,0,0,0,.24-.59l.07-.2-1.77-4.67h.85l1,2.7a10.52,10.52,0,0,1,.34,1.08A9.32,9.32,0,0,1,178.3,98l1-2.72h.8L178.31,100a9.63,9.63,0,0,1-.44,1.06,1.69,1.69,0,0,1-.49.58,1.15,1.15,0,0,1-.65.18A1.48,1.48,0,0,1,176.22,101.75Z"/><path class="cls-13" d="M180.44,98.56l.78-.12a1.14,1.14,0,0,0,.37.72,1.26,1.26,0,0,0,.84.25,1.21,1.21,0,0,0,.81-.22.65.65,0,0,0,.26-.52.49.49,0,0,0-.23-.43,3.23,3.23,0,0,0-.81-.26,8.27,8.27,0,0,1-1.2-.38,1.13,1.13,0,0,1-.51-.45,1.15,1.15,0,0,1-.18-.62,1.17,1.17,0,0,1,.15-.58,1.1,1.1,0,0,1,.39-.44,1.56,1.56,0,0,1,.5-.23,2.15,2.15,0,0,1,.68-.1,2.63,2.63,0,0,1,1,.16,1.37,1.37,0,0,1,.61.43,1.69,1.69,0,0,1,.27.72l-.77.11a.9.9,0,0,0-.31-.57,1.13,1.13,0,0,0-.71-.2,1.32,1.32,0,0,0-.78.18.53.53,0,0,0-.23.42.45.45,0,0,0,.09.28.66.66,0,0,0,.31.21c.08,0,.31.1.7.2a10.6,10.6,0,0,1,1.17.37,1.2,1.2,0,0,1,.52.42,1.18,1.18,0,0,1,.19.67,1.38,1.38,0,0,1-.23.75,1.58,1.58,0,0,1-.67.54,2.38,2.38,0,0,1-1,.19,2.21,2.21,0,0,1-1.39-.38A1.74,1.74,0,0,1,180.44,98.56Z"/><path class="cls-14" d="M153.57,121.2v-.76h4.17v.62a8.32,8.32,0,0,0-1.22,1.74,10.53,10.53,0,0,0-.93,2.23,8.58,8.58,0,0,0-.31,1.77h-.81a8,8,0,0,1,.3-1.84,9.4,9.4,0,0,1,.82-2.07,8.71,8.71,0,0,1,1.13-1.69Z"/><path class="cls-14" d="M164.27,126.8v-.59a1.47,1.47,0,0,1-1.31.7,1.85,1.85,0,0,1-1-.31,2.06,2.06,0,0,1-.73-.86,3,3,0,0,1-.25-1.27,3.23,3.23,0,0,1,.23-1.27,1.79,1.79,0,0,1,.7-.87,1.86,1.86,0,0,1,1-.3,1.54,1.54,0,0,1,.75.18,1.51,1.51,0,0,1,.54.46v-2.31H165v6.44Zm-2.5-2.33a2,2,0,0,0,.38,1.34,1.13,1.13,0,0,0,1.77,0,2,2,0,0,0,.36-1.29,2.18,2.18,0,0,0-.37-1.41,1.13,1.13,0,0,0-1.79,0A2.17,2.17,0,0,0,161.77,124.47Z"/><path class="cls-14" d="M169.29,126.22a2.84,2.84,0,0,1-.84.53,2.59,2.59,0,0,1-.88.16,1.71,1.71,0,0,1-1.18-.38,1.25,1.25,0,0,1-.41-1,1.33,1.33,0,0,1,.15-.63,1.38,1.38,0,0,1,.41-.45,1.85,1.85,0,0,1,.57-.26,6.31,6.31,0,0,1,.71-.12,8.4,8.4,0,0,0,1.41-.27v-.21A.87.87,0,0,0,169,123a1.34,1.34,0,0,0-.9-.27,1.41,1.41,0,0,0-.83.2,1.15,1.15,0,0,0-.39.69l-.78-.11a2,2,0,0,1,.35-.8,1.57,1.57,0,0,1,.7-.47,3.11,3.11,0,0,1,1.06-.16,2.65,2.65,0,0,1,1,.14,1.28,1.28,0,0,1,.55.35,1.23,1.23,0,0,1,.25.54,5.41,5.41,0,0,1,0,.73v1a10.14,10.14,0,0,0,.05,1.4,1.71,1.71,0,0,0,.2.56h-.83A1.89,1.89,0,0,1,169.29,126.22Zm-.06-1.76a6.15,6.15,0,0,1-1.3.3,2.7,2.7,0,0,0-.69.16.64.64,0,0,0-.31.25.73.73,0,0,0-.11.38.69.69,0,0,0,.24.53,1,1,0,0,0,.7.21,1.69,1.69,0,0,0,.82-.2,1.31,1.31,0,0,0,.52-.55,2,2,0,0,0,.13-.79Z"/><path class="cls-14" d="M171.22,128.6l-.09-.75a1.6,1.6,0,0,0,.45.07.83.83,0,0,0,.42-.08.63.63,0,0,0,.26-.25,3.57,3.57,0,0,0,.24-.59s0-.11.08-.19l-1.78-4.68h.86l1,2.71c.12.34.24.7.34,1.08.09-.37.2-.72.32-1.07l1-2.72h.79l-1.78,4.75a8.6,8.6,0,0,1-.44,1.06,1.55,1.55,0,0,1-.48.57,1.15,1.15,0,0,1-.65.18A1.61,1.61,0,0,1,171.22,128.6Z"/><path class="cls-14" d="M175.44,125.41l.78-.13a1,1,0,0,0,.36.72,1.3,1.3,0,0,0,.85.25,1.24,1.24,0,0,0,.81-.22.66.66,0,0,0,.26-.52.48.48,0,0,0-.23-.42,3.56,3.56,0,0,0-.81-.27,6.76,6.76,0,0,1-1.21-.38,1.16,1.16,0,0,1-.51-.44,1.24,1.24,0,0,1-.17-.63,1.27,1.27,0,0,1,.14-.58,1.49,1.49,0,0,1,.39-.44,1.8,1.8,0,0,1,.5-.23,2.56,2.56,0,0,1,.69-.09,2.61,2.61,0,0,1,1,.16,1.23,1.23,0,0,1,.61.42,1.62,1.62,0,0,1,.28.73l-.78.1a.8.8,0,0,0-.3-.56,1.16,1.16,0,0,0-.72-.2,1.26,1.26,0,0,0-.77.18.52.52,0,0,0-.24.42.44.44,0,0,0,.1.28.72.72,0,0,0,.3.21l.7.2a8.77,8.77,0,0,1,1.17.37,1.1,1.1,0,0,1,.71,1.09,1.27,1.27,0,0,1-.23.74,1.37,1.37,0,0,1-.66.54,2.4,2.4,0,0,1-1,.2,2.23,2.23,0,0,1-1.39-.38A1.76,1.76,0,0,1,175.44,125.41Z"/><path class="cls-15" d="M156.5,154.49h-.79v-5a5.63,5.63,0,0,1-.75.55,5.18,5.18,0,0,1-.84.4v-.76a4.75,4.75,0,0,0,1.16-.76A3,3,0,0,0,156,148h.51Z"/><path class="cls-15" d="M164.27,154.49v-.59a1.45,1.45,0,0,1-1.31.7,1.85,1.85,0,0,1-1-.31,2.06,2.06,0,0,1-.73-.86,3,3,0,0,1-.25-1.27,3.26,3.26,0,0,1,.23-1.27,1.84,1.84,0,0,1,.7-.87,1.86,1.86,0,0,1,1-.3,1.54,1.54,0,0,1,.75.18,1.61,1.61,0,0,1,.54.46v-2.31H165v6.44Zm-2.5-2.33a2,2,0,0,0,.38,1.34,1.13,1.13,0,0,0,.89.45,1.11,1.11,0,0,0,.88-.43,2,2,0,0,0,.36-1.29,2.18,2.18,0,0,0-.37-1.41,1.13,1.13,0,0,0-1.79,0A2.17,2.17,0,0,0,161.77,152.16Z"/><path class="cls-15" d="M169.29,153.92a2.79,2.79,0,0,1-.84.52,2.37,2.37,0,0,1-.88.16,1.71,1.71,0,0,1-1.18-.38,1.25,1.25,0,0,1-.41-1,1.33,1.33,0,0,1,.15-.63,1.48,1.48,0,0,1,.41-.45,2.12,2.12,0,0,1,.57-.26,6.31,6.31,0,0,1,.71-.12,7.48,7.48,0,0,0,1.41-.27v-.21a.87.87,0,0,0-.22-.68,1.34,1.34,0,0,0-.9-.27,1.41,1.41,0,0,0-.83.2,1.15,1.15,0,0,0-.39.69l-.78-.1a2,2,0,0,1,.35-.81,1.57,1.57,0,0,1,.7-.47,3.11,3.11,0,0,1,1.06-.16,2.89,2.89,0,0,1,1,.14,1.28,1.28,0,0,1,.55.35,1.35,1.35,0,0,1,.25.54,5.41,5.41,0,0,1,0,.73v1.06a10,10,0,0,0,.05,1.39,1.64,1.64,0,0,0,.2.56h-.83A1.82,1.82,0,0,1,169.29,153.92Zm-.06-1.77a5.58,5.58,0,0,1-1.3.3,3.22,3.22,0,0,0-.69.16.7.7,0,0,0-.31.25.73.73,0,0,0-.11.38.68.68,0,0,0,.24.53,1,1,0,0,0,.7.21,1.69,1.69,0,0,0,.82-.2,1.31,1.31,0,0,0,.52-.55,2,2,0,0,0,.13-.79Z"/><path class="cls-15" d="M171.22,156.29l-.09-.74a2.07,2.07,0,0,0,.45.07.82.82,0,0,0,.42-.09.63.63,0,0,0,.26-.25,3.57,3.57,0,0,0,.24-.59s0-.11.08-.19l-1.78-4.68h.86l1,2.71c.12.34.24.7.34,1.08.09-.36.2-.72.32-1.07l1-2.72h.79l-1.78,4.75a8.6,8.6,0,0,1-.44,1.06,1.55,1.55,0,0,1-.48.57,1.16,1.16,0,0,1-.65.19A1.64,1.64,0,0,1,171.22,156.29Z"/><path class="cls-15" d="M175.44,153.1l.78-.12a1.09,1.09,0,0,0,.36.72,1.36,1.36,0,0,0,.85.25,1.24,1.24,0,0,0,.81-.23.66.66,0,0,0,.26-.52.49.49,0,0,0-.23-.42,3.56,3.56,0,0,0-.81-.27,6.76,6.76,0,0,1-1.21-.38,1.16,1.16,0,0,1-.51-.44,1.24,1.24,0,0,1,0-1.2,1.41,1.41,0,0,1,.39-.45,1.8,1.8,0,0,1,.5-.23,2.56,2.56,0,0,1,.69-.09,2.61,2.61,0,0,1,1,.16,1.18,1.18,0,0,1,.61.43,1.58,1.58,0,0,1,.28.72l-.78.1a.82.82,0,0,0-.3-.56,1.16,1.16,0,0,0-.72-.2,1.26,1.26,0,0,0-.77.18.52.52,0,0,0-.24.42.42.42,0,0,0,.1.28.72.72,0,0,0,.3.21c.08,0,.31.1.7.2a8.77,8.77,0,0,1,1.17.37,1.1,1.1,0,0,1,.71,1.09,1.32,1.32,0,0,1-.23.75,1.49,1.49,0,0,1-.66.54,2.57,2.57,0,0,1-1,.19,2.23,2.23,0,0,1-1.39-.38A1.76,1.76,0,0,1,175.44,153.1Z"/></g></svg>