<?xml version="1.0" encoding="utf-8" standalone="no"?>
<!DOCTYPE svg PUBLIC "-//W3C//DTD SVG 1.1//EN"
  "http://www.w3.org/Graphics/SVG/1.1/DTD/svg11.dtd">
<svg xmlns:xlink="http://www.w3.org/1999/xlink" width="147.300313pt" height="192.94125pt" viewBox="0 0 147.300313 192.94125" xmlns="http://www.w3.org/2000/svg" version="1.1">
 <metadata>
  <rdf:RDF xmlns:dc="http://purl.org/dc/elements/1.1/" xmlns:cc="http://creativecommons.org/ns#" xmlns:rdf="http://www.w3.org/1999/02/22-rdf-syntax-ns#">
   <cc:Work>
    <dc:type rdf:resource="http://purl.org/dc/dcmitype/StillImage"/>
    <dc:date>2023-06-05T22:11:26.140149</dc:date>
    <dc:format>image/svg+xml</dc:format>
    <dc:creator>
     <cc:Agent>
      <dc:title>Matplotlib v3.7.1, https://matplotlib.org/</dc:title>
     </cc:Agent>
    </dc:creator>
   </cc:Work>
  </rdf:RDF>
 </metadata>
 <defs>
  <style type="text/css">*{stroke-linejoin: round; stroke-linecap: butt}</style>
 </defs>
 <g id="figure_1">
  <g id="patch_1">
   <path d="M 0 192.94125 
L 147.300313 192.94125 
L 147.300313 0 
L 0 0 
z
" style="fill: #ffffff"/>
  </g>
  <g id="axes_1">
   <g id="patch_2">
    <path d="M 23.410313 158.218125 
L 135.010312 158.218125 
L 135.010312 22.318125 
L 23.410313 22.318125 
z
" style="fill: #ffffff"/>
   </g>
   <g id="matplotlib.axis_1">
    <g id="xtick_1">
     <g id="line2d_1">
      <defs>
       <path id="m5cc3fef0c6" d="M 0 0 
L 0 3.5 
" style="stroke: #000000; stroke-width: 0.8"/>
      </defs>
      <g>
       <use xlink:href="#m5cc3fef0c6" x="23.410312" y="158.218125" style="stroke: #000000; stroke-width: 0.8"/>
      </g>
     </g>
     <g id="text_1">
      <!-- 10 -->
      <g transform="translate(18.320312 171.296875) scale(0.08 -0.08)">
       <defs>
        <path id="DejaVuSans-31" d="M 794 531 
L 1825 531 
L 1825 4091 
L 703 3866 
L 703 4441 
L 1819 4666 
L 2450 4666 
L 2450 531 
L 3481 531 
L 3481 0 
L 794 0 
L 794 531 
z
" transform="scale(0.015625)"/>
        <path id="DejaVuSans-30" d="M 2034 4250 
Q 1547 4250 1301 3770 
Q 1056 3291 1056 2328 
Q 1056 1369 1301 889 
Q 1547 409 2034 409 
Q 2525 409 2770 889 
Q 3016 1369 3016 2328 
Q 3016 3291 2770 3770 
Q 2525 4250 2034 4250 
z
M 2034 4750 
Q 2819 4750 3233 4129 
Q 3647 3509 3647 2328 
Q 3647 1150 3233 529 
Q 2819 -91 2034 -91 
Q 1250 -91 836 529 
Q 422 1150 422 2328 
Q 422 3509 836 4129 
Q 1250 4750 2034 4750 
z
" transform="scale(0.015625)"/>
       </defs>
       <use xlink:href="#DejaVuSans-31"/>
       <use xlink:href="#DejaVuSans-30" x="63.623047"/>
      </g>
     </g>
    </g>
    <g id="xtick_2">
     <g id="line2d_2">
      <g>
       <use xlink:href="#m5cc3fef0c6" x="60.610312" y="158.218125" style="stroke: #000000; stroke-width: 0.8"/>
      </g>
     </g>
     <g id="text_2">
      <!-- 11 -->
      <g transform="translate(55.520312 171.296875) scale(0.08 -0.08)">
       <use xlink:href="#DejaVuSans-31"/>
       <use xlink:href="#DejaVuSans-31" x="63.623047"/>
      </g>
     </g>
    </g>
    <g id="xtick_3">
     <g id="line2d_3">
      <g>
       <use xlink:href="#m5cc3fef0c6" x="97.810313" y="158.218125" style="stroke: #000000; stroke-width: 0.8"/>
      </g>
     </g>
     <g id="text_3">
      <!-- 12 -->
      <g transform="translate(92.720313 171.296875) scale(0.08 -0.08)">
       <defs>
        <path id="DejaVuSans-32" d="M 1228 531 
L 3431 531 
L 3431 0 
L 469 0 
L 469 531 
Q 828 903 1448 1529 
Q 2069 2156 2228 2338 
Q 2531 2678 2651 2914 
Q 2772 3150 2772 3378 
Q 2772 3750 2511 3984 
Q 2250 4219 1831 4219 
Q 1534 4219 1204 4116 
Q 875 4013 500 3803 
L 500 4441 
Q 881 4594 1212 4672 
Q 1544 4750 1819 4750 
Q 2544 4750 2975 4387 
Q 3406 4025 3406 3419 
Q 3406 3131 3298 2873 
Q 3191 2616 2906 2266 
Q 2828 2175 2409 1742 
Q 1991 1309 1228 531 
z
" transform="scale(0.015625)"/>
       </defs>
       <use xlink:href="#DejaVuSans-31"/>
       <use xlink:href="#DejaVuSans-32" x="63.623047"/>
      </g>
     </g>
    </g>
    <g id="xtick_4">
     <g id="line2d_4">
      <g>
       <use xlink:href="#m5cc3fef0c6" x="135.010312" y="158.218125" style="stroke: #000000; stroke-width: 0.8"/>
      </g>
     </g>
     <g id="text_4">
      <!-- 13 -->
      <g transform="translate(129.920312 171.296875) scale(0.08 -0.08)">
       <defs>
        <path id="DejaVuSans-33" d="M 2597 2516 
Q 3050 2419 3304 2112 
Q 3559 1806 3559 1356 
Q 3559 666 3084 287 
Q 2609 -91 1734 -91 
Q 1441 -91 1130 -33 
Q 819 25 488 141 
L 488 750 
Q 750 597 1062 519 
Q 1375 441 1716 441 
Q 2309 441 2620 675 
Q 2931 909 2931 1356 
Q 2931 1769 2642 2001 
Q 2353 2234 1838 2234 
L 1294 2234 
L 1294 2753 
L 1863 2753 
Q 2328 2753 2575 2939 
Q 2822 3125 2822 3475 
Q 2822 3834 2567 4026 
Q 2313 4219 1838 4219 
Q 1578 4219 1281 4162 
Q 984 4106 628 3988 
L 628 4550 
Q 988 4650 1302 4700 
Q 1616 4750 1894 4750 
Q 2613 4750 3031 4423 
Q 3450 4097 3450 3541 
Q 3450 3153 3228 2886 
Q 3006 2619 2597 2516 
z
" transform="scale(0.015625)"/>
       </defs>
       <use xlink:href="#DejaVuSans-31"/>
       <use xlink:href="#DejaVuSans-33" x="63.623047"/>
      </g>
     </g>
    </g>
    <g id="xtick_5">
     <g id="line2d_5">
      <defs>
       <path id="m18dc5973ea" d="M 0 0 
L 0 2 
" style="stroke: #000000; stroke-width: 0.6"/>
      </defs>
      <g>
       <use xlink:href="#m18dc5973ea" x="116.410312" y="158.218125" style="stroke: #000000; stroke-width: 0.6"/>
      </g>
     </g>
    </g>
    <g id="text_5">
     <!-- 2θ (degrees) -->
     <g transform="translate(50.538984 183.869531) scale(0.09 -0.09)">
      <defs>
       <path id="DejaVuSans-3b8" d="M 2953 2219 
L 963 2219 
Q 1009 1284 1225 888 
Q 1494 400 1959 400 
Q 2428 400 2688 891 
Q 2916 1322 2953 2219 
z
M 2944 2750 
Q 2856 3638 2688 3950 
Q 2419 4444 1959 4444 
Q 1481 4444 1228 3956 
Q 1028 3563 969 2750 
L 2944 2750 
z
M 1959 4913 
Q 2709 4913 3138 4250 
Q 3566 3591 3566 2422 
Q 3566 1256 3138 594 
Q 2709 -72 1959 -72 
Q 1206 -72 781 594 
Q 353 1256 353 2422 
Q 353 3591 781 4250 
Q 1206 4913 1959 4913 
z
" transform="scale(0.015625)"/>
       <path id="DejaVuSans-20" transform="scale(0.015625)"/>
       <path id="DejaVuSans-28" d="M 1984 4856 
Q 1566 4138 1362 3434 
Q 1159 2731 1159 2009 
Q 1159 1288 1364 580 
Q 1569 -128 1984 -844 
L 1484 -844 
Q 1016 -109 783 600 
Q 550 1309 550 2009 
Q 550 2706 781 3412 
Q 1013 4119 1484 4856 
L 1984 4856 
z
" transform="scale(0.015625)"/>
       <path id="DejaVuSans-64" d="M 2906 2969 
L 2906 4863 
L 3481 4863 
L 3481 0 
L 2906 0 
L 2906 525 
Q 2725 213 2448 61 
Q 2172 -91 1784 -91 
Q 1150 -91 751 415 
Q 353 922 353 1747 
Q 353 2572 751 3078 
Q 1150 3584 1784 3584 
Q 2172 3584 2448 3432 
Q 2725 3281 2906 2969 
z
M 947 1747 
Q 947 1113 1208 752 
Q 1469 391 1925 391 
Q 2381 391 2643 752 
Q 2906 1113 2906 1747 
Q 2906 2381 2643 2742 
Q 2381 3103 1925 3103 
Q 1469 3103 1208 2742 
Q 947 2381 947 1747 
z
" transform="scale(0.015625)"/>
       <path id="DejaVuSans-65" d="M 3597 1894 
L 3597 1613 
L 953 1613 
Q 991 1019 1311 708 
Q 1631 397 2203 397 
Q 2534 397 2845 478 
Q 3156 559 3463 722 
L 3463 178 
Q 3153 47 2828 -22 
Q 2503 -91 2169 -91 
Q 1331 -91 842 396 
Q 353 884 353 1716 
Q 353 2575 817 3079 
Q 1281 3584 2069 3584 
Q 2775 3584 3186 3129 
Q 3597 2675 3597 1894 
z
M 3022 2063 
Q 3016 2534 2758 2815 
Q 2500 3097 2075 3097 
Q 1594 3097 1305 2825 
Q 1016 2553 972 2059 
L 3022 2063 
z
" transform="scale(0.015625)"/>
       <path id="DejaVuSans-67" d="M 2906 1791 
Q 2906 2416 2648 2759 
Q 2391 3103 1925 3103 
Q 1463 3103 1205 2759 
Q 947 2416 947 1791 
Q 947 1169 1205 825 
Q 1463 481 1925 481 
Q 2391 481 2648 825 
Q 2906 1169 2906 1791 
z
M 3481 434 
Q 3481 -459 3084 -895 
Q 2688 -1331 1869 -1331 
Q 1566 -1331 1297 -1286 
Q 1028 -1241 775 -1147 
L 775 -588 
Q 1028 -725 1275 -790 
Q 1522 -856 1778 -856 
Q 2344 -856 2625 -561 
Q 2906 -266 2906 331 
L 2906 616 
Q 2728 306 2450 153 
Q 2172 0 1784 0 
Q 1141 0 747 490 
Q 353 981 353 1791 
Q 353 2603 747 3093 
Q 1141 3584 1784 3584 
Q 2172 3584 2450 3431 
Q 2728 3278 2906 2969 
L 2906 3500 
L 3481 3500 
L 3481 434 
z
" transform="scale(0.015625)"/>
       <path id="DejaVuSans-72" d="M 2631 2963 
Q 2534 3019 2420 3045 
Q 2306 3072 2169 3072 
Q 1681 3072 1420 2755 
Q 1159 2438 1159 1844 
L 1159 0 
L 581 0 
L 581 3500 
L 1159 3500 
L 1159 2956 
Q 1341 3275 1631 3429 
Q 1922 3584 2338 3584 
Q 2397 3584 2469 3576 
Q 2541 3569 2628 3553 
L 2631 2963 
z
" transform="scale(0.015625)"/>
       <path id="DejaVuSans-73" d="M 2834 3397 
L 2834 2853 
Q 2591 2978 2328 3040 
Q 2066 3103 1784 3103 
Q 1356 3103 1142 2972 
Q 928 2841 928 2578 
Q 928 2378 1081 2264 
Q 1234 2150 1697 2047 
L 1894 2003 
Q 2506 1872 2764 1633 
Q 3022 1394 3022 966 
Q 3022 478 2636 193 
Q 2250 -91 1575 -91 
Q 1294 -91 989 -36 
Q 684 19 347 128 
L 347 722 
Q 666 556 975 473 
Q 1284 391 1588 391 
Q 1994 391 2212 530 
Q 2431 669 2431 922 
Q 2431 1156 2273 1281 
Q 2116 1406 1581 1522 
L 1381 1569 
Q 847 1681 609 1914 
Q 372 2147 372 2553 
Q 372 3047 722 3315 
Q 1072 3584 1716 3584 
Q 2034 3584 2315 3537 
Q 2597 3491 2834 3397 
z
" transform="scale(0.015625)"/>
       <path id="DejaVuSans-29" d="M 513 4856 
L 1013 4856 
Q 1481 4119 1714 3412 
Q 1947 2706 1947 2009 
Q 1947 1309 1714 600 
Q 1481 -109 1013 -844 
L 513 -844 
Q 928 -128 1133 580 
Q 1338 1288 1338 2009 
Q 1338 2731 1133 3434 
Q 928 4138 513 4856 
z
" transform="scale(0.015625)"/>
      </defs>
      <use xlink:href="#DejaVuSans-32"/>
      <use xlink:href="#DejaVuSans-3b8" x="63.623047"/>
      <use xlink:href="#DejaVuSans-20" x="124.804688"/>
      <use xlink:href="#DejaVuSans-28" x="156.591797"/>
      <use xlink:href="#DejaVuSans-64" x="195.605469"/>
      <use xlink:href="#DejaVuSans-65" x="259.082031"/>
      <use xlink:href="#DejaVuSans-67" x="320.605469"/>
      <use xlink:href="#DejaVuSans-72" x="384.082031"/>
      <use xlink:href="#DejaVuSans-65" x="422.945312"/>
      <use xlink:href="#DejaVuSans-65" x="484.46875"/>
      <use xlink:href="#DejaVuSans-73" x="545.992188"/>
      <use xlink:href="#DejaVuSans-29" x="598.091797"/>
     </g>
    </g>
   </g>
   <g id="matplotlib.axis_2">
    <g id="ytick_1">
     <g id="line2d_6"/>
    </g>
    <g id="ytick_2">
     <g id="line2d_7"/>
    </g>
    <g id="ytick_3">
     <g id="line2d_8"/>
    </g>
    <g id="ytick_4">
     <g id="line2d_9"/>
    </g>
    <g id="ytick_5">
     <g id="line2d_10"/>
    </g>
    <g id="ytick_6">
     <g id="line2d_11"/>
    </g>
    <g id="ytick_7">
     <g id="line2d_12"/>
    </g>
    <g id="ytick_8">
     <g id="line2d_13"/>
    </g>
    <g id="text_6">
     <!-- Intensity -->
     <g transform="translate(14.038594 109.854375) rotate(-90) scale(0.09 -0.09)">
      <defs>
       <path id="DejaVuSans-49" d="M 628 4666 
L 1259 4666 
L 1259 0 
L 628 0 
L 628 4666 
z
" transform="scale(0.015625)"/>
       <path id="DejaVuSans-6e" d="M 3513 2113 
L 3513 0 
L 2938 0 
L 2938 2094 
Q 2938 2591 2744 2837 
Q 2550 3084 2163 3084 
Q 1697 3084 1428 2787 
Q 1159 2491 1159 1978 
L 1159 0 
L 581 0 
L 581 3500 
L 1159 3500 
L 1159 2956 
Q 1366 3272 1645 3428 
Q 1925 3584 2291 3584 
Q 2894 3584 3203 3211 
Q 3513 2838 3513 2113 
z
" transform="scale(0.015625)"/>
       <path id="DejaVuSans-74" d="M 1172 4494 
L 1172 3500 
L 2356 3500 
L 2356 3053 
L 1172 3053 
L 1172 1153 
Q 1172 725 1289 603 
Q 1406 481 1766 481 
L 2356 481 
L 2356 0 
L 1766 0 
Q 1100 0 847 248 
Q 594 497 594 1153 
L 594 3053 
L 172 3053 
L 172 3500 
L 594 3500 
L 594 4494 
L 1172 4494 
z
" transform="scale(0.015625)"/>
       <path id="DejaVuSans-69" d="M 603 3500 
L 1178 3500 
L 1178 0 
L 603 0 
L 603 3500 
z
M 603 4863 
L 1178 4863 
L 1178 4134 
L 603 4134 
L 603 4863 
z
" transform="scale(0.015625)"/>
       <path id="DejaVuSans-79" d="M 2059 -325 
Q 1816 -950 1584 -1140 
Q 1353 -1331 966 -1331 
L 506 -1331 
L 506 -850 
L 844 -850 
Q 1081 -850 1212 -737 
Q 1344 -625 1503 -206 
L 1606 56 
L 191 3500 
L 800 3500 
L 1894 763 
L 2988 3500 
L 3597 3500 
L 2059 -325 
z
" transform="scale(0.015625)"/>
      </defs>
      <use xlink:href="#DejaVuSans-49"/>
      <use xlink:href="#DejaVuSans-6e" x="29.492188"/>
      <use xlink:href="#DejaVuSans-74" x="92.871094"/>
      <use xlink:href="#DejaVuSans-65" x="132.080078"/>
      <use xlink:href="#DejaVuSans-6e" x="193.603516"/>
      <use xlink:href="#DejaVuSans-73" x="256.982422"/>
      <use xlink:href="#DejaVuSans-69" x="309.082031"/>
      <use xlink:href="#DejaVuSans-74" x="336.865234"/>
      <use xlink:href="#DejaVuSans-79" x="376.074219"/>
     </g>
    </g>
   </g>
   <g id="line2d_14">
    <path d="M 23.307555 118.407978 
L 24.284448 116.906426 
L 25.261341 116.469265 
L 26.238234 117.657202 
L 27.215127 116.716356 
L 28.19202 117.105999 
L 29.168913 117.286566 
L 30.145806 116.706852 
L 31.122699 116.801887 
L 32.099592 116.602314 
L 33.076485 117.970817 
L 34.053378 116.621321 
L 35.030271 115.756503 
L 36.007164 115.357356 
L 36.984057 115.746999 
L 37.96095 116.820894 
L 38.937843 116.051111 
L 39.914736 115.39537 
L 40.891629 113.827293 
L 41.868522 114.06488 
L 42.845415 113.542188 
L 43.822309 112.914957 
L 44.799202 115.480901 
L 45.776095 114.169419 
L 46.752988 113.665733 
L 47.729881 113.067013 
L 48.706774 113.570698 
L 49.683667 114.502041 
L 50.66056 112.582335 
L 51.637453 113.257083 
L 52.614346 112.639356 
L 53.591239 113.285594 
L 54.568132 112.145174 
L 55.545025 111.689006 
L 56.521918 112.914957 
L 57.498811 111.812552 
L 58.475704 111.72702 
L 59.452597 112.563328 
L 60.42949 112.145174 
L 61.406383 113.028999 
L 62.383276 111.850566 
L 63.360169 112.278223 
L 64.337062 112.145174 
L 65.313955 111.527447 
L 66.290848 113.095524 
L 67.267741 112.67737 
L 68.244634 111.603475 
L 69.221527 111.793545 
L 70.19842 111.280356 
L 71.175313 111.641489 
L 72.152206 111.945601 
L 73.129099 111.822055 
L 74.105992 112.477796 
L 75.082885 112.373258 
L 76.059779 112.126167 
L 77.036672 113.380628 
L 78.013565 113.65623 
L 78.990458 113.314104 
L 79.967351 112.259216 
L 80.944244 114.901188 
L 81.921137 114.102894 
L 82.89803 114.083887 
L 83.874923 113.238076 
L 84.851816 113.599209 
L 85.828709 115.129272 
L 86.805602 114.045873 
L 87.782495 114.245447 
L 88.759388 114.530552 
L 89.736281 114.806153 
L 90.713174 115.642461 
L 91.690067 115.832531 
L 92.66696 116.450258 
L 93.643853 115.214803 
L 94.620746 116.697349 
L 95.597639 116.94444 
L 96.574532 117.419615 
L 97.551425 118.702587 
L 98.528318 117.638195 
L 99.505211 118.075356 
L 100.482104 118.759608 
L 101.458997 117.989824 
L 102.43589 118.949677 
L 103.412783 117.837768 
L 104.389676 119.66244 
L 105.366569 120.014069 
L 106.343463 120.413216 
L 107.320356 120.403712 
L 108.297249 119.88102 
L 109.274142 120.973922 
L 110.251035 121.800726 
L 111.227928 122.133349 
L 112.204821 121.24002 
L 113.181714 121.81023 
L 114.158607 122.076328 
L 115.1355 123.00767 
L 116.112393 122.513489 
L 117.089286 123.036181 
L 118.066179 122.551503 
L 119.043072 122.351929 
L 120.019965 123.368803 
L 120.996858 123.92951 
L 121.973751 124.224118 
L 122.950644 124.832342 
L 123.927537 124.594754 
L 124.90443 125.174468 
L 125.881323 124.433195 
L 126.858216 125.31702 
L 127.835109 126.951622 
L 128.812002 125.735174 
L 129.788895 126.067796 
L 130.765788 125.744677 
L 131.742681 126.153328 
L 132.719574 126.514461 
L 133.696467 127.730908 
L 134.67336 126.314887 
L 135.650253 127.664384 
" clip-path="url(#p522ef28846)" style="fill: none; stroke: #4db758; stroke-linecap: square"/>
   </g>
   <g id="line2d_15">
    <path d="M 23.307555 120.622293 
L 24.284448 119.919034 
L 25.261341 120.118608 
L 26.238234 120.574775 
L 27.215127 119.491377 
L 28.19202 118.978188 
L 29.168913 120.270663 
L 30.145806 119.386838 
L 31.122699 119.215775 
L 32.099592 119.348824 
L 33.076485 118.807125 
L 34.053378 118.911663 
L 35.030271 118.864146 
L 36.007164 119.234782 
L 36.984057 118.474503 
L 37.96095 118.265426 
L 38.937843 117.125006 
L 39.914736 116.051111 
L 40.891629 114.055377 
L 41.868522 114.986719 
L 42.845415 116.022601 
L 43.822309 116.953943 
L 44.799202 117.334083 
L 45.776095 117.970817 
L 46.752988 117.486139 
L 47.729881 116.231677 
L 48.706774 116.697349 
L 49.683667 116.896922 
L 50.66056 117.010964 
L 51.637453 116.801887 
L 52.614346 117.258055 
L 53.591239 117.048978 
L 54.568132 115.889552 
L 55.545025 116.611817 
L 56.521918 114.967712 
L 57.498811 116.079622 
L 58.475704 116.583307 
L 59.452597 114.502041 
L 60.42949 114.407006 
L 61.406383 111.765034 
L 62.383276 113.219069 
L 63.360169 114.910691 
L 64.337062 117.020468 
L 65.313955 117.210538 
L 66.290848 116.364726 
L 67.267741 116.934936 
L 68.244634 116.174656 
L 69.221527 116.59281 
L 70.19842 117.818761 
L 71.175313 116.336216 
L 72.152206 116.915929 
L 73.129099 116.478768 
L 74.105992 116.174656 
L 75.082885 116.193663 
L 76.059779 116.5643 
L 77.036672 116.545293 
L 78.013565 117.35309 
L 78.990458 118.512517 
L 79.967351 119.567405 
L 80.944244 118.959181 
L 81.921137 117.771244 
L 82.89803 118.255922 
L 83.874923 118.626559 
L 84.851816 119.196768 
L 85.828709 118.027838 
L 86.805602 119.757475 
L 87.782495 119.814496 
L 88.759388 118.056349 
L 89.736281 119.386838 
L 90.713174 120.527258 
L 91.690067 121.572642 
L 92.66696 120.337188 
L 93.643853 120.945412 
L 94.620746 119.823999 
L 95.597639 120.983426 
L 96.574532 120.907398 
L 97.551425 121.297041 
L 98.528318 121.667677 
L 99.505211 122.513489 
L 100.482104 122.703559 
L 101.458997 122.199873 
L 102.43589 122.608524 
L 103.412783 122.960153 
L 104.389676 122.57051 
L 105.366569 124.775321 
L 106.343463 123.501852 
L 107.320356 123.76795 
L 108.297249 124.091069 
L 109.274142 124.319153 
L 110.251035 123.482845 
L 111.227928 124.480712 
L 112.204821 125.592622 
L 113.181714 125.459573 
L 114.158607 125.060426 
L 115.1355 125.326524 
L 116.112393 125.611628 
L 117.089286 125.611628 
L 118.066179 125.801698 
L 119.043072 125.706663 
L 120.019965 126.29588 
L 120.996858 126.67602 
L 121.973751 127.787929 
L 122.950644 127.702398 
L 123.927537 127.882964 
L 124.90443 127.597859 
L 125.881323 128.396153 
L 126.858216 127.711901 
L 127.835109 128.386649 
L 128.812002 128.19658 
L 129.788895 129.317992 
L 130.765788 128.880831 
L 131.742681 129.118419 
L 132.719574 128.462677 
L 133.696467 129.413027 
L 134.67336 129.983237 
L 135.650253 129.241964 
" clip-path="url(#p522ef28846)" style="fill: none; stroke: #145092; stroke-linecap: square"/>
   </g>
   <g id="line2d_16">
    <path d="M 23.307555 124.651775 
L 24.284448 126.276873 
L 25.261341 125.839712 
L 26.238234 126.495454 
L 27.215127 125.896733 
L 28.19202 125.069929 
L 29.168913 123.862985 
L 30.145806 124.271635 
L 31.122699 125.250496 
L 32.099592 123.701426 
L 33.076485 124.803831 
L 34.053378 123.54937 
L 35.030271 124.585251 
L 36.007164 124.404684 
L 36.984057 123.539866 
L 37.96095 123.501852 
L 38.937843 123.910503 
L 39.914736 124.167097 
L 40.891629 122.960153 
L 41.868522 123.036181 
L 42.845415 121.64867 
L 43.822309 124.205111 
L 44.799202 122.732069 
L 45.776095 122.228384 
L 46.752988 121.886258 
L 47.729881 122.171363 
L 48.706774 122.836608 
L 49.683667 122.152356 
L 50.66056 121.487111 
L 51.637453 121.753209 
L 52.614346 121.772216 
L 53.591239 121.097468 
L 54.568132 120.736335 
L 55.545025 121.791223 
L 56.521918 121.135482 
L 57.498811 121.192503 
L 58.475704 120.546265 
L 59.452597 120.688817 
L 60.42949 120.660307 
L 61.406383 120.318181 
L 62.383276 120.764845 
L 63.360169 120.242153 
L 64.337062 120.137615 
L 65.313955 120.840873 
L 66.290848 120.612789 
L 67.267741 120.270663 
L 68.244634 120.66981 
L 69.221527 120.128111 
L 70.19842 119.909531 
L 71.175313 120.023573 
L 72.152206 120.745838 
L 73.129099 120.47974 
L 74.105992 120.726831 
L 75.082885 120.394209 
L 76.059779 121.182999 
L 77.036672 120.185132 
L 78.013565 121.981293 
L 78.990458 121.506118 
L 79.967351 121.572642 
L 80.944244 121.686684 
L 81.921137 121.696188 
L 82.89803 121.316048 
L 83.874923 122.285405 
L 84.851816 121.268531 
L 85.828709 122.342426 
L 86.805602 123.150223 
L 87.782495 122.323419 
L 88.759388 123.311782 
L 89.736281 123.796461 
L 90.713174 124.243125 
L 91.690067 123.16923 
L 92.66696 123.587384 
L 93.643853 123.977027 
L 94.620746 123.625398 
L 95.597639 124.376174 
L 96.574532 124.756314 
L 97.551425 124.74681 
L 98.528318 125.545104 
L 99.505211 124.319153 
L 100.482104 125.345531 
L 101.458997 125.896733 
L 102.43589 125.621132 
L 103.412783 127.094174 
L 104.389676 127.62637 
L 105.366569 126.286377 
L 106.343463 125.972761 
L 107.320356 127.502824 
L 108.297249 128.187076 
L 109.274142 127.825943 
L 110.251035 128.03502 
L 111.227928 128.187076 
L 112.204821 127.759419 
L 113.181714 128.7953 
L 114.158607 129.17544 
L 115.1355 128.776293 
L 116.112393 129.641111 
L 117.089286 129.660118 
L 118.066179 129.641111 
L 119.043072 130.439405 
L 120.019965 130.581957 
L 120.996858 129.945223 
L 121.973751 130.848055 
L 122.950644 131.028622 
L 123.927537 131.418265 
L 124.90443 131.256705 
L 125.881323 131.522803 
L 126.858216 131.304223 
L 127.835109 132.159538 
L 128.812002 131.627342 
L 129.788895 132.11202 
L 130.765788 132.758258 
L 131.742681 132.235566 
L 132.719574 132.054999 
L 133.696467 132.530174 
L 134.67336 132.691733 
L 135.650253 131.912447 
" clip-path="url(#p522ef28846)" style="fill: none; stroke: #000000; stroke-linecap: square"/>
   </g>
   <g id="patch_3">
    <path d="M 23.410313 158.218125 
L 23.410313 22.318125 
" style="fill: none; stroke: #000000; stroke-width: 0.8; stroke-linejoin: miter; stroke-linecap: square"/>
   </g>
   <g id="patch_4">
    <path d="M 23.410312 158.218125 
L 135.010312 158.218125 
" style="fill: none; stroke: #000000; stroke-width: 0.8; stroke-linejoin: miter; stroke-linecap: square"/>
   </g>
   <g id="text_7">
    <!-- Moderate-Mg -->
    <g transform="translate(39.523125 16.318125) scale(0.12 -0.12)">
     <defs>
      <path id="DejaVuSans-4d" d="M 628 4666 
L 1569 4666 
L 2759 1491 
L 3956 4666 
L 4897 4666 
L 4897 0 
L 4281 0 
L 4281 4097 
L 3078 897 
L 2444 897 
L 1241 4097 
L 1241 0 
L 628 0 
L 628 4666 
z
" transform="scale(0.015625)"/>
      <path id="DejaVuSans-6f" d="M 1959 3097 
Q 1497 3097 1228 2736 
Q 959 2375 959 1747 
Q 959 1119 1226 758 
Q 1494 397 1959 397 
Q 2419 397 2687 759 
Q 2956 1122 2956 1747 
Q 2956 2369 2687 2733 
Q 2419 3097 1959 3097 
z
M 1959 3584 
Q 2709 3584 3137 3096 
Q 3566 2609 3566 1747 
Q 3566 888 3137 398 
Q 2709 -91 1959 -91 
Q 1206 -91 779 398 
Q 353 888 353 1747 
Q 353 2609 779 3096 
Q 1206 3584 1959 3584 
z
" transform="scale(0.015625)"/>
      <path id="DejaVuSans-61" d="M 2194 1759 
Q 1497 1759 1228 1600 
Q 959 1441 959 1056 
Q 959 750 1161 570 
Q 1363 391 1709 391 
Q 2188 391 2477 730 
Q 2766 1069 2766 1631 
L 2766 1759 
L 2194 1759 
z
M 3341 1997 
L 3341 0 
L 2766 0 
L 2766 531 
Q 2569 213 2275 61 
Q 1981 -91 1556 -91 
Q 1019 -91 701 211 
Q 384 513 384 1019 
Q 384 1609 779 1909 
Q 1175 2209 1959 2209 
L 2766 2209 
L 2766 2266 
Q 2766 2663 2505 2880 
Q 2244 3097 1772 3097 
Q 1472 3097 1187 3025 
Q 903 2953 641 2809 
L 641 3341 
Q 956 3463 1253 3523 
Q 1550 3584 1831 3584 
Q 2591 3584 2966 3190 
Q 3341 2797 3341 1997 
z
" transform="scale(0.015625)"/>
      <path id="DejaVuSans-2d" d="M 313 2009 
L 1997 2009 
L 1997 1497 
L 313 1497 
L 313 2009 
z
" transform="scale(0.015625)"/>
     </defs>
     <use xlink:href="#DejaVuSans-4d"/>
     <use xlink:href="#DejaVuSans-6f" x="86.279297"/>
     <use xlink:href="#DejaVuSans-64" x="147.460938"/>
     <use xlink:href="#DejaVuSans-65" x="210.9375"/>
     <use xlink:href="#DejaVuSans-72" x="272.460938"/>
     <use xlink:href="#DejaVuSans-61" x="313.574219"/>
     <use xlink:href="#DejaVuSans-74" x="374.853516"/>
     <use xlink:href="#DejaVuSans-65" x="414.0625"/>
     <use xlink:href="#DejaVuSans-2d" x="475.585938"/>
     <use xlink:href="#DejaVuSans-4d" x="511.669922"/>
     <use xlink:href="#DejaVuSans-67" x="597.949219"/>
    </g>
   </g>
  </g>
 </g>
 <defs>
  <clipPath id="p522ef28846">
   <rect x="23.410313" y="22.318125" width="111.6" height="135.9"/>
  </clipPath>
 </defs>
</svg>
