<?xml version="1.0" encoding="utf-8" standalone="no"?>
<!DOCTYPE svg PUBLIC "-//W3C//DTD SVG 1.1//EN"
  "http://www.w3.org/Graphics/SVG/1.1/DTD/svg11.dtd">
<svg xmlns:xlink="http://www.w3.org/1999/xlink" width="147.300313pt" height="192.94125pt" viewBox="0 0 147.300313 192.94125" xmlns="http://www.w3.org/2000/svg" version="1.1">
 <metadata>
  <rdf:RDF xmlns:dc="http://purl.org/dc/elements/1.1/" xmlns:cc="http://creativecommons.org/ns#" xmlns:rdf="http://www.w3.org/1999/02/22-rdf-syntax-ns#">
   <cc:Work>
    <dc:type rdf:resource="http://purl.org/dc/dcmitype/StillImage"/>
    <dc:date>2023-06-05T22:11:26.215166</dc:date>
    <dc:format>image/svg+xml</dc:format>
    <dc:creator>
     <cc:Agent>
      <dc:title>Matplotlib v3.7.1, https://matplotlib.org/</dc:title>
     </cc:Agent>
    </dc:creator>
   </cc:Work>
  </rdf:RDF>
 </metadata>
 <defs>
  <style type="text/css">*{stroke-linejoin: round; stroke-linecap: butt}</style>
 </defs>
 <g id="figure_1">
  <g id="patch_1">
   <path d="M 0 192.94125 
L 147.300313 192.94125 
L 147.300313 0 
L 0 0 
z
" style="fill: #ffffff"/>
  </g>
  <g id="axes_1">
   <g id="patch_2">
    <path d="M 23.410313 158.218125 
L 135.010312 158.218125 
L 135.010312 22.318125 
L 23.410313 22.318125 
z
" style="fill: #ffffff"/>
   </g>
   <g id="matplotlib.axis_1">
    <g id="xtick_1">
     <g id="line2d_1">
      <defs>
       <path id="mab2db55ed0" d="M 0 0 
L 0 3.5 
" style="stroke: #000000; stroke-width: 0.8"/>
      </defs>
      <g>
       <use xlink:href="#mab2db55ed0" x="23.410312" y="158.218125" style="stroke: #000000; stroke-width: 0.8"/>
      </g>
     </g>
     <g id="text_1">
      <!-- 10 -->
      <g transform="translate(18.320312 171.296875) scale(0.08 -0.08)">
       <defs>
        <path id="DejaVuSans-31" d="M 794 531 
L 1825 531 
L 1825 4091 
L 703 3866 
L 703 4441 
L 1819 4666 
L 2450 4666 
L 2450 531 
L 3481 531 
L 3481 0 
L 794 0 
L 794 531 
z
" transform="scale(0.015625)"/>
        <path id="DejaVuSans-30" d="M 2034 4250 
Q 1547 4250 1301 3770 
Q 1056 3291 1056 2328 
Q 1056 1369 1301 889 
Q 1547 409 2034 409 
Q 2525 409 2770 889 
Q 3016 1369 3016 2328 
Q 3016 3291 2770 3770 
Q 2525 4250 2034 4250 
z
M 2034 4750 
Q 2819 4750 3233 4129 
Q 3647 3509 3647 2328 
Q 3647 1150 3233 529 
Q 2819 -91 2034 -91 
Q 1250 -91 836 529 
Q 422 1150 422 2328 
Q 422 3509 836 4129 
Q 1250 4750 2034 4750 
z
" transform="scale(0.015625)"/>
       </defs>
       <use xlink:href="#DejaVuSans-31"/>
       <use xlink:href="#DejaVuSans-30" x="63.623047"/>
      </g>
     </g>
    </g>
    <g id="xtick_2">
     <g id="line2d_2">
      <g>
       <use xlink:href="#mab2db55ed0" x="60.610312" y="158.218125" style="stroke: #000000; stroke-width: 0.8"/>
      </g>
     </g>
     <g id="text_2">
      <!-- 11 -->
      <g transform="translate(55.520312 171.296875) scale(0.08 -0.08)">
       <use xlink:href="#DejaVuSans-31"/>
       <use xlink:href="#DejaVuSans-31" x="63.623047"/>
      </g>
     </g>
    </g>
    <g id="xtick_3">
     <g id="line2d_3">
      <g>
       <use xlink:href="#mab2db55ed0" x="97.810313" y="158.218125" style="stroke: #000000; stroke-width: 0.8"/>
      </g>
     </g>
     <g id="text_3">
      <!-- 12 -->
      <g transform="translate(92.720313 171.296875) scale(0.08 -0.08)">
       <defs>
        <path id="DejaVuSans-32" d="M 1228 531 
L 3431 531 
L 3431 0 
L 469 0 
L 469 531 
Q 828 903 1448 1529 
Q 2069 2156 2228 2338 
Q 2531 2678 2651 2914 
Q 2772 3150 2772 3378 
Q 2772 3750 2511 3984 
Q 2250 4219 1831 4219 
Q 1534 4219 1204 4116 
Q 875 4013 500 3803 
L 500 4441 
Q 881 4594 1212 4672 
Q 1544 4750 1819 4750 
Q 2544 4750 2975 4387 
Q 3406 4025 3406 3419 
Q 3406 3131 3298 2873 
Q 3191 2616 2906 2266 
Q 2828 2175 2409 1742 
Q 1991 1309 1228 531 
z
" transform="scale(0.015625)"/>
       </defs>
       <use xlink:href="#DejaVuSans-31"/>
       <use xlink:href="#DejaVuSans-32" x="63.623047"/>
      </g>
     </g>
    </g>
    <g id="xtick_4">
     <g id="line2d_4">
      <g>
       <use xlink:href="#mab2db55ed0" x="135.010312" y="158.218125" style="stroke: #000000; stroke-width: 0.8"/>
      </g>
     </g>
     <g id="text_4">
      <!-- 13 -->
      <g transform="translate(129.920312 171.296875) scale(0.08 -0.08)">
       <defs>
        <path id="DejaVuSans-33" d="M 2597 2516 
Q 3050 2419 3304 2112 
Q 3559 1806 3559 1356 
Q 3559 666 3084 287 
Q 2609 -91 1734 -91 
Q 1441 -91 1130 -33 
Q 819 25 488 141 
L 488 750 
Q 750 597 1062 519 
Q 1375 441 1716 441 
Q 2309 441 2620 675 
Q 2931 909 2931 1356 
Q 2931 1769 2642 2001 
Q 2353 2234 1838 2234 
L 1294 2234 
L 1294 2753 
L 1863 2753 
Q 2328 2753 2575 2939 
Q 2822 3125 2822 3475 
Q 2822 3834 2567 4026 
Q 2313 4219 1838 4219 
Q 1578 4219 1281 4162 
Q 984 4106 628 3988 
L 628 4550 
Q 988 4650 1302 4700 
Q 1616 4750 1894 4750 
Q 2613 4750 3031 4423 
Q 3450 4097 3450 3541 
Q 3450 3153 3228 2886 
Q 3006 2619 2597 2516 
z
" transform="scale(0.015625)"/>
       </defs>
       <use xlink:href="#DejaVuSans-31"/>
       <use xlink:href="#DejaVuSans-33" x="63.623047"/>
      </g>
     </g>
    </g>
    <g id="xtick_5">
     <g id="line2d_5">
      <defs>
       <path id="m5ca1034394" d="M 0 0 
L 0 2 
" style="stroke: #000000; stroke-width: 0.6"/>
      </defs>
      <g>
       <use xlink:href="#m5ca1034394" x="116.410312" y="158.218125" style="stroke: #000000; stroke-width: 0.6"/>
      </g>
     </g>
    </g>
    <g id="text_5">
     <!-- 2θ (degrees) -->
     <g transform="translate(50.538984 183.869531) scale(0.09 -0.09)">
      <defs>
       <path id="DejaVuSans-3b8" d="M 2953 2219 
L 963 2219 
Q 1009 1284 1225 888 
Q 1494 400 1959 400 
Q 2428 400 2688 891 
Q 2916 1322 2953 2219 
z
M 2944 2750 
Q 2856 3638 2688 3950 
Q 2419 4444 1959 4444 
Q 1481 4444 1228 3956 
Q 1028 3563 969 2750 
L 2944 2750 
z
M 1959 4913 
Q 2709 4913 3138 4250 
Q 3566 3591 3566 2422 
Q 3566 1256 3138 594 
Q 2709 -72 1959 -72 
Q 1206 -72 781 594 
Q 353 1256 353 2422 
Q 353 3591 781 4250 
Q 1206 4913 1959 4913 
z
" transform="scale(0.015625)"/>
       <path id="DejaVuSans-20" transform="scale(0.015625)"/>
       <path id="DejaVuSans-28" d="M 1984 4856 
Q 1566 4138 1362 3434 
Q 1159 2731 1159 2009 
Q 1159 1288 1364 580 
Q 1569 -128 1984 -844 
L 1484 -844 
Q 1016 -109 783 600 
Q 550 1309 550 2009 
Q 550 2706 781 3412 
Q 1013 4119 1484 4856 
L 1984 4856 
z
" transform="scale(0.015625)"/>
       <path id="DejaVuSans-64" d="M 2906 2969 
L 2906 4863 
L 3481 4863 
L 3481 0 
L 2906 0 
L 2906 525 
Q 2725 213 2448 61 
Q 2172 -91 1784 -91 
Q 1150 -91 751 415 
Q 353 922 353 1747 
Q 353 2572 751 3078 
Q 1150 3584 1784 3584 
Q 2172 3584 2448 3432 
Q 2725 3281 2906 2969 
z
M 947 1747 
Q 947 1113 1208 752 
Q 1469 391 1925 391 
Q 2381 391 2643 752 
Q 2906 1113 2906 1747 
Q 2906 2381 2643 2742 
Q 2381 3103 1925 3103 
Q 1469 3103 1208 2742 
Q 947 2381 947 1747 
z
" transform="scale(0.015625)"/>
       <path id="DejaVuSans-65" d="M 3597 1894 
L 3597 1613 
L 953 1613 
Q 991 1019 1311 708 
Q 1631 397 2203 397 
Q 2534 397 2845 478 
Q 3156 559 3463 722 
L 3463 178 
Q 3153 47 2828 -22 
Q 2503 -91 2169 -91 
Q 1331 -91 842 396 
Q 353 884 353 1716 
Q 353 2575 817 3079 
Q 1281 3584 2069 3584 
Q 2775 3584 3186 3129 
Q 3597 2675 3597 1894 
z
M 3022 2063 
Q 3016 2534 2758 2815 
Q 2500 3097 2075 3097 
Q 1594 3097 1305 2825 
Q 1016 2553 972 2059 
L 3022 2063 
z
" transform="scale(0.015625)"/>
       <path id="DejaVuSans-67" d="M 2906 1791 
Q 2906 2416 2648 2759 
Q 2391 3103 1925 3103 
Q 1463 3103 1205 2759 
Q 947 2416 947 1791 
Q 947 1169 1205 825 
Q 1463 481 1925 481 
Q 2391 481 2648 825 
Q 2906 1169 2906 1791 
z
M 3481 434 
Q 3481 -459 3084 -895 
Q 2688 -1331 1869 -1331 
Q 1566 -1331 1297 -1286 
Q 1028 -1241 775 -1147 
L 775 -588 
Q 1028 -725 1275 -790 
Q 1522 -856 1778 -856 
Q 2344 -856 2625 -561 
Q 2906 -266 2906 331 
L 2906 616 
Q 2728 306 2450 153 
Q 2172 0 1784 0 
Q 1141 0 747 490 
Q 353 981 353 1791 
Q 353 2603 747 3093 
Q 1141 3584 1784 3584 
Q 2172 3584 2450 3431 
Q 2728 3278 2906 2969 
L 2906 3500 
L 3481 3500 
L 3481 434 
z
" transform="scale(0.015625)"/>
       <path id="DejaVuSans-72" d="M 2631 2963 
Q 2534 3019 2420 3045 
Q 2306 3072 2169 3072 
Q 1681 3072 1420 2755 
Q 1159 2438 1159 1844 
L 1159 0 
L 581 0 
L 581 3500 
L 1159 3500 
L 1159 2956 
Q 1341 3275 1631 3429 
Q 1922 3584 2338 3584 
Q 2397 3584 2469 3576 
Q 2541 3569 2628 3553 
L 2631 2963 
z
" transform="scale(0.015625)"/>
       <path id="DejaVuSans-73" d="M 2834 3397 
L 2834 2853 
Q 2591 2978 2328 3040 
Q 2066 3103 1784 3103 
Q 1356 3103 1142 2972 
Q 928 2841 928 2578 
Q 928 2378 1081 2264 
Q 1234 2150 1697 2047 
L 1894 2003 
Q 2506 1872 2764 1633 
Q 3022 1394 3022 966 
Q 3022 478 2636 193 
Q 2250 -91 1575 -91 
Q 1294 -91 989 -36 
Q 684 19 347 128 
L 347 722 
Q 666 556 975 473 
Q 1284 391 1588 391 
Q 1994 391 2212 530 
Q 2431 669 2431 922 
Q 2431 1156 2273 1281 
Q 2116 1406 1581 1522 
L 1381 1569 
Q 847 1681 609 1914 
Q 372 2147 372 2553 
Q 372 3047 722 3315 
Q 1072 3584 1716 3584 
Q 2034 3584 2315 3537 
Q 2597 3491 2834 3397 
z
" transform="scale(0.015625)"/>
       <path id="DejaVuSans-29" d="M 513 4856 
L 1013 4856 
Q 1481 4119 1714 3412 
Q 1947 2706 1947 2009 
Q 1947 1309 1714 600 
Q 1481 -109 1013 -844 
L 513 -844 
Q 928 -128 1133 580 
Q 1338 1288 1338 2009 
Q 1338 2731 1133 3434 
Q 928 4138 513 4856 
z
" transform="scale(0.015625)"/>
      </defs>
      <use xlink:href="#DejaVuSans-32"/>
      <use xlink:href="#DejaVuSans-3b8" x="63.623047"/>
      <use xlink:href="#DejaVuSans-20" x="124.804688"/>
      <use xlink:href="#DejaVuSans-28" x="156.591797"/>
      <use xlink:href="#DejaVuSans-64" x="195.605469"/>
      <use xlink:href="#DejaVuSans-65" x="259.082031"/>
      <use xlink:href="#DejaVuSans-67" x="320.605469"/>
      <use xlink:href="#DejaVuSans-72" x="384.082031"/>
      <use xlink:href="#DejaVuSans-65" x="422.945312"/>
      <use xlink:href="#DejaVuSans-65" x="484.46875"/>
      <use xlink:href="#DejaVuSans-73" x="545.992188"/>
      <use xlink:href="#DejaVuSans-29" x="598.091797"/>
     </g>
    </g>
   </g>
   <g id="matplotlib.axis_2">
    <g id="ytick_1">
     <g id="line2d_6"/>
    </g>
    <g id="ytick_2">
     <g id="line2d_7"/>
    </g>
    <g id="ytick_3">
     <g id="line2d_8"/>
    </g>
    <g id="ytick_4">
     <g id="line2d_9"/>
    </g>
    <g id="ytick_5">
     <g id="line2d_10"/>
    </g>
    <g id="ytick_6">
     <g id="line2d_11"/>
    </g>
    <g id="ytick_7">
     <g id="line2d_12"/>
    </g>
    <g id="ytick_8">
     <g id="line2d_13"/>
    </g>
    <g id="text_6">
     <!-- Intensity -->
     <g transform="translate(14.038594 109.854375) rotate(-90) scale(0.09 -0.09)">
      <defs>
       <path id="DejaVuSans-49" d="M 628 4666 
L 1259 4666 
L 1259 0 
L 628 0 
L 628 4666 
z
" transform="scale(0.015625)"/>
       <path id="DejaVuSans-6e" d="M 3513 2113 
L 3513 0 
L 2938 0 
L 2938 2094 
Q 2938 2591 2744 2837 
Q 2550 3084 2163 3084 
Q 1697 3084 1428 2787 
Q 1159 2491 1159 1978 
L 1159 0 
L 581 0 
L 581 3500 
L 1159 3500 
L 1159 2956 
Q 1366 3272 1645 3428 
Q 1925 3584 2291 3584 
Q 2894 3584 3203 3211 
Q 3513 2838 3513 2113 
z
" transform="scale(0.015625)"/>
       <path id="DejaVuSans-74" d="M 1172 4494 
L 1172 3500 
L 2356 3500 
L 2356 3053 
L 1172 3053 
L 1172 1153 
Q 1172 725 1289 603 
Q 1406 481 1766 481 
L 2356 481 
L 2356 0 
L 1766 0 
Q 1100 0 847 248 
Q 594 497 594 1153 
L 594 3053 
L 172 3053 
L 172 3500 
L 594 3500 
L 594 4494 
L 1172 4494 
z
" transform="scale(0.015625)"/>
       <path id="DejaVuSans-69" d="M 603 3500 
L 1178 3500 
L 1178 0 
L 603 0 
L 603 3500 
z
M 603 4863 
L 1178 4863 
L 1178 4134 
L 603 4134 
L 603 4863 
z
" transform="scale(0.015625)"/>
       <path id="DejaVuSans-79" d="M 2059 -325 
Q 1816 -950 1584 -1140 
Q 1353 -1331 966 -1331 
L 506 -1331 
L 506 -850 
L 844 -850 
Q 1081 -850 1212 -737 
Q 1344 -625 1503 -206 
L 1606 56 
L 191 3500 
L 800 3500 
L 1894 763 
L 2988 3500 
L 3597 3500 
L 2059 -325 
z
" transform="scale(0.015625)"/>
      </defs>
      <use xlink:href="#DejaVuSans-49"/>
      <use xlink:href="#DejaVuSans-6e" x="29.492188"/>
      <use xlink:href="#DejaVuSans-74" x="92.871094"/>
      <use xlink:href="#DejaVuSans-65" x="132.080078"/>
      <use xlink:href="#DejaVuSans-6e" x="193.603516"/>
      <use xlink:href="#DejaVuSans-73" x="256.982422"/>
      <use xlink:href="#DejaVuSans-69" x="309.082031"/>
      <use xlink:href="#DejaVuSans-74" x="336.865234"/>
      <use xlink:href="#DejaVuSans-79" x="376.074219"/>
     </g>
    </g>
   </g>
   <g id="line2d_14">
    <path d="M 23.307555 118.160887 
L 24.284448 117.999328 
L 25.261341 118.236915 
L 26.238234 117.999328 
L 27.215127 117.16302 
L 28.19202 118.750104 
L 29.168913 116.906426 
L 30.145806 117.486139 
L 31.122699 116.94444 
L 32.099592 116.459761 
L 33.076485 116.079622 
L 34.053378 115.946573 
L 35.030271 117.533656 
L 36.007164 115.262321 
L 36.984057 115.2053 
L 37.96095 115.148279 
L 38.937843 114.207433 
L 39.914736 114.397503 
L 40.891629 113.789279 
L 41.868522 113.076517 
L 42.845415 114.492538 
L 43.822309 112.582335 
L 44.799202 112.762901 
L 45.776095 112.116663 
L 46.752988 111.631985 
L 47.729881 111.527447 
L 48.706774 112.240209 
L 49.683667 111.470426 
L 50.66056 111.612978 
L 51.637453 110.539083 
L 52.614346 111.099789 
L 53.591239 109.455684 
L 54.568132 110.605608 
L 55.545025 110.073412 
L 56.521918 109.531712 
L 57.498811 109.588733 
L 58.475704 108.43881 
L 59.452597 109.588733 
L 60.42949 109.845328 
L 61.406383 108.22023 
L 62.383276 108.923489 
L 63.360169 107.916118 
L 64.337062 108.999517 
L 65.313955 108.429307 
L 66.290848 108.144202 
L 67.267741 107.821083 
L 68.244634 109.303628 
L 69.221527 108.372286 
L 70.19842 109.484195 
L 71.175313 108.999517 
L 72.152206 109.294125 
L 73.129099 109.493698 
L 74.105992 108.695405 
L 75.082885 109.674265 
L 76.059779 110.624615 
L 77.036672 110.17795 
L 78.013565 110.320503 
L 78.990458 111.014258 
L 79.967351 111.308866 
L 80.944244 111.612978 
L 81.921137 111.993118 
L 82.89803 112.477796 
L 83.874923 113.637223 
L 84.851816 112.791412 
L 85.828709 113.152545 
L 86.805602 113.694244 
L 87.782495 115.785013 
L 88.759388 115.357356 
L 89.736281 115.547426 
L 90.713174 115.034237 
L 91.690067 115.889552 
L 92.66696 116.716356 
L 93.643853 117.115503 
L 94.620746 117.438622 
L 95.597639 117.999328 
L 96.574532 117.932803 
L 97.551425 118.560034 
L 98.528318 118.702587 
L 99.505211 119.2823 
L 100.482104 121.363566 
L 101.458997 121.154489 
L 102.43589 120.299174 
L 103.412783 121.572642 
L 104.389676 121.477608 
L 105.366569 122.551503 
L 106.343463 122.903132 
L 107.320356 123.872489 
L 108.297249 123.463838 
L 109.274142 124.328656 
L 110.251035 124.509223 
L 111.227928 124.604258 
L 112.204821 123.92951 
L 113.181714 124.233622 
L 114.158607 125.09844 
L 115.1355 125.526097 
L 116.112393 126.742545 
L 117.089286 126.476447 
L 118.066179 125.792195 
L 119.043072 126.790062 
L 120.019965 127.369775 
L 120.996858 126.67602 
L 121.973751 127.81644 
L 122.950644 127.531335 
L 123.927537 127.398286 
L 124.90443 128.652747 
L 125.881323 127.911475 
L 126.858216 128.966363 
L 127.835109 128.662251 
L 128.812002 128.472181 
L 129.788895 128.044524 
L 130.765788 129.460545 
L 131.742681 130.18281 
L 132.719574 129.745649 
L 133.696467 130.791034 
L 134.67336 130.486922 
L 135.650253 130.543943 
" clip-path="url(#p925ace1b68)" style="fill: none; stroke: #4db758; stroke-linecap: square"/>
   </g>
   <g id="line2d_15">
    <path d="M 23.307555 120.622293 
L 24.284448 120.916901 
L 25.261341 119.624426 
L 26.238234 120.090097 
L 27.215127 119.652936 
L 28.19202 118.664573 
L 29.168913 119.681447 
L 30.145806 118.940174 
L 31.122699 118.065852 
L 32.099592 117.105999 
L 33.076485 117.495642 
L 34.053378 118.046845 
L 35.030271 116.858908 
L 36.007164 117.182027 
L 36.984057 116.925433 
L 37.96095 116.279195 
L 38.937843 116.59281 
L 39.914736 114.977216 
L 40.891629 114.948705 
L 41.868522 114.264454 
L 42.845415 113.87481 
L 43.822309 112.449286 
L 44.799202 113.143041 
L 45.776095 112.857936 
L 46.752988 112.905454 
L 47.729881 111.470426 
L 48.706774 112.021628 
L 49.683667 110.653125 
L 50.66056 110.814684 
L 51.637453 110.472559 
L 52.614346 109.560223 
L 53.591239 109.550719 
L 54.568132 108.429307 
L 55.545025 109.208594 
L 56.521918 108.372286 
L 57.498811 106.766195 
L 58.475704 108.106188 
L 59.452597 105.359677 
L 60.42949 106.395559 
L 61.406383 105.283649 
L 62.383276 103.031321 
L 63.360169 103.325929 
L 64.337062 100.817006 
L 65.313955 99.90467 
L 66.290848 97.519293 
L 67.267741 94.8203 
L 68.244634 91.132943 
L 69.221527 87.873244 
L 70.19842 82.959936 
L 71.175313 75.718272 
L 72.152206 66.205272 
L 73.129099 54.363915 
L 74.105992 49.916279 
L 75.082885 50.752587 
L 76.059779 66.214775 
L 77.036672 83.207027 
L 78.013565 94.715761 
L 78.990458 101.729342 
L 79.967351 106.661656 
L 80.944244 107.897111 
L 81.921137 109.370153 
L 82.89803 110.082915 
L 83.874923 110.168447 
L 84.851816 111.812552 
L 85.828709 112.772405 
L 86.805602 112.734391 
L 87.782495 113.608712 
L 88.759388 115.58544 
L 89.736281 114.026866 
L 90.713174 117.277062 
L 91.690067 115.471398 
L 92.66696 115.813524 
L 93.643853 116.003594 
L 94.620746 119.957048 
L 95.597639 118.417482 
L 96.574532 118.103866 
L 97.551425 120.014069 
L 98.528318 120.973922 
L 99.505211 121.268531 
L 100.482104 121.420587 
L 101.458997 121.287538 
L 102.43589 121.059454 
L 103.412783 122.456468 
L 104.389676 123.216747 
L 105.366569 123.977027 
L 106.343463 124.632768 
L 107.320356 123.539866 
L 108.297249 125.47858 
L 109.274142 124.851349 
L 110.251035 125.735174 
L 111.227928 125.830209 
L 112.204821 125.868223 
L 113.181714 126.523964 
L 114.158607 127.664384 
L 115.1355 126.048789 
L 116.112393 127.303251 
L 117.089286 127.84495 
L 118.066179 127.920978 
L 119.043072 129.051894 
L 120.019965 128.652747 
L 120.996858 129.536573 
L 121.973751 129.460545 
L 122.950644 128.367642 
L 123.927537 128.7953 
L 124.90443 130.762524 
L 125.881323 130.277845 
L 126.858216 130.657985 
L 127.835109 130.125789 
L 128.812002 131.646349 
L 129.788895 130.781531 
L 130.765788 130.819545 
L 131.742681 131.940957 
L 132.719574 132.292587 
L 133.696467 131.798405 
L 134.67336 131.902943 
L 135.650253 132.815279 
" clip-path="url(#p925ace1b68)" style="fill: none; stroke: #145092; stroke-linecap: square"/>
   </g>
   <g id="line2d_16">
    <path d="M 23.307555 127.27474 
L 24.284448 125.611628 
L 25.261341 126.83758 
L 26.238234 126.48595 
L 27.215127 125.773188 
L 28.19202 126.067796 
L 29.168913 125.668649 
L 30.145806 125.659146 
L 31.122699 124.974894 
L 32.099592 125.221985 
L 33.076485 123.986531 
L 34.053378 123.805964 
L 35.030271 124.034048 
L 36.007164 123.235754 
L 36.984057 123.701426 
L 37.96095 124.55674 
L 38.937843 123.093202 
L 39.914736 122.732069 
L 40.891629 121.971789 
L 41.868522 121.544132 
L 42.845415 122.941146 
L 43.822309 121.990796 
L 44.799202 122.21888 
L 45.776095 121.563139 
L 46.752988 121.439594 
L 47.729881 121.914768 
L 48.706774 120.612789 
L 49.683667 119.234782 
L 50.66056 119.85251 
L 51.637453 119.614922 
L 52.614346 118.094363 
L 53.591239 119.149251 
L 54.568132 119.272796 
L 55.545025 117.771244 
L 56.521918 118.132377 
L 57.498811 117.115503 
L 58.475704 117.248552 
L 59.452597 116.393237 
L 60.42949 117.989824 
L 61.406383 116.079622 
L 62.383276 114.207433 
L 63.360169 115.851538 
L 64.337062 113.779775 
L 65.313955 113.694244 
L 66.290848 109.902349 
L 67.267741 110.016391 
L 68.244634 108.752426 
L 69.221527 105.103083 
L 70.19842 103.411461 
L 71.175313 97.319719 
L 72.152206 91.817195 
L 73.129099 82.532279 
L 74.105992 72.848216 
L 75.082885 60.113531 
L 76.059779 39.262859 
L 77.036672 25.691866 
L 78.013565 24.903076 
L 78.990458 25.976971 
L 79.967351 33.522747 
L 80.944244 52.567754 
L 81.921137 84.043335 
L 82.89803 104.884503 
L 83.874923 114.872677 
L 84.851816 117.372097 
L 85.828709 119.843006 
L 86.805602 119.66244 
L 87.782495 120.04258 
L 88.759388 121.791223 
L 89.736281 122.884125 
L 90.713174 122.21888 
L 91.690067 123.720433 
L 92.66696 123.76795 
L 93.643853 124.262132 
L 94.620746 124.879859 
L 95.597639 124.860852 
L 96.574532 124.813335 
L 97.551425 125.706663 
L 98.528318 126.64751 
L 99.505211 127.046656 
L 100.482104 127.474314 
L 101.458997 127.4363 
L 102.43589 128.092041 
L 103.412783 127.863957 
L 104.389676 128.586223 
L 105.366569 128.510195 
L 106.343463 129.108915 
L 107.320356 129.821677 
L 108.297249 129.441538 
L 109.274142 129.888202 
L 110.251035 129.812174 
L 111.227928 130.905076 
L 112.204821 130.895573 
L 113.181714 131.000111 
L 114.158607 131.874433 
L 115.1355 130.94309 
L 116.112393 132.235566 
L 117.089286 133.309461 
L 118.066179 132.587195 
L 119.043072 133.214426 
L 120.019965 133.423503 
L 120.996858 132.938824 
L 121.973751 133.490027 
L 122.950644 133.680097 
L 123.927537 133.727615 
L 124.90443 133.318964 
L 125.881323 134.516405 
L 126.858216 134.402363 
L 127.835109 134.668461 
L 128.812002 134.402363 
L 129.788895 134.972573 
L 130.765788 134.554419 
L 131.742681 135.5903 
L 132.719574 135.865901 
L 133.696467 136.493132 
L 134.67336 135.656824 
L 135.650253 135.979943 
" clip-path="url(#p925ace1b68)" style="fill: none; stroke: #000000; stroke-linecap: square"/>
   </g>
   <g id="patch_3">
    <path d="M 23.410313 158.218125 
L 23.410313 22.318125 
" style="fill: none; stroke: #000000; stroke-width: 0.8; stroke-linejoin: miter; stroke-linecap: square"/>
   </g>
   <g id="patch_4">
    <path d="M 23.410312 158.218125 
L 135.010312 158.218125 
" style="fill: none; stroke: #000000; stroke-width: 0.8; stroke-linejoin: miter; stroke-linecap: square"/>
   </g>
   <g id="text_7">
    <!-- High-Mg -->
    <g transform="translate(54.269063 16.318125) scale(0.12 -0.12)">
     <defs>
      <path id="DejaVuSans-48" d="M 628 4666 
L 1259 4666 
L 1259 2753 
L 3553 2753 
L 3553 4666 
L 4184 4666 
L 4184 0 
L 3553 0 
L 3553 2222 
L 1259 2222 
L 1259 0 
L 628 0 
L 628 4666 
z
" transform="scale(0.015625)"/>
      <path id="DejaVuSans-68" d="M 3513 2113 
L 3513 0 
L 2938 0 
L 2938 2094 
Q 2938 2591 2744 2837 
Q 2550 3084 2163 3084 
Q 1697 3084 1428 2787 
Q 1159 2491 1159 1978 
L 1159 0 
L 581 0 
L 581 4863 
L 1159 4863 
L 1159 2956 
Q 1366 3272 1645 3428 
Q 1925 3584 2291 3584 
Q 2894 3584 3203 3211 
Q 3513 2838 3513 2113 
z
" transform="scale(0.015625)"/>
      <path id="DejaVuSans-2d" d="M 313 2009 
L 1997 2009 
L 1997 1497 
L 313 1497 
L 313 2009 
z
" transform="scale(0.015625)"/>
      <path id="DejaVuSans-4d" d="M 628 4666 
L 1569 4666 
L 2759 1491 
L 3956 4666 
L 4897 4666 
L 4897 0 
L 4281 0 
L 4281 4097 
L 3078 897 
L 2444 897 
L 1241 4097 
L 1241 0 
L 628 0 
L 628 4666 
z
" transform="scale(0.015625)"/>
     </defs>
     <use xlink:href="#DejaVuSans-48"/>
     <use xlink:href="#DejaVuSans-69" x="75.195312"/>
     <use xlink:href="#DejaVuSans-67" x="102.978516"/>
     <use xlink:href="#DejaVuSans-68" x="166.455078"/>
     <use xlink:href="#DejaVuSans-2d" x="229.833984"/>
     <use xlink:href="#DejaVuSans-4d" x="265.917969"/>
     <use xlink:href="#DejaVuSans-67" x="352.197266"/>
    </g>
   </g>
  </g>
 </g>
 <defs>
  <clipPath id="p925ace1b68">
   <rect x="23.410313" y="22.318125" width="111.6" height="135.9"/>
  </clipPath>
 </defs>
</svg>
