<svg xmlns="http://www.w3.org/2000/svg" xmlns:xlink="http://www.w3.org/1999/xlink" width="365.41" height="192.94" viewBox="0 0 365.41 192.94"><defs><style>.cls-1,.cls-12,.cls-6,.cls-7,.cls-8,.cls-9{fill:none;}.cls-2{fill:#fff;}.cls-3,.cls-4,.cls-8,.cls-9{stroke:#000;}.cls-3,.cls-4,.cls-6,.cls-7,.cls-8{stroke-linejoin:round;}.cls-3,.cls-9{stroke-width:0.8px;}.cls-4{stroke-width:0.6px;}.cls-5{clip-path:url(#clip-path);}.cls-6{stroke:#4db758;}.cls-6,.cls-7,.cls-8,.cls-9{stroke-linecap:square;}.cls-7{stroke:#145092;}.cls-10{fill:#478d02;}.cls-11{fill:#565656;}.cls-12{stroke:#565656;stroke-miterlimit:10;stroke-width:0.75px;}.cls-13{fill:#4db758;}.cls-14{fill:#145092;}</style><clipPath id="clip-path"><rect class="cls-1" x="23.41" y="22.32" width="334.8" height="135.9"/></clipPath></defs><g id="Layer_1" data-name="Layer 1"><g id="figure_1" data-name="figure 1"><g id="patch_1" data-name="patch 1"><path class="cls-2" d="M0,192.94H365.41V0H0Z"/></g><g id="axes_1" data-name="axes 1"><g id="patch_2" data-name="patch 2"><path class="cls-2" d="M23.41,158.22h334.8V22.32H23.41Z"/></g><g id="matplotlib.axis_1" data-name="matplotlib.axis 1"><g id="xtick_1" data-name="xtick 1"><g id="line2d_1" data-name="line2d 1"><path id="m4471e4b36b" class="cls-3" d="M51.31,158.22v3.5"/></g><g id="text_1" data-name="text 1"><path id="DejaVuSans-31" d="M47.21,170.63H48.5v-4.45l-1.4.28v-.71l1.39-.29h.79v5.17h1.29v.67H47.21Z"/><path id="DejaVuSans-30" d="M53.85,166a1,1,0,0,0-.91.6,5.41,5.41,0,0,0,0,3.61,1,1,0,0,0,1.83,0,5.41,5.41,0,0,0,0-3.61A1,1,0,0,0,53.85,166Zm0-.62a1.68,1.68,0,0,1,1.5.78,4,4,0,0,1,.52,2.25,4,4,0,0,1-.52,2.25,1.84,1.84,0,0,1-3,0,4,4,0,0,1-.52-2.25,4,4,0,0,1,.52-2.25A1.67,1.67,0,0,1,53.85,165.36Z"/></g></g><g id="xtick_2" data-name="xtick 2"><g id="line2d_2" data-name="line2d 2"><path id="m4471e4b36b-2" data-name="m4471e4b36b" class="cls-3" d="M107.11,158.22v3.5"/></g><g id="text_2" data-name="text 2"><path id="DejaVuSans-32" d="M103.56,170.63h2.75v.67h-3.7v-.67l1.22-1.24c.52-.53.84-.86,1-1a3.47,3.47,0,0,0,.52-.72,1.27,1.27,0,0,0,.16-.58.94.94,0,0,0-.33-.75,1.21,1.21,0,0,0-.85-.3,2.77,2.77,0,0,0-.78.13,5.06,5.06,0,0,0-.88.39v-.79a5.1,5.1,0,0,1,.89-.29,3,3,0,0,1,.75-.1,2.19,2.19,0,0,1,1.45.45,1.5,1.5,0,0,1,.54,1.21,1.81,1.81,0,0,1-.14.69,3.23,3.23,0,0,1-.49.75c-.06.08-.27.3-.62.66Z"/><path id="DejaVuSans-30-2" data-name="DejaVuSans-30" d="M109.65,166a1,1,0,0,0-.91.6,5.41,5.41,0,0,0,0,3.61,1,1,0,0,0,1.83,0,5.41,5.41,0,0,0,0-3.61A1,1,0,0,0,109.65,166Zm0-.62a1.68,1.68,0,0,1,1.5.78,4,4,0,0,1,.52,2.25,4,4,0,0,1-.52,2.25,1.84,1.84,0,0,1-3,0,4,4,0,0,1-.52-2.25,4,4,0,0,1,.52-2.25A1.67,1.67,0,0,1,109.65,165.36Z"/></g></g><g id="xtick_3" data-name="xtick 3"><g id="line2d_3" data-name="line2d 3"><path id="m4471e4b36b-3" data-name="m4471e4b36b" class="cls-3" d="M162.91,158.22v3.5"/></g><g id="text_3" data-name="text 3"><path id="DejaVuSans-33" d="M161.07,168.15a1.5,1.5,0,0,1,.88.51,1.43,1.43,0,0,1,.32.94,1.63,1.63,0,0,1-.59,1.34,2.7,2.7,0,0,1-1.69.47,4,4,0,0,1-.76-.07,5.35,5.35,0,0,1-.8-.22v-.76a2.86,2.86,0,0,0,.72.29,3.61,3.61,0,0,0,.82.1,1.83,1.83,0,0,0,1.13-.3,1,1,0,0,0,.38-.85,1,1,0,0,0-.36-.8,1.51,1.51,0,0,0-1-.3h-.68v-.64h.71a1.43,1.43,0,0,0,.89-.24.8.8,0,0,0,.31-.67.82.82,0,0,0-.32-.69,1.49,1.49,0,0,0-.91-.24,4.48,4.48,0,0,0-.7.07,6.21,6.21,0,0,0-.81.22v-.7a8.18,8.18,0,0,1,.84-.19,4.91,4.91,0,0,1,.74-.06,2.26,2.26,0,0,1,1.42.41,1.32,1.32,0,0,1,.52,1.1,1.26,1.26,0,0,1-.27.82A1.45,1.45,0,0,1,161.07,168.15Z"/><path id="DejaVuSans-30-3" data-name="DejaVuSans-30" d="M165.45,166a1,1,0,0,0-.91.6,5.41,5.41,0,0,0,0,3.61,1,1,0,0,0,1.83,0,5.41,5.41,0,0,0,0-3.61A1,1,0,0,0,165.45,166Zm0-.62a1.68,1.68,0,0,1,1.5.78,4,4,0,0,1,.52,2.25,4,4,0,0,1-.52,2.25,1.84,1.84,0,0,1-3,0,4,4,0,0,1-.52-2.25,4,4,0,0,1,.52-2.25A1.67,1.67,0,0,1,165.45,165.36Z"/></g></g><g id="xtick_4" data-name="xtick 4"><g id="line2d_4" data-name="line2d 4"><path id="m4471e4b36b-4" data-name="m4471e4b36b" class="cls-3" d="M218.71,158.22v3.5"/></g><g id="text_4" data-name="text 4"><path id="DejaVuSans-34" d="M216.64,166.15l-2,3.12h2Zm-.2-.69h1v3.81h.83v.65h-.83v1.38h-.79v-1.38H214v-.76Z"/><path id="DejaVuSans-30-4" data-name="DejaVuSans-30" d="M221.25,166a1,1,0,0,0-.91.6,5.41,5.41,0,0,0,0,3.61,1,1,0,0,0,1.83,0,5.41,5.41,0,0,0,0-3.61A1,1,0,0,0,221.25,166Zm0-.62a1.68,1.68,0,0,1,1.5.78,4,4,0,0,1,.52,2.25,4,4,0,0,1-.52,2.25,1.84,1.84,0,0,1-3,0,4,4,0,0,1-.52-2.25,4,4,0,0,1,.52-2.25A1.67,1.67,0,0,1,221.25,165.36Z"/></g></g><g id="xtick_5" data-name="xtick 5"><g id="line2d_5" data-name="line2d 5"><path id="m4471e4b36b-5" data-name="m4471e4b36b" class="cls-3" d="M274.51,158.22v3.5"/></g><g id="text_5" data-name="text 5"><path id="DejaVuSans-35" d="M270.28,165.46h3.1v.67H271v1.43a1.89,1.89,0,0,1,.34-.09,2,2,0,0,1,.34,0,2.17,2.17,0,0,1,1.55.54,1.88,1.88,0,0,1,.57,1.45,1.86,1.86,0,0,1-.58,1.46,2.43,2.43,0,0,1-1.66.52,4.93,4.93,0,0,1-.75-.06,6.3,6.3,0,0,1-.78-.19v-.79a3.16,3.16,0,0,0,.72.28,3.44,3.44,0,0,0,.8.1,1.54,1.54,0,0,0,1.07-.36,1.39,1.39,0,0,0,0-1.93,1.53,1.53,0,0,0-1.07-.35,2.7,2.7,0,0,0-.63.07,3.5,3.5,0,0,0-.65.21Z"/><path id="DejaVuSans-30-5" data-name="DejaVuSans-30" d="M277.05,166a1,1,0,0,0-.91.6,5.41,5.41,0,0,0,0,3.61,1,1,0,0,0,1.83,0,5.41,5.41,0,0,0,0-3.61A1,1,0,0,0,277.05,166Zm0-.62a1.68,1.68,0,0,1,1.5.78,4,4,0,0,1,.52,2.25,4,4,0,0,1-.52,2.25,1.84,1.84,0,0,1-3,0,4,4,0,0,1-.52-2.25,4,4,0,0,1,.52-2.25A1.67,1.67,0,0,1,277.05,165.36Z"/></g></g><g id="xtick_6" data-name="xtick 6"><g id="line2d_6" data-name="line2d 6"><path id="m4471e4b36b-6" data-name="m4471e4b36b" class="cls-3" d="M330.31,158.22v3.5"/></g><g id="text_6" data-name="text 6"><path id="DejaVuSans-36" d="M327.86,168.07a1.06,1.06,0,0,0-.84.36,1.75,1.75,0,0,0,0,2,1.07,1.07,0,0,0,.84.37,1,1,0,0,0,.84-.37,1.75,1.75,0,0,0,0-2A1,1,0,0,0,327.86,168.07Zm1.57-2.48v.72a3.57,3.57,0,0,0-.6-.21,2.47,2.47,0,0,0-.6-.08,1.45,1.45,0,0,0-1.2.53,2.86,2.86,0,0,0-.47,1.59,1.69,1.69,0,0,1,.58-.52,1.65,1.65,0,0,1,.77-.18,1.83,1.83,0,0,1,1.39.54,2.27,2.27,0,0,1,0,2.89,1.91,1.91,0,0,1-1.42.54,1.79,1.79,0,0,1-1.55-.77,4,4,0,0,1-.53-2.25,3.44,3.44,0,0,1,.66-2.21,2.11,2.11,0,0,1,1.76-.82,3.21,3.21,0,0,1,.6.06A6,6,0,0,1,329.43,165.59Z"/><path id="DejaVuSans-30-6" data-name="DejaVuSans-30" d="M332.85,166a1,1,0,0,0-.91.6,5.41,5.41,0,0,0,0,3.61,1,1,0,0,0,1.83,0,5.41,5.41,0,0,0,0-3.61A1,1,0,0,0,332.85,166Zm0-.62a1.68,1.68,0,0,1,1.5.78,4,4,0,0,1,.52,2.25,4,4,0,0,1-.52,2.25,1.84,1.84,0,0,1-3,0,4,4,0,0,1-.52-2.25,4,4,0,0,1,.52-2.25A1.67,1.67,0,0,1,332.85,165.36Z"/></g></g><g id="xtick_7" data-name="xtick 7"><g id="line2d_7" data-name="line2d 7"><path id="m694d5db6d6" class="cls-4" d="M23.41,158.22v2"/></g></g><g id="xtick_8" data-name="xtick 8"><g id="line2d_8" data-name="line2d 8"><path id="m694d5db6d6-2" data-name="m694d5db6d6" class="cls-4" d="M37.36,158.22v2"/></g></g><g id="xtick_9" data-name="xtick 9"><g id="line2d_9" data-name="line2d 9"><path id="m694d5db6d6-3" data-name="m694d5db6d6" class="cls-4" d="M65.26,158.22v2"/></g></g><g id="xtick_10" data-name="xtick 10"><g id="line2d_10" data-name="line2d 10"><path id="m694d5db6d6-4" data-name="m694d5db6d6" class="cls-4" d="M79.21,158.22v2"/></g></g><g id="xtick_11" data-name="xtick 11"><g id="line2d_11" data-name="line2d 11"><path id="m694d5db6d6-5" data-name="m694d5db6d6" class="cls-4" d="M93.16,158.22v2"/></g></g><g id="xtick_12" data-name="xtick 12"><g id="line2d_12" data-name="line2d 12"><path id="m694d5db6d6-6" data-name="m694d5db6d6" class="cls-4" d="M121.06,158.22v2"/></g></g><g id="xtick_13" data-name="xtick 13"><g id="line2d_13" data-name="line2d 13"><path id="m694d5db6d6-7" data-name="m694d5db6d6" class="cls-4" d="M135,158.22v2"/></g></g><g id="xtick_14" data-name="xtick 14"><g id="line2d_14" data-name="line2d 14"><path id="m694d5db6d6-8" data-name="m694d5db6d6" class="cls-4" d="M149,158.22v2"/></g></g><g id="xtick_15" data-name="xtick 15"><g id="line2d_15" data-name="line2d 15"><path id="m694d5db6d6-9" data-name="m694d5db6d6" class="cls-4" d="M176.86,158.22v2"/></g></g><g id="xtick_16" data-name="xtick 16"><g id="line2d_16" data-name="line2d 16"><path id="m694d5db6d6-10" data-name="m694d5db6d6" class="cls-4" d="M190.81,158.22v2"/></g></g><g id="xtick_17" data-name="xtick 17"><g id="line2d_17" data-name="line2d 17"><path id="m694d5db6d6-11" data-name="m694d5db6d6" class="cls-4" d="M204.76,158.22v2"/></g></g><g id="xtick_18" data-name="xtick 18"><g id="line2d_18" data-name="line2d 18"><path id="m694d5db6d6-12" data-name="m694d5db6d6" class="cls-4" d="M232.66,158.22v2"/></g></g><g id="xtick_19" data-name="xtick 19"><g id="line2d_19" data-name="line2d 19"><path id="m694d5db6d6-13" data-name="m694d5db6d6" class="cls-4" d="M246.61,158.22v2"/></g></g><g id="xtick_20" data-name="xtick 20"><g id="line2d_20" data-name="line2d 20"><path id="m694d5db6d6-14" data-name="m694d5db6d6" class="cls-4" d="M260.56,158.22v2"/></g></g><g id="xtick_21" data-name="xtick 21"><g id="line2d_21" data-name="line2d 21"><path id="m694d5db6d6-15" data-name="m694d5db6d6" class="cls-4" d="M288.46,158.22v2"/></g></g><g id="xtick_22" data-name="xtick 22"><g id="line2d_22" data-name="line2d 22"><path id="m694d5db6d6-16" data-name="m694d5db6d6" class="cls-4" d="M302.41,158.22v2"/></g></g><g id="xtick_23" data-name="xtick 23"><g id="line2d_23" data-name="line2d 23"><path id="m694d5db6d6-17" data-name="m694d5db6d6" class="cls-4" d="M316.36,158.22v2"/></g></g><g id="xtick_24" data-name="xtick 24"><g id="line2d_24" data-name="line2d 24"><path id="m694d5db6d6-18" data-name="m694d5db6d6" class="cls-4" d="M344.26,158.22v2"/></g></g><g id="xtick_25" data-name="xtick 25"><g id="line2d_25" data-name="line2d 25"><path id="m694d5db6d6-19" data-name="m694d5db6d6" class="cls-4" d="M358.21,158.22v2"/></g></g><g id="text_7" data-name="text 7"><path id="DejaVuSans-32-2" data-name="DejaVuSans-32" d="M163.87,183.12H167v.75H162.8v-.75l1.38-1.4c.58-.59.94-1,1.09-1.14a4.33,4.33,0,0,0,.6-.81,1.47,1.47,0,0,0,.17-.65,1.1,1.1,0,0,0-.37-.85,1.37,1.37,0,0,0-1-.33,2.87,2.87,0,0,0-.88.14,5.21,5.21,0,0,0-1,.44v-.9a7.14,7.14,0,0,1,1-.32,4,4,0,0,1,.86-.11,2.42,2.42,0,0,1,1.62.51,1.67,1.67,0,0,1,.61,1.36,2,2,0,0,1-.15.77,4,4,0,0,1-.55.85l-.7.74Z"/><path id="DejaVuSans-3b8" d="M172,180.75h-2.8a4.62,4.62,0,0,0,.37,1.87,1.11,1.11,0,0,0,2.06,0A4.78,4.78,0,0,0,172,180.75Zm0-.75a5.64,5.64,0,0,0-.36-1.69,1.16,1.16,0,0,0-1-.69,1.12,1.12,0,0,0-1,.69,4.45,4.45,0,0,0-.36,1.69Zm-1.39-3a1.88,1.88,0,0,1,1.66.93,5.8,5.8,0,0,1,0,5.14,1.94,1.94,0,0,1-3.32,0,5.8,5.8,0,0,1,0-5.14A1.87,1.87,0,0,1,170.62,177Z"/><path id="DejaVuSans-20" d="M173.37,183.87"/><path id="DejaVuSans-28" d="M179,177a8.86,8.86,0,0,0-.87,2,7.08,7.08,0,0,0,0,4,8.74,8.74,0,0,0,.87,2h-.7a9.23,9.23,0,0,1-1-2,6.32,6.32,0,0,1-.32-2,6.2,6.2,0,0,1,.32-2,9.23,9.23,0,0,1,1-2Z"/><path id="DejaVuSans-64" d="M183.83,179.69V177h.81v6.84h-.81v-.74a1.67,1.67,0,0,1-.64.65,1.84,1.84,0,0,1-.94.22,1.77,1.77,0,0,1-1.45-.71,3.42,3.42,0,0,1,0-3.75,1.77,1.77,0,0,1,1.45-.71,2,2,0,0,1,.94.21A1.67,1.67,0,0,1,183.83,179.69Zm-2.75,1.72a2.38,2.38,0,0,0,.36,1.4,1.26,1.26,0,0,0,2,0,2.83,2.83,0,0,0,0-2.8,1.27,1.27,0,0,0-2,0A2.4,2.4,0,0,0,181.08,181.41Z"/><path id="DejaVuSans-65" d="M190.51,181.21v.39H186.8a1.83,1.83,0,0,0,.5,1.27,1.69,1.69,0,0,0,1.25.44,3.91,3.91,0,0,0,.91-.11,4,4,0,0,0,.87-.35v.77a4.7,4.7,0,0,1-.9.28,4.05,4.05,0,0,1-.92.1,2.52,2.52,0,0,1-1.87-.69,2.47,2.47,0,0,1-.69-1.85,2.7,2.7,0,0,1,.66-1.92,2.28,2.28,0,0,1,1.76-.71,2,2,0,0,1,1.57.64A2.52,2.52,0,0,1,190.51,181.21Zm-.8-.24a1.52,1.52,0,0,0-.38-1.06,1.25,1.25,0,0,0-1-.4,1.49,1.49,0,0,0-1.08.39,1.59,1.59,0,0,0-.47,1.07Z"/><path id="DejaVuSans-67" d="M195.08,181.35a2.24,2.24,0,0,0-.36-1.36,1.31,1.31,0,0,0-2,0,2.75,2.75,0,0,0,0,2.72,1.31,1.31,0,0,0,2,0A2.24,2.24,0,0,0,195.08,181.35Zm.81,1.91a2.71,2.71,0,0,1-.56,1.87,2.19,2.19,0,0,1-1.71.61,5.1,5.1,0,0,1-.8-.06,3.86,3.86,0,0,1-.74-.2v-.78a3.49,3.49,0,0,0,.71.28,2.74,2.74,0,0,0,.7.09,1.55,1.55,0,0,0,1.19-.41,1.75,1.75,0,0,0,.4-1.26V183a1.67,1.67,0,0,1-.64.65,1.84,1.84,0,0,1-.94.22,1.79,1.79,0,0,1-1.46-.69,3.32,3.32,0,0,1,0-3.66,1.79,1.79,0,0,1,1.46-.69,2,2,0,0,1,.94.21,1.74,1.74,0,0,1,.64.65V179h.81Z"/><path id="DejaVuSans-72" d="M200.41,179.7a1,1,0,0,0-.3-.11,1.34,1.34,0,0,0-.35,0,1.3,1.3,0,0,0-1.06.45,2,2,0,0,0-.36,1.28v2.59h-.82V179h.82v.76a1.61,1.61,0,0,1,.66-.66,2,2,0,0,1,1-.22h.19l.22,0Z"/><path id="DejaVuSans-65-2" data-name="DejaVuSans-65" d="M205.26,181.21v.39h-3.72a1.88,1.88,0,0,0,.51,1.27,1.69,1.69,0,0,0,1.25.44,3.82,3.82,0,0,0,.9-.11,3.6,3.6,0,0,0,.87-.35v.77a4.6,4.6,0,0,1-.89.28,4.08,4.08,0,0,1-.93.1,2.51,2.51,0,0,1-1.86-.69,2.47,2.47,0,0,1-.69-1.85,2.74,2.74,0,0,1,.65-1.92,2.29,2.29,0,0,1,1.76-.71,2,2,0,0,1,1.57.64A2.47,2.47,0,0,1,205.26,181.21Zm-.81-.24a1.52,1.52,0,0,0-.37-1.06,1.25,1.25,0,0,0-1-.4,1.49,1.49,0,0,0-1.08.39,1.59,1.59,0,0,0-.47,1.07Z"/><path id="DejaVuSans-65-3" data-name="DejaVuSans-65" d="M210.8,181.21v.39h-3.72a1.87,1.87,0,0,0,.5,1.27,1.7,1.7,0,0,0,1.26.44,3.82,3.82,0,0,0,.9-.11,4,4,0,0,0,.87-.35v.77a4.83,4.83,0,0,1-.89.28,4.2,4.2,0,0,1-.93.1,2.38,2.38,0,0,1-2.55-2.54,2.74,2.74,0,0,1,.65-1.92,2.29,2.29,0,0,1,1.76-.71,2,2,0,0,1,1.57.64A2.47,2.47,0,0,1,210.8,181.21ZM210,181a1.52,1.52,0,0,0-.37-1.06,1.25,1.25,0,0,0-1-.4,1.49,1.49,0,0,0-1.08.39,1.59,1.59,0,0,0-.47,1.07Z"/><path id="DejaVuSans-73" d="M215.26,179.09v.77a2.89,2.89,0,0,0-.71-.27,3.77,3.77,0,0,0-.76-.08,1.83,1.83,0,0,0-.91.18.61.61,0,0,0-.3.55.52.52,0,0,0,.22.45,2.77,2.77,0,0,0,.86.3l.28.06a2.79,2.79,0,0,1,1.23.52,1.24,1.24,0,0,1,.36.94,1.29,1.29,0,0,1-.54,1.09,2.54,2.54,0,0,1-1.5.4,4.74,4.74,0,0,1-.82-.08,6.62,6.62,0,0,1-.9-.23v-.84a3.75,3.75,0,0,0,.88.35,3.24,3.24,0,0,0,.86.12,1.66,1.66,0,0,0,.88-.2.62.62,0,0,0,.31-.55.6.6,0,0,0-.23-.5,2.6,2.6,0,0,0-1-.34l-.28-.07a2.17,2.17,0,0,1-1.09-.48,1.22,1.22,0,0,1-.33-.9,1.29,1.29,0,0,1,.49-1.07,2.29,2.29,0,0,1,1.4-.38,4.46,4.46,0,0,1,.84.07A3.12,3.12,0,0,1,215.26,179.09Z"/><path id="DejaVuSans-29" d="M216.69,177h.7a9.23,9.23,0,0,1,1,2,6.21,6.21,0,0,1,.33,2,6.34,6.34,0,0,1-.33,2,9.23,9.23,0,0,1-1,2h-.7a8.74,8.74,0,0,0,.87-2,7.08,7.08,0,0,0,0-4A8.86,8.86,0,0,0,216.69,177Z"/></g></g><g id="matplotlib.axis_2" data-name="matplotlib.axis 2"><g id="text_8" data-name="text 8"><path id="DejaVuSans-49" d="M7.48,109v-.89H14V109Z"/><path id="DejaVuSans-6e" d="M11.07,102.26h3v.81H11.09a1.68,1.68,0,0,0-1,.27,1,1,0,0,0-.35.82,1.31,1.31,0,0,0,.42,1,1.65,1.65,0,0,0,1.14.38H14v.81H9.12v-.81h.76a1.94,1.94,0,0,1-.66-.68A1.83,1.83,0,0,1,9,104a1.56,1.56,0,0,1,.52-1.28A2.39,2.39,0,0,1,11.07,102.26Z"/><path id="DejaVuSans-74" d="M7.72,99.85h1.4V98.18h.63v1.67h2.67a1.18,1.18,0,0,0,.77-.17.92.92,0,0,0,.17-.67v-.83H14V99a1.83,1.83,0,0,1-.35,1.29,1.75,1.75,0,0,1-1.27.36H9.75v.59H9.12v-.59H7.72Z"/><path id="DejaVuSans-65-4" data-name="DejaVuSans-65" d="M11.38,92.91h.39v3.72A1.88,1.88,0,0,0,13,96.12a1.72,1.72,0,0,0,.44-1.25,3.82,3.82,0,0,0-.11-.9A3.77,3.77,0,0,0,13,93.1h.77a5.73,5.73,0,0,1,.28.89,4.73,4.73,0,0,1,.1.93,2.38,2.38,0,0,1-2.54,2.55,2.74,2.74,0,0,1-1.92-.65A2.29,2.29,0,0,1,9,95.06a2,2,0,0,1,.64-1.57A2.46,2.46,0,0,1,11.38,92.91Zm-.24.81a1.52,1.52,0,0,0-1.06.37,1.25,1.25,0,0,0-.4,1,1.49,1.49,0,0,0,.39,1.08,1.59,1.59,0,0,0,1.07.47Z"/><path id="DejaVuSans-6e-2" data-name="DejaVuSans-6e" d="M11.07,87.49h3v.81H11.09a1.68,1.68,0,0,0-1,.27,1,1,0,0,0-.35.82,1.31,1.31,0,0,0,.42,1,1.65,1.65,0,0,0,1.14.38H14v.81H9.12V90.8h.76a1.94,1.94,0,0,1-.66-.68A1.83,1.83,0,0,1,9,89.21a1.56,1.56,0,0,1,.52-1.28A2.39,2.39,0,0,1,11.07,87.49Z"/><path id="DejaVuSans-73-2" data-name="DejaVuSans-73" d="M9.26,82.74H10a3,3,0,0,0-.35,1.48,1.78,1.78,0,0,0,.18.9.61.61,0,0,0,.55.3.51.51,0,0,0,.44-.21,2.65,2.65,0,0,0,.31-.87l.06-.28a2.63,2.63,0,0,1,.52-1.22,1.24,1.24,0,0,1,.94-.36,1.29,1.29,0,0,1,1.09.54,2.51,2.51,0,0,1,.4,1.49,5,5,0,0,1-.08.83,7.46,7.46,0,0,1-.23.9H13a3.82,3.82,0,0,0,.35-.89,3.13,3.13,0,0,0,.12-.86,1.6,1.6,0,0,0-.2-.87.61.61,0,0,0-.55-.31.58.58,0,0,0-.5.22,2.68,2.68,0,0,0-.34,1l-.07.28a2.13,2.13,0,0,1-.48,1.09,1.22,1.22,0,0,1-.9.33,1.26,1.26,0,0,1-1.07-.49A2.2,2.2,0,0,1,9,84.31a5.53,5.53,0,0,1,.06-.84A3.89,3.89,0,0,1,9.26,82.74Z"/><path id="DejaVuSans-69" d="M9.12,81.19v-.81H14v.81Zm-1.92,0v-.81h1v.81Z"/><path id="DejaVuSans-74-2" data-name="DejaVuSans-74" d="M7.72,77.89h1.4V76.22h.63v1.67h2.67a1.18,1.18,0,0,0,.77-.17.92.92,0,0,0,.17-.67v-.83H14v.83a1.87,1.87,0,0,1-.35,1.3,1.8,1.8,0,0,1-1.27.35H9.75v.59H9.12V78.7H7.72Z"/><path id="DejaVuSans-79" d="M14.5,73.11a2.92,2.92,0,0,1,1.14.67,1.33,1.33,0,0,1,.27.87v.65h-.68v-.48a.82.82,0,0,0-.15-.52,2.16,2.16,0,0,0-.75-.41L14,73.75l-4.84,2v-.86L13,73.34,9.12,71.81V71Z"/></g></g><g id="line2d_33" data-name="line2d 33"><g class="cls-5"><path class="cls-6" d="M23.45,133.34l.15.71.15-.08.14.78.3-.72.14,0,.15.53.29-.68.3.41.14-.28.15.9.14.2.15-.28.15.18.29-.62.29.62.15-.15.15.61.29-.6.15.65.29.31.15-.27.14.12.3-.54.14.09.15-.12.15.1.29.81.15-.33.14.15.15-.23.14.09.15-.1.15,0,.29.52.15-.36h.14l.15.84.15-.89.14,0,.15.49.15-.26.29.32.15-.37.14.19.15,0,.15.51.14-.07.44.62.44-.68.15.09.14-.21.15.41.15-.2.29.42.15-.06.14-.63.15,1.13.29-.7.15,1,.29-.46H35l.15.18.14-.37.15.39.15,0,.44.7.14-.5.29.39.15-.2.15.07.14-.14.15.22.15.49.14-.08.15.51.15-.75.14.52H38l.15-.29h.14l.15.69.29-.44.15.47.15-.26.14.32.3-.53.29.58.15-.32.14.38.15-.28.14.51.15-.71.15.28.14-.88.15,0,.15-.37.14.57.15,1.11.15,0,.14.41h.15l.15.13.14-.21.15.43.15-.43.14.63.15-.19.15.2.14-.44.15,0,.15.38.14-.78.15.83.15-.51.14.5.15-.27.14,0,.15.21.29-.1.15.23.15-.11.14.43.15-.18.15-.41.14,0,.15-.37.15.84.29-.5.15.81.29-.51.15.09.14-.22.15.48.29-.7.15.73.29-.68.15.18.14-.37.15.4.15.07.29-.59.15.13.14-.36.3.43.14-.1.15.07.15.3.14-.58.15.27.15-.46h.14l.15.2.44-.32.29-.13.15.15.14-.72.15-.07.15.11.14-.11.15-.36.15.69.14-.8.15.25.44-.61.15,0,.14.68.15-1,.29,0,.15-.41.15.09.29-.57.15.61.14-.83.15.08.29-.49.15,0,.14.3.15-.33.15.06.14-.46.15.24.15-.71.14.5.3-.47.14,0,.15-.5.29.61.15-.7.15.3.14-.43.15.46.29-.37.15-.14.15.65.14-.41.15.48.15-.21.29.22.14-.35.3.84.14-.2.15.06.29.43.44.51.15.5.15-.37.29.39.15.91.14-.19.15.08.15-.22.44.9.87.94.15.9.15-.09.14-.37.15.55.15,0,.44,1,.14-.17.3.45.14,0,.15-.29.15.13.44,1.08.14-.11.15-.3.29.68.15-.3.14.5.3-.18.14.54.15-.32.15.45.44-.39.29.92.15-.19.14.45L68,144l.44,0,.15.63.14-.21.15.09.15-.25.44.41.14-.19.15.25.14-.16.44.18.59-1.32.44,1.15.29.92.15-.14.29.27.15-.3.15.1.14.26.15-.31.15.28L73,145l.44.91.15-.31.14,0,.15.15.15-.4.29-.07.15-.14.14.16.3-.89.14-.86.15.08.44,1.91.15.21.29-.76.15-.18.29-2.24.15-.94.14.85.29,3.36.3.66.14,0,.15.14.15-.18.14.45.3-.23.29.05.29-.24.15-.1.15.3.14-.26.15.28.29-.81.15-.08.73-3,.29-.45.44,4.11.15.47.15-.18.29.18.15-.14.44.19.14-.24.15.28.15,0,.29-.73.15,0,.29.68.15.12.14.34.15-.26.15.23.14-.39.15.78.14-.7.15.27.15-.13.14.14.44-.26.15.32L86,146.3l.15-.15.44-2,.15.07.29,2.28.29.59.15-.66.29.34.15-.09.14.75.15-.23.15.27.29-.13.15.17.29-.61.15.32.58-.89.44,1.26.15-.28.15,0,.14.36.15-.19.15.28.14-.13.15.2h.15l.14-.24.29.29.15-.36.15,0,.14.14.15-.18.15.45.14-.16.15.32.15-.4.14.29.44-.43.15.21.15-.15.29.05.29-.28.15.44.15-.37.14.22.3-.17.14.11.15-.25.14.76.15-.55.29.14.15-.07.15.23.14-.29.3.1.14-.16.44.4.44-.28.15.11.15.32.29-.5.44.31.29-.31.44.08.15-.27.14-.52.15.22.88-3,.29.39.15-.8.44,2.17L102,147l.14-.48.3.44.14.05.29.68.15-.54.15,0,.29-.4.29-.76.15-.38.15.27.14.77.15-.15.29,1,.15-.3h.15l.29-.51.29.11.15.06.15-.18.14.06.15-.41.15.23.29-2,.44-4.17.44,5.12.29,1.6.15-.42.14.3.15-.42.15.49.14-.13.15-.43.15.23.14-.18.3,0,.14-.62.15.23.73-1.56.15-.78.44-6.63.29-6.46.15,1.24.44,11.4.14,1.54.15.27.15.76.14-.42.3.58.29-.4.15.34.29-.08.15.22.14-.19.15.1.29-.76.15,0,.14-.32.3-1.29.29,1.12.15.36.14-.41.15.65.15-.27.14-.57.15,0,.15-1,.14-.16.15-.55.15.24.44,2,.29.26.15-.3.14.48.29-.73.15.37.15-.23.14.12.15-.09.15-.43.29.25.15-.47.14,0,.15-.36.15.27.14-.07.15.23.15-.33.14.28.15-.41.29.78.15-.67.29.07.15-.37.15.6.29-.35.14-.4.15,0,.15-.18h.14l.15-.13.15.19.14-.08.15.08.44-1.54h.15l.14-.47.3,1.54.14.37.15-.39.59.43.14-.19.44-1.43.59,2.36.29-1,.29.66.15.65.15.13.14.93.15-.18.29-.64.15.14.44,1.23.15,0,.14.15.15.61.15-.71.14.07.15.47.14-.29h.3l.14.25.3-.16.14.31.3-.26.14.12.15-.5.15.21.29-.62.15,1,.14.21.15.47.15,0,.14-.15.3.43h.14l.15-.4.15.57.14-.23.15.4.29-.39.29-.21.15.54.15-.05.14.13.15,0,.29-.27.15.16.15-.16.14.07.15-.13.29.48.15.09.15-.4.14.28.15-.17.29.71.15-.26.14.11.15-.3.15.39.14-.14.15,0,.29-.8.15.34.15-.36.44-2.36.29.6.44,2.17.15.12.14-.14.15.27.15.49.14-.22h.15l.15.19.14-.39.15.1.14.3.15-.15H140l.14-.22.15.11.15-.34.14.18.15-.12.15.27.14,0,.15-.21.29.31.15-.34.29.5.3-.3.14-.12.15.24.15-.17.58.12.15-.19.29.3.15-.23.14.07.15-.32.15.3.14-.16.15-.35.29-1.34.15-.48.15-1.1.14-.24.15.88.15.14.29,1.32.15.1.58-2.78.3-.8.29-2.44.14-1.71.15,0,.44,4.24.44,3.46.15.65.14-.28.3.95.14-.17.15.14h.29l.15.09.15-.21.29.26.15-.08.14.14.15-.34h.14l.3.31.14-.16.15.37.29-.81.15.33.15,0,.14-.44.15,0,.29.46.15-.35.29.3.15-.13.15.22.14-.09.15.24.29-.72.3-.27.14.54.15-.37.14.31.15-.21.15.28.14-.12.15.35.15-.37.29-.14.15.09.14-.5.15.22.15-.42.29.69.15-.16.14,0,.15.65.29-.54.15-.15.15.09.14-.71.15-.1.29-.93.15-.41.14,0,.15-.26.15.31.58-2.71.15.43.15,1.43.29.36.15.58.29-1.15.44,1.87.15.12.44.89.29-.21.14.23.3.77.14.21.44-.48.15.1.15,0,.14.17.15,0,.15-.32.44.38.44,0,.14-.09.3.26H165l.29-.26.14.3.3-.19.14-.28.15.27.15-.28.44-1.38.14-.21.15.82.15-.47.14.18.44-.63.15.17.15.47.14.08.15.28.15.58.29-.1.15.06.14-.44h.15l.73-4.5.15.73.14-.21.44,1.39.15-.12.15,1,.14.16.15.53.29-.17.15.44.15-.11.29.77.59.46.14.05.15.2.29-.25.29-1,.3-1.77.58-10.06.15.88.29,4.26.15,1,.29,3.19.15-.37.29-1.64.15.68.29,1.84.29.91.15.27.15-.35.29,1,.29.33.15.83.15-.59.14.07.15.32.59.14.29.25.15-.11.14.26.15-.49.15.15.29-.46h.15l.29-.37.14.16.3-.14.14-.46.15.1.44-1,.15,0,.14.2.15-.18.29.23.15.3.15-.82.29-.17.29-.48.15.15.44-.27.29.56.15-.46.14.06.3-.33.14-.73.15-1.66.15-.14.29-2.56.15,0,.14.72.15.12.15.7.14,0,.15.85.15.1.29-.12.15.43.14-.31.3.46.29-.59.14-.06.15-1.35.15.39.29-1.58.15.16.44-1,.44,3,.14-.25.3,1.18.14-.49.15.28.29-1.22.3-2.05.14-.51.15,1.66.15.36.14-.05.29,2.21.15-.32.29.89.15-.9.44.58.15.61.14.08.15.32.15-.44.14,1,.15-.18h.15l.14.35.15,0,.15-.32.14.11.15.46.15-.66.29-.24.15.08.14.47.15-.34.14.3.15-.1.15-.64.14.43.3-1.56.14-.15.15-.72.15.08.14,1,.15-.17.44.27.15-.29.44-2.37.14.3.59,3.72.44,1.5.14-.19.15.19.44-.07.15,0,.14-.56.15,0,.29.56.44-.22.15.84.15-.41.29-.07.15.23.29-.12.15.09.14-.16.15.26.14-.23.15,0,.15-.18.29.1.15.18.14-.48.15.32.15-.41.14.11.15-.33.15.42.29,0,.29-.3.3-.82.14.14.15-.19.15.2.14-.2.44.14.15-.83.14-.09.59-2.62.15-1,.14.49.3,2.13.14,0,.59,2.49.15-.15.14.07.3-.21.29.53.15,0,.14-.14.15.91.29-.06.15,0,.14-.16.3.29.14-.13.15,0,.15.14.14-.54.15.41.29-.38.15.37.29-.65.44-.14.15.48.29.24.3.41.29.23.29.46.15.09.14-.53.15.47.15-.81.29.44.15-.54.44.33.14,0,.15-.38.44-1.55.15.05.29,1.14.15-.07.44,1.18h.14l.15.6.14-.39.15.11.15.45.14-.57.44-.08.15.42.15-.35.14.25.15-.49.15.38.29-.51.15.34.14-.28.15.08.15-.14.29.2.29.23.3.53.14-.4.59.9.14-.44.15.07.15-.78.14.31.3-.34h.14l.3-.3.58,1.4.3-.29.29.48.29-.28.29.16.15-.24.29.39.15-.22.15.24.29-.24.15-.11.14-.33.15.09.15-.12.14-1.07.44-.67.3.14.44,1.57.14.22h.15l.15.28.29,0,.14.16.44-.72.15.4.44-.1.29.3.15-.08.29.41.59-1.43.29-1.17.15.09.15.74.29.19.15.11.14.62.15-.24.44.75.29-.6.15.09.14-.59h.15l.59.39.58-1.12.15.09.15-.14.29.12.15-.21.14.44.15-.12.29.09.15.38.14,0,.44.46.15-.24.29.48.15.28.15-.12.14.34.15-.05.15.1.14-.07.15.47.15-.17.29.09.15-.21.29.27.29-.27.15,0,.14-.25.15,0,.29-.8.15-.69.29-.27.44.71.15.2.15,0,.44,1.22.14-.24.15.43.15-.21.14.26.15-.21.15.2.29-.36.15.19.14-.08.15-.37.14.3.15-.25.29-.69.15.22.15-.19.14.41.3.14.14-.06.3.47.14-.06.15.43.15.07.14-.35.15.21.44-.45.15.18.29-.07.15-.42.14.05.15-.13.14-.33.3,0,.29-.38.44.78.15-.37.14.31.15-.25.15.22h.14l.15-.35.88.62.29.39.15,0,.14.19.15-.16.44.84.29-.29.15.05.15.2.29-.4.15.14.14-.15.15,0,.15.26.14-.48.15.39.15,0,.29-.48.15.14.44-1.2h.14l.15-.56.14.07.15.53.15,0,.29.72.15-.17.14.15.15.59.44.24.15.15.14-.1.15.06.15-.14.29.07.15-.24.14.34.15,0,.15.34.29-.42.29.29.15-.32.29.12.15-.48.14.22.15-.06.73.43.15-.31.29.32.15-.18.15.28.14-.11.15.06.59-.4.14.18.15,0,.14.29.15-.2.15.42.14-.54.3-.1.14.28.15-.41.29-.13.3.3.14.35.3-.29.14.56.3-.29.44-.25.14,0,.15-.14.15.19.43-.16.3.34.14-.05.15.22.44-1.33.44-.32.15.18.14.47.15,0,.29.61.15.05.15.62.14-.15.15.07.15-.23.29.56.15-.31h.14l.15-.37.14.63.15-.61.15.3.14-.12.15-.3.15.47.14-.31.15.35.15-.57.14.07.3.45.29-.31.15.31.14-.14.3.59.14-.24.15.29.29-.1.15-.17.44.12h.14l.15-.15.15.06.29-.18.15.24.14-.22.15.22.15-.15.29.29.15,0,.14.16.59-.4.15.22h.14l.15-.2.15,0,.43-1,.15-.11.15.5.14,0,.15.3.15-.23.14.39.15-.5.29.4.15-.37.15.14.14-.11.15.34.15-.18.73.54.29-.15.15-.21.15.31.14-.35.29.42.3-.44.14-.14h.15l.15-.34h.14l.15.25h.15l.14.13.3-.16.29.16.15.44.29-.18.15.37.44,0,.14.24.15-.06.29.22.15-.27.14.08.15-.16.15.23h.14l.15-.15.29,0,.3-.31.14.08.15-.36.15.46.29-.16.15,0,.14-.4.15.18.15.37.44-.53.14,0,.59-.28.29.16.29.56.3-.12.14.07.3.41.14-.43h.15l.15.29.14-.07.15.11.15-.07.29.25.15-.3.14.08.15-.25.29.33.29-.28.15-.16.15.51.29-.16.15.25.14-.54.15.31.15-.05.14.09.15-.06.15.06.29-.24.29.19.15-.19.15.15.14-.13.15.08.15-.14.14.2.15-.19.58.37.15-.24.15.29,1.17,0,.29-.49.15,0,.29-.38.15.28.15-.28.29.16.15-.24.14.29.15-.13h.29l.15.36.14-.08.15-.33.15,0,.14.14.15,0,.15.11.14.26.15-.16.15.27.29-.08.15.21.14-.29.15.27.15-.14.14.12.15.39.15-.37.29.3.15-.23.14,0,.15.17.14-.12.3,0,.29.1.15-.15.29.23.15-.2.14.12.3-.25.14,0,.3.29.14-.45.15.41.15-.31.14.27.15-.28.15.18.29-.35.29.48.29-.32.15-.08.15.17.14-.18.15.18.44-.12.15-.17.44.35.14-.31.44.38.44-.17.15-.08.15.06.29-.17.15.18h.14l.15.17.14-.35.15.29.29-.23.15.19.15-.14.14.34.15-.08.15.37.14-.53.15.18L311,151l.3.28.14,0,.15-.22h.59l.14-.12.15.23.14-.26h.15l.15.27L313,151h.15l.15.33.14-.29.15,0,.15.16.58-.42.15.14.15-.53.29.29.15,0,.14.22.3-.27.14.5.15-.23.29.1.44,0,.29.17.15-.14.15.29.14-.29.15.29.29-.45.15.15.15-.3.14.29.44-.07.44-.18.15-.39.15.18.14-.51.3.17.29.55.29-.23.29.28.3.07.14-.18.3.29.14-.18.15.19.15-.24.14.39.3-.38.14-.05.15.17.15-.26h.14l.15.16.15-.15.29.23.29-.29.15-.09.29.07.15-.06.29.14.29-.39.3.15.14-.25.15.13.15-.28.29,0,.15-.09.14.09.3-.3h.44l.29-.28.14-.43.15.5.15-.42.14.28.15-.07.15-.36.14.14.15-.09.15-.27.29-.06.15-.5.14.29.15-.11.15-.35.14.39.15-.47.15.16L330,148l.3-.59.14.28.88-.62.15-.36.14.53.15-.54.15.25.14,0,.15-.1.15.32.14-.34.15.21.29-.35.15.25.29-.12.15.42.15-.3h.14l.15.63.15-.34.14.47.3-.16.14.3.29.07.15.25.29-.13.15.27.29-.16.15.2.15-.07.14-.22.15.42.15-.32.44.17.14.24.3-.16.29.2.15-.28.14.12.15-.1.29.27.15-.08.14.1.15.33.15-.09.14-.24.59.26.15.41.29-.12h.15l.14.18.3-.14.14.27.15-.08.15.11.29-.09.15.05.14-.08.15.14.14-.21.15.18.29-.25.15.17.15-.22.44,0,.29.6.15-.09.14.38.15-.12.15.2.14-.31.3.4.14-.15.3.38.14-.49.3.43.14,0,.15.16.14-.14.15.14.15-.06.14.3.15-.11.15.08.14.26H347l.15.14.44-.05.29.32.15-.13.29.13.15-.28.14.13.15-.25.15.3.14-.11.15.12.14-.07.15.17.29-.27.15.26.15-.09.29.09.15-.32.14,0,.15.26.15-.27.14.14.74-.21.14,0,.3.46.14-.28.15,0,.29.24.15-.18.29,0,.15-.06.29.26.15-.28.14.12.15-.07.44.18.15-.13.44.08.29-.09.29.49.3-.33.58.39.29-.36.15.14.15,0,.14-.17.3.11.14-.12.3.22h0"/></g></g><g id="line2d_34" data-name="line2d 34"><g class="cls-5"><path class="cls-7" d="M23.45,100.34l.15-.39.15.07.29.73.15-.58.14.51.15-.17.15.35.58-.09.15.07.14.2.15,0,.15.09.14-.27.3.8.14-.34.15.32.15-.3.58.46.15-.15.15.13.14-.07.15.06.15-.29.14.06.15.35.15,0,.14.27.15-.38.44.55.14-.6.3.58.29-.1.15-.48.14.81.15,0,.15-.13.14.06.3-.48.14.52.15-.34.15.34.14-.11.15.36.15-.17.29.07.15-.35.14.13.15.73h.15l.29-.36.14-.21.3.5.14-.48.15.78.15-.14.14,0,.15-.4.15.51.14-.53.15.21.15.49.14-.49.15.07.15.6.14-.21.15.36.15-.37.29.45.15-.27.14.2.15.45.14-1.12.3.78.29.35.29-.21.15.08.29.68.15-.32.15.55.14-.46.15.41.15-.47.14.79.44-.41.15.29.15-.43.14.39.3-.32.29.23.14.37.15-.9.15.59.14-.11.15.13.15-.35.29,1.12.29.1.3-.28.14.07.15.29.15-.32.14.42.3,0,.14-.11.15.48.44-.16.15.31.14-.15.15.16.14-.2.3.16.14-.21.15.38.29.07.15.19.15-.26.14-.8.15,0,.15.46.14-.45.15.82.15-.14.14-.55.3.39.14-.1.15.07.15-.06.14.14.15-.11.15-.42.14.18h.15l.14-.12.15.24.29-.48.15.57.44-.31.15,0,.14-.25.15.21.29-.9.3.85.14-.72.15.14.29-.48.15-.08.29.34.15-.5.29.15.15-.56.14.2.15-.19.15-.42.14.44.44-1.12.3.41.14-.51.15.14.15-.12.14-.27.15.13.15-.7h.14l.44-1.08.15.3.29-.1.15-.62.14.24.15-.6.15.07.14-.14.15-.4h.15l.14-.49.15.34.15-.36.14-.7.15.58.15-1.18.14.44.15-.48.15-1,.14.13.88-6.68.3-5.26.43-11.15.15.36.59,22,.29,2.66.29,1,.15,0,.29,1.13.15,0,.15.38.14.86.15-.68.15,1.41.14-.78.3.23.14,1.7.15-.66.14-.14.3,1.24.29.2.29-.16.3.93.29.62.15-.48.14.84.15-.27.15.38.29.06.29.78.15-.7.29.77.15,0,.15.49.14-.18.15.39.14,0,.15-.47.15.19.14.85.15-.21.15.16.14-.23.15.66.15-.38.14,0,.3.64.14-.22.15,0,.15.39.14-.13.15.21.15-.11.14.46.15,0,.44-.47.15.5.14-.5.15.11.14-.44.15.31.73-2.75.59,4,.44-.5.29.52.15-.07.15.1.14-.36.15-1.09.15.15.14-.35.15.29.14,1,.15.14.15.54.58-1,.15.21.29-.78.44-4.26.44,5.25.15.16.15-.13.14-.38.15,0,.44-2.57.44,3.07.29.89.15.19.14-.14.15,0,.15-.17.14.17.15-.14.15.4.29-.24.15.51.14-.36.15,0,.15-.36.14.46.3-1.09.29-.62.29-2,.15-.53.29-3,.15,1.08.44,5.75.44.52.29.06.15-.18.14.34.3-.2.14,0,.15-.35.15.29.14-.18.15-.45.15.63.14,0,.15.56.15-.24.29.08.15.18.29-.58.29.4.15-.21.14.25.3,0,.14-.54.15.31.15-.48.14-.07.15-.51.15-.1.14-.82.15.07.59,2.1h.14l.15-.18.73.34.15-.17.14.19.15-.39.15.21.14-.2.44,0,.3-.14L90,113l.15-.09.29.1.15.28.14-.39.3.29.29-.2.15.29h.29L92,113l.15.3.29-.38.15.5.29-.37.15.28.14-.17.15.24.15-.31.14.59.3-1,.14.61h.15l.15.19.14-.5.44.35.3-.35.14.44.15-.27.29.15.15-.06.29.19.15-.36.14.14.15-.24.15.22.29-.08.15.15.14.3.15-.63.15.37.29-.08.15-.26.14.16.15-.06.15-.23.14.56.15-.48.14.06.15.18.29,0,.15,0,.29-.44.3-.33.29-1.23.15-.62.29.13.15-.32.14.08.15.2.29,1.31.44.36.15.07.15.38.14-.33.29.19.3-.47.58-2.8.15.69.29,2,.3.47.14.06.3-.63.44-1.16.29,1.29.15-.51.14.26.3-2,.29-4,.29-5,.59,11.35.14-.15.15.57.15,0,.14-.14.15.22.15-.1.14.25.3-.53.14,0,.3.21.29-.49.15-.15.29-1.41.29-2.51.29-5.66.44-21.54.15,4.15.44,24.18.29,2.57.44.22.15-.19.29.6.15-.38.15,0,.29.28.15-.09.14.12.15-.47.14,0,.15-.21.15-.67.29-.27.29.67.44.27.3-.64.29-.52.15-.81.29-.05.29.71.3.85.14-.1.15-.32.29.31.15.26.14-.21.15,0,.15-.59.29.39.15-.81.14.75.15,0,.15-.49.14,0,.3-.42.14-.25.44.39.3-.38.14-.15.15.36.29-.59.15.16.29-.48.29-.31.15-.5.15.09.14-.14.44-1.93.3-3.29.44-3.26.14.1.15.7.44,5.06.29,2.5.44,0,.15-.28.14.6.15-.39.29,1.57.15.33.15-.7.14,0,.15.56.15-.06.14.11.3,1.11.14-.2.15.13.15,0,.14.09.15-.07.44,1.22.15.23.29-.69.29.87h.15l.14-.18.15.4.15-.41.14.34.15-.21.29.49.3-.55.44-1.86.14.15.74,2.91.14-.2.15.08.15.44.14-.09.15-.41.15.39.14,0,.15-.32.14.15.15-.15.29.34.3-.21.14.29.15-.13.15-.29.14.37.15-.11.15.14.29,0,.29.24h.59l.15.37.29,0,.14-.28.15.08.59-.71.44-2.06.29-3,.15-.24.58,5.19.15.63.15-.11.29.44.29-.09.15.31.15-.33.29,0,.29.2.15,0,.14-.22.3,0,.29.33.15,0,.14-.21.15.31.29-.42.15.33h.29L142,114l.44,0,.15.21.14-.22.15.29.29-.25.15,0,.14.18.3-.1.14.12.15-.24.29-.59.15-.11.44-2.1.44,1.17.29.79.3-.49.44-2.44.14.27.59-7.68.14,1.41.3,4.71.29,3.77.15.84.14.09.15-.24.44.62.15-.29.14.27.15,0,.29.34.3-.17.14,0,.15-.23.15.16.14.34.15-.16.14.1.3-.35.14.21.15-.37.15,0,.14-.37.15,0,.15-.25.29.22.44-.17.15.84.14-.3.44.09.59-.09.15-.41.29.38.14-.4.15.6.29-.41.15,0,.15.32.14-.64.15-.13.15-.31.29-1.23.44,1.12.29.84.15-.27.15.4.14-.42.15.14.73-3.62.29,1.26.3.55.44-1.23.29,1,.15.13.14.57.15-.08.29-.48.15.34.15.71.29.24.29.56.3.14.29-.37.14.27.15.54.15-.08.14.25.15-.25.15,0,.29-.63.29.53.15-.31h.15l.29.24.15-.09.29.54.15-.21.14.22.15-.18.15.19.14-.22.15.35.29-.44.29.1.15-.29.15.32.14-.27.44-2.3.15-.41.29,1.05.15-.27.15.09.14.34.3-1.07.14.3.15,1.11.15.19.14.54h.15l.29.14.3-.12.29-1.69.44-5.39.14-.27.15,2.15.15-.3.44,3.08.14,0,.3,1,.29-.84.44,1.09.15-.29.29.36.15.87.14.06.15-.23.15.51.14-.13.29.26.59-4.39.29-7.57.3-12.66.14-.18.44,12.83.3,7.73.14,1.08.3-.58.73,3.24.14-.21.44.48.15-.07.29.43.15,0,.29-.65.59.68.15.45.14-.3.44.14.3-.57.14.11.44-.53.15,0,.14.31.3-.72.14.3.44-.46.15.12.15.31.14-.29.15.64.29-.61.15-.25.15,0,.44-.73.14.32.15-.41.15.23.14-.41.15.19.15-.4h.29l.29-.59.15-.67.58-8.3.44,4.49.15.49.15,1.73.29.81.15-.34.29-.06.15,0,.44-.72.14.19.29-1.23.3-2.23.14.08.15-.15.15-.43.29-1.16.15-.15.14.34.15-.67.15,1,.14,0,.3,1.71.14-.39.15,0,.15-1.08.29-3.84.15.18.14,1.09.3,2.9.58,4.34.15.08.29-.58.29.6.15-.12.29.84.15.09.15.55.14,0,.15-.29.15.53.44.16.29-.59.15-.22.44.2.14.17.15,0,.14.28.15-.36.15.29.58-1.32.15-.43.29,1.35.15-.38.29.25.59-2,.15.28.29,1.82.15.13.29,1.38.29.32.15-.17.29.2.29-.21.15.46.15-.39.29.38.29,0,.15-.45.29.64.15,0,.15.09.14-.07.15.21.15-.37.29.46.15-.27.14,0,.15.21.14-.59.15.27.15.57.29-1,.15.54.29-.41.15-.12.14.17.3-.14.14.33.15-.29.15.23.14-1,.15.45.15-.4.14,0,.15-.41.15.4.14,0,.3-1.14.14-1.07.15-.23.14-.65.15,1,.15.12.14-.68.15.07.29,1.15.3.74.14-.14.15.46.15-.16.14.38.15,0,.29-.5h.15l.29.41.15.54L209,111l.29.41.15.18h.14l.15.36.29-.24.29.17.44-.85.15.87.15-.55.14-.09.15-.48.15-.08.14-.5.15-1.27.44,2,.15-.5.14.45.15,0,.15.22.14-.89.15.23.14-1.23.15.2.15-.14.14,0,1,2.3h.15l.58-3.06.15.69.15,1.32.14.22.15-.16.29,1.79.15-.2.29.65.29.25.15-.34.29-.06.15.38.15-.15.14.17.15-.11.29.15.15-.62.15,0,.29.24.15-.7.14.26.15-.15.29,1.15.3-.19.14.44.15-.12.15.54.14-.2.29.3.15-.24.15.09.29-.69.29-.27.15-.45H222l.29.68.15-.12.44.76.14-.28.15.44.15-.1.29.32.29-.35.15.29.14-.15.15,0,.15-.18.44,0,.44-.13.14-.45.15,0,.29-1.61.3-1.88.14-.37.3,2.35.29.14.29,1.84.15-.12.58,1,.3-.56.29-.09.29.36.15-.16.15.25.14-.11.15.54.59-.92.44-2,.88,1.83.14.49.15-.14.14.22.15-.07.15.17.14-.21.15.07.15-.21.29-1,.29.68h.15l.15.36.14-.27.59.71.29,0,.3.26.29-.13.15.22.14-.15.15.35.14-.2.15.09.15-.21.14.06.15-.41.15.32.14,0,.15.25.15-.33.14.39.15-.17.15.07.14-.32.15.63.15-.38.29.16.15-.09.14-.23.15.1.15-.08.14.12.44-1.37.44-3.37.15.62.14,1.25.15.11.15-.34.44,2.19.14-.09.3.61.14-.29.15.48h.15l.29-.24.15.32.29-.17.15-.57.14.28.29-1.82.15-.23.15.28h.14l.15.48.15-.22.14.56.15-.12.44,1.2.15-.17.14.48.15-.29.29,0,.44-.64.15.15.15-.29.14.35.15-.1.15.07.14-.39.15.07.29-.34.44-1.54.29,1.58.15-.66.29-.14.15.16.15-.54.29.55.15,0,.14-.26.3-.81.29,1.15.15.69.14-.24.15.34.14,0,.3.8.14.25.15,0,.29-.31.3-.19h.14l.15.31.15-.29.14.2.15-.09.44-.58.15.09.58-1.74.44-2.24.15,0,.29,1h.15l.14.62.15,0,.59,2.07.44.46.14.33.15-.24.15.35.44.06h.14l.3.43.14,0,.15-.33.15.21.14-.16.29-.77.3.47h.14l.15.41.15-.3.14.12.3.51.14.05.3-.22.14.06.15-.32h.29l.15.46.29-.52.15.26.15-.45.29.77.14,0,.15-.11.15,0,.14-.3.15.36.15-.37.14.17h.44l.3.29.14-.17.3.11.14,0,.15.18.15,0,.44-1.34.29.17.15.47.29-.31.14,0,.3.92.14-.44.15-.05.59-1.3.29.06.29.83.3.2.44,1.29.14-.16.3.11.14.22.3-.55.14.32.15-.05.29-.37h.15l.29.19.15-.27.14.21.3-.25.44.18.14-.15.15.11.15,0,.44.51.29.08.15-.36.29.22.15-.06.29.28.14-.3.74.1.14-.25.3.47.14,0,.3-.18.29.07.15,0,.14.12.15-.15.15.14.44-.47.43-1.25.15-.16.29,1.08.15,0,.29-.36.15.1.15.38.14.07.15-.11.15.35.14,0,.15.28.15-.32.29.15h.15l.14.24.15-.07.15.08.29-.29.29.22.15,0,.14.21.15-.35.15.11.14-.07.15-.26.15.13.14-.4.15.32.29-.55.15.21.15-.72.29.93.44.34.15,0,.58.53.15-.08.15.1.29-.2.29.16.15,0,.14.23.3-.38h.14l.44-.55h.15l.29.24.3-.19.14.16.15-.1.29.12.3-1,.14-.43.44-.28.15-.36.14.18.44,1.29.44,0,.15.6.29.08.15.37h.15l.14-.28.15.44.29-.41.15-.09.15.1.44-.14.14-.33.15.38.14-.08.15.07.15.25.14-.19.44.15.15.1.29-.2h.3l.14-.23.44.24.15.06.15-.27.44.38.14-.48.15.21L294,116l.29.34.14.16.3-.2.44.25.14-.16.3.15.44-.2.14-.39.15.12.15-.11.29.09.15-.07.14-.42.15.37.44-1,.44,1,.14-.39.15,0,.15-.41.14,0,.59.85.44-.19.15.07.29.46.15.07.14-.06.15.37.29-.29H301l.44.32.14-.19.15.31.29-.21.44-.17.15.19.29-.12.15-.11.15.21.29-.16.15.1.14-.13h.3l.14-.29.15.11.44-.31.15.17.29-.24.14,0,.15-.49.29.22.44.31h.44l.44.43.44.19.15.11.15-.45.29.15.15-.31.29.15.29.06.15.07.14-.17.3.17.14-.08.15.43.15-.24.14.3.44-.35.15.18.15-.32.14.29.15,0,.15.17.29-.32.15.23.14-.18.15.21.15,0,.29-.22.29.06.15-.11.14.24.15-.19.15.13.29-.19.15.19.14-.21.15.33.15-.39.14.2.44-.27.15.2.44-.12.29.1.15.15.15-.13.14.21.15-.12.14,0,.15.2.59-.12.14.08.15-.21.15.06.14-.11.3.2.29-.17.15-.18.29.11.15-.14.44-1.48.44,1.19.14-.13.15.27.14-.54.15.11.29.52.15.21.15-.09.29.15.29-.27.3.38.73-.75.15.51.14,0,.3-.38.43.17.3-.14.14.11.15-.15.15.15.14-.18.15.06.29-.2.15,0,.15-.23.29.23.29-.27.15-.31h.15l.14-.37.15.58.15-.31.14,0,.15-.42.15.5.14-.38.15.27.29-.26.44-.57.15.35.44-.48.29-.18.15.11.29-.59.15.12.14-.12.15.09.29-.63.44.18.15,0,.15-.75.14.53.29-.36.15,0,.15-.19h.14l.15-.5.15.65.14-.14.15.18.44-1.3.15,0,.14.21.15-.35.15.68.14-.17.15.18.29.89.15-.41.59,1.34.14,0,.15-.33.44.81.14-.22.15.47.15-.19.14,0,.15-.25.15.39.14,0,.3-.35.29.53.15-.21.14.18.3-.32.29.38.15-.26.14.05.15-.35h.14l.3-.37.29.28.29.21.3-.37.29-.39.15-.06.44.64.14-.18.15.55.15-.32.29.79.15-.49.14.61.59.53.29.38h.15l.14.14.3-.45.29.53.29-.41.15.21.15-.13.14.07.15.24.15-.17.14.07.15-.07.15.24.14-.41H345l.15-.25.58.68h.15l.14-.15.44.28.15.32.15-.12.14.22.15-.15.29.3.15.17.15-.17.14.17.15-.13.15.12.14-.22.3.21.14-.2.59.18.14-.22.15.14.29-.08.3.11.29,0,.29-.22.3.13.29-.56.29-.19.15.39.29,0,.3.27.14-.24.15.3.15-.07.29.25h.44l.29-.43.44.34.15-.13.44.23.14-.31.44.37.44,0,.59.06.15-.13.14.19.44-.17.15-.07.14.21.3,0,.14.18L358,117l.15.2h0"/></g></g><g id="line2d_35" data-name="line2d 35"><g class="cls-5"><path class="cls-8" d="M23.45,68.94l.3.31.14,0,.15.44.15-.39h.14l.15-.11.29.56.15-.22.29.1.15-.12.14.14.15-.15.29,0,.3-.48.14.85.15-.35.15.15.14.63.15-.27.15-.72.14.33.15-.06.15-.33.14.21.15-.14.15.71.14-.07.15-.69.15-.08.14.51.15-.19.15.65.14-.55.29,0,.15.41.15-.68.14.07.15.61.15-.14.14-.61.44.23.59-.11.15.44.14-.71.44.4.3-.22.14,0,.15.4.15-.13.14-.62.29.37.15-.13.15.48.29.15.29-.41.15.17.15.5.14-.76.15.3.15-.28.29.42.15-.25.14,0,.15.2.15-.42.44.71.14-.21.15.12.14-.11.3.15.14-.1.15.54.15-.51.14.52.15-.26.15.39.14-.16.15.09.29-.16.3.76.14-.32.15.08.15.37.14-.26.15.58.15-.57.14,0,.15.13.15-.31.29.38.14.17.15-.42.15,0,.14.22.15-1.34.29,0,.3,1.74.44.69.14,0,.3.39.14-.31.15,0,.29-.26.3.76.29-.11.15.27.14-.53.29.67.15-.27.15.28.14-.51.15.51.15-.5.29.49.15-.12.29.17.29.42L46,73l.15.51.14-.76.15.74.15,0,.29-.42.15.52.29-.55.15.08.14.25.15-.05.29.26.15-.2.14.32.3-.65.14.28.15-.09.15-.46.14.47.3-.4.14.29.15,0,.15-.71.44.84.14-.61.15.2L51,72.4l.29.34.15-.72.15.53.58-.5h.15l.15-.29.14.11.15-.54.15-.08.14.1L53.2,71l.29.57.3-.79.29-.51.15.6.14-.41.15.1.29-.34.15.21.29-1.16.15.26.14-.1.15-.66.15.46.14,0,.15-.64.15.15.14-.44.15.06.15-.37.14.69.3-1.64.14.72.15-.9.15,0,.14-1.64.15,0,.15-.54.58-7.32.44-13.71.29-14.87.15-.34.15.46.14,3.26.74,36.24.14,1.07.15-.08.15.17.29,1.23.15-.29.14.65.15,0,.44.47.14,0,.44,1,.15.19.15,0,.14.29.15-.1.15.31.14,0,.3.56.14-.16.15.19.15,0,.14.47.3,0,.14.38.15-.4.29,1,.15-.31.29.36.15-.21.29.32.15,0,.14-.17.15.51.15-.05.14.12.15-.12.15.25.14-.18.3.57.14.27.15-.36.29.26.15.44.44-.49.15.27.44.18.14-.23.15.25.14,0,.15-.19.15.27.14,0,.15-.15.15.06.29.39.15,0,.14.23.15,0,.29-.47.15.55.15-.44.14.18.15-.33.15.45.14-.07.44.5.15-.68.14.48.15.09.44-.07.15,0,.14.29.15-.36.15,0,.14.23.3-.1.14-.33.3.4.14-.41.15.08.29-.23.15-.28.29-2.07.15-.39.29-2.4.44,5.41.29.69.15-.48.29.7.15,0,.29-.57.3.42.14-.22.15.28.15-.22h.14l.15-.35.15.19.58-1.55.15-.86.29.08.44.9.15,1.22.14.11.15.41.15-.13.14.38.59-.34.15.21.58-.5.3-.45.14.2.15.7.15-.09.14.34h.15l.15.11.14-.12.29.2.15-.42.15.23.29-.25.15.58.14-.55.3-.27.29-.28L86.46,77l.3-2.29.14.82.3,2.87.14.49.15,0,.15.18.14-.31.15.28h.14l.15.14.29-.37.15.07.15.42.14-.42.15.09.15-.27.14.36.15-.2.15.19.14-.06.44.12.15-.2.29.38.44-.26.44.25.15-.24.29.37.15-.56.29.43.29.15.15-.25.29.23.15-.32.29.1.15,0,.29-.34.15-.1.29.52.15-.2h.15l.14.26.15-.53.15.35.14-.26.15.3.29-.14.15.29h.29l.29-.29.3-.09.14.12.15-.15.29.08.15,0,.15.07.14-.23.44.47.3-.5.29.51.14-.37.3,0,.14.18.74-.74.44-2,.29-1.54.29-.72.15.21.15-.35.44,3,.29,0,.44,1.44.44-.42.14.32.15-.69.15.19.14-.08.3.71.29.14.15-.35.29.46.15-.39h.14l.44.41.15-.43.15.3.44-.16.14.43.29-.43.15.21.15,0,.29-.21.15.31.14-.43.15.08.29-.19.3.33.44-.34.14.24L109,78l.15.1.29-.45.15.27h.14l.15-.14.15-.66.14-.08.59-1.68.14-.77h.15l.15-.38.58,2.25.88,1.42.44.13.44-.23.15.22.14-.52.15.23.44-1.45.15-.59.14.07.3,1.38.29.45.59-1.56.44-2.58.58,3.52.3.37.14-.43.29.39.15-.15.15-.54.14.54.3-.22.14.43.15-.87.29.35.15-.51.15.06.14-.15.15.36.29-.57.15.31.29-.94.3-.09.14.45.15-.33.15.25.14-.22.15.08.14-.64.15.15.15-1,.29.78.15-.15.29-.6.44-3.36.44-5.41.29-.67.15.65.29-.94.15,0,.15-.95.14-.12.29,1.69.15,1.17.59,8,.14.48.15,0,.29-1.52.15,1.2.15.16.29,1.42.15.14.14-.79.44,1.33.15-.15.29.67.15.08.15.4.14-.09.15,0,.14-.1.15.17.15-.08.14-.22.15,0,.15.54.29-.08L130,78l.15-.27.15.09.29.67.29-.17H131l.59.46.14,0,.3.18.14-.15.15.15.29-.21.15.17.29-.12.29.48.74-.77.14.65.15-.38.29.4.15-.23.59.46.14.08.29-.06.15.38.15-.44.29.33.15-.21h.14l.3.25.14-.27.3.43.14-.34.3.16.14-.17h.15l.15.3.14,0,.15-.25.15.26.14-.08.15-.21.15.33.14,0,.15-.32.14.22.15-.25h.44l.15.46.29-.62.29,0,.15.23.29-.28.15.32h.15l.14.2.15-.15.29.17.3-.23.14-.13.15.57.29-.45.29,0,.15.39.15-.48.14.28.15-.35.15,0,.14-.15.3-.82.58-3.24.15-.21.15,2,.14.06.3.86.14-.21.59-3,.15,1.56.29-1.34.14-.3.15-.88.15.72.29,3L148,78l.14,1.17.15.2.44-.25.29.72.3,0,.14-.21.3.22.14,0,.15-.19.15.16.29-.31.29.45.29-.41.15.33.15-.43.14.36.15-.17.15,0,.14-.22.15.2.88,0,.15.17.29-.32.15.26.14-.53.15,0L154,79l.43.41.15-.2.15.05.14-.14.15.41.29.1.15-.13.29.3.3-.28.14.24.15-.5.15.28.14-.39.3.31.14,0,.15-.22.15.42.29-.23.15-.12.43-1.63.15-1.07.29,0,.44-2.56.15.12.29,1.54.15.32.29-.21.15-.9.15-.1.29,2.38.15.23.29,1.13.15-.11.14.31.29,0,.15.2.15.41.29,0,.15.55.14-.4h.15l.44-.76.15.36h.14l.3.35.14,0,.15.2.29,0,.3.32.14-.31.15.41.15-.37h.14l.15-.25.29,0,.15.35.14-.09.15,0,.29-.44.15-.29.15.06.14-.34.15.12.15.39.14-.43h.15l.44-.71.29.61.15.26.15.5.29-.25.15.19.29-.31.14.21.3-.69.29-1.62.15-1.82.29-.24.15.18.58,2.25.15,1,.15.12.58,1.1.15-.13.44.49.15-.22.14.12.15-.31.14.08.15-.31.15,0,.29-.46.15-.34.14.42.3-.29.14.08.3-.59.14-.17.15-.46.29.13.15-1,.15-.21.14-.88.15-.11.29,2.24.15-.24.29,1.9.15-.16.58.34.44-.28.15-.64.29-.32.15.62.15-.22.14.37.15-.24.15.13.44-.38.14-.39.15.39.44-.61.29.13.15.53.44-.79.14.16.15-.22.15.39.14,0,.3.63.14-.44.15.18,1-1.33.14-.79.15.32.29-.75.15.34.44-.8.14-.64.15-.11.59-1.49.14-.23.3-1.55.14.66.15-.53.15.06.29.2.15.87.14-.21.15-.49.15.47.14-.53.15.45.14-.69.15,0,.29-.66.3-1.63.14.22.3-1.85.14.18.3-1,.29-2.2.15.24.29,2.64.59,5,.14.75.15,0,.15.72.14-.68.15.22.29,0,.15-.35.14.59.44-.25.15.46.29.26.44,1.35.3-.29.14.52.15-.07.15.19.14-.31.3.36.14,0,.3-.46.14,0,.15-.29.14,0,.15.29.59-1.49.44-1.55.14-.26.15,1.12.15.23.14-.26L197,73l.15.52.29-1.11.29-2.46.44,3.84.15.48.29,2.49.59.54.14-.19.15.16.44-.67.29.72h.15l.15-.23.14.21.15-.09.15.15.14-.23.3.1.14.14.15-.06.15-.37.14.38.15,0,.29.14.29-.19.15-.53.15.2.44-.53.29.61.15-.4.14.11.15-.31.29.3.15-.56.15,0,.14-.31.3.26.14-.6.44,1.33.29-.18.15.11.15-.74.14-.15.3-1.52.14-.11.44,1,.15-.17.15.73.14.13.44.75.15,0,.29-1.06.15.83.15-.29.29.78.15-.19.14.46.15,0,.14.1.3.66.14-.59.15-.12.15.37.44-.16.14.32.15,0,.15.26.14-.3.15.3.15-.16.14-.44.15.2.15.44.14-.27.15,0,.44-.76,1.17-5.59h.15l1,5.82.15.22.15.76.14-.13.15.13.15.49.14-.32.44-.06.15.24.14-.15.15.11.15.28.14-.09.15-.46.15.09.29,0,.15.42.29-.33.15-.19.44.45.14-.09.44.55.15-.33.15.47.14-.19.44.23.29,0,.15.21.15-.17.14.12.15-.26.15.25.29-.17.15-.1.14-.36.15.38.15-.35.14.06.15-.24.15.14.14.37.15,0,.15.24.14-.22.15.33.15-.2.29.44.44-.46.58,0,.15.31.15-.07.29-.48.15.17.44-.13.14-.2.15.25h.29l.15.18.15-.33.29.49.15-.18.29.15.29.36.29-.71.15.14.29-.29.15.39.15-.07.14.2.3,0,.14.37.15,0,.15-.15.14-.37.44-2,.15.22.15-.32.14,1h.15l.29.41.44.86.59.56.29-.1.29.22.15-.18.15.08.14-.09.3-.59.14,0,.15.42.15-.35.29.44.15,0,.14.08.3.28.43-.11.44,0,.3-.61.14.4.15-.16.15.39.29,0h.29l.44.34.3-.3.29.16.15-.35.29.29.44-.18.29.29.15-.42.14,0,.15.36.15-.39h.44l.14.3.15-.21.73.11.15-.43.29.41.15-.07.15-.33.29.4.14-.52.3.21.44.37.14-.27.44.19.3-.44.14.32.15-.32.15.21.44-.12.14.09.3-.44.44.88.14-.62.15.17.14-.08.15.18.15-.22h.29l.15-.42.14.35.44-.19.15.51.15-.3.29.26.15.45.29-.16.15.29.29-.35.44.16.14,0,.15-.16.29,0,.15.29.29-.28.3.1.14.08.15.25.15-.38.14.21.15,0,.15-.23.14.28.15-.33h.15l.58-1.24.3-1.1.14-.24.29-1.2.15-.61.15.28.14-.48.15.18.29-.45.44-.29.44,1.64.15.2.73,2.17.15.25.15.68.14-.18.15.39h.15l.14.37.29,0,.15,0,.15.23.29-.09.15-.12.73.18.44-.25.15.1.29-.17.15,0,.14-.22.3.08.14-.06.29.5.15,0,.15-.28.14.21.15-.23.29.13L262,80l.15.14.29-.51.29.94.44-.17.15,0,.15.38.14-.17.3.28.44-.39h.14l.15.18.44-.35.14.24.15-.53h.15l.29-.75h.29l.3.79.14.11.15-.18.73,1,.15-.38.29.51.44-.54.15.22.29-.16.15.15.14-.5.3.15.58-.4.15-.29.73.69.44-.19.15.28h.15l.29.24.15-.19.73.1.14-.09.3.35.14-.41.3.22.14.12.15.28.59.14.14.11.44-.2.15.23.29-.13.15.18.29-.17.15,0,.14-.23.15.22.15-.27.14.11.15-.09.15-.45.14,0,.3-.76.29,0,.15.61.29.23.29-.26.15.59.15-.07.14-.25.15.26.15,0,.14-.21.29.34.3-.15.14,0,.15-.46.15,0,.14-.22.3.34.14.07.3.38.14-.12.59.4.15.2.14-.07.3.21.14-.06.44.15.15,0,.44-.37.29.32.29-.4.15.15.44-.4.15,0,.14.17.15-.1.15.13.44-.11.14.07.15.29.15-.17.14,0,.15-.19.29.11.15-.12.14-.4.15.31.29-.11.3-.14.14.06.3-.38.14-.06.15.25.15-.32.44.63.14-.13.59.23.15,0,.14.26.29-.15.15.32.15-.39.73.46.15-.23.14.13.15-.31.44.55.15-.29.14.16.15-.31.15.2.29-.05.15-.28.14.22.15-.12.15.15.29-.25.14.4.15-.14.15,0,.14-.15.3.41.14-.2.15.22.44-.32.44-.65.15.09.14-.3.44.34.3-.23.14.52.15-.08.15.33.14-.33.15.11.14-.15.59.14.44-.14.44.34.15-.07.29.19.15,0,.29.36.15.08.14-.13.3.11.14-.19.15,0,.29-.11.44.21.15-.29.29.19.29,0,.15-.17.15.25h.14l.15.19.15-.39.44-.08.14-.2h.15l.15-.31.14.26.15-.14.15.38.14-.25.15.06.29-.24h.15l.29.38.29-.25.15-.07.15.12.44-.25.14.27.3-.47.14.29.3.08.14-.26.15.11.44-.25.15.09.14.38.15-.29.44.28.14.27.44-.14.15.19.15-.26.14,0,.3.25.14-.42.15.31.44.06.15-.1L312,82l.29-.1.15.09.14-.07.15.12.29-.2.15.14.15-.27.14.36.15-.11.29.11.3-.18.14-.28h.15l.29-.43.15.33.29-.13.15.33.15-.17.14.25.15-.14.15.06.14.36.15-.28.58.06.15.07.73-.26.15-.25.15.09.29-.06.15.27.14,0,.15.1.15-.25.14.15.15-.26.15.36.29-.28.44.18.14-.15.15.19.15-.08.14.37.15-.4.29.19.15,0,.15-.17.14.07.15-.2.29.22.15-.24.15.16.14,0,.15.17.15-.13.14.06.44-.21.44.22.29-.42.3,0,.14-.3.15.11.15-.1.29.31.29-.4.3.1.14.27.3-.67.14.29.15-.12.15.17.29-.46.29.21.15-.7.14.23.15-.09.29.06.3-.32.14,0,.15-.09.15-.38.14.33.15-.47.29.24.15-.24.15.07.14-.4.3.24.14-.42.15.08.29-.22.15.07.15-.23.14-.44.15.44.44-.67.14.16.3-.31.14-.31.15.38h.15l.14-.22.15-.5.15.36.44-1.64.14.13.15-.27.29,1,.15-.13.88,1.76.14.61.15-.2.15,0,.29.64.15-.46.29.68.15-.44.29.38.15-.37.29.32.15-.1.14.36.15-.37.15.16.14.45.3-.17.29.46.29-.35.15.26.14-.47.3.62.14-.29.15.27.15-.33h.14l.15-.13.44-1.24.44-.5.15.35.14,0,.44,1.21.15-.15.29.77.44.64.15.24.14-.1.3.52.14-.36.3.36.14-.1.15,0,.15-.07.14.29.15,0,.15-.19.44.24.14-.14.15.12.29,0,.3.09.14-.21.15.21.14-.47.15.34.15-.12.29.41.15-.16.14.1.15-.13.15,0,.44.31.14,0,.15.14L348,82l.14.2.15-.18.29.13h.3l.14,0,.15.27.29-.21.29.08.15-.12.29.16.3-.17.29.35.59-.35.14.24.15,0,.15-.15.14,0,.15.31.29-.22.44.14.15-.18.14.17.15-.14.15.07.14-.22.3.14.14.17.3-.24.14.21.15-.18.15.13.29-.17.15.29.14-.12.3.09.14,0,.15.14.73-.23.15.19.14-.16.15.11.44-.23.15.21.14-.21.15.28.15-.32h0"/></g></g><g id="patch_3" data-name="patch 3"><path class="cls-9" d="M23.41,158.22V22.32"/></g><g id="patch_4" data-name="patch 4"><path class="cls-9" d="M23.41,158.22h334.8"/></g><g id="text_9" data-name="text 9"><path id="DejaVuSans-48" d="M167.05,7.57h1.18v3.59h4.3V7.57h1.18v8.75h-1.18V12.15h-4.3v4.17h-1.18Z"/><path id="DejaVuSans-69-2" data-name="DejaVuSans-69" d="M176,9.76h1.08v6.56H176Zm0-2.56h1.08V8.57H176Z"/><path id="DejaVuSans-67-2" data-name="DejaVuSans-67" d="M183.68,13a3,3,0,0,0-.49-1.82,1.74,1.74,0,0,0-2.7,0A2.94,2.94,0,0,0,180,13a2.91,2.91,0,0,0,.49,1.81,1.73,1.73,0,0,0,2.7,0A3,3,0,0,0,183.68,13Zm1.07,2.54A3.61,3.61,0,0,1,184,18a3,3,0,0,1-2.28.81,6,6,0,0,1-1.07-.08,5.44,5.44,0,0,1-1-.26v-1a4.31,4.31,0,0,0,.94.38,3.73,3.73,0,0,0,.94.12,2.09,2.09,0,0,0,1.59-.55,2.36,2.36,0,0,0,.53-1.67v-.54a2.25,2.25,0,0,1-.86.87,2.57,2.57,0,0,1-1.25.29,2.37,2.37,0,0,1-1.94-.92,3.74,3.74,0,0,1-.74-2.44,3.74,3.74,0,0,1,.74-2.44,2.37,2.37,0,0,1,1.94-.92,2.57,2.57,0,0,1,1.25.28,2.32,2.32,0,0,1,.86.87v-1h1.07Z"/><path id="DejaVuSans-68" d="M192.43,12.36v4h-1.08V12.39A2.24,2.24,0,0,0,191,11a1.3,1.3,0,0,0-1.09-.46,1.78,1.78,0,0,0-1.38.55,2.16,2.16,0,0,0-.5,1.52v3.71h-1.09V7.2H188v3.58a2.66,2.66,0,0,1,.91-.89,2.49,2.49,0,0,1,1.21-.29,2.09,2.09,0,0,1,1.71.7A3.12,3.12,0,0,1,192.43,12.36Z"/><path id="DejaVuSans-2d" d="M194,12.55h3.15v1H194Z"/><path id="DejaVuSans-4d" d="M199,7.57h1.76L203,13.52l2.25-5.95H207v8.75h-1.15V8.64l-2.26,6h-1.19l-2.25-6v7.68H199Z"/><path id="DejaVuSans-67-3" data-name="DejaVuSans-67" d="M213.58,13a3,3,0,0,0-.48-1.82,1.63,1.63,0,0,0-1.36-.64,1.61,1.61,0,0,0-1.35.64,3,3,0,0,0-.48,1.82,3,3,0,0,0,.48,1.81,1.59,1.59,0,0,0,1.35.65,1.61,1.61,0,0,0,1.36-.65A3,3,0,0,0,213.58,13Zm1.08,2.54a3.66,3.66,0,0,1-.74,2.5,3,3,0,0,1-2.28.81,6.23,6.23,0,0,1-1.08-.08,5.34,5.34,0,0,1-1-.26v-1a4.05,4.05,0,0,0,.93.38,3.81,3.81,0,0,0,.95.12,2.08,2.08,0,0,0,1.58-.55,2.31,2.31,0,0,0,.53-1.67v-.54a2.23,2.23,0,0,1-.85.87,2.59,2.59,0,0,1-1.25.29,2.39,2.39,0,0,1-1.95-.92,3.8,3.8,0,0,1-.74-2.44,3.8,3.8,0,0,1,.74-2.44,2.39,2.39,0,0,1,1.95-.92,2.59,2.59,0,0,1,1.25.28,2.29,2.29,0,0,1,.85.87v-1h1.08Z"/></g></g></g></g><g id="Phases"><g id="LDH"><path class="cls-10" d="M57.75,21.2v2.54h2.94V21.2h.79v6.07h-.79V24.42H57.75v2.85H57V21.2Z"/><path class="cls-10" d="M123,56.19v2.54H126V56.19h.79v6.07H126V59.41H123v2.85h-.79V56.19Z"/><path class="cls-10" d="M188.49,57.73v2.54h2.94V57.73h.79V63.8h-.79V61h-2.94V63.8h-.78V57.73Z"/><path class="cls-10" d="M212.46,64.18v2.54h2.94V64.18h.79v6.07h-.79V67.4h-2.94v2.85h-.78V64.18Z"/><path class="cls-10" d="M332.31,68v2.54h2.93V68H336v6.07h-.79V71.27h-2.93v2.84h-.79V68Z"/><path class="cls-10" d="M339.18,71.38v2.54h2.93V71.38h.79v6.07h-.79V74.6h-2.93v2.85h-.79V71.38Z"/></g><g id="Sodium_Aluminum_PHosphate" data-name="Sodium Aluminum PHosphate"><path class="cls-11" d="M108.86,70.64V64.2h2.43a6,6,0,0,1,1,.06,1.86,1.86,0,0,1,.79.3,1.59,1.59,0,0,1,.52.62,2.07,2.07,0,0,1-.33,2.27,2.51,2.51,0,0,1-1.89.57h-1.65v2.62Zm.85-3.38h1.67a1.73,1.73,0,0,0,1.17-.31,1.09,1.09,0,0,0,.35-.86,1.13,1.13,0,0,0-.21-.69.88.88,0,0,0-.54-.38,3.38,3.38,0,0,0-.79-.06h-1.65Z"/><path class="cls-11" d="M182.06,71.81V65.37h2.43a6,6,0,0,1,1,.06,1.91,1.91,0,0,1,.8.3,1.58,1.58,0,0,1,.51.62,2.09,2.09,0,0,1-.32,2.27,2.51,2.51,0,0,1-1.89.57h-1.66v2.62Zm.85-3.38h1.67a1.73,1.73,0,0,0,1.17-.31,1.09,1.09,0,0,0,.35-.86,1.25,1.25,0,0,0-.2-.7,1,1,0,0,0-.54-.38,4.54,4.54,0,0,0-.8-.05h-1.65Z"/></g><g id="TSP"><path class="cls-11" d="M168,89V83.33h-2.12v-.76H171v.76h-2.13V89Z"/><g id="Layer_2" data-name="Layer 2"><line x1="170.69" y1="86.5" x2="173.34" y2="87.98"/><line class="cls-12" x1="170.69" y1="86.5" x2="172.35" y2="87.43"/><path class="cls-11" d="M173.34,88a5.62,5.62,0,0,0-1.83,0l.71-.62.16-.94A5.53,5.53,0,0,0,173.34,88Z"/></g><path class="cls-11" d="M105.89,98.34V92.66h-2.12V91.9h5.11v.76h-2.13v5.68Z"/></g></g><g id="Age_Lables" data-name="Age Lables"><path class="cls-13" d="M323,141.86h-.79v-5a4,4,0,0,1-.75.54,5.72,5.72,0,0,1-.83.41V137a4.75,4.75,0,0,0,1.16-.76,3,3,0,0,0,.7-.86H323Z"/><path class="cls-13" d="M324.9,139.92v-.79h2.43v.79Z"/><path class="cls-13" d="M331.23,141.86v-.59a1.44,1.44,0,0,1-1.3.69,1.85,1.85,0,0,1-1-.3,2.2,2.2,0,0,1-.73-.86,3,3,0,0,1-.25-1.27,3.42,3.42,0,0,1,.23-1.27,1.85,1.85,0,0,1,.7-.87,1.89,1.89,0,0,1,1-.31,1.54,1.54,0,0,1,.75.18,1.64,1.64,0,0,1,.54.47v-2.31H332v6.44Zm-2.5-2.33a2,2,0,0,0,.38,1.34,1.13,1.13,0,0,0,1.77,0,2,2,0,0,0,.37-1.3,2.23,2.23,0,0,0-.37-1.4,1.14,1.14,0,0,0-.91-.45,1.1,1.1,0,0,0-.89.43A2.17,2.17,0,0,0,328.73,139.53Z"/><path class="cls-13" d="M336.25,141.28a2.84,2.84,0,0,1-.84.53,2.49,2.49,0,0,1-.87.15,1.71,1.71,0,0,1-1.19-.37,1.25,1.25,0,0,1-.41-1,1.23,1.23,0,0,1,.16-.63,1.25,1.25,0,0,1,.4-.45,1.85,1.85,0,0,1,.57-.26,6.31,6.31,0,0,1,.71-.12,8,8,0,0,0,1.41-.27v-.21A.87.87,0,0,0,336,138a1.31,1.31,0,0,0-.9-.27,1.36,1.36,0,0,0-.83.2,1.2,1.2,0,0,0-.39.69l-.77-.11a1.9,1.9,0,0,1,.34-.8,1.57,1.57,0,0,1,.7-.47,3.14,3.14,0,0,1,1.06-.17,2.63,2.63,0,0,1,1,.15,1.28,1.28,0,0,1,.55.35,1.23,1.23,0,0,1,.25.54,5.29,5.29,0,0,1,0,.73v1.05a10.14,10.14,0,0,0,.05,1.4,1.71,1.71,0,0,0,.2.56h-.83A2,2,0,0,1,336.25,141.28Zm-.06-1.76a6.3,6.3,0,0,1-1.29.29,2.93,2.93,0,0,0-.69.16.75.75,0,0,0-.32.26.7.7,0,0,0-.11.38.66.66,0,0,0,.24.52,1,1,0,0,0,.7.21,1.58,1.58,0,0,0,.82-.2,1.18,1.18,0,0,0,.52-.54,1.87,1.87,0,0,0,.13-.8Z"/><path class="cls-13" d="M338.18,143.65l-.09-.74a1.65,1.65,0,0,0,.45.07.89.89,0,0,0,.43-.09.64.64,0,0,0,.25-.24,3.68,3.68,0,0,0,.25-.59.93.93,0,0,1,.07-.19l-1.77-4.68h.85l1,2.7c.13.35.24.71.34,1.08.09-.36.2-.71.32-1.06l1-2.72H342l-1.77,4.75a8.92,8.92,0,0,1-.45,1.06,1.55,1.55,0,0,1-.48.57,1.15,1.15,0,0,1-.65.18A1.48,1.48,0,0,1,338.18,143.65Z"/><path class="cls-14" d="M324.14,107.94v.76h-4.26a1.3,1.3,0,0,1,.09-.55,2.91,2.91,0,0,1,.52-.86,8.61,8.61,0,0,1,1-1A9,9,0,0,0,323,105a1.66,1.66,0,0,0,.37-1,1.07,1.07,0,0,0-.34-.79,1.2,1.2,0,0,0-.88-.33,1.23,1.23,0,0,0-.91.35,1.28,1.28,0,0,0-.35,1l-.81-.09a1.93,1.93,0,0,1,.63-1.38,2.12,2.12,0,0,1,1.46-.48,2.05,2.05,0,0,1,1.47.51,1.71,1.71,0,0,1,.54,1.28,1.85,1.85,0,0,1-.16.76,3,3,0,0,1-.52.79,15.85,15.85,0,0,1-1.22,1.13c-.48.4-.78.67-.92.81a2.6,2.6,0,0,0-.33.43Z"/><path class="cls-14" d="M326.2,105.2a1.55,1.55,0,0,1-.73-.51,1.4,1.4,0,0,1-.23-.8,1.54,1.54,0,0,1,.5-1.18,1.89,1.89,0,0,1,1.35-.48,1.85,1.85,0,0,1,1.35.49,1.56,1.56,0,0,1,.52,1.19,1.29,1.29,0,0,1-.24.78,1.44,1.44,0,0,1-.71.51,1.68,1.68,0,0,1,.9.63,1.7,1.7,0,0,1,.31,1,1.86,1.86,0,0,1-.58,1.39,2.14,2.14,0,0,1-1.54.56,2.11,2.11,0,0,1-1.54-.57,1.86,1.86,0,0,1-.58-1.41,1.68,1.68,0,0,1,.32-1A1.63,1.63,0,0,1,326.2,105.2Zm-.41,1.64a1.36,1.36,0,0,0,.16.65,1.08,1.08,0,0,0,.48.49,1.36,1.36,0,0,0,.68.18,1.26,1.26,0,0,0,1.3-1.29,1.26,1.26,0,0,0-.38-1,1.29,1.29,0,0,0-.95-.37,1.26,1.26,0,0,0-1.29,1.29Zm.25-3a1,1,0,0,0,.3.75,1.06,1.06,0,0,0,.76.29,1,1,0,0,0,.75-.29.92.92,0,0,0,.3-.7,1,1,0,0,0-.31-.73,1,1,0,0,0-.75-.3,1.05,1.05,0,0,0-.75.29A.92.92,0,0,0,326,103.86Z"/><path class="cls-14" d="M329.9,106.76V106h2.43v.79Z"/><path class="cls-14" d="M336.24,108.7v-.59a1.47,1.47,0,0,1-1.31.69,1.84,1.84,0,0,1-1-.3,2,2,0,0,1-.73-.86,3,3,0,0,1-.26-1.27,3.23,3.23,0,0,1,.24-1.27,1.78,1.78,0,0,1,.69-.87,1.92,1.92,0,0,1,1-.3,1.66,1.66,0,0,1,.75.17,1.51,1.51,0,0,1,.53.47v-2.31H337v6.44Zm-2.5-2.33a2,2,0,0,0,.37,1.34,1.14,1.14,0,0,0,.9.44,1.13,1.13,0,0,0,.88-.42,2,2,0,0,0,.36-1.3,2.17,2.17,0,0,0-.37-1.4,1.14,1.14,0,0,0-.91-.45,1.09,1.09,0,0,0-.88.43A2.11,2.11,0,0,0,333.74,106.37Z"/><path class="cls-14" d="M341.26,108.12a2.87,2.87,0,0,1-.85.53,2.49,2.49,0,0,1-.87.15,1.69,1.69,0,0,1-1.18-.37,1.22,1.22,0,0,1-.41-1,1.33,1.33,0,0,1,.15-.63,1.28,1.28,0,0,1,.41-.45,1.85,1.85,0,0,1,.57-.26,6.05,6.05,0,0,1,.7-.12,8,8,0,0,0,1.41-.27c0-.11,0-.18,0-.21a.87.87,0,0,0-.23-.68,1.31,1.31,0,0,0-.9-.27,1.39,1.39,0,0,0-.82.2,1.21,1.21,0,0,0-.4.69l-.77-.11a1.9,1.9,0,0,1,.35-.8,1.52,1.52,0,0,1,.7-.47,3.11,3.11,0,0,1,1.06-.16,2.69,2.69,0,0,1,1,.14,1.28,1.28,0,0,1,.55.35,1.22,1.22,0,0,1,.24.54,4,4,0,0,1,0,.73v1a12.19,12.19,0,0,0,.05,1.4,2,2,0,0,0,.2.56h-.82A1.51,1.51,0,0,1,341.26,108.12Zm-.07-1.76a6.71,6.71,0,0,1-1.29.3,2.79,2.79,0,0,0-.69.15.72.72,0,0,0-.31.26.7.7,0,0,0-.11.38.66.66,0,0,0,.24.52,1,1,0,0,0,.7.21,1.55,1.55,0,0,0,.81-.2,1.25,1.25,0,0,0,.53-.54,2,2,0,0,0,.12-.79Z"/><path class="cls-14" d="M343.18,110.5l-.08-.75a1.6,1.6,0,0,0,.45.07,1,1,0,0,0,.42-.08.78.78,0,0,0,.26-.25,4,4,0,0,0,.24-.59s0-.11.07-.19L342.77,104h.85l1,2.7c.13.35.24.71.34,1.09a9.48,9.48,0,0,1,.33-1.07l1-2.72h.79l-1.78,4.75c-.19.51-.34.86-.44,1.06a1.47,1.47,0,0,1-.49.57,1.13,1.13,0,0,1-.65.18A1.72,1.72,0,0,1,343.18,110.5Z"/><path class="cls-14" d="M347.4,107.31l.78-.13a1.09,1.09,0,0,0,.37.72,1.26,1.26,0,0,0,.84.25,1.21,1.21,0,0,0,.81-.22.66.66,0,0,0,.27-.52.47.47,0,0,0-.24-.42,3.56,3.56,0,0,0-.81-.27,7.17,7.17,0,0,1-1.2-.38,1.11,1.11,0,0,1-.51-.44,1.19,1.19,0,0,1,0-1.21,1.26,1.26,0,0,1,.39-.44,1.56,1.56,0,0,1,.5-.23,2.48,2.48,0,0,1,.68-.09,2.86,2.86,0,0,1,1,.15,1.37,1.37,0,0,1,.61.43,1.69,1.69,0,0,1,.27.73l-.77.1a.85.85,0,0,0-.31-.56,1.06,1.06,0,0,0-.71-.2,1.32,1.32,0,0,0-.78.18.53.53,0,0,0-.23.42.44.44,0,0,0,.1.28.72.72,0,0,0,.3.21l.7.2a8.77,8.77,0,0,1,1.17.37,1.18,1.18,0,0,1,.52.41,1.14,1.14,0,0,1,.19.68,1.34,1.34,0,0,1-.23.74,1.51,1.51,0,0,1-.67.54,2.38,2.38,0,0,1-1,.19,2.21,2.21,0,0,1-1.39-.37A1.79,1.79,0,0,1,347.4,107.31Z"/><path d="M322.52,62.66V61.11h-2.8v-.72l2.94-4.18h.65v4.18h.87v.72h-.87v1.55Zm0-2.27V57.48l-2,2.91Z"/><path d="M325,57.06V56.3h4.17v.61A8.89,8.89,0,0,0,328,58.65a11,11,0,0,0-.93,2.23,8.56,8.56,0,0,0-.31,1.78h-.81a8,8,0,0,1,.3-1.84,9.47,9.47,0,0,1,.82-2.08,8.63,8.63,0,0,1,1.14-1.68Z"/><path d="M330,59.48a5.78,5.78,0,0,1,.24-1.84,2.23,2.23,0,0,1,.7-1.07,1.73,1.73,0,0,1,1.16-.38,1.88,1.88,0,0,1,.91.21,1.78,1.78,0,0,1,.65.6,3.26,3.26,0,0,1,.4,1,6.17,6.17,0,0,1,.14,1.52,5.83,5.83,0,0,1-.23,1.83,2.31,2.31,0,0,1-.7,1.08,2,2,0,0,1-2.63-.29A4.29,4.29,0,0,1,330,59.48Zm.82,0a4,4,0,0,0,.37,2.11,1.08,1.08,0,0,0,.91.53,1.1,1.1,0,0,0,.92-.53,4,4,0,0,0,.37-2.11,4,4,0,0,0-.37-2.11,1.12,1.12,0,0,0-.93-.53,1,1,0,0,0-.87.46A4.16,4.16,0,0,0,330.81,59.48Z"/><path d="M334.91,60.72v-.79h2.43v.79Z"/><path d="M341.24,62.66v-.59a1.44,1.44,0,0,1-1.3.69,1.81,1.81,0,0,1-1-.31,2,2,0,0,1-.72-.86,3,3,0,0,1-.26-1.26,3.42,3.42,0,0,1,.23-1.27,1.85,1.85,0,0,1,.7-.87,1.82,1.82,0,0,1,1-.31,1.56,1.56,0,0,1,1.29.65V56.21H342v6.45Zm-2.5-2.33a2.06,2.06,0,0,0,.38,1.34,1.15,1.15,0,0,0,.89.44,1.11,1.11,0,0,0,.88-.42,1.94,1.94,0,0,0,.37-1.3,2.21,2.21,0,0,0-.37-1.4,1.14,1.14,0,0,0-.91-.45,1.08,1.08,0,0,0-.88.43A2.11,2.11,0,0,0,338.74,60.33Z"/><path d="M346.27,62.08a3,3,0,0,1-.85.53,2.49,2.49,0,0,1-.87.15,1.67,1.67,0,0,1-1.18-.37,1.31,1.31,0,0,1-.26-1.59,1.3,1.3,0,0,1,.41-.46,1.83,1.83,0,0,1,.57-.25,3.51,3.51,0,0,1,.7-.12,7,7,0,0,0,1.41-.28v-.2a.87.87,0,0,0-.22-.68,1.31,1.31,0,0,0-.9-.27,1.43,1.43,0,0,0-.83.19,1.29,1.29,0,0,0-.39.7l-.77-.11a1.79,1.79,0,0,1,.35-.8,1.54,1.54,0,0,1,.69-.47,3.14,3.14,0,0,1,1.06-.17,2.85,2.85,0,0,1,1,.14,1.31,1.31,0,0,1,.55.36,1.23,1.23,0,0,1,.25.54,4,4,0,0,1,0,.73V60.7a12.19,12.19,0,0,0,.05,1.4,1.71,1.71,0,0,0,.2.56h-.83A1.7,1.7,0,0,1,346.27,62.08Zm-.07-1.77a5.6,5.6,0,0,1-1.29.3,2.93,2.93,0,0,0-.69.16.67.67,0,0,0-.31.26.62.62,0,0,0-.11.37.66.66,0,0,0,.24.53,1,1,0,0,0,.7.21,1.57,1.57,0,0,0,.81-.2,1.15,1.15,0,0,0,.52-.55,1.79,1.79,0,0,0,.13-.79Z"/><path d="M348.19,64.45l-.09-.74a1.72,1.72,0,0,0,.46.07.87.87,0,0,0,.42-.09.85.85,0,0,0,.26-.24,4,4,0,0,0,.24-.59,1.6,1.6,0,0,1,.07-.19L347.78,58h.85l1,2.7c.13.35.24.7.34,1.08a10,10,0,0,1,.33-1.06l1-2.72h.79l-1.77,4.75a7.91,7.91,0,0,1-.45,1,1.59,1.59,0,0,1-.48.58,1.15,1.15,0,0,1-.65.18A1.48,1.48,0,0,1,348.19,64.45Z"/><path d="M352.41,61.26l.78-.12a1.14,1.14,0,0,0,.37.72,1.26,1.26,0,0,0,.84.25,1.24,1.24,0,0,0,.81-.22.68.68,0,0,0,.26-.52.48.48,0,0,0-.23-.42,3.56,3.56,0,0,0-.81-.27,7.72,7.72,0,0,1-1.21-.38,1.25,1.25,0,0,1-.51-.45,1.18,1.18,0,0,1-.17-.62,1.27,1.27,0,0,1,.14-.58,1.38,1.38,0,0,1,.39-.44,1.62,1.62,0,0,1,.51-.23,2.48,2.48,0,0,1,.68-.1,2.75,2.75,0,0,1,1,.16,1.35,1.35,0,0,1,.62.43,1.69,1.69,0,0,1,.27.72l-.77.11a.85.85,0,0,0-.31-.56,1.09,1.09,0,0,0-.71-.21,1.28,1.28,0,0,0-.78.18.52.52,0,0,0-.23.43.44.44,0,0,0,.09.27.66.66,0,0,0,.31.21l.69.21c.56.15,1,.27,1.18.36a1.28,1.28,0,0,1,.52.42,1.21,1.21,0,0,1,.19.68,1.28,1.28,0,0,1-.24.74,1.49,1.49,0,0,1-.66.54,2.4,2.4,0,0,1-1,.19,2.14,2.14,0,0,1-1.38-.38A1.74,1.74,0,0,1,352.41,61.26Z"/></g></svg>