<svg xmlns="http://www.w3.org/2000/svg" xmlns:xlink="http://www.w3.org/1999/xlink" width="365.41" height="192.94" viewBox="0 0 365.41 192.94"><defs><style>.cls-1,.cls-6,.cls-7,.cls-8{fill:none;}.cls-2{fill:#fff;}.cls-3,.cls-4,.cls-8{stroke:#000;}.cls-3,.cls-4,.cls-6,.cls-7{stroke-linejoin:round;}.cls-3,.cls-8{stroke-width:0.8px;}.cls-4{stroke-width:0.6px;}.cls-5{clip-path:url(#clip-path);}.cls-6{stroke:#4db758;}.cls-6,.cls-7,.cls-8{stroke-linecap:square;}.cls-7{stroke:#145092;}.cls-9{fill:#8d026a;}.cls-10{fill:#478d02;}.cls-11{fill:#145092;}.cls-12{fill:#4db758;}</style><clipPath id="clip-path"><rect class="cls-1" x="23.41" y="22.32" width="334.8" height="135.9"/></clipPath></defs><g id="Layer_1" data-name="Layer 1"><g id="figure_1" data-name="figure 1"><g id="patch_1" data-name="patch 1"><path class="cls-2" d="M0,192.94H365.41V0H0Z"/></g><g id="axes_1" data-name="axes 1"><g id="patch_2" data-name="patch 2"><path class="cls-2" d="M23.41,158.22h334.8V22.32H23.41Z"/></g><g id="matplotlib.axis_1" data-name="matplotlib.axis 1"><g id="xtick_1" data-name="xtick 1"><g id="line2d_1" data-name="line2d 1"><path id="m3a9fc99c2d" class="cls-3" d="M51.31,158.22v3.5"/></g><g id="text_1" data-name="text 1"><path id="DejaVuSans-31" d="M47.21,170.63H48.5v-4.45l-1.4.28v-.71l1.39-.29h.79v5.17h1.29v.67H47.21Z"/><path id="DejaVuSans-30" d="M53.85,166a1,1,0,0,0-.91.6,5.41,5.41,0,0,0,0,3.61,1,1,0,0,0,1.83,0,5.41,5.41,0,0,0,0-3.61A1,1,0,0,0,53.85,166Zm0-.62a1.68,1.68,0,0,1,1.5.78,4,4,0,0,1,.52,2.25,4,4,0,0,1-.52,2.25,1.84,1.84,0,0,1-3,0,4,4,0,0,1-.52-2.25,4,4,0,0,1,.52-2.25A1.67,1.67,0,0,1,53.85,165.36Z"/></g></g><g id="xtick_2" data-name="xtick 2"><g id="line2d_2" data-name="line2d 2"><path id="m3a9fc99c2d-2" data-name="m3a9fc99c2d" class="cls-3" d="M107.11,158.22v3.5"/></g><g id="text_2" data-name="text 2"><path id="DejaVuSans-32" d="M103.56,170.63h2.75v.67h-3.7v-.67l1.22-1.24c.52-.53.84-.86,1-1a3.47,3.47,0,0,0,.52-.72,1.27,1.27,0,0,0,.16-.58.94.94,0,0,0-.33-.75,1.21,1.21,0,0,0-.85-.3,2.77,2.77,0,0,0-.78.13,5.06,5.06,0,0,0-.88.39v-.79a5.1,5.1,0,0,1,.89-.29,3,3,0,0,1,.75-.1,2.19,2.19,0,0,1,1.45.45,1.5,1.5,0,0,1,.54,1.21,1.81,1.81,0,0,1-.14.69,3.23,3.23,0,0,1-.49.75c-.06.08-.27.3-.62.66Z"/><path id="DejaVuSans-30-2" data-name="DejaVuSans-30" d="M109.65,166a1,1,0,0,0-.91.6,5.41,5.41,0,0,0,0,3.61,1,1,0,0,0,1.83,0,5.41,5.41,0,0,0,0-3.61A1,1,0,0,0,109.65,166Zm0-.62a1.68,1.68,0,0,1,1.5.78,4,4,0,0,1,.52,2.25,4,4,0,0,1-.52,2.25,1.84,1.84,0,0,1-3,0,4,4,0,0,1-.52-2.25,4,4,0,0,1,.52-2.25A1.67,1.67,0,0,1,109.65,165.36Z"/></g></g><g id="xtick_3" data-name="xtick 3"><g id="line2d_3" data-name="line2d 3"><path id="m3a9fc99c2d-3" data-name="m3a9fc99c2d" class="cls-3" d="M162.91,158.22v3.5"/></g><g id="text_3" data-name="text 3"><path id="DejaVuSans-33" d="M161.07,168.15a1.5,1.5,0,0,1,.88.51,1.43,1.43,0,0,1,.32.94,1.63,1.63,0,0,1-.59,1.34,2.7,2.7,0,0,1-1.69.47,4,4,0,0,1-.76-.07,5.35,5.35,0,0,1-.8-.22v-.76a2.86,2.86,0,0,0,.72.29,3.61,3.61,0,0,0,.82.1,1.83,1.83,0,0,0,1.13-.3,1,1,0,0,0,.38-.85,1,1,0,0,0-.36-.8,1.51,1.51,0,0,0-1-.3h-.68v-.64h.71a1.43,1.43,0,0,0,.89-.24.8.8,0,0,0,.31-.67.82.82,0,0,0-.32-.69,1.49,1.49,0,0,0-.91-.24,4.48,4.48,0,0,0-.7.07,6.21,6.21,0,0,0-.81.22v-.7a8.18,8.18,0,0,1,.84-.19,4.91,4.91,0,0,1,.74-.06,2.26,2.26,0,0,1,1.42.41,1.32,1.32,0,0,1,.52,1.1,1.26,1.26,0,0,1-.27.82A1.45,1.45,0,0,1,161.07,168.15Z"/><path id="DejaVuSans-30-3" data-name="DejaVuSans-30" d="M165.45,166a1,1,0,0,0-.91.6,5.41,5.41,0,0,0,0,3.61,1,1,0,0,0,1.83,0,5.41,5.41,0,0,0,0-3.61A1,1,0,0,0,165.45,166Zm0-.62a1.68,1.68,0,0,1,1.5.78,4,4,0,0,1,.52,2.25,4,4,0,0,1-.52,2.25,1.84,1.84,0,0,1-3,0,4,4,0,0,1-.52-2.25,4,4,0,0,1,.52-2.25A1.67,1.67,0,0,1,165.45,165.36Z"/></g></g><g id="xtick_4" data-name="xtick 4"><g id="line2d_4" data-name="line2d 4"><path id="m3a9fc99c2d-4" data-name="m3a9fc99c2d" class="cls-3" d="M218.71,158.22v3.5"/></g><g id="text_4" data-name="text 4"><path id="DejaVuSans-34" d="M216.64,166.15l-2,3.12h2Zm-.2-.69h1v3.81h.83v.65h-.83v1.38h-.79v-1.38H214v-.76Z"/><path id="DejaVuSans-30-4" data-name="DejaVuSans-30" d="M221.25,166a1,1,0,0,0-.91.6,5.41,5.41,0,0,0,0,3.61,1,1,0,0,0,1.83,0,5.41,5.41,0,0,0,0-3.61A1,1,0,0,0,221.25,166Zm0-.62a1.68,1.68,0,0,1,1.5.78,4,4,0,0,1,.52,2.25,4,4,0,0,1-.52,2.25,1.84,1.84,0,0,1-3,0,4,4,0,0,1-.52-2.25,4,4,0,0,1,.52-2.25A1.67,1.67,0,0,1,221.25,165.36Z"/></g></g><g id="xtick_5" data-name="xtick 5"><g id="line2d_5" data-name="line2d 5"><path id="m3a9fc99c2d-5" data-name="m3a9fc99c2d" class="cls-3" d="M274.51,158.22v3.5"/></g><g id="text_5" data-name="text 5"><path id="DejaVuSans-35" d="M270.28,165.46h3.1v.67H271v1.43a1.89,1.89,0,0,1,.34-.09,2,2,0,0,1,.34,0,2.17,2.17,0,0,1,1.55.54,1.88,1.88,0,0,1,.57,1.45,1.86,1.86,0,0,1-.58,1.46,2.43,2.43,0,0,1-1.66.52,4.93,4.93,0,0,1-.75-.06,6.3,6.3,0,0,1-.78-.19v-.79a3.16,3.16,0,0,0,.72.28,3.44,3.44,0,0,0,.8.1,1.54,1.54,0,0,0,1.07-.36,1.39,1.39,0,0,0,0-1.93,1.53,1.53,0,0,0-1.07-.35,2.7,2.7,0,0,0-.63.07,3.5,3.5,0,0,0-.65.21Z"/><path id="DejaVuSans-30-5" data-name="DejaVuSans-30" d="M277.05,166a1,1,0,0,0-.91.6,5.41,5.41,0,0,0,0,3.61,1,1,0,0,0,1.83,0,5.41,5.41,0,0,0,0-3.61A1,1,0,0,0,277.05,166Zm0-.62a1.68,1.68,0,0,1,1.5.78,4,4,0,0,1,.52,2.25,4,4,0,0,1-.52,2.25,1.84,1.84,0,0,1-3,0,4,4,0,0,1-.52-2.25,4,4,0,0,1,.52-2.25A1.67,1.67,0,0,1,277.05,165.36Z"/></g></g><g id="xtick_6" data-name="xtick 6"><g id="line2d_6" data-name="line2d 6"><path id="m3a9fc99c2d-6" data-name="m3a9fc99c2d" class="cls-3" d="M330.31,158.22v3.5"/></g><g id="text_6" data-name="text 6"><path id="DejaVuSans-36" d="M327.86,168.07a1.06,1.06,0,0,0-.84.36,1.75,1.75,0,0,0,0,2,1.07,1.07,0,0,0,.84.37,1,1,0,0,0,.84-.37,1.75,1.75,0,0,0,0-2A1,1,0,0,0,327.86,168.07Zm1.57-2.48v.72a3.57,3.57,0,0,0-.6-.21,2.47,2.47,0,0,0-.6-.08,1.45,1.45,0,0,0-1.2.53,2.86,2.86,0,0,0-.47,1.59,1.69,1.69,0,0,1,.58-.52,1.65,1.65,0,0,1,.77-.18,1.83,1.83,0,0,1,1.39.54,2.27,2.27,0,0,1,0,2.89,1.91,1.91,0,0,1-1.42.54,1.79,1.79,0,0,1-1.55-.77,4,4,0,0,1-.53-2.25,3.44,3.44,0,0,1,.66-2.21,2.11,2.11,0,0,1,1.76-.82,3.21,3.21,0,0,1,.6.06A6,6,0,0,1,329.43,165.59Z"/><path id="DejaVuSans-30-6" data-name="DejaVuSans-30" d="M332.85,166a1,1,0,0,0-.91.6,5.41,5.41,0,0,0,0,3.61,1,1,0,0,0,1.83,0,5.41,5.41,0,0,0,0-3.61A1,1,0,0,0,332.85,166Zm0-.62a1.68,1.68,0,0,1,1.5.78,4,4,0,0,1,.52,2.25,4,4,0,0,1-.52,2.25,1.84,1.84,0,0,1-3,0,4,4,0,0,1-.52-2.25,4,4,0,0,1,.52-2.25A1.67,1.67,0,0,1,332.85,165.36Z"/></g></g><g id="xtick_7" data-name="xtick 7"><g id="line2d_7" data-name="line2d 7"><path id="m4245149b59" class="cls-4" d="M23.41,158.22v2"/></g></g><g id="xtick_8" data-name="xtick 8"><g id="line2d_8" data-name="line2d 8"><path id="m4245149b59-2" data-name="m4245149b59" class="cls-4" d="M37.36,158.22v2"/></g></g><g id="xtick_9" data-name="xtick 9"><g id="line2d_9" data-name="line2d 9"><path id="m4245149b59-3" data-name="m4245149b59" class="cls-4" d="M65.26,158.22v2"/></g></g><g id="xtick_10" data-name="xtick 10"><g id="line2d_10" data-name="line2d 10"><path id="m4245149b59-4" data-name="m4245149b59" class="cls-4" d="M79.21,158.22v2"/></g></g><g id="xtick_11" data-name="xtick 11"><g id="line2d_11" data-name="line2d 11"><path id="m4245149b59-5" data-name="m4245149b59" class="cls-4" d="M93.16,158.22v2"/></g></g><g id="xtick_12" data-name="xtick 12"><g id="line2d_12" data-name="line2d 12"><path id="m4245149b59-6" data-name="m4245149b59" class="cls-4" d="M121.06,158.22v2"/></g></g><g id="xtick_13" data-name="xtick 13"><g id="line2d_13" data-name="line2d 13"><path id="m4245149b59-7" data-name="m4245149b59" class="cls-4" d="M135,158.22v2"/></g></g><g id="xtick_14" data-name="xtick 14"><g id="line2d_14" data-name="line2d 14"><path id="m4245149b59-8" data-name="m4245149b59" class="cls-4" d="M149,158.22v2"/></g></g><g id="xtick_15" data-name="xtick 15"><g id="line2d_15" data-name="line2d 15"><path id="m4245149b59-9" data-name="m4245149b59" class="cls-4" d="M176.86,158.22v2"/></g></g><g id="xtick_16" data-name="xtick 16"><g id="line2d_16" data-name="line2d 16"><path id="m4245149b59-10" data-name="m4245149b59" class="cls-4" d="M190.81,158.22v2"/></g></g><g id="xtick_17" data-name="xtick 17"><g id="line2d_17" data-name="line2d 17"><path id="m4245149b59-11" data-name="m4245149b59" class="cls-4" d="M204.76,158.22v2"/></g></g><g id="xtick_18" data-name="xtick 18"><g id="line2d_18" data-name="line2d 18"><path id="m4245149b59-12" data-name="m4245149b59" class="cls-4" d="M232.66,158.22v2"/></g></g><g id="xtick_19" data-name="xtick 19"><g id="line2d_19" data-name="line2d 19"><path id="m4245149b59-13" data-name="m4245149b59" class="cls-4" d="M246.61,158.22v2"/></g></g><g id="xtick_20" data-name="xtick 20"><g id="line2d_20" data-name="line2d 20"><path id="m4245149b59-14" data-name="m4245149b59" class="cls-4" d="M260.56,158.22v2"/></g></g><g id="xtick_21" data-name="xtick 21"><g id="line2d_21" data-name="line2d 21"><path id="m4245149b59-15" data-name="m4245149b59" class="cls-4" d="M288.46,158.22v2"/></g></g><g id="xtick_22" data-name="xtick 22"><g id="line2d_22" data-name="line2d 22"><path id="m4245149b59-16" data-name="m4245149b59" class="cls-4" d="M302.41,158.22v2"/></g></g><g id="xtick_23" data-name="xtick 23"><g id="line2d_23" data-name="line2d 23"><path id="m4245149b59-17" data-name="m4245149b59" class="cls-4" d="M316.36,158.22v2"/></g></g><g id="xtick_24" data-name="xtick 24"><g id="line2d_24" data-name="line2d 24"><path id="m4245149b59-18" data-name="m4245149b59" class="cls-4" d="M344.26,158.22v2"/></g></g><g id="xtick_25" data-name="xtick 25"><g id="line2d_25" data-name="line2d 25"><path id="m4245149b59-19" data-name="m4245149b59" class="cls-4" d="M358.21,158.22v2"/></g></g><g id="text_7" data-name="text 7"><path id="DejaVuSans-32-2" data-name="DejaVuSans-32" d="M163.87,183.12H167v.75H162.8v-.75l1.38-1.4c.58-.59.94-1,1.09-1.14a4.33,4.33,0,0,0,.6-.81,1.47,1.47,0,0,0,.17-.65,1.1,1.1,0,0,0-.37-.85,1.37,1.37,0,0,0-1-.33,2.87,2.87,0,0,0-.88.14,5.21,5.21,0,0,0-1,.44v-.9a7.14,7.14,0,0,1,1-.32,4,4,0,0,1,.86-.11,2.42,2.42,0,0,1,1.62.51,1.67,1.67,0,0,1,.61,1.36,2,2,0,0,1-.15.77,4,4,0,0,1-.55.85l-.7.74Z"/><path id="DejaVuSans-3b8" d="M172,180.75h-2.8a4.62,4.62,0,0,0,.37,1.87,1.11,1.11,0,0,0,2.06,0A4.78,4.78,0,0,0,172,180.75Zm0-.75a5.64,5.64,0,0,0-.36-1.69,1.16,1.16,0,0,0-1-.69,1.12,1.12,0,0,0-1,.69,4.45,4.45,0,0,0-.36,1.69Zm-1.39-3a1.88,1.88,0,0,1,1.66.93,5.8,5.8,0,0,1,0,5.14,1.94,1.94,0,0,1-3.32,0,5.8,5.8,0,0,1,0-5.14A1.87,1.87,0,0,1,170.62,177Z"/><path id="DejaVuSans-20" d="M173.37,183.87"/><path id="DejaVuSans-28" d="M179,177a8.86,8.86,0,0,0-.87,2,7.08,7.08,0,0,0,0,4,8.74,8.74,0,0,0,.87,2h-.7a9.23,9.23,0,0,1-1-2,6.32,6.32,0,0,1-.32-2,6.2,6.2,0,0,1,.32-2,9.23,9.23,0,0,1,1-2Z"/><path id="DejaVuSans-64" d="M183.83,179.69V177h.81v6.84h-.81v-.74a1.67,1.67,0,0,1-.64.65,1.84,1.84,0,0,1-.94.22,1.77,1.77,0,0,1-1.45-.71,3.42,3.42,0,0,1,0-3.75,1.77,1.77,0,0,1,1.45-.71,2,2,0,0,1,.94.21A1.67,1.67,0,0,1,183.83,179.69Zm-2.75,1.72a2.38,2.38,0,0,0,.36,1.4,1.26,1.26,0,0,0,2,0,2.83,2.83,0,0,0,0-2.8,1.27,1.27,0,0,0-2,0A2.4,2.4,0,0,0,181.08,181.41Z"/><path id="DejaVuSans-65" d="M190.51,181.21v.39H186.8a1.83,1.83,0,0,0,.5,1.27,1.69,1.69,0,0,0,1.25.44,3.91,3.91,0,0,0,.91-.11,4,4,0,0,0,.87-.35v.77a4.7,4.7,0,0,1-.9.28,4.05,4.05,0,0,1-.92.1,2.52,2.52,0,0,1-1.87-.69,2.47,2.47,0,0,1-.69-1.85,2.7,2.7,0,0,1,.66-1.92,2.28,2.28,0,0,1,1.76-.71,2,2,0,0,1,1.57.64A2.52,2.52,0,0,1,190.51,181.21Zm-.8-.24a1.52,1.52,0,0,0-.38-1.06,1.25,1.25,0,0,0-1-.4,1.49,1.49,0,0,0-1.08.39,1.59,1.59,0,0,0-.47,1.07Z"/><path id="DejaVuSans-67" d="M195.08,181.35a2.24,2.24,0,0,0-.36-1.36,1.31,1.31,0,0,0-2,0,2.75,2.75,0,0,0,0,2.72,1.31,1.31,0,0,0,2,0A2.24,2.24,0,0,0,195.08,181.35Zm.81,1.91a2.71,2.71,0,0,1-.56,1.87,2.19,2.19,0,0,1-1.71.61,5.1,5.1,0,0,1-.8-.06,3.86,3.86,0,0,1-.74-.2v-.78a3.49,3.49,0,0,0,.71.28,2.74,2.74,0,0,0,.7.09,1.55,1.55,0,0,0,1.19-.41,1.75,1.75,0,0,0,.4-1.26V183a1.67,1.67,0,0,1-.64.65,1.84,1.84,0,0,1-.94.22,1.79,1.79,0,0,1-1.46-.69,3.32,3.32,0,0,1,0-3.66,1.79,1.79,0,0,1,1.46-.69,2,2,0,0,1,.94.21,1.74,1.74,0,0,1,.64.65V179h.81Z"/><path id="DejaVuSans-72" d="M200.41,179.7a1,1,0,0,0-.3-.11,1.34,1.34,0,0,0-.35,0,1.3,1.3,0,0,0-1.06.45,2,2,0,0,0-.36,1.28v2.59h-.82V179h.82v.76a1.61,1.61,0,0,1,.66-.66,2,2,0,0,1,1-.22h.19l.22,0Z"/><path id="DejaVuSans-65-2" data-name="DejaVuSans-65" d="M205.26,181.21v.39h-3.72a1.88,1.88,0,0,0,.51,1.27,1.69,1.69,0,0,0,1.25.44,3.82,3.82,0,0,0,.9-.11,3.6,3.6,0,0,0,.87-.35v.77a4.6,4.6,0,0,1-.89.28,4.08,4.08,0,0,1-.93.1,2.51,2.51,0,0,1-1.86-.69,2.47,2.47,0,0,1-.69-1.85,2.74,2.74,0,0,1,.65-1.92,2.29,2.29,0,0,1,1.76-.71,2,2,0,0,1,1.57.64A2.47,2.47,0,0,1,205.26,181.21Zm-.81-.24a1.52,1.52,0,0,0-.37-1.06,1.25,1.25,0,0,0-1-.4,1.49,1.49,0,0,0-1.08.39,1.59,1.59,0,0,0-.47,1.07Z"/><path id="DejaVuSans-65-3" data-name="DejaVuSans-65" d="M210.8,181.21v.39h-3.72a1.87,1.87,0,0,0,.5,1.27,1.7,1.7,0,0,0,1.26.44,3.82,3.82,0,0,0,.9-.11,4,4,0,0,0,.87-.35v.77a4.83,4.83,0,0,1-.89.28,4.2,4.2,0,0,1-.93.1,2.38,2.38,0,0,1-2.55-2.54,2.74,2.74,0,0,1,.65-1.92,2.29,2.29,0,0,1,1.76-.71,2,2,0,0,1,1.57.64A2.47,2.47,0,0,1,210.8,181.21ZM210,181a1.52,1.52,0,0,0-.37-1.06,1.25,1.25,0,0,0-1-.4,1.49,1.49,0,0,0-1.08.39,1.59,1.59,0,0,0-.47,1.07Z"/><path id="DejaVuSans-73" d="M215.26,179.09v.77a2.89,2.89,0,0,0-.71-.27,3.77,3.77,0,0,0-.76-.08,1.83,1.83,0,0,0-.91.18.61.61,0,0,0-.3.55.52.52,0,0,0,.22.45,2.77,2.77,0,0,0,.86.3l.28.06a2.79,2.79,0,0,1,1.23.52,1.24,1.24,0,0,1,.36.94,1.29,1.29,0,0,1-.54,1.09,2.54,2.54,0,0,1-1.5.4,4.74,4.74,0,0,1-.82-.08,6.62,6.62,0,0,1-.9-.23v-.84a3.75,3.75,0,0,0,.88.35,3.24,3.24,0,0,0,.86.12,1.66,1.66,0,0,0,.88-.2.62.62,0,0,0,.31-.55.6.6,0,0,0-.23-.5,2.6,2.6,0,0,0-1-.34l-.28-.07a2.17,2.17,0,0,1-1.09-.48,1.22,1.22,0,0,1-.33-.9,1.29,1.29,0,0,1,.49-1.07,2.29,2.29,0,0,1,1.4-.38,4.46,4.46,0,0,1,.84.07A3.12,3.12,0,0,1,215.26,179.09Z"/><path id="DejaVuSans-29" d="M216.69,177h.7a9.23,9.23,0,0,1,1,2,6.21,6.21,0,0,1,.33,2,6.34,6.34,0,0,1-.33,2,9.23,9.23,0,0,1-1,2h-.7a8.74,8.74,0,0,0,.87-2,7.08,7.08,0,0,0,0-4A8.86,8.86,0,0,0,216.69,177Z"/></g></g><g id="matplotlib.axis_2" data-name="matplotlib.axis 2"><g id="text_8" data-name="text 8"><path id="DejaVuSans-49" d="M7.48,109v-.89H14V109Z"/><path id="DejaVuSans-6e" d="M11.07,102.26h3v.81H11.09a1.68,1.68,0,0,0-1,.27,1,1,0,0,0-.35.82,1.31,1.31,0,0,0,.42,1,1.65,1.65,0,0,0,1.14.38H14v.81H9.12v-.81h.76a1.94,1.94,0,0,1-.66-.68A1.83,1.83,0,0,1,9,104a1.56,1.56,0,0,1,.52-1.28A2.39,2.39,0,0,1,11.07,102.26Z"/><path id="DejaVuSans-74" d="M7.72,99.85h1.4V98.18h.63v1.67h2.67a1.18,1.18,0,0,0,.77-.17.92.92,0,0,0,.17-.67v-.83H14V99a1.83,1.83,0,0,1-.35,1.29,1.75,1.75,0,0,1-1.27.36H9.75v.59H9.12v-.59H7.72Z"/><path id="DejaVuSans-65-4" data-name="DejaVuSans-65" d="M11.38,92.91h.39v3.72A1.88,1.88,0,0,0,13,96.12a1.72,1.72,0,0,0,.44-1.25,3.82,3.82,0,0,0-.11-.9A3.77,3.77,0,0,0,13,93.1h.77a5.73,5.73,0,0,1,.28.89,4.73,4.73,0,0,1,.1.93,2.38,2.38,0,0,1-2.54,2.55,2.74,2.74,0,0,1-1.92-.65A2.29,2.29,0,0,1,9,95.06a2,2,0,0,1,.64-1.57A2.46,2.46,0,0,1,11.38,92.91Zm-.24.81a1.52,1.52,0,0,0-1.06.37,1.25,1.25,0,0,0-.4,1,1.49,1.49,0,0,0,.39,1.08,1.59,1.59,0,0,0,1.07.47Z"/><path id="DejaVuSans-6e-2" data-name="DejaVuSans-6e" d="M11.07,87.49h3v.81H11.09a1.68,1.68,0,0,0-1,.27,1,1,0,0,0-.35.82,1.31,1.31,0,0,0,.42,1,1.65,1.65,0,0,0,1.14.38H14v.81H9.12V90.8h.76a1.94,1.94,0,0,1-.66-.68A1.83,1.83,0,0,1,9,89.21a1.56,1.56,0,0,1,.52-1.28A2.39,2.39,0,0,1,11.07,87.49Z"/><path id="DejaVuSans-73-2" data-name="DejaVuSans-73" d="M9.26,82.74H10a3,3,0,0,0-.35,1.48,1.78,1.78,0,0,0,.18.9.61.61,0,0,0,.55.3.51.51,0,0,0,.44-.21,2.65,2.65,0,0,0,.31-.87l.06-.28a2.63,2.63,0,0,1,.52-1.22,1.24,1.24,0,0,1,.94-.36,1.29,1.29,0,0,1,1.09.54,2.51,2.51,0,0,1,.4,1.49,5,5,0,0,1-.08.83,7.46,7.46,0,0,1-.23.9H13a3.82,3.82,0,0,0,.35-.89,3.13,3.13,0,0,0,.12-.86,1.6,1.6,0,0,0-.2-.87.61.61,0,0,0-.55-.31.58.58,0,0,0-.5.22,2.68,2.68,0,0,0-.34,1l-.07.28a2.13,2.13,0,0,1-.48,1.09,1.22,1.22,0,0,1-.9.33,1.26,1.26,0,0,1-1.07-.49A2.2,2.2,0,0,1,9,84.31a5.53,5.53,0,0,1,.06-.84A3.89,3.89,0,0,1,9.26,82.74Z"/><path id="DejaVuSans-69" d="M9.12,81.19v-.81H14v.81Zm-1.92,0v-.81h1v.81Z"/><path id="DejaVuSans-74-2" data-name="DejaVuSans-74" d="M7.72,77.89h1.4V76.22h.63v1.67h2.67a1.18,1.18,0,0,0,.77-.17.92.92,0,0,0,.17-.67v-.83H14v.83a1.87,1.87,0,0,1-.35,1.3,1.8,1.8,0,0,1-1.27.35H9.75v.59H9.12V78.7H7.72Z"/><path id="DejaVuSans-79" d="M14.5,73.11a2.92,2.92,0,0,1,1.14.67,1.33,1.33,0,0,1,.27.87v.65h-.68v-.48a.82.82,0,0,0-.15-.52,2.16,2.16,0,0,0-.75-.41L14,73.75l-4.84,2v-.86L13,73.34,9.12,71.81V71Z"/></g></g><g id="line2d_34" data-name="line2d 34"><g class="cls-5"><path class="cls-6" d="M23.45,112.22l.15.72.15-.1.14.15.15,1.48.15-.57.14-.09.3-.63.14-.08.3.57.14.82.15-1.52.14.13.59-2,.15-1.54.14.68.15-1,.15-2.47h.14l.3-2.18.44-3.06.14-.08.3-2.51.14,1.68.15-.52.15,2.07.14-1.12.15,2.39.15-1.46.14,1.41.15-1,.14.37.15,1.32.15-1,.14,1.68.15-1.73.29,2.35.3-2.27.14,1.38.3.66.14.58.15,1.16.15,0,.14-.73.15.79.15,0L32,107l.3,2.79.14-.23.15,1.19.15-.56.29,2.4.29-.89.15,1.83.14.13.15-.55.15.53.14,1.7.15-.56.44,1.81.15-1.47.14,1.45.15-.08.15.63.14-.26.15,1.78.15-.64.14.1.15,1.25.15-.31.14.25.29,1.74.3-1.34.14.57.3,1.9.14-.42.3,1.27.14-1.11.15.38.15,1.47.14-.24.15,1.06.15-1,.29,2.54.15-.4.14-1.26.3.76.14.08.59,1.59.14-.41.15.43.15-.41.14.07.3.74.14.43.15,1.31.15-1.32.14-.29.15.69.29-.67.44,1.49.15-.55.15.06.14.54.15.05.15-.23.14,1.65.15-.89.15-.21.14.18.15-.27.44.79.29-1.17.15.52.14,0,.15.33.15,1,.14-.11.15-.75.15.64.14-1,.3.3.14-.25.15.3.15-.31.14.22.15,1.75.15-1.68.14,1.09.15-1.19.15.31.29-.58.14.91.15-.66.15.28.14-.36.15.22.15-.77.29.49.15-1,.14.73.15-1.06.15,0,.29.45.29-1.86.3-1.72.14,1.3.59-2.77.14.28.15-.13.15,1.24.14-1.55.15,2.38L52,126l.14-.34.15,1,.29-1.06.15,1.4.15-.55.14.71.44.4.15-.3.15-.58.14.14.3-.8.14.12.15.59.15-.19.14-.56.15.21.14-.94.15,0,.15.47.14-.2.15.58.15-.66.14.06.15.66.15-1.3.29-.46.29.77.15-.37.15-1.1.14.87.3-.8.14.23.15,1.42.15-1.58.29.35.15-.67.14.36.15-.89.14.2.15-.54.15.68.14-.69.15.26.15-.2.14,1,.15-1.28.15.46.14,0,.3.16.14,0,.15-.7.59.91.14-.34.15.77.15.16.14,1.09.15-.75.14.56.15,1.18.15-1.47.14,1.83.15-.6.15,1.08.14.19.15.72.15-.2.29,1.16.44.77.15.66.14.08.3-.59.14.5.15,2.47.29-.48.15-.34.73,2,.15-.32.14.88.15-.21.15-.68.14.54.15,1.06.15,0,.14-.55.15.3.15.84.14.14.15,1,.15-.63.14.42.3-.37.14,1,.3-.18.14.36.15-.36.15.06.14.43.15-.76.14,1.28.15-.33.29.23.15-.17.15-.49.14,1.1.15-.57.15,1.13.14-1,.15.8.15-.09.14.06.3-.31.14.56.15-.31.15,0,.14.55.15-.9.15.87.29-1,.14.71.15-.27.15.09.14.24.15-.58.29.21.3.8.14.65.15-1.35.15,1.16.14-.33.15.18.15-.11.14-.43.15.28.15.55.14-.2.3.54.14-.38.15.33.15-.55.14.73.15-.58.14.83.44-1.09.15.74.15-.21.14-.71.15.54.15-.37h.14l.15-.41.15.36.44-1.06.29.6.29-.86.44-2.6.15.22.15-.41.14-2.14.15,1.17.29-2.11.15.83.14-.34.3,1,.14-.28.3.85.14,1.23.15-.78.15.31.14,1.19.15-1,.29,1.57.3,1.52.14-.3.15.41.15.05.44,1.89.29-1.67.29,2.12.15-.43.29-.2.15.39.14-.13.15.95.15-1.09L86,141l.3-.53.14.62.3-.1.44.31.29-.3.15-.39.29.76.14-.15.15.82.15-.68.14.2.15-.2.15.6.14-.62.15.37.15-.46.14.72.44-.81.44.68.15,1.35.29-1.46.15-.14.15.73.14-.79L91.3,143l.15-1,.14.27.15-.13.14-.43.15.72.15-.57.14.7.15-.14.15-.93.14,1,.15-.63.15.53.14-.75.15.5.15-.18.29.81.15-.66.29.29.15.5.44-.77.29.19.15-.8h.14l.15.93.29-.94.15,1,.14-1,.15.78.15-.57.14-.11.15.57.15-.3.14,1,.15-1.24.29.44.15-.15.15-.88.14.8.15-.55.15.1.14.44.44-.85.15.21.14-.13.3,1.12.29-.59.29-.8.3,1.84.14-.65.15.59.15-.67.14-.09.15-.29.15.09.14-.27.15,0,.15.4.14,0,.15-.41.15.76.14-1.12.15.07.15.94.14.21.15-1.12.14-.19.15.47.15-.37.29-.06.44,1.09.15-1.66.29,1.34.29-1.21.3.5.29-.36.15,0,.14-.32.15,0,.15.29.14,0,.15-1.28.44-.53.14.48.15-1.74.29-.16.3-.54.14.11.3.89.14-.11.15.34.15,1.18.29-.73.15,2,.29-.18.15.2.14-.35.15.8.15-.11.14.31.15-.13.15-.8.29.67.14-.15.15.65.29-.76.3.34.44-.63.14.29L112,140l.15.25.14-.39.15-.06.15.54.14-.37.3.68.14-.82.15-.07.15.87.29-.78.14,1,.3-.67.14.59.15-1.16.15.75.29-.48.29-.35.15-.62.15.24.14,1,.15.16.29-1.19.15.43.15-.53.14,1,.15-.86.15.12.14,0,.15-.5.15.07.14.63.15-.87.29.36.29.44.15-1.36.15,0,.14-.4.15.9.59-.78.14-1,.3,1,.29-.9.15-1.44.29,1.21.15.08.14-.24.15-1,.29-.21.15-.74.14.28.15-1,.29.71.3-1.33.14.62.59-1.27.15-.33.14.25.15-2.29.15.17.14-.35,1.47-7,.14.76.15-1.3.15.5.14,1.23.15,0,.15,1.15.29.41.15.82.14,1.59.15-.48.44,1.64.15,1,.14-1.09.3,1.95.14-.21.15,1.3.15-.76.14.26.29,1.41.15.17.15,1,.14-.36.15.1.15-.18.14.73.15-.52.15,1.61.14-1.09.15,1.45.15.31.14-1.16.15,1.76.15-.87.14.47.3-.1.14.17.15-.37.15.18.14.88.15-.07.29-.87.15,1.25.14-.09.15.07.15.7.14-.37.3.88.14-.5.15.33.15,0,.14.67.15.06.15.48.14-.72.44.85.15.39.15-.29.14.3.15-.58.15.14.14-.45.15.64.14,0L136,140l.29.84.3-.34.14.43.3-.91.14,1,.15-.84.29.06.15.82.15-.94.14.68.15.14.15-.25.14,0,.15-.4.15.09.14,1.2.3-1.47.14.1.15.51.14-.88.15,0,.15.82.29-.75.15-.54.14.58.15-.51h.15l.14.22.15-1.19.15.46.14-.11.15-.34.15.46.14-1,.15.61.29-1.93.15.72.15-.71.14.07.15-.35.15-1h.14l.29-1.65.15.08.15-1.93.14.27.15-.38.15-1.65.29,1.27.29,2.26.15-.18.73,4,.15,0,.15-.3.29,1.74.15-.4.29,1,.15-.63.14.45.15,0,.14.28.3-.23.14,1,.15-.44.15.55.14-.25.15-.57.15.54.14-.26.15.54.15-.53.14.41h.15l.15.38.14-.21.15-.47.15.78.14-.28.15,0,.15-.34.14,1.46.15-1.49.29.85.29-1.08.15,1.21.15-1.54.14.32.15.69.15-.81.29,1,.15-.07.14-1.34.15,1.16.15-.87L153,141l.15-.71.29-.06.15.25.14-.22.15.24.15-.93.14.3.15-.23.14.54.15,0,.15-.43.14.43.15-.68.15,0,.14.69.15-.64.15.14.14-.3.15-.76.15.79.29-.62.15-1,.14,1,.15.14.15-1.18.14.3h.15l.15-1.63.14-.24.15,1.53.15-1.55.14.19.15-.34.14.11.15.44.15-.69.44,0,.29.17.15-.89.14,1.33.3.39.14-.45.15.72.15.15.14-.23.15.1.15.28.14-.46.15.91.15-.91.14.12.15-.27.14,1.16.3-.4.14.34.15-1.45.15.38.14,1,.15-.66.15-.13.14-1.14.15,1.76.15-.43.29-2.26.15.85.14-.3.15.22.15-.08.14-.24.15-.48.15.58.14-.22.15.28.15,0,.14-.44.15-1.58.14-.12.15.8.29-1.75.15.8.15-.55h.14l.3-1.11.14.34.15-1.71.15.53.14-.05.15-.51.15-1.2.14,1.17.15-.18.15-.86.14.15h.15l.15.18.14,1.71.15-.78.15.3H169l.15,1.24.29-.61.15.35.14,1.41.3.08.29.56.15.06.14.61.15-.2.15-.42.29.91.29.84.15-.26.29.89.15.28.15-1,.14.89.15-1.08.29.76.15-.47.44,1.12.14-1,.15.62.15-.8.14,1.53.15-.54.15.59.14-.64.15-.13.15,1,.29-.16.15.11.14-.16.3.89.14-.86.3.77.29-.24.29.43.15.16.14-.44.15.47.15-.11.14-.36.15.12.15.68.14,1.34.15-.35.15,0,.14-.86.3.5.14-.48.15.49.29-.17.3.09.14.14.15.51.15-.94.14.53.15-1.08.14.9.15-.55.15.75.44-1.1.14.47.44-.71.15.28.15-.65.14.48.3-.55.29.17.15-.55.14.28.15-.06.15.3.14-.28.15.18.15.51.29-.91.14.71.3-.9.14-.07.15.65.15-.86.14,1.15.15-1.71.15,1.1.29-.7.15.33.29-.82.15,0,.14-.59.15.35.15-1.1.14.36.3-.15.14-.27.15-.58.14.16.15.64.29-.73.15-.13.15-.36.14,0,.15.1.15-.37.14.07.3-.62.14,1.06.3-1.65.14.9.15-.24.15,1.25.14-.59.15.73.15-.32.14.36.15-.06.15,1,.14,0,.29-1.05.15.9.15-.22.44,1.2.29-1.11.15,1.92.14.09.15-.65.29.83.15-.09.15,1.11.14-.63.44.42.44-.26.3.59.14-1,.44,1.74.15.55.14-.21.15-.45.15,1,.14-.85.15.73.15.1.14-.48.15.21.15-.43.44,1.24.14-1.38.15,1,.15-.29.14,0,.15-.75.15,1.15.14-.09.15-.42.29,1.21.15-1.2.14.08.15-.21.15,1.35.44-.78.44.71.14-.61.3.69.29-.71.15.76.14,0,.15-1,.29,1,.15-.49.15.69.14-.51.29.89.15-.85h.15l.14.19.15-.16.15.31.14-.27.15,0,.15.37.29-.67.15.54.14-.52.15,1,.15-.9.14.64.15-.55.15.86.14-.88.15.6.15-.67.14.13.15.62.15,0,.14.52.15-.82.14.53.15-.79.15-.11.14.5.15-.25.15.08.14-.37.15,0,.29.44.15-.27.15.08.14.35.15-.27.29,1,.15-.09.15-.09.14.05.15.58.15-.38.14.85.15-.85.29-.12.15-.11.14.92.15,0,.15-1.46.14.68.15-.25.15,1,.14-.22.15.45.15-.07.14-.55.15.09.15.51.29-.34.15.28.14-.17.15.55.15-.36.14.33.15-1.22.15.23.14,1.48.15-1.17.14.86.15-1.29.15.25.14.5.15-.21.15.46.14-.09.15.69.29-.9.15.13.15.72.14-.56.15.24h.15l.14-.15.15.13.15-.26h.14L216,143l.15.56.14.06.15-.57.15.73h.14l.15-.31.14.35.15-.28.15.53.14-.92.15.74.29-.35.15.63.15-.52.14.06.15.27.15-.21.14.45.15-.21.15-.49.14.25.44,0,.15.17.29-.53.15.46.15.07.29.56.14-1,.15.36.29-.42.15.5.15-.27.14-.52.15.69.15-1.27.29.9.29-.47.3-.77.14-.11.15.24.15-.27.14-1.14.15,1.94.15-.94.14.83.15-.39.14.68.15-.4.15,1.32.14-1.77.3,1.15.14-.51.15,0,.15.12.14.35.15-.13.15.14.14.33.3-.64.44.59.29-.31.29.7.15.56.29-1.2.15,1,.14-.39.15.06.15.2.14-.64.15,1.17.15-.19.14-.38.15.29.29.17.15.38.15-.27.14.33.3-.4.14.38.15,0,.15-.27.14,0,.15.53.15-1,.29.88.15-.3.14.24.15-.55.14.81.15-.5.15.18.14-.7.15.06.15,1.2.14-.69.15.44.15-.63.14.65.3-.85.29,1.11.15-.59.14.21.15,0,.15-.27.14.11.15-.12.15.08.14-.17.15.5.15-.3.29.8.14-.21.15.1.15-.13.29.08.15-.42.14.75.15-.07.29-.48.3.82.14-.17.3.44.14-.85.15,1.06.15-.21.14.36.15-.59.15.17.14-.2.15.3.14.82.3-.82.29.38.15-.28.14.32.15-.35.15.25.14-.72.3.72.14-.32.15.08.29.61.15-.7.15.8.14-.24.15.45.15-1.06.29,1.1.15-.12.14-.38.15.22.29-.18.15-.41.14.32.15-.17.29.3.3-.59.14.32.15.65.15-.58.44-.23.29.22.15-.62.29.78.15-.7.14-.08.15.35.15-.41.14.73.29-.45.3-.25.14-.67.3.58.14-.16.15.5h.15l.14.36.15-.3.15.08.14-.06.15-.33.15.54.14.06.15-.49.15.13.14-.31.15.33.15-.27.14.27.29-.49.15.18.15-.35.14.65.15-.45.15.61.14-.43.15.19.15-.47.14,1.12.15-.89.15-.13.14-.38.15.25.15.62h.14l.3-.84.14.63.15-.37.29.52.3-1,.14,0,.15.54.14-.51.15.14.15-.29.14.95.15-.58.15-.06.14.07.15-.49.15,1.32.29-1.42.15.91.14-.09.15.13L256,146l.15.19.15.39.58-.9.44.43.15,0,.14.43.15-.35.15.29.14-.18.44.2.15-.33.29.08.15-.93.29,1.61.15-.56.29.65.15-.45.15.26.14-.06.15.48.29-.85.15.94.14-.42.15.77.15-.54.14.64.3-.19.14-.44.15.36.15-.09.14.44.15-.19.15.19.14-1,.3,1.24.14-.46.15.49.15-.63.29.54.15-.21.14-.63.3.16.14.63.15.12.29-.17.29,0,.15-.23.29.63.15-.08.29-.4.44.67.15-.38.15.58.14-1,.15-.21.15.52.14-.27.15.95.15-.75.14.13.15-.19.15.85.14-.24.15.11.29-.34.29-.05.15.31.15-.32.29,0,.15.76.29-.61.15.88.14-.8.3.27.14-.46.15.5.15-.12.14.25.15-.46.15.16.14-.37.15.38.15-.22.14.15.15.88.14-1,.15-.16.29.45.15-.29.29.09.15,0,.15.72.14-.16.15-.46.29.63.3-.66.14-.05.15.11.15.63.29-.31.15-.54.29.24.14.46.3-.33.14.36.15,0,.15-.42.14.47.15-.69.15,1.07.44-.82.29.23.15.47.14-.83.3.37.14-.85.3.64.14-.44.15.76.15-.32.14,0,.44-.87.29.51.15-.58.15,1.06.14.1.44-1.05.15.88.29-.21.44.53.3-.75.14.14.15-.07.15.12.14-.19.15.51.15-1.05.29.46.14-.07.15.3.15-.86.14.33.15-.14.15.62h.14l.15.3.15,0,.14.31.15-.18.15-.54.29.85.15-.67h.14l.15.64.29.09.15-.68.15.23.14.64.15-.86.14.15.15.36.29-.45.3.15.14.31.15-.47.15.4.29-.3.29.48.15-.14.15-.78.29.37.15-.4.44.75.14-.26H290l.15.16.14-.68.29.67.15,0,.29-.52.15.1.29-.13.15.05.15-.58.14,0,.44.77.15-.6.44.41.15.74.14-.44.3.6.14-.49.15.33.29-.27.15.56.14.12.3-.26.14.2.15-.68.15.33.14.93.3-.61.14.38.15-.19.15.14.14-.31.15.75.15-1,.29.71.15-.32.29.38.15-.45.44.79.29-.36.14,0,.15-.42.15.75.14-.6h.15l.15.41.29-.43.15.6.14-.66.15.58.15-.52.14.07.15-.59.15.91.14-.22.15.16.15-.29.14.27.15,0,.15-.19.14.6.15-.62.14.25.15-.29.15.45.14-.13.15.05.15-.36.14.22.3-.51.14.77.15.17.15-.47.29.05.15-.28.14.63.15-.1.15-.36.58.48.15.54.44-.78.14,0,.15.09.15-.52.14.8.15-.4.15.31.29.1.15-.23.29.46.15-.8.29.6.15-.35.14.15.15-.08.15-.46.14,0,.15.26.15.71.29-.44.15.44.29-.84h.14l.44.54.15-.08.15-.47.14.36.15-.39.15.29.29-.41.29.6.3-.14.29-.51.15.09.14.51.15-.09.15-.42.14.29.44-.65.44.71.15-.23.14,0,.15-.34.15.07.14.73.15-.73.15.52.29-.66.15-.22.14.14.3-.36.14-.36.3.5.14-.59.15,0,.29.57.15-.28.14.11.3.52h.14l.15-.16.15.23.14-.42.44.65.3-.38.14.65.3-.45.14,0,.15.83.15-.81.14-.15.15.77.15-.36.14,0,.15.2.15-.08.14-.29.15.27.14-.51.15.44.15-.16.14.27.15-.19.15-.37.29.19.29-.36.15.2.15-.18.29.12.15-.29.14,0,.15.69.15-.12.14.1.15-.41.44.27.14-.1.15,0,.15.16.14-.22.15-1,.15,1,.14.05.15-.34.29.07.15.5.15-.44.14,0,.15.09.15.24.29-.86.29.33.15-.31.15.81.14-1.25.15.27.15-.08.14.23.15-.5.14.08.15.41.29-.36.15.5.29-.55.15-.53.15.74.14-.09.44-.9.15.59.29-1,.15.65.15-.53.29.68.15-.58.14,0,.15-.41.15,0,.14.25.15,0,.14.14.15-.45.15,0,.14-.38.3.07.14-.25.15-.58.44.32.59-1.09.14.88.15-1.08.15.48.14-.27.15.27.15-.22.29.75.15-.92.14.79.15-.3.14-.61.15.32.15,1,.14-.87.15.66.15-.07.29.73.15-.46.14.38h.15l.15.43.14.05.15.32L337,147l.29.83.15-.44.14,0,.15-.35.29.71.15-.48.44.44.14-.15.15.29.15-.18.14.06.15.21.15-.49.14,0,.15-.12.15.4.14-.08.15.17.15.49.14,0,.15-1.29.29.59.15-.15.15.53.14-.36.3,0,.43.53.15,0,.15.35.14-.2.15-.75.15,1,.29-.64.15.73.14.14.3-.27.88.89.29-.33.15.52.14-.12.15.06.15.28.14-.88.15.32.14-.16.15.33.15-.74.14.16.15.92.15-.18.14,0,.15-.27.15.45.44-.13.14.23.15-.6.15.33.14,0,.3.7.29-.36.15.41.29.06.14.29.15-.35.29.19.15-.17.15.16.14-.23.15.51.15-.41.29.4.15-.6.14.82.44-.7h.15l.15.54.14,0,.15-.43.15.53.14-.31.44.14.29.38.15,0,.15-.56.44.56.14-.09.3.22.14,0,.15.42.15,0,.14-.33.15.55.15-.84.14.52.15-.25.44.59.15.06.29-.76.15.73.29-.52.14.26.44.14.15.11.15-.19.14,0,.15-.62.15.64h0"/></g></g><g id="line2d_35" data-name="line2d 35"><g class="cls-5"><path class="cls-7" d="M23.45,50.08l.15-1.66.15,1.43.14,0,.15.73.15-.24.14-.92.15.67.29-1.23.15,1.86.15-2.32.14,1.26.44-2.85.15,1.38.29-1.2.29-3.6.15.19.29-2,.44-4.24.44-5.35.15.69.29-4.09.15.12.15-.12.29,2.62.15-.29.14-1.6.29,2.58.15-.28.15.32.14-.68.15-.06.15.85.14.16.3,1.51.14-.91.3,2.44.29.74.15.29.14,0,.15.6.44,3.68.15-2,.14,2.37.3,1,.14,2.1.15.43.14-1.53.15,1,.15,2.59.14-.08.3,1.55.14-.43.15.75.15.15.14.62.15,1.11.15-.18.14.09.15.76.15,1.43.14,0,.15.58.15-.86.29,2.73.15-.69.14.74h.15l.44,1.56.14.22.15,1.11.15-.52.14.47h.15l.15,1.65.14.09.15-.42.15,1,.14,0,.15.25.29.86.15-.19.15.89.14.11.15.27.29-.28.15.66.15,1.88.14-.84.59,1.43.14-1.34.3,1.4.29,0,.15.47.14-.16.15.13.15.42.14-.29.74,1.32.14.09.15-.11.29.51.15-.82.15.34.14,1.45L44,66.81l.29,1.26.15-.32.14-.73.15,1.19.15-1.07.29,1.76.15.1.14-1.16.15.61.15-.17.14-.94L46,68.75l.15-.28.29,0,.15-.62.14,1.24.15-.41.15-.75.14.65.3-.62.29.82.58-1.41.15-.16L49,68.61l.44-1.09.15-.35.14.1.15-.68.15.1.14-.4.15-1.36.15.37L50.56,64l.15.18.15-1.64L51,63.69l.15-2.62.44-1.8.14,2,.15-1,.15.65.14,2.81.15-.35.15.67.14-.78.44,3.17.15-1,.15.7.14.1.15-1,.29,1.48.3-.83.14,0,.15-.86.15.57.14-.07.15.17.14.47.15-.09.15-1.47.14.12.3,1.08.14-2,.3,1.71.14-.23.15-1,.15.41.14.84L57,63.75l.15.83.44-.82.14.84.15-1.49.15.49.14-.13.15-.55.15,1.22.14.23.15-.66.14.53.3-1.62.14.38.3-.87.14,1.21.15-1h.15l.14-.62.15,1.17.15-1.29.14.5.15-.54.15.06.14-.15.15-.4.15,0,.29,1.16.15-.29.14.6.15,1.4.14.29.15-1,.29,2,.15-.7L63,66l.14-.08.15,1.15.15-.52.29,0,.15,1.56.14-.85.3,2,.14.08.15,0,.15-.8L65.07,70l.29.57.15.74.15.13.14-.1.15.32.14.66.15-1,.29,1.32.15-.38.15,1.42.14-.8.15.07.15.28.14.87.15-.55.15,0,.14.51.3.12.14.64.3-.09.29.43.29-.64.15,1.39.15-.14.14-.39.15,1,.14,0,.15-.27.15-.55.14.31.15,0,.15.44.29,0,.15-.45.14.14L71.37,77l.15-.63L72,77l.14-.3.15.22.29-.42.15.23.15-1.42.14.26.15-.24.14.06.15-1.84.15,1.34.29-2.14.29.36.44,4,.15-.68.44,1.28.15-.55.14.69.15-.64.15.48.14-.28.3.66.44.6.29-.66.14-.2.15.7.15,0,.14-.79.15.74.15-.53.14.2.15-.41.15.25.29,0,.15-1,.14.86L79,76.39l.15.82.14.08.15-1.63.15.29.14,0,.44-1.29.15-1,.15.47.14-1.7.15-.14.14-1.38.15.18.29-2.36.15.33.15.78.14,0,.15.14.15.57.14-.44.15.38.29,2.46.15.26.15.76.14-.82.15,1.69.15.32.14,0,.15.42.15,1.75L84,75.94l.15,1.3.15-.17.29,1.44.14-1.92.15,1.32.15.19h.14l.15.26h.15l.14.38.15-.83.15.63H86l.15.84.15-.68.14.21.15-.38.15.23.14-.3.15,0,.15,1.17.14-.77.15.25.15-1.2.14.71.15-.8.29.44.15-.13.14,1.3.3-.09.14.25.15,0,.15-.23.14-.9.3-.23.14.92.15-.66.15-.1.29,1.5.15-.36.14.13.15.64H91l.14.18L91.3,80l.15,0,.14-.35.15.77L92,80l.29.35.15-.13.15-.35.14.12.15-.44.29,1.16.3-1,.14.88.44-.79.15.94.29-.6.3.14L95,81l.15-1.1.15.74.14-.45.15.36.14-.26.15-.76.15.76.14-1.15.15.17.15,1,.14-.8.15.65.15-1.09L97,80l.44-.88.15.25.15-.29.14.26.15-.86.15-.06.14.71.15-.62.44.27.14-.25.15.68.29-.38.15,0,.29.5.15-.75.15-.13.14.43.15-.15.15.93.14-1,.15.88.29-1,.15.32.15-.53L101.7,80l.15-.57.15.07.14-1.48.15,1.45.15-.33.14.15.15-.71.14.08.15-1,.15,1h.14l.15-.22.15.37.29-1,.15.89.14-.27.15.18.15.4.29-1.41.29,1.1.15-.94.15.32.14-.68.15,0L106,77l.15-.68.15-.08.14.15.15-1,.14.07.15-.68.15-1.76.14.31.15-.83.15.19.14-.85.15-.15.15.53.14-.53.59,4.24.15-.54.29,1.86.29.22.15.64.15-.51.29,1.11.29-.91.15-.23.14,1,.15,0,.15-.46.14.12.15-.22h.15l.14.43.15-.51.15.23L112,77l.15,1h.29l.15-.92.14.71.15-.85.29.7.15-1,.15.56.14-.23.15.42.14-.3.3.24.14.85.15-1,.29.36.15.27.29-.72.15.26.15-1.16.14,1,.3.11.14-.52.15.37.15-.1.14-.34.3.6.14-.35.15.07.15.34.14-1.11.44,1,.15-.41.29-.21.15-.14.14.38.15-1.29.15.65.14-.47.15.74.29-1.2.15.46.15-1.26.14.23.3-.73.29.89h.15l.44-1.45.14.56.15-.79.14,0,.15-.74.15.07.14.21.3-1.84.14.31h.15l.44-1.62.15-1.27.14,1.75.3-2.53h.14l.15-.53.15-1.65.14-.23.15-.65.15-1.5.14-.24.44-3.7.15-.2.29-1.7.15,0,.14-.46.15.88.15.18.29,3.65.15-.34.44,2.57.14-.07.15.88.29,3,.15-.3.15-.61.29,1.77.15-.6.29,1.77.29.09.15,1.9.14.06.15-1.56L129.4,71l.14-.13.15.08.15.83.14.15.15-.34.44.22.15.59.14-.92.15.71.15-2.54.14.83.44-2.35.15-.2.15.63.14,2.47.15-.38.14.59.3,2.37.14-.39.3,1.32.14-.63.15,1.4.15-.66.44,2.32.14-.08.15-1,.15.17.14.86.3.14.29.11.29.72.15-.27.29.55.15-.9.14.32.15.78.15-.65.14.27.15-.1.15-.34.14.37.15,0,.15-.18.29.54.15-.46.14-.09.3.39.14-.2.15.33.15-.39.29.7h.15l.43-.66.15-.69.15.46.29-.59.15.31.14-.2.15-.5.15.25.14-.33.15.18.15-.79.14.2.15-.13.15-.63.14.33.44-1.06.15.33.15-1.42.14,0,.15-.66.15,0,.29-1.86.14-.13.59-5.34.29-.59.15,1.06.15-1.31.73,6.69.15-.28.14.52.15,1.92.15-.26.44,2.34.14-.28h.3l.14,1,.29-.16.15.15.15.69.14-.08.15.48.15.08.14.37.15-.89.29.57.15.25.15-.69.14.68.15-.53.15.47.14.09.15-.08.44.69.15-1,.29.42.14-.49.15.68.15-.32.29.44.15-.72.14,1,.15-.9.15.49.14.1.3-1.2.14.64.15-.71.29.65.15-.69.15.8.14-.84.15.08.15-.5.14.74.15-.42.15.52.14,0,.15-.28.14.08.15.75.29-1,.15-.44.29.53.15-.46.15.73.14-1.2.15.86.15-.54h.14l.15.15.15-.49.14,1,.3-2.32.14.12.15-.73.15-.08.14-.49.15.43.29-1.35.15-.25.29-.89.15.24.14-.58.15.23.15-.53.14,1.23.15-.53.15.9.14,0,.44,1.22.15-.18.29.46.15-.37.15.42.14.9.15.16.15-1,.14.6.29-.22.15.58.29-.61.15.32.15-.41h.14l.3-.18.14.11.15-.29.15.45.44-.44.14-.49.15-1,.15.61.29-1.26.15,1.7.29-2.5.15.87.14-.39.15.44.14-1.34.15-.11.15.76.14-1.71.15-.37.29.34,1-4.87.15.37.14-.71.15.11.15-1.3.14,1.52.15-1,.15,1,.14-1,.3,1L169,65l.29,1.77.15-.34.15.52.29,1.77L170,69l.14.92.15-1.21.15,1,.29-.27.29,1,.15-.47.15.51.14,0,.15-.28.15.29.14-.29.15-1.37.15,1.13.14-.76.15.79.15-.17.14-.43.29,2,.15-.7.15.6.14-.1.15.9L173.8,71l.29,1.1.15,0,.14-.18.15.07.15-.81.14,1.12.15.24.15-.73.14.27.3-1.85.14.09.15-.14.15.17.14-1.28.15.9.14-.07.3.84.29,1.09.15,0,.14.72.15-.12.29,2,.3,1,.14-1.16.3.84.29,1,.15,0,.29-1,.29.62.15,0,.15-.9.14,1.08.44-.75.15-.13.14.59.15-.72.15.16.29-1.34.15.37.14-2.05.15.07.15.73.29-1.21.15.2.14-1.3.15.13.29-8.14.3,6.35.14-1.75.15,1,.15,3.73.14.69.15-.19.29.5.15-1.13.14,1.62.15-.6.15.85.29-1,.15.09.14-.37.15,1.12.15-.66.14-.13L186,73l.29-1.73.15.49.15-.1.14.3.15-.3L187,72l.14-.9.15.2.14.43.3-1.66.29,1,.59-2,.14.19.15-.63.15,0,.73-1.46.15.32.44,1.73.14-.12.15.74.15-.91.43,2.12.15,0,.15.17.14-.19.15.09.15.82.14-.58.15.58.15,0,.14.73.15-.78.29,1.62.44-1.15.3,1.28.14.15.15-.18.15.61.14.08.59,1.2L195,75l.3,0,.29,1.21.15,0,.14-1.35.3.91.29-.16.15-.4.14.76.15-.18h.15l.14-.45.15.77.15-.81.14.12.3-1.14.14.61.15-.65.14,2,.15-1.1.15.26.14-.45L199,76l.15.09.14-1,.15.81.15-.41.14,0,.15-.21.15.59.14-.19.15-.52.15.06.14,1,.3-.13.14-.78.15,1.47.15-.15.14-.85.15.24.15,1,.14-.33.15-.61.14.25.15-.11.15.26.14-.13.15-.51.15-.11.14.24.15,1.49.15-1.46.14.77.15-.06.29-.56.15.34.15-.1.29.36.15-.65.14,1.11.3-.38.14.15.15-.35.15-.69.14,1.14.15-.39L206,76l.3.33.14-.47.15.36.15-.92.29-.31.15-1,.14,1,.15-.84.29,2.19.3.46.29,1,.15-.09.14.09.44.86.15-.15.15-.34.29,1,.14-.09.15-.59.44.52.15-.54.29,1,.29-1.18.59,1.6.15-.64.44.64.29-.7.15.73.14.06.15-.63.14.57.15-.49.15,1,.14-.56h.15l.15.3.14,0,.3-.52h.14l.15.35.15-.41.14.56.15-.49.15.15.29,1,.15-.8.14.06.15-.13.15.15.14-.06.3.29.14-.34.15.18.14-.52.15.06.15.33.29-.29.29.43.15.23.15-.49.14.21.15-.69.15.32.14.88.3-.42.14-.18.15-.61.15.25.14,1,.15-1.61.44.09.15,0,.14-.16.15.16.29.82.29.34.15-.2.15.25.14-.92.15.12.15-.34h.14l.3-.62.29-.25.15-.18.14.54.15-1,.15.12.14-.46.44.85.15-.13.29.91.15-.68.29,1.63.29-1.09.15.45.15,0,.14.35.15-.55.15.45.14-.25.3-.86.14-.25.15.71.15.1.14.83.15-.56.29,0,.15-.35.15,1.37.14-.52.15,1.08.14-.36.15.43.15-1.05.14.65.15-.23.15.05.14-.54.3,1.84.14-.82.15.42.15-1,.29.77.29-.26.15.07.15-.83.29,1.32.15-1.07.14,1.54.15-1.17.15.62.14.06.29-.26.15.48.29-.21.15,0,.15-.4.14-.06.3.52.14-.26.3.2.14-.07.15-.2.29.36.15-.84.15.36.58-1,.3.48h.43l.15.35.29-.24.15.91.15,0,.14.58.15-.19.29,1.18.3-.79.14-.39.15,1.36.15-.72.14.18L238,83l.15-.93.14.37.15-.86.15,1.4.14,0,.15-.42.14.44.3-.68.14.56.3-.42.14.53L240,83l.15-.52.14.07.15-.21.15.13.14-.23.3.14.14.75.15-.1.15.2.14-.23.15.14.15.42.29-.36.15.08.29-.64L243,83l.29.46.15-.59.29.69.15,0,.15-.43h.14l.15.17.15-.23.14.5.59-.56.15-.3.14.8.15-1,.15.15.14.61.15-.4.15,0,.14-.57.15.32.14-.49.3-.26.14-.41.3.5.14-1.14.15,1.21.15-.65.14,0,.15.93.15-.68.14.22.15.42.15-.41.14.09.15.58.15-.37h.14l.15.47.29-.1.15.38.14-.76.15.44.15-.08.14.09.15-.25.29.74.3-.14.14-.46.15.61.15-.63.44.39.29-.2.15.26.14-.38.15-.76.15,1.06.14-1.22h.15l.15.89.14-.86.15.28.14-.57.15.1.15,1.11.58-1.07.15.43.15,0,.29.55.15-.47.14.54.3-.71.14.91.15-.07.15-.22.44.21.14-.35.15.13.15.33.29-.27.14.07.15-.48.15.36.29-.62.15.88.14-.57.3.54.14-.12.15.59.44-.83L260,83l.15-.41.14.52.15-.25.15,0,.29.38.29.12.15.24.29-.47.15.37.14-.08.15-.61.15.76.14.16.15,0,.15-1,.14.16.15-.83.29,2,.15-.86.29-.23.3,1.44.14,0,.3-.2.43.35.15-.33.15,0,.14.33.3-.35.14.52.15-.31.15.07.14-.09.15.48.15-.66.29.42.29-.41.15,0,.29.59.15-.47.15.57.14-.85.15,1.11.15-1.06.14,1,.29-.36.15.77.29-.73.15.6.15-.83.14.47.15-.56.29,1.13.15-.74.15.68.14-.4.15.07.15-.12.14.08.15.59.15-.76.14,1,.3-.72.14-.5.15.49.29.15.15-.56.29.47.15.26.14-.39.15,0,.15-.12.14-.42.15.46.15.06.14.33.44-1,.3.81.14.13.59-.57.15.39.14-.15.15.27.14-.39.15,1,.29-1,.15.11.29-.35.15,1.08.15-.56h.29l.15-.61.29.82L278,85l.15.17.15.79.14-1,.15,0,.15.25.29-.5.29.11.15-.1.14-1.08.3.36.14.08.15.47.15-.14.14.4.3-.68.29.86.15-.6.14.85.15-.54.29,0,.15-.41.15.22.14-.18.15.4.15-.51.14.24.15-.12.15-.47h.14l.15-.15.14.1.3-.34.14-.08.15.91.15-.4.29.57.15.3h.29l.29-.63.15.82.15-.09.29.14.15,0,.14-.32.3.44.14-.13.15-.35.29.6.15-.17.14-.39.15.17.15-.19.44.42.14-.4.15-.07.15.23.14-.29.15.12.15-.4.14,1,.3-1.08.14.89.15-.86.29,1.26.15-1,.29-.24.15.65.14-.39.15.46.15-.25.14-.55.15.22.15-.47.14.24.15-.34.29.11.15-.25.29.35.15.93.15-.65.14.77.15-.72.15.11.14-.2.15,1.12.15-1.39.14,1,.15-.12.44.46.29,0,.29,1,.3-1,.14.73.3-.47.14.12.15-1,.29,1.34.15.16.15-.31.14.13.15-.3.15.27.14-.18.15.14.15-.2.14.07.3.4.14-.44.15.88.29-.65.29.06.15-.15.29.86.15-.36.29,0,.15-.27.29.16.15-.15.15-.37.14.79.15-.68.15.23.14-.26.15.42.29-.16.29-.16.15.35.15-.59.29.21.15.37.14-.58.15.2.15-.34.29.73h.15l.14-.53.15.09.15.46.14-.11.15-.31.29.82.15-.57.15.31.14-.39.15.37.29-.41.15.38.14-.14.3.64.14-.53.3.23.14.15.15-.17.15-.74h.14l.15.94.15-.48h.14l.3.38.14-.21.3,0,.29,0,.15-.4.14.73.15-.4.15.66.14-.76.29-.21.15.44.15-.2.14.26.15-.34.29.35.15-.39.15.42.14-.77.15.61.15-.57.29.81.29-.46.15,0,.15.13.14-.16.15.18h.15l.14.19.15-.89.14.52.3-.13.14-.38.44.12.3-.24.44-.26.14-1.06.15.61.15.1.29-.07.15-.57.14-.09.3.2.14-.09.15-.26.15,1.23.14-1.32.29.78.15.25.15-.24.14.55.59.32.15.27.14-.24.15.37.15-.38.14.1.15-.12.15.11.14.35.15-.15.15.56.14-.29.15-.61.15.22.14.59.3-.68.14.19.29-.11.15.6.15-1,.29.16.15,0,.14-.18h.15l.15-.37.14,0,.15.41.15-.65.14.25.15-.18.29.63.15.13.29-.61.15.43.15-.33.14.3.15,0,.14-.22.15-.44L324,86l.15-.45.29.26.15-.07.15.08.14-.12.15-.52.15,0,.14-.07.3.5.14-.54.15.06.15-.08.14-.3.15.42.15-.27.14.35.15-.53.15-.09.14-.52.44.37.15-.13.14.15.15-.77.15.6.14.09.15-.74.15,0,.14.52.15-1.09H329l.14-.58.15.62.15-.16.14.19.44-1,.15.29.15-.44.14.1.15.45.29-.61.15.5.14-1.33.15.77.15-.11.14-.34.15-.71.29.85.3-1.38.14.74.15-.45.15-1,.14,1,.3-.9.14.8.3-1.06.14.94L334,80l.15.45.14-1.31.15.86.15-.54.14.68.29.35.15.49.15-.54.29.65.15.19.14-.22.15.27.15-.09.29,1.33.15-.27.14.44.15-.29H337l.14.55.15-.22.15.53.14,0,.15.12.15,0,.14-.34.15.06.14.37.3.14.14.43.15,0,.15-.76.14.91.15.15.15-.86.14.55.15-.17.15-.42.14,1.12.15-1.1.15.61.29-.38.15.92.14-.77.15,1,.15-1,.14.73.15-.8.15-.17.14,1.17.15-.8.14,0,.15.85.15-.32.14-.65.15.71.15-.18.14.06.15-.43.29,1,.15-.34.15.84.14-.72.3.46.14-.32.15.34.15-.06.29.46.15.16.14-.47.15.52.15-.65.14.57.15-.28.29.74.15-.86.14,0,.15-.46.15,0,.14.52.3-.1.14-.22.59,1.37.15-.21.14-.47.15.32.29-.06.15.3h.29l.15.4.14-.56.15.8.15-.57.29.16h.15l.14.31.15-.32.29.66.3-.23.14.42.15-.46.15.44.14-.39.15.23.15-.57.14.64.15-.34.15.12.14-.17.15-.34.29.43.15-.39.44.81.29-.5h.15l.14.43.15,0,.15-.18.14.74.3-.56.29.45.15-.29.29.14.15.75.29-.69h.15l.44.45.14-.19.15.3.14-.12.15.22.15-.44.14.4.3-.49.14.08.15.49.15-.49h0"/></g></g><g id="patch_3" data-name="patch 3"><path class="cls-8" d="M23.41,158.22V22.32"/></g><g id="patch_4" data-name="patch 4"><path class="cls-8" d="M23.41,158.22h334.8"/></g><g id="text_9" data-name="text 9"><path id="DejaVuSans-50" d="M146.73,8.54v3.29h1.48a1.75,1.75,0,0,0,1.28-.43,1.59,1.59,0,0,0,.45-1.22A1.58,1.58,0,0,0,149.49,9a1.75,1.75,0,0,0-1.28-.43Zm-1.19-1h2.67a3.28,3.28,0,0,1,2.23.66,2.49,2.49,0,0,1,.75,1.95,2.47,2.47,0,0,1-.75,2,3.28,3.28,0,0,1-2.23.66h-1.48v3.52h-1.19Z"/><path id="DejaVuSans-68" d="M158.19,12.36v4h-1.08V12.39a2.24,2.24,0,0,0-.36-1.39,1.31,1.31,0,0,0-1.09-.46,1.75,1.75,0,0,0-1.38.55,2.17,2.17,0,0,0-.51,1.52v3.71h-1.08V7.2h1.08v3.58a2.68,2.68,0,0,1,.92-.89,2.49,2.49,0,0,1,1.21-.29,2.09,2.09,0,0,1,1.71.7A3.18,3.18,0,0,1,158.19,12.36Z"/><path id="DejaVuSans-6f" d="M162.88,10.51a1.63,1.63,0,0,0-1.37.68A3,3,0,0,0,161,13a3,3,0,0,0,.51,1.86,1.6,1.6,0,0,0,1.37.67,1.58,1.58,0,0,0,1.36-.68,3,3,0,0,0,.51-1.85,3,3,0,0,0-.51-1.85A1.61,1.61,0,0,0,162.88,10.51Zm0-.91a2.79,2.79,0,0,1,2.21.91,3.73,3.73,0,0,1,.8,2.53,3.73,3.73,0,0,1-.8,2.53,3.11,3.11,0,0,1-4.42,0,3.68,3.68,0,0,1-.8-2.53,3.68,3.68,0,0,1,.8-2.53A2.77,2.77,0,0,1,162.88,9.6Z"/><path id="DejaVuSans-73-3" data-name="DejaVuSans-73" d="M171.86,10v1a4,4,0,0,0-1-.35,4.19,4.19,0,0,0-1-.12,2.28,2.28,0,0,0-1.2.25.8.8,0,0,0-.4.73.67.67,0,0,0,.29.59,3.18,3.18,0,0,0,1.15.41l.37.08a3.56,3.56,0,0,1,1.63.7,1.61,1.61,0,0,1,.48,1.25,1.72,1.72,0,0,1-.72,1.45,3.31,3.31,0,0,1-2,.53,7.14,7.14,0,0,1-1.1-.1,10.65,10.65,0,0,1-1.2-.31V15a5.47,5.47,0,0,0,1.18.47,4.54,4.54,0,0,0,1.15.15,2.16,2.16,0,0,0,1.17-.26.81.81,0,0,0,.41-.73.79.79,0,0,0-.3-.67,3.63,3.63,0,0,0-1.3-.46l-.37-.08a2.93,2.93,0,0,1-1.45-.65,1.59,1.59,0,0,1-.44-1.2,1.69,1.69,0,0,1,.65-1.43,3.06,3.06,0,0,1,1.87-.5,6.69,6.69,0,0,1,1.12.09A4.06,4.06,0,0,1,171.86,10Z"/><path id="DejaVuSans-70" d="M175,15.33v3.48h-1.08v-9H175v1a2.32,2.32,0,0,1,.86-.87,2.55,2.55,0,0,1,1.24-.28,2.32,2.32,0,0,1,1.94,1,3.89,3.89,0,0,1,.75,2.49,3.92,3.92,0,0,1-.75,2.5,2.35,2.35,0,0,1-1.94.95,2.55,2.55,0,0,1-1.24-.29A2.32,2.32,0,0,1,175,15.33ZM178.64,13a3.09,3.09,0,0,0-.49-1.86,1.56,1.56,0,0,0-1.34-.68,1.59,1.59,0,0,0-1.35.68A3.16,3.16,0,0,0,175,13a3.19,3.19,0,0,0,.49,1.87,1.58,1.58,0,0,0,1.35.67,1.55,1.55,0,0,0,1.34-.67A3.12,3.12,0,0,0,178.64,13Z"/><path id="DejaVuSans-68-2" data-name="DejaVuSans-68" d="M187,12.36v4h-1.07V12.39a2.24,2.24,0,0,0-.37-1.39,1.29,1.29,0,0,0-1.09-.46,1.78,1.78,0,0,0-1.38.55,2.21,2.21,0,0,0-.5,1.52v3.71h-1.08V7.2h1.08v3.58a2.66,2.66,0,0,1,.91-.89,2.52,2.52,0,0,1,1.21-.29,2.07,2.07,0,0,1,1.71.7A3.12,3.12,0,0,1,187,12.36Z"/><path id="DejaVuSans-61" d="M192.14,13a3.82,3.82,0,0,0-1.81.3,1.09,1.09,0,0,0-.51,1,1.18,1.18,0,0,0,.38.91,1.5,1.5,0,0,0,1,.33,1.8,1.8,0,0,0,1.44-.63,2.52,2.52,0,0,0,.54-1.69V13Zm2.15-.45v3.75h-1.08v-1a2.34,2.34,0,0,1-.92.88,2.93,2.93,0,0,1-1.35.29,2.21,2.21,0,0,1-1.6-.57,2,2,0,0,1-.6-1.51,2,2,0,0,1,.74-1.67,3.64,3.64,0,0,1,2.22-.56h1.51v-.11a1.39,1.39,0,0,0-.49-1.15,2.09,2.09,0,0,0-1.37-.41,4.42,4.42,0,0,0-1.1.14,4.31,4.31,0,0,0-1,.4v-1a8.18,8.18,0,0,1,1.15-.34,5.84,5.84,0,0,1,1.09-.11,2.75,2.75,0,0,1,2.12.74A3.11,3.11,0,0,1,194.29,12.57Z"/><path id="DejaVuSans-74-3" data-name="DejaVuSans-74" d="M197.57,7.89V9.76h2.22v.83h-2.22v3.57a1.67,1.67,0,0,0,.22,1,1.3,1.3,0,0,0,.9.23h1.1v.9h-1.1a2.49,2.49,0,0,1-1.73-.47,2.37,2.37,0,0,1-.47-1.69V10.59h-.79V9.76h.79V7.89Z"/><path id="DejaVuSans-65-5" data-name="DejaVuSans-65" d="M206.83,12.77v.52h-5a2.5,2.5,0,0,0,.67,1.7,2.29,2.29,0,0,0,1.67.58,4.83,4.83,0,0,0,1.21-.15,5,5,0,0,0,1.15-.46v1a6.11,6.11,0,0,1-1.19.38,5.58,5.58,0,0,1-1.23.13,3.4,3.4,0,0,1-2.49-.91,3.36,3.36,0,0,1-.92-2.48,3.64,3.64,0,0,1,.87-2.56A3,3,0,0,1,204,9.6a2.7,2.7,0,0,1,2.1.85A3.35,3.35,0,0,1,206.83,12.77Zm-1.08-.32a2,2,0,0,0-.5-1.41,1.66,1.66,0,0,0-1.28-.53,2,2,0,0,0-1.44.51,2.19,2.19,0,0,0-.63,1.44Z"/><path id="DejaVuSans-2d" d="M208.05,12.55h3.16v1h-3.16Z"/><path id="DejaVuSans-46" d="M213,7.57h5v1h-3.85v2.57h3.47v1h-3.47v4.18H213Z"/><path id="DejaVuSans-72-2" data-name="DejaVuSans-72" d="M222.76,10.76a1.28,1.28,0,0,0-.4-.15,2,2,0,0,0-1.87.54,2.62,2.62,0,0,0-.49,1.71v3.46h-1.08V9.76H220v1a2.22,2.22,0,0,1,.88-.89,2.87,2.87,0,0,1,1.33-.29h.25l.29.05Z"/><path id="DejaVuSans-65-6" data-name="DejaVuSans-65" d="M229.23,12.77v.52h-4.95A2.46,2.46,0,0,0,225,15a2.29,2.29,0,0,0,1.67.58,4.75,4.75,0,0,0,1.2-.15A4.92,4.92,0,0,0,229,15v1a6.11,6.11,0,0,1-1.19.38,5.65,5.65,0,0,1-1.23.13,3.4,3.4,0,0,1-2.49-.91,3.36,3.36,0,0,1-.92-2.48,3.64,3.64,0,0,1,.87-2.56,3,3,0,0,1,2.35-.94,2.66,2.66,0,0,1,2.09.85A3.3,3.3,0,0,1,229.23,12.77Zm-1.07-.32a2.07,2.07,0,0,0-.5-1.41,1.66,1.66,0,0,0-1.28-.53,2,2,0,0,0-1.44.51,2.19,2.19,0,0,0-.63,1.44Z"/><path id="DejaVuSans-65-7" data-name="DejaVuSans-65" d="M236.62,12.77v.52h-5a2.5,2.5,0,0,0,.67,1.7,2.29,2.29,0,0,0,1.67.58,4.83,4.83,0,0,0,1.21-.15,5.09,5.09,0,0,0,1.16-.46v1a6.58,6.58,0,0,1-1.19.38,5.74,5.74,0,0,1-1.24.13,3.4,3.4,0,0,1-2.49-.91,3.36,3.36,0,0,1-.92-2.48,3.64,3.64,0,0,1,.87-2.56,3,3,0,0,1,2.35-.94,2.7,2.7,0,0,1,2.1.85A3.35,3.35,0,0,1,236.62,12.77Zm-1.08-.32A2,2,0,0,0,235,11a1.66,1.66,0,0,0-1.28-.53,2,2,0,0,0-1.44.51,2.14,2.14,0,0,0-.62,1.44Z"/></g></g></g></g><g id="Phase_Lables" data-name="Phase Lables"><g id="Zeolite_Y" data-name="Zeolite Y"><path class="cls-9" d="M28.1,25.63V22.9l-2.49-3.71h1l1.27,1.94c.23.37.45.73.66,1.09.19-.34.42-.71.7-1.14l1.25-1.89h1L29,22.9v2.73Z"/><path class="cls-9" d="M50.84,57.48V54.75L48.36,51h1L50.66,53c.24.37.46.73.66,1.09.19-.33.43-.71.7-1.14L53.27,51h1l-2.57,3.71v2.73Z"/><path class="cls-9" d="M81.84,66.5V63.78l-2.48-3.72h1L81.66,62c.24.37.46.73.66,1.09.19-.33.43-.71.7-1.13l1.25-1.9h1l-2.57,3.72V66.5Z"/><path class="cls-9" d="M143.88,62.41V59.68L141.4,56h1l1.27,1.94c.23.36.45.73.65,1.09.19-.34.43-.72.7-1.14L146.31,56h1l-2.57,3.71v2.73Z"/><path class="cls-9" d="M167.59,60.12V57.39l-2.48-3.71h1l1.27,1.94c.23.36.45.73.65,1.09.19-.34.43-.71.7-1.14L170,53.68h1l-2.58,3.71v2.73Z"/></g><g id="LDH"><g id="Layer_5" data-name="Layer 5"><path class="cls-10" d="M59.15,58.7V52.26H60V54.9h3.35V52.26h.85V58.7h-.85v-3H60v3Z"/></g><path class="cls-10" d="M187.24,66.47V60h.86v2.65h3.34V60h.86v6.44h-.86v-3H188.1v3Z"/><path class="cls-10" d="M331.32,78.34V71.9h.85v2.64h3.35V71.9h.86v6.44h-.86v-3h-3.35v3Z"/><path class="cls-9" d="M120.9,52.51V49.78l-2.49-3.72h1L120.72,48c.24.36.45.72.66,1.09.19-.34.42-.72.7-1.14l1.25-1.9h1l-2.57,3.72v2.73Z"/><path class="cls-11" d="M125.22,54.4V46h.69V54.4Z"/><path class="cls-10" d="M127.45,52.51V46.06h.85v2.65h3.35V46.06h.85v6.45h-.85v-3H128.3v3Z"/></g><g id="Sodalite"><path d="M71.38,70.89V64.45h.87l3.39,5.06V64.45h.82v6.44h-.88L72.2,65.83v5.06Z"/><path d="M105,69.73V63.29h.87l3.39,5.06V63.29h.82v6.44h-.88l-3.38-5.06v5.06Z"/><path d="M129.77,66.59V60.15h.87L134,65.2V60.15h.82v6.44H134l-3.39-5.06v5.06Z"/><path d="M172.45,66.84V60.4h.88l3.38,5.06V60.4h.82v6.44h-.88l-3.38-5.06v5.06Z"/></g></g><g id="Age_Lables" data-name="Age Lables"><path class="cls-12" d="M326.9,138.38h-.79v-5a3.64,3.64,0,0,1-.75.55,5.72,5.72,0,0,1-.83.41v-.77a4.92,4.92,0,0,0,1.16-.75,3,3,0,0,0,.7-.86h.51Z"/><path class="cls-12" d="M328.84,136.44v-.79h2.43v.79Z"/><path class="cls-12" d="M335.17,138.38v-.59a1.46,1.46,0,0,1-1.31.69,1.78,1.78,0,0,1-1-.31,2,2,0,0,1-.73-.86,3,3,0,0,1-.25-1.26,3.23,3.23,0,0,1,.23-1.27,1.85,1.85,0,0,1,1.74-1.18,1.56,1.56,0,0,1,1.29.65v-2.32h.78v6.45Zm-2.5-2.33a2,2,0,0,0,.38,1.34,1.15,1.15,0,0,0,.89.44,1.13,1.13,0,0,0,.88-.42,2,2,0,0,0,.36-1.3,2.13,2.13,0,0,0-.37-1.4,1.13,1.13,0,0,0-.91-.45,1.09,1.09,0,0,0-.88.43A2.17,2.17,0,0,0,332.67,136.05Z"/><path class="cls-12" d="M340.19,137.8a2.84,2.84,0,0,1-.84.53,2.58,2.58,0,0,1-.88.15,1.7,1.7,0,0,1-1.18-.37,1.25,1.25,0,0,1-.41-1,1.33,1.33,0,0,1,.15-.63,1.4,1.4,0,0,1,.41-.46,1.83,1.83,0,0,1,.57-.25,3.65,3.65,0,0,1,.7-.12,7,7,0,0,0,1.41-.28,1.92,1.92,0,0,0,0-.2.91.91,0,0,0-.22-.68,1.35,1.35,0,0,0-.91-.27,1.4,1.4,0,0,0-.82.19,1.18,1.18,0,0,0-.39.7L337,135a1.9,1.9,0,0,1,.35-.8,1.52,1.52,0,0,1,.7-.47,3.1,3.1,0,0,1,1.06-.17,2.89,2.89,0,0,1,1,.14,1.38,1.38,0,0,1,.55.36,1.23,1.23,0,0,1,.25.54,5.18,5.18,0,0,1,0,.73v1a10.14,10.14,0,0,0,.05,1.4,1.71,1.71,0,0,0,.2.56h-.83A1.71,1.71,0,0,1,340.19,137.8Zm-.07-1.77a5.35,5.35,0,0,1-1.29.3,3.22,3.22,0,0,0-.69.16.66.66,0,0,0-.31.26.7.7,0,0,0-.11.37.68.68,0,0,0,.24.53,1,1,0,0,0,.7.21,1.62,1.62,0,0,0,.81-.2,1.18,1.18,0,0,0,.53-.55,2,2,0,0,0,.12-.79Z"/><path class="cls-12" d="M342.12,140.17l-.09-.74a1.6,1.6,0,0,0,.45.07.82.82,0,0,0,.42-.09.75.75,0,0,0,.26-.24,4,4,0,0,0,.24-.59l.07-.2-1.77-4.67h.86l1,2.7c.12.34.24.7.34,1.08a9.93,9.93,0,0,1,.32-1.06l1-2.72H346l-1.78,4.75a8.27,8.27,0,0,1-.44,1,1.59,1.59,0,0,1-.48.58,1.18,1.18,0,0,1-.65.18A1.4,1.4,0,0,1,342.12,140.17Z"/><path class="cls-11" d="M328.08,64.46v.76h-4.26a1.28,1.28,0,0,1,.09-.55,2.91,2.91,0,0,1,.52-.86,7.71,7.71,0,0,1,1-1,8.17,8.17,0,0,0,1.42-1.37,1.59,1.59,0,0,0,.37-.95,1.06,1.06,0,0,0-.33-.79,1.22,1.22,0,0,0-.88-.33,1.23,1.23,0,0,0-.91.35,1.28,1.28,0,0,0-.35,1l-.81-.09a1.93,1.93,0,0,1,.63-1.38,2.12,2.12,0,0,1,1.46-.48,2.05,2.05,0,0,1,1.47.51,1.71,1.71,0,0,1,.54,1.28,2,2,0,0,1-.16.76,2.84,2.84,0,0,1-.53.78,11.42,11.42,0,0,1-1.22,1.14c-.47.4-.78.67-.91.81a2.15,2.15,0,0,0-.33.43Z"/><path class="cls-11" d="M330.14,61.72a1.5,1.5,0,0,1-.73-.51,1.33,1.33,0,0,1-.24-.8,1.55,1.55,0,0,1,.51-1.18,2.12,2.12,0,0,1,2.7,0,1.58,1.58,0,0,1,.52,1.19,1.29,1.29,0,0,1-.24.78,1.49,1.49,0,0,1-.71.51,1.76,1.76,0,0,1,.9.63,1.7,1.7,0,0,1,.31,1,1.86,1.86,0,0,1-.58,1.38,2.37,2.37,0,0,1-3.08,0,1.86,1.86,0,0,1-.58-1.41,1.72,1.72,0,0,1,.31-1.05A1.7,1.7,0,0,1,330.14,61.72Zm-.41,1.64a1.39,1.39,0,0,0,.16.65,1.11,1.11,0,0,0,.47.49,1.39,1.39,0,0,0,.69.18,1.24,1.24,0,0,0,.93-.37,1.22,1.22,0,0,0,.37-.92A1.28,1.28,0,0,0,331,62.07a1.25,1.25,0,0,0-1.29,1.29Zm.25-3a1,1,0,0,0,.3.75,1,1,0,0,0,.76.29,1,1,0,0,0,.75-.29.91.91,0,0,0,.29-.7,1,1,0,0,0-.3-.73,1,1,0,0,0-.75-.3,1.05,1.05,0,0,0-.75.29A.92.92,0,0,0,330,60.38Z"/><path class="cls-11" d="M333.84,63.28v-.79h2.43v.79Z"/><path class="cls-11" d="M340.17,65.22v-.59a1.44,1.44,0,0,1-1.3.69,1.88,1.88,0,0,1-1-.3,2.1,2.1,0,0,1-.72-.86,3,3,0,0,1-.26-1.27,3.42,3.42,0,0,1,.23-1.27,1.85,1.85,0,0,1,.7-.87,1.89,1.89,0,0,1,1-.31,1.49,1.49,0,0,1,.75.18,1.64,1.64,0,0,1,.54.47V58.77h.79v6.45Zm-2.5-2.33a2,2,0,0,0,.38,1.34,1.15,1.15,0,0,0,.89.44,1.11,1.11,0,0,0,.88-.42,1.92,1.92,0,0,0,.37-1.3,2.23,2.23,0,0,0-.37-1.4,1.14,1.14,0,0,0-.91-.45,1.08,1.08,0,0,0-.88.43A2.11,2.11,0,0,0,337.67,62.89Z"/><path class="cls-11" d="M345.2,64.64a3,3,0,0,1-.85.53,2.49,2.49,0,0,1-.87.15A1.67,1.67,0,0,1,342.3,65a1.31,1.31,0,0,1-.26-1.59,1.19,1.19,0,0,1,.41-.45,1.85,1.85,0,0,1,.57-.26,6.05,6.05,0,0,1,.7-.12,8,8,0,0,0,1.41-.27v-.21a.87.87,0,0,0-.22-.68,1.7,1.7,0,0,0-1.72-.07,1.21,1.21,0,0,0-.4.69l-.77-.11a1.9,1.9,0,0,1,.35-.8,1.52,1.52,0,0,1,.7-.47,3,3,0,0,1,1.05-.17,2.6,2.6,0,0,1,1,.15,1.22,1.22,0,0,1,.55.35,1.23,1.23,0,0,1,.25.54,4,4,0,0,1,0,.73v1a12.19,12.19,0,0,0,.05,1.4,1.71,1.71,0,0,0,.2.56h-.83A1.7,1.7,0,0,1,345.2,64.64Zm-.07-1.76a6.3,6.3,0,0,1-1.29.29,2.93,2.93,0,0,0-.69.16.67.67,0,0,0-.31.26.63.63,0,0,0-.11.38.66.66,0,0,0,.24.52,1,1,0,0,0,.7.21,1.57,1.57,0,0,0,.81-.2A1.18,1.18,0,0,0,345,64a1.87,1.87,0,0,0,.13-.8Z"/><path class="cls-11" d="M347.12,67l-.09-.74a1.72,1.72,0,0,0,.46.07.87.87,0,0,0,.42-.09.74.74,0,0,0,.26-.24,4,4,0,0,0,.24-.59s0-.11.07-.19l-1.77-4.68h.85l1,2.7c.13.35.24.71.34,1.08a10,10,0,0,1,.33-1.06l1-2.72H351l-1.77,4.75a8.92,8.92,0,0,1-.45,1.06,1.55,1.55,0,0,1-.48.57,1.15,1.15,0,0,1-.65.18A1.48,1.48,0,0,1,347.12,67Z"/><path class="cls-11" d="M351.34,63.82l.78-.12a1.12,1.12,0,0,0,.37.72,1.26,1.26,0,0,0,.84.25,1.24,1.24,0,0,0,.81-.22.65.65,0,0,0,.26-.52.46.46,0,0,0-.23-.42,3.56,3.56,0,0,0-.81-.27,7.17,7.17,0,0,1-1.2-.38,1.17,1.17,0,0,1-.51-.44,1.19,1.19,0,0,1,0-1.21,1.24,1.24,0,0,1,.38-.44,1.62,1.62,0,0,1,.51-.23,2.48,2.48,0,0,1,.68-.1,2.86,2.86,0,0,1,1,.16,1.37,1.37,0,0,1,.61.43,1.69,1.69,0,0,1,.27.72l-.77.11a.85.85,0,0,0-.31-.56,1.07,1.07,0,0,0-.71-.2,1.28,1.28,0,0,0-.78.18.51.51,0,0,0-.23.42.44.44,0,0,0,.09.27.75.75,0,0,0,.31.22l.69.2a11.61,11.61,0,0,1,1.18.36,1.28,1.28,0,0,1,.52.42,1.21,1.21,0,0,1,.19.68,1.34,1.34,0,0,1-.23.74,1.58,1.58,0,0,1-.67.54,2.4,2.4,0,0,1-1,.19,2.14,2.14,0,0,1-1.38-.38A1.74,1.74,0,0,1,351.34,63.82Z"/></g></svg>