<?xml version="1.0" encoding="utf-8" standalone="no"?>
<!DOCTYPE svg PUBLIC "-//W3C//DTD SVG 1.1//EN"
  "http://www.w3.org/Graphics/SVG/1.1/DTD/svg11.dtd">
<svg xmlns:xlink="http://www.w3.org/1999/xlink" width="147.300313pt" height="192.94125pt" viewBox="0 0 147.300313 192.94125" xmlns="http://www.w3.org/2000/svg" version="1.1">
 <metadata>
  <rdf:RDF xmlns:dc="http://purl.org/dc/elements/1.1/" xmlns:cc="http://creativecommons.org/ns#" xmlns:rdf="http://www.w3.org/1999/02/22-rdf-syntax-ns#">
   <cc:Work>
    <dc:type rdf:resource="http://purl.org/dc/dcmitype/StillImage"/>
    <dc:date>2023-06-05T22:11:26.292183</dc:date>
    <dc:format>image/svg+xml</dc:format>
    <dc:creator>
     <cc:Agent>
      <dc:title>Matplotlib v3.7.1, https://matplotlib.org/</dc:title>
     </cc:Agent>
    </dc:creator>
   </cc:Work>
  </rdf:RDF>
 </metadata>
 <defs>
  <style type="text/css">*{stroke-linejoin: round; stroke-linecap: butt}</style>
 </defs>
 <g id="figure_1">
  <g id="patch_1">
   <path d="M 0 192.94125 
L 147.300313 192.94125 
L 147.300313 0 
L 0 0 
z
" style="fill: #ffffff"/>
  </g>
  <g id="axes_1">
   <g id="patch_2">
    <path d="M 23.410313 158.218125 
L 135.010312 158.218125 
L 135.010312 22.318125 
L 23.410313 22.318125 
z
" style="fill: #ffffff"/>
   </g>
   <g id="matplotlib.axis_1">
    <g id="xtick_1">
     <g id="line2d_1">
      <defs>
       <path id="mf5f88d678d" d="M 0 0 
L 0 3.5 
" style="stroke: #000000; stroke-width: 0.8"/>
      </defs>
      <g>
       <use xlink:href="#mf5f88d678d" x="23.410312" y="158.218125" style="stroke: #000000; stroke-width: 0.8"/>
      </g>
     </g>
     <g id="text_1">
      <!-- 10 -->
      <g transform="translate(18.320312 171.296875) scale(0.08 -0.08)">
       <defs>
        <path id="DejaVuSans-31" d="M 794 531 
L 1825 531 
L 1825 4091 
L 703 3866 
L 703 4441 
L 1819 4666 
L 2450 4666 
L 2450 531 
L 3481 531 
L 3481 0 
L 794 0 
L 794 531 
z
" transform="scale(0.015625)"/>
        <path id="DejaVuSans-30" d="M 2034 4250 
Q 1547 4250 1301 3770 
Q 1056 3291 1056 2328 
Q 1056 1369 1301 889 
Q 1547 409 2034 409 
Q 2525 409 2770 889 
Q 3016 1369 3016 2328 
Q 3016 3291 2770 3770 
Q 2525 4250 2034 4250 
z
M 2034 4750 
Q 2819 4750 3233 4129 
Q 3647 3509 3647 2328 
Q 3647 1150 3233 529 
Q 2819 -91 2034 -91 
Q 1250 -91 836 529 
Q 422 1150 422 2328 
Q 422 3509 836 4129 
Q 1250 4750 2034 4750 
z
" transform="scale(0.015625)"/>
       </defs>
       <use xlink:href="#DejaVuSans-31"/>
       <use xlink:href="#DejaVuSans-30" x="63.623047"/>
      </g>
     </g>
    </g>
    <g id="xtick_2">
     <g id="line2d_2">
      <g>
       <use xlink:href="#mf5f88d678d" x="60.610312" y="158.218125" style="stroke: #000000; stroke-width: 0.8"/>
      </g>
     </g>
     <g id="text_2">
      <!-- 11 -->
      <g transform="translate(55.520312 171.296875) scale(0.08 -0.08)">
       <use xlink:href="#DejaVuSans-31"/>
       <use xlink:href="#DejaVuSans-31" x="63.623047"/>
      </g>
     </g>
    </g>
    <g id="xtick_3">
     <g id="line2d_3">
      <g>
       <use xlink:href="#mf5f88d678d" x="97.810313" y="158.218125" style="stroke: #000000; stroke-width: 0.8"/>
      </g>
     </g>
     <g id="text_3">
      <!-- 12 -->
      <g transform="translate(92.720313 171.296875) scale(0.08 -0.08)">
       <defs>
        <path id="DejaVuSans-32" d="M 1228 531 
L 3431 531 
L 3431 0 
L 469 0 
L 469 531 
Q 828 903 1448 1529 
Q 2069 2156 2228 2338 
Q 2531 2678 2651 2914 
Q 2772 3150 2772 3378 
Q 2772 3750 2511 3984 
Q 2250 4219 1831 4219 
Q 1534 4219 1204 4116 
Q 875 4013 500 3803 
L 500 4441 
Q 881 4594 1212 4672 
Q 1544 4750 1819 4750 
Q 2544 4750 2975 4387 
Q 3406 4025 3406 3419 
Q 3406 3131 3298 2873 
Q 3191 2616 2906 2266 
Q 2828 2175 2409 1742 
Q 1991 1309 1228 531 
z
" transform="scale(0.015625)"/>
       </defs>
       <use xlink:href="#DejaVuSans-31"/>
       <use xlink:href="#DejaVuSans-32" x="63.623047"/>
      </g>
     </g>
    </g>
    <g id="xtick_4">
     <g id="line2d_4">
      <g>
       <use xlink:href="#mf5f88d678d" x="135.010312" y="158.218125" style="stroke: #000000; stroke-width: 0.8"/>
      </g>
     </g>
     <g id="text_4">
      <!-- 13 -->
      <g transform="translate(129.920312 171.296875) scale(0.08 -0.08)">
       <defs>
        <path id="DejaVuSans-33" d="M 2597 2516 
Q 3050 2419 3304 2112 
Q 3559 1806 3559 1356 
Q 3559 666 3084 287 
Q 2609 -91 1734 -91 
Q 1441 -91 1130 -33 
Q 819 25 488 141 
L 488 750 
Q 750 597 1062 519 
Q 1375 441 1716 441 
Q 2309 441 2620 675 
Q 2931 909 2931 1356 
Q 2931 1769 2642 2001 
Q 2353 2234 1838 2234 
L 1294 2234 
L 1294 2753 
L 1863 2753 
Q 2328 2753 2575 2939 
Q 2822 3125 2822 3475 
Q 2822 3834 2567 4026 
Q 2313 4219 1838 4219 
Q 1578 4219 1281 4162 
Q 984 4106 628 3988 
L 628 4550 
Q 988 4650 1302 4700 
Q 1616 4750 1894 4750 
Q 2613 4750 3031 4423 
Q 3450 4097 3450 3541 
Q 3450 3153 3228 2886 
Q 3006 2619 2597 2516 
z
" transform="scale(0.015625)"/>
       </defs>
       <use xlink:href="#DejaVuSans-31"/>
       <use xlink:href="#DejaVuSans-33" x="63.623047"/>
      </g>
     </g>
    </g>
    <g id="xtick_5">
     <g id="line2d_5">
      <defs>
       <path id="mf91b992c14" d="M 0 0 
L 0 2 
" style="stroke: #000000; stroke-width: 0.6"/>
      </defs>
      <g>
       <use xlink:href="#mf91b992c14" x="116.410312" y="158.218125" style="stroke: #000000; stroke-width: 0.6"/>
      </g>
     </g>
    </g>
    <g id="text_5">
     <!-- 2θ (degrees) -->
     <g transform="translate(50.538984 183.869531) scale(0.09 -0.09)">
      <defs>
       <path id="DejaVuSans-3b8" d="M 2953 2219 
L 963 2219 
Q 1009 1284 1225 888 
Q 1494 400 1959 400 
Q 2428 400 2688 891 
Q 2916 1322 2953 2219 
z
M 2944 2750 
Q 2856 3638 2688 3950 
Q 2419 4444 1959 4444 
Q 1481 4444 1228 3956 
Q 1028 3563 969 2750 
L 2944 2750 
z
M 1959 4913 
Q 2709 4913 3138 4250 
Q 3566 3591 3566 2422 
Q 3566 1256 3138 594 
Q 2709 -72 1959 -72 
Q 1206 -72 781 594 
Q 353 1256 353 2422 
Q 353 3591 781 4250 
Q 1206 4913 1959 4913 
z
" transform="scale(0.015625)"/>
       <path id="DejaVuSans-20" transform="scale(0.015625)"/>
       <path id="DejaVuSans-28" d="M 1984 4856 
Q 1566 4138 1362 3434 
Q 1159 2731 1159 2009 
Q 1159 1288 1364 580 
Q 1569 -128 1984 -844 
L 1484 -844 
Q 1016 -109 783 600 
Q 550 1309 550 2009 
Q 550 2706 781 3412 
Q 1013 4119 1484 4856 
L 1984 4856 
z
" transform="scale(0.015625)"/>
       <path id="DejaVuSans-64" d="M 2906 2969 
L 2906 4863 
L 3481 4863 
L 3481 0 
L 2906 0 
L 2906 525 
Q 2725 213 2448 61 
Q 2172 -91 1784 -91 
Q 1150 -91 751 415 
Q 353 922 353 1747 
Q 353 2572 751 3078 
Q 1150 3584 1784 3584 
Q 2172 3584 2448 3432 
Q 2725 3281 2906 2969 
z
M 947 1747 
Q 947 1113 1208 752 
Q 1469 391 1925 391 
Q 2381 391 2643 752 
Q 2906 1113 2906 1747 
Q 2906 2381 2643 2742 
Q 2381 3103 1925 3103 
Q 1469 3103 1208 2742 
Q 947 2381 947 1747 
z
" transform="scale(0.015625)"/>
       <path id="DejaVuSans-65" d="M 3597 1894 
L 3597 1613 
L 953 1613 
Q 991 1019 1311 708 
Q 1631 397 2203 397 
Q 2534 397 2845 478 
Q 3156 559 3463 722 
L 3463 178 
Q 3153 47 2828 -22 
Q 2503 -91 2169 -91 
Q 1331 -91 842 396 
Q 353 884 353 1716 
Q 353 2575 817 3079 
Q 1281 3584 2069 3584 
Q 2775 3584 3186 3129 
Q 3597 2675 3597 1894 
z
M 3022 2063 
Q 3016 2534 2758 2815 
Q 2500 3097 2075 3097 
Q 1594 3097 1305 2825 
Q 1016 2553 972 2059 
L 3022 2063 
z
" transform="scale(0.015625)"/>
       <path id="DejaVuSans-67" d="M 2906 1791 
Q 2906 2416 2648 2759 
Q 2391 3103 1925 3103 
Q 1463 3103 1205 2759 
Q 947 2416 947 1791 
Q 947 1169 1205 825 
Q 1463 481 1925 481 
Q 2391 481 2648 825 
Q 2906 1169 2906 1791 
z
M 3481 434 
Q 3481 -459 3084 -895 
Q 2688 -1331 1869 -1331 
Q 1566 -1331 1297 -1286 
Q 1028 -1241 775 -1147 
L 775 -588 
Q 1028 -725 1275 -790 
Q 1522 -856 1778 -856 
Q 2344 -856 2625 -561 
Q 2906 -266 2906 331 
L 2906 616 
Q 2728 306 2450 153 
Q 2172 0 1784 0 
Q 1141 0 747 490 
Q 353 981 353 1791 
Q 353 2603 747 3093 
Q 1141 3584 1784 3584 
Q 2172 3584 2450 3431 
Q 2728 3278 2906 2969 
L 2906 3500 
L 3481 3500 
L 3481 434 
z
" transform="scale(0.015625)"/>
       <path id="DejaVuSans-72" d="M 2631 2963 
Q 2534 3019 2420 3045 
Q 2306 3072 2169 3072 
Q 1681 3072 1420 2755 
Q 1159 2438 1159 1844 
L 1159 0 
L 581 0 
L 581 3500 
L 1159 3500 
L 1159 2956 
Q 1341 3275 1631 3429 
Q 1922 3584 2338 3584 
Q 2397 3584 2469 3576 
Q 2541 3569 2628 3553 
L 2631 2963 
z
" transform="scale(0.015625)"/>
       <path id="DejaVuSans-73" d="M 2834 3397 
L 2834 2853 
Q 2591 2978 2328 3040 
Q 2066 3103 1784 3103 
Q 1356 3103 1142 2972 
Q 928 2841 928 2578 
Q 928 2378 1081 2264 
Q 1234 2150 1697 2047 
L 1894 2003 
Q 2506 1872 2764 1633 
Q 3022 1394 3022 966 
Q 3022 478 2636 193 
Q 2250 -91 1575 -91 
Q 1294 -91 989 -36 
Q 684 19 347 128 
L 347 722 
Q 666 556 975 473 
Q 1284 391 1588 391 
Q 1994 391 2212 530 
Q 2431 669 2431 922 
Q 2431 1156 2273 1281 
Q 2116 1406 1581 1522 
L 1381 1569 
Q 847 1681 609 1914 
Q 372 2147 372 2553 
Q 372 3047 722 3315 
Q 1072 3584 1716 3584 
Q 2034 3584 2315 3537 
Q 2597 3491 2834 3397 
z
" transform="scale(0.015625)"/>
       <path id="DejaVuSans-29" d="M 513 4856 
L 1013 4856 
Q 1481 4119 1714 3412 
Q 1947 2706 1947 2009 
Q 1947 1309 1714 600 
Q 1481 -109 1013 -844 
L 513 -844 
Q 928 -128 1133 580 
Q 1338 1288 1338 2009 
Q 1338 2731 1133 3434 
Q 928 4138 513 4856 
z
" transform="scale(0.015625)"/>
      </defs>
      <use xlink:href="#DejaVuSans-32"/>
      <use xlink:href="#DejaVuSans-3b8" x="63.623047"/>
      <use xlink:href="#DejaVuSans-20" x="124.804688"/>
      <use xlink:href="#DejaVuSans-28" x="156.591797"/>
      <use xlink:href="#DejaVuSans-64" x="195.605469"/>
      <use xlink:href="#DejaVuSans-65" x="259.082031"/>
      <use xlink:href="#DejaVuSans-67" x="320.605469"/>
      <use xlink:href="#DejaVuSans-72" x="384.082031"/>
      <use xlink:href="#DejaVuSans-65" x="422.945312"/>
      <use xlink:href="#DejaVuSans-65" x="484.46875"/>
      <use xlink:href="#DejaVuSans-73" x="545.992188"/>
      <use xlink:href="#DejaVuSans-29" x="598.091797"/>
     </g>
    </g>
   </g>
   <g id="matplotlib.axis_2">
    <g id="ytick_1">
     <g id="line2d_6"/>
    </g>
    <g id="ytick_2">
     <g id="line2d_7"/>
    </g>
    <g id="ytick_3">
     <g id="line2d_8"/>
    </g>
    <g id="ytick_4">
     <g id="line2d_9"/>
    </g>
    <g id="ytick_5">
     <g id="line2d_10"/>
    </g>
    <g id="ytick_6">
     <g id="line2d_11"/>
    </g>
    <g id="ytick_7">
     <g id="line2d_12"/>
    </g>
    <g id="ytick_8">
     <g id="line2d_13"/>
    </g>
    <g id="text_6">
     <!-- Intensity -->
     <g transform="translate(14.038594 109.854375) rotate(-90) scale(0.09 -0.09)">
      <defs>
       <path id="DejaVuSans-49" d="M 628 4666 
L 1259 4666 
L 1259 0 
L 628 0 
L 628 4666 
z
" transform="scale(0.015625)"/>
       <path id="DejaVuSans-6e" d="M 3513 2113 
L 3513 0 
L 2938 0 
L 2938 2094 
Q 2938 2591 2744 2837 
Q 2550 3084 2163 3084 
Q 1697 3084 1428 2787 
Q 1159 2491 1159 1978 
L 1159 0 
L 581 0 
L 581 3500 
L 1159 3500 
L 1159 2956 
Q 1366 3272 1645 3428 
Q 1925 3584 2291 3584 
Q 2894 3584 3203 3211 
Q 3513 2838 3513 2113 
z
" transform="scale(0.015625)"/>
       <path id="DejaVuSans-74" d="M 1172 4494 
L 1172 3500 
L 2356 3500 
L 2356 3053 
L 1172 3053 
L 1172 1153 
Q 1172 725 1289 603 
Q 1406 481 1766 481 
L 2356 481 
L 2356 0 
L 1766 0 
Q 1100 0 847 248 
Q 594 497 594 1153 
L 594 3053 
L 172 3053 
L 172 3500 
L 594 3500 
L 594 4494 
L 1172 4494 
z
" transform="scale(0.015625)"/>
       <path id="DejaVuSans-69" d="M 603 3500 
L 1178 3500 
L 1178 0 
L 603 0 
L 603 3500 
z
M 603 4863 
L 1178 4863 
L 1178 4134 
L 603 4134 
L 603 4863 
z
" transform="scale(0.015625)"/>
       <path id="DejaVuSans-79" d="M 2059 -325 
Q 1816 -950 1584 -1140 
Q 1353 -1331 966 -1331 
L 506 -1331 
L 506 -850 
L 844 -850 
Q 1081 -850 1212 -737 
Q 1344 -625 1503 -206 
L 1606 56 
L 191 3500 
L 800 3500 
L 1894 763 
L 2988 3500 
L 3597 3500 
L 2059 -325 
z
" transform="scale(0.015625)"/>
      </defs>
      <use xlink:href="#DejaVuSans-49"/>
      <use xlink:href="#DejaVuSans-6e" x="29.492188"/>
      <use xlink:href="#DejaVuSans-74" x="92.871094"/>
      <use xlink:href="#DejaVuSans-65" x="132.080078"/>
      <use xlink:href="#DejaVuSans-6e" x="193.603516"/>
      <use xlink:href="#DejaVuSans-73" x="256.982422"/>
      <use xlink:href="#DejaVuSans-69" x="309.082031"/>
      <use xlink:href="#DejaVuSans-74" x="336.865234"/>
      <use xlink:href="#DejaVuSans-79" x="376.074219"/>
     </g>
    </g>
   </g>
   <g id="line2d_14">
    <path d="M 23.307555 119.548398 
L 24.284448 119.405845 
L 25.261341 120.717328 
L 26.238234 119.082726 
L 27.215127 121.591649 
L 28.19202 121.781719 
L 29.168913 121.420587 
L 30.145806 122.418454 
L 31.122699 121.971789 
L 32.099592 121.297041 
L 33.076485 122.779587 
L 34.053378 122.199873 
L 35.030271 122.950649 
L 36.007164 123.064691 
L 36.984057 123.302279 
L 37.96095 123.368803 
L 38.937843 123.055188 
L 39.914736 122.446964 
L 40.891629 122.589517 
L 41.868522 122.21888 
L 42.845415 121.743705 
L 43.822309 121.876754 
L 44.799202 122.494482 
L 45.776095 122.294908 
L 46.752988 121.705691 
L 47.729881 121.924272 
L 48.706774 120.926405 
L 49.683667 120.954915 
L 50.66056 121.449097 
L 51.637453 121.24002 
L 52.614346 121.848244 
L 53.591239 121.154489 
L 54.568132 121.21151 
L 55.545025 121.914768 
L 56.521918 120.536761 
L 57.498811 120.251656 
L 58.475704 120.052083 
L 59.452597 120.489244 
L 60.42949 120.869384 
L 61.406383 120.47974 
L 62.383276 119.31081 
L 63.360169 120.232649 
L 64.337062 119.69095 
L 65.313955 119.386838 
L 66.290848 119.624426 
L 67.267741 121.135482 
L 68.244634 119.462866 
L 69.221527 119.738468 
L 70.19842 119.833503 
L 71.175313 119.12074 
L 72.152206 119.50088 
L 73.129099 118.560034 
L 74.105992 118.769111 
L 75.082885 118.198901 
L 76.059779 118.921167 
L 77.036672 118.189398 
L 78.013565 118.464999 
L 78.990458 118.255922 
L 79.967351 119.2823 
L 80.944244 117.9233 
L 81.921137 118.417482 
L 82.89803 118.436489 
L 83.874923 118.607552 
L 84.851816 118.607552 
L 85.828709 118.560034 
L 86.805602 117.818761 
L 87.782495 118.018335 
L 88.759388 118.255922 
L 89.736281 118.598048 
L 90.713174 118.788118 
L 91.690067 118.426985 
L 92.66696 119.234782 
L 93.643853 119.405845 
L 94.620746 120.555768 
L 95.597639 119.766978 
L 96.574532 120.356195 
L 97.551425 121.610656 
L 98.528318 120.052083 
L 99.505211 121.990796 
L 100.482104 121.354062 
L 101.458997 122.494482 
L 102.43589 122.694055 
L 103.412783 123.454335 
L 104.389676 123.245258 
L 105.366569 123.948517 
L 106.343463 124.471209 
L 107.320356 124.765817 
L 108.297249 125.060426 
L 109.274142 125.28851 
L 110.251035 125.982265 
L 111.227928 126.067796 
L 112.204821 125.830209 
L 113.181714 125.450069 
L 114.158607 125.972761 
L 115.1355 128.586223 
L 116.112393 128.177573 
L 117.089286 128.082538 
L 118.066179 127.721405 
L 119.043072 128.168069 
L 120.019965 128.529202 
L 120.996858 129.20395 
L 121.973751 129.241964 
L 122.950644 129.783663 
L 123.927537 129.451041 
L 124.90443 130.37288 
L 125.881323 130.1543 
L 126.858216 129.432034 
L 127.835109 130.002244 
L 128.812002 131.123656 
L 129.788895 131.076139 
L 130.765788 130.496426 
L 131.742681 130.810041 
L 132.719574 131.70337 
L 133.696467 131.845922 
L 134.67336 132.938824 
L 135.650253 132.27358 
" clip-path="url(#pf97087839d)" style="fill: none; stroke: #4db758; stroke-linecap: square"/>
   </g>
   <g id="line2d_15">
    <path d="M 23.307555 118.978188 
L 24.284448 118.598048 
L 25.261341 117.704719 
L 26.238234 119.776482 
L 27.215127 118.750104 
L 28.19202 119.434356 
L 29.168913 122.40895 
L 30.145806 122.038314 
L 31.122699 122.751076 
L 32.099592 121.924272 
L 33.076485 122.998167 
L 34.053378 124.024545 
L 35.030271 125.269503 
L 36.007164 124.271635 
L 36.984057 125.012908 
L 37.96095 125.117447 
L 38.937843 124.072062 
L 39.914736 124.898866 
L 40.891629 125.630635 
L 41.868522 125.012908 
L 42.845415 124.756314 
L 43.822309 124.737307 
L 44.799202 123.824971 
L 45.776095 124.423691 
L 46.752988 124.357167 
L 47.729881 124.537733 
L 48.706774 125.031915 
L 49.683667 124.93688 
L 50.66056 123.378307 
L 51.637453 123.511356 
L 52.614346 124.034048 
L 53.591239 124.651775 
L 54.568132 122.580013 
L 55.545025 123.606391 
L 56.521918 124.385677 
L 57.498811 124.138587 
L 58.475704 123.036181 
L 59.452597 123.463838 
L 60.42949 124.357167 
L 61.406383 122.437461 
L 62.383276 123.321286 
L 63.360169 122.950649 
L 64.337062 122.418454 
L 65.313955 122.446964 
L 66.290848 123.340293 
L 67.267741 121.762712 
L 68.244634 122.285405 
L 69.221527 122.142852 
L 70.19842 121.563139 
L 71.175313 122.855615 
L 72.152206 123.093202 
L 73.129099 122.399447 
L 74.105992 122.960153 
L 75.082885 121.962286 
L 76.059779 121.249524 
L 77.036672 121.64867 
L 78.013565 121.135482 
L 78.990458 120.726831 
L 79.967351 122.009803 
L 80.944244 120.992929 
L 81.921137 120.992929 
L 82.89803 120.337188 
L 83.874923 121.572642 
L 84.851816 120.204139 
L 85.828709 120.736335 
L 86.805602 120.166125 
L 87.782495 120.232649 
L 88.759388 120.07109 
L 89.736281 119.643433 
L 90.713174 119.671943 
L 91.690067 120.517754 
L 92.66696 120.897894 
L 93.643853 120.584279 
L 94.620746 121.221013 
L 95.597639 122.703559 
L 96.574532 123.00767 
L 97.551425 121.990796 
L 98.528318 122.941146 
L 99.505211 124.14809 
L 100.482104 123.397314 
L 101.458997 124.841845 
L 102.43589 124.756314 
L 103.412783 125.972761 
L 104.389676 125.421559 
L 105.366569 125.488083 
L 106.343463 125.459573 
L 107.320356 127.103677 
L 108.297249 126.210349 
L 109.274142 127.84495 
L 110.251035 128.377146 
L 111.227928 128.462677 
L 112.204821 128.405656 
L 113.181714 127.559845 
L 114.158607 128.766789 
L 115.1355 129.061398 
L 116.112393 129.356006 
L 117.089286 129.660118 
L 118.066179 130.448908 
L 119.043072 130.581957 
L 120.019965 130.477419 
L 120.996858 130.819545 
L 121.973751 131.5133 
L 122.950644 130.467915 
L 123.927537 131.123656 
L 124.90443 131.864929 
L 125.881323 131.465782 
L 126.858216 132.967335 
L 127.835109 132.121524 
L 128.812002 132.188048 
L 129.788895 132.49216 
L 130.765788 133.404496 
L 131.742681 132.824782 
L 132.719574 132.786768 
L 133.696467 133.328468 
L 134.67336 133.404496 
L 135.650253 133.452013 
" clip-path="url(#pf97087839d)" style="fill: none; stroke: #145092; stroke-linecap: square"/>
   </g>
   <g id="patch_3">
    <path d="M 23.410313 158.218125 
L 23.410313 22.318125 
" style="fill: none; stroke: #000000; stroke-width: 0.8; stroke-linejoin: miter; stroke-linecap: square"/>
   </g>
   <g id="patch_4">
    <path d="M 23.410312 158.218125 
L 135.010312 158.218125 
" style="fill: none; stroke: #000000; stroke-width: 0.8; stroke-linejoin: miter; stroke-linecap: square"/>
   </g>
   <g id="text_7">
    <!-- Phosphate-Free -->
    <g transform="translate(32.764688 16.318125) scale(0.12 -0.12)">
     <defs>
      <path id="DejaVuSans-50" d="M 1259 4147 
L 1259 2394 
L 2053 2394 
Q 2494 2394 2734 2622 
Q 2975 2850 2975 3272 
Q 2975 3691 2734 3919 
Q 2494 4147 2053 4147 
L 1259 4147 
z
M 628 4666 
L 2053 4666 
Q 2838 4666 3239 4311 
Q 3641 3956 3641 3272 
Q 3641 2581 3239 2228 
Q 2838 1875 2053 1875 
L 1259 1875 
L 1259 0 
L 628 0 
L 628 4666 
z
" transform="scale(0.015625)"/>
      <path id="DejaVuSans-68" d="M 3513 2113 
L 3513 0 
L 2938 0 
L 2938 2094 
Q 2938 2591 2744 2837 
Q 2550 3084 2163 3084 
Q 1697 3084 1428 2787 
Q 1159 2491 1159 1978 
L 1159 0 
L 581 0 
L 581 4863 
L 1159 4863 
L 1159 2956 
Q 1366 3272 1645 3428 
Q 1925 3584 2291 3584 
Q 2894 3584 3203 3211 
Q 3513 2838 3513 2113 
z
" transform="scale(0.015625)"/>
      <path id="DejaVuSans-6f" d="M 1959 3097 
Q 1497 3097 1228 2736 
Q 959 2375 959 1747 
Q 959 1119 1226 758 
Q 1494 397 1959 397 
Q 2419 397 2687 759 
Q 2956 1122 2956 1747 
Q 2956 2369 2687 2733 
Q 2419 3097 1959 3097 
z
M 1959 3584 
Q 2709 3584 3137 3096 
Q 3566 2609 3566 1747 
Q 3566 888 3137 398 
Q 2709 -91 1959 -91 
Q 1206 -91 779 398 
Q 353 888 353 1747 
Q 353 2609 779 3096 
Q 1206 3584 1959 3584 
z
" transform="scale(0.015625)"/>
      <path id="DejaVuSans-70" d="M 1159 525 
L 1159 -1331 
L 581 -1331 
L 581 3500 
L 1159 3500 
L 1159 2969 
Q 1341 3281 1617 3432 
Q 1894 3584 2278 3584 
Q 2916 3584 3314 3078 
Q 3713 2572 3713 1747 
Q 3713 922 3314 415 
Q 2916 -91 2278 -91 
Q 1894 -91 1617 61 
Q 1341 213 1159 525 
z
M 3116 1747 
Q 3116 2381 2855 2742 
Q 2594 3103 2138 3103 
Q 1681 3103 1420 2742 
Q 1159 2381 1159 1747 
Q 1159 1113 1420 752 
Q 1681 391 2138 391 
Q 2594 391 2855 752 
Q 3116 1113 3116 1747 
z
" transform="scale(0.015625)"/>
      <path id="DejaVuSans-61" d="M 2194 1759 
Q 1497 1759 1228 1600 
Q 959 1441 959 1056 
Q 959 750 1161 570 
Q 1363 391 1709 391 
Q 2188 391 2477 730 
Q 2766 1069 2766 1631 
L 2766 1759 
L 2194 1759 
z
M 3341 1997 
L 3341 0 
L 2766 0 
L 2766 531 
Q 2569 213 2275 61 
Q 1981 -91 1556 -91 
Q 1019 -91 701 211 
Q 384 513 384 1019 
Q 384 1609 779 1909 
Q 1175 2209 1959 2209 
L 2766 2209 
L 2766 2266 
Q 2766 2663 2505 2880 
Q 2244 3097 1772 3097 
Q 1472 3097 1187 3025 
Q 903 2953 641 2809 
L 641 3341 
Q 956 3463 1253 3523 
Q 1550 3584 1831 3584 
Q 2591 3584 2966 3190 
Q 3341 2797 3341 1997 
z
" transform="scale(0.015625)"/>
      <path id="DejaVuSans-2d" d="M 313 2009 
L 1997 2009 
L 1997 1497 
L 313 1497 
L 313 2009 
z
" transform="scale(0.015625)"/>
      <path id="DejaVuSans-46" d="M 628 4666 
L 3309 4666 
L 3309 4134 
L 1259 4134 
L 1259 2759 
L 3109 2759 
L 3109 2228 
L 1259 2228 
L 1259 0 
L 628 0 
L 628 4666 
z
" transform="scale(0.015625)"/>
     </defs>
     <use xlink:href="#DejaVuSans-50"/>
     <use xlink:href="#DejaVuSans-68" x="60.302734"/>
     <use xlink:href="#DejaVuSans-6f" x="123.681641"/>
     <use xlink:href="#DejaVuSans-73" x="184.863281"/>
     <use xlink:href="#DejaVuSans-70" x="236.962891"/>
     <use xlink:href="#DejaVuSans-68" x="300.439453"/>
     <use xlink:href="#DejaVuSans-61" x="363.818359"/>
     <use xlink:href="#DejaVuSans-74" x="425.097656"/>
     <use xlink:href="#DejaVuSans-65" x="464.306641"/>
     <use xlink:href="#DejaVuSans-2d" x="525.830078"/>
     <use xlink:href="#DejaVuSans-46" x="561.914062"/>
     <use xlink:href="#DejaVuSans-72" x="612.183594"/>
     <use xlink:href="#DejaVuSans-65" x="651.046875"/>
     <use xlink:href="#DejaVuSans-65" x="712.570312"/>
    </g>
   </g>
  </g>
 </g>
 <defs>
  <clipPath id="pf97087839d">
   <rect x="23.410313" y="22.318125" width="111.6" height="135.9"/>
  </clipPath>
 </defs>
</svg>
