<?xml version="1.0" encoding="utf-8" standalone="no"?>
<!DOCTYPE svg PUBLIC "-//W3C//DTD SVG 1.1//EN"
  "http://www.w3.org/Graphics/SVG/1.1/DTD/svg11.dtd">
<svg xmlns:xlink="http://www.w3.org/1999/xlink" width="214.750312pt" height="313.723125pt" viewBox="0 0 214.750312 313.723125" xmlns="http://www.w3.org/2000/svg" version="1.1">
 <metadata>
  <rdf:RDF xmlns:dc="http://purl.org/dc/elements/1.1/" xmlns:cc="http://creativecommons.org/ns#" xmlns:rdf="http://www.w3.org/1999/02/22-rdf-syntax-ns#">
   <cc:Work>
    <dc:type rdf:resource="http://purl.org/dc/dcmitype/StillImage"/>
    <dc:date>2023-07-18T12:40:30.497523</dc:date>
    <dc:format>image/svg+xml</dc:format>
    <dc:creator>
     <cc:Agent>
      <dc:title>Matplotlib v3.7.1, https://matplotlib.org/</dc:title>
     </cc:Agent>
    </dc:creator>
   </cc:Work>
  </rdf:RDF>
 </metadata>
 <defs>
  <style type="text/css">*{stroke-linejoin: round; stroke-linecap: butt}</style>
 </defs>
 <g id="figure_1">
  <g id="patch_1">
   <path d="M 0 313.723125 
L 214.750312 313.723125 
L 214.750312 0 
L 0 0 
z
" style="fill: #ffffff"/>
  </g>
  <g id="axes_1">
   <g id="patch_2">
    <path d="M 23.410313 279 
L 207.550313 279 
L 207.550313 7.2 
L 23.410313 7.2 
z
" style="fill: #ffffff"/>
   </g>
   <g id="matplotlib.axis_1">
    <g id="xtick_1">
     <g id="line2d_1">
      <defs>
       <path id="m8c954e5910" d="M 0 0 
L 0 3.5 
" style="stroke: #000000; stroke-width: 0.8"/>
      </defs>
      <g>
       <use xlink:href="#m8c954e5910" x="35.686313" y="279" style="stroke: #000000; stroke-width: 0.8"/>
      </g>
     </g>
     <g id="text_1">
      <!-- 8 -->
      <g transform="translate(33.141313 292.07875) scale(0.08 -0.08)">
       <defs>
        <path id="DejaVuSans-38" d="M 2034 2216 
Q 1584 2216 1326 1975 
Q 1069 1734 1069 1313 
Q 1069 891 1326 650 
Q 1584 409 2034 409 
Q 2484 409 2743 651 
Q 3003 894 3003 1313 
Q 3003 1734 2745 1975 
Q 2488 2216 2034 2216 
z
M 1403 2484 
Q 997 2584 770 2862 
Q 544 3141 544 3541 
Q 544 4100 942 4425 
Q 1341 4750 2034 4750 
Q 2731 4750 3128 4425 
Q 3525 4100 3525 3541 
Q 3525 3141 3298 2862 
Q 3072 2584 2669 2484 
Q 3125 2378 3379 2068 
Q 3634 1759 3634 1313 
Q 3634 634 3220 271 
Q 2806 -91 2034 -91 
Q 1263 -91 848 271 
Q 434 634 434 1313 
Q 434 1759 690 2068 
Q 947 2378 1403 2484 
z
M 1172 3481 
Q 1172 3119 1398 2916 
Q 1625 2713 2034 2713 
Q 2441 2713 2670 2916 
Q 2900 3119 2900 3481 
Q 2900 3844 2670 4047 
Q 2441 4250 2034 4250 
Q 1625 4250 1398 4047 
Q 1172 3844 1172 3481 
z
" transform="scale(0.015625)"/>
       </defs>
       <use xlink:href="#DejaVuSans-38"/>
      </g>
     </g>
    </g>
    <g id="xtick_2">
     <g id="line2d_2">
      <g>
       <use xlink:href="#m8c954e5910" x="84.790313" y="279" style="stroke: #000000; stroke-width: 0.8"/>
      </g>
     </g>
     <g id="text_2">
      <!-- 10 -->
      <g transform="translate(79.700313 292.07875) scale(0.08 -0.08)">
       <defs>
        <path id="DejaVuSans-31" d="M 794 531 
L 1825 531 
L 1825 4091 
L 703 3866 
L 703 4441 
L 1819 4666 
L 2450 4666 
L 2450 531 
L 3481 531 
L 3481 0 
L 794 0 
L 794 531 
z
" transform="scale(0.015625)"/>
        <path id="DejaVuSans-30" d="M 2034 4250 
Q 1547 4250 1301 3770 
Q 1056 3291 1056 2328 
Q 1056 1369 1301 889 
Q 1547 409 2034 409 
Q 2525 409 2770 889 
Q 3016 1369 3016 2328 
Q 3016 3291 2770 3770 
Q 2525 4250 2034 4250 
z
M 2034 4750 
Q 2819 4750 3233 4129 
Q 3647 3509 3647 2328 
Q 3647 1150 3233 529 
Q 2819 -91 2034 -91 
Q 1250 -91 836 529 
Q 422 1150 422 2328 
Q 422 3509 836 4129 
Q 1250 4750 2034 4750 
z
" transform="scale(0.015625)"/>
       </defs>
       <use xlink:href="#DejaVuSans-31"/>
       <use xlink:href="#DejaVuSans-30" x="63.623047"/>
      </g>
     </g>
    </g>
    <g id="xtick_3">
     <g id="line2d_3">
      <g>
       <use xlink:href="#m8c954e5910" x="133.894313" y="279" style="stroke: #000000; stroke-width: 0.8"/>
      </g>
     </g>
     <g id="text_3">
      <!-- 12 -->
      <g transform="translate(128.804313 292.07875) scale(0.08 -0.08)">
       <defs>
        <path id="DejaVuSans-32" d="M 1228 531 
L 3431 531 
L 3431 0 
L 469 0 
L 469 531 
Q 828 903 1448 1529 
Q 2069 2156 2228 2338 
Q 2531 2678 2651 2914 
Q 2772 3150 2772 3378 
Q 2772 3750 2511 3984 
Q 2250 4219 1831 4219 
Q 1534 4219 1204 4116 
Q 875 4013 500 3803 
L 500 4441 
Q 881 4594 1212 4672 
Q 1544 4750 1819 4750 
Q 2544 4750 2975 4387 
Q 3406 4025 3406 3419 
Q 3406 3131 3298 2873 
Q 3191 2616 2906 2266 
Q 2828 2175 2409 1742 
Q 1991 1309 1228 531 
z
" transform="scale(0.015625)"/>
       </defs>
       <use xlink:href="#DejaVuSans-31"/>
       <use xlink:href="#DejaVuSans-32" x="63.623047"/>
      </g>
     </g>
    </g>
    <g id="xtick_4">
     <g id="line2d_4">
      <g>
       <use xlink:href="#m8c954e5910" x="182.998313" y="279" style="stroke: #000000; stroke-width: 0.8"/>
      </g>
     </g>
     <g id="text_4">
      <!-- 14 -->
      <g transform="translate(177.908313 292.07875) scale(0.08 -0.08)">
       <defs>
        <path id="DejaVuSans-34" d="M 2419 4116 
L 825 1625 
L 2419 1625 
L 2419 4116 
z
M 2253 4666 
L 3047 4666 
L 3047 1625 
L 3713 1625 
L 3713 1100 
L 3047 1100 
L 3047 0 
L 2419 0 
L 2419 1100 
L 313 1100 
L 313 1709 
L 2253 4666 
z
" transform="scale(0.015625)"/>
       </defs>
       <use xlink:href="#DejaVuSans-31"/>
       <use xlink:href="#DejaVuSans-34" x="63.623047"/>
      </g>
     </g>
    </g>
    <g id="xtick_5">
     <g id="line2d_5">
      <defs>
       <path id="m51deeba53f" d="M 0 0 
L 0 2 
" style="stroke: #000000; stroke-width: 0.6"/>
      </defs>
      <g>
       <use xlink:href="#m51deeba53f" x="23.410313" y="279" style="stroke: #000000; stroke-width: 0.6"/>
      </g>
     </g>
    </g>
    <g id="xtick_6">
     <g id="line2d_6">
      <g>
       <use xlink:href="#m51deeba53f" x="146.170313" y="279" style="stroke: #000000; stroke-width: 0.6"/>
      </g>
     </g>
    </g>
    <g id="xtick_7">
     <g id="line2d_7">
      <g>
       <use xlink:href="#m51deeba53f" x="207.550313" y="279" style="stroke: #000000; stroke-width: 0.6"/>
      </g>
     </g>
    </g>
    <g id="text_5">
     <!-- 2θ (degrees) -->
     <g transform="translate(86.808984 304.651406) scale(0.09 -0.09)">
      <defs>
       <path id="DejaVuSans-3b8" d="M 2953 2219 
L 963 2219 
Q 1009 1284 1225 888 
Q 1494 400 1959 400 
Q 2428 400 2688 891 
Q 2916 1322 2953 2219 
z
M 2944 2750 
Q 2856 3638 2688 3950 
Q 2419 4444 1959 4444 
Q 1481 4444 1228 3956 
Q 1028 3563 969 2750 
L 2944 2750 
z
M 1959 4913 
Q 2709 4913 3138 4250 
Q 3566 3591 3566 2422 
Q 3566 1256 3138 594 
Q 2709 -72 1959 -72 
Q 1206 -72 781 594 
Q 353 1256 353 2422 
Q 353 3591 781 4250 
Q 1206 4913 1959 4913 
z
" transform="scale(0.015625)"/>
       <path id="DejaVuSans-20" transform="scale(0.015625)"/>
       <path id="DejaVuSans-28" d="M 1984 4856 
Q 1566 4138 1362 3434 
Q 1159 2731 1159 2009 
Q 1159 1288 1364 580 
Q 1569 -128 1984 -844 
L 1484 -844 
Q 1016 -109 783 600 
Q 550 1309 550 2009 
Q 550 2706 781 3412 
Q 1013 4119 1484 4856 
L 1984 4856 
z
" transform="scale(0.015625)"/>
       <path id="DejaVuSans-64" d="M 2906 2969 
L 2906 4863 
L 3481 4863 
L 3481 0 
L 2906 0 
L 2906 525 
Q 2725 213 2448 61 
Q 2172 -91 1784 -91 
Q 1150 -91 751 415 
Q 353 922 353 1747 
Q 353 2572 751 3078 
Q 1150 3584 1784 3584 
Q 2172 3584 2448 3432 
Q 2725 3281 2906 2969 
z
M 947 1747 
Q 947 1113 1208 752 
Q 1469 391 1925 391 
Q 2381 391 2643 752 
Q 2906 1113 2906 1747 
Q 2906 2381 2643 2742 
Q 2381 3103 1925 3103 
Q 1469 3103 1208 2742 
Q 947 2381 947 1747 
z
" transform="scale(0.015625)"/>
       <path id="DejaVuSans-65" d="M 3597 1894 
L 3597 1613 
L 953 1613 
Q 991 1019 1311 708 
Q 1631 397 2203 397 
Q 2534 397 2845 478 
Q 3156 559 3463 722 
L 3463 178 
Q 3153 47 2828 -22 
Q 2503 -91 2169 -91 
Q 1331 -91 842 396 
Q 353 884 353 1716 
Q 353 2575 817 3079 
Q 1281 3584 2069 3584 
Q 2775 3584 3186 3129 
Q 3597 2675 3597 1894 
z
M 3022 2063 
Q 3016 2534 2758 2815 
Q 2500 3097 2075 3097 
Q 1594 3097 1305 2825 
Q 1016 2553 972 2059 
L 3022 2063 
z
" transform="scale(0.015625)"/>
       <path id="DejaVuSans-67" d="M 2906 1791 
Q 2906 2416 2648 2759 
Q 2391 3103 1925 3103 
Q 1463 3103 1205 2759 
Q 947 2416 947 1791 
Q 947 1169 1205 825 
Q 1463 481 1925 481 
Q 2391 481 2648 825 
Q 2906 1169 2906 1791 
z
M 3481 434 
Q 3481 -459 3084 -895 
Q 2688 -1331 1869 -1331 
Q 1566 -1331 1297 -1286 
Q 1028 -1241 775 -1147 
L 775 -588 
Q 1028 -725 1275 -790 
Q 1522 -856 1778 -856 
Q 2344 -856 2625 -561 
Q 2906 -266 2906 331 
L 2906 616 
Q 2728 306 2450 153 
Q 2172 0 1784 0 
Q 1141 0 747 490 
Q 353 981 353 1791 
Q 353 2603 747 3093 
Q 1141 3584 1784 3584 
Q 2172 3584 2450 3431 
Q 2728 3278 2906 2969 
L 2906 3500 
L 3481 3500 
L 3481 434 
z
" transform="scale(0.015625)"/>
       <path id="DejaVuSans-72" d="M 2631 2963 
Q 2534 3019 2420 3045 
Q 2306 3072 2169 3072 
Q 1681 3072 1420 2755 
Q 1159 2438 1159 1844 
L 1159 0 
L 581 0 
L 581 3500 
L 1159 3500 
L 1159 2956 
Q 1341 3275 1631 3429 
Q 1922 3584 2338 3584 
Q 2397 3584 2469 3576 
Q 2541 3569 2628 3553 
L 2631 2963 
z
" transform="scale(0.015625)"/>
       <path id="DejaVuSans-73" d="M 2834 3397 
L 2834 2853 
Q 2591 2978 2328 3040 
Q 2066 3103 1784 3103 
Q 1356 3103 1142 2972 
Q 928 2841 928 2578 
Q 928 2378 1081 2264 
Q 1234 2150 1697 2047 
L 1894 2003 
Q 2506 1872 2764 1633 
Q 3022 1394 3022 966 
Q 3022 478 2636 193 
Q 2250 -91 1575 -91 
Q 1294 -91 989 -36 
Q 684 19 347 128 
L 347 722 
Q 666 556 975 473 
Q 1284 391 1588 391 
Q 1994 391 2212 530 
Q 2431 669 2431 922 
Q 2431 1156 2273 1281 
Q 2116 1406 1581 1522 
L 1381 1569 
Q 847 1681 609 1914 
Q 372 2147 372 2553 
Q 372 3047 722 3315 
Q 1072 3584 1716 3584 
Q 2034 3584 2315 3537 
Q 2597 3491 2834 3397 
z
" transform="scale(0.015625)"/>
       <path id="DejaVuSans-29" d="M 513 4856 
L 1013 4856 
Q 1481 4119 1714 3412 
Q 1947 2706 1947 2009 
Q 1947 1309 1714 600 
Q 1481 -109 1013 -844 
L 513 -844 
Q 928 -128 1133 580 
Q 1338 1288 1338 2009 
Q 1338 2731 1133 3434 
Q 928 4138 513 4856 
z
" transform="scale(0.015625)"/>
      </defs>
      <use xlink:href="#DejaVuSans-32"/>
      <use xlink:href="#DejaVuSans-3b8" x="63.623047"/>
      <use xlink:href="#DejaVuSans-20" x="124.804688"/>
      <use xlink:href="#DejaVuSans-28" x="156.591797"/>
      <use xlink:href="#DejaVuSans-64" x="195.605469"/>
      <use xlink:href="#DejaVuSans-65" x="259.082031"/>
      <use xlink:href="#DejaVuSans-67" x="320.605469"/>
      <use xlink:href="#DejaVuSans-72" x="384.082031"/>
      <use xlink:href="#DejaVuSans-65" x="422.945312"/>
      <use xlink:href="#DejaVuSans-65" x="484.46875"/>
      <use xlink:href="#DejaVuSans-73" x="545.992188"/>
      <use xlink:href="#DejaVuSans-29" x="598.091797"/>
     </g>
    </g>
   </g>
   <g id="matplotlib.axis_2">
    <g id="ytick_1">
     <g id="line2d_8"/>
    </g>
    <g id="ytick_2">
     <g id="line2d_9"/>
    </g>
    <g id="ytick_3">
     <g id="line2d_10"/>
    </g>
    <g id="ytick_4">
     <g id="line2d_11"/>
    </g>
    <g id="ytick_5">
     <g id="line2d_12"/>
    </g>
    <g id="text_6">
     <!-- Intensity -->
     <g transform="translate(14.038594 162.68625) rotate(-90) scale(0.09 -0.09)">
      <defs>
       <path id="DejaVuSans-49" d="M 628 4666 
L 1259 4666 
L 1259 0 
L 628 0 
L 628 4666 
z
" transform="scale(0.015625)"/>
       <path id="DejaVuSans-6e" d="M 3513 2113 
L 3513 0 
L 2938 0 
L 2938 2094 
Q 2938 2591 2744 2837 
Q 2550 3084 2163 3084 
Q 1697 3084 1428 2787 
Q 1159 2491 1159 1978 
L 1159 0 
L 581 0 
L 581 3500 
L 1159 3500 
L 1159 2956 
Q 1366 3272 1645 3428 
Q 1925 3584 2291 3584 
Q 2894 3584 3203 3211 
Q 3513 2838 3513 2113 
z
" transform="scale(0.015625)"/>
       <path id="DejaVuSans-74" d="M 1172 4494 
L 1172 3500 
L 2356 3500 
L 2356 3053 
L 1172 3053 
L 1172 1153 
Q 1172 725 1289 603 
Q 1406 481 1766 481 
L 2356 481 
L 2356 0 
L 1766 0 
Q 1100 0 847 248 
Q 594 497 594 1153 
L 594 3053 
L 172 3053 
L 172 3500 
L 594 3500 
L 594 4494 
L 1172 4494 
z
" transform="scale(0.015625)"/>
       <path id="DejaVuSans-69" d="M 603 3500 
L 1178 3500 
L 1178 0 
L 603 0 
L 603 3500 
z
M 603 4863 
L 1178 4863 
L 1178 4134 
L 603 4134 
L 603 4863 
z
" transform="scale(0.015625)"/>
       <path id="DejaVuSans-79" d="M 2059 -325 
Q 1816 -950 1584 -1140 
Q 1353 -1331 966 -1331 
L 506 -1331 
L 506 -850 
L 844 -850 
Q 1081 -850 1212 -737 
Q 1344 -625 1503 -206 
L 1606 56 
L 191 3500 
L 800 3500 
L 1894 763 
L 2988 3500 
L 3597 3500 
L 2059 -325 
z
" transform="scale(0.015625)"/>
      </defs>
      <use xlink:href="#DejaVuSans-49"/>
      <use xlink:href="#DejaVuSans-6e" x="29.492188"/>
      <use xlink:href="#DejaVuSans-74" x="92.871094"/>
      <use xlink:href="#DejaVuSans-65" x="132.080078"/>
      <use xlink:href="#DejaVuSans-6e" x="193.603516"/>
      <use xlink:href="#DejaVuSans-73" x="256.982422"/>
      <use xlink:href="#DejaVuSans-69" x="309.082031"/>
      <use xlink:href="#DejaVuSans-74" x="336.865234"/>
      <use xlink:href="#DejaVuSans-79" x="376.074219"/>
     </g>
    </g>
   </g>
   <g id="line2d_13">
    <path d="M 22.82655 184.337924 
L 23.471299 188.377558 
L 24.116049 185.628363 
L 24.760798 185.572257 
L 25.405548 186.357741 
L 26.050297 191.519495 
L 26.695046 192.697721 
L 27.339796 189.443572 
L 27.984545 189.724102 
L 28.629295 191.126753 
L 29.274044 190.45348 
L 29.918793 195.334704 
L 30.563543 192.417191 
L 31.208292 192.585509 
L 31.853042 197.747263 
L 32.497791 191.743919 
L 33.14254 191.295071 
L 33.78729 193.539311 
L 34.432039 193.539311 
L 35.076789 198.364429 
L 35.721538 192.080555 
L 36.366287 193.202675 
L 37.011037 197.578945 
L 37.655786 194.941962 
L 38.300536 201.618578 
L 38.945285 188.545876 
L 39.590034 201.281942 
L 40.234784 197.017885 
L 40.879533 199.76708 
L 41.524283 198.252217 
L 42.169032 199.037701 
L 42.813781 200.215928 
L 43.458531 204.199455 
L 44.10328 200.04761 
L 44.74803 203.077335 
L 45.392779 204.592197 
L 46.037528 203.413971 
L 46.682278 198.701065 
L 47.327027 200.272034 
L 47.971777 202.965123 
L 48.616526 204.367773 
L 49.261275 200.552564 
L 49.906025 201.674684 
L 51.195524 205.097151 
L 51.840273 204.087243 
L 52.485022 203.694501 
L 53.129772 205.602106 
L 53.774521 203.301759 
L 54.419271 205.433787 
L 55.06402 203.638395 
L 55.708769 208.463513 
L 56.353519 207.397498 
L 56.998268 206.94865 
L 57.643018 205.770424 
L 58.287767 212.671464 
L 58.932516 209.866163 
L 59.577266 207.958558 
L 60.222015 209.585633 
L 60.866765 208.407406 
L 61.511514 206.499802 
L 62.156263 209.024573 
L 62.801013 206.836438 
L 63.445762 207.79024 
L 64.090512 207.173074 
L 64.735261 208.687937 
L 65.38001 206.443696 
L 66.02476 204.872727 
L 66.669509 208.912361 
L 67.959008 206.050954 
L 68.603757 205.546 
L 69.248507 207.734134 
L 69.893256 204.536091 
L 70.538006 207.004756 
L 71.182755 202.909017 
L 71.827504 205.041045 
L 72.472254 204.536091 
L 73.117003 204.479985 
L 73.761753 205.265469 
L 74.406502 200.32814 
L 75.051251 202.123532 
L 75.696001 200.103716 
L 76.34075 200.384246 
L 76.9855 194.717538 
L 77.630249 198.588853 
L 78.274998 195.166386 
L 78.919748 193.595417 
L 79.564497 193.483205 
L 80.209247 181.420411 
L 80.853996 187.311543 
L 82.143495 172.667872 
L 82.788244 170.535843 
L 83.432994 165.317984 
L 84.077743 164.644711 
L 84.722492 163.242061 
L 85.367242 170.760268 
L 86.011991 170.255313 
L 86.656741 182.037577 
L 87.30149 186.077211 
L 87.946239 188.153134 
L 88.590989 192.473297 
L 89.235738 191.912237 
L 89.880488 194.212584 
L 90.525237 193.875947 
L 91.169986 197.130097 
L 91.814736 193.090463 
L 92.459485 193.875947 
L 93.104235 194.324796 
L 93.748984 197.242309 
L 94.393733 198.757171 
L 95.038483 196.849567 
L 95.683232 196.51293 
L 96.327982 196.456824 
L 96.972731 191.126753 
L 97.61748 191.800025 
L 98.26223 194.212584 
L 98.906979 193.370993 
L 99.551729 196.176294 
L 100.196478 194.54922 
L 100.841227 188.545876 
L 101.485977 189.836314 
L 102.130726 191.631707 
L 102.775476 191.912237 
L 103.420225 189.33136 
L 104.064974 185.572257 
L 104.709724 192.922145 
L 105.354473 193.932054 
L 105.999223 192.809933 
L 106.643972 186.694377 
L 107.288721 190.902328 
L 107.933471 188.7703 
L 108.57822 187.479861 
L 109.22297 188.826406 
L 109.867719 191.070647 
L 110.512468 185.179514 
L 111.157218 187.255437 
L 111.801967 182.43032 
L 112.446717 189.89242 
L 113.736215 186.077211 
L 114.380965 183.496334 
L 115.025714 181.532623 
L 115.670464 184.95509 
L 116.315213 185.067302 
L 116.959962 182.766956 
L 117.604712 183.27191 
L 118.249461 181.195987 
L 118.894211 178.390686 
L 119.53896 185.852787 
L 120.183709 184.95509 
L 120.828459 178.446792 
L 121.473208 176.539188 
L 122.117958 179.063958 
L 122.762707 179.288382 
L 123.407456 180.298291 
L 124.052206 182.374214 
L 124.696955 180.522715 
L 125.341705 184.786772 
L 125.986454 182.318108 
L 126.631203 182.093683 
L 127.920702 187.704285 
L 128.565452 185.684469 
L 129.210201 184.842878 
L 129.85495 186.133317 
L 130.4997 184.506242 
L 131.144449 189.836314 
L 131.789199 189.499678 
L 132.433948 189.89242 
L 133.078697 195.11028 
L 133.723447 194.437008 
L 134.368196 192.304979 
L 135.012946 198.308323 
L 135.657695 199.991504 
L 136.302444 195.222492 
L 136.947194 195.503022 
L 137.591943 202.909017 
L 138.236693 201.955214 
L 138.881442 198.701065 
L 139.526192 203.806713 
L 140.170941 204.984939 
L 140.81569 204.367773 
L 141.46044 206.219272 
L 142.105189 203.862819 
L 142.749938 206.94865 
L 143.394688 212.783676 
L 144.039437 209.529527 
L 144.684187 213.400842 
L 145.328936 213.737478 
L 145.973686 217.440476 
L 146.618435 210.090587 
L 147.263184 214.915705 
L 147.907934 216.150037 
L 148.552683 217.777112 
L 149.197433 216.879415 
L 149.842182 217.496582 
L 150.486931 217.608794 
L 151.131681 221.985063 
L 151.77643 218.562596 
L 152.42118 220.021352 
L 153.065929 221.985063 
L 153.710678 222.938865 
L 154.355428 227.090711 
L 155.000177 220.526307 
L 155.644927 218.057642 
L 156.289676 225.40753 
L 156.934425 226.697969 
L 157.579175 225.856378 
L 158.223924 224.622046 
L 158.868674 225.68806 
L 159.513423 227.876195 
L 160.158172 227.539559 
L 160.802922 227.539559 
L 161.447671 229.727694 
L 162.092421 225.295318 
L 162.73717 226.361333 
L 163.381919 226.361333 
L 164.026669 227.763983 
L 164.671418 225.968591 
L 165.316168 227.876195 
L 165.960917 228.829998 
L 166.605666 231.018132 
L 167.250416 231.46698 
L 167.895165 231.410874 
L 168.539915 230.288754 
L 169.184664 230.232648 
L 169.829413 231.242556 
L 170.474163 229.952118 
L 171.118912 230.176542 
L 171.763662 231.018132 
L 172.408411 231.579192 
L 173.05316 230.34486 
L 173.69791 230.176542 
L 174.342659 228.100619 
L 174.987409 231.018132 
L 175.632158 228.044513 
L 176.276907 229.615482 
L 176.921657 227.707877 
L 177.566406 226.193015 
L 178.211156 223.331608 
L 178.855905 217.38437 
L 179.500654 218.169854 
L 180.145404 213.737478 
L 180.790153 207.902452 
L 181.434903 205.602106 
L 182.079652 197.017885 
L 182.724401 193.483205 
L 183.369151 198.027793 
L 184.65865 210.146693 
L 185.948148 226.193015 
L 186.592898 226.922393 
L 187.237647 230.569284 
L 187.882397 229.110528 
L 188.527146 231.859723 
L 189.171895 230.737602 
L 189.816645 234.160069 
L 190.461394 232.925737 
L 191.106144 234.833342 
L 192.395642 235.450508 
L 193.040392 233.655115 
L 194.329891 238.143597 
L 194.97464 236.011568 
L 195.619389 235.84325 
L 196.264139 236.460416 
L 196.908888 237.414218 
L 197.553638 236.516522 
L 198.198387 238.592445 
L 198.843136 238.648551 
L 199.487886 239.434035 
L 200.132635 236.516522 
L 200.777385 238.368021 
L 201.422134 236.516522 
L 202.066883 238.424127 
L 202.711633 235.56272 
L 203.356382 233.542903 
L 204.001132 236.12378 
L 204.645881 235.56272 
L 205.29063 237.638643 
L 205.93538 234.496705 
L 206.580129 233.935645 
L 207.224879 234.216175 
L 207.869628 232.084147 
L 207.869628 232.084147 
" clip-path="url(#pc342b9d3c3)" style="fill: none; stroke: #c76f0a; stroke-width: 0.5; stroke-linecap: square"/>
   </g>
   <g id="line2d_14">
    <path d="M 22.82655 199.037701 
L 23.471299 204.536091 
L 24.116049 202.123532 
L 24.760798 203.638395 
L 25.405548 198.308323 
L 26.050297 202.740699 
L 26.695046 204.367773 
L 27.339796 203.750607 
L 27.984545 200.215928 
L 28.629295 200.103716 
L 29.274044 204.423879 
L 29.918793 197.578945 
L 30.563543 202.404062 
L 31.208292 203.245653 
L 31.853042 198.083899 
L 32.497791 199.710973 
L 33.14254 199.76708 
L 33.78729 202.235744 
L 34.432039 202.29185 
L 35.076789 204.984939 
L 35.721538 202.57238 
L 36.366287 207.621922 
L 37.011037 202.067426 
L 37.655786 200.04761 
L 38.300536 200.159822 
L 38.945285 205.770424 
L 39.590034 201.786896 
L 40.234784 203.526183 
L 40.879533 199.654867 
L 41.524283 205.097151 
L 42.169032 199.710973 
L 42.813781 202.965123 
L 43.458531 202.740699 
L 44.10328 200.32814 
L 44.74803 204.423879 
L 45.392779 202.628486 
L 46.037528 202.179638 
L 46.682278 200.776988 
L 47.327027 201.225836 
L 47.971777 200.32814 
L 48.616526 204.592197 
L 49.261275 199.710973 
L 49.906025 200.833094 
L 51.195524 205.82653 
L 51.840273 205.377681 
L 52.485022 200.945306 
L 53.129772 200.60867 
L 53.774521 204.984939 
L 54.419271 200.04761 
L 55.06402 202.29185 
L 55.708769 205.882636 
L 56.353519 200.60867 
L 56.998268 205.153257 
L 57.643018 208.239088 
L 58.287767 204.199455 
L 58.932516 199.262125 
L 59.577266 199.935398 
L 60.222015 203.357865 
L 61.511514 201.674684 
L 62.156263 199.542655 
L 62.801013 204.592197 
L 64.735261 199.093807 
L 65.38001 198.813277 
L 66.02476 200.272034 
L 66.669509 204.087243 
L 67.314259 197.017885 
L 67.959008 201.281942 
L 68.603757 197.635051 
L 69.248507 198.476641 
L 69.893256 197.859475 
L 70.538006 197.859475 
L 71.182755 197.578945 
L 71.827504 202.628486 
L 72.472254 201.394154 
L 73.117003 199.879292 
L 73.761753 200.32814 
L 74.406502 200.04761 
L 75.051251 194.380902 
L 75.696001 197.803369 
L 76.34075 197.410627 
L 76.9855 199.037701 
L 77.630249 197.466733 
L 78.274998 196.400718 
L 78.919748 194.605326 
L 79.564497 194.661432 
L 80.209247 197.017885 
L 80.853996 194.54922 
L 81.498745 194.380902 
L 82.143495 191.519495 
L 82.788244 192.080555 
L 83.432994 192.248873 
L 84.077743 195.559128 
L 85.367242 191.126753 
L 86.011991 193.651523 
L 86.656741 190.060738 
L 87.30149 191.743919 
L 87.946239 190.902328 
L 88.590989 185.460045 
L 89.235738 186.245529 
L 89.880488 191.687813 
L 90.525237 190.73401 
L 91.169986 192.304979 
L 91.814736 186.413847 
L 92.459485 187.648179 
L 93.104235 189.780208 
L 93.748984 189.89242 
L 94.393733 186.918801 
L 95.038483 192.585509 
L 95.683232 187.143225 
L 96.327982 187.367649 
L 96.972731 182.879168 
L 97.61748 191.182859 
L 98.26223 185.572257 
L 98.906979 190.73401 
L 99.551729 183.720758 
L 100.196478 181.252093 
L 100.841227 181.532623 
L 102.775476 189.780208 
L 103.420225 186.245529 
L 104.064974 187.816497 
L 104.709724 185.740575 
L 105.354473 181.420411 
L 105.999223 182.99138 
L 106.643972 182.99138 
L 107.288721 183.440228 
L 107.933471 180.578821 
L 108.57822 183.103592 
L 109.22297 184.450136 
L 109.867719 177.661308 
L 110.512468 179.456701 
L 111.157218 184.39403 
L 111.801967 184.337924 
L 112.446717 179.456701 
L 113.091466 182.43032 
L 113.736215 188.153134 
L 114.380965 184.337924 
L 115.025714 181.364305 
L 115.670464 184.225712 
L 116.315213 176.483081 
L 116.959962 179.961655 
L 117.604712 181.420411 
L 118.249461 178.839534 
L 118.894211 183.664652 
L 119.53896 180.410503 
L 120.828459 184.95509 
L 121.473208 180.466609 
L 122.117958 185.347833 
L 122.762707 183.215804 
L 123.407456 186.077211 
L 124.052206 186.021105 
L 124.696955 184.730666 
L 125.341705 182.879168 
L 125.986454 185.516151 
L 126.631203 182.037577 
L 127.275953 185.291727 
L 127.920702 186.357741 
L 128.565452 187.984815 
L 129.210201 185.740575 
L 129.85495 184.450136 
L 130.4997 188.545876 
L 131.144449 189.05083 
L 131.789199 192.697721 
L 132.433948 186.638271 
L 133.078697 188.265346 
L 133.723447 187.367649 
L 134.368196 193.258781 
L 135.012946 193.034357 
L 135.657695 189.89242 
L 136.302444 196.120188 
L 136.947194 198.420535 
L 137.591943 198.308323 
L 138.236693 192.866039 
L 138.881442 196.79346 
L 139.526192 194.941962 
L 140.170941 198.476641 
L 140.81569 196.625142 
L 141.46044 196.625142 
L 142.105189 197.971687 
L 142.749938 200.720882 
L 143.394688 200.60867 
L 144.039437 198.252217 
L 144.684187 202.740699 
L 145.328936 201.674684 
L 145.973686 198.532747 
L 146.618435 204.592197 
L 147.263184 207.678028 
L 147.907934 200.32814 
L 148.552683 202.235744 
L 149.197433 205.433787 
L 149.842182 204.536091 
L 150.486931 202.123532 
L 151.131681 207.79024 
L 151.77643 206.275378 
L 152.42118 206.612014 
L 153.065929 206.612014 
L 153.710678 202.684593 
L 154.355428 211.156601 
L 155.000177 209.922269 
L 155.644927 210.876071 
L 156.289676 208.463513 
L 157.579175 210.315011 
L 158.223924 208.407406 
L 158.868674 212.951994 
L 159.513423 212.671464 
L 160.158172 217.496582 
L 160.802922 214.691281 
L 161.447671 215.252341 
L 162.092421 218.78702 
L 162.73717 218.50649 
L 163.381919 217.216052 
L 164.026669 217.159946 
L 164.671418 216.430567 
L 165.316168 216.037825 
L 165.960917 216.542779 
L 166.605666 216.767203 
L 167.250416 215.140129 
L 167.895165 219.460292 
L 168.539915 217.216052 
L 169.184664 219.34808 
L 169.829413 215.084023 
L 170.474163 222.938865 
L 171.118912 219.404186 
L 171.763662 217.216052 
L 173.05316 221.592321 
L 173.69791 222.153381 
L 174.342659 223.387714 
L 175.632158 222.041169 
L 176.276907 224.117092 
L 176.921657 224.509834 
L 177.566406 225.519742 
L 178.211156 222.770547 
L 178.855905 221.031261 
L 179.500654 221.367897 
L 180.145404 226.136909 
L 180.790153 222.770547 
L 181.434903 224.173198 
L 182.724401 225.631954 
L 183.369151 226.080803 
L 184.0139 226.080803 
L 184.65865 225.68806 
L 185.303399 226.193015 
L 185.948148 227.932301 
L 186.592898 227.202923 
L 187.237647 224.678152 
L 187.882397 225.014788 
L 188.527146 226.866287 
L 189.171895 224.678152 
L 189.816645 228.493361 
L 190.461394 229.7838 
L 191.106144 227.820089 
L 191.750893 228.044513 
L 192.395642 228.493361 
L 193.040392 224.117092 
L 193.685141 230.400966 
L 194.329891 229.110528 
L 194.97464 225.575848 
L 195.619389 227.932301 
L 196.264139 231.130344 
L 196.908888 228.773892 
L 197.553638 229.615482 
L 198.843136 227.820089 
L 199.487886 230.962026 
L 200.132635 229.952118 
L 200.777385 230.62539 
L 201.422134 227.483453 
L 202.066883 230.90592 
L 202.711633 229.110528 
L 203.356382 232.645207 
L 204.001132 230.288754 
L 204.645881 231.971935 
L 205.29063 231.747511 
L 205.93538 230.737602 
L 206.580129 234.272281 
L 207.224879 233.262373 
L 207.869628 229.7838 
L 207.869628 229.7838 
" clip-path="url(#pc342b9d3c3)" style="fill: none; stroke: #626161; stroke-width: 0.5; stroke-linecap: square"/>
   </g>
   <g id="line2d_15">
    <path d="M 22.82655 190.341268 
L 23.471299 186.974907 
L 24.116049 185.067302 
L 24.760798 190.116844 
L 25.405548 187.255437 
L 26.050297 190.229056 
L 26.695046 189.163042 
L 27.339796 192.136661 
L 27.984545 188.040921 
L 28.629295 190.397374 
L 29.274044 189.275254 
L 29.918793 185.460045 
L 30.563543 191.014541 
L 31.208292 192.136661 
L 31.853042 194.493114 
L 32.497791 188.265346 
L 33.14254 192.809933 
L 33.78729 193.202675 
L 34.432039 186.301635 
L 35.076789 189.163042 
L 35.721538 189.443572 
L 36.366287 193.595417 
L 37.011037 188.20924 
L 37.655786 189.387466 
L 38.300536 193.034357 
L 38.945285 187.423755 
L 39.590034 192.417191 
L 40.234784 187.928709 
L 40.879533 193.034357 
L 41.524283 186.750483 
L 42.169032 189.219148 
L 42.813781 192.866039 
L 43.458531 192.809933 
L 44.10328 189.61189 
L 44.74803 196.064082 
L 45.392779 192.136661 
L 46.037528 196.176294 
L 46.682278 190.73401 
L 47.327027 189.163042 
L 47.971777 191.014541 
L 48.616526 195.166386 
L 49.261275 193.707629 
L 49.906025 193.98816 
L 50.550774 191.351177 
L 51.195524 194.661432 
L 51.840273 192.585509 
L 52.485022 191.519495 
L 53.129772 194.26869 
L 53.774521 195.054174 
L 54.419271 192.248873 
L 55.06402 193.875947 
L 55.708769 191.575601 
L 56.353519 191.463389 
L 56.998268 195.334704 
L 58.287767 190.004632 
L 58.932516 196.737354 
L 59.577266 190.790116 
L 60.222015 191.014541 
L 60.866765 190.229056 
L 61.511514 191.743919 
L 62.156263 191.519495 
L 62.801013 192.697721 
L 63.445762 189.443572 
L 64.090512 195.615234 
L 64.735261 198.925489 
L 65.38001 195.503022 
L 66.02476 197.017885 
L 66.669509 194.044266 
L 67.314259 196.400718 
L 67.959008 194.26869 
L 68.603757 188.321452 
L 69.248507 191.631707 
L 69.893256 188.7703 
L 70.538006 192.809933 
L 71.827504 192.361085 
L 72.472254 196.961779 
L 73.117003 191.295071 
L 73.761753 194.82975 
L 74.406502 194.100372 
L 75.051251 195.278598 
L 75.696001 193.146569 
L 76.34075 195.503022 
L 76.9855 192.361085 
L 77.630249 191.519495 
L 78.274998 193.763735 
L 78.919748 195.054174 
L 79.564497 191.800025 
L 80.209247 194.54922 
L 80.853996 194.044266 
L 81.498745 196.288506 
L 82.143495 190.45348 
L 82.788244 194.380902 
L 83.432994 195.11028 
L 84.077743 189.443572 
L 84.722492 190.958434 
L 85.367242 192.809933 
L 86.011991 195.222492 
L 86.656741 195.278598 
L 87.30149 191.856131 
L 87.946239 191.238965 
L 88.590989 194.605326 
L 89.235738 194.773644 
L 89.880488 194.437008 
L 90.525237 198.644959 
L 91.169986 192.080555 
L 91.814736 194.54922 
L 92.459485 192.473297 
L 93.104235 193.763735 
L 93.748984 188.714194 
L 94.393733 191.575601 
L 95.038483 195.95187 
L 95.683232 196.120188 
L 96.327982 193.707629 
L 96.972731 195.39081 
L 97.61748 195.11028 
L 98.26223 191.631707 
L 98.906979 194.717538 
L 99.551729 194.26869 
L 100.196478 193.651523 
L 100.841227 194.773644 
L 101.485977 193.483205 
L 102.130726 194.100372 
L 102.775476 195.67134 
L 103.420225 193.819841 
L 104.064974 191.295071 
L 104.709724 197.130097 
L 105.354473 194.044266 
L 105.999223 191.968343 
L 106.643972 191.407283 
L 107.288721 193.146569 
L 108.57822 195.446916 
L 109.22297 191.968343 
L 109.867719 196.961779 
L 110.512468 195.446916 
L 111.157218 199.093807 
L 111.801967 195.783552 
L 112.446717 193.090463 
L 113.091466 193.763735 
L 113.736215 190.621798 
L 115.025714 194.100372 
L 115.670464 194.998068 
L 116.315213 194.380902 
L 116.959962 197.073991 
L 117.604712 193.314887 
L 118.249461 196.344612 
L 118.894211 196.961779 
L 119.53896 195.559128 
L 120.183709 198.813277 
L 120.828459 198.476641 
L 121.473208 197.635051 
L 122.117958 192.641615 
L 122.762707 197.691157 
L 123.407456 199.710973 
L 124.052206 200.04761 
L 124.696955 196.961779 
L 125.341705 198.140005 
L 125.986454 202.347956 
L 126.631203 197.410627 
L 127.275953 200.833094 
L 127.920702 200.833094 
L 128.565452 202.684593 
L 129.210201 201.225836 
L 129.85495 198.813277 
L 130.4997 200.720882 
L 131.144449 201.394154 
L 131.789199 202.235744 
L 132.433948 202.347956 
L 133.078697 201.618578 
L 133.723447 200.552564 
L 134.368196 202.460168 
L 135.012946 201.394154 
L 135.657695 207.453604 
L 136.302444 208.519619 
L 136.947194 209.248997 
L 137.591943 204.255561 
L 138.236693 206.94865 
L 138.881442 208.07077 
L 139.526192 205.602106 
L 140.81569 208.912361 
L 141.46044 208.575725 
L 142.105189 212.951994 
L 142.749938 205.489893 
L 143.394688 210.483329 
L 144.039437 208.968467 
L 144.684187 211.044389 
L 145.328936 207.22918 
L 145.973686 206.780332 
L 147.263184 210.595541 
L 147.907934 209.585633 
L 148.552683 212.16651 
L 149.197433 212.222616 
L 149.842182 213.56916 
L 150.486931 208.856255 
L 151.131681 212.895888 
L 151.77643 211.212707 
L 152.42118 212.839782 
L 153.065929 212.72757 
L 153.710678 212.895888 
L 154.355428 212.222616 
L 155.000177 213.400842 
L 155.644927 216.823309 
L 156.289676 210.932177 
L 156.934425 213.84969 
L 158.223924 211.156601 
L 158.868674 218.674808 
L 159.513423 215.645083 
L 160.158172 216.206143 
L 160.802922 213.625266 
L 161.447671 213.456948 
L 162.092421 216.654991 
L 162.73717 217.552688 
L 163.381919 217.216052 
L 164.026669 216.654991 
L 164.671418 219.460292 
L 165.316168 216.542779 
L 165.960917 219.404186 
L 166.605666 217.159946 
L 167.250416 217.496582 
L 167.895165 216.879415 
L 168.539915 215.701189 
L 169.184664 218.22596 
L 169.829413 219.965246 
L 170.474163 222.658335 
L 171.118912 219.62861 
L 171.763662 220.189671 
L 172.408411 222.658335 
L 173.69791 219.235868 
L 174.342659 221.199579 
L 174.987409 220.021352 
L 175.632158 220.638519 
L 176.276907 224.117092 
L 176.921657 218.50649 
L 177.566406 218.394278 
L 178.211156 218.001536 
L 178.855905 222.602229 
L 179.500654 222.377805 
L 180.145404 222.377805 
L 180.790153 223.499926 
L 181.434903 223.836562 
L 182.079652 220.638519 
L 182.724401 221.087367 
L 183.369151 222.938865 
L 184.0139 222.209487 
L 184.65865 224.509834 
L 185.303399 224.173198 
L 185.948148 224.678152 
L 186.592898 226.024697 
L 187.237647 226.080803 
L 187.882397 226.641863 
L 188.527146 223.836562 
L 189.171895 224.060986 
L 189.816645 225.127 
L 190.461394 223.836562 
L 191.106144 227.146817 
L 191.750893 226.810181 
L 192.395642 226.754075 
L 193.040392 226.585757 
L 193.685141 222.209487 
L 194.329891 227.034605 
L 194.97464 224.734258 
L 195.619389 225.463636 
L 196.264139 224.678152 
L 197.553638 224.622046 
L 198.198387 225.575848 
L 198.843136 226.305227 
L 199.487886 227.595665 
L 200.132635 224.117092 
L 200.777385 229.334952 
L 201.422134 226.249121 
L 202.066883 226.080803 
L 202.711633 226.529651 
L 203.356382 225.631954 
L 204.001132 225.127 
L 204.645881 224.173198 
L 205.29063 229.896012 
L 205.93538 228.381149 
L 206.580129 228.100619 
L 207.224879 229.727694 
L 207.869628 229.054422 
L 207.869628 229.054422 
" clip-path="url(#pc342b9d3c3)" style="fill: none; stroke: #000000; stroke-width: 0.5; stroke-linecap: square"/>
   </g>
   <g id="line2d_16">
    <path d="M 22.82655 194.212584 
L 23.471299 196.176294 
L 24.116049 195.895764 
L 24.760798 198.757171 
L 25.405548 198.252217 
L 26.050297 196.007976 
L 26.695046 192.529403 
L 27.339796 199.76708 
L 27.984545 195.39081 
L 28.629295 197.073991 
L 29.274044 200.272034 
L 29.918793 195.39081 
L 30.563543 194.26869 
L 31.208292 197.803369 
L 31.853042 189.836314 
L 32.497791 197.130097 
L 33.14254 193.763735 
L 33.78729 193.146569 
L 34.432039 197.691157 
L 35.076789 195.503022 
L 35.721538 196.400718 
L 36.366287 196.625142 
L 37.655786 195.895764 
L 38.300536 197.466733 
L 39.590034 192.361085 
L 40.879533 198.027793 
L 41.524283 199.654867 
L 42.169032 196.849567 
L 42.813781 196.007976 
L 43.458531 196.064082 
L 44.10328 198.252217 
L 44.74803 198.757171 
L 45.392779 196.344612 
L 46.037528 196.961779 
L 46.682278 199.991504 
L 47.327027 196.2324 
L 47.971777 198.757171 
L 49.261275 193.707629 
L 49.906025 197.578945 
L 50.550774 194.661432 
L 51.195524 196.681248 
L 51.840273 193.034357 
L 52.485022 197.354521 
L 53.129772 194.54922 
L 53.774521 196.344612 
L 54.419271 196.905673 
L 55.06402 193.034357 
L 55.708769 198.196111 
L 56.353519 191.070647 
L 56.998268 196.569036 
L 57.643018 192.753827 
L 58.287767 194.156478 
L 58.932516 196.456824 
L 59.577266 194.941962 
L 60.222015 193.034357 
L 60.866765 192.529403 
L 61.511514 190.17295 
L 62.156263 194.044266 
L 62.801013 193.932054 
L 63.445762 191.912237 
L 64.735261 189.836314 
L 65.38001 191.463389 
L 66.02476 190.45348 
L 66.669509 186.694377 
L 67.314259 193.539311 
L 67.959008 191.800025 
L 68.603757 188.882512 
L 69.248507 189.724102 
L 69.893256 190.790116 
L 70.538006 192.585509 
L 71.182755 184.95509 
L 71.827504 190.677904 
L 72.472254 188.938618 
L 73.117003 185.852787 
L 73.761753 184.281818 
L 74.406502 185.796681 
L 75.051251 187.704285 
L 75.696001 187.704285 
L 76.34075 183.889076 
L 76.9855 189.948526 
L 77.630249 188.153134 
L 78.274998 181.364305 
L 78.919748 183.27191 
L 79.564497 183.55244 
L 80.209247 179.344488 
L 80.853996 186.133317 
L 81.498745 180.747139 
L 82.143495 180.915457 
L 82.788244 183.889076 
L 83.432994 180.915457 
L 84.077743 181.364305 
L 84.722492 181.308199 
L 85.367242 181.588729 
L 86.011991 177.661308 
L 87.30149 173.846099 
L 87.946239 175.417067 
L 88.590989 170.591949 
L 89.235738 173.733887 
L 89.880488 169.133193 
L 90.525237 169.469829 
L 91.169986 170.479737 
L 91.814736 170.143101 
L 92.459485 170.423631 
L 93.104235 169.413723 
L 93.748984 169.638147 
L 94.393733 170.030889 
L 95.038483 169.638147 
L 96.327982 164.588605 
L 96.972731 167.113376 
L 97.61748 163.747015 
L 98.26223 166.888952 
L 98.906979 158.641367 
L 99.551729 167.001164 
L 100.196478 163.915333 
L 100.841227 163.803121 
L 101.485977 164.251969 
L 102.130726 160.99782 
L 102.775476 160.661184 
L 103.420225 162.568789 
L 104.064974 162.681001 
L 104.709724 161.671092 
L 105.354473 161.55888 
L 105.999223 159.763488 
L 106.643972 159.034109 
L 107.288721 159.763488 
L 107.933471 156.845975 
L 109.22297 154.489522 
L 109.867719 163.298167 
L 110.512468 154.93837 
L 111.157218 154.152886 
L 111.801967 159.370746 
L 112.446717 152.581917 
L 113.091466 159.370746 
L 113.736215 154.770052 
L 114.380965 161.166138 
L 115.025714 158.697473 
L 115.670464 160.548972 
L 116.315213 159.651276 
L 116.959962 154.826158 
L 117.604712 155.387218 
L 118.249461 160.492866 
L 118.894211 159.763488 
L 119.53896 161.55888 
L 120.183709 158.360837 
L 120.828459 161.502774 
L 121.473208 156.228809 
L 122.117958 158.416943 
L 122.762707 159.034109 
L 123.407456 167.225588 
L 124.052206 165.93515 
L 124.696955 165.598514 
L 125.341705 166.440104 
L 125.986454 165.766832 
L 126.631203 166.832846 
L 127.275953 171.265222 
L 128.565452 170.816374 
L 129.85495 175.809809 
L 130.4997 177.605202 
L 131.144449 174.407159 
L 131.789199 173.565568 
L 132.433948 176.146445 
L 133.078697 174.294947 
L 133.723447 177.156354 
L 134.368196 177.044142 
L 135.012946 183.496334 
L 135.657695 180.242185 
L 136.302444 188.7703 
L 136.947194 184.169606 
L 137.591943 185.123408 
L 138.236693 187.872603 
L 138.881442 183.720758 
L 139.526192 188.040921 
L 140.170941 190.004632 
L 140.81569 188.994724 
L 141.46044 194.324796 
L 142.105189 193.090463 
L 142.749938 192.136661 
L 143.394688 190.790116 
L 144.039437 194.156478 
L 144.684187 190.45348 
L 145.328936 196.905673 
L 145.973686 195.446916 
L 146.618435 198.364429 
L 147.263184 203.301759 
L 147.907934 196.849567 
L 148.552683 197.747263 
L 149.842182 203.077335 
L 150.486931 197.915581 
L 151.131681 203.975031 
L 152.42118 199.206019 
L 153.065929 202.628486 
L 153.710678 204.760515 
L 154.355428 208.014664 
L 155.000177 208.3513 
L 155.644927 207.060862 
L 156.289676 207.79024 
L 156.934425 208.295194 
L 157.579175 209.529527 
L 158.223924 208.182982 
L 158.868674 210.876071 
L 159.513423 210.988283 
L 160.158172 206.892544 
L 160.802922 211.998192 
L 161.447671 214.691281 
L 162.092421 212.503146 
L 162.73717 213.625266 
L 163.381919 210.988283 
L 164.026669 215.813401 
L 164.671418 213.681372 
L 165.316168 214.971811 
L 165.960917 217.216052 
L 166.605666 215.252341 
L 167.250416 216.879415 
L 167.895165 216.430567 
L 168.539915 217.552688 
L 169.184664 218.450384 
L 169.829413 215.981719 
L 170.474163 219.291974 
L 171.118912 219.235868 
L 171.763662 216.879415 
L 173.05316 222.321699 
L 173.69791 222.041169 
L 174.342659 220.806837 
L 174.987409 224.509834 
L 175.632158 222.097275 
L 176.276907 222.546123 
L 176.921657 224.00488 
L 177.566406 222.041169 
L 178.211156 221.143473 
L 178.855905 221.255685 
L 179.500654 220.750731 
L 180.145404 225.014788 
L 180.790153 224.902576 
L 181.434903 224.173198 
L 182.079652 224.84647 
L 182.724401 225.070894 
L 183.369151 226.417439 
L 184.0139 223.612138 
L 184.65865 226.754075 
L 185.303399 227.876195 
L 185.948148 226.529651 
L 186.592898 228.549467 
L 187.237647 223.331608 
L 187.882397 230.849814 
L 188.527146 223.612138 
L 189.171895 228.661679 
L 189.816645 225.295318 
L 191.106144 227.595665 
L 191.750893 228.212831 
L 192.395642 228.549467 
L 193.040392 227.595665 
L 193.685141 229.22274 
L 194.97464 229.952118 
L 195.619389 228.605573 
L 196.264139 228.886104 
L 196.908888 228.437255 
L 198.198387 231.298662 
L 198.843136 230.232648 
L 199.487886 227.259029 
L 200.132635 226.866287 
L 200.777385 230.62539 
L 201.422134 230.232648 
L 202.066883 232.981843 
L 202.711633 232.701313 
L 203.356382 228.661679 
L 204.001132 231.410874 
L 204.645881 229.22274 
L 205.29063 229.952118 
L 205.93538 229.896012 
L 206.580129 230.793708 
L 207.224879 231.298662 
L 207.869628 230.457072 
L 207.869628 230.457072 
" clip-path="url(#pc342b9d3c3)" style="fill: none; stroke: #58a265; stroke-width: 0.5; stroke-linecap: square"/>
   </g>
   <g id="line2d_17">
    <path d="M 22.82655 160.100124 
L 23.471299 159.987912 
L 24.116049 163.185955 
L 24.760798 160.885608 
L 25.405548 162.905425 
L 26.050297 162.400471 
L 26.695046 164.083651 
L 27.339796 167.674436 
L 27.984545 160.268442 
L 28.629295 166.720634 
L 29.274044 166.552316 
L 29.918793 168.459921 
L 30.563543 168.852663 
L 31.208292 169.413723 
L 31.853042 166.271786 
L 32.497791 170.423631 
L 33.14254 166.945058 
L 33.78729 174.519371 
L 34.432039 172.050706 
L 35.076789 171.71407 
L 35.721538 172.106812 
L 36.366287 175.529279 
L 37.011037 169.245405 
L 37.655786 175.192643 
L 38.300536 176.090339 
L 38.945285 170.984692 
L 39.590034 176.483081 
L 40.234784 177.268566 
L 40.879533 169.469829 
L 41.524283 175.417067 
L 42.813781 181.813153 
L 43.458531 178.390686 
L 44.10328 178.390686 
L 44.74803 184.001288 
L 45.392779 182.879168 
L 46.037528 180.017761 
L 46.682278 181.364305 
L 47.327027 177.885732 
L 47.971777 177.605202 
L 48.616526 184.562348 
L 49.261275 178.222368 
L 49.906025 181.925365 
L 50.550774 179.288382 
L 51.195524 181.644835 
L 51.840273 178.839534 
L 52.485022 181.308199 
L 53.129772 184.67456 
L 53.774521 179.737231 
L 54.419271 179.737231 
L 55.06402 186.526059 
L 55.708769 182.598638 
L 56.353519 181.139881 
L 56.998268 183.496334 
L 57.643018 184.057394 
L 58.287767 180.466609 
L 58.932516 182.823062 
L 59.577266 182.935274 
L 60.222015 181.532623 
L 61.511514 183.440228 
L 62.156263 183.776864 
L 62.801013 178.89564 
L 63.445762 176.875824 
L 64.090512 182.71085 
L 64.735261 182.037577 
L 65.38001 183.83297 
L 66.02476 187.087119 
L 66.669509 184.1135 
L 67.314259 178.05405 
L 67.959008 185.291727 
L 68.603757 182.149789 
L 69.248507 177.997944 
L 69.893256 181.588729 
L 70.538006 180.017761 
L 71.182755 180.803245 
L 71.827504 181.308199 
L 72.472254 182.542532 
L 73.117003 178.390686 
L 73.761753 176.707506 
L 75.051251 176.763612 
L 75.696001 176.258657 
L 76.34075 175.248749 
L 76.9855 180.915457 
L 77.630249 176.988036 
L 78.274998 175.136537 
L 78.919748 174.968219 
L 79.564497 174.126629 
L 80.209247 173.902205 
L 80.853996 174.799901 
L 81.498745 169.806465 
L 82.143495 173.172826 
L 82.788244 170.928586 
L 83.432994 167.001164 
L 84.077743 170.367525 
L 84.722492 168.796557 
L 85.367242 171.377434 
L 86.011991 172.892296 
L 86.656741 167.562224 
L 87.30149 166.77674 
L 87.946239 161.110032 
L 88.590989 164.083651 
L 89.235738 163.803121 
L 90.525237 156.565445 
L 91.169986 162.344365 
L 91.814736 161.390562 
L 93.104235 154.09678 
L 93.748984 151.123161 
L 94.393733 156.341021 
L 95.038483 153.367402 
L 95.683232 152.525811 
L 96.327982 152.694129 
L 96.972731 151.964751 
L 97.61748 147.812906 
L 98.26223 147.925118 
L 98.906979 141.753456 
L 99.551729 145.063711 
L 100.196478 144.895393 
L 100.841227 147.47627 
L 101.485977 139.733639 
L 102.130726 140.799653 
L 102.775476 141.472925 
L 103.420225 143.38053 
L 104.064974 132.495962 
L 104.709724 139.172579 
L 105.354473 133.225341 
L 105.999223 136.086748 
L 106.643972 136.367278 
L 107.288721 131.710478 
L 107.933471 135.189051 
L 108.57822 130.307828 
L 109.22297 139.284791 
L 109.867719 131.710478 
L 110.512468 134.010825 
L 111.157218 129.017389 
L 111.801967 126.492618 
L 112.446717 130.027297 
L 113.091466 130.476146 
L 113.736215 128.344117 
L 114.380965 132.271538 
L 115.025714 138.330988 
L 115.670464 132.047114 
L 116.315213 130.644464 
L 116.959962 127.278103 
L 117.604712 131.654372 
L 118.249461 129.522343 
L 118.894211 132.495962 
L 119.53896 131.710478 
L 120.183709 139.340897 
L 120.828459 136.872232 
L 122.762707 146.185831 
L 123.407456 149.888828 
L 124.052206 151.347585 
L 124.696955 153.423508 
L 125.341705 156.677657 
L 125.986454 160.661184 
L 126.631203 162.512683 
L 127.920702 156.958187 
L 128.565452 166.159574 
L 129.210201 162.456577 
L 129.85495 170.704162 
L 130.4997 170.479737 
L 131.144449 173.341144 
L 131.789199 171.209116 
L 132.433948 174.799901 
L 133.078697 176.314763 
L 133.723447 183.27191 
L 134.368196 179.344488 
L 135.012946 180.298291 
L 135.657695 184.618454 
L 136.302444 185.628363 
L 136.947194 183.440228 
L 137.591943 187.031013 
L 138.236693 192.024449 
L 138.881442 186.526059 
L 139.526192 192.248873 
L 140.170941 193.651523 
L 140.81569 196.344612 
L 141.46044 195.446916 
L 142.105189 192.866039 
L 142.749938 197.803369 
L 143.394688 199.149913 
L 144.039437 202.01132 
L 144.684187 201.225836 
L 145.973686 204.928833 
L 146.618435 201.225836 
L 147.263184 208.463513 
L 147.907934 206.050954 
L 148.552683 208.182982 
L 149.197433 207.902452 
L 149.842182 206.892544 
L 150.486931 210.090587 
L 151.131681 207.565816 
L 151.77643 212.44704 
L 152.42118 213.513054 
L 153.065929 211.381026 
L 153.710678 210.819965 
L 154.355428 211.549344 
L 155.000177 217.94543 
L 155.644927 215.027917 
L 156.289676 213.625266 
L 156.934425 217.721006 
L 157.579175 215.420659 
L 158.223924 217.496582 
L 158.868674 215.645083 
L 159.513423 218.955338 
L 160.158172 220.245777 
L 160.802922 220.077459 
L 161.447671 219.684716 
L 162.092421 222.209487 
L 162.73717 221.592321 
L 163.381919 224.84647 
L 164.026669 223.44382 
L 164.671418 225.575848 
L 165.316168 226.529651 
L 165.960917 225.744166 
L 166.605666 222.938865 
L 167.250416 221.199579 
L 167.895165 224.902576 
L 168.539915 226.080803 
L 169.184664 225.800272 
L 169.829413 227.651771 
L 170.474163 226.080803 
L 171.118912 221.480109 
L 171.763662 226.810181 
L 172.408411 226.136909 
L 173.05316 227.988407 
L 173.69791 227.876195 
L 174.342659 227.090711 
L 174.987409 226.641863 
L 175.632158 228.381149 
L 176.276907 227.202923 
L 176.921657 230.569284 
L 177.566406 227.539559 
L 178.211156 229.671588 
L 178.855905 228.549467 
L 179.500654 228.605573 
L 180.145404 226.697969 
L 180.790153 229.952118 
L 181.434903 229.7838 
L 182.079652 229.054422 
L 182.724401 232.196359 
L 183.369151 229.952118 
L 184.0139 229.615482 
L 184.65865 230.120436 
L 185.303399 230.457072 
L 185.948148 232.028041 
L 186.592898 228.325043 
L 187.237647 232.196359 
L 187.882397 234.103963 
L 188.527146 234.047857 
L 189.171895 232.476889 
L 189.816645 233.430691 
L 190.461394 235.338296 
L 191.106144 234.889448 
L 191.750893 234.889448 
L 193.040392 234.272281 
L 193.685141 237.302006 
L 194.329891 233.711221 
L 194.97464 233.262373 
L 196.264139 236.516522 
L 196.908888 236.572628 
L 197.553638 234.103963 
L 198.198387 232.364677 
L 198.843136 236.572628 
L 199.487886 235.28219 
L 200.777385 236.96537 
L 201.422134 236.40431 
L 202.066883 234.440599 
L 202.711633 233.206267 
L 203.356382 236.853158 
L 204.001132 233.991751 
L 204.645881 236.572628 
L 205.29063 237.526431 
L 205.93538 234.889448 
L 206.580129 235.338296 
L 207.224879 238.872975 
L 207.869628 235.56272 
L 207.869628 235.56272 
" clip-path="url(#pc342b9d3c3)" style="fill: none; stroke: #0e7723; stroke-width: 0.5; stroke-linecap: square"/>
   </g>
   <g id="line2d_18">
    <path d="M 22.82655 212.110404 
L 23.471299 209.473421 
L 24.116049 210.427223 
L 24.760798 207.678028 
L 25.405548 211.773768 
L 26.050297 208.3513 
L 26.695046 210.315011 
L 27.339796 209.585633 
L 27.984545 211.100495 
L 28.629295 213.120312 
L 29.274044 210.932177 
L 29.918793 213.344736 
L 30.563543 211.60545 
L 31.853042 213.400842 
L 32.497791 209.810057 
L 33.78729 212.110404 
L 34.432039 212.44704 
L 35.076789 209.361209 
L 35.721538 211.437132 
L 36.366287 210.819965 
L 37.011037 211.268813 
L 38.300536 209.978375 
L 38.945285 213.120312 
L 39.590034 215.140129 
L 41.524283 208.014664 
L 42.169032 211.100495 
L 42.813781 214.859599 
L 43.458531 207.285286 
L 44.10328 209.810057 
L 44.74803 210.763859 
L 45.392779 215.084023 
L 46.037528 208.631831 
L 46.682278 214.522963 
L 47.327027 212.222616 
L 47.971777 210.763859 
L 48.616526 212.503146 
L 49.261275 208.182982 
L 49.906025 211.60545 
L 50.550774 213.681372 
L 51.195524 211.661556 
L 52.485022 212.278722 
L 53.129772 211.493238 
L 53.774521 211.60545 
L 54.419271 214.971811 
L 55.06402 209.753951 
L 55.708769 209.697845 
L 56.353519 209.810057 
L 56.998268 212.951994 
L 57.643018 210.090587 
L 58.287767 213.737478 
L 58.932516 207.22918 
L 59.577266 211.156601 
L 60.222015 210.932177 
L 60.866765 209.417315 
L 61.511514 208.295194 
L 62.156263 209.080679 
L 63.445762 207.565816 
L 64.090512 207.846346 
L 64.735261 207.734134 
L 65.38001 210.651647 
L 66.02476 205.658212 
L 67.314259 208.463513 
L 67.959008 210.707753 
L 68.603757 207.004756 
L 69.248507 206.499802 
L 69.893256 207.79024 
L 70.538006 202.684593 
L 71.182755 206.443696 
L 71.827504 203.021229 
L 72.472254 205.153257 
L 73.117003 204.704409 
L 73.761753 201.618578 
L 74.406502 206.836438 
L 75.051251 201.394154 
L 75.696001 204.367773 
L 76.34075 200.833094 
L 77.630249 198.420535 
L 78.274998 201.16973 
L 78.919748 198.476641 
L 79.564497 200.664776 
L 80.209247 202.404062 
L 80.853996 197.017885 
L 81.498745 195.839658 
L 82.143495 199.542655 
L 82.788244 194.773644 
L 83.432994 197.691157 
L 84.077743 195.334704 
L 84.722492 197.354521 
L 85.367242 195.559128 
L 86.011991 195.334704 
L 86.656741 191.968343 
L 87.30149 187.367649 
L 87.946239 184.618454 
L 88.590989 182.542532 
L 89.235738 181.981471 
L 89.880488 182.43032 
L 90.525237 186.918801 
L 91.169986 188.321452 
L 91.814736 191.182859 
L 92.459485 196.176294 
L 93.104235 188.601982 
L 93.748984 192.248873 
L 94.393733 187.367649 
L 95.038483 190.509586 
L 95.683232 190.677904 
L 96.327982 190.17295 
L 96.972731 186.750483 
L 97.61748 189.555784 
L 98.26223 185.628363 
L 98.906979 186.077211 
L 99.551729 186.077211 
L 100.196478 192.361085 
L 100.841227 190.229056 
L 101.485977 186.862695 
L 102.130726 184.337924 
L 102.775476 185.460045 
L 103.420225 190.229056 
L 104.064974 185.235621 
L 104.709724 186.245529 
L 105.354473 183.440228 
L 105.999223 184.730666 
L 106.643972 183.328016 
L 107.288721 180.971563 
L 107.933471 184.225712 
L 108.57822 180.971563 
L 109.22297 181.869259 
L 109.867719 180.410503 
L 110.512468 186.469953 
L 111.157218 180.466609 
L 111.801967 185.123408 
L 113.091466 182.093683 
L 113.736215 178.166262 
L 114.380965 176.988036 
L 115.025714 178.839534 
L 115.670464 181.420411 
L 116.315213 178.839534 
L 116.959962 182.205895 
L 117.604712 181.925365 
L 118.249461 180.017761 
L 118.894211 180.859351 
L 119.53896 184.842878 
L 120.183709 181.476517 
L 120.828459 183.889076 
L 121.473208 181.813153 
L 122.117958 182.374214 
L 122.762707 184.281818 
L 123.407456 183.047486 
L 124.052206 183.776864 
L 124.696955 187.199331 
L 125.341705 187.984815 
L 125.986454 178.33458 
L 127.275953 189.61189 
L 127.920702 183.945182 
L 128.565452 186.694377 
L 129.210201 190.73401 
L 129.85495 188.377558 
L 130.4997 187.816497 
L 131.144449 193.707629 
L 131.789199 191.463389 
L 132.433948 193.034357 
L 133.078697 190.565692 
L 133.723447 193.763735 
L 134.368196 195.39081 
L 135.012946 193.146569 
L 135.657695 196.681248 
L 136.302444 197.186203 
L 136.947194 197.298415 
L 137.591943 196.681248 
L 138.881442 199.76708 
L 139.526192 200.720882 
L 140.81569 196.51293 
L 141.46044 197.073991 
L 142.105189 196.905673 
L 143.394688 198.140005 
L 144.039437 197.466733 
L 145.328936 197.073991 
L 145.973686 197.298415 
L 146.618435 203.694501 
L 147.263184 204.648303 
L 147.907934 206.331484 
L 148.552683 209.417315 
L 149.197433 209.978375 
L 149.842182 210.146693 
L 150.486931 209.922269 
L 151.131681 214.018008 
L 151.77643 211.829874 
L 152.42118 212.839782 
L 153.065929 212.72757 
L 153.710678 214.971811 
L 154.355428 215.196235 
L 155.000177 213.0081 
L 155.644927 214.803493 
L 156.289676 218.730914 
L 156.934425 214.074114 
L 157.579175 216.150037 
L 158.223924 220.975155 
L 158.868674 216.598885 
L 159.513423 218.562596 
L 160.158172 216.767203 
L 160.802922 222.153381 
L 161.447671 222.265593 
L 162.092421 218.730914 
L 162.73717 219.572504 
L 163.381919 223.668244 
L 164.026669 221.592321 
L 164.671418 223.331608 
L 165.316168 221.536215 
L 165.960917 220.919049 
L 166.605666 222.770547 
L 167.895165 224.958682 
L 168.539915 223.612138 
L 169.184664 221.760639 
L 169.829413 227.427347 
L 170.474163 228.100619 
L 171.118912 226.249121 
L 171.763662 228.044513 
L 172.408411 225.070894 
L 173.05316 228.549467 
L 173.69791 226.866287 
L 174.342659 226.697969 
L 174.987409 228.549467 
L 175.632158 228.998316 
L 176.276907 226.978499 
L 176.921657 229.671588 
L 177.566406 229.166634 
L 178.211156 228.044513 
L 178.855905 230.457072 
L 179.500654 230.34486 
L 180.145404 232.532995 
L 180.790153 227.146817 
L 181.434903 231.579192 
L 182.079652 232.925737 
L 182.724401 232.364677 
L 183.369151 230.793708 
L 184.0139 232.476889 
L 184.65865 232.140253 
L 185.948148 230.008224 
L 186.592898 231.354768 
L 187.237647 234.496705 
L 187.882397 232.981843 
L 188.527146 236.797052 
L 189.171895 233.374585 
L 189.816645 236.909264 
L 190.461394 230.513178 
L 191.106144 235.169978 
L 191.750893 235.674932 
L 192.395642 232.308571 
L 193.040392 236.011568 
L 193.685141 235.899356 
L 194.329891 233.486797 
L 194.97464 237.2459 
L 195.619389 233.935645 
L 196.264139 237.077582 
L 196.908888 235.450508 
L 197.553638 235.674932 
L 198.198387 236.797052 
L 198.843136 234.665024 
L 199.487886 235.731038 
L 200.132635 235.674932 
L 200.777385 236.797052 
L 201.422134 235.00166 
L 202.066883 235.84325 
L 202.711633 237.358112 
L 203.356382 234.72113 
L 204.001132 236.572628 
L 204.645881 233.599009 
L 205.29063 235.506614 
L 205.93538 235.618826 
L 206.580129 237.526431 
L 207.224879 234.552811 
L 207.869628 237.750855 
L 207.869628 237.750855 
" clip-path="url(#pc342b9d3c3)" style="fill: none; stroke: #5560a2; stroke-width: 0.5; stroke-linecap: square"/>
   </g>
   <g id="line2d_19">
    <path d="M 22.82655 209.585633 
L 23.471299 211.100495 
L 24.116049 209.305103 
L 25.405548 212.390934 
L 26.050297 215.757295 
L 26.695046 213.905796 
L 27.339796 216.206143 
L 27.984545 214.522963 
L 28.629295 216.935521 
L 29.274044 217.440476 
L 29.918793 219.291974 
L 30.563543 217.889324 
L 31.208292 219.34808 
L 31.853042 221.648427 
L 32.497791 221.872851 
L 33.14254 221.031261 
L 33.78729 220.526307 
L 34.432039 221.928957 
L 35.076789 220.526307 
L 35.721538 220.638519 
L 36.366287 217.272158 
L 37.011037 220.694625 
L 37.655786 221.367897 
L 38.300536 222.377805 
L 38.945285 223.107184 
L 39.590034 222.546123 
L 40.234784 223.72435 
L 40.879533 218.001536 
L 41.524283 223.275502 
L 42.169032 221.255685 
L 42.813781 221.816745 
L 43.458531 220.077459 
L 44.10328 223.16329 
L 44.74803 224.341516 
L 45.392779 224.28541 
L 46.037528 220.470201 
L 46.682278 224.734258 
L 47.327027 224.341516 
L 47.971777 225.295318 
L 48.616526 224.173198 
L 49.261275 227.259029 
L 49.906025 224.229304 
L 50.550774 226.641863 
L 51.195524 226.866287 
L 51.840273 225.744166 
L 52.485022 221.480109 
L 53.129772 225.40753 
L 53.774521 223.556032 
L 54.419271 225.014788 
L 55.06402 222.938865 
L 55.708769 224.117092 
L 56.353519 227.034605 
L 56.998268 221.031261 
L 57.643018 224.28541 
L 58.287767 226.473545 
L 58.932516 225.968591 
L 59.577266 223.892668 
L 60.222015 226.136909 
L 60.866765 222.602229 
L 61.511514 225.800272 
L 62.156263 221.704533 
L 62.801013 230.90592 
L 63.445762 225.070894 
L 64.090512 223.892668 
L 64.735261 224.173198 
L 65.38001 226.080803 
L 66.02476 222.826653 
L 66.669509 225.127 
L 67.314259 223.44382 
L 67.959008 220.077459 
L 68.603757 225.744166 
L 69.248507 221.255685 
L 69.893256 225.40753 
L 70.538006 222.826653 
L 71.182755 222.433911 
L 71.827504 221.255685 
L 72.472254 220.806837 
L 73.761753 222.546123 
L 74.406502 221.424003 
L 75.051251 215.588977 
L 75.696001 219.34808 
L 76.34075 219.740822 
L 76.9855 218.618702 
L 77.630249 219.235868 
L 78.274998 212.390934 
L 78.919748 212.559252 
L 79.564497 213.961902 
L 80.209247 205.209363 
L 80.853996 208.463513 
L 81.498745 201.955214 
L 82.143495 203.077335 
L 82.788244 202.01132 
L 83.432994 193.932054 
L 84.077743 194.885856 
L 84.722492 183.496334 
L 85.367242 175.585385 
L 86.011991 172.387342 
L 86.656741 164.308075 
L 87.30149 147.532376 
L 87.946239 136.984444 
L 88.590989 111.175675 
L 89.235738 96.251474 
L 89.880488 91.08972 
L 90.525237 105.565073 
L 91.814736 166.77674 
L 92.459485 184.225712 
L 93.104235 195.615234 
L 93.748984 200.103716 
L 94.393733 201.506366 
L 95.038483 202.628486 
L 95.683232 207.846346 
L 96.327982 208.3513 
L 96.972731 203.413971 
L 97.61748 203.862819 
L 98.26223 207.79024 
L 98.906979 204.143349 
L 99.551729 205.658212 
L 100.196478 201.899108 
L 100.841227 205.82653 
L 101.485977 202.29185 
L 102.130726 205.82653 
L 102.775476 205.209363 
L 103.420225 206.38759 
L 104.064974 201.843002 
L 104.709724 200.8892 
L 105.354473 202.123532 
L 106.643972 200.60867 
L 107.288721 196.625142 
L 107.933471 199.318231 
L 108.57822 199.654867 
L 109.22297 197.354521 
L 109.867719 196.569036 
L 110.512468 196.288506 
L 111.157218 196.79346 
L 111.801967 196.51293 
L 112.446717 190.509586 
L 113.091466 189.555784 
L 113.736215 194.044266 
L 114.380965 188.882512 
L 115.025714 185.852787 
L 116.315213 188.040921 
L 116.959962 188.7703 
L 117.604712 183.720758 
L 118.249461 187.423755 
L 118.894211 180.129973 
L 119.53896 183.440228 
L 120.183709 185.291727 
L 120.828459 183.776864 
L 121.473208 183.945182 
L 122.117958 184.67456 
L 122.762707 182.037577 
L 123.407456 181.813153 
L 124.052206 183.945182 
L 124.696955 184.786772 
L 125.341705 190.73401 
L 125.986454 184.169606 
L 126.631203 182.262001 
L 127.275953 188.545876 
L 127.920702 187.648179 
L 128.565452 189.163042 
L 129.210201 191.070647 
L 129.85495 188.097027 
L 131.144449 190.958434 
L 131.789199 193.595417 
L 132.433948 192.585509 
L 133.078697 195.278598 
L 133.723447 197.466733 
L 134.368196 196.120188 
L 135.012946 197.578945 
L 135.657695 198.644959 
L 136.302444 195.895764 
L 136.947194 196.120188 
L 137.591943 197.578945 
L 138.236693 197.017885 
L 138.881442 194.437008 
L 139.526192 196.456824 
L 140.170941 197.410627 
L 141.46044 190.958434 
L 142.105189 187.255437 
L 142.749938 176.763612 
L 143.394688 176.819718 
L 144.684187 159.819594 
L 145.328936 147.083527 
L 145.973686 137.88214 
L 146.618435 152.750235 
L 147.263184 164.925242 
L 147.907934 188.658088 
L 148.552683 195.67134 
L 149.197433 208.631831 
L 149.842182 215.140129 
L 150.486931 211.88598 
L 151.131681 220.414095 
L 151.77643 218.618702 
L 152.42118 222.602229 
L 153.065929 222.377805 
L 153.710678 222.994972 
L 154.355428 225.856378 
L 155.000177 223.72435 
L 155.644927 228.156725 
L 156.289676 227.876195 
L 156.934425 230.34486 
L 157.579175 230.400966 
L 158.868674 229.896012 
L 160.158172 232.252465 
L 160.802922 230.513178 
L 161.447671 233.037949 
L 162.092421 231.46698 
L 162.73717 235.731038 
L 163.381919 232.757419 
L 164.026669 233.430691 
L 164.671418 234.272281 
L 165.316168 233.486797 
L 165.960917 238.592445 
L 166.605666 234.72113 
L 167.895165 237.975279 
L 168.539915 233.935645 
L 169.184664 237.470324 
L 169.829413 237.077582 
L 170.474163 234.72113 
L 171.118912 236.797052 
L 171.763662 238.087491 
L 172.408411 234.833342 
L 173.69791 239.995095 
L 174.342659 238.031385 
L 174.987409 237.694749 
L 175.632158 239.602353 
L 176.276907 238.704657 
L 176.921657 239.826777 
L 177.566406 238.480233 
L 178.211156 240.387838 
L 178.855905 241.62217 
L 179.500654 242.295442 
L 180.145404 240.107307 
L 180.790153 242.856502 
L 181.434903 239.321823 
L 182.079652 241.453852 
L 182.724401 242.74429 
L 183.369151 243.417563 
L 184.0139 239.770671 
L 184.65865 243.922517 
L 185.303399 242.800396 
L 185.948148 242.632078 
L 186.592898 245.437379 
L 187.237647 243.193138 
L 187.882397 246.054545 
L 188.527146 241.734382 
L 189.171895 241.9027 
L 189.816645 243.137032 
L 190.461394 243.249244 
L 191.106144 240.836686 
L 191.750893 244.203047 
L 192.395642 244.483577 
L 193.040392 245.717909 
L 193.685141 244.539683 
L 194.329891 242.519866 
L 195.619389 245.100743 
L 196.264139 245.661803 
L 196.908888 243.641987 
L 197.553638 241.117216 
L 198.198387 244.371365 
L 198.843136 245.605697 
L 199.487886 247.96215 
L 200.132635 243.810305 
L 200.777385 244.034729 
L 201.422134 245.774015 
L 202.066883 246.615606 
L 202.711633 244.932425 
L 203.356382 246.110651 
L 204.001132 242.127124 
L 204.645881 245.717909 
L 205.29063 244.764107 
L 205.93538 246.054545 
L 206.580129 246.391182 
L 207.224879 246.27897 
L 207.869628 245.717909 
L 207.869628 245.717909 
" clip-path="url(#pc342b9d3c3)" style="fill: none; stroke: #0e0e77; stroke-width: 0.5; stroke-linecap: square"/>
   </g>
   <g id="patch_3">
    <path d="M 23.410313 279 
L 23.410313 7.2 
" style="fill: none; stroke: #000000; stroke-width: 0.8; stroke-linejoin: miter; stroke-linecap: square"/>
   </g>
   <g id="patch_4">
    <path d="M 23.410313 279 
L 207.550313 279 
" style="fill: none; stroke: #000000; stroke-width: 0.8; stroke-linejoin: miter; stroke-linecap: square"/>
   </g>
  </g>
 </g>
 <defs>
  <clipPath id="pc342b9d3c3">
   <rect x="23.410313" y="7.2" width="184.14" height="271.8"/>
  </clipPath>
 </defs>
</svg>
