<svg xmlns="http://www.w3.org/2000/svg" xmlns:xlink="http://www.w3.org/1999/xlink" width="2.98in" height="4.36in" viewBox="0 0 214.75 313.72"><defs><style>.cls-1,.cls-10,.cls-11,.cls-12,.cls-13,.cls-6,.cls-7,.cls-8,.cls-9{fill:none;}.cls-2{fill:#fff;}.cls-13,.cls-3,.cls-4,.cls-8{stroke:#000;}.cls-10,.cls-11,.cls-12,.cls-3,.cls-4,.cls-6,.cls-7,.cls-8,.cls-9{stroke-linejoin:round;}.cls-13,.cls-3{stroke-width:0.8px;}.cls-4{stroke-width:0.6px;}.cls-5{clip-path:url(#clip-path);}.cls-6{stroke:#c76f0a;}.cls-10,.cls-11,.cls-12,.cls-13,.cls-6,.cls-7,.cls-8,.cls-9{stroke-linecap:square;}.cls-10,.cls-11,.cls-12,.cls-6,.cls-7,.cls-8,.cls-9{stroke-width:0.5px;}.cls-7{stroke:#626161;}.cls-9{stroke:#58a265;}.cls-10{stroke:#0e7723;}.cls-11{stroke:#5560a2;}.cls-12{stroke:#0e0e77;}.cls-14{fill:#c76f0a;}.cls-15{fill:#626161;}.cls-16{fill:#58a265;}.cls-17{fill:#0e7723;}.cls-18{fill:#5560a2;}.cls-19{fill:#0e0e77;}</style><clipPath id="clip-path" transform="translate(0 0)"><rect class="cls-1" x="23.41" y="7.2" width="184.14" height="271.8"/></clipPath></defs><g id="Layer_1" data-name="Layer 1"><g id="figure_1" data-name="figure 1"><g id="patch_1" data-name="patch 1"><path class="cls-2" d="M0,313.72H214.75V0H0Z" transform="translate(0 0)"/></g><g id="axes_1" data-name="axes 1"><g id="patch_2" data-name="patch 2"><path class="cls-2" d="M23.41,279H207.55V7.2H23.41Z" transform="translate(0 0)"/></g><g id="matplotlib.axis_1" data-name="matplotlib.axis 1"><g id="xtick_1" data-name="xtick 1"><g id="line2d_1" data-name="line2d 1"><path id="m634992c90f" class="cls-3" d="M38.76,279v3.5" transform="translate(0 0)"/></g><g id="text_1" data-name="text 1"><path id="DejaVuSans-31" d="M34.66,291.41H36V287l-1.41.29v-.72l1.4-.28h.79v5.16H38v.67H34.66Z" transform="translate(0 0)"/><path id="DejaVuSans-30" d="M41.3,286.77a1,1,0,0,0-.92.6,5.55,5.55,0,0,0,0,3.6,1,1,0,0,0,1.84,0,5.38,5.38,0,0,0,0-3.6A1,1,0,0,0,41.3,286.77Zm0-.63a1.7,1.7,0,0,1,1.5.78,4.07,4.07,0,0,1,.51,2.25,4.12,4.12,0,0,1-.51,2.25,1.85,1.85,0,0,1-3,0,4.11,4.11,0,0,1-.52-2.25,4.07,4.07,0,0,1,.52-2.25A1.69,1.69,0,0,1,41.3,286.14Z" transform="translate(0 0)"/></g></g><g id="xtick_2" data-name="xtick 2"><g id="line2d_2" data-name="line2d 2"><path id="m634992c90f-2" data-name="m634992c90f" class="cls-3" d="M69.45,279v3.5" transform="translate(0 0)"/></g><g id="text_2" data-name="text 2"><path id="DejaVuSans-32" d="M65.89,291.41h2.75v.67h-3.7v-.67l1.23-1.24c.51-.53.84-.86,1-1a4.26,4.26,0,0,0,.53-.72,1.28,1.28,0,0,0,.15-.58,1,1,0,0,0-.33-.76,1.19,1.19,0,0,0-.85-.3,2.89,2.89,0,0,0-.78.13,5.42,5.42,0,0,0-.88.39v-.79a5.39,5.39,0,0,1,.89-.29,3.12,3.12,0,0,1,.76-.1,2.18,2.18,0,0,1,1.44.45,1.52,1.52,0,0,1,.54,1.21,1.8,1.8,0,0,1-.13.69,3.48,3.48,0,0,1-.49.76l-.62.65C67,290.26,66.53,290.77,65.89,291.41Z" transform="translate(0 0)"/><path id="DejaVuSans-30-2" data-name="DejaVuSans-30" d="M72,286.77a1,1,0,0,0-.92.6,5.55,5.55,0,0,0,0,3.6,1,1,0,0,0,1.84,0,5.38,5.38,0,0,0,0-3.6A1,1,0,0,0,72,286.77Zm0-.63a1.7,1.7,0,0,1,1.5.78,4.07,4.07,0,0,1,.51,2.25,4.12,4.12,0,0,1-.51,2.25,1.85,1.85,0,0,1-3,0,4.11,4.11,0,0,1-.52-2.25,4.07,4.07,0,0,1,.52-2.25A1.69,1.69,0,0,1,72,286.14Z" transform="translate(0 0)"/></g></g><g id="xtick_3" data-name="xtick 3"><g id="line2d_3" data-name="line2d 3"><path id="m634992c90f-3" data-name="m634992c90f" class="cls-3" d="M100.14,279v3.5" transform="translate(0 0)"/></g><g id="text_3" data-name="text 3"><path id="DejaVuSans-33" d="M98.29,288.93a1.53,1.53,0,0,1,.89.51,1.42,1.42,0,0,1,.31.94,1.6,1.6,0,0,1-.59,1.34,2.7,2.7,0,0,1-1.69.47,4,4,0,0,1-.75-.07,5,5,0,0,1-.8-.22v-.76a2.65,2.65,0,0,0,.71.29,3.68,3.68,0,0,0,.82.1,1.83,1.83,0,0,0,1.13-.3,1,1,0,0,0,.39-.85,1,1,0,0,0-.36-.8,1.54,1.54,0,0,0-1-.29h-.68v-.65h.71a1.41,1.41,0,0,0,.89-.24.76.76,0,0,0,.31-.67.79.79,0,0,0-.32-.68,1.47,1.47,0,0,0-.91-.25,3.48,3.48,0,0,0-.69.08,6.62,6.62,0,0,0-.82.21v-.7c.3-.08.58-.14.84-.19a4.91,4.91,0,0,1,.74-.06,2.24,2.24,0,0,1,1.42.41,1.32,1.32,0,0,1,.53,1.1,1.2,1.2,0,0,1-.28.82A1.42,1.42,0,0,1,98.29,288.93Z" transform="translate(0 0)"/><path id="DejaVuSans-30-3" data-name="DejaVuSans-30" d="M102.68,286.77a1,1,0,0,0-.92.6,5.55,5.55,0,0,0,0,3.6,1,1,0,0,0,1.84,0,5.38,5.38,0,0,0,0-3.6A1,1,0,0,0,102.68,286.77Zm0-.63a1.7,1.7,0,0,1,1.5.78,4.07,4.07,0,0,1,.51,2.25,4.12,4.12,0,0,1-.51,2.25,1.85,1.85,0,0,1-3,0,4.11,4.11,0,0,1-.52-2.25,4.07,4.07,0,0,1,.52-2.25A1.69,1.69,0,0,1,102.68,286.14Z" transform="translate(0 0)"/></g></g><g id="xtick_4" data-name="xtick 4"><g id="line2d_4" data-name="line2d 4"><path id="m634992c90f-4" data-name="m634992c90f" class="cls-3" d="M130.83,279v3.5" transform="translate(0 0)"/></g><g id="text_4" data-name="text 4"><path id="DejaVuSans-34" d="M128.76,286.93l-2,3.12h2Zm-.21-.68h1v3.8h.84v.65h-.84v1.38h-.78V290.7h-2.63v-.76Z" transform="translate(0 0)"/><path id="DejaVuSans-30-4" data-name="DejaVuSans-30" d="M133.37,286.77a1,1,0,0,0-.92.6,5.55,5.55,0,0,0,0,3.6,1,1,0,0,0,1.84,0,5.38,5.38,0,0,0,0-3.6A1,1,0,0,0,133.37,286.77Zm0-.63a1.7,1.7,0,0,1,1.5.78,4.07,4.07,0,0,1,.51,2.25,4.12,4.12,0,0,1-.51,2.25,1.85,1.85,0,0,1-3,0,4.11,4.11,0,0,1-.52-2.25,4.07,4.07,0,0,1,.52-2.25A1.69,1.69,0,0,1,133.37,286.14Z" transform="translate(0 0)"/></g></g><g id="xtick_5" data-name="xtick 5"><g id="line2d_5" data-name="line2d 5"><path id="m634992c90f-5" data-name="m634992c90f" class="cls-3" d="M161.52,279v3.5" transform="translate(0 0)"/></g><g id="text_5" data-name="text 5"><path id="DejaVuSans-35" d="M157.29,286.25h3.1v.66H158v1.43l.34-.09a2.07,2.07,0,0,1,.35,0,2.17,2.17,0,0,1,1.55.54,1.9,1.9,0,0,1,.57,1.45,1.87,1.87,0,0,1-.59,1.46,2.38,2.38,0,0,1-1.65.52,4.74,4.74,0,0,1-.75-.06,5,5,0,0,1-.79-.19v-.79a3,3,0,0,0,.73.28,2.9,2.9,0,0,0,.79.1,1.52,1.52,0,0,0,1.07-.36,1.24,1.24,0,0,0,.4-1,1.26,1.26,0,0,0-.4-1,1.57,1.57,0,0,0-1.07-.35,2.7,2.7,0,0,0-.63.07,2.86,2.86,0,0,0-.64.22Z" transform="translate(0 0)"/><path id="DejaVuSans-30-5" data-name="DejaVuSans-30" d="M164.06,286.77a1,1,0,0,0-.92.6,5.55,5.55,0,0,0,0,3.6,1,1,0,0,0,1.84,0,5.38,5.38,0,0,0,0-3.6A1,1,0,0,0,164.06,286.77Zm0-.63a1.7,1.7,0,0,1,1.5.78,4.07,4.07,0,0,1,.51,2.25,4.12,4.12,0,0,1-.51,2.25,1.85,1.85,0,0,1-3,0,4.11,4.11,0,0,1-.52-2.25,4.07,4.07,0,0,1,.52-2.25A1.69,1.69,0,0,1,164.06,286.14Z" transform="translate(0 0)"/></g></g><g id="xtick_6" data-name="xtick 6"><g id="line2d_6" data-name="line2d 6"><path id="m634992c90f-6" data-name="m634992c90f" class="cls-3" d="M192.21,279v3.5" transform="translate(0 0)"/></g><g id="text_6" data-name="text 6"><path id="DejaVuSans-36" d="M189.76,288.85a1.07,1.07,0,0,0-.85.36,1.53,1.53,0,0,0-.31,1,1.5,1.5,0,0,0,.31,1,1.15,1.15,0,0,0,1.69,0,1.5,1.5,0,0,0,.31-1,1.53,1.53,0,0,0-.31-1A1.06,1.06,0,0,0,189.76,288.85Zm1.56-2.48v.72a3.57,3.57,0,0,0-.6-.21,2.47,2.47,0,0,0-.6-.08,1.42,1.42,0,0,0-1.19.53,2.81,2.81,0,0,0-.47,1.6,1.55,1.55,0,0,1,.58-.53,1.61,1.61,0,0,1,.76-.18,1.82,1.82,0,0,1,1.39.54,2,2,0,0,1,.51,1.45,2,2,0,0,1-.53,1.44,1.89,1.89,0,0,1-1.41.54,1.78,1.78,0,0,1-1.55-.77,3.94,3.94,0,0,1-.54-2.25,3.44,3.44,0,0,1,.66-2.21,2.15,2.15,0,0,1,1.76-.82,3.05,3.05,0,0,1,.6.06A6,6,0,0,1,191.32,286.37Z" transform="translate(0 0)"/><path id="DejaVuSans-30-6" data-name="DejaVuSans-30" d="M194.75,286.77a1,1,0,0,0-.92.6,5.55,5.55,0,0,0,0,3.6,1,1,0,0,0,1.84,0,5.38,5.38,0,0,0,0-3.6A1,1,0,0,0,194.75,286.77Zm0-.63a1.7,1.7,0,0,1,1.5.78,4.07,4.07,0,0,1,.51,2.25,4.12,4.12,0,0,1-.51,2.25,1.85,1.85,0,0,1-3,0,4.11,4.11,0,0,1-.52-2.25,4.07,4.07,0,0,1,.52-2.25A1.69,1.69,0,0,1,194.75,286.14Z" transform="translate(0 0)"/></g></g><g id="xtick_7" data-name="xtick 7"><g id="line2d_7" data-name="line2d 7"><path id="m4c53807c9c" class="cls-4" d="M23.41,279v2" transform="translate(0 0)"/></g></g><g id="xtick_8" data-name="xtick 8"><g id="line2d_8" data-name="line2d 8"><path id="m4c53807c9c-2" data-name="m4c53807c9c" class="cls-4" d="M31.08,279v2" transform="translate(0 0)"/></g></g><g id="xtick_9" data-name="xtick 9"><g id="line2d_9" data-name="line2d 9"><path id="m4c53807c9c-3" data-name="m4c53807c9c" class="cls-4" d="M46.43,279v2" transform="translate(0 0)"/></g></g><g id="xtick_10" data-name="xtick 10"><g id="line2d_10" data-name="line2d 10"><path id="m4c53807c9c-4" data-name="m4c53807c9c" class="cls-4" d="M54.1,279v2" transform="translate(0 0)"/></g></g><g id="xtick_11" data-name="xtick 11"><g id="line2d_11" data-name="line2d 11"><path id="m4c53807c9c-5" data-name="m4c53807c9c" class="cls-4" d="M61.77,279v2" transform="translate(0 0)"/></g></g><g id="xtick_12" data-name="xtick 12"><g id="line2d_12" data-name="line2d 12"><path id="m4c53807c9c-6" data-name="m4c53807c9c" class="cls-4" d="M77.12,279v2" transform="translate(0 0)"/></g></g><g id="xtick_13" data-name="xtick 13"><g id="line2d_13" data-name="line2d 13"><path id="m4c53807c9c-7" data-name="m4c53807c9c" class="cls-4" d="M84.79,279v2" transform="translate(0 0)"/></g></g><g id="xtick_14" data-name="xtick 14"><g id="line2d_14" data-name="line2d 14"><path id="m4c53807c9c-8" data-name="m4c53807c9c" class="cls-4" d="M92.46,279v2" transform="translate(0 0)"/></g></g><g id="xtick_15" data-name="xtick 15"><g id="line2d_15" data-name="line2d 15"><path id="m4c53807c9c-9" data-name="m4c53807c9c" class="cls-4" d="M107.81,279v2" transform="translate(0 0)"/></g></g><g id="xtick_16" data-name="xtick 16"><g id="line2d_16" data-name="line2d 16"><path id="m4c53807c9c-10" data-name="m4c53807c9c" class="cls-4" d="M115.48,279v2" transform="translate(0 0)"/></g></g><g id="xtick_17" data-name="xtick 17"><g id="line2d_17" data-name="line2d 17"><path id="m4c53807c9c-11" data-name="m4c53807c9c" class="cls-4" d="M123.15,279v2" transform="translate(0 0)"/></g></g><g id="xtick_18" data-name="xtick 18"><g id="line2d_18" data-name="line2d 18"><path id="m4c53807c9c-12" data-name="m4c53807c9c" class="cls-4" d="M138.5,279v2" transform="translate(0 0)"/></g></g><g id="xtick_19" data-name="xtick 19"><g id="line2d_19" data-name="line2d 19"><path id="m4c53807c9c-13" data-name="m4c53807c9c" class="cls-4" d="M146.17,279v2" transform="translate(0 0)"/></g></g><g id="xtick_20" data-name="xtick 20"><g id="line2d_20" data-name="line2d 20"><path id="m4c53807c9c-14" data-name="m4c53807c9c" class="cls-4" d="M153.84,279v2" transform="translate(0 0)"/></g></g><g id="xtick_21" data-name="xtick 21"><g id="line2d_21" data-name="line2d 21"><path id="m4c53807c9c-15" data-name="m4c53807c9c" class="cls-4" d="M169.19,279v2" transform="translate(0 0)"/></g></g><g id="xtick_22" data-name="xtick 22"><g id="line2d_22" data-name="line2d 22"><path id="m4c53807c9c-16" data-name="m4c53807c9c" class="cls-4" d="M176.86,279v2" transform="translate(0 0)"/></g></g><g id="xtick_23" data-name="xtick 23"><g id="line2d_23" data-name="line2d 23"><path id="m4c53807c9c-17" data-name="m4c53807c9c" class="cls-4" d="M184.53,279v2" transform="translate(0 0)"/></g></g><g id="xtick_24" data-name="xtick 24"><g id="line2d_24" data-name="line2d 24"><path id="m4c53807c9c-18" data-name="m4c53807c9c" class="cls-4" d="M199.88,279v2" transform="translate(0 0)"/></g></g><g id="xtick_25" data-name="xtick 25"><g id="line2d_25" data-name="line2d 25"><path id="m4c53807c9c-19" data-name="m4c53807c9c" class="cls-4" d="M207.55,279v2" transform="translate(0 0)"/></g></g><g id="text_7" data-name="text 7"><path id="DejaVuSans-32-2" data-name="DejaVuSans-32" d="M88.54,303.9h3.09v.75H87.47v-.75l1.38-1.4c.58-.59.94-1,1.09-1.14a4.33,4.33,0,0,0,.6-.81,1.47,1.47,0,0,0,.17-.65,1.1,1.1,0,0,0-.37-.85,1.37,1.37,0,0,0-1-.33,3.21,3.21,0,0,0-.88.14,5.93,5.93,0,0,0-1,.44v-.89a6.12,6.12,0,0,1,1-.33,4,4,0,0,1,.86-.11,2.42,2.42,0,0,1,1.62.51,1.68,1.68,0,0,1,.61,1.36,2,2,0,0,1-.15.77,3.73,3.73,0,0,1-.55.85c-.08.09-.31.34-.7.74Z" transform="translate(0 0)"/><path id="DejaVuSans-3b8" d="M96.69,301.53h-2.8a4.62,4.62,0,0,0,.37,1.87,1.11,1.11,0,0,0,2.06,0A4.78,4.78,0,0,0,96.69,301.53Zm0-.75a5.47,5.47,0,0,0-.36-1.68,1.15,1.15,0,0,0-1-.7,1.12,1.12,0,0,0-1,.69,4.5,4.5,0,0,0-.36,1.69Zm-1.39-3a1.88,1.88,0,0,1,1.66.93,5.83,5.83,0,0,1,0,5.15,1.95,1.95,0,0,1-3.32,0,5.83,5.83,0,0,1,0-5.15A1.87,1.87,0,0,1,95.29,297.74Z" transform="translate(0 0)"/><path id="DejaVuSans-20" d="M98,304.65" transform="translate(0 0)"/><path id="DejaVuSans-28" d="M103.69,297.82a9.06,9.06,0,0,0-.87,2,7.24,7.24,0,0,0-.29,2,7.34,7.34,0,0,0,.29,2,8.86,8.86,0,0,0,.87,2H103a9.23,9.23,0,0,1-1-2,6.29,6.29,0,0,1,0-4,9.23,9.23,0,0,1,1-2Z" transform="translate(0 0)"/><path id="DejaVuSans-64" d="M108.5,300.48v-2.67h.81v6.84h-.81v-.74a1.7,1.7,0,0,1-.64.66,2,2,0,0,1-.94.21,1.77,1.77,0,0,1-1.45-.71,3.42,3.42,0,0,1,0-3.75,1.77,1.77,0,0,1,1.45-.71,1.84,1.84,0,0,1,.94.22A1.6,1.6,0,0,1,108.5,300.48Zm-2.75,1.71a2.36,2.36,0,0,0,.36,1.4,1.26,1.26,0,0,0,2,0,2.81,2.81,0,0,0,0-2.79,1.26,1.26,0,0,0-2,0A2.34,2.34,0,0,0,105.75,302.19Z" transform="translate(0 0)"/><path id="DejaVuSans-65" d="M115.18,302v.39h-3.71a1.87,1.87,0,0,0,.5,1.28,1.73,1.73,0,0,0,1.25.43,3.44,3.44,0,0,0,.91-.11,4.47,4.47,0,0,0,.87-.34v.76a4.7,4.7,0,0,1-.9.28,4.05,4.05,0,0,1-.92.1,2.52,2.52,0,0,1-1.87-.69,2.47,2.47,0,0,1-.69-1.85,2.7,2.7,0,0,1,.66-1.92,2.28,2.28,0,0,1,1.76-.71,2,2,0,0,1,1.57.64A2.53,2.53,0,0,1,115.18,302Zm-.8-.24a1.54,1.54,0,0,0-.38-1.06,1.24,1.24,0,0,0-1-.39,1.49,1.49,0,0,0-1.08.38,1.6,1.6,0,0,0-.47,1.08Z" transform="translate(0 0)"/><path id="DejaVuSans-67" d="M119.75,302.13a2.24,2.24,0,0,0-.36-1.36,1.31,1.31,0,0,0-2,0,2.75,2.75,0,0,0,0,2.72,1.31,1.31,0,0,0,2,0A2.22,2.22,0,0,0,119.75,302.13Zm.81,1.91a2.71,2.71,0,0,1-.56,1.87,2.19,2.19,0,0,1-1.71.61,5.1,5.1,0,0,1-.8-.06,3.86,3.86,0,0,1-.74-.2v-.78a3,3,0,0,0,.71.28,2.75,2.75,0,0,0,.7.1,1.55,1.55,0,0,0,1.19-.42,1.72,1.72,0,0,0,.4-1.25v-.4a1.74,1.74,0,0,1-.64.65,2,2,0,0,1-.94.21,1.79,1.79,0,0,1-1.46-.69,3.32,3.32,0,0,1,0-3.66,1.79,1.79,0,0,1,1.46-.69,1.84,1.84,0,0,1,.94.22,1.67,1.67,0,0,1,.64.65v-.75h.81Z" transform="translate(0 0)"/><path id="DejaVuSans-72" d="M125.08,300.48a1,1,0,0,0-.3-.11,1.34,1.34,0,0,0-.35,0,1.3,1.3,0,0,0-1.06.45,2,2,0,0,0-.36,1.28v2.59h-.82v-4.92H123v.76a1.67,1.67,0,0,1,.66-.66,2,2,0,0,1,1-.22h.19l.22,0Z" transform="translate(0 0)"/><path id="DejaVuSans-65-2" data-name="DejaVuSans-65" d="M129.93,302v.39h-3.72a1.93,1.93,0,0,0,.51,1.28,1.73,1.73,0,0,0,1.25.43,3.36,3.36,0,0,0,.9-.11,4,4,0,0,0,.87-.34v.76a4.6,4.6,0,0,1-.89.28,4.08,4.08,0,0,1-.93.1,2.51,2.51,0,0,1-1.86-.69,2.47,2.47,0,0,1-.69-1.85,2.74,2.74,0,0,1,.65-1.92,2.29,2.29,0,0,1,1.76-.71,2,2,0,0,1,1.57.64A2.49,2.49,0,0,1,129.93,302Zm-.81-.24a1.54,1.54,0,0,0-.37-1.06,1.24,1.24,0,0,0-1-.39,1.49,1.49,0,0,0-1.08.38,1.6,1.6,0,0,0-.47,1.08Z" transform="translate(0 0)"/><path id="DejaVuSans-65-3" data-name="DejaVuSans-65" d="M135.47,302v.39h-3.72a1.92,1.92,0,0,0,.5,1.28,1.74,1.74,0,0,0,1.26.43,3.36,3.36,0,0,0,.9-.11,4.47,4.47,0,0,0,.87-.34v.76a4.83,4.83,0,0,1-.89.28,4.2,4.2,0,0,1-.93.1,2.38,2.38,0,0,1-2.55-2.54,2.74,2.74,0,0,1,.65-1.92,2.29,2.29,0,0,1,1.76-.71,2,2,0,0,1,1.57.64A2.49,2.49,0,0,1,135.47,302Zm-.81-.24a1.54,1.54,0,0,0-.37-1.06,1.24,1.24,0,0,0-1-.39,1.49,1.49,0,0,0-1.08.38,1.6,1.6,0,0,0-.47,1.08Z" transform="translate(0 0)"/><path id="DejaVuSans-73" d="M139.93,299.87v.77a2.52,2.52,0,0,0-.71-.26,3.16,3.16,0,0,0-.76-.09,1.83,1.83,0,0,0-.91.18.61.61,0,0,0-.3.56.54.54,0,0,0,.22.44,2.53,2.53,0,0,0,.86.3l.28.06a2.79,2.79,0,0,1,1.23.52,1.24,1.24,0,0,1,.36.94,1.29,1.29,0,0,1-.54,1.09,2.47,2.47,0,0,1-1.5.4,4.83,4.83,0,0,1-.82-.08,6.62,6.62,0,0,1-.9-.23v-.83a4.88,4.88,0,0,0,.88.35,3.69,3.69,0,0,0,.86.11,1.67,1.67,0,0,0,.88-.19.64.64,0,0,0,.31-.56.61.61,0,0,0-.23-.5,2.6,2.6,0,0,0-1-.34l-.28-.07a2.17,2.17,0,0,1-1.09-.48,1.22,1.22,0,0,1-.33-.9A1.29,1.29,0,0,1,137,300a2.29,2.29,0,0,1,1.4-.38,4.46,4.46,0,0,1,.84.07A3.7,3.7,0,0,1,139.93,299.87Z" transform="translate(0 0)"/><path id="DejaVuSans-29" d="M141.36,297.82h.7a9.23,9.23,0,0,1,1,2,6.1,6.1,0,0,1,0,4,9.23,9.23,0,0,1-1,2h-.7a8.86,8.86,0,0,0,.87-2,7.34,7.34,0,0,0,.29-2,7.24,7.24,0,0,0-.29-2A9.06,9.06,0,0,0,141.36,297.82Z" transform="translate(0 0)"/></g></g><g id="matplotlib.axis_2" data-name="matplotlib.axis 2"><g id="text_8" data-name="text 8"><path id="DejaVuSans-49" d="M7.48,161.8v-.88H14v.88Z" transform="translate(0 0)"/><path id="DejaVuSans-6e" d="M11.07,155.09h3v.81H11.09a1.68,1.68,0,0,0-1,.27,1,1,0,0,0-.35.82,1.31,1.31,0,0,0,.42,1,1.6,1.6,0,0,0,1.14.38H14v.81H9.12v-.81h.76a1.94,1.94,0,0,1-.66-.68,1.8,1.8,0,0,1-.22-.91,1.56,1.56,0,0,1,.52-1.28A2.39,2.39,0,0,1,11.07,155.09Z" transform="translate(0 0)"/><path id="DejaVuSans-74" d="M7.72,152.68h1.4V151h.63v1.67h2.67a1.26,1.26,0,0,0,.77-.16,1,1,0,0,0,.17-.68V151H14v.83a1.87,1.87,0,0,1-.35,1.3,1.8,1.8,0,0,1-1.27.35H9.75v.6H9.12v-.6H7.72Z" transform="translate(0 0)"/><path id="DejaVuSans-65-4" data-name="DejaVuSans-65" d="M11.38,145.74h.39v3.72A1.87,1.87,0,0,0,13,149a1.74,1.74,0,0,0,.44-1.26,3.82,3.82,0,0,0-.11-.9,4,4,0,0,0-.35-.87h.77a5.73,5.73,0,0,1,.28.89,4.9,4.9,0,0,1,.1.93,2.38,2.38,0,0,1-2.54,2.55,2.69,2.69,0,0,1-1.92-.65A2.28,2.28,0,0,1,9,147.89a2,2,0,0,1,.64-1.57A2.46,2.46,0,0,1,11.38,145.74Zm-.24.81a1.52,1.52,0,0,0-1.06.37,1.25,1.25,0,0,0-.4,1,1.49,1.49,0,0,0,.39,1.08,1.59,1.59,0,0,0,1.07.47Z" transform="translate(0 0)"/><path id="DejaVuSans-6e-2" data-name="DejaVuSans-6e" d="M11.07,140.32h3v.81H11.09a1.68,1.68,0,0,0-1,.27,1,1,0,0,0-.35.82,1.31,1.31,0,0,0,.42,1,1.6,1.6,0,0,0,1.14.38H14v.81H9.12v-.81h.76a1.94,1.94,0,0,1-.66-.68A1.8,1.8,0,0,1,9,142a1.56,1.56,0,0,1,.52-1.28A2.39,2.39,0,0,1,11.07,140.32Z" transform="translate(0 0)"/><path id="DejaVuSans-73-2" data-name="DejaVuSans-73" d="M9.26,135.57H10a3,3,0,0,0-.35,1.48,1.78,1.78,0,0,0,.18.9.61.61,0,0,0,.55.3.51.51,0,0,0,.44-.21,2.56,2.56,0,0,0,.31-.87l.06-.28a2.63,2.63,0,0,1,.52-1.22,1.24,1.24,0,0,1,.94-.36,1.29,1.29,0,0,1,1.09.54,2.51,2.51,0,0,1,.4,1.49,4.85,4.85,0,0,1-.08.83,7.46,7.46,0,0,1-.23.9H13a3.75,3.75,0,0,0,.35-.88,3.26,3.26,0,0,0,.12-.87,1.6,1.6,0,0,0-.2-.87.61.61,0,0,0-.55-.31.58.58,0,0,0-.5.22,2.68,2.68,0,0,0-.34,1l-.07.29a2.09,2.09,0,0,1-.48,1.08,1.22,1.22,0,0,1-.9.33,1.26,1.26,0,0,1-1.07-.49,2.2,2.2,0,0,1-.38-1.4,5.73,5.73,0,0,1,.06-.84A3.89,3.89,0,0,1,9.26,135.57Z" transform="translate(0 0)"/><path id="DejaVuSans-69" d="M9.12,134v-.81H14V134ZM7.2,134v-.81h1V134Z" transform="translate(0 0)"/><path id="DejaVuSans-74-2" data-name="DejaVuSans-74" d="M7.72,130.72h1.4v-1.66h.63v1.66h2.67a1.2,1.2,0,0,0,.77-.16,1,1,0,0,0,.17-.68v-.82H14v.82a1.87,1.87,0,0,1-.35,1.3,1.8,1.8,0,0,1-1.27.35H9.75v.6H9.12v-.6H7.72Z" transform="translate(0 0)"/><path id="DejaVuSans-79" d="M14.5,125.94a2.92,2.92,0,0,1,1.14.67,1.33,1.33,0,0,1,.27.87v.65h-.68v-.48a.78.78,0,0,0-.15-.51,2,2,0,0,0-.75-.41l-.37-.15-4.84,2v-.86L13,126.18l-3.85-1.54v-.86Z" transform="translate(0 0)"/></g></g><g id="line2d_31" data-name="line2d 31"><g class="cls-5"><path class="cls-6" d="M23.43,241.65l.08.87.17-.79.16,1,.08-.06.08-1.15.08.9.24-2.31.08,1.29.32-3L25,236l.08-.36.24-3.88.4-9.92.08-.58.08.22L26,223.7l.08.05.33,5.33.08-.08.08-1.09.4,4,.56,4.17.08.23.09,1.54.08-.39.08-.26.16,1.87.08-.76.08,2.86.08-.43.08-.35.32,3.18.16.68.08,1.26.17-1,.16,2.75.08-.82.16,1.44.08-.08.08.51.08-.59.08,1.83.08-.41.08-.89.16.72.08-.08.08.54.09-.46.16.94.08-.55.16.91.08-.31.08.37L31,250l.08.82.16-.57.08.16.16,1.28.08-.66.08.06.09.28.08-.13.08,1,.08-.59.08,0,.08,1,.16-1.3.24,1.42.08-1.27.08.23.08.89.08-.54.08,1.35.08-2.64.09,2.57.08-.86.08.56.08-.31.16.4.08.8.08-.84.16.92.08-.24.08-1,.08.32.16.83.08-.77.08.22.17.69.16-.28.08.39.08-.47.08.43.08-.36.08,1,.08-.21.16-.33.08,1.39.16-1,.08.33.17-.62.08.51.08-.44.08.19.08-.13.08.31.16-.77.08.81.08-.29.16-.39.08.45.08-.65.08.5.08-.83.08.43.09-.1h.08l.08.16.08-1,.08.36.24-1.49.08.78.16-1,.08,0,.08-2.44.08,1.19.33-4.44.16-.42.32,4.61.48,2.23.08-.81.08.16.08.09.17.89.16-.45h.08l.08-1.08.08.14.24.88.08-.33.08-1.21.08.26.16.42.16-1.28.17,1.69.08-.23.08-1.23.08.85.16-.69.16.72.08-1.19.08.42.08-1,.08,1.5.08-.36.24-1.33.17.72.32-1.35.08,1.51.08-.18.16-1.7.16.55.16.62.08-.37.08.86.17-.54.16,1.13.16-.58.08.26.08-.33.08,1.08.08-.07.08.08.08,1.06.08-.14.08-.43.16,1.55.08-1,.08.06.09,1.49.08-.19.08-.66.16,1.27.08-.12.08.37.08-.48.32,1.93.08.07.08.75.08-1.49.17,1.23.08.32.08-.18.16.15.08.88.08-.69.24.89.08.84.16-1.83.16,1.75.16-.42.41,1,.08-.9.08.22h.08l.08.28.08-.36.32,1.11h.08l.16-.24.09.2.08-.26.08,0,.16.28.24-.7.08.59.08-.6.08.32.24-1.27.08-1.2.08.15.41-5,.24,3.36.24,3.39.08.74.08-.3.08.56.08-.23.08.69.08-.25.17.45.08.06.08-.36.16.91.16-.47.16.32.08-.18L53,261l.08.16.08-.59.08.37.08-.37.08.39.17-1,.08.52.08-.11.08.42L54,260l.08.06.16-.84.08.74.4-2.38.17-1,.08-.38.08.8.16-1,.08.2.16,1.1.08-.15.24,1.7.08-.23.08.21.08-.51.17,1.37.08-.67.08.35.08.85.08-.08.16.34.08-.19.32,1,.16-.75.08.66.08-1,.08.29h.09l.24,1,.08-.71.08.06.16.11.08.8.08-.23.08-.18.08.19.08-.09.08-.29.08,0,.16.45.09-.58.16,1.21.08-.16.08-.48.08.38.08-.14.16-.18.08.18.08-.2.16.5.08-.7.08.14.08-.09.17.39.16-.06.08-.64.08,1.32.08-.83.08.07.08.66.08-.16L61,262l.08.15.08-.38.08.29.08,0,.08-.31.08.41.17-.51.16.43.08-.68.08,1,.08-.53.08.36.08-.45.08.37.08-.47.16.68.08-.67.08.23.16.07.08.34.09-.64.08.13.08.2.16-.18.08.13.16-.7.08.55.24-.87.24.78.17-.52.08-.17.16.26.24-.52.24,1,.16-1.06.08.43.24.58.08-.59.09.05.16-.53.24.17.24.79.08-1.23.08.76.08-.43.08.15.08-.14.16.27.08-.34.09.29.08-.12.16.48.24-.46.08.56.08-.37.08.09.08.23.08-.66.08.65.16-.59.16.45.09-.82.08.08.16-.72.08.18.08-.7h.08l.16-.43.16,0,.32-1.92.25,1.67.4,2.18.4-.22.08.12.08.57.08-.4.08,1,.16-.94.09-.18.16.59.24,0,.16-.58.08.43.08-.7.16.7.08-.36.08.19.16-.35.08.3.09-.43.08.33.08-.29.16.33.08.44.08-.67.08.24.08-.24.08.06.08.58.32-1.23.08.61.09-.34.16.46.08-1.09.08.51.08-.16.08.35.24-.65.08.5.08-.9.08.28.08.89.08-.89.08.53.08-.31.09.18.08-.07h.08l.08-.31.08.33.08-.75.08.1.16-.4.08.07.08-.08.08-.47.08.7.16-1,.08.45.17-.78.08.53.08-.54.08.17.08.06.08-.08.08-.36.08.39.24-1,.08.78.4-1.76.09,1.08.16-1.76.08.56.08-1,.08.46.16-1,.08-.12.73-5.18.16.78.08-.57.24,2.2.08-.12.24,1.72.08.74.08-.32.08.78.08-.08.08-.21.08.19.09,1,.08-.45.08.54.08-.06.08.27.08-.19.24.89.08-.26.16.46.08-.54.16,1.38.08-.93H82l.08-.22.08-.9.08.47.24-2,.16-2.33.32-3,.73,10.18.08-.63.08.85.08-.09H84l.08.11.24,1.25.08-.41.08.42.08-.23.08.9.09-1h.08l.16.32.08-.15.08.69.08-.16.08-.43.16,1.06.08-1.26.08.77.08-.17.08,0,.16-.42.08.57.09-.19.08.36.08-.39.16.67.08-.42.08.21.16-.49.08.58.08-.16.08-1,.08.08.16.74.16-.8.17.5.16-1,.08.78.08-.15.16-.43.08.1.08.47.08-1.37.08,1.3.08-.81.08.5.24-1.29.09.18.08-.63.08.1.08-.23.64-4.45.08,1.1.08-.62.25,2.7.08,1.27.08-.18.16,1.32.08-.15.08.49.08-.06.08-.16.08,1,.08-.09.16.37.08-.35.08.65.16-.57.09.95.08-.26.16.66.08-.53.08.05.16-.39.08.11.16.95.16-.61.16.54.16-.69.41.55.16-.24.08.38.08-.59.08.68.08-.7.08.43.08-.35.16.31.08-.58.08.17.09-.42.08.36.16-.3.08.05.08-.89.16.84.08-.42.08.22.08.81.16-.65.16.81h.08l.08-.31.09.87.08-1.32.16.71.08-.38.16.44.16-.4.08.86.24-1,.08.15.08-.48.16.26.25-.91.08.25.08-.9.08.35.08-.61.16.57.16-.85.08,1.09.08-.46.08.14.16.58.08.14.25-.85.08.18.16,1.31.16-.72.08.25L99,260l.08.84.08-1.09.32,1.49.09-1,.08.32.08.13.08-.61.08.21.08.33.16-.8.16.5.08-.61.08.49.24-1.34.08.67.08-.88.09.46.08-.05h.08l.08.11.32-1.14.08,0,.24-.58.08-.44.08.21.08-.09.08-.19.25-1.86.08.41.08,0,.08-.54.08.8.08-.8.16,1.2.08-.8.08,1.08.08-.16.08-.13.16,1.38.16,0,.09-.53.16,1.47.08-1,.08.19.16.22.08.09.24-.66.08.62.08-.37.08-1.47.08.33.08-.3.08-.75.17.56.08-.05.08-.21.08.15.08,1,.08-.05L106,259l.08-.39.24,1.62.09-.57.16.75.16.08.16.8.08-.36.08.83.08-.27.08-.36.08,0,.16-.17.08.29.08-.64.17,1.05.08-.51.08-.27.16.24.16-.24.08.46.08-.44.16.46.24-.5.08.3L109,261l.25.61.16-.47.08.15.08-.4.08.13.16.21.08-.35.08.46.16-1.05.08.17.08,0,.08-.36.09.3.08-.5.08.2.08.35.24-.78.08,0,.08.45.16-.4.08.68.08-.06h.08l.08-.42.08.48.08-.85.09.78.08-.25.08-.79.16,1.24.24-1.76.16.84.24-1.31.16-.16.08.41.17-.7.16.51.08-.46.16-1.26.16.06.08.32.08-1.28.08.21.08-.86.08.08.08-.17.24-2.13.09.44.16-1,.24,2.8.08,0,.08,1.25.08-1,.08,1.27.08-.08.08.68.08-.1.08.22.08-.1.08.22.17,1,.24-.07.16.7.08.08.08-.27.16,1,.08-1,.24,1.35.08,0,.08-.62.17.58.16-.64.08,1.17.08-.8.08.6.08-.18.08.11.32-.47.08.81.08-.52.08.44.08-.3.09.1.16.67.16-.67.16.55.08-.08.08-1.29.16,1.33.08-.06.08-.42.16.64.16-.94.09.71.08-.62.24.88.16.27.16-1,.16,1.14.08-1,.16.91.08-.9.08.41.08-.45.09.86.08,0,.08-.67.08,1,.16-1.41.16.49.08-.46.16.65.08-.58.08.22.08-.06.08.12.08.67.08-.55.09.5.08-.51.08.31L123,261l.08.42.24-.71.08-.07.08.38.24-.61.08,1.07.16-1,.08,1.25.09-.14.08.08.08-.34.08.14.08.18.16-.22.08.21.08-.27.08.31.16-.61.08.79.08-.18.08.28.08-.74.17.9.08-.05.08-.19.08.17.08-.73.16.71.08-.22.16.2.08.08.08-.33.08.27.08-.32.16.22.17-.42.08.77.08-.6.16.76.16-1.16.08,1,.08-.32.08-.22.08.76.16-.81.08.85.08-.67.08.09.09.53.16-.88.08.57.08-.47.08.66.08-.71.16.6.08-.36.08.11.08.53.08-.71.16.81.08-.39.08.08.09-.09.08.43.08-.56.08.08.08.17.08-.25.16.39.08-.16.08-1.09.16,1,.08-.29.08.78.08-.76.08.1.08.48.09-.32.16.22.16-.13.16.22.16-.25.16.6.08-.76.08.35.08-.25.08.33.08,0,.33-.69.08.21.08-.42.08,0,.16-.19.24.29.16-.73.16.81.08,0,.17.22.16-.26.08.54.08-.08.16-.4h.24l.08.21.08-.14.08.19.08-.1.16.47.09-1,.08.81.08-.17.08.27.08-.28.08.44.08-.39.16.43.08.05.08-.18.08.19.08-.15.08.09.16-.26.25.46.08.2.08-.11.08.61.08-.93.08.24.08.31.16-.31.08.43.08-.06.08-.19.08-.8.08.64.08-.14.08.2.09-.21.08.46.08-.15.08-.44.08.17.08,0,.08.4.08-.21.08.46.32-1.15.08.29.08.13.08-.41.08.06.17-.32.16-1.05.08.2.08-.45.08.32.08-.07.08-.09.08-.33.08,0,.24,1.36.16.06.25,1,.08-.7.24,1.29.08-.59.08.66.08-.49.08,0,.32.63.08-.07.08.78.25-.72.08.71.08-.53.08.12.08.16.16-.28.08.25.16-.52.32.43.08-.46.09.39.08-.12h.08l.16.48.16-.59.08.52.08-.27.08.06.08-.1.08-.29.08.44.08-.11.08-.12.08-.53.17,1.3.08-1.27.16.74.08-.47.16.78.08-.58.08.34.24-.62h.08l.08.27.08-.42.08.69.17-.7h.08l.08.52.08-.18.08-.11.08.41.08-.18.08.18.08-.55.08.16.08.3.16-.39.08.28.16-.55.25.31h.16l.16.28.08-.37.08.44.16-.9.08.52.08-.21.08.28.08-.1.08.06.08-.34.08.28.09-.7.08.85.08-.06.08-.2.16.29.16-.37.16.53.08,0,.16-.79.08.68.08-.46.08.11.08.1.09-.63.08.62.08-.23.08-.05.16.19.08-.49.08,1,.16-.69.16.69.08-.18.08-.46.08.33.17-.38.08.58.08-.21.08.22.08-.21.08.36.08-.36.08.3.08-.93.08.91.08-.11.08-.67.16.7.08-.46.16.43.09.12.08-.42.08.38.16-.2H153l.16.33.08.14.08-.09.24.39.16-.4.08-.08.08.3.25-.44.16.67.08-.82.08.77.08-.29.08-.12.24.32.08-.27.08.32L155,264l.08.8.08-.19.09.1.16-.41.16.33.08-.5.08.18.08.42.08-.81.08.87.08-.18.08.27.08-.07.08-.26.08.27.16-.49h.09l.08.77.16-.55.16,0,.16.17h.24l.08.17.08-.61.08.69.08-.17.08-.52.08.28.09-.34.32.87.08-.08.08-.08.08-.26.08.88.16-.58.08.07.24-.43.08.53.17-.51h.08l.24.5.08-.16.16.39.08-.58.08.12.08,0,.16-.23.16.45.25-.84.16.38.08.59.24-1,.16.76.08-.62.08.41.16-.36.16.55.08-.1.09.07.32,0,.08-.19.16.5.08-.61.08.21.08.49.08-.07.16-.82.16.61.08,0,.09-.2.08.24.08-.09.08-.15.16.19.08,0,.08-.49.08.12.08.64.08-.18.16-.25.08,0,.08-.23.16.29.09-.27.08.27.08-.1.08-.07.08.55.16-.8.08.24.16-.28.16.69.16-.61.08.31.08-.64.08.11h.09l.08.36.08-.1.08.1.08-.66.08.62.08-.14.08.18.08-.1.08.25.08-.19.08.2.08-.19.16.2.41-1,.32.59.16-.16.08.62.08-.11.08-.38.16.55.08-.56.08.61.17-.51.24.56.08-.05.24-.43.08-.2.16.52.08-.23.16.4.08-.21.08.14.09-.25.08.06.08,0,.08.11.16-.23.08.36.16-.55.08.06.08-.34.08.63.08-.55.24.75.08-.37.25.72.16-.43.08.35.08-.41.16.22.48.55.16-.54.25.56.08.06.08-.15.08.31.16-.41.16.11.08,0,.08-.49.08.76.08-.19.16-.18.17.14.24.08.08-.38.24.44.08-.39.08.42.08-.43.08.47.08-.14.08-.43.08.75.08-.77.08.13.09.11.08-.32.08.68.08-.53.08.15.16.2.08-.44.16.45.24-.33.08.07.08.36.08-.38.17.34.08-.05.08-.18.08.07.08-.11.08.1.08-.13.16.48.16-.52.08.58.08-.6.08.05.08.45.08-.31.09,0,.08.34.24-.38.16.15.08.4.16-.75.08,0,.24.44.08-.09.08.16.08-.37.09.4.08-.45.08.26.08-.29.08.15.08-.34.08.48.16-.3.08.15.08-.42.08.13.08.19.08-.06.16-.54.17.66.24-.48.08.48.08-.51.08.56.08-.05.08-.66.08.49.08-.19.08.46.16-.4.08.53.16-.53.09.2.16-.23.08.68.16-1,.08.34.08-.25.08.29.08-.12.08-.34.08.14.16-.15.08.61.08-1.09.08.73.09-.68.16.48.16,0,.08.09.08-.12.08.18.08-.2.16.38.16-.13.08.22.16-.52.08.33.09-.14.08-.21.08.24.08-.16.32.59.32-.56.08.35.24-.52.17.1.08-.06.08-.53.08,0,.08-.25.08.41.08-.48.08.62.08-.3.16.19.08-.11.08-.41.08.35.08-.09.17.28.08.59.08-.57.08.07.16.29.24-.33.08.38.08-.2.08.06h.08l.08-.36.24.63.09-.57.08.58.08-.2.08-.13.08.35.08-.24.08,0,.16-.15.08-.15.16.17.32-.77.08.42.09-.28.08.41.08-.55.08,0,.16.44.08-.85.16.45.08.08.08-.51.16.45.08-1,.08.53.08-.36.08.17.09-.28.08.35.16-.27.08.58.08-.94.08.53.16-.77.08.26.16-.78.08.07.08-.31.08.21.25-1.19.08.38.16-.19.08-.06.08.37.16-.33.08.31.08-.47.16.95.08-.65.24,1.11.17-.55.08,0,.16.32.16-.14.08.6h.08l.08.17.08.49.08-.45.32,1,.17-.2.08.1.08-.08.24.33.16-.33.24.33.16-.26.08.2.08-.44.08.17.08,1,.09-1.08.08.3.08-.54.24.83.08-1.16.08.16.16.48.08-.8.08.83.08-.14.08.11.08.48.08-.43.08.17.09.17.08-.9.16.83.08-.11.16.44.08-.32.08.34.08-.41.24,1.23.08-.58.08.21.08-.05.08.29.17-.33.08.06.08.25.08-.45.32.76.08-.13.08-.49.08.41.08-.37.08.77.08-.58.08.11.08-.18.09.22.16-.17.16.42.08-.26.08.17.08-.34.16.52.08-.12.08.33.08-.45.08.08.08.51.08-.11.08.23.09-.08.08-.23.08.08.16.45.16-.6.16.37.08-.53.24.57.24-.68.17.6.08-.08.08-.32.08.11.08-.1.24.4.08-.47.16.39.08-.14.08.21.08-.26.16.42.17-.32.16-.06.16.51.16-.72.24.87.08-.27.08.13.08-.11.16.23.08-.24.09.18.08-.2.24.57.16-.56.16.67h0" transform="translate(0 0)"/></g></g><g id="line2d_32" data-name="line2d 32"><g class="cls-5"><path class="cls-7" d="M23.43,216.86l.17-.63.16,1,.08-.45.08.54.08-.43.08.86.08-.49.08.66.16-.5.08,1,.16-.95.08.47.08-.58.08.47.17-.36.08.79.16-1,.16,1.34.08-.4.08.38.08-.94.08.24.16.91.08-.94.33,1.74.24-1.87.16,2.07.08-1.87.08.21.08-.32.16,1,.16-.34.16,1.08.08-1.45.17,1.76.08-1.83.08,1.2H28l.08.16.08.47.08-.54.08,1.51.16-2,.16,1.79.08-.12.08-1.37.08.81.08,0,.09.39.08-.59.32.76.16-1,.08.62.08-.49.16,1,.08-.05.08-.83.08.15.08,1.08.08-.53.09.09.16.33.08-.78.08.42.16-.24.08-.75.16,1.83.08-.49.08.31.08-1.08.16,1.22.08-.12.17-.74.08.87.08-1.38.16,1.15.08-1,.08.33h.08l.24,1.06.08-.49.08,1,.16-1.53.08,0,.08,1.14.09-.81.08.35.08-.78.08,1.1.08-1.09.08.66.08,0,.08-.48.08.82.24-.73.08.09.08-.18.08.86.08-1,.08.23.17,1,.08-.09.16-1,.08.89.08-1,.16,1.18.08-1.07.16,1.54.16-1.81.08.14.08.69.08-.16.17-.61.08,1,.08-.35.24-.82.08.3.08.77.08-1.43.08.86.08-.74.08.17.24-.18.08,1,.09-.25.08-.3.08.09.08-.06.08-1.14.08.69.08-.08.08.33.32-.89.08.48.24-1.11.17.14.08.67.16-.89.08.51.08-.73.08.34.08-.17.08-1.1.08.16.08,1.1.08-.19.08.32.08-1.19.08.25.17.45.08-.6.08,1.14.24-2,.08,1.68.08-1.13.08,1,.16-1.92.08.06.24,1.67.08-.72.08.32.17-1.29.08.32.16.09.08-.58.16.78.08-1.37.08.36.08,1h.08l.08-1,.16,1.76.08-.77.08-.6.09.57.08-1.56.16,1,.08-.52.08,1,.08-.66.16.92.08-.9.08,1,.08-.43.08.58h.08l.16-.64.08.53.09-.7.24,1.2.16-.71.24,1.67.08-1.23.08.33.08-.18L45,219l.08-.05.08-.63.16,1.72.09,0,.08-1.1.08.79.08-.37.08.71.16-.37.24.8.08-.47.08.9.08-.21.08-.64.16,1.85.09-1.48.08.38.08.65.08-.18.08-.49.08,1.14.08-.3.16.07.08-.8.08,1.71.08-.25.08.2.08-.49.08.17.08.2.08-.38.25,1.83.08-.56.08.11.08.72.08-.06.24-.42.08-.08.16.15.08-.33.08.87.08-.45.08.43.09-.86.08,1.58.16-1.15L50,225l.16-.27.24.7.16-.9.08.07.08,1,.09-.68.24.58.16.09.08-.08.08.1.08.35.08-.15.08-.51.08.07.08.38.08-.45.16,1,.08-.4.09,0,.08.1.08-.89.08,1.27.08-.26.08-.71.16,1.12.08-.48.08.17.16-.36.08.63.08-.2.08.14.08-.64.08.69.09-.36.08.71.08-.47.08.34.08-.05.08-.2.08.71.08-.2.08-.7.08.14.08.6.08-.19.08.06.08-.38.08.72.08-.66.08.58.09-.58L55,227l.08-.5.08.73.08-.14.08.1.08-.81.08.29.24.37.08.16.08-.29.16.86.08-.83.09.07.08.69.08-1,.16.45.08-.69.16,1,.08-.52.08.48.08-.18.08.2.08-.19.08.78.16-.77.08.38.09-.55.16.75.16-.52.08.36.08-.28.08.4.08-.1.16-.81.08.94.16-.46.24.74L59,228l.16-.08.08-.34.08.63.08-.71h.08l.32.19.08-.14.08.52.08-.68.16,1,.09-.86.08.19.08-.08.08.41.08-.12.08-.07.08.38.16-.9.08.71.08-.24h.08l.08.43.08,0,.08-.54.16.65.33-.59.08.74.24-.68.16.29.08-.24.08.06.16.39.08-.72.08.84.08-.68L63,228l.08.11.08-.13.08.09.08-.37.08.4.16-.59.16.6.16-.58.16.48.16-.15.09.46.08-.54.08.16.08-.16.08.3.16-.38.16.41.08.06.08-.81.08,0,.08.19.08.89.16-.52.25.23h.08l.08-.59.08.24.08,0,.08-.49.08.06.08.2.08-.37.08.86.08-.15.08.06.08-.65.08.76.16-.69.09.7.24-.84.16.88.08-.07.08-.75.08.63.08,0,.08-.21.08.14.32-.56.17.48.16-.45.24.79.08-.77.08.12.24.21.08-.67.16,1.11.16-1,.17.51.08-.09.08-.43.16.59.08.23.16-.56.08.5.08-.62.08.15.08-.06.08.28.08-.11.08-.41.08.38.08-.44.09.14.16,0,.08-.37.08.53.08-.6.08.37.08-.13.16.55.24-.75.08.31.08-.05.08-.46.08.18.09.07.08-.23.08,0,.08.63.16-.83.08.34.08-.64.08.56.08-.47.08.61.08-.87.08.8.08-.88.25.63.16-.79.16,0,.08.24.24-.74.08.3.08-.38.24.78.08-.64.16.81.09-.2.08-.31.08.26.08-.95.08.33.08-.3.08.58.16-.81.08.79.08-1.19.08.49.16-.27.08.35.16-.14.09.42.16-.76.08.22L77,224l.16.94.08-.7.08.34.08-.06.32-1,.08.89.08-1.19.09,1,.08-.1.08-1.05.08,1.69.08-1.34.08.8.08-.21.08.06.08-.71.08,1.13.08-.42.08-.12.08.12.08-.68L79,224l.08-.53.08,1.23.09-1.19.16.84.08-1,.08,1.11.08-.62.08.2.08-.49.08.6.16-.39.08.57.08-.91.16.57.08-.22.08.8.09-.49.08.73.24-1.09.08,1.31.08-.41.08-.25.16.76.08-.07.08.11.08-.45.16.81.17-.47.08-.21.16,1,.08-.15.08-1.18.16,1.21h.08l.08-.5.08.81.08-.37.08.63.24-1.15.17,1.22.08-.55.08.91.16-1.24.08.8.08,0,.08-.77.08.18.08.76.08-.12.16-.69.08,1.11.16-1,.17.8.24-.85.08.84.08-.27.16.58.16-.56.08.75.16-1,.16.67.08-.59.08.06.09.55.08-.28.08.16.08-.25.24.45.08,0,.16-.76.16.92.24-.61.16.45.09-.58.08.13.24.28.08-.52.08.35.08-.57.08.22.08.24.24-.38.08.54.08-.33.16.41.17-.48.08.69.16-1.16.08.85.08-.65.16.9.08-.08.08-.41.08.24.08-.59.16.3.08.13.09-.49.08.95.08-.88.08.24.08,0,.08.32.16-.53.16.33.08-.22.08.22.08-.3.16.33.08-.46.25.48.08-1.07.08.81.08-.27.08.19.16-.35.08.49.16-.53.08-.2.16.64.08-.05.08.2.08-.34.09.09.08-.07.08-.41.08.27.08-.48.16.92.16-.12h.08l.16-.72.16.59.08-.33.08,0,.17-.45.08.73.08,0,.32-.85.08,1,.08-.74.08.25.16,0,.08.25.08-.39.08.19.08-.59.08.1.09.92.08-.28.16,0,.08-.49.16,1.2.32-1.16.08,1.22.16-1.34.08,1.1.08-.35.08-.54.09.64.08-.51.08.12.08.44.08-.08.08.12.08-.25.08-.83.08,1.11.08-.25.08-.09.08-.32.16.8.08,0,.08-.63.08.45.09-.7.08,1,.08-.52.08.37.08,0,.08-.4.24.55L99,226l.08.36.08-.32.08.46.08-1,.08.17.25.66.08-.69.24.82.08-.81.08.36.08-.34.08,1.75.08-2,.08.87.08-.27.08-.11.08.65.08-.22.17-.73.24,1.25.08-.61.08.87.08-.32.16-.72.08.94.08-.3.08.23.08-.78.08.46.08-.35.16,1.06.09-.63.08.3.08-.62.08.17.08-.36.16,1.2.08-.46.08.34.08-.36.08.4.08-.76.24.68.08-.22.08.37.09-.71.16.64.08.13.16-.82.08.88.08-.46.08.72.08-.74.16.92.16-1,.16.7.25-.24.08-.29.08.48.08-.41.08.11.16.73.08-.56.16.84.08-.8.08.29.08.24.16-.65.08.53.09-.23.08.21.08-.29.08.48.08-.19.16-.16.08.56.08-.08.08-.25.08.17.24-.77.25,1,.08-.27.08.29.08-.36.08.14.08,0,.08.24.08-.43.16.66.08-.07.4-.3.08.38.09-.54.08.67.08-.48.08.32.08-1,.08,1,.16-.65.08.76.16-.35.24-.39.08.64.08-.5.08.28.09-.16.08.15.08.59.08-.88.08.3.24-.78.16,1.09.08-.24.16-.88.08.54.08-.67.16,1,.09-.93.08.17.08.36.08-.7.08.09.08-.37.08.91.24-1.29.08.12.32-.48.08.2.17-.66.16,0,.08-.36.08.58.08-.19.08-.79.08.07.08.2L114,225l.08.46.08-.78.16.76.16-.71.09.7.08-.25.16.07.24-.49.08,0,.08.52.08-.51.16,1.42.08-1.38.08.14.08,1.14.08-.09.17-.35.08-.16.24.89.16-.6.08.64.08-.54.08.58.08,0,.16.53.08-.48.16.45.09-.61.08.18.08.72.08-.34.08.83.08-.23.08.54.08-.82.08.17.08-.1.24.93.24-.86.17.9.08-.07.08-.33.08.59.16-.64.08.05.08.57.08-.59.08.18.08.12.16.74.08-.35.08.34.08-1,.08,1.12.09-.25h.08l.08-.25.08.48.16-.3.08,0,.08.35.08-.58.08.22.08.79.08-.6.08.44.08-.43.08.25.08-.41.08,1.09.17-.79.16.78.16-.95.08.34.24-.27.16.27.08-.16.08.32.08-.35.08,0,.08.39.17-.25.08.71.16-.6.08.25.08-.85.08.26.08-.16.08.87.08-.25.08.07.16-.66.16.61.08-.1.09-.53.08.18.16.6.16-.44.08-.18.08.4.16-.61.08-.2.08.88.08-.51.08,0,.08.51.25-.71.08.49.08-.49.16.72.16-.54.08.59.16-.9.24.47.08.69.16-.76.09.21.08-.52.16.33.08-.08.08-.6.24,1.22.08-.36.24-.44.08.51.08-1,.08.89.08-.18.17-.29.16.68.08-.14.08.43.08-.73.08.19.08-.41.08.61.08-.08.08-.53.16.55.08-.21.08.6.08-.18.17-.57.08.77.08-.44.16.62.08-.26.08.06.08.07.08-.29.16.29.16-.51.08.63.08-1,.17.78.16.46.08-.56.08.19.08.15.08-.5.08.5.08-.16.08.27.08-.42.08.43.08-.21.24.55.17-.65.08.49.08,0,.08-.3.16.56.16-.31.16.43.08-.61.08,0,.08.56.08-.15.08-.43.08,0,.33.6.16-.65.08,1.22.08-.58.08.28.08-.72.08.44.08-.15.08.15.08-.3.08.1.08.15.08.4.09,0,.16-.72.08,1,.08-1.12.08.76.08-.3.16.45.24-.32.08.24.08-.56.16.87.08-.27.09,0,.08-.37.08.12.08-.1.08.55.08-.91.08.7.08-.42.08.39.08-.28.08.45.08-.17.24-.48.08.72.08-.72.09.63.08-.21.08.35.08-.29.08.1.08-.09.08-.42.16.84.16-.49h.16l.08.56.08-.15.08-.38.08,0,.09.25.16-.42.08.44.08-.09.08-.21.08.5.08-.6.08.17.08,0,.24.3.08-.37.08.32.08,0,.17.51.08-.91.08.19.32.2.08.29.08-.55.08.47.08-.18.16-.14.16.44.08-.31.08.46.09-.71.16.67.16-.45.08.45.08-.42.16.43.16-.92.08.56.08-.05h.08l.16-.32.09,0,.16.61.16-.59.08.58.16-.6.08.08.08-.2.08.09.08.48.24-.42h.08l.08.57.09-.15.16-.68.16.55.08,0,.16-.35.08.11.08-.36.08.11.08.55.08-.43.08.31.16-.29.17.45.08-.56.16.3.08-.28.08,0,.08.14.08-.49.08.5.08-.15.16-.28.08.44.08-.08.08.32.16-.54.17.24.16-.39.08.43.08-.16.08.28.08-.22.08.13.32-.28.08.58.08-.88.08.46.08-.1.09-.66.08.89.16-.86.16.85.08-.18.08-.06.08.24.16-.84.16.84.08-.39.08.17.08-.12.08.14L150,230l.08.13.08.57.08-.31.24.49.24-1,.08,1.1.08-1,.16.77.08.17.25-.32.16.17.08.48.08-.81.08.19.08-.22.24.69.08-.54.08.85.08-.94.08,0,.08-.29.09.63.08,0,.08,0,.08-.59.16.93.08-.71.08.2.08.54.08-.44.24.62.24-.82.17.88.08-.21.16-.13.24.51.08-.38.08.42.08-.3.08.13.16-.33.08.14.16-.28.08.29.09-.31.08.06.08-.14.08.14.08.7.08-.6.08,0,.08,0,.08-.2.16.34.08.67.24-.81.25.44.08-.47.08.13.08,0,.08.37.08-.62.16.37.08-.05.08-.34.08.53.08-.29.16.67.24-.94.09.58.08-.39.08.65.08-.42.08.12.24.38.08-.4.08.21.16-.46.08.18.08-.2.16.64.08-.53.17.41.16,0,.16-.19.08.19.08-.3.08.41.08-.36.16.53.08-.13.08-.28.08.33.08-.62.09.54.08-.24.08.2.16-.46.08.27.08-.12.16.44.16-.13.08.16.08-.42.08.39.08-.54.08.61.08-.2.17.31.16-.57.08,0,.08-.17.08.41.16-.3.08.46.16-.51.16.36.08,0,.08.37.08-.44.09.49.08-.06.08.1.16-.44.08-.09.08.37.08-.38.08.18.08.59.08-.19.08-.46.08.17.16,0,.08-.29.25.69.24-.73.08.61.08-.65.08.68.16-.55.08-.19.08.95.08-.28.08-.4.08.57.08-.73.08.27.09.5.08-.67.08.48.08-.26.16.48.08-.25.08.06.08-.11.08.11.08-.43.08,0,.08.25.08-.24.08.52.08-.27.17.43.08-.85.08.27.08.2.08-.1.08,0,.08.3.08-.06.08-.22.08.38.08,0,.16-.53.08.51.08-.29.08.1.17-.1L169,232l.08.07.08,0,.08.38.08-.52.08.16.08.15.08-.13.16.34.08-.49.16.4.08-.15.08.22.09-.07.08.15.08-.07.08-.71.08.31.08-.05h.08l.08.32.16-.29.16.26.08-.22.16.4.16-.25.25.39.24-.71.08.44.08-.27.16.56.08-.08.16-.21.08-.06.08.29.16-.72.17,1,.08-.77.08,0,.08.48.08-.15.16.29.16-.14.08.26.08-.91.16.64.08-.34.16.4.09,0,.08-.2.16.38.16-.52.08.42.16-.5.08.59.08-.53.08.51.08-.38.08.29.08-.31.08.19.17-.3.08.08.08.22.08-.19.08.3.08-.06.08,0,.08.2.16-.53.16.53.08-.16.08.1.16-.3.17.24.08-.31.08.12h.08l.08.17.16-.31.08.06.08.31.08,0,.08.09.08-.47.16.41.08.21.25-.61.08.3.16-.32.08.43.16-.68.08.57.08-.15.08-.22.24.68.16-.43.08.33.09-.31.08.44.24-.63.16.48.08-.62.08.45.08-.24.08.26.08-.39.16.74.08-.34.08.12.08-.1.09-.3.08.13.08.28.24-.33.16.37.08-.06.16-.3.24.4.08.1.16-.26.09.07.16-.26.08.4.08-.54.16.31.08-.05.08.36.08-.31.08,0,.24-.37.08,0,.08-.1.25.46.08-.09.08-.43.08.59.08-.2.08-.09.08.12.08-.13.08.45.16-.52.08,0,.08.26.08-.39.16.43.09-.49.08.06.16.61.08-.23.08.12.16-.43.08.32.16-.37.08.49.08-.21.08.27.16-.52.25.57.08,0,.08-.38.08.24.08-.11.24.32.08-.23.08.24.16-.35.08,0,.08-.14.17.34.08-.17.16-.12.08.29.08-.47.08.08.08.17.08-.15.16.2.08-.3.16.55.08-.59.08.33.08-.06.25-.35.24.62.24-.58.08.3.16-.39.16.58.08-.56.08.29.08-.36.09.56.16-.43.32-.08.08-.32.16.66.24-.5.32,0,.09-.1.08.12.08-.37.16.31.08-.54.16.34.16-.41.08.23.16-.45.16.14.25-.67.08.53.08-.16.16-.27.08-.89.08.75.08-.95.08.22.08-.05.08.21.16-.72.08.28.08-.07.08-.28.09.59.08-.27.08.44.08-.41.08.69.16-1,.08.64.16-.6.08,1.11.08-.74.08.55.08-.59.16.71.08.16.09-.33.08.34.08-.43.08.06.16.46h.08l.08-.43.24.67.16-.76.08.54.08-.37.16.4.09.19.08-.49.08.43.08,0,.08-.2.08.21.08-.31.08.32.08-.63.16.66.08.24.16-.41.16.64.08-.38.09,0,.08-.21.08.42.08-.34.08.51.08-.67.08.55.08-.28.32.88.08-.58.08.16.16.18.17.25.08-.43.08.72.08-.56.16,1,.16-.85.08,0,.08.43.08-.19.08.59.08-.07.08,0,.16-.39.08.61.09-.25.08.41.16-.63.16.32.08-.35.08.35.08-.3.08.59.08-.29.24.46.24-.66.09.52.08-.13.08.22.08-.28.08.3.08-.55.08.55.08-.22.08.3.08-.45.08.37.08-.44.16.58.08-.37.08.29.09,0,.08-.68.08.57.08-.15.08,0,.08.22.16-.31.4.48.08-.24.08.11.08-.3.08.63.09-.65.08.56.08-.69.08.54.08-.18.16-.4.16.58.16,0,.08.13.08-.16.08.14.08-.74.08.46.08-.44.17.69.08-.35.08.3.08-.47.08.41.08-.32.08.28.08-.16h0" transform="translate(0 0)"/></g></g><g id="line2d_33" data-name="line2d 33"><g class="cls-5"><path class="cls-8" d="M23.43,180.26l.08.07.09.64.08-.54.08.2.08.34.08,1.16.08-1,.08,1.1.08-.76.08.22.08-.45.16.66.08-.37.24,1.24.08-.58.09.53.08-1.45.08,1.79.08-.46.08.27.24-.43.08.33.08-.08.08-.51.4,1.22.08-.47.09-1.15.08,1.71.08,0,.08-.24.08.17.08.62.08-.05.08-1.28.08,1.15.08-.17.08-.29.16.69.24-.85.08.31.09,1.41.08-1.32.16.77.08-.8.08,1,.08-.83.08,1,.08-.78.08.91.16-.8.08.54.08-1,.16.88.09-.59.16,1.41.08-.23.08.09.08-.42.08.37.08-1.24.08,1,.08-1,.08,1.81.16-1.3.16.86.16-.35.09.2.08-.54.16.79.24-1.28.08.06.08,1.43.16-1.07.08,1,.08-.58.24,1,.08-.83.09.48.08-.23.08-.77.24,1.82.08-1.25.16,1,.08-1.39.24,1.47.08-1.08.08.23.08.74.08-1.13.09,1,.08-.91.08,1,.08-1.27.24,1.22.08-.64.08,1.3.08-.79.08.81.16-1.41.16,1.21.16-.24.09-.53.08.67.16-.64.16.72.08-.57.08.33.16-.49.08.78.16-1.07.08,1.36.08-1.2.08,0,.08-.16.25.5.08-.66.16,1.92.08-.69.08.3.08-.6.08.48.08-.43.08-1.2.08.67.08-.58L37,186l.08,0,.08-.06.09.93.08-1.14.08.71.08-.15.08.24.08-.43.08.48.16-.81.16.72.08-.66.24.91.08-1.18.17.94.08-1.15.08.31.24.87.16-.81.16.71.08-.07.08.85.08-1.32.08.5.08-.42.08.26.09-1,.24,1.49.08-.48.08.34.08-.06.08-.7.08.62.08-.09.08-.13.08.23.08-.26.16.44.16-.88.09,1.18.24-1.16.24.82.08-.71.08,1,.08-.3.08.73.16-1.21.08.14.08-.64.25.89.08-.13.08.55.08-.76.16.73.08-.28.08.66.08-.07.08-.17.08-1,.16,1.43.08.07.08-.63.08.24.08.85.09-1,.16.69.08.38.16-.78.24.69.08,0,.16-.36L45,188l.08-.21.16,1.44.08.14.09-1,.16.77.08-.5.32,1.48.08-1.5.08,1,.08-.3.08.42.16-.86.16.77.09-.21.16.54.08.27.08-.95.08.81.08-.34.08.33.08,0,.08,0,.08-.13.08.23.08.69.08-1.19.08.59.16-.54.09,1.52.24-1,.08,0,.16.83.16-.18.08.57.08-.59.08.58.08-.46.08.07.16-.36.25,1.4.08-.61.08.11.08.5.16-.69.08.4.08-.24.08.13.08.7.16-1.16.08-.08.08.93.08,0h.08l.17.29.08-.64.08.09.24.69.08-.07.32.5.08-.57.08,0,.08.21.08-.26.08.67.09-.07.16,0,.08-.89.08,1,.08-.47.08.15.16-.16h.08l.24.6.08-.7.08,1,.16-.66.09.1.24-.48.08,1.16.08-.31.08-.06.08.33.08-.13.08.19.08-.67.16.58.08-.56.08.59.08-.2.08.51.09-.16.08-.06.08-.22.08.15.08-.56.16.63.08-.46.24.55.08-.95.16.67.16-.34.09.68.08-.26.08-.31.08,0,.16.41.08-1.11.08.92.08-.19.08.41.08-.52.16.63h.08l.08-.27.08.89.08-.13.25-1.14.08,1,.16-.9.08,1.2.16-.83.16.31.08-.1.08.42.08-.14.24-.4.09.35.08-1.32.08,1.49.08-.71.16.29.08-.52.16.51.08-.35.08.27.16-.31.08.57.08-.22.08-.64.17.84.08-.82.16.5.08-.22.08.17.08-.05.08-.47.08.59.08,0,.16-.47.08.06.08.06.08.62.08-.9.08.62.09,0,.08-.63.24.85.08-.13.16-.86.16,1,.16-.67.16.34.16.35.08-.78.09.53.16-.76.08.64.08-.72.08.64.24-.73.08.47.08-.29.08.64.16-.61.16.25.17-.67.08.89.16-1,.08.56.16-1,.08,1.09.08-.34.08.16.08.58.16-1.42.08,1.37.08-.88.08.19.09.29.08-.1.16-.47.08.27.16-.48.08.46.08-.66.08,1.28.08-.75h.08l.08.51.24-.72.08.34.17-1.3.08.45.16.23h.08l.08.48.16-1.29.08.77.08-.1.08-.47.08.3.08-.18.16.29.17.18.08-.5.08.08.08.24.08-.45.08.34.08-.51.16.52.08-.4.08.42.08-.58.16.42.08-.52.08.43.08-.18.09.69.08-1.21.08.45.16-.14.08-.73.08.27.08.21.08.66.24-.73.16.33.08-.07.08-.62.08.77.09-.17.16-.39.08.19.08-.08.16-.48.16.14.08,0,.08.59.08-.7.08.36.16-.76.08.58.08-.23.17.46.08-1.24.08.72.08,0,.16-.14.08.64.16-1,.08,1.37.16-1.2h.08l.25.27.08-.77.08.94.08-.81.08.23.08-.4.08,1.1.16-1.14.08.23.08-.53.08,1.16.08,0,.16-.36.08,0,.08-.19.17.55.08-.8.08.47.08,0,.08-.22.08.06.08,0,.08.73.08-1,.08.37.08-.32.08.44.08-.08.16-1,.17.95.08-.24.08.45.08-1.1.08.38.24.47.16-.81.08.73.08-.88.08.29.08.6.16-1,.08,1.18.09-.1.08-.84.16.7.08-.86.24.91.16-.62.08.43.08-.93.16,1.77.24-2,.09,1.7.08-.08.08,0,.08.55.08-1.1.08.69.08-.74.08.36.08.91.16-1,.08.66.08-.3.08.11.08.41.08-.12.17-.65.08,1.12.08-.69.08.5.08-.16.08.09.08-.17.08.64.08-.67.08.17.08-.17.08.43.08-.39.08.21.08-.35L82,191l.08-1.15.08,1.14.08-.31.08-.88.16,1,.08.17.08-.66.08,1.21.08-.2.08.11.08.65.16-1,.08.47.08-1,.25,1.29.16-.33.08,1,.08-1.34.08.12H84l.08.26.08-.33.08,1.24.16-1.32.16.63.25,0,.08.56.08-.06H85l.16-.24.08-.1.16.7.08-.85.24,1.21.08-.91.16.81.09-.46.08.39.08-.55.16,1,.16-1.28.24,1.62.08-.69.08.67.08-.23.08.06.08-1,.16,1.05.09-.68.08.32.16-.52.08,1.09.08-1,.08.42.08-.12.08-.18.16.59.08-.3.08.19.08-.26.24.34.09.46.08-.73.08.1.24.22.08,0,.16.33.08-.53.16.59.08-.4.08.16.08.35.08-.5.09.33.08-.66.08.18.24.83.08-.27.08.1.16.09.08,0,.08-.43.08.57.08-.42.08.36.08-.37.17.93.16-1.12.08.53.08-.21.08.12.08-.11.24.47.08.68.16-1.05.41.6.08-.2.08-.84.16.89.08-.69.08.66.08-.08h.08l.08.27.08-.36.08.09.08-.23.16.71.08-.55.08.09.09-.38.08.07.16-.12.08-.1.08.73.08-.69.08.41.08-.2.16.28.08-.45.24.8.08.06.08-.32.09.24.08-.32.08.14.08-.21.08.29.08-.33.08.67.08-.09.08-.71.24.8.24-.7.08.72.08-.65.25.91.24-.55.16.66.16-1,.16.34h.08l.16.88.08-1.14.08.34.17.55.08-.41.08.16.08-.25.16.25.08-.25.08.49.08-.33.08.05.24.56.16-.18.09.51.08-.66.08.1.08-.08.08.08.08.54.16-.85.16.34.08-.16.08-.6.16,1.1.16-.54.08.13.09-.09.08.53.08-.93.08.74.08-.19.16.37.08-.42.08.15.08.29.08-.35.08.07.08.4.08-.36.08.1.16.56.09-.8.08.2.08-.16.08.49.08-.11.08-.23.08.13.08-.14.16.79.08-.86.08.27.24.3.08-.74.17.33.08.13.16-.64.08.64.08-.49.16,1.11.08-.9.24,1.1.08-.68.08.07.16.4L105,196l.17.49.08-.45.08.24.24-.43.24.35L106,196l.08-.33.24.87.17-.82.08.05.16.4.16-.45.08.68.16-.61.08.6.08-.67.08.76.08-.66.08.25.08-.53.08,1,.09-.22.08,0,.16-.12.08.68.16-.65.08.21.08-.18.08-.56.08.38.08-.33.08.58.08-.06.08.08.16-.58.09.6.08,0,.16.37.08-.67.08.11.08.62h.08l.08-.44.08.13.16-.13.16.15.16-1.19.17.82.16.05.08.14.16-.24.16.4.16-.54.08.17.08-.72.16,1.12.08-1,.08.49.08-.33.09,0,.08.52.16-.53.08.14.08-.17.08-.48.16.26.08-.62.08.74.08-.07.08-.82.16.7.08-1,.08.39.09-.71.08.58h.08l.08.09.16-.86.08.89.16-1.31.08.75.08-.13.08-.27.08.41.16-1.29.16.9.09-.73.08.18.16.28L115,193l.08.54.08-.46.08.83.16-.69.16.5.08-.85.08,1.22.08-.35.17-.22.16.11.08.62.16-.91.08.85.08-.28.16.49.16-.84.16.55.08-.4.33.78.08-.21.08.68.08-.69.08.22.08-.07.24.45.08.55.16-.62.08.76.08-1,.08.51.09-.62.08.43.08-.13.08.36.08-.31.08.91.08-.23.16-.65.24.9.08-.3.08.42.08-.88.08.79.08-.28.09-.24.16.36.08-.42.08.66.08-.17.16-.13.08.29.16-.52.24.91.08-.48.08.47.17-.61.16.51.08.06.08.6.16-1.44.16.88.08.06.08-.23.08.33.16-.33.08-.05.08.22.08-.1.09.09.08.65.24-1.27.08,0,.08.53.08-.21.08.11.08-.18.16.2.08-.3.08.53.08-.38.08.06.08.14.09.66.08-.27.08.07.08.16.16-.55.08.08.08-.29.08.5.08,0,.24-.07.24-.58.17.82.08-.65.16.6.16-.19.08-.28.24.65.08-.05.08-.69.16.54.08-.4.17.53.16-.24.08.6.16-1.26.08.95.08-.5.32.8.32-.57.08.74.09-.21h.08l.16-1,.08.56.08-.4.08,1.1.24-1.06.08.75.08-.52.16.88.08-.56.08.32.08-.63.17,1.28.08-1,.08.29.08.17L130,197l.08.06.08-.18.08.26.08.83.08-1.31.08.55.08-.35.08.68.08-.23.08-.38.17.51.08-.92.08.26.16,1,.16-.92.16.82.08-.65.08.49.08-.19.24.32.08-.18.09.42.24-.33.08.12.08-.25.08.07.08.38.16-.63.16.52.08-.33.08.29.08-.42.16.5.09-.55.08.88.08-.5.08.49.08-.33.08.52.16-.53.08.25.08-.52.08.52.08-.22.16.47.08-.73.08.5.09-.1.24.47.16-.76.08.31.08.06.08-.27.08.36.08-.62.16.82.16-.43.08.31.08-.26.09.67.08-.59.08.34.16-.74.32.49.16,0,.08.45.08,0,.08-.22.08.19.16-.43.17.75.16-.92.24.29.08-.13.16.29.08-.05.08-.4.08.68.08-.28.08.32.08-.64.08.59.09-.22.16-.37.16.65.16-.42.16.48.08-.53.08.39.08-.15.08.14.08-.68.08.59.08-.27.08.31.17-.16.08.07.08-.54.08.66.08-.22.16-.08.08-.5.32.82.24-.4.08-.11.17.27.08-.09.08.29.08-.53.16.36.08.14.16-.18.08,0,.08-.38.16.44.08-.26.08.53.09-.7.08.28.08-.12.08.54.16-.73.08.69.16-.91.16.7.08-.1.08.08.08-.52.16.49.08,0,.09-.42.08.07.08.24.08-.07.16-.25.08.31.16-.23.08.6.32-.62.08.28.16-.43.09.33.08-.16.08.41.08-.54.16.44.24-.33.16.5.24-.8.16.81.33-.69.08.54.08-.18.08-.26.08.44.24-.39H148l.16.47.16-.7.25.7.16-.5.08.08.16-.27.08.33.08-.47.24.73.08-.33.16.49.08,0,.25-.56.08.46.08-.15.16.17.16.08.24-.64.08.54.08-.94.08.79.08-.17h.17l.08-.24.16.69.08-.07.08-.48.08.54.08,0,.08-.46.08.06.16.68.08-.55.08.26.08-.5.08.53.08-.28.17.58.08-.34.08.32.08-.22.08.42.16-.85.08.49.08-.56.08,1,.08-.69.08.12.08.22.08-.28.08.15.08-.31.09.52.16-.64.08.08.16.67.08-.43.08.17.08.38.16-.49.08.42.08-.37.08.1.08.27.25-.31.32.61.16-.79.16.49.16-.29.08.54.08-.09.32-.4.09-.2.08.05.08.06.08.62.08-.21.08-.2.08.14.08-.33.08,0,.16.49.08-.13.16-.2.16.56.08-.16.17-.5.16.41.08-.48.16.43.08.09.08-.19.08.06.08.34.08-.34.08.25.08-.42.08,0,.08.68.08-.36.09,0,.08.19.24-.74.16.21.08,0,.08.24.08-.07.08.14.08-.37.08.73.16-.8.25.57.08-.31.08.31.08,0,.16-.18.16.26.08-.35.16.32.08-.16.16.48.08-.34.08.07.09-.24.08.07.08.41.08-.59.16.52.16-.38.16.48.08-.39.08.33.08-.33.08.12h.08l.08-.1.17.35.24-.6.16.66.16-.49.08.52.08-.71.08.74.08-.26h.08l.08.36.08-.64.08.28.08-.19.09.66.08-.58.08.16.08.2.08-.61.16.44.16,0,.08-.51.08.86.08-.68.08.19.08.39.08-.53.08,0,.25.36.08-.6.08.57.08-.08.08.09.16-.34.08.53.08-.37.08.11.32.14.08-.27.08.11.25.44.16-.78.08.32.32.11.08-.13.08.06.16.24.33-.2.08.26.32-.56.08.68.08-.22.08-.11.08.48.08-.07.16-.53.08.46.16-.21.09,0,.08.29.08-.55.16.4.08-.18.08.39.08-.13.08-.72.16.64.16-.11.08.27.08-.34.08,0,.08.26.17-.42.16.43.24-.32.08.2.08,0,.16-.34.16.69.08-.59.08.22.25.24.08-.29.08.08h.08l.08.31.08-.5.08.18.08,0,.08-.43.16.68.08-.5.16.63.08-.62.08.21.08-.14.09.27.08,0,.32-.17.08.53.08-.55.08.3.08-.11.08.08.16-.33.16.66.08-.25.08.21.17-.54.08.09.08.48.08-.4.08.06.08-.08.08-.45.16.72.08-.38.16.43.08-.07.16-.38.08.41.09-.21.16.26.16,0,.08.07.16-.16.48.21.08-.61.17.57.08,0,.08-.2.16.15.08-.13.08.08.08.17L179,200l.08.24.08-.07.08-.24.08.08.08-.08.08.24.08-.36.08.5.09-.37.08.29.08-.46.16.55.08-.46.08.08.08.26.16-.23.16.36.08-.67.08.23.08-.24.08.66.08-.63.09.17.16.47.08-.22.08.41.08-.27.08.09.08-.09.08-.53.24.39.08-.24.16.5.16-.51.09.63.08-.2.16-.22.08.05.08-.09.08.23L183,200l.16.37.08-.12.08-.24.08.29.08-.05.24-.31.17.2L184,200l.24.52.08-.42.08,0,.08-.14.08.26.08-.18.08.1.16-.11L185,200l.08.22.09,0h.08l.08-.12.08.19.08-.14.08.16.08-.2.08.31.16-.65.08.52.08,0,.08-.28.16.4.08-.32.17.31.08-.38.08.31.08-.18.08.27.08-.11H187l.08-.28.08.09.08-.21.08.49.08-.34.08.61.16-.51.17.05.08-.13.08.26.16-.82.08.26.08.65.08-.57.08.21.08.05.08-.31.16.7.08-.54.08.17.08-.11.08.35.17-.26.08.11.16-.22.16.14.08.12.16-.49.08.51.08-.36.08.09.16.14.08-.23.08.49.09-.15.08,0,.08.17.08-.38.08.12.08,0,.16-.21.08,0,.08-.26.08.43.08-.21.08.06.08.15.16-.35.08.43.25-.74.08.64.08-.09h.08l.16-.53.16.24.08-.1.08.48.16-.78.08.24.16-.25h.25l.08-.26.08.29.16-.5.16.09.08-.46.08.14.08.19.16-.34.08-.35.08.73.09,0,.16-.81.08.12.08-.08.08.35.08-.5.08.45.32-.64.16.4.08-.24.08.49.08-.88.09.7.08-.38.08.11.24.68.08-.4.08.31.08-.11h.08l.08-.4.08.58.16-.82.08.78.08-.1.08-.43.09.47.16-.36.08.93.16-1,.08.47.08-.16h.16l.16.33.16-.08.08-.05.08.1.25-.24.16.57.08,0,.08-.41.16.36.08.11.16-.19.24-.15.16.46.08-.6.09.83.08-.2.16-.05.32.38.08,0,.08-.18.08.06.08.26.16-.24.33.38.08-.51.16.62.08-.15.08.23.16-.21.08.09.08-.1.08.42.08-.15.08.05.08-.31.08.36.08-.45.08.45.09-.14.08.26.08,0,.08-.65.08.73.08-.59.08.46.08-.15.08-.2.08.28.08-.11.08.22.16-.24.16.51.09-.36.16.34.08-.36.08.12.16.08.08-.17.16.27.08-.18.08.5.16-.59.16.24.25.19.08-.51.16.69.08-.11L206,200l.08.59.16-.44.08.2.08-.35.08.36.08-.07.08-.17.16.45.09-.46.08.31.08-.08.08-.28.08,0,.08.24.08-.25.16.19h0" transform="translate(0 0)"/></g></g><g id="line2d_34" data-name="line2d 34"><g class="cls-5"><path class="cls-9" d="M23.43,147.87l.08,1.09.09-.34.08-.41.08,1,.08-.9.08.33.08-.25.16,1.35.16-.56.08,0,.16-.27.08.89.08-1,.08,1.1.08-.9.25,1.2.16.08.08.7.16-1,.08.95h.08l.08-.64.08.12.16.33.08-.6.08.4.08-.19.17,1,.08-.17.08-.13.08.58.16-.36.08-.79.16,1.36.08-.63.08.64.08-.33.16,1.14.08,0,.08-.58.17,1,.24-1.4.08.85.08-.08.08-.4.16.79.08-.48.24.92.08-.11L29,152l.08,1,.08-1.07.24,1.52.08-.48.08.21.08-.3.24.91.16-.93.08,1,.08-1,.08,1.15.09-.55.08.66.08-1.07.08.69.08-.1.08.17.08-.17.08.1.08-.33.24.92.08-.1.16-1.16.08,1.47.08-.89.17,1,.16-1.21.08.71.08-1.61.08,1.47.16-.8.08.92.08-.45.16.23.16-.15.08.32.17-1,.24,1.47.16-.73h.08l.16.54.08-.49.08.13.08.61.08-.76.08.51.16-1,.08.78.09-.59.08.41.08-.73.08.87.08-.57L35,154l.08-.78.08,1,.08-1.44.08,1.11.08-.77.08.28.08.47.33-1.27.08.78.08,0,.24-.83.08.33.08-.21.08-.75.08,1.38.08-.35.08-.59.08.17.16.58.08-1.55.08,1.16.09-.35.16-.94.24.69.08-.77.08,1.22.08-.36.08-1.37.08.38.08.06.08-.85.08,1.37.08-1.09.08,0,.09.6.08-.6.08.09.16,0,.24-1.56.08.32.08-1,.08.64.08-.93.08.07.08.2.08-.07.08.06.08-.21.09.05.08.08.08-.08.16-1,.08.51.08-.68.08.63.08-1.66.08,1.69.08-.63.16.07.16-.72.16.41.33-.74.08.15.24-1.07.08,1.78.16-1.85.08,1.06.08-1.37.08,1.37.08-.93.08,1.29.08-.5.09.37.08-.18.08-1,.08.11.08,1,.08-.14.08.36.08-.65.08.64.08-1.07.16.57.08,1.65.08-.26.08-.07.08.17.08-.13.09.21.08.9.08,0,.08,0,.24,1.37.16-.82.08.52.08-.37.24,1.86.08-.66.08,1.72.08-.92.09.19.08.55.08-.84.16,1.27.08-.2.08,1.08.08-.25.16-.47.08.68.08-.75.08,1.31.08-.3.16,1.59.09-1.3.08.18.16,1.07.08-1,.08,1.23.16-1,.32,1.85.08-.26.24.5.08-.27.17.56.08-.83.16,1.58.08-.44.08.22.08-.53.08,1,.08-.43.16.71.08-.4.08.33.08-.09.16.41.09-.5.08.67h.08l.08-.48.16,1.1.08-.06.08-.24.08.74.08-.48.08.09.08.29.16-.58.08,0,.08-.11.08.87.09,0,.08-.14.24.45.08-.57.16.86.08-.27.08.41.08-1.05.08,1.51.08-1.46.08,1,.08-.68.08.23.25.43.08-.19.16.4.08.07.08-.27.08.06.08-.09.16.57.08-.21.16-.68.24,1.23.09-.05.08-.82.08.56.08-.44.08.14h.08l.16.28.08-.17.08.19.16.66.16-.63.16.14.08.32.09-.47.24.59.08-.95.08.19.08.6.08-.22.16.49.16-1,.08,1.11.16-.52.08-.09.17.61.08-.34.08.52.16-.71.16.51.08-.43.08.8.16-.83.24.72.16-.89.09.94.08-.55.08.12.08-.26.08.06.08.12.24.62.16-.5.08.31.08-.92.08.27.08.69.08-.43.08.21.09,0,.4.32.16-.41.16.5.08-.1.08-.31.08.25.08-.72.16.91.17-.15.08-.33.08.46.08-.06.16-.35.08.47.16-1.09.08.42.08.1.08.59.16-.8.16.63.17-.52.16,1,.08-.69.08.3.08-.39.08.17.08-.18.08.1.08.46.08-.05.08-.58.08.48.16-.48.08.41.17-.44.08.53.08-.46.16.48.16-.63.08.38.08-.54.08.7.08-.21.08-.31.08.4.08-.22.08.34.08-.58.09.55.08-.43.16.51.08-.48.24.55.08-.68.08,1,.08-.8.08.06.08.13.08-.35.08.26.16-.22.17.41.08-.86h.08l.08.51.08-.2.08.27.08,0,.08-.07.08.45.08-.64.08.33.08-.17.08-.46.08.86.16-.77L67,162l.08-.83.08.17.08.68.16-.77.08.09.08-.1.08.9.16-1.52.16,1.18.08-.41.08.4.16-.62.09,0,.08.13.08-.72.08,1,.08-.33.08-.66.08,1,.08-.71.08.55.08-.15.16,0,.08-.47.08.93.08-1,.08.32.08,0,.09.2.08-.67.08.44.08-.76.16,1.11.08-.85.16.57.08-.18.24-1,.32.49.09,0,.08-.11.08.29.08-.85.08.24.08.52.08,0,.08-.47.08.36L72,160l.24.21.08.17.17-.6.08.77.24-1.28.08.32.08.81.16-.81.08.22.08-.28.08.21.08-.07.24-1.08.09.76.08-.5.08.65.4-1.36.08.48.16-.24.08.46.16-1.12.08.48L75,158h.08l.09-.34.08.52.16-1.11.08,1.59.08-.54.08-.59.08.29.4-1.23.16,1,.16-.94.09-.57.08,1.41.16-1.36.16.07.16,1.16.16-1.15.08.67.16-1.08.16,1.28.16-1,.09.45.08.68.08-.93.08.33.08.13.08-.62.08.17.08.15.08-.09.32.8.08-.46.08.16.16.57.09.16.08-1.16.08.44.16.36.08,1,.16-1.14.08.3.08.92.08-.87.16.89.08-.91.16,1,.08-.15.09.08.08-.08.08.12L81,159l.08-.41.08.19.08-.2.32,1.18.08-.24.08,0,.08-.25.08.41.09-.61.08.2.16-.8.08,1.61.08-.84.08,1.21.08-.4.08-.81.08,1,.08-.65.08.43.08-.08.16.66.08-1,.08.95.09-.27.16.63.08-.16.16-.91.08,1.55.16-.82.08-.3.08.39.16-1,.24,1.42.08-.3.09.1.08.31.08-.12.08.13.08-.45.08.74.08-.69.16.65.16-.74.08.37.24-.35.16,1,.17-1,.08,1.18.08-1.23.08.84.08-.44.08.34.08-.15.08.15.16-.23h.08l.08.36.08-.65.08.54.16-.47.09.65.16-.7.08.18.08,1,.16-1.27.24.75.08-.16.08.25.08-.25.08-1.26.16,1.48.08-.37.09,0,.08,0,.08-.46.24.68.08-.29.08,0,.08.7.08-.4.08.43.16-1.5.08.13.08,1,.08-.78.17.59.08-.07.16-.35.08.61.08-.1.16-.12.08.42.16-.42.16.38.24-.68.17,1,.32-1,.08,1,.16-1,.08.19.08-.1.24.62.08-.63.08.66.08-.23.09.39.16-.59.08.12.08-.33.08.43.08-.23.08.38.08-.11.08-.35.08.52.08-.3.16.57.24-.74.09.16.08.66.08-.7.08.08.08.28.32-1.29.08,1.14.08-.35.08,0,.08.41.08-.07.08-.3.08.47.08-.5.09,0,.16.52.08-.66.16.56.16-.12.08,0,.16-.07.08.26.16-.32.16.11.08-.3.09.72.08-.16.08-.85.16.85.16-.31.16.2.24-.35.08.69.16-.74.08.82.08-1,.09,1.06.08-.25.08-.79.16,1.17.24-.59.16.55.08-1.21.08,1,.08-.34.08-.41.08,1.13.08-.84.09,1,.08-.29.08-.45.24.49.08-.32.08.43.08-.64.08.36.08-.12.08-.42.08.78.08-.48.08.36.08-.15.17.35.08-.37.08.08.08-.17.24.59.08-.5.16.94.08-.86.08.12.08.51.16-.52.08.08.08-.15.09.46.08-.31.16.49.08-.22.16.35.08-.72.08.63.08-.2.08.08.16-.22.08.36.08-.29.08.15.08-.29.09.58.08-.84.08.21.24.82.08-.46.08.33.08-.28.08.1.08,0,.08.39.08-.57.08.7.08-.25.08-.48.17.39.16-.53.08.41.16-.32h.08l.08.17.16-.22.08.74H106l.16-.71.25.8.16-.61.08.41.08-.79.08.39.08-.34.08,1,.08-1,.08.74.08-.29.16.25.08-.1.08.07h.08l.09-.36.08.89.08-.65.08.55.08-.6.08.12.08.51.16-.46.16.48.16-.45.08.7.24-1.18.09.71.08-.22.08-.12.08.23.08-.68.08.75.08-.08.08-.37.08.12h.08l.08-.34.08.39.16-.23.08,0,.16.28.25-.41.08.38.08-.42.08.21.08-.7.08.16.08,0,.08.66.16-1,.08.54.16-1.47.08,1.27.17-.55.08-.08.08.16.16-.89.08.27.08-.35.08,0,.08.32.32-1.33.08.11.24-1.05.09.24.08-.84.08.23.08.52.4-1,.08-.12.08-.63.08,1.38.08-1.07.08.06.08-.15.16.53.09-.56.16.36.08-.59.32,1.42.08-1.32.08,1.35.08-.92.08.21.16.68.16.15.08-.87.09.83.08-.48.08.06.08,1.1.08-.27.08-.31.08.48.08-.06.16.33.08-.32.08.62.08-.39.08.45.16-.66.09.85.08-.68.24.87.08-.32.08.15.08-.17.08.73.08-.27.16.66.16-.5.08.45.08,0,.17-.38.08.51.08-.11.08-.17.08.18.08-.24.08.34.08,0,.08-.24.24,1,.08-1,.08.92.08-.17.08.36.08-.19.09.65.08-.45.08-1.19.24,1,.08.41.08-.83.08.21.08.43.08-.06.08-.11.16.36.08.07.08-.9.17.87.08.24.16-.64.08,0,.08-.09.08.3.08-.1.08.15.08-.36.08.2.08-.12.08.84.08-.8.08.8.16-.82.09,0,.24.82.08-.66.08.11.08-.17.08.42.08-.53.08.31.08-.27.08.46.16-.5.08,0,.08.28L124,162l.09.06.08.6.08-.87.08.7.08-.41.08.22.08.72.16-.87.08.36.16-.37.16.57.08-.15.08-.63.09.18.08-.3.08.37.08-.31.08.45.08-.36.08.36.08-.17.08-.6.08.55.08-.19.24.53.24-.68.09.14.08.25.08,0,.08.06.08.34.16-.64.16.74.08-.38.08.25.08-.35.08.11.08.42.08-.28.08.64.17-.93.08.31.08-.18.08,0,.08.5.08-.09.08-.57.08.06.08,1.1.08-1,.08.84.08-.86.16,1.12.08-1,.08.6.08-.36.09.62.08-.68.08.35.08-.26.08.67.08-.09.08.4.08-.92.08.54.16-.5.16.76.08-.22.16.26.08-.38.09.08.08,0,.08.55.16-.6.16.34.08-.17.08.07h.08l.16.43.08-.8.16.54.08-.2.17.83.08-.81.08.3.08.14.24-.63.16.73.08-.25.08.56.08-.32.08.11.16-.21.16.34.09-.41.24.77.08-.66.08.68.24-.52.08.49.08-.14.08-.32.08.65.08-.2.08-.48.08.18.09.38.24-.69.08-.13.24.71.08-.08.08.28.08,0,.16,0,.08.18.08,0,.08,0,.08-.51.17.54.16-.11.16.4.08-.65.08.33.08-.58.16.69.08-.53.16.83.08-.41.16.19.09-.47.08.55.08-.34.08.19.08-.19.08.45.08-1,.08.76.08-.24.08.27.16-.29.16.22.08.47.08-.33.08.17.09-.44.16.28.08-.81.08.7.08,0,.08.34.08-1.16.16.91.08-.81.08,1,.08-.43.08.23.08-.37.08.52.08-.32.09.32.16-.5.08.8.08-1,.08.35.08.33.08,0,.16.21.08-.34.08.29.08-.11.08.23.16-.53.08.38.09-.38.08.48.08-.63.08.29.08-.1.16,0,.08.5.16-.59.08.93.08-.15.08-.87.08.26.08,0,.08.3.09-.91.08.65.08-.69.24,1,.08-.91.08.61.08-.08.08-.13.08.09.16-.69.08.71.08-.09.08,0,.08-.22.17.44.16-.29.16-.57.08.57.08-.07.16.1.08-.33.08.6.08-.79.08.51.08-.14.16,0,.17.14.16-.31.08.11.08-.45.08.18.08.13.08.48.08-.11.16-.18.08.4.08-.7.08.1h.25l.08,0,.08.23.16-.32.16.77.16-1,.08.54.08-.74.16.85.08-.05.08.16.16-.53.09,0,.08.31.08-.09h.16l.16-.12.08.59.16-.43h.08l.16.26.16-.4.08.37.17-.72.08,1,.16-.83.08.69.08-.44.24.51.08-.33.08.26.08-.34.08.6.24-1,.25.76.16-.43.08.54.08,0,.08-.06.08-.53.16.35.08.11.08-.16.08.81.08-.25.08.31.08-.74.09.09.08.42.08-.58.08.16.08-.11.08.15.08-.06.08-.22.24.57.16-.24.08.17.08-.41.08.63.08-.11.25-.1.16.1.08-.78.08,1.11.08-.22.08-.29.08.27.08-.09.08.21.08-.25.08.22.08-.1h.08l.08.22.09-.43.08.22.08-.46.08.58.16-.35.08,0,.24.7.08-.41.08,0,.08.19.24-.51.17.68.08,0,.16-.57.08.22.08,0,.08.33.08,0,.24-.59.08.78.08-.16.16-.09.08.37.08-.08.09-.48.24.87.16-1,.16.25h.08l.24.35.24-.58.16.75.17-.68.24,0,.08.87.16-.94.24,1,.08-.51.08.36.08-.13.08-.16.08,0,.09-.08.08.43.16-.55.08.63.08-.25.08.15.24-.55.16.14.08-.26.16.57.08-.12.08-.27.17.23.08-.41.08.41.08-.07.08,0,.08.38.08-.14.08,0,.08-.27.16.29.08-.12.08.17.08-.35.08.58.08-.45.17.5.24-.93.16.83.08-.51.16.75.08-.51.08.5.24-.68.16.58.09-.3.08.08.16-.29.08.23.08-.22.24.54.08-.29.08.36.08-.7.08.44.08-.32.08.4.08-.46.08.11.09-.19.16.7.16-.36.08.27.08-.29.08.17.08,0,.08-.22.24.3.24-.38.08.44.09-.1h.08l.08-.58.16.89.08-.2.08-.56.16.54.16-.34.16.62.24-.54.09.62.16-.51.08,0,.08.5.08-.62.08.57.24-.59.08.32.08-.62.16.95.08-.37.08.09.08,0,.09-.1.08.32.08-.42.08,0h.16l.08.52.16-.26.16-.37.08.13.16.13.08.06.08-.17.08.48.25-.44.08.24.08-.19.08.36.08-.15.08-.33.08.09.24.05.08.35.08-.17.08.08.08.09.17-.44.08.41.08-.54.08.48.08-.11.08-.29.32.59.16-.6.16.42.08.17.08-.68.08.48.09-.07.16.11.08-.43.08.43.08-.45.16.57.08,0,.08-.47.24.61.08-.34.08.43.08-.7.08.12.09.34.24-.43.08.37.08-.34.08.23.08-.25.08.5.08-.53.08.46.08-.26.08.34.08-.28.08.17.08-.24.08.09.09.23.08-.09.08.05.08.2.08-.32.08.1.08-.23.08.24.08-.21.08.28.08-.08.08-.37.16.65.08-.49.08.2.09-.1.08.21.08-.14.08,0,.24-.16.24-.51.16.69.08-.22.08.33.08-.22.08.46.17-.55.08.44.08,0,.08-.57.08.41.08-.12.08-.07.08.29.08-.15.08.11.08-.51.08.31.08-.28.08.27.16-.2.08.2.09-.07.16.11.08-.07.08.08.08-.22.16.34.24-.48.16.58.16-.11.16-.34.09,0,.08.67.08-.84.16.39.08-.3.08.42.08-.24.08.58.08-.5.08.26.16-.47.08.07.08-.13.16.37.25-.33.16.46.08-.44.16.39.08-.16.08.1.16-.13.08.13.24-.28.08.5.17-.44.08.1.08-.24.08.14.08-.16.16.34.08-.1.08-.17.08.38.16-.49.16.26.41-.06.08.28.08-.36.16.38.08-.37.16.27.16-.29.08.08.08.28.16-.51.09.08.08-.34.08.56.08-.12.16.14.08.13.16-.34.08.14.08-.12.08.23.24-.54.16.18.09.3.08-.12.08.09.08-.4.08.28.08-.07.08-.32.08.09.08.05.08-.28.32.48.33-.67.16.33.08.07.16-.38.08.17.16-.56.08.54.08-.29.08.09.08.11.08-.42.08.21.08-.08.25-.43.08-.12.08.1.48-1,.08.58.16-.89.08.18.08-.22.08.41.08-.42.09.35.24-1.32.08.43.08-.29.08.12.08-.2.08.08.08.33.32-1,.25.84.08-.18.16-.3.08-.07.24.85.08-.53.08.15h.08l.08.72.08-.54.08.25.08,0,.08.13.08.37.09-.46.08.29.08-.1.48.39.08-.33.24.5L197,164l.08.17.08.38.08-.29.09,0,.08.53.24-.76.08.23.08.67.08-.16.08-.74.08.63.08-.32.08.15.08.5.08-.47.24,1,.09-.3.08-.58.08.17.08.25.08.64.08-.26.08.14.08-.37.16.35.08,0,.08.09.08.48.16-.28.08.06.08-.1.25.47.08.3.16-.55.16.81.08-.08.16-.36.08.24.08-.07.08-.11.16.45.25-.06.16-.22.08.39.08-.38.08.33.08-.3.08,0,.08.44.24-.43.08.16.08.58.08-.44.08.11.17.09.08-.24.08.28.08-.38.08.44.08-.05.08.06.08-.2.08.15.08-.12.08.19.08-.32.08.32L204,167l.08.32.09-.06.16-.05.24.4.24-.61.08.07.08-.11.16.53.08-.39.08.24.08-.27.08,0,.09-.09.08.31.08-.3.24.6.16-.38h.24l.08.28.08-.11.08.27.16-.6.08.38.25-.35.08.12.08-.08.16.37.08-.1.08-.42h0" transform="translate(0 0)"/></g></g><g id="line2d_35" data-name="line2d 35"><g class="cls-5"><path class="cls-10" d="M23.43,108.18l.08-1.38.09.13.32-1.06.16,1.81.08-.71.08,1.14.24-1.81.08,1.09.08-.29.08,0,.08,1.28.08-.12.09-1,.08.21.08-.65.24,2.09.24-1.44.08.81.08-1.22.16,1.64.08-.08.08.36.08-.73.08.41.09-.3.08.94.16-1.26.16,2,.24-2,.08.25.16.82.08.35.08-.14.16.74.17-.57.16,1.36.24-.9.08.26h.08l.16.32.08,1,.08-1.27.08.13.08.26.08.92.08-.36.09-.27.08.29.08-.33.08,1,.08-.72.16.87.08-.91.24,1.64.08-1.24.24,1.34.08-.49.17.63.08-.77.08,1.16.08-.24.08-.25.24.76h.16l.08.64.08-.46.08.41.08-.11.16,1.07.08-1.5.09,1.31.08,0,.16.47.08.11.08-.63.08.84.08-.71.08,1.53.08-.5.08-.06.08.07.08.7.08-1.27.16,1.38.08-1,.17,1.27.08-1.58.24,2.5.16-.7.08,1.14.08-.23.08-.58L34,118l.16-.75.08,1.4.08-1.28.08.75.09-.53.08.47.08-.57.16,1.18.16-1L35,119l.16-1.09.16.59.08-.73.16.5.08-.28.25.45.16-1.39.08,1.18.08-.14.16,1,.16-1.82.08,1.46.16-1.48.08.73.08-.32.25.51.16-1.18.16,0,.16-.31.08,1.14.16-1.16.08,0,.16-.21.08.18.08-1,.08.68.17-1.25.08.68.08-.31.16.82.24-2.38.08.6.08,0,.16-1.46.08,1.16.08-.19.25-2.07.08,1,.16-.77.08,0,.08-.14.24-2.07.24,1.16.08-1.56.08.21.08.14.08.38.08-2.2.09,1.35.08-1.2.16.64.08-.94.08.7.08-1,.08,1.82.08-1.53.08.46.16-1.52.16.81.08-.43.16,2,.25-2.23.08.88.08-.43.24,2,.08-.5.73,5.18.16-1.12.08,1.85.08-.74.08,1.66.08,0,.08.57.08-.43.24,2.44.08-.79.08.19.16,1.08.08-.45.17,1.74.08-1.11.24,2,.08-.18.08-.52.24,1.85.08-.16.16.74.08-.74.08,1.46.09-.49.08.43.08,0,.08-.21.08.65.08-.51.16,1.2.16-.55.08.15.08,1.29.16-.87.08.83.08-.47.08.42.09-.37.16.93.16-.12.24,1,.08-.29.16.63.08-.16.16-.92.16,1,.08-.06.09.37.08-.31.08-.93.08,1.07.08-.13.08.37.08,0,.16-.25.08.35.08-.24.08.68.08-.61.08.43.24-.6.09.66.08,0,.08-.14.08.63.16-.52.16.17.08.32.08-.75.16,1.17h.08l.08-.32.16.58.17-.09.16-.13.08.61.16-.81.24.67.16-.85.08.85.08-.26.16.34.08-.12.17-.64.08.73.08-.58.16.72.08-.53.08.09.08.71.08-.67.08,0,.08.56.08-.68.08.61.08-.27.08.12.16-.58.09.95L55,129l.08.63.16-1.21.08,1.1.08-.24.08-.41.08.39.08-.12.08,0,.08-.26.08.28.08.69.08,0,.25-.74.16.7.16-.49.24.72.08-.79.08.67.16-.64.08-.13.33.7.16-.37.08.12.08.72.08-.74.08.18.08-.16.08.08.16-.28.08.27.08-.11.08-.24.08.42.08-.23.17.28.16-.22.08.34.08-.3.08.2.08-.38.08.35.08-.52.16.73.08,0,.08.4.08-.06.08-.12.08.14.09-.54.08.46.08-1.07.16.7.08-.31.16.22.08.46.16-.74.08.19.08-.07.08.05.16-.28.08.58.09-.4.08.14.16,0,.08.56.16-.71.16.49.08-.14.08-.44.08,0,.16,0,.08.61.08-.15.08.07.09-.68.08.77.08-.09.08-.28.08.41.16-.43.16-.17.08-.66.08,1.4.08-.29.24-.79.08.86.09-.13h.08l.08-.32.08.26.08-.91.08.48.08-.56.08.69.08-.51.08.48.08-.16.08-.28.16.87.08-.41.08.24.08-.41.09,0,.08.13.08-.23.08.82.08-1.1.08.91.08-.77.08,0,.16.52.08-.56.08.51.16-.56.08.28.16-.13.09.07.08-.3.08.44.08-.44.08.07.08-.16.16.68.32-.66.08.33.08-.62.08.43.08,0,.17.48.16-.82.08.22.24-.36.08.65.08-.12.08.5.24-.91.08.22.08-.25.08.1.08.15.09-.26.08.29.08,0,.08,0,.08-.27.08.07.08,0,.08-.15.08.47.08-.84.16.5.08.17.16-.79.08.57.08-.4.09.81.32-1.67.08,1.26.08-.15.08-.59.08.24.08-.35.08.4.08-.55.08.11.08-.34.08,1.18.08-1.22.08.35.09.41.08-.06.32-1.12.08.37.08-.48.08,1.43.16-1.33.08-.38.08.92.08-.28.08-.66.08.13.09.53.16-1.78.16.86.08-.23.16.36.08-.29.16.27.08-.58.08.34.16-1,.16.72.17-.75.16.09h.08l.32-1.08.16,1,.08-1,.08,1,.08-.31.08-.12.08-1,.08.92.09-.29.08-.56.08.3.08,0,.08-.41.08.79.08-1.16.16,1,.08-.72.08.64.08-.52.16.61.08-.88.08.51.08-.72.09.6.08-.15.08-.26.16,1,.16-.93.08.7.08-.36.08,0,.08,0,.24,1L79,124l.08,1.59.08-1.24.09.26.08.53.08-.38.08.3.08.91.08-.34.08.11.08.34.08-.64.16.42.08-.42.08.6.08-.16.16,1.18.08-.23.09-.45.08.11.08.42.08,0,.08-.34.08.51.08-.29.08.17.08.75.08-.61.16.7.16-.9.16,1.29.09-.67.16.6.24-.27.16.6.16-.26.08.21.08-.06.08-.28.16,1.1.08-.47.08.65.09-.58.08.21.16-.34.08.24.08-.23.32.9.08-.32.08.1.08,0,.08-.65.24.65.09-.1.08.43.08-.62.08.42L85,129l.08.7.08-.43.08.11.08-.12.16.64.24-.79.08-.31.08.88.17-.55.08.72.08-.54.08.14.24.89.16-1,.08.86.08-.69.16.35.24-.56.17.89.08-.67.08.16.16,0,.24-.53.24,1.09.08-.46.08.18.16.19.08-.42.08.6.09-1,.08.65.08-.2.08.1.16-.25.08.3.08-.17.08.14.16-.72.16,1.27.16-1,.25.69.08-.74.16.5.08.09.16.44.08-.17.08.36.08-.09.08-.8.08.79.08-.26.16-.9.08.73.09-.39.32,1.08.32-1,.08-.05.08.54.08-.48.08.06.16.76.16-.74.09.66.08-.35.08.12.08.07.16-.31.16.69.16-.83.24.56.16-.3.08.39.08-.7.17.79.08-.11.08-.8.08.71.24-.88.08.66h.08l.08-.12.08.58.08-.79.16.51.08.07.08-.1.17.18.08-.6.08.19.24.5.08-.22.08.32.08-.12.16-.22h.16l.08-.09.08.31.17-.59.08.71.08-.35.08.41.08-.42.16.59.08-.46.08.1.08-.16.08.29.08-.77.08,0,.16.78.08-.05.08-.28.09.44.24-.47.08-.09.16.69.08-.56.08.39.08-.06.08-.56.16.62.08,0,.08-.72.08.18.09.83.08-.48.08.76.16-.87.08.92.16-1.08.16.47.16-.35.08.21.08-.14.16.45.08-.31.09.29.08-.53.08.64.08,0,.08-.11.08-.33.16.56.16-.79.16,1,.08-.6.24.77.17-1.23.08.75.08-.42.08.49.08-.44.08.59.16-.33.08.64.08-.46.08,0,.08.36.08-.69.08.11.08.12.08-.26.08.55.09-.13.08-.32.08.08L104,131l.16.95.16-.58.08.11.08-.09.08-.67.08,1.08.16-.92.08.69L105,131l.17,1,.08-.7.08.47.08-.61.08.52.08-.44.08.05.08.57.08-.29.16.33.08-.59.16.71.08-1,.08.6.09-.59.08,0,.16,1,.08-.81.08.43.16-1.16.08.87.08-.08.08.43.24-.56.16.39.09-.41.08.21.08-.59.08.65.08-.24.16,0,.08-.73.08.26.16.34.08-.1.08.32.08-.05.16-.34.08.13.09-.48.16.59.08-.37.08.08.16-.42.08.32.16-.7.16.58.08-.86.08.6.08-.79.08.83.17-1.19.08.46.08-.35.08.76.08-.91.08.07.08-.08.08.1.16-1,.24.55.16-1.13.08,0,.08.46.09-1.25.08.14.08-.45.08.48.08-.5.08.32.16-1,.08.06.08.44.16-1.34.08.27.08,0,.08-.41.08.39.08-1,.09.18.08.82.08-.12.16-1.14.08.4.08-.56.08.14.24-1.54.08.82.08-.23.08.61.33-1.15.16,1,.16-.28.08-.33.08.51.08,0,.08-.07.08.64.24-.93h.08l.24,1.37.09-.06.08.64.08-.6.16,1.52.08-1.55.08.52.16-.55.16.82.08-.42.16.77.08-.11.08.21.17-.36.4.83.08-.07.08-.12.08-.58.32,1.46.24-1,.09.76.16-1.76.16,1.53.08.1.08-.49.08,1,.08-.09.08-.35.16.33.08-.85.08.93.08,0,.08.12.17-.8.08.36.16.93.08.23.16-.88.08-.24.08.55.08-.42.08,1.08.08-1.28.08,1,.08-.06.08-.69.08.1.08.62.09,0,.08-.07.08.3.08-.09.08-.68.08.24.16-.85.16.94.08-.7.08,1.09.08,0,.08-.42.24.74.17-.59.08.84.08-1,.08.63.08,0,.08-.7.08,1,.08-.07.16-.28.16.33.16-.62.08,0,.08-.54.09.84.08-.87.24,1.06.08,0,.08-.56.08.49.16-.4.08.48.08-.63.16.46.08.2.08-.25.17.51.08-.47.08.58.08-.22.08-.78.16.78.08-.06.08-.4.32.67.08,0,.08-1,.08,1.27.09-.63.08.21.16-.4.16.89.08-.17.08-.62.16.88.08-.62.08.19.08.68.16-1.2.08.76.08,0,.17-.74.16.76.08-.3.08,1,.08-.34.08-.08.08.29.08-.2.08.27.08-.15.08.21.08-.22.08,0,.16.54.09-.66.24.57.08-.67.08.59.08-.51.16.63.16-.36.16,1,.08-.85.08.1.08-.13.17.47.08,0,.08-.7.08,1.28.08-1,.08.73.08-.29.16.33.16-.26.08.2.16-.6.24.68.09-.16.08.1.16-.46.08.55.08-.27.08.22.16-.33.08-.06.24.74.16-.28.16.34.09-.3.08,0,.08,0,.16.51.08-.23.08.07h.08l.08-.18.16.6.16-.42.08.17.16-.18.17,0,.08.33.08-.21.08.23.08-.91.08,1.16.08-.41.08.14.08-.37.08.34.08-.51.08.13.16.46.08-.49.08.91.09,0,.08-.7.08.38.16-.61.16.48.08.1.08-.41.16.62.08-.63.08,0,.16.33.08-.24.08.73.09-.65.08,0,.16.32.08-.26.16.66.08-1,.08.82.08-.14.08-.06.08-.68.24.62.16-.34.09.07.24-.95.08.88.16-.74.08.42.08-.21.08.29.08-.61.08.48.08-.28.16.62.08-.65.08.77.09-.11.24.21.08-.18.08.22.08-.65.08.8.08-.29.24.63.08-.73.08.54.08-.37.08,0,.08.52.09-.09.08.23.08-.58.16.76.08-.88.16,1,.08-.61.08.14.08.21.16-.39.08.7.08-.64.08.33L143,131l.08.51.08-.7.16,1.12.16-1.06.08.23.08,0h.16l.16.28.08-.41.24,1,.09,0,.08-.61.08.2.08-.34.08.05.16,0,.08,0,.08.2.08-.5.08.25.08-.12.08.47.08-.06.16-1,.17,1.17.08-.58.16.47.08-.65.08.52.08-.13.08-.39.16.34.08,0,.24.63.08-1.13.16.79h.09l.08-.35.08.67.16-.57.08.1.08-.15.08.52.08-.21.08-.05.08-.34.08.45.08-.12.08-.06.08.37.16-.5.09.32.08-.09.08,0,.08.53.08-.22.08-.87.16,1,.08-.7.08.7.08-.14.08-.27.08.09.08-.21.16.58.08-.49.09.12.24,0,.08-.33.08.65.16-.58.08.18.08,0,.08-.2.16,1.07.08-.69.08.55.08-.08.09-.5.16.5.08-.2.24.41.08,0,.08-.21.08,0,.16.22.08-.2.16.6.08-.39.08.19.09-.39.08.33.08-.54.16.7.16-.57.16.45.08-.16.08-.35.08.45.08-.4.08.58.16-.59.08.13.17.68.16-.55.08.41.08-.15.08.21.08-.24.08.68.16-.52.08.2.08-.62.08.11.16.51.08-.25.09.32.08-.12.08-.23.08.3.08-.22.08.16.16-.4.16.52.16-.47.08.24.08-.39.16.71.17-.45.08.33.08-.14.08.27.08-.33.08.05.08.2.08.54.16-.89.16.66.08-.29.08,0,.16.31.08-.74.09.79.08-.39.08.13.16-.35.16.44.16-.18.24.27.08-.4.08.14.08.41.08-.27.08.24.09-.42.08.21.08,0,.08-.06.08-.57.16.76.08,0,.08-.3.08.05.16.6.08-.54.08.31.16-.2.09.42.16-.43.24.41.08-.42.08.6.08-.08.16-.49.08.76.08-.6.08.07.16.2.08-.07.09-.51.08.48.08-.15.08.1.08-.46.08.77.08-.66.08.24.08-.15.08.28.08-.07.08.05.16-.55.08.57.08,0,.17,0,.08.17.16-.37.08.29.08-.22.08.09H164l.16-.29.08.05.08.38.08-.06.08,0,.16-.14.08,0,.09-.26.08.44.08-.08.08-.12.08.1.08-.28.08.28.16-.12.08.27.08-.07.08-.12.08.2.24-.31.17.13.08.5.08-.59.08.45.08-.12.16-.25.08.12.08.26.08-.48.08.19.08.12.08-.14.16.56.25-.45.08.16.16-.19.08.22.08-.44.08.12h.08l.08.34.24-.63.08.09.08.4.08-.11.08.15.17-.29.08.33.08-.07.16-.1.08.11.24-.23.08,0,.08.16.08-.07.08-.15.16.27.08,0,.09.16.08-.39.08.59.16-.67.08.53.08-.45.08,0,.32.32.24-.15.16.12.17-.24.16.36.08-.6.08.2.08.31.08-.23.08.2.08,0,.08,0,.16-.21.08.62.08-.13.08-.49.08.28.09-.24.08.07.08.21.08-.11.08.1.16-.22.08.39.16-.59.08.57.08-.29.08.34.16-.34.08.56.25-.48.24.39.08-.28.08.17.16-.38.08.39.16-.41.08.14.08-.35.24.69.09-.44.08.2.08-.07.08,0,.08.29.08-.52.08,0,.08-.1.24.82.08-.54.08.11.08.14.08-.53.08.43.08-.25.25.42.08-.45.08.26.08-.3.08.78.16-.65.16.1.08-.07.08.18.16-.2.08.31.17-.31.08.32.08-.39.08.12.08.17.08-.12.08.07.08.23.16-.77.08.73.08-.42.08.28.16-.3.08.26.09-.44.08.65.08-.22.16-.19.16.26.08-.36.08.34.16-.32.16.64.08-.68.08,0,.25.37.08-.26.08.23.08-.13.16.14.08.39.08-.15.08-.55.08.21.08-.11.16.38.08-.22.08-.32.16.17.09,0,.08.39.08-.42.08.15.08.2.08-.7.08.12.24.31.08-.29.08.71.08-.24.08-.4.16.34.17-.5.24.78.08-.62.16.34.08-.11.08-.31.08.29.08-.1.08.18.16-.21.24.27.09-.34.16.18.16-.32.08.78.16-.59.08.42.16-.61.08.38.08-.42.08.13.08-.34.08.5.09-.06.08-.35.08.26.08-.38.24.49.08-.48.08.69.24-.78.16.44.08-.15.08,0,.08-.3.09.43.08-.16.08-.45.08.36.08-.16.16.17.32-.52.08.45.08,0,.08-.47.16.4.17-.77.08,0,.16.37.08-.68.08.23.08.36.08-.73h.08l.08.06.16-.76.08.49.08-.15.08-.12.08-.85.17.77.16-.62.08,0,.08-.36.16.49.08-1.1.08.35.16-.19.08-.42.08.2.16-.4.08.93.08-1.5.09.34.32-.72.08-.14.08.32.08-.08.08-.11.08-.87.08.28.08.5.08-.7.08.09.08.26.16-.35.09.39.08-.29.08,0,.08.48.08-.12.08-.26.08.44.08-.48.16.6.08-.53.08.78.08-.2.08-.69.33,1.65.16.21.08-.12.08.45.08-.54.08.05.08.77.08-.1.08-.64.08.63.08-.3.08.11.08,0,.16.44.17-.27.32,1,.24-1.06.16,1.13.16-.58.16-.18.08.78.17-.67.16.51.16-.11.16.61.08-.06.16.22.08-.42.08.15.08.33.08-.47.16,1,.08-.48.17.51.08-.15.08.15.16-.26.16.33.08-.07.08.38.08-.15.4.66L200,133l.25.43.08-.16.08.16.16-.16.08.17.08.56.08-.57.08.06.08.36.08-.2.08.4.08-.12.16-.25.09.2.08-.11.08.17.16-.37.16.38.08.07.08-.17.08.2.08-.08.08.19.08-.26.08.4.08-.14.08.05.17-.26.16.1.08-.15.08.37.08-.31.08.16.08-.2.08.46.08-.16.08.17.08-.15.08.32.16-.39.08.35.09-.41.08.49.16-.36.08-.05.24.28.08-.35.16.46.32-.2.08.26.08-.05.17-.16.08,0,.08-.29.16.33.08-.15.08.13.16-.17.16.33.24-.38.08-.19.25.43.16,0,.08-.19.16.34.08-.12.08.11h0" transform="translate(0 0)"/></g></g><g id="line2d_36" data-name="line2d 36"><g class="cls-5"><path class="cls-11" d="M23.43,85.5l.08.25.09-.49.16,1.23.08-.36L24,87.32l.08-.95.08.65.08-.76.08.16.16.92.08-.81.08.32.08,1,.08-.57.17.27.08-.61.16,1.44.08-.33.08.08.08-.21.08,0L25.61,89l.16-1.21.08.65.08-.14.08-.22.33,1.2.16-1,.08,1.19.16-2.15.08,1.39.08,0,.08-.09.16.75.08-.1.08.12.08.39.08-.09.16-.2.09-.63L28,90,28,88.56,28.11,90l.16-.87.08.86.08-1.3.08,1.18.08-.44.08-.3.08.89.08-.12.08-.24L29,89l.08.65.08-.05.08.18.32-.76.08.53.08-1.59.08.63.24-2.2.24,2.22.09,1.34.08-.26.08.94.08-.33.08.41.16-.33.16,1,.24-.89.08.82.08-.69.08.4.08-.15.17.72.08-.45.08.49.08-.35.16.36.08-.72.08.21.16.32.08-.62.08.42.08-.13.08.09.16-.26.17,1,.24-1.44.16,1.39.08-1.53.08.51.08.19.08.87.08-1.3L34,91.8l.16-.76.08.35.08-.87.17,1.11.08-.41.08.06.08.07.16-.14.08.68.16-1.07.08,0,.08.63.08-.58.08.74.08-1.31.08.79.08-.05.17-.53.08.16.16-.31.08.06.08,0,.08.59.08-1,.08.3.16.72.16-.85.08.26.08-1,.08.76.08-.69.09.43.08-.09.08-.63.08,1.06.08-1.1.08.6.24-1.2.08.55.08-.54.16.79L38.34,88l.08.75.09-1,.08.59.08-.48.08.41L39,87.24l.24-1.9.08-.11.08.09.32,2.77.08-1.53.09.74.08-1,.16.67.08-.1.08-.69.08.57.08-.8.08.09h.08l.08,1.27.08-.43.16-1.19.08.23.08,1,.08-1,.09.21.08-.57.08.26.16-.76.08.66.08-.66.08.18.08-.29L42,86.13l.08-1.21.08.94.08-.29.08-.32.16-1,.17.89.08-.52.08.68.08-.06.08-.38L43,85l.08.8.08-.68.08.49.08-.42.08.11.08.39.08-.25.08.15.16.85.08-2,.17,2.28.08-1.15L44.31,87l.08-.47.08-.12.08,1.19.08-.45.08.32.08-.5.16,1,.08-.45.16.82.08,0,.09-.13.24.82.16-.85.08.11.08,0,.16.25.24-.22.08,0,.16,1.48.33,1.11.08,0,.08.83.08-.45.32.68.08-.44.16,1.16.08-.94.16,1.39.09-.88.08.39.08-.36.16,1.11.08-.71.08.17.08.83.08-.42.08.35.16-.49.24.82.16-.65.17,1.28.08-.37.08.36.08-.6.08.7.16-.37.16.46.08-.41.08.55.08-.1.08-.23.24.91.09-1.09.16,1.17L51,95.4l.08-.32.08.34.08-.06.16-.43.32,1.37.08-.69.08.71L52,95l.17,1,.08-.68.08.75.08,0,.08-.49.08.76.08-.67.08.63.08-.32.08,0,.08.23.08-.43.24.43.08-.37.17.48.08-.53.08.37.08-.6.24.79.08-.6.08.65.08-.35.24.43.08-.3.16.65.08-1,.17.93.24-.6.08-.08.16.35.16,0,.16.42.08-.13.08-.56.16.9.09-.57h.08l.24.35.08-.13.08-.7.08,1,.08,0,.16-.87.08.49.32-1.28.08.09.17.72.08-.69.24,1.41.08-.23.16.35.08-.36.08.11.08.25.08-.33.08.54.16-.38.08,0,.09.11.08-.43.08.78.16-1.07.16,1.07.08-.45.08,0,.08-.11.08.38.08-.42.08.38.08-.7.16.7.08-.22.09.07.08.37.08-.69.08.09.08.24.08-.05.08-.3.08.25.08.61.08-.66.16.42.08-.57.08.18.16-.32.08.25.25-.37.08.35.08-.09.08.29.16-.65.08.17.16-.28.08.23.16-.78.08.31.08.4.08-.25.09-.68.08.11.08.4.16-.35h.08l.08-.85.08.08.32-2.57.08.16.24-3.18.41-7.88.16-3.72.08.38L65,77l.08-.21.08.64.24-4.55.16-4.18.17,6.16.32,16,.32,3.27.16.39.08,0,.08,1.07.08-.35.08-.18.08.1.09-.59.08.66L67.2,95l.16,1,.08-.06.32-1.18.08.53.08-.23.08.43.16-.23.08-.86.08,1.5.09-.15.08-1.46.08,1.08.08-.34.08-.65.08.73.08-.27.24.07.16-.05.4-1.78L70,85.59l.32-15,.08.73.81,19.81.08.33.16,1.43.08-.14.32,1.44.08.05.08.59.08-.86.24.7.08.21.09-.43.08,0,.16.19.08-.07.08.1.08-.26.08.57.24-1,.08.7.24-.93.08.15.09-.18.08.52L74,94l.08.76.08-.83.08.06.08-.05.08-.29.08-.82.08.67.08-.55.08.69.24-.64.16,1,.09.13.08-.82.08.66.32-.87.08.42.08-1.15.16,1,.08.29.08-.56.08.2h.08l.08-.36.08.17.09.43.24-1.19.08.09.08-.25.16.43.08-.14.08.57.08-.67.16.54.08-1.27.08,1,.08-.27.33-.9.08.37.16-.17.08,0,.24-.66.16.07.08,0,.08.18.08.79.08-1.4.08,0,.09,1.44.08-1.24.08.09.08-.29.08.17.08-.11.08.69.08,0,.16-1,.08,1.07.08-.87.08,1.49.08-1.13.08.06.08.2.08.7.09-.7.08.56.08-.44.08.27.08-.21.08,1.16.08-1.14.08.25.08-.16.08.13.08.9.16-2.46.16,1.2.17-.19L82.11,93l.16-.51.16,1.76.08-.94.24,1.09.08-.25.08.17L83,94l.08,0,.16.43.09.17.08.45.16-.65.08,1.34.08-1.42.16.93.24,0L84.2,95l.08.09.08.76.16-.88.17.85.08-.41.08.7.08-.34.08.4.08-.08.24-.75.08,1.38.16-.76.08.24.08-.32.16.48.08,0,.09.25.08-.56.16,1.07.08-.85.08.24.16-.51.24,1,.32-.82.08.47.08-.39.17.53.16-.83.08.36.08-.13.08.2.08-.09.16-.27h.08l.08.46.08-.65.16.81.08-.47.08.27.09-.23.08.48.08-.4.16.43.16-.21.08.44.08-.39.08.32.16-.72.08-.24.08.73.08-.54.17.54.08-.23.08.34.24-.74.08.41.24-.72.08.09.24-.9.16-1.18.08.87.09-.6.16,1.67.08,0,.08.39.08-.14.08-.53.08,0,.08.85.16-1.32.08.63.08-.24.24-.3.41-2.71.08.19.08.18.08-.8.08.68.08-.6h.08l.08.2L94,94.74,94,95l.17,1.46.08-1.17.16,1.26.16-.66.08.74.08-.87.16.71.16-.15.08.37.08-.12.08.21.25-.58.16.7.08-.54.08.62.08-.15.08-.35.08.46.08-.06.08.12.08-.34.08.51.08-.38.08.12.08-.1.16.52.17.28.08-.46.08.56.08-.59.08.39.08-.15.08.23.08-.06.16-.81.08.28.16.53.08-.42.08.4.08-.68.25.78.08-.61.08.45.08-.23.16.24.16,0,.16-.49.08.22.08,0h.08l.08-.53.09.25.32-2.33L100,95l.08-.16.24,2.57.08.2.08-.57.16,1,.08-1.11.08.31.25.77.08-.55.08.1h.08l.16.49.08-.08.08.71.16-.78.08.19.08-.05.16.23.16-.38.09.25.08-.33.08.35.16-1.09.16,1.16.08-.72.08.16.16.66.16-.36.08.2.08-.1.08.59.17-.85.08,1.34.08-.68L104,99l.08-.22.16-.85.24.88.16-1.12.08,1.25.08-.25.08-.08.08-.57.25.85.16-.11.24-.48.08.14.08.6.16-.58.08.17.08.28.08-.08.16.06.08.28.09-.88.08.79.08-.17h.08l.08-.3.08.49.08-.18.08,0,.08.4.08-.54.16.49.08-.1.08-.59.08.27.08-.28.09.3.16-.5.16.24.08-.13.08-.57.16,1.07.08.21.08-.47.08.09.16-.42.08.8.08-.06.08-.38.17.33.16-.76.16,0,.08-.22.16.81.16-.45H110l.08.32.08-.21.08.72.08-.43.17.48.08-.67.08.1.16.35.08-.12.16-.18.24.78.08-1.27.16,1,.08-.4.08.49.25-1.07.08.22.24-.77.16.38.08-.08.08-1,.08.77.24-2.78.08.11.08.68.08-.18.09-.8.08.68.08-.09.24-1.08.08.61.08-.2.08-1.06.08.07.08.37.16-1.32.08.22.08.73.16-.88.09.63.24-.5.08.44.08-.19.08.06.08,0,.16,1.58.08-.93.08.67.08-.71.08.25.08-.11.08.16.08,1,.09-.29.08.21.08-.44.08.08.08.49.08-.29.08.84.08-.13.08.11.08-.21.16.51H117l.08-.73.17,1,.08.19.08-.19.08.62.08,0,.16-.39.08.42.08-.36.08,0,.08.21.08-.14.08.41.08-.19.16.36.08-.65.17.77.08-.35.16.45.08,0,.08.64.08-.63.08,0,.16-.36.16.55.08-.31.16.42.25-.28.08.22.08,0,.08.07.08.28.08-.62.16.73.08-.15.08,1,.08-.24.16-.55.08,0,.08.57.08-.75.17.65.16-.3.08.38.08-.7.08.22.08.76.08-.44.08.44.16-.79.08.36.08-.58.08.63.08-.89.08.58.09-.6.08.52.16-.68.08.6.08-.66.24,1.08.16-1.29.32.75.08-.51.08.21.17-.36.08.7.08-.61.08.1.16,0,.08-.92.08.42.08-.22.08.32.08-.89.08.92.08-.36.08.35.08-.08.09,0,.16.44.08-.33.16.41.08-.23.08.29.08-.28.08.36.08-.06.08-.52.08.84.08-1.17.08.68.08-.23.25,0,.08-.09.08.09.16-.11.08.6.08-.41.08.17.08-.49.08.2.08-.6.24.59.08-.23.08.34.09,0,.08.08.08-.09.08.09.08-.35.24.28.08-.51.16.52L129,97l.16.68.16-.94.17.12.08.56.16-.72.4.6.16-.62.08.2.24.38.33-1,.16.17.24-1.08.08.51.24-1.84.08.16.08-.42.32-4.53.33-3.11.08.43.08-1.27.4,6.33.24,2.94.24,2,.25.87.16.6.08-.11.08.52.08-.13.08-.38.08.83.08-.44.08.15.24.22.08.29.09-.44.08.09.16,1,.08-.33.08-.89.08.21.16-.3.16.59.08.09.16.66.08-.79.08.07.08-.17.09.35.08-.57.08.17.08.15.08.43.08-.27.16.79.08-.52.08.29.08-.07.08-.13.08.76.16-1.38.08.31.08.77.09-.74.08.65.08-.19.08.42.08-.42.16.4.08-.34.08.74.24-.65.08.53.08-.32.08.18.08-.19.08-.5.17.78.16-.15.08,0,.08-.17.08.06.24.28.16.17.08-.5.08.16.08-.17.08.24.17-.49h.08l.16.74.16-.49.16.07.16.31.16-.59.08.45.08-.24.08.26.08-.61.08.74.17-.59.16.06.16.28h.16l.08.44.16-.94.24.58.08-.19.08.09.09.12.08-.49.08.62.24-.73.08.22.08-.31.16.44.08-.35.08.73.08-.65.08.62.08-.14.25,0,.08-.59.08.77.08-.6.08.4.08-.61.24.77.08-.26.08.19.32-.54.08.26.17-.3.24.19.08-.21.16.39.16-.28.08,0,.16-.28.08.14.08-.16.08.12.08-.48.08.34.09-.09.08-.12.08.49.24-1.21.08.76.08-.35.08.41.08-.69.16.62.08-.35.08.19.08-.66.08.12.25.73.24-.4.08-.06.08.11.08-.34.08.31.08-.31.16.55.08-.32.08.33.08-.31.08.35.08-.59.33.84.08-.42.08.31.08,0,.08.07.16-.15.08.11.08-.67.16.95.33-.35.08.41.08-.34.08.69.16-.91.08.79.08-.74.08.23.16.3.08-.5.08.29.08-.15.08.21.08-.1.09-.29.08.2.08-.07.08-.48.24.81.08-.63.08.39.08,0,.08,0,.08-.3.08.67.08-.09.08-.43.16,1.07.09-.46.08.19.08-.51.08.51.16-.33.08.38.08-.23.16.22.08-.13.08.1.08-.27.08.38.08-.46.08.55.08-.42.09,0,.08.63.16-.75.08.09.08.82.08-.64.08,0,.24.42.08.4.16-.94.08.34.08-.11.08.37.09-.42.16.34.16-.53.08.48.08-.25.08.39.08-.65.24,1,.08-.68.08.51.08-.75.08.24.17,0,.16-.15.16.12.08-.17.24.63.08.11.08-.48.08.07.16-.14.16.8.08-.9.09.23.08.15.08-.33.16.5.16-.45.08.46.08-.51.08.33.08-.14.08.3.08-.15.08.13.16-.38.17.37.08-.34.08.13.08.32.08,0,.08-.51.08.39.08-.3.24.7.16-.65.08.59.08-.17.08.12.09-.28.08.23.08-.24.08.59.16-.49.16.23.08-.23.08.5.08-.1.16-.5.08-.07.08.51.08-.46.08.08.09.23.08-.13.08-.41.08.49.08-.26.08.36.08-.22.08.11.08-.22.08.48.08-.5.08.39.08-.14.08-.18.08.07.08.21.17-.31.08.1.08.37.08-.27.08.09.16-.23.08-.13.08.54.24-.63.08.09.08-.13.16.69.08-.23.09-.15.16.17.08-.16.16.26.08,0,.08-.37.08.24.08-.33.08.25.16-.5.24.63.08-.53.09.19.08-.21.08.08.08.28.32-.67.16.41h.08l.08.29.24-.49.08-.14.09.16.08,0,.08.06.16-.68.16.34.08-.28.16.17.08-.06.08.16.16-.37.08.11.08.32.08-.64.09.06.08-.38.08.19L170.6,98l.08.06.08-.32.08-1.24.08.23.32-.48.08.14.08,1.11.08-.1.17.38.4,1.7.08.59.08-.17.08.07.08.42.08-.1.08.16.16.52.25-.43.08.28.08-.17.08.42.08-.14.24-.56.16.59.08-.22.08.1.08-.1.16.43.25-.37.08.09.24.43.08-.31.08.11.08-.07.08.09.08-.53.08.71.08,0,.08-.23.08.48.08-.72.08.47.08-.49.09.51.08-.27.08.58.08-.37.08.11.08,0,.08.45.16-.61.08.21.08-.32.08.46.16-.28.08-.06.08.52.08-.36.09.13.08-.15.08.54.08-.19.08-.27.08.26.08-.2.08.19.08-.47.08.2.08-.36.08.5L178,101l.08.59.08-.21.08.27.09-.33.08,0,.08.41.16-.83.08.56.08-.29.08.09.24,0,.08-.39.08.39.08-.08.16,0,.08.11.17-.07.08.14.08-.07.08,0,.08-.2.16.74.08-.41.08.07.24,0,.16-.16.16.15.09-.15.16.4.08-.14.16-.18.08.47.08-.43.08.45.16-.55.16.28.08-.08.08.37.08-.45.08.34.09-.34.16.19.16-.37.08.31.08-.27.08.06.08.57.16-.81.24.36.16-.33.17.16.08-.09.08-.26.16.52.08-.56.08,0h.08l.08-.35.16.4.08-.39.16.44.08-.22.08.26.08-.08.09-.07.24.69.08,0,.08-.28.08.12.08,0,.16.39.24-.38.08.33.16-.53.09.26.08-.14.16.5.16-.73.08.52.08-.06.08-.31.16.32.08-.47.08.32.08,0,.08-.06.08-.65.08.44.09-.09.08-.06.16.28.08,0,.08-.38.08.47.08-.2.08.43.08-.82.08.68.08,0,.08-.39.08,0,.41-.19.16.37.08-.62.08.51.08-.2.08,0,.16-.3.08.55.08,0,.08-.27.08.32.08-.07.08,0,.08-.3.33.5.08-.19.08.31.24-.33.16.57.08-.4.08.4.08,0,.08-.31.08.19.08-.19.09.44.08-.37.08.11.16-.13.08.07.08-.35.16.43.08-.61.08.22.08.53.24-.59.16-.25.17.17.32-.71.08.33.16-.37.16-1,.08.25.24-.75.08,0,.17-.75.08.23.16-.64.16.14.08.41.08,0,.08-.08.08.3.08-.38.08.13.16,1.33.08,0,.08-.39.09,1,.08-.17.16-.26.24.7.08-.44.08.57.08,0,.08-.06.08.16.08-.24.08.3.08-.32.08.06.08.15.09-.21.08,0,.08.54.08-.77.08.16.08-.07.16-.63.08.5.08-.17.24-.76.16.44.08-.74.08.49.09-.47.16.41L199,99l.08.48.08-.17.08.11.08.38.16-.6.32.85.08-.16.08.36L200,100l.09.58.08-.42.08.26.08-.05.08-.47.08.78.08-.09.16.6.08-.14.16.15.08,0,.41.48.16-.31.08.49.08-.15.08-.28.16.31.16-.18.16-.08.16.06.08-.15.16.18.09,0,.24-.39.08.25.16-.6.08-.22.08-.63.08.49.32-.9.08.47.08-.14.09.26.08-.58.24.91.08-.15.16.24.16.06.16.17.16-.3.08.26.08-.39.08.55.09-.57.16.59.16-.25.08.48.08-.31.08.52.08-.18.08-.19.08.09.08,0,.24.82.08.1.08-.07.17-.46.08.61.08,0,.08-.52.08.46.08-.11h.16" transform="translate(0 0)"/></g></g><g id="line2d_37" data-name="line2d 37"><g class="cls-5"><path class="cls-12" d="M23.43,55l.08,1,.09-.37.08-.91.24,1.72.16-.9.08.52.08-.14.08.36.08,0,.08-.11.16.72.24-.07L25,55.55,25.05,57l.08-.15.08-.22.08.13.08-.36.08.61.08-.7.08.1.08.27.08-.56.24.94.16-.06.08-1,.17,1.53.16-.78.08.59.24-1.19.16.23.08-.14.08.89L27.3,57l.16-.18.16.19.09-.29.16.44L28,55.84l.08.84.08,0,.08-.42.08.61.24-.93.08.41.08-.52.08-1.44.08.09.09-.16.24-2.15.08-.1.4-8.22.48-24.27L30.28,24l.33,29.36.24,4.23.08-.32.16,1,.08-.36.4,1.39.08-.34.25,1,.08-.29.24.81.16-.27.08.28.24-.94.16.83.16.35.09-.11.08.23.08-1.15.08,1.06.08-.41.08.12.08-.35.16.86h.08l.08-.77L34,61l.08-.08.08.19.08-.23.08.63.08-.61.17.53.08-.23.08-.86.08.79.08-.37.08.29.08-.42.08.24.08.59.08-1.21.16,1.1.08-.1.08-.42.08.45.08-.71.09.64.08-.82L36,62.24l.16-1.41.08.05.08.39.08-.66.08.47.16-1,.08,1.14.08-.91.08.84.24-.84.09-.09.16.36.08-.23.08-1.18.16.84.08-.23.08.13.08-1.39.08,0,.08.28.08-1.77.08.66.08-1.31.08.22.09-.21.64-13.14L39.39,34l.16,9.43.24,11.69L40,56.31l.08.22.16,1.16.08-1,.08.09.08.79.08-.73.08.3.08-.76.08.8.08-.72.08.72.08-.13.08.24.17-1.11.08.25.16-.31.08-.8.16.61.16-.62.08-.06.16,0,.16-1.41.08.91.16-1.66.25.59.08-1,.08.75L43,52l.16,1,.08-.31.08,0,.08.15.16-.58.24,1.8L44,52.42l.08,1.27.08-.18.16.69.08-.6.48,1.89.08-.27.16.51.08-.56.08,0,.09.29.08-.11.08-.52.16.6.24-2,.24-3.87.24-6.11.49,15.61L47,58.4l.08,1.72.08-.36.08.81.08,0,.08.13.08.57.08-.43.08.9.08-.06.16.51L48,62l.16.48.08-.36.08.51.08-.31.08.86.08-.6.08.13.08.17.08-.16.08,1L49,63l.16.66.08-.81.08.71.09-.08.08-.48.16.68.08-.65.16,1,.16-.47.08.39.08-.18.08.23.08-.28.24.77.08-.44.09.56.08-.72.24.83.08-.74.08.84.08-.22.08,0,.08.57.08-.45.08.57.08-.87.08,0,.16.28.08-.49.17.74.08.25.16-.65.08.26.16.37.16-.91.24,1.38.08-.84.08.05.16.52.09-.34.08.23.08-.8.08.73.08-.2.16.33.16-.13.08.31L54.3,65l.08.47.08-.15.16-.79.08.51.08,0,.09-.52.24.77.08-.24.08.38.08-.42.08.45.16-1,.16.64.08-.09.08-.11.16.13.09,0,.24-.49.08.31.32-1.26.08-.72.08.15.24-1.68L57.61,56l.08.29.32,7,.32,1,.08.91.08-.25.16.25.08-.65.33,1,.08.17.08-.2.08,0,.16.28.08-.56.08.16.08.14.08-.07.16.17.08.4.16-.67.09.19.24-.25.08.06.08-.08.08-.31.08.69.08-.17.08.56.24-.69.08-.05.24.5.09-.28.08.35.08-1.2.08.42.08,0,.08.25.08-.91.08.29.16-.59h.08l.4.6.08.07.17-1,.08.33.16-.83.08.3.16-1.34h.08l.24-3.05.24-3L65,32.76l.16,0,.24,2.45.16-1.87.25,11.23.32,14.33.32,3.79.24,1.47.08.67.08-.35.08.15.09.79.08-.5.08,0,.08.21.08-.24.16.34.08-.21.08.52.16-.52.32.2.16-.5.09.59.08-.18.08.28.08-1,.08.12.08-.05.08.42.16-.53.08.76.16-1.4.08.33.32-2.74L70,53.35l.48-23.81.08.61L71.39,60l.24,2.5.32,1.8.08-.07.08-.09.16.71.08-.13.08-.24.09.59.08-.28.08.56.16-.54.08.44.16-.45.08.25.4-1.26.16-.78h.09l.4-2.13.48-10.06.08,2,.41,9.53.4,2.39h.08l.08-.41.08.72.08-.25.08.64.08-.18.08-.75.16,1,.25-.63.08.55.08-.52.08.38.16-.43.16-.63.08.12.08.27.08-.61.08.55.16-.49.08.28.25-.76.16-.56.4-.85.08.36.08-.44.08.12.24.44.16-.83.08.49.17-.64.08-.12.08.39.24-.65.08.17.08-.44.08.23.08-.8.08.16.08-.08.08-.31.08.13.16.3.09-1.24.08.77.32-1.88.32-4.5.4-11.39.08.53.25,9.47.32,8.71.48,3.24L83,64l.16.68.08.15.09.43.08-.12.24.25h.16l.08,0,.24.77.08-.16.08.64.24-.64.08.73.17-.81.08-.07.08.8.08-1.2.08.27.08.36.08-.37.16.74.08.12.08-.67.08.66.08-.43.08.13.08,0,.08.54.17-.9.08.83.08,0,.08.11.16-1.06L86.7,67l.24-1,.08.6.08-.18.16-.79.08.12.09.33.16-.74.16-.88.08,0,.4-3.63.08-1.15.08.29.08.31.24,3.35L89,65l.08.42.08,0,.08-.15.08.33.08-.61.08.32.08-.12.08.28.16-.51.08-.08.08.31.17-1.1.08.16.08-.13.08-.55.08.06.08-.34.24-1.75.16-2.26.24-5.51.24-7.07.17,2.11L92,60.07l.24,2.85.08-.38.16.49.16-.7.08.14.17-.74L93,62l.16-1.7.08-.09.16-1.12.08,1.51.08-.43.08.14.4,3.45h.17l.4,1.15.08.06.16.4.08.08.16.37.08-.59.16.54.08-.2.08.21.09.8.16-1.31.08,1.49.08-.74.08.39.08-.4.08,0,.08.11.16-.51.16.51.08-.34.08.11.08,0,.08-.29.09.21.08-.29.08.41.08-.11.08-.51.24.51.08-.35.16.51.08-.58.08.06L98,66l.24-.39.09.7.08-.84.08.39.08-.76.08.41.08-.82.08.59.32-1.35.32-3.26.33-6.8.24-10.1.16.68.56,17.21.25,2.63.24.94.16-.09.24.92.08-.57.08.1.16.3.08-.11.08-.53.08.14.65-2.55.32,2.18.32,1,.08.19.08.51.09-.36.08.39.08-.07.08-.23L104,67l.16-.44.16.66.08-.45.08.16.16.24.16-.37.08.09.08.37.09-.75.16.56.16.16.16-.33.08.27.08,0,.24-.32.08.36.08-.43.16.59.08-.32.17.34.08-.44.08.11.08.29.16-.81L107,67l.08-1,.08.77.08-.33.08.24.81-3.52.32,2.2.08-.13.08.22.24,1.27.08-.13.17.17.08.08.16-.28h.08l.08-.13.16.23.08-.26.08.31.16-.41.16-.08h.08l.08-.36.08.3.17-.94.24,1.07.08-.49.16.5.08-.09.08.5.08-.24.08.5.08-.48.16.56.08-.85.08.2h.09l.16-.76.08-.18.08-.61.08.42.64-9.52.16-2.82.08-.11.09.47.32,5.86.32,2.12.16.22h.08l.16.15.08-.51.08,1.24.08-.84.09.52.08-.35.08,1.23.08-.45.08-.47.16.59.08-.22.24.53.16.39h.08l.08-.22.16.51.17.14.08,1,.08-.68.16.7.16-.65.08,1,.08-.22.08.35.24-.59.08.34.17-.23.08.18.32-1.16.08.18.08-.13.08-.69.4,1.4.16.33.08-.28.25.74.16-.39H119l.24.55.08-.76.08,0,.16,0,.08-.56.08.31.16-.3.09.29.24-.69.08.07.32,1.12.16.7.08-.38.08.83.16-.42.25.94.16-.49.16.07.08-.4.08,0,.08.26.08-.06.16-.62.16.84.08-.2.24-1,.09.34.08,0,.08-.48.08.38.4-1,.08.49.08-.47.08.15.08.4.08-.55.08.58.08-.16.08-.41.17.87.24-1.3.08.44.24-1,.08.48.08-.41.08.28.08-.32.33,1.29.16.63.08-.54.08.55.08-.3.08.25L126,65l.08.3.08-.41.08.06.16,0,.08-.37.08.6.08-.64.09.21.08,0,.08-.31.16.87.16-.6.08.1.24-.59.16.55.08-.42.08.33.16-.19.09.2.08-.09.16-.9.16,1,.08.18.16-1h.08l.08.26.16-.17.08.72.08-1,.08.49.17-.25.08-.07.08-.6.16.92.16-.53.08,1.17.24-1.91.08.57.08-.54.08.71.08-.39.08.29.17-1,.08,0,.16-.56.16-.89.08.26.32-2.32.08-.08.4-3,.25-3.41.08.67.16-1.49.24,2.43.32,5,.32,3.49.09-.14.16,1,.08.66.08-.35.16.59.08-.73.08.84.08-.11.32,1,.08-.84.08.41.17-.68.08.48.48-1,.08.06.08-.69.32,1.69.08-.43.08.56.09-.32.16,1.14.08-.12.08-.24.08.07.16.64.08-.24H137l.16-.87.08.64.16-.42.08.14.08-.11.09-.66.24.69.08-.26.16,1.21.08-.1.16.51.08-.41.24.94.16-.66.08.08.09,0,.08.29.08-.63.08.34.08-.37.08.51.32-1,.08.53.08-.29.08,0,.08.83.08-.55.16.69.09-.24.16.42.08-.66.08.65.08-.65.08.39.08-.3.08,0,.08.16.08-.47.08,0,.08.09.16-.68.08.51.08-.41.17.17.08,0,.16.54.08-.6.08.42.08,0,.08.23.08-.19.08.6.08-.69.16.51.16-.41.09.14.08-.33.08.42.24-1.18.16-.66.08-.14.16.26.08-.23.24,1.17.16.63.09-.28.16.43.16-.22.08.9.08-.25.08.14.08-.08.08-.23.08.6.24-.71.08.61.16-.88.17.45.08-.14.08.12.08.85.24-.85.08.21.08-.47.08.12.16.26.24-.34.08.47.09-.29.08.39.08-.59.16.5.16-.68.08.12.08-.19.08.47.24-.75.16-.15.08.22.08-.58.17.31.08-.22.08.68.08-.11.08-.14.08.38.08,0,.08-.56.16.43.08-.08.24.64.08-1.12.17,1.2.08-.69.08.26.16.18.08-.14.16.21.08-.37.08.54.08-.42.08.5.08-.67.08.5.08-.08.08-.8.09.92.08-.18.08-.32.08.71.08-.73.08.26.08.54.08-.53.08.74.08-.52.08.45.08-.78.08.41.16-.56.08.09.17.32.32-1.13.16,0,.16-.91.08.06.08-.18.16.78.08-.22.08,0,.08-.07.17,1.1.08-.07.08.41.08-.21.08.36.08-.57.08.65.08,0,.08.21.24-.56.08.39.08-.38L155,67l.08-1.42.08.24.09.34.08-.38.08.13.08.87.08-.06.08.34.08-.35.08.21.08.55.08-.14.08-.07.16.28.08-.25.16.36.08.16.09-.28.08.12.08-.1.08.18.24-.38.16.53.16-.42.16.61.24-.36.17.28.08-.59.08.57.16-.27.24-.07.08.18.08-.22.08.25.16-.61.41.78.08-.78.16.81.16-.58.08.25.08,0,.48-.65.08.36.08-.17.17.15.08-.36.08.45.08-.23.24.42.08-.3.08.52.08-.18.16,0,.08.08.08.5.16-.76.09.23.08-.24.16.76.08-.35.08.11.08-.12.08.31.08-.27.16.24.08-.5.24.47.16-.2.09.16.08-.38.08.13.16.55.16-.73.08-.06.24.49.16-.5.16.35.08,0,.08-.39.09.34.08-.14.32.22.08-.36.08.31.08-.27.08.31.08-.49.08.37.08-.07.08-.17.08,0L166,67l.08.95.09-.33.08-.2.08.16.16-.2.08-.07.16.34.08-.23.08.25.24-.9.08.67.33-.78.16.36.08-.06.24-.66.08.14.08.55.16-1,.08.09.08.51.24-.82.09.06.24-1.22.48-2.1.08.21.08-.09.16.1.08.17L170,62l.25,1.73.08-.27.08.31.16-.68h.08l.08-.87.08.64.08-.88.08,0,.16-.18.16,1,.08-.24.08.38.09,1.12.08-.24.32,1.6.24.87.08-.31.24.92.16-.18.08.32.08-.31.09.83.08-.32.08-.22.08.13.08-.18.08.67.08-.05.08-.15.16.11.08-.07.08.27.16-.82.08.69.08-.6.08.21.49-1.1.24.58.08,0,.08.1.16.74.16-.13.16.52.09.06.08-.14.08.23.08-.29.24.63.16-.61.08.52.08-.75.16.49.08-.31.24.43.09.12.16.44.16-.36.16.13.16.07.16.24.08-.53.08.39.24-.43.09.32.08-.09.16-.15.08-.31.16.36.08-.34.08.42.16-.28.16-.27.08-.18.08.67.16-.43.17.07.16-.43.24.85.08-.08.16,0,.08.09.32-.45.16.23.09-.22.08.31.08-.58h.08l.16.31.08-.14.08.15.08-.06.08,0,.08-.19.16.46.08.12.08-.3.08.11.25.25.16-.37.08.44.16-.38.08.28.16-.29.08.38.16-.79.08.4.08-.44.08.63.08-.77.09.37.08-.44.08.08.48-1,.16.26.24-.42.08.6.08-.39.25.9h.08l.16.33.08.49.08-.45.08.46.08-.26.24.86.16-.42.08-.17.08.09.25.51.08-.58.08.22.08-.41.08.1L187,68l.24.45.08-.62.08.78.08-.85.08.22.16-1,.17-.35.24.53.08-.21.16.4.08-.18.16.38.24,0,.08.74.08-.62.08.35.09-.47.08.62.08-.26.08.14.08-.06.16-.07.16.21.08-.2.08.28.08-.09.08-.37.08.67.08-.6.08.46.08-.06.17.12.08-.11.16.36.08-.2.08.07.08.15.16-.27.08.25.08-.2.08.75.16-.46.08.2.08-.07.09-.07.24.17.08,0,.16-.41.16.14.16-.31.16.22H193l.08.24.08-.06.17-.38.08.14.16-.21.08,0,.24-.63.08.18.08-.11.65-2.53.32-.56.16.2.16,1.2.08-.26.16.53.16,1,.08.06.08.32.09-.15.24.39.08-.43.16.76.16-.26.08.43.08-.48.08.57.16-.38.08.15.25-.34.08.56.08-.71.08.07.08.65.16-.56.08-.17.08.15.24-.77.32-1,.17.21.08-.24.08.29.16-.46.08.09.08-.11.08.2.08-.1.48,1.27.08,0,.08-.09.09.1.08.47.08-.3.08.07.08.2.08,0,.08-.27.08.18.08.64.08-.25.08.39.08-.09.24.4.08-.66.25.77.16-.31.16.25.08-.28.08.44.32-.69.08.31.08-.48.24.49.17-.68.16.39.08-.12.72-2.92.33,1,.08-.43.08.5.08-.34.4.63.08-.08.08.59.08-.34.08.13.08.55.08-.46.08.32.17-.47.16.46.08-.36.16.37.08-.09.08.66.16-.43.16.59.08-.11h.08l.25.46.08-.09.08-.34.08.59.08-.09.08.11.16-.12.08.33h0" transform="translate(0 0)"/></g></g><g id="patch_3" data-name="patch 3"><path class="cls-13" d="M23.41,279V7.2" transform="translate(0 0)"/></g><g id="patch_4" data-name="patch 4"><path class="cls-13" d="M23.41,279H207.55" transform="translate(0 0)"/></g></g></g></g><g id="Names"><path class="cls-14" d="M191.17,250.56v-5.72H192l3,4.49v-4.49h.73v5.72h-.78l-3-4.5v4.5Z" transform="translate(0 0)"/><path class="cls-14" d="M196.59,248.85v-.71h2.16v.71Z" transform="translate(0 0)"/><path class="cls-14" d="M199.62,250.56v-5.72h2.16a6.15,6.15,0,0,1,.87,0,1.82,1.82,0,0,1,.71.27,1.37,1.37,0,0,1,.45.55,1.72,1.72,0,0,1,.18.78,1.77,1.77,0,0,1-.47,1.24,2.22,2.22,0,0,1-1.68.51h-1.46v2.32Zm.76-3h1.48a1.6,1.6,0,0,0,1-.27,1,1,0,0,0,.31-.77,1.05,1.05,0,0,0-.18-.62.91.91,0,0,0-.48-.34,3.61,3.61,0,0,0-.71-.05h-1.46Z" transform="translate(0 0)"/><path class="cls-15" d="M190.71,219.76V214h1.14l1.36,4.06.27.84c.06-.2.17-.51.3-.91l1.37-4h1v5.73h-.73V215l-1.66,4.79h-.68l-1.66-4.88v4.88Z" transform="translate(0 0)"/><path class="cls-15" d="M197,218v-.71h2.16V218Z" transform="translate(0 0)"/><path class="cls-15" d="M200.06,219.76V214h2.16a4.75,4.75,0,0,1,.87.06,1.67,1.67,0,0,1,.71.26,1.51,1.51,0,0,1,.46.56,1.79,1.79,0,0,1,.17.78,1.76,1.76,0,0,1-.46,1.24,2.26,2.26,0,0,1-1.68.5h-1.47v2.33Zm.76-3h1.48a1.56,1.56,0,0,0,1-.28,1,1,0,0,0,.31-.77,1,1,0,0,0-.18-.61.83.83,0,0,0-.48-.34,2.9,2.9,0,0,0-.71,0h-1.46Z" transform="translate(0 0)"/><path d="M191.2,185.76V180H192v2.35h3V180h.76v5.73h-.76v-2.7h-3v2.7Z" transform="translate(0 0)"/><path d="M196.59,184v-.71h2.16V184Z" transform="translate(0 0)"/><path d="M199.62,185.76V180h2.16a6.15,6.15,0,0,1,.87.05,1.82,1.82,0,0,1,.71.27,1.37,1.37,0,0,1,.45.55,1.84,1.84,0,0,1-.29,2,2.22,2.22,0,0,1-1.68.51h-1.46v2.33Zm.76-3h1.48a1.6,1.6,0,0,0,1-.27,1,1,0,0,0,.31-.77,1.05,1.05,0,0,0-.18-.62.84.84,0,0,0-.48-.33,3,3,0,0,0-.71,0h-1.46Z" transform="translate(0 0)"/><path class="cls-16" d="M187.75,151.67v-5.73h1.14l1.35,4.05c.13.38.22.67.28.85.06-.21.16-.51.3-.92l1.37-4h1v5.73h-.73v-4.8l-1.66,4.8h-.69l-1.65-4.88v4.88Z" transform="translate(0 0)"/><path class="cls-16" d="M194.07,150v-.71h2.16V150Z" transform="translate(0 0)"/><path class="cls-16" d="M197.08,151.67v-5.73h1.14l1.35,4.05c.13.38.22.67.28.85.06-.21.16-.51.3-.92l1.37-4h1v5.73h-.73v-4.8l-1.66,4.8h-.69l-1.65-4.88v4.88Z" transform="translate(0 0)"/><path class="cls-16" d="M203.54,152l.69.1a.65.65,0,0,0,.24.46,1.15,1.15,0,0,0,.71.2,1.27,1.27,0,0,0,.76-.2,1,1,0,0,0,.35-.54,4.32,4.32,0,0,0,.06-.91,1.43,1.43,0,0,1-1.15.55,1.59,1.59,0,0,1-1.33-.62,2.4,2.4,0,0,1-.47-1.48,2.84,2.84,0,0,1,.22-1.1,1.66,1.66,0,0,1,1.58-1.05,1.48,1.48,0,0,1,1.21.6v-.5h.65v3.58a3.27,3.27,0,0,1-.2,1.38,1.47,1.47,0,0,1-.62.64,2.26,2.26,0,0,1-1.05.23A2,2,0,0,1,204,153,1.14,1.14,0,0,1,203.54,152Zm.59-2.49a1.84,1.84,0,0,0,.32,1.19,1.08,1.08,0,0,0,1.63,0,1.8,1.8,0,0,0,.32-1.17,1.73,1.73,0,0,0-.33-1.15,1.08,1.08,0,0,0-.82-.38,1,1,0,0,0-.79.38A1.68,1.68,0,0,0,204.13,149.52Z" transform="translate(0 0)"/><path class="cls-17" d="M188.24,118.19v-5.73H189v2.35h3v-2.35h.76v5.73H192v-2.7h-3v2.7Z" transform="translate(0 0)"/><path class="cls-17" d="M193.63,116.47v-.71h2.16v.71Z" transform="translate(0 0)"/><path class="cls-17" d="M196.63,118.19v-5.73h1.14l1.36,4.06.27.85c.07-.21.17-.52.31-.92l1.37-4h1v5.73h-.73V113.4l-1.67,4.79H199l-1.66-4.88v4.88Z" transform="translate(0 0)"/><path class="cls-17" d="M203.1,118.53l.69.11a.62.62,0,0,0,.23.46,1.2,1.2,0,0,0,.72.19,1.24,1.24,0,0,0,.75-.19,1,1,0,0,0,.36-.55,3.74,3.74,0,0,0,.05-.9,1.45,1.45,0,0,1-1.15.54,1.56,1.56,0,0,1-1.32-.62,2.38,2.38,0,0,1-.47-1.48,2.62,2.62,0,0,1,.22-1.09,1.62,1.62,0,0,1,1.58-1,1.5,1.5,0,0,1,1.21.59V114h.65v3.59a3.42,3.42,0,0,1-.2,1.37,1.44,1.44,0,0,1-.63.64,2.09,2.09,0,0,1-1,.23,2,2,0,0,1-1.2-.33A1.14,1.14,0,0,1,203.1,118.53Zm.58-2.49a1.76,1.76,0,0,0,.33,1.19,1,1,0,0,0,.81.38,1,1,0,0,0,.81-.38,1.7,1.7,0,0,0,.33-1.17,1.65,1.65,0,0,0-.34-1.14,1,1,0,0,0-.81-.39,1,1,0,0,0-.8.38A1.68,1.68,0,0,0,203.68,116Z" transform="translate(0 0)"/><path class="cls-18" d="M189.75,85.63V79.9h1.14L192.24,84c.13.37.22.66.28.85.06-.21.16-.52.3-.92l1.37-4h1v5.73h-.73V80.84l-1.66,4.79h-.69l-1.65-4.88v4.88Z" transform="translate(0 0)"/><path class="cls-18" d="M196.07,83.91V83.2h2.16v.71Z" transform="translate(0 0)"/><path class="cls-18" d="M198.47,85.63l2.2-5.73h.82l2.34,5.73H203l-.67-1.74h-2.4l-.62,1.74Zm1.65-2.35h1.94l-.59-1.59c-.19-.48-.32-.88-.41-1.19a7.21,7.21,0,0,1-.31,1.1Z" transform="translate(0 0)"/><path class="cls-18" d="M204.33,85.63V79.9h.7v5.73Z" transform="translate(0 0)"/><path class="cls-19" d="M190.24,53.81V48.09H191v2.35h3V48.09h.76v5.72H194v-2.7h-3v2.7Z" transform="translate(0 0)"/><path class="cls-19" d="M195.63,52.09v-.7h2.16v.7Z" transform="translate(0 0)"/><path class="cls-19" d="M198,53.81l2.2-5.72H201l2.35,5.72h-.87l-.66-1.73h-2.4l-.63,1.73Zm1.65-2.35h1.94l-.6-1.58c-.18-.49-.31-.88-.4-1.19a8.43,8.43,0,0,1-.31,1.09Z" transform="translate(0 0)"/><path class="cls-19" d="M203.89,53.81V48.09h.7v5.72Z" transform="translate(0 0)"/></g></svg>