<svg xmlns="http://www.w3.org/2000/svg" xmlns:xlink="http://www.w3.org/1999/xlink" width="3.49in" height="4.96in" viewBox="0 0 251.02 357.21"><defs><style>.cls-1,.cls-10,.cls-11,.cls-12,.cls-13,.cls-6,.cls-7,.cls-8,.cls-9{fill:none;}.cls-2{fill:#fff;}.cls-13,.cls-3,.cls-4,.cls-8{stroke:#000;}.cls-10,.cls-11,.cls-12,.cls-3,.cls-4,.cls-6,.cls-7,.cls-8,.cls-9{stroke-linejoin:round;}.cls-13,.cls-3{stroke-width:0.8px;}.cls-4{stroke-width:0.6px;}.cls-5{clip-path:url(#clip-path);}.cls-6{stroke:#c76f0a;}.cls-10,.cls-11,.cls-12,.cls-13,.cls-6,.cls-7,.cls-8,.cls-9{stroke-linecap:square;}.cls-10,.cls-11,.cls-12,.cls-6,.cls-7,.cls-8,.cls-9{stroke-width:0.5px;}.cls-7{stroke:#626161;}.cls-9{stroke:#58a265;}.cls-10{stroke:#0e7723;}.cls-11{stroke:#5560a2;}.cls-12{stroke:#0e0e77;}.cls-14{fill:#c76f0a;}.cls-15{fill:#626161;}.cls-16{fill:#58a265;}.cls-17{fill:#0e7723;}.cls-18{fill:#5560a2;}.cls-19{fill:#0e0e77;}</style><clipPath id="clip-path" transform="translate(0 0)"><rect class="cls-1" x="23.41" y="7.2" width="220.41" height="315.29"/></clipPath></defs><g id="Layer_1" data-name="Layer 1"><g id="figure_1" data-name="figure 1"><g id="patch_1" data-name="patch 1"><path class="cls-2" d="M0,357.21H251V0H0Z" transform="translate(0 0)"/></g><g id="axes_1" data-name="axes 1"><g id="patch_2" data-name="patch 2"><path class="cls-2" d="M23.41,322.49H243.82V7.2H23.41Z" transform="translate(0 0)"/></g><g id="matplotlib.axis_1" data-name="matplotlib.axis 1"><g id="xtick_1" data-name="xtick 1"><g id="line2d_1" data-name="line2d 1"><path id="m9a44f64fea" class="cls-3" d="M41.78,322.49V326" transform="translate(0 0)"/></g><g id="text_1" data-name="text 1"><path id="DejaVuSans-31" d="M37.68,334.9H39v-4.45l-1.4.28V330l1.39-.29h.79v5.17H41v.67H37.68Z" transform="translate(0 0)"/><path id="DejaVuSans-30" d="M44.32,330.25a1,1,0,0,0-.92.6,5.58,5.58,0,0,0,0,3.61,1,1,0,0,0,1.84,0,5.41,5.41,0,0,0,0-3.61A1,1,0,0,0,44.32,330.25Zm0-.62a1.7,1.7,0,0,1,1.5.78,4.07,4.07,0,0,1,.52,2.25,4.11,4.11,0,0,1-.52,2.25,1.85,1.85,0,0,1-3,0,4.12,4.12,0,0,1-.51-2.25,4.07,4.07,0,0,1,.51-2.25A1.7,1.7,0,0,1,44.32,329.63Z" transform="translate(0 0)"/></g></g><g id="xtick_2" data-name="xtick 2"><g id="line2d_2" data-name="line2d 2"><path id="m9a44f64fea-2" data-name="m9a44f64fea" class="cls-3" d="M78.51,322.49V326" transform="translate(0 0)"/></g><g id="text_2" data-name="text 2"><path id="DejaVuSans-32" d="M75,334.9h2.75v.67H74v-.67l1.22-1.24c.52-.53.85-.86,1-1a3.59,3.59,0,0,0,.53-.72,1.25,1.25,0,0,0,.15-.58.94.94,0,0,0-.33-.75,1.21,1.21,0,0,0-.85-.3,2.77,2.77,0,0,0-.78.13,5.06,5.06,0,0,0-.88.39V330a5.39,5.39,0,0,1,.89-.29,3.06,3.06,0,0,1,.76-.1,2.18,2.18,0,0,1,1.44.45,1.5,1.5,0,0,1,.54,1.21,1.8,1.8,0,0,1-.13.69,3.6,3.6,0,0,1-.49.75l-.63.66C76.09,333.75,75.59,334.25,75,334.9Z" transform="translate(0 0)"/><path id="DejaVuSans-30-2" data-name="DejaVuSans-30" d="M81.06,330.25a1,1,0,0,0-.92.6,5.41,5.41,0,0,0,0,3.61,1,1,0,0,0,.92.6,1,1,0,0,0,.92-.6,5.58,5.58,0,0,0,0-3.61A1,1,0,0,0,81.06,330.25Zm0-.62a1.67,1.67,0,0,1,1.49.78,4,4,0,0,1,.52,2.25,4,4,0,0,1-.52,2.25,1.84,1.84,0,0,1-3,0,4,4,0,0,1-.52-2.25,4,4,0,0,1,.52-2.25A1.68,1.68,0,0,1,81.06,329.63Z" transform="translate(0 0)"/></g></g><g id="xtick_3" data-name="xtick 3"><g id="line2d_3" data-name="line2d 3"><path id="m9a44f64fea-3" data-name="m9a44f64fea" class="cls-3" d="M115.25,322.49V326" transform="translate(0 0)"/></g><g id="text_3" data-name="text 3"><path id="DejaVuSans-33" d="M113.4,332.42a1.5,1.5,0,0,1,.89.51,1.43,1.43,0,0,1,.32.94,1.61,1.61,0,0,1-.6,1.34,2.67,2.67,0,0,1-1.68.47,4,4,0,0,1-.76-.07,5,5,0,0,1-.8-.22v-.76a2.86,2.86,0,0,0,.72.29,3.59,3.59,0,0,0,.81.1,1.81,1.81,0,0,0,1.13-.3,1,1,0,0,0,.39-.85,1,1,0,0,0-.36-.8,1.53,1.53,0,0,0-1-.3h-.68v-.64h.71a1.45,1.45,0,0,0,.89-.24.8.8,0,0,0,.31-.67.82.82,0,0,0-.32-.69,1.51,1.51,0,0,0-.91-.24,4.48,4.48,0,0,0-.7.07,6.79,6.79,0,0,0-.82.22v-.7a7.78,7.78,0,0,1,.85-.19,4.81,4.81,0,0,1,.74-.06A2.28,2.28,0,0,1,114,330a1.32,1.32,0,0,1,.52,1.1,1.22,1.22,0,0,1-.28.82A1.42,1.42,0,0,1,113.4,332.42Z" transform="translate(0 0)"/><path id="DejaVuSans-30-3" data-name="DejaVuSans-30" d="M117.79,330.25a1,1,0,0,0-.92.6,5.58,5.58,0,0,0,0,3.61,1,1,0,0,0,1.84,0,5.41,5.41,0,0,0,0-3.61A1,1,0,0,0,117.79,330.25Zm0-.62a1.7,1.7,0,0,1,1.5.78,4.07,4.07,0,0,1,.52,2.25,4.11,4.11,0,0,1-.52,2.25,1.85,1.85,0,0,1-3,0,4.12,4.12,0,0,1-.51-2.25,4.07,4.07,0,0,1,.51-2.25A1.7,1.7,0,0,1,117.79,329.63Z" transform="translate(0 0)"/></g></g><g id="xtick_4" data-name="xtick 4"><g id="line2d_4" data-name="line2d 4"><path id="m9a44f64fea-4" data-name="m9a44f64fea" class="cls-3" d="M152,322.49V326" transform="translate(0 0)"/></g><g id="text_4" data-name="text 4"><path id="DejaVuSans-34" d="M149.92,330.42l-2,3.12h2Zm-.21-.69h1v3.81h.83v.65h-.83v1.38h-.78v-1.38h-2.64v-.76Z" transform="translate(0 0)"/><path id="DejaVuSans-30-4" data-name="DejaVuSans-30" d="M154.53,330.25a1,1,0,0,0-.92.6,5.41,5.41,0,0,0,0,3.61,1,1,0,0,0,.92.6,1,1,0,0,0,.92-.6,5.58,5.58,0,0,0,0-3.61A1,1,0,0,0,154.53,330.25Zm0-.62a1.67,1.67,0,0,1,1.49.78,4,4,0,0,1,.52,2.25,4,4,0,0,1-.52,2.25,1.84,1.84,0,0,1-3,0,4,4,0,0,1-.52-2.25,4,4,0,0,1,.52-2.25A1.68,1.68,0,0,1,154.53,329.63Z" transform="translate(0 0)"/></g></g><g id="xtick_5" data-name="xtick 5"><g id="line2d_5" data-name="line2d 5"><path id="m9a44f64fea-5" data-name="m9a44f64fea" class="cls-3" d="M188.72,322.49V326" transform="translate(0 0)"/></g><g id="text_5" data-name="text 5"><path id="DejaVuSans-35" d="M184.49,329.73h3.1v.67h-2.38v1.43a2.25,2.25,0,0,1,.35-.09,2,2,0,0,1,.34,0,2.17,2.17,0,0,1,1.55.54,2.12,2.12,0,0,1,0,2.91,2.38,2.38,0,0,1-1.65.52,4.93,4.93,0,0,1-.75-.06,6.3,6.3,0,0,1-.78-.19v-.79a3.16,3.16,0,0,0,.72.28,3.42,3.42,0,0,0,.79.1,1.52,1.52,0,0,0,1.07-.36,1.36,1.36,0,0,0,0-1.93,1.52,1.52,0,0,0-1.07-.35,2.7,2.7,0,0,0-.63.07,3.41,3.41,0,0,0-.64.21Z" transform="translate(0 0)"/><path id="DejaVuSans-30-5" data-name="DejaVuSans-30" d="M191.26,330.25a1,1,0,0,0-.92.6,5.58,5.58,0,0,0,0,3.61,1,1,0,0,0,1.84,0,5.41,5.41,0,0,0,0-3.61A1,1,0,0,0,191.26,330.25Zm0-.62a1.7,1.7,0,0,1,1.5.78,4.07,4.07,0,0,1,.52,2.25,4.11,4.11,0,0,1-.52,2.25,1.85,1.85,0,0,1-3,0,4.12,4.12,0,0,1-.51-2.25,4.07,4.07,0,0,1,.51-2.25A1.7,1.7,0,0,1,191.26,329.63Z" transform="translate(0 0)"/></g></g><g id="xtick_6" data-name="xtick 6"><g id="line2d_6" data-name="line2d 6"><path id="m9a44f64fea-6" data-name="m9a44f64fea" class="cls-3" d="M225.45,322.49V326" transform="translate(0 0)"/></g><g id="text_6" data-name="text 6"><path id="DejaVuSans-36" d="M223,332.34a1.06,1.06,0,0,0-.84.36,1.75,1.75,0,0,0,0,2,1.15,1.15,0,0,0,1.69,0,1.75,1.75,0,0,0,0-2A1.07,1.07,0,0,0,223,332.34Zm1.57-2.48v.72a3.57,3.57,0,0,0-.6-.21,2.47,2.47,0,0,0-.6-.08,1.42,1.42,0,0,0-1.19.53,2.78,2.78,0,0,0-.47,1.59,1.58,1.58,0,0,1,.57-.52,1.68,1.68,0,0,1,.77-.18,1.82,1.82,0,0,1,1.39.54,2.27,2.27,0,0,1,0,2.89,1.91,1.91,0,0,1-1.42.54,1.76,1.76,0,0,1-1.54-.77,3.94,3.94,0,0,1-.54-2.25,3.44,3.44,0,0,1,.66-2.21,2.13,2.13,0,0,1,1.76-.82,3.05,3.05,0,0,1,.6.06A6,6,0,0,1,224.57,329.86Z" transform="translate(0 0)"/><path id="DejaVuSans-30-6" data-name="DejaVuSans-30" d="M228,330.25a1,1,0,0,0-.92.6,5.41,5.41,0,0,0,0,3.61,1,1,0,0,0,.92.6,1,1,0,0,0,.92-.6,5.58,5.58,0,0,0,0-3.61A1,1,0,0,0,228,330.25Zm0-.62a1.67,1.67,0,0,1,1.49.78,4,4,0,0,1,.52,2.25,4,4,0,0,1-.52,2.25,1.84,1.84,0,0,1-3,0,4,4,0,0,1-.52-2.25,4,4,0,0,1,.52-2.25A1.68,1.68,0,0,1,228,329.63Z" transform="translate(0 0)"/></g></g><g id="xtick_7" data-name="xtick 7"><g id="line2d_7" data-name="line2d 7"><path id="m1d74ce5f0e" class="cls-4" d="M23.41,322.49v2" transform="translate(0 0)"/></g></g><g id="xtick_8" data-name="xtick 8"><g id="line2d_8" data-name="line2d 8"><path id="m1d74ce5f0e-2" data-name="m1d74ce5f0e" class="cls-4" d="M32.59,322.49v2" transform="translate(0 0)"/></g></g><g id="xtick_9" data-name="xtick 9"><g id="line2d_9" data-name="line2d 9"><path id="m1d74ce5f0e-3" data-name="m1d74ce5f0e" class="cls-4" d="M51,322.49v2" transform="translate(0 0)"/></g></g><g id="xtick_10" data-name="xtick 10"><g id="line2d_10" data-name="line2d 10"><path id="m1d74ce5f0e-4" data-name="m1d74ce5f0e" class="cls-4" d="M60.15,322.49v2" transform="translate(0 0)"/></g></g><g id="xtick_11" data-name="xtick 11"><g id="line2d_11" data-name="line2d 11"><path id="m1d74ce5f0e-5" data-name="m1d74ce5f0e" class="cls-4" d="M69.33,322.49v2" transform="translate(0 0)"/></g></g><g id="xtick_12" data-name="xtick 12"><g id="line2d_12" data-name="line2d 12"><path id="m1d74ce5f0e-6" data-name="m1d74ce5f0e" class="cls-4" d="M87.7,322.49v2" transform="translate(0 0)"/></g></g><g id="xtick_13" data-name="xtick 13"><g id="line2d_13" data-name="line2d 13"><path id="m1d74ce5f0e-7" data-name="m1d74ce5f0e" class="cls-4" d="M96.88,322.49v2" transform="translate(0 0)"/></g></g><g id="xtick_14" data-name="xtick 14"><g id="line2d_14" data-name="line2d 14"><path id="m1d74ce5f0e-8" data-name="m1d74ce5f0e" class="cls-4" d="M106.06,322.49v2" transform="translate(0 0)"/></g></g><g id="xtick_15" data-name="xtick 15"><g id="line2d_15" data-name="line2d 15"><path id="m1d74ce5f0e-9" data-name="m1d74ce5f0e" class="cls-4" d="M124.43,322.49v2" transform="translate(0 0)"/></g></g><g id="xtick_16" data-name="xtick 16"><g id="line2d_16" data-name="line2d 16"><path id="m1d74ce5f0e-10" data-name="m1d74ce5f0e" class="cls-4" d="M133.62,322.49v2" transform="translate(0 0)"/></g></g><g id="xtick_17" data-name="xtick 17"><g id="line2d_17" data-name="line2d 17"><path id="m1d74ce5f0e-11" data-name="m1d74ce5f0e" class="cls-4" d="M142.8,322.49v2" transform="translate(0 0)"/></g></g><g id="xtick_18" data-name="xtick 18"><g id="line2d_18" data-name="line2d 18"><path id="m1d74ce5f0e-12" data-name="m1d74ce5f0e" class="cls-4" d="M161.17,322.49v2" transform="translate(0 0)"/></g></g><g id="xtick_19" data-name="xtick 19"><g id="line2d_19" data-name="line2d 19"><path id="m1d74ce5f0e-13" data-name="m1d74ce5f0e" class="cls-4" d="M170.35,322.49v2" transform="translate(0 0)"/></g></g><g id="xtick_20" data-name="xtick 20"><g id="line2d_20" data-name="line2d 20"><path id="m1d74ce5f0e-14" data-name="m1d74ce5f0e" class="cls-4" d="M179.53,322.49v2" transform="translate(0 0)"/></g></g><g id="xtick_21" data-name="xtick 21"><g id="line2d_21" data-name="line2d 21"><path id="m1d74ce5f0e-15" data-name="m1d74ce5f0e" class="cls-4" d="M197.9,322.49v2" transform="translate(0 0)"/></g></g><g id="xtick_22" data-name="xtick 22"><g id="line2d_22" data-name="line2d 22"><path id="m1d74ce5f0e-16" data-name="m1d74ce5f0e" class="cls-4" d="M207.09,322.49v2" transform="translate(0 0)"/></g></g><g id="xtick_23" data-name="xtick 23"><g id="line2d_23" data-name="line2d 23"><path id="m1d74ce5f0e-17" data-name="m1d74ce5f0e" class="cls-4" d="M216.27,322.49v2" transform="translate(0 0)"/></g></g><g id="xtick_24" data-name="xtick 24"><g id="line2d_24" data-name="line2d 24"><path id="m1d74ce5f0e-18" data-name="m1d74ce5f0e" class="cls-4" d="M234.64,322.49v2" transform="translate(0 0)"/></g></g><g id="xtick_25" data-name="xtick 25"><g id="line2d_25" data-name="line2d 25"><path id="m1d74ce5f0e-19" data-name="m1d74ce5f0e" class="cls-4" d="M243.82,322.49v2" transform="translate(0 0)"/></g></g><g id="text_7" data-name="text 7"><path id="DejaVuSans-32-2" data-name="DejaVuSans-32" d="M106.67,347.39h3.1v.75H105.6v-.75L107,346c.58-.59,1-1,1.1-1.14a4.2,4.2,0,0,0,.59-.81,1.34,1.34,0,0,0,.17-.65,1.1,1.1,0,0,0-.36-.85,1.4,1.4,0,0,0-1-.33,2.83,2.83,0,0,0-.88.14,5.21,5.21,0,0,0-1,.44v-.9a6.74,6.74,0,0,1,1-.32,3.89,3.89,0,0,1,.85-.11,2.47,2.47,0,0,1,1.63.51,1.69,1.69,0,0,1,.6,1.36,2,2,0,0,1-.15.77,3.6,3.6,0,0,1-.55.85c-.07.09-.31.33-.7.74S107.39,346.66,106.67,347.39Z" transform="translate(0 0)"/><path id="DejaVuSans-3b8" d="M114.82,345H112a4.8,4.8,0,0,0,.37,1.87,1.15,1.15,0,0,0,1,.69,1.13,1.13,0,0,0,1-.69A4.6,4.6,0,0,0,114.82,345Zm0-.75a5.06,5.06,0,0,0-.36-1.69,1.14,1.14,0,0,0-1-.69,1.1,1.1,0,0,0-1,.69,4.62,4.62,0,0,0-.37,1.69Zm-1.39-3a1.87,1.87,0,0,1,1.66.93,5.8,5.8,0,0,1,0,5.14,1.93,1.93,0,0,1-3.31,0,5.8,5.8,0,0,1,0-5.14A1.87,1.87,0,0,1,113.42,341.23Z" transform="translate(0 0)"/><path id="DejaVuSans-20" d="M116.18,348.14" transform="translate(0 0)"/><path id="DejaVuSans-28" d="M121.83,341.31a8.91,8.91,0,0,0-.88,2,7.21,7.21,0,0,0-.28,2,6.88,6.88,0,0,0,.29,2,8.74,8.74,0,0,0,.87,2h-.71a9.64,9.64,0,0,1-1-2,6.34,6.34,0,0,1-.33-2,6.21,6.21,0,0,1,.33-2,8.75,8.75,0,0,1,1-2Z" transform="translate(0 0)"/><path id="DejaVuSans-64" d="M126.64,344V341.3h.8v6.84h-.8v-.74a1.69,1.69,0,0,1-.65.65,1.83,1.83,0,0,1-.93.22,1.79,1.79,0,0,1-1.46-.71,3.42,3.42,0,0,1,0-3.75,1.79,1.79,0,0,1,1.46-.71,1.94,1.94,0,0,1,.93.21A1.69,1.69,0,0,1,126.64,344Zm-2.76,1.72a2.31,2.31,0,0,0,.37,1.4,1.17,1.17,0,0,0,1,.51,1.19,1.19,0,0,0,1-.51,2.83,2.83,0,0,0,0-2.8,1.21,1.21,0,0,0-1-.5,1.19,1.19,0,0,0-1,.5A2.33,2.33,0,0,0,123.88,345.68Z" transform="translate(0 0)"/><path id="DejaVuSans-65" d="M133.32,345.48v.39H129.6a1.87,1.87,0,0,0,.5,1.27,1.7,1.7,0,0,0,1.26.44,3.82,3.82,0,0,0,.9-.11,4,4,0,0,0,.87-.35v.77a4.83,4.83,0,0,1-.89.28,4.2,4.2,0,0,1-.93.1,2.38,2.38,0,0,1-2.55-2.54,2.74,2.74,0,0,1,.65-1.92,2.29,2.29,0,0,1,1.76-.71,2,2,0,0,1,1.57.64A2.46,2.46,0,0,1,133.32,345.48Zm-.81-.24a1.52,1.52,0,0,0-.37-1.06,1.25,1.25,0,0,0-1-.4,1.49,1.49,0,0,0-1.08.39,1.59,1.59,0,0,0-.47,1.07Z" transform="translate(0 0)"/><path id="DejaVuSans-67" d="M137.89,345.62a2.22,2.22,0,0,0-.37-1.36,1.31,1.31,0,0,0-2,0,2.75,2.75,0,0,0,0,2.72,1.31,1.31,0,0,0,2,0A2.24,2.24,0,0,0,137.89,345.62Zm.8,1.91a2.71,2.71,0,0,1-.55,1.87,2.22,2.22,0,0,1-1.71.61,5.13,5.13,0,0,1-.81-.06,3.76,3.76,0,0,1-.73-.2V349a3.65,3.65,0,0,0,.7.28,2.82,2.82,0,0,0,.71.09,1.59,1.59,0,0,0,1.19-.41,1.8,1.8,0,0,0,.4-1.26v-.4a1.69,1.69,0,0,1-.65.65,1.83,1.83,0,0,1-.93.22,1.77,1.77,0,0,1-1.46-.69,3.27,3.27,0,0,1,0-3.66,1.77,1.77,0,0,1,1.46-.69,1.94,1.94,0,0,1,.93.21,1.76,1.76,0,0,1,.65.65v-.74h.8Z" transform="translate(0 0)"/><path id="DejaVuSans-72" d="M143.21,344a1,1,0,0,0-.3-.11,1.25,1.25,0,0,0-.35,0,1.27,1.27,0,0,0-1.05.45,1.92,1.92,0,0,0-.37,1.28v2.59h-.81v-4.92h.81V344a1.61,1.61,0,0,1,.66-.66,2.08,2.08,0,0,1,1-.22H143l.23,0Z" transform="translate(0 0)"/><path id="DejaVuSans-65-2" data-name="DejaVuSans-65" d="M148.07,345.48v.39h-3.72a1.83,1.83,0,0,0,.5,1.27,1.7,1.7,0,0,0,1.26.44,3.82,3.82,0,0,0,.9-.11,4,4,0,0,0,.87-.35v.77a4.83,4.83,0,0,1-.89.28,4.2,4.2,0,0,1-.93.1,2.52,2.52,0,0,1-1.87-.69,2.47,2.47,0,0,1-.68-1.85,2.69,2.69,0,0,1,.65-1.92,2.28,2.28,0,0,1,1.76-.71,2,2,0,0,1,1.57.64A2.5,2.5,0,0,1,148.07,345.48Zm-.81-.24a1.57,1.57,0,0,0-.37-1.06,1.25,1.25,0,0,0-1-.4,1.53,1.53,0,0,0-1.09.39,1.59,1.59,0,0,0-.46,1.07Z" transform="translate(0 0)"/><path id="DejaVuSans-65-3" data-name="DejaVuSans-65" d="M153.6,345.48v.39h-3.71a1.83,1.83,0,0,0,.5,1.27,1.69,1.69,0,0,0,1.25.44,3.91,3.91,0,0,0,.91-.11,4,4,0,0,0,.87-.35v.77a4.7,4.7,0,0,1-.9.28,4.05,4.05,0,0,1-.92.1,2.52,2.52,0,0,1-1.87-.69,2.47,2.47,0,0,1-.69-1.85,2.7,2.7,0,0,1,.66-1.92,2.28,2.28,0,0,1,1.76-.71,2,2,0,0,1,1.57.64A2.5,2.5,0,0,1,153.6,345.48Zm-.8-.24a1.52,1.52,0,0,0-.38-1.06,1.25,1.25,0,0,0-1-.4,1.49,1.49,0,0,0-1.08.39,1.59,1.59,0,0,0-.47,1.07Z" transform="translate(0 0)"/><path id="DejaVuSans-73" d="M158.07,343.36v.77a3.24,3.24,0,0,0-.71-.27,3.87,3.87,0,0,0-.77-.08,1.78,1.78,0,0,0-.9.18.61.61,0,0,0-.3.55.54.54,0,0,0,.21.45,3,3,0,0,0,.87.3l.28.06a2.74,2.74,0,0,1,1.22.52,1.24,1.24,0,0,1,.36.94,1.29,1.29,0,0,1-.54,1.09,2.51,2.51,0,0,1-1.49.4,4.85,4.85,0,0,1-.83-.08,7.46,7.46,0,0,1-.9-.23v-.84a3.75,3.75,0,0,0,.88.35,3.26,3.26,0,0,0,.87.12,1.6,1.6,0,0,0,.87-.2.61.61,0,0,0,.31-.55.59.59,0,0,0-.22-.5,2.68,2.68,0,0,0-1-.34l-.28-.07a2.09,2.09,0,0,1-1.09-.48,1.22,1.22,0,0,1-.33-.9,1.26,1.26,0,0,1,.49-1.07,2.26,2.26,0,0,1,1.4-.38,4.53,4.53,0,0,1,.84.07A3.25,3.25,0,0,1,158.07,343.36Z" transform="translate(0 0)"/><path id="DejaVuSans-29" d="M159.49,341.31h.71a9.17,9.17,0,0,1,1,2,6.21,6.21,0,0,1,.33,2,6.34,6.34,0,0,1-.33,2,9.17,9.17,0,0,1-1,2h-.71a9.25,9.25,0,0,0,.88-2,7.32,7.32,0,0,0,0-4A9.39,9.39,0,0,0,159.49,341.31Z" transform="translate(0 0)"/></g></g><g id="matplotlib.axis_2" data-name="matplotlib.axis 2"><g id="text_8" data-name="text 8"><path id="DejaVuSans-49" d="M7.48,183.55v-.89H14v.89Z" transform="translate(0 0)"/><path id="DejaVuSans-6e" d="M11.07,176.84h3v.8H11.09a1.68,1.68,0,0,0-1,.28,1,1,0,0,0-.35.81,1.33,1.33,0,0,0,.42,1,1.65,1.65,0,0,0,1.14.38H14V181H9.12v-.81h.76a2.05,2.05,0,0,1-.66-.69,1.78,1.78,0,0,1-.22-.91,1.57,1.57,0,0,1,.52-1.28A2.39,2.39,0,0,1,11.07,176.84Z" transform="translate(0 0)"/><path id="DejaVuSans-74" d="M7.72,174.42h1.4v-1.66h.63v1.66h2.67a1.2,1.2,0,0,0,.77-.16.92.92,0,0,0,.17-.67v-.83H14v.83a1.86,1.86,0,0,1-.35,1.29,1.75,1.75,0,0,1-1.27.36H9.75v.59H9.12v-.59H7.72Z" transform="translate(0 0)"/><path id="DejaVuSans-65-4" data-name="DejaVuSans-65" d="M11.38,167.48h.39v3.72a1.83,1.83,0,0,0,1.27-.5,1.73,1.73,0,0,0,.44-1.25,3.84,3.84,0,0,0-.11-.91,4,4,0,0,0-.35-.87h.77a5.53,5.53,0,0,1,.28.9,4.71,4.71,0,0,1,.1.92,2.52,2.52,0,0,1-.69,1.87,2.49,2.49,0,0,1-1.85.69,2.7,2.7,0,0,1-1.92-.66A2.28,2.28,0,0,1,9,169.63a2,2,0,0,1,.64-1.57A2.5,2.5,0,0,1,11.38,167.48Zm-.24.81a1.57,1.57,0,0,0-1.06.37,1.29,1.29,0,0,0-.4,1,1.49,1.49,0,0,0,.39,1.08,1.64,1.64,0,0,0,1.07.47Z" transform="translate(0 0)"/><path id="DejaVuSans-6e-2" data-name="DejaVuSans-6e" d="M11.07,162.07h3v.8H11.09a1.68,1.68,0,0,0-1,.28,1,1,0,0,0-.35.81,1.33,1.33,0,0,0,.42,1,1.65,1.65,0,0,0,1.14.38H14v.81H9.12v-.81h.76a2.05,2.05,0,0,1-.66-.69,1.78,1.78,0,0,1-.22-.91,1.57,1.57,0,0,1,.52-1.28A2.39,2.39,0,0,1,11.07,162.07Z" transform="translate(0 0)"/><path id="DejaVuSans-73-2" data-name="DejaVuSans-73" d="M9.26,157.32H10a2.89,2.89,0,0,0-.27.71,3.16,3.16,0,0,0-.08.76,1.83,1.83,0,0,0,.18.91.61.61,0,0,0,.55.3.5.5,0,0,0,.44-.22,2.48,2.48,0,0,0,.31-.86l.06-.28a2.68,2.68,0,0,1,.52-1.23,1.24,1.24,0,0,1,.94-.36,1.29,1.29,0,0,1,1.09.54,2.54,2.54,0,0,1,.4,1.5,4.74,4.74,0,0,1-.08.82,6.62,6.62,0,0,1-.23.9H13a3.75,3.75,0,0,0,.35-.88,3.24,3.24,0,0,0,.12-.86,1.66,1.66,0,0,0-.2-.88.62.62,0,0,0-.55-.31.59.59,0,0,0-.5.23,2.6,2.6,0,0,0-.34,1l-.07.28a2.17,2.17,0,0,1-.48,1.09,1.22,1.22,0,0,1-.9.33,1.29,1.29,0,0,1-1.07-.49,2.22,2.22,0,0,1-.38-1.4,5.53,5.53,0,0,1,.06-.84A3.69,3.69,0,0,1,9.26,157.32Z" transform="translate(0 0)"/><path id="DejaVuSans-69" d="M9.12,155.76V155H14v.8Zm-1.92,0V155h1v.8Z" transform="translate(0 0)"/><path id="DejaVuSans-74-2" data-name="DejaVuSans-74" d="M7.72,152.46h1.4V150.8h.63v1.66h2.67a1.2,1.2,0,0,0,.77-.16.92.92,0,0,0,.17-.67v-.83H14v.83a1.86,1.86,0,0,1-.35,1.29,1.75,1.75,0,0,1-1.27.36H9.75v.59H9.12v-.59H7.72Z" transform="translate(0 0)"/><path id="DejaVuSans-79" d="M14.5,147.69a2.92,2.92,0,0,1,1.14.67,1.29,1.29,0,0,1,.27.87v.64h-.68v-.47a.79.79,0,0,0-.15-.52,2.16,2.16,0,0,0-.75-.41l-.37-.14-4.84,2v-.85L13,147.92l-3.85-1.54v-.85Z" transform="translate(0 0)"/></g></g><g id="line2d_31" data-name="line2d 31"><g class="cls-5"><path class="cls-6" d="M23.44,279.16l.1,1,.19-.92.19,1.17.1-.08.09-1.33.1,1,.29-2.68.1,1.5.19-1.51.29-3.49.19-1.27.1-.42.29-4.5.48-11.51.1-.67.09.26.2,2.58.09.06.39,6.18.09-.09.1-1.26.39,3.27.19,2.18.1.09.38,3.58.2.6.09,1.79.19-.75.2,2.17.09-.88.1,3.31.1-.5.09-.4.29,2.77.39,3.17.19-1.19.19,3.2.1-1,.19,1.67.1-.09.1.59.09-.69.1,2.13.1-.47.09-1,.2.84.09-.09.1.62.09-.53.2,1.09.09-.64.2,1.05.09-.35.1.43.1-.33.09.95.2-.66.09.19.2,1.48.09-.76.1.06.09.33.1-.15.1,1.14.09-.68.1,0,.1,1.21.19-1.51.29,1.66.1-1.47.09.26.1,1,.1-.61.09,1.56.1-3.06.09,3,.1-1,.1.65.09-.36.2.46.09.94.1-1,.19,1.07.1-.28.1-1.1.29,1.33.09-.9.29,1.07.1-.24.09-.09.1.44.1-.53.09.49.1-.42.1,1.13.29-.63.09,1.62.2-1.1.09.38.19-.73.1.6.1-.52.09.23.1-.15.1.36.19-.9.1.95.29-.79.09.51.1-.75.1.58.09-1,.1.5.19-.13.1.19.09-1.16.1.42.29-1.74.1.91L40.9,291l.1,0,.09-2.82.1,1.38.29-3.93.19-1.38.1-.33.38,5.35.39,1.91.1-.08.09.76.1-.95.19.29.19,1,.2-.53h.09l.1-1.25.1.16.09.57.1-.2.1.66.09-.39.1-1.4.29.79.19-1.49.19,2,.1-.26.1-1.44.09,1,.2-.8.19.84.1-1.38.09.49.1-1.13.1,1.74.38-2,.19.83.1-.54.1.12.19-1.14.1,1.75.09-.21.2-2,.19.65.19.72.1-.43.1,1,.19-.63.19,1.31.19-.67.1.3.1-.38.09,1.25.1-.08.1.09L49,291.4l.1-.16.1-.5.19,1.8.1-1.12.09.07.1,1.73.09-.22.1-.76.19,1.47.1-.14.1.43.09-.55.2,2.09.09-.77.29,1.86.1-1.72.19,1.42.1.38.09-.21.2.17.09,1,.1-.8.29,1,.1,1,.19-2.12.19,2,.2-.49.19.76.09-.08h.1l.1.52.09-1,.29.58.1-.42.39,1.28h.09l.2-.27.09.23.1-.3.09.05.2.33.29-.81.09.68.1-.7.1.37.29-1.47.09-1.4.1.19.48-5.79.29,3.91.29,3.93.1.85.09-.34.1.65.1-.27.09.81.1-.29.19.51.1.08.09-.42.2,1.05.19-.54.19.37.1-.21.19.5.1.18.1-.68.09.43.1-.43.09.44.2-1.14.09.61.1-.14.1.49.19-.87.1.07.19-1,.1.86.48-2.76.19-1.18.1-.45.09.94.2-1.17.09.23.2,1.28.09-.17.29,2,.1-.26.1.23.09-.59.19,1.59.1-.77.1.4.09,1,.1-.09.19.39.1-.22.39,1.16.19-.87.1.76.09-1.1.48,1.49.1-.81.1.07.19.13.1.92.19-.48.1.23.09-.11.1-.34.1,0,.19.53.09-.69.2,1.41.09-.19.1-.55.1.44.29-.37.09.21.1-.24L67,303l.1-.8.1.16.09-.11.19.45.2-.07.09-.73.1,1.52.1-1,.09.08.1.76.39-.8.09.34.1-.05.1-.37.09.47.19-.59.2.5.09-.79.1,1.19.1-.61.09.41.1-.51.1.42.09-.54.2.79.09-.78.2.24.09.1.1.4.09-.74.2.38.19-.21.1.15.19-.8.1.63.19-.82.1-.2.29.91.19-.6.09-.2.2.3.09-.25.1.07.1-.42L73,302l.1-.1.1.58.19-1.22.19.7.1-.06.1.53.09-.68.1,0,.19-.62.29.2.19.76.1.16.1-1.42.09.88.1-.5.1.17.09-.16.2.3.09-.39.1.34.09-.14.2.56.29-.54.09.66.1-.43.19.37.1-.77.1.75.19-.68.19.52.1-.94.09.09.2-.84.09.21.1-.82.1,0L78,299l.19,0,.39-2.24.19,1.36.58,3.11.39-.24h.09l.1.13.1.67.09-.47.1,1.13.19-1.09.1-.21.19.68.29,0,.19-.67.1.5.1-.82.19.82.1-.42.09.22.19-.41.1.35.1-.5.09.38.1-.33.19.38.1.51.1-.77.09.27.1-.27.1.06.09.67.39-1.42.09.7.1-.39.19.53L84,300l.1.59.09-.18.1.41.29-.76.1.57.09-1,.1.32.1,1,.09-1,.1.61.09-.36.1.21.19-.06.1-.37.1.38.09-.87.1.12.19-.46.1.08.1-.09.09-.55.1.81.19-1.13.1.51.19-.89.1.6.09-.61.2.26.09-.09.1-.42.1.46.09-.66.1.2L88,297l.09.91.48-2.05.1,1.26.19-2,.1.65.1-1.11.09.54.2-1.12.09-.15.49-3.61.09.29.19-1.84.1-.84.19.9.1-.65.19,2.27.1.28.1-.15.19,1.86.1.14.09.85.1-.36.1.9.09-.09.1-.25.09.23.1,1.2.1-.52.09.63.1-.07.1.31.09-.21.29,1,.1-.3.19.54.1-.63.19,1.6.1-1.08.09,0,.1-.27.1-1,.09.54.29-2.35.2-2.69.38-3.53.48,7.77.1,2.68.1-.42.09.06.1,1.73.1-.74.09,1,.1-.1.1,0L96,299l.1.9.1-.27.09.82.1-.47.1.48.09-.26.1,1,.09-1.17h.1l.19.37.1-.17.1.8.09-.18.1-.5.19,1.22.1-1.46.1.89.38-.64.1.66.09-.23.1.42.1-.44.19.77.1-.48.09.23.2-.56.09.67.1-.19.1-1.11.09.09.2.87.19-.94.19.58.19-1.19.1.9.29-.67.1.12.09.54.1-1.59.1,1.51.09-.93.1.58.29-1.5.09.21.1-.74.1.12.09-.26.78-5.17.09,1.28.1-.73.29,3.14.09,1.48.1-.21.19,1.52.1-.17.1.57.09-.07.1-.18.1,1.15.09-.1.2.43.09-.41.1.75.19-.65.1,1.1.09-.3.2.76.09-.62.1.07.19-.46.1.13.19,1.1.2-.71.19.63.19-.8.29.57.1-.21.09.27.2-.27.09.44.1-.68.1.79.09-.81.1.49.1-.4.19.35.09-.67.1.2.1-.49.09.42.2-.35.09.06.1-1,.19,1,.1-.49.1.26.09.94.2-.75.19.93h.09l.1-.35.1,1,.09-1.54.2.83.09-.45.2.52.19-.46.1,1,.29-1.22.09.17.1-.55.19.3.1-.23.19-.82.1.29.09-1.05.1.41.1-.71.19.67.19-1,.1,1.26.1-.54.09.17.19.68.1.15.29-1,.1.21.19,1.52.19-.84.1.29.1-.21.09,1,.1-1.26.19.89.1.14.09.71.1-1.21.19.52.1-.71.19.62.2-.92.19.58.1-.71.09.56.1-.57.1.14.09-1.12.1.78.09-1,.1.52.1,0h.09l.1.13.29-1.11.29-.4.1.1.19-1.08.1.24.19-.32.19-1.43.1-.73.09.48.1,0,.1-.63.09.93.1-.93.19,1.39.1-.92.1,1.25.09-.18.1-.16.19,1.61.19,0,.1-.61.19,1.71.1-1.12.29.47.1.11.29-.77.09.73.1-.44.1-1.71.09.39.1-.35.09-.86.2.64.09-.05.1-.25.1.17.09,1.21.1,0,.19.72.1,1.18.1-.13h.09l.1.69.1-.46.28,1.88.1-.66.19.87.2.09.19.93.1-.42.09,1,.2-.72.09,0,.2-.2.09.35.1-.75.09.36.1.86.19-.91.2.28.19-.28.1.54.09-.51.2.52.28-.57.1.35.1-.26.29.71.19-.54.1.17.09-.46.29.39.1-.4.1.52.19-1.21.09.2.1-.05.1-.42.09.35.1-.58.19.63.29-.9.1,0,.1.53.19-.46.1.79.09-.08h.1l.09-.49.1.57.1-1,.09.9.1-.29.1-.91.19,1.43.1-1.09.09.34.1-1.29.19,1,.29-1.53.19-.18.1.47.19-.8.2.59.09-.54.2-1.46.19.07.1.37.09-1.49.1.25.1-1,.09.09.1-.19.19-2.15.1-.32.09.51.2-1.14.29,3.24.09,0,.1,1.46.1-1.23.09,1.48.1-.09.1.78.09-.11.1.26.09-.12.1.25.19,1.13.29-.08.2.8.09.1.1-.31.19,1.2.1-1.1.19.93.19.66.1-.71.19.67.2-.75.09,1.36.1-.93.1.7.09-.21.1.13.39-.55.09.94.1-.6.09.51.1-.35.1.11.19.78.19-.78.2.65.09-.09.1-1.5.19,1.54.1-.07.1-.49.19.74.19-1.09.1.83.09-.73.2.77.29.57.19-1.13.19,1.33.1-1.19.19,1,.1-1,.09.47.1-.52.1,1,.09,0,.1-.78.1,1.2.19-1.63.19.56.1-.54.19.77.1-.68.1.25.09-.06.1.13.09.78.1-.63.1.57.09-.59.1.36.1-.25.09.48.1-.47.1.11.19-.54.1.44.29-.71.09,1.24.19-1.16.1,1.45.1-.16.09.09.1-.39.19.37.2-.25.09.23.1-.3.1.36.19-.71.1.92.09-.21.1.32.09-.86.2,1,.09-.07.1-.21.1.2L146,302l.2.82.09-.26.2.24.09.09.1-.38.1.31.09-.36.19.25.2-.49.09.89.1-.69.19.88.2-1.34.09,1.15.2-.63.09.88.2-.93.09,1,.1-.77.09.1.1.61.19-1,.1.65.1-.53.09.76.1-.83.19.7.1-.42.1.13.09.61.1-.82.19.94.1-.46.09.1.1-.11.1.5.09-.64.1.09.1.19.09-.28.2.44.09-.18.1-1.26.19,1.19.1-.34.09.91.1-.88.1.12.09.55.1-.37.19.25.2-.15.19.25.19-.28.2.69.09-.88.1.41.09-.29.1.38.1,0,.19-.64.1,0,.09-.2.1.24.1-.49.09,0,.2-.22.29.34.19-.86.19.95.1,0,.19.25.19-.3.1.63.1-.09.19-.46h.29l.1.24.09-.16.1.22.09-.12.1.16.1.38.09-1.13.1.94.1-.2.09.31.1-.33.1.52.09-.45.2.5.09.05.1-.21.1.23.09-.18.1.11.19-.3.1.31.09-.09.2.54.09-.13.1.71.1-1.08.19.64.19-.36.1.5.1-.07.09-.22.1-.92.09.73.1-.15.1.22.09-.24.1.53.1-.17.09-.52.29.62.1-.23.1.52.38-1.33.19.49.1-.47.1.06.19-.37.19-1.22.1.24.1-.53.09.37.2-.18.09-.38.1,0,.29,1.58.19.07.29,1.17.1-.82.09.42.2,1.08.09-.68.1.76.1-.57.09,0,.39.73.09-.08.1.91.19-.61.1-.24.1.83.09-.62.2.33.19-.33.1.29.19-.6.38.5.1-.53.1.45.19-.13.19.55.2-.68.09.6.1-.31.1.06.09-.12.1-.32.1.51L168,305l.09-.6.2,1.5.09-1.48.2.87.09-.55.2.91.09-.67.1.39.19-.63.2-.09.09.31.1-.48.09.8.2-.82.09,0,.1.6.19-.34.1.47.1-.21.09.21.1-.63.19.53.2-.45.09.33.19-.65.2.32.38.22.1.16.1-.43.09.51.2-1,.09.61.1-.25.09.33.1-.12.1.06.09-.39.1.33.1-.82.09,1,.1-.07.1-.23.19.34.19-.44.2.62.09-.05.19-.92.1.79.1-.54.19.25.1-.74.09.72.2-.32.19.22.1-.57.09,1.11.2-.8.19.8.09-.21.1-.54.1.38.19-.43.1.67.09-.25.1.26.1-.25.09.42.1-.42.1.36.09-1.08.1,1.05.1-.13.09-.78.19.82.1-.54.19.5.1.14.1-.48.09.43.2-.22h.09l.2.38.09.16.1-.11.29.46.19-.47.1-.1.09.36.29-.51.2.77.09-.94.1.89.19-.49.1.17.1-.09.09.31.1-.32.09.37.1-.44.1.94.09-.23.1.12.19-.47.2.38.09-.58.1.21.1.49L182,305l.1,1,.1-.21.09.32.1-.08.09-.3.1.31.19-.56h.1l.1.89.19-.65.19.06.2.19h.29l.09.2.1-.71.09.8.1-.2.1-.6.09.33.1-.4.1.25.09.58.1-.14.1.31.19-.18.1-.3.09,1,.2-.67.09.08.29-.5.1.62.19-.59.1,0,.29.58.09-.18.2.44L187,306l.2.12.19-.26.19.51.29-1,.19.45.1.68.29-1.16.19.88.1-.72.1.47.19-.42.19.65.1-.12.38.22.2-.39.19.58.1-.71.09.25.1.56.1-.08.19-1,.19.71.1,0L191,306l.1.28.19-.28.2.22.09,0,.1-.56.1.13.09.75.29-.5.1,0,.09-.28.2.35.09-.32.1.32.19-.2.1.63.19-.92.1.28.19-.33.2.8.19-.71.09.37.1-.75.48.55.1-.78.1.73.09-.16.1.21.1-.12.09.29.1-.22.1.23.09-.22.19.24.49-1.15.29.67.09,0,.2-.19.09.73.1-.14.09-.43.2.63.09-.64.1.71.19-.59.2.51.19.08.19-.38.2-.36.19.61.09-.27.2.46.09-.25.1.17.1-.29.29.18.19-.27.1.41.19-.63.1.06.09-.39.1.74.09-.65.29.87.1-.42.1.51.09-.17.1.49.19-.5.1.41.1-.48.19.25.19.09.1.08.09.37.1-.1.1.21.19-.63.29.65.1.07.09-.17.1.35.19-.47.2.13.09,0,.1-.57.09.89.29-.44.2.17.09,0,.1-.09.1.14.09-.44.29.51.1-.45.1.49.09-.5.1.54.09-.16.1-.5.1.87.09-.89.2.27.09-.37.1.79.1-.62.29.41.09-.51.2.53.28-.39.1.08.1.42.09-.44.2.39.09-.05.1-.21.1.08.09-.12.1.1.1-.14.19.55.19-.6.1.68.09-.7.1.06.1.52.09-.37.1.06.1.39.29-.45.19.19.1.46.19-.87.1,0,.28.51.1-.1.1.18.09-.42.1.46.1-.53.09.31.1-.33.1.17.09-.4.1.56.19-.34.1.17.1-.49.19.37.09-.07.1-.18.1-.45.19.76.29-.55.1.55.09-.59.1.66.1-.07.09-.76.1.57.1-.21.09.52.19-.46.1.62.19-.62.1.24.19-.28.1.79.19-1.12.1.4.1-.29.09.33.1-.13.1-.4.19.12.09-.13.1.71.1-1.28.09.86.1-.79.19.55.2.05.09.11.1-.15.1.21.09-.23.2.44.19-.15.09.26.2-.6.09.38.2-.41.09.28.1-.19.29.67h.1l.19-.39.19-.25.1.41.19-.41.1-.2.19.12.1-.08.09-.6.1,0,.1-.29.09.47.1-.55.1.72.09-.35.2.22.09-.13.1-.47.09.4.1-.1.19.33.1.68.1-.67.09.09.2.33.19-.25.1-.13.09.45.1-.24.19,0,.1-.4.19.56.1.16.09-.66.1.67.19-.38.1.41.1-.28.09,0,.1,0,.19-.31.19.2.1-.23.1.07.19-.74.1.49.09-.33.1.47.1-.63.09,0,.2.51.09-1,.2.52.09.1.1-.59.19.52.1-1.18.09.62.1-.42.1.19.09-.31.1.4.19-.31.1.67.1-1.09.09.62.2-.9.09.3.19-.9.1.08.1-.36.09.24.29-1.38.1.44.19-.22.1-.06.1.42.19-.39.1.37.09-.55.19,1.11.1-.75.29,1.28.19-.64.1,0,.19.36.2-.15.19.68.1.2.09.56.1-.52.19.5h.1l.09.63.2-.24.09.12.1-.09.29.38.19-.38.29.38.19-.3.1.24.1-.52.09.2.1,1.18.1-1.25.09.35.1-.63.29,1,.1-1.36.09.19.2.56.09-.93.1,1,.09-.16.1.13.1.56.09-.5.2.39.09-1,.2,1,.09-.13.2.51.09-.37.1.4.1-.47.19.52.09.9.1-.68.1.25.09-.06.1.34.19-.38.1.07.1.28.09-.52.39.88.1-.15.09-.56.1.47.09-.43.1.89.1-.67.09.13.1-.21.1.25.19-.19.19.48.1-.3.1.2.09-.4.2.61.09-.13.1.38.09-.53.1.09.1.6L238,307l.1.28.1-.09.09-.28.1.09.19.53.2-.7.19.44.1-.62.19.49.09.17.29-.79.2.69.09-.09.1-.37.1.14.09-.12.29.46.1-.54.19.45.1-.16.09.23.1-.3.19.49.2-.37.19-.07.19.6.2-.85.19.71.1.31.09-.32.1.16.09-.13.2.26.09-.28.1.21.1-.23.29.67.19-.66.19.78h0" transform="translate(0 0)"/></g></g><g id="line2d_32" data-name="line2d 32"><g class="cls-5"><path class="cls-7" d="M23.44,250.41l.19-.74.19,1.16.1-.51.1.61.09-.5.1,1,.1-.56.09.76.2-.58.09,1.19.2-1.11.09.55.1-.67.1.54.19-.42.09.92.2-1.13.19,1.55L26,252l.09.44.1-1.1.1.28.19,1.07.1-1.1.38,2,.19-1.45.1-.72.19,2.4.1-2.17.1.24.09-.37.2,1.11.19-.4.19,1.25.1-1.68.19,2,.1-2.13.09,1.39h.1l.1.18.09.56.1-.64.1,1.75.19-2.35.19,2.08.1-.13.1-1.6.09.94.1,0,.1.45.09-.69.29.74.1.14.19-1.22.1.72.09-.56.2,1.19.09-.06.1-1,.1.17.09,1.26.1-.62.09.11.2.38L32,254l.1.49.19-.28.1-.86.19,2.11.1-.56.1.35.09-1.25.2,1.42.09-.14.19-.86.1,1,.1-1.61.19,1.33.1-1.21.29,1,.09,0,.1.63.1-.57.09,1.19.2-1.78.09,0,.1,1.31.09-.93.1.41.1-.91.09,1.27.1-1.26.1.76.09-.05.1-.56.1,1,.29-.86.09.11.1-.21.1,1,.09-1.15.19.82.1.61.1-.1.19-1.12.1,1,.09-1.16.2,1.37.09-1.24.2,1.79.19-2.1.1.15.09.81.19-.4.1-.5.1,1.19.38-1.36.1.34.1.9.09-1.66.1,1,.1-.85.09.19.2-.14.09-.07.1,1.19.19-.65.1.11.09-.07.1-1.33.1.81.09-.1.1.38.29-1H41l.09.55.29-1.29.19.17.1.78.19-1,.1.59.1-.84.09.4.1-.2.1-1.28.09.19.1,1.27.1-.22.09.37.1-1.38.29.81.09-.7.1,1.33.1-1.27.09.05.1-1.05.1,1.94.09-1.31.1,1.21.19-2.22.1.06.29,1.94.1-.83.09.37.19-1.5.1.36.19.11.1-.67.19.91.1-1.59.1.42.09,1.15h.1l.1-1.14.19,2,.19-1.59.1.67.09-1.81.2,1.16.09-.61.1,1.13.1-.76.19,1.06.1-1,.09,1.15.1-.5.19.65.2-.73.09.62.1-.82.19,1,.1.38.19-.82.29,1.93.1-1.42.09.38.1-.21.1,1.38.09-.05.1-.74.19,2,.1,0,.09-1.27.1.92.1-.44.09.83.2-.43.29.93.09-.55.1,1.05.1-.25.09-.73.2,2.14.09-1.72.19,1.19.1-.21.1-.56.09,1.32.1-.35L52,256l.1-.92.1,2,.09-.29.1.23.1-.57.19.44.1-.45.28,2.13.1-.66.1.13.09.83.1-.06.19-.32.2-.26.19.17.1-.38.09,1,.1-.53.1.5.09-1,.1,1.84.19-1.34.29,1.16.1.29.19-.32.19.58.1.24.19-1,.1.08.09,1.11.1-.79.29.68.19.1.1-.09.1.12.09.4.1-.17.1-.59.09.08.1.43.1-.51.19,1.2.09-.46.1.05.1.11.09-1,.1,1.47.1-.3.09-.83.2,1.3.09-.55.1.2.19-.42.1.73.1-.23.09.16.1-.74.09.8.1-.42.1.83.09-.55.1.39.1-.05.09-.24.1.83.1-.24.09-.81.1.17.1.7.09-.23.1.07.1-.44.09.83.1-.76.09.67.1-.67.1.47.09-.58.1.85.1-.16.09.12.1-.95.19.43.29.53.1-.34.19,1,.1-1,.09.08.1.8.1-1.15.19.53.1-.8.19,1.14.1-.6.09.55.1-.21.1.24.09-.23.1.91.19-.89.1.44.09-.64.2.87.19-.61.1.42.09-.33.1.48L65,263l.19-.95.1,1.09.19-.52.29.85.19-.21h.1l.09-.1.1-.4.1.74.09-.83.1,0L67,263l.09-.17.1.6.1-.79.19,1.21.09-1,.1.23.1-.09.09.47.2-.22.09.44.2-1.05.09.83.2-.29.09.5.1,0,.1-.62.19.75.19-.7.1.06.09,0,.1.85.29-.79.19.35.1-.28.1.07.19.44.1-.83.09,1,.1-.79.19.41.1-.16.09.1.1-.42.1.46.19-.68.19.7.2-.67.19.55.1,0,.09-.14.1.52.09-.62.1.19.1-.19.09.35.2-.44.19.48.1.06.09-.93.1.05.1.22.09,1,.2-.61.28.28h.1l.1-.68.09.27.1-.05.1-.56.09.06.1.24.1-.44.09,1,.1-.17.1.07.09-.75.1.88.19-.8.1.81.29-1,.19,1,.1-.08.09-.86.1.73.1,0,.09-.25.1.17.29-.21.1-.45.19.56.19-.52.29.92.1-.9.09.14.29.25.1-.78.19,1.29.19-1.21.2.59.09-.1.1-.5.19.68.1.26.19-.64.1.58.1-.73.09.19.1-.08.1.33.09-.13.1-.48.09.45.1-.51.19.16.1,0,.1-.43.09.62.1-.7.1.43.09-.16.2.65.29-.87.09.36.1-.06.09-.54.2.29.09-.26.1,0,.1.74.19-1,.1.39.09-.75.1.66.1-.55.09.71.1-1,.1.94.09-1,.19.69.1.05.19-.92.2,0,.09.28.29-.86.1.36.1-.45.29.91.09-.75.19.95.2-.6.09.31.1-1.11.1.38.09-.34.1.67.19-.94.1.92.1-1.38.09.56.2-.31.09.4.19-.15.1.48.19-.88.1.25.19-.67.2,1.09.09-.81.1.39.1-.06.38-1.14.1,1,.09-1.38.1,1.14.1-.11.09-1.23.1,2L89,258l.09.93.1-.25.1.07.09-.82.1,1.31.19-.62.1.13.1-.79.09.79.1-.61.09,1.42.1-1.38.19,1,.1-1.13.1,1.28.09-.72.1.24.1-.58.09.7.2-.45.09.66.1-1.05.19.65.1-.25.09.92.1-.56.1.85.29-1.27.09,1.52.2-.76.19.88.1-.08.09.12.1-.51.19.93.19-.54.1-.25.19,1.16.1-.17.1-1.37.19,1.41.1,0,.09-.57.1.93.1-.42.09.72.2-.92.09-.41.19,1.41.1-.63.1,1.05.19-1.43.1.92.09,0,.1-.89.1.21.09.88.1-.15.19-.8.1,1.29.19-1.17.19.93.29-1,.1,1,.1-.31.19.67.19-.65.1.87.19-1.17.2.77.09-.68.1.07.09.64.1-.33.1.19.09-.29L99,262l.1-.06.19-.88.2,1.06.09-.3.1.06.1-.46.19.52.09-.67.39.47.1-.6.09.4.1-.65.19.53.29-.44.1.63.1-.38.19.47.19-.56.1.8.19-1.34.1,1,.09-.75.2,1,.09-.09.1-.47.1.27.09-.68.19.34.1.16.1-.57.09,1.09.1-1,.29.67.19-.62.2.39.09-.25.1.25.1-.35.19.39.09-.54.2.39.09.17.1-1.25.1.95.09-.32.1.23.19-.41.1.57.19-.62.1-.23.19.74.1,0,.09.22.1-.39.1.1.09-.08.1-.47.1.32.09-.57.1.33.1.75.09-.37.2.24.19-.85.19.69.1-.38.09.06.2-.52.09.84.1,0,.29-.58.1-.4.09,1.19.1-.87.1.29.09,0h.1l.1.29.09-.45.1.21.09-.68.1.12.1,1.06.09-.31.1.05.1-.09.09-.57.2,1.4.09-.38.1.11.19-1.09.1,1.42L111,260l.1,1.28.19-1,.1.75.09-.59.1.13.1.51.09-.09.1.14.1-.29.09-1,.1,1.29.29-.76.19.93.1-.07.09-.72.1.51.1-.8.09,1.13.1-.6.1.43.09,0,.1-.46.1.3.09-.07.1.4.1-.28.09.42.1-.37.1.53.09-1.11.39,1,.09-.8.29.94.1-.93.1.41.09-.4.1,2,.1-2.29.09,1,.2-.44.09.76.29-1.1.19.9.1.54.1-.71.09,1,.29-1.21.1,1.1.1-.35.09.27.1-.91.1.54.09-.41.19,1.22.1-.72.1.34.09-.71.1.2.1-.42.19,1.39.1-.54.09.4.1-.42.1.47.09-.88.29.79.1-.26.09.43.1-.83.19.75.1.14.19-.94.1,1,.1-.53.09.83.1-.85.19,1.06.2-1.15.19.81.29-.27.09-.35.1.56.1-.48.09.13.2.85.09-.65.2,1,.09-.93.2.62.19-.75.09.62.1-.28.1.25L123,263l.1.56.29-.4.1.64.09-.09.1-.29.1.2.29-.9.19.84.09.37.1-.31.1.34.09-.42.29.46.1-.5.19.76.1-.08.29-.46.09.16.1,0,.1.43.09-.61.1.77.1-.56.09.38.1-1.19.1,1.2.19-.75.1.88L127,264l.29-.44.09.73.1-.57.1.32.09-.18.1.17.1.68.09-1,.1.35.29-.9.19,1.26.2-.84.09-.46.1.63.09-.78.2,1.17.09-1.08.2.62.09-.81.1.1.1-.43.09,1.06.29-1.49.1.13.38-.56.1.24.19-.77.2,0,.09-.42.1.67.1-.22.09-.91.1.08.1.22.19-.67.1.54.09-.9.19.88.2-.83.09.81.2-.3.09.09.1-.33.1.12.19-.39.1.6.09-.59.2,1.66.09-1.61.1.16.09,1.33.1-.11.19-.4.1-.19.29,1,.19-.7.1.75.1-.63.19.66.19.6.1-.55.19.53.1-.71.09.21.1.82.1-.39.09,1,.1-.27.1.63.09-.95.1.2.1-.12.29,1.08.28-1,.2,1,.09-.08.1-.38.1.68.19-.74.1.06.09.65.1-.68.29.76.1.45.09-.41.1.4.09-1.17.1,1.3.29-.58.1.55.19-.34.1,0,.09.41.1-.67.1.25.09.92.1-.7.1.51.09-.5.1.29.09-.47.1,1.26.19-.92.2.91.19-1.11.1.4.19-.21.1-.11.19.32.1-.18.09.36.1-.4.09,0,.1.44.19-.29.1.83.19-.7.1.29.1-1,.09.3.1-.18.1,1,.09-.29.1.08.19-.76.19.69.1-.1.1-.62.19.45.1.46.19-.52.1-.21.09.46.2-.71.09-.22.1,1,.1-.59.09,0,.1.59.19-.56.1-.27.09.58.1-.58.19.84.2-.63.09.69.2-1,.29.54.09.8.19-.88.1.25.1-.61.19.39.1-.1.09-.69.29,1.42.1-.42.29-.52.1.59.09-1.11.1,1,.29-.56.19.79.1-.16.09.5.1-.84.1.21.09-.47.1.71.1-.09.09-.62.19.64.1-.25.1.7.29-.87.09.9.1-.52.19.73.1-.3.19.14.1-.33.19.33.19-.59.1.73.1-1.11.19.9.19.54.1-.65.19.39.1-.58.1.58.09-.18.1.31.1-.48.09.49.1-.25.29.65.19-.76.1.57.09-.06.1-.34.19.64.2-.35.09.14.1.36.1-.71.09,0,.1.65.09-.17.1-.5.1.05.38.7.2-.75.09,1.42.1-.69.1.33.09-.83.1.5.1-.17.09.17.1-.34.19.29.1.46.09,0,.2-.84.09,1.11.1-1.3.1.88.09-.35.2.52.09-.23.1.11.1-.25.09.27.1-.64.19,1,.29-.72.1.14.09-.11.1.63.1-1.05.09.81.1-.49.1.45.09-.33.1.53.38-.75.1.83.1-.83.09.72.1-.23.1.4.09-.34.1.12.1-.11.09-.48.2,1,.19-.56h.19l.1.64.09-.17.1-.45.1.06.09.29.2-.49.09.51.2-.35.09.58.1-.7.19.16.29.34.1-.42.09.37.1,0,.19.59.1-1.05.19.29.1-.08.19.24.1.34.1-.65.09.56.29-.37.19.5.1-.36.1.54.09-.83.2.78.19-.53.1.53.09-.49.2.5.19-1.06.1.64.09-.05h.1l.19-.37.1,0,.19.71.19-.69.1.67.19-.69.1.09.1-.22.09.1.1.55.29-.48H168l.1.66.1-.17.19-.79.19.63.1-.05.19-.41.1.13.1-.42.09.13.1.63.1-.5.09.37.19-.34.2.52.09-.65.2.35.09-.33.1,0,.1.16.09-.56.1.57.29-.5.1.52.09-.09.1.36.19-.63.19.29.2-.46.09.5.1-.18.1.33.09-.27.1.16.38-.33.1.67.1-1,.09.53.1-.12.1-.76.09,1,.2-1,.19,1,.1-.21.09-.07.1.28.19-1,.19,1,.1-.46.1.2.09-.13.1.15.19-.71.1.16.1.66.09-.36.1.19.1-.07.09.45.29-1.2.1,1.28.09-1.17.2.89.09.2.29-.37.2.2.09.55.1-.93.1.21.09-.25.1.42.1-.16.09.54.1-.63.09,1,.1-1.09.1.06.09-.35.1.74.1,0,.09,0,.1-.68.19,1.07.1-.82.1.23.09.62.1-.5.29.71.29-.94.19,1,.19-.35.1,0,.1.34.09-.15.1.4.1-.45.09.49.1-.34.1.14.19-.38.09.16.2-.32.09.33.1-.36.1.07.09-.16.1.16.1.82.09-.7.1,0h.1l.09-.22.2.39.09.78.1-.4.09.1.1-.65.29.51.1-.54.29.53.09-.71.2.42.09-.05.1-.4.1.62.09-.34.19.78.29-1.09.1.67.1-.45.09.75.1-.49.39.58.09-.46.1.25.19-.54.1.21.09-.24.2.75.09-.61.2.47.19.05.19-.22.1.22.1-.35.09.47.1-.41.19.61.1-.15.09-.33.1.39.1-.71.09.61.1-.27.1.23.19-.54.1.32.09-.14.2.51.19-.15.1.19.09-.49.1.45.09-.62.1.7.1-.23.19.36.19-.66.1,0,.1-.2.09.47.2-.35.09.54.2-.59.19.42.09-.06.1.44.1-.51.09.56.1-.07.1.12.19-.51.1-.1.09.43.1-.45.1.21.09.69.1-.23.1-.52.19.18.09,0,.1-.34.29.8.29-.84.1.71.09-.76.1.79.19-.63.1-.23.1,1.11.19-.79.09.66.1-.84.19.89.1-.78.1.56.09-.31.2.56.09-.29.1.08.1-.14.09.14.1-.5.1,0,.09.29.1-.28.09.61.1-.32.19.5.1-1,.19.53.2-.13.09.34.1-.06.1-.25.09.43.1,0,.19-.61.1.59.09-.34.2.09.29-.15.09,0,.1.45.1-.61.19.36.1-.15.19.4.09-.57.2.46.09-.17.1.25.1-.08.09.17.1-.07.1-.83.09.37.1-.07h.1l.09.38.2-.34.19.3.09-.25.2.46.19-.29.1.18.09-.07.1.34.19-.19.1-.63.1.5.09-.3.1.18.1.46.09-.09.19-.25.1-.06.1.34.19-.84.19,1.1.1-.89.1,0,.09.55.1-.17.19.33.2-.16.09.3.1-1.05.19.74.1-.4.19.46.1,0,.09-.23.2.44.19-.6.1.49.19-.58.1.68.09-.62.1.59.09-.43.1.33.1-.36.09.23.2-.36.09.09.1.27.1-.23.09.35.1-.07.1,0,.09.24.1-.18.1-.44.19.62.09-.18.1.11.19-.35.2.28.09-.36.29.33.2-.37.09.08.1.36.1,0,.09.1.1-.54.19.48.1.25.09-.24.1.06.1-.53.09.34.2-.37.09.5.2-.79.09.66.2-.42.28.79.2-.5.09.38.1-.37.1.51.29-.72.19.55.1-.72.09.52.1-.27.1.3.09-.46.19.87.1-.4.1.13.09-.11.1-.35.19.48.1-.21.19-.17.2.43.09-.08.2-.34.28.46.1.12.19-.3.1.07.19-.3.1.48.1-.64.19.36.1-.05.09.42.1-.37.1.05.09-.22.1.06.09-.27.1,0,.1-.12.09.34.1,0,.1.24.09-.11.1-.5.1.69.19-.35.1.15.09-.16.1.53.19-.61.1,0,.09.3.1-.45.19.5.1-.56.1.06.19.71.1-.27.09.14.2-.5.09.37.2-.42.09.56.1-.25.09.32.2-.61.09.28.1-.08.1.48.09,0,.1-.45.1.29.09-.13.1.21.1-.11.09.26.1-.26.1.28.19-.41.09,0,.1-.17.19.4.2-.23.09-.1.1.33.1-.54.19.29.1-.17.19.22.09-.34.2.63.09-.69.1.39.1-.07.29-.41.09.4.1-.1.1.43.29-.67.09.34.19-.45.2.67.09-.64.1.32.1-.42.09.66.2-.5.38-.09.1-.37.19.76.29-.57.39.05.09-.12.1.14.1-.43.19.37.1-.63.19.39.19-.47.1.26.19-.52.19.17.29-.78.1.61.29-.5.1-1,.09.87.1-1.11.1.27.09-.07.1.25L228,265l.1.33.09-.08.1-.33.1.69.09-.32.1.51.1-.47.09.8.2-1.16.09.74.2-.7.09,1.29.1-.85.09.63.1-.69.19.83.1.19.1-.38.09.39.1-.5.1.07.19.54.1,0,.09-.5.29.78.19-.88.1.63.1-.44.19.46.1.23.09-.57.1.5.1-.06.09-.23.1.24.1-.35.09.36.1-.72.19.76.1.28.19-.47.19.73.1-.43.1,0,.09-.23.1.48.1-.39.09.59.1-.77.1.63.09-.32.2.82.09,0,.1.22.09-.67.49.69.09-.5.1.84.1-.66.19,1.21.19-1,.1,0,.1.5.09-.22.1.68.09-.08.1-.05.19-.45.1.71.1-.29.09.48.2-.74.19.38.1-.41.09.41.1-.35.1.68.09-.33.1.33.09-.09.1.29.29-.77.1.61.09-.16.1.26.1-.32.09.35.1-.64.1.64.09-.26.1.35.1-.52.09.43.1-.51.19.67.1-.44.19.32.1-.79.09.66.2-.15.09.25.2-.35.29.35.09,0,.1.17.09-.28.1.14.1-.36.09.74.1-.75.1.64.09-.8.1.63.29-.67.19.67.2,0,.09.14.1-.18.09.16.1-.86.1.54.09-.51.2.8.09-.41.1.34.1-.54.09.48.1-.37.1.32.09-.19h0" transform="translate(0 0)"/></g></g><g id="line2d_33" data-name="line2d 33"><g class="cls-5"><path class="cls-8" d="M23.44,208l.1.08.09.75.1-.63.19.63.1,1.34.09-1.21.1,1.27.1-.88.09.27.1-.53.19.76.1-.42.29,1.43.1-.67.09.62.1-1.68.09,2.08.1-.54.1.31.09-.23.1.06.1-.33.09.38.1-.09.1-.59.09.29.1-.08.19,1.18.1,0,.1-.55.09-1.33.1,2,.09-.06.1-.27.1.19.09.73.1-.07.1-1.48.09,1.34.1-.2.1-.34.19.8.19-.38.1-.61.1.36.09,1.64.1-1.54.19.9.1-.92.09,1.14.1-1,.1,1.18.09-.9.1,1,.19-.92.1.62.1-1.11.19,1,.1-.68.19,1.64.09-.27.1.1.1-.48.09.43.1-1.45.1,1.14.09-1.2.1,2.1.19-1.51.2,1,.19-.41.09.24.1-.63.19.92.29-1.49.1.07.1,1.65.19-1.23.1,1.18.09-.67.1.7.1-.25.09.7.1-1,.09.55.1-.27.1-.89.19,1.57.1.55.09-1.46.2,1.16.09-1.62.29,1.71.1-1.26.1.27.09.86.1-1.32.09,1.17.1-1.05.1,1.2.09-1.48.29,1.42.1-.75.1,1.52.09-.92.1.94.19-1.64.1.43.1,1,.28-.9.1.78.19-.74.2.83.09-.66.1.38.19-.56.1.9.19-1.24.1,1.57.1-1.39.09.05.1-.18.09.35.1-.05.1.28.09-.77.2,2.23.09-.81.1.36.1-.7.09.55.1-.5.1-1.39.09.78.1-.67.1.94.09,0,.1-.06.09,1.08.1-1.33.1.83.09-.17.1.27.1-.5.09.55.2-.93.19.83.1-.76.09.64.1-.12.1.53.09-1.37.19,1.09.1-1.33.39,1.37.19-.95.19.83.1-.08.1,1,.09-1.54.1.58.1-.49.09.31.1-1.19.29,1.74.09-.57.1.4.1-.07.09-.81.1.72L44,215l.09-.14.1.26.1-.3.09.15.1.36.19-1,.1,1.37.29-1.35.29.95.09-.81.1,1.17.1-.36.09.86.2-1.41.09.16.1-.74.29,1,.09-.15.1.63.1-.88.19.86.1-.33.09.76.1-.08.1-.2.09-1.17.2,1.66.09.08.1-.72.1.27.09,1,.1-1.16.19.8.1.44.19-.91.19.6.2.23.19-.42.1.44.09-.25.2,1.67.09.17.1-1.17.19.9.1-.58.38,1.72.1-1.75.1,1.17.09-.35.1.49.19-1,.2.89.09-.24.19.62.1.32.1-1.11.09.95.1-.4.1.39.09,0,.1,0,.1-.16.09.28.1.8.1-1.38.09.68.2-.63.09,1.76L53,220l.09.13.2-.64.19,1,.19-.21.1.66.1-.69.09.67.1-.52.1.08.19-.42.29,1.63.09-.71.1.13.1.58.19-.81.1.46.09-.27.1.14.1.82.19-1.34.1-.09.09,1.07.1-.05H56l.2.34.09-.75.1.11.1.43.09-.17.1.54.1-.08.09.12.2.33.09.13.1-.66.1.06.09.24.1-.3.09.78.1-.08.19-.05.1-1,.1,1.13.09-.54.1.17.19-.18h.1l.29.69L59,222l.09,1.22.19-.76.1.1.29-.55.1,1.34.19-.42.1.38.09-.15.1.22.1-.78.19.67.1-.64.09.68.1-.23.09.59.29-.51.1.18.1-.66.19.74.1-.54.09.29.1-.09.1.44.09-1.1.2.77.09-.1.1-.29.09.79.29-.63.2.48.09-1.28.1,1.06.1-.22.09.47.1-.6.19.73h.1l.1-.32.09,1,.1-.16.29-1.31.09,1.13.2-1,.09,1.4.2-1,.19.37.1-.12.09.49.39-.63.09.4.1-1.52.1,1.72.09-.81.2.33.09-.61.2.59.09-.4.1.31.19-.35.1.65.1-.25.09-.75.19,1,.1-.95.19.58.1-.25.1.2.09-.07.1-.54.1.68.09,0,.2-.54.09.06.1.07.1.72.09-1,.1.71h.09l.1-.74.29,1,.1-.15.19-1,.19,1.14.2-.78.19.4.19.41.1-.91.09.62.2-.88.09.73.1-.83.1.74.19-.78.1-.06.09.54.1-.33.1.73.19-.71.19.29.19-.77.1,1,.19-1.16.1.66.19-1.2.1,1.26.1-.39.09.18.1.67.19-1.64.1,1.59.1-1,.19.56.09-.12.2-.55.09.32.2-.56.09.53.1-.76.1,1.48L75,222l.1,0,.1.59.09-.49.1.09.1-.44.09.39.1-.46.09-1,.2.79h.19l.1.55.19-1.49.1.89.09-.12.1-.54.1.34.09-.21.2.35.09,0,.1.17.09-.58.1.09.1.28.09-.53.1.39.1-.59.19.61.1-.46.09.48.1-.67.19.49.1-.6.09.49.1-.21.1.81L79,220l.1.53.19-.18.1-.84.19.56.1.77L80,220l.19.38.1-.08.09-.72.1.89.29-.64.1.22.09-.09.2-.57.19.17.1,0,.09.68.1-.81.1.42.19-.88.09.67.1-.26.19.53.1-1.44.1.84.09-.05.2-.16.09.74.2-1.13.09,1.59.2-1.4h.09l.19.34.1,0,.1-.9.09,1.09.1-.94.1.27.09-.47.1,1.27.19-1.31.1.26.1-.62.09,1.36.1-.05.19-.42.1,0,.09-.22.2.65.09-.94.1.55.1-.06.09-.25.2,0,.09.85.1-1.15.1.42.09-.37.1.52.1-.09.19-1.16.19,1.09.1-.28.09.53.1-1.28.19.56.1.1.1.33.09-.29.1-.66.1.86.09-1,.2,1,.19-1.18.09,1.37.1-.12.1-1,.19.82.1-1,.29,1,.19-.72.1.5.09-1.08.2,2,.09-1.25.1.29.09-1.38.1,2,.1-.09.09,0,.1.63.1-1.28.09.81.1-.86.1.42.09,1.05.2-1.19.09.76.1-.34.1.13.09.47.1-.14.19-.75.1,1.3.09-.8.1.58.1-.19.09.11.1-.2.1.74.09-.78.1.2.1-.2.09.5.1-.45.1.24.09-.41.19,1.33.1-1.34.1,1.33.09-.36.1-1,.19,1.17.1.19.1-.76.09,1.41.1-.24.1.13.09.75.2-1.15.09.53.1-1.17.29,1.5.19-.38.1,1.17.09-1.55.1.13h.1l.09.3.1-.38.1,1.45.19-1.54.19.73.29,0,.1.64.09-.06h.1l.19-.28.1-.12.19.82.1-1L98,222.7l.1-1.07.19,1,.09-.54.1.46.1-.64.19,1.19.19-1.48.29,1.88.1-.81.1.78.09-.26.1.06.1-1.1.19,1.22.09-.79.1.37.19-.6.1,1.27.1-1.16.09.49.2-.34.19.68.1-.35.09.22.1-.3.29.39.09.54.1-.85.1.12.29.26.09,0,.2.38.09-.61.2.68.09-.46.19.59.1-.58.1.38.09-.76.2.51.19.66.1-.31.29.22.09-.05.1-.5.1.67.09-.49.1.41.09-.42.2,1.08.19-1.31.1.62.09-.25.1.15.1-.13.29.55.09.79.2-1.23.19.07.09.43.1-.13.1.33.09-.24.1-1,.19,1,.1-.8.1.76.09-.09h.1l.1.31.09-.42.1.11.1-.26.19.81.09-.63.1.11.1-.45.09.08.2-.13.09-.12.1.84.1-.8.09.48.1-.23.19.33.1-.53.29.93.09.07.1-.37.1.28.09-.37.1.16.1-.25.09.34.1-.38.1.77.09-.1.1-.83.29.93.1-.21.19-.6.09.84.1-.76.29,1.06.29-.64.19.76.2-1.16.19.4.1,0,.09.31.1.72.09-1.33.29,1,.1-.47.1.18.09-.29.2.29.09-.29.1.57.1-.38.09.05.29.66.19-.22.1.6.1-.77.09.11.1-.09.1.09.09.63.2-1,.19.4.1-.19.09-.69.2,1.27.19-.63.09.16.1-.11.1.62.09-1.08.1.86.1-.22.19.43.1-.49.19.52.1-.41.09.08.1.46.1-.42.19.33.09.44.1-.93.1.24.09-.19.1.57.39-.41.19.92.1-1,.19.5.19.16.1-.86.19.38.1.15.09-.22.1-.52.1.74.09-.57.1.4.1.89.09-1,.2.84.09.44.1-.79.1.08.19.46.09-.42.2.58.09-.53.1.28.29-.5.29.4.19-.15.1-.38.29,1,.19-.94.1.05.19.47.19-.52.1.79.19-.71.1.69.1-.77.09.88.1-.76.1.29.09-.62.1,1.17.09-.25.1,0,.19-.13.1.78.19-.76.1.25.1-.21.09-.64.1.43.1-.38.09.67.1-.07.09.1.2-.67.09.69.1-.06.19.43.1-.77.1.13.09.71.1,0,.1-.5.09.15.2-.15.19.18.19-1.39.19.95.2.07.09.15.2-.27.09.13.1.33.19-.63.1.2.1-.83.19,1.3.09-1.22.1.56.1-.38.09,0,.1.6.19-.62.1.16.1-.2.09-.55.2.3.09-.72.1.87.1-.09.09-1,.19.81.1-1.1.1.45.09-.82.2.66.09.11.2-1,.09,1,.2-1.52.09.87.2-.46.09.47.19-1.5.2,1.05.09-.85.29.54.2-.69.09.62.1-.52.1,1,.19-.81.19.58.1-1,.09,1.42.2-.58.09-.08.2.12.09.72.2-1,.09,1,.1-.32.19.56.2-1,.19.64.09-.47.39.91.1-.24.09.79.1-.8.1.25.09-.08.29.52.1.63.19-.71.1.89.09-1.14.1.6.1-.73.09.5.1-.14.1.42.09-.37.1,1.07.29-1,.29,1,.1-.34.09.48.1-1,.09.92.2-.61.19.42.1-.48.09.76.29-.34.1.33.19-.61.2.25.09.82.1-.57.09.55.2-.71.19.6.1.06.09.7.2-1.67.19,1,.1.07.09-.26.1.38.19-.38.1-.07.09.26.1-.11.1.1.09.75.29-1.47.1,0,.1.62.09-.25.1.13.1-.21.19.24.1-.35.09.61.1-.44.09.07.1.16.1.77.09-.32.2.28.19-.65.1.09.09-.33.1.58.1,0,.19,0,.1,0,.09-.4.1.13.09-.4.2.95.09-.75.2.7.19-.23.1-.32.29.76.09-.07.1-.8.19.63.1-.46.19.61.1-.07.09-.21.1.7.19-1.46.1,1.1.1-.58.38.92.1-.17.1-.4.09.3.1-.38.09.85.29-.93.1-.44.1.66.09-.47.1,1.27.1-.57.09.13.1-.78.1.87.09-.61.19,1,.1-.66.1.38.09-.73.2,1.48.09-1.14.2.52.19-.25.1.07.09-.21.1.3.1,1,.09-1.51.1.63.09-.41.1.79.19-.69.2.59.09-1.08.1.3.19,1.12.2-1.07.19.95.1-.75.09.57.1-.23.29.38.09-.21.1.49.19-.41.2.16.09-.29.1.08.1.45.19-.74.19.61.1-.39.09.35.1-.49.19.58.1-.65.1,1,.09-.58.1.57.1-.38.09.6.2-.62.09.29.1-.6.1.6.09-.25.19.54.1-.84.1.58.09-.12.29.54.2-.88.19.43.1-.31.09.42.1-.73.19,1,.19-.5.1.36.1-.3.09.77.1-.68.1.39.19-.85.19.52.1-.11.1.15.19,0,.1.52.09,0,.1-.25.09.22.2-.5.19.87.19-1.07.29.33.1-.14.19.33.1-.06.1-.46.09.79.1-.33.09.37.1-.73.1.68.29-.68.19.75.19-.49.2.55.09-.6.1.44.1-.17.09.16.1-.79.09.68.1-.31.1.37.19-.19.1.08.09-.63.1.76.19-.34h.1l.1-.58.19.42.1.08.09.45.29-.46.1-.13.19.31.1-.1.09.34.1-.62.19.42.1.16.19-.21.1,0,.1-.45.19.52.09-.31.1.62.1-.81.09.33.1-.15.1.63.19-.85.1.8.19-1,.19.81.1-.12.1.1.09-.61.19.57.1,0,.1-.49.09.08.1.28.29-.37.1.36.19-.27.1.7.19-.57.1.11.09-.26.1.33.19-.5.1.38.09-.19.1.48.1-.64.19.52.19-.32.1-.06.19.57.29-.92.19.94.29-.58.1-.22.1.63.19-.52.1.52.09-.29.1.1.19-.34.19.26.1.36.19-.82.29.82.2-.58.09.09.2-.31.09.38.1-.54.19.68.1.16.09-.38.2.56.09,0,.2-.63.09,0,.1.54.1-.18.19.2.19.09.2-.71.09,0,.1.63.09-1.09.1.91.19-.21.1,0,.1-.28.19.8.1-.08.09-.56.1.63.1-.05.09-.54.1.06.19.79.1-.63.09.3.1-.58.1.61.09-.32.2.67.09-.39.1.37.1-.25.09.48.2-1,.09.56.1-.64.1,1.14.09-.8.19.4.1-.33.1.18.09-.37.1.61.19-.74.1.09.19.78.1-.5.19.63.2-.57.09.49.1-.42.09.11.1.31.29-.35.39.71.19-.92.19.56.2-.33.09.62.48-.56.1-.24.19.13.1.72.19-.47.1.16.1-.38.09,0,.2.57.28-.38.2.64.29-.76.19.47.1-.55.19.5.1.1.09-.22.1.07.1.39.09-.39.1.29.09-.49.1.06.1.79.09-.42.1,0,.1.23.29-.86.19.24.1,0,.09.28.1-.08.1.16.09-.43.1.85.19-.94.19.48.1.19.1-.36.09.36.1,0,.19-.21.1.08.1.22.09-.41.2.37.09-.18.19.56.1-.39.1.08.09-.28.1.08.1.47.09-.68.2.6.19-.44.19.56.1-.46.1.38.09-.38.19.16.1-.12.19.41.29-.7.2.76.19-.56.1.6.09-.83.1.86.19-.3.1.42.09-.74.1.32.1-.21.09.76.1-.67.19.41.1-.7.19.5.2,0,.09-.59.1,1,.1-.79.19.67L194,230l.1,0,.29.42.1-.7.09.66.1-.09.1.1L195,230l.1.62.09-.44.2.18h.09l.19.11.1-.31.39.64.09-.27.1-.63.19.39.29.1.1-.15.38.31.1-.13.1.12.09-.18.1.3.39-.65.09.79.2-.38.09.55.1-.08.19-.61.1.54.19-.25.1,0,.09.34.1-.64.19.47.1-.21.1.45.09-.15.1-.84.19.75.19-.13.1.31.1-.39.09.05.1.3.19-.48.2.5.29-.37.19.18.19-.39.19.8.1-.68.19.31h.1l.1.22.09-.33.2.1.09.35.1-.58.19.17.1-.5.19.79.1-.57.19.73.1-.72.09.25.1-.17.1.31.09-.05.39-.2.1.61.09-.63.1.34.1-.12.09.09.19-.38.2.76.09-.29.1.24.19-.62.1.11.1.55.09-.46.1.07.1-.1.09-.52.2.84.09-.45.19.5.1-.08.19-.44.1.48.1-.25.19.3.19,0,.1.08.19-.18.58.23.1-.71.19.67.1-.06.09-.22.2.17.09-.16.2.29.09-.25.1.27.1-.08.09-.27.1.09.09-.09.1.27.1-.42.09.58.1-.42.1.33.09-.53.2.64.09-.53.1.09.1.3.19-.27.19.42.1-.78.09.27.1-.28.1.76.09-.72.29.74.1-.25.1.47.09-.32.1.11.1-.11.09-.61.2.46h.09l.1-.28.19.58.19-.59.1.72.29-.49.1.07.09-.11.1.27.1-.32.19.44.19-.43.1.35.09-.07.29-.35.2.23.09-.16.29.61.1-.49.1.06.09-.16.1.3.1-.21.09.12.19-.13.2-.11.09.26.1,0h.1l.09-.14.1.22.1-.15.09.18.1-.24.1.37.19-.76.1.6.09,0,.1-.32.19.46.1-.37.19.35.1-.43.09.35.1-.21.1.32.48-.59.1.56.09-.39.1.71.19-.59.19.06.1-.16.1.31.09-.29.1-.66.1.3.09.75.1-.66.19.31.1-.37.19.81.1-.63.09.2.1-.12.1.41.19-.3.1.12.19-.25.19.15.1.15.19-.57.1.59.09-.42.29.27.1-.27.1.57.19-.22.1.19.09-.43.2.09.19-.25h.1l.09-.3.1.5.09-.25.2.25.09-.19.1-.22.1.5.09-.53.1.12.1-.46.09.75.1-.11h.1l.19-.62.19.28.1-.11.09.56.2-.91.09.27.2-.28H227l.09-.3.1.34.19-.58.2.1.09-.53.19.38.2-.4.09-.4.1.85.1-.07.19-.93.1.13.09-.09.1.41.1-.58.09.53.2-.58.09.05.1-.22.19.47.1-.29.09.58.1-1,.1.82.09-.45.1.13.29.79.1-.46.09.36.2-.14.09-.46.1.67.19-.94.1.91.09-.12.1-.5.1.54.19-.41.1,1.08.19-1.21.1.54.19-.19.1,0,.19.38.19-.1.1,0,.09.12.29-.29.2.67.09,0,.1-.47.19.42.1.12.19-.21.29-.19.19.54.1-.69.1,1,.19-.36.19.22.1.39.1-.27.19.15.1-.21.09.06.1.3.19-.27.19.18.1,0,.1.23.09-.6.2.71.09-.17.1.27.19-.24.1.1.1-.11.09.48.29-.47.1.42.09-.53.1.53.1-.17.09.3.1,0,.1-.76.09.85.1-.68.1.53.19-.41.1.33.09-.13.1.26.19-.28.19.59.1-.42.19.4.1-.42.29.23.1-.19.19.31.1-.21.09.58.19-.68.2.27.29.23.09-.6.2.81.09-.13.1-.41.1.68.19-.51.1.24.09-.41.1.42.19-.28.19.52.1-.53.1.35.09-.09.1-.33.1.06.09.27.1-.29.19.23h0" transform="translate(0 0)"/></g></g><g id="line2d_34" data-name="line2d 34"><g class="cls-5"><path class="cls-9" d="M23.44,170.38l.1,1.26.19-.87.09,1.23.1-1.06.1.38.09-.28.2,1.56.19-.64.1,0,.19-.32.1,1,.09-1.16.1,1.27.1-1,.19,1,.19.39.1.08.09.8L26,173l.09,1.11h.1l.1-.75.29.52.09-.69.1.46.1-.21.19,1.13.09-.2.1-.15.1.67.19-.42.1-.92.19,1.58.1-.72.09.73.1-.38.19,1.33.1-.05.1-.67.19,1.15.09-.9.1,0,.1-.75.09,1,.1-.09.1-.47.19.92.1-.55.19.8.1.26.09-.13.2-1.39.09,1.17.1-1.24.29,1.76.09-.55.1.24.1-.35.19.66.1.4.19-1.08.1,1.1.09-1.11.1,1.34.09-.65.1.76.1-1.23.09.8.1-.12.1.2.09-.2.1.12.1-.38.29,1.06.09-.11.2-1.34.09,1.69.1-1,.19,1.14.19-1.41.1.83.1-1.87L34,177.5l.2-.93.09,1.06.1-.51.19.26.2-.17.09.37.19-1.19.29,1.7.2-.85h.09l.2.63.09-.56.1.14.1.71.09-.88.1.59.19-1.18.1.91.09-.69.1.48.1-.86.09,1,.1-.66.19.55.1-.91.1,1.21.09-1.67.1,1.29.1-.89.19.87.38-1.48.1.91.1,0,.29-1,.09.39.1-.24.1-.88.09,1.6.2-1.09.09.2.2.67.09-1.79.1,1.34.29-1.5.29.8.09-.89.1,1.42.1-.42.09-1.59.2.51.09-1,.1,1.59.1-1.27.09,0,.1.7.09-.7.1.11.19.05.29-1.81.1.37.1-1.13.09.73.1-1.08.1.08.09.24.1-.08.1.07L43,171l.1.05.09.09.1-.09.19-1.18.1.59.1-.79.09.74.1-1.93.1,1.95.19-.75.1.11.19-.84.19.47.39-.85.09.17.2-1,.09-.28.1,2.07.19-2.15.1,1.23.1-1.59.09,1.59.1-1.08.1,1.5.09-.58.1.43.09-.21.1-1.13.1.13.09,1.2.1-.17.1.42.09-.75.1.74.1-1.24.19.66.1,1.92.19-.38.1.19.09-.16.1.25.09,1,.1-.05.1,0,.29,1.59.19-1,.1.61.09-.44.29,2.16.1-.76.1,2,.09-1.07.1.22.09.64.1-1,.19,1.47.1-.23.1,1.25.29-.83.09.79.1-.87.1,1.51.09-.34.2,1.84.09-1.51.1.21.19,1.25.1-1.21.09,1.42.2-1.12.29,2.06.09.08.1-.3.29.58.1-.32.19.66.09-1,.2,1.83.09-.51.1.26.1-.62.09,1.13.1-.5.19.83.1-.46.1.38.09-.1.2.47.09-.58.1.78.09,0,.1-.55.19,1.28.1-.07.1-.29.09.87.1-.57.1.11.09.34.2-.67.09,0L56,183l.09,1,.1,0,.1-.17.29.53.09-.66.2,1,.09-.32.1.47.1-1.22.09,1.76.1-1.69.1,1.18.09-.79.39.76.09-.22.2.47.09.08.1-.31.1.06.09-.1.2.67.09-.25.2-.79.09.88.1-.09.09.64.1-.06.1-1,.09.65.1-.52.39.49.09-.2.1.21.19.78.2-.74.19.16.09.38.1-.55.29.68.1-1.1.09.22.1.7.1-.25.09.16.1.4.19-1.17.1,1.29.19-.6.1-.11.19.71.1-.39.09.6.2-.83.19.6.1-.5.09.93.2-1,.29.84.19-1,.09,1.09.1-.63.1.13.09-.3.2.21.29.72.19-.58.1.36.09-1.07.1.32.1.8.09-.5.1.24.09,0,.29.25.1,0,.1.16.19-.48.19.58.1-.12.1-.35.09.29.1-.84.19,1.06.19-.18.1-.38.1.53.09-.06.2-.41.09.54.1-.38.1-.88.29,1.29.19-.94.19.74.19-.61.2,1.23.09-.8.1.34.1-.45.09.2.1-.21.1.12.09.52.1-.05.1-.67.09.55.2-.55.09.47.19-.51.1.62.1-.54.19.56.19-.73.1.44.1-.63.09.82.2-.61.09.46.1-.25.1.4.09-.67.1.63.09-.5.2.59.09-.55.1.37.1-.06.09.32.1-.79.1,1.22.09-.93.1.08.1.14.09-.4.1.3.19-.25.19.47.1-1,.1,0,.09.59.1-.24.1.32.09-.06.1-.08.1.52.09-.74.1.38.1-.19.09-.54.1,1,.19-.9.1.74.09-1,.1.2.1.78.19-.89.1.11.09-.12.1,1,.19-1.77.2,1.37.09-.47.1.46.19-.71.1,0,.09.16.1-.85.1,1.17.19-1.14.1,1.14.09-.81.1.63.19-.14h.1l.1-.54.09,1.08.1-1.19.09.37.1,0,.1.22.09-.78.1.52.1-.88.19,1.28.1-1,.19.66.1-.21.19-.7.1-.45.38.57.1,0,.09-.13.1.34.1-1,.29.85.09-.54.1.41.19-.41.1-.12.29.24.09.2.2-.7.09.9.29-1.49.1.38.1.93.19-.93.1.25.09-.33.1.25.1-.08.28-1.26.1.88.1-.58.09.77.49-1.58.09.55.2-.28.09.53.2-1.29.09.55.29-.57.1.6.19-1.29.1,1.84.19-1.31.1.34.38-1,.1-.38.19,1.13.19-1.09.1-.66.1,1.63.19-1.58.19.08.2,1.35.19-1.34.1.78.19-1.25.19,1.49.19-1.13.2,1.31.09-1.08.2.54.09-.72.2.37.09-.11.39.93.1-.53.09.18.19.67.1.18.1-1.35.19.75.1.18.09,1.15.2-1.32.09.34.1,1.07.1-1,.19,1,.1-1.06.19,1.15.09-.17.1.09.1-.09.09.14.2.71.09-.47.1.22.1-.24.38,1.37.29-.54.1.48.09-.71.1.23.19-.93.1,1.87.1-1,.09,1.41.2-1.41.09,1.16.1-.76.1.5.09-.09.2.76.09-1.16.1,1.11.09-.32.2.74.09-.19.2-1.06.09,1.8.2-1,.09-.35.1.46.19-1.2.29,1.64.1-.34.09.11.1.36.1-.14.09.16.1-.53.1.86.09-.81.2.77.19-.87.1.43.29-.4.19,1.13.19-1.15.1,1.37.09-1.42.1,1,.1-.51L99,186l.1-.17.1.17.19-.26h.1l.09.42.1-.76.1.63.19-.54.09.75.2-.82.09.21.1,1.21.19-1.47.29.87.1-.19.1.29.09-.29.1-1.46.19,1.71.1-.42.09,0,.1,0,.1-.54.29.79.09-.33.1,0,.1.81.09-.46.1.5.19-1.74.1.15.09,1.11.1-.91.19.68.1-.07.19-.41.1.71L104,186l.1.49.19-.49.19.45.19-.67.1-.12.19,1.17.29-1,.1-.23.1,1.21.19-1.19.1.22.09-.12.29.72.1-.73.09.76.1-.26.1.45.19-.69.1.15.09-.39.1.5.1-.27.09.45.1-.14.1-.4.09.6.1-.34.19.66.1-.4.09.11.1-.57.1.19.09.76.1-.82.1.1.09.32.2-.69.09.23.1-1,.1,1.32.09-.4.1,0,.1.48.09-.08.1-.36.09.55.1-.57.1,0,.19.61.1-.77.19.65.19-.13.1,0,.19-.08.1.31.19-.37.19.13.1-.36.1.85.09-.19.1-1,.19,1,.2-.37.19.24.29-.41.1.8.19-.85.09,1,.1-1.21.1,1.23.09-.29.1-.92.19,1.36.2-.53.09-.16.2.65.09-1.41.1,1.18.19-.86.1,1.3.09-1,.1,1.15.19-.86.1.24.19.33.1-.38.1.5.09-.73.1.42.1-.15.09-.48.1.9.1-.56.09.42.1-.17.19.4.1-.43.09.09.1-.19.29.68.1-.58.19,1.09.1-1,.09.15.1.59.19-.61.1.1.09-.17.1.52.1-.35.19.56.1-.25.19.41.1-.84.09.73.1-.23.1.09.19-.25.1.42.09-.34.1.17.09-.33.1.67.1-1,.38,1.19.1-.53.1.38.09-.33.2.17.09.45.1-.66.1.81.19-.85.19.46.19-.62.1.47.19-.36h.1l.1.2.19-.27.1.87h.19l.19-.83.19.75.1.18.19-.71.1.47.1-.92.09.46.1-.39.1,1.12.09-1.17.1.86.1-.34.19.29.1-.12.19.08.09-.4.1,1,.1-.75.09.63.1-.69.1.14.09.59.2-.54.19.57.19-.53.1.82.29-1.37.09.81.2-.39.09.28.1-.79.1.87.09-.1.1-.43.19.16.1-.4.1.45.19-.26.09,0,.2.33.29-.47.09.43.1-.48.1.25.09-.82.2.21.09.76.2-1.19.09.63.19-1.71.1,1.47.19-.63.1-.09.1.18.19-1,.1.32.09-.41.1.05.1.37.38-1.54.1.12.29-1.21.09.28.1-1,.1.26.09.6.49-1.17.09-.14.1-.72.1,1.59.09-1.24.1.07.09-.17.2.61.09-.65.2.42.09-.69.39,1.65.1-1.53.09,1.57.1-1.07.1.24.19.79.19.18.1-1,.09,1,.1-.55.1.06.09,1.28.2-.67.09.55.1-.07.19.39.1-.37.1.72.09-.46.1.53.19-.77.1,1,.09-.79.1.55.1,0,.09.47.1-.37.1.17.09-.19.1.85.1-.32.19.77.19-.58.1.52.09,0,.2-.43.09.59.2-.33.09.21.1-.27.1.39.09-.05.1-.28.29,1.19.1-1.2.09,1.07.1-.2.09.42.1-.22.1.76.09-.53.1-1.38.19,1,.1.11.1.47.09-1,.2.75.09-.08.1-.12.19.41.1.09.09-1,.2,1,.09.28.2-.74.09,0,.1-.1.1.35.09-.12.1.17.1-.42.09.24.1-.15.1,1,.09-.93.1.93.19-1,.1,0,.09.52.1-.06.1.48.09-.76.1.13.1-.19.09.48.1-.62.1.36.09-.3.1.52.19-.58.1,0,.09.33.1-.56.1.06.09.7.1-1,.1.81.09-.47.1.25.1.84.19-1,.1.42.19-.43.19.67.1-.19.09-.72.1.21.1-.36.09.44.1-.37.1.53.09-.42.1.42.1-.2.09-.7.1.65.1-.23.19.59.1,0,.28-.79.1.16.1.29.09,0,.1.06.1.4.19-.75.19.87.1-.45.1.29.09-.41.1.13.1.49.09-.33.1.75.19-1.08.1.36.09-.21.1.05.1.58.09-.11.1-.65.1.06.09,1.28.1-1.13.1,1,.09-1,.19,1.3.1-1.21.1.7.09-.42.1.72.1-.79.09.41.1-.3.1.77.09-.1.1.46.1-1.07.09.63.2-.57.19.88.09-.27.2.31.09-.44.2.12.09.64.2-.69.19.39.1-.19.19.09.19.5.1-.94.19.63.1-.23.19,1,.1-1,.19.52.1-.21.19-.53.19.85.1-.28.1.64.09-.37.1.13.19-.25.19.4.1-.48.29.9.1-.76.09.78.2-.6h.09l.1.57.1-.16.09-.38.1.76.09-.24.1-.55.19.64.29-.8.1-.14.29.81.1-.09.09.33.1-.05.19,0,.1.21.09-.05.1,0,.1-.59.19.63.19-.13.2.46.09-.75.1.38.1-.67.19.8.1-.61.19,1,.09-.47.2.22.09-.55.1.65.1-.4.09.23.1-.23.1.53.09-1.21.1.88.1-.28.09.32.2-.34.19.25.09.55.1-.38.1.2.09-.52.2.33.09-1,.1.82.1,0,.09.4.1-1.34.19,1.05.1-.93.1,1.11.09-.5.1.28.09-.43.1.6.1-.37.09.37.2-.58.09.92.1-1.17.19.79.1,0,.19.24.1-.4.1.35.09-.14.1.27.19-.61.1.44.09-.44.1.55.1-.73.09.34.1-.12.1.11.09-.08.1.58.19-.69L166,191l.1-.17.09-1,.29.67.1-1,.09.75.1-.81.29,1.21.1-1.05.09.71.1-.09.1-.16.09.11.2-.81.09.83.1-.1L168,190l.1-.25.19.51.2-.34.19-.66.1.66.09-.08.2.12.09-.39.1.7.1-.92.09.59.19-.25.29.21.2-.35.09.13.1-.53.19.36.1.56.29-.34.1.46.09-.8.1.11h.29l.09,0,.1.26.19-.37.2.9.19-1.19.1.62.09-.85.19,1,.1,0,.1.19.19-.62.1,0,.09.37.2-.09.29-.17.09.68.2-.5h.09l.19.3.2-.46.09.44.2-.84.09,1.18.2-1,.09.8.1-.51.29.59.1-.38.09.3.1-.39.09.69.29-1.14.29.88.2-.5.09.63.1,0,.1-.07.09-.62.2.41.09.13.1-.18.09.93.1-.29.1.36.09-.86.1.11.1.48.09-.67.1.19.1-.13.09.18.1-.08.1-.25.09.33.1-.13.1.46.19-.28.09.2.1-.47.1.72.19-.21.1.08.19-.08.1.09.09-.91.1,1.29.19-.59.1.32.1-.11.09.24.1-.29.09.26.2-.12.09.25.1-.5.1.27.09-.54.1.67.19-.41.1,0,.19.7.1.12.1-.49.09,0,.1.22.29-.59.19.79.1,0,.19-.66.29.69.1,0,.29-.69.09.91.19-.23.1-.06.1.44.09-.1.1-.56.29,1,.19-1.12.2.29.09,0,.1.21.1-.07.09.26.29-.67.19.87.2-.79.29,0,.09,1,.2-1.09.29,1.21.09-.6.1.43.29-.29.09-.1.1.5.19-.64.1.74.1-.29.09.17.2-.49.09-.16.2.17.09-.3.1.2.09.46.2-.45.09.16.1.11.1-.48.09.48.1-.08.1,0,.09.44.29-.52.2.34.09-.15.1.2.09-.41.1.67.1-.51.19.58.1-.64.09.19.1-.63.19,1,.1-.59.19.87.1-.59.1.57.28-.78.2.67.09-.35.1.1.19-.35.1.28.1-.26.29.63.09-.34.1.42.1-.82.09.52.1-.37.09.46.1-.53.1.12.09-.21.2.8.19-.41.1.31.09-.33.1.19.1-.05.09-.25.29.34.29-.43.1.51.19-.13.1-.67.19,1,.1-.23.09-.65.2.63.19-.4.19.73.29-.64.1.73.19-.59.1,0,.09.57.1-.72.1.67.29-.68.09.37.1-.73.19,1.11.1-.44.19.15.1-.12.09.37.1-.49.1.05h.19l.1.61.19-.3.1-.12.09-.32.29.31.1.06.09-.2.1.57.29-.51.1.27.09-.22.1.42.19-.55.1.1.29.06.09.4.1-.19.19.19.2-.51.09.47.1-.61.1.55.09-.13.1-.33.29.48.1.2.19-.7.19.49.1.2.09-.79.1.55.1-.08.19.13.1-.5.09.5.1-.52.19.66.1,0,.1-.56.28.71.1-.39.1.5.09-.82.1.15.1.39.29-.5.09.44.1-.4.1.27.09-.29.1.58.1-.62.09.54.1-.31.09.4.1-.33.1.2.09-.28.49.55.09-.37.1.12.1-.26.09.28.1-.25.1.33.09-.1.1-.43.19.76.1-.58.09.24.1-.12.1.25.19-.12.1,0,.29-.32.09,0,.1-.48.19.8.1-.26.09.38.1-.25.1.54.19-.65.1.52.09,0,.1-.66.1.48.19-.23.1.34.09-.17.1.12.1-.59.09.37.1-.33.09.31.2-.23.09.23.1-.07.19.11.1-.08.1.1.09-.25.2.39.29-.56.19.68.19-.13.19-.4.1,0,.1.78.09-1,.2.46.09-.36.1.49.1-.28.09.67.1-.58.1.31.19-.54.09.08.1-.16.19.43.29-.38.2.53.09-.5.2.45.09-.19.1.12.19-.16.1.16.09-.2.1.09.1-.22.09.58.2-.51.09.11.1-.27.1.16.09-.19.2.4.19-.32.1.45.19-.57.19.31.1,0,.09-.15.1.19.19-.09.1.33.1-.43.19.45.1-.43.19.31.19-.34.1.09.09.33.2-.59.09.09.1-.39.1.66.19-.1.19.27.2-.4.09.16.1-.13.09.26.2-.46.09-.17.2.21.09.36.1-.15.1.11.09-.46.1.31.1-.08.09-.37.2.16.09-.31.39.55.38-.78.2.38.09.08.2-.43.09.2.2-.66.09.63.1-.34.19.24.1-.49.09.24.1-.1.19-.51h.1l.1-.13.09.12.2-.66.09.11.1,0,.19-.61.1.67.19-1,.1.21.09-.26.1.47.1-.48.09.4.29-1.52.1.5.1-.34.09.14.1-.24.1.1.09.38.39-1.16.29,1,.09-.21.2-.34.09-.08.29,1,.1-.62.19.16.1.84.09-.63.1.29.1-.05.09.14.1.43.1-.53.09.34.1-.12.58.45.1-.39.09.23.1-.11.09.46.1-.59.19.65.1-.35.1.06.09.61.29-.88.1.27.1.77.09-.18.1-.86.1.73.09-.37.1.17.09.58.1-.54.19.42.1.71.19-1,.1.19.1.29.09.74.1-.3.1.17.09-.44.2.41.09,0,.1.1.09.57.2-.33.09.07.1-.12.29.55.1.34.19-.63.19.93.1-.09.19-.42.1.29.19-.21.19.51.29-.06.2-.25.09.44.1-.43.1.38.09-.35.1,0,.1.51.19-.3.09-.2.1.18.1.67.09-.51.29.24.1-.28.1.32.09-.44.1.52.1-.07.09.08.1-.24.1.17.09-.13.1.21.09-.37.1.37.1-.37.09.37.1-.06.19-.06.29.46.2-.43.09-.28.1.08.1-.11.19.6.09-.45.1.28.1-.32.09,0,.1-.1.1.35.09-.34.29.7.2-.45h.29l.09.33.1-.13.09.32.2-.7.09.45.1-.2.1.08.09-.29.1.13.1-.09.19.43.1-.12.09-.48h0" transform="translate(0 0)"/></g></g><g id="line2d_35" data-name="line2d 35"><g class="cls-5"><path class="cls-10" d="M23.44,124.34l.1-1.6.09.14.39-1.22.19,2.09.1-.81.09,1.31.29-2.09.1,1.26.1-.34.09,0,.1,1.49.1-.15.09-1.19.1.25.09-.76.29,2.43.29-1.67.1.93.1-1.41.19,1.9.1-.09.09.42.1-.85.1.48.09-.36.1,1.09.19-1.46.19,2.32.1-1.34.1.17.09-1.17.1.29.19,1,.1.4.1-.17.19.87.19-.67.19,1.58.29-1,.2.3.19.37.1,1.1.09-1.47.1.15.1.3.09,1.06.2-.72.09.33.1-.38.09,1.19.1-.82.19,1,.1-1.06.1.69.09-.12.1,1.34.1-1.45.29,1.57.09-.58.19.74.1-.9.1,1.34.19-.56.19.87h.29l.1.75.1-.54.09.47.1-.12.19,1.24.1-1.74.09,1.52.1,0,.19.54.1.13.1-.74.09,1,.1-.81.1,1.77.19-.65.1.09.09.8.1-1.47.19,1.6.1-1.19.19,1.47.1-1.83.29,2.89.19-.8.1,1.32.09-.27.1-.67.1.32.19-.88.1,1.63.09-1.49.1.87.09-.62.1.55.1-.65.19,1.36.19-1.15.1,1.59.19-1.27.2.69.09-.84.2.58.09-.33.29.52.19-1.61.1,1.36.1-.16L39,137l.19-2.12.1,1.7.19-1.71.1.84.1-.37.28.59.2-1.36h.19l.19-.36.1,1.33.19-1.35.1,0,.19-.25.1.21.1-1.17.09.79.19-1.45.1.79.1-.37.19,1,.29-2.76.1.7.09-.07.2-1.69.09,1.35.1-.22.29-2.41.09,1.22.2-.89.09,0,.1-.17.29-2.39.1.77.09,0,.1.61.1-1.82.09.25.1.16.1.45.09-2.55.1,1.56.09-1.39.2.73.09-1.09.1.82.1-1.15.09,2.11.1-1.78.1.54.19-1.76.19.93.1-.5.19,2.34.19-1.8.1-.79.1,1,.09-.5.1.7.1-.19.09,1.79.1-.58.87,6,.19-1.3.1,2.15.09-.86.1,1.93.1-.05.09.67.1-.5.29,2.82.1-.92.09.23.2,1.25.09-.52.19,2,.1-1.28.19,1.67.1.63.1-.21.09-.61.29,2.14.1-.18.19.87.1-.87.1,1.7.09-.57.1.5.09-.06.1-.24.1.75.09-.59.2,1.39.19-.63.1.17.09,1.5.2-1,.09,1,.1-.54.1.48.09-.43.19,1.08.2-.13.09.59.1-.15.1.76.09-.32.2.72.09-.18.2-1.07.19,1.14.1-.06.09.43.1-.37.09-1.07.1,1.25.1-.16.09.43.1,0,.19-.28.1.4.1-.27.09.79.1-.71.1.5.28-.7.1.76.1,0,.09-.17.1.74.19-.61.2.2.09.37.1-.87L57.2,148h.1l.1-.37.19.67.09-.1.2-.08.09-.07.1.71.19-.94.29.77.2-1,.09,1,.1-.3.19.39.1-.13.19-.75.1.86.09-.67.2.83.09-.62.1.1.1.83.09-.77.1,0,.1.65.09-.79.1.71.1-.32.09.15.1-.2.09-.49.1,1.11.19-.71.1.73.19-1.4.1,1.27.19-.75.1.45.29-.46.1.33.09.8.1,0,.29-.85.19.8.19-.56.1.48.1-.05.09.41.1-.92.1.77.19-.73.1-.16.09.21.1.51.09-.17.1.26.19-.43.1.14.1.83.09-.85.1.21.1-.19.09.1.2-.33.09.31.2-.4.09.48.1-.26.19.33.19-.26.1.39.1-.34.09.22.1-.43.1.4.09-.6.2.84.09,0,.1.46.1-.07.09-.14.1.17.09-.63.1.54.1-1.25.19.81.1-.35.19.25.1.54.19-.87.1.22L69,149l.1.67.09-.46.2.16.09-.05.1.65.19-.82.2.56.09-.16.1-.51.1.05.09.06.1-.08.1.71.09-.17.1.07.09-.78.1.89.1-.11.09-.32.1.47.19-.5.2-.2.09-.76.1,1.63.39-1.26.09,1,.1-.15.09,0,.1-.39.1.31.09-1.06.1.56.1-.65.09.8.1-.59.1.56.19-.52.19,1,.1-.47.1.28.09-.48.1,0,.09.15.1-.26.1.94.09-1.27.1,1.05.1-.9.09.06.2.6.09-.66.1.6.19-.65.1.33.19-.16.1.08.09-.34.1.51.1-.51.09.08.1-.19.19.79.39-.76.1.38.09-.72.1.5.1,0,.19.55.19-.95.1.25.19-.32.1-.1.09.77.1-.15.1.58.29-1.05.09.25.1-.29.19.29.1-.3.09.34.1,0,.1,0,.09-.31.2.11.09-.18.1.55.1-1,.19.58.1.2.19-.92.09.65.1-.46.1,1,.38-2,.1,1.46.1-.17.09-.68.1.27.1-.4.09.47.1-.64.1.13.09-.4.1,1.37.09-1.42.2.88.09-.06.39-1.31.1.44.09-.55.1,1.65.19-1.55.1-.43.1,1.06.09-.33.1-.76.09.16.1.6.19-2.06.2,1,.09-.26.2.42.09-.35.2.32.09-.67.1.39.1-.34.09-.81.19.84.2-.87.19.11h.1l.38-1.27.2,1.21.09-1.17.1,1.13.19-.5.1-1.19.09,1.06.2-1,.09.34.1,0,.1-.47.09.9.1-1.34.19,1.2.1-.84.1.75.09-.61.2.71.09-1,.1.59.09-.83.1.7.19-.49.2,1.14.19-1.07.1.81.09-.42.1,0,.1,0,.29,1.17.09-1.07.1,1.84.09-1.43.2.92.09-.45.1.36.1,1.05.09-.4.1.14.1.39.09-.75.2.49.09-.49.1.7.1-.19.19,1.37.09-.26.1-.53.1.13.09.49.1,0,.1-.39.09.59.1-.33.1.2.09.86.1-.71L93,147l.2-1.05.19,1.5.09-.78.2.7.29-.32.19.7.19-.3.1.25.1-.08.09-.32.2,1.28.09-.56.1.77.09-.69.1.25.19-.39.1.27.1-.26.09.38.1-.08L96,149l.1-.37.19.08.1-.75.19.7.1.05.09-.12.1.5.1-.71.09.49.1-.42.1.81.09-.5.1.12.1-.13.19.74.1-.56.09,0,.2-.75.09,1,.19-.65.1.84.1-.63.09.17.29,1,.2-1.14.09,1,.1-.8.19.41.29-.66.19,1,.1-.77.19.25.1,0,.19-.5.1-.11L101,150l.1-.54.29.44.09-.49.1.7.09-1.15.1.77.1-.24.09.12.2-.29.09.34.1-.2.1.18.19-.85.19,1.48L103,149l.29.8.1-.86.19.58.1.11.19.51.1-.2.1.42.09-.1.1-.93.1.92.19-.62.09-.74.1.86.1-.46.38,1.26.39-1.12.1,0,.09.62.1-.56.1.07.19.88.19-.85.1.76.09-.41.2.22.09-.09.1-.26.19.8.2-1,.19.39.1.27.19-.36.09.46.1-.81.19.92.1-.14.1-.93.09.83.29-1,.1.78h.1l.09-.15.1.67.1-.9.19.59.09.08.1-.12.19.21.1-.7.39.8.09-.26.1.38.29-.39H111l.1-.11.09.36.2-.69.09.83.1-.41.1.48.09-.49.1.2.1.48.09-.53.1.11.1-.18.09.34.1-.89.1,0,.19.91.09-.05.1-.33.1.51.09-.33.1,0,.19-.37.2.81.09-.65.1.45.1-.07L114,150l.2.71.09.05.1-.84.09.21.1,1,.1-.55.09.88.2-1,.09,1.07.2-1.26.19.56.19-.41.1.23.1-.15.19.52.09-.37.1.35.1-.62.09.75.1,0,.1-.13.09-.38.2.65.19-.92.19,1.15.1-.7.19.53.1.36.19-1.42.1.87.09-.49.1.57.1-.51.09.68.2-.38.09.75.1-.54.1,0,.09.42.1-.8.1.11.09.15.1-.3.09.64.49-.6.19,1.1.19-.68.1.13.1-.11.09-.77.1,1.25.19-1.07.1.8.09-.63.1.34.1.78.09-.82.1.56.1-.71.09.6.1-.51.1.05.09.67.1-.34.19.38.1-.68.19.83.1-1.12.09.69.1-.68.1,0,.19,1.21.1-.95.09.5.2-1.34.09,1,.1-.09.1.5.29-.65.19.45.09-.48.1.25.1-.68.09.75.1-.28.1,0h.09l.1-.84.29.7.1-.12.09.37.1,0,.19-.4.1.15.09-.56.2.69.09-.44.1.1.19-.49.1.38.19-.81.2.67.09-1,.1.69.09-.92.1,1,.19-1.38.1.52.1-.41.09.89.1-1.06.1.08.09-.09.1.12.19-1.21.29.64L129,147l.1,0,.1.54.09-1.45.1.16.1-.53.09.57.1-.58.1.37.19-1.12.1.07.09.51.2-1.55.09.31.1-.06.09-.47.1.46.1-1.23.09.21.1.95.1-.13.19-1.33.1.46.09-.64.1.15.29-1.78.1,1,.09-.28.1.71.38-1.33.2,1.16.19-.33.1-.38.09.59.1,0,.1-.08.09.75.29-1.08.1,0,.19,1.15.29,1.12.1-.7.19,1.76.1-1.8.09.6.2-.63.19,1,.1-.49.19.9.09-.13.1.25.19-.43.49,1,.09-.07.1-.15.1-.67.38,1.7.29-1.13.1.88.19-2.05.19,1.77.1.12.1-.57.09,1.12.1-.1.1-.41.19.38.1-1,.09,1.08.1-.05.09.13.1-.28.1-.64.09.41.2,1.08.09.27.2-1,.09-.28.1.63.1-.49.09,1.27.1-1.49.1,1.16.09-.07.1-.8.09.12.1.71.1-.05.09-.08.1.34.1-.11.09-.79.1.28.19-1,.2,1.09.09-.81.1,1.27.1,0,.09-.49.29.86.19-.69.1,1,.1-1.13.09.72.1,0,.1-.81.09,1.14.1-.09.19-.32.2.38.19-.72.09,0,.1-.61.1,1,.09-1,.29,1.23.1,0,.1-.66.09.58.2-.48.09.57.1-.74.19.54.1.22.09-.28.2.59.09-.54.1.67.1-.25.09-.91.2.91.09-.08.1-.46.39.78.09,0,.1-1.13.09,1.47.1-.74.1.25.19-.46.19,1,.1-.2.1-.72.19,1,.1-.73.09.23.1.78.19-1.39.1.88.09,0,.2-.87.19.88.1-.34.09,1.15.2-.48.09.34.1-.24.1.32.09-.17.1.23.09-.25.1.06.19.63.1-.77.29.66.1-.77.09.68.1-.59.19.72.2-.41.19,1.2.09-1,.1.12.1-.14.19.54.1.05.09-.82.1,1.49.1-1.22.09.85.1-.34.19.38.2-.3.09.24.19-.7.29.79.1-.19.1.12L154,149l.1.65.09-.32.1.25.19-.38.1-.07.19.49.1.37.19-.33.19.39.2-.31.09-.05.2.59.09-.26.2.06.09-.21.2.7.19-.49.09.2.2-.21.19,0,.1.38.09-.25.1.28.1-1.07.09,1.36.1-.48.1.16.09-.43.1.39.1-.59.28.68.1-.56.1,1.05h.09l.1-.82.1.44.19-.7.19.55.1.12.1-.47.19.71.1-.73.09,0,.19.38.1-.27.1.85.09-.76.1.05.19.37.1-.3.1.22.09.54.1-1.21.1.95.19-.24.1-.79.09.4.1-.12.09.45.2-.4.09.08.1-.41.1.15.09-.84.1,1,.19-.85.1.48.1-.25.09.35.1-.71.1.55.09-.32.19.71.1-.75.1.9.09-.13.1.05.19.19.1-.21.1.25.09-.75.1.94.1-.34.29.73.09-.85.1.63.09-.43.1,0,.1.61.09-.11.1.27.1-.67.19.88.1-1,.19,1.15.1-.71.19.4.19-.46.1.82.09-.74.1.38.1-.52.09.59.1-.82.19,1.31.2-1.23.09.27.1-.06.19,0,.2.33.09-.48.19.86.2.29.09-.71.1.23.1-.39.09.05.2,0,.09,0,.1.24.1-.58.09.29.1-.14.1.55.09-.08.19-1.12.2,1.36.09-.67.2.54.09-.75.1.6.1-.16.09-.44.2.39.09,0,.29.74.1-1.31.19.92.1,0,.09-.4.1.77.19-.66.1.12.1-.18.09.6.29-.69.1.52.19-.21.1.44.19-.58.1.37.19-.15.1.62.09-.25.1-1,.19,1.18.1-.82.1.82.38-.62.19.67.1-.56.19.09.1-.12.1.13.09-.38.1.75.19-.67.1.21.1-.05.09-.23.19,1.24.1-.8.1.64.09-.09.1-.58.19.58.1-.24.19.5.2,0,.09-.25.1,0,.19.25.1-.22.19.69.1-.46.09.23.1-.45.1.38.09-.63.2.81.19-.65.1.14.09.37.2-.59.09.52.1-.46.09.67.2-.68.09.14.2.79.19-.63.1.48.09-.18.1.24.1-.27.09.78.2-.6.09.24.1-.73.09.13.2.6.09-.29.1.37.19-.41.1.35.1-.26.09.18.2-.46.19.61.19-.55.1.29.09-.46.2.82.19-.52.1.38.09-.16.1.32.1-.38.09,0,.1.23.1.62.19-1,.19.76.1-.34.09.05.2.36.09-.86.1.92.1-.46.09.16.2-.41.19.51.19-.21.29.32.1-.47.09.17.1.47.1-.32.09.28.1-.49.1.25.19-.13.1-.66.19.89.1,0,.09-.35.1.06.19.69.1-.63.09.37.2-.24.09.49.2-.5.29.47.09-.48.1.69.1-.09.19-.56.1.88.09-.7.1.08.19.24.1-.08.09-.59.1.55.1-.17.09.12.1-.54.1.89.09-.76.1.27.1-.17.09.32.1-.08.1.07.19-.65.09.66.1-.05.1,0,.19.29.19-.42.1.32.1-.25.19.12.19-.34.1.07.1.43.09-.07.1,0,.19-.17.1.05.09-.3.1.51.19-.23.1.11.1-.32.09.32.2-.14.09.32.2-.23.09.24.29-.36.19.15.1.58.1-.69.09.53.29-.43.2.44.09-.56.2.37.09-.18.19.66.2-.54.09,0,.1.18.19-.22.1.26.1-.51.29.52.28-.73.1.1.1.46.09-.12.1.17.19-.34.1.38L198,154l.1.13.29-.27.09,0,.1.18.19-.25.19.32.1,0,.1.18.09-.44.1.68.19-.78.1.61.1-.51.09,0,.39.36.09-.08.1.07.1-.16.19.15.19-.28.2.41.09-.7.2.59.09-.26.1.24.1-.06.09,0,.19-.25.1.73.1-.15.09-.58.1.33.1-.27.09.08.1.25.1-.14.09.12.2-.26.09.46.2-.68.09.65.1-.34.09.4.2-.4.09.66.29-.57.1.28.1-.07.09.25.1-.33.1.2.09-.12.1-.31.1.45.19-.48.09.16.1-.41.19.51.1.29.1-.51.09.24.2,0,.09.34.1-.6.1,0,.09-.12.29.94.1-.61.19.28.1-.61.09.5.1-.29.29.48.1-.52.09.3.1-.34.1.89.19-.75.19.12.1-.08.09.21.2-.23.09.35.2-.35.09.36.1-.44.19.33.1-.14.1.08.09.27.2-.9.09.86.1-.49.09.32.2-.35.09.31.1-.52.1.75.29-.47.19.3.1-.42.09.4.2-.37.19.75.09-.79h.1l.29.44.1-.31.09.27.1-.15.19.16.1.46.1-.18.09-.64.1.24.1-.12.19.44.19-.62.19.2h.1l.1.46.09-.49.2.41.09-.82.2.25.09-.06.1.31.1-.34.09.83.19-.75.2.4.19-.58.29.9.1-.72.19.4.1-.12.09-.37.1.34.1-.12.09.21.19-.25.29.32.1-.4.19.21.2-.36.09.9.2-.68.09.49.2-.71.09.43.1-.49.09.16.1-.39.1.58.09-.07.1-.41.1.31.09-.45.29.56.1-.55.1.8.29-.9.19.51.09-.17.1-.07.1-.34.09.5.1-.18.1-.53.09.42.1-.18.19.19.29-.5.1-.1.09.51.1,0,.1-.55.19.47.19-.89.1,0,.19.43.1-.79.19.68.1-.84.1,0,.09.06.19-.88.1.57.19-.32.1-1,.19.89.2-.72.09,0,.1-.42.19.56.1-1.27.1.41.19-.23.09-.48.1.23.19-.46.1,1.08.1-1.75.09.4.29-.69.2-.31.09.38.2-.22.09-1,.19.91.1-.81.1.1.09.3.2-.4.09.46.1-.35.1.06.09.56.2-.44.09.51.1-.55.19.69.1-.62.09.91.1-.23.1-.81.19,1.59.1-.08.19.65h.1l.09-.13.1.51.1-.62.09.06.1.89.1-.12.09-.74.1.73.09-.34.39.61.19-.31.39,1.18.29-1.23.19,1.31.19-.67.2-.21.09.91.2-.78.19.59.19-.13.2.71.09-.07.2.25.09-.48.19.55.1-.54.19,1.17.1-.55.19.59.1-.18.1.18.19-.3.19.38.1-.08.1.43.09-.17.39.66.09.11.1-.38.29.49.1-.18.09.18.2-.18.09.2.1.64.1-.66.09.07.1.42.09-.24.1.48.29-.44.1.24.09-.13.1.2.19-.44.2.45.09.08.1-.2.1.24.09-.09.1.21.09-.31.1.48.1-.17.09.06.2-.3.19.12.1-.19.09.44.1-.36.1.19.09-.24.1.54.1-.19.09.2.1-.18.09.38.2-.46.09.41.1-.48.1.57.19-.42.1,0,.29.32.09-.4.2.52.38-.22.1.3.38-.21.1-.34.19.38.1-.17.1.16.19-.2.19.38.19-.31.2-.36.29.5h.19l.1-.23.19.4.1-.15.09.13h0" transform="translate(0 0)"/></g></g><g id="line2d_36" data-name="line2d 36"><g class="cls-5"><path class="cls-11" d="M23.44,98l.1.28.09-.56.19,1.43.1-.42.19,1.38.1-1.1.1.75.09-.88.1.18.19,1.08.1-1,.1.37.09,1.1.1-.65.19.31.1-.71.19,1.67.1-.38.09.09.1-.25.1,0,.09,1.26.2-1.4.09.76.2-.42.38,1.39.19-1.1.1,1.38.19-2.5.1,1.62.1,0,.09-.11.2.87.09-.12.1.14.1.45.29-.34.09-.72.29,1.3.1-1.65.09,1.65.2-1,.09,1,.1-1.51.1,1.37.19-.85.1,1,.09-.13.1-.28.1-.77.09.76.1-.07.09.21.29-.63.1-.25.1.62.09-1.84.1.72L31.35,99l.29,2.58.09,1.55.1-.3.1,1.09.09-.38.1.47.19-.38.2,1.12.09-.62.1.22.1-.64.09,1,.1-.8.1.46.09-.17.19.83.1-.52.1.57.09-.41.2.42.09-.84.29.62.1-.73.1.49.09-.14.1.1.19-.3.19,1.21.29-1.67.2,1.6.09-1.77.29,1.83L36,104l.1,1.38.19-.88.1.41.09-1,.19,1.29.1-.48.1.07.09.08.2-.16.09.79.2-1.24.09,0,.1.74.1-.67.09.85.1-1.52.1.92.09-.06.19-.62.1.19.19-.36.1.07.1,0,.09.69.1-1.17.29,1.18.19-1,.1.31.1-1.2.09.88.1-.8.09.5L40,103l.1-.72.09,1.22.1-1.27.1.69.19-1.1.1-.29.09.65.1-.64.19.92.2-1.53.09.86.1-1.11.09.68.1-.55.1.47.29-1.26.29-2.21.09-.13.1.1.39,3.23L43,99.26l.1.86L43.21,99l.2.78.09-.12.1-.8.1.65.09-.92.1.11H44l.09,1.47.29-1.88.1.26.1,1.12.09-1.17.1.24.09-.66.1.3.19-.88.1.77.1-.77.09.21.1-.34.1,1.42.09-1.41.1,1.1.19-.71.2-1.2.19,1,.09-.61.1.79.1-.06.09-.45.1.2.1.93.09-.79.1.57.1-.49.09.13.1.45.1-.29.09.17.2,1,.09-2.26.19,2.64.1-1.33.19,1.59.2-.68.09,1.38.1-.53.1.37.09-.58.2,1.13.09-.52.2.94.09,0,.1-.15.29.95.19-1,.39.39.19-.2h.19l.2,1.72.38,1.29.1,0,.09,1,.1-.52.39.79.09-.51.1.42.1.92.09-1.09.1.49.1,1.13.09-1,.1.46.09-.42.2,1.29.09-.83.1.2.1,1,.09-.49.1.41.19-.57.29,1,.2-.75.19,1.49.09-.44.1.42.1-.69.09.81.2-.43.19.54.1-.48.09.63.2-.38.28,1,.1-1.26.19,1.36.1-.14.1-.36.09.39.1-.08.19-.5.1.32.1.73.09-.35.1.89.1-.8.09.83.1-1.5.19,1.21.1-.79.09.87.1,0,.1-.56.09.88.1-.78.1.74.09-.38.1.05.1.26.09-.5.29.5.1-.42.19.55.1-.61.09.43.1-.7.29.92.1-.69.09.75.1-.41.29.5.1-.34.19.75.09-1.19.2,1.08.09-.43.1.13.19-.49.2.41.09-.11.1.08.19.49.1-.14.1-.66.19,1,.19-.66.29.41.1-.14.09-.82.1,1.16.1-.06.19-1,.1.57.29-1.09.09-.4.1.11.19.84.1-.8.29,1.63.09-.27.2.41.09-.42.2.42.09-.38.1.62.19-.44.1,0,.09.14.1-.5.1.9.19-1.25.19,1.25.1-.52.1,0,.09-.13.1.45L67,111l.09.44.1-.82.19.82.1-.25.09.08.1.43.1-.8.09.1.1.28.1-.07.09-.34.1.29.1.71.09-.76.2.48.09-.67.1.21.19-.36.1.29.29-.44.09.41.1-.11.1.35.19-.75.1.19.19-.32.1.26.19-.91.19.83.1-.29.09-.79.1.13.1.46.19-.4h.1l.09-1,.1.09.39-3L72,106l.29-3.68.29-5.68.39-7.78.09.45.2-1.09.09-.25.1.75.29-5.29.19-4.85.19,7.15.29,15.77.29,5.87.1,0,.19,1.11.2.13.09,1.25.2-.62.09.12.1-.69.09.77.1-.4.19,1.16.1-.07.39-1.36.09.61.1-.27.1.5.19-.27.1-1,.09,1.73.1-.17.09-1.7.1,1.27.19-1.16.1.85.1-.31.09.05.39,0,.38-1.78.1-.28.39-8.65.38-17.38.1.86,1,23,.1.39.19,1.65.1-.16.19.71.39,1.7.1-1,.09.44.1-.1.19.73.1-.5.09,0,.2.22.09-.08.1.12.1-.3.09.66.29-1.13.1.81.29-1.08.09.17.1-.21.1.61.09-.37.1.88.1-1,.09.07.1-.06.1-.34.09-.94.1.77.1-.64.09.8.29-.74.19,1.21.1.15.1-1,.09.76.2-.54.09-.1.1-.37.1.49.09-1.33.2,1.14.09.35.1-.66.19.24.1-.43.09.2.1.5L87.3,106l.1.11.09-.29.2.5.09-.16.1.66.1-.78.19.62.1-1.47.09,1.19.48-1.35.1.43.19-.2.1,0,.29-.76.19.07.1,0,.1.21.09.92.1-1.63.09,0,.1,1.67.1-1.43.09.1.1-.34.1.2.09-.14.1.81.1,0,.19-1.21.1,1.23.09-1,.1,1.73.1-1.32.09.08.1.22.09.82.1-.82.1.66.09-.51.1.31.1-.25.09,1.36.1-1.33.1.29.09-.18.1.14.1,1,.19-2.85.19,1.39.19-.22.2,2.19.19-.59.19,2,.1-1.09.1.74.09-.23.1.75.1-.29.09.2.1-.29.1,0,.19.5.09.2.1.51.19-.75.1,1.55.1-1.64.19,1.08.19.11.1-.06.1-.36.09.11.1.88.19-1,.19,1,.1-.47.1.81L97,110l.1.46.1-.09.09-.33.1.13.1-.67.09,1.6.2-.88.09.28.1-.37.19.55.1,0,.09.29.1-.65.19,1.24.1-1,.1.27.19-.59.29,1.2.39-1,.09.55.1-.46.19.62.19-1,.1.42.1-.16.09.24.1-.11.19-.31h.1l.1.54.09-.76.2,1,.09-.56.1.32.09-.26.1.55.1-.46.19.5.19-.25.1.51.1-.45.09.37.2-.84.09-.28.1.86.09-.63.2.63.09-.28.1.4.29-.86.1.48.29-.83.09.1.29-1,.19-1.37.1,1,.1-.7.19,1.93.1,0,.09.44.1-.16.1-.61.09,0,.1,1,.19-1.52.1.72.19-.35.19-.26.2-.94.09-1.23.1.76.1-1.74.09.21.1.21.1-.92.09.79.2-.68.09.22.29,1.91.39,2.86.09-1.35.2,1.46.19-.76.1.85.09-1,.2.83.19-.17.1.42.09-.13.1.23.29-.67.19.82.1-.63.09.72.1-.17.1-.41.09.53.1-.07.1.15.09-.4.1.59.1-.44.09.14.1-.12.19.61.19.31.1-.52.1.64.09-.68.1.46.1-.19.09.28.1-.08.1-.29.09-.64.29.93.1-.49.09.48.1-.79.19.83.1.06.1-.69.09.51.1-.26.19.27.2,0,.19-.56.1.26.09,0h.1l.09-.61.1.28.39-2.69.09.54.1-.19.29,3,.1.22.09-.66.2,1.16.09-1.29.39,1.27.09-.65.2.12.19.56.1-.09.09.83.2-.91.09.23.1-.07.19.28.19-.45.1.29.1-.38.09.41.2-1.27.19,1.35.1-.83.09.18.2.76.19-.42.1.24.09-.12.1.68.19-1,.1,1.55.09-.79.1.68.19-.78.1-.45.29,1,.19-1.3.1,1.45.29-1,.19.78.19.17.1-.1.19-.47.1-.08.1.16.09.7.2-.67.19.51.1-.09.19.08.09.31.1-1,.1.91.29-.54.09.56.2-.25.09.46.1-.63.19.58.1-.12.1-.68.09.31.1-.32.09.34.2-.58.19.28.1-.15.09-.66.2,1.24.09.25.1-.55.1.1.19-.48.09.93.1-.08.1-.43.19.38.19-.88.1,0,.1-.08.09-.25.2.93L127,113h.1l.09.38.1-.25.09.84.1-.5.19.55.1-.77.1.12.19.4.1-.14.19-.21.29.91.1-1.48.19,1.15.09-.46.1.56.1-.73.09.15.1-.65.1.25.29-.9.19.45.1-.09.09-1.19.1.9.29-3.24.09.14.1.78.1-.21.09-.92.1.79.1-.1.09-.29.2-1,.09.71.1-.23.1-1.23.09.08.1.43.19-1.54.1.26.09.85.2-1,.09.73.1-.35.1.15.09-.38.1.51.1-.22.19,0,.19,1.83.1-1.08.1.78.09-.82.1.29.09-.13.1.18.1,1.14.09-.35.1.25.1-.51.09.09.1.57.1-.33.09,1,.1-.16.1.14.09-.25.2.59h.19l.09-.84.2,1.14.09.22.1-.22.1.72.09,0,.2-.44.09.48.1-.42.1,0,.09.25.1-.17.1.47.09-.21.19.41.1-.75.19.89.1-.41.19.53.1.05.1.75L138,112l.1,0,.19-.42.2.65.09-.37.19.48.29-.31.1.25.1,0,.09.09.1.32.1-.71.19.84.1-.17.09,1.17.29-.92.1.06.09.66.1-.87.19.75.2-.34.09.43.1-.81.1.26.09.88.1-.51.1.51.19-.92.1.42.09-.67.1.73.09-1,.1.67.1-.7.09.61.2-.79.09.7.1-.77.1.32.09-.12.1,1,.19-1.5.39.87.09-.59.1.25L144,112l.1.81.1-.71.19.16h.1l.09-1.07.1.49.1-.25.09.37.1-1,.1,1.07.09-.42.1.41.19-.14.19.52.1-.38.19.47.1-.26.1.32.09-.31.1.41.1-.07.09-.6.1,1,.1-1.36.09.79.1-.26.09.05.1.15.19-.27.1.11.19-.12.1.7.1-.49.09.2.1-.57.1.24.09-.7.29.69.1-.27.09.4.1,0,.1.09.09-.1.1.1.1-.41.29.33.09-.59.2.61.09-.58.19.79.1-.33.1-.76.09.24.1-.11.1.65.19-.84.29.49.1-.11.09.32.1-.21.1-.51.38.68.39-1.2.19.2.29-1.26.1.59.29-2.13.09.18.1-.48.38-5.26.39-3.6.1.5.09-1.47.29,4.56.1.86.29,4.4.48,3.79.1.1.29,1.06.09-.13.1.6.1-.14.09-.45.1,1,.1-.5.19.24.19.18.1.35.09-.52.1.11.19,1.14.1-.38.1-1,.09.24.2-.34.19.68.1.11.19.76.09-.92.1.08.1-.2.09.41.1-.66.19.37.1.5.1-.32.19.92.1-.6.09.34.2-.23.09.88.19-1.61.1.37.1.89.09-.86.1.76.1-.22.09.48.1-.48.19.46.1-.4.1.87.09-.46.1.13.1-.43.09.61.1-.36.09.21.1-.23.1-.58.19.91.19-.18.1.06.1-.19.09.06.1.21.1-.08.29.4.09-.58.1.18.09-.19.1.27.19-.56h.1l.19.85.2-.56.19.08.19.35.2-.68.09.53.1-.28.09.3.1-.71.1.86.19-.69.19.07.2.33.09-.08.1.08.1.51.19-1.09.29.67.09-.22.2.25.09-.57.1.71.1-.45.09.16.1-.55.1.25.09-.36.2.52.09-.41.1.84.1-.75.09.72.19-.21.2,0,.09-.69.1.9.1-.7.09.46.1-.71.19.64.1.25.1-.3.09.23.39-.64.09.31.2-.34.29.21.09-.24.2.45.19-.32.1,0,.19-.33.1.17.09-.18.1.13.09-.55.1.39.19-.25.1.58.19-.85.1-.56.1.88.09-.4.1.47.1-.8.19.72.09-.41.1.23.1-.77.09.14.1.46.1-.12.09.51.2-.45.19-.09.1.13.09-.39.1.35.1-.35.19.63.09-.37.1.38.1-.35.09.41.1-.69.39,1,.09-.48.1.35.1,0,.09.1.2-.19.09.13.1-.77.19,1.1.39-.41.09.48.1-.4.1.81.19-1.06.1.91.09-.85.29.61.1-.57.09.32.1-.17.1.25.09-.12.1-.34.1.24.09-.08.1-.56.29.94.1-.73.09.46.1,0,.1-.07.09-.34.1.78.09-.11.1-.5.19,1.25.1-.54.1.23.09-.6.1.6.19-.38.1.43.1-.26.19.25.1-.15.09.12.1-.32.09.44.1-.53.1.63.09-.48.1.06.1.73.19-.87.1.1.09,1,.1-.74.1.06.29.48.09.48.19-1.1.1.4.1-.13.09.43.1-.49.19.4.2-.62.09.55.1-.29.1.46.09-.76.29,1.17.1-.79.09.59.1-.86.19.31h.1l.19-.17.2.13.09-.2.1.44.1-.17.19.6.1-.57.09.1.19-.17.2.93.09-1.05.2.44.09-.38.2.58.19-.52.1.54.09-.6.1.38.1-.15.09.34.1-.17.09.14.2-.43.19.42.1-.4.29.5.09-.59.1.46.1-.35.29.81.19-.75.09.69.1-.2.1.13.09-.31.1.26.1-.28.09.69.2-.57.19.26.1-.26.09.58.1-.12.19-.58.1-.08.09.6.1-.54.1.09.09.26.1-.14.1-.48.09.57.1-.3.1.42.09-.27.1.14.1-.25.09.55.1-.58.1.45.19-.37.09.08.1.25.19-.37.1.12.1.43.09-.31.1.1.19-.26.1-.16.1.63.19-.52.1-.21.09.1.1-.14.19.8.19-.45.2.2.09-.19.2.31.09,0,.1-.43.1.27.09-.38.1.29.19-.58.19.41.1.33.1-.62.09.23.1-.25.1.09.09.33.29-.63.1-.15.19.47.1,0,.09.33.1-.31.1.11.19-.53.1.19.09-.06.1.08.19-.78.2.39.09-.33.2.2.09-.07.1.19.19-.44.1.13.09.37.1-.73.1.06.09-.45.1.23.1-.62.09.14.1-.89.1.07.09-.37.1-1.43.1.26.38-.55.1.15.09,1.29.1-.12.19.45.49,2,.09.69.1-.2.1.08.09.48.1-.11.09.18.2.61.09-.12.2-.38.09.32.1-.19.1.48.38-.81.1.24.1.44.09-.25.1.12.09-.12.2.5.29-.43.09.1.29.5.1-.35.1.12.09-.08.1.1.1-.62.09.83.1,0,.09-.27.1.56.1-.83.09.54.1-.57.1.59.09-.31.1.67.1-.42.19.17.1.52.19-.71.1.24.09-.37.1.54.19-.33.1-.06.09.6.1-.42.1.15.09-.18.1.64.19-.54.1.3.1-.24.09.23.1-.54.1.22.09-.41.1.58.09-.76.1.68.1-.23.09.31.1-.38.1,0,.09.47.2-1,.09.66.1-.34.29.15.1-.08.09-.44.1.44.19-.15.68.21.09-.24.2.85.09-.47.1.08.29,0,.19-.19.19.17.1-.17.1.14.09.32.29-.36.1.53.1-.49.09.52.2-.63.19.32.09-.1.1.44.1-.53.09.4.1-.4.19.23.2-.44.09.37.1-.32.1.07.09.66.2-.94.28.42.2-.38.19.19.1-.11.09-.3.2.6.09-.65.1,0,.1,0,.09-.41.2.46.09-.45.19.51.1-.26.1.3.19-.17.29.81.1-.06.09-.31.39.63.29-.44.09.39.2-.62.09.3.1-.16.19.58.1-.26.1-.59.09.6.1-.06.1-.36.19.37.1-.55.09.38.1,0,.09-.07.1-.76.1.51.19-.17.19.33.1,0,.1-.45.09.56.1-.24.1.5.09-1,.1.79.09,0,.1-.45.1.06.48-.23.19.44.1-.73.1.6.29-.42.09-.11.1.63.09,0,.1-.32.1.37.19-.13.1-.36.38.58.1-.21.1.36.19-.21.1-.17.19.65.09-.46.1.46.1,0,.09-.36.1.23.1-.23.09.52.1-.44.1.13.19-.15.1.09.09-.41.2.5.09-.71.1.25.09.62.2-.53.29-.45.19.2.39-.83.09.38.2-.42.19-1.19.09.29.2-.82.19-.1.19-.87.1.26.1-.21.09-.52.1.4.1-.25.09.48.1-.06.1-.09.09.34.1-.43.09.14.2,1.56h.09l.1-.45.1,1.15.29-.5.29.81.09-.51.1.67.1,0,.09-.07.1.19.09-.28.1.34.1-.36.09.06.1.17.1-.23.09,0,.1.63.1-.89.09.18.1-.08.19-.74.1.58.19-.39.19-.69.2.52.09-.86.1.57.1-.54.19.47.1-.18.09.55.1-.2.1.13.09.44.2-.7.38,1,.1-.19.09.42.1-.28.1.67L235,115l.1.3.1,0,.09-.55.1.9.1-.1.19.7.1-.16.19.17.09,0,.49.56.19-.37.1.58.19-.5.19.36.2-.21.19-.1.09.14.2-.24.19.21.1,0,.29-.46.09.29.2-.7.09-.25.1-.73.1.57.38-1,.1.55.09-.17.1.31.1-.67.29,1,.09-.17.2.27.19.08.19.2.1-.09.09-.27.1.31.1-.45.09.63.1-.66.19.69.2-.29.09.55.1-.36.1.61.19-.43.19,0,.19.77.2.29.09-.08.2-.54.09.71.1,0,.1-.61.09.54.2-.16.09,0h0" transform="translate(0 0)"/></g></g><g id="line2d_37" data-name="line2d 37"><g class="cls-5"><path class="cls-12" d="M23.44,62.58l.1,1.15.09-.44.1-1,.29,2,.19-1,.1.6.09-.15.1.42.1,0,.09-.13.2.84.29-.08.09-1.37.1,1.68.09-.17.1-.25.1.15.09-.42.1.71.1-.82.09.12.1.32.1-.65.19.86.1.23.19-.08.1-1.17L27,65.57l.19-.91.1.69L27.59,64l.19.27.1-.17.09,1,.1-.11.19-.21.2.23.09-.35.19.52.2-1.57.09,1,.1,0,.1-.49.09.71.29-1.08.1.48.1-.61.09-1.67L30,62l.1-.19.28-2.5.1-.1L31,49.68l.58-28.15.1,5.17.29,29.51.19,6.7.1.48.09,2.27.1-.37.19,1.12.1-.42L33,67.5l.1-.43.09.54.1-.4.29,1.12.09-.33.29.93.2-.31.09.33.29-1.09.2,1,.19.4.09-.13.1.28.1-1.34.09,1.23.1-.47.1.13.09-.41.2,1h.09l.1-.89.1,1,.09-.09.1.23.1-.27.09.73.1-.71.19.61.1-.26.09-1,.1.92.1-.43.09.34.1-.49.1.28.09.68.1-1.4L37.81,70l.1-.12.1-.48.09.52.1-.82.09.74.1-1,.1,2.16.19-1.64.1.06.09.45.1-.76.1.54.19-1.19.1,1.33.09-1,.1,1,.19-.69.19-.39.2.41.09-.26.1-1.37.19,1,.1-.26.1.15.09-1.61.1,0,.1.33.09-2,.1.76.1-1.52.09.26.1-.25.38-6.19.1-.75.19-5.82.1-2.48.19-9.54.1-1.21.1,3.39.29,18.43.19,3.72.19.6.19,1.34.1-1.16.1.1.09.92.1-.85.1.36.09-.89.1.92.1-.82.09.82.1-.14.1.28L44.76,64l.09.29.2-.36.09-.93.2.71.19-.72.1-.07.09.12.1-.07L46,61.36l.1,1,.19-1.92.29.69.1-1.18.09.86.1-1.71.19,1.21.1-.35.1,0,.09.17.2-.67.19.69.1,1.4.19-2,.09,1.48.1-.21.19.8.1-.7.58,2.2.1-.32.19.59.1-.64.09,0,.1.34.09-.13.1-.6.19.69.29-2.38.1-2.45h.1l.38-9.12.58,18.1.1-.77.09,2,.1-.42.1.94.09-.06.1.15.1.67.09-.5.1,1,.1-.07.19.59.19-.12.19.56.1-.41.1.59.09-.37.1,1,.1-.7.19.36.1-.18.09,1.19.1-.91.19.77.1-.95.1.83.09-.09.1-.56.19.79.1-.76.19,1.21.19-.54.1.45.1-.21.09.26.1-.31.29.89.09-.51.1.64.1-.83.29,1,.09-.85.1,1,.19-.3.1.66.1-.53.09.67.1-1,.1,0,.19.31.09-.56.2.85.09.29.2-.75.29.74.19-1.07.29,1.61.1-1,.09.06.19.6.1-.39.1.27.09-.93.1.84.1-.22.19.38.19-.16.1.37.1-.63.09.55.1-.18.19-.91.1.59.09,0,.1-.6.29.89.1-.27.09.43.1-.49.1.53.19-1.13.19.75.1-.11.1-.13.19.16.09,0,.29-.57.1.36.39-1.46.09-.83.1.17.29-1.94.48-6.29.1.35.38,8.15.1.27.19.76.1.12.1,1.07.09-.29.2.29.09-.76.39,1.15.09.2.1-.24.1.06.19.32.1-.64.19.34.19,0,.1.16.1.46.19-.78.09.23.29-.29.1.06.1-.09.09-.35.1.8.1-.2.09.65.2-.56.19-.3.1.19.09-.1.1.49.09-.33.1.41.1-1.39.19.51.1.29.09-1.05.1.32.19-.68h.1l.48.7.1.08L70.9,73l.1.38.19-1,.1.35.19-1.55h.1l.19-2.1.48-7.6L72.93,40l.19-2.27.19-.89.1.06.29,2.84.19-2.17.19,6.6.39,19.54.19,5.18L75,71.59l.2,1.06.19,1.42.1-.4.09.17.1.92.09-.58.1,0,.1.25.09-.27.2.39.09-.25.1.6.19-.6.39.24.19-.58.1.68.09-.21.1.33.1-1.1.09.13.1-.06.1.49.19-.62.1.88.19-1.61.1.38.38-3.18.29-5.81.29-14.41.39-16.79.09.71,1,34.67L81,70.7l.48,2.77.2-.18.19.82L82,74l.1-.28.1.68.09-.33.1.66.19-.63.1.51.19-.52.1.29.19-.48.1,0L83.63,72h.1l.48-2.47.39-6.81.19-4.85.68,14,.19,1.57.19.52H86l.1-.47.09.84.1-.29.1.74.09-.21.1-.87.19,1.12.29-.74.1.65.09-.61.1.43.19-.5.2-.72.09.13.1.32.1-.71.09.64.2-.56.09.31.29-.88.1-.18.19-.66.1,0,.09-.67.1.18.1-.34.09.42.1-.51.39.64.19-1,.09.57.2-.74.09-.14.1.46.29-.76.1.19.09-.51.1.28.1-.94.09.19.1-.09.1-.36.28.5.1-1.45.1.9.19-.66.58-6.74L93.28,48l.1.61.09,2.54L93.76,63l.29,6.7.58,3.76.1-.36.19.79.1.17.09.5.1-.14.29.29.1-.08.19.14.29.9.1-.19.09.74.29-.74.1.85.19-.94.1-.09.09.93.1-1.39.19.74.1-.44.19.86.1.14.1-.77.09.76.1-.5.19.17.1.63.19-1,.1,1,.09-.06.1.13L99,75.2l.2,1.4.19-.71.1-.46.09.69.1-.21.19-.9.1.13.09.38.2-.85.19-1h.1l.48-4.22.1-1.33.19.7.19,2.61.29,2.36.19,1,.1,0,.1-.18.09.39.1-.71.1.36.09-.13.1.32.19-.59.1-.1.09.37.2-1.27.09.18.1-.16.1-.63.09.07.1-.4.1-1.19.09.35.39-5.6.48-12.8.19,2.44.49,12.72.09.42.2,2.6.09.71.1-.45.19.57.19-.8.1.15.19-.85.1.31.19-2,.1-.1.19-1.29.1,1.75.1-.5.09.16.29,2,.19,2,.1-.07.1.08.48,1.33.1.06.19.48.1.09.19.42.1-.69.19.64.09-.24.1.25.1.92.19-1.51.1,1.72.09-.86.1.45.1-.46.09,0,.1.12.19-.59.2.59.09-.39.19.1.1-.33.1.24.09-.33.1.48.1-.14.09-.59.29.59.1-.4.19.59.1-.67.1.06.09.58.29-.46.1.82.09-1,.1.45.1-.88.09.47.1-.94.1.68L114,73l.39-3.79.38-7.89.29-11.71.2.79.58,18.77.48,4.69.19.65.19-.11.29,1.07.1-.66.1.11.19.35.1-.13.09-.62.1.17.09-.43.1.08.58-2.61.19,1,.39,2.08.38,1.47.1-.42.1.46.09-.08.1-.28.1.64.19-.52.19.77.1-.52.29.46.19-.43.1.1.09.44.1-.87.19.64.2.19.19-.38.1.31.09,0,.1-.2.1.08.09-.25.1.42.1-.5.19.69.09-.37.2.39.09-.51.1.13.1.33.19-.93.1.64.09-1.13.1.89.1-.38.09.28.1-.47.1-1.11.09.08.1-.37.09-.86.1.27.19-1.58.1.36.1-.41.38,2.55.1-.14.1.25.19,1.38.09.09.1-.15.19.2.1.09.19-.33.1,0,.1-.15.19.27.1-.31.09.36.2-.47.19-.1h.09l.1-.42.1.36.19-1.09.29,1.23.1-.56.19.58.1-.11.09.58.1-.28.1.58.09-.55.19.64.1-1,.19.23.2-.88.09-.21.1-.71.1.49.67-8.85.29-5.47.1-.11.09.53.39,6.8.19,1.43.1.11.19,1.18h.2l.19.17.09-.59.1,1.43.1-1,.09.61.1-.41.1,1.43.19-1.06.19.68.1-.26.29.62.19.44h.1l.09-.25.2.59.19.16.1,1.17.09-.79.2.8.19-.74.1,1.15.09-.25.1.41.1-.26.09.08.1-.5.09.39.2-.28.09.21.39-1.34.1.21.09-.15.1-.81.19.44.48,1.58.1-.33.29.87.19-.47.1,0,.1.3.09-.1.1.44.1-.88.09,0,.2.06.09-.65.1.36.19-.35.1.34.09-.5.1.2.1-.5.09.08.29.94L140,75.2l.1-.44.1,1,.19-.49.19.74.1.35.19-.56.19.08.1-.46.1,0,.09.31.1-.07.19-.72.2,1,.09-.22.19-.83.1-.38.1.39.09,0,.1-.56.1.44.38-.66.1-.52.1.57.09-.55.1.17.1.48.09-.65.1.67.09-.18.1-.48.19,1,.29-1.52.1.52.1-.65.09.08.1-.55.1.57.09-.49.1.33.1-.37.38,1.5.19.72.1-.62.1.63.09-.34.1.29.19-.5.1.34.1-.47.09.07.2.05.09-.43.1.69.09-.73.2.27.09-.35.2,1,.19-.7.1.12.09-.17.1.09.1-.61.19.65.1-.49.09.38.19-.22.1.24.1-.11.19-1,.19,1.1.1.21.19-1.18h.1l.1.3.19-.2.09.84.1-1.14.1.57.19-.29.1-.08.09-.7.2,1.07.19-.61.1,1.36.29-2.23.09.67.1-.63.09.83.1-.46.1.34.19-1.17.1,0,.19-.65.19-1,.1.31.19-1.5.1.09.19-1.37.48-3.52.29-4,.1.78.19-1.72.29,2.81.2,2.79.09.68.29,4.59.19,1.75.1-.16.19,1.18.1.76.1-.4.19.68.1-.84.09,1,.1-.13.38,1.12.1-1,.1.48.19-.79.1.55.09-.22.1-.53.1.13.19-.58.19.06.1-.8.38,2,.1-.5.1.66.09-.38.2,1.33.09-.15.1-.27.1.08.19.75.39-1.29.09.73.19-.48.1.17.1-.13.09-.77.29.81.1-.31.19,1.4.1-.11L161,76l.1-.48.1.48.09-.1.1.71.19-.76.1.09.09,0,.1.33.1-.73.09.4.1-.44.1.59.38-1.14.1.62.1-.34.09,0,.1,1,.09-.64.2.8.09-.28.2.49.09-.76.1.75.1-.75.09.45.2-.32.09.18.1-.54.1,0,.09.11.19-.79.1.59.1-.49.19.2.1,0,.19.63.1-.7.09.49.1,0,.1.27.09-.22.1.7.1-.81.19.6.19-.48.1.16.09-.38.1.49.19-1.28.1-.09.19-.76.1-.17.19.3.1-.27.19,1,.29,1.11.1-.32.19.5.19-.25.1,1,.1-.28.09.15.1-.09.1-.26.09.69.1-.34.1.13.09-.61.1.71.19-1,.19.53.1-.16.1.13.09,1,.1-.54.1.12.09-.57.1.25.1-.55.29.45.09-.15.1.09.09-.34.1.54.1-.33.09.45.1-.69.19.58.2-.79.09.15.1-.22.1.55.28-.88.2-.17.09.26.1-.68.19.36.1-.26.1.79.09-.12.1-.17.1.45.09,0,.1-.65.19.5.1-.09.29.74.09-1.3.2,1.39.09-.8.2.43.09.08.1-.16.19.24.1-.42.1.62.09-.49.1.58.09-.78.1.58.1-.09.09-.92.1,1.06.19-.58.1.82.1-.84.19.93.1-.62.09.86.1-.61.1.53.09-.91.1.48.19-.65.29.48.19-.47.78-2,.19.9.09-.26.1,0,.1-.08.19,1.28.1-.08.09.47.1-.25.1.42.09-.66.1.75.1,0,.09.23.29-.64.1.45.09-.44.1.52.1-1.65.19.67.1-.43.09.14.1,1,.1-.07.09.39.1-.4.1.23.09.65.2-.25.19.33.09-.29.2.42.09.18.1-.33.1.15.09-.12.1.21.29-.45.19.62.2-.49.19.71.19-.31.1-.11.19.33.1-.68.09.66.2-.32.19-.06.1,0,.09.21.1-.26.1.29.19-.7.48.9.1-.9.19.94.19-.68.1.29.1,0,.57-.74.1.42.1-.2.19.17.1-.42L188,77l.1-.26.19.38.1.11.1-.36.09.61.2-.23.19.15.09.58.2-.88.09.26.1-.28.19.88.1-.4.1.13.09-.15.1.37.1-.31.19.27.1-.58.28.54.2-.22.09.18.1-.44.19.48.1.31.19-.85.1-.06.19.45.1.11.19-.57.19.4.1,0,.1-.45.09.39.1-.15.39.25.09-.43.1.37.1-.31.09.35.1-.56.1.43.28-.22.1-.77.1,1.1.19-.61.1.19.19-.24.1-.08.19.39.1-.26.09.29.29-1,.1.77.29-.61.09-.28.2.41.09-.07.29-.76.1.16.1.64.19-1.19.09.1.1.59.29-1,.1.08.19-1.3.1-.12.09-.39.1.14.19-1.27.2-.91.09.24.19-.11.2.32.09-1,.2,1.53.09.49.1-.32.1.37.19-.79h.1l.09-1,.1.74.1-1,.09,0,.19-.21.2,1.13.09-.28.1.44.1,1.3.09-.28.2,1.47.09-.22.29,1.17.1.45.1-.36.28,1.07.2-.21.09.36.1-.35.1,1,.19-.63.1.16.09-.21.1.77.1,0,.09-.19.2.14.09-.08.1.31.19-1,.1.8.09-.69.1.25.58-1.28.29.67.1,0,.09.12.19.85.2-.15.19.61.1.07.09-.16.1.26.1-.34.29.73.19-.7.1.6.09-.87.19.57.1-.36.19.5h.1l.1.13.19.52.19-.42.2.15.19.08.19.28.1-.62.09.46.29-.5.1.37.29-.28.1-.35.19.41.1-.4.09.49.2-.32.19-.31.09-.21.1.77.19-.5.2.08.19-.5.29,1,.1-.09.19,0,.1.1.38-.52L212,78l.1-.25.1.35.19-.65.19.35.1-.16.1.17.29-.22.19.53.09.14.1-.35.39.42.19-.44.1.52.19-.44.1.32.19-.33.1.43.19-.9.09.46.1-.52.1.74.09-.89.1.42.1-.5.09.09.58-1.21.2.3.28-.49.1.7.1-.46.29,1h.09l.2.38.09.57.1-.53.1.54.09-.3.29,1,.19-.49.1-.19.1.1.29.59.09-.67.1.25.1-.47.09.12.1-.34.29.52.1-.72.09.91.1-1,.09.25.2-1.16.19-.41.29.62.1-.25.19.48.1-.21.19.43h.29l.09.85.1-.72.1.41.09-.54.1.71.1-.31.09.17.29-.15.2.25.09-.24.1.33.09-.11.1-.43.1.78.09-.7.1.54.1-.07.19.13.1-.11.19.4.1-.22.19.25.19-.32.1.29.09-.22.1.87.19-.54.1.23.19-.15.29.19.1,0,.19-.47.2.16.19-.36.19.25.1,0,.09.27.1-.06.19-.45.1.17.19-.25.1.07.29-.74.1.21.09-.13.58-2.39.1-.07.19-.66.19-.21.1-.25.19.23.2,1.39.09-.3.19.62.2,1.13.09.08.1.36.1-.17.09.25.1-.09.1.29.09-.5.2.88.19-.3.1.5.09-.55.1.65.19-.43.1.17.29-.39.09.64.1-.81.1.07.09.75.2-.64.09-.2.1.17.29-.89.38-1.16.2.24.09-.28.1.34.19-.53.1.1.1-.13.09.24.1-.12.58,1.47.09,0,.1-.11.1.12.09.54.1-.34.1.08.09.24.1-.06.1-.31.09.21.1.75.1-.29.09.44.1-.1.09.1.1-.06.1.42.09-.76.29.89.2-.35.19.29.1-.33.09.51.39-.8.09.35.1-.55.29.57.19-.79.2.46.09-.15.2-.6.09-1.08.1.47.1-.31.19-1.11.19-.76.19.4.2.74.09-.49.1.57.1-.39.09.2.1.48.1-.09.19.15.1-.1.09.69.1-.4.09.15.1.64.1-.54.09.37.2-.54.19.53.1-.41.19.42.1-.1.09.77.2-.5.19.68.19-.14.29.54.1-.11.09-.39.1.68.1-.1.09.13.2-.15.09.39h0" transform="translate(0 0)"/></g></g><g id="patch_3" data-name="patch 3"><path class="cls-13" d="M23.41,322.49V7.2" transform="translate(0 0)"/></g><g id="patch_4" data-name="patch 4"><path class="cls-13" d="M23.41,322.49H243.82" transform="translate(0 0)"/></g></g></g></g><g id="Names"><path class="cls-14" d="M227,287.43v-6.58h.78l3,5.17v-5.17h.72v6.58h-.77l-3-5.17v5.17Z" transform="translate(0 0)"/><path class="cls-14" d="M232.41,285.46v-.81h2.16v.81Z" transform="translate(0 0)"/><path class="cls-14" d="M235.44,287.43v-6.58h2.16a3.87,3.87,0,0,1,.87.07,1.58,1.58,0,0,1,.71.3,1.73,1.73,0,0,1,.46.64,2.37,2.37,0,0,1,.17.9,2.2,2.2,0,0,1-.46,1.42,2.07,2.07,0,0,1-1.68.58H236.2v2.67Zm.76-3.45h1.48a1.41,1.41,0,0,0,1-.31,1.21,1.21,0,0,0,.31-.89,1.3,1.3,0,0,0-.18-.7.83.83,0,0,0-.48-.39,2.76,2.76,0,0,0-.71-.06H236.2Z" transform="translate(0 0)"/><path class="cls-15" d="M226.53,252v-6.58h1.14l1.36,4.66.27,1c.07-.24.17-.59.31-1.05l1.37-4.58h1V252h-.73v-5.51L229.6,252h-.68l-1.66-5.6V252Z" transform="translate(0 0)"/><path class="cls-15" d="M232.86,250.06v-.81H235v.81Z" transform="translate(0 0)"/><path class="cls-15" d="M235.88,252v-6.58H238a5,5,0,0,1,.88.06,1.66,1.66,0,0,1,.7.31,1.58,1.58,0,0,1,.46.64,2.42,2.42,0,0,1-.29,2.31,2,2,0,0,1-1.68.58h-1.47V252Zm.76-3.45h1.48a1.45,1.45,0,0,0,1-.32,1.22,1.22,0,0,0,.3-.88,1.34,1.34,0,0,0-.18-.71.91.91,0,0,0-.48-.39,3.42,3.42,0,0,0-.7,0h-1.47Z" transform="translate(0 0)"/><path d="M227,213v-6.58h.76v2.71h3v-2.71h.75V213h-.75v-3.1h-3V213Z" transform="translate(0 0)"/><path d="M232.41,211v-.81h2.16V211Z" transform="translate(0 0)"/><path d="M235.44,213v-6.58h2.16a3.87,3.87,0,0,1,.87.07,1.58,1.58,0,0,1,.71.3,1.73,1.73,0,0,1,.46.64,2.37,2.37,0,0,1,.17.9,2.2,2.2,0,0,1-.46,1.42,2.07,2.07,0,0,1-1.68.58H236.2V213Zm.76-3.45h1.48a1.41,1.41,0,0,0,1-.31,1.21,1.21,0,0,0,.31-.89,1.3,1.3,0,0,0-.18-.7.83.83,0,0,0-.48-.39,2.76,2.76,0,0,0-.71-.06H236.2Z" transform="translate(0 0)"/><path class="cls-16" d="M223.57,173.81v-6.58h1.14l1.36,4.66.27,1,.31-1.06,1.37-4.57h1v6.58h-.73V168.3l-1.67,5.51H226l-1.66-5.61v5.61Z" transform="translate(0 0)"/><path class="cls-16" d="M229.9,171.83V171h2.16v.81Z" transform="translate(0 0)"/><path class="cls-16" d="M232.9,173.81v-6.58H234l1.36,4.66.27,1c.06-.24.17-.59.3-1.06l1.37-4.57h1v6.58h-.73V168.3L236,173.81h-.68l-1.66-5.61v5.61Z" transform="translate(0 0)"/><path class="cls-16" d="M239.37,174.2l.68.12a.8.8,0,0,0,.24.53,1,1,0,0,0,.71.22,1.15,1.15,0,0,0,.76-.22,1.1,1.1,0,0,0,.36-.63,7.15,7.15,0,0,0,0-1,1.38,1.38,0,0,1-1.15.63,1.49,1.49,0,0,1-1.32-.71,3,3,0,0,1-.47-1.7,3.62,3.62,0,0,1,.21-1.26,1.92,1.92,0,0,1,.63-.89,1.51,1.51,0,0,1,1-.32,1.45,1.45,0,0,1,1.22.68V169h.64v4.12a4.54,4.54,0,0,1-.19,1.58,1.6,1.6,0,0,1-.63.73,1.91,1.91,0,0,1-1.05.27,1.82,1.82,0,0,1-1.2-.38A1.38,1.38,0,0,1,239.37,174.2Zm.58-2.86a2.36,2.36,0,0,0,.32,1.37,1,1,0,0,0,1.63,0,2.24,2.24,0,0,0,.33-1.35,2.09,2.09,0,0,0-.34-1.31,1,1,0,0,0-.81-.45,1,1,0,0,0-.8.44A2.13,2.13,0,0,0,240,171.34Z" transform="translate(0 0)"/><path class="cls-17" d="M224.06,135.34v-6.58h.76v2.7h3v-2.7h.75v6.58h-.75v-3.1h-3v3.1Z" transform="translate(0 0)"/><path class="cls-17" d="M229.45,133.37v-.81h2.16v.81Z" transform="translate(0 0)"/><path class="cls-17" d="M232.46,135.34v-6.58h1.14l1.35,4.66c.13.44.22.76.28,1,.06-.24.16-.6.3-1.06l1.37-4.58h1v6.58h-.73v-5.5l-1.66,5.5h-.69l-1.65-5.6v5.6Z" transform="translate(0 0)"/><path class="cls-17" d="M238.92,135.74l.69.11a.78.78,0,0,0,.24.53,1,1,0,0,0,.71.23,1,1,0,0,0,1.11-.85,5.66,5.66,0,0,0,.06-1,1.4,1.4,0,0,1-1.15.62,1.5,1.5,0,0,1-1.33-.71,3,3,0,0,1-.47-1.7,3.71,3.71,0,0,1,.22-1.26,2,2,0,0,1,.62-.89,1.51,1.51,0,0,1,1-.31,1.44,1.44,0,0,1,1.21.68v-.57h.65v4.12a4.2,4.2,0,0,1-.2,1.57,1.6,1.6,0,0,1-.62.74,2,2,0,0,1-1.05.27,1.77,1.77,0,0,1-1.2-.39A1.36,1.36,0,0,1,238.92,135.74Zm.59-2.87a2.32,2.32,0,0,0,.32,1.37,1,1,0,0,0,1.63,0,2.26,2.26,0,0,0,.32-1.34,2.22,2.22,0,0,0-.33-1.32,1,1,0,0,0-.82-.44,1,1,0,0,0-.8.43A2.25,2.25,0,0,0,239.51,132.87Z" transform="translate(0 0)"/><path class="cls-18" d="M225.57,97.93V91.35h1.14L228.07,96l.27,1c.07-.24.17-.6.31-1.06L230,91.35h1v6.58h-.73v-5.5l-1.67,5.5H228l-1.66-5.6v5.6Z" transform="translate(0 0)"/><path class="cls-18" d="M231.9,96v-.81h2.16V96Z" transform="translate(0 0)"/><path class="cls-18" d="M234.29,97.93l2.2-6.58h.82l2.34,6.58h-.86l-.67-2h-2.39l-.63,2Zm1.66-2.7h1.94l-.6-1.82c-.18-.55-.32-1-.41-1.37a8.89,8.89,0,0,1-.3,1.26Z" transform="translate(0 0)"/><path class="cls-18" d="M240.15,97.93V91.35h.71v6.58Z" transform="translate(0 0)"/><path class="cls-19" d="M226.06,61.38V54.8h.76v2.7h3V54.8h.75v6.58h-.75v-3.1h-3v3.1Z" transform="translate(0 0)"/><path class="cls-19" d="M231.45,59.4v-.81h2.16v.81Z" transform="translate(0 0)"/><path class="cls-19" d="M233.85,61.38l2.2-6.58h.82l2.34,6.58h-.86l-.67-2h-2.4l-.62,2Zm1.65-2.7h1.94l-.59-1.83c-.19-.55-.32-1-.41-1.36a9.64,9.64,0,0,1-.31,1.26Z" transform="translate(0 0)"/><path class="cls-19" d="M239.71,61.38V54.8h.7v6.58Z" transform="translate(0 0)"/></g></svg>