<?xml version="1.0" encoding="utf-8"?>
<!-- Generator: Adobe Illustrator 26.0.1, SVG Export Plug-In . SVG Version: 6.00 Build 0)  -->
<svg version="1.1" id="Layer_1" xmlns="http://www.w3.org/2000/svg" xmlns:xlink="http://www.w3.org/1999/xlink" x="0px" y="0px"
	 viewBox="0 0 477 313.7" style="enable-background:new 0 0 477 313.7;" xml:space="preserve">
<style type="text/css">
	.st0{fill:#FFFFFF;}
	.st1{stroke:#000000;stroke-width:0.8;stroke-linejoin:round;}
	.st2{stroke:#000000;stroke-width:0.6;stroke-linejoin:round;}
	
		.st3{clip-path:url(#SVGID_00000001621346951282615620000004473040147179349120_);fill:none;stroke:#1F77B4;stroke-width:0.5;stroke-linecap:square;stroke-linejoin:round;}
	
		.st4{clip-path:url(#SVGID_00000034073143203224986880000006768398560163394984_);fill:none;stroke:#FF7F0E;stroke-width:0.5;stroke-linecap:square;stroke-linejoin:round;}
	
		.st5{clip-path:url(#SVGID_00000070822917802061955320000009058330431823206550_);fill:none;stroke:#2CA02C;stroke-width:0.5;stroke-linecap:square;stroke-linejoin:round;}
	.st6{fill:none;stroke:#000000;stroke-width:0.8;stroke-linecap:square;}
	.st7{opacity:0.8;fill:#FFFFFF;stroke:#CCCCCC;enable-background:new    ;}
	.st8{fill:none;stroke:#2CA02C;stroke-width:0.5;stroke-linecap:square;stroke-linejoin:round;}
	.st9{fill:none;stroke:#FF7F0E;stroke-width:0.5;stroke-linecap:square;stroke-linejoin:round;}
	.st10{fill:none;stroke:#1F77B4;stroke-width:0.5;stroke-linecap:square;stroke-linejoin:round;}
	.st11{fill:#FFFFFF;stroke:#000000;stroke-miterlimit:10;}
</style>
<g id="figure_1">
	<g id="patch_1">
		<path class="st0" d="M0,313.7h477V0H0V313.7z"/>
	</g>
	<g id="axes_1">
		<g id="patch_2">
			<path class="st0" d="M23.4,279h446.4V7.2H23.4V279z"/>
		</g>
		<g id="matplotlib.axis_1">
			<g id="xtick_1">
				<g id="line2d_1">
					<g>
						<g>
							<path id="m339b7fc9cb" class="st1" d="M60.6,279v3.5"/>
						</g>
					</g>
				</g>
				<g id="text_1">
					<g transform="translate(55.520313 292.07875) scale(0.08 -0.08)">
						<g>
							<path id="DejaVuSans-31" d="M12.4,8.3h16.1v55.6L11,60.4v9l17.4,3.5h9.9V8.3h16.1V0h-42V8.3z"/>
						</g>
						<g>
							<path id="DejaVuSans-30" d="M95.4,66.4c-5.1,0-8.9-2.5-11.5-7.5c-2.6-5-3.8-12.5-3.8-22.5c0-10,1.3-17.5,3.8-22.5
								c2.6-5,6.4-7.5,11.5-7.5c5.1,0,8.9,2.5,11.5,7.5c2.6,5,3.8,12.5,3.8,22.5c0,10-1.3,17.5-3.8,22.5
								C104.4,63.9,100.5,66.4,95.4,66.4z M95.4,74.2c8.2,0,14.4-3.2,18.7-9.7c4.3-6.5,6.5-15.8,6.5-28.1c0-12.3-2.2-21.6-6.5-28.1
								c-4.3-6.5-10.6-9.7-18.7-9.7c-8.2,0-14.4,3.2-18.7,9.7c-4.3,6.5-6.5,15.8-6.5,28.1c0,12.3,2.2,21.7,6.5,28.1
								C81,71,87.2,74.2,95.4,74.2z"/>
						</g>
					</g>
				</g>
			</g>
			<g id="xtick_2">
				<g id="line2d_2">
					<g>
						<g>
							<path id="m339b7fc9cb_00000163777764612337752780000011819658211614182588_" class="st1" d="M135,279v3.5"/>
						</g>
					</g>
				</g>
				<g id="text_2">
					<g transform="translate(129.920312 292.07875) scale(0.08 -0.08)">
						<g>
							<path id="DejaVuSans-32" d="M19.2,8.3h34.4V0H7.3v8.3c3.7,3.9,8.8,9.1,15.3,15.6c6.5,6.5,10.5,10.7,12.2,12.6
								c3.2,3.5,5.4,6.5,6.6,9c1.3,2.5,1.9,4.9,1.9,7.2c0,3.9-1.4,7-4.1,9.5c-2.7,2.4-6.3,3.7-10.6,3.7c-3.1,0-6.4-0.5-9.8-1.6
								c-3.4-1.1-7.1-2.7-11-4.9v10c4,1.6,7.7,2.8,11.1,3.6c3.5,0.8,6.6,1.2,9.5,1.2c7.6,0,13.6-1.9,18.1-5.7
								c4.5-3.8,6.7-8.8,6.7-15.1c0-3-0.6-5.8-1.7-8.5c-1.1-2.7-3.2-5.8-6.1-9.5c-0.8-0.9-3.4-3.7-7.8-8.2
								C33.3,22.7,27.1,16.4,19.2,8.3z"/>
						</g>
						<g>
							<path id="DejaVuSans-30_00000006709979835920982580000012768869297325339576_" d="M95.4,66.4c-5.1,0-8.9-2.5-11.5-7.5
								c-2.6-5-3.8-12.5-3.8-22.5c0-10,1.3-17.5,3.8-22.5c2.6-5,6.4-7.5,11.5-7.5c5.1,0,8.9,2.5,11.5,7.5c2.6,5,3.8,12.5,3.8,22.5
								c0,10-1.3,17.5-3.8,22.5C104.4,63.9,100.5,66.4,95.4,66.4z M95.4,74.2c8.2,0,14.4-3.2,18.7-9.7c4.3-6.5,6.5-15.8,6.5-28.1
								c0-12.3-2.2-21.6-6.5-28.1c-4.3-6.5-10.6-9.7-18.7-9.7c-8.2,0-14.4,3.2-18.7,9.7c-4.3,6.5-6.5,15.8-6.5,28.1
								c0,12.3,2.2,21.7,6.5,28.1C81,71,87.2,74.2,95.4,74.2z"/>
						</g>
					</g>
				</g>
			</g>
			<g id="xtick_3">
				<g id="line2d_3">
					<g>
						<g>
							<path id="m339b7fc9cb_00000040570009307839749210000008296273134044305304_" class="st1" d="M209.4,279v3.5"/>
						</g>
					</g>
				</g>
				<g id="text_3">
					<g transform="translate(204.320312 292.07875) scale(0.08 -0.08)">
						<g>
							<path id="DejaVuSans-33" d="M40.6,39.3c4.7-1,8.4-3.1,11-6.3c2.7-3.2,4-7.1,4-11.8c0-7.2-2.5-12.8-7.4-16.7
								c-4.9-3.9-12-5.9-21.1-5.9c-3.1,0-6.2,0.3-9.4,0.9S11.1,1,7.6,2.2v9.5c2.7-1.6,5.7-2.8,9-3.6c3.3-0.8,6.7-1.2,10.2-1.2
								c6.2,0,10.9,1.2,14.1,3.7s4.9,6,4.9,10.6c0,4.3-1.5,7.7-4.5,10.1c-3,2.4-7.2,3.6-12.6,3.6h-8.5V43h8.9c4.8,0,8.6,1,11.1,2.9
								s3.9,4.7,3.9,8.4c0,3.7-1.3,6.6-4,8.6c-2.6,2-6.4,3-11.4,3c-2.7,0-5.6-0.3-8.7-0.9c-3.1-0.6-6.5-1.5-10.2-2.7v8.8
								c3.8,1,7.3,1.8,10.5,2.3s6.4,0.8,9.2,0.8c7.5,0,13.4-1.7,17.8-5.1c4.4-3.4,6.5-8,6.5-13.8c0-4-1.2-7.5-3.5-10.2
								S44.8,40.4,40.6,39.3z"/>
						</g>
						<g>
							<path id="DejaVuSans-30_00000105387224945099092120000003326856422000482970_" d="M95.4,66.4c-5.1,0-8.9-2.5-11.5-7.5
								c-2.6-5-3.8-12.5-3.8-22.5c0-10,1.3-17.5,3.8-22.5c2.6-5,6.4-7.5,11.5-7.5c5.1,0,8.9,2.5,11.5,7.5c2.6,5,3.8,12.5,3.8,22.5
								c0,10-1.3,17.5-3.8,22.5C104.4,63.9,100.5,66.4,95.4,66.4z M95.4,74.2c8.2,0,14.4-3.2,18.7-9.7c4.3-6.5,6.5-15.8,6.5-28.1
								c0-12.3-2.2-21.6-6.5-28.1c-4.3-6.5-10.6-9.7-18.7-9.7c-8.2,0-14.4,3.2-18.7,9.7c-4.3,6.5-6.5,15.8-6.5,28.1
								c0,12.3,2.2,21.7,6.5,28.1C81,71,87.2,74.2,95.4,74.2z"/>
						</g>
					</g>
				</g>
			</g>
			<g id="xtick_4">
				<g id="line2d_4">
					<g>
						<g>
							<path id="m339b7fc9cb_00000046316237854097645020000003846672687121116837_" class="st1" d="M283.8,279v3.5"/>
						</g>
					</g>
				</g>
				<g id="text_4">
					<g transform="translate(278.720312 292.07875) scale(0.08 -0.08)">
						<g>
							<path id="DejaVuSans-34" d="M37.8,64.3L12.9,25.4h24.9V64.3z M35.2,72.9h12.4V25.4H58v-8.2H47.6V0h-9.8v17.2H4.9v9.5
								L35.2,72.9z"/>
						</g>
						<g>
							<path id="DejaVuSans-30_00000179619694411644322530000017184970935887253891_" d="M95.4,66.4c-5.1,0-8.9-2.5-11.5-7.5
								c-2.6-5-3.8-12.5-3.8-22.5c0-10,1.3-17.5,3.8-22.5c2.6-5,6.4-7.5,11.5-7.5c5.1,0,8.9,2.5,11.5,7.5c2.6,5,3.8,12.5,3.8,22.5
								c0,10-1.3,17.5-3.8,22.5C104.4,63.9,100.5,66.4,95.4,66.4z M95.4,74.2c8.2,0,14.4-3.2,18.7-9.7c4.3-6.5,6.5-15.8,6.5-28.1
								c0-12.3-2.2-21.6-6.5-28.1c-4.3-6.5-10.6-9.7-18.7-9.7c-8.2,0-14.4,3.2-18.7,9.7c-4.3,6.5-6.5,15.8-6.5,28.1
								c0,12.3,2.2,21.7,6.5,28.1C81,71,87.2,74.2,95.4,74.2z"/>
						</g>
					</g>
				</g>
			</g>
			<g id="xtick_5">
				<g id="line2d_5">
					<g>
						<g>
							<path id="m339b7fc9cb_00000100381665028765587380000014106021204933028736_" class="st1" d="M358.2,279v3.5"/>
						</g>
					</g>
				</g>
				<g id="text_5">
					<g transform="translate(353.120313 292.07875) scale(0.08 -0.08)">
						<g>
							<path id="DejaVuSans-35" d="M10.8,72.9h38.7v-8.3H19.8V46.7c1.4,0.5,2.9,0.9,4.3,1.1c1.4,0.2,2.9,0.4,4.3,0.4
								c8.1,0,14.6-2.2,19.3-6.7c4.8-4.5,7.1-10.5,7.1-18.1c0-7.8-2.4-13.9-7.3-18.3c-4.9-4.3-11.8-6.5-20.7-6.5
								c-3.1,0-6.2,0.3-9.4,0.8c-3.2,0.5-6.4,1.3-9.8,2.3v9.9c2.9-1.6,6-2.8,9.1-3.6s6.4-1.2,9.9-1.2c5.6,0,10.1,1.5,13.4,4.4
								c3.3,3,4.9,7,4.9,12.1c0,5.1-1.6,9.1-4.9,12c-3.3,3-7.7,4.5-13.4,4.5c-2.6,0-5.3-0.3-7.9-0.9c-2.6-0.6-5.3-1.5-8-2.7V72.9z"
								/>
						</g>
						<g>
							<path id="DejaVuSans-30_00000170967603375926594310000007958370121503831218_" d="M95.4,66.4c-5.1,0-8.9-2.5-11.5-7.5
								c-2.6-5-3.8-12.5-3.8-22.5c0-10,1.3-17.5,3.8-22.5c2.6-5,6.4-7.5,11.5-7.5c5.1,0,8.9,2.5,11.5,7.5c2.6,5,3.8,12.5,3.8,22.5
								c0,10-1.3,17.5-3.8,22.5C104.4,63.9,100.5,66.4,95.4,66.4z M95.4,74.2c8.2,0,14.4-3.2,18.7-9.7c4.3-6.5,6.5-15.8,6.5-28.1
								c0-12.3-2.2-21.6-6.5-28.1c-4.3-6.5-10.6-9.7-18.7-9.7c-8.2,0-14.4,3.2-18.7,9.7c-4.3,6.5-6.5,15.8-6.5,28.1
								c0,12.3,2.2,21.7,6.5,28.1C81,71,87.2,74.2,95.4,74.2z"/>
						</g>
					</g>
				</g>
			</g>
			<g id="xtick_6">
				<g id="line2d_6">
					<g>
						<g>
							<path id="m339b7fc9cb_00000115486484734642668910000012804362693544466832_" class="st1" d="M432.6,279v3.5"/>
						</g>
					</g>
				</g>
				<g id="text_6">
					<g transform="translate(427.520312 292.07875) scale(0.08 -0.08)">
						<g>
							<path id="DejaVuSans-36" d="M33,40.4c-4.4,0-7.9-1.5-10.5-4.5c-2.6-3-3.9-7.2-3.9-12.4c0-5.2,1.3-9.4,3.9-12.4
								c2.6-3,6.1-4.6,10.5-4.6s7.9,1.5,10.5,4.6c2.6,3.1,3.9,7.2,3.9,12.4c0,5.3-1.3,9.4-3.9,12.4C40.9,38.9,37.4,40.4,33,40.4z
								 M52.6,71.3v-9c-2.5,1.2-5,2.1-7.5,2.7c-2.5,0.6-5,0.9-7.5,0.9c-6.5,0-11.5-2.2-14.9-6.6c-3.4-4.4-5.4-11-5.9-19.9
								c1.9,2.8,4.3,5,7.2,6.5c2.9,1.5,6.1,2.3,9.6,2.3c7.3,0,13.1-2.2,17.4-6.7c4.2-4.4,6.4-10.5,6.4-18.1c0-7.5-2.2-13.5-6.6-18
								C46.3,0.8,40.4-1.4,33-1.4c-8.4,0-14.9,3.2-19.3,9.7C9.2,14.7,7,24.1,7,36.4c0,11.5,2.7,20.7,8.2,27.6s12.8,10.3,22,10.3
								c2.5,0,5-0.2,7.5-0.7S49.9,72.3,52.6,71.3z"/>
						</g>
						<g>
							<path id="DejaVuSans-30_00000058547720846562913970000005220379598312325277_" d="M95.4,66.4c-5.1,0-8.9-2.5-11.5-7.5
								c-2.6-5-3.8-12.5-3.8-22.5c0-10,1.3-17.5,3.8-22.5c2.6-5,6.4-7.5,11.5-7.5c5.1,0,8.9,2.5,11.5,7.5c2.6,5,3.8,12.5,3.8,22.5
								c0,10-1.3,17.5-3.8,22.5C104.4,63.9,100.5,66.4,95.4,66.4z M95.4,74.2c8.2,0,14.4-3.2,18.7-9.7c4.3-6.5,6.5-15.8,6.5-28.1
								c0-12.3-2.2-21.6-6.5-28.1c-4.3-6.5-10.6-9.7-18.7-9.7c-8.2,0-14.4,3.2-18.7,9.7c-4.3,6.5-6.5,15.8-6.5,28.1
								c0,12.3,2.2,21.7,6.5,28.1C81,71,87.2,74.2,95.4,74.2z"/>
						</g>
					</g>
				</g>
			</g>
			<g id="xtick_7">
				<g id="line2d_7">
					<g>
						<g>
							<path id="m97db6ae489" class="st2" d="M23.4,279v2"/>
						</g>
					</g>
				</g>
			</g>
			<g id="xtick_8">
				<g id="line2d_8">
					<g>
						<g>
							<path id="m97db6ae489_00000145032363170907331210000017048950069796150939_" class="st2" d="M42,279v2"/>
						</g>
					</g>
				</g>
			</g>
			<g id="xtick_9">
				<g id="line2d_9">
					<g>
						<g>
							<path id="m97db6ae489_00000070817784968234668420000017270155246873595524_" class="st2" d="M79.2,279v2"/>
						</g>
					</g>
				</g>
			</g>
			<g id="xtick_10">
				<g id="line2d_10">
					<g>
						<g>
							<path id="m97db6ae489_00000057143858898326814280000013555896406918030495_" class="st2" d="M97.8,279v2"/>
						</g>
					</g>
				</g>
			</g>
			<g id="xtick_11">
				<g id="line2d_11">
					<g>
						<g>
							<path id="m97db6ae489_00000070109878590827288980000010572129425801488279_" class="st2" d="M116.4,279v2"/>
						</g>
					</g>
				</g>
			</g>
			<g id="xtick_12">
				<g id="line2d_12">
					<g>
						<g>
							<path id="m97db6ae489_00000159457015120181298200000014917607752636064384_" class="st2" d="M153.6,279v2"/>
						</g>
					</g>
				</g>
			</g>
			<g id="xtick_13">
				<g id="line2d_13">
					<g>
						<g>
							<path id="m97db6ae489_00000062168829130859203960000010781769580485842092_" class="st2" d="M172.2,279v2"/>
						</g>
					</g>
				</g>
			</g>
			<g id="xtick_14">
				<g id="line2d_14">
					<g>
						<g>
							<path id="m97db6ae489_00000118373656295244053200000015207599238159268793_" class="st2" d="M190.8,279v2"/>
						</g>
					</g>
				</g>
			</g>
			<g id="xtick_15">
				<g id="line2d_15">
					<g>
						<g>
							<path id="m97db6ae489_00000076569159551497475170000013774524627490647477_" class="st2" d="M228,279v2"/>
						</g>
					</g>
				</g>
			</g>
			<g id="xtick_16">
				<g id="line2d_16">
					<g>
						<g>
							<path id="m97db6ae489_00000085951907667529479790000001026722857766132404_" class="st2" d="M246.6,279v2"/>
						</g>
					</g>
				</g>
			</g>
			<g id="xtick_17">
				<g id="line2d_17">
					<g>
						<g>
							<path id="m97db6ae489_00000165913710252130873920000004228660423622264230_" class="st2" d="M265.2,279v2"/>
						</g>
					</g>
				</g>
			</g>
			<g id="xtick_18">
				<g id="line2d_18">
					<g>
						<g>
							<path id="m97db6ae489_00000014626017117598122640000011154169040272473998_" class="st2" d="M302.4,279v2"/>
						</g>
					</g>
				</g>
			</g>
			<g id="xtick_19">
				<g id="line2d_19">
					<g>
						<g>
							<path id="m97db6ae489_00000044141927663004775100000001335503183199699338_" class="st2" d="M321,279v2"/>
						</g>
					</g>
				</g>
			</g>
			<g id="xtick_20">
				<g id="line2d_20">
					<g>
						<g>
							<path id="m97db6ae489_00000129176631290894794340000016635730815436014761_" class="st2" d="M339.6,279v2"/>
						</g>
					</g>
				</g>
			</g>
			<g id="xtick_21">
				<g id="line2d_21">
					<g>
						<g>
							<path id="m97db6ae489_00000134934471718560716810000010447302117580201114_" class="st2" d="M376.8,279v2"/>
						</g>
					</g>
				</g>
			</g>
			<g id="xtick_22">
				<g id="line2d_22">
					<g>
						<g>
							<path id="m97db6ae489_00000013175917786761574960000005412308594615039380_" class="st2" d="M395.4,279v2"/>
						</g>
					</g>
				</g>
			</g>
			<g id="xtick_23">
				<g id="line2d_23">
					<g>
						<g>
							<path id="m97db6ae489_00000088831280564180124480000007992878637325277631_" class="st2" d="M414,279v2"/>
						</g>
					</g>
				</g>
			</g>
			<g id="xtick_24">
				<g id="line2d_24">
					<g>
						<g>
							<path id="m97db6ae489_00000000216335259189790390000018295512039872569771_" class="st2" d="M451.2,279v2"/>
						</g>
					</g>
				</g>
			</g>
			<g id="xtick_25">
				<g id="line2d_25">
					<g>
						<g>
							<path id="m97db6ae489_00000098222212738773929430000002898223787990903977_" class="st2" d="M469.8,279v2"/>
						</g>
					</g>
				</g>
			</g>
			<g id="text_7">
				<g transform="translate(217.938984 304.651406) scale(0.09 -0.09)">
					<g>
						<path id="DejaVuSans-32_00000116926584388018153100000010805897198278384015_" d="M19.2,8.3h34.4V0H7.3v8.3
							c3.7,3.9,8.8,9.1,15.3,15.6c6.5,6.5,10.5,10.7,12.2,12.6c3.2,3.5,5.4,6.5,6.6,9c1.3,2.5,1.9,4.9,1.9,7.2c0,3.9-1.4,7-4.1,9.5
							c-2.7,2.4-6.3,3.7-10.6,3.7c-3.1,0-6.4-0.5-9.8-1.6c-3.4-1.1-7.1-2.7-11-4.9v10c4,1.6,7.7,2.8,11.1,3.6
							c3.5,0.8,6.6,1.2,9.5,1.2c7.6,0,13.6-1.9,18.1-5.7c4.5-3.8,6.7-8.8,6.7-15.1c0-3-0.6-5.8-1.7-8.5c-1.1-2.7-3.2-5.8-6.1-9.5
							c-0.8-0.9-3.4-3.7-7.8-8.2C33.3,22.7,27.1,16.4,19.2,8.3z"/>
					</g>
					<g>
						<path id="DejaVuSans-3b8" d="M109.8,34.7H78.7c0.5-9.7,1.8-16.7,4.1-20.8c2.8-5.1,6.6-7.6,11.5-7.6c4.9,0,8.7,2.6,11.4,7.7
							C108,18.4,109.4,25.3,109.8,34.7z M109.6,43c-0.9,9.2-2.2,15.5-4,18.8c-2.8,5.1-6.6,7.7-11.4,7.7c-5,0-8.8-2.5-11.4-7.6
							c-2.1-4.1-3.4-10.4-4-18.8H109.6z M94.2,76.8c7.8,0,14-3.5,18.4-10.4c4.5-6.9,6.7-16.4,6.7-28.6c0-12.1-2.2-21.7-6.7-28.6
							C108.2,2.3,102-1.1,94.2-1.1c-7.8,0-14,3.5-18.4,10.4c-4.5,6.9-6.7,16.4-6.7,28.6c0,12.2,2.2,21.7,6.7,28.6
							C80.3,73.3,86.4,76.8,94.2,76.8z"/>
					</g>
					<g>
						<path id="DejaVuSans-20" d="M124.8,0"/>
					</g>
					<g>
						<path id="DejaVuSans-28" d="M187.6,75.9c-4.4-7.5-7.6-14.9-9.7-22.2c-2.1-7.3-3.2-14.7-3.2-22.3c0-7.5,1.1-15,3.2-22.3
							c2.1-7.4,5.4-14.8,9.7-22.2h-7.8c-4.9,7.7-8.5,15.2-11,22.6c-2.4,7.4-3.6,14.7-3.6,22c0,7.3,1.2,14.6,3.6,21.9
							c2.4,7.4,6.1,14.9,11,22.6H187.6z"/>
					</g>
					<g>
						<path id="DejaVuSans-64" d="M241,46.4V76h9V0h-9v8.2c-1.9-3.2-4.3-5.7-7.2-7.2c-2.9-1.6-6.3-2.4-10.4-2.4
							c-6.6,0-12,2.6-16.1,7.9c-4.1,5.3-6.2,12.2-6.2,20.8s2.1,15.5,6.2,20.8c4.2,5.3,9.5,7.9,16.1,7.9c4,0,7.5-0.8,10.4-2.4
							C236.7,52.1,239.1,49.6,241,46.4z M210.4,27.3c0-6.6,1.4-11.8,4.1-15.5s6.5-5.6,11.2-5.6s8.5,1.9,11.2,5.6
							c2.7,3.8,4.1,8.9,4.1,15.5s-1.4,11.8-4.1,15.5c-2.7,3.8-6.5,5.6-11.2,5.6s-8.5-1.9-11.2-5.6S210.4,33.9,210.4,27.3z"/>
					</g>
					<g>
						<path id="DejaVuSans-65" d="M315.3,29.6v-4.4H274c0.4-6.2,2.3-10.9,5.6-14.1c3.3-3.2,8-4.9,13.9-4.9c3.4,0,6.8,0.4,10,1.3
							c3.2,0.8,6.5,2.1,9.7,3.8V2.8c-3.2-1.4-6.5-2.4-9.9-3.1c-3.4-0.7-6.8-1.1-10.3-1.1c-8.7,0-15.6,2.5-20.7,7.6
							c-5.1,5.1-7.6,12-7.6,20.6c0,8.9,2.4,16,7.2,21.3c4.8,5.3,11.4,7.9,19.6,7.9c7.4,0,13.2-2.4,17.5-7.1
							C313.1,44.2,315.3,37.7,315.3,29.6z M306.3,32.2c-0.1,4.9-1.4,8.8-4.1,11.8c-2.7,2.9-6.2,4.4-10.7,4.4c-5,0-9-1.4-12-4.2
							c-3-2.8-4.7-6.8-5.2-12L306.3,32.2z"/>
					</g>
					<g>
						<path id="DejaVuSans-67" d="M366,28c0,6.5-1.3,11.6-4,15.1c-2.7,3.6-6.4,5.4-11.3,5.4c-4.8,0-8.6-1.8-11.2-5.4
							c-2.7-3.6-4-8.6-4-15.1c0-6.5,1.3-11.5,4-15.1s6.4-5.4,11.2-5.4c4.9,0,8.6,1.8,11.3,5.4C364.7,16.5,366,21.5,366,28z M375,6.8
							c0-9.3-2.1-16.2-6.2-20.8c-4.1-4.5-10.5-6.8-19-6.8c-3.2,0-6.1,0.2-8.9,0.7c-2.8,0.5-5.5,1.2-8.2,2.2v8.7
							c2.6-1.4,5.2-2.5,7.8-3.2c2.6-0.7,5.2-1,7.9-1c5.9,0,10.3,1.5,13.2,4.6C364.5-5.7,366-1,366,5.2v4.5c-1.9-3.2-4.2-5.6-7.1-7.2
							C356,0.8,352.5,0,348.5,0c-6.7,0-12.1,2.6-16.2,7.7c-4.1,5.1-6.2,11.9-6.2,20.3c0,8.5,2.1,15.2,6.2,20.3
							c4.1,5.1,9.5,7.7,16.2,7.7c4,0,7.5-0.8,10.4-2.4c2.9-1.6,5.3-4,7.1-7.2v8.3h9V6.8z"/>
					</g>
					<g>
						<path id="DejaVuSans-72" d="M425.2,46.3c-1,0.6-2.1,1-3.3,1.3c-1.2,0.3-2.5,0.4-3.9,0.4c-5.1,0-9-1.7-11.7-5s-4.1-8-4.1-14.2
							V0h-9v54.7h9v-8.5c1.9,3.3,4.4,5.8,7.4,7.4c3,1.6,6.7,2.4,11,2.4c0.6,0,1.3,0,2-0.1c0.8-0.1,1.6-0.2,2.5-0.4L425.2,46.3z"/>
					</g>
					<g>
						<path id="DejaVuSans-65_00000000945442582124317510000010817126668046520451_" d="M479.1,29.6v-4.4h-41.3
							c0.4-6.2,2.3-10.9,5.6-14.1c3.3-3.2,8-4.9,13.9-4.9c3.4,0,6.8,0.4,10,1.3c3.2,0.8,6.5,2.1,9.7,3.8V2.8
							c-3.2-1.4-6.5-2.4-9.9-3.1c-3.4-0.7-6.8-1.1-10.3-1.1c-8.7,0-15.6,2.5-20.7,7.6c-5.1,5.1-7.6,12-7.6,20.6
							c0,8.9,2.4,16,7.2,21.3c4.8,5.3,11.4,7.9,19.6,7.9c7.4,0,13.2-2.4,17.5-7.1C477,44.2,479.1,37.7,479.1,29.6z M470.2,32.2
							c-0.1,4.9-1.4,8.8-4.1,11.8c-2.7,2.9-6.2,4.4-10.7,4.4c-5,0-9-1.4-12-4.2c-3-2.8-4.7-6.8-5.2-12L470.2,32.2z"/>
					</g>
					<g>
						<path id="DejaVuSans-65_00000130643805423054213460000006998196322687052958_" d="M540.7,29.6v-4.4h-41.3
							c0.4-6.2,2.3-10.9,5.6-14.1c3.3-3.2,8-4.9,13.9-4.9c3.4,0,6.8,0.4,10,1.3c3.2,0.8,6.5,2.1,9.7,3.8V2.8
							c-3.2-1.4-6.5-2.4-9.9-3.1c-3.4-0.7-6.8-1.1-10.3-1.1c-8.7,0-15.6,2.5-20.7,7.6c-5.1,5.1-7.6,12-7.6,20.6
							c0,8.9,2.4,16,7.2,21.3c4.8,5.3,11.4,7.9,19.6,7.9c7.4,0,13.2-2.4,17.5-7.1C538.5,44.2,540.7,37.7,540.7,29.6z M531.7,32.2
							c-0.1,4.9-1.4,8.8-4.1,11.8c-2.7,2.9-6.2,4.4-10.7,4.4c-5,0-9-1.4-12-4.2c-3-2.8-4.7-6.8-5.2-12L531.7,32.2z"/>
					</g>
					<g>
						<path id="DejaVuSans-73" d="M590.3,53.1v-8.5c-2.5,1.3-5.2,2.3-7.9,2.9c-2.7,0.7-5.6,1-8.5,1c-4.5,0-7.8-0.7-10-2
							c-2.2-1.4-3.3-3.4-3.3-6.2c0-2.1,0.8-3.7,2.4-4.9s4.8-2.3,9.6-3.4l3.1-0.7c6.4-1.4,10.9-3.3,13.6-5.8s4-6,4-10.4
							c0-5.1-2-9.1-6-12.1c-4-3-9.5-4.4-16.6-4.4c-2.9,0-6,0.3-9.2,0.9c-3.2,0.6-6.5,1.4-10,2.6v9.3c3.3-1.7,6.6-3,9.8-3.9
							c3.2-0.9,6.4-1.3,9.6-1.3c4.2,0,7.5,0.7,9.8,2.2c2.3,1.4,3.4,3.5,3.4,6.1c0,2.4-0.8,4.3-2.5,5.6c-1.6,1.3-5.2,2.6-10.8,3.8
							l-3.1,0.7c-5.6,1.2-9.6,3-12.1,5.4c-2.5,2.4-3.7,5.8-3.7,10c0,5.1,1.8,9.1,5.5,11.9c3.6,2.8,8.8,4.2,15.5,4.2
							c3.3,0,6.4-0.2,9.4-0.7C585.1,54.8,587.8,54.1,590.3,53.1z"/>
					</g>
					<g>
						<path id="DejaVuSans-29" d="M606.1,75.9h7.8c4.9-7.7,8.5-15.2,11-22.6c2.4-7.4,3.6-14.7,3.6-21.9c0-7.3-1.2-14.6-3.6-22
							c-2.4-7.4-6.1-14.9-11-22.6h-7.8c4.3,7.5,7.6,14.9,9.7,22.2c2.1,7.4,3.2,14.8,3.2,22.3c0,7.5-1.1,14.9-3.2,22.3
							C613.7,61,610.4,68.4,606.1,75.9z"/>
					</g>
				</g>
			</g>
		</g>
		<g id="matplotlib.axis_2">
			<g id="ytick_1">
				<g id="line2d_26">
				</g>
			</g>
			<g id="ytick_2">
				<g id="line2d_27">
				</g>
			</g>
			<g id="ytick_3">
				<g id="line2d_28">
				</g>
			</g>
			<g id="ytick_4">
				<g id="line2d_29">
				</g>
			</g>
			<g id="ytick_5">
				<g id="line2d_30">
				</g>
			</g>
			<g id="ytick_6">
				<g id="line2d_31">
				</g>
			</g>
			<g id="ytick_7">
				<g id="line2d_32">
				</g>
			</g>
			<g id="ytick_8">
				<g id="line2d_33">
				</g>
			</g>
			<g id="text_8">
				<g transform="translate(14.038594 162.68625) rotate(-90) scale(0.09 -0.09)">
					<g>
						<path id="DejaVuSans-49" d="M9.8,72.9h9.9V0H9.8V72.9z"/>
					</g>
					<g>
						<path id="DejaVuSans-6e" d="M84.4,33V0h-9v32.7c0,5.2-1,9-3,11.6c-2,2.6-5,3.9-9.1,3.9c-4.9,0-8.7-1.5-11.5-4.6
							c-2.8-3.1-4.2-7.3-4.2-12.6V0h-9v54.7h9v-8.5c2.2,3.3,4.7,5.8,7.6,7.4c2.9,1.6,6.3,2.4,10.1,2.4c6.3,0,11-1.9,14.2-5.8
							C82.8,46.3,84.4,40.6,84.4,33z"/>
					</g>
					<g>
						<path id="DejaVuSans-74" d="M111.2,70.2V54.7h18.5v-7h-18.5V18c0-4.5,0.6-7.3,1.8-8.6s3.7-1.9,7.5-1.9h9.2V0h-9.2
							c-6.9,0-11.7,1.3-14.4,3.9c-2.6,2.6-4,7.3-4,14.1v29.7h-6.6v7h6.6v15.5H111.2z"/>
					</g>
					<g>
						<path id="DejaVuSans-65_00000071557649982878686730000009369429995922503328_" d="M188.3,29.6v-4.4H147
							c0.4-6.2,2.3-10.9,5.6-14.1c3.3-3.2,8-4.9,13.9-4.9c3.4,0,6.8,0.4,10,1.3c3.2,0.8,6.5,2.1,9.7,3.8V2.8
							c-3.2-1.4-6.5-2.4-9.9-3.1c-3.4-0.7-6.8-1.1-10.3-1.1c-8.7,0-15.6,2.5-20.7,7.6c-5.1,5.1-7.6,12-7.6,20.6
							c0,8.9,2.4,16,7.2,21.3c4.8,5.3,11.4,7.9,19.6,7.9c7.4,0,13.2-2.4,17.5-7.1C186.1,44.2,188.3,37.7,188.3,29.6z M179.3,32.2
							c-0.1,4.9-1.4,8.8-4.1,11.8c-2.7,2.9-6.2,4.4-10.7,4.4c-5,0-9-1.4-12-4.2c-3-2.8-4.7-6.8-5.2-12L179.3,32.2z"/>
					</g>
					<g>
						<path id="DejaVuSans-6e_00000049181150021108644910000004072241715839604155_" d="M248.5,33V0h-9v32.7c0,5.2-1,9-3,11.6
							c-2,2.6-5,3.9-9.1,3.9c-4.9,0-8.7-1.5-11.5-4.6c-2.8-3.1-4.2-7.3-4.2-12.6V0h-9v54.7h9v-8.5c2.2,3.3,4.7,5.8,7.6,7.4
							c2.9,1.6,6.3,2.4,10.1,2.4c6.3,0,11-1.9,14.2-5.8C246.9,46.3,248.5,40.6,248.5,33z"/>
					</g>
					<g>
						<path id="DejaVuSans-73_00000086681276833833166750000009033846594683737487_" d="M301.3,53.1v-8.5c-2.5,1.3-5.2,2.3-7.9,2.9
							c-2.7,0.7-5.6,1-8.5,1c-4.5,0-7.8-0.7-10-2c-2.2-1.4-3.3-3.4-3.3-6.2c0-2.1,0.8-3.7,2.4-4.9s4.8-2.3,9.6-3.4l3.1-0.7
							c6.4-1.4,10.9-3.3,13.6-5.8s4-6,4-10.4c0-5.1-2-9.1-6-12.1c-4-3-9.5-4.4-16.6-4.4c-2.9,0-6,0.3-9.2,0.9
							c-3.2,0.6-6.5,1.4-10,2.6v9.3c3.3-1.7,6.6-3,9.8-3.9c3.2-0.9,6.4-1.3,9.6-1.3c4.2,0,7.5,0.7,9.8,2.2c2.3,1.4,3.4,3.5,3.4,6.1
							c0,2.4-0.8,4.3-2.5,5.6c-1.6,1.3-5.2,2.6-10.8,3.8l-3.1,0.7c-5.6,1.2-9.6,3-12.1,5.4c-2.5,2.4-3.7,5.8-3.7,10
							c0,5.1,1.8,9.1,5.5,11.9c3.6,2.8,8.8,4.2,15.5,4.2c3.3,0,6.4-0.2,9.4-0.7C296.1,54.8,298.8,54.1,301.3,53.1z"/>
					</g>
					<g>
						<path id="DejaVuSans-69" d="M318.5,54.7h9V0h-9V54.7z M318.5,76h9V64.6h-9V76z"/>
					</g>
					<g>
						<path id="DejaVuSans-74_00000114773014593134963310000015176444848718003102_" d="M355.2,70.2V54.7h18.5v-7h-18.5V18
							c0-4.5,0.6-7.3,1.8-8.6s3.7-1.9,7.5-1.9h9.2V0h-9.2c-6.9,0-11.7,1.3-14.4,3.9c-2.6,2.6-4,7.3-4,14.1v29.7h-6.6v7h6.6v15.5
							H355.2z"/>
					</g>
					<g>
						<path id="DejaVuSans-79" d="M408.2-5.1c-2.5-6.5-5-10.8-7.4-12.7c-2.4-2-5.6-3-9.7-3H384v7.5h5.3c2.5,0,4.4,0.6,5.8,1.8
							c1.4,1.2,2.9,3.9,4.5,8.3l1.6,4.1l-22.1,53.8h9.5l17.1-42.8l17.1,42.8h9.5L408.2-5.1z"/>
					</g>
				</g>
			</g>
		</g>
		<g id="line2d_34">
			<g>
				<defs>
					<rect id="SVGID_1_" x="23.4" y="7.2" width="446.4" height="271.8"/>
				</defs>
				<clipPath id="SVGID_00000101103352308611935850000018296789244543434150_">
					<use xlink:href="#SVGID_1_"  style="overflow:visible;"/>
				</clipPath>
				
					<path style="clip-path:url(#SVGID_00000101103352308611935850000018296789244543434150_);fill:none;stroke:#1F77B4;stroke-width:0.5;stroke-linecap:square;stroke-linejoin:round;" d="
					M23.5,203.1l0.2,0.2l0.2,2l0.2-1.7l0.2,0.6l0.2,1.1l0.2,3.6l0.2-3.3l0.2,3.4l0.2-2.4l0.2,0.7l0.2-1.4l0.2,1.7l0.2,0.3l0.2-1.1
					l0.2,1.6l0.2,0.5l0.2,1.7L27,209l0.2,1.7l0.2-4.5l0.2,5.6l0.2-1.5l0.2,0.8l0.2-0.6l0.2,0.2l0.2-0.9l0.2,1l0.2-0.2l0.2-1.6
					l0.2,0.8l0.2-0.2l0.4,3.2l0.2,0.1l0.2-1.5l0.2-3.6l0.2,5.3l0.2-0.1l0.2-0.7l0.2,0.5l0.2,1.9l0.2-0.2l0.2-4l0.2,3.6l0.2-0.5
					l0.2-0.9l0.2,2.1l0.2,0l0.4-1l0.2-1.6l0.2,1l0.2,4.4l0.2-4.1l0.4,2.4l0.2-2.5l0.2,3.1l0.2-2.6l0.2,3.2l0.2-2.4l0.2,2.8l0.4-2.5
					l0.2,1.7l0.2-3l0.2,2.4l0.2,0.3l0.2-1.8l0.4,4.4l0.2-0.7l0.2,0.3l0.2-1.3l0.2,1.2l0.2-3.9l0.2,3l0.2-3.2l0.2,5.7l0.2-3.2
					l0.2-0.9l0.4,2.7l0.2-0.8l0.2-0.3l0.2,0.6l0.2-1.7l0.2,1.8l0.2,0.6l0.4-2.4l0.2-1.6l0.2,0.2l0.2,4.5l0.4-3.3l0.2,3.2l0.2-1.8
					l0.2,1.9l0.2-0.7l0.2,1.9l0.2-2.6l0.2,1.5l0.2-0.7l0.2-2.4l0.2,3.5l0.2,0.7l0.2,1.5l0.2-3.9l0.2,2.9l0.2,0.2l0.2-4.4l0.2,1.8
					l0.2,0.2l0.2,2.6l0.2-3.4l0.2,0.7l0.2,2.3l0.2-3.5l0.2,3.2l0.2-2.8l0.2,3.2l0.2-4l0.4,3.9l0.2,0l0.2-2l0.2,4.1l0.2-2.5l0.2,2.5
					l0.2-3.4l0.2-1l0.2,1.2l0.2,2.6l0.2-0.9l0.2,0.2l0.2-1.7l0.2,2.1l0.4-2L51,222l0.2,0.5l0.2-1.8l0.2,1l0.2-1.5l0.2-0.1l0.2,2.4
					l0.4-3.4l0.2,4.2l0.2-3.8l0.2,0.1l0.2-0.5l0.2,1l0.2-0.1l0.2,0.7l0.2-2.1l0.4,6l0.2-2.2l0.2,1l0.2-1.9l0.2,1.5l0.2-1.3l0.2-3.8
					l0.2,2.1l0.2-1.8l0.2,2.5l0.4-0.3l0.2,2.9l0.2-3.6l0.2,2.2l0.2-0.5l0.2,0.7l0.2-1.3l0.2,1.5l0.2-2l0.2-0.5l0.4,2.2l0.2-2.1
					l0.2,1.7l0.2-0.3l0.2,1.4l0.2-3.7l0.2,2.5l0.2,0.5l0.2-3.6l0.4,2.1l0.2,1.5l0.2,0l0.2-2.2l0.2-0.4l0.2,2.1l0.2,0.1l0.2-0.2
					l0.2,2.7l0.2-4.1l0.2,1.6l0.2-1.3l0.2,0.8l0.2-3.2l0.6,4.7l0.2-1.5l0.2,1.1l0.2-0.2l0.2-2.2l0.2,1.9l0.4-0.7l0.2,0.7l0.2-0.8
					l0.2,0.4l0.2,1l0.4-2.8l0.2,3.7l0.4-3.3l0.2-0.4l0.4,1.9l0.2,0.7l0.2-2.2l0.2,3.2l0.2-1l0.2,2.3l0.4-3.8l0.2,0.4l0.2-2l0.6,2.8
					l0.2-0.4l0.2,1.7l0.2-2.4l0.2,1.9l0.2,0.4l0.2-0.9l0.2,2.1l0.2-0.2l0.2-0.5l0.2-3.2l0.2,3.2l0.2,1.3l0.2,0.2l0.2-1.9l0.2,0.7
					l0.2,2.7l0.2-3.1l0.2,2.2h0.2l0.2,1.2l0.2-0.9l0.2-1.5l0.2,1.2l0.6,1l0.4-1.1l0.2,1.2l0.2-0.7l0.2,3.8l0.4,1.1l0.2-3.2l0.2,1.7
					l0.2,0.7l0.2-1.6l0.4,2.1l0.2-0.2l0.2,2.8l0.2-4.7l0.2,3.2l0.2-1l0.2,1.3l0.2-2.4l0.2-0.3l0.4,2.4l0.2-0.6l0.2,1.6l0.2,0
					l0.2,0.8l0.2-3l0.2,2.5l0.2-1.1l0.2,1l0.2-0.1l0.2,0.1l0.2-0.4l0.2,0.7l0.2,2.2l0.2-3.7l0.2,1.8l0.4-1.7l0.2,4.7l0.2-1.9
					l0.2,0.4l0.2-1.6l0.2-0.1l0.2,2l0.2,0.6l0.4-0.6l0.2,1.8L85,236l0.2,1.8l0.2-1.4l0.2,0.2l0.2-0.4l0.2-0.7l0.6,4.4l0.2-1.9
					l0.2,0.4l0.2,1.6l0.4-2.2l0.2,1.2l0.2-0.7l0.2,0.4l0.2,2.2l0.2-3.5l0.2-0.1l0.2-0.2l0.2,2.9l0.2-0.1h0.2l0.2,0.7l0.2,0.2l0.2-2
					l0.2,0.3l0.2,1.2l0.2-0.5l0.2,1.5l0.2-0.2l0.2,0.3l0.2,0.8l0.2,0l0.2,0.4l0.2-1.8l0.2,0.1l0.2,0.7l0.2-0.8l0.2,2.1l0.2-0.2
					l0.4-0.1l0.2-2.8l0.2,3l0.2-1.5l0.2,0.5l0.2-0.5l0.4,0l0.6,1.9l0.2-2.2l0.2,3.3l0.2-1.9l0.2-0.1l0.2,0.3l0.6-1.5l0.2,3.6l0.2-1
					l0.2-0.2l0.2,1l0.2-0.4l0.2,0.6l0.2-2.1l0.4,1.8l0.2-1.7l0.2,1.8l0.2-0.6l0.2,1.6l0.2-0.5l0.2-0.2l0.2-0.7l0.2,0.5l0.2-1.8
					l0.4,2l0.2-1.5l0.2,0.8l0.2-0.2l0.2,1.2l0.2-3l0.2,2l0.2,0.1l0.2-0.3l0.2-0.8l0.2,2.1l0.4-1.8l0.2,0.1l0.4,1.3l0.2-3.5l0.2,2.9
					l0.2-0.6l0.2,1.3l0.2-1.6l0.4,2l0.2,0l0.2-0.8l0.2,2.8l0.2-0.4l0.2-1.1l0.2-0.2l0.2-2.3l0.2,3l0.4-2.8l0.2,3.8l0.2-2.2l0.2-0.5
					l0.2,0.9l0.2,0.1l0.2-0.3l0.2,1.3l0.8-1.7l0.2,1.1l0.2-4.1l0.2,4.6l0.2-2.2l0.2,0.9l0.2,0l0.2-1.6l0.2,1.1l0.2,0.5l0.2-1.1
					l0.2,0.8l0.2-0.7l0.2-0.2l0.2,1.8l0.2-0.7l0.2-2l0.2,2.1l0.2,0.5l0.2-2.5l0.2,1.3l0.2,0.2l0.2-0.7l0.2,0.5l0.2-0.2l0.2-1.5
					l0.2,1.8l0.2-0.1l0.4-1.5l0.4,0.4l0.2,1.9l0.2-2.8l0.2,1.9l0.2,0l0.2-2l0.4,2.3l0.2,0.4l0.2-0.4l0.4-2.7l0.4,3.1l0.4-2.1l0.2,1
					l0.2,0l0.2,0.3l0.2,0.8l0.2-2.4l0.2,1.7l0.2-2.3l0.2,0l0.2,2l0.2-2.2l0.2,2l0.4-2.1l0.2-0.2l0.2,1.5l0.2-0.9l0.2,2l0.4-1.9
					l0.2,0.2l0.2,0.6l0.2-1.9l0.2-0.2l0.2,2.8l0.4-3.1l0.2,1.8l0.2-1.1l0.2-2.2l0.2,3.4l0.2-1.1l0.2,0.5l0.2,1.8l0.4-4.4l0.2,4.3
					l0.2-2.8l0.4,1.5l0.2-0.3l0.4-1.5l0.2,0.8l0.4-1.5l0.2,1.4l0.2-2.1l0.2,4l0.2-2.3l0.2,0l0.2,1.6l0.2-1.3l0.2,0.2l0.2-1.2
					l0.2,1.1l0.2-1.2l0.2-2.8l0.4,2.1h0.4l0.2,1.5l0.4-4l0.2,2.4l0.2-0.3l0.2-1.5l0.2,0.9l0.2-0.6l0.2,1l0.2,0l0.2,0.1l0.2,0.5
					l0.2-1.6l0.2,0.2l0.2,0.7l0.2-1.4l0.2,1.1l0.2-1.6l0.4,1.6l0.2-1.2l0.2,1.3l0.2-1.8l0.2,1.3l0.2,0l0.2-1.6l0.2,1.3l0.2-0.6
					l0.2,2.2l0.2-3.8l0.2,1.4l0.2-0.6l0.2,0.1l0.2-2.3l0.4,1.5l0.2,2.1l0.2-1h0.2l0.2-1.3l0.4,1l0.2-0.2l0.2-1.9l0.2,2.4l0.6-1.7
					l0.2,0.6l0.2-0.2l0.2-1.3l0.2-0.2l0.2,0.5h0.2l0.2-0.1l0.2,1.8l0.2-2.2l0.2,1.1l0.2-0.8l0.2-1.6l0.2,1.8l0.2-0.7l0.2,1.1
					l0.2,0.4l0.2-3.9l0.2,2.3l0.2-0.1l0.4-0.4l0.2,2l0.2-1.1l0.2-1.9l0.2,4.3l0.2-3.6l0.4-0.2l0.4,0.9l0.2-0.1l0.2-2.4l0.2,2.9
					l0.2-2.5l0.2,0.7l0.2-1.3l0.2,3.4l0.2-3.3l0.2-0.3l0.2,0.7l0.2-1.7l0.2,3.6l0.2-0.1l0.2-0.9l0.2-0.2l0.2,0.1l0.2-0.6l0.4,1.7
					l0.2-2.5l0.2,1.5l0.2-0.2l0.2-0.7l0.2,0.2l0.2-0.1l0.2,2.3l0.2-3.1l0.2,1.1l0.2-1l0.2,1.4l0.2-0.2l0.4-3.1l0.2,2.5l0.2,0.5
					l0.2-0.7l0.2,1.4l0.2-3.4l0.2,1.2l0.4,0.6l0.2,0.9l0.2-0.8l0.2-1.8l0.2,2.3l0.2-2.8l0.2,0.9l0.2,1.9l0.4-3.2l0.2,3.7l0.2-0.3
					l0.2-2.6l0.4,2.2l0.2-2.7l0.2,1.1l0.2,0.1l0.2,1.6l0.4-1.9l0.2,1.3l0.2-2.9l0.4,5.5l0.2-3.4l0.2,0.8l0.2-3.7l0.2,5.3l0.2-0.2
					l0.2,0.1l0.2,1.7l0.2-3.4l0.2,2.2l0.2-2.3l0.2,1.1l0.2,2.8l0.4-3.2l0.2,2.1l0.2-0.9l0.2,0.4l0.2,1.3l0.2-0.4l0.4-2l0.2,3.5
					l0.2-2.2l0.2,1.6l0.2-0.5l0.2,0.3l0.2-0.5l0.2,2l0.2-2.1l0.2,0.5l0.2-0.5l0.2,1.3l0.2-1.2l0.2,0.6l0.2-1.1l0.2,2.8l0.2,0.8
					l0.2-3.6l0.2,3.6l0.2-1l0.2-2.8l0.2,2.7l0.4,1l0.2-2.1l0.2,3.8l0.2-0.6l0.2,0.4l0.2,2l0.2-2.4l0.2-0.7l0.2,1.5l0.2-3.2l0.6,4
					l0.2-0.8l0.2-0.2l0.2,3.2l0.2-4.2l0.2,0.4l0.2,0l0.2,0.8l0.2-1l0.2,3.9l0.2-3.6l0.2-0.6l0.2,1.5l0.2,0.5h0.2l0.2,0.3l0.2-0.4
					l0.2,1.7l0.2-0.2h0.2l0.2-0.8l0.2,0l0.2-0.3l0.4,2.2l0.2-2.7l0.6,3.8l0.2-2.9l0.2,2.5l0.2,0.1l0.2-1.5l0.2,1.2l0.2-1.7l0.4,3.2
					l0.4-4l0.2,1.7l0.2-0.1l0.2,3.5l0.2-2.2l0.2,2.1l0.2-0.7l0.2,0.2l0.2-3l0.4,3.3l0.2-2.1l0.2,1l0.4-1.6l0.2,3.4l0.2-3.1l0.2,1.3
					l0.4-0.9l0.4,1.8l0.2-1l0.2,0.6l0.2-0.8l0.6,1.1l0.2,1.5l0.2-2.3l0.6,0.8l0.2,0.2l0.2-0.1l0.4,1l0.2-1.7l0.2,1.5l0.2,0.4
					l0.2-1.2l0.2,0.5l0.2,1.1l0.2-1.6l0.2,1l0.2-2.1l0.4,1.4l0.2,1.5l0.2,0.2l0.2-0.8l0.4,0.7l0.4-0.3l0.2-1.3l0.2,1.8l0.2-1.3
					l0.2,1.1l0.2-1.1l0.4,2.9l0.4-3.5l0.2,1.7l0.2-0.7l0.2,0.4l0.2-0.4l0.4,0.9l0.2,0.6l0.2,2.1l0.4-3.3l0.2,0.3l0.2-0.1l0.2,1.2
					l0.2-0.4l0.2,0.9l0.2-0.6l0.2-2.6l0.4,2.8l0.2-2.2l0.2,2.1l0.2-0.2h0.2l0.2,0.8l0.2-1.1l0.2,0.3l0.2-0.7l0.4,2.2l0.2-1.7
					l0.2,0.3l0.2-1.2l0.2,0.2l0.2-0.1l0.4-0.6l0.2,2.3l0.2-2.2l0.2,1.3l0.2-0.6l0.2,0.7l0.2,0.1l0.2-1.4l0.4,2.2l0.4,0.5l0.2-1
					l0.2,0.7l0.2-1l0.2,0.4l0.2-0.7l0.2,0.9l0.2-1l0.2,2.1l0.2-0.3l0.2-2.2l0.6,2.5l0.2-0.6l0.2-1.3l0.2-0.3l0.2,2.3l0.2-2.1
					l0.4,1.9l0.2,1l0.4-0.7l0.2-1l0.4,2.1l0.2-2.4l0.2-0.7l0.2,0.8l0.2,0.3l0.2,0l0.2,0.8l0.2,1.9l0.2-3.6l0.2,1.1l0.2,1.8l0.2,0
					l0.2-1.3l0.2,0.5l0.2-0.8l0.4,0.8l0.2-0.8l0.2,1.5l0.2-1l0.2,0.1l0.2,0.9l0.2,0l0.2,0.8l0.2-0.5l0.2-0.1l0.2,1.6l0.2-2.1
					l0.2,0.3l0.2-0.2l0.2,0.2l0.2,1.7l0.4-2.7l0.4,1.1l0.2-0.5l0.2-1.9l0.2,2.5l0.2,1l0.4-1.7l0.2,0.4l0.2-0.3l0.2,1.7l0.2-2.9
					l0.2,2.3l0.2-0.6l0.4,1.2l0.2-1.3l0.2,0.5l0.2,0.9l0.2-1.1l0.2,0.2l0.2,1.2l0.2-1.1l0.2,0.3l0.2,0.6l0.2,1.2l0.2-2.5l0.2,0.6
					l0.2-0.5l0.2,1.5l0.2-0.4l0.2-0.7l0.2,0.4l0.2-0.4l0.4,2.5l0.2-2.7l0.4,1.3l0.2,0.1l0.2,0.3l0.2-2.3l0.2,1l0.2,0.1l0.2,0.4
					l0.2-0.6l0.2-1.4l0.2,2l0.2-1.5l0.2,1.1l0.2,2.4l0.2-2.8l0.2,2.1l0.2,0.2l0.2,1.2l0.2-2.1l0.2,0.2l0.4,1.2l0.2-1.1l0.2,1.3
					l0.2,0.2l0.2-1.4l0.2,0.7l0.6-1.3l0.4,0.9l0.2,0.2l0.4-0.4l0.2-1l0.4,1.5l0.2,1.2l0.2-2.3l0.2-0.2l0.2,0.1l0.2,1.1l0.2,0.2
					l0.4-1.4l0.2,2.1l0.2-1.8l0.2-0.1l0.2,1.9l0.2-2.1l0.2,2.4l0.2-2.1l0.2,0.8l0.2-1.7l0.2,3.2l0.2-0.7l0.2,0.1l0.2-0.5l0.2,0.1
					l0.2,2.1l0.2-1.8l0.2-0.2l0.2,0.7l0.2-0.6l0.2-1.7l0.2,1.2l0.2-1l0.2,1.8l0.2-0.2l0.2,0.2l0.2-0.6l0.2-1.2l0.2,1.9l0.2-0.2
					l0.2,1.1l0.2,0l0.2-2.1l0.2,0.4l0.2,1.9l0.2,0l0.2-1.3l0.2,0.4l0.2-0.4l0.2,0l0.4,0.5l0.4-3.7l0.4,2.5l0.4,0.2l0.2,0.4l0.2-0.7
					l0.2-0.1l0.2,0.4l0.2,0.9l0.2-1.5l0.2-0.2l0.2,0.5l0.2-2.2l0.2,1.3l0.2,2.2l0.2-3.3l0.2,1.5l0.2-1l0.2,0.1l0.2,1.6l0.2-1.3
					l0.2-0.4l0.2,0.4l0.2-0.5l0.2-1.5l0.2,0.8l0.2,0l0.2-1.9l0.2,2.3l0.2-0.2l0.2-2.5l0.2,1.9l0.2,0.3l0.2-3l0.2,1.2l0.2-2.2
					l0.2,1.8l0.2,0l0.2,0.3l0.2-0.8l0.2-1.8l0.2,2.8l0.4-4.1l0.2,2.3l0.2-0.4l0.2-0.8l0.2,1.3l0.2-3.3l0.2-0.7l0.4,2.8l0.2-2.3
					l0.6,1.5l0.4-1.8l0.2,1.7l0.2-1.4l0.2,2.6l0.2-2l0.2-0.2l0.4,1.6l0.2-2.7l0.2,3.8l0.2-1.1l0.4-0.7l0.2,0.4l0.2,0l0.2,1.9
					l0.2-0.9l0.2-1.9l0.2,2.7l0.2-0.9l0.2,0.6l0.2,1l0.4-2.6l0.4,1.7l0.2-1.3l0.6,2.5l0.2-0.1l0.2-0.6l0.2,2.1l0.2-2.2l0.2,0.7
					l0.2-0.2l0.2,0.4l0.2,0.8l0.2,0.2l0.2,1.7l0.2-1.5l0.2-0.4l0.2,2.4l0.2-3l0.2,1.6l0.2-1.9l0.2,1.3l0.2-0.4l0.2,1.1l0.2-1
					l0.2,2.9l0.2-0.7l0.2-1.4l0.2-0.6l0.2,1.1l0.2,0.4l0.2,1.3l0.2-0.9l0.2,1.3l0.2-2.8l0.2,2.5l0.4-1.6l0.2,1.1l0.2,0.1l0.2-1.3
					l0.2,2.1l0.4-1l0.2,0.1l0.2,0.9l0.4-1.6l0.2,0.7h0.2l0.2,2.2l0.2-1.5l0.2,1.5l0.4-1.9l0.2,1.6l0.2,0l0.2,0.2l0.2,1.9l0.4-4.5
					l0.2,2.4l0.4,0.6l0.2-0.7l0.2,1l0.2-0.9l0.4-0.3l0.2,0.7l0.2-0.3l0.2,0.3l0.2,2l0.4-3.2l0.2-0.7l0.2,0.1l0.2,1.7l0.2-0.7
					l0.2,0.4l0.2-0.6l0.4,0.6l0.2-1l0.2,1.7l0.2-1.2l0.2,0.2l0.2,0.4l0.2,2.1l0.2-0.8l0.2,0.2l0.2,0.5l0.2-1.6l0.2-0.1l0.2,0.2
					l0.2-0.9l0.2,1.6l0.8-0.3l0.2-1.1l0.2,0.4l0.2-1.1l0.2,1.9l0.2,0.7l0.2-2l0.2,1.5l0.2,0.4l0.2-0.2l0.2-0.4l0.2-0.9l0.2,1
					l0.2,0.4l0.2,0.7l0.2-0.2l0.2-2.2l0.2,1.7l0.2,0l0.2-1.2l0.2,1.2l0.2,0.5l0.2-0.2l0.2-0.6l0.2,1.9l0.2-2.8l0.2-1.2l0.2,3
					l0.2-1.6l0.2,0.7l0.2-0.1l0.4,1.8l0.2-0.5l0.2-1.1l0.2,0.8l0.2-1l0.2,2.3l0.2-0.6h0.2l0.4-3l0.2,1.8l0.2-1.3l0.2,3.4l0.2-1.6
					l0.2,0.4l0.2-2.1l0.2,2.3l0.2-1.6l0.4,2.8l0.2-1.8l0.2,1l0.2-2l0.4,4l0.2-3.1l0.4,1.4l0.2-0.5l0.2-0.2l0.2,0.2l0.2-0.6l0.2,0.8
					l0.2,2.6l0.2-4.1l0.2,1.7l0.2-1.1l0.2,2.1l0.2-0.7l0.2-1.2l0.2,1.5l0.2,0.1l0.2-2.9l0.2,0.8l0.2,2.1l0.2,0.9l0.4-2.9l0.4,2.5
					l0.2-2l0.2,1.5l0.2-0.6l0.6,1l0.2-0.6l0.2,1.3l0.4-1.1l0.2,0.1l0.2,0.4l0.2-0.8l0.2,0.2l0.2,1.2l0.2-1.5l0.2-0.5l0.4,1.6l0.2-1
					l0.2,0.9l0.2-1.3l0.2,1.1l0.2,0.4l0.2-1.7l0.2,2.8l0.2-1.6l0.2,1.5l0.2-1l0.2,1.6l0.2-1.3l0.2-0.4l0.2,0.8l0.2-1.6l0.2,1.6
					l0.2-0.7l0.4,1.5l0.2-2.3l0.2,1.6l0.2-0.3l0.6,1.5l0.2-0.8l0.2-1.5l0.2,1l0.2,0.2l0.2-0.8l0.2,1.1l0.2-1.9l0.2,2.1l0.2,0.5
					l0.2-1.1l0.2-0.2l0.2,1l0.2-0.8l0.2,2.1l0.2-1.8l0.2,1.1l0.4-2.3l0.4,1.4l0.2-0.3l0.2,0.4l0.2-0.2l0.2,0.1l0.2,1.4l0.2-0.1
					l0.2-0.7l0.2,0.6l0.2-0.4l0.2-0.9l0.2,0.8l0.2,1.6l0.2-2.7l0.2-0.1l0.4,0.8l0.2,0l0.2-0.4l0.4,0.9l0.2-0.1l0.2-1.2l0.2,2.1
					l0.2-0.9l0.2,1l0.2-2l0.2,1.8l0.6-1.8l0.2,1.8l0.2,0.2l0.4-1.3l0.4,1.5l0.2-1.6l0.2,1.2l0.2-0.5l0.2,0.4l0.2-2.1l0.2,1.8
					l0.2-0.8l0.2,1l0.2-0.5l0.2,0l0.2,0.2l0.2-1.7l0.2,2.1l0.2-0.7l0.2-0.2h0.2l0.2-1.6l0.2,0.8l0.4,0.5l0.2,1.2l0.4-1l0.4-0.6
					l0.4,0.8l0.2-0.3l0.2,0.9l0.2-1.7l0.2,1.2l0.2,0l0.2,0.4l0.2-0.5l0.2-0.1l0.2,0.1l0.2-1.2l0.2,1.1l0.2,0.2l0.2-0.8l0.2,1.7
					l0.2-2.2l0.2,0.9l0.2-0.4l0.2,1.7l0.4-2.3l0.2,2.2l0.4-2.8l0.2,1.8l0.2,0.4l0.2-0.3l0.2,0.2l0.2-1.6l0.4,1.5l0.2-0.1l0.2-1.3
					l0.2,0.2l0.2,0.7l0.4-0.4l0.2-0.6l0.2,1l0.2-0.6l0.2-0.1l0.2,1.9l0.4-1.5l0.2,0.3l0.2-0.7l0.2,0.9l0.4-1.3l0.2,1l0.2-0.5
					l0.2,1.3l0.2-1.7l0.4,1.4l0.2-0.6l0.4-0.4l0.4,1.6l0.6-2.5l0.2,1.8l0.2,0.7l0.4-1.6h0.2l0.2-0.6l0.2,1.7l0.4-1.4l0.2,1.4
					l0.2-0.8l0.2,0.3l0.2-0.7l0.2-0.2l0.2,0.2l0.2,0.5l0.2,1l0.2-1.9l0.2-0.3l0.2,1.2l0.2,0.1l0.2,0.9l0.2-1.3l0.2-0.2l0.2,0.2
					l0.2-0.7l0.2-0.1l0.2,1l0.2-1.5l0.2,1.3l0.4,1l0.2-1l0.2,1.2l0.2,0.3l0.2-0.1l0.4-1.7l0.2,0l0.2,1.5l0.2-0.5l0.2,0.5l0.6,0.3
					l0.4-1.9l0.2-0.1l0.2,1.7l0.2-2.9l0.2,2.4l0.2-0.5l0.4,0l0.2-0.7l0.4,2.2l0.2-0.2l0.2-1.5l0.2,1.7l0.2-0.1l0.2-1.5l0.2,0.2
					l0.4,2.1l0.2-1.7l0.2,0.8l0.2-1.6l0.2,1.6l0.2-0.8l0.2,1.6l0.2,0.2l0.2-1.1l0.2,1l0.2-0.7l0.2,1.3l0.4-2.7l0.2,1.5l0.2-1.7
					l0.2,3.1l0.2-2.2l0.2,0.4l0.2,0.7l0.2-0.9l0.2,0.5l0.2-1l0.2,1.6l0.4-2l0.2,0.2l0.4,2.1l0.2-1.3l0.2,0.5l0.2,1.2l0.2-1.4
					l0.2-0.1l0.2,1.3l0.2-1.1l0.2,0.3l0.2,0.8l0.4-0.7l0.2-0.2l0.2,0.5l0.2,0l0.2,0.3l0.2,1.1l0.2-2.3l0.2-0.2l0.2,1.4l0.2,0.1
					l0.2-0.9l0.2,0l0.2,1.7l1-1.5l0.2-0.6l0.4,0.4l0.2,1.9l0.4-1.3l0.2,0.4l0.2-1l0.2,0.1l0.4,1.5l0.6-1l0.4,1.7l0.2-0.5l0.4-1.6
					l0.2,1l0.2,0.3l0.2-1.5l0.2,1.3l0.2,0.1l0.2,0.3l0.2-0.6l0.2,0.2l0.2,1.1l0.2-1.1l0.2,0.8l0.2-1.3l0.2,0.2l0.2,2.1l0.2-1.1
					l0.2,0.1l0.2,0.6l0.4-1.7l0.2-0.6l0.2,0.7l0.2,0l0.2,0.1l0.2,0.7l0.2-0.2l0.2,0.4l0.2-1.1l0.2,2.3l0.4-2.5l0.2,1.1l0.2,0.1
					l0.2,0.5l0.2-1l0.2,1l0.2-0.1l0.4-0.6l0.2,0.2l0.2,0.6l0.2-1.1l0.4,1l0.2-0.5l0.2,0.6l0.2,1l0.2-1.1l0.2,0.2l0.2-0.7l0.2,0.2
					l0.2,1.3l0.2-1.8l0.4,1.6l0.4-1.2l0.4,1.5l0.2-1.2l0.2,1l0.2-1l0.2,0.4l0.2,0l0.2-0.3l0.2,1.1l0.2,0l0.6-1.9l0.2,1.9l0.2,0.1
					l0.4-1.5l0.2,1.6l0.2-2.2l0.2,2.3l0.2-0.8h0.2l0.2,1.1l0.2-2l0.2,0.8l0.2-0.6l0.2,2.1l0.2-1.8l0.4,1.1l0.2-1.9l0.2,1.3l0.2,0
					l0.2-0.2l0.2,0.1l0.2-1.6l0.2,2.7l0.2-2.1l0.2,0.6l0.2,1.2l0.2-1.7l0.2,0.1l0.4,1l0.2,0.1l0.2-1.9l0.2,1.8l0.2-0.2l0.2,0.3
					l0.4-1.1l0.2,1.7l0.2-1.2l0.2,0.4l0.4,0.1l0.2,0.4l0.2,0l0.2-0.8l0.2,0.4l0.4,1.2l0.2,0.2l0.2-0.7l0.2-1.7l0.2,1l0.4,0.2
					l0.2,0.3l0.2-0.2l0.2-0.4l0.2,0.2l0.4,0.7l0.2-0.1l0.2-0.4l0.2,0.3l0.2-0.5l0.2,0.8l0.2-0.5l0.2-1l0.2,0.5l0.2-0.8l0.2,2.1
					l0.4-1l0.2,1.5l0.2-0.2l0.4-1.7l0.2,1.5l0.2-0.7l0.4-0.1l0.2,0.9l0.2-1.7l0.2,1.2l0.2,0.1l0.2-0.6l0.2,1.2l0.2-0.4l0.2-2.3
					l0.2,1.5l0.2,0.5l0.2-0.4h0.2l0.2,0.8l0.2-1.1l0.2,0.1l0.2,0.8l0.4-1.3l0.2,1.1l0.2,0.2l0.2-0.4l0.2-0.1l0.2-0.5l0.2,0.6
					l0.2-0.1l0.2-1.1l0.2,0l0.2,1.6l0.2,0.6l0.2-1.8l0.2,0.7l0.2,0.2l0.2,0l0.2,0.6l0.2-0.9l0.2,0.2h0.2l0.2,1l0.2-1.6l0.2,0.6
					l0.2-0.1l0.2-1.3l0.4,2.1l0.2-1.6l0.4,2l0.2-1.9l0.2,0.7l0.2-0.5l0.2,0.8l1-0.7l0.2,1.6l0.2-1.7l0.2,0.9l0.2-0.3l0.2,0.2
					l0.2-0.4l0.2-0.7l0.2,1.8l0.2,0.2l0.2-0.8l0.2,0.6l0.4-1.7l0.2,0.3l0.2,1.5l0.2-1.2l0.2,0.2l0.2-0.2l0.2-1.4l0.2,1.6l0.2,0.7
					l0.2-1.2l0.2,1.1l0.2,0.2l0.2-0.2l0.2-1.2h0.2l0.2,1.3l0.2-0.7l0.2,0.6l0.2,0.2l0.2-0.2l0.2,0.1l0.2,0.2l0.2-0.5l0.4,0.1
					l0.2,0.2l0.2-0.2l0.2,0.1l0.2,0.5l0.2-0.1l0.2-1.9l0.2,1.3l0.2,0.5l0.2-0.2l0.2-0.6l0.2,0.4l0.2,0.1l0.2-0.4l0.2,0.2l0.2,0.5
					l0.2-0.7l0.2,0.7l0.2-0.2l0.2-0.7l0.2,0.2l0.2-0.2l0.2,0.7l0.2-1.1l0.2,1.6l0.2-1.1l0.2,0.9l0.2-1.4l0.4,1.7l0.2-1.4l0.2,0.2
					l0.2,0.8l0.2-0.7l0.2-0.1l0.4,1.1l0.2-2.1l0.2,0.7l0.2-0.7l0.2,2.1l0.2-1.9l0.4,1.2l0.2,0.7l0.2-0.7l0.2,1.3l0.2-0.8l0.2,0.3
					l0.2-0.3l0.2-1.7l0.4,1.2h0.2l0.2-0.7l0.4,1.6l0.4-1.6l0.2,1.9l0.4-1.3l0.2,0l0.2,0.2l0.2-0.3l0.2,0.7l0.2-0.8l0.4,1.2l0.2-0.4
					l0.2-0.7l0.2,0.9l0.4-0.5l0.4-0.7l0.2,0.7l0.2,0l0.2-0.4l0.6,1.6l0.2-1.3l0.2,0.1l0.2-0.4l0.2,0.8l0.2-0.6l0.2,0.3l0.2-0.5
					l0.2,0.1l0.2,0l0.2-0.2l0.2,0.7l0.4-0.1l0.2-0.4l0.2,0.6l0.2-0.4l0.2,0.5l0.2-0.6l0.2,1l0.4-2.1l0.2,1.6l0.2-0.1l0.2-0.9
					l0.2,1.1l0.2,0.1l0.2-1l0.2,0.9l0.2,0.1l0.2-1.2l0.2,1l0.2-0.6l0.2,0.8l0.2-0.4h0.2l0.2-0.8l0.2,0.3l0.2-0.7l0.2,1.5l0.2-1.1
					l0.2,1.9l0.2-1.3l0.2-0.2l0.4,0.2l0.2-0.4l0.2,0.8l0.2-0.8l0.2-1.8l0.2,0.8l0.2,2l0.2-1.8l0.2,0.6l0.2,0.2l0.2-1l0.2,1.6
					l0.2,0.6l0.2-1.7l0.2,0.5l0.2-0.3l0.2,1.1l0.2-0.8l0.2,0l0.2,0.3l0.2-0.7l0.4,0.1l0.4,0.7l0.4-1.5l0.2,1.6l0.2-1.1l0.6,0.7
					l0.2-0.7l0.2,1.5l0.2-0.5l0.2-0.1l0.2,0.5l0.2-1.2l0.2,0.4l0.2-0.1l0.2-0.6l0.4-0.1l0.2-0.8l0.2,1.3l0.2-0.7l0.2,0.2l0.2,0.5
					l0.4-1.1l0.2,1.3l0.2-1.4l0.2,0.3l0.2-1.2l0.2,2l0.2-0.3l0.2,0l0.2-1.4l0.2-0.2l0.4,0.7l0.2-0.3l0.2,1.5l0.4-2.4l0.2,0.7
					l0.2-0.6l0.2-0.2l0.2,0l0.2,0.2l0.2-0.2l0.2-0.8l0.2,0.9l0.4-1.6l0.4,0.3l0.2-1.5l0.4,1l0.2-0.4l0.4-1.8l0.2,2.3l0.2-0.2
					l0.4-2.5l0.2,0.4l0.2-0.2l0.2,1.1l0.2-1.6l0.2,1.4l0.4-1.6l0.2,0.1l0.2-0.6l0.2,1l0.2,0.2l0.2-0.8l0.2,1.6l0.2-2.8l0.2,2.2
					l0.2-1.2l0.2,0.4l0.2,1l0.2,0.2l0.2,1l0.2-1.2l0.2,1l0.2-0.4h0.2l0.2-1.2l0.2,1.8l0.4-2.5l0.2,2.4l0.2-0.3l0.2-1.3l0.2,1.5
					l0.2-0.8l0.2-0.3l0.2,2.9l0.2-3.1l0.2-0.1l0.2,1.5l0.2-0.5l0.4,0l0.2,1l0.2,0l0.2-0.4l0.2,0.1l0.2-0.1l0.2,0.3l0.2-0.4l0.2,0.1
					l0.2-0.5l0.4,1.8l0.2-0.1l0.2-1.3l0.2,1.1h0.2l0.2,0.3l0.2-0.5l0.6-0.4l0.2-0.2l0.4,1.5l0.2-1.9l0.2,2.6l0.4-1l0.2,0.2l0.2,0.4
					l0.2,1l0.2-0.7l0.2,0.5l0.2-0.1l0.2-0.6l0.2,0.2l0.2,0.8l0.4-0.7l0.2,0.4l0.4,0.2l0.2,0.6l0.2-1.6l0.2,1.8l0.2,0.1l0.2-0.5
					l0.2,0.7l0.2-0.5l0.2-0.1l0.2,0.3l0.2-0.3l0.2,1.3l0.2-0.5l0.2,0.1l0.2-1l0.2,1.1l0.2-1.4l0.2,1.4l0.2-0.5l0.2,0.8l0.2-0.1
					l0.2-2.1l0.2,2.3l0.2-1.8l0.2,1.4l0.4-1.1l0.2,0.9l0.2-0.4l0.2,0.7l0.4-0.7l0.4,1.6l0.2-1.1l0.4,1.1l0.2-1.1l0.4,0.6l0.2,0
					l0.2-0.5l0.4,0.8l0.2-0.6l0.2,1.6l0.4-1.8l0.2,0.7h0.2l0.4,0.7l0.2-0.1l0.2-1.6l0.2,1.7l0.2,0.5l0.2-0.4l0.2-1.1l0.2,1.8
					l0.2-1.1l0.2-0.2l0.2,0.6l0.2-1.1l0.2,1.1l0.2-0.2l0.2-0.5l0.4,1.4l0.2-1.4l0.2,1l0.2-0.2l0.2-0.9l0.2,0.1l0.2,0.7l0.2-0.8
					l0.2,0.6l0.2,0l0,0"/>
			</g>
		</g>
		<g id="line2d_35">
			<g>
				<defs>
					<rect id="SVGID_00000024705104282979765620000003125597723132568242_" x="23.4" y="7.2" width="446.4" height="271.8"/>
				</defs>
				<clipPath id="SVGID_00000032610533390191183760000008522359457925524120_">
					<use xlink:href="#SVGID_00000024705104282979765620000003125597723132568242_"  style="overflow:visible;"/>
				</clipPath>
				
					<path style="clip-path:url(#SVGID_00000032610533390191183760000008522359457925524120_);fill:none;stroke:#FF7F0E;stroke-width:0.5;stroke-linecap:square;stroke-linejoin:round;" d="
					M23.5,161.7l0.4-2l0.4,3.1l0.2-1.4l0.2,1.7l0.2-1.3l0.2,2.7l0.2-1.5l0.2,2.1l0.2-1.4l0.2-0.1l0.2,3.2l0.4-3l0.2,1.5l0.2-1.8
					l0.2,1.5l0.2-1.1h0.2l0.2,2.5l0.4-3l0.2,3.5l0.2,0.6l0.2-1.2l0.2,1.2l0.2-2.9l0.2,0.7l0.2,2.8l0.2,0.1l0.2-2.9l0.4,2.2l0.2,1
					l0.2,2.2l0.2-3.3l0.2-0.6l0.2-1.9l0.4,6.5l0.2-5.8l0.2,0.6l0.2-1l0.2,2.2l0.2,0.8l0.2-0.9l0.2-0.1l0.4,3.4l0.2-4.5l0.2,1.8
					l0.2,3.8l0.2-5.7l0.2,3.8l0.2,0l0.2,0.5l0.2,1.5l0.2-1.7l0.2,4.7l0.4-6.3l0.4,5.6l0.2-0.4l0.2-4.3l0.2,2.5l0.2-0.1l0.2,1.2
					l0.2-1.8l0.4,1.7l0.4,0.7l0.4-3.3l0.2,1.9l0.2-1.5l0.4,3.2l0.2-0.2l0.2-2.6l0.2,0.5l0.2,3.4l0.2-1.7l0.2,0.3l0.2,1h0.2l0.2-2.4
					l0.2,1.3l0.4-0.7l0.2-2.3l0.4,5.7l0.2-1.5l0.2,1l0.2-3.4l0.2,2.8l0.2,1l0.2-0.4l0.2-2.2l0.2-0.1l0.2,2.7L44,171l0.2,3l0.2,0.5
					l0.2-3.3l0.2,1l0.2,0l0.2,1.6l0.2,0l0.2,1.7l0.2-1.5l0.2,3.2l0.2-3.5l0.2-1.3l0.2,0.1l0.2,3.5l0.2-2.5l0.2,1.1l0.2-2.4l0.2,3.4
					l0.2-3.4l0.2,2.1l0.2-0.1l0.2-1.5l0.2,2.6l0.2-1.1l0.2-0.3l0.2-0.9l0.2,0.3l0.2-0.6l0.2,2.7l0.2-3.1L50,173l0.4,3.2l0.2-0.3
					l0.2-2.8l0.2-0.2l0.2,2.8l0.2-3.1l0.2,1.4l0.2,2.3l0.2-3.3l0.4,4.8l0.4-5.7l0.2,0.4l0.2,2.2l0.4-1.1l0.2-1.3l0.2,3.2l0.6-3.5
					l0.2-0.2l0.2,0.9l0.2,2.4l0.2-4.5l0.2,2.7l0.2-2.3l0.2,0.5l0.2-0.4h0.2l0.2-0.2l0.2,3.2l0.4-1.7l0.2,0.3l0.2-0.2l0.2-3.6
					l0.2,2.2l0.2-0.2l0.2,1l0.6-2.8l0.2,0l0.2,1.5l0.2-1.6l0.2-0.1l0.2-1.8l0.2,0.4l0.2,0.1l0.2,2.1l0.4-2.8l0.2,1.6l0.2-2.3
					l0.2,1.1l0.2-0.5l0.2-3.4l0.2,0.5l0.2,3.4l0.2-0.6l0.2,1l0.2-3.7l0.2,0.8l0.2,1.3l0.2,0.1l0.2-1.9l0.2,3.6l0.2-3.4l0.2,0.1
					l0.2-2.8l0.2,5.2l0.2-3.5l0.2,3.3l0.2-4.4l0.2-1.6l0.2,0.2l0.6,5.2l0.2-2.2l0.2,1l0.2-1.3l0.2-2.7l0.2,1h0.2l0.2,0.3l0.2-1.8
					l0.4,2.4l0.2-4.3l0.2,1.1l0.2,3.1l0.2,0l0.2-3.1l0.2,1.9l0.2,3.6l0.4-4.3l0.2,1.8l0.2-4.9l0.2,2.2l0.2,0.9l0.2-1.6l0.2,3
					l0.2-2.1l0.4,2.9l0.2-2.8l0.2,3.1l0.2-1.3l0.2,1.8l0.2,0l0.4-2l0.2,1.7l0.2-2.2l0.2,2.1l0.4,1.7l0.4-2.2l0.2,2.6l0.2,0.3
					l0.2,2.3L75,164l0.2,1l0.2-0.6l0.2,3.7l0.2-0.1l0.2-2l0.2,3.9l0.2,1.5l0.2-0.1l0.2-3.4l0.2,2.5l0.2-1.2l0.2,2.2l0.2-1.2h0.2
					l0.2,0.8l0.2,1.7l0.2-0.1l0.2-1.5l0.2,2.8l0.2-0.7l0.2-2l0.4,5.8l0.2-4.6l0.2,1.2l0.2,2l0.2-0.6l0.2-1.5l0.2,3.6l0.2-1l0.2,0.2
					h0.2l0.2-2.5l0.2,5.3l0.2-0.8l0.2,0.6l0.2-1.5l0.4,1.2l0.2-1.2l0.2,2.9l0.2-0.2l0.2,3l0.2-1.8l0.2,0.4l0.2,2.2l0.2-0.2l0.2-0.8
					l0.2,0l0.4-0.7l0.4,0.5l0.2-1l0.2,2.7l0.2-1.4l0.2,1.3l0.2-2.7l0.2,5l0.4-3.6l0.4,2.8l0.2,0.4l0.2,0.8l0.4-0.8l0.2,1.3l0.2,0.2
					l0.2,0.6l0.4-2.8l0.2,0.2l0.2,3l0.2-2.1l0.4,1.3l0.4,0.7h0.2l0.2-0.2l0.2,0.3l0.2,1.1l0.2-0.5l0.2-1.6l0.2,0.2l0.2,1.2l0.2-1.4
					l0.2,2.4l0.2,0.8l0.2-1.2l0.2,0.1l0.2,0.3l0.2-2.8l0.2,4l0.2-0.8l0.2-2.2l0.4,3.5l0.2-1.5l0.2,0.5l0.4-1.1l0.2,2l0.2-0.6
					l0.2,0.4l0.2-2l0.2,2.2l0.2-1.1l0.2,2.2l0.2-1.5l0.2,1.1l0.2-0.1l0.2-0.6l0.2,2.2l0.2-0.6l0.2-2.2l0.2,0.5l0.2,1.9l0.2-0.6
					l0.2,0.2l0.2-1.2l0.2,2.2l0.2-2.1l0.2,1.8l0.2-1.8l0.2,1.3l0.2-1.6l0.2,2.3l0.2-0.4l0.2,0.3l0.2-2.5l0.2,0.9l0.4,0.6l0.4,1.1
					l0.2-0.9l0.2,2.2l0.2,0.5l0.2-2.6l0.2,0.2l0.2,2.2l0.2-3.1l0.2,1.2l0.2,0.2l0.2-2.2l0.2,2.4l0.2,0.6l0.2-1.6l0.2,1.5l0.2-0.6
					l0.2,0.6l0.2-0.6l0.2,2.4l0.4-2.4l0.2,1.2l0.2-1.7l0.4,2.3l0.4-1.6l0.2,1.1l0.2-0.9l0.2,1.3l0.2-0.3l0.2-0.9l0.2-1.7l0.2,2.9
					l0.2-1.2l0.2-0.2l0.4,2l0.2,0.3l0.2-0.6l0.4,0.1l0.2-0.3l0.2-1.1l0.2,2l0.2-2.2l0.2,0l0.2,0.2l0.2,0.5l0.2-0.2l0.2,0.1l0.2-0.5
					l0.2,1.6l0.2-2.1l0.2,3.3h0.2l0.2-2.7l0.2,0.6l0.2-0.2l0.2,1.3l0.4-0.6l0.2,1.2l0.2-2.8h0.2l0.2,2.2l0.2-0.7l0.2,0l0.2,1.3
					l0.2-0.1l0.2-1.7l0.2,1.8l0.2,0.2l0.2-0.7l0.2-1.2l0.2,0.1l0.2-0.1l0.2,2.3l0.4-2l0.2-0.1l0.2,0.3l0.2,0.6l0.2-0.7l0.2,0.2
					l0.4,1.2l0.2-2.2l0.2,2.6l0.2-2.1l0.4,1.1l0.2-0.4l0.2,0.3l0.2-1.1l0.2,1.2l0.4-1.8l0.4,1.9l0.4-1.8l0.2,1.1l0.2,0.4l0.2-0.1
					l0.2-0.4l0.2,1.4l0.2-1.7l0.2,0.5l0.2-0.5l0.2,0.9l0.4-1.2l0.2,1l0.4,0.5l0.2-2.5l0.2,0.1l0.2,0.6l0.2,2.8l0.4-1.6l0.4,0.7h0.4
					l0.2-1.8l0.2,0.7l0.2-0.1l0.2-1.5l0.2,0.2l0.2,0.6l0.2-1.2l0.2,2.7l0.2-0.5l0.2,0.2l0.2-2l0.2,2.4l0.2-2.1l0.2-0.1l0.2,2.2
					l0.2-1.2l0.2,0.1l0.2-1.6l0.2,2.5l0.2,0.2l0.2-0.2l0.2-2.3l0.2,2l0.2-0.1l0.2-0.7l0.2,0.5l0.4-0.7l0.2,0.1l0.2-1.2l0.2,1.5
					l0.2,0.1l0.2-1.3l0.2-0.1l0.2,0.8l0.2,0.2l0.2,1.5l0.2-2.4l0.6,0.9l0.2,0.1l0.2-2.1l0.2,2.6l0.2,0.8l0.2-2.7l0.2-0.5l0.2,1.3
					l0.2,0.2l0.2-0.3l0.2-1.3l0.2,1.7l0.2,0.2l0.2,0.7l0.2-1.4l0.2-0.3l0.2,1.6l0.2-1.9l0.2,0.5l0.2-0.2l0.2,0.9l0.2-0.4l0.2-1.3
					l0.2,1.2l0.2-1.4l0.2,0.4l0.4,0.1l0.2-1.2l0.2,1.7l0.2-1.9l0.2,1.2l0.2-0.4l0.4,1.7l0.6-2.3l0.2,1l0.2-0.1l0.2-1.5l0.2,0.6
					l0.2,0.2l0.2-0.7l0.2,0.1l0.2,2l0.2-2.6h0.2l0.2,1.1l0.2-2l0.2,1.8l0.2-1.5l0.2,1.9l0.2-2.7l0.2,2.5l0.2-2.8l0.4,1.8l0.2,0.1
					l0.4-2.5l0.2-0.2l0.2,0.1l0.2,0.7l0.2-1l0.2,0.1l0.2-1.3l0.2,1l0.2-1.2l0.4,2l0.2,0.5l0.2-2l0.4,2.5l0.4-1.6l0.2,0.8l0.2-3
					l0.2,1l0.2-0.9l0.2,1.8l0.2-2.4l0.2-0.2l0.2,2.5l0.2-3.7l0.2,1.5l0.2-0.8l0.2-0.1l0.2,1.1l0.2-0.5l0.2,0.1l0.2,1.3l0.2-2.2
					l0.2-0.2l0.2,0.7l0.2-1.7l0.2-0.1l0.2,1l0.2,1.9l0.2-2.2l0.2,1.1l0.2-0.2l0.8-3l0.2,2.8l0.2-3.7l0.2,3.1l0.2-0.3l0.2-3.3
					l0.2,5.3l0.2-4.2l0.2,2.5l0.2-0.7l0.2,0.2l0.2-2.2l0.2,3.5l0.2-1.3l0.2-0.4l0.2,0.4l0.2-2.1l0.2,2.1l0.2-1.6l0.2,3.8l0.2-3.7
					l0.2,2.2l0.2,0.4l0.2-3l0.2,3.5l0.2-1.9l0.2,0.6l0.2-1.6l0.2,1.9l0.4-1.2l0.2,1.8l0.2-2.8l0.4,1.8l0.2-0.7l0.2,2.5l0.2-1.5
					l0.2,2.3l0.2-1.5l0.2-0.5l0.2-1.5l0.2,4.1l0.4-2.1l0.2,2.3l0.2,0.1l0.2-0.2l0.2,0.3l0.2-1.4l0.2,2.5h0.2l0.2-1.5l0.2,0l0.2-0.7
					l0.4,3.1l0.2-0.5l0.2-3.7l0.4,3.8l0.2,0l0.2-1.6l0.2,2.5l0.2-1.1l0.2,1.9l0.2-0.8l0.4-2.7l0.2,2.9l0.2,0.9l0.2-1.7l0.2,2.8
					l0.2-3l0.2-0.8l0.2,2.5l0.2-0.1l0.2-2.4l0.2,0.6l0.2,2.4l0.2-0.4l0.2-1.6l0.2-0.6l0.2,3.5l0.2-2.6l0.2-0.6l0.4,2.5l0.6-2.7
					l0.2,2.6l0.2-0.8l0.4,1.8l0.2-1.3l0.2-0.5l0.2,2.3l0.2-2.6l0.2-0.6l0.4,2.1l0.2-1.8l0.2,0.2l0.2,1.7l0.2-0.9l0.2,0.5l0.2-0.8
					l0.2,0.5l0.2,0.1l0.2,0.8l0.2-0.2l0.4-2.4l0.4,2.9l0.2-0.8l0.2,0.2l0.2-1.2l0.4,1.4l0.2-1.8l0.6,1.2l0.2,0.1l0.2-1.6l0.2,1.1
					l0.2-1.8l0.4,1.5l0.6-1.2l0.2,1.7l0.2-1l0.2,1l0.2,0.3l0.2-1.5h0.2l0.2,2.2l0.2-1.2l0.2-2.4l0.2,2.7l0.2-2l0.4,2.8l0.2-0.2
					l0.2-1.3l0.2,0.7l0.2-1.8l0.2,1l0.2,0l0.2,0.4l0.2-1.5l0.2,2.9l0.2-2.7l0.2,0.7l0.2,0.1l0.2,1l0.4-1.7l0.4,1l0.2-0.7l0.2,0.7
					l0.2-0.9l0.4,1l0.2-1.5l0.2,0.9l0.2,0.2l0.2,0.5l0.2-3.4l0.2,2.5l0.2-0.8l0.2,0.6l0.2-0.8l0.2-0.2l0.2,1.5l0.2-1.7h0.2l0.2-0.6
					l0.2,1.8l0.2,0.1l0.2-0.1l0.2,0.6l0.2-1.1l0.2,0.3l0.2-0.2l0.2-1.3l0.2,0.8l0.2-1.5l0.2,0.9l0.2,2l0.2-1l0.2,0.6l0.2,0l0.2-0.7
					l0.2-1.6l0.4,1.8l0.2-1l0.2,0.2l0.4-1.4l0.2,2.3l0.2-0.1l0.2-0.5l0.2,0l0.4-2.1l0.2,3.2l0.2-2.3l0.2,0.8l0.4-0.1l0.2,0.8
					l0.2-1.2l0.2,0.6l0.2-1.8l0.2,0.3l0.2,2.9l0.2-0.8l0.2,0.1l0.2-0.2l0.2-1.5l0.2,3.5l0.2,0.2l0.2-1l0.2,0.3l0.4-2.9l0.2,3.8
					l0.2-3.3l0.2-0.8l0.2,3.4l0.4-2.8l0.2,2l0.2-1.6l0.2,0.4l0.2,1.4l0.2-0.2l0.2,0.4l0.2-0.8l0.2-2.6l0.2,3.5l0.2-0.8l0.2-0.3
					l0.2-1l0.4,2.5l0.2-0.2l0.2-1.9l0.2,1.4l0.2-2.2l0.2,3l0.2-1.6l0.2,1.2l0.2-0.1l0.2-1.2l0.2,0.8l0.2-0.2l0.2,1.1l0.2-0.7
					l0.2,1.1l0.2-1l0.2,1.4l0.2-3l0.6,1.6l0.2,1l0.2-2.2l0.2,1.4l0.2,0l0.2,1.2l0.2-2.5l0.2,1.1l0.2-1.1l0.2,5.5l0.2-6.2l0.2,2.7
					l0.4-1.2l0.2,2.1l0.4-1.8l0.2-1.2l0.2,2.3l0.2,0.1l0.2,1.5l0.2-1.9l0.2,2.7l0.2-1l0.2-1.7l0.2-0.6l0.2,2.9l0.2-0.9l0.2,0.7
					l0.2-2.4l0.2,1.5l0.2-1.1l0.2,1.2l0.2,2.1l0.2-1.9l0.2,0.9l0.2-1.9l0.2,0.5l0.2-1.1l0.4,3.8l0.2-1.5l0.2,1.1l0.2-1.1l0.2,1.3
					l0.2-2.4l0.2,1l0.2,0l0.2,1.1l0.2-0.7l0.2,1.2l0.2-2.2l0.2,1.8l0.2,0.2l0.2,0.4l0.4-2.5l0.2,2.7l0.2-1.4l0.2,2.2l0.2-2.3
					l0.2,2.1l0.2,0.7l0.4-3.1l0.2,2.1l0.2,0.1l0.6-0.7l0.2-0.9l0.2,1.5l0.2-1.3l0.2,0.4l0.2,2.2l0.2,0l0.2-1.7l0.4,2.6l0.2-2.5
					l0.4,1.7l0.2-1.7l0.2-0.4l0.2,1.7l0.2-0.7l0.2,0.7l0.2-0.9l0.2,1.5l0.4-1l0.2-0.1l0.2,1.7l0.2-0.2l0.2-0.8l0.2,0.5l0.2-1.3
					l0.2-0.3l0.2-0.8l0.2,2l0.2,0.2l0.2,1l0.2-0.8l0.2,0.9l0.2-1.1l0.2,0.4l0.2,0.1l0.2,0.7l0.2-1.3l0.2,0.7l0.2,1.3l0.6-0.7
					l0.2-0.7l0.2,0.4l0.2-0.1l0.2,1.2l0.2-1.7l0.2,2.1l0.2-1.5l0.2,1l0.2-3.2l0.2,3.2l0.4-2l0.2,2.4l0.2-1l0.2-0.1l0.6-1.2l0.2,2
					l0.2-1.6l0.2,0.9l0.2-0.5l0.2,0.5l0.2,1.8l0.2-2.8l0.2,1l0.6-2.4l0.4,3.4l0.2-0.7l0.4-2.8l0.2,1.7l0.2-2.1l0.4,3.2l0.2-2.9
					l0.2,0.5l0.2,1.1l0.2-2.2l0.2,0.3l0.2-1.2l0.2,2.9l0.4-3.3l0.2-0.7l0.2,0.4l0.2-0.4l0.2-0.8l0.2,0.2l0.2-0.6l0.2,0.6l0.2-1.7
					l0.2-0.4l0.2,0.1l0.2-0.2l0.2-1.1l0.2,1.8l0.2-0.6l0.2-2.4l0.2,0.2l0.2,0.6l0.4-1.8l0.2,1.5l0.2-2.4l0.4,2.4l0.4-2.2l0.2,2.2
					l0.2-0.8l0.2,0l0.2,0.2l0.2-0.9l0.2,0.3l0.2-1l0.2-0.1l0.2,1.6l0.2-1.6l0.4,4.5l0.2-4.3l0.2,0.4l0.2,3.6l0.2-0.3l0.2-1l0.2-0.1
					l0.2-0.5l0.2,1.3l0.2-0.1l0.2,1.6l0.4-1.9l0.2,2l0.2-1.7l0.2,1.8l0.2,0l0.4,1.6l0.2-1.5l0.2,1.2l0.2,0.2l0.2-1.9l0.2,0.6
					l0.2,2.2l0.2-1.1l0.2,2.6l0.2-0.7l0.2,1.7l0.2-2.5l0.2,0.5l0.2-0.3l0.2,1.4l0.2,0.5l0.2,1.1l0.2-0.8l0.2-1.4l0.2-0.5l0.2,2.1
					l0.2,0.7l0.2-0.2l0.2-1l0.2,1.8l0.4-2l0.2,0.1l0.2,1.8l0.2-1.8l0.4,1l0.4,2.3l0.2-1.1l0.2,1.1l0.2-3.2l0.2,3.5l0.2-0.8h0.2
					l0.2-0.8l0.2,1.5l0.2-0.7l0.4-0.3l0.2,1.1l0.2-1.8l0.2,0.7l0.2,2.5l0.2-1.9l0.2,1.4l0.2-1.3l0.2,0.8l0.2-1.3l0.2,3.4l0.4-2.5
					l0.4,2.4l0.4-3l0.2,1.1l0.2-0.6h0.2l0.2-0.3l0.4,0.8l0.2-0.5l0.2,1l0.2-1.1l0.2,0.1l0.2,1.2l0.2-0.6l0.2-0.1l0.2,2.2l0.2-1.4
					l0.2-0.5l0.2,0.8l0.2-2.7l0.2,0.8l0.2-0.5l0.2,2.7l0.2-0.8l0.2,0.2l0.4-2.1l0.4,1.9l0.2-0.3l0.2-1.7l0.4,1.2l0.2,1.2l0.2-1.4
					l0.2,0l0.2-0.6l0.2,1.2l0.2-1.7l0.2-0.2l0.2-0.6l0.2,2.7l0.2-1.6l0.2,0.1l0.2,1.6l0.2-1.3l0.2-0.2l0.2-0.7l0.2,1.6l0.2-1.6
					l0.2,1.9l0.2,0.4l0.4-1.7l0.2,1.8l0.2-2.1l0.2-0.7l0.6,1.5l0.2,2.2l0.4-2.4l0.2,0.7l0.2-1.6l0.2,0.9l0.2,0.1l0.2-0.2l0.2-1.9
					l0.2,1l0.2,2l0.2,0.8l0.4-1.7l0.2-0.1l0.2-0.7l0.2,1.6l0.2-3l0.2,2.8l0.6-1.5l0.2,1.7l0.2,0.4l0.2-0.4l0.2,1.3l0.2-2.3l0.2,0.6
					l0.2-1.3l0.2,1.9l0.2-0.2l0.2-1.7l0.2,1.7h0.2l0.2-0.7l0.2,1.9l0.2-0.6l0.4-1.8l0.2,2.4l0.2-1.4l0.2,1.4l0.2,0.5l0.2-0.8
					l0.4,0.4l0.2-0.9l0.4,0.9l0.4-1.6l0.2,2l0.2-3l0.2,2l0.4,1.1l0.2,0.8l0.2-1.8l0.4,1.1l0.2-1.6l0.2,1.6l0.2-0.5l0.2,0.8l0.2-1.3
					l0.2,1.3l0.2-0.7l0.6,1.7l0.4-2.1l0.2,1.6l0.2-0.2l0.2-0.9l0.4,1.7l0.2-0.9l0.2,0l0.2,0.4l0.2,1l0.2-1.9l0.2,0.1l0.2,1.7
					l0.2-0.5l0.2-1.3l0.2,0.1l0.2,0.7l0.2,1.4l0.2-0.6l0.2,0.4l0.2-1.5l0.2-0.5l0.2,3.8l0.2-1.8l0.2,0.9l0.2-2.2l0.2,1.3l0.2-0.5
					l0.2,0.5l0.2-0.9l0.4,0.8l0.2,1.2l0.2-0.1l0.2-0.7l0.2-1.5l0.2,3l0.2-3.5l0.2,2.4l0.2-0.9l0.2,1.2l0.2,0.1l0.2-0.6l0.2,0.3
					l0.2-0.7l0.2,0.7l0.2-1.7l0.4,2.7l0.2-0.8l0.2,0.1l0.2-1.2l0.2,0.4l0.2-0.3l0.2,1.7l0.2-2.8l0.2,2.2l0.2-1.3l0.2,1.2l0.2-0.9
					l0.2,1.4l0.4-1.3l0.2,0.1l0.2-0.8l0.2,2.2l0.2-2.2l0.2,1.9l0.2-0.6l0.2,1.1l0.2-0.9l0.2,0.3l0.2-0.3l0.2-1.3l0.4,2.6l0.2-1.1
					l0.2-0.4l0.2,0.1l0.2-0.1l0.2,1.7l0.2-0.5l0.2-1.2l0.2,0.1l0.2,0.8l0.4-1.3l0.2,1.4l0.2-0.3l0.2-0.7l0.2,1.6l0.2-1.9l0.2,0.5
					l0.2-0.1l0.2,0.5l0.2,0.1l0.2,0.3l0.2-1.1l0.2,1l0.2-0.1l0.2,0.5l0.2,1.1l0.2-2.8l0.2,0.6l0.2,0.2l0.2-0.2l0.4,0.6l0.2,0.9
					l0.2-1.7l0.2,1.5l0.4-1l0.2,0l0.4,1.3l0.2-1l0.2,1.5l0.2-2.2l0.4,2.1l0.2-1.1l0.2-0.3l0.2,1.4l0.2-1.3l0.2,1l0.2,0.3l0.4-2.9
					l0.2,1.7l0.4-0.2l0.2-0.8l0.2-0.2l0.2,0.1l0.4,1.9l0.2-1.4l0.2-0.5l0.2,1.8l0.2-1.5l0.2-0.4l0.2,0.2l0.2-0.6l0.2,0.3l0.2,1.5
					l0.2-0.7l0.6-0.6l0.2,1.8l0.2-0.5l0.4-2.1l0.4,1.7l0.2-0.1l0.2-1l0.2-0.1l0.2,0.4l0.2-1.1l0.2,0.4l0.2,1.7l0.2-1.3l0.2,1
					l0.2-0.8l0.2-0.1l0.2,1.4l0.2,0l0.2-1.8l0.2,0.7l0.2,0.2l0.2-0.9l0.2,0.1l0.2,0.4l0.2-1.5l0.2,1.6l0.6-1.3l0.2,1.4l0.2-0.2
					l0.2,1l0.2-1.7l0.2,0l0.4,0.8l0.2-0.9l0.2-0.4l0.2,1.3l0.2-0.5l0.2,0.9l0.2-0.7l0.2,0.4l0.2-0.3l0.2-0.6l0.2,0.1l0.2-0.1
					l0.2,1.8l0.2-2.7l0.2,1.4l0.2-0.3l0.2-2.1l0.2,2.8l0.4-2.7l0.2,0.9l0.2,1.8l0.2-0.6l0.2-0.2l0.2,0.7l0.4-2.6l0.2,2.3l0.2,0.3
					l0.2-1.2l0.2,0.5l0.2-0.4l0.2,0.4l0.4-1.9l0.2,0.4l0.2,1.8l0.2-1l0.2,0.5l0.2-0.2l0.2,1.2l0.2-1.2l0.2-0.1l0.2-1.9l0.2,3.4
					l0.2-3.2l0.2,2.1l0.2,0.3l0.2,0.5l0.4-0.8l0.2-0.1l0.2,0.1l0.2,0.4l0.2,1.5l0.2-2.5l0.2,0.6l0.2-0.7l0.2,1.1l0.2-0.4l0.2,1.5
					l0.2-1.7l0.2,2.7l0.2-2.9l0.2,0.1l0.2-0.9l0.2,2l0.2-0.1l0.2,0.1l0.2-1.8l0.2,2.4l0.2,0.5l0.2-2.2l0.2,0.6l0.2,1.7l0.2-1.3
					l0.6,1.9l0.2-0.9l0.2-1.5l0.2-0.2l0.4,2.8l0.4-1l0.2-0.1l0.2,0.9l0.2-0.4l0.2,1.1l0.2-1.2l0.2,1.3l0.2-0.9l0.2,0.4l0.4-1
					l0.2,0.4l0.2-0.6l0.2-0.2l0.2,0.9l0.2-1l0.2,0.2l0.2-0.4l0.2,0.4l0.2,2.2l0.2-1.9l0.4,0.1l0.2-0.6l0.4,1.1l0.2,2.1l0.2-1.1
					l0.2,0.2l0.2-1.7l0.2,0.5l0.2,0l0.2,0.8l0.2-1.5l0.2,0.4l0.2-0.1l0.2,1.1l0.2-1.9l0.2,1.1h0.2l0.2-0.1l0.2-1.1l0.2,1.7l0.2-0.9
					l0.2,1.5l0.2,0.6l0.2-1.4h0.2l0.2-1.5l0.2,1.8l0.2-1.2l0.2,2l0.2-1.3l0.4,0.8l0.2-0.2l0.2,0.9l0.2-1.2l0.2,0.7l0.4-1.5l0.2,0.6
					l0.2-0.6l0.2,0.6l0.2,1.4l0.2-1.7l0.2,1.2l0.6,0.2l0.4-0.6l0.2,0.6l0.2-1l0.2,1.3l0.2-1.1l0.2,0.6l0.2,1.1l0.2-0.4l0.2-0.9
					l0.2,1l0.2-1.9l0.2,1.7l0.2-0.7l0.2,0.6l0.4-1.5l0.2,0.8l0.2-0.4l0.2,1.4h0.2l0.4-0.4l0.2,0.5l0.2-1.3l0.2,1.2l0.2-1.7l0.2,1.9
					l0.2-0.6l0.4,1l0.2-1.3l0.2-0.4l0.2,0.1l0.2-0.5l0.2,1.3l0.2-0.9l0.2,0l0.2,1.5l0.4-1.6l0.2,1.2l0.4-0.2l0.2,1.2l0.2-1.4
					l0.2,1.5l0.2-0.2l0.2,0.3l0.2-1.2l0.4-0.5l0.2,1.2l0.2-1.2l0.2,0.6l0.2,1.8l0.2-0.6l0.2-1.4l0.2,0.5l0.4-0.1l0.2-0.9l0.4,1.3
					l0.2,0.8l0.4-1.8l0.2-0.5l0.2,1.9l0.2-2.1l0.2,2.1l0.2-1.6l0.2-0.1l0.2-0.6l0.2,3l0.4-2.1l0.2,1.8l0.2-2.3l0.2,0.8l0.2,1.6
					l0.2-2.1l0.2,1.5l0.2-0.8l0.2,1.5l0.2,0l0.2-0.8l0.2,0.2l0.2-0.4l0.2,0.4l0.2-1.3l0.2,0.1l0.2,0.8l0.2-0.7l0.2,1.6l0.2-0.8
					l0.2,1.2l0.2,0.1l0.2-2.7l0.4,1.5l0.2-0.3l0.2-0.1l0.2,0.9l0.2-0.2l0.2-0.7l0.2,1.2l0.2-0.1l0.2-1.7l0.2,0l0.2,1.6l0.2-0.9
					l0.2,0.3l0.2-0.1l0.4-0.6l0.4,0.3l0.2,1.2l0.2-1.6l0.4,1l0.2-0.4l0.2,0.4l0.2,0.7l0.2-1.5l0.4,1.2l0.2-0.5l0.2,0.7l0.2-0.2
					l0.2,0.5l0.2-0.2l0.2-2.2l0.2,1l0.4-0.2l0.2,1l0.4-0.9l0.2,0.7l0.2,0.1l0.2-0.7l0.2,1l0.2,0.2l0.2-0.8h0.2l0.2,0.5l0.2-0.2
					l0.2,0.9l0.2-0.5h0.2l0.2-1.7l0.2,1.3l0.2-0.8l0.2,0.5l0.2,1.2l0.2-0.2l0.2-0.7l0.2,0.1l0.2-0.2l0.2,0.9l0.4-2.3l0.2,2.1
					l0.2,0.9l0.2-2.4l0.2,0.1l0.2,1.5l0.2-0.5l0.2,0.9l0.2,0l0.2-0.4h0.2l0.2,0.8l0.2-2.8l0.2,1.8l0.2,0.1l0.2-1.1l0.2,1.1l0.4,0.2
					l0.2-0.6l0.2,1l0.2,0.2l0.4-1.6l0.2,1.3l0.4-1.6l0.2,1.8l0.2-1.7l0.2,1.6l0.2-1.2l0.2,0.9l0.2-1l0.2,0.6l0.2-0.4l0.2-0.6
					l0.2,0.2l0.2,0.7l0.2-0.6l0.2,0.9l0.4-0.2l0.2,0.6l0.2-0.5l0.2-1.2l0.2,1.5l0.2,0.2l0.2-0.5l0.2,0.3l0.2-0.9l0.2-0.1l0.4,0.7
					l0.2-1l0.2,0.4l0.2,0l0.2,0.5l0.2-0.4l0.2-0.6l0.2,0.2l0.2,1l0.2-0.1l0.2,0.3l0.2-1.5l0.2,1.2l0.2,0l0.2,0.7l0.2-0.6l0.2,0.2
					l0.2-1.5l0.2,0.9l0.4-1l0.2,1.3l0.2-0.7l0.2-1.4l0.2,1.8l0.4-1.1l0.4,1.8l0.2,0.3l0.4-1.3l0.2,1l0.2-1l0.2,1.4l0.2-1l0.2-0.2
					l0.2-0.7l0.4,1.5l0.2-1.9l0.2,1.4l0.2-0.7l0.2,0.8l0.2-1.2l0.2,1.8l0.2,0.5l0.2-1.1l0.2,0.4l0.2-0.3l0.2-0.9l0.2,0.4l0.2,0.9
					l0.4-1h0.2l0.4,1.2l0.2-0.2l0.4-0.9l0.4,1.1l0.2,0.1l0.2,0.3l0.2-0.9l0.2,0.1l0.2,0.2l0.2-0.8l0.2,0l0.2,1.3l0.2-1.7l0.2,1h0.2
					l0.2-0.1l0.2,1.1l0.2-1l0.2,0.1l0.2-0.6l0.2,0.2l0.2-0.7l0.2,0.1l0.2-0.3l0.2,0.9l0.2-0.1l0.2,0.6l0.2-0.3l0.2-1.3l0.2,1.8
					l0.4-0.9l0.2,0.4l0.2-0.4l0.2,1.4l0.2-1.5l0.4-0.2l0.2,0.8l0.2-1.2l0.4,1.3l0.2-1.5l0.2,0.2l0.2,1.6l0.2,0.4l0.2-0.7l0.2,0.4
					l0.2-1.4l0.2,0l0.2,1l0.4-1.1l0.2,1.5l0.2-0.7l0.2,0.8l0.2-1.4l0.2-0.2l0.2,0.7l0.2-0.2l0.2,1.3l0.2-0.1l0.2-1.2l0.2,0.8
					l0.2-0.4l0.2,0.6l0.2-0.3l0.2,0.7l0.2-0.7l0.2,0.7l0.4-1.1l0.2,0.1l0.2-0.5l0.2,0.4l0.2,0.7l0.2-0.5l0.2-0.1l0.2-0.3l0.2,0.9
					l0.2-1.5l0.2,0.2l0.2,0.5l0.2-0.5l0.4,0.6l0.2-0.9l0.2,1.3l0.2,0.4l0.2-1.8l0.2,1l0.6-0.5l0.2-0.7l0.2,1.1l0.2-0.2l0.2,1.1
					l0.2-0.9l0.2-0.2l0.2-0.7l0.2,0.9l0.4-1.2l0.4,1.8l0.2-1.7l0.2,0.9l0.2-1.1l0.2,1.8l0.2-1.1l0.6-0.7l0.4,0.2l0.2-1l0.4,2.1
					l0.4-1.6l0.4,0.1l0.2,0.2l0.2-0.3l0.2,0.1l0.2-0.3l0.2,0.4l0.2-1.2l0.4,1l0.2-1.7l0.2,0.8l0.2,0.3l0.4-1.3l0.2,0.7l0.4-1.4
					l0.2,0.6l0.2-0.1l0.2-0.5l0.4-1.6l0.2,1.6l0.6-1.3l0.2-2.8l0.2,2.3l0.2-3l0.2,0.7l0.2-0.2l0.2,0.7l0.4-2.3l0.2,0.9l0.2-0.2
					l0.2-0.9l0.2,1.8l0.2-0.8l0.2,1.4l0.2-1.3l0.2,2.2l0.4-3.1l0.2,2l0.4-1.9l0.2,3.5l0.2-2.3l0.2,1.7l0.2-1.8l0.2,1.7l0.4,1l0.2-1
					l0.2,1.1l0.2-1.3l0.2,0.2l0.2,1.3l0.2,0.1l0.2,0l0.2-1.3l0.4,1.2l0.2,0.8l0.2-0.8l0.2-1.6l0.2,1.7l0.2-1.2l0.2,1.3l0.2,0
					l0.2,0.6l0.2-1.5l0.2,1.3l0.2-0.2l0.2-0.6l0.2,0.6l0.2-1l0.2,1l0.2-1.9l0.2,1.8l0.2,0.2l0.2,0.7l0.2-1.1l0.2-0.2l0.2,0.7
					l0.2,1.3l0.2-1.2l0.2,0.1l0.2-0.6l0.2,1.3l0.2-1.1l0.2,1.6l0.2-2.1l0.2,1.7l0.2-0.8l0.4,2.2l0.2-0.1l0.2,0.6l0.2-1.8l0.2,0.5
					l0.2,0.1l0.6,1.2l0.2-1.3l0.2,2.3l0.2-1.8l0.4,3.3l0.2-2.2l0.2-0.4l0.2,0.1l0.2,1.3l0.2-0.6l0.2,1.8l0.4-0.4l0.2-0.9l0.2-0.3
					l0.2,1.9l0.2-0.8l0.2,1.3l0.2-1.8l0.2-0.2l0.4,1l0.2-1.1l0.2,1.1l0.2-1l0.2,1.8l0.2-0.9l0.2,0.9l0.2-0.2l0.2,0.8l0.6-2.1
					l0.2,1.6l0.2-0.4l0.2,0.7l0.2-0.9l0.2,1l0.2-1.7l0.2,1.7l0.2-0.7l0.2,1l0.2-1.4l0.2,1.2l0.2-1.4l0.4,1.8l0.2-1.2l0.2,0.9
					l0.2-0.1l0.2-2.1l0.2,1.8l0.2-0.5l0.2,0.1l0.2,0.7l0.2-0.7l0.2-0.2l0.2,0.4l0.2,0.1l0.2,0.4l0.2,0.1l0.2,0.5l0.2-0.7l0.2,0.4
					l0.2-1l0.2,2l0.2-2l0.2,1.7l0.2-2.2l0.2,1.7l0.6-1.8l0.2,1.6l0.4,0.2l0.2,0l0.2,0.4l0.2-0.5l0.2,0.4l0.2-2.3l0.2,1.5l0.2-1.4
					l0.4,2.2l0.2-1.1l0.2,0.9l0.2-1.5l0.2,1.3l0.2-1l0.2,0.8l0.2-0.5l0,0"/>
			</g>
		</g>
		<g id="line2d_36">
			<g>
				<defs>
					<rect id="SVGID_00000083061201776286339830000000465088441286665103_" x="23.4" y="7.2" width="446.4" height="271.8"/>
				</defs>
				<clipPath id="SVGID_00000174570739271126478120000013313394979011562155_">
					<use xlink:href="#SVGID_00000083061201776286339830000000465088441286665103_"  style="overflow:visible;"/>
				</clipPath>
				
					<path style="clip-path:url(#SVGID_00000174570739271126478120000013313394979011562155_);fill:none;stroke:#2CA02C;stroke-width:0.5;stroke-linecap:square;stroke-linejoin:round;" d="
					M23.5,83.3l0.2,2.7l0.2-2.3l0.2-0.2l0.2,2.8l0.2,0.4l0.2-0.2l0.2-3.6l0.2,2.8l0.2-3.5l0.2-1.5l0.2-2.3l0.2,4l0.4-4.1l0.2-4.8
					l0.2-0.4l0.4-6.9l0.4-1.9l0.2-3.3l1.6-41.7l0.2,0.7l0.2,4.9l0.2,2.1l0.2,0.2l0.6,15.1l0.2,1.6l0.2-0.2l0.2-3.4l0.2,2l0.4,4.9
					l0.2,1.9l0.4,5.9l0.2,0.2l0.6,7.9l0.4,2.7l0.2,0.7l0.2,4.8l0.4-2l0.2,4.6l0.2,1.2l0.2-2.4l0.2,8.9l0.4-2.4l0.4,6.2l0.2,1.2
					l0.2,2.5l0.4,2.1l0.2,3.9l0.4-3.2l0.4,8.6l0.2-2.6l0.2,3.3l0.2,1.2l0.2-0.2l0.2,1.6l0.2-1.8l0.2,5.7l0.2-1.3l0.2-2.8l0.2,1.7
					l0.2,0.6l0.2-0.2l0.2,1.7l0.2-1.4l0.2,2.7l0.2,0.2l0.2-1.7l0.4,2.8l0.2-1l0.2,1.2l0.2-0.9L42,112l0.2-1.7l0.2,0l0.2,0.5l0.2,3.3
					l0.2,0.7l0.2-2.1l0.2,0.2l0.2,0.9l0.2-0.4l0.2,3.1l0.2-1.8l0.2,0.1l0.2,3.3l0.2-3.8l0.2-0.3l0.2,1.4h0.2l0.2,3l0.2-4l0.2,0.7
					l0.2,2.8l0.2-1.7l0.2,4.2l0.2-8.3l0.2,8l0.2-2.7l0.2,1.7l0.2-1l0.4,1.2l0.2,2.5l0.2-2.6l0.4,2.9l0.2-0.7l0.2-3l0.2,1l0.4,2.6
					l0.2-2.4l0.4,1.8l0.2,1.1l0.2-0.6l0.2-0.2l0.2,1.2l0.2-1.5l0.2,1.3l0.2-1.1l0.2,3l0.6-1.7l0.2,4.4l0.4-3l0.2,1l0.2-0.7l0.2-1.2
					l0.2,1.6l0.2-1.4l0.2,0.6l0.2-0.4l0.2,1l0.4-2.4l0.2,2.5l0.4-1.8l0.2-0.3l0.2,1.4l0.2-2l0.2,1.6l0.2-2.6l0.2,1.3l0.2-0.3l0.2,0
					l0.2,0.5l0.2-3.1l0.2,1.1l0.2-1.3l0.2,0.2l0.2-3.6l0.2,2.4l0.4-3.2l0.2-0.1l0.2-7.6l0.2,3.7l0.4-9.2l0.2-1.3l0.2-3.3l0.2-0.4
					l0.2-0.9l0.2,4.7l0.2-0.3l0.2,7.4l0.6,6.6l0.2-0.4l0.2,1.5l0.2-0.2l0.2,2.1l0.2-2.5l0.4,0.8l0.4,2.8l0.2-1.2l0.2-0.2l0.2,0
					l0.2-3.4l0.2,0.4l0.2,1.5l0.2-0.5l0.2,1.8l0.2-1l0.2-3.8l0.6,2.1l0.4-4l0.2,4.6l0.2,0.6l0.2-0.7l0.2-3.9l0.2,2.7l0.4-2.2
					l0.2,0.8l0.2,1.4l0.2-3.7l0.2,1.3l0.2-3L69,113l0.6-4l0.2-1.2l0.2,2.2l0.2,0.1l0.2-1.5l0.2,0.3l0.4-3.1l0.2,4.7l0.2-0.6l0.2-4.1
					l0.2-1.2l0.2,1.6l0.2,0.1l0.2,0.6l0.2,1.3l0.2-1.2l0.2,2.7l0.2-1.6l0.2-0.1l0.4,3.5l0.2-1.3l0.2-0.5l0.2,0.8l0.2-1l0.2,3.4
					l0.2-0.2L75,113l0.2,3.3l0.2-0.4l0.2-1.3l0.2,3.8l0.2,1.1l0.2-3l0.2,0.2l0.2,4.7l0.2-0.6l0.2-2.1l0.2,3.2l0.2,0.7l0.2-0.4
					l0.2,1.2l0.2-1.5l0.2,1.9l0.2,3.7l0.2-2.1l0.2,2.4L79,128l0.2,2.3l0.2-4.6l0.2,3l0.4,1.8l0.2-0.6l0.2,0.4l0.2,0.1l0.2,2.8
					l0.2-2.2l0.6,2.8l0.2,2.6l0.2-4.1l0.2-1.6l0.2,4.6l0.2,0.8l0.4-1.3l0.2,0.7l0.2,1.4l0.2-0.2h0.2l0.2,1.4l0.2-2.8l0.2,0.7h0.2
					l0.2,0.9l0.2-1.1l0.6,3.2l0.2,0.3l0.2,0l0.2-0.7l0.2,0l0.2,0.6l0.2-0.8l0.2,0.1l0.4,0.9l0.2-0.8l0.2-0.1l0.2-1.3l0.2,1.8
					l0.2-1.9l0.2,1l0.6-4l0.2-3.8l0.2,0.5l0.6-7.9l0.2-5.4l0.2-2.2l0.4,6.6l0.4,9.2l0.2,4.8l0.2,0.5l0.2,2.3l0.2-0.9l0.2,1.7
					l0.2-0.7l0.2,2.2l0.2-0.8l0.2,1.2l0.4,0.4l0.2-1.1l0.4,2.8l0.2-1.3l0.2-0.1l0.4,1l0.2-0.6l0.2,1.3l0.2,0l0.2,0.5l0.2-1.8
					l0.2,1.2l0.2-1.2l0.2,1.2l0.4-3.1l0.2,1.6l0.2-0.4l0.2,1.3l0.2-2l0.2-0.4l0.2,0.2l0.4-2.6l0.2,2.3l0.8-4.5l0.4-5.9l0.2-0.2
					l0.2-1.2l0.2,2.5l0.4-3.2l0.2,0.6l0.4,3.4l0.2-0.5l0.4,5l0.2,0.4l0.2-0.7l0.2,0.6l0.2-1.6l0.2,4l0.2,0.3l0.2-2.1l0.2,1.1
					l0.2,2.7l0.2-0.2l0.2,0.4l0.2,0.7l0.2-0.6l0.2,1.1l0.2,0l0.2,1.9l0.2,0.1l0.2-1.7l0.2-0.6l0.2,2.1l0.2-3l0.2,0.9l0.2,0l0.2,1.8
					l0.4,1.3l0.2-2.2l0.6,0.5l0.2,2.5l0.4-1.3l0.2,0.6l0.2-0.3l0.2-0.9l0.2,0.1l0.2,1.2l0.2,0.2l0.2-1.8l0.2,1.4l0.2,2.4l0.2-0.5
					l0.2-1.5l0.2,1.2l0.4-0.8l0.2-0.1l0.2,0.6l0.2-0.6l0.2,1.3l0.2,0.2l0.2-2.2l0.2,0.4l0.2-0.3l0.4,1.2l0.2-0.2l0.2,0.1l0.2-2
					l0.2,4.1l0.2-2.6l0.2,0.2l0.2,2.1l0.2-0.5l0.2-0.9l0.2,0.5l0.2-1.2l0.2,0.9l0.2-0.1l0.2-1l0.2,1.3l0.4-1.6l0.4,1.3l0.2-2.1
					l0.2,3.2l0.2-1.6l0.2,1.1l0.2-1.4l0.2,1.1l0.2-1.5l0.2,1.6l0.2,0.6l0.2-2.1l0.2,0.7l0.2-0.1l0.2,0.3l0.2,1.1l0.2-2l0.2,0.4
					l0.2,0.6l0.2-0.4l0.2-0.1l0.2,0.4l0.2-0.7l0.2-1.5l0.2,1.7l0.2-1.6l0.4-1.1l0.2,1.2l0.2,0l0.2,1.2l0.2-1.5l0.2-0.1l0.2-0.5
					l0.2,0.8l0.2,0l0.2-0.7l0.2,0.2l0.2-1.1l0.2,1.7l0.2-0.2l0.2,1.6l0.2-1.1l0.2-2.2l0.2,1.3l0.2,0.5l0.2-0.1l0.2,1.4l0.2-1.8
					l0.2,0.1l0.4-1.7l0.4,0.5l0.2,0l0.4,2.1l0.2,0.4l0.2-3.8l0.2,2.4l0.2-1.3l0.2,0.5l0.2-0.4l0.2,0.3l0.2,0.5l0.2-1.1l0.2,0.9
					l0.2-0.4l0.4,1.5l0.2-0.7l0.2-0.1l0.2-0.6l0.2,1.8l0.2-1.2l0.2,0.3l0.2,0.7l0.2-2.1l0.2,2l0.2-1.3l0.2-0.5l0.4,1.4l0.2-2.5
					l0.2,0.2l0.4-2.3l0.2,0.6l0.2-2.2l0.2,0l0.2-1.3l0.4,0l0.2,0l0.4-3l0.2-0.1l0.2-2.9l0.2,2.9l0.2,0.8l0.4,3.5l0.2-0.5l0.2,4
					l0.2,0l0.2,1.4l0.6-0.8l0.2,0.1l0.2,0l0.2,0.4l0.2,1.8l0.2-1.3l0.2,3l0.2-2.4l0.4-1.1l0.2,1.4l0.2,0.4l0.2,0l0.2,0.3l0.2-0.3
					l0.2-1.3l0.2-0.5l0.2,1.3l0.2-2.2l0.2,2.2l0.2,0l0.2-1.1l0.2,0.6l0.4-1.1l0.2,0.9l0.2-1.3l0.2,1l0.2-0.9l0.4,1l0.2,1.4l0.2-2.1
					l0.2,0.7l0.2-0.7l0.2,0.2l0.2,1.8l0.8-3.8l0.2,1.9l0.2-1.1l0.4,1.5l0.2-3.4l0.2,1.6l0.2-0.5l0.2,1.1l0.2-1l0.2,0l0.2-1.1
					l0.2,1.6l0.2-2.8l0.2,0.9l0.2,2.8l0.2-2.8l0.2,1.6l0.2-1l0.2,0.6l0.2-0.2l0.2,0l0.2-1l0.2,1l0.2-2.3l0.2,0.3l0.4-1.2l0.2,0.2
					l0.2-0.2l0.2-1.5l0.2,2.2l0.2-2.7l0.2-0.4l0.2,1.4l0.2-1.9l0.2-0.5l0.2,1.6l0.2-1.7l0.2,0.5l0.2,0.2l0.2-0.2l0.2-1.1l0.2,1.2
					l0.2-1.8l0.2,0.5l0.2-1.8l0.2,2.4l0.6-3.6l0.2-1.8l0.2-0.1l0.2,3.4l0.4-5.5l0.2,1.8l0.2-3l0.2,1.5l0.2-2.7l0.4-0.7l1-9.7
					l0.2,0.8l0.2-4.4l0.2-0.6l0.2-2.3l0.4,2.4l0.2-1.8l0.4,6.1l0.2,0.7l0.2-0.4l0.4,5l0.2,0.4l0.2,2.3l0.2-1l0.2,2.4l0.2-0.2
					l0.2-0.7l0.2,0.6l0.2,3.3l0.2-1.4l0.2,1.7l0.2-0.2l0.2,0.8l0.2-0.6l0.6,2.8l0.2-0.8l0.4,1.5l0.2-1.7l0.4,4.3l0.2-2.9l0.2,0
					l0.2-0.7l0.2-2.8l0.2,1.5l0.6-6.3l0.2-7.3h0.2l0.4-7.3l0.2-0.4l0.2-1.8l0.2,3.9l0.4,11l0.4,6l0.2,7.2l0.2-1.1l0.2,0.1l0.2,4.7
					l0.2-2l0.2,2.7l0.2-0.3l0.2,0l0.2,0.4l0.2,2.4l0.2-0.7l0.2,2.2l0.2-1.3l0.2,1.3l0.2-0.7l0.2,2.8l0.2-3.2l0.2,0l0.2,0.8l0.2,0.2
					l0.2-0.5l0.2,2.2l0.2-0.5l0.2-1.3l0.4,3.3l0.2-3.9l0.2,2.4l0.2-0.5l0.2,0.1l0.4-1.3l0.2,1.8l0.2-0.6l0.2,1.1l0.2-1.2l0.4,2.1
					l0.2-1.3l0.2,0.6l0.2-1.2l0.2-0.3l0.2,1.8l0.2-0.5l0.2-3l0.2,0.2l0.2,2.2l0.2,0.1l0.4-2.5l0.4,1.6l0.2-2.3l0.2-0.9l0.2,2.4
					l0.4-0.8l0.2-1l0.2,0.3l0.2,1.5l0.2-4.3l0.2,4.1l0.2-2.5l0.2,1.6l0.6-4l0.2,0.6l0.2-2l0.2,0.3l0.2-0.7l0.4-2.7l0.2-1.5l0.6-6.7
					l0.2,0l0.2-3.1l0.2,3.4l0.2-1.9l0.2,2.1l0.6,10.4l0.2-0.6l0.4,4.1l0.2-0.5l0.2,1.5l0.2-0.2l0.2-0.5l0.2,3.1l0.2-0.3l0.4,1.2
					l0.2-1.1l0.2,2l0.4-1.8l0.2,3l0.2-0.8l0.4,2.1l0.2-1.7l0.2,0.2l0.2-1.2l0.2-0.1l0.2,0.4l0.4,3l0.4-1.9l0.4,1.7l0.2-2l0.2-0.2
					l0.2,0.4l0.2,0.8l0.2,0.3l0.2-0.6l0.2,0.7l0.4-0.7l0.2,1.2l0.2-1.8l0.2,2.1l0.2-2.2l0.2,1.3l0.2-1.1l0.2,0.7l0.2,0.2l0.2-1.8
					l0.2,0.5l0.2-1.3l0.2,1.1l0.2-0.7l0.2-0.2l0.2,0.2l0.2-2.8l0.2,1.9l0.2,0.7l0.2-1.3l0.2,0.7l0.2,2.5l0.4-2l0.4,2.5h0.2l0.2-1
					l0.2,2.7l0.2-4.1l0.2,2.1l0.2,0.1l0.2-1.2l0.2,0.5l0.2,0.9l0.4-1.2l0.2,2.7l0.2-1.7l0.2-0.1l0.2-1.5l0.2,0.5l0.2-1.5l0.2,0.7
					l0.2,0.1l0.2-0.6l0.2-1.6l0.2-0.6l0.2,0.8l0.2-2.8l0.2,1.1l0.2-1.9l0.4,1.8l0.4-2.7l0.2,3.4l0.2-1.5l0.2,0.5l0.2,1.7l0.2,0.1
					l0.2,0.4l0.2-0.8l0.2-0.1l0.2-1.7l0.2,0.6l0.2,3l0.2,1.1l0.4-2.3l0.2,0.8l0.2-0.6l0.2,2.6l0.2-3.4l0.2,1.7l0.4,1.1l0.2,1.9
					l0.2-3.3l0.4,1.4l0.2-1.9l0.2,0.6l0.2,1l0.2-2.2l0.2-0.3l0.2,1.4l0.2,0.1l0.2-1.9l0.2,1.5l0.2-1.6l0.2,0.4l0.2-3l0.2,2.1
					l0.2-2.7l0.2,1.4l0.4-0.2l0.2,0.4l0.4-2.2l0.4-1.3l0.2,0.1l0.2-0.6l0.2,0.3l0.4-2.9l0.2,0.6l0.2-0.3l0.2-0.6l0.2-3.3l0.2-0.6
					l0.2-2l0.2,1.3l0.2-0.1l0.2-1.7l0.2,2.5l0.2-2.5l0.4,3.8l0.2-2.5l0.2,3.4l0.4-0.9l0.4,4.3l0.4,0.1l0.2-1.7l0.4,4.6l0.2-3
					l0.2,0.6l0.2,0.1l0.4,0.8l0.2-0.6l0.2-1.3l0.2-0.1l0.2,1.9l0.2-1.2l0.2-4.6l0.2,1l0.2-0.9l0.2-2.3l0.4,1.7l0.2-0.1l0.2-0.7
					l0.2,0.5l0.2,3.3l0.2-0.1l0.4,1.9l0.2,3.2l0.2-0.4l0.2,0l0.2,1.8l0.2-1.2l0.6,5.1l0.2-1.8l0.2,1.9l0.4,0.6l0.2,0.1l0.4,2.5
					l0.2-1.1l0.2,2.6l0.4-1.9l0.2,0.1l0.4-0.5l0.2,0.9l0.2-2l0.2,1l0.2,2.3l0.4-2.4l0.4,0.7l0.2-0.7l0.2-0.1l0.2,1.5l0.2-1.4
					l0.4,1.4l0.2-0.7l0.2-0.2l0.2-0.6l0.2,1l0.2-0.7l0.2,0.5l0.4,1.5l0.2-1.4l0.2,0l0.2,0.5l0.2-1.2l0.6,1.1l0.2-1.1l0.2,1.4
					l0.2-2.9l0.2-0.4l0.2,0.5l0.2-0.1l0.2-1.1l0.2,1l0.2-1.6l0.2,0.6l0.2,1.1l0.2-1.1l0.2-0.1l0.2-1.3l0.2,0.1l0.2,1.4l0.4-1.2
					l0.2,2.1l0.2-0.2h0.2l0.2-1.3l0.2,1.5l0.2-2.7l0.2,2.4l0.2-0.8l0.2-2.4l0.2,3.6l0.2,0.2l0.2-2.9l0.2,0.9l0.2-3.5l0.4,2.6
					l0.4-2.8l0.2-1.3l0.4-0.5l0.2,1.3l0.4-2.2l0.2,0.5l0.2,1.1l0.2-1.5l0.2-3.8l0.2-0.2l0.4,0.2l0.2,1l0.2-4l0.2,0.7l0.2-2.7
					l0.2,0.2l0.2-0.5l0.4-5.8l0.2-0.9l0.2,1.4l0.2-2.2l0.2-0.9l0.4,7.5l0.2,1.2l0.2,0.1l0.2,3.9l0.2-3.3l0.2,4l0.2-0.2l0.2,2.1
					l0.2-0.3l0.2,0.7l0.2-0.3l0.2,0.7l0.2,2.7l0.2,0.4l0.4-0.5l0.2,0.2l0.2,1.8l0.4,0.6l0.2-0.8l0.2,2.5l0.2,0.7l0.2-3l0.2,2.5h0.2
					l0.2,1.7l0.2,0.1l0.2-1.9l0.2,1.6l0.2,0.2l0.2-1.8l0.2-0.2l0.2,3.7l0.2-2.5l0.2,1.9l0.2-0.6l0.2,0.4l0.6-1.5l0.2,0l0.2,2.5
					l0.2-1.6l0.2,1.4l0.2-1l0.2,0.3l0.2,1.8l0.2,0.3l0.4-2.1l0.2,1.6l0.2,0.2l0.2-0.2l0.2-4l0.2,3.4l0.2,0.7l0.2-0.2l0.2-1.3l0.4,2
					l0.2-1l0.2-1.9l0.2,2.2l0.2-1.9l0.2,1.7l0.2,0.4l0.4,1l0.2,0.5l0.2-1.1l0.2-2l0.4,3.6l0.2-3.2l0.2,2.8l0.2,0.1l0.2-2.8l0.2,1.3
					l0.2-1.4l0.2,2.7l0.2-0.1l0.2-2.1l0.2,3.2l0.4-4.4l0.2,0.5l0.2,1l0.2-1.5l0.2,1.7l0.2,0.4l0.2-1.8l0.2,0.7l0.2-0.2l0.2,0.4
					l0.2,2.1l0.2-1.7l0.2,1.6l0.2-1.6l0.2,1l0.2-0.7l0.2,1.3l0.2-1.3l0.2,0.3l0.2-1.2l0.2-0.2l0.2,1.2l0.2-0.7l0.2-1.1l0.2-0.1
					l0.2,3.3l0.2-2.7l0.2-0.5l0.2,3.9l0.2-0.4l0.2,0.2l0.2-1.1l0.4,1l0.4-0.7l0.2,0.6l0.2-0.8l0.2,1l0.4-1.9l0.2,2.5l0.2-0.6
					l0.2,0.9l0.2-2.3l0.4,2.8l0.2-0.2l0.2-0.6l0.2,0.5l0.2-2.3l0.2,1.6l0.2,0.6l0.2-0.7l0.2,0.6h0.2l0.2,0.2l0.2-1l0.2,0.8l0.2-1
					l0.2,0.5l0.2,0.2l0.4-1.3l0.2,2.4l0.2-1.9l0.4,2.4l0.2-2.6l0.2-1l0.2,3.1l0.4-1.7l0.2,2.4l0.2-1.9l0.2-0.6l0.2,2.7l0.2-2.1
					l0.2,0.3l0.2,1.6l0.4-2.7l0.2,1.8l0.2-1.5l0.2,2.1l0.2-2.2l0.4,1.9l0.2-1.1l0.2,0.4l0.2,1.7l0.2-2.2l0.2,1.9l0.2,0.6l0.2-1.2
					l0.2,0.2l0.2-0.3l0.2,1.3l0.2-1.7l0.2,0.2l0.2,0.5l0.2-0.8l0.2,1.1l0.2,0.1l0.2-0.5l0.2-3.4l0.2,2.5l0.2,0.7l0.2-0.9l0.2,2.4
					l0.2-2.4l0.2,0.3l0.2,1.5l0.2-1l0.4,0.7l0.4-0.4l0.2,0.7l0.2-0.1l0.4-0.8l0.4,1.9l0.2-2.4l0.2,1.1l0.2-0.8l0.2,1l0.2-0.1
					l0.4-1.7l0.2,0.1l0.2-0.5l0.2,0.6l0.2-1.3l0.2,0.1l0.4-0.6l0.4,0.7l0.2,0.2l0.4-2.3l0.4,2.5l0.2-0.1l0.4,0.7l0.2-0.3l0.2-0.5
					l0.2,1.7l0.2-0.2l0.2-0.9l0.4-0.5l0.2,0.2h0.2l0.2,0.6l0.2-0.4l0.2,0.6l0.2-0.3l0.2,0.4l0.2,1l0.2-3l0.2,2.5l0.2-0.5l0.2,0.8
					l0.2-0.9l0.2,1.4l0.2-1.2l0.2,1.1l0.4,0.4l0.2-0.6l0.2,0.6l0.2-0.5l0.2,0.3l0.2-0.9l0.2,0.1l0.2,0.8l0.2-0.2l0.4,1.5l0.2-0.4
					l0.2,1.9l0.2-2.9l0.4,1.7l0.4-1l0.2,1.3l0.2-0.2l0.2-0.6l0.2-2.5l0.2,2l0.2-0.4l0.2,0.6l0.2-0.6l0.2,1.4l0.2-0.5l0.2-1.4
					l0.2,0.5l0.2-0.1l0.2,1.2l0.2-0.6l0.2,1.4l0.2-0.7l0.2-0.1l0.2-1l0.2-1.7l0.4,1.3l0.2-1.3l0.2,0.2l0.4-1l0.4-3.3l0.2,0.6
					l0.2-1.4l0.2,1l0.4-0.5l0.2-1l0.2,0.1l0.6,4.2l0.2,0.2h0.2l0.6,3.2l0.2-2.2l0.2,1.1l0.2,2.6l0.2,0.3l0.2-1.8l0.2,2.1l0.2-1.5
					l0.2,0.1l0.4,0.9l0.2,0.1l0.2,0.9l0.2-0.2l0.2,2.4l0.2-1.3l0.2-0.3l0.2-0.6l0.2,2.2l0.2-1.7l0.4,0.9l0.2-0.7l0.2-0.2l0.2,0.8
					l0.4-1.6l0.8,1.3l0.2-1.4l0.2,1.2l0.2-0.4h0.2l0.2,1.5l0.2,0l0.4-1.8l0.2,1.6l0.2-0.8l0.2,0.2l0.2-0.3l0.2-0.9l0.2,1.4l0.4-0.7
					l0.2-1.6l0.4,4l0.2-4l0.2,2.3l0.2,0l0.2-1.5l0.2,2l0.2,0.5l0.2-1.8l0.2,1.1l0.4-1.7l0.2-0.2h0.2l0.2,0.8l0.2-1.3l0.2,2.2
					l0.4-2.2l0.2,0l0.2,1.6l0.4-0.9l0.2,1.3l0.2-0.6l0.2,0.6l0.2-1.7l0.2,0.5l0.2,0.9l0.2-1l0.2-0.2l0.2,0.9l0.4-1.7l0.4,0.8
					l0.2,0.1l0.2-0.1l0.2,0.1l0.4,0.9l0.2-1.2l0.2,1.4l0.2-2.4l0.2-0.4l0.2,1.6l0.2-0.7l0.2,0.9l0.2-0.3l0.2,0.2l0.2-1.1l0.2,0.9
					l0.2-2.2l0.2,2.7l0.2-0.2l0.2-0.6l0.2,0.7l0.2,0.2l0.4-1.2l0.2,1.2l0.2,0.5l0.2-0.1l0.2-1.8l0.2-0.7l0.2,2.1l0.2-1.5l0.4,0.7
					l0.2-2l0.2,1.9l0.2-0.7l0.2-0.2l0.2,0.6l0.2,0l0.2-1.5l0.2,3l0.4-2.2l0.2,0.8l0.2,1.3l0.2-0.6l0.2-1.5l0.2,1l0.4-1.2l0.2,1.8
					l0.2-0.7l0.2,0.7l0.2-0.7l0.2,1.1l0.2-1.1l0.2,1l0.2-2.9l0.2,2.8l0.2-0.4l0.2-2.1l0.2,1.6l0.2,0.6l0.2-1.5l0.2,1.1l0.4,0.6
					l0.2-1.3l0.2,1.2l0.2-0.6h0.4l0.2,1.1l0.2,0l0.2,0.4l0.2-0.3l0.2,0.5l0.2-0.1l0.2,0.8l0.2-1.1l0.4-0.4l0.2,1l0.2-0.4l0.2-0.8
					l0.2-0.1l0.4,2.1l0.2-2.5l0.2,2.4l0.4-1.3l0.2,0.5l0.2-0.2l0.2,0.8l0.2-0.8l0.2,1l0.2-1.2l0.2,2.5l0.2-0.6l0.2,0.3l0.2-1.1
					l0.2-0.1l0.2,0.8l0.2,0.2l0.2-1.6l0.2,0.6l0.2,1.3l0.2-2.5l0.2,2.7l0.2-0.6l0.2,0.8l0.2-0.2l0.2-0.8l0.2,0.8l0.2-1.5l0.4,0
					l0.2,2.4l0.2-1.4l0.2-0.3l0.2-0.1l0.6,0.7l0.2-0.1l0.2-0.3l0.4,0.9l0.2-1.9l0.2,2.2l0.2-0.5l0.2-1.6l0.2,0.9l0.2-1.1l0.2,0.7
					l0.2,1.6l0.2-0.4l0.2,0.8l0.4-0.5l0.2-0.8l0.2,2.8l0.2-1.6l0.2-0.2l0.2,0.2l0.4-1l0.2-0.3l0.2,1.7l0.2-1.3l0.2-0.3l0.2,0
					l0.2,0.8l0.2,0.1l0.2,0.6l0.2-0.5l0.4,1.2l0.2-1.8l0.2,0.4l0.2-0.1l0.2-0.5l0.2-0.2l0.2,0.5l0.2,0.9l0.2-1.1l0.2,0.1l0.2-1.6
					l0.4,1.2l0.2,1.8l0.6-3.1l0.4,2.4l0.2-1.9l0.2,1.3l0.4-1.1l0.2,1.6l0.2,0.1l0.2-0.3l0.4,0.3l0.4,0.3l0.4-1.1l0.2,0.5l0.2,1.1
					l0.2-1.9l0.2,0.7l0.2,1.5l0.2-0.2l0.2-2.5l0.2,0l0.2,1.6l0.2,0.4l0.2-0.1l0.2-0.6l0.2,0.7l0.4-0.7l0.2,0.7l0.4-0.2l0.2-1.5
					l0.2,0.4l0.2,2l0.4-1.3l0.2-0.1l0.2,0.1l0.2-0.7l0.4,0.9l0.2-0.8l0.2,0.8l0.4-0.5l0.2,1.7l0.2-1.8l0.2-0.6l0.2,0.7l0.4-0.9
					l0.2,0.7l0.2,1.5l0.2-1.8l0.2-0.1l0.2,1l0.2-2l0.2,0.4h0.2l0.2,1.1l0.2-0.3l0.2,0.3l0.2-2.1l0.2,1.9l0.2-0.4l0.2,0.6l0.2-0.3
					l0.2,0.8l0.2-0.6l0.2,0.6l0.2-0.6l0.2,0.7l0.2-0.1l0.4-1.5l0.2,0.3l0.4-1.9l0.2,0.7l0.2,0.1l0.2,1l0.2,0l0.4-0.5l0.2,1.9
					l0.2-0.4l0.2-1.2l0.4,1.7l0.2-1.7l0.2,1.9l0.4-1.6l0.2,1l0.4,0.7l0.2-0.1l0.2-0.8l0.4-0.5l0.2-0.6l0.4,1.6l0.2-0.7l0.4,1.2
					l0.2-0.7l0.2,0.5l0.2-0.8l0.2,0.2l0.2-0.1l0.2,0.4l0.4-0.7l0.2,1.1l0.2-1.6l0.2-0.1l0.2,0.2l0.2-1.1l0.2,2l0.2-1.7l0.2,0.8
					l0.2,0.1l0.2,1.3l0.2-1.1l0.2,1.4l0.2-0.5l0.2,1.3l0.4-1.3l0.2,1.1l0.2-1.3l0.2,0.7l0.2,0l0.2,0.3l0.2-0.1l0.2,0.2l0.2,1
					l0.2-0.3l0.2,0.6l0.4-1.7l0.4,1.5l0.4,0.5l0.2-0.5l0.2,1l0.2-1l0.2-0.3l0.2,0.5l0.2-0.1l0.2,0.1l0.2-1.5l0.2,2.4l0.4-0.9
					l0.2-0.2l0.2,0.6l0.2-0.1l0.2,0.1l0.2-0.2l0.2,0.4l0.2-1.2l0.2,0.5l0.2,0l0.2,0.8l0.2-1.2l0.2,1.3l0.2-1.3l0.2,1.5l0.2-0.4
					l0.2-1.3l0.2,2.3l0.2-2.4l0.4,0.7l0.2-1l0.2,2.1l0.2-1.7l0.2,0.5l0.2,0.1l0.2,0.5l0.2-1.4l0.2,1.4h0.2l0.2-0.5h0.2l0.2-0.6
					l0.2,0.2l0.2,1.1l0.2-1.2l0.4,1.1l0.2-0.1l0.2-0.6l0.2,0.2l0.2-0.3l0.2,0.3l0.2-0.4l0.4,1.5l0.4-1.6l0.2,1.8l0.2-1.9l0.2,0.1
					l0.2,1.4l0.2-1l0.2,0.1l0.2,1.1l0.2-0.7h0.2l0.2-0.5l0.4,0.5l0.2,1.2l0.4-2.3l0.2,0.1l0.4,1.2l0.2,0.1l0.2-0.3l0.2,0.5l0.2-1.1
					l0.2,1.2l0.2-1.4l0.2,0.8l0.2-0.9l0.2,0.5l0.2-1.1l0.2,1.5l0.2-0.7l0.2-0.2l0.2,0.5l0.2-1.3l0.4,1l0.2-0.2l0.2-0.5l0.2-1.2
					l0.4,2.1l0.4-1.3l0.2-0.2l0.2,1.5l0.2-1.6l0.2,1.8l0.2-0.2l0.2-2.1l0.2,1.5l0.2-0.6l0.2,1.4l0.2-0.9l0.2-0.4l0.2,1.7l0.4-1.7
					l0.2,0.6l0.4-0.7l0.2,2.1l0.2-1.1l0.2-1.9l0.2,1.1l0.2-0.8l0.2,0.9l0.2-0.4l0.2-1.1l0.2,0.4l0.2-0.1l0.2-0.4l0.2,1.9l0.2-3.4
					l0.2,2.3l0.2-2.1l0.2,1.3l0.2,0.1l0.2,0l0.4,0.5l0.2-0.4l0.2,0.6l0.2-0.6l0.4,1.2l0.2-0.4l0.2,0l0.2,0.7l0.4-1.6l0.2,1l0.4-1.1
					l0.2,0.7l0.2-0.5l0.2,0.7l0.2,0.2l0.2,1l0.2,0l0.2-0.4l0.4-1.4l0.2,0l0.2,1.1l0.2-1l0.2-0.1l0.2-0.5l0.2,0.3h0.2l0.2-0.2
					l0.2-1.6l0.2,0.1l0.2-0.8l0.2,1.3l0.2-1.5l0.2,1.9l0.2-1l0.2,0.7l0.2-0.1l0.2-0.4l0.2-1.3l0.2,1.1l0.2-0.3l0.4,0.9l0.2,1.8
					l0.2-1.8l0.2,0.2l0.4,0.9l0.2-0.6l0.2,0l0.2-0.4l0.2,1.2l0.2-0.6l0.2,0.2l0.2,0l0.2-1.1l0.2,1.1l0.4,0.8l0.2-1.8l0.2,1.8l0.4-1
					l0.2,1.1l0.2-0.7l0.2,0.1l0.2-0.1l0.4-0.8l0.2,0.4l0.2,0.1l0.2-0.6l0.2,0.2l0.4-2l0.2,1.3l0.2-0.9l0.2,1.3l0.2-1.7l0.2,0.1
					l0.4,1.4l0.2-2.7l0.2,1.2l0.4,0.5l0.2-1.6l0.4,1.4l0.2-3.2l0.2,1.7l0.2-1.1l0.2,0.5l0.2-0.8l0.2,1.1l0.2-0.6l0.2-0.2l0.2,1.8
					l0.2-2.9l0.2,1.7l0.4-2.4l0.2,0.8l0.4-2.4l0.2,0.2l0.2-1l0.2,0.6l0.2-1.1l0.2-0.3l0.2-2.3l0.2,1.2l0.2-0.7l0.2,0.1l0.2-0.2
					l0.2,1.1l0.4-1l0.2,1l0.2-1.5l0.4,3l0.2-2l0.6,3.5l0.2-1.5l0.2-0.2l0.2,0.1l0.2,0.9l0.2,0.1l0.2-0.5l0.2,0l0.2,1.9l0.2,0
					l0.2,0.5l0.2,1.5l0.2-1.4l0.4,1.3l0.2,0l0.2,1.7l0.4-0.6l0.2,0.3l0.2-0.2l0.2,0.5l0.2-0.1l0.2,0.6l0.2-0.8l0.2-0.2l0.6,1
					l0.2-0.8h0.2l0.2,0.6l0.2-1.4l0.2,0.5l0.2,3.2l0.2-3.4l0.2,0.9l0.2-1.7l0.2,0.7l0.2,0.1l0.2,1.8l0.2-3.6l0.2,0.5l0.2,1.4
					l0.2,0.1l0.2-2.5l0.2,2.6l0.2-0.4l0.2,0.4l0.2,1.5l0.2-1.3l0.4,1.1l0.2-2.8l0.2,2.3l0.2,0.3l0.2-0.4l0.2,1l0.2,0.4l0.2-1
					l0.2,1.1l0.2-1.3l0.4,1.4l0.2,2.4l0.2-1.8l0.2,0.7l0.2-0.2l0.2,0.9l0.4-1l0.2,0.2l0.2,0.8l0.2-1.4l0.2,0.6l0.2,0.1l0.2,0.6
					l0.2,1.1l0.2-0.4l0.2-1.5l0.2,1.3l0.2-1.2l0.2,2.4l0.2-1.8l0.2,0.4l0.2-0.6l0.2,0.7l0.2-0.5l0.2-0.1l0.2,0.4l0.2,0.9l0.2-0.8
					l0.2,0.5l0.2-1.1l0.2,1.6h0.2l0.2-0.4l0.2,1l0.2-1.4l0.2,0.2l0.2,1.6l0.2-0.4l0.2,0.7l0.2-0.2l0.2-0.7l0.2,0.2l0.4,1.4l0.4-1.9
					l0.4,1.2l0.2-1.7l0.2,1.1l0.2,0.2l0.2,0.5l0.2-1.1l0.2-0.1l0.2-0.8l0.2,0.6l0.2,1.2l0.2-0.2l0.2-1l0.2,0.4l0.2-0.3l0.6,1.2
					l0.2-1.5l0.2,1.1l0.2,0.1l0.2-0.4l0.2,0.6l0.2-0.8l0.4,1.3l0.2-1l0.2,0l0.2-0.2h0.2l0.2,1.1l0.2,0.5l0.2-0.8l0.2-1.5l0.2,1.6
					l0.2,0.3l0.2,0.8l0.2-0.8l0.2,0.4l0.2-0.4l0.4,0.7l0.2-0.7l0.2,0.6l0.2-0.6l0.2,0.9l0.2-0.1l0.2,1.1l0.2-1.5l0.2-0.3l0.4,2.1
					l0,0"/>
			</g>
		</g>
		<g id="patch_3">
			<path class="st6" d="M23.4,279V7.2"/>
		</g>
		<g id="patch_4">
			<path class="st6" d="M23.4,279h446.4"/>
		</g>
		<g id="legend_1">
			<g id="patch_5">
				<path class="st7" d="M412.5,59.2h50.3c1.3,0,2-0.7,2-2v-43c0-1.3-0.7-2-2-2h-50.3c-1.3,0-2,0.7-2,2v43
					C410.5,58.6,411.2,59.2,412.5,59.2z"/>
			</g>
			<g id="line2d_37">
				<path class="st8" d="M414.5,20.3h10h10"/>
			</g>
			<g id="text_9">
				<g transform="translate(442.544688 23.798437) scale(0.1 -0.1)">
					<g>
						<path id="DejaVuSans-4e" d="M9.8,72.9h13.3l32.3-61v61H65V0H51.7L19.4,61V0H9.8V72.9z"/>
					</g>
					<g>
						<path id="DejaVuSans-2d" d="M79.7,31.4H106v-8H79.7V31.4z"/>
					</g>
					<g>
						<path id="DejaVuSans-50" d="M130.6,64.8V37.4H143c4.6,0,8.1,1.2,10.6,3.6c2.5,2.4,3.8,5.8,3.8,10.2c0,4.4-1.3,7.7-3.8,10.1
							c-2.5,2.4-6,3.6-10.6,3.6H130.6z M120.7,72.9H143c8.2,0,14.4-1.8,18.5-5.5c4.2-3.7,6.3-9.1,6.3-16.2c0-7.2-2.1-12.6-6.3-16.3
							c-4.2-3.7-10.4-5.5-18.5-5.5h-12.4V0h-9.9V72.9z"/>
					</g>
				</g>
			</g>
			<g id="line2d_38">
				<path class="st9" d="M414.5,35h10h10"/>
			</g>
			<g id="text_10">
				<g transform="translate(442.544688 38.476562) scale(0.1 -0.1)">
					<g>
						<path id="DejaVuSans-4d" d="M9.8,72.9h14.7l18.6-49.6l18.7,49.6h14.7V0h-9.6v64L48.1,14h-9.9L19.4,64V0H9.8V72.9z"/>
					</g>
					<g>
						<path id="DejaVuSans-2d_00000071519293483774429960000012229906583681602985_" d="M91.2,31.4h26.3v-8H91.2V31.4z"/>
					</g>
					<g>
						<path id="DejaVuSans-50_00000164512660719155873840000005900855531269702824_" d="M142,64.8V37.4h12.4c4.6,0,8.1,1.2,10.6,3.6
							c2.5,2.4,3.8,5.8,3.8,10.2c0,4.4-1.3,7.7-3.8,10.1c-2.5,2.4-6,3.6-10.6,3.6H142z M132.2,72.9h22.3c8.2,0,14.4-1.8,18.5-5.5
							c4.2-3.7,6.3-9.1,6.3-16.2c0-7.2-2.1-12.6-6.3-16.3c-4.2-3.7-10.4-5.5-18.5-5.5H142V0h-9.9V72.9z"/>
					</g>
				</g>
			</g>
			<g id="line2d_39">
				<path class="st10" d="M414.5,49.7h10h10"/>
			</g>
			<g id="text_11">
				<g transform="translate(442.544688 53.154687) scale(0.1 -0.1)">
					<g>
						<path id="DejaVuSans-48" d="M9.8,72.9h9.9V43h35.8v29.9h9.9V0h-9.9v34.7H19.7V0H9.8V72.9z"/>
					</g>
					<g>
						<path id="DejaVuSans-2d_00000100370102517197413790000015860011596764538266_" d="M80.1,31.4h26.3v-8H80.1V31.4z"/>
					</g>
					<g>
						<path id="DejaVuSans-50_00000088815548077918593010000003775591122265000071_" d="M131,64.8V37.4h12.4c4.6,0,8.1,1.2,10.6,3.6
							c2.5,2.4,3.8,5.8,3.8,10.2c0,4.4-1.3,7.7-3.8,10.1c-2.5,2.4-6,3.6-10.6,3.6H131z M121.1,72.9h22.3c8.2,0,14.4-1.8,18.5-5.5
							c4.2-3.7,6.3-9.1,6.3-16.2c0-7.2-2.1-12.6-6.3-16.3c-4.2-3.7-10.4-5.5-18.5-5.5H131V0h-9.9V72.9z"/>
					</g>
				</g>
			</g>
		</g>
	</g>
</g>
<line class="st11" x1="72.1" y1="30.2" x2="72.1" y2="261.2"/>
<line class="st11" x1="159" y1="41.4" x2="159" y2="272.5"/>
<line class="st11" x1="244.5" y1="41.4" x2="244.5" y2="272.4"/>
<line class="st11" x1="436.2" y1="41.3" x2="436.2" y2="272.3"/>
</svg>
