<?xml version="1.0" encoding="utf-8" standalone="no"?>
<!DOCTYPE svg PUBLIC "-//W3C//DTD SVG 1.1//EN"
  "http://www.w3.org/Graphics/SVG/1.1/DTD/svg11.dtd">
<svg xmlns:xlink="http://www.w3.org/1999/xlink" width="525.565625pt" height="574.145313pt" viewBox="0 0 525.565625 574.145313" xmlns="http://www.w3.org/2000/svg" version="1.1">
 <metadata>
  <rdf:RDF xmlns:dc="http://purl.org/dc/elements/1.1/" xmlns:cc="http://creativecommons.org/ns#" xmlns:rdf="http://www.w3.org/1999/02/22-rdf-syntax-ns#">
   <cc:Work>
    <dc:type rdf:resource="http://purl.org/dc/dcmitype/StillImage"/>
    <dc:date>2023-10-09T13:39:26.184059</dc:date>
    <dc:format>image/svg+xml</dc:format>
    <dc:creator>
     <cc:Agent>
      <dc:title>Matplotlib v3.7.1, https://matplotlib.org/</dc:title>
     </cc:Agent>
    </dc:creator>
   </cc:Work>
  </rdf:RDF>
 </metadata>
 <defs>
  <style type="text/css">*{stroke-linejoin: round; stroke-linecap: butt}</style>
 </defs>
 <g id="figure_1">
  <g id="patch_1">
   <path d="M 0 574.145313 
L 525.565625 574.145313 
L 525.565625 0 
L 0 0 
z
" style="fill: #ffffff"/>
  </g>
  <g id="axes_1">
   <g id="patch_2">
    <path d="M 38.504688 550.8 
L 191.504687 550.8 
L 191.504687 7.2 
L 38.504688 7.2 
z
" style="fill: #ffffff"/>
   </g>
   <g id="matplotlib.axis_1">
    <g id="xtick_1">
     <g id="line2d_1">
      <defs>
       <path id="ma4f5fd3713" d="M 0 0 
L 0 3.5 
" style="stroke: #000000; stroke-width: 0.8"/>
      </defs>
      <g>
       <use xlink:href="#ma4f5fd3713" x="38.504688" y="550.8" style="stroke: #000000; stroke-width: 0.8"/>
      </g>
     </g>
     <g id="text_1">
      <!-- 10 -->
      <g transform="translate(32.94375 564.957813) scale(0.1 -0.1)">
       <defs>
        <path id="ArialMT-31" d="M 2384 0 
L 1822 0 
L 1822 3584 
Q 1619 3391 1289 3197 
Q 959 3003 697 2906 
L 697 3450 
Q 1169 3672 1522 3987 
Q 1875 4303 2022 4600 
L 2384 4600 
L 2384 0 
z
" transform="scale(0.015625)"/>
        <path id="ArialMT-30" d="M 266 2259 
Q 266 3072 433 3567 
Q 600 4063 929 4331 
Q 1259 4600 1759 4600 
Q 2128 4600 2406 4451 
Q 2684 4303 2865 4023 
Q 3047 3744 3150 3342 
Q 3253 2941 3253 2259 
Q 3253 1453 3087 958 
Q 2922 463 2592 192 
Q 2263 -78 1759 -78 
Q 1097 -78 719 397 
Q 266 969 266 2259 
z
M 844 2259 
Q 844 1131 1108 757 
Q 1372 384 1759 384 
Q 2147 384 2411 759 
Q 2675 1134 2675 2259 
Q 2675 3391 2411 3762 
Q 2147 4134 1753 4134 
Q 1366 4134 1134 3806 
Q 844 3388 844 2259 
z
" transform="scale(0.015625)"/>
       </defs>
       <use xlink:href="#ArialMT-31"/>
       <use xlink:href="#ArialMT-30" x="55.615234"/>
      </g>
     </g>
    </g>
    <g id="xtick_2">
     <g id="line2d_2">
      <g>
       <use xlink:href="#ma4f5fd3713" x="89.504688" y="550.8" style="stroke: #000000; stroke-width: 0.8"/>
      </g>
     </g>
     <g id="text_2">
      <!-- 11 -->
      <g transform="translate(84.3125 564.957813) scale(0.1 -0.1)">
       <use xlink:href="#ArialMT-31"/>
       <use xlink:href="#ArialMT-31" x="48.240234"/>
      </g>
     </g>
    </g>
    <g id="xtick_3">
     <g id="line2d_3">
      <g>
       <use xlink:href="#ma4f5fd3713" x="140.504688" y="550.8" style="stroke: #000000; stroke-width: 0.8"/>
      </g>
     </g>
     <g id="text_3">
      <!-- 12 -->
      <g transform="translate(134.94375 564.957813) scale(0.1 -0.1)">
       <defs>
        <path id="ArialMT-32" d="M 3222 541 
L 3222 0 
L 194 0 
Q 188 203 259 391 
Q 375 700 629 1000 
Q 884 1300 1366 1694 
Q 2113 2306 2375 2664 
Q 2638 3022 2638 3341 
Q 2638 3675 2398 3904 
Q 2159 4134 1775 4134 
Q 1369 4134 1125 3890 
Q 881 3647 878 3216 
L 300 3275 
Q 359 3922 746 4261 
Q 1134 4600 1788 4600 
Q 2447 4600 2831 4234 
Q 3216 3869 3216 3328 
Q 3216 3053 3103 2787 
Q 2991 2522 2730 2228 
Q 2469 1934 1863 1422 
Q 1356 997 1212 845 
Q 1069 694 975 541 
L 3222 541 
z
" transform="scale(0.015625)"/>
       </defs>
       <use xlink:href="#ArialMT-31"/>
       <use xlink:href="#ArialMT-32" x="55.615234"/>
      </g>
     </g>
    </g>
    <g id="xtick_4">
     <g id="line2d_4">
      <g>
       <use xlink:href="#ma4f5fd3713" x="191.504688" y="550.8" style="stroke: #000000; stroke-width: 0.8"/>
      </g>
     </g>
     <g id="text_4">
      <!-- 13 -->
      <g transform="translate(185.94375 564.957813) scale(0.1 -0.1)">
       <defs>
        <path id="ArialMT-33" d="M 269 1209 
L 831 1284 
Q 928 806 1161 595 
Q 1394 384 1728 384 
Q 2125 384 2398 659 
Q 2672 934 2672 1341 
Q 2672 1728 2419 1979 
Q 2166 2231 1775 2231 
Q 1616 2231 1378 2169 
L 1441 2663 
Q 1497 2656 1531 2656 
Q 1891 2656 2178 2843 
Q 2466 3031 2466 3422 
Q 2466 3731 2256 3934 
Q 2047 4138 1716 4138 
Q 1388 4138 1169 3931 
Q 950 3725 888 3313 
L 325 3413 
Q 428 3978 793 4289 
Q 1159 4600 1703 4600 
Q 2078 4600 2393 4439 
Q 2709 4278 2876 4000 
Q 3044 3722 3044 3409 
Q 3044 3113 2884 2869 
Q 2725 2625 2413 2481 
Q 2819 2388 3044 2092 
Q 3269 1797 3269 1353 
Q 3269 753 2831 336 
Q 2394 -81 1725 -81 
Q 1122 -81 723 278 
Q 325 638 269 1209 
z
" transform="scale(0.015625)"/>
       </defs>
       <use xlink:href="#ArialMT-31"/>
       <use xlink:href="#ArialMT-33" x="55.615234"/>
      </g>
     </g>
    </g>
    <g id="xtick_5">
     <g id="line2d_5">
      <defs>
       <path id="m1d90790c13" d="M 0 0 
L 0 2 
" style="stroke: #000000; stroke-width: 0.6"/>
      </defs>
      <g>
       <use xlink:href="#m1d90790c13" x="64.004688" y="550.8" style="stroke: #000000; stroke-width: 0.6"/>
      </g>
     </g>
    </g>
    <g id="xtick_6">
     <g id="line2d_6">
      <g>
       <use xlink:href="#m1d90790c13" x="115.004688" y="550.8" style="stroke: #000000; stroke-width: 0.6"/>
      </g>
     </g>
    </g>
    <g id="xtick_7">
     <g id="line2d_7">
      <g>
       <use xlink:href="#m1d90790c13" x="166.004688" y="550.8" style="stroke: #000000; stroke-width: 0.6"/>
      </g>
     </g>
    </g>
   </g>
   <g id="matplotlib.axis_2">
    <g id="ytick_1">
     <g id="line2d_8"/>
     <g id="text_5">
      <!-- 2000 -->
      <g transform="translate(12.760938 533.471214) scale(0.1 -0.1)">
       <use xlink:href="#ArialMT-32"/>
       <use xlink:href="#ArialMT-30" x="55.615234"/>
       <use xlink:href="#ArialMT-30" x="111.230469"/>
       <use xlink:href="#ArialMT-30" x="166.845703"/>
      </g>
     </g>
    </g>
    <g id="ytick_2">
     <g id="line2d_9"/>
     <g id="text_6">
      <!-- 4000 -->
      <g transform="translate(12.760938 449.840445) scale(0.1 -0.1)">
       <defs>
        <path id="ArialMT-34" d="M 2069 0 
L 2069 1097 
L 81 1097 
L 81 1613 
L 2172 4581 
L 2631 4581 
L 2631 1613 
L 3250 1613 
L 3250 1097 
L 2631 1097 
L 2631 0 
L 2069 0 
z
M 2069 1613 
L 2069 3678 
L 634 1613 
L 2069 1613 
z
" transform="scale(0.015625)"/>
       </defs>
       <use xlink:href="#ArialMT-34"/>
       <use xlink:href="#ArialMT-30" x="55.615234"/>
       <use xlink:href="#ArialMT-30" x="111.230469"/>
       <use xlink:href="#ArialMT-30" x="166.845703"/>
      </g>
     </g>
    </g>
    <g id="ytick_3">
     <g id="line2d_10"/>
     <g id="text_7">
      <!-- 6000 -->
      <g transform="translate(12.760938 366.209675) scale(0.1 -0.1)">
       <defs>
        <path id="ArialMT-36" d="M 3184 3459 
L 2625 3416 
Q 2550 3747 2413 3897 
Q 2184 4138 1850 4138 
Q 1581 4138 1378 3988 
Q 1113 3794 959 3422 
Q 806 3050 800 2363 
Q 1003 2672 1297 2822 
Q 1591 2972 1913 2972 
Q 2475 2972 2870 2558 
Q 3266 2144 3266 1488 
Q 3266 1056 3080 686 
Q 2894 316 2569 119 
Q 2244 -78 1831 -78 
Q 1128 -78 684 439 
Q 241 956 241 2144 
Q 241 3472 731 4075 
Q 1159 4600 1884 4600 
Q 2425 4600 2770 4297 
Q 3116 3994 3184 3459 
z
M 888 1484 
Q 888 1194 1011 928 
Q 1134 663 1356 523 
Q 1578 384 1822 384 
Q 2178 384 2434 671 
Q 2691 959 2691 1453 
Q 2691 1928 2437 2201 
Q 2184 2475 1800 2475 
Q 1419 2475 1153 2201 
Q 888 1928 888 1484 
z
" transform="scale(0.015625)"/>
       </defs>
       <use xlink:href="#ArialMT-36"/>
       <use xlink:href="#ArialMT-30" x="55.615234"/>
       <use xlink:href="#ArialMT-30" x="111.230469"/>
       <use xlink:href="#ArialMT-30" x="166.845703"/>
      </g>
     </g>
    </g>
    <g id="ytick_4">
     <g id="line2d_11"/>
     <g id="text_8">
      <!-- 8000 -->
      <g transform="translate(12.760938 282.578906) scale(0.1 -0.1)">
       <defs>
        <path id="ArialMT-38" d="M 1131 2484 
Q 781 2613 612 2850 
Q 444 3088 444 3419 
Q 444 3919 803 4259 
Q 1163 4600 1759 4600 
Q 2359 4600 2725 4251 
Q 3091 3903 3091 3403 
Q 3091 3084 2923 2848 
Q 2756 2613 2416 2484 
Q 2838 2347 3058 2040 
Q 3278 1734 3278 1309 
Q 3278 722 2862 322 
Q 2447 -78 1769 -78 
Q 1091 -78 675 323 
Q 259 725 259 1325 
Q 259 1772 486 2073 
Q 713 2375 1131 2484 
z
M 1019 3438 
Q 1019 3113 1228 2906 
Q 1438 2700 1772 2700 
Q 2097 2700 2305 2904 
Q 2513 3109 2513 3406 
Q 2513 3716 2298 3927 
Q 2084 4138 1766 4138 
Q 1444 4138 1231 3931 
Q 1019 3725 1019 3438 
z
M 838 1322 
Q 838 1081 952 856 
Q 1066 631 1291 507 
Q 1516 384 1775 384 
Q 2178 384 2440 643 
Q 2703 903 2703 1303 
Q 2703 1709 2433 1975 
Q 2163 2241 1756 2241 
Q 1359 2241 1098 1978 
Q 838 1716 838 1322 
z
" transform="scale(0.015625)"/>
       </defs>
       <use xlink:href="#ArialMT-38"/>
       <use xlink:href="#ArialMT-30" x="55.615234"/>
       <use xlink:href="#ArialMT-30" x="111.230469"/>
       <use xlink:href="#ArialMT-30" x="166.845703"/>
      </g>
     </g>
    </g>
    <g id="ytick_5">
     <g id="line2d_12"/>
     <g id="text_9">
      <!-- 10000 -->
      <g transform="translate(7.2 198.948137) scale(0.1 -0.1)">
       <use xlink:href="#ArialMT-31"/>
       <use xlink:href="#ArialMT-30" x="55.615234"/>
       <use xlink:href="#ArialMT-30" x="111.230469"/>
       <use xlink:href="#ArialMT-30" x="166.845703"/>
       <use xlink:href="#ArialMT-30" x="222.460938"/>
      </g>
     </g>
    </g>
    <g id="ytick_6">
     <g id="line2d_13"/>
     <g id="text_10">
      <!-- 12000 -->
      <g transform="translate(7.2 115.317368) scale(0.1 -0.1)">
       <use xlink:href="#ArialMT-31"/>
       <use xlink:href="#ArialMT-32" x="55.615234"/>
       <use xlink:href="#ArialMT-30" x="111.230469"/>
       <use xlink:href="#ArialMT-30" x="166.845703"/>
       <use xlink:href="#ArialMT-30" x="222.460938"/>
      </g>
     </g>
    </g>
    <g id="ytick_7">
     <g id="line2d_14"/>
     <g id="text_11">
      <!-- 14000 -->
      <g transform="translate(7.2 31.686599) scale(0.1 -0.1)">
       <use xlink:href="#ArialMT-31"/>
       <use xlink:href="#ArialMT-34" x="55.615234"/>
       <use xlink:href="#ArialMT-30" x="111.230469"/>
       <use xlink:href="#ArialMT-30" x="166.845703"/>
       <use xlink:href="#ArialMT-30" x="222.460938"/>
      </g>
     </g>
    </g>
   </g>
   <g id="line2d_15">
    <path d="M 38.36381 489.9168 
L 39.703099 482.599108 
L 41.042388 487.993292 
L 42.381677 486.446123 
L 43.720965 483.309969 
L 45.060254 484.606246 
L 46.399543 482.85 
L 47.738832 482.808185 
L 49.078121 479.797477 
L 50.41741 480.884677 
L 51.756698 475.448677 
L 53.095987 474.654185 
L 54.435276 475.657754 
L 55.774565 472.145262 
L 57.113854 474.194215 
L 58.453143 477.9576 
L 59.792431 471.518031 
L 61.13172 469.929046 
L 62.471009 466.583815 
L 63.810298 464.702123 
L 65.149587 470.848985 
L 66.488876 466.667446 
L 67.828164 467.671015 
L 69.167453 464.785754 
L 70.506742 464.242154 
L 71.846031 466.332923 
L 73.18532 460.604215 
L 74.524609 454.540985 
L 75.863897 457.258985 
L 77.203186 456.2136 
L 78.542475 449.523138 
L 79.881764 454.164646 
L 81.221053 454.708246 
L 82.560342 448.101415 
L 83.89963 449.6904 
L 85.238919 445.216154 
L 86.578208 445.801569 
L 87.917497 442.038185 
L 89.256786 449.063169 
L 90.596075 440.658277 
L 91.935363 432.420646 
L 93.274652 439.654708 
L 94.613941 430.538954 
L 95.95323 430.162615 
L 97.292519 413.478277 
L 98.631808 413.980062 
L 99.971096 408.418615 
L 101.310385 392.361508 
L 102.649674 384.918369 
L 103.988963 358.114708 
L 105.328252 333.9036 
L 106.667541 293.049969 
L 108.006829 250.440092 
L 109.346118 194.407477 
L 110.685407 102.664523 
L 112.024696 42.952154 
L 113.363985 39.481477 
L 114.703274 44.206615 
L 116.042562 77.408031 
L 117.381851 161.206062 
L 118.72114 299.698615 
L 120.060429 391.399754 
L 121.399718 435.347723 
L 122.739007 446.345169 
L 124.078295 457.217169 
L 125.417584 456.422677 
L 126.756873 458.095292 
L 128.096162 465.789323 
L 129.435451 470.598092 
L 130.77474 467.671015 
L 132.114028 474.277846 
L 133.453317 474.486923 
L 134.792606 476.661323 
L 136.131895 479.379323 
L 137.471184 479.295692 
L 138.810473 479.086615 
L 140.149761 483.017262 
L 141.48905 487.156985 
L 142.828339 488.913231 
L 144.167628 490.794923 
L 145.506917 490.627662 
L 146.846206 493.512923 
L 148.185494 492.509354 
L 149.524783 495.687323 
L 150.864072 495.3528 
L 152.203361 497.987169 
L 153.54265 501.123323 
L 154.881939 499.450708 
L 156.221227 501.416031 
L 157.560516 501.081508 
L 158.899805 505.890277 
L 160.239094 505.848462 
L 161.578383 506.308431 
L 162.917672 510.155446 
L 164.25696 506.057538 
L 165.596249 511.744431 
L 166.935538 516.469569 
L 168.274827 513.2916 
L 169.614116 516.051415 
L 170.953405 516.971354 
L 172.292693 514.838769 
L 173.631982 517.264062 
L 174.971271 518.100369 
L 176.31056 518.309446 
L 177.649849 516.511385 
L 178.989138 521.780123 
L 180.328426 521.278338 
L 181.667715 522.449169 
L 183.007004 521.278338 
L 184.346293 523.787262 
L 185.685582 521.947385 
L 187.024871 526.505262 
L 188.364159 527.717908 
L 189.703448 530.477723 
L 191.042737 526.797969 
L 192.382026 528.219692 
" clip-path="url(#pafa0b9b165)" style="fill: none; stroke: #000000; stroke-width: 2; stroke-linecap: square"/>
   </g>
   <g id="line2d_16">
    <path d="M 38.36381 460.646031 
L 39.703099 461.942308 
L 41.042388 456.255415 
L 42.381677 458.304369 
L 43.720965 456.380862 
L 45.060254 452.032062 
L 46.399543 456.506308 
L 47.738832 453.244708 
L 49.078121 449.397692 
L 50.41741 445.174338 
L 51.756698 446.888769 
L 53.095987 449.314062 
L 54.435276 444.087138 
L 55.774565 445.508862 
L 57.113854 444.379846 
L 58.453143 441.5364 
L 59.792431 442.916308 
L 61.13172 435.807692 
L 62.471009 435.682246 
L 63.810298 432.671538 
L 65.149587 430.957108 
L 66.488876 424.6848 
L 67.828164 427.737323 
L 69.167453 426.482862 
L 70.506742 426.691938 
L 71.846031 420.377815 
L 73.18532 422.803108 
L 74.524609 416.781692 
L 75.863897 417.492554 
L 77.203186 415.9872 
L 78.542475 411.972923 
L 79.881764 411.931108 
L 81.221053 406.996892 
L 82.560342 410.425754 
L 83.89963 406.746 
L 85.238919 399.6792 
L 86.578208 405.575169 
L 87.917497 393.490523 
L 89.256786 398.0484 
L 90.596075 393.156 
L 91.935363 383.245754 
L 93.274652 384.542031 
L 94.613941 373.502769 
L 95.95323 369.488492 
L 97.292519 358.992831 
L 98.631808 347.117262 
L 99.971096 330.892892 
L 101.310385 316.550215 
L 102.649674 294.931662 
L 103.988963 263.068338 
L 105.328252 221.211138 
L 106.667541 169.109169 
L 108.006829 149.539569 
L 109.346118 153.219323 
L 110.685407 221.252954 
L 112.024696 296.018862 
L 113.363985 346.657292 
L 114.703274 377.517046 
L 116.042562 399.219231 
L 117.381851 404.655231 
L 118.72114 411.136615 
L 120.060429 414.272769 
L 121.399718 414.649108 
L 122.739007 421.883169 
L 124.078295 426.106523 
L 125.417584 425.939262 
L 126.756873 429.786277 
L 128.096162 438.483877 
L 129.435451 431.626154 
L 130.77474 445.927015 
L 132.114028 437.982092 
L 133.453317 439.487446 
L 134.792606 440.323754 
L 136.131895 457.718954 
L 137.471184 450.944862 
L 138.810473 449.564954 
L 140.149761 457.969846 
L 141.48905 462.1932 
L 142.828339 463.489477 
L 144.167628 464.158523 
L 145.506917 463.573108 
L 146.846206 462.569538 
L 148.185494 468.7164 
L 149.524783 472.061631 
L 150.864072 475.406862 
L 152.203361 478.292123 
L 153.54265 473.483354 
L 154.881939 482.013692 
L 156.221227 479.253877 
L 157.560516 483.142708 
L 158.899805 483.560862 
L 160.239094 483.728123 
L 161.578383 486.613385 
L 162.917672 491.631231 
L 164.25696 484.522615 
L 165.596249 490.042246 
L 166.935538 492.425723 
L 168.274827 492.760246 
L 169.614116 497.736277 
L 170.953405 495.980031 
L 172.292693 499.868862 
L 173.631982 499.534338 
L 174.971271 494.725569 
L 176.31056 496.607262 
L 177.649849 505.263046 
L 178.989138 503.130462 
L 180.328426 504.803077 
L 181.667715 502.461415 
L 183.007004 509.151877 
L 184.346293 505.346677 
L 185.685582 505.513938 
L 187.024871 510.448154 
L 188.364159 511.995323 
L 189.703448 509.820923 
L 191.042737 510.280892 
L 192.382026 514.295169 
" clip-path="url(#pafa0b9b165)" style="fill: none; stroke: #008e00; stroke-width: 2; stroke-linecap: square"/>
   </g>
   <g id="line2d_17">
    <path d="M 38.36381 449.815846 
L 39.703099 449.104985 
L 41.042388 450.150369 
L 42.381677 449.104985 
L 43.720965 445.425231 
L 45.060254 452.4084 
L 46.399543 444.296215 
L 47.738832 446.846954 
L 49.078121 444.463477 
L 50.41741 442.330892 
L 51.756698 440.658277 
L 53.095987 440.072862 
L 54.435276 447.056031 
L 55.774565 437.062154 
L 57.113854 436.811262 
L 58.453143 436.560369 
L 59.792431 432.420646 
L 61.13172 433.256954 
L 62.471009 430.580769 
L 63.810298 427.444615 
L 65.149587 433.675108 
L 66.488876 425.270215 
L 67.828164 426.064708 
L 69.167453 423.221262 
L 70.506742 421.088677 
L 71.846031 420.628708 
L 73.18532 423.764862 
L 74.524609 420.377815 
L 75.863897 421.005046 
L 77.203186 416.279908 
L 78.542475 418.747015 
L 79.881764 411.512954 
L 81.221053 416.572615 
L 82.560342 414.230954 
L 83.89963 411.847477 
L 85.238919 412.098369 
L 86.578208 407.038708 
L 87.917497 412.098369 
L 89.256786 413.227385 
L 90.596075 406.076954 
L 91.935363 409.171292 
L 93.274652 404.738862 
L 94.613941 409.505815 
L 95.95323 406.996892 
L 97.292519 405.742431 
L 98.631808 404.320708 
L 99.971096 410.843908 
L 101.310385 406.746 
L 102.649674 411.6384 
L 103.988963 409.505815 
L 105.328252 410.802092 
L 106.667541 411.680215 
L 108.006829 408.167723 
L 109.346118 412.474708 
L 110.685407 416.656246 
L 112.024696 414.690923 
L 113.363985 415.318154 
L 114.703274 418.370677 
L 116.042562 419.666954 
L 117.381851 421.005046 
L 118.72114 422.677662 
L 120.060429 424.810246 
L 121.399718 429.911723 
L 122.739007 426.190154 
L 124.078295 427.779138 
L 125.417584 430.162615 
L 126.756873 439.362 
L 128.096162 437.480308 
L 129.435451 438.316615 
L 130.77474 436.058585 
L 132.114028 439.821969 
L 133.453317 443.459908 
L 134.792606 445.216154 
L 136.131895 446.637877 
L 137.471184 449.104985 
L 138.810473 448.812277 
L 140.149761 451.572092 
L 141.48905 452.199323 
L 142.828339 454.750062 
L 144.167628 463.907631 
L 145.506917 462.987692 
L 146.846206 459.224308 
L 148.185494 464.827569 
L 149.524783 464.409415 
L 150.864072 469.134554 
L 152.203361 470.681723 
L 153.54265 474.946892 
L 154.881939 473.148831 
L 156.221227 476.954031 
L 157.560516 477.748523 
L 158.899805 478.166677 
L 160.239094 475.197785 
L 161.578383 476.535877 
L 162.917672 480.341077 
L 164.25696 482.222769 
L 165.596249 487.575138 
L 166.935538 486.404308 
L 168.274827 483.3936 
L 169.614116 487.784215 
L 170.953405 490.334954 
L 172.292693 487.282431 
L 173.631982 492.300277 
L 174.971271 491.045815 
L 176.31056 490.4604 
L 177.649849 495.980031 
L 178.989138 492.718431 
L 180.328426 497.359938 
L 181.667715 496.021846 
L 183.007004 495.185538 
L 184.346293 493.303846 
L 185.685582 499.534338 
L 187.024871 502.712308 
L 188.364159 500.7888 
L 189.703448 505.388492 
L 191.042737 504.0504 
L 192.382026 504.301292 
" clip-path="url(#pafa0b9b165)" style="fill: none; stroke: #ffb14e; stroke-width: 2; stroke-linecap: square"/>
   </g>
   <g id="patch_3">
    <path d="M 38.504688 550.8 
L 38.504688 7.2 
" style="fill: none; stroke: #000000; stroke-width: 0.8; stroke-linejoin: miter; stroke-linecap: square"/>
   </g>
   <g id="patch_4">
    <path d="M 38.504688 550.8 
L 191.504688 550.8 
" style="fill: none; stroke: #000000; stroke-width: 0.8; stroke-linejoin: miter; stroke-linecap: square"/>
   </g>
  </g>
  <g id="axes_2">
   <g id="patch_5">
    <path d="M 199.154688 550.8 
L 352.154687 550.8 
L 352.154687 7.2 
L 199.154688 7.2 
z
" style="fill: #ffffff"/>
   </g>
   <g id="matplotlib.axis_3">
    <g id="xtick_8">
     <g id="line2d_18">
      <g>
       <use xlink:href="#ma4f5fd3713" x="199.154688" y="550.8" style="stroke: #000000; stroke-width: 0.8"/>
      </g>
     </g>
     <g id="text_12">
      <!-- 10 -->
      <g transform="translate(193.59375 564.957813) scale(0.1 -0.1)">
       <use xlink:href="#ArialMT-31"/>
       <use xlink:href="#ArialMT-30" x="55.615234"/>
      </g>
     </g>
    </g>
    <g id="xtick_9">
     <g id="line2d_19">
      <g>
       <use xlink:href="#ma4f5fd3713" x="250.154688" y="550.8" style="stroke: #000000; stroke-width: 0.8"/>
      </g>
     </g>
     <g id="text_13">
      <!-- 11 -->
      <g transform="translate(244.9625 564.957813) scale(0.1 -0.1)">
       <use xlink:href="#ArialMT-31"/>
       <use xlink:href="#ArialMT-31" x="48.240234"/>
      </g>
     </g>
    </g>
    <g id="xtick_10">
     <g id="line2d_20">
      <g>
       <use xlink:href="#ma4f5fd3713" x="301.154688" y="550.8" style="stroke: #000000; stroke-width: 0.8"/>
      </g>
     </g>
     <g id="text_14">
      <!-- 12 -->
      <g transform="translate(295.59375 564.957813) scale(0.1 -0.1)">
       <use xlink:href="#ArialMT-31"/>
       <use xlink:href="#ArialMT-32" x="55.615234"/>
      </g>
     </g>
    </g>
    <g id="xtick_11">
     <g id="line2d_21">
      <g>
       <use xlink:href="#ma4f5fd3713" x="352.154688" y="550.8" style="stroke: #000000; stroke-width: 0.8"/>
      </g>
     </g>
     <g id="text_15">
      <!-- 13 -->
      <g transform="translate(346.59375 564.957813) scale(0.1 -0.1)">
       <use xlink:href="#ArialMT-31"/>
       <use xlink:href="#ArialMT-33" x="55.615234"/>
      </g>
     </g>
    </g>
    <g id="xtick_12">
     <g id="line2d_22">
      <g>
       <use xlink:href="#m1d90790c13" x="224.654688" y="550.8" style="stroke: #000000; stroke-width: 0.6"/>
      </g>
     </g>
    </g>
    <g id="xtick_13">
     <g id="line2d_23">
      <g>
       <use xlink:href="#m1d90790c13" x="275.654688" y="550.8" style="stroke: #000000; stroke-width: 0.6"/>
      </g>
     </g>
    </g>
    <g id="xtick_14">
     <g id="line2d_24">
      <g>
       <use xlink:href="#m1d90790c13" x="326.654688" y="550.8" style="stroke: #000000; stroke-width: 0.6"/>
      </g>
     </g>
    </g>
   </g>
   <g id="matplotlib.axis_4">
    <g id="ytick_8">
     <g id="line2d_25"/>
     <g id="text_16">
      <!-- 2000 -->
      <g transform="translate(173.410938 533.471214) scale(0.1 -0.1)">
       <use xlink:href="#ArialMT-32"/>
       <use xlink:href="#ArialMT-30" x="55.615234"/>
       <use xlink:href="#ArialMT-30" x="111.230469"/>
       <use xlink:href="#ArialMT-30" x="166.845703"/>
      </g>
     </g>
    </g>
    <g id="ytick_9">
     <g id="line2d_26"/>
     <g id="text_17">
      <!-- 4000 -->
      <g transform="translate(173.410938 449.840445) scale(0.1 -0.1)">
       <use xlink:href="#ArialMT-34"/>
       <use xlink:href="#ArialMT-30" x="55.615234"/>
       <use xlink:href="#ArialMT-30" x="111.230469"/>
       <use xlink:href="#ArialMT-30" x="166.845703"/>
      </g>
     </g>
    </g>
    <g id="ytick_10">
     <g id="line2d_27"/>
     <g id="text_18">
      <!-- 6000 -->
      <g transform="translate(173.410938 366.209675) scale(0.1 -0.1)">
       <use xlink:href="#ArialMT-36"/>
       <use xlink:href="#ArialMT-30" x="55.615234"/>
       <use xlink:href="#ArialMT-30" x="111.230469"/>
       <use xlink:href="#ArialMT-30" x="166.845703"/>
      </g>
     </g>
    </g>
    <g id="ytick_11">
     <g id="line2d_28"/>
     <g id="text_19">
      <!-- 8000 -->
      <g transform="translate(173.410938 282.578906) scale(0.1 -0.1)">
       <use xlink:href="#ArialMT-38"/>
       <use xlink:href="#ArialMT-30" x="55.615234"/>
       <use xlink:href="#ArialMT-30" x="111.230469"/>
       <use xlink:href="#ArialMT-30" x="166.845703"/>
      </g>
     </g>
    </g>
    <g id="ytick_12">
     <g id="line2d_29"/>
     <g id="text_20">
      <!-- 10000 -->
      <g transform="translate(167.85 198.948137) scale(0.1 -0.1)">
       <use xlink:href="#ArialMT-31"/>
       <use xlink:href="#ArialMT-30" x="55.615234"/>
       <use xlink:href="#ArialMT-30" x="111.230469"/>
       <use xlink:href="#ArialMT-30" x="166.845703"/>
       <use xlink:href="#ArialMT-30" x="222.460938"/>
      </g>
     </g>
    </g>
    <g id="ytick_13">
     <g id="line2d_30"/>
     <g id="text_21">
      <!-- 12000 -->
      <g transform="translate(167.85 115.317368) scale(0.1 -0.1)">
       <use xlink:href="#ArialMT-31"/>
       <use xlink:href="#ArialMT-32" x="55.615234"/>
       <use xlink:href="#ArialMT-30" x="111.230469"/>
       <use xlink:href="#ArialMT-30" x="166.845703"/>
       <use xlink:href="#ArialMT-30" x="222.460938"/>
      </g>
     </g>
    </g>
    <g id="ytick_14">
     <g id="line2d_31"/>
     <g id="text_22">
      <!-- 14000 -->
      <g transform="translate(167.85 31.686599) scale(0.1 -0.1)">
       <use xlink:href="#ArialMT-31"/>
       <use xlink:href="#ArialMT-34" x="55.615234"/>
       <use xlink:href="#ArialMT-30" x="111.230469"/>
       <use xlink:href="#ArialMT-30" x="166.845703"/>
       <use xlink:href="#ArialMT-30" x="222.460938"/>
      </g>
     </g>
    </g>
   </g>
   <g id="line2d_32">
    <path d="M 199.01381 501.123323 
L 200.353099 493.011138 
L 201.692388 486.571569 
L 203.031677 472.145262 
L 204.370965 451.572092 
L 205.710254 425.646554 
L 207.049543 398.759262 
L 208.388832 387.385477 
L 209.728121 412.182 
L 211.06741 464.116708 
L 212.406698 500.663354 
L 213.745987 512.873446 
L 215.085276 520.232954 
L 216.424565 525.334431 
L 217.763854 528.554215 
L 219.103143 531.063138 
L 220.442431 531.815815 
L 221.78172 529.850492 
L 223.121009 531.314031 
L 224.460298 528.261508 
L 225.799587 529.223262 
L 227.138876 533.530246 
L 228.478164 529.056 
L 229.817453 527.007046 
L 231.156742 527.801538 
L 232.496031 530.6868 
L 233.83532 531.983077 
L 235.174609 528.094246 
L 236.513897 527.926985 
L 237.853186 526.338 
L 239.192475 531.648554 
L 240.531764 529.850492 
L 241.871053 529.223262 
L 243.210342 527.467015 
L 244.54963 528.679662 
L 245.888919 524.581754 
L 247.228208 522.5328 
L 248.567497 520.400215 
L 249.906786 523.703631 
L 251.246075 524.581754 
L 252.585363 517.431323 
L 253.924652 520.316585 
L 255.263941 518.100369 
L 256.60323 515.256923 
L 257.942519 514.169723 
L 259.281808 513.417046 
L 260.621096 505.848462 
L 261.960385 504.175846 
L 263.299674 506.475692 
L 264.638963 502.461415 
L 265.978252 491.840308 
L 267.317541 484.731692 
L 268.656829 480.926492 
L 269.996118 466.416554 
L 271.335407 454.331908 
L 272.674696 443.376277 
L 274.013985 425.479292 
L 275.353274 413.394646 
L 276.692562 393.825046 
L 278.031851 373.795477 
L 279.37114 342.893908 
L 280.710429 323.826092 
L 282.049718 307.727169 
L 283.389007 289.746554 
L 284.728295 289.621108 
L 286.067584 305.009169 
L 287.406873 326.418646 
L 288.746162 358.3656 
L 290.085451 387.301846 
L 291.42474 415.276338 
L 292.764028 435.096831 
L 294.103317 458.178923 
L 295.442606 474.445108 
L 296.781895 480.550154 
L 298.121184 494.892831 
L 299.460473 497.318123 
L 300.799761 504.928523 
L 302.13905 513.333415 
L 303.478339 512.580738 
L 304.817628 512.2044 
L 306.156917 520.149323 
L 307.496206 519.2712 
L 308.835494 522.240092 
L 310.174783 517.389508 
L 311.514072 517.556769 
L 312.853361 517.556769 
L 314.19265 517.222246 
L 315.531939 515.340554 
L 316.871227 506.350246 
L 318.210516 506.601138 
L 319.549805 495.687323 
L 320.889094 488.369631 
L 322.228383 478.083046 
L 323.567672 457.468062 
L 324.90696 444.003508 
L 326.246249 450.7776 
L 327.585538 482.222769 
L 328.924827 502.461415 
L 330.264116 522.114646 
L 331.603405 530.603169 
L 332.942693 534.951969 
L 334.281982 533.446615 
L 335.621271 534.951969 
L 336.96056 538.966246 
L 338.299849 536.1228 
L 339.639138 538.8408 
L 340.978426 536.540954 
L 342.317715 542.144215 
L 343.657004 542.771446 
L 344.996293 540.889754 
L 346.335582 539.802554 
L 347.674871 544.653138 
L 349.014159 540.220708 
L 350.353448 544.485877 
L 351.692737 545.154923 
L 353.032026 542.980523 
" clip-path="url(#p5b75bc7197)" style="fill: none; stroke: #000000; stroke-width: 2; stroke-linecap: square"/>
   </g>
   <g id="line2d_33">
    <path d="M 199.01381 475.908646 
L 200.353099 460.520585 
L 201.692388 454.750062 
L 203.031677 436.393108 
L 204.370965 409.254923 
L 205.710254 385.002 
L 207.049543 346.155508 
L 208.388832 294.638954 
L 209.728121 249.102 
L 211.06741 261.772062 
L 212.406698 345.946431 
L 213.745987 432.504277 
L 215.085276 461.900492 
L 216.424565 482.85 
L 217.763854 487.031538 
L 219.103143 491.213077 
L 220.442431 498.6144 
L 221.78172 497.067231 
L 223.121009 493.931077 
L 224.460298 498.488954 
L 225.799587 498.823477 
L 227.138876 498.739846 
L 228.478164 496.44 
L 229.817453 496.189108 
L 231.156742 497.067231 
L 232.496031 499.199815 
L 233.83532 497.318123 
L 235.174609 496.398185 
L 236.513897 495.394615 
L 237.853186 495.436431 
L 239.192475 499.199815 
L 240.531764 493.596554 
L 241.871053 491.171262 
L 243.210342 487.993292 
L 244.54963 489.958615 
L 245.888919 487.366062 
L 247.228208 488.327815 
L 248.567497 489.247754 
L 249.906786 487.449692 
L 251.246075 484.564431 
L 252.585363 486.571569 
L 253.924652 483.811754 
L 255.263941 485.818892 
L 256.60323 485.818892 
L 257.942519 483.811754 
L 259.281808 478.5012 
L 260.621096 475.365046 
L 261.960385 476.368615 
L 263.299674 475.615938 
L 264.638963 473.776062 
L 265.978252 467.963723 
L 267.317541 468.381877 
L 268.656829 469.636338 
L 269.996118 466.542 
L 271.335407 469.719969 
L 272.674696 464.451231 
L 274.013985 467.0856 
L 275.353274 458.806154 
L 276.692562 454.917323 
L 278.031851 458.220738 
L 279.37114 454.875508 
L 280.710429 457.760769 
L 282.049718 458.137108 
L 283.389007 455.920892 
L 284.728295 459.307938 
L 286.067584 462.276831 
L 287.406873 456.422677 
L 288.746162 457.342615 
L 290.085451 460.0188 
L 291.42474 462.235015 
L 292.764028 471.4344 
L 294.103317 470.807169 
L 295.442606 471.852554 
L 296.781895 474.026954 
L 298.121184 473.483354 
L 299.460473 476.159538 
L 300.799761 480.341077 
L 302.13905 482.808185 
L 303.478339 484.188092 
L 304.817628 481.637354 
L 306.156917 489.9168 
L 307.496206 492.216646 
L 308.835494 487.909662 
L 310.174783 490.334954 
L 311.514072 481.177385 
L 312.853361 485.233477 
L 314.19265 482.515477 
L 315.531939 481.093754 
L 316.871227 479.881108 
L 318.210516 473.650615 
L 319.549805 460.855108 
L 320.889094 454.833692 
L 322.228383 434.302338 
L 323.567672 410.0076 
L 324.90696 374.924492 
L 326.246249 338.545108 
L 327.585538 325.498708 
L 328.924827 370.3248 
L 330.264116 438.107538 
L 331.603405 475.992277 
L 332.942693 497.025415 
L 334.281982 506.015723 
L 335.621271 508.231938 
L 336.96056 511.284462 
L 338.299849 512.748 
L 339.639138 514.336985 
L 340.978426 519.354831 
L 342.317715 522.323723 
L 343.657004 522.950954 
L 344.996293 527.383385 
L 346.335582 524.916277 
L 347.674871 523.0764 
L 349.014159 523.327292 
L 350.353448 527.634277 
L 351.692737 528.763292 
L 353.032026 526.128923 
" clip-path="url(#p5b75bc7197)" style="fill: none; stroke: #008e00; stroke-width: 2; stroke-linecap: square"/>
   </g>
   <g id="line2d_34">
    <path d="M 199.01381 458.973415 
L 200.353099 445.383415 
L 201.692388 436.1004 
L 203.031677 424.935692 
L 204.370965 410.760277 
L 205.710254 385.963754 
L 207.049543 363.216185 
L 208.388832 328.216708 
L 209.728121 306.514523 
L 211.06741 314.417631 
L 212.406698 370.115723 
L 213.745987 415.4436 
L 215.085276 450.192185 
L 216.424565 462.1932 
L 217.763854 467.796462 
L 219.103143 471.267138 
L 220.442431 469.929046 
L 221.78172 474.528738 
L 223.121009 474.319662 
L 224.460298 478.752092 
L 225.799587 480.382892 
L 227.138876 475.908646 
L 228.478164 481.261015 
L 229.817453 478.459385 
L 231.156742 478.459385 
L 232.496031 477.873969 
L 233.83532 478.752092 
L 235.174609 479.002985 
L 236.513897 474.110585 
L 237.853186 471.141692 
L 239.192475 476.243169 
L 240.531764 472.856123 
L 241.871053 469.8036 
L 243.210342 479.0448 
L 244.54963 473.274277 
L 245.888919 479.128431 
L 247.228208 473.734246 
L 248.567497 472.814308 
L 249.906786 469.970862 
L 251.246075 472.647046 
L 252.585363 470.305385 
L 253.924652 469.427262 
L 255.263941 472.605231 
L 256.60323 470.221754 
L 257.942519 467.461938 
L 259.281808 469.26 
L 260.621096 474.1524 
L 261.960385 467.420123 
L 263.299674 470.263569 
L 264.638963 469.343631 
L 265.978252 473.107015 
L 267.317541 466.207477 
L 268.656829 469.970862 
L 269.996118 470.514462 
L 271.335407 465.496615 
L 272.674696 471.685292 
L 274.013985 470.514462 
L 275.353274 471.350769 
L 276.692562 466.834708 
L 278.031851 469.761785 
L 279.37114 474.654185 
L 280.710429 468.883662 
L 282.049718 468.590954 
L 283.389007 471.810738 
L 284.728295 470.3472 
L 286.067584 472.228892 
L 287.406873 470.848985 
L 288.746162 475.657754 
L 290.085451 472.688862 
L 291.42474 475.155969 
L 292.764028 473.901508 
L 294.103317 476.3268 
L 295.442606 475.197785 
L 296.781895 474.486923 
L 298.121184 477.623077 
L 299.460473 479.755662 
L 300.799761 474.194215 
L 302.13905 480.341077 
L 303.478339 480.173815 
L 304.817628 480.341077 
L 306.156917 480.382892 
L 307.496206 479.672031 
L 308.835494 481.511908 
L 310.174783 479.002985 
L 311.514072 475.114154 
L 312.853361 474.486923 
L 314.19265 472.187077 
L 315.531939 471.601662 
L 316.871227 457.635323 
L 318.210516 458.764338 
L 319.549805 457.928031 
L 320.889094 446.261538 
L 322.228383 432.880615 
L 323.567672 415.527231 
L 324.90696 392.319692 
L 326.246249 367.021385 
L 327.585538 360.623631 
L 328.924827 387.636369 
L 330.264116 436.936708 
L 331.603405 461.022369 
L 332.942693 481.679169 
L 334.281982 483.686308 
L 335.621271 490.544031 
L 336.96056 495.980031 
L 338.299849 498.112615 
L 339.639138 501.081508 
L 340.978426 505.095785 
L 342.317715 502.377785 
L 343.657004 503.423169 
L 344.996293 506.266615 
L 346.335582 506.392062 
L 347.674871 510.824492 
L 349.014159 509.946369 
L 350.353448 515.298738 
L 351.692737 512.2044 
L 353.032026 511.953508 
" clip-path="url(#p5b75bc7197)" style="fill: none; stroke: #ffb14e; stroke-width: 2; stroke-linecap: square"/>
   </g>
   <g id="patch_6">
    <path d="M 199.154688 550.8 
L 199.154688 7.2 
" style="fill: none; stroke: #000000; stroke-width: 0.8; stroke-linejoin: miter; stroke-linecap: square"/>
   </g>
   <g id="patch_7">
    <path d="M 199.154688 550.8 
L 352.154688 550.8 
" style="fill: none; stroke: #000000; stroke-width: 0.8; stroke-linejoin: miter; stroke-linecap: square"/>
   </g>
  </g>
  <g id="axes_3">
   <g id="patch_8">
    <path d="M 359.804687 167.082353 
L 512.804688 167.082353 
L 512.804688 7.2 
L 359.804687 7.2 
z
" style="fill: #ffffff"/>
   </g>
   <g id="matplotlib.axis_5">
    <g id="xtick_15">
     <g id="line2d_35">
      <g>
       <use xlink:href="#ma4f5fd3713" x="359.804687" y="167.082353" style="stroke: #000000; stroke-width: 0.8"/>
      </g>
     </g>
    </g>
    <g id="xtick_16">
     <g id="line2d_36">
      <g>
       <use xlink:href="#ma4f5fd3713" x="410.804687" y="167.082353" style="stroke: #000000; stroke-width: 0.8"/>
      </g>
     </g>
    </g>
    <g id="xtick_17">
     <g id="line2d_37">
      <g>
       <use xlink:href="#ma4f5fd3713" x="461.804688" y="167.082353" style="stroke: #000000; stroke-width: 0.8"/>
      </g>
     </g>
    </g>
    <g id="xtick_18">
     <g id="line2d_38">
      <g>
       <use xlink:href="#ma4f5fd3713" x="512.804688" y="167.082353" style="stroke: #000000; stroke-width: 0.8"/>
      </g>
     </g>
    </g>
    <g id="xtick_19">
     <g id="line2d_39">
      <g>
       <use xlink:href="#m1d90790c13" x="385.304687" y="167.082353" style="stroke: #000000; stroke-width: 0.6"/>
      </g>
     </g>
    </g>
    <g id="xtick_20">
     <g id="line2d_40">
      <g>
       <use xlink:href="#m1d90790c13" x="436.304687" y="167.082353" style="stroke: #000000; stroke-width: 0.6"/>
      </g>
     </g>
    </g>
    <g id="xtick_21">
     <g id="line2d_41">
      <g>
       <use xlink:href="#m1d90790c13" x="487.304688" y="167.082353" style="stroke: #000000; stroke-width: 0.6"/>
      </g>
     </g>
    </g>
   </g>
   <g id="matplotlib.axis_6">
    <g id="ytick_15">
     <g id="line2d_42"/>
     <g id="text_23">
      <!-- 2000 -->
      <g transform="translate(334.060937 132.16586) scale(0.1 -0.1)">
       <use xlink:href="#ArialMT-32"/>
       <use xlink:href="#ArialMT-30" x="55.615234"/>
       <use xlink:href="#ArialMT-30" x="111.230469"/>
       <use xlink:href="#ArialMT-30" x="166.845703"/>
      </g>
     </g>
    </g>
    <g id="ytick_16">
     <g id="line2d_43"/>
     <g id="text_24">
      <!-- 4000 -->
      <g transform="translate(334.060937 89.591872) scale(0.1 -0.1)">
       <use xlink:href="#ArialMT-34"/>
       <use xlink:href="#ArialMT-30" x="55.615234"/>
       <use xlink:href="#ArialMT-30" x="111.230469"/>
       <use xlink:href="#ArialMT-30" x="166.845703"/>
      </g>
     </g>
    </g>
    <g id="ytick_17">
     <g id="line2d_44"/>
     <g id="text_25">
      <!-- 6000 -->
      <g transform="translate(334.060937 47.017884) scale(0.1 -0.1)">
       <use xlink:href="#ArialMT-36"/>
       <use xlink:href="#ArialMT-30" x="55.615234"/>
       <use xlink:href="#ArialMT-30" x="111.230469"/>
       <use xlink:href="#ArialMT-30" x="166.845703"/>
      </g>
     </g>
    </g>
   </g>
   <g id="line2d_45">
    <path d="M 359.66381 106.193036 
L 361.003099 103.872754 
L 362.342388 100.14753 
L 363.681677 98.849023 
L 365.020965 93.718858 
L 366.360254 85.331782 
L 367.699543 78.966971 
L 369.038832 72.559586 
L 370.378121 84.906042 
L 371.71741 98.955458 
L 373.056698 106.256897 
L 374.395987 108.513318 
L 375.735276 108.364309 
L 377.074565 109.620242 
L 378.413854 111.387062 
L 379.753143 110.684592 
L 381.092431 111.748941 
L 382.43172 109.364798 
L 383.771009 111.727654 
L 385.110298 113.111309 
L 386.449587 112.238542 
L 387.788876 110.961323 
L 389.128164 111.536071 
L 390.467453 110.812314 
L 391.806742 113.430614 
L 393.146031 112.53656 
L 394.48532 112.281116 
L 395.824609 110.897462 
L 397.163897 110.76974 
L 398.503186 111.791515 
L 399.842475 112.025672 
L 401.181764 111.940524 
L 402.521053 110.642018 
L 403.860342 113.494475 
L 405.19963 112.32369 
L 406.538919 113.239031 
L 407.878208 112.238542 
L 409.217497 112.025672 
L 410.556786 112.877152 
L 411.896075 111.450923 
L 413.235363 112.792004 
L 414.574652 109.27965 
L 415.913941 112.408838 
L 417.25323 114.94199 
L 418.592519 113.004874 
L 419.931808 114.835555 
L 421.271096 113.260318 
L 422.610385 112.770717 
L 423.949674 110.727166 
L 425.288963 113.345466 
L 426.628252 113.728632 
L 427.967541 114.324668 
L 429.306829 114.771694 
L 430.646118 113.941502 
L 431.985407 114.260807 
L 433.324696 115.772183 
L 434.663985 116.091488 
L 436.003274 114.154372 
L 437.342562 113.217744 
L 438.681851 113.260318 
L 440.02114 114.665259 
L 441.360429 114.005363 
L 442.699718 113.515762 
L 444.039007 114.878129 
L 445.378295 114.622685 
L 446.717584 113.643484 
L 448.056873 114.771694 
L 449.396162 115.516739 
L 450.735451 115.836044 
L 452.07474 117.198412 
L 453.414028 116.155349 
L 454.753317 115.5806 
L 456.092606 117.879596 
L 457.431895 117.922169 
L 458.771184 116.21921 
L 460.110473 118.518205 
L 461.449761 117.624152 
L 462.78905 120.519183 
L 464.128339 119.284537 
L 465.467628 118.880084 
L 466.806917 117.900882 
L 468.146206 117.7093 
L 469.485494 118.049891 
L 470.824783 117.091977 
L 472.164072 119.029093 
L 473.503361 118.177613 
L 474.84265 117.98603 
L 476.181939 116.85782 
L 477.521227 115.005851 
L 478.860516 116.921681 
L 480.199805 114.984564 
L 481.539094 112.259829 
L 482.878383 108.42817 
L 484.217672 101.467323 
L 485.55696 100.232678 
L 486.896249 98.891597 
L 488.235538 107.555404 
L 489.574827 112.664282 
L 490.914116 119.135528 
L 492.253405 119.369685 
L 493.592693 122.30729 
L 494.931982 122.349864 
L 496.271271 125.755783 
L 497.61056 122.903326 
L 498.949849 122.222142 
L 500.289138 124.286981 
L 501.628426 125.202321 
L 502.967715 122.903326 
L 504.307004 126.458254 
L 505.646293 124.627573 
L 506.985582 123.733519 
L 508.324871 124.904303 
L 509.664159 124.584999 
L 511.003448 124.883016 
L 512.342737 126.990429 
L 513.682026 125.117173 
" clip-path="url(#p9bdbebf9e1)" style="fill: none; stroke: #000000; stroke-width: 2; stroke-linecap: square"/>
   </g>
   <g id="line2d_46">
    <path d="M 359.66381 101.956924 
L 361.003099 101.360888 
L 362.342388 102.169794 
L 363.681677 99.381198 
L 365.020965 98.65744 
L 366.360254 90.291652 
L 367.699543 85.523365 
L 369.038832 81.329827 
L 370.378121 80.797652 
L 371.71741 89.780764 
L 373.056698 97.997543 
L 374.395987 103.40444 
L 375.735276 104.255919 
L 377.074565 105.38413 
L 378.413854 103.340579 
L 379.753143 105.064825 
L 381.092431 104.490076 
L 382.43172 105.575713 
L 383.771009 103.723745 
L 385.110298 105.937592 
L 386.449587 106.065314 
L 387.788876 104.404928 
L 389.128164 107.193525 
L 390.467453 106.427193 
L 391.806742 109.428659 
L 393.146031 109.06678 
L 394.48532 105.703435 
L 395.824609 106.895507 
L 397.163897 107.278673 
L 398.503186 107.746986 
L 399.842475 108.108865 
L 401.181764 105.490565 
L 402.521053 106.044027 
L 403.860342 105.511852 
L 405.19963 107.810847 
L 406.538919 108.172726 
L 407.878208 105.937592 
L 409.217497 105.426704 
L 410.556786 105.80987 
L 411.896075 105.213834 
L 413.235363 107.236099 
L 414.574652 107.044516 
L 415.913941 106.001453 
L 417.25323 108.64104 
L 418.592519 107.193525 
L 419.931808 105.618287 
L 421.271096 106.66135 
L 422.610385 109.258363 
L 423.949674 106.363332 
L 425.288963 109.002919 
L 426.628252 106.469767 
L 427.967541 106.469767 
L 429.306829 107.044516 
L 430.646118 107.768273 
L 431.985407 108.960345 
L 433.324696 107.193525 
L 434.663985 108.704901 
L 436.003274 107.725699 
L 437.342562 109.449946 
L 438.681851 108.64104 
L 440.02114 108.619753 
L 441.360429 106.405906 
L 442.699718 107.406395 
L 444.039007 108.917771 
L 445.378295 108.811336 
L 446.717584 107.534117 
L 448.056873 109.194502 
L 449.396162 111.067757 
L 450.735451 112.217255 
L 452.07474 110.55687 
L 453.414028 111.919237 
L 454.753317 109.982121 
L 456.092606 112.728143 
L 457.431895 112.302403 
L 458.771184 112.366264 
L 460.110473 110.450435 
L 461.449761 113.153883 
L 462.78905 112.068246 
L 464.128339 112.238542 
L 465.467628 110.429148 
L 466.806917 110.301426 
L 468.146206 112.74943 
L 469.485494 112.259829 
L 470.824783 112.068246 
L 472.164072 114.260807 
L 473.503361 113.430614 
L 474.84265 112.089533 
L 476.181939 111.770228 
L 477.521227 111.876663 
L 478.860516 112.366264 
L 480.199805 110.514296 
L 481.539094 108.555892 
L 482.878383 108.236587 
L 484.217672 104.277206 
L 485.55696 100.296539 
L 486.896249 99.679216 
L 488.235538 101.509897 
L 489.574827 106.02274 
L 490.914116 110.280139 
L 492.253405 113.686058 
L 493.592693 116.602376 
L 494.931982 115.559313 
L 496.271271 116.474654 
L 497.61056 116.176636 
L 498.949849 114.835555 
L 500.289138 117.517717 
L 501.628426 118.731075 
L 502.967715 120.050869 
L 504.307004 119.369685 
L 505.646293 120.242452 
L 506.985582 119.348398 
L 508.324871 120.987497 
L 509.664159 119.114241 
L 511.003448 120.476609 
L 512.342737 118.901371 
L 513.682026 120.859775 
" clip-path="url(#p9bdbebf9e1)" style="fill: none; stroke: #008e00; stroke-width: 2; stroke-linecap: square"/>
   </g>
   <g id="line2d_47">
    <path d="M 359.66381 104.021763 
L 361.003099 101.850489 
L 362.342388 101.978211 
L 363.681677 102.872265 
L 365.020965 101.403462 
L 366.360254 100.062382 
L 367.699543 100.913861 
L 369.038832 98.01883 
L 370.378121 102.233655 
L 371.71741 100.3604 
L 373.056698 100.083669 
L 374.395987 99.445059 
L 375.735276 99.913373 
L 377.074565 99.466346 
L 378.413854 99.338624 
L 379.753143 98.593579 
L 381.092431 100.275252 
L 382.43172 99.806938 
L 383.771009 99.72179 
L 385.110298 100.424261 
L 386.449587 99.572781 
L 387.788876 98.912884 
L 389.128164 98.423283 
L 390.467453 100.807426 
L 391.806742 98.891597 
L 393.146031 100.488122 
L 394.48532 99.338624 
L 395.824609 96.613889 
L 397.163897 98.87031 
L 398.503186 98.551005 
L 399.842475 98.785162 
L 401.181764 100.57327 
L 402.521053 98.934171 
L 403.860342 99.657929 
L 405.19963 99.168328 
L 406.538919 98.295561 
L 407.878208 99.061893 
L 409.217497 95.741122 
L 410.556786 98.529718 
L 411.896075 99.189615 
L 413.235363 98.785162 
L 414.574652 96.635176 
L 415.913941 96.784185 
L 417.25323 98.146552 
L 418.592519 95.443104 
L 419.931808 96.209436 
L 421.271096 100.3604 
L 422.610385 99.338624 
L 423.949674 98.678727 
L 425.288963 97.273786 
L 426.628252 100.913861 
L 427.967541 99.955947 
L 429.306829 100.637131 
L 430.646118 99.487633 
L 431.985407 99.679216 
L 433.324696 100.551983 
L 434.663985 100.126243 
L 436.003274 98.189126 
L 437.342562 98.955458 
L 438.681851 100.211391 
L 440.02114 102.020785 
L 441.360429 100.700992 
L 442.699718 100.956435 
L 444.039007 100.828713 
L 445.378295 101.403462 
L 446.717584 100.999009 
L 448.056873 101.871776 
L 449.396162 101.893063 
L 450.735451 101.531184 
L 452.07474 103.170283 
L 453.414028 102.76583 
L 454.753317 102.936126 
L 456.092606 104.085624 
L 457.431895 102.254942 
L 458.771184 102.297516 
L 460.110473 102.701969 
L 461.449761 104.298493 
L 462.78905 106.23561 
L 464.128339 103.957902 
L 465.467628 104.553937 
L 466.806917 103.532162 
L 468.146206 107.895995 
L 469.485494 105.660861 
L 470.824783 102.829691 
L 472.164072 105.746009 
L 473.503361 106.852933 
L 474.84265 108.087578 
L 476.181939 105.043538 
L 477.521227 109.428659 
L 478.860516 107.725699 
L 480.199805 108.343022 
L 481.539094 106.491054 
L 482.878383 110.344 
L 484.217672 108.939058 
L 485.55696 110.407861 
L 486.896249 110.152417 
L 488.235538 108.768762 
L 489.574827 111.663793 
L 490.914116 112.472699 
L 492.253405 110.216278 
L 493.592693 109.811825 
L 494.931982 111.365775 
L 496.271271 109.684103 
L 497.61056 111.557358 
L 498.949849 111.216766 
L 500.289138 113.579623 
L 501.628426 113.856354 
L 502.967715 113.81378 
L 504.307004 113.366753 
L 505.646293 112.515273 
L 506.985582 114.537537 
L 508.324871 114.473676 
L 509.664159 114.494963 
L 511.003448 115.814757 
L 512.342737 116.325645 
L 513.682026 115.325156 
" clip-path="url(#p9bdbebf9e1)" style="fill: none; stroke: #ffb14e; stroke-width: 2; stroke-linecap: square"/>
   </g>
   <g id="patch_9">
    <path d="M 359.804687 167.082353 
L 359.804687 7.2 
" style="fill: none; stroke: #000000; stroke-width: 0.8; stroke-linejoin: miter; stroke-linecap: square"/>
   </g>
   <g id="patch_10">
    <path d="M 359.804687 167.082353 
L 512.804688 167.082353 
" style="fill: none; stroke: #000000; stroke-width: 0.8; stroke-linejoin: miter; stroke-linecap: square"/>
   </g>
  </g>
  <g id="axes_4">
   <g id="patch_11">
    <path d="M 359.804687 358.941176 
L 512.804688 358.941176 
L 512.804688 199.058824 
L 359.804687 199.058824 
z
" style="fill: #ffffff"/>
   </g>
   <g id="matplotlib.axis_7">
    <g id="xtick_22">
     <g id="line2d_48">
      <g>
       <use xlink:href="#ma4f5fd3713" x="359.804687" y="358.941176" style="stroke: #000000; stroke-width: 0.8"/>
      </g>
     </g>
    </g>
    <g id="xtick_23">
     <g id="line2d_49">
      <g>
       <use xlink:href="#ma4f5fd3713" x="410.804687" y="358.941176" style="stroke: #000000; stroke-width: 0.8"/>
      </g>
     </g>
    </g>
    <g id="xtick_24">
     <g id="line2d_50">
      <g>
       <use xlink:href="#ma4f5fd3713" x="461.804688" y="358.941176" style="stroke: #000000; stroke-width: 0.8"/>
      </g>
     </g>
    </g>
    <g id="xtick_25">
     <g id="line2d_51">
      <g>
       <use xlink:href="#ma4f5fd3713" x="512.804688" y="358.941176" style="stroke: #000000; stroke-width: 0.8"/>
      </g>
     </g>
    </g>
    <g id="xtick_26">
     <g id="line2d_52">
      <g>
       <use xlink:href="#m1d90790c13" x="385.304687" y="358.941176" style="stroke: #000000; stroke-width: 0.6"/>
      </g>
     </g>
    </g>
    <g id="xtick_27">
     <g id="line2d_53">
      <g>
       <use xlink:href="#m1d90790c13" x="436.304687" y="358.941176" style="stroke: #000000; stroke-width: 0.6"/>
      </g>
     </g>
    </g>
    <g id="xtick_28">
     <g id="line2d_54">
      <g>
       <use xlink:href="#m1d90790c13" x="487.304688" y="358.941176" style="stroke: #000000; stroke-width: 0.6"/>
      </g>
     </g>
    </g>
   </g>
   <g id="matplotlib.axis_8">
    <g id="ytick_18">
     <g id="line2d_55"/>
     <g id="text_26">
      <!-- 2000 -->
      <g transform="translate(334.060937 331.282189) scale(0.1 -0.1)">
       <use xlink:href="#ArialMT-32"/>
       <use xlink:href="#ArialMT-30" x="55.615234"/>
       <use xlink:href="#ArialMT-30" x="111.230469"/>
       <use xlink:href="#ArialMT-30" x="166.845703"/>
      </g>
     </g>
    </g>
    <g id="ytick_19">
     <g id="line2d_56"/>
     <g id="text_27">
      <!-- 4000 -->
      <g transform="translate(334.060937 298.84577) scale(0.1 -0.1)">
       <use xlink:href="#ArialMT-34"/>
       <use xlink:href="#ArialMT-30" x="55.615234"/>
       <use xlink:href="#ArialMT-30" x="111.230469"/>
       <use xlink:href="#ArialMT-30" x="166.845703"/>
      </g>
     </g>
    </g>
    <g id="ytick_20">
     <g id="line2d_57"/>
     <g id="text_28">
      <!-- 6000 -->
      <g transform="translate(334.060937 266.409351) scale(0.1 -0.1)">
       <use xlink:href="#ArialMT-36"/>
       <use xlink:href="#ArialMT-30" x="55.615234"/>
       <use xlink:href="#ArialMT-30" x="111.230469"/>
       <use xlink:href="#ArialMT-30" x="166.845703"/>
      </g>
     </g>
    </g>
    <g id="ytick_21">
     <g id="line2d_58"/>
     <g id="text_29">
      <!-- 8000 -->
      <g transform="translate(334.060937 233.972932) scale(0.1 -0.1)">
       <use xlink:href="#ArialMT-38"/>
       <use xlink:href="#ArialMT-30" x="55.615234"/>
       <use xlink:href="#ArialMT-30" x="111.230469"/>
       <use xlink:href="#ArialMT-30" x="166.845703"/>
      </g>
     </g>
    </g>
   </g>
   <g id="line2d_59">
    <path d="M 359.66381 307.722449 
L 361.003099 310.495763 
L 362.342388 309.749725 
L 363.681677 310.868782 
L 365.020965 309.847034 
L 366.360254 308.43605 
L 367.699543 306.376338 
L 369.038832 307.073721 
L 370.378121 308.744196 
L 371.71741 306.100628 
L 373.056698 307.98194 
L 374.395987 305.841137 
L 375.735276 307.608922 
L 377.074565 307.300776 
L 378.413854 305.824919 
L 379.753143 305.760046 
L 381.092431 306.457429 
L 382.43172 306.89532 
L 383.771009 304.835608 
L 385.110298 304.965353 
L 386.449587 302.597495 
L 387.788876 306.960193 
L 389.128164 304.446371 
L 390.467453 303.586806 
L 391.806742 303.00295 
L 393.146031 303.489496 
L 394.48532 304.624771 
L 395.824609 303.45706 
L 397.163897 302.321785 
L 398.503186 302.775895 
L 399.842475 302.808332 
L 401.181764 301.656839 
L 402.521053 301.040547 
L 403.860342 302.840768 
L 405.19963 301.721712 
L 406.538919 301.819021 
L 407.878208 300.716183 
L 409.217497 300.959456 
L 410.556786 300.910801 
L 411.896075 300.326945 
L 413.235363 301.089201 
L 414.574652 300.1972 
L 415.913941 300.0188 
L 417.25323 301.218947 
L 418.592519 300.82971 
L 419.931808 300.245854 
L 421.271096 300.927019 
L 422.610385 300.002581 
L 423.949674 299.629562 
L 425.288963 299.824181 
L 426.628252 301.056765 
L 427.967541 300.602655 
L 429.306829 301.024329 
L 430.646118 300.456691 
L 431.985407 301.802803 
L 433.324696 300.099891 
L 434.663985 303.165132 
L 436.003274 302.354222 
L 437.342562 302.467749 
L 438.681851 302.662368 
L 440.02114 302.678586 
L 441.360429 302.029857 
L 442.699718 303.684115 
L 444.039007 301.948766 
L 445.378295 303.781424 
L 446.717584 305.159972 
L 448.056873 303.748988 
L 449.396162 305.435681 
L 450.735451 306.26281 
L 452.07474 307.025066 
L 453.414028 305.192408 
L 454.753317 305.90601 
L 456.092606 306.570956 
L 457.431895 305.970882 
L 458.771184 307.252121 
L 460.110473 307.900849 
L 461.449761 307.884631 
L 462.78905 309.246961 
L 464.128339 307.154812 
L 465.467628 308.906378 
L 466.806917 309.847034 
L 468.146206 309.376706 
L 469.485494 311.890529 
L 470.824783 312.798749 
L 472.164072 310.511981 
L 473.503361 309.97678 
L 474.84265 312.587912 
L 476.181939 313.755623 
L 477.521227 313.139331 
L 478.860516 313.496132 
L 480.199805 313.755623 
L 481.539094 313.025804 
L 482.878383 314.793588 
L 484.217672 315.442317 
L 485.55696 314.761152 
L 486.896249 316.237009 
L 488.235538 316.269445 
L 489.574827 316.237009 
L 490.914116 317.599339 
L 492.253405 317.842612 
L 493.592693 316.755992 
L 494.931982 318.296722 
L 496.271271 318.604868 
L 497.61056 319.269814 
L 498.949849 318.994105 
L 500.289138 319.448215 
L 501.628426 319.075196 
L 502.967715 320.534835 
L 504.307004 319.626615 
L 505.646293 320.453743 
L 506.985582 321.556582 
L 508.324871 320.66458 
L 509.664159 320.356434 
L 511.003448 321.167345 
L 512.342737 321.443054 
L 513.682026 320.113161 
" clip-path="url(#pbdd8ea8d15)" style="fill: none; stroke: #000000; stroke-width: 2; stroke-linecap: square"/>
   </g>
   <g id="line2d_60">
    <path d="M 359.66381 300.845928 
L 361.003099 299.645781 
L 362.342388 299.986363 
L 363.681677 300.764837 
L 365.020965 298.915961 
L 366.360254 298.040178 
L 367.699543 300.245854 
L 369.038832 298.737561 
L 370.378121 298.445633 
L 371.71741 298.672688 
L 373.056698 297.74825 
L 374.395987 297.92665 
L 375.735276 297.845559 
L 377.074565 298.47807 
L 378.413854 297.180613 
L 379.753143 296.823812 
L 381.092431 294.877627 
L 382.43172 293.044969 
L 383.771009 289.639145 
L 385.110298 291.22853 
L 386.449587 292.996315 
L 387.788876 294.585699 
L 389.128164 295.234428 
L 390.467453 296.321048 
L 391.806742 295.493919 
L 393.146031 293.353115 
L 394.48532 294.147808 
L 395.824609 294.48839 
L 397.163897 294.683009 
L 398.503186 294.326208 
L 399.842475 295.104682 
L 401.181764 294.747881 
L 402.521053 292.76926 
L 403.860342 294.001844 
L 405.19963 291.196094 
L 406.538919 293.093624 
L 407.878208 293.953189 
L 409.217497 290.401401 
L 410.556786 290.239219 
L 411.896075 285.730557 
L 413.235363 288.211943 
L 414.574652 291.098784 
L 415.913941 294.699227 
L 417.25323 295.023591 
L 418.592519 293.58017 
L 419.931808 294.553263 
L 421.271096 293.255806 
L 422.610385 293.969407 
L 423.949674 296.061556 
L 425.288963 293.531516 
L 426.628252 294.520826 
L 427.967541 293.774789 
L 429.306829 293.255806 
L 430.646118 293.288243 
L 431.985407 293.920753 
L 433.324696 293.888316 
L 434.663985 295.266864 
L 436.003274 297.245486 
L 437.342562 299.045707 
L 438.681851 298.007742 
L 440.02114 295.980465 
L 441.360429 296.807594 
L 442.699718 297.440104 
L 444.039007 298.413197 
L 445.378295 296.418357 
L 446.717584 299.370071 
L 448.056873 299.46738 
L 449.396162 296.467012 
L 450.735451 298.737561 
L 452.07474 300.683746 
L 453.414028 302.467749 
L 454.753317 300.359382 
L 456.092606 301.397347 
L 457.431895 299.483599 
L 458.771184 301.46222 
L 460.110473 301.332474 
L 461.449761 301.997421 
L 462.78905 302.629931 
L 464.128339 304.073352 
L 465.467628 304.397716 
L 466.806917 303.538151 
L 468.146206 304.235534 
L 469.485494 304.835608 
L 470.824783 304.170661 
L 472.164072 307.933286 
L 473.503361 305.760046 
L 474.84265 306.214156 
L 476.181939 306.765575 
L 477.521227 307.154812 
L 478.860516 305.727609 
L 480.199805 307.430521 
L 481.539094 309.328052 
L 482.878383 309.100997 
L 484.217672 308.419832 
L 485.55696 308.873942 
L 486.896249 309.360488 
L 488.235538 309.360488 
L 489.574827 309.684852 
L 490.914116 309.52267 
L 492.253405 310.528199 
L 493.592693 311.176928 
L 494.931982 313.074458 
L 496.271271 312.928494 
L 497.61056 313.23664 
L 498.949849 312.750094 
L 500.289138 314.112424 
L 501.628426 312.944712 
L 502.967715 314.096205 
L 504.307004 313.771841 
L 505.646293 315.68559 
L 506.985582 314.939552 
L 508.324871 315.345008 
L 509.664159 314.225951 
L 511.003448 315.847772 
L 512.342737 316.820865 
L 513.682026 315.555844 
" clip-path="url(#pbdd8ea8d15)" style="fill: none; stroke: #008e00; stroke-width: 2; stroke-linecap: square"/>
   </g>
   <g id="line2d_61">
    <path d="M 359.66381 297.067085 
L 361.003099 294.504608 
L 362.342388 293.758571 
L 363.681677 295.785847 
L 365.020965 294.180244 
L 366.360254 294.845191 
L 367.699543 295.153337 
L 369.038832 294.164026 
L 370.378121 294.326208 
L 371.71741 293.985626 
L 373.056698 296.321048 
L 374.395987 294.018062 
L 375.735276 292.542205 
L 377.074565 291.86104 
L 378.413854 292.525987 
L 379.753143 294.358644 
L 381.092431 293.044969 
L 382.43172 291.925913 
L 383.771009 289.249908 
L 385.110298 289.655364 
L 386.449587 288.763362 
L 387.788876 287.69296 
L 389.128164 292.071877 
L 390.467453 289.833764 
L 391.806742 288.974199 
L 393.146031 287.952452 
L 394.48532 288.812017 
L 395.824609 290.401401 
L 397.163897 287.125323 
L 398.503186 288.276816 
L 399.842475 287.222632 
L 401.181764 288.32547 
L 402.521053 286.379285 
L 403.860342 285.600811 
L 405.19963 287.69296 
L 406.538919 285.811648 
L 407.878208 285.665684 
L 409.217497 287.092887 
L 410.556786 286.379285 
L 411.896075 287.887579 
L 413.235363 285.876521 
L 414.574652 286.60634 
L 415.913941 286.379285 
L 417.25323 285.325102 
L 418.592519 288.001106 
L 419.931808 287.287505 
L 421.271096 285.454847 
L 422.610385 285.779212 
L 423.949674 284.903428 
L 425.288963 285.51972 
L 426.628252 286.038703 
L 427.967541 285.827866 
L 429.306829 286.946923 
L 430.646118 286.768522 
L 431.985407 286.346849 
L 433.324696 288.487653 
L 434.663985 288.957981 
L 436.003274 288.374125 
L 437.342562 286.573904 
L 438.681851 291.082566 
L 440.02114 289.720236 
L 441.360429 289.6878 
L 442.699718 288.244379 
L 444.039007 288.860671 
L 445.378295 291.471803 
L 446.717584 289.622927 
L 448.056873 289.96351 
L 449.396162 290.450056 
L 450.735451 290.920384 
L 452.07474 292.347586 
L 453.414028 292.671951 
L 454.753317 293.726134 
L 456.092606 291.617767 
L 457.431895 294.147808 
L 458.771184 294.569481 
L 460.110473 295.380392 
L 461.449761 297.56985 
L 462.78905 295.75341 
L 464.128339 296.499448 
L 465.467628 297.667159 
L 466.806917 296.353484 
L 468.146206 297.991523 
L 469.485494 296.093993 
L 470.824783 299.207889 
L 472.164072 299.807963 
L 473.503361 300.489128 
L 474.84265 300.472909 
L 476.181939 299.580908 
L 477.521227 301.446002 
L 478.860516 302.856986 
L 480.199805 303.424624 
L 481.539094 301.900112 
L 482.878383 302.873204 
L 484.217672 303.327314 
L 485.55696 304.916699 
L 486.896249 304.073352 
L 488.235538 304.965353 
L 489.574827 304.138225 
L 490.914116 303.797642 
L 492.253405 305.532991 
L 493.592693 306.489865 
L 494.931982 306.99263 
L 496.271271 308.030595 
L 497.61056 307.62514 
L 498.949849 308.614451 
L 500.289138 307.34943 
L 501.628426 308.857724 
L 502.967715 311.647256 
L 504.307004 309.571325 
L 505.646293 310.138962 
L 506.985582 309.587543 
L 508.324871 310.284926 
L 509.664159 310.901218 
L 511.003448 312.977149 
L 512.342737 310.560636 
L 513.682026 312.863621 
" clip-path="url(#pbdd8ea8d15)" style="fill: none; stroke: #ffb14e; stroke-width: 2; stroke-linecap: square"/>
   </g>
   <g id="patch_12">
    <path d="M 359.804687 358.941176 
L 359.804687 199.058824 
" style="fill: none; stroke: #000000; stroke-width: 0.8; stroke-linejoin: miter; stroke-linecap: square"/>
   </g>
   <g id="patch_13">
    <path d="M 359.804687 358.941176 
L 512.804688 358.941176 
" style="fill: none; stroke: #000000; stroke-width: 0.8; stroke-linejoin: miter; stroke-linecap: square"/>
   </g>
  </g>
  <g id="axes_5">
   <g id="patch_14">
    <path d="M 359.804687 550.8 
L 512.804688 550.8 
L 512.804688 390.917647 
L 359.804687 390.917647 
z
" style="fill: #ffffff"/>
   </g>
   <g id="matplotlib.axis_9">
    <g id="xtick_29">
     <g id="line2d_62">
      <g>
       <use xlink:href="#ma4f5fd3713" x="359.804687" y="550.8" style="stroke: #000000; stroke-width: 0.8"/>
      </g>
     </g>
     <g id="text_30">
      <!-- 10 -->
      <g transform="translate(354.24375 564.957813) scale(0.1 -0.1)">
       <use xlink:href="#ArialMT-31"/>
       <use xlink:href="#ArialMT-30" x="55.615234"/>
      </g>
     </g>
    </g>
    <g id="xtick_30">
     <g id="line2d_63">
      <g>
       <use xlink:href="#ma4f5fd3713" x="410.804687" y="550.8" style="stroke: #000000; stroke-width: 0.8"/>
      </g>
     </g>
     <g id="text_31">
      <!-- 11 -->
      <g transform="translate(405.6125 564.957813) scale(0.1 -0.1)">
       <use xlink:href="#ArialMT-31"/>
       <use xlink:href="#ArialMT-31" x="48.240234"/>
      </g>
     </g>
    </g>
    <g id="xtick_31">
     <g id="line2d_64">
      <g>
       <use xlink:href="#ma4f5fd3713" x="461.804688" y="550.8" style="stroke: #000000; stroke-width: 0.8"/>
      </g>
     </g>
     <g id="text_32">
      <!-- 12 -->
      <g transform="translate(456.24375 564.957813) scale(0.1 -0.1)">
       <use xlink:href="#ArialMT-31"/>
       <use xlink:href="#ArialMT-32" x="55.615234"/>
      </g>
     </g>
    </g>
    <g id="xtick_32">
     <g id="line2d_65">
      <g>
       <use xlink:href="#ma4f5fd3713" x="512.804688" y="550.8" style="stroke: #000000; stroke-width: 0.8"/>
      </g>
     </g>
     <g id="text_33">
      <!-- 13 -->
      <g transform="translate(507.24375 564.957813) scale(0.1 -0.1)">
       <use xlink:href="#ArialMT-31"/>
       <use xlink:href="#ArialMT-33" x="55.615234"/>
      </g>
     </g>
    </g>
    <g id="xtick_33">
     <g id="line2d_66">
      <g>
       <use xlink:href="#m1d90790c13" x="385.304687" y="550.8" style="stroke: #000000; stroke-width: 0.6"/>
      </g>
     </g>
    </g>
    <g id="xtick_34">
     <g id="line2d_67">
      <g>
       <use xlink:href="#m1d90790c13" x="436.304687" y="550.8" style="stroke: #000000; stroke-width: 0.6"/>
      </g>
     </g>
    </g>
    <g id="xtick_35">
     <g id="line2d_68">
      <g>
       <use xlink:href="#m1d90790c13" x="487.304688" y="550.8" style="stroke: #000000; stroke-width: 0.6"/>
      </g>
     </g>
    </g>
   </g>
   <g id="matplotlib.axis_10">
    <g id="ytick_22">
     <g id="line2d_69"/>
     <g id="text_34">
      <!-- 2000 -->
      <g transform="translate(334.060937 514.8074) scale(0.1 -0.1)">
       <use xlink:href="#ArialMT-32"/>
       <use xlink:href="#ArialMT-30" x="55.615234"/>
       <use xlink:href="#ArialMT-30" x="111.230469"/>
       <use xlink:href="#ArialMT-30" x="166.845703"/>
      </g>
     </g>
    </g>
    <g id="ytick_23">
     <g id="line2d_70"/>
     <g id="text_35">
      <!-- 4000 -->
      <g transform="translate(334.060937 472.853989) scale(0.1 -0.1)">
       <use xlink:href="#ArialMT-34"/>
       <use xlink:href="#ArialMT-30" x="55.615234"/>
       <use xlink:href="#ArialMT-30" x="111.230469"/>
       <use xlink:href="#ArialMT-30" x="166.845703"/>
      </g>
     </g>
    </g>
    <g id="ytick_24">
     <g id="line2d_71"/>
     <g id="text_36">
      <!-- 6000 -->
      <g transform="translate(334.060937 430.900577) scale(0.1 -0.1)">
       <use xlink:href="#ArialMT-36"/>
       <use xlink:href="#ArialMT-30" x="55.615234"/>
       <use xlink:href="#ArialMT-30" x="111.230469"/>
       <use xlink:href="#ArialMT-30" x="166.845703"/>
      </g>
     </g>
    </g>
   </g>
   <g id="line2d_72">
    <path d="M 359.66381 483.832916 
L 361.003099 487.713607 
L 362.342388 488.133141 
L 363.681677 488.300954 
L 365.020965 490.713275 
L 366.360254 489.454673 
L 367.699543 493.23048 
L 369.038832 491.720157 
L 370.378121 494.82471 
L 371.71741 492.433365 
L 373.056698 491.929924 
L 374.395987 494.614943 
L 375.735276 491.594297 
L 377.074565 491.929924 
L 378.413854 493.209503 
L 379.753143 493.817828 
L 381.092431 491.174763 
L 382.43172 494.719826 
L 383.771009 493.922711 
L 385.110298 491.825041 
L 386.449587 493.35634 
L 387.788876 493.251457 
L 389.128164 492.580202 
L 390.467453 490.188858 
L 391.806742 491.090856 
L 393.146031 491.174763 
L 394.48532 490.482532 
L 395.824609 491.300623 
L 397.163897 491.25867 
L 398.503186 492.412389 
L 399.842475 491.279646 
L 401.181764 491.887971 
L 402.521053 489.559557 
L 403.860342 492.097738 
L 405.19963 494.95057 
L 406.538919 490.104951 
L 407.878208 491.13281 
L 409.217497 492.160668 
L 410.556786 491.3216 
L 411.896075 489.580533 
L 413.235363 490.692299 
L 414.574652 489.328813 
L 415.913941 488.217047 
L 417.25323 489.160999 
L 418.592519 489.706394 
L 419.931808 489.223929 
L 421.271096 488.468768 
L 422.610385 488.468768 
L 423.949674 488.238024 
L 425.288963 487.797513 
L 426.628252 488.510721 
L 427.967541 486.853562 
L 429.306829 487.210166 
L 430.646118 487.021375 
L 431.985407 486.580864 
L 433.324696 485.78375 
L 434.663985 487.734583 
L 436.003274 482.637244 
L 437.342562 484.567101 
L 438.681851 486.559888 
L 440.02114 480.980084 
L 441.360429 485.322262 
L 442.699718 484.630031 
L 444.039007 485.259332 
L 445.378295 484.818821 
L 446.717584 483.644126 
L 448.056873 485.90961 
L 449.396162 485.322262 
L 450.735451 485.804726 
L 452.07474 489.265883 
L 453.414028 488.972209 
L 454.753317 489.853231 
L 456.092606 490.461555 
L 457.431895 490.964996 
L 458.771184 491.069879 
L 460.110473 492.433365 
L 461.449761 493.461224 
L 462.78905 494.006618 
L 464.128339 494.740803 
L 465.467628 495.495964 
L 466.806917 494.090525 
L 468.146206 497.740472 
L 469.485494 495.181314 
L 470.824783 497.488751 
L 472.164072 498.7054 
L 473.503361 498.957121 
L 474.84265 499.229818 
L 476.181939 498.264889 
L 477.521227 500.48842 
L 478.860516 498.726377 
L 480.199805 499.733259 
L 481.539094 500.614281 
L 482.878383 499.607399 
L 484.217672 501.809953 
L 485.55696 503.697856 
L 486.896249 502.774881 
L 488.235538 502.481207 
L 489.574827 502.313394 
L 490.914116 502.669998 
L 492.253405 503.718833 
L 493.592693 506.403851 
L 494.931982 503.110508 
L 496.271271 504.641808 
L 497.61056 504.599855 
L 498.949849 506.592642 
L 500.289138 506.865339 
L 501.628426 506.068224 
L 502.967715 506.592642 
L 504.307004 506.949246 
L 505.646293 505.564783 
L 506.985582 506.026271 
L 508.324871 509.885984 
L 509.664159 508.522499 
L 511.003448 508.019058 
L 512.342737 508.186871 
L 513.682026 508.123941 
" clip-path="url(#p9e25562f6d)" style="fill: none; stroke: #000000; stroke-width: 2; stroke-linecap: square"/>
   </g>
   <g id="line2d_73">
    <path d="M 359.66381 472.862099 
L 361.003099 472.023031 
L 362.342388 470.05122 
L 363.681677 474.624142 
L 365.020965 472.358658 
L 366.360254 473.868981 
L 367.699543 480.43469 
L 369.038832 479.616598 
L 370.378121 481.189851 
L 371.71741 479.364878 
L 373.056698 481.735245 
L 374.395987 484.00073 
L 375.735276 486.748678 
L 377.074565 484.546124 
L 378.413854 486.182307 
L 379.753143 486.413051 
L 381.092431 484.105613 
L 382.43172 485.930587 
L 383.771009 487.545793 
L 385.110298 486.182307 
L 386.449587 485.615936 
L 387.788876 485.573983 
L 389.128164 483.560219 
L 390.467453 484.881751 
L 391.806742 484.734914 
L 393.146031 485.133472 
L 394.48532 486.22426 
L 395.824609 486.014493 
L 397.163897 482.574314 
L 398.503186 482.867988 
L 399.842475 484.021706 
L 401.181764 485.385192 
L 402.521053 480.81227 
L 403.860342 483.077755 
L 405.19963 484.797844 
L 406.538919 484.25245 
L 407.878208 481.819152 
L 409.217497 482.763104 
L 410.556786 484.734914 
L 411.896075 480.49762 
L 413.235363 482.448453 
L 414.574652 481.630362 
L 415.913941 480.455666 
L 417.25323 480.518596 
L 418.592519 482.490407 
L 419.931808 479.008274 
L 421.271096 480.161992 
L 422.610385 479.847342 
L 423.949674 478.567763 
L 425.288963 481.420595 
L 426.628252 481.945012 
L 427.967541 480.413713 
L 429.306829 481.651339 
L 430.646118 479.448785 
L 431.985407 477.875532 
L 433.324696 478.756553 
L 434.663985 477.623811 
L 436.003274 476.721813 
L 437.342562 479.553668 
L 438.681851 477.309161 
L 440.02114 477.309161 
L 441.360429 475.861768 
L 442.699718 478.58874 
L 444.039007 475.568094 
L 445.378295 476.742789 
L 446.717584 475.484187 
L 448.056873 475.631024 
L 449.396162 475.27442 
L 450.735451 474.330468 
L 452.07474 474.393398 
L 453.414028 476.260325 
L 454.753317 477.099393 
L 456.092606 476.407162 
L 457.431895 477.812601 
L 458.771184 481.084968 
L 460.110473 481.756222 
L 461.449761 479.511715 
L 462.78905 481.609385 
L 464.128339 484.273427 
L 465.467628 482.616267 
L 466.806917 485.804726 
L 468.146206 485.615936 
L 469.485494 488.300954 
L 470.824783 487.084305 
L 472.164072 487.231142 
L 473.503361 487.168212 
L 474.84265 490.797182 
L 476.181939 488.825372 
L 477.521227 492.433365 
L 478.860516 493.608061 
L 480.199805 493.796851 
L 481.539094 493.670991 
L 482.878383 491.804064 
L 484.217672 494.468106 
L 485.55696 495.118384 
L 486.896249 495.768662 
L 488.235538 496.439916 
L 489.574827 498.180983 
L 490.914116 498.474657 
L 492.253405 498.243913 
L 493.592693 498.999074 
L 494.931982 500.530374 
L 496.271271 498.222936 
L 497.61056 499.670329 
L 498.949849 501.306512 
L 500.289138 500.42549 
L 501.628426 503.73981 
L 502.967715 501.872883 
L 504.307004 502.01972 
L 505.646293 502.690974 
L 506.985582 504.704738 
L 508.324871 503.425159 
L 509.664159 503.341252 
L 511.003448 504.536924 
L 512.342737 504.704738 
L 513.682026 504.809622 
" clip-path="url(#p9e25562f6d)" style="fill: none; stroke: #008e00; stroke-width: 2; stroke-linecap: square"/>
   </g>
   <g id="line2d_74">
    <path d="M 359.66381 474.120701 
L 361.003099 473.806051 
L 362.342388 476.700836 
L 363.681677 473.092843 
L 365.020965 478.630693 
L 366.360254 479.050227 
L 367.699543 478.253112 
L 369.038832 480.455666 
L 370.378121 479.469761 
L 371.71741 477.980415 
L 373.056698 481.252781 
L 374.395987 479.973202 
L 375.735276 481.630362 
L 377.074565 481.882082 
L 378.413854 482.4065 
L 379.753143 482.553337 
L 381.092431 481.861106 
L 382.43172 480.518596 
L 383.771009 480.833247 
L 385.110298 480.015156 
L 386.449587 478.96632 
L 387.788876 479.259994 
L 389.128164 480.62348 
L 390.467453 480.182969 
L 391.806742 478.882413 
L 393.146031 479.364878 
L 394.48532 477.162324 
L 395.824609 477.225254 
L 397.163897 478.316042 
L 398.503186 477.854555 
L 399.842475 479.197064 
L 401.181764 477.665765 
L 402.521053 477.791625 
L 403.860342 479.343901 
L 405.19963 476.302279 
L 406.538919 475.672977 
L 407.878208 475.232467 
L 409.217497 476.197395 
L 410.556786 477.036463 
L 411.896075 476.176418 
L 413.235363 473.596284 
L 414.574652 475.631024 
L 415.913941 474.435352 
L 417.25323 473.764097 
L 418.592519 474.288515 
L 419.931808 477.623811 
L 421.271096 473.931911 
L 422.610385 474.540235 
L 423.949674 474.750002 
L 425.288963 473.17675 
L 426.628252 474.015818 
L 427.967541 471.939124 
L 429.306829 472.400611 
L 430.646118 471.142009 
L 431.985407 472.736239 
L 433.324696 471.121032 
L 434.663985 471.729357 
L 436.003274 471.267869 
L 437.342562 473.533354 
L 438.681851 470.533685 
L 440.02114 471.624473 
L 441.360429 471.666427 
L 442.699718 472.044007 
L 444.039007 472.044007 
L 445.378295 471.939124 
L 446.717584 470.302941 
L 448.056873 470.743452 
L 449.396162 471.267869 
L 450.735451 472.023031 
L 452.07474 472.442565 
L 453.414028 471.64545 
L 454.753317 473.42847 
L 456.092606 473.806051 
L 457.431895 476.344232 
L 458.771184 474.603165 
L 460.110473 475.903721 
L 461.449761 478.672646 
L 462.78905 475.232467 
L 464.128339 479.511715 
L 465.467628 478.106275 
L 466.806917 480.62348 
L 468.146206 481.063991 
L 469.485494 482.742127 
L 470.824783 482.28064 
L 472.164072 483.832916 
L 473.503361 484.986635 
L 474.84265 485.636913 
L 476.181939 486.287191 
L 477.521227 486.790631 
L 478.860516 488.321931 
L 480.199805 488.510721 
L 481.539094 487.986304 
L 482.878383 487.147235 
L 484.217672 488.300954 
L 485.55696 494.069548 
L 486.896249 493.16755 
L 488.235538 492.957783 
L 489.574827 492.160668 
L 490.914116 493.146573 
L 492.253405 493.943688 
L 493.592693 495.433034 
L 494.931982 495.516941 
L 496.271271 496.712613 
L 497.61056 495.978429 
L 498.949849 498.013169 
L 500.289138 497.530705 
L 501.628426 495.936475 
L 502.967715 497.195077 
L 504.307004 499.670329 
L 505.646293 499.565445 
L 506.985582 498.285866 
L 508.324871 498.978097 
L 509.664159 500.949908 
L 511.003448 501.264558 
L 512.342737 503.67688 
L 513.682026 502.20851 
" clip-path="url(#p9e25562f6d)" style="fill: none; stroke: #ffb14e; stroke-width: 2; stroke-linecap: square"/>
   </g>
   <g id="patch_15">
    <path d="M 359.804687 550.8 
L 359.804687 390.917647 
" style="fill: none; stroke: #000000; stroke-width: 0.8; stroke-linejoin: miter; stroke-linecap: square"/>
   </g>
   <g id="patch_16">
    <path d="M 359.804687 550.8 
L 512.804688 550.8 
" style="fill: none; stroke: #000000; stroke-width: 0.8; stroke-linejoin: miter; stroke-linecap: square"/>
   </g>
  </g>
 </g>
 <defs>
  <clipPath id="pafa0b9b165">
   <rect x="38.504688" y="7.2" width="153" height="543.6"/>
  </clipPath>
  <clipPath id="p5b75bc7197">
   <rect x="199.154688" y="7.2" width="153" height="543.6"/>
  </clipPath>
  <clipPath id="p9bdbebf9e1">
   <rect x="359.804687" y="7.2" width="153" height="159.882353"/>
  </clipPath>
  <clipPath id="pbdd8ea8d15">
   <rect x="359.804687" y="199.058824" width="153" height="159.882353"/>
  </clipPath>
  <clipPath id="p9e25562f6d">
   <rect x="359.804687" y="390.917647" width="153" height="159.882353"/>
  </clipPath>
 </defs>
</svg>
