<svg id="Layer_1" data-name="Layer 1" xmlns="http://www.w3.org/2000/svg" xmlns:xlink="http://www.w3.org/1999/xlink" width="3.3in" height="3.81in" viewBox="0 0 237.55 274.14"><defs><style>.cls-1,.cls-6,.cls-7,.cls-8,.cls-9{fill:none;}.cls-2{fill:#fff;}.cls-3,.cls-4,.cls-6,.cls-9{stroke:#000;}.cls-3,.cls-4,.cls-6,.cls-7,.cls-8{stroke-linejoin:round;}.cls-3,.cls-9{stroke-width:0.8px;}.cls-4{stroke-width:0.6px;}.cls-5{clip-path:url(#clip-path);}.cls-6,.cls-7,.cls-8,.cls-9{stroke-linecap:square;}.cls-6,.cls-7,.cls-8{stroke-width:2.5px;}.cls-7{stroke:#008e00;}.cls-8{stroke:#ffb14e;}.cls-10{clip-path:url(#clip-path-4);}.cls-11{clip-path:url(#clip-path-7);}.cls-12{clip-path:url(#clip-path-10);}.cls-13{clip-path:url(#clip-path-13);}.cls-14{opacity:0;}</style><clipPath id="clip-path"><rect class="cls-1" x="94.25" y="10.78" width="63" height="222.88"/></clipPath><clipPath id="clip-path-4"><rect class="cls-1" x="160.4" y="89.44" width="63" height="144.21"/></clipPath><clipPath id="clip-path-7"><rect class="cls-1" x="28.1" y="10.78" width="63" height="65.55"/></clipPath><clipPath id="clip-path-10"><rect class="cls-1" x="28.1" y="89.44" width="63" height="65.55"/></clipPath><clipPath id="clip-path-13"><rect class="cls-1" x="28.1" y="168.1" width="63" height="65.55"/></clipPath></defs><g id="figure_1" data-name="figure 1"><g id="patch_1" data-name="patch 1"><path class="cls-2" d="M0,274.14H237.55V0H0Z"/></g><g id="axes_1" data-name="axes 1"><g id="patch_2" data-name="patch 2"><path class="cls-2" d="M94.25,233.65h63V10.78h-63Z"/></g><g id="matplotlib.axis_1" data-name="matplotlib.axis 1"><g id="xtick_1" data-name="xtick 1"><g id="line2d_1" data-name="line2d 1"><path id="m2b1f88b726" class="cls-3" d="M94.25,233.65v3.5"/></g><g id="text_1" data-name="text 1"><path id="ArialMT-31" d="M92.41,247.81h-.87v-5.6a4.69,4.69,0,0,1-.84.61,5.89,5.89,0,0,1-.92.45v-.85a5.32,5.32,0,0,0,1.29-.84,3.51,3.51,0,0,0,.78-1h.56Z"/><path id="ArialMT-30" d="M94.67,244.28a6.36,6.36,0,0,1,.26-2,2.45,2.45,0,0,1,.77-1.19,2,2,0,0,1,1.3-.42,2.06,2.06,0,0,1,1,.23,1.92,1.92,0,0,1,.72.67,3.32,3.32,0,0,1,.44,1.06,6.94,6.94,0,0,1,.16,1.69,6.4,6.4,0,0,1-.26,2,2.55,2.55,0,0,1-.77,1.19,2,2,0,0,1-1.3.42,2,2,0,0,1-1.63-.74A4.71,4.71,0,0,1,94.67,244.28Zm.9,0a4.56,4.56,0,0,0,.41,2.35,1.19,1.19,0,0,0,2,0,6.94,6.94,0,0,0,0-4.7,1.25,1.25,0,0,0-1-.58,1.12,1.12,0,0,0-1,.52A4.54,4.54,0,0,0,95.57,244.28Z"/></g></g><g id="xtick_2" data-name="xtick 2"><g id="line2d_2" data-name="line2d 2"><path id="m2b1f88b726-2" data-name="m2b1f88b726" class="cls-3" d="M136.25,233.65v3.5"/></g><g id="text_2" data-name="text 2"><path id="ArialMT-31-2" data-name="ArialMT-31" d="M134.41,247.81h-.87v-5.6a4.69,4.69,0,0,1-.84.61,5.89,5.89,0,0,1-.92.45v-.85a5.32,5.32,0,0,0,1.29-.84,3.51,3.51,0,0,0,.78-1h.56Z"/><path id="ArialMT-32" d="M141.28,247v.84h-4.73a1.61,1.61,0,0,1,.11-.61,3.29,3.29,0,0,1,.57-.95,9.7,9.7,0,0,1,1.15-1.08,9.75,9.75,0,0,0,1.58-1.52,1.78,1.78,0,0,0,.41-1.06,1.16,1.16,0,0,0-.37-.88,1.52,1.52,0,0,0-2,0,1.47,1.47,0,0,0-.39,1.06l-.9-.09a2.22,2.22,0,0,1,.7-1.55,2.37,2.37,0,0,1,1.62-.52,2.26,2.26,0,0,1,1.63.57,1.84,1.84,0,0,1,.61,1.41,2.13,2.13,0,0,1-.18.85,3.37,3.37,0,0,1-.58.87,14.59,14.59,0,0,1-1.36,1.26q-.79.66-1,.9a3.87,3.87,0,0,0-.37.48Z"/></g></g><g id="xtick_3" data-name="xtick 3"><g id="line2d_3" data-name="line2d 3"><path id="m452b6d4ff4" class="cls-4" d="M104.75,233.65v2"/></g></g><g id="xtick_4" data-name="xtick 4"><g id="line2d_4" data-name="line2d 4"><path id="m452b6d4ff4-2" data-name="m452b6d4ff4" class="cls-4" d="M115.25,233.65v2"/></g></g><g id="xtick_5" data-name="xtick 5"><g id="line2d_5" data-name="line2d 5"><path id="m452b6d4ff4-3" data-name="m452b6d4ff4" class="cls-4" d="M125.75,233.65v2"/></g></g><g id="xtick_6" data-name="xtick 6"><g id="line2d_6" data-name="line2d 6"><path id="m452b6d4ff4-4" data-name="m452b6d4ff4" class="cls-4" d="M146.75,233.65v2"/></g></g><g id="xtick_7" data-name="xtick 7"><g id="line2d_7" data-name="line2d 7"><path id="m452b6d4ff4-5" data-name="m452b6d4ff4" class="cls-4" d="M157.25,233.65v2"/></g></g></g><g id="line2d_15" data-name="line2d 15"><g class="cls-5"><path class="cls-6" d="M94.19,208.69l.55-3,.55,2.21.56-.63L96.4,206l.55.54.55-.72.55,0,.55-1.24.56.45.55-2.23.55-.32.55.41.55-1.44.55.84.55,1.54.56-2.64.55-.65.55-1.37.55-.78.55,2.52.55-1.71.55.41.56-1.18.55-.22.55.85.55-2.35.55-2.48.55,1.11.55-.43.56-2.74.55,1.9.55.23.55-2.71.55.65.55-1.83.55.24.56-1.55.55,2.88.55-3.44.55-3.38.55,3,.55-3.74.56-.16.55-6.84.55.21.55-2.28.55-6.58.55-3.06.55-11,.56-9.92.55-16.75.55-17.47.55-23L124,49.92l.55-24.48.55-1.43.56,1.94.55,13.61.55,34.36.55,56.78.55,37.6.55,18,.55,4.51.56,4.46L130,195l.55.69.55,3.15.55,2,.55-1.2.56,2.71.55.09.55.89.55,1.11.55,0,.55-.09.55,1.61.56,1.7.55.72.55.77.55-.07.55,1.19.55-.41.55,1.3.56-.14.55,1.08.55,1.29.55-.69.55.81.55-.14.55,2,.56,0,.55.19.55,1.58.55-1.68.55,2.33.55,1.94.55-1.3.56,1.13.55.38.55-.88.55,1,.55.34.55.08.56-.73.55,2.16.55-.21.55.48.55-.48.55,1,.55-.75.56,1.86.55.5.55,1.13.55-1.51.55.59"/></g></g><g id="line2d_16" data-name="line2d 16"><g class="cls-5"><path class="cls-7" d="M94.19,196.69l.55.53.55-2.33.56.84.55-.79.55-1.78L97.5,195l.55-1.33.55-1.58.56-1.73.55.7.55,1,.55-2.15.55.59.55-.47.55-1.16.56.56.55-2.91.55,0,.55-1.24.55-.7.55-2.57.55,1.25.56-.52.55.09.55-2.59.55,1,.55-2.47.55.29.55-.62.56-1.64.55,0,.55-2,.55,1.4.55-1.51.55-2.89.55,2.41.56-5,.55,1.87.55-2,.55-4.06.55.53.55-4.53.56-1.64.55-4.31.55-4.87.55-6.65.55-5.88.55-8.86.55-13.07.56-17.16.55-21.36.55-8,.55,1.51L124,98.54l.55,30.65.55,20.77.56,12.65.55,8.9.55,2.23.55,2.65.55,1.29.55.15.55,3,.56,1.73.55-.07.55,1.58.55,3.57.55-2.82.55,5.87.56-3.26.55.62.55.34.55,7.13.55-2.78.55-.56.55,3.44.56,1.74.55.53.55.27.55-.24.55-.41.55,2.52.55,1.37.56,1.37.55,1.19.55-2,.55,3.49.55-1.13.55,1.6.55.17.56.07.55,1.18.55,2.06.55-2.92.55,2.26.55,1,.55.14.56,2,.55-.72.55,1.59.55-.13.55-2,.55.78.56,3.54.55-.87.55.69.55-1,.55,2.74.55-1.56.55.07.56,2,.55.63.55-.89.55.19.55,1.65"/></g></g><g id="line2d_17" data-name="line2d 17"><g class="cls-5"><path class="cls-8" d="M94.19,192.25l.55-.29.55.43.56-.43.55-1.51.55,2.86L97.5,190l.55,1,.55-1,.56-.88.55-.68.55-.24.55,2.86.55-4.1.55-.1.55-.1.56-1.7.55.34.55-1.09.55-1.29.55,2.55.55-3.44.55.32.56-1.16.55-.88.55-.19.55,1.29.55-1.39.55.26.55-1.94.56,1,.55-3,.55,2.07.55-1,.55-1,.55.11.55-2.08.56,2.08.55.46.55-2.93.55,1.27.55-1.82.55,1.95.56-1,.55-.52.55-.58.55,2.67.55-1.68.55,2,.55-.88.56.54.55.36.55-1.44.55,1.76.55,1.72.55-.81.55.26.56,1.25.55.53.55.55.55.68.55.88.55,2.09.55-1.53.56.66.55,1,.55,3.78.55-.78.55.35.55-.93.56,1.54.55,1.5.55.72.55.58.55,1,.55-.12.55,1.13.56.26.55,1,.55,3.76.55-.38.55-1.54.55,2.3.55-.18.56,1.94.55.64.55,1.75.55-.74.55,1.56.55.32.55.18.56-1.22.55.55.55,1.56.55.77.55,2.19.55-.48.55-1.23.56,1.8.55,1,.55-1.25.55,2.06.55-.51.55-.24.56,2.26.55-1.34.55,1.9.55-.54.55-.35.55-.77.55,2.56.56,1.3.55-.79.55,1.89.55-.55.55.1"/></g></g><g id="patch_3" data-name="patch 3"><path class="cls-9" d="M94.25,233.65V10.78"/></g><g id="patch_4" data-name="patch 4"><path class="cls-9" d="M157.25,233.65V10.78"/></g><g id="patch_5" data-name="patch 5"><path class="cls-9" d="M94.25,233.65h63"/></g><g id="patch_6" data-name="patch 6"><path class="cls-9" d="M94.25,10.78h63"/></g></g><g id="axes_2" data-name="axes 2"><g id="patch_7" data-name="patch 7"><path class="cls-2" d="M160.4,233.65h63V89.44h-63Z"/></g><g id="matplotlib.axis_3" data-name="matplotlib.axis 3"><g id="xtick_8" data-name="xtick 8"><g id="line2d_18" data-name="line2d 18"><path id="m2b1f88b726-3" data-name="m2b1f88b726" class="cls-3" d="M160.4,233.65v3.5"/></g><g id="text_3" data-name="text 3"><path id="ArialMT-31-3" data-name="ArialMT-31" d="M158.56,247.81h-.87v-5.6a4.69,4.69,0,0,1-.84.61,5.89,5.89,0,0,1-.92.45v-.85a5.32,5.32,0,0,0,1.29-.84,3.51,3.51,0,0,0,.78-1h.56Z"/><path id="ArialMT-30-2" data-name="ArialMT-30" d="M160.82,244.28a6.36,6.36,0,0,1,.26-2,2.45,2.45,0,0,1,.77-1.19,2,2,0,0,1,1.3-.42,2.06,2.06,0,0,1,1,.23,1.92,1.92,0,0,1,.72.67,3.32,3.32,0,0,1,.44,1.06,6.94,6.94,0,0,1,.16,1.69,6.4,6.4,0,0,1-.26,2,2.55,2.55,0,0,1-.77,1.19,2,2,0,0,1-1.3.42,2,2,0,0,1-1.63-.74A4.71,4.71,0,0,1,160.82,244.28Zm.9,0a4.56,4.56,0,0,0,.41,2.35,1.19,1.19,0,0,0,2,0,6.94,6.94,0,0,0,0-4.7,1.25,1.25,0,0,0-1-.58,1.12,1.12,0,0,0-1,.52A4.54,4.54,0,0,0,161.72,244.28Z"/></g></g><g id="xtick_9" data-name="xtick 9"><g id="line2d_19" data-name="line2d 19"><path id="m2b1f88b726-4" data-name="m2b1f88b726" class="cls-3" d="M202.4,233.65v3.5"/></g><g id="text_4" data-name="text 4"><path id="ArialMT-31-4" data-name="ArialMT-31" d="M200.56,247.81h-.87v-5.6a4.69,4.69,0,0,1-.84.61,5.89,5.89,0,0,1-.92.45v-.85a5.32,5.32,0,0,0,1.29-.84,3.51,3.51,0,0,0,.78-1h.56Z"/><path id="ArialMT-32-2" data-name="ArialMT-32" d="M207.43,247v.84H202.7a1.61,1.61,0,0,1,.11-.61,3.29,3.29,0,0,1,.57-.95,9.7,9.7,0,0,1,1.15-1.08,9.75,9.75,0,0,0,1.58-1.52,1.78,1.78,0,0,0,.41-1.06,1.16,1.16,0,0,0-.37-.88,1.52,1.52,0,0,0-2,0,1.47,1.47,0,0,0-.39,1.06l-.9-.09a2.22,2.22,0,0,1,.7-1.55,2.37,2.37,0,0,1,1.62-.52,2.26,2.26,0,0,1,1.63.57,1.84,1.84,0,0,1,.61,1.41,2.13,2.13,0,0,1-.18.85,3.37,3.37,0,0,1-.58.87,14.59,14.59,0,0,1-1.36,1.26q-.8.66-1,.9a3.87,3.87,0,0,0-.37.48Z"/></g></g><g id="xtick_10" data-name="xtick 10"><g id="line2d_20" data-name="line2d 20"><path id="m452b6d4ff4-6" data-name="m452b6d4ff4" class="cls-4" d="M170.9,233.65v2"/></g></g><g id="xtick_11" data-name="xtick 11"><g id="line2d_21" data-name="line2d 21"><path id="m452b6d4ff4-7" data-name="m452b6d4ff4" class="cls-4" d="M181.4,233.65v2"/></g></g><g id="xtick_12" data-name="xtick 12"><g id="line2d_22" data-name="line2d 22"><path id="m452b6d4ff4-8" data-name="m452b6d4ff4" class="cls-4" d="M191.9,233.65v2"/></g></g><g id="xtick_13" data-name="xtick 13"><g id="line2d_23" data-name="line2d 23"><path id="m452b6d4ff4-9" data-name="m452b6d4ff4" class="cls-4" d="M212.9,233.65v2"/></g></g><g id="xtick_14" data-name="xtick 14"><g id="line2d_24" data-name="line2d 24"><path id="m452b6d4ff4-10" data-name="m452b6d4ff4" class="cls-4" d="M223.4,233.65v2"/></g></g></g><g id="line2d_29" data-name="line2d 29"><g class="cls-10"><path class="cls-6" d="M160.34,213.29l.55-3.33.55-2.64.56-5.91.55-8.44.55-10.63.55-11,.55-4.66.55,10.16.56,21.3.55,15,.55,5,.55,3,.55,2.09.55,1.32.55,1,.56.31.55-.8.55.6.55-1.26.55.4.55,1.76.55-1.83.56-.84.55.33.55,1.18.55.53.55-1.59.55-.07.55-.65.56,2.17.55-.73.55-.26.55-.72.55.5.55-1.68.55-.84.56-.88.55,1.36.55.36.55-2.94.55,1.19.55-.91.56-1.17.55-.44.55-.31.55-3.1.55-.69.55.94.55-1.64.56-4.36.55-2.91L189,205l.55-5.95.55-5,.55-4.49.55-7.34.56-5,.55-8,.55-8.22.55-12.67.55-7.81.55-6.6.55-7.38.56-.05.55,6.31.55,8.78.55,13.1.55,11.86.55,11.47.56,8.13.55,9.46.55,6.67.55,2.5.55,5.88.55,1,.55,3.12.56,3.44.55-.3.55-.16.55,3.26.55-.36.55,1.22.55-2,.56.07h.55l.55-.14.55-.77.55-3.69.55.1.55-4.47.56-3,.55-4.22.55-8.45.55-5.52.55,2.78.55,12.89.55,8.3.56,8,.55,3.48.55,1.79.55-.62.55.62.55,1.64.56-1.16.55,1.11.55-.94.55,2.3.55.25.55-.77.55-.44.56,2,.55-1.81.55,1.75.55.27.55-.89"/></g></g><g id="line2d_30" data-name="line2d 30"><g class="cls-10"><path class="cls-7" d="M160.34,203l.55-6.31.55-2.36.56-7.53.55-11.13.55-9.94.55-15.93.55-21.12.55-18.67.56,5.2.55,34.51.55,35.48.55,12.06.55,8.59.55,1.71.55,1.71.56,3,.55-.64.55-1.28.55,1.87.55.13.55,0,.55-.94.56-.11.55.36.55.88.55-.77.55-.38.55-.41.55,0,.56,1.54.55-2.3.55-1,.55-1.31.55.81.55-1.06.55.39.56.38.55-.74.55-1.18.55.82.55-1.13.55.82h.56l.55-.82.55-2.18.55-1.28.55.41.55-.31.55-.75.56-2.39.55.17.55.52.55-1.27.55,1.3.55-2.16.55,1.08.56-3.39.55-1.6.55,1.36.55-1.37.55,1.18.55.15.55-.9.56,1.38.55,1.22.55-2.4.55.38.55,1.1.55.9.56,3.78.55-.26.55.43.55.89.55-.22.55,1.09.55,1.72.56,1,.55.56.55-1,.55,3.39.55.95.55-1.77.55,1,.56-3.75.55,1.66.55-1.11.55-.58.55-.5.55-2.56.55-5.24.56-2.47.55-8.42.55-10,.55-14.38.55-14.92.55-5.35.55,18.38.56,27.79.55,15.53.55,8.63.55,3.68.55.91.55,1.25.56.6.55.66.55,2,.55,1.22.55.26.55,1.81.55-1,.56-.75.55.1.55,1.77.55.46.55-1.08"/></g></g><g id="line2d_31" data-name="line2d 31"><g class="cls-10"><path class="cls-8" d="M160.34,196l.55-5.58.55-3.8.56-4.58.55-5.81.55-10.17.55-9.32.55-14.35.55-8.9.56,3.24.55,22.84.55,18.58.55,14.25.55,4.92.55,2.29.55,1.43.56-.55.55,1.88.55-.08.55,1.82.55.66.55-1.83.55,2.19L173,204h.55l.55-.24.55.36.55.1.55-2,.55-1.21.56,2.09.55-1.39.55-1.25.55,3.79.55-2.37.55,2.4.55-2.21.56-.38.55-1.16.55,1.09.55-1,.55-.36.55,1.31.56-1,.55-1.13.55.73.55,2,.55-2.76.55,1.17.55-.38.56,1.54.55-2.83.55,1.55.55.22.55-2.06.55,2.54.55-.48.56.34.55-1.85.55,1.2.55,2,.55-2.37.55-.12.55,1.32.56-.6.55.77.55-.56.55,2,.55-1.22.55,1,.56-.51.55,1,.55-.46.55-.29.55,1.28.55.88.55-2.28.56,2.52.55-.07.55.07h.55l.55-.29.55.76.55-1,.56-1.6.55-.25.55-1,.55-.24.55-5.72.55.46.55-.34.56-4.79.55-5.48.55-7.12.55-9.51.55-10.37.55-2.63.55,11.08.56,20.21.55,9.88.55,8.47.55.82.55,2.81.55,2.23.56.87.55,1.22.55,1.65.55-1.12.55.43.55,1.17.55,0,.56,1.82.55-.36.55,2.19.55-1.27.55-.1"/></g></g><g id="patch_8" data-name="patch 8"><path class="cls-9" d="M160.4,233.65V89.44"/></g><g id="patch_9" data-name="patch 9"><path class="cls-9" d="M223.4,233.65V89.44"/></g><g id="patch_10" data-name="patch 10"><path class="cls-9" d="M160.4,233.65h63"/></g><g id="patch_11" data-name="patch 11"><path class="cls-9" d="M160.4,89.44h63"/></g></g><g id="axes_3" data-name="axes 3"><g id="patch_12" data-name="patch 12"><path class="cls-2" d="M28.1,76.33h63V10.78h-63Z"/></g><g id="matplotlib.axis_5" data-name="matplotlib.axis 5"><g id="xtick_15" data-name="xtick 15"><g id="line2d_32" data-name="line2d 32"><path id="m2b1f88b726-5" data-name="m2b1f88b726" class="cls-3" d="M28.1,76.33v3.5"/></g></g><g id="xtick_16" data-name="xtick 16"><g id="line2d_33" data-name="line2d 33"><path id="m2b1f88b726-6" data-name="m2b1f88b726" class="cls-3" d="M70.1,76.33v3.5"/></g></g><g id="xtick_17" data-name="xtick 17"><g id="line2d_34" data-name="line2d 34"><path id="m452b6d4ff4-11" data-name="m452b6d4ff4" class="cls-4" d="M38.6,76.33v2"/></g></g><g id="xtick_18" data-name="xtick 18"><g id="line2d_35" data-name="line2d 35"><path id="m452b6d4ff4-12" data-name="m452b6d4ff4" class="cls-4" d="M49.1,76.33v2"/></g></g><g id="xtick_19" data-name="xtick 19"><g id="line2d_36" data-name="line2d 36"><path id="m452b6d4ff4-13" data-name="m452b6d4ff4" class="cls-4" d="M59.6,76.33v2"/></g></g><g id="xtick_20" data-name="xtick 20"><g id="line2d_37" data-name="line2d 37"><path id="m452b6d4ff4-14" data-name="m452b6d4ff4" class="cls-4" d="M80.6,76.33v2"/></g></g><g id="xtick_21" data-name="xtick 21"><g id="line2d_38" data-name="line2d 38"><path id="m452b6d4ff4-15" data-name="m452b6d4ff4" class="cls-4" d="M91.1,76.33v2"/></g></g></g><g id="line2d_41" data-name="line2d 41"><g class="cls-11"><path class="cls-6" d="M28,49.72l.55-1.87.55-3,.56-1,.55-4.14.55-6.75.55-5.13.55-5.16.55,10L33,43.89l.55,5.88.55,1.82.55-.12.55,1,.55,1.42.55-.56.56.86.55-1.92.55,1.9.55,1.11.55-.7.55-1,.55.46.56-.58.55,2.11.55-.72.55-.21.55-1.11.55-.1.55.82.56.19.55-.07.55-1.05.55,2.3.55-.94.55.74.55-.81.56-.17.55.69L49.55,54,50.1,55l.55-2.83.55,2.52.56,2,.55-1.56.55,1.47.55-1.27L54,55l.55-1.65.55,2.11.56.31.55.48.55.36.55-.67.55.26.55,1.22.55.25.56-1.56.55-.75.55,0,.55,1.14.55-.54.55-.39.55,1.1.56-.21.55-.79.55.91.55.6.55.26.55,1.1.56-.84.55-.47.55,1.85.55,0,.55-1.37.55,1.85.55-.72.56,2.33.55-1,.55-.33.55-.79.55-.15.55.27.55-.77.56,1.56.55-.69.55-.15.55-.91.55-1.49.55,1.54.55-1.56.56-2.19.55-3.09.55-5.6.55-1,.55-1.08.55,7,.55,4.11.56,5.22.55.18.55,2.37.55,0,.55,2.75.55-2.3.56-.55L86,64.29l.55.74.55-1.85L87.6,66l.55-1.47.55-.72.56.94.55-.26.55.24.55,1.7L91.46,65"/></g></g><g id="line2d_42" data-name="line2d 42"><g class="cls-11"><path class="cls-7" d="M28,46.31l.55-.48.55.65.56-2.24.55-.59.55-6.74.55-3.84.55-3.37.55-.43L33,36.5l.55,6.62.55,4.36.55.68.55.91.55-1.65.55,1.39.56-.46.55.87L38,47.73l.55,1.79.55.1.55-1.34.55,2.25.56-.62.55,2.42.55-.29.55-2.71.55,1,.55.31L44,51l.56.29.55-2.1.55.44.55-.43L46.79,51l.55.3.55-1.8.56-.42.55.31.55-.48.55,1.63.55-.15.55-.84.56,2.12.55-1.16.55-1.27.55.84L54,52.19l.55-2.33L55.06,52l.56-2h.55l.55.47.55.58.55,1,.55-1.42.55,1.21.56-.78L60,52.34l.55-.65h.55l.55-1.79.55.81.55,1.22.56-.09.55-1,.55,1.34L65,53.65l.55.92.55-1.33.56,1.09.55-1.56L67.75,55l.55-.35.55,0,.55-1.54L70,55.33l.56-.88.55.14.55-1.46.55-.1.55,2,.55-.39.55-.16.56,1.77.55-.67.55-1.08.55-.26.55.09.55.39.55-1.49.56-1.58.55-.25.55-3.19L79.88,45l.55-.49L81,46l.55,3.63L82.09,53l.55,2.75.55,2.35.55-.84.55.73.55-.24.56-1.08L86,58.84l.55,1,.55,1.06.55-.55.55.71.55-.72.56,1.32.55-1.51.55,1.1L90.91,60l.55,1.57"/></g></g><g id="line2d_43" data-name="line2d 43"><g class="cls-11"><path class="cls-8" d="M28,48l.55-1.75.55.11.56.72.55-1.19.55-1.08.55.69.55-2.33.55,3.39L33,45l.55-.22.55-.51.55.37.55-.36.55-.1.55-.6L36.87,45l.55-.38.55-.07.55.57.55-.69.55-.53.55-.4.56,1.92.55-1.54.55,1.29.55-.93L42.93,42l.55,1.81.55-.25.56.19.55,1.44.55-1.32.55.58.55-.4.55-.7.55.62.56-2.68L49,43.55l.55.53.55-.32L50.65,42l.55.12.56,1.1.55-2.18.55.62L53.41,45,54,44.2l.55-.53.55-1.13.56,2.93.55-.77.55.55.55-.93.55.16.55.7.55-.34.56-1.57.55.62.55,1,.55,1.46.55-1.06.55.2.55-.1.56.46.55-.32.55.7.55,0,.55-.29.55,1.32.56-.33.55.14.55.92.55-1.47.55,0,.55.33L70,48.2l.56,1.56.55-1.84.55.48.55-.82.55,3.51.55-1.8L73.81,47l.56,2.35.55.89.55,1L76,48.8l.55,3.53L77.12,51l.55.49L78.23,50l.55,3.1.55-1.13.55,1.19.55-.21L81,51.8l.55,2.33.56.65L82.64,53l.55-.32.55,1.25.55-1.36L84.84,54l.56-.27.55,1.9.55.22.55,0,.55-.36.55-.69.55,1.63.56,0,.55,0,.55,1.06.55.41.55-.8"/></g></g><g id="patch_13" data-name="patch 13"><path class="cls-9" d="M28.1,76.33V10.78"/></g><g id="patch_14" data-name="patch 14"><path class="cls-9" d="M91.1,76.33V10.78"/></g><g id="patch_15" data-name="patch 15"><path class="cls-9" d="M28.1,76.33h63"/></g><g id="patch_16" data-name="patch 16"><path class="cls-9" d="M28.1,10.78h63"/></g></g><g id="axes_4" data-name="axes 4"><g id="patch_17" data-name="patch 17"><path class="cls-2" d="M28.1,155h63V89.44h-63Z"/></g><g id="matplotlib.axis_7" data-name="matplotlib.axis 7"><g id="xtick_22" data-name="xtick 22"><g id="line2d_44" data-name="line2d 44"><path id="m2b1f88b726-7" data-name="m2b1f88b726" class="cls-3" d="M28.1,155v3.5"/></g></g><g id="xtick_23" data-name="xtick 23"><g id="line2d_45" data-name="line2d 45"><path id="m2b1f88b726-8" data-name="m2b1f88b726" class="cls-3" d="M70.1,155v3.5"/></g></g><g id="xtick_24" data-name="xtick 24"><g id="line2d_46" data-name="line2d 46"><path id="m452b6d4ff4-16" data-name="m452b6d4ff4" class="cls-4" d="M38.6,155v2"/></g></g><g id="xtick_25" data-name="xtick 25"><g id="line2d_47" data-name="line2d 47"><path id="m452b6d4ff4-17" data-name="m452b6d4ff4" class="cls-4" d="M49.1,155v2"/></g></g><g id="xtick_26" data-name="xtick 26"><g id="line2d_48" data-name="line2d 48"><path id="m452b6d4ff4-18" data-name="m452b6d4ff4" class="cls-4" d="M59.6,155v2"/></g></g><g id="xtick_27" data-name="xtick 27"><g id="line2d_49" data-name="line2d 49"><path id="m452b6d4ff4-19" data-name="m452b6d4ff4" class="cls-4" d="M80.6,155v2"/></g></g><g id="xtick_28" data-name="xtick 28"><g id="line2d_50" data-name="line2d 50"><path id="m452b6d4ff4-20" data-name="m452b6d4ff4" class="cls-4" d="M91.1,155v2"/></g></g></g><g id="matplotlib.axis_8" data-name="matplotlib.axis 8"><g id="text_5" data-name="text 5"><path id="ArialMT-49" d="M17.65,147h-10v-1.33h10Z"/><path id="ArialMT-6e" d="M17.65,143.47H10.39v-1.11h1a2.6,2.6,0,0,1-1.2-2.31,3,3,0,0,1,.24-1.2,1.86,1.86,0,0,1,.61-.83,2.4,2.4,0,0,1,.91-.38,6.62,6.62,0,0,1,1.2-.07h4.46v1.23H13.24a3.23,3.23,0,0,0-1.13.15,1.12,1.12,0,0,0-.59.51,1.56,1.56,0,0,0-.22.85,2,2,0,0,0,.5,1.36,2.45,2.45,0,0,0,1.89.57h4Z"/><path id="ArialMT-74" d="M16.55,133l1.09-.18a4.85,4.85,0,0,1,.11.93,2.13,2.13,0,0,1-.21,1,1.17,1.17,0,0,1-.56.52,4.39,4.39,0,0,1-1.45.15H11.35v.9h-1v-.9H8.59l-.73-1.22h2.53V133h1v1.24h4.24a1.9,1.9,0,0,0,.68-.07.49.49,0,0,0,.24-.21.82.82,0,0,0,.09-.42A3,3,0,0,0,16.55,133Z"/><path id="ArialMT-65" d="M15.31,126.83l.16-1.28a3.13,3.13,0,0,1,1.73,1.12,3.76,3.76,0,0,1-.36,4.6,3.81,3.81,0,0,1-2.75.94,4,4,0,0,1-2.85-1,3.2,3.2,0,0,1-1-2.44,3.1,3.1,0,0,1,1-2.38,3.92,3.92,0,0,1,2.79-.93h.33v5.41a2.79,2.79,0,0,0,1.83-.67,2,2,0,0,0,.63-1.52,1.88,1.88,0,0,0-.35-1.16A2.4,2.4,0,0,0,15.31,126.83Zm-2,4v-4.06a2.5,2.5,0,0,0-1.38.47,1.89,1.89,0,0,0-.71,1.52,2,2,0,0,0,.57,1.43A2.26,2.26,0,0,0,13.33,130.87Z"/><path id="ArialMT-6e-2" data-name="ArialMT-6e" d="M17.65,124H10.39V122.9h1a2.6,2.6,0,0,1-1.2-2.31,3,3,0,0,1,.24-1.2,1.86,1.86,0,0,1,.61-.83,2.4,2.4,0,0,1,.91-.38,6.62,6.62,0,0,1,1.2-.07h4.46v1.23H13.24a3.23,3.23,0,0,0-1.13.15,1.15,1.15,0,0,0-.59.5,1.62,1.62,0,0,0-.22.86,2,2,0,0,0,.5,1.36,2.45,2.45,0,0,0,1.89.57h4Z"/><path id="ArialMT-73" d="M15.49,116.72l-.19-1.22a1.73,1.73,0,0,0,1.12-.57,2,2,0,0,0,.38-1.31,1.93,1.93,0,0,0-.34-1.26,1,1,0,0,0-.81-.41.75.75,0,0,0-.66.36,5.55,5.55,0,0,0-.41,1.26,11.32,11.32,0,0,1-.6,1.88,1.77,1.77,0,0,1-.68.79,1.85,1.85,0,0,1-1,.27,1.87,1.87,0,0,1-.9-.22,2.11,2.11,0,0,1-.69-.61,2.59,2.59,0,0,1-.35-.78,3.62,3.62,0,0,1-.15-1.06,4.07,4.07,0,0,1,.25-1.5,2.06,2.06,0,0,1,.66-1,2.73,2.73,0,0,1,1.13-.42l.16,1.2a1.35,1.35,0,0,0-.87.48,1.73,1.73,0,0,0-.32,1.11,2.07,2.07,0,0,0,.28,1.21.83.83,0,0,0,.66.36.68.68,0,0,0,.43-.15,1.16,1.16,0,0,0,.33-.47c0-.12.15-.49.31-1.09a14.15,14.15,0,0,1,.57-1.82,1.94,1.94,0,0,1,.65-.81,1.83,1.83,0,0,1,1-.29,2.06,2.06,0,0,1,1.16.36,2.28,2.28,0,0,1,.84,1,3.73,3.73,0,0,1,.3,1.53,3.43,3.43,0,0,1-.59,2.16A2.76,2.76,0,0,1,15.49,116.72Z"/><path id="ArialMT-69" d="M9.05,109.22H7.63V108H9.05Zm8.6,0H10.39V108h7.26Z"/><path id="ArialMT-74-2" data-name="ArialMT-74" d="M16.55,103.43l1.09-.18a4.85,4.85,0,0,1,.11.93,2.13,2.13,0,0,1-.21,1,1.22,1.22,0,0,1-.56.52,4.39,4.39,0,0,1-1.45.15H11.35v.9h-1v-.9H8.59l-.73-1.23h2.53v-1.23h1v1.23h4.24a2.3,2.3,0,0,0,.68-.06.54.54,0,0,0,.24-.21.82.82,0,0,0,.09-.42A3,3,0,0,0,16.55,103.43Z"/><path id="ArialMT-79" d="M20.45,102.28l-1.16.14a2.51,2.51,0,0,0,.11-.71,1.34,1.34,0,0,0-.13-.65,1.09,1.09,0,0,0-.39-.41,5.92,5.92,0,0,0-.91-.38,2,2,0,0,1-.3-.11l-7.28,2.76V101.6l4.21-1.52c.53-.19,1.09-.37,1.68-.52a14.39,14.39,0,0,1-1.65-.51L10.39,97.5V96.27L17.78,99a16.53,16.53,0,0,1,1.64.69,2.47,2.47,0,0,1,.9.75,1.79,1.79,0,0,1,.28,1A2.48,2.48,0,0,1,20.45,102.28Z"/></g></g><g id="line2d_53" data-name="line2d 53"><g class="cls-12"><path class="cls-6" d="M28,125.3l.55,2.93.55-.79.56,1.18.55-1.08.55-1.49.55-2.18.55.74.55,1.77.56-2.8.55,2,.55-2.26.55,1.87.55-.33.55-1.56.55-.07.56.74.55.46.55-2.17.55.13.55-2.5.55,4.61.55-2.66.56-.9.55-.62.55.51.55,1.2.55-1.23.55-1.2.55.48.56,0,.55-1.21.55-.66.55,1.91.55-1.19.55.11.55-1.17.56.26.55-.05.55-.62.55.81.55-1,.55-.19.56,1.27.55-.41.55-.62.55.72.55-1,.55-.4.55.21.56,1.3.55-.48.55.45.55-.6.55,1.42.55-1.8.55,3.24.56-.86.55.12.55.21.55,0,.55-.69.55,1.75.55-1.84.56,1.94.55,1.46.55-1.49.55,1.78.55.87.55.81.56-1.94.55.76.55.7.55-.63.55,1.35.55.69.55,0,.56,1.44.55-2.21.55,1.85.55,1,.55-.49.55,2.65.55,1,.56-2.41.55-.57.55,2.76.55,1.24.55-.66.55.38.55.28.56-.78.55,1.87.55.69.55-.72.55,1.56.55,0,.55,0,.56,1.44.55.26.55-1.15.55,1.63.55.32.55.7.56-.29.55.48.55-.39.55,1.54.55-1,.55.88.55,1.16.56-.94.55-.33.55.86.55.29.55-1.4"/></g></g><g id="line2d_54" data-name="line2d 54"><g class="cls-12"><path class="cls-7" d="M28,118l.55-1.27.55.36.56.82.55-2,.55-.93.55,2.33.55-1.59.55-.31.56.24.55-1,.55.19.55-.08.55.66.55-1.37.55-.37.56-2.06.55-1.94.55-3.6.55,1.68.55,1.87.55,1.68.55.69.56,1.14.55-.87.55-2.26.55.84.55.36.55.2.55-.37.56.82.55-.38.55-2.09.55,1.3.55-3,.55,2,.55.91.56-3.75.55-.17.55-4.77.55,2.62.55,3,.55,3.81.56.34.55-1.52.55,1,.55-1.38.55.76.55,2.21.55-2.67.56,1,.55-.79.55-.55.55,0,.55.67.55,0,.55,1.46.56,2.09.55,1.9.55-1.09.55-2.15.55.88.55.67.55,1,.56-2.11.55,3.12.55.1L65,113.4l.55,2.4.55,2.06.56,1.88.55-2.23.55,1.1.55-2,.55,2.09.55-.14.55.71.56.66.55,1.53.55.34.55-.91.55.74.55.64.55-.71.56,4,.55-2.3.55.48.55.59.55.41.55-1.51.55,1.8.56,2,.55-.24.55-.72.55.48.55.52H81l.55.34.56-.17.55,1.06.55.69.55,2,.55-.16.55.33.56-.52.55,1.44.55-1.23.55,1.22.55-.35.55,2,.55-.79.56.43.55-1.19.55,1.72.55,1,.55-1.34"/></g></g><g id="line2d_55" data-name="line2d 55"><g class="cls-12"><path class="cls-8" d="M28,114l.55-2.71.55-.78.56,2.14.55-1.7.55.7.55.33L31.9,111l.55.18.56-.36.55,2.46.55-2.43.55-1.56.55-.72.55.7.55,1.94.56-1.39.55-1.18.55-2.83.55.43.55-1,.55-1.13.55,4.63.56-2.36.55-.91.55-1.08.55.91.55,1.68.55-3.47.55,1.22.56-1.11.55,1.16.55-2.06.55-.82.55,2.21.55-2,.55-.15.56,1.51.55-.76.55,1.6.55-2.13.55.77.55-.24.56-1.11.55,2.83.55-.76.55-1.93.55.34.55-.93.55.66.56.54.55-.22.55,1.18.55-.18.55-.45.55,2.26.55.5.56-.62.55-1.9.55,4.77.55-1.44.55,0,.55-1.52.55.65.56,2.76.55-2,.55.36L65,107l.55.5.55,1.5.56.35.55,1.11.55-2.23L68.3,111l.55.44.55.86.55,2.31.56-1.92.55.79.55,1.24.55-1.39.55,1.73.55-2,.55,3.3.56.63.55.72.55,0,.55-.94.55,2,.55,1.49.55.6.56-1.61.55,1,.55.48.55,1.68.55-.89.55.94.55-.87.56-.36.55,1.83.55,1,.55.54.55,1.09.55-.43.56,1L86,124.9l.55,1.6.55,2.95.55-2.2.55.6.55-.58.56.74.55.65.55,2.19.55-2.55.55,2.43"/></g></g><g id="patch_18" data-name="patch 18"><path class="cls-9" d="M28.1,155V89.44"/></g><g id="patch_19" data-name="patch 19"><path class="cls-9" d="M91.1,155V89.44"/></g><g id="patch_20" data-name="patch 20"><path class="cls-9" d="M28.1,155h63"/></g><g id="patch_21" data-name="patch 21"><path class="cls-9" d="M28.1,89.44h63"/></g></g><g id="axes_5" data-name="axes 5"><g id="patch_22" data-name="patch 22"><path class="cls-2" d="M28.1,233.65h63V168.1h-63Z"/></g><g id="matplotlib.axis_9" data-name="matplotlib.axis 9"><g id="xtick_29" data-name="xtick 29"><g id="line2d_56" data-name="line2d 56"><path id="m2b1f88b726-9" data-name="m2b1f88b726" class="cls-3" d="M28.1,233.65v3.5"/></g><g id="text_6" data-name="text 6"><path id="ArialMT-31-5" data-name="ArialMT-31" d="M26.26,247.81h-.87v-5.6a4.69,4.69,0,0,1-.84.61,5.89,5.89,0,0,1-.92.45v-.85a5.32,5.32,0,0,0,1.29-.84,3.51,3.51,0,0,0,.78-1h.56Z"/><path id="ArialMT-30-3" data-name="ArialMT-30" d="M28.52,244.28a6.36,6.36,0,0,1,.26-2,2.45,2.45,0,0,1,.77-1.19,2,2,0,0,1,1.3-.42,2.06,2.06,0,0,1,1,.23,1.92,1.92,0,0,1,.72.67,3.32,3.32,0,0,1,.44,1.06,6.94,6.94,0,0,1,.16,1.69,6.4,6.4,0,0,1-.26,2,2.55,2.55,0,0,1-.77,1.19,2,2,0,0,1-1.3.42,2,2,0,0,1-1.63-.74A4.71,4.71,0,0,1,28.52,244.28Zm.9,0a4.56,4.56,0,0,0,.41,2.35,1.19,1.19,0,0,0,2,0,6.94,6.94,0,0,0,0-4.7,1.25,1.25,0,0,0-1-.58,1.12,1.12,0,0,0-1,.52A4.54,4.54,0,0,0,29.42,244.28Z"/></g></g><g id="xtick_30" data-name="xtick 30"><g id="line2d_57" data-name="line2d 57"><path id="m2b1f88b726-10" data-name="m2b1f88b726" class="cls-3" d="M70.1,233.65v3.5"/></g><g id="text_7" data-name="text 7"><path id="ArialMT-31-6" data-name="ArialMT-31" d="M68.26,247.81h-.87v-5.6a4.69,4.69,0,0,1-.84.61,5.89,5.89,0,0,1-.92.45v-.85a5.32,5.32,0,0,0,1.29-.84,3.51,3.51,0,0,0,.78-1h.56Z"/><path id="ArialMT-32-3" data-name="ArialMT-32" d="M75.13,247v.84H70.4a1.61,1.61,0,0,1,.11-.61,3.29,3.29,0,0,1,.57-.95,9.7,9.7,0,0,1,1.15-1.08,9.75,9.75,0,0,0,1.58-1.52,1.78,1.78,0,0,0,.41-1.06,1.16,1.16,0,0,0-.37-.88,1.52,1.52,0,0,0-2,0,1.47,1.47,0,0,0-.39,1.06l-.9-.09a2.22,2.22,0,0,1,.7-1.55,2.37,2.37,0,0,1,1.62-.52,2.26,2.26,0,0,1,1.63.57,1.84,1.84,0,0,1,.61,1.41,2.13,2.13,0,0,1-.18.85,3.37,3.37,0,0,1-.58.87A14.59,14.59,0,0,1,73,245.59q-.8.66-1,.9a3.87,3.87,0,0,0-.37.48Z"/></g></g><g id="xtick_31" data-name="xtick 31"><g id="line2d_58" data-name="line2d 58"><path id="m452b6d4ff4-21" data-name="m452b6d4ff4" class="cls-4" d="M38.6,233.65v2"/></g></g><g id="xtick_32" data-name="xtick 32"><g id="line2d_59" data-name="line2d 59"><path id="m452b6d4ff4-22" data-name="m452b6d4ff4" class="cls-4" d="M49.1,233.65v2"/></g></g><g id="xtick_33" data-name="xtick 33"><g id="line2d_60" data-name="line2d 60"><path id="m452b6d4ff4-23" data-name="m452b6d4ff4" class="cls-4" d="M59.6,233.65v2"/></g></g><g id="xtick_34" data-name="xtick 34"><g id="line2d_61" data-name="line2d 61"><path id="m452b6d4ff4-24" data-name="m452b6d4ff4" class="cls-4" d="M80.6,233.65v2"/></g></g><g id="xtick_35" data-name="xtick 35"><g id="line2d_62" data-name="line2d 62"><path id="m452b6d4ff4-25" data-name="m452b6d4ff4" class="cls-4" d="M91.1,233.65v2"/></g></g></g><g id="line2d_65" data-name="line2d 65"><g class="cls-13"><path class="cls-6" d="M28,202.69l.55,3.17.55.35.56.13.55,2,.55-1,.55,3.08.55-1.23.55,2.53.56-1.95.55-.41.55,2.19.55-2.47.55.28.55,1,.55.5.56-2.16.55,2.9.55-.65.55-1.72.55,1.25.55-.08.55-.55.56-2,.55.73.55.07.55-.56.55.66.55,0,.55.94.56-.92.55.49.55-1.9.55,2.08.55,2.33.55-4,.55.84.56.84.55-.69.55-1.42.55.91.55-1.12.55-.91.56.78.55.44.55-.39.55-.62H54l.55-.19.55-.36.56.58.55-1.35.55.29.55-.15.55-.36.55-.65.55,1.59.56-4.17.55,1.58.55,1.63.55-4.56.55,3.55.55-.57.55.52.56-.36.55-1,.55,1.85.55-.48.55.39.55,2.83.56-.24.55.72.55.5.55.41.55.09.55,1.11.55.84.56.45.55.6.55.61.55-1.15.55,3,.55-2.09.55,1.88.56,1,.55.2.55.23.55-.79.55,1.81.55-1.44.55.83.56.72.55-.83.55,1.8.55,1.55.55-.76.55-.24.55-.13.56.29.55.85.55,2.2.55-2.69.55,1.25.55,0,.56,1.63.55.23.55-.66.55.43.55.29.55-1.13.55.38.56,3.16.55-1.12.55-.41.55.14.55-.06"/></g></g><g id="line2d_66" data-name="line2d 66"><g class="cls-13"><path class="cls-7" d="M28,193.72l.55-.68.55-1.61.56,3.73.55-1.85.55,1.24.55,5.36.55-.67.55,1.29L33,199l.55,1.94.55,1.85.55,2.24.55-1.8.55,1.34.55.19.56-1.89.55,1.5.55,1.32.55-1.12.55-.46.55,0,.55-1.64.56,1.08.55-.12.55.32.55.9.55-.18.55-2.81.55.24.56.95.55,1.11.55-3.74.55,1.85.55,1.41.55-.45.55-2,.56.78.55,1.61.55-3.47.55,1.6.55-.67.55-1,.56,0,.55,1.61.55-2.84.55.94.55-.26.55-1,.55,2.33.56.43.55-1.25.55,1,.55-1.8.55-1.29.55.72.55-.92.56-.74.55,2.31.55-1.83h.55l.55-1.18.55,2.22.55-2.46.56,1,.55-1,.55.12.55-.29.55-.78.55.06.56,1.52.55.69.55-.57.55,1.15.55,2.67.55.55.55-1.83.56,1.71.55,2.18.55-1.35.55,2.6.55-.15.55,2.19.55-1,.56.12.55-.05.55,3,.55-1.61.55,2.95.55,1,.55.15.56-.1.55-1.52.55,2.17.55.53.55.54L81,213l.55,1.42.56.24.55-.19.55.62.55,1.25.55-1.89.55,1.19L85.4,217l.55-.72L86.5,219l.55-1.52.55.12.55.54.55,1.65.56-1.05.55-.06.55,1,.55.14.55.09"/></g></g><g id="line2d_67" data-name="line2d 67"><g class="cls-13"><path class="cls-8" d="M28,194.75l.55-.25.55,2.36.56-3,.55,4.53.55.34.55-.65.55,1.8.55-.81.56-1.21.55,2.67.55-1,.55,1.35.55.21.55.43.55.12.56-.57.55-1.1.55.26.55-.67.55-.86.55.24.55,1.12.56-.36.55-1.07.55.4.55-1.8.55,0,.55.89.55-.38.56,1.1.55-1.25.55.1.55,1.27.55-2.48.55-.52.55-.36.56.79.55.69.55-.71.55-2.11.55,1.67.55-1,.56-.55.55.43.55,2.73.55-3,.55.5.55.17.55-1.29.56.69.55-1.7.55.38.55-1,.55,1.3.55-1.32.55.5.56-.38.55,1.85.55-2.45.55.89.55,0,.55.31h.55l.56-.09.55-1.34.55.36.55.43.55.62.55.34.56-.65.55,1.46.55.31.55,2.07.55-1.42.55,1.06.55,2.26.56-2.81.55,3.5.55-1.15.55,2.06.55.36.55,1.37.55-.38.56,1.27.55.94.55.54.55.53.55.41.55,1.25.55.15.56-.42.55-.69.55.94.55,4.72.55-.74.55-.17.55-.65.56.8.55.65.55,1.22.55.07.55,1,.55-.6.56,1.66.55-.39.55-1.31.55,1,.55,2,.55-.09.55-1.05.56.57.55,1.61.55.26.55,2,.55-1.2"/></g></g><g id="patch_23" data-name="patch 23"><path class="cls-9" d="M28.1,233.65V168.1"/></g><g id="patch_24" data-name="patch 24"><path class="cls-9" d="M91.1,233.65V168.1"/></g><g id="patch_25" data-name="patch 25"><path class="cls-9" d="M28.1,233.65h63"/></g><g id="patch_26" data-name="patch 26"><path class="cls-9" d="M28.1,168.1h63"/></g></g><g id="axes_6" data-name="axes 6"><g id="matplotlib.axis_11" data-name="matplotlib.axis 11"><g id="xtick_36" data-name="xtick 36"><g id="text_8" data-name="text 8"><g class="cls-14"><path id="ArialMT-30-4" data-name="ArialMT-30" d="M21.57,244.28a6.36,6.36,0,0,1,.26-2,2.45,2.45,0,0,1,.77-1.19,2,2,0,0,1,1.3-.42,2.06,2.06,0,0,1,1,.23,1.92,1.92,0,0,1,.72.67,3.56,3.56,0,0,1,.44,1.06,6.94,6.94,0,0,1,.16,1.69,6.4,6.4,0,0,1-.26,2,2.55,2.55,0,0,1-.77,1.19,2,2,0,0,1-1.3.42,2,2,0,0,1-1.63-.74A4.71,4.71,0,0,1,21.57,244.28Zm.9,0a4.56,4.56,0,0,0,.41,2.35,1.19,1.19,0,0,0,2,0,6.94,6.94,0,0,0,0-4.7,1.25,1.25,0,0,0-1-.58,1.12,1.12,0,0,0-1,.52A4.54,4.54,0,0,0,22.47,244.28Z"/><path id="ArialMT-2e" d="M27.62,247.81v-1h1v1Z"/><path id="ArialMT-30-5" data-name="ArialMT-30" d="M29.91,244.28a6.36,6.36,0,0,1,.26-2,2.45,2.45,0,0,1,.77-1.19,2,2,0,0,1,1.3-.42,2.06,2.06,0,0,1,1,.23,1.92,1.92,0,0,1,.72.67,3.56,3.56,0,0,1,.44,1.06,6.94,6.94,0,0,1,.16,1.69,6.4,6.4,0,0,1-.26,2,2.55,2.55,0,0,1-.77,1.19,2,2,0,0,1-1.3.42,2,2,0,0,1-1.63-.74A4.71,4.71,0,0,1,29.91,244.28Zm.9,0a4.56,4.56,0,0,0,.41,2.35,1.19,1.19,0,0,0,2,0,6.94,6.94,0,0,0,0-4.7,1.25,1.25,0,0,0-1-.58,1.12,1.12,0,0,0-1,.52A4.54,4.54,0,0,0,30.81,244.28Z"/></g></g></g><g id="xtick_37" data-name="xtick 37"><g id="text_9" data-name="text 9"><g class="cls-14"><path id="ArialMT-30-6" data-name="ArialMT-30" d="M60.63,244.28a6.36,6.36,0,0,1,.26-2,2.45,2.45,0,0,1,.77-1.19,2,2,0,0,1,1.3-.42,2.06,2.06,0,0,1,1,.23,1.92,1.92,0,0,1,.72.67,3.56,3.56,0,0,1,.44,1.06,6.94,6.94,0,0,1,.16,1.69,6.4,6.4,0,0,1-.26,2,2.55,2.55,0,0,1-.77,1.19,2,2,0,0,1-1.3.42,2,2,0,0,1-1.63-.74A4.71,4.71,0,0,1,60.63,244.28Zm.9,0a4.56,4.56,0,0,0,.41,2.35,1.19,1.19,0,0,0,2,0,6.94,6.94,0,0,0,0-4.7,1.25,1.25,0,0,0-1-.58,1.12,1.12,0,0,0-1,.52A4.54,4.54,0,0,0,61.53,244.28Z"/><path id="ArialMT-2e-2" data-name="ArialMT-2e" d="M66.68,247.81v-1h1v1Z"/><path id="ArialMT-32-4" data-name="ArialMT-32" d="M73.58,247v.84H68.85a1.81,1.81,0,0,1,.1-.61,3.57,3.57,0,0,1,.58-.95,9.7,9.7,0,0,1,1.15-1.08,9.75,9.75,0,0,0,1.58-1.52,1.84,1.84,0,0,0,.41-1.06,1.16,1.16,0,0,0-.37-.88,1.52,1.52,0,0,0-2,0,1.43,1.43,0,0,0-.39,1.06l-.9-.09a2.22,2.22,0,0,1,.7-1.55,2.37,2.37,0,0,1,1.62-.52,2.26,2.26,0,0,1,1.63.57,1.87,1.87,0,0,1,.6,1.41,2.12,2.12,0,0,1-.17.85,3.37,3.37,0,0,1-.58.87,14.59,14.59,0,0,1-1.36,1.26q-.79.66-1,.9a3.09,3.09,0,0,0-.37.48Z"/></g></g></g><g id="xtick_38" data-name="xtick 38"><g id="text_10" data-name="text 10"><g class="cls-14"><path id="ArialMT-30-7" data-name="ArialMT-30" d="M99.69,244.28a6.36,6.36,0,0,1,.26-2,2.45,2.45,0,0,1,.77-1.19,2,2,0,0,1,1.3-.42,2.06,2.06,0,0,1,1,.23,1.92,1.92,0,0,1,.72.67,3.56,3.56,0,0,1,.44,1.06,6.94,6.94,0,0,1,.16,1.69,6.4,6.4,0,0,1-.26,2,2.55,2.55,0,0,1-.77,1.19,2,2,0,0,1-1.3.42,2,2,0,0,1-1.63-.74A4.71,4.71,0,0,1,99.69,244.28Zm.9,0a4.56,4.56,0,0,0,.41,2.35,1.19,1.19,0,0,0,2,0,6.94,6.94,0,0,0,0-4.7,1.25,1.25,0,0,0-1-.58,1.12,1.12,0,0,0-1,.52A4.54,4.54,0,0,0,100.59,244.28Z"/><path id="ArialMT-2e-3" data-name="ArialMT-2e" d="M105.74,247.81v-1h1v1Z"/><path id="ArialMT-34" d="M110.84,247.81V246.1h-3.1v-.81l3.26-4.64h.72v4.64h1v.81h-1v1.71Zm0-2.52v-3.22l-2.24,3.22Z"/></g></g></g><g id="xtick_39" data-name="xtick 39"><g id="text_11" data-name="text 11"><g class="cls-14"><path id="ArialMT-30-8" data-name="ArialMT-30" d="M138.75,244.28a6.36,6.36,0,0,1,.26-2,2.45,2.45,0,0,1,.77-1.19,2,2,0,0,1,1.3-.42,2.06,2.06,0,0,1,1,.23,1.92,1.92,0,0,1,.72.67,3.56,3.56,0,0,1,.44,1.06,6.94,6.94,0,0,1,.16,1.69,6.4,6.4,0,0,1-.26,2,2.55,2.55,0,0,1-.77,1.19,2,2,0,0,1-1.3.42,2,2,0,0,1-1.63-.74A4.71,4.71,0,0,1,138.75,244.28Zm.9,0a4.56,4.56,0,0,0,.41,2.35,1.19,1.19,0,0,0,2,0,6.94,6.94,0,0,0,0-4.7,1.25,1.25,0,0,0-1-.58,1.12,1.12,0,0,0-1,.52A4.54,4.54,0,0,0,139.65,244.28Z"/><path id="ArialMT-2e-4" data-name="ArialMT-2e" d="M144.8,247.81v-1h1v1Z"/><path id="ArialMT-36" d="M151.64,242.41l-.87.07a1.74,1.74,0,0,0-.33-.76,1.16,1.16,0,0,0-.88-.37,1.25,1.25,0,0,0-.74.23,2,2,0,0,0-.65.89,4.61,4.61,0,0,0-.25,1.65,2.06,2.06,0,0,1,.78-.72,2.12,2.12,0,0,1,1-.23,2,2,0,0,1,1.49.65,2.27,2.27,0,0,1,.62,1.67,2.64,2.64,0,0,1-.29,1.25,2.1,2.1,0,0,1-.8.89,2.19,2.19,0,0,1-1.15.3,2.24,2.24,0,0,1-1.79-.8,4.11,4.11,0,0,1-.69-2.67,4.75,4.75,0,0,1,.76-3,2.2,2.2,0,0,1,1.8-.82,2,2,0,0,1,1.39.47A2,2,0,0,1,151.64,242.41Zm-3.58,3.08a2,2,0,0,0,.19.87,1.49,1.49,0,0,0,.54.64,1.37,1.37,0,0,0,.73.21,1.22,1.22,0,0,0,.95-.45,1.74,1.74,0,0,0,.4-1.22,1.69,1.69,0,0,0-.39-1.17,1.33,1.33,0,0,0-1-.42,1.38,1.38,0,0,0-1,.42A1.58,1.58,0,0,0,148.06,245.49Z"/></g></g></g><g id="xtick_40" data-name="xtick 40"><g id="text_12" data-name="text 12"><g class="cls-14"><path id="ArialMT-30-9" data-name="ArialMT-30" d="M177.81,244.28a6.36,6.36,0,0,1,.26-2,2.45,2.45,0,0,1,.77-1.19,2,2,0,0,1,1.3-.42,2.06,2.06,0,0,1,1,.23,1.92,1.92,0,0,1,.72.67,3.56,3.56,0,0,1,.44,1.06,6.94,6.94,0,0,1,.16,1.69,6.4,6.4,0,0,1-.26,2,2.55,2.55,0,0,1-.77,1.19,2,2,0,0,1-1.3.42,2,2,0,0,1-1.63-.74A4.71,4.71,0,0,1,177.81,244.28Zm.9,0a4.56,4.56,0,0,0,.41,2.35,1.19,1.19,0,0,0,2,0,6.94,6.94,0,0,0,0-4.7,1.25,1.25,0,0,0-1-.58,1.12,1.12,0,0,0-1,.52A4.54,4.54,0,0,0,178.71,244.28Z"/><path id="ArialMT-2e-5" data-name="ArialMT-2e" d="M183.86,247.81v-1h1v1Z"/><path id="ArialMT-38" d="M187.5,243.93a1.57,1.57,0,0,1-.81-.57,1.47,1.47,0,0,1-.27-.89,1.74,1.74,0,0,1,.56-1.31,2.09,2.09,0,0,1,1.5-.53,2.12,2.12,0,0,1,1.51.54,1.75,1.75,0,0,1,.57,1.33,1.46,1.46,0,0,1-.26.86,1.62,1.62,0,0,1-.8.57,1.93,1.93,0,0,1,1,.7,1.86,1.86,0,0,1,.34,1.14,2,2,0,0,1-.65,1.54,2.34,2.34,0,0,1-1.71.62,2.37,2.37,0,0,1-1.71-.62,2.1,2.1,0,0,1-.65-1.57,1.89,1.89,0,0,1,.36-1.17A1.83,1.83,0,0,1,187.5,243.93Zm-.18-1.49a1.1,1.1,0,0,0,.33.83,1.28,1.28,0,0,0,1.68,0,1.07,1.07,0,0,0,.33-.79,1.11,1.11,0,0,0-.34-.81,1.13,1.13,0,0,0-.83-.33,1.15,1.15,0,0,0-.84.32A1,1,0,0,0,187.32,242.44Zm-.28,3.31a1.61,1.61,0,0,0,.18.73,1.25,1.25,0,0,0,.53.54,1.49,1.49,0,0,0,.75.19,1.41,1.41,0,0,0,1-.4,1.37,1.37,0,0,0,.41-1,1.39,1.39,0,0,0-.42-1.05,1.43,1.43,0,0,0-1.06-.42,1.4,1.4,0,0,0-1.43,1.44Z"/></g></g></g><g id="xtick_41" data-name="xtick 41"><g id="text_13" data-name="text 13"><g class="cls-14"><path id="ArialMT-31-7" data-name="ArialMT-31" d="M220.17,247.81h-.87v-5.6a4.35,4.35,0,0,1-.84.61,5.89,5.89,0,0,1-.92.45v-.85a5.32,5.32,0,0,0,1.29-.84,3.33,3.33,0,0,0,.78-1h.56Z"/><path id="ArialMT-2e-6" data-name="ArialMT-2e" d="M222.92,247.81v-1h1v1Z"/><path id="ArialMT-30-10" data-name="ArialMT-30" d="M225.21,244.28a6.36,6.36,0,0,1,.26-2,2.45,2.45,0,0,1,.77-1.19,2,2,0,0,1,1.3-.42,2.06,2.06,0,0,1,1,.23,1.92,1.92,0,0,1,.72.67,3.56,3.56,0,0,1,.44,1.06,6.94,6.94,0,0,1,.16,1.69,6.4,6.4,0,0,1-.26,2,2.55,2.55,0,0,1-.77,1.19,2,2,0,0,1-1.3.42,2,2,0,0,1-1.63-.74A4.71,4.71,0,0,1,225.21,244.28Zm.9,0a4.56,4.56,0,0,0,.41,2.35,1.19,1.19,0,0,0,2,0,6.94,6.94,0,0,0,0-4.7,1.25,1.25,0,0,0-1-.58,1.12,1.12,0,0,0-1,.52A4.54,4.54,0,0,0,226.11,244.28Z"/></g></g></g><g id="text_14" data-name="text 14"><path id="ArialMT-32-5" data-name="ArialMT-32" d="M93.11,262.81V264H86.49a2.23,2.23,0,0,1,.14-.85,4.66,4.66,0,0,1,.81-1.34,13,13,0,0,1,1.61-1.51,13.43,13.43,0,0,0,2.21-2.13,2.55,2.55,0,0,0,.58-1.48,1.66,1.66,0,0,0-.53-1.23A1.9,1.9,0,0,0,90,255a1.93,1.93,0,0,0-1.42.53A2,2,0,0,0,88,257l-1.27-.13a3.11,3.11,0,0,1,1-2.16,3.34,3.34,0,0,1,2.28-.74,3.18,3.18,0,0,1,2.28.8,2.61,2.61,0,0,1,.84,2,3,3,0,0,1-.25,1.19,4.59,4.59,0,0,1-.81,1.22,20.7,20.7,0,0,1-1.9,1.76c-.74.62-1.21,1-1.42,1.26a3.8,3.8,0,0,0-.52.67Z"/><path id="ArialMT-3b8" d="M94.48,259q0-5.18,3.27-5.18c2.18,0,3.26,1.73,3.26,5.18s-1.08,5.18-3.26,5.18S94.48,262.43,94.48,259Zm1.27-.5h4a5.7,5.7,0,0,0-.61-2.9,1.67,1.67,0,0,0-1.4-.77C96.46,254.81,95.8,256,95.75,258.48Zm4,1h-4c0,2.45.72,3.67,2,3.67S99.7,261.92,99.74,259.47Z"/><path id="ArialMT-20" d="M101.64,264"/><path id="ArialMT-28" d="M108.8,266.94a12.33,12.33,0,0,1-1.72-3,9.5,9.5,0,0,1-.18-6.68,12.86,12.86,0,0,1,1.9-3.45h.88c-.55.95-.91,1.62-1.09,2a11.12,11.12,0,0,0-.66,2,11.78,11.78,0,0,0-.29,2.57,12.37,12.37,0,0,0,2,6.57Z"/><path id="ArialMT-64" d="M115.82,264v-.91a2.26,2.26,0,0,1-2,1.08,2.86,2.86,0,0,1-1.6-.48,3.15,3.15,0,0,1-1.12-1.34,4.56,4.56,0,0,1-.4-2,5.16,5.16,0,0,1,.36-2,2.8,2.8,0,0,1,1.09-1.36,2.85,2.85,0,0,1,1.62-.47,2.49,2.49,0,0,1,2,1V254H117v10Zm-3.89-3.62a3.15,3.15,0,0,0,.59,2.08,1.76,1.76,0,0,0,1.39.69,1.74,1.74,0,0,0,1.37-.66,3.07,3.07,0,0,0,.56-2,3.46,3.46,0,0,0-.57-2.19,1.79,1.79,0,0,0-1.42-.69,1.71,1.71,0,0,0-1.37.67A3.27,3.27,0,0,0,111.93,260.37Z"/><path id="ArialMT-65-2" data-name="ArialMT-65" d="M123.87,261.65l1.27.16a3.12,3.12,0,0,1-1.11,1.73,3.38,3.38,0,0,1-2.08.62,3.34,3.34,0,0,1-2.53-1,3.87,3.87,0,0,1-.93-2.76,4,4,0,0,1,.94-2.84,3.22,3.22,0,0,1,2.45-1,3.12,3.12,0,0,1,2.38,1,4,4,0,0,1,.92,2.79c0,.07,0,.18,0,.33h-5.41a2.76,2.76,0,0,0,.68,1.83,2,2,0,0,0,1.51.63,1.94,1.94,0,0,0,1.16-.35A2.41,2.41,0,0,0,123.87,261.65Zm-4-2h4a2.46,2.46,0,0,0-.46-1.37,1.91,1.91,0,0,0-1.53-.71,1.94,1.94,0,0,0-1.42.57A2.19,2.19,0,0,0,119.83,259.66Z"/><path id="ArialMT-67" d="M126.46,264.59l1.2.18a1.1,1.1,0,0,0,.41.81,2,2,0,0,0,1.25.34,2.18,2.18,0,0,0,1.32-.34,1.7,1.7,0,0,0,.63-1,7.72,7.72,0,0,0,.09-1.58,2.52,2.52,0,0,1-2,.95,2.75,2.75,0,0,1-2.32-1.08,4.13,4.13,0,0,1-.82-2.59,4.87,4.87,0,0,1,.38-1.92,3,3,0,0,1,1.09-1.35,2.91,2.91,0,0,1,1.68-.48,2.6,2.6,0,0,1,2.12,1v-.88h1.13V263a5.92,5.92,0,0,1-.35,2.4,2.5,2.5,0,0,1-1.09,1.12,3.82,3.82,0,0,1-1.84.41,3.46,3.46,0,0,1-2.1-.59A2,2,0,0,1,126.46,264.59Zm1-4.36a3.17,3.17,0,0,0,.56,2.09,1.84,1.84,0,0,0,1.43.65,1.81,1.81,0,0,0,1.42-.65,3.08,3.08,0,0,0,.57-2.05,3,3,0,0,0-.59-2,1.82,1.82,0,0,0-1.43-.67,1.78,1.78,0,0,0-1.39.66A3,3,0,0,0,127.48,260.23Z"/><path id="ArialMT-72" d="M134.46,264v-7.26h1.1v1.1a3.22,3.22,0,0,1,.79-1,1.39,1.39,0,0,1,.79-.24,2.43,2.43,0,0,1,1.26.39l-.42,1.15a1.74,1.74,0,0,0-.9-.27,1.18,1.18,0,0,0-.73.24,1.29,1.29,0,0,0-.46.67,4.73,4.73,0,0,0-.2,1.44V264Z"/><path id="ArialMT-65-3" data-name="ArialMT-65" d="M144.1,261.65l1.27.16a3.12,3.12,0,0,1-1.11,1.73,3.77,3.77,0,0,1-4.61-.36,3.87,3.87,0,0,1-.93-2.76,4,4,0,0,1,.94-2.84,3.22,3.22,0,0,1,2.45-1,3.1,3.1,0,0,1,2.38,1,3.91,3.91,0,0,1,.92,2.79v.33H140a2.81,2.81,0,0,0,.68,1.83,2,2,0,0,0,1.52.63,1.91,1.91,0,0,0,1.15-.35A2.34,2.34,0,0,0,144.1,261.65Zm-4-2h4.06a2.46,2.46,0,0,0-.47-1.37,1.89,1.89,0,0,0-1.52-.71,2,2,0,0,0-1.43.57A2.24,2.24,0,0,0,140.06,259.66Z"/><path id="ArialMT-65-4" data-name="ArialMT-65" d="M151.89,261.65l1.27.16a3.12,3.12,0,0,1-1.11,1.73,3.38,3.38,0,0,1-2.08.62,3.34,3.34,0,0,1-2.53-1,3.87,3.87,0,0,1-.93-2.76,4,4,0,0,1,.94-2.84,3.22,3.22,0,0,1,2.45-1,3.12,3.12,0,0,1,2.38,1,4,4,0,0,1,.92,2.79c0,.07,0,.18,0,.33h-5.41a2.81,2.81,0,0,0,.68,1.83,2,2,0,0,0,1.51.63,1.94,1.94,0,0,0,1.16-.35A2.41,2.41,0,0,0,151.89,261.65Zm-4-2h4.05a2.46,2.46,0,0,0-.46-1.37,1.9,1.9,0,0,0-1.53-.71,1.94,1.94,0,0,0-1.42.57A2.19,2.19,0,0,0,147.85,259.66Z"/><path id="ArialMT-73-2" data-name="ArialMT-73" d="M154.21,261.82l1.22-.19a1.71,1.71,0,0,0,.57,1.12,2,2,0,0,0,1.31.39,2,2,0,0,0,1.26-.34A1,1,0,0,0,159,262a.74.74,0,0,0-.37-.66,4.78,4.78,0,0,0-1.25-.41,11,11,0,0,1-1.88-.6,1.73,1.73,0,0,1-.79-.69,1.82,1.82,0,0,1-.27-1,1.87,1.87,0,0,1,.22-.9,2.1,2.1,0,0,1,.6-.69,2.53,2.53,0,0,1,.79-.35,3.62,3.62,0,0,1,1.06-.15,4.29,4.29,0,0,1,1.5.24,2.05,2.05,0,0,1,.95.67,2.6,2.6,0,0,1,.43,1.12l-1.21.17a1.25,1.25,0,0,0-.47-.87,1.73,1.73,0,0,0-1.11-.32,2,2,0,0,0-1.21.28.83.83,0,0,0-.36.66.68.68,0,0,0,.15.43,1.09,1.09,0,0,0,.47.33c.12,0,.48.15,1.09.31a14.71,14.71,0,0,1,1.82.57,1.86,1.86,0,0,1,.81.65,1.83,1.83,0,0,1,.29,1.05,2.06,2.06,0,0,1-.36,1.16,2.34,2.34,0,0,1-1,.84,3.8,3.8,0,0,1-1.53.3,3.41,3.41,0,0,1-2.16-.59A2.74,2.74,0,0,1,154.21,261.82Z"/><path id="ArialMT-29" d="M162.51,266.94h-.88a12.37,12.37,0,0,0,2-6.57,11,11,0,0,0-.29-2.55,10.83,10.83,0,0,0-.65-2,23,23,0,0,0-1.1-2h.88a12.86,12.86,0,0,1,1.9,3.45,9.36,9.36,0,0,1-.18,6.68A12.33,12.33,0,0,1,162.51,266.94Z"/></g></g><g id="matplotlib.axis_12" data-name="matplotlib.axis 12"><g id="ytick_18" data-name="ytick 18"><g id="text_15" data-name="text 15"><g class="cls-14"><path id="ArialMT-30-11" data-name="ArialMT-30" d="M7.62,233.7a6.4,6.4,0,0,1,.26-2,2.5,2.5,0,0,1,.77-1.19,2,2,0,0,1,1.3-.42,2.06,2.06,0,0,1,1,.23,1.92,1.92,0,0,1,.72.67,3.56,3.56,0,0,1,.44,1.06,6.94,6.94,0,0,1,.16,1.69,6.4,6.4,0,0,1-.26,2,2.55,2.55,0,0,1-.77,1.19,1.94,1.94,0,0,1-1.3.43,2,2,0,0,1-1.63-.75A4.71,4.71,0,0,1,7.62,233.7Zm.9,0a4.56,4.56,0,0,0,.41,2.35,1.19,1.19,0,0,0,2,0,4.56,4.56,0,0,0,.41-2.35,4.49,4.49,0,0,0-.41-2.34,1.24,1.24,0,0,0-1-.59,1.15,1.15,0,0,0-1,.52A4.54,4.54,0,0,0,8.52,233.7Z"/><path id="ArialMT-2e-7" data-name="ArialMT-2e" d="M13.67,237.23v-1h1v1Z"/><path id="ArialMT-30-12" data-name="ArialMT-30" d="M16,233.7a6.4,6.4,0,0,1,.26-2,2.5,2.5,0,0,1,.77-1.19,2,2,0,0,1,1.3-.42,2.06,2.06,0,0,1,1,.23A1.92,1.92,0,0,1,20,231a3.56,3.56,0,0,1,.44,1.06,6.94,6.94,0,0,1,.16,1.69,6.4,6.4,0,0,1-.26,2,2.55,2.55,0,0,1-.77,1.19,1.94,1.94,0,0,1-1.3.43,2,2,0,0,1-1.63-.75A4.71,4.71,0,0,1,16,233.7Zm.9,0a4.56,4.56,0,0,0,.41,2.35,1.19,1.19,0,0,0,2,0,4.56,4.56,0,0,0,.41-2.35,4.49,4.49,0,0,0-.41-2.34,1.24,1.24,0,0,0-1-.59,1.15,1.15,0,0,0-1,.52A4.54,4.54,0,0,0,16.86,233.7Z"/></g></g></g><g id="ytick_19" data-name="ytick 19"><g id="text_16" data-name="text 16"><g class="cls-14"><path id="ArialMT-30-13" data-name="ArialMT-30" d="M7.62,189.13a6.32,6.32,0,0,1,.26-2,2.53,2.53,0,0,1,.77-1.2,2,2,0,0,1,1.3-.42,2.18,2.18,0,0,1,1,.23,2,2,0,0,1,.72.67,3.63,3.63,0,0,1,.44,1.07,6.89,6.89,0,0,1,.16,1.69,6.3,6.3,0,0,1-.26,2,2.53,2.53,0,0,1-.77,1.2,2,2,0,0,1-1.3.42A2,2,0,0,1,8.32,192,4.75,4.75,0,0,1,7.62,189.13Zm.9,0a4.58,4.58,0,0,0,.41,2.35,1.25,1.25,0,0,0,1,.58,1.23,1.23,0,0,0,1-.59,6.91,6.91,0,0,0,0-4.69,1.23,1.23,0,0,0-1-.58,1.14,1.14,0,0,0-1,.51A4.58,4.58,0,0,0,8.52,189.13Z"/><path id="ArialMT-2e-8" data-name="ArialMT-2e" d="M13.67,192.66v-1h1v1Z"/><path id="ArialMT-32-6" data-name="ArialMT-32" d="M20.57,191.81v.85H15.84a1.77,1.77,0,0,1,.1-.61,3.57,3.57,0,0,1,.58-1A8.92,8.92,0,0,1,17.67,190a9.79,9.79,0,0,0,1.58-1.51,1.87,1.87,0,0,0,.41-1.06,1.16,1.16,0,0,0-.37-.88,1.52,1.52,0,0,0-2,0,1.39,1.39,0,0,0-.39,1l-.9-.09a2.19,2.19,0,0,1,.7-1.54,2.38,2.38,0,0,1,1.62-.53A2.26,2.26,0,0,1,20,186a1.89,1.89,0,0,1,.6,1.42,2,2,0,0,1-.17.84,3.41,3.41,0,0,1-.58.88,18,18,0,0,1-1.36,1.26q-.79.66-1,.9a3,3,0,0,0-.37.47Z"/></g></g></g><g id="ytick_20" data-name="ytick 20"><g id="text_17" data-name="text 17"><g class="cls-14"><path id="ArialMT-30-14" data-name="ArialMT-30" d="M7.62,144.55a6.4,6.4,0,0,1,.26-2,2.5,2.5,0,0,1,.77-1.19,2,2,0,0,1,1.3-.42,2.06,2.06,0,0,1,1,.23,1.92,1.92,0,0,1,.72.67,3.56,3.56,0,0,1,.44,1.06,6.94,6.94,0,0,1,.16,1.69,6.4,6.4,0,0,1-.26,2,2.55,2.55,0,0,1-.77,1.19,2,2,0,0,1-1.3.43,2,2,0,0,1-1.63-.75A4.71,4.71,0,0,1,7.62,144.55Zm.9,0a4.56,4.56,0,0,0,.41,2.35,1.19,1.19,0,0,0,2,0,4.56,4.56,0,0,0,.41-2.35,4.49,4.49,0,0,0-.41-2.34,1.24,1.24,0,0,0-1-.59,1.12,1.12,0,0,0-1,.52A4.54,4.54,0,0,0,8.52,144.55Z"/><path id="ArialMT-2e-9" data-name="ArialMT-2e" d="M13.67,148.08v-1h1v1Z"/><path id="ArialMT-34-2" data-name="ArialMT-34" d="M18.77,148.08v-1.71h-3.1v-.81l3.26-4.63h.72v4.63h1v.81h-1v1.71Zm0-2.52v-3.22l-2.24,3.22Z"/></g></g></g><g id="ytick_21" data-name="ytick 21"><g id="text_18" data-name="text 18"><g class="cls-14"><path id="ArialMT-30-15" data-name="ArialMT-30" d="M7.62,100a6.43,6.43,0,0,1,.26-2,2.55,2.55,0,0,1,.77-1.19,2,2,0,0,1,1.3-.42,2.18,2.18,0,0,1,1,.23,2,2,0,0,1,.72.67,3.63,3.63,0,0,1,.44,1.07,6.89,6.89,0,0,1,.16,1.69,6.3,6.3,0,0,1-.26,2,2.53,2.53,0,0,1-.77,1.2,2,2,0,0,1-1.3.42,2,2,0,0,1-1.63-.74A4.75,4.75,0,0,1,7.62,100Zm.9,0a4.58,4.58,0,0,0,.41,2.35,1.25,1.25,0,0,0,1,.58,1.23,1.23,0,0,0,1-.59,6.91,6.91,0,0,0,0-4.69,1.23,1.23,0,0,0-1-.58,1.14,1.14,0,0,0-1,.51A4.58,4.58,0,0,0,8.52,100Z"/><path id="ArialMT-2e-10" data-name="ArialMT-2e" d="M13.67,103.51v-1h1v1Z"/><path id="ArialMT-36-2" data-name="ArialMT-36" d="M20.51,98.1l-.87.07a1.75,1.75,0,0,0-.33-.75,1.17,1.17,0,0,0-.88-.38,1.19,1.19,0,0,0-.74.24,2,2,0,0,0-.65.88,4.71,4.71,0,0,0-.25,1.66,2,2,0,0,1,.78-.72,2,2,0,0,1,2.45.41,2.29,2.29,0,0,1,.62,1.67,2.71,2.71,0,0,1-.29,1.26,2.07,2.07,0,0,1-.8.88,2.11,2.11,0,0,1-1.15.31,2.25,2.25,0,0,1-1.79-.81,4.08,4.08,0,0,1-.69-2.66,4.78,4.78,0,0,1,.76-3,2.2,2.2,0,0,1,1.8-.82,2.05,2.05,0,0,1,1.39.47A2,2,0,0,1,20.51,98.1Zm-3.58,3.09a2,2,0,0,0,.19.87,1.46,1.46,0,0,0,.54.63,1.3,1.3,0,0,0,.73.22,1.22,1.22,0,0,0,.95-.45,1.76,1.76,0,0,0,.4-1.22,1.65,1.65,0,0,0-.39-1.17,1.3,1.3,0,0,0-1-.43,1.35,1.35,0,0,0-1,.43A1.56,1.56,0,0,0,16.93,101.19Z"/></g></g></g><g id="ytick_22" data-name="ytick 22"><g id="text_19" data-name="text 19"><g class="cls-14"><path id="ArialMT-30-16" data-name="ArialMT-30" d="M7.62,55.4a6.4,6.4,0,0,1,.26-2,2.45,2.45,0,0,1,.77-1.19,2,2,0,0,1,1.3-.42A2.06,2.06,0,0,1,11,52a1.92,1.92,0,0,1,.72.67,3.56,3.56,0,0,1,.44,1.06,6.94,6.94,0,0,1,.16,1.69,6.4,6.4,0,0,1-.26,2,2.55,2.55,0,0,1-.77,1.19,2,2,0,0,1-1.3.42,2,2,0,0,1-1.63-.74A4.71,4.71,0,0,1,7.62,55.4Zm.9,0a4.56,4.56,0,0,0,.41,2.35,1.19,1.19,0,0,0,2,0,4.56,4.56,0,0,0,.41-2.35A4.56,4.56,0,0,0,11,53.05a1.25,1.25,0,0,0-1-.58A1.12,1.12,0,0,0,9,53,4.54,4.54,0,0,0,8.52,55.4Z"/><path id="ArialMT-2e-11" data-name="ArialMT-2e" d="M13.67,58.93v-1h1v1Z"/><path id="ArialMT-38-2" data-name="ArialMT-38" d="M17.31,55.05a1.57,1.57,0,0,1-.81-.57,1.47,1.47,0,0,1-.27-.89,1.74,1.74,0,0,1,.56-1.31,2.09,2.09,0,0,1,1.5-.53,2.12,2.12,0,0,1,1.51.54,1.75,1.75,0,0,1,.57,1.33,1.46,1.46,0,0,1-.26.86,1.62,1.62,0,0,1-.8.57,1.93,1.93,0,0,1,1,.7,1.86,1.86,0,0,1,.34,1.14A2,2,0,0,1,20,58.43a2.34,2.34,0,0,1-1.71.62,2.37,2.37,0,0,1-1.71-.62,2.1,2.1,0,0,1-.65-1.57,1.89,1.89,0,0,1,.36-1.17A1.83,1.83,0,0,1,17.31,55.05Zm-.18-1.49a1.1,1.1,0,0,0,.33.83,1.28,1.28,0,0,0,1.68,0,1.07,1.07,0,0,0,.33-.79,1.11,1.11,0,0,0-.34-.81,1.13,1.13,0,0,0-.83-.33,1.19,1.19,0,0,0-.84.32A1,1,0,0,0,17.13,53.56Zm-.28,3.31a1.61,1.61,0,0,0,.18.73,1.25,1.25,0,0,0,.53.54,1.49,1.49,0,0,0,.75.19,1.41,1.41,0,0,0,1-.4,1.37,1.37,0,0,0,.41-1,1.39,1.39,0,0,0-.42-1,1.43,1.43,0,0,0-1.06-.42,1.4,1.4,0,0,0-1.43,1.44Z"/></g></g></g><g id="ytick_23" data-name="ytick 23"><g id="text_20" data-name="text 20"><g class="cls-14"><path id="ArialMT-31-8" data-name="ArialMT-31" d="M10.92,14.36h-.87V8.76a4.35,4.35,0,0,1-.84.6,6,6,0,0,1-.92.46V9a5.32,5.32,0,0,0,1.29-.84,3.23,3.23,0,0,0,.78-1h.56Z"/><path id="ArialMT-2e-12" data-name="ArialMT-2e" d="M13.67,14.36v-1h1v1Z"/><path id="ArialMT-30-17" data-name="ArialMT-30" d="M16,10.83a6.43,6.43,0,0,1,.26-2.05A2.55,2.55,0,0,1,17,7.59a2,2,0,0,1,1.3-.42,2.18,2.18,0,0,1,1,.23,2,2,0,0,1,.72.67,3.63,3.63,0,0,1,.44,1.07,6.89,6.89,0,0,1,.16,1.69,6.3,6.3,0,0,1-.26,2,2.53,2.53,0,0,1-.77,1.2,2.19,2.19,0,0,1-2.93-.32A4.75,4.75,0,0,1,16,10.83Zm.9,0a4.51,4.51,0,0,0,.41,2.34,1.18,1.18,0,0,0,2,0,4.54,4.54,0,0,0,.41-2.34,4.56,4.56,0,0,0-.41-2.35,1.23,1.23,0,0,0-1-.58,1.14,1.14,0,0,0-1,.51A4.58,4.58,0,0,0,16.86,10.83Z"/></g></g></g></g></g></g><g id="legend_1" data-name="legend 1"><g id="line2d_19-2" data-name="line2d 19"><path class="cls-6" d="M162.71,19.25h10"/></g><g id="text_8-2" data-name="text 8"><path id="ArialMT-34-3" data-name="ArialMT-34" d="M183.94,22.75V21h-3.1v-.81l3.26-4.64h.72v4.64h1V21h-1v1.71Zm0-2.52V17l-2.24,3.23Z"/><path id="ArialMT-37" d="M186.74,16.53v-.85h4.64v.69A9.63,9.63,0,0,0,190,18.3a11.32,11.32,0,0,0-1,2.48,9.09,9.09,0,0,0-.34,2h-.9a7.92,7.92,0,0,1,.33-2A10.37,10.37,0,0,1,189,18.4a9.51,9.51,0,0,1,1.26-1.87Z"/><path id="ArialMT-30-18" data-name="ArialMT-30" d="M192.25,19.22a6.32,6.32,0,0,1,.26-2,2.53,2.53,0,0,1,.77-1.2,2,2,0,0,1,1.3-.42,2.18,2.18,0,0,1,1,.23,2,2,0,0,1,.72.67,3.38,3.38,0,0,1,.44,1.07,6.94,6.94,0,0,1,.16,1.69,6.63,6.63,0,0,1-.25,2,2.54,2.54,0,0,1-.78,1.2,2.18,2.18,0,0,1-2.92-.32A4.68,4.68,0,0,1,192.25,19.22Zm.9,0a4.58,4.58,0,0,0,.41,2.35,1.25,1.25,0,0,0,1,.58,1.23,1.23,0,0,0,1-.59,4.54,4.54,0,0,0,.41-2.34,4.56,4.56,0,0,0-.41-2.35,1.23,1.23,0,0,0-1-.58,1.15,1.15,0,0,0-1,.51A4.58,4.58,0,0,0,193.15,19.22Z"/><path id="ArialMT-20-2" data-name="ArialMT-20" d="M197.39,22.75"/><path id="ArialMT-64-2" data-name="ArialMT-64" d="M204.19,22.75v-.66a1.6,1.6,0,0,1-1.45.78,2,2,0,0,1-1.14-.35,2.21,2.21,0,0,1-.8-.95,3.32,3.32,0,0,1-.29-1.41,3.73,3.73,0,0,1,.26-1.41,2,2,0,0,1,.78-1,2.1,2.1,0,0,1,1.16-.33,1.72,1.72,0,0,1,.83.19,1.9,1.9,0,0,1,.6.52V15.59H205v7.16Zm-2.77-2.59a2.25,2.25,0,0,0,.42,1.49,1.26,1.26,0,0,0,1,.49,1.23,1.23,0,0,0,1-.47,2.2,2.2,0,0,0,.4-1.43,2.46,2.46,0,0,0-.41-1.57,1.26,1.26,0,0,0-1-.5,1.22,1.22,0,0,0-1,.48A2.38,2.38,0,0,0,201.42,20.16Z"/><path id="ArialMT-61" d="M209.78,22.11a3.44,3.44,0,0,1-.94.59,2.83,2.83,0,0,1-1,.17,1.9,1.9,0,0,1-1.32-.42,1.4,1.4,0,0,1-.46-1.07,1.37,1.37,0,0,1,.18-.69,1.39,1.39,0,0,1,.45-.51,2.26,2.26,0,0,1,.63-.29,7.55,7.55,0,0,1,.79-.13,7.37,7.37,0,0,0,1.56-.3c0-.12,0-.2,0-.23a1,1,0,0,0-.25-.76,1.48,1.48,0,0,0-1-.3,1.6,1.6,0,0,0-.92.22,1.41,1.41,0,0,0-.44.77l-.85-.12a2.07,2.07,0,0,1,.38-.89,1.73,1.73,0,0,1,.78-.52,3.51,3.51,0,0,1,1.17-.18,3.18,3.18,0,0,1,1.08.15,1.44,1.44,0,0,1,.61.4,1.41,1.41,0,0,1,.28.59,5,5,0,0,1,0,.81v1.18a11.75,11.75,0,0,0,.06,1.55,1.85,1.85,0,0,0,.22.62H210A1.77,1.77,0,0,1,209.78,22.11Zm-.08-2a6.48,6.48,0,0,1-1.43.33,3,3,0,0,0-.77.18.73.73,0,0,0-.47.7.73.73,0,0,0,.27.58,1.14,1.14,0,0,0,.78.24A1.87,1.87,0,0,0,209,22a1.42,1.42,0,0,0,.58-.61,2,2,0,0,0,.14-.88Z"/><path id="ArialMT-79-2" data-name="ArialMT-79" d="M211.91,24.75l-.09-.83a2.05,2.05,0,0,0,.5.08.91.91,0,0,0,.47-.1.75.75,0,0,0,.29-.27,6.39,6.39,0,0,0,.27-.66l.07-.21-2-5.2h.94l1.08,3c.14.38.27.78.38,1.2a10.8,10.8,0,0,1,.36-1.18l1.11-3h.88l-2,5.28a9.13,9.13,0,0,1-.49,1.17,1.59,1.59,0,0,1-.54.64,1.22,1.22,0,0,1-.72.2A1.8,1.8,0,0,1,211.91,24.75Z"/><path id="ArialMT-73-3" data-name="ArialMT-73" d="M216.6,21.2l.87-.14a1.22,1.22,0,0,0,.41.8,1.74,1.74,0,0,0,1.83,0,.74.74,0,0,0,.3-.58.54.54,0,0,0-.26-.47,3.66,3.66,0,0,0-.9-.3,7.73,7.73,0,0,1-1.34-.42,1.26,1.26,0,0,1-.76-1.19,1.29,1.29,0,0,1,.16-.64,1.35,1.35,0,0,1,.43-.49,1.83,1.83,0,0,1,.56-.26,2.64,2.64,0,0,1,.76-.1,3,3,0,0,1,1.07.17,1.49,1.49,0,0,1,.68.48,1.76,1.76,0,0,1,.3.8l-.86.12a.9.9,0,0,0-.34-.63,1.22,1.22,0,0,0-.79-.22,1.45,1.45,0,0,0-.86.2.56.56,0,0,0-.26.47.47.47,0,0,0,.11.31.77.77,0,0,0,.33.23c.09,0,.35.11.78.22a13.33,13.33,0,0,1,1.3.41,1.23,1.23,0,0,1,.79,1.22,1.47,1.47,0,0,1-.26.82,1.65,1.65,0,0,1-.74.6,2.53,2.53,0,0,1-1.09.22,2.44,2.44,0,0,1-1.54-.42A2,2,0,0,1,216.6,21.2Z"/></g><g id="line2d_20-2" data-name="line2d 20"><path class="cls-7" d="M162.71,33.54h10"/></g><g id="text_9-2" data-name="text 9"><path id="ArialMT-32-7" data-name="ArialMT-32" d="M185.74,36.2V37H181a1.81,1.81,0,0,1,.1-.61,3.33,3.33,0,0,1,.58-1,9.67,9.67,0,0,1,1.15-1.09,9.37,9.37,0,0,0,1.58-1.51,1.84,1.84,0,0,0,.41-1.06,1.16,1.16,0,0,0-.37-.88,1.52,1.52,0,0,0-2,0,1.43,1.43,0,0,0-.39,1.06l-.9-.1a2.25,2.25,0,0,1,.69-1.54,2.42,2.42,0,0,1,1.63-.53,2.23,2.23,0,0,1,1.63.58,1.87,1.87,0,0,1,.6,1.41,2.3,2.3,0,0,1-.17.85,3.34,3.34,0,0,1-.59.87,13,13,0,0,1-1.35,1.26q-.8.66-1,.9a3.09,3.09,0,0,0-.37.48Z"/><path id="ArialMT-38-3" data-name="ArialMT-38" d="M188,33.16a1.57,1.57,0,0,1-.81-.57,1.49,1.49,0,0,1-.27-.89,1.74,1.74,0,0,1,.56-1.31,2.09,2.09,0,0,1,1.5-.54,2.12,2.12,0,0,1,1.51.55,1.75,1.75,0,0,1,.57,1.32,1.47,1.47,0,0,1-.26.87,1.64,1.64,0,0,1-.79.57A1.81,1.81,0,0,1,191.39,35a2,2,0,0,1-.65,1.54,2.38,2.38,0,0,1-1.71.62,2.41,2.41,0,0,1-1.71-.62,2.1,2.1,0,0,1-.65-1.57A1.89,1.89,0,0,1,187,33.8,1.78,1.78,0,0,1,188,33.16Zm-.18-1.49a1.1,1.1,0,0,0,.33.83,1.14,1.14,0,0,0,.85.32,1.09,1.09,0,0,0,.83-.32,1,1,0,0,0,.33-.78,1.11,1.11,0,0,0-.34-.81,1.13,1.13,0,0,0-.83-.33,1.15,1.15,0,0,0-.84.32A1,1,0,0,0,187.86,31.67ZM187.58,35a1.54,1.54,0,0,0,.18.72,1.23,1.23,0,0,0,.53.55,1.49,1.49,0,0,0,.75.19,1.41,1.41,0,0,0,1-.4,1.37,1.37,0,0,0,.41-1,1.39,1.39,0,0,0-.42-1,1.43,1.43,0,0,0-1.06-.42,1.39,1.39,0,0,0-1,.41A1.37,1.37,0,0,0,187.58,35Z"/><path id="ArialMT-20-3" data-name="ArialMT-20" d="M191.83,37"/><path id="ArialMT-64-3" data-name="ArialMT-64" d="M198.63,37v-.65a1.62,1.62,0,0,1-1.45.77,2.11,2.11,0,0,1-1.14-.34,2.3,2.3,0,0,1-.8-1,3.32,3.32,0,0,1-.29-1.41,3.8,3.8,0,0,1,.26-1.41,2,2,0,0,1,.78-1,2,2,0,0,1,1.15-.34,1.66,1.66,0,0,1,.84.2,1.85,1.85,0,0,1,.6.51V29.88h.87V37Zm-2.77-2.59a2.25,2.25,0,0,0,.41,1.49,1.27,1.27,0,0,0,1,.5,1.21,1.21,0,0,0,1-.48,2.14,2.14,0,0,0,.41-1.43,2.5,2.5,0,0,0-.41-1.57,1.27,1.27,0,0,0-1-.49,1.24,1.24,0,0,0-1,.47A2.39,2.39,0,0,0,195.86,34.45Z"/><path id="ArialMT-61-2" data-name="ArialMT-61" d="M204.22,36.4a3.33,3.33,0,0,1-.95.59,2.77,2.77,0,0,1-1,.17,1.9,1.9,0,0,1-1.32-.42,1.4,1.4,0,0,1-.46-1.07,1.37,1.37,0,0,1,.18-.69,1.39,1.39,0,0,1,.45-.51,2.24,2.24,0,0,1,.63-.28,7.25,7.25,0,0,1,.78-.14,7.49,7.49,0,0,0,1.57-.3c0-.12,0-.2,0-.23a1,1,0,0,0-.25-.76,1.53,1.53,0,0,0-1-.29,1.6,1.6,0,0,0-.92.21,1.36,1.36,0,0,0-.44.77l-.86-.11a2.19,2.19,0,0,1,.39-.9,1.73,1.73,0,0,1,.78-.52,3.51,3.51,0,0,1,1.17-.18,3.18,3.18,0,0,1,1.08.15,1.44,1.44,0,0,1,.61.4,1.52,1.52,0,0,1,.28.6,6.56,6.56,0,0,1,0,.81v1.17a11.65,11.65,0,0,0,.06,1.55,1.77,1.77,0,0,0,.22.62h-.92A1.72,1.72,0,0,1,204.22,36.4Zm-.08-2a6.48,6.48,0,0,1-1.43.33,2.89,2.89,0,0,0-.77.18.76.76,0,0,0-.35.28.79.79,0,0,0-.12.42.76.76,0,0,0,.27.59,1.15,1.15,0,0,0,.78.23,1.82,1.82,0,0,0,.9-.22,1.37,1.37,0,0,0,.58-.61,2.2,2.2,0,0,0,.14-.88Z"/><path id="ArialMT-79-3" data-name="ArialMT-79" d="M206.35,39l-.1-.83a1.77,1.77,0,0,0,.51.08.94.94,0,0,0,.47-.1.82.82,0,0,0,.29-.27,5.42,5.42,0,0,0,.26-.65,2.32,2.32,0,0,0,.08-.22l-2-5.19h1l1.08,3c.14.38.27.78.38,1.2a11.51,11.51,0,0,1,.36-1.18l1.11-3h.88l-2,5.27a10.19,10.19,0,0,1-.49,1.18,1.72,1.72,0,0,1-.54.63,1.22,1.22,0,0,1-.72.21A1.84,1.84,0,0,1,206.35,39Z"/><path id="ArialMT-73-4" data-name="ArialMT-73" d="M211,35.49l.87-.13a1.22,1.22,0,0,0,.41.8,1.43,1.43,0,0,0,.93.28,1.38,1.38,0,0,0,.9-.25.72.72,0,0,0,.29-.58.53.53,0,0,0-.26-.47,3.53,3.53,0,0,0-.89-.3,7.73,7.73,0,0,1-1.34-.42,1.31,1.31,0,0,1-.57-.49,1.37,1.37,0,0,1,0-1.34,1.35,1.35,0,0,1,.43-.49,1.72,1.72,0,0,1,.56-.26,2.64,2.64,0,0,1,.76-.1,3.2,3.2,0,0,1,1.07.17,1.49,1.49,0,0,1,.68.48,1.76,1.76,0,0,1,.3.8l-.86.12a.92.92,0,0,0-.34-.62,1.22,1.22,0,0,0-.79-.23,1.45,1.45,0,0,0-.86.2.57.57,0,0,0-.26.47.5.5,0,0,0,.1.31.88.88,0,0,0,.34.23l.78.23a9.35,9.35,0,0,1,1.3.41,1.26,1.26,0,0,1,.58.46,1.28,1.28,0,0,1,.21.75,1.5,1.5,0,0,1-.26.83,1.79,1.79,0,0,1-.74.6,2.72,2.72,0,0,1-1.09.21,2.42,2.42,0,0,1-1.54-.42A2,2,0,0,1,211,35.49Z"/></g><g id="line2d_21-2" data-name="line2d 21"><path class="cls-8" d="M162.71,47.83h10"/></g><g id="text_10-2" data-name="text 10"><path id="ArialMT-31-9" data-name="ArialMT-31" d="M184.43,51.33h-.87v-5.6a4.69,4.69,0,0,1-.84.61,5.89,5.89,0,0,1-.92.45v-.85a5.32,5.32,0,0,0,1.29-.84,3.55,3.55,0,0,0,.78-1h.56Z"/><path id="ArialMT-20-4" data-name="ArialMT-20" d="M186.27,51.33"/><path id="ArialMT-64-4" data-name="ArialMT-64" d="M193.07,51.33v-.65a1.62,1.62,0,0,1-1.45.77,2,2,0,0,1-1.14-.34,2.23,2.23,0,0,1-.8-1,3.24,3.24,0,0,1-.29-1.4,3.73,3.73,0,0,1,.26-1.41,2,2,0,0,1,.78-1,2,2,0,0,1,1.15-.34,1.77,1.77,0,0,1,.84.2,1.72,1.72,0,0,1,.59.51V44.18h.88v7.15Zm-2.78-2.58a2.26,2.26,0,0,0,.42,1.49,1.29,1.29,0,0,0,1,.49,1.24,1.24,0,0,0,1-.47,2.19,2.19,0,0,0,.41-1.44,2.45,2.45,0,0,0-.41-1.56,1.25,1.25,0,0,0-1-.5,1.22,1.22,0,0,0-1,.48A2.31,2.31,0,0,0,190.29,48.75Z"/><path id="ArialMT-61-3" data-name="ArialMT-61" d="M198.65,50.69a3.09,3.09,0,0,1-.94.59,2.78,2.78,0,0,1-1,.17,1.87,1.87,0,0,1-1.31-.42A1.34,1.34,0,0,1,195,50a1.48,1.48,0,0,1,.17-.7,1.51,1.51,0,0,1,.46-.51,2.24,2.24,0,0,1,.63-.28,6.4,6.4,0,0,1,.78-.14,7.64,7.64,0,0,0,1.57-.3v-.23a.93.93,0,0,0-.25-.75,1.44,1.44,0,0,0-1-.3,1.51,1.51,0,0,0-.91.22,1.33,1.33,0,0,0-.44.76l-.86-.11a2.09,2.09,0,0,1,.39-.89,1.77,1.77,0,0,1,.77-.53,3.57,3.57,0,0,1,1.18-.18,3,3,0,0,1,1.08.16,1.34,1.34,0,0,1,.61.39,1.38,1.38,0,0,1,.27.6,4.68,4.68,0,0,1,.05.81v1.17a14.76,14.76,0,0,0,.05,1.55,2,2,0,0,0,.23.62h-.92A1.93,1.93,0,0,1,198.65,50.69Zm-.07-2a6.45,6.45,0,0,1-1.44.33,3.38,3.38,0,0,0-.76.18.76.76,0,0,0-.35.28.79.79,0,0,0-.12.42.77.77,0,0,0,.26.59,1.19,1.19,0,0,0,.78.23,1.83,1.83,0,0,0,.91-.22,1.42,1.42,0,0,0,.58-.61,2.2,2.2,0,0,0,.14-.88Z"/><path id="ArialMT-79-4" data-name="ArialMT-79" d="M200.79,53.33l-.1-.82a2.06,2.06,0,0,0,.51.07,1.06,1.06,0,0,0,.47-.09.83.83,0,0,0,.28-.28,3.44,3.44,0,0,0,.27-.65c0-.05,0-.12.08-.22l-2-5.19h.95l1.08,3c.14.38.26.78.38,1.2a11.51,11.51,0,0,1,.36-1.18l1.1-3h.88l-2,5.27a10.19,10.19,0,0,1-.49,1.18,1.85,1.85,0,0,1-.54.64,1.29,1.29,0,0,1-.72.2A1.84,1.84,0,0,1,200.79,53.33Z"/></g></g><path d="M66.8,100.41V93.25H68l1.44,5.07c.14.47.23.83.29,1.06.07-.26.18-.64.33-1.15l1.45-5H72.6v7.16h-.77v-6l-1.77,6h-.72l-1.76-6.09v6.09Z"/><path d="M73.52,98.26v-.88h2.29v.88Z"/><path d="M76.71,100.41V93.25h1.21l1.44,5.07c.13.47.23.83.29,1.06.07-.26.17-.64.32-1.15l1.46-5h1.08v7.16h-.78v-6l-1.76,6h-.73l-1.76-6.09v6.09Z"/><path d="M83.57,100.84l.73.13a.89.89,0,0,0,.25.57,1.09,1.09,0,0,0,.76.25,1.15,1.15,0,0,0,.8-.25,1.17,1.17,0,0,0,.38-.68,6.51,6.51,0,0,0,.06-1.13,1.46,1.46,0,0,1-1.22.68,1.59,1.59,0,0,1-1.41-.77,3.34,3.34,0,0,1-.49-1.85,4.06,4.06,0,0,1,.22-1.37,2.26,2.26,0,0,1,.66-1,1.59,1.59,0,0,1,1-.34,1.53,1.53,0,0,1,1.29.74v-.62h.69v4.48a5,5,0,0,1-.21,1.72,1.67,1.67,0,0,1-.67.79,2,2,0,0,1-1.11.3A1.9,1.9,0,0,1,84,102.1,1.55,1.55,0,0,1,83.57,100.84Zm.62-3.11a2.56,2.56,0,0,0,.35,1.49,1,1,0,0,0,.86.46,1,1,0,0,0,.86-.46,2.47,2.47,0,0,0,.35-1.46,2.39,2.39,0,0,0-.36-1.44,1.06,1.06,0,0,0-.86-.48,1,1,0,0,0-.85.47A2.42,2.42,0,0,0,84.19,97.73Z"/><path d="M130.83,21.74V14.58h1v2.94h3.78V14.58h1v7.16h-1V18.36h-3.78v3.38Z"/><path d="M137.68,19.59V18.7h2.74v.89Z"/><path d="M141.5,21.74V14.58h1.44l1.73,5.07c.16.47.27.82.34,1.06l.39-1.15,1.74-5h1.3v7.16h-.93v-6l-2.11,6h-.87l-2.11-6.1v6.1Z"/><path d="M149.71,22.17l.87.12a.81.81,0,0,0,.31.58,1.5,1.5,0,0,0,.9.24,1.62,1.62,0,0,0,1-.24,1.18,1.18,0,0,0,.46-.68,5.66,5.66,0,0,0,.06-1.13,1.85,1.85,0,0,1-1.46.68,2,2,0,0,1-1.68-.78,2.91,2.91,0,0,1-.59-1.85,3.45,3.45,0,0,1,.27-1.37,2.09,2.09,0,0,1,.79-1,2.16,2.16,0,0,1,1.22-.35,1.91,1.91,0,0,1,1.54.75v-.63h.82V21a4.16,4.16,0,0,1-.25,1.72,1.85,1.85,0,0,1-.79.8,2.88,2.88,0,0,1-1.34.29,2.51,2.51,0,0,1-1.52-.42A1.39,1.39,0,0,1,149.71,22.17Zm.74-3.12a2.19,2.19,0,0,0,.42,1.49,1.31,1.31,0,0,0,1,.47,1.33,1.33,0,0,0,1-.47,2.14,2.14,0,0,0,.42-1.46,2.17,2.17,0,0,0-.43-1.44,1.35,1.35,0,0,0-1-.48,1.3,1.3,0,0,0-1,.48A2.07,2.07,0,0,0,150.45,19.05Z"/><path d="M66.93,21.74V14.58h1.45l1.72,5.07c.16.47.27.82.35,1.06.08-.26.21-.65.38-1.15l1.74-5h1.3v7.16h-.93v-6l-2.11,6H70l-2.11-6.1v6.1Z"/><path d="M75,19.59V18.7h2.75v.89Z"/><path d="M78,21.74l2.79-7.16h1l3,7.16h-1.1l-.85-2.17h-3L79,21.74Zm2.1-2.94h2.47l-.76-2c-.23-.6-.41-1.09-.52-1.48a8.8,8.8,0,0,1-.39,1.37Z"/><path d="M85.46,21.74V14.58h.89v7.16Z"/><path d="M66.89,179.3v-7.16h1l3.82,5.62v-5.62h.92v7.16h-1l-3.83-5.63v5.63Z"/><path d="M73.78,177.15v-.89h2.74v.89Z"/><path d="M77.63,179.3v-7.16h2.74a6.34,6.34,0,0,1,1.11.07,2.25,2.25,0,0,1,.9.33,1.8,1.8,0,0,1,.58.69,2.14,2.14,0,0,1,.22,1,2.18,2.18,0,0,1-.59,1.54,2.87,2.87,0,0,1-2.13.64H78.59v2.91Zm1-3.76h1.88a2,2,0,0,0,1.32-.34,1.19,1.19,0,0,0,.4-1,1.3,1.3,0,0,0-.23-.77,1,1,0,0,0-.61-.42,3.61,3.61,0,0,0-.9-.07H78.59Z"/><path d="M202,100.41V93.25h1v2.94h3.78V93.25h1v7.16h-1V97H203v3.37Z"/><path d="M208.84,98.26v-.88h2.74v.88Z"/><path d="M211.88,100.41l2.8-7.16h1l3,7.16H217.6l-.85-2.17h-3l-.8,2.17Zm2.1-2.94h2.47l-.76-2c-.23-.6-.4-1.1-.52-1.48a8.69,8.69,0,0,1-.39,1.36Z"/><path d="M219.33,100.41V93.25h.89v7.16Z"/></svg>