<?xml version="1.0" encoding="utf-8" standalone="no"?>
<!DOCTYPE svg PUBLIC "-//W3C//DTD SVG 1.1//EN"
  "http://www.w3.org/Graphics/SVG/1.1/DTD/svg11.dtd">
<svg xmlns:xlink="http://www.w3.org/1999/xlink" width="237.55pt" height="274.138344pt" viewBox="0 0 237.55 274.138344" xmlns="http://www.w3.org/2000/svg" version="1.1">
 <metadata>
  <rdf:RDF xmlns:dc="http://purl.org/dc/elements/1.1/" xmlns:cc="http://creativecommons.org/ns#" xmlns:rdf="http://www.w3.org/1999/02/22-rdf-syntax-ns#">
   <cc:Work>
    <dc:type rdf:resource="http://purl.org/dc/dcmitype/StillImage"/>
    <dc:date>2023-10-09T15:04:48.838570</dc:date>
    <dc:format>image/svg+xml</dc:format>
    <dc:creator>
     <cc:Agent>
      <dc:title>Matplotlib v3.7.1, https://matplotlib.org/</dc:title>
     </cc:Agent>
    </dc:creator>
   </cc:Work>
  </rdf:RDF>
 </metadata>
 <defs>
  <style type="text/css">*{stroke-linejoin: round; stroke-linecap: butt}</style>
 </defs>
 <g id="figure_1">
  <g id="patch_1">
   <path d="M 0 274.138344 
L 237.55 274.138344 
L 237.55 0 
L 0 0 
z
" style="fill: #ffffff"/>
  </g>
  <g id="axes_1">
   <g id="patch_2">
    <path d="M 94.25 233.654906 
L 157.25 233.654906 
L 157.25 10.778906 
L 94.25 10.778906 
z
" style="fill: #ffffff"/>
   </g>
   <g id="matplotlib.axis_1">
    <g id="xtick_1">
     <g id="line2d_1">
      <defs>
       <path id="m2b1f88b726" d="M 0 0 
L 0 3.5 
" style="stroke: #000000; stroke-width: 0.8"/>
      </defs>
      <g>
       <use xlink:href="#m2b1f88b726" x="94.25" y="233.654906" style="stroke: #000000; stroke-width: 0.8"/>
      </g>
     </g>
     <g id="text_1">
      <!-- 10 -->
      <g transform="translate(88.689063 247.812719) scale(0.1 -0.1)">
       <defs>
        <path id="ArialMT-31" d="M 2384 0 
L 1822 0 
L 1822 3584 
Q 1619 3391 1289 3197 
Q 959 3003 697 2906 
L 697 3450 
Q 1169 3672 1522 3987 
Q 1875 4303 2022 4600 
L 2384 4600 
L 2384 0 
z
" transform="scale(0.015625)"/>
        <path id="ArialMT-30" d="M 266 2259 
Q 266 3072 433 3567 
Q 600 4063 929 4331 
Q 1259 4600 1759 4600 
Q 2128 4600 2406 4451 
Q 2684 4303 2865 4023 
Q 3047 3744 3150 3342 
Q 3253 2941 3253 2259 
Q 3253 1453 3087 958 
Q 2922 463 2592 192 
Q 2263 -78 1759 -78 
Q 1097 -78 719 397 
Q 266 969 266 2259 
z
M 844 2259 
Q 844 1131 1108 757 
Q 1372 384 1759 384 
Q 2147 384 2411 759 
Q 2675 1134 2675 2259 
Q 2675 3391 2411 3762 
Q 2147 4134 1753 4134 
Q 1366 4134 1134 3806 
Q 844 3388 844 2259 
z
" transform="scale(0.015625)"/>
       </defs>
       <use xlink:href="#ArialMT-31"/>
       <use xlink:href="#ArialMT-30" x="55.615234"/>
      </g>
     </g>
    </g>
    <g id="xtick_2">
     <g id="line2d_2">
      <g>
       <use xlink:href="#m2b1f88b726" x="136.25" y="233.654906" style="stroke: #000000; stroke-width: 0.8"/>
      </g>
     </g>
     <g id="text_2">
      <!-- 12 -->
      <g transform="translate(130.689063 247.812719) scale(0.1 -0.1)">
       <defs>
        <path id="ArialMT-32" d="M 3222 541 
L 3222 0 
L 194 0 
Q 188 203 259 391 
Q 375 700 629 1000 
Q 884 1300 1366 1694 
Q 2113 2306 2375 2664 
Q 2638 3022 2638 3341 
Q 2638 3675 2398 3904 
Q 2159 4134 1775 4134 
Q 1369 4134 1125 3890 
Q 881 3647 878 3216 
L 300 3275 
Q 359 3922 746 4261 
Q 1134 4600 1788 4600 
Q 2447 4600 2831 4234 
Q 3216 3869 3216 3328 
Q 3216 3053 3103 2787 
Q 2991 2522 2730 2228 
Q 2469 1934 1863 1422 
Q 1356 997 1212 845 
Q 1069 694 975 541 
L 3222 541 
z
" transform="scale(0.015625)"/>
       </defs>
       <use xlink:href="#ArialMT-31"/>
       <use xlink:href="#ArialMT-32" x="55.615234"/>
      </g>
     </g>
    </g>
    <g id="xtick_3">
     <g id="line2d_3">
      <defs>
       <path id="m452b6d4ff4" d="M 0 0 
L 0 2 
" style="stroke: #000000; stroke-width: 0.6"/>
      </defs>
      <g>
       <use xlink:href="#m452b6d4ff4" x="104.75" y="233.654906" style="stroke: #000000; stroke-width: 0.6"/>
      </g>
     </g>
    </g>
    <g id="xtick_4">
     <g id="line2d_4">
      <g>
       <use xlink:href="#m452b6d4ff4" x="115.25" y="233.654906" style="stroke: #000000; stroke-width: 0.6"/>
      </g>
     </g>
    </g>
    <g id="xtick_5">
     <g id="line2d_5">
      <g>
       <use xlink:href="#m452b6d4ff4" x="125.75" y="233.654906" style="stroke: #000000; stroke-width: 0.6"/>
      </g>
     </g>
    </g>
    <g id="xtick_6">
     <g id="line2d_6">
      <g>
       <use xlink:href="#m452b6d4ff4" x="146.75" y="233.654906" style="stroke: #000000; stroke-width: 0.6"/>
      </g>
     </g>
    </g>
    <g id="xtick_7">
     <g id="line2d_7">
      <g>
       <use xlink:href="#m452b6d4ff4" x="157.25" y="233.654906" style="stroke: #000000; stroke-width: 0.6"/>
      </g>
     </g>
    </g>
   </g>
   <g id="matplotlib.axis_2">
    <g id="ytick_1">
     <g id="line2d_8"/>
    </g>
    <g id="ytick_2">
     <g id="line2d_9"/>
    </g>
    <g id="ytick_3">
     <g id="line2d_10"/>
    </g>
    <g id="ytick_4">
     <g id="line2d_11"/>
    </g>
    <g id="ytick_5">
     <g id="line2d_12"/>
    </g>
    <g id="ytick_6">
     <g id="line2d_13"/>
    </g>
    <g id="ytick_7">
     <g id="line2d_14"/>
    </g>
   </g>
   <g id="line2d_15">
    <path d="M 94.191992 208.692794 
L 94.743464 205.69254 
L 95.294935 207.904156 
L 95.846407 207.269817 
L 96.397879 205.983994 
L 96.949351 206.515467 
L 97.500823 205.795406 
L 98.052295 205.778262 
L 98.603767 204.543872 
L 99.155239 204.989624 
L 99.70671 202.760864 
L 100.258182 202.435122 
L 100.809654 202.846585 
L 101.361126 201.406463 
L 101.912598 202.246535 
L 102.46407 203.789522 
L 103.015542 201.149299 
L 103.567013 200.497815 
L 104.118485 199.126271 
L 104.669957 198.354777 
L 105.221429 200.87499 
L 105.772901 199.160559 
L 106.324373 199.572023 
L 106.875845 198.389065 
L 107.427317 198.166189 
L 107.978788 199.023405 
L 108.53026 196.674635 
L 109.081732 194.18871 
L 109.633204 195.30309 
L 110.184676 194.874482 
L 110.736148 192.131393 
L 111.28762 194.034411 
L 111.839092 194.257287 
L 112.390563 191.548487 
L 112.942035 192.19997 
L 113.493507 190.365529 
L 114.044979 190.60555 
L 114.596451 189.062562 
L 115.147923 191.942806 
L 115.699395 188.4968 
L 116.250867 185.119371 
L 116.802338 188.085336 
L 117.35381 184.347877 
L 117.905282 184.193579 
L 118.456754 177.353 
L 119.008226 177.558731 
L 119.559698 175.278539 
L 120.11117 168.695124 
L 120.662642 165.643438 
L 121.214113 154.653936 
L 121.765585 144.727382 
L 122.317057 127.977394 
L 122.868529 110.507344 
L 123.420001 87.533972 
L 123.971473 49.919361 
L 124.522945 25.437289 
L 125.074416 24.014312 
L 125.625888 25.951619 
L 126.17736 39.564199 
L 126.728832 73.921391 
L 127.280304 130.703339 
L 127.831776 168.300805 
L 128.383248 186.319473 
L 128.93472 190.828426 
L 129.486191 195.285946 
L 130.037663 194.960204 
L 130.589135 195.645976 
L 131.140607 198.800529 
L 131.692079 200.772124 
L 132.243551 199.572023 
L 132.795023 202.280823 
L 133.346495 202.366545 
L 133.897966 203.258049 
L 134.449438 204.372429 
L 135.00091 204.33814 
L 135.552382 204.252419 
L 136.103854 205.863983 
L 136.655326 207.56127 
L 137.206798 208.281331 
L 137.75827 209.052825 
L 138.309741 208.984247 
L 138.861213 210.167205 
L 139.412685 209.755741 
L 139.964157 211.058709 
L 140.515629 210.921554 
L 141.067101 212.001646 
L 141.618573 213.287469 
L 142.170045 212.601696 
L 142.721516 213.407479 
L 143.272988 213.270324 
L 143.82446 215.24192 
L 144.375932 215.224775 
L 144.927404 215.413363 
L 145.478876 216.990639 
L 146.030348 215.310497 
L 146.58182 217.642123 
L 147.133291 219.57943 
L 147.684763 218.276462 
L 148.236235 219.407987 
L 148.787707 219.785161 
L 149.339179 218.910802 
L 149.890651 219.905171 
L 150.442123 220.248058 
L 150.993595 220.333779 
L 151.545066 219.596574 
L 152.096538 221.756757 
L 152.64801 221.551025 
L 153.199482 222.031066 
L 153.750954 221.551025 
L 154.302426 222.579683 
L 154.853898 221.825334 
L 155.405369 223.694063 
L 155.956841 224.191248 
L 156.508313 225.322773 
L 157.059785 223.814074 
L 157.611257 224.39698 
" clip-path="url(#pcdeb3b6d8c)" style="fill: none; stroke: #000000; stroke-width: 2.5; stroke-linecap: square"/>
   </g>
   <g id="line2d_16">
    <path d="M 94.191992 196.691779 
L 94.743464 197.223252 
L 95.294935 194.891627 
L 95.846407 195.731698 
L 96.397879 194.943059 
L 96.949351 193.160051 
L 97.500823 194.994492 
L 98.052295 193.657236 
L 98.603767 192.07996 
L 99.155239 190.348385 
L 99.70671 191.051302 
L 100.258182 192.045671 
L 100.809654 189.902633 
L 101.361126 190.485539 
L 101.912598 190.022643 
L 102.46407 188.85683 
L 103.015542 189.422592 
L 103.567013 186.50806 
L 104.118485 186.456627 
L 104.669957 185.222237 
L 105.221429 184.51932 
L 105.772901 181.947674 
L 106.324373 183.199209 
L 106.875845 182.684879 
L 107.427317 182.770601 
L 107.978788 180.181811 
L 108.53026 181.17618 
L 109.081732 178.7074 
L 109.633204 178.998853 
L 110.184676 178.381658 
L 110.736148 176.735805 
L 111.28762 176.71866 
L 111.839092 174.695632 
L 112.390563 176.101465 
L 112.942035 174.592766 
L 113.493507 171.695378 
L 114.044979 174.112726 
L 114.596451 169.158021 
L 115.147923 171.02675 
L 115.699395 169.020866 
L 116.250867 164.957665 
L 116.802338 165.489139 
L 117.35381 160.963042 
L 117.905282 159.317188 
L 118.456754 155.013967 
L 119.008226 150.144983 
L 119.559698 143.492992 
L 120.11117 137.612495 
L 120.662642 128.748887 
L 121.214113 115.684925 
L 121.765585 98.523473 
L 122.317057 77.161666 
L 122.868529 69.13813 
L 123.420001 70.646829 
L 123.971473 98.540617 
L 124.522945 129.194639 
L 125.074416 149.956396 
L 125.625888 162.608895 
L 126.17736 171.506791 
L 126.728832 173.735551 
L 127.280304 176.392919 
L 127.831776 177.678742 
L 128.383248 177.83304 
L 128.93472 180.799006 
L 129.486191 182.530581 
L 130.037663 182.462003 
L 130.589135 184.03928 
L 131.140607 187.605296 
L 131.692079 184.793629 
L 132.243551 190.656983 
L 132.795023 187.399564 
L 133.346495 188.016759 
L 133.897966 188.359645 
L 134.449438 195.491677 
L 135.00091 192.714299 
L 135.552382 192.148537 
L 136.103854 195.594543 
L 136.655326 197.326118 
L 137.206798 197.857592 
L 137.75827 198.131901 
L 138.309741 197.89188 
L 138.861213 197.480417 
L 139.412685 200.00063 
L 139.964157 201.372175 
L 140.515629 202.743719 
L 141.067101 203.926677 
L 141.618573 201.955081 
L 142.170045 205.45252 
L 142.721516 204.320996 
L 143.272988 205.915416 
L 143.82446 206.086859 
L 144.375932 206.155437 
L 144.927404 207.338394 
L 145.478876 209.395711 
L 146.030348 206.481179 
L 146.58182 208.744227 
L 147.133291 209.721453 
L 147.684763 209.858607 
L 148.236235 211.89878 
L 148.787707 211.178719 
L 149.339179 212.773139 
L 149.890651 212.635985 
L 150.442123 210.66439 
L 150.993595 211.435883 
L 151.545066 214.984755 
L 152.096538 214.110395 
L 152.64801 214.796168 
L 153.199482 213.836087 
L 153.750954 216.579176 
L 154.302426 215.019044 
L 154.853898 215.087621 
L 155.405369 217.110649 
L 155.956841 217.744989 
L 156.508313 216.853485 
L 157.059785 217.042072 
L 157.611257 218.687926 
" clip-path="url(#pcdeb3b6d8c)" style="fill: none; stroke: #008e00; stroke-width: 2.5; stroke-linecap: square"/>
   </g>
   <g id="line2d_17">
    <path d="M 94.191992 192.251403 
L 94.743464 191.95995 
L 95.294935 192.388558 
L 95.846407 191.95995 
L 96.397879 190.451251 
L 96.949351 193.31435 
L 97.500823 189.988355 
L 98.052295 191.034157 
L 98.603767 190.056932 
L 99.155239 189.182572 
L 99.70671 188.4968 
L 100.258182 188.256779 
L 100.809654 191.119879 
L 101.361126 187.022389 
L 101.912598 186.919523 
L 102.46407 186.816658 
L 103.015542 185.119371 
L 103.567013 185.462257 
L 104.118485 184.365022 
L 104.669957 183.079199 
L 105.221429 185.6337 
L 105.772901 182.187695 
L 106.324373 182.513436 
L 106.875845 181.347623 
L 107.427317 180.473264 
L 107.978788 180.284676 
L 108.53026 181.570499 
L 109.081732 180.181811 
L 109.633204 180.438975 
L 110.184676 178.501668 
L 110.736148 179.513183 
L 111.28762 176.547217 
L 111.839092 178.621679 
L 112.390563 177.661597 
L 112.942035 176.684372 
L 113.493507 176.787238 
L 114.044979 174.712776 
L 114.596451 176.787238 
L 115.147923 177.250134 
L 115.699395 174.318457 
L 116.250867 175.587136 
L 116.802338 173.769839 
L 117.35381 175.724291 
L 117.905282 174.695632 
L 118.456754 174.181303 
L 119.008226 173.598396 
L 119.559698 176.272908 
L 120.11117 174.592766 
L 120.662642 176.59865 
L 121.214113 175.724291 
L 121.765585 176.255764 
L 122.317057 176.615795 
L 122.868529 175.175673 
L 123.420001 176.941536 
L 123.971473 178.655967 
L 124.522945 177.850185 
L 125.074416 178.107349 
L 125.625888 179.358884 
L 126.17736 179.890357 
L 126.728832 180.438975 
L 127.280304 181.124747 
L 127.831776 181.999107 
L 128.383248 184.090713 
L 128.93472 182.564869 
L 129.486191 183.216353 
L 130.037663 184.193579 
L 130.589135 187.965326 
L 131.140607 187.193832 
L 131.692079 187.536719 
L 132.243551 186.610926 
L 132.795023 188.153914 
L 133.346495 189.645468 
L 133.897966 190.365529 
L 134.449438 190.948436 
L 135.00091 191.95995 
L 135.552382 191.83994 
L 136.103854 192.971464 
L 136.655326 193.228629 
L 137.206798 194.274431 
L 137.75827 198.029035 
L 138.309741 197.65186 
L 138.861213 196.108872 
L 139.412685 198.40621 
L 139.964157 198.234767 
L 140.515629 200.172073 
L 141.067101 200.806413 
L 141.618573 202.555132 
L 142.170045 201.817927 
L 142.721516 203.378059 
L 143.272988 203.703801 
L 143.82446 203.875244 
L 144.375932 202.657998 
L 144.927404 203.206616 
L 145.478876 204.766748 
L 146.030348 205.538242 
L 146.58182 207.732713 
L 147.133291 207.252672 
L 147.684763 206.018282 
L 148.236235 207.818435 
L 148.787707 208.864237 
L 149.339179 207.612703 
L 149.890651 209.67002 
L 150.442123 209.155691 
L 150.993595 208.91567 
L 151.545066 211.178719 
L 152.096538 209.841463 
L 152.64801 211.744481 
L 153.199482 211.195863 
L 153.750954 210.852977 
L 154.302426 210.081483 
L 154.853898 212.635985 
L 155.405369 213.938952 
L 155.956841 213.150314 
L 156.508313 215.036188 
L 157.059785 214.48757 
L 157.611257 214.590436 
" clip-path="url(#pcdeb3b6d8c)" style="fill: none; stroke: #ffb14e; stroke-width: 2.5; stroke-linecap: square"/>
   </g>
   <g id="patch_3">
    <path d="M 94.25 233.654906 
L 94.25 10.778906 
" style="fill: none; stroke: #000000; stroke-width: 0.8; stroke-linejoin: miter; stroke-linecap: square"/>
   </g>
   <g id="patch_4">
    <path d="M 157.25 233.654906 
L 157.25 10.778906 
" style="fill: none; stroke: #000000; stroke-width: 0.8; stroke-linejoin: miter; stroke-linecap: square"/>
   </g>
   <g id="patch_5">
    <path d="M 94.25 233.654906 
L 157.25 233.654906 
" style="fill: none; stroke: #000000; stroke-width: 0.8; stroke-linejoin: miter; stroke-linecap: square"/>
   </g>
   <g id="patch_6">
    <path d="M 94.25 10.778906 
L 157.25 10.778906 
" style="fill: none; stroke: #000000; stroke-width: 0.8; stroke-linejoin: miter; stroke-linecap: square"/>
   </g>
  </g>
  <g id="axes_2">
   <g id="patch_7">
    <path d="M 160.4 233.654906 
L 223.4 233.654906 
L 223.4 89.441024 
L 160.4 89.441024 
z
" style="fill: #ffffff"/>
   </g>
   <g id="matplotlib.axis_3">
    <g id="xtick_8">
     <g id="line2d_18">
      <g>
       <use xlink:href="#m2b1f88b726" x="160.4" y="233.654906" style="stroke: #000000; stroke-width: 0.8"/>
      </g>
     </g>
     <g id="text_3">
      <!-- 10 -->
      <g transform="translate(154.839063 247.812719) scale(0.1 -0.1)">
       <use xlink:href="#ArialMT-31"/>
       <use xlink:href="#ArialMT-30" x="55.615234"/>
      </g>
     </g>
    </g>
    <g id="xtick_9">
     <g id="line2d_19">
      <g>
       <use xlink:href="#m2b1f88b726" x="202.4" y="233.654906" style="stroke: #000000; stroke-width: 0.8"/>
      </g>
     </g>
     <g id="text_4">
      <!-- 12 -->
      <g transform="translate(196.839063 247.812719) scale(0.1 -0.1)">
       <use xlink:href="#ArialMT-31"/>
       <use xlink:href="#ArialMT-32" x="55.615234"/>
      </g>
     </g>
    </g>
    <g id="xtick_10">
     <g id="line2d_20">
      <g>
       <use xlink:href="#m452b6d4ff4" x="170.9" y="233.654906" style="stroke: #000000; stroke-width: 0.6"/>
      </g>
     </g>
    </g>
    <g id="xtick_11">
     <g id="line2d_21">
      <g>
       <use xlink:href="#m452b6d4ff4" x="181.4" y="233.654906" style="stroke: #000000; stroke-width: 0.6"/>
      </g>
     </g>
    </g>
    <g id="xtick_12">
     <g id="line2d_22">
      <g>
       <use xlink:href="#m452b6d4ff4" x="191.9" y="233.654906" style="stroke: #000000; stroke-width: 0.6"/>
      </g>
     </g>
    </g>
    <g id="xtick_13">
     <g id="line2d_23">
      <g>
       <use xlink:href="#m452b6d4ff4" x="212.9" y="233.654906" style="stroke: #000000; stroke-width: 0.6"/>
      </g>
     </g>
    </g>
    <g id="xtick_14">
     <g id="line2d_24">
      <g>
       <use xlink:href="#m452b6d4ff4" x="223.4" y="233.654906" style="stroke: #000000; stroke-width: 0.6"/>
      </g>
     </g>
    </g>
   </g>
   <g id="matplotlib.axis_4">
    <g id="ytick_8">
     <g id="line2d_25"/>
    </g>
    <g id="ytick_9">
     <g id="line2d_26"/>
    </g>
    <g id="ytick_10">
     <g id="line2d_27"/>
    </g>
    <g id="ytick_11">
     <g id="line2d_28"/>
    </g>
   </g>
   <g id="line2d_29">
    <path d="M 160.341992 213.287768 
L 160.893464 209.961821 
L 161.444935 207.321636 
L 161.996407 201.406937 
L 162.547879 192.972061 
L 163.099351 182.342747 
L 163.650823 171.319119 
L 164.202295 166.655936 
L 164.753767 176.822361 
L 165.305239 198.115278 
L 165.85671 213.099183 
L 166.408182 218.105248 
L 166.959654 221.122601 
L 167.511126 223.214176 
L 168.062598 224.534268 
L 168.61407 225.562912 
L 169.165542 225.871505 
L 169.717013 225.065734 
L 170.268485 225.665776 
L 170.819957 224.41426 
L 171.371429 224.808573 
L 171.922901 226.574411 
L 172.474373 224.739997 
L 173.025845 223.899938 
L 173.577317 224.225675 
L 174.128788 225.408615 
L 174.68026 225.940081 
L 175.231732 224.345684 
L 175.783204 224.277108 
L 176.334676 223.625634 
L 176.886148 225.802929 
L 177.43762 225.065734 
L 177.989092 224.808573 
L 178.540563 224.088523 
L 179.092035 224.585701 
L 179.643507 222.905583 
L 180.194979 222.065524 
L 180.746451 221.191178 
L 181.297923 222.545558 
L 181.849395 222.905583 
L 182.400867 219.97395 
L 182.952338 221.156889 
L 183.50381 220.248254 
L 184.055282 219.082459 
L 184.606754 218.636713 
L 185.158226 218.32812 
L 185.709698 215.225046 
L 186.26117 214.539284 
L 186.812642 215.482207 
L 187.364113 213.836378 
L 187.915585 209.481787 
L 188.467057 206.567298 
L 189.018529 205.007189 
L 189.570001 199.058201 
L 190.121473 194.103569 
L 190.672945 189.611827 
L 191.224416 182.274171 
L 191.775888 177.319538 
L 192.32736 169.29612 
L 192.878832 161.084117 
L 193.430304 148.41466 
L 193.981776 140.596971 
L 194.533248 133.996509 
L 195.08472 126.624565 
L 195.636191 126.573133 
L 196.187663 132.882145 
L 196.739135 141.659902 
L 197.290607 154.757961 
L 197.842079 166.621647 
L 198.393551 178.091021 
L 198.945023 186.217303 
L 199.496495 195.680822 
L 200.047966 202.34986 
L 200.599438 204.852892 
L 201.15091 210.733303 
L 201.702382 211.727659 
L 202.253854 214.847877 
L 202.805326 218.293832 
L 203.356798 217.985239 
L 203.90827 217.830943 
L 204.459741 221.088313 
L 205.011213 220.728288 
L 205.562685 221.945516 
L 206.114157 219.956806 
L 206.665629 220.025382 
L 207.217101 220.025382 
L 207.768573 219.888229 
L 208.320045 219.116747 
L 208.871516 215.430775 
L 209.422988 215.533639 
L 209.97446 211.059041 
L 210.525932 208.058831 
L 211.077404 203.841393 
L 211.628876 195.389373 
L 212.180348 189.868987 
L 212.73182 192.646324 
L 213.283291 205.538654 
L 213.834763 213.836378 
L 214.386235 221.894084 
L 214.937707 225.374327 
L 215.489179 227.157309 
L 216.040651 226.540123 
L 216.592123 227.157309 
L 217.143595 228.803138 
L 217.695066 227.637343 
L 218.246538 228.751706 
L 218.79801 227.808783 
L 219.349482 230.106087 
L 219.900954 230.363248 
L 220.452426 229.591765 
L 221.003898 229.14602 
L 221.555369 231.13473 
L 222.106841 229.31746 
L 222.658313 231.066154 
L 223.209785 231.340459 
L 223.761257 230.448968 
" clip-path="url(#pb53911c543)" style="fill: none; stroke: #000000; stroke-width: 2.5; stroke-linecap: square"/>
   </g>
   <g id="line2d_30">
    <path d="M 160.341992 202.949902 
L 160.893464 196.640889 
L 161.444935 194.27501 
L 161.996407 186.748769 
L 162.547879 175.622277 
L 163.099351 165.678724 
L 163.650823 149.751896 
L 164.202295 128.63042 
L 164.753767 109.960543 
L 165.305239 115.155192 
L 165.85671 149.666176 
L 166.408182 185.154372 
L 166.959654 197.206643 
L 167.511126 205.795815 
L 168.062598 207.510221 
L 168.61407 209.224627 
L 169.165542 212.259124 
L 169.717013 211.624794 
L 170.268485 210.33899 
L 170.819957 212.207692 
L 171.371429 212.344845 
L 171.922901 212.310557 
L 172.474373 211.367634 
L 173.025845 211.264769 
L 173.577317 211.624794 
L 174.128788 212.499141 
L 174.68026 211.727659 
L 175.231732 211.350489 
L 175.783204 210.939032 
L 176.334676 210.956176 
L 176.886148 212.499141 
L 177.43762 210.201838 
L 177.989092 209.207482 
L 178.540563 207.904534 
L 179.092035 208.710305 
L 179.643507 207.647373 
L 180.194979 208.041687 
L 180.746451 208.418856 
L 181.297923 207.681661 
L 181.849395 206.498722 
L 182.400867 207.321636 
L 182.952338 206.190129 
L 183.50381 207.013043 
L 184.055282 207.013043 
L 184.606754 206.190129 
L 185.158226 204.012834 
L 185.709698 202.727029 
L 186.26117 203.138487 
L 186.812642 202.829894 
L 187.364113 202.075555 
L 187.915585 199.692531 
L 188.467057 199.863972 
L 189.018529 200.378294 
L 189.570001 199.109634 
L 190.121473 200.412582 
L 190.672945 198.252431 
L 191.224416 199.332506 
L 191.775888 195.937983 
L 192.32736 194.343586 
L 192.878832 195.697966 
L 193.430304 194.326442 
L 193.981776 195.509382 
L 194.533248 195.663678 
L 195.08472 194.755043 
L 195.636191 196.143712 
L 196.187663 197.36094 
L 196.739135 194.960772 
L 197.290607 195.337941 
L 197.842079 196.435161 
L 198.393551 197.343796 
L 198.945023 201.115488 
L 199.496495 200.858327 
L 200.047966 201.286929 
L 200.599438 202.17842 
L 201.15091 201.955547 
L 201.702382 203.052766 
L 202.253854 204.767172 
L 202.805326 205.778671 
L 203.356798 206.344425 
L 203.90827 205.298638 
L 204.459741 208.693161 
L 205.011213 209.636084 
L 205.562685 207.870246 
L 206.114157 208.864601 
L 206.665629 205.110053 
L 207.217101 206.773027 
L 207.768573 205.658663 
L 208.320045 205.075765 
L 208.871516 204.578587 
L 209.422988 202.024123 
L 209.97446 196.778042 
L 210.525932 194.309298 
L 211.077404 185.891566 
L 211.628876 175.93087 
L 212.180348 161.547007 
L 212.73182 146.631678 
L 213.283291 141.282733 
L 213.834763 159.661161 
L 214.386235 187.451675 
L 214.937707 202.98419 
L 215.489179 211.60765 
L 216.040651 215.293622 
L 216.592123 216.202257 
L 217.143595 217.453773 
L 217.695066 218.053815 
L 218.246538 218.705289 
L 218.79801 220.762576 
L 219.349482 221.979804 
L 219.900954 222.236965 
L 220.452426 224.054235 
L 221.003898 223.042736 
L 221.555369 222.288397 
L 222.106841 222.391261 
L 222.658313 224.157099 
L 223.209785 224.619989 
L 223.761257 223.539913 
" clip-path="url(#pb53911c543)" style="fill: none; stroke: #008e00; stroke-width: 2.5; stroke-linecap: square"/>
   </g>
   <g id="line2d_31">
    <path d="M 160.341992 196.006559 
L 160.893464 190.434741 
L 161.444935 186.628761 
L 161.996407 182.051298 
L 162.547879 176.239463 
L 163.099351 166.073038 
L 163.650823 156.746671 
L 164.202295 142.397096 
L 164.753767 133.499331 
L 165.305239 136.739558 
L 165.85671 159.57544 
L 166.408182 178.159597 
L 166.959654 192.406308 
L 167.511126 197.326652 
L 168.062598 199.623955 
L 168.61407 201.046912 
L 169.165542 200.498302 
L 169.717013 202.384148 
L 170.268485 202.298428 
L 170.819957 204.115698 
L 171.371429 204.784316 
L 171.922901 202.949902 
L 172.474373 205.144341 
L 173.025845 203.995689 
L 173.577317 203.995689 
L 174.128788 203.755673 
L 174.68026 204.115698 
L 175.231732 204.218562 
L 175.783204 202.212708 
L 176.334676 200.99548 
L 176.886148 203.087054 
L 177.43762 201.698386 
L 177.989092 200.44687 
L 178.540563 204.235706 
L 179.092035 201.869827 
L 179.643507 204.269994 
L 180.194979 202.058411 
L 180.746451 201.681242 
L 181.297923 200.515446 
L 181.849395 201.612666 
L 182.400867 200.652599 
L 182.952338 200.292573 
L 183.50381 201.595522 
L 184.055282 200.61831 
L 184.606754 199.486803 
L 185.158226 200.223997 
L 185.709698 202.229852 
L 186.26117 199.469659 
L 186.812642 200.635454 
L 187.364113 200.258285 
L 187.915585 201.80125 
L 188.467057 198.972481 
L 189.018529 200.515446 
L 189.570001 200.738319 
L 190.121473 198.681032 
L 190.672945 201.218352 
L 191.224416 200.738319 
L 191.775888 201.0812 
L 192.32736 199.229642 
L 192.878832 200.429726 
L 193.430304 202.43558 
L 193.981776 200.069701 
L 194.533248 199.949692 
L 195.08472 201.269785 
L 195.636191 200.669743 
L 196.187663 201.441225 
L 196.739135 200.875471 
L 197.290607 202.847038 
L 197.842079 201.62981 
L 198.393551 202.641309 
L 198.945023 202.126987 
L 199.496495 203.121343 
L 200.047966 202.658453 
L 200.599438 202.367004 
L 201.15091 203.652808 
L 201.702382 204.527155 
L 202.253854 202.246996 
L 202.805326 204.767172 
L 203.356798 204.698596 
L 203.90827 204.767172 
L 204.459741 204.784316 
L 205.011213 204.492867 
L 205.562685 205.247206 
L 206.114157 204.218562 
L 206.665629 202.624165 
L 207.217101 202.367004 
L 207.768573 201.424081 
L 208.320045 201.184064 
L 208.871516 195.45795 
L 209.422988 195.920839 
L 209.97446 195.577958 
L 210.525932 190.794766 
L 211.077404 185.308668 
L 211.628876 178.193885 
L 212.180348 168.678934 
L 212.73182 158.30678 
L 213.283291 155.68374 
L 213.834763 166.7588 
L 214.386235 186.971642 
L 214.937707 196.846618 
L 215.489179 205.315782 
L 216.040651 206.138696 
L 216.592123 208.950322 
L 217.143595 211.179049 
L 217.695066 212.053396 
L 218.246538 213.270624 
L 218.79801 214.916453 
L 219.349482 213.802089 
L 219.900954 214.230691 
L 220.452426 215.396487 
L 221.003898 215.447919 
L 221.555369 217.265189 
L 222.106841 216.905164 
L 222.658313 219.099603 
L 223.209785 217.830943 
L 223.761257 217.728078 
" clip-path="url(#pb53911c543)" style="fill: none; stroke: #ffb14e; stroke-width: 2.5; stroke-linecap: square"/>
   </g>
   <g id="patch_8">
    <path d="M 160.4 233.654906 
L 160.4 89.441024 
" style="fill: none; stroke: #000000; stroke-width: 0.8; stroke-linejoin: miter; stroke-linecap: square"/>
   </g>
   <g id="patch_9">
    <path d="M 223.4 233.654906 
L 223.4 89.441024 
" style="fill: none; stroke: #000000; stroke-width: 0.8; stroke-linejoin: miter; stroke-linecap: square"/>
   </g>
   <g id="patch_10">
    <path d="M 160.4 233.654906 
L 223.4 233.654906 
" style="fill: none; stroke: #000000; stroke-width: 0.8; stroke-linejoin: miter; stroke-linecap: square"/>
   </g>
   <g id="patch_11">
    <path d="M 160.4 89.441024 
L 223.4 89.441024 
" style="fill: none; stroke: #000000; stroke-width: 0.8; stroke-linejoin: miter; stroke-linecap: square"/>
   </g>
  </g>
  <g id="axes_3">
   <g id="patch_12">
    <path d="M 28.1 76.330671 
L 91.1 76.330671 
L 91.1 10.778906 
L 28.1 10.778906 
z
" style="fill: #ffffff"/>
   </g>
   <g id="matplotlib.axis_5">
    <g id="xtick_15">
     <g id="line2d_32">
      <g>
       <use xlink:href="#m2b1f88b726" x="28.1" y="76.330671" style="stroke: #000000; stroke-width: 0.8"/>
      </g>
     </g>
    </g>
    <g id="xtick_16">
     <g id="line2d_33">
      <g>
       <use xlink:href="#m2b1f88b726" x="70.1" y="76.330671" style="stroke: #000000; stroke-width: 0.8"/>
      </g>
     </g>
    </g>
    <g id="xtick_17">
     <g id="line2d_34">
      <g>
       <use xlink:href="#m452b6d4ff4" x="38.6" y="76.330671" style="stroke: #000000; stroke-width: 0.6"/>
      </g>
     </g>
    </g>
    <g id="xtick_18">
     <g id="line2d_35">
      <g>
       <use xlink:href="#m452b6d4ff4" x="49.1" y="76.330671" style="stroke: #000000; stroke-width: 0.6"/>
      </g>
     </g>
    </g>
    <g id="xtick_19">
     <g id="line2d_36">
      <g>
       <use xlink:href="#m452b6d4ff4" x="59.6" y="76.330671" style="stroke: #000000; stroke-width: 0.6"/>
      </g>
     </g>
    </g>
    <g id="xtick_20">
     <g id="line2d_37">
      <g>
       <use xlink:href="#m452b6d4ff4" x="80.6" y="76.330671" style="stroke: #000000; stroke-width: 0.6"/>
      </g>
     </g>
    </g>
    <g id="xtick_21">
     <g id="line2d_38">
      <g>
       <use xlink:href="#m452b6d4ff4" x="91.1" y="76.330671" style="stroke: #000000; stroke-width: 0.6"/>
      </g>
     </g>
    </g>
   </g>
   <g id="matplotlib.axis_6">
    <g id="ytick_12">
     <g id="line2d_39"/>
    </g>
    <g id="ytick_13">
     <g id="line2d_40"/>
    </g>
   </g>
   <g id="line2d_41">
    <path d="M 28.041992 49.721502 
L 28.593464 47.852688 
L 29.144935 44.852298 
L 29.696407 43.806448 
L 30.247879 39.674483 
L 30.799351 32.919321 
L 31.350823 27.792941 
L 31.902295 22.632271 
L 32.453767 32.576419 
L 33.005239 43.892174 
L 33.55671 49.772937 
L 34.108182 51.590316 
L 34.659654 51.4703 
L 35.211126 52.48186 
L 35.762598 53.904902 
L 36.31407 53.339115 
L 36.865542 54.196369 
L 37.417013 52.276119 
L 37.968485 54.179224 
L 38.519957 55.293654 
L 39.071429 54.590706 
L 39.622901 53.562001 
L 40.174373 54.024918 
L 40.725845 53.441985 
L 41.277317 55.55083 
L 41.828788 54.830737 
L 42.38026 54.624996 
L 42.931732 53.510565 
L 43.483204 53.407695 
L 44.034676 54.230659 
L 44.586148 54.419255 
L 45.13762 54.350674 
L 45.689092 53.304824 
L 46.240563 55.602265 
L 46.792035 54.659286 
L 47.343507 55.396524 
L 47.894979 54.590706 
L 48.446451 54.419255 
L 48.997923 55.105058 
L 49.549395 53.956337 
L 50.100867 55.036478 
L 50.652338 52.207539 
L 51.20381 54.727866 
L 51.755282 56.768131 
L 52.306754 55.207929 
L 52.858226 56.682406 
L 53.409698 55.41367 
L 53.96117 55.019333 
L 54.512642 53.373405 
L 55.064113 55.48225 
L 55.615585 55.790861 
L 56.167057 56.270924 
L 56.718529 56.63097 
L 57.270001 55.962312 
L 57.821473 56.219488 
L 58.372945 57.436789 
L 58.924416 57.693966 
L 59.475888 56.133763 
L 60.02736 55.379379 
L 60.578832 55.41367 
L 61.130304 56.545245 
L 61.681776 56.013747 
L 62.233248 55.619411 
L 62.78472 56.716696 
L 63.336191 56.510955 
L 63.887663 55.722281 
L 64.439135 56.63097 
L 64.990607 57.231048 
L 65.542079 57.488225 
L 66.093551 58.58551 
L 66.645023 57.745401 
L 67.196495 57.282484 
L 67.747966 59.134153 
L 68.299438 59.168443 
L 68.85091 57.796836 
L 69.402382 59.648505 
L 69.953854 58.928412 
L 70.505326 61.260143 
L 71.056798 60.265728 
L 71.60827 59.939972 
L 72.159741 59.151298 
L 72.711213 58.996992 
L 73.262685 59.271313 
L 73.814157 58.499785 
L 74.365629 60.059987 
L 74.917101 59.374184 
L 75.468573 59.219878 
L 76.020045 58.311189 
L 76.571516 56.819566 
L 77.122988 58.362624 
L 77.67446 56.802421 
L 78.225932 54.607851 
L 78.777404 51.521736 
L 79.328876 45.915294 
L 79.880348 44.920879 
L 80.43182 43.840738 
L 80.983291 50.818787 
L 81.534763 54.933607 
L 82.086235 60.145712 
L 82.637707 60.334308 
L 83.189179 62.70033 
L 83.740651 62.73462 
L 84.292123 65.477833 
L 84.843595 63.180392 
L 85.395066 62.63175 
L 85.946538 64.294823 
L 86.49801 65.032061 
L 87.049482 63.180392 
L 87.600954 66.043621 
L 88.152426 64.569144 
L 88.703898 63.84905 
L 89.255369 64.79203 
L 89.806841 64.534854 
L 90.358313 64.774885 
L 90.909785 66.472248 
L 91.461257 64.963481 
" clip-path="url(#p5c79fd6f54)" style="fill: none; stroke: #000000; stroke-width: 2.5; stroke-linecap: square"/>
   </g>
   <g id="line2d_42">
    <path d="M 28.041992 46.30963 
L 28.593464 45.829568 
L 29.144935 46.481081 
L 29.696407 44.235075 
L 30.247879 43.652143 
L 30.799351 36.914125 
L 31.350823 33.073626 
L 31.902295 29.696045 
L 32.453767 29.267418 
L 33.005239 36.502643 
L 33.55671 43.120645 
L 34.108182 47.475496 
L 34.659654 48.161299 
L 35.211126 49.069989 
L 35.762598 47.424061 
L 36.31407 48.812813 
L 36.865542 48.349895 
L 37.417013 49.224295 
L 37.968485 47.732672 
L 38.519957 49.515761 
L 39.071429 49.618631 
L 39.622901 48.281315 
L 40.174373 50.527321 
L 40.725845 49.910098 
L 41.277317 52.327555 
L 41.828788 52.036088 
L 42.38026 49.327165 
L 42.931732 50.28729 
L 43.483204 50.595901 
L 44.034676 50.973093 
L 44.586148 51.264559 
L 45.13762 49.155714 
L 45.689092 49.601486 
L 46.240563 49.172859 
L 46.792035 51.024528 
L 47.343507 51.315995 
L 47.894979 49.515761 
L 48.446451 49.104279 
L 48.997923 49.41289 
L 49.549395 48.932828 
L 50.100867 50.561611 
L 50.652338 50.407305 
L 51.20381 49.567196 
L 51.755282 51.693187 
L 52.306754 50.527321 
L 52.858226 49.258585 
L 53.409698 50.098694 
L 53.96117 52.190394 
L 54.512642 49.858663 
L 55.064113 51.984653 
L 55.615585 49.944388 
L 56.167057 49.944388 
L 56.718529 50.407305 
L 57.270001 50.990238 
L 57.821473 51.950363 
L 58.372945 50.527321 
L 58.924416 51.744622 
L 59.475888 50.955948 
L 60.02736 52.3447 
L 60.578832 51.693187 
L 61.130304 51.676041 
L 61.681776 49.892953 
L 62.233248 50.698772 
L 62.78472 51.916073 
L 63.336191 51.830347 
L 63.887663 50.801642 
L 64.439135 52.138959 
L 64.990607 53.647726 
L 65.542079 54.57356 
L 66.093551 53.236244 
L 66.645023 54.333529 
L 67.196495 52.773327 
L 67.747966 54.985042 
L 68.299438 54.642141 
L 68.85091 54.693576 
L 69.402382 53.150519 
L 69.953854 55.327944 
L 70.505326 54.453545 
L 71.056798 54.590706 
L 71.60827 53.133374 
L 72.159741 53.030503 
L 72.711213 55.002188 
L 73.262685 54.607851 
L 73.814157 54.453545 
L 74.365629 56.219488 
L 74.917101 55.55083 
L 75.468573 54.47069 
L 76.020045 54.213514 
L 76.571516 54.299239 
L 77.122988 54.693576 
L 77.67446 53.201954 
L 78.225932 51.624606 
L 78.777404 51.36743 
L 79.328876 48.178444 
L 79.880348 44.972314 
L 80.43182 44.475107 
L 80.983291 45.949584 
L 81.534763 49.584341 
L 82.086235 53.013358 
L 82.637707 55.756571 
L 83.189179 58.105448 
L 83.740651 57.265339 
L 84.292123 58.002577 
L 84.843595 57.762546 
L 85.395066 56.682406 
L 85.946538 58.842686 
L 86.49801 59.819956 
L 87.049482 60.882951 
L 87.600954 60.334308 
L 88.152426 61.037257 
L 88.703898 60.317163 
L 89.255369 61.637335 
L 89.806841 60.128567 
L 90.358313 61.225853 
L 90.909785 59.957117 
L 91.461257 61.534464 
" clip-path="url(#p5c79fd6f54)" style="fill: none; stroke: #008e00; stroke-width: 2.5; stroke-linecap: square"/>
   </g>
   <g id="line2d_43">
    <path d="M 28.041992 47.972703 
L 28.593464 46.223905 
L 29.144935 46.326776 
L 29.696407 47.046869 
L 30.247879 45.863858 
L 30.799351 44.783718 
L 31.350823 45.469521 
L 31.902295 43.13779 
L 32.453767 46.532517 
L 33.005239 45.023749 
L 33.55671 44.800863 
L 34.108182 44.286511 
L 34.659654 44.663702 
L 35.211126 44.303656 
L 35.762598 44.200785 
L 36.31407 43.600707 
L 36.865542 44.955169 
L 37.417013 44.577977 
L 37.968485 44.509397 
L 38.519957 45.075184 
L 39.071429 44.389381 
L 39.622901 43.857884 
L 40.174373 43.463547 
L 40.725845 45.383796 
L 41.277317 43.840738 
L 41.828788 45.12662 
L 42.38026 44.200785 
L 42.931732 42.006215 
L 43.483204 43.823593 
L 44.034676 43.566417 
L 44.586148 43.755013 
L 45.13762 45.1952 
L 45.689092 43.875029 
L 46.240563 44.457961 
L 46.792035 44.063625 
L 47.343507 43.360676 
L 47.894979 43.977899 
L 48.446451 41.303266 
L 48.997923 43.549272 
L 49.549395 44.08077 
L 50.100867 43.755013 
L 50.652338 42.02336 
L 51.20381 42.143375 
L 51.755282 43.240661 
L 52.306754 41.063235 
L 52.858226 41.680458 
L 53.409698 45.023749 
L 53.96117 44.200785 
L 54.512642 43.669288 
L 55.064113 42.537712 
L 55.615585 45.469521 
L 56.167057 44.697993 
L 56.718529 45.246635 
L 57.270001 44.320801 
L 57.821473 44.475107 
L 58.372945 45.178055 
L 58.924416 44.835153 
L 59.475888 43.274951 
L 60.02736 43.892174 
L 60.578832 44.903734 
L 61.130304 46.361066 
L 61.681776 45.298071 
L 62.233248 45.503812 
L 62.78472 45.400941 
L 63.336191 45.863858 
L 63.887663 45.538102 
L 64.439135 46.24105 
L 64.990607 46.258195 
L 65.542079 45.966729 
L 66.093551 47.2869 
L 66.645023 46.961144 
L 67.196495 47.098304 
L 67.747966 48.024139 
L 68.299438 46.549662 
L 68.85091 46.583952 
L 69.402382 46.909708 
L 69.953854 48.19559 
L 70.505326 49.755792 
L 71.056798 47.921268 
L 71.60827 48.401331 
L 72.159741 47.578367 
L 72.711213 51.093109 
L 73.262685 49.292875 
L 73.814157 47.012579 
L 74.365629 49.361455 
L 74.917101 50.253 
L 75.468573 51.247414 
L 76.020045 48.795667 
L 76.571516 52.327555 
L 77.122988 50.955948 
L 77.67446 51.453155 
L 78.225932 49.961533 
L 78.777404 53.064793 
L 79.328876 51.933218 
L 79.880348 53.116228 
L 80.43182 52.910487 
L 80.983291 51.796057 
L 81.534763 54.127788 
L 82.086235 54.779301 
L 82.637707 52.961923 
L 83.189179 52.636166 
L 83.740651 53.887757 
L 84.292123 52.533296 
L 84.843595 54.042063 
L 85.395066 53.767742 
L 85.946538 55.670846 
L 86.49801 55.893732 
L 87.049482 55.859442 
L 87.600954 55.499395 
L 88.152426 54.813592 
L 88.703898 56.442375 
L 89.255369 56.390939 
L 89.806841 56.408084 
L 90.358313 57.47108 
L 90.909785 57.882562 
L 91.461257 57.076743 
" clip-path="url(#p5c79fd6f54)" style="fill: none; stroke: #ffb14e; stroke-width: 2.5; stroke-linecap: square"/>
   </g>
   <g id="patch_13">
    <path d="M 28.1 76.330671 
L 28.1 10.778906 
" style="fill: none; stroke: #000000; stroke-width: 0.8; stroke-linejoin: miter; stroke-linecap: square"/>
   </g>
   <g id="patch_14">
    <path d="M 91.1 76.330671 
L 91.1 10.778906 
" style="fill: none; stroke: #000000; stroke-width: 0.8; stroke-linejoin: miter; stroke-linecap: square"/>
   </g>
   <g id="patch_15">
    <path d="M 28.1 76.330671 
L 91.1 76.330671 
" style="fill: none; stroke: #000000; stroke-width: 0.8; stroke-linejoin: miter; stroke-linecap: square"/>
   </g>
   <g id="patch_16">
    <path d="M 28.1 10.778906 
L 91.1 10.778906 
" style="fill: none; stroke: #000000; stroke-width: 0.8; stroke-linejoin: miter; stroke-linecap: square"/>
   </g>
  </g>
  <g id="axes_4">
   <g id="patch_17">
    <path d="M 28.1 154.992789 
L 91.1 154.992789 
L 91.1 89.441024 
L 28.1 89.441024 
z
" style="fill: #ffffff"/>
   </g>
   <g id="matplotlib.axis_7">
    <g id="xtick_22">
     <g id="line2d_44">
      <g>
       <use xlink:href="#m2b1f88b726" x="28.1" y="154.992789" style="stroke: #000000; stroke-width: 0.8"/>
      </g>
     </g>
    </g>
    <g id="xtick_23">
     <g id="line2d_45">
      <g>
       <use xlink:href="#m2b1f88b726" x="70.1" y="154.992789" style="stroke: #000000; stroke-width: 0.8"/>
      </g>
     </g>
    </g>
    <g id="xtick_24">
     <g id="line2d_46">
      <g>
       <use xlink:href="#m452b6d4ff4" x="38.6" y="154.992789" style="stroke: #000000; stroke-width: 0.6"/>
      </g>
     </g>
    </g>
    <g id="xtick_25">
     <g id="line2d_47">
      <g>
       <use xlink:href="#m452b6d4ff4" x="49.1" y="154.992789" style="stroke: #000000; stroke-width: 0.6"/>
      </g>
     </g>
    </g>
    <g id="xtick_26">
     <g id="line2d_48">
      <g>
       <use xlink:href="#m452b6d4ff4" x="59.6" y="154.992789" style="stroke: #000000; stroke-width: 0.6"/>
      </g>
     </g>
    </g>
    <g id="xtick_27">
     <g id="line2d_49">
      <g>
       <use xlink:href="#m452b6d4ff4" x="80.6" y="154.992789" style="stroke: #000000; stroke-width: 0.6"/>
      </g>
     </g>
    </g>
    <g id="xtick_28">
     <g id="line2d_50">
      <g>
       <use xlink:href="#m452b6d4ff4" x="91.1" y="154.992789" style="stroke: #000000; stroke-width: 0.6"/>
      </g>
     </g>
    </g>
   </g>
   <g id="matplotlib.axis_8">
    <g id="ytick_14">
     <g id="line2d_51"/>
    </g>
    <g id="ytick_15">
     <g id="line2d_52"/>
    </g>
    <g id="text_5">
     <!-- Intensity -->
     <g transform="translate(17.653437 148.28425) rotate(-90) scale(0.14 -0.14)">
      <defs>
       <path id="ArialMT-49" d="M 597 0 
L 597 4581 
L 1203 4581 
L 1203 0 
L 597 0 
z
" transform="scale(0.015625)"/>
       <path id="ArialMT-6e" d="M 422 0 
L 422 3319 
L 928 3319 
L 928 2847 
Q 1294 3394 1984 3394 
Q 2284 3394 2536 3286 
Q 2788 3178 2913 3003 
Q 3038 2828 3088 2588 
Q 3119 2431 3119 2041 
L 3119 0 
L 2556 0 
L 2556 2019 
Q 2556 2363 2490 2533 
Q 2425 2703 2258 2804 
Q 2091 2906 1866 2906 
Q 1506 2906 1245 2678 
Q 984 2450 984 1813 
L 984 0 
L 422 0 
z
" transform="scale(0.015625)"/>
       <path id="ArialMT-74" d="M 1650 503 
L 1731 6 
Q 1494 -44 1306 -44 
Q 1000 -44 831 53 
Q 663 150 594 308 
Q 525 466 525 972 
L 525 2881 
L 113 2881 
L 113 3319 
L 525 3319 
L 525 4141 
L 1084 4478 
L 1084 3319 
L 1650 3319 
L 1650 2881 
L 1084 2881 
L 1084 941 
Q 1084 700 1114 631 
Q 1144 563 1211 522 
Q 1278 481 1403 481 
Q 1497 481 1650 503 
z
" transform="scale(0.015625)"/>
       <path id="ArialMT-65" d="M 2694 1069 
L 3275 997 
Q 3138 488 2766 206 
Q 2394 -75 1816 -75 
Q 1088 -75 661 373 
Q 234 822 234 1631 
Q 234 2469 665 2931 
Q 1097 3394 1784 3394 
Q 2450 3394 2872 2941 
Q 3294 2488 3294 1666 
Q 3294 1616 3291 1516 
L 816 1516 
Q 847 969 1125 678 
Q 1403 388 1819 388 
Q 2128 388 2347 550 
Q 2566 713 2694 1069 
z
M 847 1978 
L 2700 1978 
Q 2663 2397 2488 2606 
Q 2219 2931 1791 2931 
Q 1403 2931 1139 2672 
Q 875 2413 847 1978 
z
" transform="scale(0.015625)"/>
       <path id="ArialMT-73" d="M 197 991 
L 753 1078 
Q 800 744 1014 566 
Q 1228 388 1613 388 
Q 2000 388 2187 545 
Q 2375 703 2375 916 
Q 2375 1106 2209 1216 
Q 2094 1291 1634 1406 
Q 1016 1563 777 1677 
Q 538 1791 414 1992 
Q 291 2194 291 2438 
Q 291 2659 392 2848 
Q 494 3038 669 3163 
Q 800 3259 1026 3326 
Q 1253 3394 1513 3394 
Q 1903 3394 2198 3281 
Q 2494 3169 2634 2976 
Q 2775 2784 2828 2463 
L 2278 2388 
Q 2241 2644 2061 2787 
Q 1881 2931 1553 2931 
Q 1166 2931 1000 2803 
Q 834 2675 834 2503 
Q 834 2394 903 2306 
Q 972 2216 1119 2156 
Q 1203 2125 1616 2013 
Q 2213 1853 2448 1751 
Q 2684 1650 2818 1456 
Q 2953 1263 2953 975 
Q 2953 694 2789 445 
Q 2625 197 2315 61 
Q 2006 -75 1616 -75 
Q 969 -75 630 194 
Q 291 463 197 991 
z
" transform="scale(0.015625)"/>
       <path id="ArialMT-69" d="M 425 3934 
L 425 4581 
L 988 4581 
L 988 3934 
L 425 3934 
z
M 425 0 
L 425 3319 
L 988 3319 
L 988 0 
L 425 0 
z
" transform="scale(0.015625)"/>
       <path id="ArialMT-79" d="M 397 -1278 
L 334 -750 
Q 519 -800 656 -800 
Q 844 -800 956 -737 
Q 1069 -675 1141 -563 
Q 1194 -478 1313 -144 
Q 1328 -97 1363 -6 
L 103 3319 
L 709 3319 
L 1400 1397 
Q 1534 1031 1641 628 
Q 1738 1016 1872 1384 
L 2581 3319 
L 3144 3319 
L 1881 -56 
Q 1678 -603 1566 -809 
Q 1416 -1088 1222 -1217 
Q 1028 -1347 759 -1347 
Q 597 -1347 397 -1278 
z
" transform="scale(0.015625)"/>
      </defs>
      <use xlink:href="#ArialMT-49"/>
      <use xlink:href="#ArialMT-6e" x="27.783203"/>
      <use xlink:href="#ArialMT-74" x="83.398438"/>
      <use xlink:href="#ArialMT-65" x="111.181641"/>
      <use xlink:href="#ArialMT-6e" x="166.796875"/>
      <use xlink:href="#ArialMT-73" x="222.412109"/>
      <use xlink:href="#ArialMT-69" x="272.412109"/>
      <use xlink:href="#ArialMT-74" x="294.628906"/>
      <use xlink:href="#ArialMT-79" x="322.412109"/>
     </g>
    </g>
   </g>
   <g id="line2d_53">
    <path d="M 28.041992 125.297505 
L 28.593464 128.229314 
L 29.144935 127.44064 
L 29.696407 128.623651 
L 30.247879 127.543511 
L 30.799351 126.051888 
L 31.350823 123.874463 
L 31.902295 124.611701 
L 32.453767 126.377645 
L 33.005239 123.582996 
L 33.55671 125.571826 
L 34.108182 123.308675 
L 34.659654 125.177489 
L 35.211126 124.851732 
L 35.762598 123.29153 
L 36.31407 123.22295 
L 36.865542 123.960188 
L 37.417013 124.423105 
L 37.968485 122.24568 
L 38.519957 122.382841 
L 39.071429 119.879658 
L 39.622901 124.491686 
L 40.174373 121.834198 
L 40.725845 120.925508 
L 41.277317 120.308285 
L 41.828788 120.822638 
L 42.38026 122.022794 
L 42.931732 120.788348 
L 43.483204 119.588192 
L 44.034676 120.068254 
L 44.586148 120.102544 
L 45.13762 118.885244 
L 45.689092 118.23373 
L 46.240563 120.136835 
L 46.792035 118.953824 
L 47.343507 119.056694 
L 47.894979 117.890829 
L 48.446451 118.148005 
L 48.997923 118.09657 
L 49.549395 117.479347 
L 50.100867 118.285166 
L 50.652338 117.342186 
L 51.20381 117.15359 
L 51.755282 118.422326 
L 52.306754 118.010844 
L 52.858226 117.393621 
L 53.409698 118.113715 
L 53.96117 117.136445 
L 54.512642 116.742108 
L 55.064113 116.947849 
L 55.615585 118.250875 
L 56.167057 117.770813 
L 56.718529 118.216585 
L 57.270001 117.616507 
L 57.821473 119.039549 
L 58.372945 117.239316 
L 58.924416 120.479736 
L 59.475888 119.622482 
L 60.02736 119.742498 
L 60.578832 119.948239 
L 61.130304 119.965384 
L 61.681776 119.27958 
L 62.233248 121.028379 
L 62.78472 119.193855 
L 63.336191 121.131249 
L 63.887663 122.588582 
L 64.439135 121.096959 
L 64.990607 122.880048 
L 65.542079 123.754447 
L 66.093551 124.560266 
L 66.645023 122.622872 
L 67.196495 123.377255 
L 67.747966 124.080204 
L 68.299438 123.445836 
L 68.85091 124.800297 
L 69.402382 125.486101 
L 69.953854 125.468955 
L 70.505326 126.909142 
L 71.056798 124.697427 
L 71.60827 126.549096 
L 72.159741 127.543511 
L 72.711213 127.046303 
L 73.262685 129.703791 
L 73.814157 130.663916 
L 74.365629 128.246459 
L 74.917101 127.680671 
L 75.468573 130.44103 
L 76.020045 131.675476 
L 76.571516 131.023962 
L 77.122988 131.401154 
L 77.67446 131.675476 
L 78.225932 130.903947 
L 78.777404 132.772761 
L 79.328876 133.458564 
L 79.880348 132.738471 
L 80.43182 134.298673 
L 80.983291 134.332963 
L 81.534763 134.298673 
L 82.086235 135.73886 
L 82.637707 135.996037 
L 83.189179 134.847316 
L 83.740651 136.476099 
L 84.292123 136.801855 
L 84.843595 137.504804 
L 85.395066 137.213337 
L 85.946538 137.6934 
L 86.49801 137.299063 
L 87.049482 138.84212 
L 87.600954 137.881996 
L 88.152426 138.756395 
L 88.703898 139.922261 
L 89.255369 138.979281 
L 89.806841 138.653524 
L 90.358313 139.510779 
L 90.909785 139.802245 
L 91.461257 138.396348 
" clip-path="url(#peaa328ab7f)" style="fill: none; stroke: #000000; stroke-width: 2.5; stroke-linecap: square"/>
   </g>
   <g id="line2d_54">
    <path d="M 28.041992 118.027989 
L 28.593464 116.759253 
L 29.144935 117.1193 
L 29.696407 117.942264 
L 30.247879 115.987725 
L 30.799351 115.06189 
L 31.350823 117.393621 
L 31.902295 115.799129 
L 32.453767 115.490517 
L 33.005239 115.730548 
L 33.55671 114.753279 
L 34.108182 114.941874 
L 34.659654 114.856149 
L 35.211126 115.524807 
L 35.762598 114.153201 
L 36.31407 113.776009 
L 36.865542 111.718599 
L 37.417013 109.781204 
L 37.968485 106.180737 
L 38.519957 107.860955 
L 39.071429 109.729769 
L 39.622901 111.409987 
L 40.174373 112.095791 
L 40.725845 113.244511 
L 41.277317 112.370112 
L 41.828788 110.106961 
L 42.38026 110.94707 
L 42.931732 111.307117 
L 43.483204 111.512858 
L 44.034676 111.135666 
L 44.586148 111.95863 
L 45.13762 111.581438 
L 45.689092 109.489738 
L 46.240563 110.792764 
L 46.792035 107.826665 
L 47.343507 109.83264 
L 47.894979 110.741329 
L 48.446451 106.986556 
L 48.997923 106.815105 
L 49.549395 102.048772 
L 50.100867 104.67197 
L 50.652338 107.723794 
L 51.20381 111.530003 
L 51.755282 111.872905 
L 52.306754 110.346992 
L 52.858226 111.375697 
L 53.409698 110.004091 
L 53.96117 110.758474 
L 54.512642 112.97019 
L 55.064113 110.295557 
L 55.615585 111.341407 
L 56.167057 110.552733 
L 56.718529 110.004091 
L 57.270001 110.038381 
L 57.821473 110.707039 
L 58.372945 110.672749 
L 58.924416 112.130081 
L 59.475888 114.221781 
L 60.02736 116.124885 
L 60.578832 115.0276 
L 61.130304 112.884464 
L 61.681776 113.758864 
L 62.233248 114.427522 
L 62.78472 115.456227 
L 63.336191 113.347382 
L 63.887663 116.467787 
L 64.439135 116.570657 
L 64.990607 113.398817 
L 65.542079 115.799129 
L 66.093551 117.856539 
L 66.645023 119.742498 
L 67.196495 117.513637 
L 67.747966 118.610922 
L 68.299438 116.587802 
L 68.85091 118.679503 
L 69.402382 118.542342 
L 69.953854 119.24529 
L 70.505326 119.913949 
L 71.056798 121.439861 
L 71.60827 121.782763 
L 72.159741 120.874073 
L 72.711213 121.611312 
L 73.262685 122.24568 
L 73.814157 121.542731 
L 74.365629 125.520391 
L 74.917101 123.22295 
L 75.468573 123.703012 
L 76.020045 124.285945 
L 76.571516 124.697427 
L 77.122988 123.188659 
L 77.67446 124.988893 
L 78.225932 126.994868 
L 78.777404 126.754837 
L 79.328876 126.034743 
L 79.880348 126.514806 
L 80.43182 127.029158 
L 80.983291 127.029158 
L 81.534763 127.37206 
L 82.086235 127.200609 
L 82.637707 128.263604 
L 83.189179 128.949407 
L 83.740651 130.955382 
L 84.292123 130.801076 
L 84.843595 131.126833 
L 85.395066 130.61248 
L 85.946538 132.052667 
L 86.49801 130.818221 
L 87.049482 132.035522 
L 87.600954 131.692621 
L 88.152426 133.71574 
L 88.703898 132.927067 
L 89.255369 133.355694 
L 89.806841 132.172683 
L 90.358313 133.887191 
L 90.909785 134.915896 
L 91.461257 133.57858 
" clip-path="url(#peaa328ab7f)" style="fill: none; stroke: #008e00; stroke-width: 2.5; stroke-linecap: square"/>
   </g>
   <g id="line2d_55">
    <path d="M 28.041992 114.033185 
L 28.593464 111.324262 
L 29.144935 110.535588 
L 29.696407 112.678723 
L 30.247879 110.98136 
L 30.799351 111.684309 
L 31.350823 112.010065 
L 31.902295 110.964215 
L 32.453767 111.135666 
L 33.005239 110.775619 
L 33.55671 113.244511 
L 34.108182 110.809909 
L 34.659654 109.249707 
L 35.211126 108.529613 
L 35.762598 109.232562 
L 36.31407 111.169956 
L 36.865542 109.781204 
L 37.417013 108.598194 
L 37.968485 105.769255 
L 38.519957 106.197882 
L 39.071429 105.254902 
L 39.622901 104.123327 
L 40.174373 108.752499 
L 40.725845 106.386478 
L 41.277317 105.477789 
L 41.828788 104.397648 
L 42.38026 105.306338 
L 42.931732 106.986556 
L 43.483204 103.523249 
L 44.034676 104.74055 
L 44.586148 103.62612 
L 45.13762 104.791985 
L 45.689092 102.734575 
L 46.240563 101.911611 
L 46.792035 104.123327 
L 47.343507 102.134497 
L 47.894979 101.980192 
L 48.446451 103.488959 
L 48.997923 102.734575 
L 49.549395 104.329068 
L 50.100867 102.203078 
L 50.652338 102.974606 
L 51.20381 102.734575 
L 51.755282 101.620145 
L 52.306754 104.449084 
L 52.858226 103.6947 
L 53.409698 101.757306 
L 53.96117 102.100207 
L 54.512642 101.174373 
L 55.064113 101.825886 
L 55.615585 102.374529 
L 56.167057 102.151642 
L 56.718529 103.334653 
L 57.270001 103.146057 
L 57.821473 102.700285 
L 58.372945 104.963436 
L 58.924416 105.460643 
L 59.475888 104.843421 
L 60.02736 102.940316 
L 60.578832 107.706649 
L 61.130304 106.266462 
L 61.681776 106.232172 
L 62.233248 104.70626 
L 62.78472 105.357773 
L 63.336191 108.118131 
L 63.887663 106.163592 
L 64.439135 106.523639 
L 64.990607 107.037991 
L 65.542079 107.535199 
L 66.093551 109.043966 
L 66.645023 109.386868 
L 67.196495 110.501298 
L 67.747966 108.272437 
L 68.299438 110.94707 
L 68.85091 111.392842 
L 69.402382 112.250096 
L 69.953854 114.564683 
L 70.505326 112.644433 
L 71.056798 113.433107 
L 71.60827 114.667553 
L 72.159741 113.278801 
L 72.711213 115.010455 
L 73.262685 113.00448 
L 73.814157 116.296336 
L 74.365629 116.930704 
L 74.917101 117.650798 
L 75.468573 117.633653 
L 76.020045 116.690673 
L 76.571516 118.662357 
L 77.122988 120.15398 
L 77.67446 120.754058 
L 78.225932 119.14242 
L 78.777404 120.171125 
L 79.328876 120.651187 
L 79.880348 122.331405 
L 80.43182 121.439861 
L 80.983291 122.382841 
L 81.534763 121.508441 
L 82.086235 121.148395 
L 82.637707 122.982918 
L 83.189179 123.994478 
L 83.740651 124.525976 
L 84.292123 125.623261 
L 84.843595 125.194634 
L 85.395066 126.240484 
L 85.946538 124.903168 
L 86.49801 126.49766 
L 87.049482 129.446615 
L 87.600954 127.252044 
L 88.152426 127.852122 
L 88.703898 127.269189 
L 89.255369 128.006428 
L 89.806841 128.657941 
L 90.358313 130.852512 
L 90.909785 128.297894 
L 91.461257 130.732496 
" clip-path="url(#peaa328ab7f)" style="fill: none; stroke: #ffb14e; stroke-width: 2.5; stroke-linecap: square"/>
   </g>
   <g id="patch_18">
    <path d="M 28.1 154.992789 
L 28.1 89.441024 
" style="fill: none; stroke: #000000; stroke-width: 0.8; stroke-linejoin: miter; stroke-linecap: square"/>
   </g>
   <g id="patch_19">
    <path d="M 91.1 154.992789 
L 91.1 89.441024 
" style="fill: none; stroke: #000000; stroke-width: 0.8; stroke-linejoin: miter; stroke-linecap: square"/>
   </g>
   <g id="patch_20">
    <path d="M 28.1 154.992789 
L 91.1 154.992789 
" style="fill: none; stroke: #000000; stroke-width: 0.8; stroke-linejoin: miter; stroke-linecap: square"/>
   </g>
   <g id="patch_21">
    <path d="M 28.1 89.441024 
L 91.1 89.441024 
" style="fill: none; stroke: #000000; stroke-width: 0.8; stroke-linejoin: miter; stroke-linecap: square"/>
   </g>
  </g>
  <g id="axes_5">
   <g id="patch_22">
    <path d="M 28.1 233.654906 
L 91.1 233.654906 
L 91.1 168.103142 
L 28.1 168.103142 
z
" style="fill: #ffffff"/>
   </g>
   <g id="matplotlib.axis_9">
    <g id="xtick_29">
     <g id="line2d_56">
      <g>
       <use xlink:href="#m2b1f88b726" x="28.1" y="233.654906" style="stroke: #000000; stroke-width: 0.8"/>
      </g>
     </g>
     <g id="text_6">
      <!-- 10 -->
      <g transform="translate(22.539062 247.812719) scale(0.1 -0.1)">
       <use xlink:href="#ArialMT-31"/>
       <use xlink:href="#ArialMT-30" x="55.615234"/>
      </g>
     </g>
    </g>
    <g id="xtick_30">
     <g id="line2d_57">
      <g>
       <use xlink:href="#m2b1f88b726" x="70.1" y="233.654906" style="stroke: #000000; stroke-width: 0.8"/>
      </g>
     </g>
     <g id="text_7">
      <!-- 12 -->
      <g transform="translate(64.539062 247.812719) scale(0.1 -0.1)">
       <use xlink:href="#ArialMT-31"/>
       <use xlink:href="#ArialMT-32" x="55.615234"/>
      </g>
     </g>
    </g>
    <g id="xtick_31">
     <g id="line2d_58">
      <g>
       <use xlink:href="#m452b6d4ff4" x="38.6" y="233.654906" style="stroke: #000000; stroke-width: 0.6"/>
      </g>
     </g>
    </g>
    <g id="xtick_32">
     <g id="line2d_59">
      <g>
       <use xlink:href="#m452b6d4ff4" x="49.1" y="233.654906" style="stroke: #000000; stroke-width: 0.6"/>
      </g>
     </g>
    </g>
    <g id="xtick_33">
     <g id="line2d_60">
      <g>
       <use xlink:href="#m452b6d4ff4" x="59.6" y="233.654906" style="stroke: #000000; stroke-width: 0.6"/>
      </g>
     </g>
    </g>
    <g id="xtick_34">
     <g id="line2d_61">
      <g>
       <use xlink:href="#m452b6d4ff4" x="80.6" y="233.654906" style="stroke: #000000; stroke-width: 0.6"/>
      </g>
     </g>
    </g>
    <g id="xtick_35">
     <g id="line2d_62">
      <g>
       <use xlink:href="#m452b6d4ff4" x="91.1" y="233.654906" style="stroke: #000000; stroke-width: 0.6"/>
      </g>
     </g>
    </g>
   </g>
   <g id="matplotlib.axis_10">
    <g id="ytick_16">
     <g id="line2d_63"/>
    </g>
    <g id="ytick_17">
     <g id="line2d_64"/>
    </g>
   </g>
   <g id="line2d_65">
    <path d="M 28.041992 202.690886 
L 28.593464 205.862727 
L 29.144935 206.205628 
L 29.696407 206.342789 
L 30.247879 208.314473 
L 30.799351 207.285768 
L 31.350823 210.371883 
L 31.902295 209.137437 
L 32.453767 211.67491 
L 33.005239 209.72037 
L 33.55671 209.308888 
L 34.108182 211.503459 
L 34.659654 209.034567 
L 35.211126 209.308888 
L 35.762598 210.354738 
L 36.31407 210.851946 
L 36.865542 208.691665 
L 37.417013 211.589184 
L 37.968485 210.937671 
L 38.519957 209.223163 
L 39.071429 210.474754 
L 39.622901 210.389028 
L 40.174373 209.840386 
L 40.725845 207.885846 
L 41.277317 208.623085 
L 41.828788 208.691665 
L 42.38026 208.125877 
L 42.931732 208.794536 
L 43.483204 208.760246 
L 44.034676 209.703225 
L 44.586148 208.777391 
L 45.13762 209.274598 
L 45.689092 207.371494 
L 46.240563 209.446049 
L 46.792035 211.77778 
L 47.343507 207.817266 
L 47.894979 208.657375 
L 48.446451 209.497484 
L 48.997923 208.811681 
L 49.549395 207.388639 
L 50.100867 208.297328 
L 50.652338 207.182898 
L 51.20381 206.274209 
L 51.755282 207.045737 
L 52.306754 207.491509 
L 52.858226 207.097173 
L 53.409698 206.47995 
L 53.96117 206.47995 
L 54.512642 206.291354 
L 55.064113 205.931307 
L 55.615585 206.51424 
L 56.167057 205.159778 
L 56.718529 205.451245 
L 57.270001 205.296939 
L 57.821473 204.936892 
L 58.372945 204.285379 
L 58.924416 205.879872 
L 59.475888 201.713616 
L 60.02736 203.290964 
L 60.578832 204.919747 
L 61.130304 200.359155 
L 61.681776 203.908187 
L 62.233248 203.342399 
L 62.78472 203.856752 
L 63.336191 203.496705 
L 63.887663 202.53658 
L 64.439135 204.388249 
L 64.990607 203.908187 
L 65.542079 204.302524 
L 66.093551 207.131463 
L 66.645023 206.891432 
L 67.196495 207.611525 
L 67.747966 208.108732 
L 68.299438 208.520214 
L 68.85091 208.60594 
L 69.402382 209.72037 
L 69.953854 210.560479 
L 70.505326 211.006251 
L 71.056798 211.606329 
L 71.60827 212.223552 
L 72.159741 211.074832 
L 72.711213 214.058076 
L 73.262685 211.966376 
L 73.814157 213.852335 
L 74.365629 214.84675 
L 74.917101 215.052491 
L 75.468573 215.275377 
L 76.020045 214.486703 
L 76.571516 216.304082 
L 77.122988 214.863895 
L 77.67446 215.686859 
L 78.225932 216.406953 
L 78.777404 215.583989 
L 79.328876 217.384222 
L 79.880348 218.92728 
L 80.43182 218.172896 
L 80.983291 217.932865 
L 81.534763 217.795704 
L 82.086235 218.087171 
L 82.637707 218.944425 
L 83.189179 221.138996 
L 83.740651 218.447218 
L 84.292123 219.698809 
L 84.843595 219.664518 
L 85.395066 221.293301 
L 85.946538 221.516187 
L 86.49801 220.864674 
L 87.049482 221.293301 
L 87.600954 221.584768 
L 88.152426 220.453192 
L 88.703898 220.830384 
L 89.255369 223.985079 
L 89.806841 222.870649 
L 90.358313 222.459167 
L 90.909785 222.596328 
L 91.461257 222.544892 
" clip-path="url(#p87655cd61b)" style="fill: none; stroke: #000000; stroke-width: 2.5; stroke-linecap: square"/>
   </g>
   <g id="line2d_66">
    <path d="M 28.041992 193.724008 
L 28.593464 193.038204 
L 29.144935 191.426567 
L 29.696407 195.164195 
L 30.247879 193.312526 
L 30.799351 194.546972 
L 31.350823 199.913383 
L 31.902295 199.244724 
L 32.453767 200.530606 
L 33.005239 199.038983 
L 33.55671 200.976378 
L 34.108182 202.828047 
L 34.659654 205.074053 
L 35.211126 203.273819 
L 35.762598 204.611135 
L 36.31407 204.799731 
L 36.865542 202.913772 
L 37.417013 204.405394 
L 37.968485 205.725566 
L 38.519957 204.611135 
L 39.071429 204.148218 
L 39.622901 204.113928 
L 40.174373 202.468 
L 40.725845 203.54814 
L 41.277317 203.428125 
L 41.828788 203.753881 
L 42.38026 204.645426 
L 42.931732 204.473975 
L 43.483204 201.662181 
L 44.034676 201.902212 
L 44.586148 202.845192 
L 45.13762 203.959622 
L 45.689092 200.221994 
L 46.240563 202.073663 
L 46.792035 203.47956 
L 47.343507 203.033788 
L 47.894979 201.044958 
L 48.446451 201.816487 
L 48.997923 203.428125 
L 49.549395 199.964818 
L 50.100867 201.559311 
L 50.652338 200.890652 
L 51.20381 199.930528 
L 51.755282 199.981963 
L 52.306754 201.593601 
L 52.858226 198.747517 
L 53.409698 199.690497 
L 53.96117 199.43332 
L 54.512642 198.38747 
L 55.064113 200.719202 
L 55.615585 201.147829 
L 56.167057 199.896238 
L 56.718529 200.907798 
L 57.270001 199.107564 
L 57.821473 197.821683 
L 58.372945 198.541776 
L 58.924416 197.615942 
L 59.475888 196.878703 
L 60.02736 199.193289 
L 60.578832 197.358765 
L 61.130304 197.358765 
L 61.681776 196.175755 
L 62.233248 198.404615 
L 62.78472 195.935723 
L 63.336191 196.895848 
L 63.887663 195.867143 
L 64.439135 195.987159 
L 64.990607 195.695692 
L 65.542079 194.924164 
L 66.093551 194.975599 
L 66.645023 196.501511 
L 67.196495 197.187314 
L 67.747966 196.621527 
L 68.299438 197.770247 
L 68.85091 200.44488 
L 69.402382 200.993523 
L 69.953854 199.158999 
L 70.505326 200.873507 
L 71.056798 203.050933 
L 71.60827 201.696471 
L 72.159741 204.302524 
L 72.711213 204.148218 
L 73.262685 206.342789 
L 73.814157 205.348374 
L 74.365629 205.46839 
L 74.917101 205.416954 
L 75.468573 208.383054 
L 76.020045 206.771416 
L 76.571516 209.72037 
L 77.122988 210.680495 
L 77.67446 210.834801 
L 78.225932 210.73193 
L 78.777404 209.206018 
L 79.328876 211.383443 
L 79.880348 211.914941 
L 80.43182 212.446438 
L 80.983291 212.995081 
L 81.534763 214.418123 
L 82.086235 214.658154 
L 82.637707 214.469558 
L 83.189179 215.086781 
L 83.740651 216.338372 
L 84.292123 214.452413 
L 84.843595 215.635424 
L 85.395066 216.97274 
L 85.946538 216.252647 
L 86.49801 218.96157 
L 87.049482 217.435658 
L 87.600954 217.555673 
L 88.152426 218.104316 
L 88.703898 219.750244 
L 89.255369 218.704394 
L 89.806841 218.635813 
L 90.358313 219.613083 
L 90.909785 219.750244 
L 91.461257 219.835969 
" clip-path="url(#p87655cd61b)" style="fill: none; stroke: #008e00; stroke-width: 2.5; stroke-linecap: square"/>
   </g>
   <g id="line2d_67">
    <path d="M 28.041992 194.752713 
L 28.593464 194.495536 
L 29.144935 196.861558 
L 29.696407 193.912604 
L 30.247879 198.438906 
L 30.799351 198.781807 
L 31.350823 198.130294 
L 31.902295 199.930528 
L 32.453767 199.124709 
L 33.005239 197.907408 
L 33.55671 200.582041 
L 34.108182 199.536191 
L 34.659654 200.890652 
L 35.211126 201.096393 
L 35.762598 201.52502 
L 36.31407 201.645036 
L 36.865542 201.079248 
L 37.417013 199.981963 
L 37.968485 200.239139 
L 38.519957 199.570481 
L 39.071429 198.713227 
L 39.622901 198.953258 
L 40.174373 200.067688 
L 40.725845 199.707642 
L 41.277317 198.644647 
L 41.828788 199.038983 
L 42.38026 197.23875 
L 42.931732 197.290185 
L 43.483204 198.181729 
L 44.034676 197.804537 
L 44.586148 198.901823 
L 45.13762 197.650232 
L 45.689092 197.753102 
L 46.240563 199.021838 
L 46.792035 196.535801 
L 47.343507 196.021449 
L 47.894979 195.661402 
L 48.446451 196.450076 
L 48.997923 197.135879 
L 49.549395 196.432931 
L 50.100867 194.324086 
L 50.652338 195.987159 
L 51.20381 195.009889 
L 51.755282 194.461246 
L 52.306754 194.889873 
L 52.858226 197.615942 
L 53.409698 194.598407 
L 53.96117 195.095614 
L 54.512642 195.267065 
L 55.064113 193.981184 
L 55.615585 194.666987 
L 56.167057 192.969624 
L 56.718529 193.346816 
L 57.270001 192.318111 
L 57.821473 193.621137 
L 58.372945 192.300966 
L 58.924416 192.798173 
L 59.475888 192.420981 
L 60.02736 194.27265 
L 60.578832 191.820903 
L 61.130304 192.712448 
L 61.681776 192.746738 
L 62.233248 193.055349 
L 62.78472 193.055349 
L 63.336191 192.969624 
L 63.887663 191.632308 
L 64.439135 191.992354 
L 64.990607 192.420981 
L 65.542079 193.038204 
L 66.093551 193.381106 
L 66.645023 192.729593 
L 67.196495 194.186925 
L 67.747966 194.495536 
L 68.299438 196.570091 
L 68.85091 195.14705 
L 69.402382 196.210045 
L 69.953854 198.473196 
L 70.505326 195.661402 
L 71.056798 199.158999 
L 71.60827 198.010278 
L 72.159741 200.067688 
L 72.711213 200.427735 
L 73.262685 201.799342 
L 73.814157 201.42215 
L 74.365629 202.690886 
L 74.917101 203.633866 
L 75.468573 204.165363 
L 76.020045 204.696861 
L 76.571516 205.108343 
L 77.122988 206.359934 
L 77.67446 206.51424 
L 78.225932 206.085613 
L 78.777404 205.399809 
L 79.328876 206.342789 
L 79.880348 211.057687 
L 80.43182 210.320448 
L 80.983291 210.148997 
L 81.534763 209.497484 
L 82.086235 210.303303 
L 82.637707 210.954816 
L 83.189179 212.172117 
L 83.740651 212.240697 
L 84.292123 213.217967 
L 84.843595 212.617889 
L 85.395066 214.280962 
L 85.946538 213.886625 
L 86.49801 212.583599 
L 87.049482 213.612304 
L 87.600954 215.635424 
L 88.152426 215.549698 
L 88.703898 214.503848 
L 89.255369 215.069636 
L 89.806841 216.681274 
L 90.358313 216.93845 
L 90.909785 218.910135 
L 91.461257 217.709979 
" clip-path="url(#p87655cd61b)" style="fill: none; stroke: #ffb14e; stroke-width: 2.5; stroke-linecap: square"/>
   </g>
   <g id="patch_23">
    <path d="M 28.1 233.654906 
L 28.1 168.103142 
" style="fill: none; stroke: #000000; stroke-width: 0.8; stroke-linejoin: miter; stroke-linecap: square"/>
   </g>
   <g id="patch_24">
    <path d="M 91.1 233.654906 
L 91.1 168.103142 
" style="fill: none; stroke: #000000; stroke-width: 0.8; stroke-linejoin: miter; stroke-linecap: square"/>
   </g>
   <g id="patch_25">
    <path d="M 28.1 233.654906 
L 91.1 233.654906 
" style="fill: none; stroke: #000000; stroke-width: 0.8; stroke-linejoin: miter; stroke-linecap: square"/>
   </g>
   <g id="patch_26">
    <path d="M 28.1 168.103142 
L 91.1 168.103142 
" style="fill: none; stroke: #000000; stroke-width: 0.8; stroke-linejoin: miter; stroke-linecap: square"/>
   </g>
  </g>
  <g id="axes_6">
   <g id="matplotlib.axis_11">
    <g id="xtick_36">
     <g id="text_8">
      <!-- 0.0 -->
      <g style="opacity: 0" transform="translate(21.15 247.812719) scale(0.1 -0.1)">
       <defs>
        <path id="ArialMT-2e" d="M 581 0 
L 581 641 
L 1222 641 
L 1222 0 
L 581 0 
z
" transform="scale(0.015625)"/>
       </defs>
       <use xlink:href="#ArialMT-30"/>
       <use xlink:href="#ArialMT-2e" x="55.615234"/>
       <use xlink:href="#ArialMT-30" x="83.398438"/>
      </g>
     </g>
    </g>
    <g id="xtick_37">
     <g id="text_9">
      <!-- 0.2 -->
      <g style="opacity: 0" transform="translate(60.21 247.812719) scale(0.1 -0.1)">
       <use xlink:href="#ArialMT-30"/>
       <use xlink:href="#ArialMT-2e" x="55.615234"/>
       <use xlink:href="#ArialMT-32" x="83.398438"/>
      </g>
     </g>
    </g>
    <g id="xtick_38">
     <g id="text_10">
      <!-- 0.4 -->
      <g style="opacity: 0" transform="translate(99.27 247.812719) scale(0.1 -0.1)">
       <defs>
        <path id="ArialMT-34" d="M 2069 0 
L 2069 1097 
L 81 1097 
L 81 1613 
L 2172 4581 
L 2631 4581 
L 2631 1613 
L 3250 1613 
L 3250 1097 
L 2631 1097 
L 2631 0 
L 2069 0 
z
M 2069 1613 
L 2069 3678 
L 634 1613 
L 2069 1613 
z
" transform="scale(0.015625)"/>
       </defs>
       <use xlink:href="#ArialMT-30"/>
       <use xlink:href="#ArialMT-2e" x="55.615234"/>
       <use xlink:href="#ArialMT-34" x="83.398438"/>
      </g>
     </g>
    </g>
    <g id="xtick_39">
     <g id="text_11">
      <!-- 0.6 -->
      <g style="opacity: 0" transform="translate(138.33 247.812719) scale(0.1 -0.1)">
       <defs>
        <path id="ArialMT-36" d="M 3184 3459 
L 2625 3416 
Q 2550 3747 2413 3897 
Q 2184 4138 1850 4138 
Q 1581 4138 1378 3988 
Q 1113 3794 959 3422 
Q 806 3050 800 2363 
Q 1003 2672 1297 2822 
Q 1591 2972 1913 2972 
Q 2475 2972 2870 2558 
Q 3266 2144 3266 1488 
Q 3266 1056 3080 686 
Q 2894 316 2569 119 
Q 2244 -78 1831 -78 
Q 1128 -78 684 439 
Q 241 956 241 2144 
Q 241 3472 731 4075 
Q 1159 4600 1884 4600 
Q 2425 4600 2770 4297 
Q 3116 3994 3184 3459 
z
M 888 1484 
Q 888 1194 1011 928 
Q 1134 663 1356 523 
Q 1578 384 1822 384 
Q 2178 384 2434 671 
Q 2691 959 2691 1453 
Q 2691 1928 2437 2201 
Q 2184 2475 1800 2475 
Q 1419 2475 1153 2201 
Q 888 1928 888 1484 
z
" transform="scale(0.015625)"/>
       </defs>
       <use xlink:href="#ArialMT-30"/>
       <use xlink:href="#ArialMT-2e" x="55.615234"/>
       <use xlink:href="#ArialMT-36" x="83.398438"/>
      </g>
     </g>
    </g>
    <g id="xtick_40">
     <g id="text_12">
      <!-- 0.8 -->
      <g style="opacity: 0" transform="translate(177.39 247.812719) scale(0.1 -0.1)">
       <defs>
        <path id="ArialMT-38" d="M 1131 2484 
Q 781 2613 612 2850 
Q 444 3088 444 3419 
Q 444 3919 803 4259 
Q 1163 4600 1759 4600 
Q 2359 4600 2725 4251 
Q 3091 3903 3091 3403 
Q 3091 3084 2923 2848 
Q 2756 2613 2416 2484 
Q 2838 2347 3058 2040 
Q 3278 1734 3278 1309 
Q 3278 722 2862 322 
Q 2447 -78 1769 -78 
Q 1091 -78 675 323 
Q 259 725 259 1325 
Q 259 1772 486 2073 
Q 713 2375 1131 2484 
z
M 1019 3438 
Q 1019 3113 1228 2906 
Q 1438 2700 1772 2700 
Q 2097 2700 2305 2904 
Q 2513 3109 2513 3406 
Q 2513 3716 2298 3927 
Q 2084 4138 1766 4138 
Q 1444 4138 1231 3931 
Q 1019 3725 1019 3438 
z
M 838 1322 
Q 838 1081 952 856 
Q 1066 631 1291 507 
Q 1516 384 1775 384 
Q 2178 384 2440 643 
Q 2703 903 2703 1303 
Q 2703 1709 2433 1975 
Q 2163 2241 1756 2241 
Q 1359 2241 1098 1978 
Q 838 1716 838 1322 
z
" transform="scale(0.015625)"/>
       </defs>
       <use xlink:href="#ArialMT-30"/>
       <use xlink:href="#ArialMT-2e" x="55.615234"/>
       <use xlink:href="#ArialMT-38" x="83.398438"/>
      </g>
     </g>
    </g>
    <g id="xtick_41">
     <g id="text_13">
      <!-- 1.0 -->
      <g style="opacity: 0" transform="translate(216.45 247.812719) scale(0.1 -0.1)">
       <use xlink:href="#ArialMT-31"/>
       <use xlink:href="#ArialMT-2e" x="55.615234"/>
       <use xlink:href="#ArialMT-30" x="83.398438"/>
      </g>
     </g>
    </g>
    <g id="text_14">
     <!-- 2 (degrees) -->
     <g transform="translate(86.064375 263.991781) scale(0.14 -0.14)">
      <defs>
       <path id="ArialMT-3b8" d="M 288 2291 
Q 288 4659 1781 4659 
Q 3275 4659 3275 2291 
Q 3275 -75 1781 -75 
Q 288 -75 288 2291 
z
M 869 2519 
L 2694 2519 
Q 2663 3497 2413 3847 
Q 2163 4197 1775 4197 
Q 903 4197 869 2519 
z
M 2694 2066 
L 869 2066 
Q 903 388 1781 388 
Q 2663 388 2694 2066 
z
" transform="scale(0.015625)"/>
       <path id="ArialMT-20" transform="scale(0.015625)"/>
       <path id="ArialMT-28" d="M 1497 -1347 
Q 1031 -759 709 28 
Q 388 816 388 1659 
Q 388 2403 628 3084 
Q 909 3875 1497 4659 
L 1900 4659 
Q 1522 4009 1400 3731 
Q 1209 3300 1100 2831 
Q 966 2247 966 1656 
Q 966 153 1900 -1347 
L 1497 -1347 
z
" transform="scale(0.015625)"/>
       <path id="ArialMT-64" d="M 2575 0 
L 2575 419 
Q 2259 -75 1647 -75 
Q 1250 -75 917 144 
Q 584 363 401 755 
Q 219 1147 219 1656 
Q 219 2153 384 2558 
Q 550 2963 881 3178 
Q 1213 3394 1622 3394 
Q 1922 3394 2156 3267 
Q 2391 3141 2538 2938 
L 2538 4581 
L 3097 4581 
L 3097 0 
L 2575 0 
z
M 797 1656 
Q 797 1019 1065 703 
Q 1334 388 1700 388 
Q 2069 388 2326 689 
Q 2584 991 2584 1609 
Q 2584 2291 2321 2609 
Q 2059 2928 1675 2928 
Q 1300 2928 1048 2622 
Q 797 2316 797 1656 
z
" transform="scale(0.015625)"/>
       <path id="ArialMT-67" d="M 319 -275 
L 866 -356 
Q 900 -609 1056 -725 
Q 1266 -881 1628 -881 
Q 2019 -881 2231 -725 
Q 2444 -569 2519 -288 
Q 2563 -116 2559 434 
Q 2191 0 1641 0 
Q 956 0 581 494 
Q 206 988 206 1678 
Q 206 2153 378 2554 
Q 550 2956 876 3175 
Q 1203 3394 1644 3394 
Q 2231 3394 2613 2919 
L 2613 3319 
L 3131 3319 
L 3131 450 
Q 3131 -325 2973 -648 
Q 2816 -972 2473 -1159 
Q 2131 -1347 1631 -1347 
Q 1038 -1347 672 -1080 
Q 306 -813 319 -275 
z
M 784 1719 
Q 784 1066 1043 766 
Q 1303 466 1694 466 
Q 2081 466 2343 764 
Q 2606 1063 2606 1700 
Q 2606 2309 2336 2618 
Q 2066 2928 1684 2928 
Q 1309 2928 1046 2623 
Q 784 2319 784 1719 
z
" transform="scale(0.015625)"/>
       <path id="ArialMT-72" d="M 416 0 
L 416 3319 
L 922 3319 
L 922 2816 
Q 1116 3169 1280 3281 
Q 1444 3394 1641 3394 
Q 1925 3394 2219 3213 
L 2025 2691 
Q 1819 2813 1613 2813 
Q 1428 2813 1281 2702 
Q 1134 2591 1072 2394 
Q 978 2094 978 1738 
L 978 0 
L 416 0 
z
" transform="scale(0.015625)"/>
       <path id="ArialMT-29" d="M 791 -1347 
L 388 -1347 
Q 1322 153 1322 1656 
Q 1322 2244 1188 2822 
Q 1081 3291 891 3722 
Q 769 4003 388 4659 
L 791 4659 
Q 1378 3875 1659 3084 
Q 1900 2403 1900 1659 
Q 1900 816 1576 28 
Q 1253 -759 791 -1347 
z
" transform="scale(0.015625)"/>
      </defs>
      <use xlink:href="#ArialMT-32"/>
      <use xlink:href="#ArialMT-3b8" x="55.615234"/>
      <use xlink:href="#ArialMT-20" x="111.230469"/>
      <use xlink:href="#ArialMT-28" x="139.013672"/>
      <use xlink:href="#ArialMT-64" x="172.314453"/>
      <use xlink:href="#ArialMT-65" x="227.929688"/>
      <use xlink:href="#ArialMT-67" x="283.544922"/>
      <use xlink:href="#ArialMT-72" x="339.160156"/>
      <use xlink:href="#ArialMT-65" x="372.460938"/>
      <use xlink:href="#ArialMT-65" x="428.076172"/>
      <use xlink:href="#ArialMT-73" x="483.691406"/>
      <use xlink:href="#ArialMT-29" x="533.691406"/>
     </g>
    </g>
   </g>
   <g id="matplotlib.axis_12">
    <g id="ytick_18">
     <g id="text_15">
      <!-- 0.0 -->
      <g style="opacity: 0" transform="translate(7.2 237.233812) scale(0.1 -0.1)">
       <use xlink:href="#ArialMT-30"/>
       <use xlink:href="#ArialMT-2e" x="55.615234"/>
       <use xlink:href="#ArialMT-30" x="83.398438"/>
      </g>
     </g>
    </g>
    <g id="ytick_19">
     <g id="text_16">
      <!-- 0.2 -->
      <g style="opacity: 0" transform="translate(7.2 192.658613) scale(0.1 -0.1)">
       <use xlink:href="#ArialMT-30"/>
       <use xlink:href="#ArialMT-2e" x="55.615234"/>
       <use xlink:href="#ArialMT-32" x="83.398438"/>
      </g>
     </g>
    </g>
    <g id="ytick_20">
     <g id="text_17">
      <!-- 0.4 -->
      <g style="opacity: 0" transform="translate(7.2 148.083412) scale(0.1 -0.1)">
       <use xlink:href="#ArialMT-30"/>
       <use xlink:href="#ArialMT-2e" x="55.615234"/>
       <use xlink:href="#ArialMT-34" x="83.398438"/>
      </g>
     </g>
    </g>
    <g id="ytick_21">
     <g id="text_18">
      <!-- 0.6 -->
      <g style="opacity: 0" transform="translate(7.2 103.508212) scale(0.1 -0.1)">
       <use xlink:href="#ArialMT-30"/>
       <use xlink:href="#ArialMT-2e" x="55.615234"/>
       <use xlink:href="#ArialMT-36" x="83.398438"/>
      </g>
     </g>
    </g>
    <g id="ytick_22">
     <g id="text_19">
      <!-- 0.8 -->
      <g style="opacity: 0" transform="translate(7.2 58.933012) scale(0.1 -0.1)">
       <use xlink:href="#ArialMT-30"/>
       <use xlink:href="#ArialMT-2e" x="55.615234"/>
       <use xlink:href="#ArialMT-38" x="83.398438"/>
      </g>
     </g>
    </g>
    <g id="ytick_23">
     <g id="text_20">
      <!-- 1.0 -->
      <g style="opacity: 0" transform="translate(7.2 14.357812) scale(0.1 -0.1)">
       <use xlink:href="#ArialMT-31"/>
       <use xlink:href="#ArialMT-2e" x="55.615234"/>
       <use xlink:href="#ArialMT-30" x="83.398438"/>
      </g>
     </g>
    </g>
   </g>
  </g>
 </g>
 <defs>
  <clipPath id="pcdeb3b6d8c">
   <rect x="94.25" y="10.778906" width="63" height="222.876"/>
  </clipPath>
  <clipPath id="pb53911c543">
   <rect x="160.4" y="89.441024" width="63" height="144.213882"/>
  </clipPath>
  <clipPath id="p5c79fd6f54">
   <rect x="28.1" y="10.778906" width="63" height="65.551765"/>
  </clipPath>
  <clipPath id="peaa328ab7f">
   <rect x="28.1" y="89.441024" width="63" height="65.551765"/>
  </clipPath>
  <clipPath id="p87655cd61b">
   <rect x="28.1" y="168.103142" width="63" height="65.551765"/>
  </clipPath>
 </defs>
</svg>
