<?xml version="1.0" encoding="utf-8" standalone="no"?>
<!DOCTYPE svg PUBLIC "-//W3C//DTD SVG 1.1//EN"
  "http://www.w3.org/Graphics/SVG/1.1/DTD/svg11.dtd">
<svg xmlns:xlink="http://www.w3.org/1999/xlink" width="525.565625pt" height="590.16625pt" viewBox="0 0 525.565625 590.16625" xmlns="http://www.w3.org/2000/svg" version="1.1">
 <metadata>
  <rdf:RDF xmlns:dc="http://purl.org/dc/elements/1.1/" xmlns:cc="http://creativecommons.org/ns#" xmlns:rdf="http://www.w3.org/1999/02/22-rdf-syntax-ns#">
   <cc:Work>
    <dc:type rdf:resource="http://purl.org/dc/dcmitype/StillImage"/>
    <dc:date>2023-10-09T13:38:03.342857</dc:date>
    <dc:format>image/svg+xml</dc:format>
    <dc:creator>
     <cc:Agent>
      <dc:title>Matplotlib v3.7.1, https://matplotlib.org/</dc:title>
     </cc:Agent>
    </dc:creator>
   </cc:Work>
  </rdf:RDF>
 </metadata>
 <defs>
  <style type="text/css">*{stroke-linejoin: round; stroke-linecap: butt}</style>
 </defs>
 <g id="figure_1">
  <g id="patch_1">
   <path d="M 0 590.16625 
L 525.565625 590.16625 
L 525.565625 0 
L 0 0 
z
" style="fill: #ffffff"/>
  </g>
  <g id="axes_1">
   <g id="patch_2">
    <path d="M 38.504688 566.820937 
L 191.504687 566.820937 
L 191.504687 23.220937 
L 38.504688 23.220937 
z
" style="fill: #ffffff"/>
   </g>
   <g id="matplotlib.axis_1">
    <g id="xtick_1">
     <g id="line2d_1">
      <defs>
       <path id="m4ca20da978" d="M 0 0 
L 0 3.5 
" style="stroke: #000000; stroke-width: 0.8"/>
      </defs>
      <g>
       <use xlink:href="#m4ca20da978" x="38.504688" y="566.820937" style="stroke: #000000; stroke-width: 0.8"/>
      </g>
     </g>
     <g id="text_1">
      <!-- 10 -->
      <g transform="translate(32.94375 580.97875) scale(0.1 -0.1)">
       <defs>
        <path id="ArialMT-31" d="M 2384 0 
L 1822 0 
L 1822 3584 
Q 1619 3391 1289 3197 
Q 959 3003 697 2906 
L 697 3450 
Q 1169 3672 1522 3987 
Q 1875 4303 2022 4600 
L 2384 4600 
L 2384 0 
z
" transform="scale(0.015625)"/>
        <path id="ArialMT-30" d="M 266 2259 
Q 266 3072 433 3567 
Q 600 4063 929 4331 
Q 1259 4600 1759 4600 
Q 2128 4600 2406 4451 
Q 2684 4303 2865 4023 
Q 3047 3744 3150 3342 
Q 3253 2941 3253 2259 
Q 3253 1453 3087 958 
Q 2922 463 2592 192 
Q 2263 -78 1759 -78 
Q 1097 -78 719 397 
Q 266 969 266 2259 
z
M 844 2259 
Q 844 1131 1108 757 
Q 1372 384 1759 384 
Q 2147 384 2411 759 
Q 2675 1134 2675 2259 
Q 2675 3391 2411 3762 
Q 2147 4134 1753 4134 
Q 1366 4134 1134 3806 
Q 844 3388 844 2259 
z
" transform="scale(0.015625)"/>
       </defs>
       <use xlink:href="#ArialMT-31"/>
       <use xlink:href="#ArialMT-30" x="55.615234"/>
      </g>
     </g>
    </g>
    <g id="xtick_2">
     <g id="line2d_2">
      <g>
       <use xlink:href="#m4ca20da978" x="89.504688" y="566.820937" style="stroke: #000000; stroke-width: 0.8"/>
      </g>
     </g>
     <g id="text_2">
      <!-- 11 -->
      <g transform="translate(84.3125 580.97875) scale(0.1 -0.1)">
       <use xlink:href="#ArialMT-31"/>
       <use xlink:href="#ArialMT-31" x="48.240234"/>
      </g>
     </g>
    </g>
    <g id="xtick_3">
     <g id="line2d_3">
      <g>
       <use xlink:href="#m4ca20da978" x="140.504688" y="566.820937" style="stroke: #000000; stroke-width: 0.8"/>
      </g>
     </g>
     <g id="text_3">
      <!-- 12 -->
      <g transform="translate(134.94375 580.97875) scale(0.1 -0.1)">
       <defs>
        <path id="ArialMT-32" d="M 3222 541 
L 3222 0 
L 194 0 
Q 188 203 259 391 
Q 375 700 629 1000 
Q 884 1300 1366 1694 
Q 2113 2306 2375 2664 
Q 2638 3022 2638 3341 
Q 2638 3675 2398 3904 
Q 2159 4134 1775 4134 
Q 1369 4134 1125 3890 
Q 881 3647 878 3216 
L 300 3275 
Q 359 3922 746 4261 
Q 1134 4600 1788 4600 
Q 2447 4600 2831 4234 
Q 3216 3869 3216 3328 
Q 3216 3053 3103 2787 
Q 2991 2522 2730 2228 
Q 2469 1934 1863 1422 
Q 1356 997 1212 845 
Q 1069 694 975 541 
L 3222 541 
z
" transform="scale(0.015625)"/>
       </defs>
       <use xlink:href="#ArialMT-31"/>
       <use xlink:href="#ArialMT-32" x="55.615234"/>
      </g>
     </g>
    </g>
    <g id="xtick_4">
     <g id="line2d_4">
      <g>
       <use xlink:href="#m4ca20da978" x="191.504688" y="566.820937" style="stroke: #000000; stroke-width: 0.8"/>
      </g>
     </g>
     <g id="text_4">
      <!-- 13 -->
      <g transform="translate(185.94375 580.97875) scale(0.1 -0.1)">
       <defs>
        <path id="ArialMT-33" d="M 269 1209 
L 831 1284 
Q 928 806 1161 595 
Q 1394 384 1728 384 
Q 2125 384 2398 659 
Q 2672 934 2672 1341 
Q 2672 1728 2419 1979 
Q 2166 2231 1775 2231 
Q 1616 2231 1378 2169 
L 1441 2663 
Q 1497 2656 1531 2656 
Q 1891 2656 2178 2843 
Q 2466 3031 2466 3422 
Q 2466 3731 2256 3934 
Q 2047 4138 1716 4138 
Q 1388 4138 1169 3931 
Q 950 3725 888 3313 
L 325 3413 
Q 428 3978 793 4289 
Q 1159 4600 1703 4600 
Q 2078 4600 2393 4439 
Q 2709 4278 2876 4000 
Q 3044 3722 3044 3409 
Q 3044 3113 2884 2869 
Q 2725 2625 2413 2481 
Q 2819 2388 3044 2092 
Q 3269 1797 3269 1353 
Q 3269 753 2831 336 
Q 2394 -81 1725 -81 
Q 1122 -81 723 278 
Q 325 638 269 1209 
z
" transform="scale(0.015625)"/>
       </defs>
       <use xlink:href="#ArialMT-31"/>
       <use xlink:href="#ArialMT-33" x="55.615234"/>
      </g>
     </g>
    </g>
    <g id="xtick_5">
     <g id="line2d_5">
      <defs>
       <path id="m6722c6ae7f" d="M 0 0 
L 0 2 
" style="stroke: #000000; stroke-width: 0.6"/>
      </defs>
      <g>
       <use xlink:href="#m6722c6ae7f" x="64.004688" y="566.820937" style="stroke: #000000; stroke-width: 0.6"/>
      </g>
     </g>
    </g>
    <g id="xtick_6">
     <g id="line2d_6">
      <g>
       <use xlink:href="#m6722c6ae7f" x="115.004688" y="566.820937" style="stroke: #000000; stroke-width: 0.6"/>
      </g>
     </g>
    </g>
    <g id="xtick_7">
     <g id="line2d_7">
      <g>
       <use xlink:href="#m6722c6ae7f" x="166.004688" y="566.820937" style="stroke: #000000; stroke-width: 0.6"/>
      </g>
     </g>
    </g>
   </g>
   <g id="matplotlib.axis_2">
    <g id="ytick_1">
     <g id="line2d_8"/>
     <g id="text_5">
      <!-- 2000 -->
      <g transform="translate(12.760938 549.492151) scale(0.1 -0.1)">
       <use xlink:href="#ArialMT-32"/>
       <use xlink:href="#ArialMT-30" x="55.615234"/>
       <use xlink:href="#ArialMT-30" x="111.230469"/>
       <use xlink:href="#ArialMT-30" x="166.845703"/>
      </g>
     </g>
    </g>
    <g id="ytick_2">
     <g id="line2d_9"/>
     <g id="text_6">
      <!-- 4000 -->
      <g transform="translate(12.760938 465.861382) scale(0.1 -0.1)">
       <defs>
        <path id="ArialMT-34" d="M 2069 0 
L 2069 1097 
L 81 1097 
L 81 1613 
L 2172 4581 
L 2631 4581 
L 2631 1613 
L 3250 1613 
L 3250 1097 
L 2631 1097 
L 2631 0 
L 2069 0 
z
M 2069 1613 
L 2069 3678 
L 634 1613 
L 2069 1613 
z
" transform="scale(0.015625)"/>
       </defs>
       <use xlink:href="#ArialMT-34"/>
       <use xlink:href="#ArialMT-30" x="55.615234"/>
       <use xlink:href="#ArialMT-30" x="111.230469"/>
       <use xlink:href="#ArialMT-30" x="166.845703"/>
      </g>
     </g>
    </g>
    <g id="ytick_3">
     <g id="line2d_10"/>
     <g id="text_7">
      <!-- 6000 -->
      <g transform="translate(12.760938 382.230613) scale(0.1 -0.1)">
       <defs>
        <path id="ArialMT-36" d="M 3184 3459 
L 2625 3416 
Q 2550 3747 2413 3897 
Q 2184 4138 1850 4138 
Q 1581 4138 1378 3988 
Q 1113 3794 959 3422 
Q 806 3050 800 2363 
Q 1003 2672 1297 2822 
Q 1591 2972 1913 2972 
Q 2475 2972 2870 2558 
Q 3266 2144 3266 1488 
Q 3266 1056 3080 686 
Q 2894 316 2569 119 
Q 2244 -78 1831 -78 
Q 1128 -78 684 439 
Q 241 956 241 2144 
Q 241 3472 731 4075 
Q 1159 4600 1884 4600 
Q 2425 4600 2770 4297 
Q 3116 3994 3184 3459 
z
M 888 1484 
Q 888 1194 1011 928 
Q 1134 663 1356 523 
Q 1578 384 1822 384 
Q 2178 384 2434 671 
Q 2691 959 2691 1453 
Q 2691 1928 2437 2201 
Q 2184 2475 1800 2475 
Q 1419 2475 1153 2201 
Q 888 1928 888 1484 
z
" transform="scale(0.015625)"/>
       </defs>
       <use xlink:href="#ArialMT-36"/>
       <use xlink:href="#ArialMT-30" x="55.615234"/>
       <use xlink:href="#ArialMT-30" x="111.230469"/>
       <use xlink:href="#ArialMT-30" x="166.845703"/>
      </g>
     </g>
    </g>
    <g id="ytick_4">
     <g id="line2d_11"/>
     <g id="text_8">
      <!-- 8000 -->
      <g transform="translate(12.760938 298.599844) scale(0.1 -0.1)">
       <defs>
        <path id="ArialMT-38" d="M 1131 2484 
Q 781 2613 612 2850 
Q 444 3088 444 3419 
Q 444 3919 803 4259 
Q 1163 4600 1759 4600 
Q 2359 4600 2725 4251 
Q 3091 3903 3091 3403 
Q 3091 3084 2923 2848 
Q 2756 2613 2416 2484 
Q 2838 2347 3058 2040 
Q 3278 1734 3278 1309 
Q 3278 722 2862 322 
Q 2447 -78 1769 -78 
Q 1091 -78 675 323 
Q 259 725 259 1325 
Q 259 1772 486 2073 
Q 713 2375 1131 2484 
z
M 1019 3438 
Q 1019 3113 1228 2906 
Q 1438 2700 1772 2700 
Q 2097 2700 2305 2904 
Q 2513 3109 2513 3406 
Q 2513 3716 2298 3927 
Q 2084 4138 1766 4138 
Q 1444 4138 1231 3931 
Q 1019 3725 1019 3438 
z
M 838 1322 
Q 838 1081 952 856 
Q 1066 631 1291 507 
Q 1516 384 1775 384 
Q 2178 384 2440 643 
Q 2703 903 2703 1303 
Q 2703 1709 2433 1975 
Q 2163 2241 1756 2241 
Q 1359 2241 1098 1978 
Q 838 1716 838 1322 
z
" transform="scale(0.015625)"/>
       </defs>
       <use xlink:href="#ArialMT-38"/>
       <use xlink:href="#ArialMT-30" x="55.615234"/>
       <use xlink:href="#ArialMT-30" x="111.230469"/>
       <use xlink:href="#ArialMT-30" x="166.845703"/>
      </g>
     </g>
    </g>
    <g id="ytick_5">
     <g id="line2d_12"/>
     <g id="text_9">
      <!-- 10000 -->
      <g transform="translate(7.2 214.969075) scale(0.1 -0.1)">
       <use xlink:href="#ArialMT-31"/>
       <use xlink:href="#ArialMT-30" x="55.615234"/>
       <use xlink:href="#ArialMT-30" x="111.230469"/>
       <use xlink:href="#ArialMT-30" x="166.845703"/>
       <use xlink:href="#ArialMT-30" x="222.460938"/>
      </g>
     </g>
    </g>
    <g id="ytick_6">
     <g id="line2d_13"/>
     <g id="text_10">
      <!-- 12000 -->
      <g transform="translate(7.2 131.338305) scale(0.1 -0.1)">
       <use xlink:href="#ArialMT-31"/>
       <use xlink:href="#ArialMT-32" x="55.615234"/>
       <use xlink:href="#ArialMT-30" x="111.230469"/>
       <use xlink:href="#ArialMT-30" x="166.845703"/>
       <use xlink:href="#ArialMT-30" x="222.460938"/>
      </g>
     </g>
    </g>
    <g id="ytick_7">
     <g id="line2d_14"/>
     <g id="text_11">
      <!-- 14000 -->
      <g transform="translate(7.2 47.707536) scale(0.1 -0.1)">
       <use xlink:href="#ArialMT-31"/>
       <use xlink:href="#ArialMT-34" x="55.615234"/>
       <use xlink:href="#ArialMT-30" x="111.230469"/>
       <use xlink:href="#ArialMT-30" x="166.845703"/>
       <use xlink:href="#ArialMT-30" x="222.460938"/>
      </g>
     </g>
    </g>
   </g>
   <g id="line2d_15">
    <path d="M 38.36381 505.937737 
L 39.703099 498.620045 
L 41.042388 504.01423 
L 42.381677 502.467061 
L 43.720965 499.330907 
L 45.060254 500.627184 
L 46.399543 498.870937 
L 47.738832 498.829122 
L 49.078121 495.818414 
L 50.41741 496.905614 
L 51.756698 491.469614 
L 53.095987 490.675122 
L 54.435276 491.678691 
L 55.774565 488.166199 
L 57.113854 490.215153 
L 58.453143 493.978537 
L 59.792431 487.538968 
L 61.13172 485.949984 
L 62.471009 482.604753 
L 63.810298 480.723061 
L 65.149587 486.869922 
L 66.488876 482.688384 
L 67.828164 483.691953 
L 69.167453 480.806691 
L 70.506742 480.263091 
L 71.846031 482.353861 
L 73.18532 476.625153 
L 74.524609 470.561922 
L 75.863897 473.279922 
L 77.203186 472.234537 
L 78.542475 465.544076 
L 79.881764 470.185584 
L 81.221053 470.729184 
L 82.560342 464.122353 
L 83.89963 465.711337 
L 85.238919 461.237091 
L 86.578208 461.822507 
L 87.917497 458.059122 
L 89.256786 465.084107 
L 90.596075 456.679214 
L 91.935363 448.441584 
L 93.274652 455.675645 
L 94.613941 446.559891 
L 95.95323 446.183553 
L 97.292519 429.499214 
L 98.631808 430.000999 
L 99.971096 424.439553 
L 101.310385 408.382445 
L 102.649674 400.939307 
L 103.988963 374.135645 
L 105.328252 349.924537 
L 106.667541 309.070907 
L 108.006829 266.46103 
L 109.346118 210.428414 
L 110.685407 118.685461 
L 112.024696 58.973091 
L 113.363985 55.502414 
L 114.703274 60.227553 
L 116.042562 93.428968 
L 117.381851 177.226999 
L 118.72114 315.719553 
L 120.060429 407.420691 
L 121.399718 451.368661 
L 122.739007 462.366107 
L 124.078295 473.238107 
L 125.417584 472.443614 
L 126.756873 474.11623 
L 128.096162 481.810261 
L 129.435451 486.61903 
L 130.77474 483.691953 
L 132.114028 490.298784 
L 133.453317 490.507861 
L 134.792606 492.682261 
L 136.131895 495.400261 
L 137.471184 495.31663 
L 138.810473 495.107553 
L 140.149761 499.038199 
L 141.48905 503.177922 
L 142.828339 504.934168 
L 144.167628 506.815861 
L 145.506917 506.648599 
L 146.846206 509.533861 
L 148.185494 508.530291 
L 149.524783 511.708261 
L 150.864072 511.373737 
L 152.203361 514.008107 
L 153.54265 517.144261 
L 154.881939 515.471645 
L 156.221227 517.436968 
L 157.560516 517.102445 
L 158.899805 521.911214 
L 160.239094 521.869399 
L 161.578383 522.329368 
L 162.917672 526.176384 
L 164.25696 522.078476 
L 165.596249 527.765368 
L 166.935538 532.490507 
L 168.274827 529.312537 
L 169.614116 532.072353 
L 170.953405 532.992291 
L 172.292693 530.859707 
L 173.631982 533.284999 
L 174.971271 534.121307 
L 176.31056 534.330384 
L 177.649849 532.532322 
L 178.989138 537.801061 
L 180.328426 537.299276 
L 181.667715 538.470107 
L 183.007004 537.299276 
L 184.346293 539.808199 
L 185.685582 537.968322 
L 187.024871 542.526199 
L 188.364159 543.738845 
L 189.703448 546.498661 
L 191.042737 542.818907 
L 192.382026 544.24063 
" clip-path="url(#pc592f6252e)" style="fill: none; stroke: #000000; stroke-width: 2; stroke-linecap: square"/>
   </g>
   <g id="line2d_16">
    <path d="M 38.36381 476.666968 
L 39.703099 477.963245 
L 41.042388 472.276353 
L 42.381677 474.325307 
L 43.720965 472.401799 
L 45.060254 468.052999 
L 46.399543 472.527245 
L 47.738832 469.265645 
L 49.078121 465.41863 
L 50.41741 461.195276 
L 51.756698 462.909707 
L 53.095987 465.334999 
L 54.435276 460.108076 
L 55.774565 461.529799 
L 57.113854 460.400784 
L 58.453143 457.557337 
L 59.792431 458.937245 
L 61.13172 451.82863 
L 62.471009 451.703184 
L 63.810298 448.692476 
L 65.149587 446.978045 
L 66.488876 440.705737 
L 67.828164 443.758261 
L 69.167453 442.503799 
L 70.506742 442.712876 
L 71.846031 436.398753 
L 73.18532 438.824045 
L 74.524609 432.80263 
L 75.863897 433.513491 
L 77.203186 432.008137 
L 78.542475 427.993861 
L 79.881764 427.952045 
L 81.221053 423.01783 
L 82.560342 426.446691 
L 83.89963 422.766937 
L 85.238919 415.700137 
L 86.578208 421.596107 
L 87.917497 409.511461 
L 89.256786 414.069337 
L 90.596075 409.176937 
L 91.935363 399.266691 
L 93.274652 400.562968 
L 94.613941 389.523707 
L 95.95323 385.50943 
L 97.292519 375.013768 
L 98.631808 363.138199 
L 99.971096 346.91383 
L 101.310385 332.571153 
L 102.649674 310.952599 
L 103.988963 279.089276 
L 105.328252 237.232076 
L 106.667541 185.130107 
L 108.006829 165.560507 
L 109.346118 169.240261 
L 110.685407 237.273891 
L 112.024696 312.039799 
L 113.363985 362.67823 
L 114.703274 393.537984 
L 116.042562 415.240168 
L 117.381851 420.676168 
L 118.72114 427.157553 
L 120.060429 430.293707 
L 121.399718 430.670045 
L 122.739007 437.904107 
L 124.078295 442.127461 
L 125.417584 441.960199 
L 126.756873 445.807214 
L 128.096162 454.504814 
L 129.435451 447.647091 
L 130.77474 461.947953 
L 132.114028 454.00303 
L 133.453317 455.508384 
L 134.792606 456.344691 
L 136.131895 473.739891 
L 137.471184 466.965799 
L 138.810473 465.585891 
L 140.149761 473.990784 
L 141.48905 478.214137 
L 142.828339 479.510414 
L 144.167628 480.179461 
L 145.506917 479.594045 
L 146.846206 478.590476 
L 148.185494 484.737337 
L 149.524783 488.082568 
L 150.864072 491.427799 
L 152.203361 494.313061 
L 153.54265 489.504291 
L 154.881939 498.03463 
L 156.221227 495.274814 
L 157.560516 499.163645 
L 158.899805 499.581799 
L 160.239094 499.749061 
L 161.578383 502.634322 
L 162.917672 507.652168 
L 164.25696 500.543553 
L 165.596249 506.063184 
L 166.935538 508.446661 
L 168.274827 508.781184 
L 169.614116 513.757214 
L 170.953405 512.000968 
L 172.292693 515.889799 
L 173.631982 515.555276 
L 174.971271 510.746507 
L 176.31056 512.628199 
L 177.649849 521.283984 
L 178.989138 519.151399 
L 180.328426 520.824014 
L 181.667715 518.482353 
L 183.007004 525.172814 
L 184.346293 521.367614 
L 185.685582 521.534876 
L 187.024871 526.469091 
L 188.364159 528.016261 
L 189.703448 525.841861 
L 191.042737 526.30183 
L 192.382026 530.316107 
" clip-path="url(#pc592f6252e)" style="fill: none; stroke: #008e00; stroke-width: 2; stroke-linecap: square"/>
   </g>
   <g id="line2d_17">
    <path d="M 38.36381 465.836784 
L 39.703099 465.125922 
L 41.042388 466.171307 
L 42.381677 465.125922 
L 43.720965 461.446168 
L 45.060254 468.429337 
L 46.399543 460.317153 
L 47.738832 462.867891 
L 49.078121 460.484414 
L 50.41741 458.35183 
L 51.756698 456.679214 
L 53.095987 456.093799 
L 54.435276 463.076968 
L 55.774565 453.083091 
L 57.113854 452.832199 
L 58.453143 452.581307 
L 59.792431 448.441584 
L 61.13172 449.277891 
L 62.471009 446.601707 
L 63.810298 443.465553 
L 65.149587 449.696045 
L 66.488876 441.291153 
L 67.828164 442.085645 
L 69.167453 439.242199 
L 70.506742 437.109614 
L 71.846031 436.649645 
L 73.18532 439.785799 
L 74.524609 436.398753 
L 75.863897 437.025984 
L 77.203186 432.300845 
L 78.542475 434.767953 
L 79.881764 427.533891 
L 81.221053 432.593553 
L 82.560342 430.251891 
L 83.89963 427.868414 
L 85.238919 428.119307 
L 86.578208 423.059645 
L 87.917497 428.119307 
L 89.256786 429.248322 
L 90.596075 422.097891 
L 91.935363 425.19223 
L 93.274652 420.759799 
L 94.613941 425.526753 
L 95.95323 423.01783 
L 97.292519 421.763368 
L 98.631808 420.341645 
L 99.971096 426.864845 
L 101.310385 422.766937 
L 102.649674 427.659337 
L 103.988963 425.526753 
L 105.328252 426.82303 
L 106.667541 427.701153 
L 108.006829 424.188661 
L 109.346118 428.495645 
L 110.685407 432.677184 
L 112.024696 430.711861 
L 113.363985 431.339091 
L 114.703274 434.391614 
L 116.042562 435.687891 
L 117.381851 437.025984 
L 118.72114 438.698599 
L 120.060429 440.831184 
L 121.399718 445.932661 
L 122.739007 442.211091 
L 124.078295 443.800076 
L 125.417584 446.183553 
L 126.756873 455.382937 
L 128.096162 453.501245 
L 129.435451 454.337553 
L 130.77474 452.079522 
L 132.114028 455.842907 
L 133.453317 459.480845 
L 134.792606 461.237091 
L 136.131895 462.658814 
L 137.471184 465.125922 
L 138.810473 464.833214 
L 140.149761 467.59303 
L 141.48905 468.220261 
L 142.828339 470.770999 
L 144.167628 479.928568 
L 145.506917 479.00863 
L 146.846206 475.245245 
L 148.185494 480.848507 
L 149.524783 480.430353 
L 150.864072 485.155491 
L 152.203361 486.702661 
L 153.54265 490.96783 
L 154.881939 489.169768 
L 156.221227 492.974968 
L 157.560516 493.769461 
L 158.899805 494.187614 
L 160.239094 491.218722 
L 161.578383 492.556814 
L 162.917672 496.362014 
L 164.25696 498.243707 
L 165.596249 503.596076 
L 166.935538 502.425245 
L 168.274827 499.414537 
L 169.614116 503.805153 
L 170.953405 506.355891 
L 172.292693 503.303368 
L 173.631982 508.321214 
L 174.971271 507.066753 
L 176.31056 506.481337 
L 177.649849 512.000968 
L 178.989138 508.739368 
L 180.328426 513.380876 
L 181.667715 512.042784 
L 183.007004 511.206476 
L 184.346293 509.324784 
L 185.685582 515.555276 
L 187.024871 518.733245 
L 188.364159 516.809737 
L 189.703448 521.40943 
L 191.042737 520.071337 
L 192.382026 520.32223 
" clip-path="url(#pc592f6252e)" style="fill: none; stroke: #ffb14e; stroke-width: 2; stroke-linecap: square"/>
   </g>
   <g id="patch_3">
    <path d="M 38.504688 566.820937 
L 38.504688 23.220937 
" style="fill: none; stroke: #000000; stroke-width: 0.8; stroke-linejoin: miter; stroke-linecap: square"/>
   </g>
   <g id="patch_4">
    <path d="M 38.504688 566.820937 
L 191.504688 566.820937 
" style="fill: none; stroke: #000000; stroke-width: 0.8; stroke-linejoin: miter; stroke-linecap: square"/>
   </g>
   <g id="text_12">
    <!-- High-magnesium -->
    <g transform="translate(62.097812 17.220937) scale(0.14 -0.14)">
     <defs>
      <path id="ArialMT-48" d="M 513 0 
L 513 4581 
L 1119 4581 
L 1119 2700 
L 3500 2700 
L 3500 4581 
L 4106 4581 
L 4106 0 
L 3500 0 
L 3500 2159 
L 1119 2159 
L 1119 0 
L 513 0 
z
" transform="scale(0.015625)"/>
      <path id="ArialMT-69" d="M 425 3934 
L 425 4581 
L 988 4581 
L 988 3934 
L 425 3934 
z
M 425 0 
L 425 3319 
L 988 3319 
L 988 0 
L 425 0 
z
" transform="scale(0.015625)"/>
      <path id="ArialMT-67" d="M 319 -275 
L 866 -356 
Q 900 -609 1056 -725 
Q 1266 -881 1628 -881 
Q 2019 -881 2231 -725 
Q 2444 -569 2519 -288 
Q 2563 -116 2559 434 
Q 2191 0 1641 0 
Q 956 0 581 494 
Q 206 988 206 1678 
Q 206 2153 378 2554 
Q 550 2956 876 3175 
Q 1203 3394 1644 3394 
Q 2231 3394 2613 2919 
L 2613 3319 
L 3131 3319 
L 3131 450 
Q 3131 -325 2973 -648 
Q 2816 -972 2473 -1159 
Q 2131 -1347 1631 -1347 
Q 1038 -1347 672 -1080 
Q 306 -813 319 -275 
z
M 784 1719 
Q 784 1066 1043 766 
Q 1303 466 1694 466 
Q 2081 466 2343 764 
Q 2606 1063 2606 1700 
Q 2606 2309 2336 2618 
Q 2066 2928 1684 2928 
Q 1309 2928 1046 2623 
Q 784 2319 784 1719 
z
" transform="scale(0.015625)"/>
      <path id="ArialMT-68" d="M 422 0 
L 422 4581 
L 984 4581 
L 984 2938 
Q 1378 3394 1978 3394 
Q 2347 3394 2619 3248 
Q 2891 3103 3008 2847 
Q 3125 2591 3125 2103 
L 3125 0 
L 2563 0 
L 2563 2103 
Q 2563 2525 2380 2717 
Q 2197 2909 1863 2909 
Q 1613 2909 1392 2779 
Q 1172 2650 1078 2428 
Q 984 2206 984 1816 
L 984 0 
L 422 0 
z
" transform="scale(0.015625)"/>
      <path id="ArialMT-2d" d="M 203 1375 
L 203 1941 
L 1931 1941 
L 1931 1375 
L 203 1375 
z
" transform="scale(0.015625)"/>
      <path id="ArialMT-6d" d="M 422 0 
L 422 3319 
L 925 3319 
L 925 2853 
Q 1081 3097 1340 3245 
Q 1600 3394 1931 3394 
Q 2300 3394 2536 3241 
Q 2772 3088 2869 2813 
Q 3263 3394 3894 3394 
Q 4388 3394 4653 3120 
Q 4919 2847 4919 2278 
L 4919 0 
L 4359 0 
L 4359 2091 
Q 4359 2428 4304 2576 
Q 4250 2725 4106 2815 
Q 3963 2906 3769 2906 
Q 3419 2906 3187 2673 
Q 2956 2441 2956 1928 
L 2956 0 
L 2394 0 
L 2394 2156 
Q 2394 2531 2256 2718 
Q 2119 2906 1806 2906 
Q 1569 2906 1367 2781 
Q 1166 2656 1075 2415 
Q 984 2175 984 1722 
L 984 0 
L 422 0 
z
" transform="scale(0.015625)"/>
      <path id="ArialMT-61" d="M 2588 409 
Q 2275 144 1986 34 
Q 1697 -75 1366 -75 
Q 819 -75 525 192 
Q 231 459 231 875 
Q 231 1119 342 1320 
Q 453 1522 633 1644 
Q 813 1766 1038 1828 
Q 1203 1872 1538 1913 
Q 2219 1994 2541 2106 
Q 2544 2222 2544 2253 
Q 2544 2597 2384 2738 
Q 2169 2928 1744 2928 
Q 1347 2928 1158 2789 
Q 969 2650 878 2297 
L 328 2372 
Q 403 2725 575 2942 
Q 747 3159 1072 3276 
Q 1397 3394 1825 3394 
Q 2250 3394 2515 3294 
Q 2781 3194 2906 3042 
Q 3031 2891 3081 2659 
Q 3109 2516 3109 2141 
L 3109 1391 
Q 3109 606 3145 398 
Q 3181 191 3288 0 
L 2700 0 
Q 2613 175 2588 409 
z
M 2541 1666 
Q 2234 1541 1622 1453 
Q 1275 1403 1131 1340 
Q 988 1278 909 1158 
Q 831 1038 831 891 
Q 831 666 1001 516 
Q 1172 366 1500 366 
Q 1825 366 2078 508 
Q 2331 650 2450 897 
Q 2541 1088 2541 1459 
L 2541 1666 
z
" transform="scale(0.015625)"/>
      <path id="ArialMT-6e" d="M 422 0 
L 422 3319 
L 928 3319 
L 928 2847 
Q 1294 3394 1984 3394 
Q 2284 3394 2536 3286 
Q 2788 3178 2913 3003 
Q 3038 2828 3088 2588 
Q 3119 2431 3119 2041 
L 3119 0 
L 2556 0 
L 2556 2019 
Q 2556 2363 2490 2533 
Q 2425 2703 2258 2804 
Q 2091 2906 1866 2906 
Q 1506 2906 1245 2678 
Q 984 2450 984 1813 
L 984 0 
L 422 0 
z
" transform="scale(0.015625)"/>
      <path id="ArialMT-65" d="M 2694 1069 
L 3275 997 
Q 3138 488 2766 206 
Q 2394 -75 1816 -75 
Q 1088 -75 661 373 
Q 234 822 234 1631 
Q 234 2469 665 2931 
Q 1097 3394 1784 3394 
Q 2450 3394 2872 2941 
Q 3294 2488 3294 1666 
Q 3294 1616 3291 1516 
L 816 1516 
Q 847 969 1125 678 
Q 1403 388 1819 388 
Q 2128 388 2347 550 
Q 2566 713 2694 1069 
z
M 847 1978 
L 2700 1978 
Q 2663 2397 2488 2606 
Q 2219 2931 1791 2931 
Q 1403 2931 1139 2672 
Q 875 2413 847 1978 
z
" transform="scale(0.015625)"/>
      <path id="ArialMT-73" d="M 197 991 
L 753 1078 
Q 800 744 1014 566 
Q 1228 388 1613 388 
Q 2000 388 2187 545 
Q 2375 703 2375 916 
Q 2375 1106 2209 1216 
Q 2094 1291 1634 1406 
Q 1016 1563 777 1677 
Q 538 1791 414 1992 
Q 291 2194 291 2438 
Q 291 2659 392 2848 
Q 494 3038 669 3163 
Q 800 3259 1026 3326 
Q 1253 3394 1513 3394 
Q 1903 3394 2198 3281 
Q 2494 3169 2634 2976 
Q 2775 2784 2828 2463 
L 2278 2388 
Q 2241 2644 2061 2787 
Q 1881 2931 1553 2931 
Q 1166 2931 1000 2803 
Q 834 2675 834 2503 
Q 834 2394 903 2306 
Q 972 2216 1119 2156 
Q 1203 2125 1616 2013 
Q 2213 1853 2448 1751 
Q 2684 1650 2818 1456 
Q 2953 1263 2953 975 
Q 2953 694 2789 445 
Q 2625 197 2315 61 
Q 2006 -75 1616 -75 
Q 969 -75 630 194 
Q 291 463 197 991 
z
" transform="scale(0.015625)"/>
      <path id="ArialMT-75" d="M 2597 0 
L 2597 488 
Q 2209 -75 1544 -75 
Q 1250 -75 995 37 
Q 741 150 617 320 
Q 494 491 444 738 
Q 409 903 409 1263 
L 409 3319 
L 972 3319 
L 972 1478 
Q 972 1038 1006 884 
Q 1059 663 1231 536 
Q 1403 409 1656 409 
Q 1909 409 2131 539 
Q 2353 669 2445 892 
Q 2538 1116 2538 1541 
L 2538 3319 
L 3100 3319 
L 3100 0 
L 2597 0 
z
" transform="scale(0.015625)"/>
     </defs>
     <use xlink:href="#ArialMT-48"/>
     <use xlink:href="#ArialMT-69" x="72.216797"/>
     <use xlink:href="#ArialMT-67" x="94.433594"/>
     <use xlink:href="#ArialMT-68" x="150.048828"/>
     <use xlink:href="#ArialMT-2d" x="205.664062"/>
     <use xlink:href="#ArialMT-6d" x="238.964844"/>
     <use xlink:href="#ArialMT-61" x="322.265625"/>
     <use xlink:href="#ArialMT-67" x="377.880859"/>
     <use xlink:href="#ArialMT-6e" x="433.496094"/>
     <use xlink:href="#ArialMT-65" x="489.111328"/>
     <use xlink:href="#ArialMT-73" x="544.726562"/>
     <use xlink:href="#ArialMT-69" x="594.726562"/>
     <use xlink:href="#ArialMT-75" x="616.943359"/>
     <use xlink:href="#ArialMT-6d" x="672.558594"/>
    </g>
   </g>
  </g>
  <g id="axes_2">
   <g id="patch_5">
    <path d="M 199.154688 566.820937 
L 352.154687 566.820937 
L 352.154687 23.220937 
L 199.154688 23.220937 
z
" style="fill: #ffffff"/>
   </g>
   <g id="matplotlib.axis_3">
    <g id="xtick_8">
     <g id="line2d_18">
      <g>
       <use xlink:href="#m4ca20da978" x="199.154688" y="566.820937" style="stroke: #000000; stroke-width: 0.8"/>
      </g>
     </g>
     <g id="text_13">
      <!-- 10 -->
      <g transform="translate(193.59375 580.97875) scale(0.1 -0.1)">
       <use xlink:href="#ArialMT-31"/>
       <use xlink:href="#ArialMT-30" x="55.615234"/>
      </g>
     </g>
    </g>
    <g id="xtick_9">
     <g id="line2d_19">
      <g>
       <use xlink:href="#m4ca20da978" x="250.154688" y="566.820937" style="stroke: #000000; stroke-width: 0.8"/>
      </g>
     </g>
     <g id="text_14">
      <!-- 11 -->
      <g transform="translate(244.9625 580.97875) scale(0.1 -0.1)">
       <use xlink:href="#ArialMT-31"/>
       <use xlink:href="#ArialMT-31" x="48.240234"/>
      </g>
     </g>
    </g>
    <g id="xtick_10">
     <g id="line2d_20">
      <g>
       <use xlink:href="#m4ca20da978" x="301.154688" y="566.820937" style="stroke: #000000; stroke-width: 0.8"/>
      </g>
     </g>
     <g id="text_15">
      <!-- 12 -->
      <g transform="translate(295.59375 580.97875) scale(0.1 -0.1)">
       <use xlink:href="#ArialMT-31"/>
       <use xlink:href="#ArialMT-32" x="55.615234"/>
      </g>
     </g>
    </g>
    <g id="xtick_11">
     <g id="line2d_21">
      <g>
       <use xlink:href="#m4ca20da978" x="352.154688" y="566.820937" style="stroke: #000000; stroke-width: 0.8"/>
      </g>
     </g>
     <g id="text_16">
      <!-- 13 -->
      <g transform="translate(346.59375 580.97875) scale(0.1 -0.1)">
       <use xlink:href="#ArialMT-31"/>
       <use xlink:href="#ArialMT-33" x="55.615234"/>
      </g>
     </g>
    </g>
    <g id="xtick_12">
     <g id="line2d_22">
      <g>
       <use xlink:href="#m6722c6ae7f" x="224.654688" y="566.820937" style="stroke: #000000; stroke-width: 0.6"/>
      </g>
     </g>
    </g>
    <g id="xtick_13">
     <g id="line2d_23">
      <g>
       <use xlink:href="#m6722c6ae7f" x="275.654688" y="566.820937" style="stroke: #000000; stroke-width: 0.6"/>
      </g>
     </g>
    </g>
    <g id="xtick_14">
     <g id="line2d_24">
      <g>
       <use xlink:href="#m6722c6ae7f" x="326.654688" y="566.820937" style="stroke: #000000; stroke-width: 0.6"/>
      </g>
     </g>
    </g>
   </g>
   <g id="matplotlib.axis_4">
    <g id="ytick_8">
     <g id="line2d_25"/>
     <g id="text_17">
      <!-- 2000 -->
      <g transform="translate(173.410938 549.492151) scale(0.1 -0.1)">
       <use xlink:href="#ArialMT-32"/>
       <use xlink:href="#ArialMT-30" x="55.615234"/>
       <use xlink:href="#ArialMT-30" x="111.230469"/>
       <use xlink:href="#ArialMT-30" x="166.845703"/>
      </g>
     </g>
    </g>
    <g id="ytick_9">
     <g id="line2d_26"/>
     <g id="text_18">
      <!-- 4000 -->
      <g transform="translate(173.410938 465.861382) scale(0.1 -0.1)">
       <use xlink:href="#ArialMT-34"/>
       <use xlink:href="#ArialMT-30" x="55.615234"/>
       <use xlink:href="#ArialMT-30" x="111.230469"/>
       <use xlink:href="#ArialMT-30" x="166.845703"/>
      </g>
     </g>
    </g>
    <g id="ytick_10">
     <g id="line2d_27"/>
     <g id="text_19">
      <!-- 6000 -->
      <g transform="translate(173.410938 382.230613) scale(0.1 -0.1)">
       <use xlink:href="#ArialMT-36"/>
       <use xlink:href="#ArialMT-30" x="55.615234"/>
       <use xlink:href="#ArialMT-30" x="111.230469"/>
       <use xlink:href="#ArialMT-30" x="166.845703"/>
      </g>
     </g>
    </g>
    <g id="ytick_11">
     <g id="line2d_28"/>
     <g id="text_20">
      <!-- 8000 -->
      <g transform="translate(173.410938 298.599844) scale(0.1 -0.1)">
       <use xlink:href="#ArialMT-38"/>
       <use xlink:href="#ArialMT-30" x="55.615234"/>
       <use xlink:href="#ArialMT-30" x="111.230469"/>
       <use xlink:href="#ArialMT-30" x="166.845703"/>
      </g>
     </g>
    </g>
    <g id="ytick_12">
     <g id="line2d_29"/>
     <g id="text_21">
      <!-- 10000 -->
      <g transform="translate(167.85 214.969075) scale(0.1 -0.1)">
       <use xlink:href="#ArialMT-31"/>
       <use xlink:href="#ArialMT-30" x="55.615234"/>
       <use xlink:href="#ArialMT-30" x="111.230469"/>
       <use xlink:href="#ArialMT-30" x="166.845703"/>
       <use xlink:href="#ArialMT-30" x="222.460938"/>
      </g>
     </g>
    </g>
    <g id="ytick_13">
     <g id="line2d_30"/>
     <g id="text_22">
      <!-- 12000 -->
      <g transform="translate(167.85 131.338305) scale(0.1 -0.1)">
       <use xlink:href="#ArialMT-31"/>
       <use xlink:href="#ArialMT-32" x="55.615234"/>
       <use xlink:href="#ArialMT-30" x="111.230469"/>
       <use xlink:href="#ArialMT-30" x="166.845703"/>
       <use xlink:href="#ArialMT-30" x="222.460938"/>
      </g>
     </g>
    </g>
    <g id="ytick_14">
     <g id="line2d_31"/>
     <g id="text_23">
      <!-- 14000 -->
      <g transform="translate(167.85 47.707536) scale(0.1 -0.1)">
       <use xlink:href="#ArialMT-31"/>
       <use xlink:href="#ArialMT-34" x="55.615234"/>
       <use xlink:href="#ArialMT-30" x="111.230469"/>
       <use xlink:href="#ArialMT-30" x="166.845703"/>
       <use xlink:href="#ArialMT-30" x="222.460938"/>
      </g>
     </g>
    </g>
   </g>
   <g id="line2d_32">
    <path d="M 199.01381 517.144261 
L 200.353099 509.032076 
L 201.692388 502.592507 
L 203.031677 488.166199 
L 204.370965 467.59303 
L 205.710254 441.667491 
L 207.049543 414.780199 
L 208.388832 403.406414 
L 209.728121 428.202937 
L 211.06741 480.137645 
L 212.406698 516.684291 
L 213.745987 528.894384 
L 215.085276 536.253891 
L 216.424565 541.355368 
L 217.763854 544.575153 
L 219.103143 547.084076 
L 220.442431 547.836753 
L 221.78172 545.87143 
L 223.121009 547.334968 
L 224.460298 544.282445 
L 225.799587 545.244199 
L 227.138876 549.551184 
L 228.478164 545.076937 
L 229.817453 543.027984 
L 231.156742 543.822476 
L 232.496031 546.707737 
L 233.83532 548.004014 
L 235.174609 544.115184 
L 236.513897 543.947922 
L 237.853186 542.358937 
L 239.192475 547.669491 
L 240.531764 545.87143 
L 241.871053 545.244199 
L 243.210342 543.487953 
L 244.54963 544.700599 
L 245.888919 540.602691 
L 247.228208 538.553737 
L 248.567497 536.421153 
L 249.906786 539.724568 
L 251.246075 540.602691 
L 252.585363 533.452261 
L 253.924652 536.337522 
L 255.263941 534.121307 
L 256.60323 531.277861 
L 257.942519 530.190661 
L 259.281808 529.437984 
L 260.621096 521.869399 
L 261.960385 520.196784 
L 263.299674 522.49663 
L 264.638963 518.482353 
L 265.978252 507.861245 
L 267.317541 500.75263 
L 268.656829 496.94743 
L 269.996118 482.437491 
L 271.335407 470.352845 
L 272.674696 459.397214 
L 274.013985 441.50023 
L 275.353274 429.415584 
L 276.692562 409.845984 
L 278.031851 389.816414 
L 279.37114 358.914845 
L 280.710429 339.84703 
L 282.049718 323.748107 
L 283.389007 305.767491 
L 284.728295 305.642045 
L 286.067584 321.030107 
L 287.406873 342.439584 
L 288.746162 374.386537 
L 290.085451 403.322784 
L 291.42474 431.297276 
L 292.764028 451.117768 
L 294.103317 474.199861 
L 295.442606 490.466045 
L 296.781895 496.571091 
L 298.121184 510.913768 
L 299.460473 513.339061 
L 300.799761 520.949461 
L 302.13905 529.354353 
L 303.478339 528.601676 
L 304.817628 528.225337 
L 306.156917 536.170261 
L 307.496206 535.292137 
L 308.835494 538.26103 
L 310.174783 533.410445 
L 311.514072 533.577707 
L 312.853361 533.577707 
L 314.19265 533.243184 
L 315.531939 531.361491 
L 316.871227 522.371184 
L 318.210516 522.622076 
L 319.549805 511.708261 
L 320.889094 504.390568 
L 322.228383 494.103984 
L 323.567672 473.488999 
L 324.90696 460.024445 
L 326.246249 466.798537 
L 327.585538 498.243707 
L 328.924827 518.482353 
L 330.264116 538.135584 
L 331.603405 546.624107 
L 332.942693 550.972907 
L 334.281982 549.467553 
L 335.621271 550.972907 
L 336.96056 554.987184 
L 338.299849 552.143737 
L 339.639138 554.861737 
L 340.978426 552.561891 
L 342.317715 558.165153 
L 343.657004 558.792384 
L 344.996293 556.910691 
L 346.335582 555.823491 
L 347.674871 560.674076 
L 349.014159 556.241645 
L 350.353448 560.506814 
L 351.692737 561.175861 
L 353.032026 559.001461 
" clip-path="url(#p89eaf0aa2b)" style="fill: none; stroke: #000000; stroke-width: 2; stroke-linecap: square"/>
   </g>
   <g id="line2d_33">
    <path d="M 199.01381 491.929584 
L 200.353099 476.541522 
L 201.692388 470.770999 
L 203.031677 452.414045 
L 204.370965 425.275861 
L 205.710254 401.022937 
L 207.049543 362.176445 
L 208.388832 310.659891 
L 209.728121 265.122937 
L 211.06741 277.792999 
L 212.406698 361.967368 
L 213.745987 448.525214 
L 215.085276 477.92143 
L 216.424565 498.870937 
L 217.763854 503.052476 
L 219.103143 507.234014 
L 220.442431 514.635337 
L 221.78172 513.088168 
L 223.121009 509.952014 
L 224.460298 514.509891 
L 225.799587 514.844414 
L 227.138876 514.760784 
L 228.478164 512.460937 
L 229.817453 512.210045 
L 231.156742 513.088168 
L 232.496031 515.220753 
L 233.83532 513.339061 
L 235.174609 512.419122 
L 236.513897 511.415553 
L 237.853186 511.457368 
L 239.192475 515.220753 
L 240.531764 509.617491 
L 241.871053 507.192199 
L 243.210342 504.01423 
L 244.54963 505.979553 
L 245.888919 503.386999 
L 247.228208 504.348753 
L 248.567497 505.268691 
L 249.906786 503.47063 
L 251.246075 500.585368 
L 252.585363 502.592507 
L 253.924652 499.832691 
L 255.263941 501.83983 
L 256.60323 501.83983 
L 257.942519 499.832691 
L 259.281808 494.522137 
L 260.621096 491.385984 
L 261.960385 492.389553 
L 263.299674 491.636876 
L 264.638963 489.796999 
L 265.978252 483.984661 
L 267.317541 484.402814 
L 268.656829 485.657276 
L 269.996118 482.562937 
L 271.335407 485.740907 
L 272.674696 480.472168 
L 274.013985 483.106537 
L 275.353274 474.827091 
L 276.692562 470.938261 
L 278.031851 474.241676 
L 279.37114 470.896445 
L 280.710429 473.781707 
L 282.049718 474.158045 
L 283.389007 471.94183 
L 284.728295 475.328876 
L 286.067584 478.297768 
L 287.406873 472.443614 
L 288.746162 473.363553 
L 290.085451 476.039737 
L 291.42474 478.255953 
L 292.764028 487.455337 
L 294.103317 486.828107 
L 295.442606 487.873491 
L 296.781895 490.047891 
L 298.121184 489.504291 
L 299.460473 492.180476 
L 300.799761 496.362014 
L 302.13905 498.829122 
L 303.478339 500.20903 
L 304.817628 497.658291 
L 306.156917 505.937737 
L 307.496206 508.237584 
L 308.835494 503.930599 
L 310.174783 506.355891 
L 311.514072 497.198322 
L 312.853361 501.254414 
L 314.19265 498.536414 
L 315.531939 497.114691 
L 316.871227 495.902045 
L 318.210516 489.671553 
L 319.549805 476.876045 
L 320.889094 470.85463 
L 322.228383 450.323276 
L 323.567672 426.028537 
L 324.90696 390.94543 
L 326.246249 354.566045 
L 327.585538 341.519645 
L 328.924827 386.345737 
L 330.264116 454.128476 
L 331.603405 492.013214 
L 332.942693 513.046353 
L 334.281982 522.036661 
L 335.621271 524.252876 
L 336.96056 527.305399 
L 338.299849 528.768937 
L 339.639138 530.357922 
L 340.978426 535.375768 
L 342.317715 538.344661 
L 343.657004 538.971891 
L 344.996293 543.404322 
L 346.335582 540.937214 
L 347.674871 539.097337 
L 349.014159 539.34823 
L 350.353448 543.655214 
L 351.692737 544.78423 
L 353.032026 542.149861 
" clip-path="url(#p89eaf0aa2b)" style="fill: none; stroke: #008e00; stroke-width: 2; stroke-linecap: square"/>
   </g>
   <g id="line2d_34">
    <path d="M 199.01381 474.994353 
L 200.353099 461.404353 
L 201.692388 452.121337 
L 203.031677 440.95663 
L 204.370965 426.781214 
L 205.710254 401.984691 
L 207.049543 379.237122 
L 208.388832 344.237645 
L 209.728121 322.535461 
L 211.06741 330.438568 
L 212.406698 386.136661 
L 213.745987 431.464537 
L 215.085276 466.213122 
L 216.424565 478.214137 
L 217.763854 483.817399 
L 219.103143 487.288076 
L 220.442431 485.949984 
L 221.78172 490.549676 
L 223.121009 490.340599 
L 224.460298 494.77303 
L 225.799587 496.40383 
L 227.138876 491.929584 
L 228.478164 497.281953 
L 229.817453 494.480322 
L 231.156742 494.480322 
L 232.496031 493.894907 
L 233.83532 494.77303 
L 235.174609 495.023922 
L 236.513897 490.131522 
L 237.853186 487.16263 
L 239.192475 492.264107 
L 240.531764 488.877061 
L 241.871053 485.824537 
L 243.210342 495.065737 
L 244.54963 489.295214 
L 245.888919 495.149368 
L 247.228208 489.755184 
L 248.567497 488.835245 
L 249.906786 485.991799 
L 251.246075 488.667984 
L 252.585363 486.326322 
L 253.924652 485.448199 
L 255.263941 488.626168 
L 256.60323 486.242691 
L 257.942519 483.482876 
L 259.281808 485.280937 
L 260.621096 490.173337 
L 261.960385 483.441061 
L 263.299674 486.284507 
L 264.638963 485.364568 
L 265.978252 489.127953 
L 267.317541 482.228414 
L 268.656829 485.991799 
L 269.996118 486.535399 
L 271.335407 481.517553 
L 272.674696 487.70623 
L 274.013985 486.535399 
L 275.353274 487.371707 
L 276.692562 482.855645 
L 278.031851 485.782722 
L 279.37114 490.675122 
L 280.710429 484.904599 
L 282.049718 484.611891 
L 283.389007 487.831676 
L 284.728295 486.368137 
L 286.067584 488.24983 
L 287.406873 486.869922 
L 288.746162 491.678691 
L 290.085451 488.709799 
L 291.42474 491.176907 
L 292.764028 489.922445 
L 294.103317 492.347737 
L 295.442606 491.218722 
L 296.781895 490.507861 
L 298.121184 493.644014 
L 299.460473 495.776599 
L 300.799761 490.215153 
L 302.13905 496.362014 
L 303.478339 496.194753 
L 304.817628 496.362014 
L 306.156917 496.40383 
L 307.496206 495.692968 
L 308.835494 497.532845 
L 310.174783 495.023922 
L 311.514072 491.135091 
L 312.853361 490.507861 
L 314.19265 488.208014 
L 315.531939 487.622599 
L 316.871227 473.656261 
L 318.210516 474.785276 
L 319.549805 473.948968 
L 320.889094 462.282476 
L 322.228383 448.901553 
L 323.567672 431.548168 
L 324.90696 408.34063 
L 326.246249 383.042322 
L 327.585538 376.644568 
L 328.924827 403.657307 
L 330.264116 452.957645 
L 331.603405 477.043307 
L 332.942693 497.700107 
L 334.281982 499.707245 
L 335.621271 506.564968 
L 336.96056 512.000968 
L 338.299849 514.133553 
L 339.639138 517.102445 
L 340.978426 521.116722 
L 342.317715 518.398722 
L 343.657004 519.444107 
L 344.996293 522.287553 
L 346.335582 522.412999 
L 347.674871 526.84543 
L 349.014159 525.967307 
L 350.353448 531.319676 
L 351.692737 528.225337 
L 353.032026 527.974445 
" clip-path="url(#p89eaf0aa2b)" style="fill: none; stroke: #ffb14e; stroke-width: 2; stroke-linecap: square"/>
   </g>
   <g id="patch_6">
    <path d="M 199.154688 566.820937 
L 199.154688 23.220937 
" style="fill: none; stroke: #000000; stroke-width: 0.8; stroke-linejoin: miter; stroke-linecap: square"/>
   </g>
   <g id="patch_7">
    <path d="M 199.154688 566.820937 
L 352.154688 566.820937 
" style="fill: none; stroke: #000000; stroke-width: 0.8; stroke-linejoin: miter; stroke-linecap: square"/>
   </g>
   <g id="text_24">
    <!-- High-aluminum -->
    <g transform="translate(228.585156 17.220937) scale(0.14 -0.14)">
     <defs>
      <path id="ArialMT-6c" d="M 409 0 
L 409 4581 
L 972 4581 
L 972 0 
L 409 0 
z
" transform="scale(0.015625)"/>
     </defs>
     <use xlink:href="#ArialMT-48"/>
     <use xlink:href="#ArialMT-69" x="72.216797"/>
     <use xlink:href="#ArialMT-67" x="94.433594"/>
     <use xlink:href="#ArialMT-68" x="150.048828"/>
     <use xlink:href="#ArialMT-2d" x="205.664062"/>
     <use xlink:href="#ArialMT-61" x="238.964844"/>
     <use xlink:href="#ArialMT-6c" x="294.580078"/>
     <use xlink:href="#ArialMT-75" x="316.796875"/>
     <use xlink:href="#ArialMT-6d" x="372.412109"/>
     <use xlink:href="#ArialMT-69" x="455.712891"/>
     <use xlink:href="#ArialMT-6e" x="477.929688"/>
     <use xlink:href="#ArialMT-75" x="533.544922"/>
     <use xlink:href="#ArialMT-6d" x="589.160156"/>
    </g>
   </g>
  </g>
  <g id="axes_3">
   <g id="patch_8">
    <path d="M 359.804687 183.10329 
L 512.804688 183.10329 
L 512.804688 23.220937 
L 359.804687 23.220937 
z
" style="fill: #ffffff"/>
   </g>
   <g id="matplotlib.axis_5">
    <g id="xtick_15">
     <g id="line2d_35">
      <g>
       <use xlink:href="#m4ca20da978" x="359.804687" y="183.10329" style="stroke: #000000; stroke-width: 0.8"/>
      </g>
     </g>
    </g>
    <g id="xtick_16">
     <g id="line2d_36">
      <g>
       <use xlink:href="#m4ca20da978" x="410.804687" y="183.10329" style="stroke: #000000; stroke-width: 0.8"/>
      </g>
     </g>
    </g>
    <g id="xtick_17">
     <g id="line2d_37">
      <g>
       <use xlink:href="#m4ca20da978" x="461.804688" y="183.10329" style="stroke: #000000; stroke-width: 0.8"/>
      </g>
     </g>
    </g>
    <g id="xtick_18">
     <g id="line2d_38">
      <g>
       <use xlink:href="#m4ca20da978" x="512.804688" y="183.10329" style="stroke: #000000; stroke-width: 0.8"/>
      </g>
     </g>
    </g>
    <g id="xtick_19">
     <g id="line2d_39">
      <g>
       <use xlink:href="#m6722c6ae7f" x="385.304687" y="183.10329" style="stroke: #000000; stroke-width: 0.6"/>
      </g>
     </g>
    </g>
    <g id="xtick_20">
     <g id="line2d_40">
      <g>
       <use xlink:href="#m6722c6ae7f" x="436.304687" y="183.10329" style="stroke: #000000; stroke-width: 0.6"/>
      </g>
     </g>
    </g>
    <g id="xtick_21">
     <g id="line2d_41">
      <g>
       <use xlink:href="#m6722c6ae7f" x="487.304688" y="183.10329" style="stroke: #000000; stroke-width: 0.6"/>
      </g>
     </g>
    </g>
   </g>
   <g id="matplotlib.axis_6">
    <g id="ytick_15">
     <g id="line2d_42"/>
     <g id="text_25">
      <!-- 2000 -->
      <g transform="translate(334.060937 148.186797) scale(0.1 -0.1)">
       <use xlink:href="#ArialMT-32"/>
       <use xlink:href="#ArialMT-30" x="55.615234"/>
       <use xlink:href="#ArialMT-30" x="111.230469"/>
       <use xlink:href="#ArialMT-30" x="166.845703"/>
      </g>
     </g>
    </g>
    <g id="ytick_16">
     <g id="line2d_43"/>
     <g id="text_26">
      <!-- 4000 -->
      <g transform="translate(334.060937 105.61281) scale(0.1 -0.1)">
       <use xlink:href="#ArialMT-34"/>
       <use xlink:href="#ArialMT-30" x="55.615234"/>
       <use xlink:href="#ArialMT-30" x="111.230469"/>
       <use xlink:href="#ArialMT-30" x="166.845703"/>
      </g>
     </g>
    </g>
    <g id="ytick_17">
     <g id="line2d_44"/>
     <g id="text_27">
      <!-- 6000 -->
      <g transform="translate(334.060937 63.038822) scale(0.1 -0.1)">
       <use xlink:href="#ArialMT-36"/>
       <use xlink:href="#ArialMT-30" x="55.615234"/>
       <use xlink:href="#ArialMT-30" x="111.230469"/>
       <use xlink:href="#ArialMT-30" x="166.845703"/>
      </g>
     </g>
    </g>
   </g>
   <g id="line2d_45">
    <path d="M 359.66381 122.213973 
L 361.003099 119.893691 
L 362.342388 116.168467 
L 363.681677 114.869961 
L 365.020965 109.739795 
L 366.360254 101.352719 
L 367.699543 94.987908 
L 369.038832 88.580523 
L 370.378121 100.92698 
L 371.71741 114.976396 
L 373.056698 122.277834 
L 374.395987 124.534256 
L 375.735276 124.385247 
L 377.074565 125.641179 
L 378.413854 127.408 
L 379.753143 126.705529 
L 381.092431 127.769879 
L 382.43172 125.385735 
L 383.771009 127.748592 
L 385.110298 129.132246 
L 386.449587 128.25948 
L 387.788876 126.98226 
L 389.128164 127.557009 
L 390.467453 126.833251 
L 391.806742 129.451551 
L 393.146031 128.557498 
L 394.48532 128.302054 
L 395.824609 126.918399 
L 397.163897 126.790677 
L 398.503186 127.812453 
L 399.842475 128.04661 
L 401.181764 127.961462 
L 402.521053 126.662955 
L 403.860342 129.515412 
L 405.19963 128.344628 
L 406.538919 129.259968 
L 407.878208 128.25948 
L 409.217497 128.04661 
L 410.556786 128.898089 
L 411.896075 127.471861 
L 413.235363 128.812941 
L 414.574652 125.300588 
L 415.913941 128.429776 
L 417.25323 130.962928 
L 418.592519 129.025811 
L 419.931808 130.856493 
L 421.271096 129.281255 
L 422.610385 128.791654 
L 423.949674 126.748103 
L 425.288963 129.366403 
L 426.628252 129.749569 
L 427.967541 130.345605 
L 429.306829 130.792632 
L 430.646118 129.962439 
L 431.985407 130.281744 
L 433.324696 131.793121 
L 434.663985 132.112426 
L 436.003274 130.175309 
L 437.342562 129.238681 
L 438.681851 129.281255 
L 440.02114 130.686197 
L 441.360429 130.0263 
L 442.699718 129.536699 
L 444.039007 130.899067 
L 445.378295 130.643623 
L 446.717584 129.664421 
L 448.056873 130.792632 
L 449.396162 131.537677 
L 450.735451 131.856982 
L 452.07474 133.219349 
L 453.414028 132.176287 
L 454.753317 131.601538 
L 456.092606 133.900533 
L 457.431895 133.943107 
L 458.771184 132.240147 
L 460.110473 134.539143 
L 461.449761 133.645089 
L 462.78905 136.54012 
L 464.128339 135.305475 
L 465.467628 134.901022 
L 466.806917 133.92182 
L 468.146206 133.730237 
L 469.485494 134.070829 
L 470.824783 133.112914 
L 472.164072 135.050031 
L 473.503361 134.198551 
L 474.84265 134.006968 
L 476.181939 132.878757 
L 477.521227 131.026789 
L 478.860516 132.942618 
L 480.199805 131.005502 
L 481.539094 128.280767 
L 482.878383 124.449108 
L 484.217672 117.488261 
L 485.55696 116.253615 
L 486.896249 114.912535 
L 488.235538 123.576341 
L 489.574827 128.68522 
L 490.914116 135.156466 
L 492.253405 135.390623 
L 493.592693 138.328228 
L 494.931982 138.370802 
L 496.271271 141.776721 
L 497.61056 138.924264 
L 498.949849 138.24308 
L 500.289138 140.307918 
L 501.628426 141.223259 
L 502.967715 138.924264 
L 504.307004 142.479191 
L 505.646293 140.64851 
L 506.985582 139.754456 
L 508.324871 140.925241 
L 509.664159 140.605936 
L 511.003448 140.903954 
L 512.342737 143.011366 
L 513.682026 141.138111 
" clip-path="url(#pac17beb33a)" style="fill: none; stroke: #000000; stroke-width: 2; stroke-linecap: square"/>
   </g>
   <g id="line2d_46">
    <path d="M 359.66381 117.977862 
L 361.003099 117.381826 
L 362.342388 118.190732 
L 363.681677 115.402135 
L 365.020965 114.678378 
L 366.360254 106.312589 
L 367.699543 101.544302 
L 369.038832 97.350765 
L 370.378121 96.81859 
L 371.71741 105.801701 
L 373.056698 114.018481 
L 374.395987 119.425377 
L 375.735276 120.276857 
L 377.074565 121.405068 
L 378.413854 119.361516 
L 379.753143 121.085763 
L 381.092431 120.511014 
L 382.43172 121.596651 
L 383.771009 119.744682 
L 385.110298 121.958529 
L 386.449587 122.086251 
L 387.788876 120.425866 
L 389.128164 123.214462 
L 390.467453 122.44813 
L 391.806742 125.449596 
L 393.146031 125.087718 
L 394.48532 121.724373 
L 395.824609 122.916444 
L 397.163897 123.29961 
L 398.503186 123.767924 
L 399.842475 124.129803 
L 401.181764 121.511503 
L 402.521053 122.064964 
L 403.860342 121.53279 
L 405.19963 123.831785 
L 406.538919 124.193664 
L 407.878208 121.958529 
L 409.217497 121.447642 
L 410.556786 121.830808 
L 411.896075 121.234772 
L 413.235363 123.257036 
L 414.574652 123.065453 
L 415.913941 122.02239 
L 417.25323 124.661978 
L 418.592519 123.214462 
L 419.931808 121.639225 
L 421.271096 122.682287 
L 422.610385 125.279301 
L 423.949674 122.384269 
L 425.288963 125.023857 
L 426.628252 122.490704 
L 427.967541 122.490704 
L 429.306829 123.065453 
L 430.646118 123.789211 
L 431.985407 124.981283 
L 433.324696 123.214462 
L 434.663985 124.725839 
L 436.003274 123.746637 
L 437.342562 125.470883 
L 438.681851 124.661978 
L 440.02114 124.640691 
L 441.360429 122.426843 
L 442.699718 123.427332 
L 444.039007 124.938709 
L 445.378295 124.832274 
L 446.717584 123.555054 
L 448.056873 125.21544 
L 449.396162 127.088695 
L 450.735451 128.238193 
L 452.07474 126.577807 
L 453.414028 127.940175 
L 454.753317 126.003058 
L 456.092606 128.749081 
L 457.431895 128.323341 
L 458.771184 128.387202 
L 460.110473 126.471372 
L 461.449761 129.17482 
L 462.78905 128.089184 
L 464.128339 128.25948 
L 465.467628 126.450085 
L 466.806917 126.322363 
L 468.146206 128.770367 
L 469.485494 128.280767 
L 470.824783 128.089184 
L 472.164072 130.281744 
L 473.503361 129.451551 
L 474.84265 128.110471 
L 476.181939 127.791166 
L 477.521227 127.897601 
L 478.860516 128.387202 
L 480.199805 126.535233 
L 481.539094 124.57683 
L 482.878383 124.257525 
L 484.217672 120.298144 
L 485.55696 116.317476 
L 486.896249 115.700153 
L 488.235538 117.530835 
L 489.574827 122.043677 
L 490.914116 126.301076 
L 492.253405 129.706995 
L 493.592693 132.623313 
L 494.931982 131.580251 
L 496.271271 132.495591 
L 497.61056 132.197573 
L 498.949849 130.856493 
L 500.289138 133.538654 
L 501.628426 134.752013 
L 502.967715 136.071806 
L 504.307004 135.390623 
L 505.646293 136.263389 
L 506.985582 135.369336 
L 508.324871 137.008434 
L 509.664159 135.135179 
L 511.003448 136.497546 
L 512.342737 134.922309 
L 513.682026 136.880712 
" clip-path="url(#pac17beb33a)" style="fill: none; stroke: #008e00; stroke-width: 2; stroke-linecap: square"/>
   </g>
   <g id="line2d_47">
    <path d="M 359.66381 120.0427 
L 361.003099 117.871427 
L 362.342388 117.999149 
L 363.681677 118.893202 
L 365.020965 117.4244 
L 366.360254 116.083319 
L 367.699543 116.934799 
L 369.038832 114.039768 
L 370.378121 118.254593 
L 371.71741 116.381337 
L 373.056698 116.104606 
L 374.395987 115.465996 
L 375.735276 115.93431 
L 377.074565 115.487283 
L 378.413854 115.359561 
L 379.753143 114.614517 
L 381.092431 116.296189 
L 382.43172 115.827875 
L 383.771009 115.742727 
L 385.110298 116.445198 
L 386.449587 115.593718 
L 387.788876 114.933822 
L 389.128164 114.444221 
L 390.467453 116.828364 
L 391.806742 114.912535 
L 393.146031 116.509059 
L 394.48532 115.359561 
L 395.824609 112.634826 
L 397.163897 114.891248 
L 398.503186 114.571943 
L 399.842475 114.8061 
L 401.181764 116.594207 
L 402.521053 114.955109 
L 403.860342 115.678866 
L 405.19963 115.189265 
L 406.538919 114.316499 
L 407.878208 115.08283 
L 409.217497 111.762059 
L 410.556786 114.550656 
L 411.896075 115.210552 
L 413.235363 114.8061 
L 414.574652 112.656113 
L 415.913941 112.805122 
L 417.25323 114.16749 
L 418.592519 111.464042 
L 419.931808 112.230373 
L 421.271096 116.381337 
L 422.610385 115.359561 
L 423.949674 114.699665 
L 425.288963 113.294723 
L 426.628252 116.934799 
L 427.967541 115.976884 
L 429.306829 116.658068 
L 430.646118 115.50857 
L 431.985407 115.700153 
L 433.324696 116.57292 
L 434.663985 116.14718 
L 436.003274 114.210064 
L 437.342562 114.976396 
L 438.681851 116.232328 
L 440.02114 118.041723 
L 441.360429 116.721929 
L 442.699718 116.977373 
L 444.039007 116.849651 
L 445.378295 117.4244 
L 446.717584 117.019947 
L 448.056873 117.892714 
L 449.396162 117.914001 
L 450.735451 117.552122 
L 452.07474 119.19122 
L 453.414028 118.786767 
L 454.753317 118.957063 
L 456.092606 120.106561 
L 457.431895 118.27588 
L 458.771184 118.318454 
L 460.110473 118.722906 
L 461.449761 120.319431 
L 462.78905 122.256547 
L 464.128339 119.978839 
L 465.467628 120.574875 
L 466.806917 119.553099 
L 468.146206 123.916933 
L 469.485494 121.681799 
L 470.824783 118.850628 
L 472.164072 121.766947 
L 473.503361 122.87387 
L 474.84265 124.108516 
L 476.181939 121.064476 
L 477.521227 125.449596 
L 478.860516 123.746637 
L 480.199805 124.36396 
L 481.539094 122.511991 
L 482.878383 126.364937 
L 484.217672 124.959996 
L 485.55696 126.428798 
L 486.896249 126.173354 
L 488.235538 124.7897 
L 489.574827 127.684731 
L 490.914116 128.493637 
L 492.253405 126.237215 
L 493.592693 125.832762 
L 494.931982 127.386713 
L 496.271271 125.70504 
L 497.61056 127.578296 
L 498.949849 127.237704 
L 500.289138 129.60056 
L 501.628426 129.877291 
L 502.967715 129.834717 
L 504.307004 129.38769 
L 505.646293 128.536211 
L 506.985582 130.558475 
L 508.324871 130.494614 
L 509.664159 130.515901 
L 511.003448 131.835695 
L 512.342737 132.346582 
L 513.682026 131.346094 
" clip-path="url(#pac17beb33a)" style="fill: none; stroke: #ffb14e; stroke-width: 2; stroke-linecap: square"/>
   </g>
   <g id="patch_9">
    <path d="M 359.804687 183.10329 
L 359.804687 23.220937 
" style="fill: none; stroke: #000000; stroke-width: 0.8; stroke-linejoin: miter; stroke-linecap: square"/>
   </g>
   <g id="patch_10">
    <path d="M 359.804687 183.10329 
L 512.804688 183.10329 
" style="fill: none; stroke: #000000; stroke-width: 0.8; stroke-linejoin: miter; stroke-linecap: square"/>
   </g>
   <g id="text_28">
    <!-- Moderate-aluminum -->
    <g transform="translate(374.061562 17.220937) scale(0.14 -0.14)">
     <defs>
      <path id="ArialMT-4d" d="M 475 0 
L 475 4581 
L 1388 4581 
L 2472 1338 
Q 2622 884 2691 659 
Q 2769 909 2934 1394 
L 4031 4581 
L 4847 4581 
L 4847 0 
L 4263 0 
L 4263 3834 
L 2931 0 
L 2384 0 
L 1059 3900 
L 1059 0 
L 475 0 
z
" transform="scale(0.015625)"/>
      <path id="ArialMT-6f" d="M 213 1659 
Q 213 2581 725 3025 
Q 1153 3394 1769 3394 
Q 2453 3394 2887 2945 
Q 3322 2497 3322 1706 
Q 3322 1066 3130 698 
Q 2938 331 2570 128 
Q 2203 -75 1769 -75 
Q 1072 -75 642 372 
Q 213 819 213 1659 
z
M 791 1659 
Q 791 1022 1069 705 
Q 1347 388 1769 388 
Q 2188 388 2466 706 
Q 2744 1025 2744 1678 
Q 2744 2294 2464 2611 
Q 2184 2928 1769 2928 
Q 1347 2928 1069 2612 
Q 791 2297 791 1659 
z
" transform="scale(0.015625)"/>
      <path id="ArialMT-64" d="M 2575 0 
L 2575 419 
Q 2259 -75 1647 -75 
Q 1250 -75 917 144 
Q 584 363 401 755 
Q 219 1147 219 1656 
Q 219 2153 384 2558 
Q 550 2963 881 3178 
Q 1213 3394 1622 3394 
Q 1922 3394 2156 3267 
Q 2391 3141 2538 2938 
L 2538 4581 
L 3097 4581 
L 3097 0 
L 2575 0 
z
M 797 1656 
Q 797 1019 1065 703 
Q 1334 388 1700 388 
Q 2069 388 2326 689 
Q 2584 991 2584 1609 
Q 2584 2291 2321 2609 
Q 2059 2928 1675 2928 
Q 1300 2928 1048 2622 
Q 797 2316 797 1656 
z
" transform="scale(0.015625)"/>
      <path id="ArialMT-72" d="M 416 0 
L 416 3319 
L 922 3319 
L 922 2816 
Q 1116 3169 1280 3281 
Q 1444 3394 1641 3394 
Q 1925 3394 2219 3213 
L 2025 2691 
Q 1819 2813 1613 2813 
Q 1428 2813 1281 2702 
Q 1134 2591 1072 2394 
Q 978 2094 978 1738 
L 978 0 
L 416 0 
z
" transform="scale(0.015625)"/>
      <path id="ArialMT-74" d="M 1650 503 
L 1731 6 
Q 1494 -44 1306 -44 
Q 1000 -44 831 53 
Q 663 150 594 308 
Q 525 466 525 972 
L 525 2881 
L 113 2881 
L 113 3319 
L 525 3319 
L 525 4141 
L 1084 4478 
L 1084 3319 
L 1650 3319 
L 1650 2881 
L 1084 2881 
L 1084 941 
Q 1084 700 1114 631 
Q 1144 563 1211 522 
Q 1278 481 1403 481 
Q 1497 481 1650 503 
z
" transform="scale(0.015625)"/>
     </defs>
     <use xlink:href="#ArialMT-4d"/>
     <use xlink:href="#ArialMT-6f" x="83.300781"/>
     <use xlink:href="#ArialMT-64" x="138.916016"/>
     <use xlink:href="#ArialMT-65" x="194.53125"/>
     <use xlink:href="#ArialMT-72" x="250.146484"/>
     <use xlink:href="#ArialMT-61" x="283.447266"/>
     <use xlink:href="#ArialMT-74" x="339.0625"/>
     <use xlink:href="#ArialMT-65" x="366.845703"/>
     <use xlink:href="#ArialMT-2d" x="422.460938"/>
     <use xlink:href="#ArialMT-61" x="455.761719"/>
     <use xlink:href="#ArialMT-6c" x="511.376953"/>
     <use xlink:href="#ArialMT-75" x="533.59375"/>
     <use xlink:href="#ArialMT-6d" x="589.208984"/>
     <use xlink:href="#ArialMT-69" x="672.509766"/>
     <use xlink:href="#ArialMT-6e" x="694.726562"/>
     <use xlink:href="#ArialMT-75" x="750.341797"/>
     <use xlink:href="#ArialMT-6d" x="805.957031"/>
    </g>
   </g>
  </g>
  <g id="axes_4">
   <g id="patch_11">
    <path d="M 359.804687 374.962114 
L 512.804688 374.962114 
L 512.804688 215.079761 
L 359.804687 215.079761 
z
" style="fill: #ffffff"/>
   </g>
   <g id="matplotlib.axis_7">
    <g id="xtick_22">
     <g id="line2d_48">
      <g>
       <use xlink:href="#m4ca20da978" x="359.804687" y="374.962114" style="stroke: #000000; stroke-width: 0.8"/>
      </g>
     </g>
     <g id="text_29">
      <!-- 10 -->
      <g transform="translate(354.24375 389.119926) scale(0.1 -0.1)">
       <use xlink:href="#ArialMT-31"/>
       <use xlink:href="#ArialMT-30" x="55.615234"/>
      </g>
     </g>
    </g>
    <g id="xtick_23">
     <g id="line2d_49">
      <g>
       <use xlink:href="#m4ca20da978" x="410.804687" y="374.962114" style="stroke: #000000; stroke-width: 0.8"/>
      </g>
     </g>
     <g id="text_30">
      <!-- 11 -->
      <g transform="translate(405.6125 389.119926) scale(0.1 -0.1)">
       <use xlink:href="#ArialMT-31"/>
       <use xlink:href="#ArialMT-31" x="48.240234"/>
      </g>
     </g>
    </g>
    <g id="xtick_24">
     <g id="line2d_50">
      <g>
       <use xlink:href="#m4ca20da978" x="461.804688" y="374.962114" style="stroke: #000000; stroke-width: 0.8"/>
      </g>
     </g>
     <g id="text_31">
      <!-- 12 -->
      <g transform="translate(456.24375 389.119926) scale(0.1 -0.1)">
       <use xlink:href="#ArialMT-31"/>
       <use xlink:href="#ArialMT-32" x="55.615234"/>
      </g>
     </g>
    </g>
    <g id="xtick_25">
     <g id="line2d_51">
      <g>
       <use xlink:href="#m4ca20da978" x="512.804688" y="374.962114" style="stroke: #000000; stroke-width: 0.8"/>
      </g>
     </g>
     <g id="text_32">
      <!-- 13 -->
      <g transform="translate(507.24375 389.119926) scale(0.1 -0.1)">
       <use xlink:href="#ArialMT-31"/>
       <use xlink:href="#ArialMT-33" x="55.615234"/>
      </g>
     </g>
    </g>
    <g id="xtick_26">
     <g id="line2d_52">
      <g>
       <use xlink:href="#m6722c6ae7f" x="385.304687" y="374.962114" style="stroke: #000000; stroke-width: 0.6"/>
      </g>
     </g>
    </g>
    <g id="xtick_27">
     <g id="line2d_53">
      <g>
       <use xlink:href="#m6722c6ae7f" x="436.304687" y="374.962114" style="stroke: #000000; stroke-width: 0.6"/>
      </g>
     </g>
    </g>
    <g id="xtick_28">
     <g id="line2d_54">
      <g>
       <use xlink:href="#m6722c6ae7f" x="487.304688" y="374.962114" style="stroke: #000000; stroke-width: 0.6"/>
      </g>
     </g>
    </g>
   </g>
   <g id="matplotlib.axis_8">
    <g id="ytick_18">
     <g id="line2d_55"/>
     <g id="text_33">
      <!-- 2000 -->
      <g transform="translate(334.060937 347.303127) scale(0.1 -0.1)">
       <use xlink:href="#ArialMT-32"/>
       <use xlink:href="#ArialMT-30" x="55.615234"/>
       <use xlink:href="#ArialMT-30" x="111.230469"/>
       <use xlink:href="#ArialMT-30" x="166.845703"/>
      </g>
     </g>
    </g>
    <g id="ytick_19">
     <g id="line2d_56"/>
     <g id="text_34">
      <!-- 4000 -->
      <g transform="translate(334.060937 314.866708) scale(0.1 -0.1)">
       <use xlink:href="#ArialMT-34"/>
       <use xlink:href="#ArialMT-30" x="55.615234"/>
       <use xlink:href="#ArialMT-30" x="111.230469"/>
       <use xlink:href="#ArialMT-30" x="166.845703"/>
      </g>
     </g>
    </g>
    <g id="ytick_20">
     <g id="line2d_57"/>
     <g id="text_35">
      <!-- 6000 -->
      <g transform="translate(334.060937 282.430289) scale(0.1 -0.1)">
       <use xlink:href="#ArialMT-36"/>
       <use xlink:href="#ArialMT-30" x="55.615234"/>
       <use xlink:href="#ArialMT-30" x="111.230469"/>
       <use xlink:href="#ArialMT-30" x="166.845703"/>
      </g>
     </g>
    </g>
    <g id="ytick_21">
     <g id="line2d_58"/>
     <g id="text_36">
      <!-- 8000 -->
      <g transform="translate(334.060937 249.99387) scale(0.1 -0.1)">
       <use xlink:href="#ArialMT-38"/>
       <use xlink:href="#ArialMT-30" x="55.615234"/>
       <use xlink:href="#ArialMT-30" x="111.230469"/>
       <use xlink:href="#ArialMT-30" x="166.845703"/>
      </g>
     </g>
    </g>
   </g>
   <g id="line2d_59">
    <path d="M 359.66381 323.743387 
L 361.003099 326.5167 
L 362.342388 325.770663 
L 363.681677 326.889719 
L 365.020965 325.867972 
L 366.360254 324.456988 
L 367.699543 322.397275 
L 369.038832 323.094658 
L 370.378121 324.765134 
L 371.71741 322.121566 
L 373.056698 324.002878 
L 374.395987 321.862074 
L 375.735276 323.629859 
L 377.074565 323.321713 
L 378.413854 321.845856 
L 379.753143 321.780983 
L 381.092431 322.478366 
L 382.43172 322.916258 
L 383.771009 320.856545 
L 385.110298 320.986291 
L 386.449587 318.618432 
L 387.788876 322.981131 
L 389.128164 320.467308 
L 390.467453 319.607743 
L 391.806742 319.023888 
L 393.146031 319.510434 
L 394.48532 320.645709 
L 395.824609 319.477997 
L 397.163897 318.342723 
L 398.503186 318.796833 
L 399.842475 318.829269 
L 401.181764 317.677776 
L 402.521053 317.061484 
L 403.860342 318.861705 
L 405.19963 317.742649 
L 406.538919 317.839958 
L 407.878208 316.73712 
L 409.217497 316.980393 
L 410.556786 316.931739 
L 411.896075 316.347883 
L 413.235363 317.110139 
L 414.574652 316.218137 
L 415.913941 316.039737 
L 417.25323 317.239885 
L 418.592519 316.850647 
L 419.931808 316.266792 
L 421.271096 316.947957 
L 422.610385 316.023519 
L 423.949674 315.6505 
L 425.288963 315.845119 
L 426.628252 317.077702 
L 427.967541 316.623593 
L 429.306829 317.045266 
L 430.646118 316.477629 
L 431.985407 317.82374 
L 433.324696 316.120828 
L 434.663985 319.18607 
L 436.003274 318.375159 
L 437.342562 318.488687 
L 438.681851 318.683305 
L 440.02114 318.699523 
L 441.360429 318.050795 
L 442.699718 319.705052 
L 444.039007 317.969704 
L 445.378295 319.802362 
L 446.717584 321.180909 
L 448.056873 319.769925 
L 449.396162 321.456619 
L 450.735451 322.283748 
L 452.07474 323.046004 
L 453.414028 321.213346 
L 454.753317 321.926947 
L 456.092606 322.591894 
L 457.431895 321.99182 
L 458.771184 323.273058 
L 460.110473 323.921787 
L 461.449761 323.905569 
L 462.78905 325.267898 
L 464.128339 323.175749 
L 465.467628 324.927316 
L 466.806917 325.867972 
L 468.146206 325.397644 
L 469.485494 327.911466 
L 470.824783 328.819686 
L 472.164072 326.532919 
L 473.503361 325.997718 
L 474.84265 328.608849 
L 476.181939 329.77656 
L 477.521227 329.160269 
L 478.860516 329.517069 
L 480.199805 329.77656 
L 481.539094 329.046741 
L 482.878383 330.814526 
L 484.217672 331.463254 
L 485.55696 330.782089 
L 486.896249 332.257947 
L 488.235538 332.290383 
L 489.574827 332.257947 
L 490.914116 333.620276 
L 492.253405 333.863549 
L 493.592693 332.776929 
L 494.931982 334.317659 
L 496.271271 334.625805 
L 497.61056 335.290752 
L 498.949849 335.015042 
L 500.289138 335.469152 
L 501.628426 335.096133 
L 502.967715 336.555772 
L 504.307004 335.647552 
L 505.646293 336.474681 
L 506.985582 337.577519 
L 508.324871 336.685518 
L 509.664159 336.377372 
L 511.003448 337.188282 
L 512.342737 337.463992 
L 513.682026 336.134099 
" clip-path="url(#pd236e1ef0b)" style="fill: none; stroke: #000000; stroke-width: 2; stroke-linecap: square"/>
   </g>
   <g id="line2d_60">
    <path d="M 359.66381 316.866866 
L 361.003099 315.666718 
L 362.342388 316.007301 
L 363.681677 316.785775 
L 365.020965 314.936899 
L 366.360254 314.061115 
L 367.699543 316.266792 
L 369.038832 314.758498 
L 370.378121 314.466571 
L 371.71741 314.693626 
L 373.056698 313.769188 
L 374.395987 313.947588 
L 375.735276 313.866497 
L 377.074565 314.499007 
L 378.413854 313.20155 
L 379.753143 312.84475 
L 381.092431 310.898565 
L 382.43172 309.065907 
L 383.771009 305.660083 
L 385.110298 307.249467 
L 386.449587 309.017252 
L 387.788876 310.606637 
L 389.128164 311.255365 
L 390.467453 312.341985 
L 391.806742 311.514857 
L 393.146031 309.374053 
L 394.48532 310.168745 
L 395.824609 310.509328 
L 397.163897 310.703946 
L 398.503186 310.347145 
L 399.842475 311.12562 
L 401.181764 310.768819 
L 402.521053 308.790197 
L 403.860342 310.022781 
L 405.19963 307.217031 
L 406.538919 309.114562 
L 407.878208 309.974127 
L 409.217497 306.422339 
L 410.556786 306.260157 
L 411.896075 301.751494 
L 413.235363 304.23288 
L 414.574652 307.119722 
L 415.913941 310.720164 
L 417.25323 311.044528 
L 418.592519 309.601108 
L 419.931808 310.5742 
L 421.271096 309.276744 
L 422.610385 309.990345 
L 423.949674 312.082494 
L 425.288963 309.552453 
L 426.628252 310.541764 
L 427.967541 309.795726 
L 429.306829 309.276744 
L 430.646118 309.30918 
L 431.985407 309.94169 
L 433.324696 309.909254 
L 434.663985 311.287802 
L 436.003274 313.266423 
L 437.342562 315.066644 
L 438.681851 314.028679 
L 440.02114 312.001403 
L 441.360429 312.828532 
L 442.699718 313.461042 
L 444.039007 314.434134 
L 445.378295 312.439295 
L 446.717584 315.391009 
L 448.056873 315.488318 
L 449.396162 312.487949 
L 450.735451 314.758498 
L 452.07474 316.704684 
L 453.414028 318.488687 
L 454.753317 316.380319 
L 456.092606 317.418285 
L 457.431895 315.504536 
L 458.771184 317.483158 
L 460.110473 317.353412 
L 461.449761 318.018359 
L 462.78905 318.650869 
L 464.128339 320.094289 
L 465.467628 320.418654 
L 466.806917 319.559088 
L 468.146206 320.256471 
L 469.485494 320.856545 
L 470.824783 320.191599 
L 472.164072 323.954223 
L 473.503361 321.780983 
L 474.84265 322.235093 
L 476.181939 322.786512 
L 477.521227 323.175749 
L 478.860516 321.748547 
L 480.199805 323.451459 
L 481.539094 325.348989 
L 482.878383 325.121934 
L 484.217672 324.44077 
L 485.55696 324.894879 
L 486.896249 325.381426 
L 488.235538 325.381426 
L 489.574827 325.70579 
L 490.914116 325.543608 
L 492.253405 326.549137 
L 493.592693 327.197865 
L 494.931982 329.095396 
L 496.271271 328.949432 
L 497.61056 329.257578 
L 498.949849 328.771031 
L 500.289138 330.133361 
L 501.628426 328.96565 
L 502.967715 330.117143 
L 504.307004 329.792779 
L 505.646293 331.706527 
L 506.985582 330.96049 
L 508.324871 331.365945 
L 509.664159 330.246889 
L 511.003448 331.868709 
L 512.342737 332.841802 
L 513.682026 331.576782 
" clip-path="url(#pd236e1ef0b)" style="fill: none; stroke: #008e00; stroke-width: 2; stroke-linecap: square"/>
   </g>
   <g id="line2d_61">
    <path d="M 359.66381 313.088023 
L 361.003099 310.525546 
L 362.342388 309.779508 
L 363.681677 311.806784 
L 365.020965 310.201182 
L 366.360254 310.866128 
L 367.699543 311.174274 
L 369.038832 310.184963 
L 370.378121 310.347145 
L 371.71741 310.006563 
L 373.056698 312.341985 
L 374.395987 310.039 
L 375.735276 308.563142 
L 377.074565 307.881978 
L 378.413854 308.546924 
L 379.753143 310.379582 
L 381.092431 309.065907 
L 382.43172 307.94685 
L 383.771009 305.270846 
L 385.110298 305.676301 
L 386.449587 304.7843 
L 387.788876 303.713898 
L 389.128164 308.092814 
L 390.467453 305.854701 
L 391.806742 304.995136 
L 393.146031 303.973389 
L 394.48532 304.832954 
L 395.824609 306.422339 
L 397.163897 303.14626 
L 398.503186 304.297753 
L 399.842475 303.24357 
L 401.181764 304.346408 
L 402.521053 302.400223 
L 403.860342 301.621749 
L 405.19963 303.713898 
L 406.538919 301.832585 
L 407.878208 301.686622 
L 409.217497 303.113824 
L 410.556786 302.400223 
L 411.896075 303.908516 
L 413.235363 301.897458 
L 414.574652 302.627278 
L 415.913941 302.400223 
L 417.25323 301.346039 
L 418.592519 304.022044 
L 419.931808 303.308443 
L 421.271096 301.475785 
L 422.610385 301.800149 
L 423.949674 300.924366 
L 425.288963 301.540658 
L 426.628252 302.05964 
L 427.967541 301.848804 
L 429.306829 302.96786 
L 430.646118 302.78946 
L 431.985407 302.367786 
L 433.324696 304.50859 
L 434.663985 304.978918 
L 436.003274 304.395063 
L 437.342562 302.594841 
L 438.681851 307.103504 
L 440.02114 305.741174 
L 441.360429 305.708738 
L 442.699718 304.265317 
L 444.039007 304.881609 
L 445.378295 307.492741 
L 446.717584 305.643865 
L 448.056873 305.984447 
L 449.396162 306.470993 
L 450.735451 306.941321 
L 452.07474 308.368524 
L 453.414028 308.692888 
L 454.753317 309.747072 
L 456.092606 307.638704 
L 457.431895 310.168745 
L 458.771184 310.590419 
L 460.110473 311.401329 
L 461.449761 313.590787 
L 462.78905 311.774348 
L 464.128339 312.520386 
L 465.467628 313.688097 
L 466.806917 312.374422 
L 468.146206 314.012461 
L 469.485494 312.11493 
L 470.824783 315.228827 
L 472.164072 315.8289 
L 473.503361 316.510065 
L 474.84265 316.493847 
L 476.181939 315.601845 
L 477.521227 317.466939 
L 478.860516 318.877924 
L 480.199805 319.445561 
L 481.539094 317.921049 
L 482.878383 318.894142 
L 484.217672 319.348252 
L 485.55696 320.937636 
L 486.896249 320.094289 
L 488.235538 320.986291 
L 489.574827 320.159162 
L 490.914116 319.81858 
L 492.253405 321.553928 
L 493.592693 322.510803 
L 494.931982 323.013567 
L 496.271271 324.051533 
L 497.61056 323.646077 
L 498.949849 324.635388 
L 500.289138 323.370368 
L 501.628426 324.878661 
L 502.967715 327.668193 
L 504.307004 325.592262 
L 505.646293 326.1599 
L 506.985582 325.608481 
L 508.324871 326.305864 
L 509.664159 326.922156 
L 511.003448 328.998086 
L 512.342737 326.581573 
L 513.682026 328.884559 
" clip-path="url(#pd236e1ef0b)" style="fill: none; stroke: #ffb14e; stroke-width: 2; stroke-linecap: square"/>
   </g>
   <g id="patch_12">
    <path d="M 359.804687 374.962114 
L 359.804687 215.079761 
" style="fill: none; stroke: #000000; stroke-width: 0.8; stroke-linejoin: miter; stroke-linecap: square"/>
   </g>
   <g id="patch_13">
    <path d="M 359.804687 374.962114 
L 512.804688 374.962114 
" style="fill: none; stroke: #000000; stroke-width: 0.8; stroke-linejoin: miter; stroke-linecap: square"/>
   </g>
   <g id="text_37">
    <!-- Moderate-magnesium -->
    <g transform="translate(368.224219 209.079761) scale(0.14 -0.14)">
     <use xlink:href="#ArialMT-4d"/>
     <use xlink:href="#ArialMT-6f" x="83.300781"/>
     <use xlink:href="#ArialMT-64" x="138.916016"/>
     <use xlink:href="#ArialMT-65" x="194.53125"/>
     <use xlink:href="#ArialMT-72" x="250.146484"/>
     <use xlink:href="#ArialMT-61" x="283.447266"/>
     <use xlink:href="#ArialMT-74" x="339.0625"/>
     <use xlink:href="#ArialMT-65" x="366.845703"/>
     <use xlink:href="#ArialMT-2d" x="422.460938"/>
     <use xlink:href="#ArialMT-6d" x="455.761719"/>
     <use xlink:href="#ArialMT-61" x="539.0625"/>
     <use xlink:href="#ArialMT-67" x="594.677734"/>
     <use xlink:href="#ArialMT-6e" x="650.292969"/>
     <use xlink:href="#ArialMT-65" x="705.908203"/>
     <use xlink:href="#ArialMT-73" x="761.523438"/>
     <use xlink:href="#ArialMT-69" x="811.523438"/>
     <use xlink:href="#ArialMT-75" x="833.740234"/>
     <use xlink:href="#ArialMT-6d" x="889.355469"/>
    </g>
   </g>
  </g>
  <g id="axes_5">
   <g id="patch_14">
    <path d="M 359.804687 566.820937 
L 512.804688 566.820937 
L 512.804688 406.938585 
L 359.804687 406.938585 
z
" style="fill: #ffffff"/>
   </g>
   <g id="matplotlib.axis_9">
    <g id="xtick_29">
     <g id="line2d_62">
      <g>
       <use xlink:href="#m4ca20da978" x="359.804687" y="566.820937" style="stroke: #000000; stroke-width: 0.8"/>
      </g>
     </g>
     <g id="text_38">
      <!-- 10 -->
      <g transform="translate(354.24375 580.97875) scale(0.1 -0.1)">
       <use xlink:href="#ArialMT-31"/>
       <use xlink:href="#ArialMT-30" x="55.615234"/>
      </g>
     </g>
    </g>
    <g id="xtick_30">
     <g id="line2d_63">
      <g>
       <use xlink:href="#m4ca20da978" x="410.804687" y="566.820937" style="stroke: #000000; stroke-width: 0.8"/>
      </g>
     </g>
     <g id="text_39">
      <!-- 11 -->
      <g transform="translate(405.6125 580.97875) scale(0.1 -0.1)">
       <use xlink:href="#ArialMT-31"/>
       <use xlink:href="#ArialMT-31" x="48.240234"/>
      </g>
     </g>
    </g>
    <g id="xtick_31">
     <g id="line2d_64">
      <g>
       <use xlink:href="#m4ca20da978" x="461.804688" y="566.820937" style="stroke: #000000; stroke-width: 0.8"/>
      </g>
     </g>
     <g id="text_40">
      <!-- 12 -->
      <g transform="translate(456.24375 580.97875) scale(0.1 -0.1)">
       <use xlink:href="#ArialMT-31"/>
       <use xlink:href="#ArialMT-32" x="55.615234"/>
      </g>
     </g>
    </g>
    <g id="xtick_32">
     <g id="line2d_65">
      <g>
       <use xlink:href="#m4ca20da978" x="512.804688" y="566.820937" style="stroke: #000000; stroke-width: 0.8"/>
      </g>
     </g>
     <g id="text_41">
      <!-- 13 -->
      <g transform="translate(507.24375 580.97875) scale(0.1 -0.1)">
       <use xlink:href="#ArialMT-31"/>
       <use xlink:href="#ArialMT-33" x="55.615234"/>
      </g>
     </g>
    </g>
    <g id="xtick_33">
     <g id="line2d_66">
      <g>
       <use xlink:href="#m6722c6ae7f" x="385.304687" y="566.820937" style="stroke: #000000; stroke-width: 0.6"/>
      </g>
     </g>
    </g>
    <g id="xtick_34">
     <g id="line2d_67">
      <g>
       <use xlink:href="#m6722c6ae7f" x="436.304687" y="566.820937" style="stroke: #000000; stroke-width: 0.6"/>
      </g>
     </g>
    </g>
    <g id="xtick_35">
     <g id="line2d_68">
      <g>
       <use xlink:href="#m6722c6ae7f" x="487.304688" y="566.820937" style="stroke: #000000; stroke-width: 0.6"/>
      </g>
     </g>
    </g>
   </g>
   <g id="matplotlib.axis_10">
    <g id="ytick_22">
     <g id="line2d_69"/>
     <g id="text_42">
      <!-- 2000 -->
      <g transform="translate(334.060937 530.828337) scale(0.1 -0.1)">
       <use xlink:href="#ArialMT-32"/>
       <use xlink:href="#ArialMT-30" x="55.615234"/>
       <use xlink:href="#ArialMT-30" x="111.230469"/>
       <use xlink:href="#ArialMT-30" x="166.845703"/>
      </g>
     </g>
    </g>
    <g id="ytick_23">
     <g id="line2d_70"/>
     <g id="text_43">
      <!-- 4000 -->
      <g transform="translate(334.060937 488.874926) scale(0.1 -0.1)">
       <use xlink:href="#ArialMT-34"/>
       <use xlink:href="#ArialMT-30" x="55.615234"/>
       <use xlink:href="#ArialMT-30" x="111.230469"/>
       <use xlink:href="#ArialMT-30" x="166.845703"/>
      </g>
     </g>
    </g>
    <g id="ytick_24">
     <g id="line2d_71"/>
     <g id="text_44">
      <!-- 6000 -->
      <g transform="translate(334.060937 446.921515) scale(0.1 -0.1)">
       <use xlink:href="#ArialMT-36"/>
       <use xlink:href="#ArialMT-30" x="55.615234"/>
       <use xlink:href="#ArialMT-30" x="111.230469"/>
       <use xlink:href="#ArialMT-30" x="166.845703"/>
      </g>
     </g>
    </g>
   </g>
   <g id="line2d_72">
    <path d="M 359.66381 499.853853 
L 361.003099 503.734544 
L 362.342388 504.154078 
L 363.681677 504.321892 
L 365.020965 506.734213 
L 366.360254 505.475611 
L 367.699543 509.251418 
L 369.038832 507.741095 
L 370.378121 510.845647 
L 371.71741 508.454303 
L 373.056698 507.950862 
L 374.395987 510.63588 
L 375.735276 507.615235 
L 377.074565 507.950862 
L 378.413854 509.230441 
L 379.753143 509.838765 
L 381.092431 507.1957 
L 382.43172 510.740764 
L 383.771009 509.943649 
L 385.110298 507.845978 
L 386.449587 509.377278 
L 387.788876 509.272394 
L 389.128164 508.60114 
L 390.467453 506.209795 
L 391.806742 507.111794 
L 393.146031 507.1957 
L 394.48532 506.503469 
L 395.824609 507.321561 
L 397.163897 507.279607 
L 398.503186 508.433326 
L 399.842475 507.300584 
L 401.181764 507.908908 
L 402.521053 505.580494 
L 403.860342 508.118676 
L 405.19963 510.971507 
L 406.538919 506.125888 
L 407.878208 507.153747 
L 409.217497 508.181606 
L 410.556786 507.342537 
L 411.896075 505.601471 
L 413.235363 506.713236 
L 414.574652 505.34975 
L 415.913941 504.237985 
L 417.25323 505.181937 
L 418.592519 505.727331 
L 419.931808 505.244867 
L 421.271096 504.489705 
L 422.610385 504.489705 
L 423.949674 504.258962 
L 425.288963 503.818451 
L 426.628252 504.531659 
L 427.967541 502.874499 
L 429.306829 503.231103 
L 430.646118 503.042313 
L 431.985407 502.601802 
L 433.324696 501.804687 
L 434.663985 503.755521 
L 436.003274 498.658181 
L 437.342562 500.588038 
L 438.681851 502.580825 
L 440.02114 497.001022 
L 441.360429 501.3432 
L 442.699718 500.650968 
L 444.039007 501.280269 
L 445.378295 500.839759 
L 446.717584 499.665063 
L 448.056873 501.930547 
L 449.396162 501.3432 
L 450.735451 501.825664 
L 452.07474 505.28682 
L 453.414028 504.993146 
L 454.753317 505.874168 
L 456.092606 506.482492 
L 457.431895 506.985933 
L 458.771184 507.090817 
L 460.110473 508.454303 
L 461.449761 509.482161 
L 462.78905 510.027556 
L 464.128339 510.76174 
L 465.467628 511.516902 
L 466.806917 510.111463 
L 468.146206 513.761409 
L 469.485494 511.202251 
L 470.824783 513.509689 
L 472.164072 514.726338 
L 473.503361 514.978058 
L 474.84265 515.250755 
L 476.181939 514.285827 
L 477.521227 516.509358 
L 478.860516 514.747315 
L 480.199805 515.754196 
L 481.539094 516.635218 
L 482.878383 515.628336 
L 484.217672 517.83089 
L 485.55696 519.718794 
L 486.896249 518.795819 
L 488.235538 518.502145 
L 489.574827 518.334331 
L 490.914116 518.690935 
L 492.253405 519.73977 
L 493.592693 522.424789 
L 494.931982 519.131446 
L 496.271271 520.662746 
L 497.61056 520.620792 
L 498.949849 522.613579 
L 500.289138 522.886276 
L 501.628426 522.089161 
L 502.967715 522.613579 
L 504.307004 522.970183 
L 505.646293 521.585721 
L 506.985582 522.047208 
L 508.324871 525.906922 
L 509.664159 524.543436 
L 511.003448 524.039995 
L 512.342737 524.207809 
L 513.682026 524.144879 
" clip-path="url(#p2c47d3aae9)" style="fill: none; stroke: #000000; stroke-width: 2; stroke-linecap: square"/>
   </g>
   <g id="line2d_73">
    <path d="M 359.66381 488.883036 
L 361.003099 488.043968 
L 362.342388 486.072158 
L 363.681677 490.64508 
L 365.020965 488.379595 
L 366.360254 489.889918 
L 367.699543 496.455627 
L 369.038832 495.637536 
L 370.378121 497.210789 
L 371.71741 495.385815 
L 373.056698 497.756183 
L 374.395987 500.021667 
L 375.735276 502.769616 
L 377.074565 500.567061 
L 378.413854 502.203245 
L 379.753143 502.433988 
L 381.092431 500.126551 
L 382.43172 501.951524 
L 383.771009 503.56673 
L 385.110298 502.203245 
L 386.449587 501.636873 
L 387.788876 501.59492 
L 389.128164 499.581156 
L 390.467453 500.902689 
L 391.806742 500.755852 
L 393.146031 501.154409 
L 394.48532 502.245198 
L 395.824609 502.035431 
L 397.163897 498.595251 
L 398.503186 498.888925 
L 399.842475 500.042644 
L 401.181764 501.40613 
L 402.521053 496.833208 
L 403.860342 499.098692 
L 405.19963 500.818782 
L 406.538919 500.273388 
L 407.878208 497.84009 
L 409.217497 498.784041 
L 410.556786 500.755852 
L 411.896075 496.518557 
L 413.235363 498.469391 
L 414.574652 497.651299 
L 415.913941 496.476604 
L 417.25323 496.539534 
L 418.592519 498.511344 
L 419.931808 495.029211 
L 421.271096 496.18293 
L 422.610385 495.868279 
L 423.949674 494.5887 
L 425.288963 497.441532 
L 426.628252 497.96595 
L 427.967541 496.43465 
L 429.306829 497.672276 
L 430.646118 495.469722 
L 431.985407 493.896469 
L 433.324696 494.777491 
L 434.663985 493.644749 
L 436.003274 492.74275 
L 437.342562 495.574606 
L 438.681851 493.330098 
L 440.02114 493.330098 
L 441.360429 491.882705 
L 442.699718 494.609677 
L 444.039007 491.589031 
L 445.378295 492.763727 
L 446.717584 491.505125 
L 448.056873 491.651962 
L 449.396162 491.295358 
L 450.735451 490.351406 
L 452.07474 490.414336 
L 453.414028 492.281263 
L 454.753317 493.120331 
L 456.092606 492.4281 
L 457.431895 493.833539 
L 458.771184 497.105905 
L 460.110473 497.77716 
L 461.449761 495.532652 
L 462.78905 497.630323 
L 464.128339 500.294364 
L 465.467628 498.637205 
L 466.806917 501.825664 
L 468.146206 501.636873 
L 469.485494 504.321892 
L 470.824783 503.105243 
L 472.164072 503.25208 
L 473.503361 503.18915 
L 474.84265 506.81812 
L 476.181939 504.846309 
L 477.521227 508.454303 
L 478.860516 509.628998 
L 480.199805 509.817789 
L 481.539094 509.691928 
L 482.878383 507.825002 
L 484.217672 510.489043 
L 485.55696 511.139321 
L 486.896249 511.789599 
L 488.235538 512.460854 
L 489.574827 514.20192 
L 490.914116 514.495594 
L 492.253405 514.26485 
L 493.592693 515.020012 
L 494.931982 516.551311 
L 496.271271 514.243874 
L 497.61056 515.691266 
L 498.949849 517.327449 
L 500.289138 516.446428 
L 501.628426 519.760747 
L 502.967715 517.89382 
L 504.307004 518.040657 
L 505.646293 518.711912 
L 506.985582 520.725676 
L 508.324871 519.446097 
L 509.664159 519.36219 
L 511.003448 520.557862 
L 512.342737 520.725676 
L 513.682026 520.830559 
" clip-path="url(#p2c47d3aae9)" style="fill: none; stroke: #008e00; stroke-width: 2; stroke-linecap: square"/>
   </g>
   <g id="line2d_74">
    <path d="M 359.66381 490.141639 
L 361.003099 489.826988 
L 362.342388 492.721774 
L 363.681677 489.11378 
L 365.020965 494.65163 
L 366.360254 495.071165 
L 367.699543 494.27405 
L 369.038832 496.476604 
L 370.378121 495.490699 
L 371.71741 494.001353 
L 373.056698 497.273719 
L 374.395987 495.99414 
L 375.735276 497.651299 
L 377.074565 497.90302 
L 378.413854 498.427438 
L 379.753143 498.574274 
L 381.092431 497.882043 
L 382.43172 496.539534 
L 383.771009 496.854185 
L 385.110298 496.036093 
L 386.449587 494.987258 
L 387.788876 495.280932 
L 389.128164 496.644418 
L 390.467453 496.203907 
L 391.806742 494.903351 
L 393.146031 495.385815 
L 394.48532 493.183261 
L 395.824609 493.246191 
L 397.163897 494.33698 
L 398.503186 493.875492 
L 399.842475 495.218002 
L 401.181764 493.686702 
L 402.521053 493.812562 
L 403.860342 495.364838 
L 405.19963 492.323216 
L 406.538919 491.693915 
L 407.878208 491.253404 
L 409.217497 492.218333 
L 410.556786 493.057401 
L 411.896075 492.197356 
L 413.235363 489.617221 
L 414.574652 491.651962 
L 415.913941 490.456289 
L 417.25323 489.785035 
L 418.592519 490.309452 
L 419.931808 493.644749 
L 421.271096 489.952848 
L 422.610385 490.561173 
L 423.949674 490.77094 
L 425.288963 489.197687 
L 426.628252 490.036755 
L 427.967541 487.960061 
L 429.306829 488.421549 
L 430.646118 487.162947 
L 431.985407 488.757176 
L 433.324696 487.14197 
L 434.663985 487.750294 
L 436.003274 487.288807 
L 437.342562 489.554291 
L 438.681851 486.554622 
L 440.02114 487.645411 
L 441.360429 487.687364 
L 442.699718 488.064945 
L 444.039007 488.064945 
L 445.378295 487.960061 
L 446.717584 486.323878 
L 448.056873 486.764389 
L 449.396162 487.288807 
L 450.735451 488.043968 
L 452.07474 488.463502 
L 453.414028 487.666387 
L 454.753317 489.449407 
L 456.092606 489.826988 
L 457.431895 492.36517 
L 458.771184 490.624103 
L 460.110473 491.924659 
L 461.449761 494.693584 
L 462.78905 491.253404 
L 464.128339 495.532652 
L 465.467628 494.127213 
L 466.806917 496.644418 
L 468.146206 497.084928 
L 469.485494 498.763065 
L 470.824783 498.301577 
L 472.164072 499.853853 
L 473.503361 501.007572 
L 474.84265 501.65785 
L 476.181939 502.308128 
L 477.521227 502.811569 
L 478.860516 504.342868 
L 480.199805 504.531659 
L 481.539094 504.007241 
L 482.878383 503.168173 
L 484.217672 504.321892 
L 485.55696 510.090486 
L 486.896249 509.188488 
L 488.235538 508.97872 
L 489.574827 508.181606 
L 490.914116 509.167511 
L 492.253405 509.964626 
L 493.592693 511.453972 
L 494.931982 511.537879 
L 496.271271 512.733551 
L 497.61056 511.999366 
L 498.949849 514.034107 
L 500.289138 513.551642 
L 501.628426 511.957413 
L 502.967715 513.216015 
L 504.307004 515.691266 
L 505.646293 515.586383 
L 506.985582 514.306804 
L 508.324871 514.999035 
L 509.664159 516.970845 
L 511.003448 517.285496 
L 512.342737 519.697817 
L 513.682026 518.229448 
" clip-path="url(#p2c47d3aae9)" style="fill: none; stroke: #ffb14e; stroke-width: 2; stroke-linecap: square"/>
   </g>
   <g id="patch_15">
    <path d="M 359.804687 566.820937 
L 359.804687 406.938585 
" style="fill: none; stroke: #000000; stroke-width: 0.8; stroke-linejoin: miter; stroke-linecap: square"/>
   </g>
   <g id="patch_16">
    <path d="M 359.804687 566.820937 
L 512.804688 566.820937 
" style="fill: none; stroke: #000000; stroke-width: 0.8; stroke-linejoin: miter; stroke-linecap: square"/>
   </g>
   <g id="text_45">
    <!-- No-phosphate -->
    <g transform="translate(392.332656 400.938585) scale(0.14 -0.14)">
     <defs>
      <path id="ArialMT-4e" d="M 488 0 
L 488 4581 
L 1109 4581 
L 3516 984 
L 3516 4581 
L 4097 4581 
L 4097 0 
L 3475 0 
L 1069 3600 
L 1069 0 
L 488 0 
z
" transform="scale(0.015625)"/>
      <path id="ArialMT-70" d="M 422 -1272 
L 422 3319 
L 934 3319 
L 934 2888 
Q 1116 3141 1344 3267 
Q 1572 3394 1897 3394 
Q 2322 3394 2647 3175 
Q 2972 2956 3137 2557 
Q 3303 2159 3303 1684 
Q 3303 1175 3120 767 
Q 2938 359 2589 142 
Q 2241 -75 1856 -75 
Q 1575 -75 1351 44 
Q 1128 163 984 344 
L 984 -1272 
L 422 -1272 
z
M 931 1641 
Q 931 1000 1190 694 
Q 1450 388 1819 388 
Q 2194 388 2461 705 
Q 2728 1022 2728 1688 
Q 2728 2322 2467 2637 
Q 2206 2953 1844 2953 
Q 1484 2953 1207 2617 
Q 931 2281 931 1641 
z
" transform="scale(0.015625)"/>
     </defs>
     <use xlink:href="#ArialMT-4e"/>
     <use xlink:href="#ArialMT-6f" x="72.216797"/>
     <use xlink:href="#ArialMT-2d" x="127.832031"/>
     <use xlink:href="#ArialMT-70" x="161.132812"/>
     <use xlink:href="#ArialMT-68" x="216.748047"/>
     <use xlink:href="#ArialMT-6f" x="272.363281"/>
     <use xlink:href="#ArialMT-73" x="327.978516"/>
     <use xlink:href="#ArialMT-70" x="377.978516"/>
     <use xlink:href="#ArialMT-68" x="433.59375"/>
     <use xlink:href="#ArialMT-61" x="489.208984"/>
     <use xlink:href="#ArialMT-74" x="544.824219"/>
     <use xlink:href="#ArialMT-65" x="572.607422"/>
    </g>
   </g>
  </g>
 </g>
 <defs>
  <clipPath id="pc592f6252e">
   <rect x="38.504688" y="23.220937" width="153" height="543.6"/>
  </clipPath>
  <clipPath id="p89eaf0aa2b">
   <rect x="199.154688" y="23.220937" width="153" height="543.6"/>
  </clipPath>
  <clipPath id="pac17beb33a">
   <rect x="359.804687" y="23.220937" width="153" height="159.882353"/>
  </clipPath>
  <clipPath id="pd236e1ef0b">
   <rect x="359.804687" y="215.079761" width="153" height="159.882353"/>
  </clipPath>
  <clipPath id="p2c47d3aae9">
   <rect x="359.804687" y="406.938585" width="153" height="159.882353"/>
  </clipPath>
 </defs>
</svg>
