<?xml version="1.0" encoding="utf-8" standalone="no"?>
<!DOCTYPE svg PUBLIC "-//W3C//DTD SVG 1.1//EN"
  "http://www.w3.org/Graphics/SVG/1.1/DTD/svg11.dtd">
<svg xmlns:xlink="http://www.w3.org/1999/xlink" width="229.160937pt" height="220.805312pt" viewBox="0 0 229.160937 220.805312" xmlns="http://www.w3.org/2000/svg" version="1.1">
 <metadata>
  <rdf:RDF xmlns:dc="http://purl.org/dc/elements/1.1/" xmlns:cc="http://creativecommons.org/ns#" xmlns:rdf="http://www.w3.org/1999/02/22-rdf-syntax-ns#">
   <cc:Work>
    <dc:type rdf:resource="http://purl.org/dc/dcmitype/StillImage"/>
    <dc:date>2023-10-09T15:08:49.859999</dc:date>
    <dc:format>image/svg+xml</dc:format>
    <dc:creator>
     <cc:Agent>
      <dc:title>Matplotlib v3.7.1, https://matplotlib.org/</dc:title>
     </cc:Agent>
    </dc:creator>
   </cc:Work>
  </rdf:RDF>
 </metadata>
 <defs>
  <style type="text/css">*{stroke-linejoin: round; stroke-linecap: butt}</style>
 </defs>
 <g id="figure_1">
  <g id="patch_1">
   <path d="M 0 220.805312 
L 229.160937 220.805312 
L 229.160937 0 
L 0 0 
z
" style="fill: #ffffff"/>
  </g>
  <g id="axes_1">
   <g id="patch_2">
    <path d="M 16.930469 197.46 
L 212.230469 197.46 
L 212.230469 7.2 
L 16.930469 7.2 
z
" style="fill: #ffffff"/>
   </g>
   <g id="matplotlib.axis_1">
    <g id="xtick_1">
     <g id="line2d_1">
      <defs>
       <path id="m31004cb52b" d="M 0 0 
L 0 3.5 
" style="stroke: #000000; stroke-width: 0.8"/>
      </defs>
      <g>
       <use xlink:href="#m31004cb52b" x="16.930469" y="197.46" style="stroke: #000000; stroke-width: 0.8"/>
      </g>
     </g>
     <g id="text_1">
      <!-- 10.0 -->
      <g transform="translate(7.2 211.617812) scale(0.1 -0.1)">
       <defs>
        <path id="ArialMT-31" d="M 2384 0 
L 1822 0 
L 1822 3584 
Q 1619 3391 1289 3197 
Q 959 3003 697 2906 
L 697 3450 
Q 1169 3672 1522 3987 
Q 1875 4303 2022 4600 
L 2384 4600 
L 2384 0 
z
" transform="scale(0.015625)"/>
        <path id="ArialMT-30" d="M 266 2259 
Q 266 3072 433 3567 
Q 600 4063 929 4331 
Q 1259 4600 1759 4600 
Q 2128 4600 2406 4451 
Q 2684 4303 2865 4023 
Q 3047 3744 3150 3342 
Q 3253 2941 3253 2259 
Q 3253 1453 3087 958 
Q 2922 463 2592 192 
Q 2263 -78 1759 -78 
Q 1097 -78 719 397 
Q 266 969 266 2259 
z
M 844 2259 
Q 844 1131 1108 757 
Q 1372 384 1759 384 
Q 2147 384 2411 759 
Q 2675 1134 2675 2259 
Q 2675 3391 2411 3762 
Q 2147 4134 1753 4134 
Q 1366 4134 1134 3806 
Q 844 3388 844 2259 
z
" transform="scale(0.015625)"/>
        <path id="ArialMT-2e" d="M 581 0 
L 581 641 
L 1222 641 
L 1222 0 
L 581 0 
z
" transform="scale(0.015625)"/>
       </defs>
       <use xlink:href="#ArialMT-31"/>
       <use xlink:href="#ArialMT-30" x="55.615234"/>
       <use xlink:href="#ArialMT-2e" x="111.230469"/>
       <use xlink:href="#ArialMT-30" x="139.013672"/>
      </g>
     </g>
    </g>
    <g id="xtick_2">
     <g id="line2d_2">
      <g>
       <use xlink:href="#m31004cb52b" x="49.480469" y="197.46" style="stroke: #000000; stroke-width: 0.8"/>
      </g>
     </g>
     <g id="text_2">
      <!-- 10.5 -->
      <g transform="translate(39.75 211.617812) scale(0.1 -0.1)">
       <defs>
        <path id="ArialMT-35" d="M 266 1200 
L 856 1250 
Q 922 819 1161 601 
Q 1400 384 1738 384 
Q 2144 384 2425 690 
Q 2706 997 2706 1503 
Q 2706 1984 2436 2262 
Q 2166 2541 1728 2541 
Q 1456 2541 1237 2417 
Q 1019 2294 894 2097 
L 366 2166 
L 809 4519 
L 3088 4519 
L 3088 3981 
L 1259 3981 
L 1013 2750 
Q 1425 3038 1878 3038 
Q 2478 3038 2890 2622 
Q 3303 2206 3303 1553 
Q 3303 931 2941 478 
Q 2500 -78 1738 -78 
Q 1113 -78 717 272 
Q 322 622 266 1200 
z
" transform="scale(0.015625)"/>
       </defs>
       <use xlink:href="#ArialMT-31"/>
       <use xlink:href="#ArialMT-30" x="55.615234"/>
       <use xlink:href="#ArialMT-2e" x="111.230469"/>
       <use xlink:href="#ArialMT-35" x="139.013672"/>
      </g>
     </g>
    </g>
    <g id="xtick_3">
     <g id="line2d_3">
      <g>
       <use xlink:href="#m31004cb52b" x="82.030469" y="197.46" style="stroke: #000000; stroke-width: 0.8"/>
      </g>
     </g>
     <g id="text_3">
      <!-- 11.0 -->
      <g transform="translate(72.66875 211.617812) scale(0.1 -0.1)">
       <use xlink:href="#ArialMT-31"/>
       <use xlink:href="#ArialMT-31" x="48.240234"/>
       <use xlink:href="#ArialMT-2e" x="103.855469"/>
       <use xlink:href="#ArialMT-30" x="131.638672"/>
      </g>
     </g>
    </g>
    <g id="xtick_4">
     <g id="line2d_4">
      <g>
       <use xlink:href="#m31004cb52b" x="114.580469" y="197.46" style="stroke: #000000; stroke-width: 0.8"/>
      </g>
     </g>
     <g id="text_4">
      <!-- 11.5 -->
      <g transform="translate(105.21875 211.617812) scale(0.1 -0.1)">
       <use xlink:href="#ArialMT-31"/>
       <use xlink:href="#ArialMT-31" x="48.240234"/>
       <use xlink:href="#ArialMT-2e" x="103.855469"/>
       <use xlink:href="#ArialMT-35" x="131.638672"/>
      </g>
     </g>
    </g>
    <g id="xtick_5">
     <g id="line2d_5">
      <g>
       <use xlink:href="#m31004cb52b" x="147.130469" y="197.46" style="stroke: #000000; stroke-width: 0.8"/>
      </g>
     </g>
     <g id="text_5">
      <!-- 12.0 -->
      <g transform="translate(137.4 211.617812) scale(0.1 -0.1)">
       <defs>
        <path id="ArialMT-32" d="M 3222 541 
L 3222 0 
L 194 0 
Q 188 203 259 391 
Q 375 700 629 1000 
Q 884 1300 1366 1694 
Q 2113 2306 2375 2664 
Q 2638 3022 2638 3341 
Q 2638 3675 2398 3904 
Q 2159 4134 1775 4134 
Q 1369 4134 1125 3890 
Q 881 3647 878 3216 
L 300 3275 
Q 359 3922 746 4261 
Q 1134 4600 1788 4600 
Q 2447 4600 2831 4234 
Q 3216 3869 3216 3328 
Q 3216 3053 3103 2787 
Q 2991 2522 2730 2228 
Q 2469 1934 1863 1422 
Q 1356 997 1212 845 
Q 1069 694 975 541 
L 3222 541 
z
" transform="scale(0.015625)"/>
       </defs>
       <use xlink:href="#ArialMT-31"/>
       <use xlink:href="#ArialMT-32" x="55.615234"/>
       <use xlink:href="#ArialMT-2e" x="111.230469"/>
       <use xlink:href="#ArialMT-30" x="139.013672"/>
      </g>
     </g>
    </g>
    <g id="xtick_6">
     <g id="line2d_6">
      <g>
       <use xlink:href="#m31004cb52b" x="179.680469" y="197.46" style="stroke: #000000; stroke-width: 0.8"/>
      </g>
     </g>
     <g id="text_6">
      <!-- 12.5 -->
      <g transform="translate(169.95 211.617812) scale(0.1 -0.1)">
       <use xlink:href="#ArialMT-31"/>
       <use xlink:href="#ArialMT-32" x="55.615234"/>
       <use xlink:href="#ArialMT-2e" x="111.230469"/>
       <use xlink:href="#ArialMT-35" x="139.013672"/>
      </g>
     </g>
    </g>
    <g id="xtick_7">
     <g id="line2d_7">
      <g>
       <use xlink:href="#m31004cb52b" x="212.230469" y="197.46" style="stroke: #000000; stroke-width: 0.8"/>
      </g>
     </g>
     <g id="text_7">
      <!-- 13.0 -->
      <g transform="translate(202.5 211.617812) scale(0.1 -0.1)">
       <defs>
        <path id="ArialMT-33" d="M 269 1209 
L 831 1284 
Q 928 806 1161 595 
Q 1394 384 1728 384 
Q 2125 384 2398 659 
Q 2672 934 2672 1341 
Q 2672 1728 2419 1979 
Q 2166 2231 1775 2231 
Q 1616 2231 1378 2169 
L 1441 2663 
Q 1497 2656 1531 2656 
Q 1891 2656 2178 2843 
Q 2466 3031 2466 3422 
Q 2466 3731 2256 3934 
Q 2047 4138 1716 4138 
Q 1388 4138 1169 3931 
Q 950 3725 888 3313 
L 325 3413 
Q 428 3978 793 4289 
Q 1159 4600 1703 4600 
Q 2078 4600 2393 4439 
Q 2709 4278 2876 4000 
Q 3044 3722 3044 3409 
Q 3044 3113 2884 2869 
Q 2725 2625 2413 2481 
Q 2819 2388 3044 2092 
Q 3269 1797 3269 1353 
Q 3269 753 2831 336 
Q 2394 -81 1725 -81 
Q 1122 -81 723 278 
Q 325 638 269 1209 
z
" transform="scale(0.015625)"/>
       </defs>
       <use xlink:href="#ArialMT-31"/>
       <use xlink:href="#ArialMT-33" x="55.615234"/>
       <use xlink:href="#ArialMT-2e" x="111.230469"/>
       <use xlink:href="#ArialMT-30" x="139.013672"/>
      </g>
     </g>
    </g>
   </g>
   <g id="matplotlib.axis_2">
    <g id="ytick_1">
     <g id="line2d_8"/>
    </g>
    <g id="ytick_2">
     <g id="line2d_9"/>
    </g>
    <g id="ytick_3">
     <g id="line2d_10"/>
    </g>
    <g id="ytick_4">
     <g id="line2d_11"/>
    </g>
    <g id="ytick_5">
     <g id="line2d_12"/>
    </g>
    <g id="ytick_6">
     <g id="line2d_13"/>
    </g>
    <g id="ytick_7">
     <g id="line2d_14"/>
    </g>
    <g id="ytick_8">
     <g id="line2d_15"/>
    </g>
   </g>
   <g id="line2d_16">
    <path d="M 16.750643 157.157571 
L 18.460206 154.861883 
L 20.169768 156.554133 
L 21.879331 156.068759 
L 23.588894 155.084893 
L 25.298457 155.491558 
L 27.00802 154.940593 
L 28.717582 154.927474 
L 30.427145 153.982963 
L 32.136708 154.324037 
L 33.846271 152.618669 
L 35.555834 152.369423 
L 37.265397 152.68426 
L 38.974959 151.58233 
L 40.684522 152.225123 
L 42.394085 153.405762 
L 44.103648 151.385557 
L 45.813211 150.887065 
L 47.522773 149.837608 
L 49.232336 149.247288 
L 50.941899 151.175666 
L 52.651462 149.863844 
L 54.361025 150.178681 
L 56.070587 149.273525 
L 57.78015 149.102988 
L 59.489713 149.758899 
L 61.199276 147.961703 
L 62.908839 146.059563 
L 64.618401 146.912246 
L 66.327964 146.584291 
L 68.037527 144.485377 
L 69.74709 145.941499 
L 71.456653 146.112035 
L 73.166215 144.039358 
L 74.875778 144.53785 
L 76.585341 143.134201 
L 78.294904 143.317856 
L 80.004467 142.137217 
L 81.714029 144.341077 
L 83.423592 141.704316 
L 85.133155 139.120028 
L 86.842718 141.389479 
L 88.552281 138.529708 
L 90.261843 138.411644 
L 91.971406 133.177478 
L 93.680969 133.334896 
L 95.390532 131.590174 
L 97.100095 126.55278 
L 98.809657 124.217738 
L 100.51922 115.808964 
L 102.228783 108.213518 
L 103.938346 95.397025 
L 105.647909 82.029566 
L 107.357471 64.45116 
L 109.067034 35.669801 
L 110.776597 16.936993 
L 112.48616 15.848182 
L 114.195723 17.33054 
L 115.905286 27.746401 
L 117.614848 54.035299 
L 119.324411 97.48282 
L 121.033974 126.251061 
L 122.743537 140.038303 
L 124.4531 143.488393 
L 126.162662 146.899128 
L 127.872225 146.649882 
L 129.581788 147.174611 
L 131.291351 149.588362 
L 133.000914 151.096956 
L 134.710476 150.178681 
L 136.420039 152.251359 
L 138.129602 152.31695 
L 139.839165 152.999097 
L 141.548728 153.851781 
L 143.25829 153.825545 
L 144.967853 153.759953 
L 146.677416 154.993065 
L 148.386979 156.291769 
L 150.096542 156.842733 
L 151.806104 157.433053 
L 153.515667 157.38058 
L 155.22523 158.285737 
L 156.934793 157.9709 
L 158.644356 158.967884 
L 160.353918 158.862938 
L 162.063481 159.689386 
L 163.773044 160.673252 
L 165.482607 160.148523 
L 167.19217 160.765079 
L 168.901732 160.660133 
L 170.611295 162.168728 
L 172.320858 162.15561 
L 174.030421 162.29991 
L 175.739984 163.506786 
L 177.449546 162.221201 
L 179.159109 164.005278 
L 180.868672 165.487636 
L 182.578235 164.490652 
L 184.287798 165.356454 
L 185.99736 165.645054 
L 187.706923 164.976025 
L 189.416486 165.736882 
L 191.126049 165.999246 
L 192.835612 166.064837 
L 194.545175 165.500754 
L 196.254737 167.153649 
L 197.9643 166.99623 
L 199.673863 167.36354 
L 201.383426 166.99623 
L 203.092989 167.783323 
L 204.802551 167.206122 
L 206.512114 168.636007 
L 208.221677 169.016435 
L 209.93124 169.882237 
L 211.640803 168.727834 
L 213.350365 169.173854 
" clip-path="url(#p2cd769e5cd)" style="fill: none; stroke: #000000; stroke-width: 2.5; stroke-linecap: square"/>
   </g>
   <g id="line2d_17">
    <path d="M 16.750643 147.974822 
L 18.460206 148.381486 
L 20.169768 146.597409 
L 21.879331 147.240202 
L 23.588894 146.636764 
L 25.298457 145.27247 
L 27.00802 146.676119 
L 28.717582 145.652898 
L 30.427145 144.446022 
L 32.136708 143.121083 
L 33.846271 143.65893 
L 35.555834 144.419786 
L 37.265397 142.780009 
L 38.974959 143.226029 
L 40.684522 142.871837 
L 42.394085 141.979798 
L 44.103648 142.412699 
L 45.813211 140.182603 
L 47.522773 140.143249 
L 49.232336 139.198737 
L 50.941899 138.66089 
L 52.651462 136.693159 
L 54.361025 137.650788 
L 56.070587 137.257242 
L 57.78015 137.322833 
L 59.489713 135.341983 
L 61.199276 136.102839 
L 62.908839 134.213816 
L 64.618401 134.436826 
L 66.327964 133.96457 
L 68.037527 132.705222 
L 69.74709 132.692104 
L 71.456653 131.144155 
L 73.166215 132.219848 
L 74.875778 131.065445 
L 76.585341 128.848467 
L 78.294904 130.698135 
L 80.004467 126.906972 
L 81.714029 128.336857 
L 83.423592 126.802026 
L 85.133155 123.69301 
L 86.842718 124.099674 
L 88.552281 120.636466 
L 90.261843 119.377118 
L 91.971406 116.084446 
L 93.680969 112.358874 
L 95.390532 107.269007 
L 97.100095 102.76946 
L 98.809657 95.987344 
L 100.51922 85.991266 
L 102.228783 72.859935 
L 103.938346 56.514642 
L 105.647909 50.375318 
L 107.357471 51.529721 
L 109.067034 72.873053 
L 110.776597 96.328418 
L 112.48616 112.214573 
L 114.195723 121.895814 
L 115.905286 128.704167 
L 117.614848 130.409535 
L 119.324411 132.442858 
L 121.033974 133.426724 
L 122.743537 133.544787 
L 124.4531 135.814238 
L 126.162662 137.139178 
L 127.872225 137.086705 
L 129.581788 138.293581 
L 131.291351 141.022169 
L 133.000914 138.870782 
L 134.710476 143.357211 
L 136.420039 140.86475 
L 138.129602 141.337006 
L 139.839165 141.59937 
L 141.548728 147.056547 
L 143.25829 144.931396 
L 144.967853 144.498495 
L 146.677416 147.135256 
L 148.386979 148.460195 
L 150.096542 148.86686 
L 151.806104 149.076751 
L 153.515667 148.893096 
L 155.22523 148.578259 
L 156.934793 150.506637 
L 158.644356 151.556094 
L 160.353918 152.605551 
L 162.063481 153.510707 
L 163.773044 152.002113 
L 165.482607 154.678228 
L 167.19217 153.812426 
L 168.901732 155.03242 
L 170.611295 155.163602 
L 172.320858 155.216075 
L 174.030421 156.121232 
L 175.739984 157.695417 
L 177.449546 155.465321 
L 179.159109 157.196925 
L 180.868672 157.944663 
L 182.578235 158.049609 
L 184.287798 159.610676 
L 185.99736 159.059711 
L 187.706923 160.279705 
L 189.416486 160.17476 
L 191.126049 158.666165 
L 192.835612 159.256485 
L 194.545175 161.971955 
L 196.254737 161.302926 
L 197.9643 161.827654 
L 199.673863 161.093034 
L 201.383426 163.191948 
L 203.092989 161.998191 
L 204.802551 162.050664 
L 206.512114 163.598613 
L 208.221677 164.083987 
L 209.93124 163.40184 
L 211.640803 163.54614 
L 213.350365 164.805489 
" clip-path="url(#p2cd769e5cd)" style="fill: none; stroke: #008e00; stroke-width: 2.5; stroke-linecap: square"/>
   </g>
   <g id="line2d_18">
    <path d="M 16.750643 144.577204 
L 18.460206 144.354195 
L 20.169768 144.68215 
L 21.879331 144.354195 
L 23.588894 143.199792 
L 25.298457 145.390534 
L 27.00802 142.8456 
L 28.717582 143.645811 
L 30.427145 142.898073 
L 32.136708 142.229044 
L 33.846271 141.704316 
L 35.555834 141.520661 
L 37.265397 143.711402 
L 38.974959 140.57615 
L 40.684522 140.49744 
L 42.394085 140.418731 
L 44.103648 139.120028 
L 45.813211 139.382392 
L 47.522773 138.542827 
L 49.232336 137.558961 
L 50.941899 139.513574 
L 52.651462 136.876814 
L 54.361025 137.12606 
L 56.070587 136.234021 
L 57.78015 135.564992 
L 59.489713 135.420692 
L 61.199276 136.404558 
L 62.908839 135.341983 
L 64.618401 135.538756 
L 66.327964 134.056398 
L 68.037527 134.830372 
L 69.74709 132.560922 
L 71.456653 134.148225 
L 73.166215 133.413605 
L 74.875778 132.665867 
L 76.585341 132.744576 
L 78.294904 131.157273 
L 80.004467 132.744576 
L 81.714029 133.098768 
L 83.423592 130.855554 
L 85.133155 131.826302 
L 86.842718 130.435771 
L 88.552281 131.931247 
L 90.261843 131.144155 
L 91.971406 130.750608 
L 93.680969 130.304589 
L 95.390532 132.35103 
L 97.100095 131.065445 
L 98.809657 132.600276 
L 100.51922 131.931247 
L 102.228783 132.337912 
L 103.938346 132.613394 
L 105.647909 131.511464 
L 107.357471 132.86264 
L 109.067034 134.174462 
L 110.776597 133.557906 
L 112.48616 133.754679 
L 114.195723 134.712308 
L 115.905286 135.118973 
L 117.614848 135.538756 
L 119.324411 136.063484 
L 121.033974 136.732513 
L 122.743537 138.332935 
L 124.4531 137.165414 
L 126.162662 137.663906 
L 127.872225 138.411644 
L 129.581788 141.297651 
L 131.291351 140.707332 
L 133.000914 140.969696 
L 134.710476 140.261312 
L 136.420039 141.441952 
L 138.129602 142.583236 
L 139.839165 143.134201 
L 141.548728 143.58022 
L 143.25829 144.354195 
L 144.967853 144.262367 
L 146.677416 145.128169 
L 148.386979 145.324943 
L 150.096542 146.125154 
L 151.806104 148.998042 
L 153.515667 148.709442 
L 155.22523 147.528802 
L 156.934793 149.286643 
L 158.644356 149.155461 
L 160.353918 150.637819 
L 162.063481 151.123193 
L 163.773044 152.46125 
L 165.482607 151.897167 
L 167.19217 153.090925 
L 168.901732 153.340171 
L 170.611295 153.471353 
L 172.320858 152.53996 
L 174.030421 152.959742 
L 175.739984 154.1535 
L 177.449546 154.743819 
L 179.159109 156.422951 
L 180.868672 156.055641 
L 182.578235 155.111129 
L 184.287798 156.488542 
L 185.99736 157.288753 
L 187.706923 156.331123 
L 189.416486 157.905309 
L 191.126049 157.511762 
L 192.835612 157.328107 
L 194.545175 159.059711 
L 196.254737 158.036491 
L 197.9643 159.492612 
L 199.673863 159.07283 
L 201.383426 158.810465 
L 203.092989 158.220146 
L 204.802551 160.17476 
L 206.512114 161.171744 
L 208.221677 160.568306 
L 209.93124 162.011309 
L 211.640803 161.591527 
L 213.350365 161.670236 
" clip-path="url(#p2cd769e5cd)" style="fill: none; stroke: #ffb14e; stroke-width: 2.5; stroke-linecap: square"/>
   </g>
   <g id="patch_3">
    <path d="M 16.930469 197.46 
L 16.930469 7.2 
" style="fill: none; stroke: #000000; stroke-width: 0.8; stroke-linejoin: miter; stroke-linecap: square"/>
   </g>
   <g id="patch_4">
    <path d="M 212.230469 197.46 
L 212.230469 7.2 
" style="fill: none; stroke: #000000; stroke-width: 0.8; stroke-linejoin: miter; stroke-linecap: square"/>
   </g>
   <g id="patch_5">
    <path d="M 16.930469 197.46 
L 212.230469 197.46 
" style="fill: none; stroke: #000000; stroke-width: 0.8; stroke-linejoin: miter; stroke-linecap: square"/>
   </g>
   <g id="patch_6">
    <path d="M 16.930469 7.2 
L 212.230469 7.2 
" style="fill: none; stroke: #000000; stroke-width: 0.8; stroke-linejoin: miter; stroke-linecap: square"/>
   </g>
   <g id="legend_1">
    <g id="patch_7">
     <path d="M 142.647656 58.076562 
L 205.230469 58.076562 
Q 207.230469 58.076562 207.230469 56.076562 
L 207.230469 14.2 
Q 207.230469 12.2 205.230469 12.2 
L 142.647656 12.2 
Q 140.647656 12.2 140.647656 14.2 
L 140.647656 56.076562 
Q 140.647656 58.076562 142.647656 58.076562 
z
" style="fill: #ffffff; opacity: 0.8; stroke: #cccccc; stroke-linejoin: miter"/>
    </g>
    <g id="line2d_19">
     <path d="M 144.647656 19.8875 
L 149.647656 19.8875 
L 154.647656 19.8875 
" style="fill: none; stroke: #000000; stroke-width: 2.5; stroke-linecap: square"/>
    </g>
    <g id="text_8">
     <!-- 470 days -->
     <g transform="translate(162.647656 23.3875) scale(0.1 -0.1)">
      <defs>
       <path id="ArialMT-34" d="M 2069 0 
L 2069 1097 
L 81 1097 
L 81 1613 
L 2172 4581 
L 2631 4581 
L 2631 1613 
L 3250 1613 
L 3250 1097 
L 2631 1097 
L 2631 0 
L 2069 0 
z
M 2069 1613 
L 2069 3678 
L 634 1613 
L 2069 1613 
z
" transform="scale(0.015625)"/>
       <path id="ArialMT-37" d="M 303 3981 
L 303 4522 
L 3269 4522 
L 3269 4084 
Q 2831 3619 2401 2847 
Q 1972 2075 1738 1259 
Q 1569 684 1522 0 
L 944 0 
Q 953 541 1156 1306 
Q 1359 2072 1739 2783 
Q 2119 3494 2547 3981 
L 303 3981 
z
" transform="scale(0.015625)"/>
       <path id="ArialMT-20" transform="scale(0.015625)"/>
       <path id="ArialMT-64" d="M 2575 0 
L 2575 419 
Q 2259 -75 1647 -75 
Q 1250 -75 917 144 
Q 584 363 401 755 
Q 219 1147 219 1656 
Q 219 2153 384 2558 
Q 550 2963 881 3178 
Q 1213 3394 1622 3394 
Q 1922 3394 2156 3267 
Q 2391 3141 2538 2938 
L 2538 4581 
L 3097 4581 
L 3097 0 
L 2575 0 
z
M 797 1656 
Q 797 1019 1065 703 
Q 1334 388 1700 388 
Q 2069 388 2326 689 
Q 2584 991 2584 1609 
Q 2584 2291 2321 2609 
Q 2059 2928 1675 2928 
Q 1300 2928 1048 2622 
Q 797 2316 797 1656 
z
" transform="scale(0.015625)"/>
       <path id="ArialMT-61" d="M 2588 409 
Q 2275 144 1986 34 
Q 1697 -75 1366 -75 
Q 819 -75 525 192 
Q 231 459 231 875 
Q 231 1119 342 1320 
Q 453 1522 633 1644 
Q 813 1766 1038 1828 
Q 1203 1872 1538 1913 
Q 2219 1994 2541 2106 
Q 2544 2222 2544 2253 
Q 2544 2597 2384 2738 
Q 2169 2928 1744 2928 
Q 1347 2928 1158 2789 
Q 969 2650 878 2297 
L 328 2372 
Q 403 2725 575 2942 
Q 747 3159 1072 3276 
Q 1397 3394 1825 3394 
Q 2250 3394 2515 3294 
Q 2781 3194 2906 3042 
Q 3031 2891 3081 2659 
Q 3109 2516 3109 2141 
L 3109 1391 
Q 3109 606 3145 398 
Q 3181 191 3288 0 
L 2700 0 
Q 2613 175 2588 409 
z
M 2541 1666 
Q 2234 1541 1622 1453 
Q 1275 1403 1131 1340 
Q 988 1278 909 1158 
Q 831 1038 831 891 
Q 831 666 1001 516 
Q 1172 366 1500 366 
Q 1825 366 2078 508 
Q 2331 650 2450 897 
Q 2541 1088 2541 1459 
L 2541 1666 
z
" transform="scale(0.015625)"/>
       <path id="ArialMT-79" d="M 397 -1278 
L 334 -750 
Q 519 -800 656 -800 
Q 844 -800 956 -737 
Q 1069 -675 1141 -563 
Q 1194 -478 1313 -144 
Q 1328 -97 1363 -6 
L 103 3319 
L 709 3319 
L 1400 1397 
Q 1534 1031 1641 628 
Q 1738 1016 1872 1384 
L 2581 3319 
L 3144 3319 
L 1881 -56 
Q 1678 -603 1566 -809 
Q 1416 -1088 1222 -1217 
Q 1028 -1347 759 -1347 
Q 597 -1347 397 -1278 
z
" transform="scale(0.015625)"/>
       <path id="ArialMT-73" d="M 197 991 
L 753 1078 
Q 800 744 1014 566 
Q 1228 388 1613 388 
Q 2000 388 2187 545 
Q 2375 703 2375 916 
Q 2375 1106 2209 1216 
Q 2094 1291 1634 1406 
Q 1016 1563 777 1677 
Q 538 1791 414 1992 
Q 291 2194 291 2438 
Q 291 2659 392 2848 
Q 494 3038 669 3163 
Q 800 3259 1026 3326 
Q 1253 3394 1513 3394 
Q 1903 3394 2198 3281 
Q 2494 3169 2634 2976 
Q 2775 2784 2828 2463 
L 2278 2388 
Q 2241 2644 2061 2787 
Q 1881 2931 1553 2931 
Q 1166 2931 1000 2803 
Q 834 2675 834 2503 
Q 834 2394 903 2306 
Q 972 2216 1119 2156 
Q 1203 2125 1616 2013 
Q 2213 1853 2448 1751 
Q 2684 1650 2818 1456 
Q 2953 1263 2953 975 
Q 2953 694 2789 445 
Q 2625 197 2315 61 
Q 2006 -75 1616 -75 
Q 969 -75 630 194 
Q 291 463 197 991 
z
" transform="scale(0.015625)"/>
      </defs>
      <use xlink:href="#ArialMT-34"/>
      <use xlink:href="#ArialMT-37" x="55.615234"/>
      <use xlink:href="#ArialMT-30" x="111.230469"/>
      <use xlink:href="#ArialMT-20" x="166.845703"/>
      <use xlink:href="#ArialMT-64" x="194.628906"/>
      <use xlink:href="#ArialMT-61" x="250.244141"/>
      <use xlink:href="#ArialMT-79" x="305.859375"/>
      <use xlink:href="#ArialMT-73" x="355.859375"/>
     </g>
    </g>
    <g id="line2d_20">
     <path d="M 144.647656 34.179688 
L 149.647656 34.179688 
L 154.647656 34.179688 
" style="fill: none; stroke: #008e00; stroke-width: 2.5; stroke-linecap: square"/>
    </g>
    <g id="text_9">
     <!-- 28 days -->
     <g transform="translate(162.647656 37.679688) scale(0.1 -0.1)">
      <defs>
       <path id="ArialMT-38" d="M 1131 2484 
Q 781 2613 612 2850 
Q 444 3088 444 3419 
Q 444 3919 803 4259 
Q 1163 4600 1759 4600 
Q 2359 4600 2725 4251 
Q 3091 3903 3091 3403 
Q 3091 3084 2923 2848 
Q 2756 2613 2416 2484 
Q 2838 2347 3058 2040 
Q 3278 1734 3278 1309 
Q 3278 722 2862 322 
Q 2447 -78 1769 -78 
Q 1091 -78 675 323 
Q 259 725 259 1325 
Q 259 1772 486 2073 
Q 713 2375 1131 2484 
z
M 1019 3438 
Q 1019 3113 1228 2906 
Q 1438 2700 1772 2700 
Q 2097 2700 2305 2904 
Q 2513 3109 2513 3406 
Q 2513 3716 2298 3927 
Q 2084 4138 1766 4138 
Q 1444 4138 1231 3931 
Q 1019 3725 1019 3438 
z
M 838 1322 
Q 838 1081 952 856 
Q 1066 631 1291 507 
Q 1516 384 1775 384 
Q 2178 384 2440 643 
Q 2703 903 2703 1303 
Q 2703 1709 2433 1975 
Q 2163 2241 1756 2241 
Q 1359 2241 1098 1978 
Q 838 1716 838 1322 
z
" transform="scale(0.015625)"/>
      </defs>
      <use xlink:href="#ArialMT-32"/>
      <use xlink:href="#ArialMT-38" x="55.615234"/>
      <use xlink:href="#ArialMT-20" x="111.230469"/>
      <use xlink:href="#ArialMT-64" x="139.013672"/>
      <use xlink:href="#ArialMT-61" x="194.628906"/>
      <use xlink:href="#ArialMT-79" x="250.244141"/>
      <use xlink:href="#ArialMT-73" x="300.244141"/>
     </g>
    </g>
    <g id="line2d_21">
     <path d="M 144.647656 48.471875 
L 149.647656 48.471875 
L 154.647656 48.471875 
" style="fill: none; stroke: #ffb14e; stroke-width: 2.5; stroke-linecap: square"/>
    </g>
    <g id="text_10">
     <!-- 1 day -->
     <g transform="translate(162.647656 51.971875) scale(0.1 -0.1)">
      <use xlink:href="#ArialMT-31"/>
      <use xlink:href="#ArialMT-20" x="55.615234"/>
      <use xlink:href="#ArialMT-64" x="83.398438"/>
      <use xlink:href="#ArialMT-61" x="139.013672"/>
      <use xlink:href="#ArialMT-79" x="194.628906"/>
     </g>
    </g>
   </g>
  </g>
 </g>
 <defs>
  <clipPath id="p2cd769e5cd">
   <rect x="16.930469" y="7.2" width="195.3" height="190.26"/>
  </clipPath>
 </defs>
</svg>
