<?xml version="1.0" encoding="utf-8" standalone="no"?>
<!DOCTYPE svg PUBLIC "-//W3C//DTD SVG 1.1//EN"
  "http://www.w3.org/Graphics/SVG/1.1/DTD/svg11.dtd">
<svg xmlns:xlink="http://www.w3.org/1999/xlink" width="138.078437pt" height="253.629687pt" viewBox="0 0 138.078437 253.629687" xmlns="http://www.w3.org/2000/svg" version="1.1">
 <metadata>
  <rdf:RDF xmlns:dc="http://purl.org/dc/elements/1.1/" xmlns:cc="http://creativecommons.org/ns#" xmlns:rdf="http://www.w3.org/1999/02/22-rdf-syntax-ns#">
   <cc:Work>
    <dc:type rdf:resource="http://purl.org/dc/dcmitype/StillImage"/>
    <dc:date>2023-10-05T22:22:06.060486</dc:date>
    <dc:format>image/svg+xml</dc:format>
    <dc:creator>
     <cc:Agent>
      <dc:title>Matplotlib v3.7.1, https://matplotlib.org/</dc:title>
     </cc:Agent>
    </dc:creator>
   </cc:Work>
  </rdf:RDF>
 </metadata>
 <defs>
  <style type="text/css">*{stroke-linejoin: round; stroke-linecap: butt}</style>
 </defs>
 <g id="figure_1">
  <g id="patch_1">
   <path d="M -0 253.629687 
L 138.078437 253.629687 
L 138.078437 -0 
L -0 -0 
z
" style="fill: #ffffff"/>
  </g>
  <g id="axes_1">
   <g id="patch_2">
    <path d="M 27.6675 213.480937 
L 125.3175 213.480937 
L 125.3175 23.220937 
L 27.6675 23.220937 
z
" style="fill: #ffffff"/>
   </g>
   <g id="matplotlib.axis_1">
    <g id="xtick_1">
     <g id="line2d_1">
      <defs>
       <path id="m44620c55fe" d="M 0 0 
L 0 3.5 
" style="stroke: #000000; stroke-width: 0.8"/>
      </defs>
      <g>
       <use xlink:href="#m44620c55fe" x="27.6675" y="213.480937" style="stroke: #000000; stroke-width: 0.8"/>
      </g>
     </g>
     <g id="text_1">
      <!-- 10 -->
      <g transform="translate(22.106563 227.63875) scale(0.1 -0.1)">
       <defs>
        <path id="ArialMT-31" d="M 2384 0 
L 1822 0 
L 1822 3584 
Q 1619 3391 1289 3197 
Q 959 3003 697 2906 
L 697 3450 
Q 1169 3672 1522 3987 
Q 1875 4303 2022 4600 
L 2384 4600 
L 2384 0 
z
" transform="scale(0.015625)"/>
        <path id="ArialMT-30" d="M 266 2259 
Q 266 3072 433 3567 
Q 600 4063 929 4331 
Q 1259 4600 1759 4600 
Q 2128 4600 2406 4451 
Q 2684 4303 2865 4023 
Q 3047 3744 3150 3342 
Q 3253 2941 3253 2259 
Q 3253 1453 3087 958 
Q 2922 463 2592 192 
Q 2263 -78 1759 -78 
Q 1097 -78 719 397 
Q 266 969 266 2259 
z
M 844 2259 
Q 844 1131 1108 757 
Q 1372 384 1759 384 
Q 2147 384 2411 759 
Q 2675 1134 2675 2259 
Q 2675 3391 2411 3762 
Q 2147 4134 1753 4134 
Q 1366 4134 1134 3806 
Q 844 3388 844 2259 
z
" transform="scale(0.015625)"/>
       </defs>
       <use xlink:href="#ArialMT-31"/>
       <use xlink:href="#ArialMT-30" x="55.615234"/>
      </g>
     </g>
    </g>
    <g id="xtick_2">
     <g id="line2d_2">
      <g>
       <use xlink:href="#m44620c55fe" x="60.2175" y="213.480937" style="stroke: #000000; stroke-width: 0.8"/>
      </g>
     </g>
     <g id="text_2">
      <!-- 11 -->
      <g transform="translate(55.025313 227.63875) scale(0.1 -0.1)">
       <use xlink:href="#ArialMT-31"/>
       <use xlink:href="#ArialMT-31" x="48.240234"/>
      </g>
     </g>
    </g>
    <g id="xtick_3">
     <g id="line2d_3">
      <g>
       <use xlink:href="#m44620c55fe" x="92.7675" y="213.480937" style="stroke: #000000; stroke-width: 0.8"/>
      </g>
     </g>
     <g id="text_3">
      <!-- 12 -->
      <g transform="translate(87.206562 227.63875) scale(0.1 -0.1)">
       <defs>
        <path id="ArialMT-32" d="M 3222 541 
L 3222 0 
L 194 0 
Q 188 203 259 391 
Q 375 700 629 1000 
Q 884 1300 1366 1694 
Q 2113 2306 2375 2664 
Q 2638 3022 2638 3341 
Q 2638 3675 2398 3904 
Q 2159 4134 1775 4134 
Q 1369 4134 1125 3890 
Q 881 3647 878 3216 
L 300 3275 
Q 359 3922 746 4261 
Q 1134 4600 1788 4600 
Q 2447 4600 2831 4234 
Q 3216 3869 3216 3328 
Q 3216 3053 3103 2787 
Q 2991 2522 2730 2228 
Q 2469 1934 1863 1422 
Q 1356 997 1212 845 
Q 1069 694 975 541 
L 3222 541 
z
" transform="scale(0.015625)"/>
       </defs>
       <use xlink:href="#ArialMT-31"/>
       <use xlink:href="#ArialMT-32" x="55.615234"/>
      </g>
     </g>
    </g>
    <g id="xtick_4">
     <g id="line2d_4">
      <g>
       <use xlink:href="#m44620c55fe" x="125.3175" y="213.480937" style="stroke: #000000; stroke-width: 0.8"/>
      </g>
     </g>
     <g id="text_4">
      <!-- 13 -->
      <g transform="translate(119.756563 227.63875) scale(0.1 -0.1)">
       <defs>
        <path id="ArialMT-33" d="M 269 1209 
L 831 1284 
Q 928 806 1161 595 
Q 1394 384 1728 384 
Q 2125 384 2398 659 
Q 2672 934 2672 1341 
Q 2672 1728 2419 1979 
Q 2166 2231 1775 2231 
Q 1616 2231 1378 2169 
L 1441 2663 
Q 1497 2656 1531 2656 
Q 1891 2656 2178 2843 
Q 2466 3031 2466 3422 
Q 2466 3731 2256 3934 
Q 2047 4138 1716 4138 
Q 1388 4138 1169 3931 
Q 950 3725 888 3313 
L 325 3413 
Q 428 3978 793 4289 
Q 1159 4600 1703 4600 
Q 2078 4600 2393 4439 
Q 2709 4278 2876 4000 
Q 3044 3722 3044 3409 
Q 3044 3113 2884 2869 
Q 2725 2625 2413 2481 
Q 2819 2388 3044 2092 
Q 3269 1797 3269 1353 
Q 3269 753 2831 336 
Q 2394 -81 1725 -81 
Q 1122 -81 723 278 
Q 325 638 269 1209 
z
" transform="scale(0.015625)"/>
       </defs>
       <use xlink:href="#ArialMT-31"/>
       <use xlink:href="#ArialMT-33" x="55.615234"/>
      </g>
     </g>
    </g>
    <g id="xtick_5">
     <g id="line2d_5">
      <defs>
       <path id="md98ace1540" d="M 0 0 
L 0 2 
" style="stroke: #000000; stroke-width: 0.6"/>
      </defs>
      <g>
       <use xlink:href="#md98ace1540" x="43.9425" y="213.480937" style="stroke: #000000; stroke-width: 0.6"/>
      </g>
     </g>
    </g>
    <g id="xtick_6">
     <g id="line2d_6">
      <g>
       <use xlink:href="#md98ace1540" x="76.4925" y="213.480937" style="stroke: #000000; stroke-width: 0.6"/>
      </g>
     </g>
    </g>
    <g id="xtick_7">
     <g id="line2d_7">
      <g>
       <use xlink:href="#md98ace1540" x="109.0425" y="213.480937" style="stroke: #000000; stroke-width: 0.6"/>
      </g>
     </g>
    </g>
    <g id="text_5">
     <!-- 2θ -->
     <g transform="translate(68.707188 243.647187) scale(0.14 -0.14)">
      <defs>
       <path id="ArialMT-3b8" d="M 288 2291 
Q 288 4659 1781 4659 
Q 3275 4659 3275 2291 
Q 3275 -75 1781 -75 
Q 288 -75 288 2291 
z
M 869 2519 
L 2694 2519 
Q 2663 3497 2413 3847 
Q 2163 4197 1775 4197 
Q 903 4197 869 2519 
z
M 2694 2066 
L 869 2066 
Q 903 388 1781 388 
Q 2663 388 2694 2066 
z
" transform="scale(0.015625)"/>
      </defs>
      <use xlink:href="#ArialMT-32"/>
      <use xlink:href="#ArialMT-3b8" x="55.615234"/>
     </g>
    </g>
   </g>
   <g id="matplotlib.axis_2">
    <g id="ytick_1">
     <g id="line2d_8"/>
    </g>
    <g id="ytick_2">
     <g id="line2d_9"/>
    </g>
    <g id="ytick_3">
     <g id="line2d_10"/>
    </g>
    <g id="ytick_4">
     <g id="line2d_11"/>
    </g>
    <g id="ytick_5">
     <g id="line2d_12"/>
    </g>
    <g id="ytick_6">
     <g id="line2d_13"/>
    </g>
    <g id="ytick_7">
     <g id="line2d_14"/>
    </g>
    <g id="text_6">
     <!-- Intensity -->
     <g transform="translate(17.220938 144.418281) rotate(-90) scale(0.14 -0.14)">
      <defs>
       <path id="ArialMT-49" d="M 597 0 
L 597 4581 
L 1203 4581 
L 1203 0 
L 597 0 
z
" transform="scale(0.015625)"/>
       <path id="ArialMT-6e" d="M 422 0 
L 422 3319 
L 928 3319 
L 928 2847 
Q 1294 3394 1984 3394 
Q 2284 3394 2536 3286 
Q 2788 3178 2913 3003 
Q 3038 2828 3088 2588 
Q 3119 2431 3119 2041 
L 3119 0 
L 2556 0 
L 2556 2019 
Q 2556 2363 2490 2533 
Q 2425 2703 2258 2804 
Q 2091 2906 1866 2906 
Q 1506 2906 1245 2678 
Q 984 2450 984 1813 
L 984 0 
L 422 0 
z
" transform="scale(0.015625)"/>
       <path id="ArialMT-74" d="M 1650 503 
L 1731 6 
Q 1494 -44 1306 -44 
Q 1000 -44 831 53 
Q 663 150 594 308 
Q 525 466 525 972 
L 525 2881 
L 113 2881 
L 113 3319 
L 525 3319 
L 525 4141 
L 1084 4478 
L 1084 3319 
L 1650 3319 
L 1650 2881 
L 1084 2881 
L 1084 941 
Q 1084 700 1114 631 
Q 1144 563 1211 522 
Q 1278 481 1403 481 
Q 1497 481 1650 503 
z
" transform="scale(0.015625)"/>
       <path id="ArialMT-65" d="M 2694 1069 
L 3275 997 
Q 3138 488 2766 206 
Q 2394 -75 1816 -75 
Q 1088 -75 661 373 
Q 234 822 234 1631 
Q 234 2469 665 2931 
Q 1097 3394 1784 3394 
Q 2450 3394 2872 2941 
Q 3294 2488 3294 1666 
Q 3294 1616 3291 1516 
L 816 1516 
Q 847 969 1125 678 
Q 1403 388 1819 388 
Q 2128 388 2347 550 
Q 2566 713 2694 1069 
z
M 847 1978 
L 2700 1978 
Q 2663 2397 2488 2606 
Q 2219 2931 1791 2931 
Q 1403 2931 1139 2672 
Q 875 2413 847 1978 
z
" transform="scale(0.015625)"/>
       <path id="ArialMT-73" d="M 197 991 
L 753 1078 
Q 800 744 1014 566 
Q 1228 388 1613 388 
Q 2000 388 2187 545 
Q 2375 703 2375 916 
Q 2375 1106 2209 1216 
Q 2094 1291 1634 1406 
Q 1016 1563 777 1677 
Q 538 1791 414 1992 
Q 291 2194 291 2438 
Q 291 2659 392 2848 
Q 494 3038 669 3163 
Q 800 3259 1026 3326 
Q 1253 3394 1513 3394 
Q 1903 3394 2198 3281 
Q 2494 3169 2634 2976 
Q 2775 2784 2828 2463 
L 2278 2388 
Q 2241 2644 2061 2787 
Q 1881 2931 1553 2931 
Q 1166 2931 1000 2803 
Q 834 2675 834 2503 
Q 834 2394 903 2306 
Q 972 2216 1119 2156 
Q 1203 2125 1616 2013 
Q 2213 1853 2448 1751 
Q 2684 1650 2818 1456 
Q 2953 1263 2953 975 
Q 2953 694 2789 445 
Q 2625 197 2315 61 
Q 2006 -75 1616 -75 
Q 969 -75 630 194 
Q 291 463 197 991 
z
" transform="scale(0.015625)"/>
       <path id="ArialMT-69" d="M 425 3934 
L 425 4581 
L 988 4581 
L 988 3934 
L 425 3934 
z
M 425 0 
L 425 3319 
L 988 3319 
L 988 0 
L 425 0 
z
" transform="scale(0.015625)"/>
       <path id="ArialMT-79" d="M 397 -1278 
L 334 -750 
Q 519 -800 656 -800 
Q 844 -800 956 -737 
Q 1069 -675 1141 -563 
Q 1194 -478 1313 -144 
Q 1328 -97 1363 -6 
L 103 3319 
L 709 3319 
L 1400 1397 
Q 1534 1031 1641 628 
Q 1738 1016 1872 1384 
L 2581 3319 
L 3144 3319 
L 1881 -56 
Q 1678 -603 1566 -809 
Q 1416 -1088 1222 -1217 
Q 1028 -1347 759 -1347 
Q 597 -1347 397 -1278 
z
" transform="scale(0.015625)"/>
      </defs>
      <use xlink:href="#ArialMT-49"/>
      <use xlink:href="#ArialMT-6e" x="27.783203"/>
      <use xlink:href="#ArialMT-74" x="83.398438"/>
      <use xlink:href="#ArialMT-65" x="111.181641"/>
      <use xlink:href="#ArialMT-6e" x="166.796875"/>
      <use xlink:href="#ArialMT-73" x="222.412109"/>
      <use xlink:href="#ArialMT-69" x="272.412109"/>
      <use xlink:href="#ArialMT-74" x="294.628906"/>
      <use xlink:href="#ArialMT-79" x="322.412109"/>
     </g>
    </g>
   </g>
   <g id="line2d_15">
    <path d="M 27.577587 172.575038 
L 28.432368 168.280975 
L 29.28715 165.3478 
L 30.141931 161.820063 
L 30.996713 157.341025 
L 31.851494 149.506012 
L 32.706275 142.318412 
L 33.561057 131.25955 
L 34.415838 124.402263 
L 35.27062 126.899425 
L 36.125401 144.498475 
L 36.980182 158.820825 
L 37.834964 169.800412 
L 38.689745 173.5924 
L 39.544527 175.362875 
L 40.399308 176.459512 
L 41.254089 176.036712 
L 42.108871 177.490087 
L 42.963652 177.424025 
L 43.818434 178.82455 
L 44.673215 179.339837 
L 45.527997 177.9261 
L 46.382778 179.6173 
L 47.237559 178.732062 
L 48.092341 178.732062 
L 48.947122 178.547088 
L 49.801904 178.82455 
L 50.656685 178.903825 
L 51.511466 177.357962 
L 52.366248 176.419875 
L 53.221029 178.0318 
L 54.075811 176.961588 
L 54.930592 175.997075 
L 55.785373 178.917037 
L 56.640155 177.093712 
L 57.494936 178.943463 
L 58.349718 177.23905 
L 59.204499 176.948375 
L 60.05928 176.049925 
L 60.914062 176.895525 
L 61.768843 176.155625 
L 62.623625 175.878163 
L 63.478406 176.882313 
L 64.333187 176.1292 
L 65.187969 175.257175 
L 66.04275 175.825312 
L 66.897532 177.371175 
L 67.752313 175.243963 
L 68.607094 176.142413 
L 69.461876 175.851738 
L 70.316657 177.040863 
L 71.171439 174.8608 
L 72.02622 176.049925 
L 72.881001 176.221688 
L 73.735783 174.636188 
L 74.590564 176.591637 
L 75.445346 176.221688 
L 76.300127 176.485938 
L 77.154908 175.058988 
L 78.00969 175.983862 
L 78.864471 177.529725 
L 79.719253 175.7064 
L 80.574034 175.613912 
L 81.428815 176.631275 
L 82.283597 176.168837 
L 83.138378 176.7634 
L 83.99316 176.327387 
L 84.847941 177.846825 
L 85.702722 176.908738 
L 86.557504 177.688275 
L 87.412285 177.2919 
L 88.267067 178.058225 
L 89.121848 177.701487 
L 89.976629 177.476875 
L 90.831411 178.467812 
L 91.686192 179.14165 
L 92.540974 177.384388 
L 93.395755 179.326625 
L 94.250536 179.273775 
L 95.105318 179.326625 
L 95.960099 179.339837 
L 96.814881 179.115225 
L 97.669662 179.696575 
L 98.524443 178.903825 
L 99.379225 177.675062 
L 100.234006 177.476875 
L 101.088788 176.750187 
L 101.943569 176.565213 
L 102.79835 172.152238 
L 103.653132 172.508975 
L 104.507913 172.244725 
L 105.362695 168.558437 
L 106.217476 164.330437 
L 107.072257 158.84725 
L 107.927039 151.514313 
L 108.78182 143.52075 
L 109.636602 141.499237 
L 110.491383 150.034513 
L 111.346164 165.61205 
L 112.200946 173.22245 
L 113.055727 179.749425 
L 113.910509 180.383625 
L 114.76529 182.550475 
L 115.620071 184.2681 
L 116.474853 184.941937 
L 117.329634 185.880025 
L 118.184416 187.148425 
L 119.039197 186.289613 
L 119.893979 186.619925 
L 120.74876 187.518375 
L 121.603541 187.558012 
L 122.458323 188.958537 
L 123.313104 188.681075 
L 124.167885 190.372275 
L 125.022667 189.39455 
L 125.877448 189.315275 
" clip-path="url(#pcfd80434ff)" style="fill: none; stroke: #ffb14e; stroke-width: 1.5; stroke-linecap: square"/>
   </g>
   <g id="line2d_16">
    <path d="M 27.577587 177.9261 
L 28.432368 173.0639 
L 29.28715 171.240575 
L 30.141931 165.440288 
L 30.996713 156.865375 
L 31.851494 149.202125 
L 32.706275 136.927712 
L 33.561057 120.649912 
L 34.415838 106.2615 
L 35.27062 110.264888 
L 36.125401 136.86165 
L 36.980182 164.211525 
L 37.834964 173.499912 
L 38.689745 180.119375 
L 39.544527 181.440625 
L 40.399308 182.761875 
L 41.254089 185.100487 
L 42.108871 184.611625 
L 42.963652 183.620688 
L 43.818434 185.06085 
L 44.673215 185.16655 
L 45.527997 185.140125 
L 46.382778 184.413437 
L 47.237559 184.334162 
L 48.092341 184.611625 
L 48.947122 185.285462 
L 49.801904 184.6909 
L 50.656685 184.400225 
L 51.511466 184.083125 
L 52.366248 184.096338 
L 53.221029 185.285462 
L 54.075811 183.514987 
L 54.930592 182.748662 
L 55.785373 181.744512 
L 56.640155 182.3655 
L 57.494936 181.546325 
L 58.349718 181.850212 
L 59.204499 182.140887 
L 60.05928 181.57275 
L 60.914062 180.661088 
L 61.768843 181.295288 
L 62.623625 180.423262 
L 63.478406 181.057462 
L 64.333187 181.057462 
L 65.187969 180.423262 
L 66.04275 178.745275 
L 66.897532 177.754337 
L 67.752313 178.071438 
L 68.607094 177.833612 
L 69.461876 177.252263 
L 70.316657 175.415725 
L 71.171439 175.54785 
L 72.02622 175.944225 
L 72.881001 174.9665 
L 73.735783 175.97065 
L 74.590564 174.305875 
L 75.445346 175.138262 
L 76.300127 172.522188 
L 77.154908 171.293425 
L 78.00969 172.337212 
L 78.864471 171.280213 
L 79.719253 172.191875 
L 80.574034 172.310788 
L 81.428815 171.610525 
L 82.283597 172.680737 
L 83.138378 173.618825 
L 83.99316 171.769075 
L 84.847941 172.05975 
L 85.702722 172.90535 
L 86.557504 173.605613 
L 87.412285 176.512362 
L 88.267067 176.314175 
L 89.121848 176.644487 
L 89.976629 177.331537 
L 90.831411 177.159775 
L 91.686192 178.005375 
L 92.540974 179.326625 
L 93.395755 180.106162 
L 94.250536 180.542175 
L 95.105318 179.736212 
L 95.960099 182.352287 
L 96.814881 183.078975 
L 97.669662 181.718087 
L 98.524443 182.484412 
L 99.379225 179.590875 
L 100.234006 180.872488 
L 101.088788 180.013675 
L 101.943569 179.56445 
L 102.79835 179.181287 
L 103.653132 177.212625 
L 104.507913 173.1696 
L 105.362695 171.267 
L 106.217476 164.779663 
L 107.072257 157.1032 
L 107.927039 146.017912 
L 108.78182 134.523037 
L 109.636602 130.400737 
L 110.491383 144.564538 
L 111.346164 165.982 
L 112.200946 177.952525 
L 113.055727 184.598412 
L 113.910509 187.4391 
L 114.76529 188.139363 
L 115.620071 189.103875 
L 116.474853 189.566312 
L 117.329634 190.068388 
L 118.184416 191.653887 
L 119.039197 192.591975 
L 119.893979 192.790163 
L 120.74876 194.190687 
L 121.603541 193.41115 
L 122.458323 192.8298 
L 123.313104 192.909075 
L 124.167885 194.269962 
L 125.022667 194.6267 
L 125.877448 193.794312 
" clip-path="url(#pcfd80434ff)" style="fill: none; stroke: #008e00; stroke-width: 1.5; stroke-linecap: square"/>
   </g>
   <g id="line2d_17">
    <path d="M 27.577587 185.893237 
L 28.432368 183.330013 
L 29.28715 181.295288 
L 30.141931 176.736975 
L 30.996713 170.236425 
L 31.851494 162.044675 
L 32.706275 153.549037 
L 33.561057 149.955238 
L 34.415838 157.79025 
L 35.27062 174.200175 
L 36.125401 185.7479 
L 36.980182 189.60595 
L 37.834964 191.93135 
L 38.689745 193.543275 
L 39.544527 194.560637 
L 40.399308 195.353387 
L 41.254089 195.591212 
L 42.108871 194.970225 
L 42.963652 195.432662 
L 43.818434 194.46815 
L 44.673215 194.772037 
L 45.527997 196.132925 
L 46.382778 194.719188 
L 47.237559 194.071775 
L 48.092341 194.322812 
L 48.947122 195.234475 
L 49.801904 195.644062 
L 50.656685 194.4153 
L 51.511466 194.36245 
L 52.366248 193.860375 
L 53.221029 195.538363 
L 54.075811 194.970225 
L 54.930592 194.772037 
L 55.785373 194.217112 
L 56.640155 194.600275 
L 57.494936 193.30545 
L 58.349718 192.658038 
L 59.204499 191.9842 
L 60.05928 193.027987 
L 60.914062 193.30545 
L 61.768843 191.046112 
L 62.623625 191.957775 
L 63.478406 191.257512 
L 64.333187 190.359062 
L 65.187969 190.015537 
L 66.04275 189.777713 
L 66.897532 187.38625 
L 67.752313 186.85775 
L 68.607094 187.584437 
L 69.461876 186.316037 
L 70.316657 182.960062 
L 71.171439 180.713937 
L 72.02622 179.5116 
L 72.881001 174.926862 
L 73.735783 171.10845 
L 74.590564 167.646775 
L 75.445346 161.991825 
L 76.300127 158.173412 
L 77.154908 151.989962 
L 78.00969 145.661175 
L 78.864471 135.897137 
L 79.719253 129.872237 
L 80.574034 124.785425 
L 81.428815 119.10405 
L 82.283597 119.064413 
L 83.138378 123.926613 
L 83.99316 130.691413 
L 84.847941 140.785763 
L 85.702722 149.928812 
L 86.557504 158.767975 
L 87.412285 165.0307 
L 88.267067 172.324 
L 89.121848 177.463662 
L 89.976629 179.392687 
L 90.831411 183.924575 
L 91.686192 184.6909 
L 92.540974 187.095575 
L 93.395755 189.751287 
L 94.250536 189.513463 
L 95.105318 189.39455 
L 95.960099 191.904925 
L 96.814881 191.627462 
L 97.669662 192.56555 
L 98.524443 191.0329 
L 99.379225 191.08575 
L 100.234006 191.08575 
L 101.088788 190.98005 
L 101.943569 190.385487 
L 102.79835 187.5448 
L 103.653132 187.624075 
L 104.507913 184.175612 
L 105.362695 181.863425 
L 106.217476 178.61315 
L 107.072257 172.099388 
L 107.927039 167.844963 
L 108.78182 169.985388 
L 109.636602 179.921188 
L 110.491383 186.316037 
L 111.346164 192.525913 
L 112.200946 195.20805 
L 113.055727 196.58215 
L 113.910509 196.1065 
L 114.76529 196.58215 
L 115.620071 197.85055 
L 116.474853 196.9521 
L 117.329634 197.810913 
L 118.184416 197.084225 
L 119.039197 198.8547 
L 119.893979 199.052887 
L 120.74876 198.458325 
L 121.603541 198.1148 
L 122.458323 199.64745 
L 123.313104 198.246925 
L 124.167885 199.5946 
L 125.022667 199.806 
L 125.877448 199.11895 
" clip-path="url(#pcfd80434ff)" style="fill: none; stroke: #000000; stroke-width: 1.5; stroke-linecap: square"/>
   </g>
   <g id="patch_3">
    <path d="M 27.6675 213.480937 
L 27.6675 23.220938 
" style="fill: none; stroke: #000000; stroke-width: 0.8; stroke-linejoin: miter; stroke-linecap: square"/>
   </g>
   <g id="patch_4">
    <path d="M 27.6675 213.480937 
L 125.3175 213.480937 
" style="fill: none; stroke: #000000; stroke-width: 0.8; stroke-linejoin: miter; stroke-linecap: square"/>
   </g>
   <g id="text_7">
    <!-- High-aluminum -->
    <g transform="translate(29.422969 17.220937) scale(0.14 -0.14)">
     <defs>
      <path id="ArialMT-48" d="M 513 0 
L 513 4581 
L 1119 4581 
L 1119 2700 
L 3500 2700 
L 3500 4581 
L 4106 4581 
L 4106 0 
L 3500 0 
L 3500 2159 
L 1119 2159 
L 1119 0 
L 513 0 
z
" transform="scale(0.015625)"/>
      <path id="ArialMT-67" d="M 319 -275 
L 866 -356 
Q 900 -609 1056 -725 
Q 1266 -881 1628 -881 
Q 2019 -881 2231 -725 
Q 2444 -569 2519 -288 
Q 2563 -116 2559 434 
Q 2191 0 1641 0 
Q 956 0 581 494 
Q 206 988 206 1678 
Q 206 2153 378 2554 
Q 550 2956 876 3175 
Q 1203 3394 1644 3394 
Q 2231 3394 2613 2919 
L 2613 3319 
L 3131 3319 
L 3131 450 
Q 3131 -325 2973 -648 
Q 2816 -972 2473 -1159 
Q 2131 -1347 1631 -1347 
Q 1038 -1347 672 -1080 
Q 306 -813 319 -275 
z
M 784 1719 
Q 784 1066 1043 766 
Q 1303 466 1694 466 
Q 2081 466 2343 764 
Q 2606 1063 2606 1700 
Q 2606 2309 2336 2618 
Q 2066 2928 1684 2928 
Q 1309 2928 1046 2623 
Q 784 2319 784 1719 
z
" transform="scale(0.015625)"/>
      <path id="ArialMT-68" d="M 422 0 
L 422 4581 
L 984 4581 
L 984 2938 
Q 1378 3394 1978 3394 
Q 2347 3394 2619 3248 
Q 2891 3103 3008 2847 
Q 3125 2591 3125 2103 
L 3125 0 
L 2563 0 
L 2563 2103 
Q 2563 2525 2380 2717 
Q 2197 2909 1863 2909 
Q 1613 2909 1392 2779 
Q 1172 2650 1078 2428 
Q 984 2206 984 1816 
L 984 0 
L 422 0 
z
" transform="scale(0.015625)"/>
      <path id="ArialMT-2d" d="M 203 1375 
L 203 1941 
L 1931 1941 
L 1931 1375 
L 203 1375 
z
" transform="scale(0.015625)"/>
      <path id="ArialMT-61" d="M 2588 409 
Q 2275 144 1986 34 
Q 1697 -75 1366 -75 
Q 819 -75 525 192 
Q 231 459 231 875 
Q 231 1119 342 1320 
Q 453 1522 633 1644 
Q 813 1766 1038 1828 
Q 1203 1872 1538 1913 
Q 2219 1994 2541 2106 
Q 2544 2222 2544 2253 
Q 2544 2597 2384 2738 
Q 2169 2928 1744 2928 
Q 1347 2928 1158 2789 
Q 969 2650 878 2297 
L 328 2372 
Q 403 2725 575 2942 
Q 747 3159 1072 3276 
Q 1397 3394 1825 3394 
Q 2250 3394 2515 3294 
Q 2781 3194 2906 3042 
Q 3031 2891 3081 2659 
Q 3109 2516 3109 2141 
L 3109 1391 
Q 3109 606 3145 398 
Q 3181 191 3288 0 
L 2700 0 
Q 2613 175 2588 409 
z
M 2541 1666 
Q 2234 1541 1622 1453 
Q 1275 1403 1131 1340 
Q 988 1278 909 1158 
Q 831 1038 831 891 
Q 831 666 1001 516 
Q 1172 366 1500 366 
Q 1825 366 2078 508 
Q 2331 650 2450 897 
Q 2541 1088 2541 1459 
L 2541 1666 
z
" transform="scale(0.015625)"/>
      <path id="ArialMT-6c" d="M 409 0 
L 409 4581 
L 972 4581 
L 972 0 
L 409 0 
z
" transform="scale(0.015625)"/>
      <path id="ArialMT-75" d="M 2597 0 
L 2597 488 
Q 2209 -75 1544 -75 
Q 1250 -75 995 37 
Q 741 150 617 320 
Q 494 491 444 738 
Q 409 903 409 1263 
L 409 3319 
L 972 3319 
L 972 1478 
Q 972 1038 1006 884 
Q 1059 663 1231 536 
Q 1403 409 1656 409 
Q 1909 409 2131 539 
Q 2353 669 2445 892 
Q 2538 1116 2538 1541 
L 2538 3319 
L 3100 3319 
L 3100 0 
L 2597 0 
z
" transform="scale(0.015625)"/>
      <path id="ArialMT-6d" d="M 422 0 
L 422 3319 
L 925 3319 
L 925 2853 
Q 1081 3097 1340 3245 
Q 1600 3394 1931 3394 
Q 2300 3394 2536 3241 
Q 2772 3088 2869 2813 
Q 3263 3394 3894 3394 
Q 4388 3394 4653 3120 
Q 4919 2847 4919 2278 
L 4919 0 
L 4359 0 
L 4359 2091 
Q 4359 2428 4304 2576 
Q 4250 2725 4106 2815 
Q 3963 2906 3769 2906 
Q 3419 2906 3187 2673 
Q 2956 2441 2956 1928 
L 2956 0 
L 2394 0 
L 2394 2156 
Q 2394 2531 2256 2718 
Q 2119 2906 1806 2906 
Q 1569 2906 1367 2781 
Q 1166 2656 1075 2415 
Q 984 2175 984 1722 
L 984 0 
L 422 0 
z
" transform="scale(0.015625)"/>
     </defs>
     <use xlink:href="#ArialMT-48"/>
     <use xlink:href="#ArialMT-69" x="72.216797"/>
     <use xlink:href="#ArialMT-67" x="94.433594"/>
     <use xlink:href="#ArialMT-68" x="150.048828"/>
     <use xlink:href="#ArialMT-2d" x="205.664062"/>
     <use xlink:href="#ArialMT-61" x="238.964844"/>
     <use xlink:href="#ArialMT-6c" x="294.580078"/>
     <use xlink:href="#ArialMT-75" x="316.796875"/>
     <use xlink:href="#ArialMT-6d" x="372.412109"/>
     <use xlink:href="#ArialMT-69" x="455.712891"/>
     <use xlink:href="#ArialMT-6e" x="477.929688"/>
     <use xlink:href="#ArialMT-75" x="533.544922"/>
     <use xlink:href="#ArialMT-6d" x="589.160156"/>
    </g>
   </g>
  </g>
 </g>
 <defs>
  <clipPath id="pcfd80434ff">
   <rect x="27.6675" y="23.220937" width="97.65" height="190.26"/>
  </clipPath>
 </defs>
</svg>
