<?xml version="1.0" encoding="utf-8" standalone="no"?>
<!DOCTYPE svg PUBLIC "-//W3C//DTD SVG 1.1//EN"
  "http://www.w3.org/Graphics/SVG/1.1/DTD/svg11.dtd">
<svg xmlns:xlink="http://www.w3.org/1999/xlink" width="132.5175pt" height="253.629687pt" viewBox="0 0 132.5175 253.629687" xmlns="http://www.w3.org/2000/svg" version="1.1">
 <metadata>
  <rdf:RDF xmlns:dc="http://purl.org/dc/elements/1.1/" xmlns:cc="http://creativecommons.org/ns#" xmlns:rdf="http://www.w3.org/1999/02/22-rdf-syntax-ns#">
   <cc:Work>
    <dc:type rdf:resource="http://purl.org/dc/dcmitype/StillImage"/>
    <dc:date>2023-10-06T13:47:21.544166</dc:date>
    <dc:format>image/svg+xml</dc:format>
    <dc:creator>
     <cc:Agent>
      <dc:title>Matplotlib v3.7.1, https://matplotlib.org/</dc:title>
     </cc:Agent>
    </dc:creator>
   </cc:Work>
  </rdf:RDF>
 </metadata>
 <defs>
  <style type="text/css">*{stroke-linejoin: round; stroke-linecap: butt}</style>
 </defs>
 <g id="figure_1">
  <g id="patch_1">
   <path d="M -0 253.629687 
L 132.5175 253.629687 
L 132.5175 -0 
L -0 -0 
z
" style="fill: #ffffff"/>
  </g>
  <g id="axes_1">
   <g id="patch_2">
    <path d="M 27.6675 213.480937 
L 125.3175 213.480937 
L 125.3175 23.220937 
L 27.6675 23.220937 
z
" style="fill: #ffffff"/>
   </g>
   <g id="matplotlib.axis_1">
    <g id="xtick_1">
     <g id="line2d_1">
      <defs>
       <path id="me59e79a6d3" d="M 0 0 
L 0 3.5 
" style="stroke: #000000; stroke-width: 0.8"/>
      </defs>
      <g>
       <use xlink:href="#me59e79a6d3" x="60.2175" y="213.480937" style="stroke: #000000; stroke-width: 0.8"/>
      </g>
     </g>
     <g id="text_1">
      <!-- 10 -->
      <g transform="translate(54.656562 227.63875) scale(0.1 -0.1)">
       <defs>
        <path id="ArialMT-31" d="M 2384 0 
L 1822 0 
L 1822 3584 
Q 1619 3391 1289 3197 
Q 959 3003 697 2906 
L 697 3450 
Q 1169 3672 1522 3987 
Q 1875 4303 2022 4600 
L 2384 4600 
L 2384 0 
z
" transform="scale(0.015625)"/>
        <path id="ArialMT-30" d="M 266 2259 
Q 266 3072 433 3567 
Q 600 4063 929 4331 
Q 1259 4600 1759 4600 
Q 2128 4600 2406 4451 
Q 2684 4303 2865 4023 
Q 3047 3744 3150 3342 
Q 3253 2941 3253 2259 
Q 3253 1453 3087 958 
Q 2922 463 2592 192 
Q 2263 -78 1759 -78 
Q 1097 -78 719 397 
Q 266 969 266 2259 
z
M 844 2259 
Q 844 1131 1108 757 
Q 1372 384 1759 384 
Q 2147 384 2411 759 
Q 2675 1134 2675 2259 
Q 2675 3391 2411 3762 
Q 2147 4134 1753 4134 
Q 1366 4134 1134 3806 
Q 844 3388 844 2259 
z
" transform="scale(0.015625)"/>
       </defs>
       <use xlink:href="#ArialMT-31"/>
       <use xlink:href="#ArialMT-30" x="55.615234"/>
      </g>
     </g>
    </g>
    <g id="xtick_2">
     <g id="line2d_2">
      <g>
       <use xlink:href="#me59e79a6d3" x="103.6175" y="213.480937" style="stroke: #000000; stroke-width: 0.8"/>
      </g>
     </g>
     <g id="text_2">
      <!-- 12 -->
      <g transform="translate(98.056563 227.63875) scale(0.1 -0.1)">
       <defs>
        <path id="ArialMT-32" d="M 3222 541 
L 3222 0 
L 194 0 
Q 188 203 259 391 
Q 375 700 629 1000 
Q 884 1300 1366 1694 
Q 2113 2306 2375 2664 
Q 2638 3022 2638 3341 
Q 2638 3675 2398 3904 
Q 2159 4134 1775 4134 
Q 1369 4134 1125 3890 
Q 881 3647 878 3216 
L 300 3275 
Q 359 3922 746 4261 
Q 1134 4600 1788 4600 
Q 2447 4600 2831 4234 
Q 3216 3869 3216 3328 
Q 3216 3053 3103 2787 
Q 2991 2522 2730 2228 
Q 2469 1934 1863 1422 
Q 1356 997 1212 845 
Q 1069 694 975 541 
L 3222 541 
z
" transform="scale(0.015625)"/>
       </defs>
       <use xlink:href="#ArialMT-31"/>
       <use xlink:href="#ArialMT-32" x="55.615234"/>
      </g>
     </g>
    </g>
    <g id="xtick_3">
     <g id="line2d_3">
      <defs>
       <path id="mc0035b97f4" d="M 0 0 
L 0 2 
" style="stroke: #000000; stroke-width: 0.6"/>
      </defs>
      <g>
       <use xlink:href="#mc0035b97f4" x="27.6675" y="213.480937" style="stroke: #000000; stroke-width: 0.6"/>
      </g>
     </g>
    </g>
    <g id="xtick_4">
     <g id="line2d_4">
      <g>
       <use xlink:href="#mc0035b97f4" x="38.5175" y="213.480937" style="stroke: #000000; stroke-width: 0.6"/>
      </g>
     </g>
    </g>
    <g id="xtick_5">
     <g id="line2d_5">
      <g>
       <use xlink:href="#mc0035b97f4" x="49.3675" y="213.480937" style="stroke: #000000; stroke-width: 0.6"/>
      </g>
     </g>
    </g>
    <g id="xtick_6">
     <g id="line2d_6">
      <g>
       <use xlink:href="#mc0035b97f4" x="71.0675" y="213.480937" style="stroke: #000000; stroke-width: 0.6"/>
      </g>
     </g>
    </g>
    <g id="xtick_7">
     <g id="line2d_7">
      <g>
       <use xlink:href="#mc0035b97f4" x="81.9175" y="213.480937" style="stroke: #000000; stroke-width: 0.6"/>
      </g>
     </g>
    </g>
    <g id="xtick_8">
     <g id="line2d_8">
      <g>
       <use xlink:href="#mc0035b97f4" x="92.7675" y="213.480937" style="stroke: #000000; stroke-width: 0.6"/>
      </g>
     </g>
    </g>
    <g id="xtick_9">
     <g id="line2d_9">
      <g>
       <use xlink:href="#mc0035b97f4" x="114.4675" y="213.480937" style="stroke: #000000; stroke-width: 0.6"/>
      </g>
     </g>
    </g>
    <g id="xtick_10">
     <g id="line2d_10">
      <g>
       <use xlink:href="#mc0035b97f4" x="125.3175" y="213.480937" style="stroke: #000000; stroke-width: 0.6"/>
      </g>
     </g>
    </g>
    <g id="text_3">
     <!-- 2θ -->
     <g transform="translate(68.707188 243.647187) scale(0.14 -0.14)">
      <defs>
       <path id="ArialMT-3b8" d="M 288 2291 
Q 288 4659 1781 4659 
Q 3275 4659 3275 2291 
Q 3275 -75 1781 -75 
Q 288 -75 288 2291 
z
M 869 2519 
L 2694 2519 
Q 2663 3497 2413 3847 
Q 2163 4197 1775 4197 
Q 903 4197 869 2519 
z
M 2694 2066 
L 869 2066 
Q 903 388 1781 388 
Q 2663 388 2694 2066 
z
" transform="scale(0.015625)"/>
      </defs>
      <use xlink:href="#ArialMT-32"/>
      <use xlink:href="#ArialMT-3b8" x="55.615234"/>
     </g>
    </g>
   </g>
   <g id="matplotlib.axis_2">
    <g id="ytick_1">
     <g id="line2d_11"/>
    </g>
    <g id="ytick_2">
     <g id="line2d_12"/>
    </g>
    <g id="ytick_3">
     <g id="line2d_13"/>
    </g>
    <g id="ytick_4">
     <g id="line2d_14"/>
    </g>
    <g id="ytick_5">
     <g id="line2d_15"/>
    </g>
    <g id="ytick_6">
     <g id="line2d_16"/>
    </g>
    <g id="ytick_7">
     <g id="line2d_17"/>
    </g>
    <g id="ytick_8">
     <g id="line2d_18"/>
    </g>
    <g id="ytick_9">
     <g id="line2d_19"/>
    </g>
    <g id="text_4">
     <!-- Intensity -->
     <g transform="translate(17.220938 144.418281) rotate(-90) scale(0.14 -0.14)">
      <defs>
       <path id="ArialMT-49" d="M 597 0 
L 597 4581 
L 1203 4581 
L 1203 0 
L 597 0 
z
" transform="scale(0.015625)"/>
       <path id="ArialMT-6e" d="M 422 0 
L 422 3319 
L 928 3319 
L 928 2847 
Q 1294 3394 1984 3394 
Q 2284 3394 2536 3286 
Q 2788 3178 2913 3003 
Q 3038 2828 3088 2588 
Q 3119 2431 3119 2041 
L 3119 0 
L 2556 0 
L 2556 2019 
Q 2556 2363 2490 2533 
Q 2425 2703 2258 2804 
Q 2091 2906 1866 2906 
Q 1506 2906 1245 2678 
Q 984 2450 984 1813 
L 984 0 
L 422 0 
z
" transform="scale(0.015625)"/>
       <path id="ArialMT-74" d="M 1650 503 
L 1731 6 
Q 1494 -44 1306 -44 
Q 1000 -44 831 53 
Q 663 150 594 308 
Q 525 466 525 972 
L 525 2881 
L 113 2881 
L 113 3319 
L 525 3319 
L 525 4141 
L 1084 4478 
L 1084 3319 
L 1650 3319 
L 1650 2881 
L 1084 2881 
L 1084 941 
Q 1084 700 1114 631 
Q 1144 563 1211 522 
Q 1278 481 1403 481 
Q 1497 481 1650 503 
z
" transform="scale(0.015625)"/>
       <path id="ArialMT-65" d="M 2694 1069 
L 3275 997 
Q 3138 488 2766 206 
Q 2394 -75 1816 -75 
Q 1088 -75 661 373 
Q 234 822 234 1631 
Q 234 2469 665 2931 
Q 1097 3394 1784 3394 
Q 2450 3394 2872 2941 
Q 3294 2488 3294 1666 
Q 3294 1616 3291 1516 
L 816 1516 
Q 847 969 1125 678 
Q 1403 388 1819 388 
Q 2128 388 2347 550 
Q 2566 713 2694 1069 
z
M 847 1978 
L 2700 1978 
Q 2663 2397 2488 2606 
Q 2219 2931 1791 2931 
Q 1403 2931 1139 2672 
Q 875 2413 847 1978 
z
" transform="scale(0.015625)"/>
       <path id="ArialMT-73" d="M 197 991 
L 753 1078 
Q 800 744 1014 566 
Q 1228 388 1613 388 
Q 2000 388 2187 545 
Q 2375 703 2375 916 
Q 2375 1106 2209 1216 
Q 2094 1291 1634 1406 
Q 1016 1563 777 1677 
Q 538 1791 414 1992 
Q 291 2194 291 2438 
Q 291 2659 392 2848 
Q 494 3038 669 3163 
Q 800 3259 1026 3326 
Q 1253 3394 1513 3394 
Q 1903 3394 2198 3281 
Q 2494 3169 2634 2976 
Q 2775 2784 2828 2463 
L 2278 2388 
Q 2241 2644 2061 2787 
Q 1881 2931 1553 2931 
Q 1166 2931 1000 2803 
Q 834 2675 834 2503 
Q 834 2394 903 2306 
Q 972 2216 1119 2156 
Q 1203 2125 1616 2013 
Q 2213 1853 2448 1751 
Q 2684 1650 2818 1456 
Q 2953 1263 2953 975 
Q 2953 694 2789 445 
Q 2625 197 2315 61 
Q 2006 -75 1616 -75 
Q 969 -75 630 194 
Q 291 463 197 991 
z
" transform="scale(0.015625)"/>
       <path id="ArialMT-69" d="M 425 3934 
L 425 4581 
L 988 4581 
L 988 3934 
L 425 3934 
z
M 425 0 
L 425 3319 
L 988 3319 
L 988 0 
L 425 0 
z
" transform="scale(0.015625)"/>
       <path id="ArialMT-79" d="M 397 -1278 
L 334 -750 
Q 519 -800 656 -800 
Q 844 -800 956 -737 
Q 1069 -675 1141 -563 
Q 1194 -478 1313 -144 
Q 1328 -97 1363 -6 
L 103 3319 
L 709 3319 
L 1400 1397 
Q 1534 1031 1641 628 
Q 1738 1016 1872 1384 
L 2581 3319 
L 3144 3319 
L 1881 -56 
Q 1678 -603 1566 -809 
Q 1416 -1088 1222 -1217 
Q 1028 -1347 759 -1347 
Q 597 -1347 397 -1278 
z
" transform="scale(0.015625)"/>
      </defs>
      <use xlink:href="#ArialMT-49"/>
      <use xlink:href="#ArialMT-6e" x="27.783203"/>
      <use xlink:href="#ArialMT-74" x="83.398438"/>
      <use xlink:href="#ArialMT-65" x="111.181641"/>
      <use xlink:href="#ArialMT-6e" x="166.796875"/>
      <use xlink:href="#ArialMT-73" x="222.412109"/>
      <use xlink:href="#ArialMT-69" x="272.412109"/>
      <use xlink:href="#ArialMT-74" x="294.628906"/>
      <use xlink:href="#ArialMT-79" x="322.412109"/>
     </g>
    </g>
   </g>
   <g id="line2d_20">
    <path d="M 27.10601 117.140192 
L 27.675865 118.826587 
L 28.245719 112.426933 
L 28.815573 112.470174 
L 29.385428 94.827883 
L 29.955282 94.136028 
L 30.525136 82.677188 
L 31.09499 92.017224 
L 31.664845 109.400069 
L 32.234699 122.026415 
L 32.804553 118.826587 
L 33.374407 124.837074 
L 33.944262 125.053278 
L 34.514116 128.555792 
L 35.08397 124.015497 
L 35.653824 129.247647 
L 36.223679 123.366883 
L 36.793533 128.080142 
L 37.363387 126.955878 
L 37.933242 127.258565 
L 38.503096 125.485687 
L 39.07295 125.745133 
L 39.642804 122.804751 
L 40.212659 123.626328 
L 40.782513 126.177542 
L 41.922221 122.76151 
L 42.492076 125.226242 
L 43.06193 123.366883 
L 43.631784 120.556224 
L 44.201639 120.945392 
L 44.771493 125.831615 
L 45.341347 126.696433 
L 46.481056 122.934474 
L 47.05091 123.669569 
L 47.620764 126.177542 
L 48.190618 124.534387 
L 48.760473 125.442447 
L 49.330327 121.031874 
L 49.900181 124.404665 
L 50.470035 122.372342 
L 51.03989 124.707351 
L 51.609744 119.258997 
L 52.179598 123.107437 
L 52.749453 115.021387 
L 53.319307 115.324074 
L 53.889161 118.826587 
L 54.459015 110.827019 
L 55.02887 115.799724 
L 55.598724 109.529792 
L 56.168578 110.956742 
L 56.738432 103.908474 
L 57.308287 104.124678 
L 57.878141 98.330397 
L 58.447995 93.790101 
L 59.587704 88.774156 
L 60.157558 79.607083 
L 60.727412 65.553787 
L 61.297267 55.954306 
L 61.867121 44.408983 
L 62.436975 29.750315 
L 63.130584 -1 
M 65.993234 -1 
L 66.425955 34.593297 
L 66.995809 70.526492 
L 67.565664 82.936633 
L 68.135518 88.730915 
L 68.705372 92.31991 
L 69.275226 90.936201 
L 69.845081 95.692701 
L 70.414935 95.476497 
L 70.984789 100.060033 
L 71.554643 101.746428 
L 72.124498 97.119651 
L 72.694352 102.654487 
L 73.264206 99.757347 
L 73.83406 99.757347 
L 74.403915 99.151974 
L 74.973769 100.060033 
L 75.543623 100.319478 
L 76.113478 95.260292 
L 76.683332 92.190187 
L 77.253186 97.465578 
L 78.392895 90.806478 
L 78.962749 100.362719 
L 79.532603 94.395474 
L 80.102457 100.449201 
L 80.672312 94.871124 
L 81.242166 93.919824 
L 81.81202 90.979442 
L 82.381874 93.74686 
L 82.951729 91.325369 
L 83.521583 90.41731 
L 84.091437 93.703619 
L 85.231146 88.384987 
L 85.801 90.244347 
L 86.370854 95.303533 
L 86.940709 88.341747 
L 87.510563 91.282128 
L 88.080417 90.330828 
L 88.650271 94.22251 
L 89.220126 87.08776 
L 89.78998 90.979442 
L 90.359834 91.541574 
L 90.929689 86.352665 
L 91.499543 92.752319 
L 92.069397 91.541574 
L 92.639251 92.406392 
L 93.209106 87.736374 
L 93.77896 90.763238 
L 94.348814 95.822424 
L 94.918668 89.855178 
L 95.488523 89.552492 
L 96.058377 92.882042 
L 96.628231 91.36861 
L 97.198085 93.314451 
L 97.76794 91.887501 
L 98.337794 96.860206 
L 98.907648 93.790101 
L 99.477503 96.341315 
L 100.047357 95.044087 
L 100.617211 97.55206 
L 101.187065 96.384556 
L 101.75692 95.64946 
L 102.326774 98.892528 
L 102.896628 101.097815 
L 103.466482 95.346774 
L 104.036337 101.703187 
L 104.606191 101.530224 
L 105.176045 101.703187 
L 105.745899 101.746428 
L 106.315754 101.011333 
L 106.885608 102.913933 
L 107.455462 100.319478 
L 108.025317 96.298074 
L 108.595171 95.64946 
L 109.165025 93.27121 
L 109.734879 92.665837 
L 110.304734 78.223374 
L 110.874588 79.390878 
L 111.444442 78.52606 
L 112.584151 52.624756 
L 113.154005 34.679778 
L 113.978306 -1 
M 115.293923 -1 
L 115.433422 5.838092 
L 116.003276 56.819124 
L 117.142985 103.086897 
L 117.712839 105.16246 
L 118.282693 112.253969 
L 118.852548 117.875287 
L 119.422402 120.080574 
L 119.992256 123.150678 
L 120.56211 127.301806 
L 121.131965 124.491147 
L 121.701819 125.572169 
L 122.271673 128.512551 
L 122.841528 128.642274 
L 123.411382 133.22581 
L 123.981236 132.317751 
L 124.55109 137.852587 
L 125.120945 134.65276 
L 125.690799 134.393315 
L 125.690799 134.393315 
" clip-path="url(#pcb86158234)" style="fill: none; stroke: #ffb14e; stroke-width: 1.5; stroke-linecap: square"/>
   </g>
   <g id="line2d_21">
    <path d="M 27.10601 133.744701 
L 27.675865 133.485256 
L 29.385428 124.491147 
L 29.955282 122.372342 
L 30.525136 125.658651 
L 31.664845 136.209433 
L 32.234699 137.766106 
L 32.804553 140.83621 
L 33.374407 140.230837 
L 33.944262 136.598601 
L 34.514116 137.117492 
L 35.08397 140.187597 
L 35.653824 139.279538 
L 36.223679 137.593142 
L 36.793533 137.98231 
L 37.363387 137.160733 
L 37.933242 138.501201 
L 38.503096 144.425206 
L 39.07295 142.565847 
L 39.642804 142.219919 
L 40.782513 138.674165 
L 41.352367 141.31186 
L 41.922221 138.803887 
L 42.492076 139.279538 
L 43.06193 136.987769 
L 43.631784 141.095656 
L 44.201639 143.084737 
L 44.771493 135.777024 
L 45.341347 140.490283 
L 45.911201 141.744269 
L 46.481056 138.587683 
L 47.05091 139.88491 
L 47.620764 140.576765 
L 48.190618 140.490283 
L 48.760473 140.101115 
L 49.330327 139.279538 
L 49.900181 140.792969 
L 50.470035 141.355101 
L 51.03989 139.538983 
L 51.609744 139.149815 
L 52.179598 137.593142 
L 52.749453 138.976851 
L 53.319307 133.960906 
L 53.889161 136.512119 
L 54.459015 134.868965 
L 55.02887 131.193488 
L 55.598724 130.934042 
L 56.168578 132.058306 
L 56.738432 128.512551 
L 57.308287 122.28586 
L 57.878141 114.545737 
L 58.447995 119.302237 
L 59.01785 110.913501 
L 60.157558 97.119651 
L 60.727412 81.206997 
L 61.297267 75.239751 
L 61.867121 56.256992 
L 63.065188 -1 
M 66.087032 -1 
L 66.425955 52.235587 
L 66.995809 82.633947 
L 67.565664 104.297642 
L 68.705372 112.945824 
L 69.275226 120.599465 
L 69.845081 118.999551 
L 70.414935 115.756483 
L 70.984789 120.469742 
L 71.554643 120.815669 
L 72.124498 120.729187 
L 72.694352 118.350937 
L 73.264206 118.091492 
L 73.83406 118.999551 
L 74.403915 121.204837 
L 74.973769 119.258997 
L 76.113478 117.269915 
L 76.683332 117.313156 
L 77.253186 121.204837 
L 77.82304 115.410556 
L 78.392895 112.902583 
L 78.962749 109.616274 
L 79.532603 111.648597 
L 80.102457 108.96766 
L 81.242166 110.913501 
L 81.81202 109.054142 
L 82.381874 106.070519 
L 82.951729 108.146083 
L 83.521583 105.292183 
L 84.091437 107.367747 
L 84.661292 107.367747 
L 85.231146 105.292183 
L 85.801 99.800587 
L 86.370854 96.557519 
L 86.940709 97.595301 
L 87.510563 96.816965 
L 88.080417 94.914365 
L 88.650271 88.903878 
L 89.220126 89.336287 
L 89.78998 90.633515 
L 90.359834 87.433687 
L 90.929689 90.719997 
L 91.499543 85.271642 
L 92.069397 87.995819 
L 92.639251 79.434119 
L 93.209106 75.412715 
L 93.77896 78.828747 
L 94.348814 75.369474 
L 94.918668 78.353097 
L 95.488523 78.742265 
L 96.058377 76.450497 
L 97.198085 83.023115 
L 97.76794 76.969387 
L 98.337794 77.920687 
L 99.477503 82.979874 
L 100.047357 92.492874 
L 100.617211 91.84426 
L 101.187065 92.925283 
L 101.75692 95.17381 
L 102.326774 94.611678 
L 102.896628 97.379097 
L 103.466482 101.703187 
L 104.036337 104.254401 
L 104.606191 105.681351 
L 105.176045 103.043656 
L 105.745899 111.605356 
L 106.315754 113.983606 
L 106.885608 109.529792 
L 107.455462 112.037765 
L 108.025317 102.568006 
L 108.595171 106.762374 
L 109.165025 103.951715 
L 110.304734 101.227537 
L 110.874588 94.784642 
L 111.444442 81.552924 
L 112.014296 75.326233 
L 113.154005 28.971978 
L 113.62479 -1 
M 115.523369 -1 
L 116.003276 58.029869 
L 116.573131 97.206133 
L 117.142985 118.95631 
L 117.712839 128.253106 
L 118.282693 130.544874 
L 118.852548 133.70146 
L 119.992256 136.858047 
L 120.56211 142.046956 
L 121.131965 145.11706 
L 121.701819 145.765674 
L 122.271673 150.34921 
L 122.841528 147.797997 
L 123.411382 145.895397 
L 123.981236 146.154842 
L 124.55109 150.608656 
L 125.120945 151.77616 
L 125.690799 149.051983 
L 125.690799 149.051983 
" clip-path="url(#pcb86158234)" style="fill: none; stroke: #008e00; stroke-width: 1.5; stroke-linecap: square"/>
   </g>
   <g id="line2d_22">
    <path d="M 27.10601 148.706056 
L 27.675865 144.338724 
L 28.245719 146.846697 
L 28.815573 149.87356 
L 29.385428 146.371047 
L 29.955282 148.706056 
L 30.525136 144.684651 
L 31.09499 149.700597 
L 31.664845 142.565847 
L 32.234699 149.181706 
L 32.804553 148.057442 
L 33.374407 149.441151 
L 33.944262 145.765674 
L 35.08397 152.684219 
L 35.653824 147.106142 
L 36.223679 149.268187 
L 36.793533 149.743837 
L 37.363387 151.77616 
L 37.933242 151.473474 
L 38.503096 149.181706 
L 39.07295 151.430233 
L 39.642804 150.82486 
L 40.212659 152.035606 
L 40.782513 152.165328 
L 41.352367 150.133006 
L 41.922221 155.538119 
L 42.492076 150.608656 
L 43.06193 149.268187 
L 43.631784 152.338292 
L 44.201639 148.619574 
L 44.771493 151.473474 
L 45.341347 149.743837 
L 45.911201 152.122087 
L 46.481056 150.997824 
L 47.05091 150.565415 
L 47.620764 154.111169 
L 48.190618 148.057442 
L 48.760473 153.765242 
L 49.330327 149.484392 
L 49.900181 147.927719 
L 50.470035 149.268187 
L 51.03989 153.332833 
L 51.609744 155.451638 
L 52.179598 149.657356 
L 52.749453 149.268187 
L 53.319307 149.441151 
L 53.889161 148.533092 
L 54.459015 148.057442 
L 55.02887 147.797997 
L 55.598724 145.938637 
L 56.168578 144.511687 
L 56.738432 147.452069 
L 57.878141 140.274078 
L 58.447995 138.890369 
L 59.01785 136.339156 
L 60.157558 123.193919 
L 60.727412 114.805183 
L 61.297267 108.146083 
L 61.867121 93.227969 
L 62.436975 71.953442 
L 63.576684 17.340174 
L 64.146538 5.578647 
L 64.716392 31.220506 
L 65.286246 84.925715 
L 65.856101 122.718269 
L 66.425955 135.344615 
L 66.995809 142.955015 
L 67.565664 148.230406 
L 68.135518 151.559956 
L 68.705372 154.15441 
L 69.275226 154.932747 
L 69.845081 152.900424 
L 70.414935 154.413856 
L 70.984789 151.257269 
L 71.554643 152.25181 
L 72.124498 156.705624 
L 72.694352 152.078847 
L 73.264206 149.960042 
L 73.83406 150.781619 
L 74.403915 153.765242 
L 74.973769 155.10571 
L 75.543623 151.084306 
L 76.113478 150.911342 
L 76.683332 149.268187 
L 77.253186 154.759783 
L 77.82304 152.900424 
L 78.392895 152.25181 
L 78.962749 150.435692 
L 79.532603 151.689678 
L 80.102457 147.452069 
L 81.242166 143.127978 
L 81.81202 146.54401 
L 82.381874 147.452069 
L 82.951729 140.057874 
L 83.521583 143.041497 
L 84.091437 140.749728 
L 84.661292 137.809347 
L 85.231146 136.685083 
L 85.801 135.906747 
L 86.370854 128.080142 
L 86.940709 126.350506 
L 87.510563 128.728756 
L 88.080417 124.577628 
L 88.650271 113.594437 
L 89.220126 106.243483 
L 89.78998 102.30856 
L 90.929689 74.807342 
L 91.499543 63.478224 
L 92.069397 44.971115 
L 92.639251 32.474492 
L 93.573312 -1 
M 98.78401 -1 
L 99.477503 34.420333 
L 101.187065 95.606219 
L 101.75692 101.919392 
L 102.326774 116.751024 
L 102.896628 119.258997 
L 104.036337 135.820265 
L 104.606191 135.041928 
L 105.176045 134.65276 
L 105.745899 142.868533 
L 106.315754 141.960474 
L 106.885608 145.030578 
L 107.455462 140.014633 
L 108.025317 140.187597 
L 108.595171 140.187597 
L 109.165025 139.841669 
L 109.734879 137.895828 
L 110.304734 128.599033 
L 110.874588 128.858478 
L 111.444442 117.572601 
L 112.014296 110.005442 
L 112.584151 99.368178 
L 113.154005 78.05041 
L 113.723859 64.126837 
L 114.293714 71.131865 
L 114.863568 103.649028 
L 116.003276 144.900856 
L 116.573131 153.67876 
L 117.142985 158.175815 
L 117.712839 156.619142 
L 118.282693 158.175815 
L 118.852548 162.326942 
L 119.422402 159.38656 
L 119.992256 162.197219 
L 120.56211 159.818969 
L 121.131965 165.613251 
L 121.701819 166.261865 
L 122.271673 164.316024 
L 122.841528 163.19176 
L 123.411382 168.207706 
L 123.981236 163.624169 
L 124.55109 168.034742 
L 125.120945 168.726597 
L 125.690799 166.478069 
L 125.690799 166.478069 
" clip-path="url(#pcb86158234)" style="fill: none; stroke: #000000; stroke-width: 1.5; stroke-linecap: square"/>
   </g>
   <g id="patch_3">
    <path d="M 27.6675 213.480937 
L 27.6675 23.220937 
" style="fill: none; stroke: #000000; stroke-width: 0.8; stroke-linejoin: miter; stroke-linecap: square"/>
   </g>
   <g id="patch_4">
    <path d="M 27.6675 213.480937 
L 125.3175 213.480937 
" style="fill: none; stroke: #000000; stroke-width: 0.8; stroke-linejoin: miter; stroke-linecap: square"/>
   </g>
   <g id="text_5">
    <!-- High-aluminum -->
    <g transform="translate(29.422969 17.220937) scale(0.14 -0.14)">
     <defs>
      <path id="ArialMT-48" d="M 513 0 
L 513 4581 
L 1119 4581 
L 1119 2700 
L 3500 2700 
L 3500 4581 
L 4106 4581 
L 4106 0 
L 3500 0 
L 3500 2159 
L 1119 2159 
L 1119 0 
L 513 0 
z
" transform="scale(0.015625)"/>
      <path id="ArialMT-67" d="M 319 -275 
L 866 -356 
Q 900 -609 1056 -725 
Q 1266 -881 1628 -881 
Q 2019 -881 2231 -725 
Q 2444 -569 2519 -288 
Q 2563 -116 2559 434 
Q 2191 0 1641 0 
Q 956 0 581 494 
Q 206 988 206 1678 
Q 206 2153 378 2554 
Q 550 2956 876 3175 
Q 1203 3394 1644 3394 
Q 2231 3394 2613 2919 
L 2613 3319 
L 3131 3319 
L 3131 450 
Q 3131 -325 2973 -648 
Q 2816 -972 2473 -1159 
Q 2131 -1347 1631 -1347 
Q 1038 -1347 672 -1080 
Q 306 -813 319 -275 
z
M 784 1719 
Q 784 1066 1043 766 
Q 1303 466 1694 466 
Q 2081 466 2343 764 
Q 2606 1063 2606 1700 
Q 2606 2309 2336 2618 
Q 2066 2928 1684 2928 
Q 1309 2928 1046 2623 
Q 784 2319 784 1719 
z
" transform="scale(0.015625)"/>
      <path id="ArialMT-68" d="M 422 0 
L 422 4581 
L 984 4581 
L 984 2938 
Q 1378 3394 1978 3394 
Q 2347 3394 2619 3248 
Q 2891 3103 3008 2847 
Q 3125 2591 3125 2103 
L 3125 0 
L 2563 0 
L 2563 2103 
Q 2563 2525 2380 2717 
Q 2197 2909 1863 2909 
Q 1613 2909 1392 2779 
Q 1172 2650 1078 2428 
Q 984 2206 984 1816 
L 984 0 
L 422 0 
z
" transform="scale(0.015625)"/>
      <path id="ArialMT-2d" d="M 203 1375 
L 203 1941 
L 1931 1941 
L 1931 1375 
L 203 1375 
z
" transform="scale(0.015625)"/>
      <path id="ArialMT-61" d="M 2588 409 
Q 2275 144 1986 34 
Q 1697 -75 1366 -75 
Q 819 -75 525 192 
Q 231 459 231 875 
Q 231 1119 342 1320 
Q 453 1522 633 1644 
Q 813 1766 1038 1828 
Q 1203 1872 1538 1913 
Q 2219 1994 2541 2106 
Q 2544 2222 2544 2253 
Q 2544 2597 2384 2738 
Q 2169 2928 1744 2928 
Q 1347 2928 1158 2789 
Q 969 2650 878 2297 
L 328 2372 
Q 403 2725 575 2942 
Q 747 3159 1072 3276 
Q 1397 3394 1825 3394 
Q 2250 3394 2515 3294 
Q 2781 3194 2906 3042 
Q 3031 2891 3081 2659 
Q 3109 2516 3109 2141 
L 3109 1391 
Q 3109 606 3145 398 
Q 3181 191 3288 0 
L 2700 0 
Q 2613 175 2588 409 
z
M 2541 1666 
Q 2234 1541 1622 1453 
Q 1275 1403 1131 1340 
Q 988 1278 909 1158 
Q 831 1038 831 891 
Q 831 666 1001 516 
Q 1172 366 1500 366 
Q 1825 366 2078 508 
Q 2331 650 2450 897 
Q 2541 1088 2541 1459 
L 2541 1666 
z
" transform="scale(0.015625)"/>
      <path id="ArialMT-6c" d="M 409 0 
L 409 4581 
L 972 4581 
L 972 0 
L 409 0 
z
" transform="scale(0.015625)"/>
      <path id="ArialMT-75" d="M 2597 0 
L 2597 488 
Q 2209 -75 1544 -75 
Q 1250 -75 995 37 
Q 741 150 617 320 
Q 494 491 444 738 
Q 409 903 409 1263 
L 409 3319 
L 972 3319 
L 972 1478 
Q 972 1038 1006 884 
Q 1059 663 1231 536 
Q 1403 409 1656 409 
Q 1909 409 2131 539 
Q 2353 669 2445 892 
Q 2538 1116 2538 1541 
L 2538 3319 
L 3100 3319 
L 3100 0 
L 2597 0 
z
" transform="scale(0.015625)"/>
      <path id="ArialMT-6d" d="M 422 0 
L 422 3319 
L 925 3319 
L 925 2853 
Q 1081 3097 1340 3245 
Q 1600 3394 1931 3394 
Q 2300 3394 2536 3241 
Q 2772 3088 2869 2813 
Q 3263 3394 3894 3394 
Q 4388 3394 4653 3120 
Q 4919 2847 4919 2278 
L 4919 0 
L 4359 0 
L 4359 2091 
Q 4359 2428 4304 2576 
Q 4250 2725 4106 2815 
Q 3963 2906 3769 2906 
Q 3419 2906 3187 2673 
Q 2956 2441 2956 1928 
L 2956 0 
L 2394 0 
L 2394 2156 
Q 2394 2531 2256 2718 
Q 2119 2906 1806 2906 
Q 1569 2906 1367 2781 
Q 1166 2656 1075 2415 
Q 984 2175 984 1722 
L 984 0 
L 422 0 
z
" transform="scale(0.015625)"/>
     </defs>
     <use xlink:href="#ArialMT-48"/>
     <use xlink:href="#ArialMT-69" x="72.216797"/>
     <use xlink:href="#ArialMT-67" x="94.433594"/>
     <use xlink:href="#ArialMT-68" x="150.048828"/>
     <use xlink:href="#ArialMT-2d" x="205.664062"/>
     <use xlink:href="#ArialMT-61" x="238.964844"/>
     <use xlink:href="#ArialMT-6c" x="294.580078"/>
     <use xlink:href="#ArialMT-75" x="316.796875"/>
     <use xlink:href="#ArialMT-6d" x="372.412109"/>
     <use xlink:href="#ArialMT-69" x="455.712891"/>
     <use xlink:href="#ArialMT-6e" x="477.929688"/>
     <use xlink:href="#ArialMT-75" x="533.544922"/>
     <use xlink:href="#ArialMT-6d" x="589.160156"/>
    </g>
   </g>
  </g>
 </g>
 <defs>
  <clipPath id="pcb86158234">
   <rect x="27.6675" y="23.220937" width="97.65" height="190.26"/>
  </clipPath>
 </defs>
</svg>
