<?xml version="1.0" encoding="utf-8" standalone="no"?>
<!DOCTYPE svg PUBLIC "-//W3C//DTD SVG 1.1//EN"
  "http://www.w3.org/Graphics/SVG/1.1/DTD/svg11.dtd">
<svg xmlns:xlink="http://www.w3.org/1999/xlink" width="138.078437pt" height="253.629687pt" viewBox="0 0 138.078437 253.629687" xmlns="http://www.w3.org/2000/svg" version="1.1">
 <metadata>
  <rdf:RDF xmlns:dc="http://purl.org/dc/elements/1.1/" xmlns:cc="http://creativecommons.org/ns#" xmlns:rdf="http://www.w3.org/1999/02/22-rdf-syntax-ns#">
   <cc:Work>
    <dc:type rdf:resource="http://purl.org/dc/dcmitype/StillImage"/>
    <dc:date>2023-10-05T22:22:06.227159</dc:date>
    <dc:format>image/svg+xml</dc:format>
    <dc:creator>
     <cc:Agent>
      <dc:title>Matplotlib v3.7.1, https://matplotlib.org/</dc:title>
     </cc:Agent>
    </dc:creator>
   </cc:Work>
  </rdf:RDF>
 </metadata>
 <defs>
  <style type="text/css">*{stroke-linejoin: round; stroke-linecap: butt}</style>
 </defs>
 <g id="figure_1">
  <g id="patch_1">
   <path d="M -0 253.629687 
L 138.078437 253.629687 
L 138.078437 -0 
L -0 -0 
z
" style="fill: #ffffff"/>
  </g>
  <g id="axes_1">
   <g id="patch_2">
    <path d="M 27.6675 213.480937 
L 125.3175 213.480937 
L 125.3175 23.220937 
L 27.6675 23.220937 
z
" style="fill: #ffffff"/>
   </g>
   <g id="matplotlib.axis_1">
    <g id="xtick_1">
     <g id="line2d_1">
      <defs>
       <path id="m1bc49df6ed" d="M 0 0 
L 0 3.5 
" style="stroke: #000000; stroke-width: 0.8"/>
      </defs>
      <g>
       <use xlink:href="#m1bc49df6ed" x="27.6675" y="213.480937" style="stroke: #000000; stroke-width: 0.8"/>
      </g>
     </g>
     <g id="text_1">
      <!-- 10 -->
      <g transform="translate(22.106563 227.63875) scale(0.1 -0.1)">
       <defs>
        <path id="ArialMT-31" d="M 2384 0 
L 1822 0 
L 1822 3584 
Q 1619 3391 1289 3197 
Q 959 3003 697 2906 
L 697 3450 
Q 1169 3672 1522 3987 
Q 1875 4303 2022 4600 
L 2384 4600 
L 2384 0 
z
" transform="scale(0.015625)"/>
        <path id="ArialMT-30" d="M 266 2259 
Q 266 3072 433 3567 
Q 600 4063 929 4331 
Q 1259 4600 1759 4600 
Q 2128 4600 2406 4451 
Q 2684 4303 2865 4023 
Q 3047 3744 3150 3342 
Q 3253 2941 3253 2259 
Q 3253 1453 3087 958 
Q 2922 463 2592 192 
Q 2263 -78 1759 -78 
Q 1097 -78 719 397 
Q 266 969 266 2259 
z
M 844 2259 
Q 844 1131 1108 757 
Q 1372 384 1759 384 
Q 2147 384 2411 759 
Q 2675 1134 2675 2259 
Q 2675 3391 2411 3762 
Q 2147 4134 1753 4134 
Q 1366 4134 1134 3806 
Q 844 3388 844 2259 
z
" transform="scale(0.015625)"/>
       </defs>
       <use xlink:href="#ArialMT-31"/>
       <use xlink:href="#ArialMT-30" x="55.615234"/>
      </g>
     </g>
    </g>
    <g id="xtick_2">
     <g id="line2d_2">
      <g>
       <use xlink:href="#m1bc49df6ed" x="60.2175" y="213.480937" style="stroke: #000000; stroke-width: 0.8"/>
      </g>
     </g>
     <g id="text_2">
      <!-- 11 -->
      <g transform="translate(55.025313 227.63875) scale(0.1 -0.1)">
       <use xlink:href="#ArialMT-31"/>
       <use xlink:href="#ArialMT-31" x="48.240234"/>
      </g>
     </g>
    </g>
    <g id="xtick_3">
     <g id="line2d_3">
      <g>
       <use xlink:href="#m1bc49df6ed" x="92.7675" y="213.480937" style="stroke: #000000; stroke-width: 0.8"/>
      </g>
     </g>
     <g id="text_3">
      <!-- 12 -->
      <g transform="translate(87.206562 227.63875) scale(0.1 -0.1)">
       <defs>
        <path id="ArialMT-32" d="M 3222 541 
L 3222 0 
L 194 0 
Q 188 203 259 391 
Q 375 700 629 1000 
Q 884 1300 1366 1694 
Q 2113 2306 2375 2664 
Q 2638 3022 2638 3341 
Q 2638 3675 2398 3904 
Q 2159 4134 1775 4134 
Q 1369 4134 1125 3890 
Q 881 3647 878 3216 
L 300 3275 
Q 359 3922 746 4261 
Q 1134 4600 1788 4600 
Q 2447 4600 2831 4234 
Q 3216 3869 3216 3328 
Q 3216 3053 3103 2787 
Q 2991 2522 2730 2228 
Q 2469 1934 1863 1422 
Q 1356 997 1212 845 
Q 1069 694 975 541 
L 3222 541 
z
" transform="scale(0.015625)"/>
       </defs>
       <use xlink:href="#ArialMT-31"/>
       <use xlink:href="#ArialMT-32" x="55.615234"/>
      </g>
     </g>
    </g>
    <g id="xtick_4">
     <g id="line2d_4">
      <g>
       <use xlink:href="#m1bc49df6ed" x="125.3175" y="213.480937" style="stroke: #000000; stroke-width: 0.8"/>
      </g>
     </g>
     <g id="text_4">
      <!-- 13 -->
      <g transform="translate(119.756563 227.63875) scale(0.1 -0.1)">
       <defs>
        <path id="ArialMT-33" d="M 269 1209 
L 831 1284 
Q 928 806 1161 595 
Q 1394 384 1728 384 
Q 2125 384 2398 659 
Q 2672 934 2672 1341 
Q 2672 1728 2419 1979 
Q 2166 2231 1775 2231 
Q 1616 2231 1378 2169 
L 1441 2663 
Q 1497 2656 1531 2656 
Q 1891 2656 2178 2843 
Q 2466 3031 2466 3422 
Q 2466 3731 2256 3934 
Q 2047 4138 1716 4138 
Q 1388 4138 1169 3931 
Q 950 3725 888 3313 
L 325 3413 
Q 428 3978 793 4289 
Q 1159 4600 1703 4600 
Q 2078 4600 2393 4439 
Q 2709 4278 2876 4000 
Q 3044 3722 3044 3409 
Q 3044 3113 2884 2869 
Q 2725 2625 2413 2481 
Q 2819 2388 3044 2092 
Q 3269 1797 3269 1353 
Q 3269 753 2831 336 
Q 2394 -81 1725 -81 
Q 1122 -81 723 278 
Q 325 638 269 1209 
z
" transform="scale(0.015625)"/>
       </defs>
       <use xlink:href="#ArialMT-31"/>
       <use xlink:href="#ArialMT-33" x="55.615234"/>
      </g>
     </g>
    </g>
    <g id="xtick_5">
     <g id="line2d_5">
      <defs>
       <path id="m0ac85a2646" d="M 0 0 
L 0 2 
" style="stroke: #000000; stroke-width: 0.6"/>
      </defs>
      <g>
       <use xlink:href="#m0ac85a2646" x="43.9425" y="213.480937" style="stroke: #000000; stroke-width: 0.6"/>
      </g>
     </g>
    </g>
    <g id="xtick_6">
     <g id="line2d_6">
      <g>
       <use xlink:href="#m0ac85a2646" x="76.4925" y="213.480937" style="stroke: #000000; stroke-width: 0.6"/>
      </g>
     </g>
    </g>
    <g id="xtick_7">
     <g id="line2d_7">
      <g>
       <use xlink:href="#m0ac85a2646" x="109.0425" y="213.480937" style="stroke: #000000; stroke-width: 0.6"/>
      </g>
     </g>
    </g>
    <g id="text_5">
     <!-- 2θ -->
     <g transform="translate(68.707188 243.647187) scale(0.14 -0.14)">
      <defs>
       <path id="ArialMT-3b8" d="M 288 2291 
Q 288 4659 1781 4659 
Q 3275 4659 3275 2291 
Q 3275 -75 1781 -75 
Q 288 -75 288 2291 
z
M 869 2519 
L 2694 2519 
Q 2663 3497 2413 3847 
Q 2163 4197 1775 4197 
Q 903 4197 869 2519 
z
M 2694 2066 
L 869 2066 
Q 903 388 1781 388 
Q 2663 388 2694 2066 
z
" transform="scale(0.015625)"/>
      </defs>
      <use xlink:href="#ArialMT-32"/>
      <use xlink:href="#ArialMT-3b8" x="55.615234"/>
     </g>
    </g>
   </g>
   <g id="matplotlib.axis_2">
    <g id="ytick_1">
     <g id="line2d_8"/>
    </g>
    <g id="ytick_2">
     <g id="line2d_9"/>
    </g>
    <g id="ytick_3">
     <g id="line2d_10"/>
    </g>
    <g id="ytick_4">
     <g id="line2d_11"/>
    </g>
    <g id="ytick_5">
     <g id="line2d_12"/>
    </g>
    <g id="ytick_6">
     <g id="line2d_13"/>
    </g>
    <g id="ytick_7">
     <g id="line2d_14"/>
    </g>
    <g id="text_6">
     <!-- Intensity -->
     <g transform="translate(17.220938 144.418281) rotate(-90) scale(0.14 -0.14)">
      <defs>
       <path id="ArialMT-49" d="M 597 0 
L 597 4581 
L 1203 4581 
L 1203 0 
L 597 0 
z
" transform="scale(0.015625)"/>
       <path id="ArialMT-6e" d="M 422 0 
L 422 3319 
L 928 3319 
L 928 2847 
Q 1294 3394 1984 3394 
Q 2284 3394 2536 3286 
Q 2788 3178 2913 3003 
Q 3038 2828 3088 2588 
Q 3119 2431 3119 2041 
L 3119 0 
L 2556 0 
L 2556 2019 
Q 2556 2363 2490 2533 
Q 2425 2703 2258 2804 
Q 2091 2906 1866 2906 
Q 1506 2906 1245 2678 
Q 984 2450 984 1813 
L 984 0 
L 422 0 
z
" transform="scale(0.015625)"/>
       <path id="ArialMT-74" d="M 1650 503 
L 1731 6 
Q 1494 -44 1306 -44 
Q 1000 -44 831 53 
Q 663 150 594 308 
Q 525 466 525 972 
L 525 2881 
L 113 2881 
L 113 3319 
L 525 3319 
L 525 4141 
L 1084 4478 
L 1084 3319 
L 1650 3319 
L 1650 2881 
L 1084 2881 
L 1084 941 
Q 1084 700 1114 631 
Q 1144 563 1211 522 
Q 1278 481 1403 481 
Q 1497 481 1650 503 
z
" transform="scale(0.015625)"/>
       <path id="ArialMT-65" d="M 2694 1069 
L 3275 997 
Q 3138 488 2766 206 
Q 2394 -75 1816 -75 
Q 1088 -75 661 373 
Q 234 822 234 1631 
Q 234 2469 665 2931 
Q 1097 3394 1784 3394 
Q 2450 3394 2872 2941 
Q 3294 2488 3294 1666 
Q 3294 1616 3291 1516 
L 816 1516 
Q 847 969 1125 678 
Q 1403 388 1819 388 
Q 2128 388 2347 550 
Q 2566 713 2694 1069 
z
M 847 1978 
L 2700 1978 
Q 2663 2397 2488 2606 
Q 2219 2931 1791 2931 
Q 1403 2931 1139 2672 
Q 875 2413 847 1978 
z
" transform="scale(0.015625)"/>
       <path id="ArialMT-73" d="M 197 991 
L 753 1078 
Q 800 744 1014 566 
Q 1228 388 1613 388 
Q 2000 388 2187 545 
Q 2375 703 2375 916 
Q 2375 1106 2209 1216 
Q 2094 1291 1634 1406 
Q 1016 1563 777 1677 
Q 538 1791 414 1992 
Q 291 2194 291 2438 
Q 291 2659 392 2848 
Q 494 3038 669 3163 
Q 800 3259 1026 3326 
Q 1253 3394 1513 3394 
Q 1903 3394 2198 3281 
Q 2494 3169 2634 2976 
Q 2775 2784 2828 2463 
L 2278 2388 
Q 2241 2644 2061 2787 
Q 1881 2931 1553 2931 
Q 1166 2931 1000 2803 
Q 834 2675 834 2503 
Q 834 2394 903 2306 
Q 972 2216 1119 2156 
Q 1203 2125 1616 2013 
Q 2213 1853 2448 1751 
Q 2684 1650 2818 1456 
Q 2953 1263 2953 975 
Q 2953 694 2789 445 
Q 2625 197 2315 61 
Q 2006 -75 1616 -75 
Q 969 -75 630 194 
Q 291 463 197 991 
z
" transform="scale(0.015625)"/>
       <path id="ArialMT-69" d="M 425 3934 
L 425 4581 
L 988 4581 
L 988 3934 
L 425 3934 
z
M 425 0 
L 425 3319 
L 988 3319 
L 988 0 
L 425 0 
z
" transform="scale(0.015625)"/>
       <path id="ArialMT-79" d="M 397 -1278 
L 334 -750 
Q 519 -800 656 -800 
Q 844 -800 956 -737 
Q 1069 -675 1141 -563 
Q 1194 -478 1313 -144 
Q 1328 -97 1363 -6 
L 103 3319 
L 709 3319 
L 1400 1397 
Q 1534 1031 1641 628 
Q 1738 1016 1872 1384 
L 2581 3319 
L 3144 3319 
L 1881 -56 
Q 1678 -603 1566 -809 
Q 1416 -1088 1222 -1217 
Q 1028 -1347 759 -1347 
Q 597 -1347 397 -1278 
z
" transform="scale(0.015625)"/>
      </defs>
      <use xlink:href="#ArialMT-49"/>
      <use xlink:href="#ArialMT-6e" x="27.783203"/>
      <use xlink:href="#ArialMT-74" x="83.398438"/>
      <use xlink:href="#ArialMT-65" x="111.181641"/>
      <use xlink:href="#ArialMT-6e" x="166.796875"/>
      <use xlink:href="#ArialMT-73" x="222.412109"/>
      <use xlink:href="#ArialMT-69" x="272.412109"/>
      <use xlink:href="#ArialMT-74" x="294.628906"/>
      <use xlink:href="#ArialMT-79" x="322.412109"/>
     </g>
    </g>
   </g>
   <g id="line2d_15">
    <path d="M 27.577587 169.6815 
L 28.432368 169.456887 
L 29.28715 169.7872 
L 30.141931 169.456887 
L 30.996713 168.294187 
L 31.851494 170.500675 
L 32.706275 167.93745 
L 33.561057 168.743413 
L 34.415838 167.9903 
L 35.27062 167.316463 
L 36.125401 166.787962 
L 36.980182 166.602987 
L 37.834964 168.809475 
L 38.689745 165.651687 
L 39.544527 165.572412 
L 40.399308 165.493137 
L 41.254089 164.1851 
L 42.108871 164.44935 
L 42.963652 163.60375 
L 43.818434 162.612812 
L 44.673215 164.581475 
L 45.527997 161.925762 
L 46.382778 162.1768 
L 47.237559 161.27835 
L 48.092341 160.604512 
L 48.947122 160.459175 
L 49.801904 161.450112 
L 50.656685 160.3799 
L 51.511466 160.578087 
L 52.366248 159.085075 
L 53.221029 159.864612 
L 54.075811 157.57885 
L 54.930592 159.177562 
L 55.785373 158.437662 
L 56.640155 157.68455 
L 57.494936 157.763825 
L 58.349718 156.165112 
L 59.204499 157.763825 
L 60.05928 158.120563 
L 60.914062 155.861225 
L 61.768843 156.83895 
L 62.623625 155.438425 
L 63.478406 156.94465 
L 64.333187 156.1519 
L 65.187969 155.755525 
L 66.04275 155.3063 
L 66.897532 157.36745 
L 67.752313 156.072625 
L 68.607094 157.618488 
L 69.461876 156.94465 
L 70.316657 157.354238 
L 71.171439 157.6317 
L 72.02622 156.52185 
L 72.881001 157.882737 
L 73.735783 159.203987 
L 74.590564 158.583 
L 75.445346 158.781187 
L 76.300127 159.7457 
L 77.154908 160.155287 
L 78.00969 160.578087 
L 78.864471 161.106587 
L 79.719253 161.780425 
L 80.574034 163.39235 
L 81.428815 162.216437 
L 82.283597 162.718513 
L 83.138378 163.471625 
L 83.99316 166.378375 
L 84.847941 165.783813 
L 85.702722 166.048063 
L 86.557504 165.334587 
L 87.412285 166.523712 
L 88.267067 167.6732 
L 89.121848 168.228125 
L 89.976629 168.67735 
L 90.831411 169.456887 
L 91.686192 169.3644 
L 92.540974 170.236425 
L 93.395755 170.434612 
L 94.250536 171.240575 
L 95.105318 174.134112 
L 95.960099 173.843437 
L 96.814881 172.654313 
L 97.669662 174.424787 
L 98.524443 174.292663 
L 99.379225 175.785675 
L 100.234006 176.274538 
L 101.088788 177.622212 
L 101.943569 177.054075 
L 102.79835 178.256413 
L 103.653132 178.50745 
L 104.507913 178.639575 
L 105.362695 177.701487 
L 106.217476 178.124287 
L 107.072257 179.326625 
L 107.927039 179.921188 
L 108.78182 181.612388 
L 109.636602 181.242437 
L 110.491383 180.291137 
L 111.346164 181.67845 
L 112.200946 182.484412 
L 113.055727 181.5199 
L 113.910509 183.1054 
L 114.76529 182.709025 
L 115.620071 182.52405 
L 116.474853 184.2681 
L 117.329634 183.237525 
L 118.184416 184.704113 
L 119.039197 184.281313 
L 119.893979 184.017063 
L 120.74876 183.4225 
L 121.603541 185.391163 
L 122.458323 186.395312 
L 123.313104 185.787537 
L 124.167885 187.240912 
L 125.022667 186.818112 
L 125.877448 186.897387 
" clip-path="url(#p9a18d67b55)" style="fill: none; stroke: #ffb14e; stroke-width: 1.5; stroke-linecap: square"/>
   </g>
   <g id="line2d_16">
    <path d="M 27.577587 173.103537 
L 28.432368 173.513125 
L 29.28715 171.716225 
L 30.141931 172.363637 
L 30.996713 171.755863 
L 31.851494 170.381762 
L 32.706275 171.7955 
L 33.561057 170.764925 
L 34.415838 169.549375 
L 35.27062 168.214912 
L 36.125401 168.756625 
L 36.980182 169.52295 
L 37.834964 167.871387 
L 38.689745 168.320612 
L 39.544527 167.963875 
L 40.399308 167.065425 
L 41.254089 167.501438 
L 42.108871 165.255313 
L 42.963652 165.215675 
L 43.818434 164.264375 
L 44.673215 163.722663 
L 45.527997 161.740788 
L 46.382778 162.7053 
L 47.237559 162.308925 
L 48.092341 162.374988 
L 48.947122 160.3799 
L 49.801904 161.146225 
L 50.656685 159.243625 
L 51.511466 159.468237 
L 52.366248 158.992588 
L 53.221029 157.724187 
L 54.075811 157.710975 
L 54.930592 156.1519 
L 55.785373 157.235325 
L 56.640155 156.072625 
L 57.494936 153.839713 
L 58.349718 155.702675 
L 59.204499 151.884263 
L 60.05928 153.324425 
L 60.914062 151.778562 
L 61.768843 148.6472 
L 62.623625 149.056787 
L 63.478406 145.568688 
L 64.333187 144.300287 
L 65.187969 140.98395 
L 66.04275 137.2316 
L 66.897532 132.10515 
L 67.752313 127.573262 
L 68.607094 120.7424 
L 69.461876 110.674475 
L 70.316657 97.448763 
L 71.171439 80.985987 
L 72.02622 74.802537 
L 72.881001 75.965238 
L 73.735783 97.461975 
L 74.590564 121.085925 
L 75.445346 137.086263 
L 76.300127 146.837087 
L 77.154908 153.694375 
L 78.00969 155.412 
L 78.864471 157.459937 
L 79.719253 158.450875 
L 80.574034 158.569787 
L 81.428815 160.85555 
L 82.283597 162.190012 
L 83.138378 162.137162 
L 83.99316 163.352712 
L 84.847941 166.100912 
L 85.702722 163.934062 
L 86.557504 168.452738 
L 87.412285 165.942363 
L 88.267067 166.418013 
L 89.121848 166.682263 
L 89.976629 172.178663 
L 90.831411 170.038237 
L 91.686192 169.602225 
L 92.540974 172.257937 
L 93.395755 173.5924 
L 94.250536 174.001987 
L 95.105318 174.213388 
L 95.960099 174.028413 
L 96.814881 173.711312 
L 97.669662 175.65355 
L 98.524443 176.71055 
L 99.379225 177.76755 
L 100.234006 178.679213 
L 101.088788 177.159775 
L 101.943569 179.855125 
L 102.79835 178.9831 
L 103.653132 180.211862 
L 104.507913 180.343987 
L 105.362695 180.396838 
L 106.217476 181.3085 
L 107.072257 182.894 
L 107.927039 180.647875 
L 108.78182 182.391925 
L 109.636602 183.145038 
L 110.491383 183.250737 
L 111.346164 184.823025 
L 112.200946 184.2681 
L 113.055727 185.496862 
L 113.910509 185.391163 
L 114.76529 183.871725 
L 115.620071 184.466287 
L 116.474853 187.201275 
L 117.329634 186.527437 
L 118.184416 187.055937 
L 119.039197 186.316037 
L 119.893979 188.430037 
L 120.74876 187.2277 
L 121.603541 187.28055 
L 122.458323 188.839625 
L 123.313104 189.328487 
L 124.167885 188.641437 
L 125.022667 188.786775 
L 125.877448 190.055175 
" clip-path="url(#p9a18d67b55)" style="fill: none; stroke: #008e00; stroke-width: 1.5; stroke-linecap: square"/>
   </g>
   <g id="line2d_17">
    <path d="M 27.577587 182.352287 
L 28.432368 180.0401 
L 29.28715 181.744512 
L 30.141931 181.25565 
L 30.996713 180.264713 
L 31.851494 180.6743 
L 32.706275 180.119375 
L 33.561057 180.106162 
L 34.415838 179.154862 
L 35.27062 179.498387 
L 36.125401 177.780762 
L 36.980182 177.529725 
L 37.834964 177.846825 
L 38.689745 176.736975 
L 39.544527 177.384388 
L 40.399308 178.573512 
L 41.254089 176.538788 
L 42.108871 176.036712 
L 42.963652 174.979713 
L 43.818434 174.38515 
L 44.673215 176.327387 
L 45.527997 175.006137 
L 46.382778 175.323238 
L 47.237559 174.411575 
L 48.092341 174.239812 
L 48.947122 174.900438 
L 49.801904 173.090325 
L 50.656685 171.174512 
L 51.511466 172.033325 
L 52.366248 171.703012 
L 53.221029 169.589012 
L 54.075811 171.0556 
L 54.930592 171.227362 
L 55.785373 169.139788 
L 56.640155 169.641863 
L 57.494936 168.228125 
L 58.349718 168.4131 
L 59.204499 167.223975 
L 60.05928 169.443675 
L 60.914062 166.787962 
L 61.768843 164.1851 
L 62.623625 166.470863 
L 63.478406 163.590537 
L 64.333187 163.471625 
L 65.187969 158.199838 
L 66.04275 158.358387 
L 66.897532 156.601125 
L 67.752313 151.527525 
L 68.607094 149.1757 
L 69.461876 140.706487 
L 70.316657 133.05645 
L 71.171439 120.147838 
L 72.02622 106.6843 
L 72.881001 88.97955 
L 73.735783 59.991325 
L 74.590564 41.123875 
L 75.445346 40.027238 
L 76.300127 41.52025 
L 77.154908 52.010975 
L 78.00969 78.488825 
L 78.864471 122.248625 
L 79.719253 151.223637 
L 80.574034 165.109975 
L 81.428815 168.584862 
L 82.283597 172.020112 
L 83.138378 171.769075 
L 83.99316 172.297575 
L 84.847941 174.728675 
L 85.702722 176.248112 
L 86.557504 175.323238 
L 87.412285 177.410812 
L 88.267067 177.476875 
L 89.121848 178.163925 
L 89.976629 179.022738 
L 90.831411 178.996312 
L 91.686192 178.93025 
L 92.540974 180.172225 
L 93.395755 181.480262 
L 94.250536 182.035188 
L 95.105318 182.62975 
L 95.960099 182.5769 
L 96.814881 183.488563 
L 97.669662 183.171462 
L 98.524443 184.175612 
L 99.379225 184.069912 
L 100.234006 184.9023 
L 101.088788 185.893237 
L 101.943569 185.364737 
L 102.79835 185.985725 
L 103.653132 185.880025 
L 104.507913 187.399462 
L 105.362695 187.38625 
L 106.217476 187.531588 
L 107.072257 188.747138 
L 107.927039 187.452313 
L 108.78182 189.249212 
L 109.636602 190.742225 
L 110.491383 189.738075 
L 111.346164 190.6101 
L 112.200946 190.900775 
L 113.055727 190.226937 
L 113.910509 190.993262 
L 114.76529 191.257512 
L 115.620071 191.323575 
L 116.474853 190.755437 
L 117.329634 192.420212 
L 118.184416 192.261662 
L 119.039197 192.631612 
L 119.893979 192.261662 
L 120.74876 193.054412 
L 121.603541 192.473062 
L 122.458323 193.913225 
L 123.313104 194.296387 
L 124.167885 195.168412 
L 125.022667 194.005712 
L 125.877448 194.454937 
" clip-path="url(#p9a18d67b55)" style="fill: none; stroke: #000000; stroke-width: 1.5; stroke-linecap: square"/>
   </g>
   <g id="patch_3">
    <path d="M 27.6675 213.480937 
L 27.6675 23.220938 
" style="fill: none; stroke: #000000; stroke-width: 0.8; stroke-linejoin: miter; stroke-linecap: square"/>
   </g>
   <g id="patch_4">
    <path d="M 27.6675 213.480937 
L 125.3175 213.480937 
" style="fill: none; stroke: #000000; stroke-width: 0.8; stroke-linejoin: miter; stroke-linecap: square"/>
   </g>
   <g id="text_7">
    <!-- High-magnesium -->
    <g transform="translate(23.585625 17.220937) scale(0.14 -0.14)">
     <defs>
      <path id="ArialMT-48" d="M 513 0 
L 513 4581 
L 1119 4581 
L 1119 2700 
L 3500 2700 
L 3500 4581 
L 4106 4581 
L 4106 0 
L 3500 0 
L 3500 2159 
L 1119 2159 
L 1119 0 
L 513 0 
z
" transform="scale(0.015625)"/>
      <path id="ArialMT-67" d="M 319 -275 
L 866 -356 
Q 900 -609 1056 -725 
Q 1266 -881 1628 -881 
Q 2019 -881 2231 -725 
Q 2444 -569 2519 -288 
Q 2563 -116 2559 434 
Q 2191 0 1641 0 
Q 956 0 581 494 
Q 206 988 206 1678 
Q 206 2153 378 2554 
Q 550 2956 876 3175 
Q 1203 3394 1644 3394 
Q 2231 3394 2613 2919 
L 2613 3319 
L 3131 3319 
L 3131 450 
Q 3131 -325 2973 -648 
Q 2816 -972 2473 -1159 
Q 2131 -1347 1631 -1347 
Q 1038 -1347 672 -1080 
Q 306 -813 319 -275 
z
M 784 1719 
Q 784 1066 1043 766 
Q 1303 466 1694 466 
Q 2081 466 2343 764 
Q 2606 1063 2606 1700 
Q 2606 2309 2336 2618 
Q 2066 2928 1684 2928 
Q 1309 2928 1046 2623 
Q 784 2319 784 1719 
z
" transform="scale(0.015625)"/>
      <path id="ArialMT-68" d="M 422 0 
L 422 4581 
L 984 4581 
L 984 2938 
Q 1378 3394 1978 3394 
Q 2347 3394 2619 3248 
Q 2891 3103 3008 2847 
Q 3125 2591 3125 2103 
L 3125 0 
L 2563 0 
L 2563 2103 
Q 2563 2525 2380 2717 
Q 2197 2909 1863 2909 
Q 1613 2909 1392 2779 
Q 1172 2650 1078 2428 
Q 984 2206 984 1816 
L 984 0 
L 422 0 
z
" transform="scale(0.015625)"/>
      <path id="ArialMT-2d" d="M 203 1375 
L 203 1941 
L 1931 1941 
L 1931 1375 
L 203 1375 
z
" transform="scale(0.015625)"/>
      <path id="ArialMT-6d" d="M 422 0 
L 422 3319 
L 925 3319 
L 925 2853 
Q 1081 3097 1340 3245 
Q 1600 3394 1931 3394 
Q 2300 3394 2536 3241 
Q 2772 3088 2869 2813 
Q 3263 3394 3894 3394 
Q 4388 3394 4653 3120 
Q 4919 2847 4919 2278 
L 4919 0 
L 4359 0 
L 4359 2091 
Q 4359 2428 4304 2576 
Q 4250 2725 4106 2815 
Q 3963 2906 3769 2906 
Q 3419 2906 3187 2673 
Q 2956 2441 2956 1928 
L 2956 0 
L 2394 0 
L 2394 2156 
Q 2394 2531 2256 2718 
Q 2119 2906 1806 2906 
Q 1569 2906 1367 2781 
Q 1166 2656 1075 2415 
Q 984 2175 984 1722 
L 984 0 
L 422 0 
z
" transform="scale(0.015625)"/>
      <path id="ArialMT-61" d="M 2588 409 
Q 2275 144 1986 34 
Q 1697 -75 1366 -75 
Q 819 -75 525 192 
Q 231 459 231 875 
Q 231 1119 342 1320 
Q 453 1522 633 1644 
Q 813 1766 1038 1828 
Q 1203 1872 1538 1913 
Q 2219 1994 2541 2106 
Q 2544 2222 2544 2253 
Q 2544 2597 2384 2738 
Q 2169 2928 1744 2928 
Q 1347 2928 1158 2789 
Q 969 2650 878 2297 
L 328 2372 
Q 403 2725 575 2942 
Q 747 3159 1072 3276 
Q 1397 3394 1825 3394 
Q 2250 3394 2515 3294 
Q 2781 3194 2906 3042 
Q 3031 2891 3081 2659 
Q 3109 2516 3109 2141 
L 3109 1391 
Q 3109 606 3145 398 
Q 3181 191 3288 0 
L 2700 0 
Q 2613 175 2588 409 
z
M 2541 1666 
Q 2234 1541 1622 1453 
Q 1275 1403 1131 1340 
Q 988 1278 909 1158 
Q 831 1038 831 891 
Q 831 666 1001 516 
Q 1172 366 1500 366 
Q 1825 366 2078 508 
Q 2331 650 2450 897 
Q 2541 1088 2541 1459 
L 2541 1666 
z
" transform="scale(0.015625)"/>
      <path id="ArialMT-75" d="M 2597 0 
L 2597 488 
Q 2209 -75 1544 -75 
Q 1250 -75 995 37 
Q 741 150 617 320 
Q 494 491 444 738 
Q 409 903 409 1263 
L 409 3319 
L 972 3319 
L 972 1478 
Q 972 1038 1006 884 
Q 1059 663 1231 536 
Q 1403 409 1656 409 
Q 1909 409 2131 539 
Q 2353 669 2445 892 
Q 2538 1116 2538 1541 
L 2538 3319 
L 3100 3319 
L 3100 0 
L 2597 0 
z
" transform="scale(0.015625)"/>
     </defs>
     <use xlink:href="#ArialMT-48"/>
     <use xlink:href="#ArialMT-69" x="72.216797"/>
     <use xlink:href="#ArialMT-67" x="94.433594"/>
     <use xlink:href="#ArialMT-68" x="150.048828"/>
     <use xlink:href="#ArialMT-2d" x="205.664062"/>
     <use xlink:href="#ArialMT-6d" x="238.964844"/>
     <use xlink:href="#ArialMT-61" x="322.265625"/>
     <use xlink:href="#ArialMT-67" x="377.880859"/>
     <use xlink:href="#ArialMT-6e" x="433.496094"/>
     <use xlink:href="#ArialMT-65" x="489.111328"/>
     <use xlink:href="#ArialMT-73" x="544.726562"/>
     <use xlink:href="#ArialMT-69" x="594.726562"/>
     <use xlink:href="#ArialMT-75" x="616.943359"/>
     <use xlink:href="#ArialMT-6d" x="672.558594"/>
    </g>
   </g>
  </g>
 </g>
 <defs>
  <clipPath id="p9a18d67b55">
   <rect x="27.6675" y="23.220937" width="97.65" height="190.26"/>
  </clipPath>
 </defs>
</svg>
