<?xml version="1.0" encoding="utf-8" standalone="no"?>
<!DOCTYPE svg PUBLIC "-//W3C//DTD SVG 1.1//EN"
  "http://www.w3.org/Graphics/SVG/1.1/DTD/svg11.dtd">
<svg xmlns:xlink="http://www.w3.org/1999/xlink" width="138.078437pt" height="253.629687pt" viewBox="0 0 138.078437 253.629687" xmlns="http://www.w3.org/2000/svg" version="1.1">
 <metadata>
  <rdf:RDF xmlns:dc="http://purl.org/dc/elements/1.1/" xmlns:cc="http://creativecommons.org/ns#" xmlns:rdf="http://www.w3.org/1999/02/22-rdf-syntax-ns#">
   <cc:Work>
    <dc:type rdf:resource="http://purl.org/dc/dcmitype/StillImage"/>
    <dc:date>2023-10-05T22:22:06.311177</dc:date>
    <dc:format>image/svg+xml</dc:format>
    <dc:creator>
     <cc:Agent>
      <dc:title>Matplotlib v3.7.1, https://matplotlib.org/</dc:title>
     </cc:Agent>
    </dc:creator>
   </cc:Work>
  </rdf:RDF>
 </metadata>
 <defs>
  <style type="text/css">*{stroke-linejoin: round; stroke-linecap: butt}</style>
 </defs>
 <g id="figure_1">
  <g id="patch_1">
   <path d="M -0 253.629687 
L 138.078437 253.629687 
L 138.078437 -0 
L -0 -0 
z
" style="fill: #ffffff"/>
  </g>
  <g id="axes_1">
   <g id="patch_2">
    <path d="M 27.6675 213.480937 
L 125.3175 213.480937 
L 125.3175 23.220937 
L 27.6675 23.220937 
z
" style="fill: #ffffff"/>
   </g>
   <g id="matplotlib.axis_1">
    <g id="xtick_1">
     <g id="line2d_1">
      <defs>
       <path id="m5ab4ac5fbd" d="M 0 0 
L 0 3.5 
" style="stroke: #000000; stroke-width: 0.8"/>
      </defs>
      <g>
       <use xlink:href="#m5ab4ac5fbd" x="27.6675" y="213.480937" style="stroke: #000000; stroke-width: 0.8"/>
      </g>
     </g>
     <g id="text_1">
      <!-- 10 -->
      <g transform="translate(22.106563 227.63875) scale(0.1 -0.1)">
       <defs>
        <path id="ArialMT-31" d="M 2384 0 
L 1822 0 
L 1822 3584 
Q 1619 3391 1289 3197 
Q 959 3003 697 2906 
L 697 3450 
Q 1169 3672 1522 3987 
Q 1875 4303 2022 4600 
L 2384 4600 
L 2384 0 
z
" transform="scale(0.015625)"/>
        <path id="ArialMT-30" d="M 266 2259 
Q 266 3072 433 3567 
Q 600 4063 929 4331 
Q 1259 4600 1759 4600 
Q 2128 4600 2406 4451 
Q 2684 4303 2865 4023 
Q 3047 3744 3150 3342 
Q 3253 2941 3253 2259 
Q 3253 1453 3087 958 
Q 2922 463 2592 192 
Q 2263 -78 1759 -78 
Q 1097 -78 719 397 
Q 266 969 266 2259 
z
M 844 2259 
Q 844 1131 1108 757 
Q 1372 384 1759 384 
Q 2147 384 2411 759 
Q 2675 1134 2675 2259 
Q 2675 3391 2411 3762 
Q 2147 4134 1753 4134 
Q 1366 4134 1134 3806 
Q 844 3388 844 2259 
z
" transform="scale(0.015625)"/>
       </defs>
       <use xlink:href="#ArialMT-31"/>
       <use xlink:href="#ArialMT-30" x="55.615234"/>
      </g>
     </g>
    </g>
    <g id="xtick_2">
     <g id="line2d_2">
      <g>
       <use xlink:href="#m5ab4ac5fbd" x="60.2175" y="213.480937" style="stroke: #000000; stroke-width: 0.8"/>
      </g>
     </g>
     <g id="text_2">
      <!-- 11 -->
      <g transform="translate(55.025313 227.63875) scale(0.1 -0.1)">
       <use xlink:href="#ArialMT-31"/>
       <use xlink:href="#ArialMT-31" x="48.240234"/>
      </g>
     </g>
    </g>
    <g id="xtick_3">
     <g id="line2d_3">
      <g>
       <use xlink:href="#m5ab4ac5fbd" x="92.7675" y="213.480937" style="stroke: #000000; stroke-width: 0.8"/>
      </g>
     </g>
     <g id="text_3">
      <!-- 12 -->
      <g transform="translate(87.206562 227.63875) scale(0.1 -0.1)">
       <defs>
        <path id="ArialMT-32" d="M 3222 541 
L 3222 0 
L 194 0 
Q 188 203 259 391 
Q 375 700 629 1000 
Q 884 1300 1366 1694 
Q 2113 2306 2375 2664 
Q 2638 3022 2638 3341 
Q 2638 3675 2398 3904 
Q 2159 4134 1775 4134 
Q 1369 4134 1125 3890 
Q 881 3647 878 3216 
L 300 3275 
Q 359 3922 746 4261 
Q 1134 4600 1788 4600 
Q 2447 4600 2831 4234 
Q 3216 3869 3216 3328 
Q 3216 3053 3103 2787 
Q 2991 2522 2730 2228 
Q 2469 1934 1863 1422 
Q 1356 997 1212 845 
Q 1069 694 975 541 
L 3222 541 
z
" transform="scale(0.015625)"/>
       </defs>
       <use xlink:href="#ArialMT-31"/>
       <use xlink:href="#ArialMT-32" x="55.615234"/>
      </g>
     </g>
    </g>
    <g id="xtick_4">
     <g id="line2d_4">
      <g>
       <use xlink:href="#m5ab4ac5fbd" x="125.3175" y="213.480937" style="stroke: #000000; stroke-width: 0.8"/>
      </g>
     </g>
     <g id="text_4">
      <!-- 13 -->
      <g transform="translate(119.756563 227.63875) scale(0.1 -0.1)">
       <defs>
        <path id="ArialMT-33" d="M 269 1209 
L 831 1284 
Q 928 806 1161 595 
Q 1394 384 1728 384 
Q 2125 384 2398 659 
Q 2672 934 2672 1341 
Q 2672 1728 2419 1979 
Q 2166 2231 1775 2231 
Q 1616 2231 1378 2169 
L 1441 2663 
Q 1497 2656 1531 2656 
Q 1891 2656 2178 2843 
Q 2466 3031 2466 3422 
Q 2466 3731 2256 3934 
Q 2047 4138 1716 4138 
Q 1388 4138 1169 3931 
Q 950 3725 888 3313 
L 325 3413 
Q 428 3978 793 4289 
Q 1159 4600 1703 4600 
Q 2078 4600 2393 4439 
Q 2709 4278 2876 4000 
Q 3044 3722 3044 3409 
Q 3044 3113 2884 2869 
Q 2725 2625 2413 2481 
Q 2819 2388 3044 2092 
Q 3269 1797 3269 1353 
Q 3269 753 2831 336 
Q 2394 -81 1725 -81 
Q 1122 -81 723 278 
Q 325 638 269 1209 
z
" transform="scale(0.015625)"/>
       </defs>
       <use xlink:href="#ArialMT-31"/>
       <use xlink:href="#ArialMT-33" x="55.615234"/>
      </g>
     </g>
    </g>
    <g id="xtick_5">
     <g id="line2d_5">
      <defs>
       <path id="m76352efefa" d="M 0 0 
L 0 2 
" style="stroke: #000000; stroke-width: 0.6"/>
      </defs>
      <g>
       <use xlink:href="#m76352efefa" x="43.9425" y="213.480937" style="stroke: #000000; stroke-width: 0.6"/>
      </g>
     </g>
    </g>
    <g id="xtick_6">
     <g id="line2d_6">
      <g>
       <use xlink:href="#m76352efefa" x="76.4925" y="213.480937" style="stroke: #000000; stroke-width: 0.6"/>
      </g>
     </g>
    </g>
    <g id="xtick_7">
     <g id="line2d_7">
      <g>
       <use xlink:href="#m76352efefa" x="109.0425" y="213.480937" style="stroke: #000000; stroke-width: 0.6"/>
      </g>
     </g>
    </g>
    <g id="text_5">
     <!-- 2θ -->
     <g transform="translate(68.707188 243.647187) scale(0.14 -0.14)">
      <defs>
       <path id="ArialMT-3b8" d="M 288 2291 
Q 288 4659 1781 4659 
Q 3275 4659 3275 2291 
Q 3275 -75 1781 -75 
Q 288 -75 288 2291 
z
M 869 2519 
L 2694 2519 
Q 2663 3497 2413 3847 
Q 2163 4197 1775 4197 
Q 903 4197 869 2519 
z
M 2694 2066 
L 869 2066 
Q 903 388 1781 388 
Q 2663 388 2694 2066 
z
" transform="scale(0.015625)"/>
      </defs>
      <use xlink:href="#ArialMT-32"/>
      <use xlink:href="#ArialMT-3b8" x="55.615234"/>
     </g>
    </g>
   </g>
   <g id="matplotlib.axis_2">
    <g id="ytick_1">
     <g id="line2d_8"/>
    </g>
    <g id="ytick_2">
     <g id="line2d_9"/>
    </g>
    <g id="ytick_3">
     <g id="line2d_10"/>
    </g>
    <g id="ytick_4">
     <g id="line2d_11"/>
    </g>
    <g id="ytick_5">
     <g id="line2d_12"/>
    </g>
    <g id="ytick_6">
     <g id="line2d_13"/>
    </g>
    <g id="ytick_7">
     <g id="line2d_14"/>
    </g>
    <g id="text_6">
     <!-- Intensity -->
     <g transform="translate(17.220938 144.418281) rotate(-90) scale(0.14 -0.14)">
      <defs>
       <path id="ArialMT-49" d="M 597 0 
L 597 4581 
L 1203 4581 
L 1203 0 
L 597 0 
z
" transform="scale(0.015625)"/>
       <path id="ArialMT-6e" d="M 422 0 
L 422 3319 
L 928 3319 
L 928 2847 
Q 1294 3394 1984 3394 
Q 2284 3394 2536 3286 
Q 2788 3178 2913 3003 
Q 3038 2828 3088 2588 
Q 3119 2431 3119 2041 
L 3119 0 
L 2556 0 
L 2556 2019 
Q 2556 2363 2490 2533 
Q 2425 2703 2258 2804 
Q 2091 2906 1866 2906 
Q 1506 2906 1245 2678 
Q 984 2450 984 1813 
L 984 0 
L 422 0 
z
" transform="scale(0.015625)"/>
       <path id="ArialMT-74" d="M 1650 503 
L 1731 6 
Q 1494 -44 1306 -44 
Q 1000 -44 831 53 
Q 663 150 594 308 
Q 525 466 525 972 
L 525 2881 
L 113 2881 
L 113 3319 
L 525 3319 
L 525 4141 
L 1084 4478 
L 1084 3319 
L 1650 3319 
L 1650 2881 
L 1084 2881 
L 1084 941 
Q 1084 700 1114 631 
Q 1144 563 1211 522 
Q 1278 481 1403 481 
Q 1497 481 1650 503 
z
" transform="scale(0.015625)"/>
       <path id="ArialMT-65" d="M 2694 1069 
L 3275 997 
Q 3138 488 2766 206 
Q 2394 -75 1816 -75 
Q 1088 -75 661 373 
Q 234 822 234 1631 
Q 234 2469 665 2931 
Q 1097 3394 1784 3394 
Q 2450 3394 2872 2941 
Q 3294 2488 3294 1666 
Q 3294 1616 3291 1516 
L 816 1516 
Q 847 969 1125 678 
Q 1403 388 1819 388 
Q 2128 388 2347 550 
Q 2566 713 2694 1069 
z
M 847 1978 
L 2700 1978 
Q 2663 2397 2488 2606 
Q 2219 2931 1791 2931 
Q 1403 2931 1139 2672 
Q 875 2413 847 1978 
z
" transform="scale(0.015625)"/>
       <path id="ArialMT-73" d="M 197 991 
L 753 1078 
Q 800 744 1014 566 
Q 1228 388 1613 388 
Q 2000 388 2187 545 
Q 2375 703 2375 916 
Q 2375 1106 2209 1216 
Q 2094 1291 1634 1406 
Q 1016 1563 777 1677 
Q 538 1791 414 1992 
Q 291 2194 291 2438 
Q 291 2659 392 2848 
Q 494 3038 669 3163 
Q 800 3259 1026 3326 
Q 1253 3394 1513 3394 
Q 1903 3394 2198 3281 
Q 2494 3169 2634 2976 
Q 2775 2784 2828 2463 
L 2278 2388 
Q 2241 2644 2061 2787 
Q 1881 2931 1553 2931 
Q 1166 2931 1000 2803 
Q 834 2675 834 2503 
Q 834 2394 903 2306 
Q 972 2216 1119 2156 
Q 1203 2125 1616 2013 
Q 2213 1853 2448 1751 
Q 2684 1650 2818 1456 
Q 2953 1263 2953 975 
Q 2953 694 2789 445 
Q 2625 197 2315 61 
Q 2006 -75 1616 -75 
Q 969 -75 630 194 
Q 291 463 197 991 
z
" transform="scale(0.015625)"/>
       <path id="ArialMT-69" d="M 425 3934 
L 425 4581 
L 988 4581 
L 988 3934 
L 425 3934 
z
M 425 0 
L 425 3319 
L 988 3319 
L 988 0 
L 425 0 
z
" transform="scale(0.015625)"/>
       <path id="ArialMT-79" d="M 397 -1278 
L 334 -750 
Q 519 -800 656 -800 
Q 844 -800 956 -737 
Q 1069 -675 1141 -563 
Q 1194 -478 1313 -144 
Q 1328 -97 1363 -6 
L 103 3319 
L 709 3319 
L 1400 1397 
Q 1534 1031 1641 628 
Q 1738 1016 1872 1384 
L 2581 3319 
L 3144 3319 
L 1881 -56 
Q 1678 -603 1566 -809 
Q 1416 -1088 1222 -1217 
Q 1028 -1347 759 -1347 
Q 597 -1347 397 -1278 
z
" transform="scale(0.015625)"/>
      </defs>
      <use xlink:href="#ArialMT-49"/>
      <use xlink:href="#ArialMT-6e" x="27.783203"/>
      <use xlink:href="#ArialMT-74" x="83.398438"/>
      <use xlink:href="#ArialMT-65" x="111.181641"/>
      <use xlink:href="#ArialMT-6e" x="166.796875"/>
      <use xlink:href="#ArialMT-73" x="222.412109"/>
      <use xlink:href="#ArialMT-69" x="272.412109"/>
      <use xlink:href="#ArialMT-74" x="294.628906"/>
      <use xlink:href="#ArialMT-79" x="322.412109"/>
     </g>
    </g>
   </g>
   <g id="line2d_15">
    <path d="M 27.577587 179.841912 
L 28.432368 180.436475 
L 29.28715 179.696575 
L 30.141931 179.907975 
L 30.996713 179.181287 
L 31.851494 179.24735 
L 32.706275 179.313412 
L 33.561057 178.1375 
L 34.415838 179.5116 
L 35.27062 179.4059 
L 36.125401 180.066525 
L 36.980182 179.326625 
L 37.834964 179.207712 
L 38.689745 180.542175 
L 39.544527 179.339837 
L 40.399308 178.758488 
L 41.254089 178.798125 
L 42.108871 178.8774 
L 42.963652 176.419875 
L 43.818434 177.727913 
L 44.673215 181.0971 
L 45.527997 181.955913 
L 46.382778 181.295288 
L 47.237559 181.638813 
L 48.092341 181.334925 
L 48.947122 181.810575 
L 49.801904 181.559538 
L 50.656685 181.110312 
L 51.511466 180.30435 
L 52.366248 181.2028 
L 53.221029 180.78 
L 54.075811 181.652025 
L 54.930592 183.79245 
L 55.785373 180.476112 
L 56.640155 179.749425 
L 57.494936 181.3085 
L 58.349718 182.127675 
L 59.204499 181.6256 
L 60.05928 180.819637 
L 60.914062 179.326625 
L 61.768843 177.529725 
L 62.623625 179.35305 
L 63.478406 182.021975 
L 64.333187 183.673538 
L 65.187969 183.184675 
L 66.04275 181.99555 
L 66.897532 182.94685 
L 67.752313 182.84115 
L 68.607094 182.695812 
L 69.461876 182.299438 
L 70.316657 182.656175 
L 71.171439 182.20695 
L 72.02622 182.246588 
L 72.881001 183.68675 
L 73.735783 183.911362 
L 74.590564 183.145038 
L 75.445346 183.977425 
L 76.300127 182.537262 
L 77.154908 183.805662 
L 78.00969 181.440625 
L 78.864471 184.42665 
L 79.719253 183.224312 
L 80.574034 183.330013 
L 81.428815 184.783388 
L 82.283597 183.2111 
L 83.138378 183.065763 
L 83.99316 184.175612 
L 84.847941 183.356437 
L 85.702722 184.63805 
L 86.557504 183.977425 
L 87.412285 185.3251 
L 88.267067 184.756962 
L 89.121848 184.95515 
L 89.976629 183.47535 
L 90.831411 184.915513 
L 91.686192 184.598412 
L 92.540974 184.202037 
L 93.395755 186.4878 
L 94.250536 185.444012 
L 95.105318 185.7479 
L 95.960099 184.941937 
L 96.814881 185.444012 
L 97.669662 185.074062 
L 98.524443 186.342463 
L 99.379225 185.668625 
L 100.234006 184.624838 
L 101.088788 184.836237 
L 101.943569 186.025362 
L 102.79835 185.827175 
L 103.653132 187.029513 
L 104.507913 186.01215 
L 105.362695 185.2194 
L 106.217476 186.75205 
L 107.072257 187.148425 
L 107.927039 186.051787 
L 108.78182 187.320188 
L 109.636602 188.258275 
L 110.491383 185.946088 
L 111.346164 187.201275 
L 112.200946 187.4391 
L 113.055727 188.826413 
L 113.910509 187.465525 
L 114.76529 187.240912 
L 115.620071 187.782625 
L 116.474853 188.033662 
L 117.329634 187.663713 
L 118.184416 187.452313 
L 119.039197 187.742987 
L 119.893979 189.473825 
L 120.74876 188.165787 
L 121.603541 188.65465 
L 122.458323 187.848687 
L 123.313104 188.720712 
L 124.167885 189.18315 
L 125.022667 189.6588 
L 125.877448 188.456462 
" clip-path="url(#p3835db6dcb)" style="fill: none; stroke: #ffb14e; stroke-width: 1.5; stroke-linecap: square"/>
   </g>
   <g id="line2d_16">
    <path d="M 27.577587 176.750187 
L 28.432368 177.635425 
L 29.28715 178.071438 
L 30.141931 179.35305 
L 30.996713 177.106925 
L 31.851494 177.02765 
L 32.706275 176.988012 
L 33.561057 178.19035 
L 34.415838 178.124287 
L 35.27062 177.727913 
L 36.125401 178.481025 
L 36.980182 176.670912 
L 37.834964 176.485938 
L 38.689745 178.111075 
L 39.544527 177.199412 
L 40.399308 177.02765 
L 41.254089 175.455362 
L 42.108871 177.040863 
L 42.963652 177.410812 
L 43.818434 177.437237 
L 44.673215 178.467812 
L 45.527997 177.66185 
L 46.382778 179.709788 
L 47.237559 178.599938 
L 48.092341 178.40175 
L 48.947122 178.93025 
L 49.801904 177.886462 
L 50.656685 176.49915 
L 51.511466 177.225838 
L 52.366248 178.29605 
L 53.221029 178.362112 
L 54.075811 179.115225 
L 54.930592 177.741125 
L 55.785373 177.97895 
L 56.640155 176.591637 
L 57.494936 177.199412 
L 58.349718 177.278687 
L 59.204499 178.071438 
L 60.05928 177.410812 
L 60.914062 175.574275 
L 61.768843 177.146562 
L 62.623625 178.626362 
L 63.478406 179.8287 
L 64.333187 180.370412 
L 65.187969 177.992163 
L 66.04275 178.547088 
L 66.897532 179.577663 
L 67.752313 180.78 
L 68.607094 180.013675 
L 69.461876 180.013675 
L 70.316657 179.749425 
L 71.171439 180.000462 
L 72.02622 181.070675 
L 72.881001 181.374562 
L 73.735783 179.643725 
L 74.590564 181.123525 
L 75.445346 181.850212 
L 76.300127 180.542175 
L 77.154908 180.872488 
L 78.00969 181.136737 
L 78.864471 181.189587 
L 79.719253 181.810575 
L 80.574034 182.20695 
L 81.428815 182.325862 
L 82.283597 182.10125 
L 83.138378 181.99555 
L 83.99316 181.837 
L 84.847941 181.216013 
L 85.702722 182.748662 
L 86.557504 180.912125 
L 87.412285 183.05255 
L 88.267067 183.224312 
L 89.121848 182.180525 
L 89.976629 182.140887 
L 90.831411 183.673538 
L 91.686192 181.67845 
L 92.540974 183.964213 
L 93.395755 182.352287 
L 94.250536 184.10955 
L 95.105318 182.748662 
L 95.960099 182.761875 
L 96.814881 184.254887 
L 97.669662 183.36965 
L 98.524443 183.488563 
L 99.379225 183.818875 
L 100.234006 181.955913 
L 101.088788 182.642963 
L 101.943569 183.673538 
L 102.79835 184.2681 
L 103.653132 183.607475 
L 104.507913 183.937787 
L 105.362695 183.541412 
L 106.217476 184.928725 
L 107.072257 183.224312 
L 107.927039 183.435712 
L 108.78182 185.562925 
L 109.636602 183.237525 
L 110.491383 183.713175 
L 111.346164 182.10125 
L 112.200946 182.484412 
L 113.055727 181.9427 
L 113.910509 181.070675 
L 114.76529 180.6743 
L 115.620071 179.234138 
L 116.474853 179.220925 
L 117.329634 181.057462 
L 118.184416 183.1054 
L 119.039197 185.100487 
L 119.893979 184.84945 
L 120.74876 186.091425 
L 121.603541 185.047638 
L 122.458323 186.421738 
L 123.313104 187.254125 
L 124.167885 186.633138 
L 125.022667 186.368887 
L 125.877448 185.510075 
" clip-path="url(#p3835db6dcb)" style="fill: none; stroke: #008e00; stroke-width: 1.5; stroke-linecap: square"/>
   </g>
   <g id="line2d_17">
    <path d="M 27.577587 181.453837 
L 28.432368 182.193737 
L 29.28715 180.595025 
L 30.141931 181.665237 
L 30.996713 179.286988 
L 31.851494 180.62145 
L 32.706275 181.546325 
L 33.561057 181.321712 
L 34.415838 180.740363 
L 35.27062 181.691663 
L 36.125401 179.8287 
L 36.980182 181.110312 
L 37.834964 179.947612 
L 38.689745 180.93855 
L 39.544527 178.705637 
L 40.399308 177.331537 
L 41.254089 176.115987 
L 42.108871 171.53125 
L 42.963652 168.849112 
L 43.818434 176.9748 
L 44.673215 182.352287 
L 45.527997 181.295288 
L 46.382778 183.396075 
L 47.237559 182.669387 
L 48.092341 181.88985 
L 48.947122 182.94685 
L 49.801904 181.955913 
L 50.656685 182.325862 
L 51.511466 182.299438 
L 52.366248 182.088037 
L 53.221029 182.1541 
L 54.075811 181.4142 
L 54.930592 182.3655 
L 55.785373 181.691663 
L 56.640155 181.083888 
L 57.494936 179.326625 
L 58.349718 179.181287 
L 59.204499 177.55615 
L 60.05928 178.229987 
L 60.914062 177.886462 
L 61.768843 179.6173 
L 62.623625 181.9427 
L 63.478406 182.73545 
L 64.333187 184.505925 
L 65.187969 183.990637 
L 66.04275 184.1624 
L 66.897532 184.400225 
L 67.752313 183.514987 
L 68.607094 183.131825 
L 69.461876 183.47535 
L 70.316657 183.396075 
L 71.171439 184.10955 
L 72.02622 184.294525 
L 72.881001 183.647112 
L 73.735783 184.558775 
L 74.590564 183.039337 
L 75.445346 182.920425 
L 76.300127 184.3738 
L 77.154908 184.519137 
L 78.00969 184.400225 
L 78.864471 184.083125 
L 79.719253 184.453075 
L 80.574034 183.4225 
L 81.428815 184.492712 
L 82.283597 185.140125 
L 83.138378 185.602563 
L 83.99316 185.27225 
L 84.847941 185.761112 
L 85.702722 184.545562 
L 86.557504 184.968363 
L 87.412285 185.126913 
L 88.267067 185.523287 
L 89.121848 185.285462 
L 89.976629 185.998938 
L 90.831411 186.421738 
L 91.686192 185.58935 
L 92.540974 185.100487 
L 93.395755 185.27225 
L 94.250536 187.359825 
L 95.105318 186.461375 
L 95.960099 186.249975 
L 96.814881 186.342463 
L 97.669662 185.6422 
L 98.524443 187.201275 
L 99.379225 186.527437 
L 100.234006 186.712412 
L 101.088788 186.395312 
L 101.943569 187.425887 
L 102.79835 188.667862 
L 103.653132 187.848687 
L 104.507913 187.888325 
L 105.362695 186.976663 
L 106.217476 188.54895 
L 107.072257 188.2847 
L 107.927039 188.3904 
L 108.78182 187.875113 
L 109.636602 187.994025 
L 110.491383 188.839625 
L 111.346164 190.3987 
L 112.200946 188.998175 
L 113.055727 190.34585 
L 113.910509 188.958537 
L 114.76529 189.196362 
L 115.620071 188.3904 
L 116.474853 189.513463 
L 117.329634 188.76035 
L 118.184416 189.381338 
L 119.039197 188.509312 
L 119.893979 189.011388 
L 120.74876 191.006475 
L 121.603541 188.984962 
L 122.458323 191.336787 
L 123.313104 189.777713 
L 124.167885 190.491187 
L 125.022667 190.108025 
L 125.877448 191.165025 
" clip-path="url(#p3835db6dcb)" style="fill: none; stroke: #000000; stroke-width: 1.5; stroke-linecap: square"/>
   </g>
   <g id="patch_3">
    <path d="M 27.6675 213.480937 
L 27.6675 23.220938 
" style="fill: none; stroke: #000000; stroke-width: 0.8; stroke-linejoin: miter; stroke-linecap: square"/>
   </g>
   <g id="patch_4">
    <path d="M 27.6675 213.480937 
L 125.3175 213.480937 
" style="fill: none; stroke: #000000; stroke-width: 0.8; stroke-linejoin: miter; stroke-linecap: square"/>
   </g>
   <g id="text_7">
    <!-- High-phosphate -->
    <g transform="translate(27.0725 17.220937) scale(0.14 -0.14)">
     <defs>
      <path id="ArialMT-48" d="M 513 0 
L 513 4581 
L 1119 4581 
L 1119 2700 
L 3500 2700 
L 3500 4581 
L 4106 4581 
L 4106 0 
L 3500 0 
L 3500 2159 
L 1119 2159 
L 1119 0 
L 513 0 
z
" transform="scale(0.015625)"/>
      <path id="ArialMT-67" d="M 319 -275 
L 866 -356 
Q 900 -609 1056 -725 
Q 1266 -881 1628 -881 
Q 2019 -881 2231 -725 
Q 2444 -569 2519 -288 
Q 2563 -116 2559 434 
Q 2191 0 1641 0 
Q 956 0 581 494 
Q 206 988 206 1678 
Q 206 2153 378 2554 
Q 550 2956 876 3175 
Q 1203 3394 1644 3394 
Q 2231 3394 2613 2919 
L 2613 3319 
L 3131 3319 
L 3131 450 
Q 3131 -325 2973 -648 
Q 2816 -972 2473 -1159 
Q 2131 -1347 1631 -1347 
Q 1038 -1347 672 -1080 
Q 306 -813 319 -275 
z
M 784 1719 
Q 784 1066 1043 766 
Q 1303 466 1694 466 
Q 2081 466 2343 764 
Q 2606 1063 2606 1700 
Q 2606 2309 2336 2618 
Q 2066 2928 1684 2928 
Q 1309 2928 1046 2623 
Q 784 2319 784 1719 
z
" transform="scale(0.015625)"/>
      <path id="ArialMT-68" d="M 422 0 
L 422 4581 
L 984 4581 
L 984 2938 
Q 1378 3394 1978 3394 
Q 2347 3394 2619 3248 
Q 2891 3103 3008 2847 
Q 3125 2591 3125 2103 
L 3125 0 
L 2563 0 
L 2563 2103 
Q 2563 2525 2380 2717 
Q 2197 2909 1863 2909 
Q 1613 2909 1392 2779 
Q 1172 2650 1078 2428 
Q 984 2206 984 1816 
L 984 0 
L 422 0 
z
" transform="scale(0.015625)"/>
      <path id="ArialMT-2d" d="M 203 1375 
L 203 1941 
L 1931 1941 
L 1931 1375 
L 203 1375 
z
" transform="scale(0.015625)"/>
      <path id="ArialMT-70" d="M 422 -1272 
L 422 3319 
L 934 3319 
L 934 2888 
Q 1116 3141 1344 3267 
Q 1572 3394 1897 3394 
Q 2322 3394 2647 3175 
Q 2972 2956 3137 2557 
Q 3303 2159 3303 1684 
Q 3303 1175 3120 767 
Q 2938 359 2589 142 
Q 2241 -75 1856 -75 
Q 1575 -75 1351 44 
Q 1128 163 984 344 
L 984 -1272 
L 422 -1272 
z
M 931 1641 
Q 931 1000 1190 694 
Q 1450 388 1819 388 
Q 2194 388 2461 705 
Q 2728 1022 2728 1688 
Q 2728 2322 2467 2637 
Q 2206 2953 1844 2953 
Q 1484 2953 1207 2617 
Q 931 2281 931 1641 
z
" transform="scale(0.015625)"/>
      <path id="ArialMT-6f" d="M 213 1659 
Q 213 2581 725 3025 
Q 1153 3394 1769 3394 
Q 2453 3394 2887 2945 
Q 3322 2497 3322 1706 
Q 3322 1066 3130 698 
Q 2938 331 2570 128 
Q 2203 -75 1769 -75 
Q 1072 -75 642 372 
Q 213 819 213 1659 
z
M 791 1659 
Q 791 1022 1069 705 
Q 1347 388 1769 388 
Q 2188 388 2466 706 
Q 2744 1025 2744 1678 
Q 2744 2294 2464 2611 
Q 2184 2928 1769 2928 
Q 1347 2928 1069 2612 
Q 791 2297 791 1659 
z
" transform="scale(0.015625)"/>
      <path id="ArialMT-61" d="M 2588 409 
Q 2275 144 1986 34 
Q 1697 -75 1366 -75 
Q 819 -75 525 192 
Q 231 459 231 875 
Q 231 1119 342 1320 
Q 453 1522 633 1644 
Q 813 1766 1038 1828 
Q 1203 1872 1538 1913 
Q 2219 1994 2541 2106 
Q 2544 2222 2544 2253 
Q 2544 2597 2384 2738 
Q 2169 2928 1744 2928 
Q 1347 2928 1158 2789 
Q 969 2650 878 2297 
L 328 2372 
Q 403 2725 575 2942 
Q 747 3159 1072 3276 
Q 1397 3394 1825 3394 
Q 2250 3394 2515 3294 
Q 2781 3194 2906 3042 
Q 3031 2891 3081 2659 
Q 3109 2516 3109 2141 
L 3109 1391 
Q 3109 606 3145 398 
Q 3181 191 3288 0 
L 2700 0 
Q 2613 175 2588 409 
z
M 2541 1666 
Q 2234 1541 1622 1453 
Q 1275 1403 1131 1340 
Q 988 1278 909 1158 
Q 831 1038 831 891 
Q 831 666 1001 516 
Q 1172 366 1500 366 
Q 1825 366 2078 508 
Q 2331 650 2450 897 
Q 2541 1088 2541 1459 
L 2541 1666 
z
" transform="scale(0.015625)"/>
     </defs>
     <use xlink:href="#ArialMT-48"/>
     <use xlink:href="#ArialMT-69" x="72.216797"/>
     <use xlink:href="#ArialMT-67" x="94.433594"/>
     <use xlink:href="#ArialMT-68" x="150.048828"/>
     <use xlink:href="#ArialMT-2d" x="205.664062"/>
     <use xlink:href="#ArialMT-70" x="238.964844"/>
     <use xlink:href="#ArialMT-68" x="294.580078"/>
     <use xlink:href="#ArialMT-6f" x="350.195312"/>
     <use xlink:href="#ArialMT-73" x="405.810547"/>
     <use xlink:href="#ArialMT-70" x="455.810547"/>
     <use xlink:href="#ArialMT-68" x="511.425781"/>
     <use xlink:href="#ArialMT-61" x="567.041016"/>
     <use xlink:href="#ArialMT-74" x="622.65625"/>
     <use xlink:href="#ArialMT-65" x="650.439453"/>
    </g>
   </g>
  </g>
 </g>
 <defs>
  <clipPath id="p3835db6dcb">
   <rect x="27.6675" y="23.220937" width="97.65" height="190.26"/>
  </clipPath>
 </defs>
</svg>
