<?xml version="1.0" encoding="utf-8" standalone="no"?>
<!DOCTYPE svg PUBLIC "-//W3C//DTD SVG 1.1//EN"
  "http://www.w3.org/Graphics/SVG/1.1/DTD/svg11.dtd">
<svg xmlns:xlink="http://www.w3.org/1999/xlink" width="133.1125pt" height="253.629687pt" viewBox="0 0 133.1125 253.629687" xmlns="http://www.w3.org/2000/svg" version="1.1">
 <metadata>
  <rdf:RDF xmlns:dc="http://purl.org/dc/elements/1.1/" xmlns:cc="http://creativecommons.org/ns#" xmlns:rdf="http://www.w3.org/1999/02/22-rdf-syntax-ns#">
   <cc:Work>
    <dc:type rdf:resource="http://purl.org/dc/dcmitype/StillImage"/>
    <dc:date>2023-10-06T13:47:21.822850</dc:date>
    <dc:format>image/svg+xml</dc:format>
    <dc:creator>
     <cc:Agent>
      <dc:title>Matplotlib v3.7.1, https://matplotlib.org/</dc:title>
     </cc:Agent>
    </dc:creator>
   </cc:Work>
  </rdf:RDF>
 </metadata>
 <defs>
  <style type="text/css">*{stroke-linejoin: round; stroke-linecap: butt}</style>
 </defs>
 <g id="figure_1">
  <g id="patch_1">
   <path d="M -0 253.629687 
L 133.1125 253.629687 
L 133.1125 -0 
L -0 -0 
z
" style="fill: #ffffff"/>
  </g>
  <g id="axes_1">
   <g id="patch_2">
    <path d="M 27.6675 213.480937 
L 125.3175 213.480937 
L 125.3175 23.220937 
L 27.6675 23.220937 
z
" style="fill: #ffffff"/>
   </g>
   <g id="matplotlib.axis_1">
    <g id="xtick_1">
     <g id="line2d_1">
      <defs>
       <path id="m6687799be7" d="M 0 0 
L 0 3.5 
" style="stroke: #000000; stroke-width: 0.8"/>
      </defs>
      <g>
       <use xlink:href="#m6687799be7" x="60.2175" y="213.480937" style="stroke: #000000; stroke-width: 0.8"/>
      </g>
     </g>
     <g id="text_1">
      <!-- 10 -->
      <g transform="translate(54.656562 227.63875) scale(0.1 -0.1)">
       <defs>
        <path id="ArialMT-31" d="M 2384 0 
L 1822 0 
L 1822 3584 
Q 1619 3391 1289 3197 
Q 959 3003 697 2906 
L 697 3450 
Q 1169 3672 1522 3987 
Q 1875 4303 2022 4600 
L 2384 4600 
L 2384 0 
z
" transform="scale(0.015625)"/>
        <path id="ArialMT-30" d="M 266 2259 
Q 266 3072 433 3567 
Q 600 4063 929 4331 
Q 1259 4600 1759 4600 
Q 2128 4600 2406 4451 
Q 2684 4303 2865 4023 
Q 3047 3744 3150 3342 
Q 3253 2941 3253 2259 
Q 3253 1453 3087 958 
Q 2922 463 2592 192 
Q 2263 -78 1759 -78 
Q 1097 -78 719 397 
Q 266 969 266 2259 
z
M 844 2259 
Q 844 1131 1108 757 
Q 1372 384 1759 384 
Q 2147 384 2411 759 
Q 2675 1134 2675 2259 
Q 2675 3391 2411 3762 
Q 2147 4134 1753 4134 
Q 1366 4134 1134 3806 
Q 844 3388 844 2259 
z
" transform="scale(0.015625)"/>
       </defs>
       <use xlink:href="#ArialMT-31"/>
       <use xlink:href="#ArialMT-30" x="55.615234"/>
      </g>
     </g>
    </g>
    <g id="xtick_2">
     <g id="line2d_2">
      <g>
       <use xlink:href="#m6687799be7" x="103.6175" y="213.480937" style="stroke: #000000; stroke-width: 0.8"/>
      </g>
     </g>
     <g id="text_2">
      <!-- 12 -->
      <g transform="translate(98.056563 227.63875) scale(0.1 -0.1)">
       <defs>
        <path id="ArialMT-32" d="M 3222 541 
L 3222 0 
L 194 0 
Q 188 203 259 391 
Q 375 700 629 1000 
Q 884 1300 1366 1694 
Q 2113 2306 2375 2664 
Q 2638 3022 2638 3341 
Q 2638 3675 2398 3904 
Q 2159 4134 1775 4134 
Q 1369 4134 1125 3890 
Q 881 3647 878 3216 
L 300 3275 
Q 359 3922 746 4261 
Q 1134 4600 1788 4600 
Q 2447 4600 2831 4234 
Q 3216 3869 3216 3328 
Q 3216 3053 3103 2787 
Q 2991 2522 2730 2228 
Q 2469 1934 1863 1422 
Q 1356 997 1212 845 
Q 1069 694 975 541 
L 3222 541 
z
" transform="scale(0.015625)"/>
       </defs>
       <use xlink:href="#ArialMT-31"/>
       <use xlink:href="#ArialMT-32" x="55.615234"/>
      </g>
     </g>
    </g>
    <g id="xtick_3">
     <g id="line2d_3">
      <defs>
       <path id="m6097d36977" d="M 0 0 
L 0 2 
" style="stroke: #000000; stroke-width: 0.6"/>
      </defs>
      <g>
       <use xlink:href="#m6097d36977" x="27.6675" y="213.480937" style="stroke: #000000; stroke-width: 0.6"/>
      </g>
     </g>
    </g>
    <g id="xtick_4">
     <g id="line2d_4">
      <g>
       <use xlink:href="#m6097d36977" x="38.5175" y="213.480937" style="stroke: #000000; stroke-width: 0.6"/>
      </g>
     </g>
    </g>
    <g id="xtick_5">
     <g id="line2d_5">
      <g>
       <use xlink:href="#m6097d36977" x="49.3675" y="213.480937" style="stroke: #000000; stroke-width: 0.6"/>
      </g>
     </g>
    </g>
    <g id="xtick_6">
     <g id="line2d_6">
      <g>
       <use xlink:href="#m6097d36977" x="71.0675" y="213.480937" style="stroke: #000000; stroke-width: 0.6"/>
      </g>
     </g>
    </g>
    <g id="xtick_7">
     <g id="line2d_7">
      <g>
       <use xlink:href="#m6097d36977" x="81.9175" y="213.480937" style="stroke: #000000; stroke-width: 0.6"/>
      </g>
     </g>
    </g>
    <g id="xtick_8">
     <g id="line2d_8">
      <g>
       <use xlink:href="#m6097d36977" x="92.7675" y="213.480937" style="stroke: #000000; stroke-width: 0.6"/>
      </g>
     </g>
    </g>
    <g id="xtick_9">
     <g id="line2d_9">
      <g>
       <use xlink:href="#m6097d36977" x="114.4675" y="213.480937" style="stroke: #000000; stroke-width: 0.6"/>
      </g>
     </g>
    </g>
    <g id="xtick_10">
     <g id="line2d_10">
      <g>
       <use xlink:href="#m6097d36977" x="125.3175" y="213.480937" style="stroke: #000000; stroke-width: 0.6"/>
      </g>
     </g>
    </g>
    <g id="text_3">
     <!-- 2θ -->
     <g transform="translate(68.707188 243.647187) scale(0.14 -0.14)">
      <defs>
       <path id="ArialMT-3b8" d="M 288 2291 
Q 288 4659 1781 4659 
Q 3275 4659 3275 2291 
Q 3275 -75 1781 -75 
Q 288 -75 288 2291 
z
M 869 2519 
L 2694 2519 
Q 2663 3497 2413 3847 
Q 2163 4197 1775 4197 
Q 903 4197 869 2519 
z
M 2694 2066 
L 869 2066 
Q 903 388 1781 388 
Q 2663 388 2694 2066 
z
" transform="scale(0.015625)"/>
      </defs>
      <use xlink:href="#ArialMT-32"/>
      <use xlink:href="#ArialMT-3b8" x="55.615234"/>
     </g>
    </g>
   </g>
   <g id="matplotlib.axis_2">
    <g id="ytick_1">
     <g id="line2d_11"/>
    </g>
    <g id="ytick_2">
     <g id="line2d_12"/>
    </g>
    <g id="ytick_3">
     <g id="line2d_13"/>
    </g>
    <g id="ytick_4">
     <g id="line2d_14"/>
    </g>
    <g id="ytick_5">
     <g id="line2d_15"/>
    </g>
    <g id="ytick_6">
     <g id="line2d_16"/>
    </g>
    <g id="ytick_7">
     <g id="line2d_17"/>
    </g>
    <g id="ytick_8">
     <g id="line2d_18"/>
    </g>
    <g id="ytick_9">
     <g id="line2d_19"/>
    </g>
    <g id="text_4">
     <!-- Intensity -->
     <g transform="translate(17.220938 144.418281) rotate(-90) scale(0.14 -0.14)">
      <defs>
       <path id="ArialMT-49" d="M 597 0 
L 597 4581 
L 1203 4581 
L 1203 0 
L 597 0 
z
" transform="scale(0.015625)"/>
       <path id="ArialMT-6e" d="M 422 0 
L 422 3319 
L 928 3319 
L 928 2847 
Q 1294 3394 1984 3394 
Q 2284 3394 2536 3286 
Q 2788 3178 2913 3003 
Q 3038 2828 3088 2588 
Q 3119 2431 3119 2041 
L 3119 0 
L 2556 0 
L 2556 2019 
Q 2556 2363 2490 2533 
Q 2425 2703 2258 2804 
Q 2091 2906 1866 2906 
Q 1506 2906 1245 2678 
Q 984 2450 984 1813 
L 984 0 
L 422 0 
z
" transform="scale(0.015625)"/>
       <path id="ArialMT-74" d="M 1650 503 
L 1731 6 
Q 1494 -44 1306 -44 
Q 1000 -44 831 53 
Q 663 150 594 308 
Q 525 466 525 972 
L 525 2881 
L 113 2881 
L 113 3319 
L 525 3319 
L 525 4141 
L 1084 4478 
L 1084 3319 
L 1650 3319 
L 1650 2881 
L 1084 2881 
L 1084 941 
Q 1084 700 1114 631 
Q 1144 563 1211 522 
Q 1278 481 1403 481 
Q 1497 481 1650 503 
z
" transform="scale(0.015625)"/>
       <path id="ArialMT-65" d="M 2694 1069 
L 3275 997 
Q 3138 488 2766 206 
Q 2394 -75 1816 -75 
Q 1088 -75 661 373 
Q 234 822 234 1631 
Q 234 2469 665 2931 
Q 1097 3394 1784 3394 
Q 2450 3394 2872 2941 
Q 3294 2488 3294 1666 
Q 3294 1616 3291 1516 
L 816 1516 
Q 847 969 1125 678 
Q 1403 388 1819 388 
Q 2128 388 2347 550 
Q 2566 713 2694 1069 
z
M 847 1978 
L 2700 1978 
Q 2663 2397 2488 2606 
Q 2219 2931 1791 2931 
Q 1403 2931 1139 2672 
Q 875 2413 847 1978 
z
" transform="scale(0.015625)"/>
       <path id="ArialMT-73" d="M 197 991 
L 753 1078 
Q 800 744 1014 566 
Q 1228 388 1613 388 
Q 2000 388 2187 545 
Q 2375 703 2375 916 
Q 2375 1106 2209 1216 
Q 2094 1291 1634 1406 
Q 1016 1563 777 1677 
Q 538 1791 414 1992 
Q 291 2194 291 2438 
Q 291 2659 392 2848 
Q 494 3038 669 3163 
Q 800 3259 1026 3326 
Q 1253 3394 1513 3394 
Q 1903 3394 2198 3281 
Q 2494 3169 2634 2976 
Q 2775 2784 2828 2463 
L 2278 2388 
Q 2241 2644 2061 2787 
Q 1881 2931 1553 2931 
Q 1166 2931 1000 2803 
Q 834 2675 834 2503 
Q 834 2394 903 2306 
Q 972 2216 1119 2156 
Q 1203 2125 1616 2013 
Q 2213 1853 2448 1751 
Q 2684 1650 2818 1456 
Q 2953 1263 2953 975 
Q 2953 694 2789 445 
Q 2625 197 2315 61 
Q 2006 -75 1616 -75 
Q 969 -75 630 194 
Q 291 463 197 991 
z
" transform="scale(0.015625)"/>
       <path id="ArialMT-69" d="M 425 3934 
L 425 4581 
L 988 4581 
L 988 3934 
L 425 3934 
z
M 425 0 
L 425 3319 
L 988 3319 
L 988 0 
L 425 0 
z
" transform="scale(0.015625)"/>
       <path id="ArialMT-79" d="M 397 -1278 
L 334 -750 
Q 519 -800 656 -800 
Q 844 -800 956 -737 
Q 1069 -675 1141 -563 
Q 1194 -478 1313 -144 
Q 1328 -97 1363 -6 
L 103 3319 
L 709 3319 
L 1400 1397 
Q 1534 1031 1641 628 
Q 1738 1016 1872 1384 
L 2581 3319 
L 3144 3319 
L 1881 -56 
Q 1678 -603 1566 -809 
Q 1416 -1088 1222 -1217 
Q 1028 -1347 759 -1347 
Q 597 -1347 397 -1278 
z
" transform="scale(0.015625)"/>
      </defs>
      <use xlink:href="#ArialMT-49"/>
      <use xlink:href="#ArialMT-6e" x="27.783203"/>
      <use xlink:href="#ArialMT-74" x="83.398438"/>
      <use xlink:href="#ArialMT-65" x="111.181641"/>
      <use xlink:href="#ArialMT-6e" x="166.796875"/>
      <use xlink:href="#ArialMT-73" x="222.412109"/>
      <use xlink:href="#ArialMT-69" x="272.412109"/>
      <use xlink:href="#ArialMT-74" x="294.628906"/>
      <use xlink:href="#ArialMT-79" x="322.412109"/>
     </g>
    </g>
   </g>
   <g id="line2d_20">
    <path d="M 27.10601 99.887069 
L 27.675865 98.97901 
L 28.245719 93.876583 
L 28.815573 96.168351 
L 29.385428 99.973551 
L 29.955282 102.913933 
L 30.525136 95.865665 
L 31.09499 104.081437 
L 31.664845 96.60076 
L 32.234699 98.373638 
L 32.804553 93.314451 
L 33.374407 98.070951 
L 33.944262 96.471037 
L 34.514116 98.633083 
L 35.08397 97.119651 
L 35.653824 101.35726 
L 36.223679 97.595301 
L 36.793533 101.83291 
L 37.363387 99.541142 
L 37.933242 95.000847 
L 38.503096 96.860206 
L 39.07295 99.93031 
L 39.642804 99.800587 
L 40.212659 95.822424 
L 40.782513 99.324937 
L 41.352367 95.995387 
L 41.922221 102.265319 
L 42.492076 100.622165 
L 43.06193 100.968092 
L 43.631784 100.838369 
L 44.201639 101.573465 
L 44.771493 99.238456 
L 45.911201 104.859774 
L 46.481056 101.962633 
L 47.05091 97.854747 
L 47.620764 100.276237 
L 48.190618 103.432824 
L 48.760473 96.816965 
L 49.330327 102.697728 
L 49.900181 105.075978 
L 50.470035 106.546169 
L 51.03989 97.508819 
L 51.609744 102.178837 
L 52.179598 99.108733 
L 52.749453 102.351801 
L 53.319307 102.005874 
L 53.889161 102.568006 
L 54.459015 97.162892 
L 55.02887 100.232997 
L 55.598724 100.146515 
L 56.168578 102.438283 
L 56.738432 98.676324 
L 57.878141 102.049115 
L 58.447995 105.465147 
L 59.01785 101.400501 
L 59.587704 103.692269 
L 60.157558 103.389583 
L 60.727412 105.335424 
L 61.297267 102.913933 
L 61.867121 103.605787 
L 62.436975 101.227537 
L 63.576684 101.659947 
L 64.146538 97.811506 
L 64.716392 102.30856 
L 65.286246 101.962633 
L 65.856101 104.124678 
L 66.425955 101.703187 
L 66.995809 101.314019 
L 67.565664 105.681351 
L 68.135518 101.746428 
L 68.705372 99.843828 
L 69.275226 99.973551 
L 69.845081 100.232997 
L 70.414935 92.190187 
L 70.984789 96.471037 
L 71.554643 107.497469 
L 72.124498 110.308128 
L 72.694352 108.146083 
L 73.264206 109.270347 
L 73.83406 108.275806 
L 74.403915 109.832478 
L 74.973769 109.010901 
L 75.543623 107.54071 
L 76.113478 104.903015 
L 76.683332 107.843397 
L 77.253186 106.459688 
L 77.82304 109.313587 
L 78.392895 116.318615 
L 78.962749 105.465147 
L 79.532603 103.086897 
L 80.102457 108.189324 
L 80.672312 110.87026 
L 81.242166 109.227106 
L 81.81202 106.58941 
L 82.381874 101.703187 
L 82.951729 95.822424 
L 83.521583 101.789669 
L 84.091437 110.524333 
L 84.661292 115.929447 
L 85.231146 114.329533 
L 85.801 110.437851 
L 86.370854 113.551197 
L 87.510563 112.729619 
L 88.080417 111.432392 
L 88.650271 112.599897 
L 89.220126 111.129706 
L 89.78998 111.259428 
L 90.359834 115.972687 
L 90.929689 116.707783 
L 91.499543 114.19981 
L 92.069397 116.923987 
L 92.639251 112.210728 
L 93.209106 116.361856 
L 93.77896 108.621733 
L 94.348814 118.394178 
L 94.918668 114.459256 
L 95.488523 114.805183 
L 96.058377 119.561683 
L 96.628231 114.416015 
L 97.198085 113.940365 
L 97.76794 117.572601 
L 98.337794 114.891665 
L 98.907648 119.086033 
L 99.477503 116.923987 
L 100.047357 121.33456 
L 100.617211 119.475201 
L 101.187065 120.123815 
L 101.75692 115.280833 
L 102.326774 119.994092 
L 102.896628 118.95631 
L 103.466482 117.659083 
L 104.036337 125.13976 
L 104.606191 121.723728 
L 105.176045 122.718269 
L 105.745899 120.080574 
L 106.315754 121.723728 
L 106.885608 120.512983 
L 107.455462 124.66411 
L 108.025317 122.458824 
L 108.595171 119.042792 
L 109.165025 119.734647 
L 109.734879 123.626328 
L 110.304734 122.977715 
L 110.874588 126.912637 
L 111.444442 123.583087 
L 112.014296 120.988633 
L 112.584151 126.004578 
L 113.154005 127.301806 
L 113.723859 123.71281 
L 114.293714 127.863937 
L 114.863568 130.934042 
L 115.433422 123.366883 
L 116.003276 127.474769 
L 116.573131 128.253106 
L 117.142985 132.793401 
L 117.712839 128.339587 
L 118.282693 127.604492 
L 118.852548 129.377369 
L 119.422402 130.198947 
L 119.992256 128.988201 
L 120.56211 128.296347 
L 121.131965 129.247647 
L 121.701819 134.912206 
L 122.271673 130.631356 
L 122.841528 132.231269 
L 123.411382 129.593574 
L 123.981236 132.447474 
L 125.120945 135.517578 
L 125.690799 131.582656 
L 125.690799 131.582656 
" clip-path="url(#p1581d3b205)" style="fill: none; stroke: #ffb14e; stroke-width: 1.5; stroke-linecap: square"/>
   </g>
   <g id="line2d_21">
    <path d="M 27.10601 90.547033 
L 27.675865 89.898419 
L 28.245719 94.179269 
L 28.815573 89.811937 
L 29.385428 95.130569 
L 29.955282 94.092787 
L 30.525136 86.568869 
L 31.09499 90.503792 
L 31.664845 84.623028 
L 32.234699 92.968524 
L 32.804553 92.622597 
L 33.374407 86.828315 
L 33.944262 92.665837 
L 34.514116 91.065924 
L 35.08397 91.325369 
L 35.653824 93.444174 
L 36.223679 90.41731 
L 36.793533 97.897987 
L 37.363387 97.422337 
L 37.933242 91.930742 
L 38.503096 91.109165 
L 39.07295 99.022251 
L 39.642804 95.17381 
L 40.212659 92.882042 
L 40.782513 88.082301 
L 41.352367 91.757778 
L 41.922221 88.644433 
L 42.492076 91.455092 
L 43.631784 90.936201 
L 44.201639 88.903878 
L 44.771493 99.45466 
L 45.911201 91.887501 
L 46.481056 97.422337 
L 47.05091 94.69816 
L 47.620764 94.957606 
L 48.190618 93.833342 
L 48.760473 93.444174 
L 49.330327 98.070951 
L 49.900181 95.044087 
L 50.470035 93.487415 
L 51.03989 92.579356 
L 51.609744 94.22251 
L 52.179598 105.032737 
L 52.749453 97.379097 
L 53.319307 97.07641 
L 53.889161 90.201106 
L 54.459015 98.633083 
L 55.02887 92.752319 
L 55.598724 98.633083 
L 56.168578 99.065492 
L 56.738432 93.227969 
L 57.308287 96.816965 
L 57.878141 95.606219 
L 58.447995 100.40596 
L 59.01785 94.308992 
L 59.587704 94.69816 
L 60.157558 93.27121 
L 60.727412 96.168351 
L 61.297267 97.595301 
L 61.867121 101.789669 
L 62.436975 94.438715 
L 63.006829 94.179269 
L 63.576684 94.049547 
L 64.146538 97.984469 
L 64.716392 97.768265 
L 65.286246 96.471037 
L 65.856101 98.935769 
L 66.425955 93.011765 
L 66.995809 92.406392 
L 67.565664 97.725024 
L 68.135518 94.741401 
L 68.705372 94.179269 
L 69.275226 89.033601 
L 69.845081 94.22251 
L 70.414935 95.433256 
L 70.984789 95.519737 
L 71.554643 98.892528 
L 72.124498 96.254833 
L 72.694352 102.957174 
L 73.264206 99.324937 
L 73.83406 98.676324 
L 74.403915 100.40596 
L 74.973769 96.989928 
L 75.543623 92.449633 
L 76.113478 94.827883 
L 76.683332 98.330397 
L 77.253186 98.546601 
L 77.82304 101.011333 
L 78.392895 96.514278 
L 78.962749 97.292615 
L 79.532603 92.752319 
L 80.102457 94.741401 
L 80.672312 95.000847 
L 81.242166 97.595301 
L 81.81202 95.433256 
L 82.381874 89.422769 
L 83.521583 99.411419 
L 84.091437 103.346342 
L 84.661292 105.119219 
L 85.231146 97.335856 
L 85.801 99.151974 
L 86.940709 106.459688 
L 87.510563 103.951715 
L 88.080417 103.951715 
L 88.650271 103.086897 
L 89.220126 103.908474 
L 89.78998 107.410987 
L 90.359834 108.405528 
L 90.929689 102.740969 
L 91.499543 107.583951 
L 92.069397 109.962201 
L 92.639251 105.681351 
L 93.77896 107.627192 
L 94.348814 107.800156 
L 94.918668 109.832478 
L 95.488523 111.129706 
L 96.058377 111.518874 
L 96.628231 110.783778 
L 97.198085 110.437851 
L 97.76794 109.91896 
L 98.337794 107.886637 
L 98.907648 112.902583 
L 99.477503 106.892097 
L 100.047357 113.897124 
L 100.617211 114.459256 
L 101.187065 111.043224 
L 101.75692 110.913501 
L 102.326774 115.929447 
L 102.896628 109.400069 
L 103.466482 116.880747 
L 104.036337 111.605356 
L 104.606191 117.356397 
L 105.176045 112.902583 
L 105.745899 112.945824 
L 106.315754 117.832047 
L 106.885608 114.934906 
L 107.455462 115.324074 
L 108.025317 116.405097 
L 108.595171 110.308128 
L 109.165025 112.556656 
L 109.734879 115.929447 
L 110.304734 117.875287 
L 110.874588 115.713242 
L 111.444442 116.794265 
L 112.014296 115.497037 
L 112.584151 120.037333 
L 113.154005 114.459256 
L 113.723859 115.15111 
L 114.293714 122.112897 
L 114.863568 114.502497 
L 115.433422 116.059169 
L 116.003276 110.783778 
L 116.573131 112.037765 
L 117.142985 110.264887 
L 117.712839 107.410987 
L 118.282693 106.11376 
L 118.852548 101.400501 
L 119.422402 101.35726 
L 120.56211 114.070087 
L 121.131965 120.599465 
L 121.701819 119.777887 
L 122.271673 123.842533 
L 122.841528 120.426501 
L 123.411382 124.923556 
L 123.981236 127.647733 
L 124.55109 125.61541 
L 125.120945 124.750592 
L 125.690799 121.939933 
L 125.690799 121.939933 
" clip-path="url(#p1581d3b205)" style="fill: none; stroke: #008e00; stroke-width: 1.5; stroke-linecap: square"/>
   </g>
   <g id="line2d_22">
    <path d="M 27.10601 104.21116 
L 27.675865 105.421906 
L 28.245719 100.232997 
L 28.815573 103.908474 
L 29.955282 100.449201 
L 30.525136 103.994956 
L 31.09499 104.340883 
L 31.664845 107.238024 
L 32.804553 99.541142 
L 33.374407 101.097815 
L 33.944262 103.562547 
L 34.514116 104.946256 
L 35.08397 105.075978 
L 35.653824 101.83291 
L 36.223679 99.843828 
L 36.793533 104.859774 
L 37.363387 102.568006 
L 37.933242 102.568006 
L 38.503096 103.73551 
L 39.07295 102.827451 
L 39.642804 101.530224 
L 40.212659 105.681351 
L 40.782513 103.821992 
L 41.352367 103.476065 
L 41.922221 103.908474 
L 42.492076 107.021819 
L 43.06193 108.535251 
L 43.631784 102.005874 
L 44.201639 106.11376 
L 44.771493 104.427365 
L 45.341347 101.443742 
L 45.911201 107.886637 
L 46.481056 107.194783 
L 47.05091 108.535251 
L 47.620764 101.314019 
L 48.190618 108.621733 
L 48.760473 110.827019 
L 49.330327 107.713674 
L 49.900181 106.416447 
L 50.470035 107.627192 
L 51.03989 107.54071 
L 51.609744 107.756915 
L 52.179598 104.254401 
L 52.749453 107.670433 
L 53.319307 105.465147 
L 53.889161 105.551628 
L 54.459015 100.535683 
L 55.02887 104.68681 
L 55.598724 101.097815 
L 56.168578 109.486551 
L 56.738432 109.789237 
L 57.308287 112.081006 
L 57.878141 111.562115 
L 58.447995 109.745997 
L 59.01785 110.87026 
L 59.587704 108.448769 
L 60.157558 108.664974 
L 60.727412 111.086465 
L 61.297267 105.854315 
L 61.867121 109.356828 
L 62.436975 101.573465 
L 63.006829 105.940797 
L 63.576684 108.96766 
L 64.146538 108.232565 
L 64.716392 106.329965 
L 65.286246 109.44331 
L 65.856101 103.346342 
L 66.425955 107.54071 
L 66.995809 103.73551 
L 67.565664 106.978578 
L 68.135518 99.670865 
L 69.275226 91.195647 
L 69.845081 76.191051 
L 70.414935 67.413147 
L 70.984789 94.006306 
L 71.554643 111.605356 
L 72.124498 108.146083 
L 72.694352 115.021387 
L 73.83406 110.091924 
L 74.403915 113.551197 
L 74.973769 110.308128 
L 75.543623 111.518874 
L 76.113478 111.432392 
L 76.683332 110.740537 
L 77.253186 110.956742 
L 77.82304 108.535251 
L 78.392895 111.648597 
L 79.532603 107.454228 
L 80.102457 101.703187 
L 80.672312 101.227537 
L 81.242166 95.908906 
L 81.81202 98.114192 
L 82.381874 96.989928 
L 82.951729 102.654487 
L 83.521583 110.264887 
L 84.091437 112.859342 
L 84.661292 118.653624 
L 85.231146 116.967228 
L 85.801 117.52936 
L 86.370854 118.307697 
L 86.940709 115.410556 
L 87.510563 114.156569 
L 88.080417 115.280833 
L 88.650271 115.021387 
L 89.220126 117.356397 
L 89.78998 117.961769 
L 90.359834 115.842965 
L 90.929689 118.826587 
L 91.499543 113.853883 
L 92.069397 113.464715 
L 92.639251 118.221215 
L 93.209106 118.696865 
L 93.77896 118.307697 
L 94.348814 117.269915 
L 94.918668 118.48066 
L 95.488523 115.107869 
L 96.058377 118.610383 
L 96.628231 120.729187 
L 97.198085 122.242619 
L 97.76794 121.161597 
L 98.337794 122.76151 
L 98.907648 118.783347 
L 99.477503 120.167056 
L 100.047357 120.685947 
L 100.617211 121.983174 
L 101.187065 121.204837 
L 101.75692 123.539847 
L 102.326774 124.923556 
L 102.896628 122.199378 
L 103.466482 120.599465 
L 104.036337 121.161597 
L 104.606191 127.99366 
L 105.176045 125.053278 
L 105.745899 124.361424 
L 106.315754 124.66411 
L 106.885608 122.372342 
L 107.455462 127.474769 
L 108.025317 125.269483 
L 108.595171 125.874856 
L 109.165025 124.837074 
L 109.734879 128.209865 
L 110.304734 132.27451 
L 110.874588 129.593574 
L 111.444442 129.723297 
L 112.014296 126.739674 
L 112.584151 131.885342 
L 113.154005 131.020524 
L 113.723859 131.366451 
L 114.293714 129.680056 
L 114.863568 130.069224 
L 115.433422 132.836642 
L 116.003276 137.939069 
L 116.573131 133.355533 
L 117.142985 137.766106 
L 117.712839 133.22581 
L 118.282693 134.004147 
L 118.852548 131.366451 
L 119.422402 135.041928 
L 119.992256 132.577197 
L 120.56211 134.609519 
L 121.131965 131.755619 
L 121.701819 133.398774 
L 122.271673 139.928151 
L 122.841528 133.312292 
L 123.411382 141.009174 
L 123.981236 135.906747 
L 124.55109 138.241756 
L 125.120945 136.987769 
L 125.690799 140.447042 
L 125.690799 140.447042 
" clip-path="url(#p1581d3b205)" style="fill: none; stroke: #000000; stroke-width: 1.5; stroke-linecap: square"/>
   </g>
   <g id="patch_3">
    <path d="M 27.6675 213.480937 
L 27.6675 23.220937 
" style="fill: none; stroke: #000000; stroke-width: 0.8; stroke-linejoin: miter; stroke-linecap: square"/>
   </g>
   <g id="patch_4">
    <path d="M 27.6675 213.480937 
L 125.3175 213.480937 
" style="fill: none; stroke: #000000; stroke-width: 0.8; stroke-linejoin: miter; stroke-linecap: square"/>
   </g>
   <g id="text_5">
    <!-- High-phosphate -->
    <g transform="translate(27.0725 17.220937) scale(0.14 -0.14)">
     <defs>
      <path id="ArialMT-48" d="M 513 0 
L 513 4581 
L 1119 4581 
L 1119 2700 
L 3500 2700 
L 3500 4581 
L 4106 4581 
L 4106 0 
L 3500 0 
L 3500 2159 
L 1119 2159 
L 1119 0 
L 513 0 
z
" transform="scale(0.015625)"/>
      <path id="ArialMT-67" d="M 319 -275 
L 866 -356 
Q 900 -609 1056 -725 
Q 1266 -881 1628 -881 
Q 2019 -881 2231 -725 
Q 2444 -569 2519 -288 
Q 2563 -116 2559 434 
Q 2191 0 1641 0 
Q 956 0 581 494 
Q 206 988 206 1678 
Q 206 2153 378 2554 
Q 550 2956 876 3175 
Q 1203 3394 1644 3394 
Q 2231 3394 2613 2919 
L 2613 3319 
L 3131 3319 
L 3131 450 
Q 3131 -325 2973 -648 
Q 2816 -972 2473 -1159 
Q 2131 -1347 1631 -1347 
Q 1038 -1347 672 -1080 
Q 306 -813 319 -275 
z
M 784 1719 
Q 784 1066 1043 766 
Q 1303 466 1694 466 
Q 2081 466 2343 764 
Q 2606 1063 2606 1700 
Q 2606 2309 2336 2618 
Q 2066 2928 1684 2928 
Q 1309 2928 1046 2623 
Q 784 2319 784 1719 
z
" transform="scale(0.015625)"/>
      <path id="ArialMT-68" d="M 422 0 
L 422 4581 
L 984 4581 
L 984 2938 
Q 1378 3394 1978 3394 
Q 2347 3394 2619 3248 
Q 2891 3103 3008 2847 
Q 3125 2591 3125 2103 
L 3125 0 
L 2563 0 
L 2563 2103 
Q 2563 2525 2380 2717 
Q 2197 2909 1863 2909 
Q 1613 2909 1392 2779 
Q 1172 2650 1078 2428 
Q 984 2206 984 1816 
L 984 0 
L 422 0 
z
" transform="scale(0.015625)"/>
      <path id="ArialMT-2d" d="M 203 1375 
L 203 1941 
L 1931 1941 
L 1931 1375 
L 203 1375 
z
" transform="scale(0.015625)"/>
      <path id="ArialMT-70" d="M 422 -1272 
L 422 3319 
L 934 3319 
L 934 2888 
Q 1116 3141 1344 3267 
Q 1572 3394 1897 3394 
Q 2322 3394 2647 3175 
Q 2972 2956 3137 2557 
Q 3303 2159 3303 1684 
Q 3303 1175 3120 767 
Q 2938 359 2589 142 
Q 2241 -75 1856 -75 
Q 1575 -75 1351 44 
Q 1128 163 984 344 
L 984 -1272 
L 422 -1272 
z
M 931 1641 
Q 931 1000 1190 694 
Q 1450 388 1819 388 
Q 2194 388 2461 705 
Q 2728 1022 2728 1688 
Q 2728 2322 2467 2637 
Q 2206 2953 1844 2953 
Q 1484 2953 1207 2617 
Q 931 2281 931 1641 
z
" transform="scale(0.015625)"/>
      <path id="ArialMT-6f" d="M 213 1659 
Q 213 2581 725 3025 
Q 1153 3394 1769 3394 
Q 2453 3394 2887 2945 
Q 3322 2497 3322 1706 
Q 3322 1066 3130 698 
Q 2938 331 2570 128 
Q 2203 -75 1769 -75 
Q 1072 -75 642 372 
Q 213 819 213 1659 
z
M 791 1659 
Q 791 1022 1069 705 
Q 1347 388 1769 388 
Q 2188 388 2466 706 
Q 2744 1025 2744 1678 
Q 2744 2294 2464 2611 
Q 2184 2928 1769 2928 
Q 1347 2928 1069 2612 
Q 791 2297 791 1659 
z
" transform="scale(0.015625)"/>
      <path id="ArialMT-61" d="M 2588 409 
Q 2275 144 1986 34 
Q 1697 -75 1366 -75 
Q 819 -75 525 192 
Q 231 459 231 875 
Q 231 1119 342 1320 
Q 453 1522 633 1644 
Q 813 1766 1038 1828 
Q 1203 1872 1538 1913 
Q 2219 1994 2541 2106 
Q 2544 2222 2544 2253 
Q 2544 2597 2384 2738 
Q 2169 2928 1744 2928 
Q 1347 2928 1158 2789 
Q 969 2650 878 2297 
L 328 2372 
Q 403 2725 575 2942 
Q 747 3159 1072 3276 
Q 1397 3394 1825 3394 
Q 2250 3394 2515 3294 
Q 2781 3194 2906 3042 
Q 3031 2891 3081 2659 
Q 3109 2516 3109 2141 
L 3109 1391 
Q 3109 606 3145 398 
Q 3181 191 3288 0 
L 2700 0 
Q 2613 175 2588 409 
z
M 2541 1666 
Q 2234 1541 1622 1453 
Q 1275 1403 1131 1340 
Q 988 1278 909 1158 
Q 831 1038 831 891 
Q 831 666 1001 516 
Q 1172 366 1500 366 
Q 1825 366 2078 508 
Q 2331 650 2450 897 
Q 2541 1088 2541 1459 
L 2541 1666 
z
" transform="scale(0.015625)"/>
     </defs>
     <use xlink:href="#ArialMT-48"/>
     <use xlink:href="#ArialMT-69" x="72.216797"/>
     <use xlink:href="#ArialMT-67" x="94.433594"/>
     <use xlink:href="#ArialMT-68" x="150.048828"/>
     <use xlink:href="#ArialMT-2d" x="205.664062"/>
     <use xlink:href="#ArialMT-70" x="238.964844"/>
     <use xlink:href="#ArialMT-68" x="294.580078"/>
     <use xlink:href="#ArialMT-6f" x="350.195312"/>
     <use xlink:href="#ArialMT-73" x="405.810547"/>
     <use xlink:href="#ArialMT-70" x="455.810547"/>
     <use xlink:href="#ArialMT-68" x="511.425781"/>
     <use xlink:href="#ArialMT-61" x="567.041016"/>
     <use xlink:href="#ArialMT-74" x="622.65625"/>
     <use xlink:href="#ArialMT-65" x="650.439453"/>
    </g>
   </g>
  </g>
 </g>
 <defs>
  <clipPath id="p1581d3b205">
   <rect x="27.6675" y="23.220937" width="97.65" height="190.26"/>
  </clipPath>
 </defs>
</svg>
