<?xml version="1.0" encoding="utf-8"?>
<!-- Generator: Adobe Illustrator 26.0.1, SVG Export Plug-In . SVG Version: 6.00 Build 0)  -->
<svg version="1.1" id="Layer_1" xmlns="http://www.w3.org/2000/svg" xmlns:xlink="http://www.w3.org/1999/xlink" x="0px" y="0px"
	 viewBox="0 0 77.6 46.9" style="enable-background:new 0 0 77.6 46.9;" xml:space="preserve">
<style type="text/css">
	.st0{display:none;}
	.st1{fill:#FFFFFF;}
	.st2{display:inline;fill:#FFFFFF;}
	.st3{display:inline;}
	.st4{stroke:#000000;stroke-width:0.8;stroke-linejoin:round;}
	.st5{stroke:#000000;stroke-width:0.6;stroke-linejoin:round;}
	
		.st6{clip-path:url(#SVGID_00000127745452133555110110000017152369832320676769_);fill:none;stroke:#FFB14E;stroke-width:1.5;stroke-linecap:square;stroke-linejoin:round;}
	
		.st7{clip-path:url(#SVGID_00000134955612083171400210000003803559534291318945_);fill:none;stroke:#008E00;stroke-width:1.5;stroke-linecap:square;stroke-linejoin:round;}
	
		.st8{clip-path:url(#SVGID_00000041286228864351327180000007008106058135513770_);fill:none;stroke:#000000;stroke-width:1.5;stroke-linecap:square;stroke-linejoin:round;}
	.st9{display:inline;fill:none;stroke:#000000;stroke-width:0.8;stroke-linecap:square;}
	.st10{opacity:0.8;fill:#FFFFFF;stroke:#CCCCCC;enable-background:new    ;}
	.st11{fill:none;stroke:#000000;stroke-width:1.5;stroke-linecap:square;stroke-linejoin:round;}
	.st12{fill:none;stroke:#008E00;stroke-width:1.5;stroke-linecap:square;stroke-linejoin:round;}
	.st13{fill:none;stroke:#FFB14E;stroke-width:1.5;stroke-linecap:square;stroke-linejoin:round;}
</style>
<g id="figure_1">
	<g id="patch_1" class="st0">
		<path class="st1" d="M-6.7,219.7h96V-27.7h-96V219.7z"/>
	</g>
	<g id="axes_1">
		<g id="patch_2" class="st0">
			<path class="st2" d="M26.3,185.8h55.8V-4.5H26.3V185.8z"/>
		</g>
		<g id="matplotlib.axis_1" class="st0">
			<g id="xtick_1" class="st3">
				<g id="line2d_1">
					<g>
						<g>
							<path id="mc27c0704b5" class="st4" d="M26.3,185.8v3.5"/>
						</g>
					</g>
				</g>
				<g id="text_1">
					<g transform="translate(28.534062 226.207187) scale(0.08 -0.08)">
						<g>
							<path id="ArialMT-31" d="M-46.5,346.5h-8.8v56c-2.1-2-4.9-4-8.3-6c-3.4-2-6.5-3.5-9.2-4.5v8.5c4.9,2.3,9.2,5.1,12.9,8.4
								c3.7,3.3,6.3,6.5,7.8,9.6h5.7V346.5z"/>
						</g>
						<g>
							<path id="ArialMT-30" d="M-24,381.8c0,8.5,0.9,15.3,2.6,20.4c1.7,5.2,4.3,9.1,7.8,11.9c3.4,2.8,7.8,4.2,13,4.2
								c3.8,0,7.2-0.8,10.1-2.3c2.9-1.5,5.3-3.8,7.2-6.7c1.9-2.9,3.4-6.5,4.5-10.6c1.1-4.2,1.6-9.8,1.6-16.9
								c0-8.4-0.9-15.2-2.6-20.3c-1.7-5.2-4.3-9.1-7.7-12c-3.4-2.8-7.8-4.2-13-4.2c-6.9,0-12.3,2.5-16.2,7.4
								C-21.6,358.7-24,368.4-24,381.8z M-14.9,381.8c0-11.8,1.4-19.6,4.1-23.5c2.8-3.9,6.1-5.8,10.2-5.8c4,0,7.4,2,10.2,5.9
								s4.1,11.7,4.1,23.4c0,11.8-1.4,19.6-4.1,23.5c-2.8,3.9-6.2,5.8-10.3,5.8c-4,0-7.3-1.7-9.7-5.1
								C-13.4,401.6-14.9,393.6-14.9,381.8z"/>
						</g>
					</g>
				</g>
			</g>
			<g id="xtick_2" class="st3">
				<g id="line2d_2">
					<g>
						<g>
							<path id="mc27c0704b5_00000167378783075772142410000012025462227800190886_" class="st4" d="M63.5,185.8v3.5"/>
						</g>
					</g>
				</g>
				<g id="text_2">
					<g transform="translate(65.734063 226.207187) scale(0.08 -0.08)">
						<g>
							<path id="ArialMT-31_00000107552494042629305290000001098011498122066345_" d="M-46.5,346.5h-8.8v56c-2.1-2-4.9-4-8.3-6
								c-3.4-2-6.5-3.5-9.2-4.5v8.5c4.9,2.3,9.2,5.1,12.9,8.4c3.7,3.3,6.3,6.5,7.8,9.6h5.7V346.5z"/>
						</g>
						<g>
							<path id="ArialMT-32" d="M22.2,355v-8.5h-47.3c-0.1,2.1,0.3,4.2,1,6.1c1.2,3.2,3.1,6.4,5.8,9.5c2.7,3.1,6.5,6.7,11.5,10.8
								c7.8,6.4,13,11.4,15.8,15.2c2.7,3.7,4.1,7.3,4.1,10.6c0,3.5-1.2,6.4-3.8,8.8c-2.5,2.4-5.7,3.6-9.7,3.6
								c-4.2,0-7.6-1.3-10.2-3.8c-2.5-2.5-3.8-6-3.9-10.5l-9,0.9c0.6,6.7,2.9,11.9,7,15.4c4,3.5,9.5,5.3,16.3,5.3
								c6.9,0,12.3-1.9,16.3-5.7c4-3.8,6-8.5,6-14.2c0-2.9-0.6-5.7-1.8-8.5c-1.2-2.8-3.1-5.7-5.8-8.7S7.3,374.1,1,368.7
								c-5.3-4.4-8.7-7.4-10.2-9c-1.5-1.6-2.7-3.2-3.7-4.8H22.2z"/>
						</g>
					</g>
				</g>
			</g>
			<g id="xtick_3" class="st3">
				<g id="line2d_3">
					<g>
						<g>
							<path id="m1dd4b7cf6d" class="st5" d="M35.6,185.8v2"/>
						</g>
					</g>
				</g>
			</g>
			<g id="xtick_4" class="st3">
				<g id="line2d_4">
					<g>
						<g>
							<path id="m1dd4b7cf6d_00000046328606577469690000000010762015072256072357_" class="st5" d="M44.9,185.8v2"/>
						</g>
					</g>
				</g>
			</g>
			<g id="xtick_5" class="st3">
				<g id="line2d_5">
					<g>
						<g>
							<path id="m1dd4b7cf6d_00000181796087323539547550000000855994119772214151_" class="st5" d="M54.2,185.8v2"/>
						</g>
					</g>
				</g>
			</g>
			<g id="xtick_6" class="st3">
				<g id="line2d_6">
					<g>
						<g>
							<path id="m1dd4b7cf6d_00000026886139105858167470000005728384621581612730_" class="st5" d="M72.8,185.8v2"/>
						</g>
					</g>
				</g>
			</g>
			<g id="xtick_7" class="st3">
				<g id="line2d_7">
					<g>
						<g>
							<path id="m1dd4b7cf6d_00000056419936542817118340000010489432305299398555_" class="st5" d="M82.1,185.8v2"/>
						</g>
					</g>
				</g>
			</g>
			<g id="text_3" class="st3">
				<g transform="translate(35.370625 238.348906) scale(0.09 -0.09)">
					<g>
						<path id="ArialMT-32_00000052804278883138628700000014478250261179309211_" d="M-24.1,316.5V308h-47.3c-0.1,2.1,0.3,4.2,1,6.1
							c1.2,3.2,3.1,6.4,5.8,9.5c2.7,3.1,6.5,6.7,11.5,10.8c7.8,6.4,13,11.4,15.8,15.2c2.7,3.7,4.1,7.3,4.1,10.6
							c0,3.5-1.2,6.4-3.8,8.8c-2.5,2.4-5.7,3.6-9.7,3.6c-4.2,0-7.6-1.3-10.2-3.8c-2.5-2.5-3.8-6-3.9-10.5l-9,0.9
							c0.6,6.7,2.9,11.9,7,15.4c4,3.5,9.5,5.3,16.3,5.3c6.9,0,12.3-1.9,16.3-5.7c4-3.8,6-8.5,6-14.2c0-2.9-0.6-5.7-1.8-8.5
							c-1.2-2.8-3.1-5.7-5.8-8.7s-7.2-7.3-13.5-12.6c-5.3-4.4-8.7-7.4-10.2-9c-1.5-1.6-2.7-3.2-3.7-4.8H-24.1z"/>
					</g>
					<g>
						<path id="ArialMT-3b8" d="M-14.3,343.8c0,24.7,7.8,37,23.3,37c15.6,0,23.3-12.3,23.3-37c0-24.6-7.8-37-23.3-37
							C-6.6,306.8-14.3,319.2-14.3,343.8z M-5.3,347.4h28.5c-0.3,10.2-1.8,17.1-4.4,20.8c-2.6,3.6-5.9,5.5-10,5.5
							C-0.2,373.6-4.9,364.8-5.3,347.4z M23.3,340.3H-5.3c0.4-17.5,5.1-26.2,14.3-26.2C18.2,314.1,22.9,322.8,23.3,340.3z"/>
					</g>
					<g>
						<path id="ArialMT-20" d="M36.8,308"/>
					</g>
					<g>
						<path id="ArialMT-28" d="M88,287c-4.9,6.1-9,13.3-12.3,21.5c-3.3,8.2-5,16.7-5,25.5c0,7.8,1.2,15.2,3.8,22.3
							c2.9,8.2,7.5,16.4,13.6,24.6h6.3c-3.9-6.8-6.5-11.6-7.8-14.5c-2-4.5-3.6-9.2-4.7-14.1c-1.4-6.1-2.1-12.2-2.1-18.4
							c0-15.7,4.9-31.3,14.6-46.9H88z"/>
					</g>
					<g>
						<path id="ArialMT-64" d="M138.1,308v6.5c-3.3-5.1-8.1-7.7-14.5-7.7c-4.1,0-7.9,1.1-11.4,3.4s-6.2,5.5-8.1,9.5
							c-1.9,4.1-2.8,8.8-2.8,14.1c0,5.2,0.9,9.9,2.6,14.1c1.7,4.2,4.3,7.4,7.8,9.7c3.5,2.2,7.3,3.4,11.6,3.4c3.1,0,5.9-0.7,8.3-2
							c2.4-1.3,4.4-3,6-5.1v25.7h8.7V308H138.1z M110.3,333.9c0-6.6,1.4-11.6,4.2-14.9c2.8-3.3,6.1-4.9,9.9-4.9
							c3.8,0,7.1,1.6,9.8,4.7c2.7,3.1,4,7.9,4,14.4c0,7.1-1.4,12.3-4.1,15.6c-2.7,3.3-6.1,5-10.1,5c-3.9,0-7.2-1.6-9.8-4.8
							C111.6,345.8,110.3,340.8,110.3,333.9z"/>
					</g>
					<g>
						<path id="ArialMT-65" d="M195.6,324.7l9.1-1.1c-1.4-5.3-4.1-9.4-8-12.4c-3.9-2.9-8.8-4.4-14.8-4.4c-7.6,0-13.6,2.3-18,7
							c-4.4,4.7-6.7,11.2-6.7,19.7c0,8.7,2.2,15.5,6.7,20.3c4.5,4.8,10.3,7.2,17.5,7.2c6.9,0,12.6-2.4,17-7.1
							c4.4-4.7,6.6-11.4,6.6-19.9c0-0.5,0-1.3,0-2.3h-38.7c0.3-5.7,1.9-10.1,4.8-13.1c2.9-3,6.5-4.5,10.8-4.5c3.2,0,6,0.8,8.2,2.5
							C192.4,318.3,194.2,321,195.6,324.7z M166.7,338.9h29c-0.4,4.4-1.5,7.6-3.3,9.8c-2.8,3.4-6.4,5.1-10.9,5.1
							c-4,0-7.4-1.3-10.2-4C168.5,347.1,167,343.4,166.7,338.9z"/>
					</g>
					<g>
						<path id="ArialMT-67" d="M214.1,303.7l8.5-1.3c0.4-2.6,1.3-4.6,3-5.8c2.2-1.6,5.2-2.4,8.9-2.4c4.1,0,7.2,0.8,9.4,2.4
							c2.2,1.6,3.7,3.9,4.5,6.8c0.5,1.8,0.7,5.6,0.6,11.3c-3.8-4.5-8.6-6.8-14.3-6.8c-7.1,0-12.7,2.6-16.6,7.7
							c-3.9,5.1-5.9,11.3-5.9,18.5c0,4.9,0.9,9.5,2.7,13.7c1.8,4.2,4.4,7.4,7.8,9.7c3.4,2.3,7.4,3.4,12,3.4c6.1,0,11.2-2.5,15.1-7.4
							v6.2h8.1V315c0-8.1-0.8-13.8-2.5-17.2c-1.6-3.4-4.2-6-7.8-8c-3.6-2-7.9-2.9-13.2-2.9c-6.2,0-11.2,1.4-15,4.2
							S213.9,298.1,214.1,303.7z M221.4,334.9c0-6.8,1.3-11.8,4-14.9c2.7-3.1,6.1-4.7,10.2-4.7c4,0,7.4,1.6,10.1,4.7
							c2.7,3.1,4.1,8,4.1,14.6c0,6.3-1.4,11.1-4.2,14.3c-2.8,3.2-6.2,4.8-10.2,4.8c-3.9,0-7.2-1.6-10-4.8
							C222.7,345.8,221.4,341.1,221.4,334.9z"/>
					</g>
					<g>
						<path id="ArialMT-72" d="M271.2,308v51.9h7.9V352c2,3.7,3.9,6.1,5.6,7.3c1.7,1.2,3.6,1.8,5.6,1.8c3,0,6-0.9,9-2.8l-3-8.2
							c-2.1,1.3-4.3,1.9-6.4,1.9c-1.9,0-3.7-0.6-5.2-1.7s-2.6-2.8-3.3-4.8c-1-3.1-1.5-6.5-1.5-10.2V308H271.2z"/>
					</g>
					<g>
						<path id="ArialMT-65_00000178895479793744254220000005980636208782731195_" d="M340.1,324.7l9.1-1.1c-1.4-5.3-4.1-9.4-8-12.4
							c-3.9-2.9-8.8-4.4-14.8-4.4c-7.6,0-13.6,2.3-18,7c-4.4,4.7-6.7,11.2-6.7,19.7c0,8.7,2.2,15.5,6.7,20.3
							c4.5,4.8,10.3,7.2,17.5,7.2c6.9,0,12.6-2.4,17-7.1s6.6-11.4,6.6-19.9c0-0.5,0-1.3,0-2.3h-38.7c0.3-5.7,1.9-10.1,4.8-13.1
							c2.9-3,6.5-4.5,10.8-4.5c3.2,0,6,0.8,8.2,2.5C337,318.3,338.8,321,340.1,324.7z M311.3,338.9h29c-0.4,4.4-1.5,7.6-3.3,9.8
							c-2.8,3.4-6.4,5.1-10.9,5.1c-4,0-7.4-1.3-10.2-4C313.1,347.1,311.5,343.4,311.3,338.9z"/>
					</g>
					<g>
						<path id="ArialMT-65_00000080925986886869833200000004689928889036514195_" d="M395.7,324.7l9.1-1.1c-1.4-5.3-4.1-9.4-8-12.4
							c-3.9-2.9-8.8-4.4-14.8-4.4c-7.6,0-13.6,2.3-18,7c-4.4,4.7-6.7,11.2-6.7,19.7c0,8.7,2.2,15.5,6.7,20.3
							c4.5,4.8,10.3,7.2,17.5,7.2c6.9,0,12.6-2.4,17-7.1s6.6-11.4,6.6-19.9c0-0.5,0-1.3,0-2.3h-38.7c0.3-5.7,1.9-10.1,4.8-13.1
							c2.9-3,6.5-4.5,10.8-4.5c3.2,0,6,0.8,8.2,2.5C392.6,318.3,394.4,321,395.7,324.7z M366.9,338.9h29c-0.4,4.4-1.5,7.6-3.3,9.8
							c-2.8,3.4-6.4,5.1-10.9,5.1c-4,0-7.4-1.3-10.2-4C368.7,347.1,367.2,343.4,366.9,338.9z"/>
					</g>
					<g>
						<path id="ArialMT-73" d="M412.3,323.5l8.7,1.4c0.5-3.5,1.8-6.1,4.1-8c2.2-1.9,5.3-2.8,9.4-2.8c4,0,7,0.8,9,2.5
							c2,1.6,2.9,3.6,2.9,5.8c0,2-0.9,3.5-2.6,4.7c-1.2,0.8-4.2,1.8-9,3c-6.4,1.6-10.9,3-13.4,4.2s-4.4,2.8-5.7,4.9
							c-1.3,2.1-1.9,4.4-1.9,7c0,2.3,0.5,4.4,1.6,6.4c1.1,2,2.5,3.6,4.3,4.9c1.4,1,3.2,1.8,5.6,2.5c2.4,0.7,4.9,1.1,7.6,1.1
							c4.1,0,7.6-0.6,10.7-1.8c3.1-1.2,5.4-2.8,6.8-4.8c1.5-2,2.5-4.7,3-8l-8.6-1.2c-0.4,2.7-1.5,4.7-3.4,6.2
							c-1.9,1.5-4.5,2.2-7.9,2.2c-4,0-6.9-0.7-8.6-2c-1.7-1.3-2.6-2.9-2.6-4.7c0-1.1,0.4-2.2,1.1-3.1c0.7-0.9,1.8-1.7,3.4-2.3
							c0.9-0.3,3.5-1.1,7.8-2.2c6.2-1.7,10.6-3,13-4.1c2.5-1.1,4.4-2.6,5.8-4.6c1.4-2,2.1-4.5,2.1-7.5c0-2.9-0.9-5.7-2.6-8.3
							c-1.7-2.6-4.2-4.6-7.4-6c-3.2-1.4-6.9-2.1-10.9-2.1c-6.7,0-11.9,1.4-15.4,4.2C415.6,313.8,413.3,318,412.3,323.5z"/>
					</g>
					<g>
						<path id="ArialMT-29" d="M471.6,287h-6.3c9.7,15.6,14.6,31.3,14.6,46.9c0,6.1-0.7,12.2-2.1,18.2c-1.1,4.9-2.7,9.6-4.6,14.1
							c-1.3,2.9-3.9,7.8-7.9,14.6h6.3c6.1-8.2,10.6-16.4,13.6-24.6c2.5-7.1,3.8-14.5,3.8-22.3c0-8.8-1.7-17.3-5.1-25.5
							C480.5,300.2,476.4,293.1,471.6,287z"/>
					</g>
				</g>
			</g>
		</g>
		<g id="matplotlib.axis_2" class="st0">
			<g id="ytick_1" class="st3">
				<g id="line2d_8">
				</g>
			</g>
			<g id="ytick_2" class="st3">
				<g id="line2d_9">
				</g>
			</g>
			<g id="ytick_3" class="st3">
				<g id="line2d_10">
				</g>
			</g>
			<g id="ytick_4" class="st3">
				<g id="line2d_11">
				</g>
			</g>
			<g id="ytick_5" class="st3">
				<g id="line2d_12">
				</g>
			</g>
			<g id="ytick_6" class="st3">
				<g id="line2d_13">
				</g>
			</g>
			<g id="ytick_7" class="st3">
				<g id="line2d_14">
				</g>
			</g>
			<g id="text_4" class="st3">
				<g transform="translate(23.588594 135.108516) rotate(-90) scale(0.09 -0.09)">
					<g>
						<path id="ArialMT-49" d="M317.3,74.4V146h9.5V74.4H317.3z"/>
					</g>
					<g>
						<path id="ArialMT-6e" d="M342.4,74.4v51.9h7.9v-7.4c3.8,5.7,9.3,8.5,16.5,8.5c3.1,0,6-0.6,8.6-1.7s4.6-2.6,5.9-4.4
							c1.3-1.8,2.2-4,2.7-6.5c0.3-1.6,0.5-4.5,0.5-8.5V74.4h-8.8V106c0,3.6-0.3,6.3-1,8c-0.7,1.8-1.9,3.2-3.6,4.2
							c-1.7,1.1-3.8,1.6-6.1,1.6c-3.8,0-7-1.2-9.7-3.6s-4.1-6.9-4.1-13.5V74.4H342.4z"/>
					</g>
					<g>
						<path id="ArialMT-74" d="M417.2,82.3l1.3-7.8c-2.5-0.5-4.7-0.8-6.6-0.8c-3.2,0-5.7,0.5-7.4,1.5c-1.8,1-3,2.3-3.7,4
							c-0.7,1.6-1.1,5.1-1.1,10.4v29.8h-6.4v6.8h6.4v12.8l8.7,5.3v-18.1h8.8v-6.8h-8.8V89.1c0-2.5,0.2-4.1,0.5-4.8
							c0.3-0.7,0.8-1.3,1.5-1.7c0.7-0.4,1.7-0.6,3-0.6C414.3,82,415.6,82.1,417.2,82.3z"/>
					</g>
					<g>
						<path id="ArialMT-65_00000138573628728341266190000014115168071647383975_" d="M461.3,91.1l9.1-1.1c-1.4-5.3-4.1-9.4-8-12.4
							c-3.9-2.9-8.8-4.4-14.8-4.4c-7.6,0-13.6,2.3-18,7c-4.4,4.7-6.7,11.2-6.7,19.7c0,8.7,2.2,15.5,6.7,20.3
							c4.5,4.8,10.3,7.2,17.5,7.2c6.9,0,12.6-2.4,17-7.1c4.4-4.7,6.6-11.4,6.6-19.9c0-0.5,0-1.3,0-2.3h-38.7
							c0.3-5.7,1.9-10.1,4.8-13.1c2.9-3,6.5-4.5,10.8-4.5c3.2,0,6,0.8,8.2,2.5C458.1,84.7,460,87.4,461.3,91.1z M432.4,105.4h29
							c-0.4,4.4-1.5,7.6-3.3,9.8c-2.8,3.4-6.4,5.1-10.9,5.1c-4,0-7.4-1.3-10.2-4C434.2,113.5,432.7,109.9,432.4,105.4z"/>
					</g>
					<g>
						<path id="ArialMT-6e_00000018945439984172116920000010751395735083852936_" d="M481.4,74.4v51.9h7.9v-7.4
							c3.8,5.7,9.3,8.5,16.5,8.5c3.1,0,6-0.6,8.6-1.7s4.6-2.6,5.9-4.4c1.3-1.8,2.2-4,2.7-6.5c0.3-1.6,0.5-4.5,0.5-8.5V74.4h-8.8V106
							c0,3.6-0.3,6.3-1,8c-0.7,1.8-1.9,3.2-3.6,4.2c-1.7,1.1-3.8,1.6-6.1,1.6c-3.8,0-7-1.2-9.7-3.6s-4.1-6.9-4.1-13.5V74.4H481.4z"
							/>
					</g>
					<g>
						<path id="ArialMT-73_00000158024171703134392000000015527859215240357042_" d="M533.5,89.9l8.7,1.4c0.5-3.5,1.8-6.1,4.1-8
							c2.2-1.9,5.3-2.8,9.4-2.8c4,0,7,0.8,9,2.5c2,1.6,2.9,3.6,2.9,5.8c0,2-0.9,3.5-2.6,4.7c-1.2,0.8-4.2,1.8-9,3
							c-6.4,1.6-10.9,3-13.4,4.2s-4.4,2.8-5.7,4.9c-1.3,2.1-1.9,4.4-1.9,7c0,2.3,0.5,4.4,1.6,6.4c1.1,2,2.5,3.6,4.3,4.9
							c1.4,1,3.2,1.8,5.6,2.5c2.4,0.7,4.9,1.1,7.6,1.1c4.1,0,7.6-0.6,10.7-1.8c3.1-1.2,5.4-2.8,6.8-4.8c1.5-2,2.5-4.7,3-8l-8.6-1.2
							c-0.4,2.7-1.5,4.7-3.4,6.2c-1.9,1.5-4.5,2.2-7.9,2.2c-4,0-6.9-0.7-8.6-2c-1.7-1.3-2.6-2.9-2.6-4.7c0-1.1,0.4-2.2,1.1-3.1
							c0.7-0.9,1.8-1.7,3.4-2.3c0.9-0.3,3.5-1.1,7.8-2.2c6.2-1.7,10.6-3,13-4.1c2.5-1.1,4.4-2.6,5.8-4.6c1.4-2,2.1-4.5,2.1-7.5
							c0-2.9-0.9-5.7-2.6-8.3c-1.7-2.6-4.2-4.6-7.4-6c-3.2-1.4-6.9-2.1-10.9-2.1c-6.7,0-11.9,1.4-15.4,4.2
							C536.7,80.3,534.5,84.4,533.5,89.9z"/>
					</g>
					<g>
						<path id="ArialMT-69" d="M587.1,135.9V146h8.8v-10.1H587.1z M587.1,74.4v51.9h8.8V74.4H587.1z"/>
					</g>
					<g>
						<path id="ArialMT-74_00000163777660680509217210000015171952171363535491_" d="M628.4,82.3l1.3-7.8c-2.5-0.5-4.7-0.8-6.6-0.8
							c-3.2,0-5.7,0.5-7.4,1.5c-1.8,1-3,2.3-3.7,4c-0.7,1.6-1.1,5.1-1.1,10.4v29.8h-6.4v6.8h6.4v12.8l8.7,5.3v-18.1h8.8v-6.8h-8.8
							V89.1c0-2.5,0.2-4.1,0.5-4.8c0.3-0.7,0.8-1.3,1.5-1.7c0.7-0.4,1.7-0.6,3-0.6C625.5,82,626.8,82.1,628.4,82.3z"/>
					</g>
					<g>
						<path id="ArialMT-79" d="M636.6,54.5l-1,8.2c1.9-0.5,3.6-0.8,5-0.8c2,0,3.5,0.3,4.7,1c1.2,0.6,2.1,1.6,2.9,2.7
							c0.6,0.9,1.4,3.1,2.7,6.5c0.2,0.5,0.4,1.2,0.8,2.2l-19.7,52h9.5l10.8-30c1.4-3.8,2.7-7.8,3.8-12c1,4,2.2,8,3.6,11.8l11.1,30.2
							h8.8l-19.7-52.7c-2.1-5.7-3.8-9.6-4.9-11.8c-1.6-2.9-3.4-5-5.4-6.4c-2-1.4-4.4-2-7.2-2C640.6,53.4,638.7,53.8,636.6,54.5z"/>
					</g>
				</g>
			</g>
		</g>
		<g id="line2d_15" class="st0">
			<g class="st3">
				<defs>
					<rect id="SVGID_1_" x="26.3" y="-4.5" width="55.8" height="190.3"/>
				</defs>
				<clipPath id="SVGID_00000031900745701193906360000012228279048647634872_">
					<use xlink:href="#SVGID_1_"  style="overflow:visible;"/>
				</clipPath>
				
					<path style="clip-path:url(#SVGID_00000031900745701193906360000012228279048647634872_);fill:none;stroke:#FFB14E;stroke-width:1.5;stroke-linecap:square;stroke-linejoin:round;" d="
					M26.2,152l0.5-1.3l0.5,0.1l0.5,0.6l0.5-0.9l0.5-0.8l0.5,0.5l0.5-1.8l0.5,2.6l0.5-1.2l0.5-0.2l0.5-0.4l0.5,0.3l0.5-0.3l0.5-0.1
					l0.5-0.5l0.5,1l0.5-0.3l0.5-0.1l0.5,0.4l0.5-0.5l0.5-0.4l0.5-0.3l0.5,1.5l0.5-1.2l0.5,1l0.5-0.7l0.5-1.7l0.5,1.4l0.5-0.2
					l0.5,0.1l0.5,1.1l0.5-1l0.5,0.4l0.5-0.3l0.5-0.5l0.5,0.5l0.5-2.1l0.5,1.7l0.5,0.4l0.5-0.3l0.5-1.3l0.5,0.1l0.5,0.8l0.5-1.7
					l0.5,0.5l0.5,2.6l0.5-0.6l0.5-0.4l0.5-0.9l0.5,2.3l0.5-0.6l0.5,0.4l0.5-0.7l0.5,0.1l0.5,0.5l0.5-0.3l0.5-1.2l0.5,0.5l0.5,0.8
					l0.5,1.1L56,150l0.5,0.2L57,150l0.5,0.4l0.5-0.3l0.5,0.5l0.5,0l0.5-0.2l0.5,1l0.5-0.3l0.5,0.1l0.5,0.7l0.5-1.1l0.5,0l0.5,0.3
					l0.5,1l0.5,1.2l0.5-1.4l0.5,0.4l0.5-0.6l0.5,2.7l0.5-1.4l0.5-1.8l0.5,1.8l0.5,0.7l0.5,0.8l0.5-1.9l0.5,2.7l0.5-1.1l0.5,0.4
					l0.5-1.1l0.5,2.4l0.5-0.9l0.5,0.9l0.5-0.2l0.5-0.9l0.5,1.8l0.5,0.5l0.5-1.4l0.5-0.3l0.5,1l0.5-1l0.5,1.2l0.5-0.2l0.5,1.5
					l0.5,0.2l0.5,0l0.5-0.3l0.5-0.5l0.5,1.3l0.5,0l0.5,0l0.5,0.8l0.5,0.3l0.5-0.6"/>
			</g>
		</g>
		<g id="line2d_16" class="st0">
			<g class="st3">
				<defs>
					<rect id="SVGID_00000175318115926301857770000001322402460598094499_" x="26.3" y="-4.5" width="55.8" height="190.3"/>
				</defs>
				<clipPath id="SVGID_00000140696950901727727570000004552832410524206012_">
					<use xlink:href="#SVGID_00000175318115926301857770000001322402460598094499_"  style="overflow:visible;"/>
				</clipPath>
				
					<path style="clip-path:url(#SVGID_00000140696950901727727570000004552832410524206012_);fill:none;stroke:#008E00;stroke-width:1.5;stroke-linecap:square;stroke-linejoin:round;" d="
					M26.2,150.7l0.5-0.4l0.5,0.5l0.5-1.7l0.5-0.4l0.5-5.2l0.5-3l0.5-2.6l0.5-0.3l0.5,5.6l0.5,5.1l0.5,3.4l0.5,0.5l0.5,0.7l0.5-1.3
					l0.5,1.1l0.5-0.4l0.5,0.7l0.5-1.1l0.5,1.4l0.5,0.1l0.5-1L37,154l0.5-0.5l0.5,1.9l0.5-0.2l0.5-2.1l0.5,0.7l0.5,0.2l0.5,0.3
					l0.5,0.2l0.5-1.6l0.5,0.3l0.5-0.3l0.5,1.4l0.5,0.2l0.5-1.4l0.5-0.3l0.5,0.2l0.5-0.4l0.5,1.3l0.5-0.1l0.5-0.6l0.5,1.6l0.5-0.9
					l0.5-1l0.5,0.6l0.5,1.6l0.5-1.8l0.5,1.6l0.5-1.6h0.5l0.5,0.4l0.5,0.4l0.5,0.7l0.5-1.1l0.5,0.9l0.5-0.6l0.5,1.1l0.5-0.5l0.5,0
					l0.5-1.4l0.5,0.6l0.5,0.9l0.5-0.1l0.5-0.8l0.5,1l0.5,1.2l0.5,0.7l0.5-1l0.5,0.8l0.5-1.2l0.5,1.7l0.5-0.3l0.5,0l0.5-1.2l0.5,1.7
					l0.5-0.7l0.5,0.1l0.5-1.1l0.5-0.1l0.5,1.5l0.5-0.3l0.5-0.1l0.5,1.4l0.5-0.5l0.5-0.8l0.5-0.2l0.5,0.1l0.5,0.3l0.5-1.1l0.5-1.2
					l0.5-0.2l0.5-2.5l0.5-2.5l0.5-0.4l0.5,1.1l0.5,2.8l0.5,2.6l0.5,2.1l0.5,1.8l0.5-0.6l0.5,0.6l0.5-0.2l0.5-0.8l0.5,1.7l0.5,0.8
					l0.5,0.8l0.5-0.4l0.5,0.5l0.5-0.6l0.5,1l0.5-1.2l0.5,0.8l0.5-1l0.5,1.2"/>
			</g>
		</g>
		<g id="line2d_17" class="st0">
			<g class="st3">
				<defs>
					<rect id="SVGID_00000070820382495921144060000017260526424856886449_" x="26.3" y="-4.5" width="55.8" height="190.3"/>
				</defs>
				<clipPath id="SVGID_00000134248624105662404900000010216772022325054606_">
					<use xlink:href="#SVGID_00000070820382495921144060000017260526424856886449_"  style="overflow:visible;"/>
				</clipPath>
				
					<path style="clip-path:url(#SVGID_00000134248624105662404900000010216772022325054606_);fill:none;stroke:#000000;stroke-width:1.5;stroke-linecap:square;stroke-linejoin:round;" d="
					M26.2,153.4l0.5-1.4l0.5-2.3l0.5-0.8l0.5-3.2l0.5-5.2l0.5-4l0.5-4l0.5,7.7l0.5,8.7l0.5,4.5l0.5,1.4l0.5-0.1l0.5,0.8l0.5,1.1
					l0.5-0.4l0.5,0.7l0.5-1.5l0.5,1.5l0.5,0.9l0.5-0.5l0.5-0.8l0.5,0.4l0.5-0.4l0.5,1.6l0.5-0.6l0.5-0.2l0.5-0.9l0.5-0.1l0.5,0.6
					l0.5,0.1l0.5-0.1l0.5-0.8l0.5,1.8l0.5-0.7l0.5,0.6l0.5-0.6l0.5-0.1l0.5,0.5l0.5-0.9l0.5,0.8l0.5-2.2l0.5,1.9l0.5,1.6l0.5-1.2
					l0.5,1.1l0.5-1l0.5-0.3l0.5-1.3l0.5,1.6l0.5,0.2l0.5,0.4l0.5,0.3l0.5-0.5l0.5,0.2l0.5,0.9l0.5,0.2l0.5-1.2l0.5-0.6l0.5,0
					l0.5,0.9l0.5-0.4l0.5-0.3l0.5,0.8l0.5-0.2L58,158l0.5,0.7l0.5,0.5l0.5,0.2l0.5,0.8l0.5-0.6l0.5-0.4l0.5,1.4l0.5,0l0.5-1.1
					l0.5,1.4l0.5-0.6l0.5,1.8l0.5-0.8l0.5-0.3l0.5-0.6l0.5-0.1l0.5,0.2l0.5-0.6l0.5,1.2l0.5-0.5l0.5-0.1l0.5-0.7l0.5-1.1l0.5,1.2
					l0.5-1.2l0.5-1.7l0.5-2.4l0.5-4.3l0.5-0.8l0.5-0.8l0.5,5.4l0.5,3.2l0.5,4l0.5,0.1l0.5,1.8l0.5,0l0.5,2.1l0.5-1.8l0.5-0.4
					l0.5,1.3l0.5,0.6l0.5-1.4l0.5,2.2l0.5-1.1l0.5-0.6l0.5,0.7l0.5-0.2l0.5,0.2l0.5,1.3l0.5-1.2"/>
			</g>
		</g>
		<g id="patch_3" class="st0">
			<path class="st9" d="M26.3,185.8V-4.5"/>
		</g>
		<g id="patch_4" class="st0">
			<path class="st9" d="M26.3,185.8h55.8"/>
		</g>
		<g id="text_5" class="st0">
			<g transform="translate(46.496719 17.220937) scale(0.14 -0.14)" class="st3">
				<g>
					<path id="ArialMT-4d" d="M-40.4,198v71.6h14.3l16.9-50.7c1.6-4.7,2.7-8.3,3.4-10.6c0.8,2.6,2.1,6.4,3.8,11.5l17.1,49.8h12.8
						V198h-9.1v59.9L-2.1,198h-8.5l-20.7,60.9V198H-40.4z"/>
				</g>
				<g>
					<path id="ArialMT-2d" d="M38.6,219.5v8.8h27v-8.8H38.6z"/>
				</g>
				<g>
					<path id="ArialMT-41" d="M68.6,198l27.5,71.6h10.2l29.3-71.6h-10.8l-8.4,21.7H86.5L78.7,198H68.6z M89.3,227.4h24.3l-7.5,19.8
						c-2.3,6-4,11-5.1,14.8c-0.9-4.6-2.2-9.2-3.9-13.7L89.3,227.4z"/>
				</g>
				<g>
					<path id="ArialMT-6c" d="M141.8,198v71.6h8.8V198H141.8z"/>
				</g>
			</g>
		</g>
		<g id="legend_1">
			<g id="patch_5">
				<path class="st10" d="M2.5,46.4h72.6c1.3,0,2-0.7,2-2V2.5c0-1.3-0.7-2-2-2H2.5c-1.3,0-2,0.7-2,2v41.9
					C0.5,45.7,1.2,46.4,2.5,46.4z"/>
			</g>
			<g id="line2d_18">
				<path class="st11" d="M4.5,8.2h10h10"/>
			</g>
			<g id="text_6">
				<g transform="translate(39.2 39.408437) scale(0.1 -0.1)">
					<g>
						<path id="ArialMT-34" d="M-34.7,277.2v17.1h-31.1v8.1l32.7,46.4h7.2v-46.4h9.7v-8.1h-9.7v-17.1H-34.7z M-34.7,302.4v32.3
							l-22.4-32.3H-34.7z"/>
					</g>
					<g>
						<path id="ArialMT-37" d="M-6.7,339.4v8.5h46.3V341c-4.6-4.8-9.1-11.3-13.6-19.3c-4.5-8-7.9-16.3-10.4-24.8
							c-1.8-6-2.9-12.5-3.4-19.7h-9c0.1,5.6,1.2,12.4,3.3,20.4c2.1,8,5.2,15.7,9.1,23.1s8.2,13.6,12.6,18.7H-6.7z"/>
					</g>
					<g>
						<path id="ArialMT-30_00000135678515360524666100000006602658459516922764_" d="M48.4,312.5c0,8.5,0.9,15.3,2.6,20.4
							c1.7,5.2,4.3,9.1,7.8,11.9c3.4,2.8,7.8,4.2,13,4.2c3.8,0,7.2-0.8,10.1-2.3c2.9-1.5,5.3-3.8,7.2-6.7c1.9-2.9,3.4-6.5,4.5-10.6
							c1.1-4.2,1.6-9.8,1.6-16.9c0-8.4-0.9-15.2-2.6-20.3c-1.7-5.2-4.3-9.1-7.7-12c-3.4-2.8-7.8-4.2-13-4.2
							c-6.9,0-12.3,2.5-16.2,7.4C50.7,289.4,48.4,299.1,48.4,312.5z M57.4,312.5c0-11.8,1.4-19.6,4.1-23.5c2.8-3.9,6.1-5.8,10.2-5.8
							c4,0,7.4,2,10.2,5.9s4.1,11.7,4.1,23.4c0,11.8-1.4,19.6-4.1,23.5c-2.8,3.9-6.2,5.8-10.3,5.8c-4,0-7.3-1.7-9.7-5.1
							C58.9,332.3,57.4,324.3,57.4,312.5z"/>
					</g>
					<g>
						<path id="ArialMT-20_00000013171384291047911470000004120523725005922494_" d="M99.8,277.2"/>
					</g>
					<g>
						<path id="ArialMT-64_00000005258142892944325630000016677138244217299894_" d="M167.9,277.2v6.5c-3.3-5.1-8.1-7.7-14.5-7.7
							c-4.1,0-7.9,1.1-11.4,3.4s-6.2,5.5-8.1,9.5c-1.9,4.1-2.8,8.8-2.8,14.1c0,5.2,0.9,9.9,2.6,14.1c1.7,4.2,4.3,7.4,7.8,9.7
							c3.5,2.2,7.3,3.4,11.6,3.4c3.1,0,5.9-0.7,8.3-2c2.4-1.3,4.4-3,6-5.1v25.7h8.7v-71.6H167.9z M140.1,303.1
							c0-6.6,1.4-11.6,4.2-14.9c2.8-3.3,6.1-4.9,9.9-4.9c3.8,0,7.1,1.6,9.8,4.7c2.7,3.1,4,7.9,4,14.4c0,7.1-1.4,12.3-4.1,15.6
							c-2.7,3.3-6.1,5-10.1,5c-3.9,0-7.2-1.6-9.8-4.8C141.4,315,140.1,310,140.1,303.1z"/>
					</g>
					<g>
						<path id="ArialMT-61" d="M223.7,283.6c-3.3-2.8-6.4-4.7-9.4-5.9c-3-1.1-6.2-1.7-9.7-1.7c-5.7,0-10.1,1.4-13.1,4.2
							s-4.6,6.3-4.6,10.7c0,2.5,0.6,4.9,1.7,7c1.2,2.1,2.7,3.8,4.5,5.1s4,2.2,6.3,2.9c1.7,0.5,4.3,0.9,7.8,1.3
							c7.1,0.8,12.3,1.8,15.7,3c0,1.2,0,2,0,2.3c0,3.6-0.8,6.1-2.5,7.6c-2.2,2-5.6,3-10,3c-4.1,0-7.2-0.7-9.2-2.2s-3.4-4-4.4-7.7
							l-8.6,1.2c0.8,3.7,2.1,6.6,3.9,8.9c1.8,2.3,4.4,4,7.8,5.2c3.4,1.2,7.3,1.8,11.8,1.8c4.4,0,8-0.5,10.8-1.6
							c2.8-1,4.8-2.4,6.1-3.9c1.3-1.6,2.2-3.6,2.7-6c0.3-1.5,0.4-4.2,0.4-8.1v-11.7c0-8.2,0.2-13.3,0.6-15.5
							c0.4-2.2,1.1-4.2,2.2-6.2h-9.2C224.5,279,223.9,281.2,223.7,283.6z M222.9,303.2c-3.2-1.3-8-2.4-14.4-3.3
							c-3.6-0.5-6.2-1.1-7.7-1.8c-1.5-0.6-2.6-1.6-3.5-2.8c-0.8-1.2-1.2-2.6-1.2-4.2c0-2.3,0.9-4.3,2.7-5.9c1.8-1.6,4.4-2.3,7.8-2.3
							c3.4,0,6.4,0.7,9,2.2c2.6,1.5,4.6,3.5,5.8,6.1c0.9,2,1.4,4.9,1.4,8.8V303.2z"/>
					</g>
					<g>
						<path id="ArialMT-79_00000126298406156977941950000006674000485527879356_" d="M245.1,257.2l-1,8.2c1.9-0.5,3.6-0.8,5-0.8
							c2,0,3.5,0.3,4.7,1c1.2,0.6,2.1,1.6,2.9,2.7c0.6,0.9,1.4,3.1,2.7,6.5c0.2,0.5,0.4,1.2,0.8,2.2l-19.7,52h9.5l10.8-30
							c1.4-3.8,2.7-7.8,3.8-12c1,4,2.2,8,3.6,11.8l11.1,30.2h8.8l-19.7-52.7c-2.1-5.7-3.8-9.6-4.9-11.8c-1.6-2.9-3.4-5-5.4-6.4
							c-2-1.4-4.4-2-7.2-2C249,256.2,247.1,256.5,245.1,257.2z"/>
					</g>
					<g>
						<path id="ArialMT-73_00000164489996150070065770000012042032376555633574_" d="M291.9,292.7l8.7,1.4c0.5-3.5,1.8-6.1,4.1-8
							s5.3-2.8,9.4-2.8c4,0,7,0.8,9,2.5c2,1.6,2.9,3.6,2.9,5.8c0,2-0.9,3.5-2.6,4.7c-1.2,0.8-4.2,1.8-9,3c-6.4,1.6-10.9,3-13.4,4.2
							c-2.5,1.2-4.4,2.8-5.7,4.9c-1.3,2.1-1.9,4.4-1.9,7c0,2.3,0.5,4.4,1.6,6.4c1.1,2,2.5,3.6,4.3,4.9c1.4,1,3.2,1.8,5.6,2.5
							c2.4,0.7,4.9,1.1,7.6,1.1c4.1,0,7.6-0.6,10.7-1.8c3.1-1.2,5.4-2.8,6.8-4.8c1.5-2,2.5-4.7,3-8l-8.6-1.2
							c-0.4,2.7-1.5,4.7-3.4,6.2c-1.9,1.5-4.5,2.2-7.9,2.2c-4,0-6.9-0.7-8.6-2s-2.6-2.9-2.6-4.7c0-1.1,0.4-2.2,1.1-3.1
							c0.7-0.9,1.8-1.7,3.4-2.3c0.9-0.3,3.5-1.1,7.8-2.2c6.2-1.7,10.6-3,13-4.1c2.5-1.1,4.4-2.6,5.8-4.6c1.4-2,2.1-4.5,2.1-7.5
							c0-2.9-0.9-5.7-2.6-8.3c-1.7-2.6-4.2-4.6-7.4-6c-3.2-1.4-6.9-2.1-10.9-2.1c-6.7,0-11.9,1.4-15.4,4.2S292.9,287.2,291.9,292.7z
							"/>
					</g>
				</g>
			</g>
			<g id="line2d_19">
				<path class="st12" d="M4.5,22.5h10h10"/>
			</g>
			<g id="text_7">
				<g transform="translate(39.2 53.700625) scale(0.1 -0.1)">
					<g>
						<path id="ArialMT-32_00000124882272440256126900000006345328969075927950_" d="M-16.7,285.7v-8.5H-64c-0.1,2.1,0.3,4.2,1,6.1
							c1.2,3.2,3.1,6.4,5.8,9.5c2.7,3.1,6.5,6.7,11.5,10.8c7.8,6.4,13,11.4,15.8,15.2c2.7,3.7,4.1,7.3,4.1,10.6
							c0,3.5-1.2,6.4-3.8,8.8c-2.5,2.4-5.7,3.6-9.7,3.6c-4.2,0-7.6-1.3-10.2-3.8c-2.5-2.5-3.8-6-3.9-10.5l-9,0.9
							c0.6,6.7,2.9,11.9,7,15.4c4,3.5,9.5,5.3,16.3,5.3c6.9,0,12.3-1.9,16.3-5.7c4-3.8,6-8.5,6-14.2c0-2.9-0.6-5.7-1.8-8.5
							c-1.2-2.8-3.1-5.7-5.8-8.7s-7.2-7.3-13.5-12.6c-5.3-4.4-8.7-7.4-10.2-9c-1.5-1.6-2.7-3.2-3.7-4.8H-16.7z"/>
					</g>
					<g>
						<path id="ArialMT-38" d="M6.3,316c-3.6,1.3-6.3,3.2-8.1,5.7c-1.8,2.5-2.6,5.4-2.6,8.9c0,5.2,1.9,9.6,5.6,13.1
							c3.8,3.6,8.7,5.3,14.9,5.3c6.2,0,11.3-1.8,15.1-5.5c3.8-3.6,5.7-8,5.7-13.2c0-3.3-0.9-6.2-2.6-8.7c-1.7-2.4-4.4-4.3-7.9-5.7
							c4.4-1.4,7.7-3.7,10-6.9c2.3-3.2,3.4-7,3.4-11.4c0-6.1-2.2-11.3-6.5-15.4c-4.3-4.2-10-6.2-17.1-6.2s-12.8,2.1-17.1,6.3
							c-4.3,4.2-6.5,9.4-6.5,15.7c0,4.7,1.2,8.6,3.5,11.7C-1.4,312.7,1.9,314.9,6.3,316z M4.5,330.9c0-3.4,1.1-6.2,3.3-8.3
							c2.2-2.1,5-3.2,8.5-3.2c3.4,0,6.2,1.1,8.3,3.2c2.2,2.1,3.2,4.8,3.2,7.8c0,3.2-1.1,5.9-3.4,8.1c-2.2,2.2-5,3.3-8.3,3.3
							c-3.4,0-6.1-1.1-8.4-3.2C5.6,336.5,4.5,333.9,4.5,330.9z M1.7,297.9c0-2.5,0.6-4.9,1.8-7.3s3-4.2,5.3-5.5
							c2.3-1.3,4.9-1.9,7.6-1.9c4.2,0,7.7,1.3,10.4,4c2.7,2.7,4.1,6.1,4.1,10.3c0,4.2-1.4,7.7-4.2,10.5c-2.8,2.8-6.3,4.2-10.6,4.2
							c-4.1,0-7.6-1.4-10.3-4.1C3.1,305.4,1.7,302,1.7,297.9z"/>
					</g>
					<g>
						<path id="ArialMT-20_00000152975074945423281690000015545066736490613658_" d="M44.2,277.2"/>
					</g>
					<g>
						<path id="ArialMT-64_00000167381864157606987980000014041030414328870319_" d="M112.2,277.2v6.5c-3.3-5.1-8.1-7.7-14.5-7.7
							c-4.1,0-7.9,1.1-11.4,3.4s-6.2,5.5-8.1,9.5c-1.9,4.1-2.8,8.8-2.8,14.1c0,5.2,0.9,9.9,2.6,14.1c1.7,4.2,4.3,7.4,7.8,9.7
							c3.5,2.2,7.3,3.4,11.6,3.4c3.1,0,5.9-0.7,8.3-2c2.4-1.3,4.4-3,6-5.1v25.7h8.7v-71.6H112.2z M84.5,303.1
							c0-6.6,1.4-11.6,4.2-14.9c2.8-3.3,6.1-4.9,9.9-4.9c3.8,0,7.1,1.6,9.8,4.7c2.7,3.1,4,7.9,4,14.4c0,7.1-1.4,12.3-4.1,15.6
							c-2.7,3.3-6.1,5-10.1,5c-3.9,0-7.2-1.6-9.8-4.8C85.8,315,84.5,310,84.5,303.1z"/>
					</g>
					<g>
						<path id="ArialMT-61_00000085946174128622549700000016569759234841140104_" d="M168.1,283.6c-3.3-2.8-6.4-4.7-9.4-5.9
							c-3-1.1-6.2-1.7-9.7-1.7c-5.7,0-10.1,1.4-13.1,4.2s-4.6,6.3-4.6,10.7c0,2.5,0.6,4.9,1.7,7c1.2,2.1,2.7,3.8,4.5,5.1
							c1.9,1.3,4,2.2,6.3,2.9c1.7,0.5,4.3,0.9,7.8,1.3c7.1,0.8,12.3,1.8,15.7,3c0,1.2,0,2,0,2.3c0,3.6-0.8,6.1-2.5,7.6
							c-2.2,2-5.6,3-10,3c-4.1,0-7.2-0.7-9.2-2.2c-2-1.4-3.4-4-4.4-7.7l-8.6,1.2c0.8,3.7,2.1,6.6,3.9,8.9c1.8,2.3,4.4,4,7.8,5.2
							c3.4,1.2,7.3,1.8,11.8,1.8c4.4,0,8-0.5,10.8-1.6c2.8-1,4.8-2.4,6.1-3.9c1.3-1.6,2.2-3.6,2.7-6c0.3-1.5,0.4-4.2,0.4-8.1v-11.7
							c0-8.2,0.2-13.3,0.6-15.5c0.4-2.2,1.1-4.2,2.2-6.2h-9.2C168.9,279,168.3,281.2,168.1,283.6z M167.3,303.2
							c-3.2-1.3-8-2.4-14.4-3.3c-3.6-0.5-6.2-1.1-7.7-1.8c-1.5-0.6-2.6-1.6-3.5-2.8c-0.8-1.2-1.2-2.6-1.2-4.2c0-2.3,0.9-4.3,2.7-5.9
							c1.8-1.6,4.4-2.3,7.8-2.3c3.4,0,6.4,0.7,9,2.2c2.6,1.5,4.6,3.5,5.8,6.1c0.9,2,1.4,4.9,1.4,8.8V303.2z"/>
					</g>
					<g>
						<path id="ArialMT-79_00000047031051912339447250000010801422566624388781_" d="M189.4,257.2l-1,8.2c1.9-0.5,3.6-0.8,5-0.8
							c2,0,3.5,0.3,4.7,1c1.2,0.6,2.1,1.6,2.9,2.7c0.6,0.9,1.4,3.1,2.7,6.5c0.2,0.5,0.4,1.2,0.8,2.2l-19.7,52h9.5l10.8-30
							c1.4-3.8,2.7-7.8,3.8-12c1,4,2.2,8,3.6,11.8l11.1,30.2h8.8l-19.7-52.7c-2.1-5.7-3.8-9.6-4.9-11.8c-1.6-2.9-3.4-5-5.4-6.4
							c-2-1.4-4.4-2-7.2-2C193.4,256.2,191.5,256.5,189.4,257.2z"/>
					</g>
					<g>
						<path id="ArialMT-73_00000157290056267768889160000008836916795586199186_" d="M236.3,292.7l8.7,1.4c0.5-3.5,1.8-6.1,4.1-8
							c2.2-1.9,5.3-2.8,9.4-2.8c4,0,7,0.8,9,2.5c2,1.6,2.9,3.6,2.9,5.8c0,2-0.9,3.5-2.6,4.7c-1.2,0.8-4.2,1.8-9,3
							c-6.4,1.6-10.9,3-13.4,4.2c-2.5,1.2-4.4,2.8-5.7,4.9c-1.3,2.1-1.9,4.4-1.9,7c0,2.3,0.5,4.4,1.6,6.4c1.1,2,2.5,3.6,4.3,4.9
							c1.4,1,3.2,1.8,5.6,2.5c2.4,0.7,4.9,1.1,7.6,1.1c4.1,0,7.6-0.6,10.7-1.8c3.1-1.2,5.4-2.8,6.8-4.8c1.5-2,2.5-4.7,3-8l-8.6-1.2
							c-0.4,2.7-1.5,4.7-3.4,6.2c-1.9,1.5-4.5,2.2-7.9,2.2c-4,0-6.9-0.7-8.6-2c-1.7-1.3-2.6-2.9-2.6-4.7c0-1.1,0.4-2.2,1.1-3.1
							c0.7-0.9,1.8-1.7,3.4-2.3c0.9-0.3,3.5-1.1,7.8-2.2c6.2-1.7,10.6-3,13-4.1c2.5-1.1,4.4-2.6,5.8-4.6c1.4-2,2.1-4.5,2.1-7.5
							c0-2.9-0.9-5.7-2.6-8.3c-1.7-2.6-4.2-4.6-7.4-6c-3.2-1.4-6.9-2.1-10.9-2.1c-6.7,0-11.9,1.4-15.4,4.2
							C239.6,283,237.3,287.2,236.3,292.7z"/>
					</g>
				</g>
			</g>
			<g id="line2d_20">
				<path class="st13" d="M4.5,36.8h10h10"/>
			</g>
			<g id="text_8">
				<g transform="translate(39.2 67.992812) scale(0.1 -0.1)">
					<g>
						<path id="ArialMT-31_00000019659604462351427470000005888060482901312164_" d="M-29.8,277.2h-8.8v56c-2.1-2-4.9-4-8.3-6
							c-3.4-2-6.5-3.5-9.2-4.5v8.5c4.9,2.3,9.2,5.1,12.9,8.4c3.7,3.3,6.3,6.5,7.8,9.6h5.7V277.2z"/>
					</g>
					<g>
						<path id="ArialMT-20_00000013875975012383840350000002229634956746531763_" d="M-11.4,277.2"/>
					</g>
					<g>
						<path id="ArialMT-64_00000135672011296329308840000006858311632967946421_" d="M56.6,277.2v6.5c-3.3-5.1-8.1-7.7-14.5-7.7
							c-4.1,0-7.9,1.1-11.4,3.4c-3.5,2.3-6.2,5.5-8.1,9.5c-1.9,4.1-2.8,8.8-2.8,14.1c0,5.2,0.9,9.9,2.6,14.1
							c1.7,4.2,4.3,7.4,7.8,9.7c3.5,2.2,7.3,3.4,11.6,3.4c3.1,0,5.9-0.7,8.3-2c2.4-1.3,4.4-3,6-5.1v25.7h8.7v-71.6H56.6z
							 M28.9,303.1c0-6.6,1.4-11.6,4.2-14.9c2.8-3.3,6.1-4.9,9.9-4.9c3.8,0,7.1,1.6,9.8,4.7c2.7,3.1,4,7.9,4,14.4
							c0,7.1-1.4,12.3-4.1,15.6c-2.7,3.3-6.1,5-10.1,5c-3.9,0-7.2-1.6-9.8-4.8C30.2,315,28.9,310,28.9,303.1z"/>
					</g>
					<g>
						<path id="ArialMT-61_00000120524087499065244240000001069400687130538681_" d="M112.5,283.6c-3.3-2.8-6.4-4.7-9.4-5.9
							c-3-1.1-6.2-1.7-9.7-1.7c-5.7,0-10.1,1.4-13.1,4.2s-4.6,6.3-4.6,10.7c0,2.5,0.6,4.9,1.7,7c1.2,2.1,2.7,3.8,4.5,5.1
							s4,2.2,6.3,2.9c1.7,0.5,4.3,0.9,7.8,1.3c7.1,0.8,12.3,1.8,15.7,3c0,1.2,0,2,0,2.3c0,3.6-0.8,6.1-2.5,7.6c-2.2,2-5.6,3-10,3
							c-4.1,0-7.2-0.7-9.2-2.2c-2-1.4-3.4-4-4.4-7.7l-8.6,1.2c0.8,3.7,2.1,6.6,3.9,8.9c1.8,2.3,4.4,4,7.8,5.2
							c3.4,1.2,7.3,1.8,11.8,1.8c4.4,0,8-0.5,10.8-1.6c2.8-1,4.8-2.4,6.1-3.9c1.3-1.6,2.2-3.6,2.7-6c0.3-1.5,0.4-4.2,0.4-8.1v-11.7
							c0-8.2,0.2-13.3,0.6-15.5c0.4-2.2,1.1-4.2,2.2-6.2h-9.2C113.3,279,112.7,281.2,112.5,283.6z M111.7,303.2
							c-3.2-1.3-8-2.4-14.4-3.3c-3.6-0.5-6.2-1.1-7.7-1.8c-1.5-0.6-2.6-1.6-3.5-2.8c-0.8-1.2-1.2-2.6-1.2-4.2c0-2.3,0.9-4.3,2.7-5.9
							c1.8-1.6,4.4-2.3,7.8-2.3c3.4,0,6.4,0.7,9,2.2c2.6,1.5,4.6,3.5,5.8,6.1c0.9,2,1.4,4.9,1.4,8.8V303.2z"/>
					</g>
					<g>
						<path id="ArialMT-79_00000140734191910608995590000008951927397226552767_" d="M133.8,257.2l-1,8.2c1.9-0.5,3.6-0.8,5-0.8
							c2,0,3.5,0.3,4.7,1c1.2,0.6,2.1,1.6,2.9,2.7c0.6,0.9,1.4,3.1,2.7,6.5c0.2,0.5,0.4,1.2,0.8,2.2l-19.7,52h9.5l10.8-30
							c1.4-3.8,2.7-7.8,3.8-12c1,4,2.2,8,3.6,11.8l11.1,30.2h8.8L157,276.3c-2.1-5.7-3.8-9.6-4.9-11.8c-1.6-2.9-3.4-5-5.4-6.4
							c-2-1.4-4.4-2-7.2-2C137.8,256.2,135.9,256.5,133.8,257.2z"/>
					</g>
				</g>
			</g>
		</g>
	</g>
</g>
</svg>
