<?xml version="1.0" encoding="utf-8" standalone="no"?>
<!DOCTYPE svg PUBLIC "-//W3C//DTD SVG 1.1//EN"
  "http://www.w3.org/Graphics/SVG/1.1/DTD/svg11.dtd">
<svg xmlns:xlink="http://www.w3.org/1999/xlink" width="145.935625pt" height="253.629687pt" viewBox="0 0 145.935625 253.629687" xmlns="http://www.w3.org/2000/svg" version="1.1">
 <metadata>
  <rdf:RDF xmlns:dc="http://purl.org/dc/elements/1.1/" xmlns:cc="http://creativecommons.org/ns#" xmlns:rdf="http://www.w3.org/1999/02/22-rdf-syntax-ns#">
   <cc:Work>
    <dc:type rdf:resource="http://purl.org/dc/dcmitype/StillImage"/>
    <dc:date>2023-10-06T13:47:21.451146</dc:date>
    <dc:format>image/svg+xml</dc:format>
    <dc:creator>
     <cc:Agent>
      <dc:title>Matplotlib v3.7.1, https://matplotlib.org/</dc:title>
     </cc:Agent>
    </dc:creator>
   </cc:Work>
  </rdf:RDF>
 </metadata>
 <defs>
  <style type="text/css">*{stroke-linejoin: round; stroke-linecap: butt}</style>
 </defs>
 <g id="figure_1">
  <g id="patch_1">
   <path d="M -0 253.629687 
L 145.935625 253.629687 
L 145.935625 -0 
L -0 -0 
z
" style="fill: #ffffff"/>
  </g>
  <g id="axes_1">
   <g id="patch_2">
    <path d="M 27.6675 213.480937 
L 125.3175 213.480937 
L 125.3175 23.220937 
L 27.6675 23.220937 
z
" style="fill: #ffffff"/>
   </g>
   <g id="matplotlib.axis_1">
    <g id="xtick_1">
     <g id="line2d_1">
      <defs>
       <path id="m2a24d49de3" d="M 0 0 
L 0 3.5 
" style="stroke: #000000; stroke-width: 0.8"/>
      </defs>
      <g>
       <use xlink:href="#m2a24d49de3" x="60.2175" y="213.480937" style="stroke: #000000; stroke-width: 0.8"/>
      </g>
     </g>
     <g id="text_1">
      <!-- 10 -->
      <g transform="translate(54.656562 227.63875) scale(0.1 -0.1)">
       <defs>
        <path id="ArialMT-31" d="M 2384 0 
L 1822 0 
L 1822 3584 
Q 1619 3391 1289 3197 
Q 959 3003 697 2906 
L 697 3450 
Q 1169 3672 1522 3987 
Q 1875 4303 2022 4600 
L 2384 4600 
L 2384 0 
z
" transform="scale(0.015625)"/>
        <path id="ArialMT-30" d="M 266 2259 
Q 266 3072 433 3567 
Q 600 4063 929 4331 
Q 1259 4600 1759 4600 
Q 2128 4600 2406 4451 
Q 2684 4303 2865 4023 
Q 3047 3744 3150 3342 
Q 3253 2941 3253 2259 
Q 3253 1453 3087 958 
Q 2922 463 2592 192 
Q 2263 -78 1759 -78 
Q 1097 -78 719 397 
Q 266 969 266 2259 
z
M 844 2259 
Q 844 1131 1108 757 
Q 1372 384 1759 384 
Q 2147 384 2411 759 
Q 2675 1134 2675 2259 
Q 2675 3391 2411 3762 
Q 2147 4134 1753 4134 
Q 1366 4134 1134 3806 
Q 844 3388 844 2259 
z
" transform="scale(0.015625)"/>
       </defs>
       <use xlink:href="#ArialMT-31"/>
       <use xlink:href="#ArialMT-30" x="55.615234"/>
      </g>
     </g>
    </g>
    <g id="xtick_2">
     <g id="line2d_2">
      <g>
       <use xlink:href="#m2a24d49de3" x="103.6175" y="213.480937" style="stroke: #000000; stroke-width: 0.8"/>
      </g>
     </g>
     <g id="text_2">
      <!-- 12 -->
      <g transform="translate(98.056563 227.63875) scale(0.1 -0.1)">
       <defs>
        <path id="ArialMT-32" d="M 3222 541 
L 3222 0 
L 194 0 
Q 188 203 259 391 
Q 375 700 629 1000 
Q 884 1300 1366 1694 
Q 2113 2306 2375 2664 
Q 2638 3022 2638 3341 
Q 2638 3675 2398 3904 
Q 2159 4134 1775 4134 
Q 1369 4134 1125 3890 
Q 881 3647 878 3216 
L 300 3275 
Q 359 3922 746 4261 
Q 1134 4600 1788 4600 
Q 2447 4600 2831 4234 
Q 3216 3869 3216 3328 
Q 3216 3053 3103 2787 
Q 2991 2522 2730 2228 
Q 2469 1934 1863 1422 
Q 1356 997 1212 845 
Q 1069 694 975 541 
L 3222 541 
z
" transform="scale(0.015625)"/>
       </defs>
       <use xlink:href="#ArialMT-31"/>
       <use xlink:href="#ArialMT-32" x="55.615234"/>
      </g>
     </g>
    </g>
    <g id="xtick_3">
     <g id="line2d_3">
      <defs>
       <path id="mb68f812f05" d="M 0 0 
L 0 2 
" style="stroke: #000000; stroke-width: 0.6"/>
      </defs>
      <g>
       <use xlink:href="#mb68f812f05" x="27.6675" y="213.480937" style="stroke: #000000; stroke-width: 0.6"/>
      </g>
     </g>
    </g>
    <g id="xtick_4">
     <g id="line2d_4">
      <g>
       <use xlink:href="#mb68f812f05" x="38.5175" y="213.480937" style="stroke: #000000; stroke-width: 0.6"/>
      </g>
     </g>
    </g>
    <g id="xtick_5">
     <g id="line2d_5">
      <g>
       <use xlink:href="#mb68f812f05" x="49.3675" y="213.480937" style="stroke: #000000; stroke-width: 0.6"/>
      </g>
     </g>
    </g>
    <g id="xtick_6">
     <g id="line2d_6">
      <g>
       <use xlink:href="#mb68f812f05" x="71.0675" y="213.480937" style="stroke: #000000; stroke-width: 0.6"/>
      </g>
     </g>
    </g>
    <g id="xtick_7">
     <g id="line2d_7">
      <g>
       <use xlink:href="#mb68f812f05" x="81.9175" y="213.480937" style="stroke: #000000; stroke-width: 0.6"/>
      </g>
     </g>
    </g>
    <g id="xtick_8">
     <g id="line2d_8">
      <g>
       <use xlink:href="#mb68f812f05" x="92.7675" y="213.480937" style="stroke: #000000; stroke-width: 0.6"/>
      </g>
     </g>
    </g>
    <g id="xtick_9">
     <g id="line2d_9">
      <g>
       <use xlink:href="#mb68f812f05" x="114.4675" y="213.480937" style="stroke: #000000; stroke-width: 0.6"/>
      </g>
     </g>
    </g>
    <g id="xtick_10">
     <g id="line2d_10">
      <g>
       <use xlink:href="#mb68f812f05" x="125.3175" y="213.480937" style="stroke: #000000; stroke-width: 0.6"/>
      </g>
     </g>
    </g>
    <g id="text_3">
     <!-- 2θ -->
     <g transform="translate(68.707188 243.647187) scale(0.14 -0.14)">
      <defs>
       <path id="ArialMT-3b8" d="M 288 2291 
Q 288 4659 1781 4659 
Q 3275 4659 3275 2291 
Q 3275 -75 1781 -75 
Q 288 -75 288 2291 
z
M 869 2519 
L 2694 2519 
Q 2663 3497 2413 3847 
Q 2163 4197 1775 4197 
Q 903 4197 869 2519 
z
M 2694 2066 
L 869 2066 
Q 903 388 1781 388 
Q 2663 388 2694 2066 
z
" transform="scale(0.015625)"/>
      </defs>
      <use xlink:href="#ArialMT-32"/>
      <use xlink:href="#ArialMT-3b8" x="55.615234"/>
     </g>
    </g>
   </g>
   <g id="matplotlib.axis_2">
    <g id="ytick_1">
     <g id="line2d_11"/>
    </g>
    <g id="ytick_2">
     <g id="line2d_12"/>
    </g>
    <g id="ytick_3">
     <g id="line2d_13"/>
    </g>
    <g id="ytick_4">
     <g id="line2d_14"/>
    </g>
    <g id="ytick_5">
     <g id="line2d_15"/>
    </g>
    <g id="ytick_6">
     <g id="line2d_16"/>
    </g>
    <g id="ytick_7">
     <g id="line2d_17"/>
    </g>
    <g id="ytick_8">
     <g id="line2d_18"/>
    </g>
    <g id="ytick_9">
     <g id="line2d_19"/>
    </g>
    <g id="text_4">
     <!-- Intensity -->
     <g transform="translate(17.220938 144.418281) rotate(-90) scale(0.14 -0.14)">
      <defs>
       <path id="ArialMT-49" d="M 597 0 
L 597 4581 
L 1203 4581 
L 1203 0 
L 597 0 
z
" transform="scale(0.015625)"/>
       <path id="ArialMT-6e" d="M 422 0 
L 422 3319 
L 928 3319 
L 928 2847 
Q 1294 3394 1984 3394 
Q 2284 3394 2536 3286 
Q 2788 3178 2913 3003 
Q 3038 2828 3088 2588 
Q 3119 2431 3119 2041 
L 3119 0 
L 2556 0 
L 2556 2019 
Q 2556 2363 2490 2533 
Q 2425 2703 2258 2804 
Q 2091 2906 1866 2906 
Q 1506 2906 1245 2678 
Q 984 2450 984 1813 
L 984 0 
L 422 0 
z
" transform="scale(0.015625)"/>
       <path id="ArialMT-74" d="M 1650 503 
L 1731 6 
Q 1494 -44 1306 -44 
Q 1000 -44 831 53 
Q 663 150 594 308 
Q 525 466 525 972 
L 525 2881 
L 113 2881 
L 113 3319 
L 525 3319 
L 525 4141 
L 1084 4478 
L 1084 3319 
L 1650 3319 
L 1650 2881 
L 1084 2881 
L 1084 941 
Q 1084 700 1114 631 
Q 1144 563 1211 522 
Q 1278 481 1403 481 
Q 1497 481 1650 503 
z
" transform="scale(0.015625)"/>
       <path id="ArialMT-65" d="M 2694 1069 
L 3275 997 
Q 3138 488 2766 206 
Q 2394 -75 1816 -75 
Q 1088 -75 661 373 
Q 234 822 234 1631 
Q 234 2469 665 2931 
Q 1097 3394 1784 3394 
Q 2450 3394 2872 2941 
Q 3294 2488 3294 1666 
Q 3294 1616 3291 1516 
L 816 1516 
Q 847 969 1125 678 
Q 1403 388 1819 388 
Q 2128 388 2347 550 
Q 2566 713 2694 1069 
z
M 847 1978 
L 2700 1978 
Q 2663 2397 2488 2606 
Q 2219 2931 1791 2931 
Q 1403 2931 1139 2672 
Q 875 2413 847 1978 
z
" transform="scale(0.015625)"/>
       <path id="ArialMT-73" d="M 197 991 
L 753 1078 
Q 800 744 1014 566 
Q 1228 388 1613 388 
Q 2000 388 2187 545 
Q 2375 703 2375 916 
Q 2375 1106 2209 1216 
Q 2094 1291 1634 1406 
Q 1016 1563 777 1677 
Q 538 1791 414 1992 
Q 291 2194 291 2438 
Q 291 2659 392 2848 
Q 494 3038 669 3163 
Q 800 3259 1026 3326 
Q 1253 3394 1513 3394 
Q 1903 3394 2198 3281 
Q 2494 3169 2634 2976 
Q 2775 2784 2828 2463 
L 2278 2388 
Q 2241 2644 2061 2787 
Q 1881 2931 1553 2931 
Q 1166 2931 1000 2803 
Q 834 2675 834 2503 
Q 834 2394 903 2306 
Q 972 2216 1119 2156 
Q 1203 2125 1616 2013 
Q 2213 1853 2448 1751 
Q 2684 1650 2818 1456 
Q 2953 1263 2953 975 
Q 2953 694 2789 445 
Q 2625 197 2315 61 
Q 2006 -75 1616 -75 
Q 969 -75 630 194 
Q 291 463 197 991 
z
" transform="scale(0.015625)"/>
       <path id="ArialMT-69" d="M 425 3934 
L 425 4581 
L 988 4581 
L 988 3934 
L 425 3934 
z
M 425 0 
L 425 3319 
L 988 3319 
L 988 0 
L 425 0 
z
" transform="scale(0.015625)"/>
       <path id="ArialMT-79" d="M 397 -1278 
L 334 -750 
Q 519 -800 656 -800 
Q 844 -800 956 -737 
Q 1069 -675 1141 -563 
Q 1194 -478 1313 -144 
Q 1328 -97 1363 -6 
L 103 3319 
L 709 3319 
L 1400 1397 
Q 1534 1031 1641 628 
Q 1738 1016 1872 1384 
L 2581 3319 
L 3144 3319 
L 1881 -56 
Q 1678 -603 1566 -809 
Q 1416 -1088 1222 -1217 
Q 1028 -1347 759 -1347 
Q 597 -1347 397 -1278 
z
" transform="scale(0.015625)"/>
      </defs>
      <use xlink:href="#ArialMT-49"/>
      <use xlink:href="#ArialMT-6e" x="27.783203"/>
      <use xlink:href="#ArialMT-74" x="83.398438"/>
      <use xlink:href="#ArialMT-65" x="111.181641"/>
      <use xlink:href="#ArialMT-6e" x="166.796875"/>
      <use xlink:href="#ArialMT-73" x="222.412109"/>
      <use xlink:href="#ArialMT-69" x="272.412109"/>
      <use xlink:href="#ArialMT-74" x="294.628906"/>
      <use xlink:href="#ArialMT-79" x="322.412109"/>
     </g>
    </g>
   </g>
   <g id="line2d_20">
    <path d="M 27.10601 108.664974 
L 27.675865 111.994524 
L 28.245719 116.448337 
L 28.815573 109.962201 
L 29.385428 106.11376 
L 29.955282 106.546169 
L 30.525136 110.567574 
L 31.09499 108.578492 
L 31.664845 108.362287 
L 32.234699 109.702756 
L 32.804553 108.102842 
L 33.374407 108.362287 
L 33.944262 110.437851 
L 34.514116 106.892097 
L 35.08397 110.524333 
L 35.653824 105.767833 
L 36.223679 101.962633 
L 36.793533 111.908042 
L 37.363387 109.183865 
L 37.933242 107.281265 
L 38.503096 105.897556 
L 39.07295 107.281265 
L 39.642804 105.508387 
L 40.212659 106.719133 
L 40.782513 103.649028 
L 41.352367 101.573465 
L 41.922221 103.821992 
L 42.492076 104.167919 
L 43.06193 109.616274 
L 43.631784 106.200242 
L 44.771493 100.665406 
L 45.341347 102.78421 
L 45.911201 102.957174 
L 47.05091 107.886637 
L 47.620764 99.627624 
L 48.190618 99.411419 
L 48.760473 104.124678 
L 49.330327 105.032737 
L 50.470035 97.379097 
L 51.03989 98.589842 
L 51.609744 101.789669 
L 52.179598 103.346342 
L 52.749453 99.800587 
L 53.319307 100.88161 
L 53.889161 99.627624 
L 54.459015 105.724592 
L 55.02887 96.514278 
L 55.598724 100.924851 
L 56.168578 97.854747 
L 56.738432 98.719565 
L 57.308287 100.362719 
L 57.878141 97.55206 
L 58.447995 97.249374 
L 59.01785 101.184297 
L 59.587704 100.88161 
L 60.157558 103.043656 
L 60.727412 98.633083 
L 61.297267 98.892528 
L 61.867121 100.708647 
L 63.006829 95.000847 
L 63.576684 96.730483 
L 64.146538 90.849719 
L 64.716392 99.411419 
L 65.286246 95.606219 
L 65.856101 95.044087 
L 66.425955 93.74686 
L 66.995809 94.69816 
L 67.565664 93.790101 
L 68.135518 93.530656 
L 68.705372 92.017224 
L 69.275226 95.433256 
L 69.845081 94.481956 
L 70.414935 94.308992 
L 70.984789 95.735942 
L 71.554643 94.006306 
L 72.124498 92.665837 
L 72.694352 91.671297 
L 73.264206 96.514278 
L 73.83406 92.622597 
L 74.403915 95.865665 
L 74.973769 93.530656 
L 75.543623 87.995819 
L 76.113478 92.579356 
L 76.683332 91.930742 
L 77.253186 92.406392 
L 77.82304 96.038628 
L 78.392895 92.709078 
L 78.962749 94.179269 
L 79.532603 93.184728 
L 80.102457 91.411851 
L 80.672312 92.968524 
L 81.242166 86.222942 
L 81.81202 91.887501 
L 82.381874 93.227969 
L 82.951729 92.406392 
L 83.521583 88.03906 
L 84.091437 88.341747 
L 84.661292 91.109165 
L 85.231146 85.617569 
L 85.801 87.174242 
L 86.370854 95.606219 
L 86.940709 93.530656 
L 87.510563 92.190187 
L 88.080417 89.336287 
L 88.650271 96.730483 
L 89.220126 94.784642 
L 89.78998 96.168351 
L 90.359834 93.833342 
L 90.929689 94.22251 
L 91.499543 95.995387 
L 92.069397 95.130569 
L 92.639251 91.195647 
L 93.209106 92.752319 
L 93.77896 95.303533 
L 94.348814 98.97901 
L 94.918668 96.298074 
L 95.488523 96.816965 
L 96.058377 96.557519 
L 96.628231 97.725024 
L 97.198085 96.903447 
L 97.76794 98.676324 
L 98.337794 98.719565 
L 98.907648 97.984469 
L 99.477503 101.314019 
L 100.047357 100.492442 
L 100.617211 100.838369 
L 101.187065 103.173378 
L 101.75692 99.45466 
L 102.326774 99.541142 
L 102.896628 100.362719 
L 103.466482 103.605787 
L 104.036337 107.54071 
L 104.606191 102.913933 
L 105.176045 104.124678 
L 105.745899 102.049115 
L 106.315754 110.913501 
L 106.885608 106.373206 
L 107.455462 100.622165 
L 108.025317 106.546169 
L 109.165025 111.302669 
L 109.734879 105.119219 
L 110.304734 114.026847 
L 110.874588 110.567574 
L 111.444442 111.82156 
L 112.014296 108.059601 
L 112.584151 115.886206 
L 113.154005 113.032306 
L 113.723859 116.015928 
L 114.293714 115.497037 
L 114.863568 112.686378 
L 115.433422 118.567142 
L 116.003276 120.210297 
L 116.573131 115.62676 
L 117.142985 114.805183 
L 117.712839 117.961769 
L 118.282693 114.545737 
L 118.852548 118.350937 
L 119.422402 117.659083 
L 119.992256 122.458824 
L 120.56211 123.020956 
L 121.131965 122.934474 
L 121.701819 122.026415 
L 122.271673 120.296778 
L 122.841528 124.404665 
L 123.411382 124.274942 
L 123.981236 124.318183 
L 124.55109 126.999119 
L 125.120945 128.036901 
L 125.690799 126.004578 
L 125.690799 126.004578 
" clip-path="url(#p2fb6f63ac2)" style="fill: none; stroke: #ffb14e; stroke-width: 1.5; stroke-linecap: square"/>
   </g>
   <g id="line2d_21">
    <path d="M 27.10601 112.037765 
L 27.675865 112.556656 
L 28.245719 114.286292 
L 28.815573 118.048251 
L 29.385428 112.29721 
L 29.955282 112.383692 
L 30.525136 114.243051 
L 31.09499 118.869828 
L 31.664845 115.280833 
L 32.234699 114.416015 
L 32.804553 109.91896 
L 33.374407 113.940365 
L 33.944262 116.059169 
L 34.514116 113.507956 
L 35.08397 114.848424 
L 35.653824 112.426933 
L 36.223679 112.124247 
L 36.793533 112.643137 
L 37.363387 111.302669 
L 37.933242 110.740537 
L 38.503096 114.113328 
L 39.07295 113.205269 
L 39.642804 108.275806 
L 40.212659 111.475633 
L 40.782513 115.756483 
L 41.352367 111.172947 
L 41.922221 111.951283 
L 42.492076 107.886637 
L 43.06193 115.194351 
L 43.631784 111.735078 
L 44.201639 114.891665 
L 44.771493 112.816101 
L 45.341347 112.945824 
L 45.911201 115.021387 
L 46.481056 108.96766 
L 48.190618 112.340451 
L 48.760473 114.588978 
L 49.330327 110.39461 
L 49.900181 111.864801 
L 50.470035 111.129706 
L 51.03989 109.140624 
L 51.609744 115.237592 
L 52.179598 113.507956 
L 52.749453 112.599897 
L 53.319307 111.475633 
L 53.889161 111.994524 
L 54.459015 111.34591 
L 55.02887 107.800156 
L 55.598724 106.546169 
L 56.168578 112.902583 
L 56.738432 103.605787 
L 57.308287 105.205701 
L 57.878141 106.200242 
L 58.447995 106.459688 
L 59.01785 103.303101 
L 59.587704 105.248942 
L 60.157558 98.849288 
L 60.727412 97.638542 
L 61.297267 99.281697 
L 61.867121 93.617137 
L 62.436975 92.146947 
L 63.006829 75.153269 
L 64.146538 56.948847 
L 64.716392 55.867824 
L 65.856101 90.806478 
L 66.425955 101.789669 
L 66.995809 103.519306 
L 67.565664 105.811074 
L 68.135518 101.659947 
L 68.705372 105.16246 
L 69.275226 103.994956 
L 69.845081 106.200242 
L 70.414935 102.438283 
L 70.984789 106.935337 
L 71.554643 107.194783 
L 72.124498 103.821992 
L 72.694352 109.486551 
L 73.264206 107.929878 
L 73.83406 114.026847 
L 74.403915 113.291751 
L 74.973769 106.459688 
L 75.543623 108.881178 
L 77.253186 111.34591 
L 77.82304 106.027278 
L 78.392895 107.151542 
L 78.962749 106.070519 
L 79.532603 110.740537 
L 80.102457 111.475633 
L 80.672312 106.935337 
L 81.242166 105.897556 
L 81.81202 106.675892 
L 82.381874 105.465147 
L 82.951729 109.573033 
L 83.521583 109.183865 
L 84.091437 107.06506 
L 84.661292 112.426933 
L 85.801 106.286724 
L 86.370854 108.405528 
L 86.940709 113.680919 
L 87.510563 107.800156 
L 88.080417 113.162028 
L 88.650271 108.01636 
L 89.220126 108.01636 
L 89.78998 109.183865 
L 90.359834 110.654056 
L 90.929689 113.075547 
L 91.499543 109.486551 
L 92.069397 112.556656 
L 92.639251 110.567574 
L 93.209106 114.070087 
L 93.77896 112.426933 
L 94.348814 112.383692 
L 94.918668 107.886637 
L 95.488523 109.91896 
L 96.058377 112.989065 
L 96.628231 112.77286 
L 97.198085 110.178406 
L 98.907648 119.691406 
L 99.477503 116.318615 
L 100.047357 119.086033 
L 100.617211 115.15111 
L 101.187065 120.729187 
L 101.75692 119.864369 
L 102.326774 119.994092 
L 102.896628 116.10241 
L 103.466482 121.594006 
L 104.036337 119.388719 
L 104.606191 119.734647 
L 105.176045 116.059169 
L 105.745899 115.799724 
L 106.315754 120.772428 
L 106.885608 119.777887 
L 107.455462 119.388719 
L 108.025317 123.842533 
L 108.595171 122.156137 
L 109.165025 119.43196 
L 109.734879 118.783347 
L 110.304734 118.999551 
L 110.874588 119.994092 
L 112.014296 112.253969 
L 112.584151 111.605356 
L 113.723859 95.476497 
L 114.293714 94.22251 
L 114.863568 97.941228 
L 116.003276 115.756483 
L 117.142985 128.599033 
L 117.712839 126.480228 
L 118.282693 128.339587 
L 118.852548 127.734215 
L 119.422402 125.010037 
L 119.992256 130.458392 
L 121.131965 135.60406 
L 121.701819 134.220351 
L 122.271673 135.993228 
L 122.841528 134.17711 
L 123.411382 137.50666 
L 123.981236 133.70146 
L 124.55109 136.468878 
L 125.120945 133.269051 
L 125.690799 137.247215 
L 125.690799 137.247215 
" clip-path="url(#p2fb6f63ac2)" style="fill: none; stroke: #008e00; stroke-width: 1.5; stroke-linecap: square"/>
   </g>
   <g id="line2d_22">
    <path d="M 27.10601 132.836642 
L 27.675865 131.32321 
L 28.245719 130.890801 
L 28.815573 133.398774 
L 29.385428 129.334128 
L 29.955282 131.582656 
L 30.525136 129.334128 
L 31.09499 133.182569 
L 31.664845 131.409692 
L 32.804553 129.507092 
L 33.374407 130.285428 
L 33.944262 133.096087 
L 34.514116 132.015065 
L 35.08397 131.452933 
L 35.653824 131.928583 
L 36.223679 129.42061 
L 36.793533 129.204406 
L 37.363387 129.290887 
L 37.933242 131.582656 
L 39.07295 127.561251 
L 39.642804 127.345047 
L 40.212659 130.934042 
L 40.782513 128.382828 
L 41.352367 130.934042 
L 41.922221 125.61541 
L 42.492076 125.096519 
L 43.06193 130.069224 
L 43.631784 124.058737 
L 44.201639 126.393747 
L 45.341347 121.33456 
L 45.911201 127.388287 
L 46.481056 123.280401 
L 47.05091 122.242619 
L 47.620764 122.977715 
L 48.190618 120.902151 
L 48.760473 126.480228 
L 49.330327 126.480228 
L 49.900181 121.421042 
L 50.470035 125.226242 
L 51.03989 122.545306 
L 51.609744 124.447906 
L 52.179598 119.604924 
L 52.749453 117.226674 
L 53.319307 121.594006 
L 53.889161 117.05371 
L 54.459015 121.680487 
L 55.02887 119.648165 
L 55.598724 119.042792 
L 56.168578 123.453365 
L 56.738432 117.356397 
L 57.308287 114.588978 
L 57.878141 110.221647 
L 58.447995 109.140624 
L 59.01785 108.578492 
L 59.587704 103.476065 
L 60.157558 107.454228 
L 60.727412 102.740969 
L 61.297267 95.17381 
L 61.867121 92.536115 
L 62.436975 82.115056 
L 63.006829 65.078137 
L 64.146538 39.133592 
L 65.286246 92.752319 
L 65.856101 107.583951 
L 66.425955 112.167487 
L 66.995809 111.864801 
L 67.565664 114.416015 
L 68.135518 118.00501 
L 68.705372 116.57806 
L 69.275226 118.740106 
L 69.845081 113.897124 
L 70.414935 118.696865 
L 70.984789 121.507524 
L 71.554643 119.734647 
L 72.124498 117.140192 
L 72.694352 118.307697 
L 73.264206 116.837506 
L 73.83406 122.156137 
L 74.403915 120.340019 
L 74.973769 119.821128 
L 75.543623 117.010469 
L 76.113478 116.751024 
L 76.683332 118.826587 
L 77.253186 119.302237 
L 77.82304 119.129274 
L 78.392895 116.491578 
L 78.962749 122.28586 
L 79.532603 119.90761 
L 80.102457 121.766969 
L 80.672312 119.734647 
L 81.242166 119.302237 
L 81.81202 121.031874 
L 82.381874 118.134733 
L 82.951729 120.85891 
L 83.521583 113.72416 
L 84.661292 125.226242 
L 85.231146 121.291319 
L 85.801 125.010037 
L 86.370854 121.81021 
L 86.940709 120.815669 
L 87.510563 116.664542 
L 88.080417 121.983174 
L 88.650271 122.76151 
L 89.220126 123.972256 
L 89.78998 124.880315 
L 90.359834 123.193919 
L 90.929689 123.842533 
L 91.499543 126.912637 
L 92.069397 127.561251 
L 92.639251 123.626328 
L 93.209106 121.723728 
L 93.77896 121.81021 
L 94.348814 124.66411 
L 94.918668 123.323642 
L 95.488523 122.329101 
L 96.058377 125.096519 
L 96.628231 124.577628 
L 97.198085 122.588547 
L 97.76794 124.880315 
L 98.337794 126.393747 
L 98.907648 127.04236 
L 99.477503 129.809778 
L 100.047357 127.690974 
L 100.617211 126.523469 
L 101.187065 131.193488 
L 101.75692 131.279969 
L 102.326774 127.820697 
L 102.896628 132.490715 
L 103.466482 130.674597 
L 104.036337 136.55536 
L 104.606191 134.047387 
L 105.176045 133.22581 
L 105.745899 131.236728 
L 106.315754 130.84756 
L 106.885608 131.539415 
L 107.455462 129.593574 
L 108.025317 133.528497 
L 108.595171 131.79886 
L 109.165025 131.409692 
L 109.734879 129.117924 
L 110.304734 125.355965 
L 110.874588 129.247647 
L 111.444442 125.312724 
L 112.014296 119.777887 
L 112.584151 111.994524 
L 113.154005 97.854747 
L 114.293714 92.622597 
L 114.863568 110.221647 
L 115.433422 120.599465 
L 116.003276 133.744701 
L 116.573131 134.220351 
L 117.142985 140.187597 
L 117.712839 140.274078 
L 118.282693 147.192624 
L 118.852548 141.398342 
L 119.422402 140.014633 
L 119.992256 144.209001 
L 120.56211 146.06836 
L 121.131965 141.398342 
L 121.701819 148.619574 
L 122.271673 144.900856 
L 122.841528 143.084737 
L 123.411382 145.462987 
L 123.981236 144.814374 
L 124.55109 145.419747 
L 125.120945 149.700597 
L 125.690799 145.895397 
L 125.690799 145.895397 
" clip-path="url(#p2fb6f63ac2)" style="fill: none; stroke: #000000; stroke-width: 1.5; stroke-linecap: square"/>
   </g>
   <g id="patch_3">
    <path d="M 27.6675 213.480937 
L 27.6675 23.220937 
" style="fill: none; stroke: #000000; stroke-width: 0.8; stroke-linejoin: miter; stroke-linecap: square"/>
   </g>
   <g id="patch_4">
    <path d="M 27.6675 213.480937 
L 125.3175 213.480937 
" style="fill: none; stroke: #000000; stroke-width: 0.8; stroke-linejoin: miter; stroke-linecap: square"/>
   </g>
   <g id="text_5">
    <!-- Moderate-aluminum -->
    <g transform="translate(14.249375 17.220937) scale(0.14 -0.14)">
     <defs>
      <path id="ArialMT-4d" d="M 475 0 
L 475 4581 
L 1388 4581 
L 2472 1338 
Q 2622 884 2691 659 
Q 2769 909 2934 1394 
L 4031 4581 
L 4847 4581 
L 4847 0 
L 4263 0 
L 4263 3834 
L 2931 0 
L 2384 0 
L 1059 3900 
L 1059 0 
L 475 0 
z
" transform="scale(0.015625)"/>
      <path id="ArialMT-6f" d="M 213 1659 
Q 213 2581 725 3025 
Q 1153 3394 1769 3394 
Q 2453 3394 2887 2945 
Q 3322 2497 3322 1706 
Q 3322 1066 3130 698 
Q 2938 331 2570 128 
Q 2203 -75 1769 -75 
Q 1072 -75 642 372 
Q 213 819 213 1659 
z
M 791 1659 
Q 791 1022 1069 705 
Q 1347 388 1769 388 
Q 2188 388 2466 706 
Q 2744 1025 2744 1678 
Q 2744 2294 2464 2611 
Q 2184 2928 1769 2928 
Q 1347 2928 1069 2612 
Q 791 2297 791 1659 
z
" transform="scale(0.015625)"/>
      <path id="ArialMT-64" d="M 2575 0 
L 2575 419 
Q 2259 -75 1647 -75 
Q 1250 -75 917 144 
Q 584 363 401 755 
Q 219 1147 219 1656 
Q 219 2153 384 2558 
Q 550 2963 881 3178 
Q 1213 3394 1622 3394 
Q 1922 3394 2156 3267 
Q 2391 3141 2538 2938 
L 2538 4581 
L 3097 4581 
L 3097 0 
L 2575 0 
z
M 797 1656 
Q 797 1019 1065 703 
Q 1334 388 1700 388 
Q 2069 388 2326 689 
Q 2584 991 2584 1609 
Q 2584 2291 2321 2609 
Q 2059 2928 1675 2928 
Q 1300 2928 1048 2622 
Q 797 2316 797 1656 
z
" transform="scale(0.015625)"/>
      <path id="ArialMT-72" d="M 416 0 
L 416 3319 
L 922 3319 
L 922 2816 
Q 1116 3169 1280 3281 
Q 1444 3394 1641 3394 
Q 1925 3394 2219 3213 
L 2025 2691 
Q 1819 2813 1613 2813 
Q 1428 2813 1281 2702 
Q 1134 2591 1072 2394 
Q 978 2094 978 1738 
L 978 0 
L 416 0 
z
" transform="scale(0.015625)"/>
      <path id="ArialMT-61" d="M 2588 409 
Q 2275 144 1986 34 
Q 1697 -75 1366 -75 
Q 819 -75 525 192 
Q 231 459 231 875 
Q 231 1119 342 1320 
Q 453 1522 633 1644 
Q 813 1766 1038 1828 
Q 1203 1872 1538 1913 
Q 2219 1994 2541 2106 
Q 2544 2222 2544 2253 
Q 2544 2597 2384 2738 
Q 2169 2928 1744 2928 
Q 1347 2928 1158 2789 
Q 969 2650 878 2297 
L 328 2372 
Q 403 2725 575 2942 
Q 747 3159 1072 3276 
Q 1397 3394 1825 3394 
Q 2250 3394 2515 3294 
Q 2781 3194 2906 3042 
Q 3031 2891 3081 2659 
Q 3109 2516 3109 2141 
L 3109 1391 
Q 3109 606 3145 398 
Q 3181 191 3288 0 
L 2700 0 
Q 2613 175 2588 409 
z
M 2541 1666 
Q 2234 1541 1622 1453 
Q 1275 1403 1131 1340 
Q 988 1278 909 1158 
Q 831 1038 831 891 
Q 831 666 1001 516 
Q 1172 366 1500 366 
Q 1825 366 2078 508 
Q 2331 650 2450 897 
Q 2541 1088 2541 1459 
L 2541 1666 
z
" transform="scale(0.015625)"/>
      <path id="ArialMT-2d" d="M 203 1375 
L 203 1941 
L 1931 1941 
L 1931 1375 
L 203 1375 
z
" transform="scale(0.015625)"/>
      <path id="ArialMT-6c" d="M 409 0 
L 409 4581 
L 972 4581 
L 972 0 
L 409 0 
z
" transform="scale(0.015625)"/>
      <path id="ArialMT-75" d="M 2597 0 
L 2597 488 
Q 2209 -75 1544 -75 
Q 1250 -75 995 37 
Q 741 150 617 320 
Q 494 491 444 738 
Q 409 903 409 1263 
L 409 3319 
L 972 3319 
L 972 1478 
Q 972 1038 1006 884 
Q 1059 663 1231 536 
Q 1403 409 1656 409 
Q 1909 409 2131 539 
Q 2353 669 2445 892 
Q 2538 1116 2538 1541 
L 2538 3319 
L 3100 3319 
L 3100 0 
L 2597 0 
z
" transform="scale(0.015625)"/>
      <path id="ArialMT-6d" d="M 422 0 
L 422 3319 
L 925 3319 
L 925 2853 
Q 1081 3097 1340 3245 
Q 1600 3394 1931 3394 
Q 2300 3394 2536 3241 
Q 2772 3088 2869 2813 
Q 3263 3394 3894 3394 
Q 4388 3394 4653 3120 
Q 4919 2847 4919 2278 
L 4919 0 
L 4359 0 
L 4359 2091 
Q 4359 2428 4304 2576 
Q 4250 2725 4106 2815 
Q 3963 2906 3769 2906 
Q 3419 2906 3187 2673 
Q 2956 2441 2956 1928 
L 2956 0 
L 2394 0 
L 2394 2156 
Q 2394 2531 2256 2718 
Q 2119 2906 1806 2906 
Q 1569 2906 1367 2781 
Q 1166 2656 1075 2415 
Q 984 2175 984 1722 
L 984 0 
L 422 0 
z
" transform="scale(0.015625)"/>
     </defs>
     <use xlink:href="#ArialMT-4d"/>
     <use xlink:href="#ArialMT-6f" x="83.300781"/>
     <use xlink:href="#ArialMT-64" x="138.916016"/>
     <use xlink:href="#ArialMT-65" x="194.53125"/>
     <use xlink:href="#ArialMT-72" x="250.146484"/>
     <use xlink:href="#ArialMT-61" x="283.447266"/>
     <use xlink:href="#ArialMT-74" x="339.0625"/>
     <use xlink:href="#ArialMT-65" x="366.845703"/>
     <use xlink:href="#ArialMT-2d" x="422.460938"/>
     <use xlink:href="#ArialMT-61" x="455.761719"/>
     <use xlink:href="#ArialMT-6c" x="511.376953"/>
     <use xlink:href="#ArialMT-75" x="533.59375"/>
     <use xlink:href="#ArialMT-6d" x="589.208984"/>
     <use xlink:href="#ArialMT-69" x="672.509766"/>
     <use xlink:href="#ArialMT-6e" x="694.726562"/>
     <use xlink:href="#ArialMT-75" x="750.341797"/>
     <use xlink:href="#ArialMT-6d" x="805.957031"/>
    </g>
   </g>
  </g>
 </g>
 <defs>
  <clipPath id="p2fb6f63ac2">
   <rect x="27.6675" y="23.220937" width="97.65" height="190.26"/>
  </clipPath>
 </defs>
</svg>
