<?xml version="1.0" encoding="utf-8" standalone="no"?>
<!DOCTYPE svg PUBLIC "-//W3C//DTD SVG 1.1//EN"
  "http://www.w3.org/Graphics/SVG/1.1/DTD/svg11.dtd">
<svg xmlns:xlink="http://www.w3.org/1999/xlink" width="145.935625pt" height="253.629687pt" viewBox="0 0 145.935625 253.629687" xmlns="http://www.w3.org/2000/svg" version="1.1">
 <metadata>
  <rdf:RDF xmlns:dc="http://purl.org/dc/elements/1.1/" xmlns:cc="http://creativecommons.org/ns#" xmlns:rdf="http://www.w3.org/1999/02/22-rdf-syntax-ns#">
   <cc:Work>
    <dc:type rdf:resource="http://purl.org/dc/dcmitype/StillImage"/>
    <dc:date>2023-10-05T22:22:05.980468</dc:date>
    <dc:format>image/svg+xml</dc:format>
    <dc:creator>
     <cc:Agent>
      <dc:title>Matplotlib v3.7.1, https://matplotlib.org/</dc:title>
     </cc:Agent>
    </dc:creator>
   </cc:Work>
  </rdf:RDF>
 </metadata>
 <defs>
  <style type="text/css">*{stroke-linejoin: round; stroke-linecap: butt}</style>
 </defs>
 <g id="figure_1">
  <g id="patch_1">
   <path d="M -0 253.629687 
L 145.935625 253.629687 
L 145.935625 -0 
L -0 -0 
z
" style="fill: #ffffff"/>
  </g>
  <g id="axes_1">
   <g id="patch_2">
    <path d="M 27.6675 213.480937 
L 125.3175 213.480937 
L 125.3175 23.220937 
L 27.6675 23.220937 
z
" style="fill: #ffffff"/>
   </g>
   <g id="matplotlib.axis_1">
    <g id="xtick_1">
     <g id="line2d_1">
      <defs>
       <path id="m984c27422a" d="M 0 0 
L 0 3.5 
" style="stroke: #000000; stroke-width: 0.8"/>
      </defs>
      <g>
       <use xlink:href="#m984c27422a" x="27.6675" y="213.480937" style="stroke: #000000; stroke-width: 0.8"/>
      </g>
     </g>
     <g id="text_1">
      <!-- 10 -->
      <g transform="translate(22.106563 227.63875) scale(0.1 -0.1)">
       <defs>
        <path id="ArialMT-31" d="M 2384 0 
L 1822 0 
L 1822 3584 
Q 1619 3391 1289 3197 
Q 959 3003 697 2906 
L 697 3450 
Q 1169 3672 1522 3987 
Q 1875 4303 2022 4600 
L 2384 4600 
L 2384 0 
z
" transform="scale(0.015625)"/>
        <path id="ArialMT-30" d="M 266 2259 
Q 266 3072 433 3567 
Q 600 4063 929 4331 
Q 1259 4600 1759 4600 
Q 2128 4600 2406 4451 
Q 2684 4303 2865 4023 
Q 3047 3744 3150 3342 
Q 3253 2941 3253 2259 
Q 3253 1453 3087 958 
Q 2922 463 2592 192 
Q 2263 -78 1759 -78 
Q 1097 -78 719 397 
Q 266 969 266 2259 
z
M 844 2259 
Q 844 1131 1108 757 
Q 1372 384 1759 384 
Q 2147 384 2411 759 
Q 2675 1134 2675 2259 
Q 2675 3391 2411 3762 
Q 2147 4134 1753 4134 
Q 1366 4134 1134 3806 
Q 844 3388 844 2259 
z
" transform="scale(0.015625)"/>
       </defs>
       <use xlink:href="#ArialMT-31"/>
       <use xlink:href="#ArialMT-30" x="55.615234"/>
      </g>
     </g>
    </g>
    <g id="xtick_2">
     <g id="line2d_2">
      <g>
       <use xlink:href="#m984c27422a" x="60.2175" y="213.480937" style="stroke: #000000; stroke-width: 0.8"/>
      </g>
     </g>
     <g id="text_2">
      <!-- 11 -->
      <g transform="translate(55.025313 227.63875) scale(0.1 -0.1)">
       <use xlink:href="#ArialMT-31"/>
       <use xlink:href="#ArialMT-31" x="48.240234"/>
      </g>
     </g>
    </g>
    <g id="xtick_3">
     <g id="line2d_3">
      <g>
       <use xlink:href="#m984c27422a" x="92.7675" y="213.480937" style="stroke: #000000; stroke-width: 0.8"/>
      </g>
     </g>
     <g id="text_3">
      <!-- 12 -->
      <g transform="translate(87.206562 227.63875) scale(0.1 -0.1)">
       <defs>
        <path id="ArialMT-32" d="M 3222 541 
L 3222 0 
L 194 0 
Q 188 203 259 391 
Q 375 700 629 1000 
Q 884 1300 1366 1694 
Q 2113 2306 2375 2664 
Q 2638 3022 2638 3341 
Q 2638 3675 2398 3904 
Q 2159 4134 1775 4134 
Q 1369 4134 1125 3890 
Q 881 3647 878 3216 
L 300 3275 
Q 359 3922 746 4261 
Q 1134 4600 1788 4600 
Q 2447 4600 2831 4234 
Q 3216 3869 3216 3328 
Q 3216 3053 3103 2787 
Q 2991 2522 2730 2228 
Q 2469 1934 1863 1422 
Q 1356 997 1212 845 
Q 1069 694 975 541 
L 3222 541 
z
" transform="scale(0.015625)"/>
       </defs>
       <use xlink:href="#ArialMT-31"/>
       <use xlink:href="#ArialMT-32" x="55.615234"/>
      </g>
     </g>
    </g>
    <g id="xtick_4">
     <g id="line2d_4">
      <g>
       <use xlink:href="#m984c27422a" x="125.3175" y="213.480937" style="stroke: #000000; stroke-width: 0.8"/>
      </g>
     </g>
     <g id="text_4">
      <!-- 13 -->
      <g transform="translate(119.756563 227.63875) scale(0.1 -0.1)">
       <defs>
        <path id="ArialMT-33" d="M 269 1209 
L 831 1284 
Q 928 806 1161 595 
Q 1394 384 1728 384 
Q 2125 384 2398 659 
Q 2672 934 2672 1341 
Q 2672 1728 2419 1979 
Q 2166 2231 1775 2231 
Q 1616 2231 1378 2169 
L 1441 2663 
Q 1497 2656 1531 2656 
Q 1891 2656 2178 2843 
Q 2466 3031 2466 3422 
Q 2466 3731 2256 3934 
Q 2047 4138 1716 4138 
Q 1388 4138 1169 3931 
Q 950 3725 888 3313 
L 325 3413 
Q 428 3978 793 4289 
Q 1159 4600 1703 4600 
Q 2078 4600 2393 4439 
Q 2709 4278 2876 4000 
Q 3044 3722 3044 3409 
Q 3044 3113 2884 2869 
Q 2725 2625 2413 2481 
Q 2819 2388 3044 2092 
Q 3269 1797 3269 1353 
Q 3269 753 2831 336 
Q 2394 -81 1725 -81 
Q 1122 -81 723 278 
Q 325 638 269 1209 
z
" transform="scale(0.015625)"/>
       </defs>
       <use xlink:href="#ArialMT-31"/>
       <use xlink:href="#ArialMT-33" x="55.615234"/>
      </g>
     </g>
    </g>
    <g id="xtick_5">
     <g id="line2d_5">
      <defs>
       <path id="m2a49c978dd" d="M 0 0 
L 0 2 
" style="stroke: #000000; stroke-width: 0.6"/>
      </defs>
      <g>
       <use xlink:href="#m2a49c978dd" x="43.9425" y="213.480937" style="stroke: #000000; stroke-width: 0.6"/>
      </g>
     </g>
    </g>
    <g id="xtick_6">
     <g id="line2d_6">
      <g>
       <use xlink:href="#m2a49c978dd" x="76.4925" y="213.480937" style="stroke: #000000; stroke-width: 0.6"/>
      </g>
     </g>
    </g>
    <g id="xtick_7">
     <g id="line2d_7">
      <g>
       <use xlink:href="#m2a49c978dd" x="109.0425" y="213.480937" style="stroke: #000000; stroke-width: 0.6"/>
      </g>
     </g>
    </g>
    <g id="text_5">
     <!-- 2θ -->
     <g transform="translate(68.707188 243.647187) scale(0.14 -0.14)">
      <defs>
       <path id="ArialMT-3b8" d="M 288 2291 
Q 288 4659 1781 4659 
Q 3275 4659 3275 2291 
Q 3275 -75 1781 -75 
Q 288 -75 288 2291 
z
M 869 2519 
L 2694 2519 
Q 2663 3497 2413 3847 
Q 2163 4197 1775 4197 
Q 903 4197 869 2519 
z
M 2694 2066 
L 869 2066 
Q 903 388 1781 388 
Q 2663 388 2694 2066 
z
" transform="scale(0.015625)"/>
      </defs>
      <use xlink:href="#ArialMT-32"/>
      <use xlink:href="#ArialMT-3b8" x="55.615234"/>
     </g>
    </g>
   </g>
   <g id="matplotlib.axis_2">
    <g id="ytick_1">
     <g id="line2d_8"/>
    </g>
    <g id="ytick_2">
     <g id="line2d_9"/>
    </g>
    <g id="ytick_3">
     <g id="line2d_10"/>
    </g>
    <g id="ytick_4">
     <g id="line2d_11"/>
    </g>
    <g id="ytick_5">
     <g id="line2d_12"/>
    </g>
    <g id="ytick_6">
     <g id="line2d_13"/>
    </g>
    <g id="ytick_7">
     <g id="line2d_14"/>
    </g>
    <g id="text_6">
     <!-- Intensity -->
     <g transform="translate(17.220938 144.418281) rotate(-90) scale(0.14 -0.14)">
      <defs>
       <path id="ArialMT-49" d="M 597 0 
L 597 4581 
L 1203 4581 
L 1203 0 
L 597 0 
z
" transform="scale(0.015625)"/>
       <path id="ArialMT-6e" d="M 422 0 
L 422 3319 
L 928 3319 
L 928 2847 
Q 1294 3394 1984 3394 
Q 2284 3394 2536 3286 
Q 2788 3178 2913 3003 
Q 3038 2828 3088 2588 
Q 3119 2431 3119 2041 
L 3119 0 
L 2556 0 
L 2556 2019 
Q 2556 2363 2490 2533 
Q 2425 2703 2258 2804 
Q 2091 2906 1866 2906 
Q 1506 2906 1245 2678 
Q 984 2450 984 1813 
L 984 0 
L 422 0 
z
" transform="scale(0.015625)"/>
       <path id="ArialMT-74" d="M 1650 503 
L 1731 6 
Q 1494 -44 1306 -44 
Q 1000 -44 831 53 
Q 663 150 594 308 
Q 525 466 525 972 
L 525 2881 
L 113 2881 
L 113 3319 
L 525 3319 
L 525 4141 
L 1084 4478 
L 1084 3319 
L 1650 3319 
L 1650 2881 
L 1084 2881 
L 1084 941 
Q 1084 700 1114 631 
Q 1144 563 1211 522 
Q 1278 481 1403 481 
Q 1497 481 1650 503 
z
" transform="scale(0.015625)"/>
       <path id="ArialMT-65" d="M 2694 1069 
L 3275 997 
Q 3138 488 2766 206 
Q 2394 -75 1816 -75 
Q 1088 -75 661 373 
Q 234 822 234 1631 
Q 234 2469 665 2931 
Q 1097 3394 1784 3394 
Q 2450 3394 2872 2941 
Q 3294 2488 3294 1666 
Q 3294 1616 3291 1516 
L 816 1516 
Q 847 969 1125 678 
Q 1403 388 1819 388 
Q 2128 388 2347 550 
Q 2566 713 2694 1069 
z
M 847 1978 
L 2700 1978 
Q 2663 2397 2488 2606 
Q 2219 2931 1791 2931 
Q 1403 2931 1139 2672 
Q 875 2413 847 1978 
z
" transform="scale(0.015625)"/>
       <path id="ArialMT-73" d="M 197 991 
L 753 1078 
Q 800 744 1014 566 
Q 1228 388 1613 388 
Q 2000 388 2187 545 
Q 2375 703 2375 916 
Q 2375 1106 2209 1216 
Q 2094 1291 1634 1406 
Q 1016 1563 777 1677 
Q 538 1791 414 1992 
Q 291 2194 291 2438 
Q 291 2659 392 2848 
Q 494 3038 669 3163 
Q 800 3259 1026 3326 
Q 1253 3394 1513 3394 
Q 1903 3394 2198 3281 
Q 2494 3169 2634 2976 
Q 2775 2784 2828 2463 
L 2278 2388 
Q 2241 2644 2061 2787 
Q 1881 2931 1553 2931 
Q 1166 2931 1000 2803 
Q 834 2675 834 2503 
Q 834 2394 903 2306 
Q 972 2216 1119 2156 
Q 1203 2125 1616 2013 
Q 2213 1853 2448 1751 
Q 2684 1650 2818 1456 
Q 2953 1263 2953 975 
Q 2953 694 2789 445 
Q 2625 197 2315 61 
Q 2006 -75 1616 -75 
Q 969 -75 630 194 
Q 291 463 197 991 
z
" transform="scale(0.015625)"/>
       <path id="ArialMT-69" d="M 425 3934 
L 425 4581 
L 988 4581 
L 988 3934 
L 425 3934 
z
M 425 0 
L 425 3319 
L 988 3319 
L 988 0 
L 425 0 
z
" transform="scale(0.015625)"/>
       <path id="ArialMT-79" d="M 397 -1278 
L 334 -750 
Q 519 -800 656 -800 
Q 844 -800 956 -737 
Q 1069 -675 1141 -563 
Q 1194 -478 1313 -144 
Q 1328 -97 1363 -6 
L 103 3319 
L 709 3319 
L 1400 1397 
Q 1534 1031 1641 628 
Q 1738 1016 1872 1384 
L 2581 3319 
L 3144 3319 
L 1881 -56 
Q 1678 -603 1566 -809 
Q 1416 -1088 1222 -1217 
Q 1028 -1347 759 -1347 
Q 597 -1347 397 -1278 
z
" transform="scale(0.015625)"/>
      </defs>
      <use xlink:href="#ArialMT-49"/>
      <use xlink:href="#ArialMT-6e" x="27.783203"/>
      <use xlink:href="#ArialMT-74" x="83.398438"/>
      <use xlink:href="#ArialMT-65" x="111.181641"/>
      <use xlink:href="#ArialMT-6e" x="166.796875"/>
      <use xlink:href="#ArialMT-73" x="222.412109"/>
      <use xlink:href="#ArialMT-69" x="272.412109"/>
      <use xlink:href="#ArialMT-74" x="294.628906"/>
      <use xlink:href="#ArialMT-79" x="322.412109"/>
     </g>
    </g>
   </g>
   <g id="line2d_15">
    <path d="M 27.577587 179.736212 
L 28.432368 178.388537 
L 29.28715 178.467812 
L 30.141931 179.022738 
L 30.996713 178.111075 
L 31.851494 177.278687 
L 32.706275 177.807187 
L 33.561057 176.010288 
L 34.415838 178.626362 
L 35.27062 177.463662 
L 36.125401 177.2919 
L 36.980182 176.895525 
L 37.834964 177.1862 
L 38.689745 176.908738 
L 39.544527 176.829463 
L 40.399308 176.367025 
L 41.254089 177.410812 
L 42.108871 177.120137 
L 42.963652 177.067287 
L 43.818434 177.5033 
L 44.673215 176.9748 
L 45.527997 176.565213 
L 46.382778 176.261325 
L 47.237559 177.741125 
L 48.092341 176.552 
L 48.947122 177.542937 
L 49.801904 176.829463 
L 50.656685 175.138262 
L 51.511466 176.538788 
L 52.366248 176.3406 
L 53.221029 176.485938 
L 54.075811 177.595788 
L 54.930592 176.578425 
L 55.785373 177.02765 
L 56.640155 176.723762 
L 57.494936 176.18205 
L 58.349718 176.6577 
L 59.204499 174.59655 
L 60.05928 176.327387 
L 60.914062 176.736975 
L 61.768843 176.485938 
L 62.623625 175.151475 
L 63.478406 175.243963 
L 64.333187 176.089562 
L 65.187969 174.411575 
L 66.04275 174.887225 
L 66.897532 177.463662 
L 67.752313 176.829463 
L 68.607094 176.419875 
L 69.461876 175.54785 
L 70.316657 177.807187 
L 71.171439 177.212625 
L 72.02622 177.635425 
L 72.881001 176.92195 
L 73.735783 177.040863 
L 74.590564 177.582575 
L 75.445346 177.318325 
L 76.300127 176.115987 
L 77.154908 176.591637 
L 78.00969 177.371175 
L 78.864471 178.494237 
L 79.719253 177.675062 
L 80.574034 177.833612 
L 81.428815 177.754337 
L 82.283597 178.111075 
L 83.138378 177.860038 
L 83.99316 178.40175 
L 84.847941 178.414963 
L 85.702722 178.19035 
L 86.557504 179.207712 
L 87.412285 178.956675 
L 88.267067 179.062375 
L 89.121848 179.77585 
L 89.976629 178.639575 
L 90.831411 178.666 
L 91.686192 178.917037 
L 92.540974 179.907975 
L 93.395755 181.110312 
L 94.250536 179.696575 
L 95.105318 180.066525 
L 95.960099 179.432325 
L 96.814881 182.140887 
L 97.669662 180.753575 
L 98.524443 178.996312 
L 99.379225 180.806425 
L 100.234006 181.493475 
L 101.088788 182.2598 
L 101.943569 180.370412 
L 102.79835 183.092187 
L 103.653132 182.035188 
L 104.507913 182.41835 
L 105.362695 181.268863 
L 106.217476 183.660325 
L 107.072257 182.7883 
L 107.927039 183.699962 
L 108.78182 183.541412 
L 109.636602 182.6826 
L 110.491383 184.4795 
L 111.346164 184.981575 
L 112.200946 183.58105 
L 113.055727 183.330013 
L 113.910509 184.294525 
L 114.76529 183.250737 
L 115.620071 184.413437 
L 116.474853 184.202037 
L 117.329634 185.668625 
L 118.184416 185.840387 
L 119.039197 185.813963 
L 119.893979 185.5365 
L 120.74876 185.008 
L 121.603541 186.263187 
L 122.458323 186.22355 
L 123.313104 186.236762 
L 124.167885 187.055937 
L 125.022667 187.373038 
L 125.877448 186.75205 
" clip-path="url(#p3071b33725)" style="fill: none; stroke: #ffb14e; stroke-width: 1.5; stroke-linecap: square"/>
   </g>
   <g id="line2d_16">
    <path d="M 27.577587 178.4546 
L 28.432368 178.08465 
L 29.28715 178.586725 
L 30.141931 176.855887 
L 30.996713 176.406662 
L 31.851494 171.21415 
L 32.706275 168.25455 
L 33.561057 165.651687 
L 34.415838 165.321375 
L 35.27062 170.89705 
L 36.125401 175.997075 
L 36.980182 179.35305 
L 37.834964 179.88155 
L 38.689745 180.581813 
L 39.544527 179.313412 
L 40.399308 180.383625 
L 41.254089 180.026887 
L 42.108871 180.700725 
L 42.963652 179.551237 
L 43.818434 180.925338 
L 44.673215 181.004613 
L 45.527997 179.974038 
L 46.382778 181.704875 
L 47.237559 181.229225 
L 48.092341 183.092187 
L 48.947122 182.867575 
L 49.801904 180.78 
L 50.656685 181.5199 
L 51.511466 181.757725 
L 52.366248 182.0484 
L 53.221029 182.273012 
L 54.075811 180.647875 
L 54.930592 180.9914 
L 55.785373 180.661088 
L 56.640155 182.088037 
L 57.494936 182.31265 
L 58.349718 180.925338 
L 59.204499 180.608238 
L 60.05928 180.846062 
L 60.914062 180.476112 
L 61.768843 181.7313 
L 62.623625 181.612388 
L 63.478406 180.964975 
L 64.333187 182.603325 
L 65.187969 181.704875 
L 66.04275 180.72715 
L 66.897532 181.374562 
L 67.752313 182.986488 
L 68.607094 181.189587 
L 69.461876 182.827937 
L 70.316657 181.25565 
L 71.171439 181.25565 
L 72.02622 181.612388 
L 72.881001 182.061612 
L 73.735783 182.801513 
L 74.590564 181.704875 
L 75.445346 182.642963 
L 76.300127 182.035188 
L 77.154908 183.1054 
L 78.00969 182.603325 
L 78.864471 182.590113 
L 79.719253 181.216013 
L 80.574034 181.837 
L 81.428815 182.775087 
L 82.283597 182.709025 
L 83.138378 181.916275 
L 83.99316 182.94685 
L 84.847941 184.10955 
L 85.702722 184.823025 
L 86.557504 183.79245 
L 87.412285 184.63805 
L 88.267067 183.435712 
L 89.121848 185.140125 
L 89.976629 184.875875 
L 90.831411 184.915513 
L 91.686192 183.726387 
L 92.540974 185.404375 
L 93.395755 184.730537 
L 94.250536 184.836237 
L 95.105318 183.713175 
L 95.960099 183.6339 
L 96.814881 185.153337 
L 97.669662 184.84945 
L 98.524443 184.730537 
L 99.379225 186.091425 
L 100.234006 185.576137 
L 101.088788 184.74375 
L 101.943569 184.545562 
L 102.79835 184.611625 
L 103.653132 184.915513 
L 104.507913 183.766025 
L 105.362695 182.550475 
L 106.217476 182.352287 
L 107.072257 179.894763 
L 107.927039 177.424025 
L 108.78182 177.040863 
L 109.636602 178.177137 
L 110.491383 180.978187 
L 111.346164 183.620688 
L 112.200946 185.734688 
L 113.055727 187.5448 
L 113.910509 186.897387 
L 114.76529 187.465525 
L 115.620071 187.28055 
L 116.474853 186.448162 
L 117.329634 188.112937 
L 118.184416 188.86605 
L 119.039197 189.685225 
L 119.893979 189.262425 
L 120.74876 189.804137 
L 121.603541 189.249212 
L 122.458323 190.266575 
L 123.313104 189.103875 
L 124.167885 189.949475 
L 125.022667 188.97175 
L 125.877448 190.1873 
" clip-path="url(#p3071b33725)" style="fill: none; stroke: #008e00; stroke-width: 1.5; stroke-linecap: square"/>
   </g>
   <g id="line2d_17">
    <path d="M 27.577587 181.083888 
L 28.432368 179.643725 
L 29.28715 177.331537 
L 30.141931 176.525575 
L 30.996713 173.341363 
L 31.851494 168.135638 
L 32.706275 164.1851 
L 33.561057 160.208137 
L 34.415838 167.871387 
L 35.27062 176.591637 
L 36.125401 181.123525 
L 36.980182 182.52405 
L 37.834964 182.431562 
L 38.689745 183.2111 
L 39.544527 184.307738 
L 40.399308 183.871725 
L 41.254089 184.53235 
L 42.108871 183.05255 
L 42.963652 184.519137 
L 43.818434 185.37795 
L 44.673215 184.836237 
L 45.527997 184.043487 
L 46.382778 184.400225 
L 47.237559 183.951 
L 48.092341 185.576137 
L 48.947122 185.021212 
L 49.801904 184.862662 
L 50.656685 184.00385 
L 51.511466 183.924575 
L 52.366248 184.558775 
L 53.221029 184.704113 
L 54.075811 184.651263 
L 54.930592 183.8453 
L 55.785373 185.615775 
L 56.640155 184.889087 
L 57.494936 185.457225 
L 58.349718 184.836237 
L 59.204499 184.704113 
L 60.05928 185.232612 
L 60.914062 184.347375 
L 61.768843 185.179762 
L 62.623625 182.9997 
L 63.478406 184.941937 
L 64.333187 186.514225 
L 65.187969 185.311888 
L 66.04275 186.448162 
L 66.897532 185.470438 
L 67.752313 185.16655 
L 68.607094 183.89815 
L 69.461876 185.523287 
L 70.316657 185.761112 
L 71.171439 186.131062 
L 72.02622 186.408525 
L 72.881001 185.893237 
L 73.735783 186.091425 
L 74.590564 187.029513 
L 75.445346 187.2277 
L 76.300127 186.025362 
L 77.154908 185.444012 
L 78.00969 185.470438 
L 78.864471 186.342463 
L 79.719253 185.932875 
L 80.574034 185.628987 
L 81.428815 186.474587 
L 82.283597 186.316037 
L 83.138378 185.708262 
L 83.99316 186.408525 
L 84.847941 186.870962 
L 85.702722 187.06915 
L 86.557504 187.91475 
L 87.412285 187.267337 
L 88.267067 186.9106 
L 89.121848 188.33755 
L 89.976629 188.363975 
L 90.831411 187.306975 
L 91.686192 188.733925 
L 92.540974 188.179 
L 93.395755 189.9759 
L 94.250536 189.209575 
L 95.105318 188.958537 
L 95.960099 188.350763 
L 96.814881 188.23185 
L 97.669662 188.44325 
L 98.524443 187.848687 
L 99.379225 189.051025 
L 100.234006 188.522525 
L 101.088788 188.403613 
L 101.943569 187.70335 
L 102.79835 186.553862 
L 103.653132 187.742987 
L 104.507913 186.54065 
L 105.362695 184.84945 
L 106.217476 182.4712 
L 107.072257 178.150712 
L 107.927039 177.384388 
L 108.78182 176.552 
L 109.636602 181.929487 
L 110.491383 185.100487 
L 111.346164 189.117087 
L 112.200946 189.262425 
L 113.055727 191.08575 
L 113.910509 191.112175 
L 114.76529 193.226175 
L 115.620071 191.4557 
L 116.474853 191.0329 
L 117.329634 192.314513 
L 118.184416 192.88265 
L 119.039197 191.4557 
L 119.893979 193.662187 
L 120.74876 192.525913 
L 121.603541 191.970987 
L 122.458323 192.697675 
L 123.313104 192.499487 
L 124.167885 192.684462 
L 125.022667 193.9925 
L 125.877448 192.8298 
" clip-path="url(#p3071b33725)" style="fill: none; stroke: #000000; stroke-width: 1.5; stroke-linecap: square"/>
   </g>
   <g id="patch_3">
    <path d="M 27.6675 213.480937 
L 27.6675 23.220938 
" style="fill: none; stroke: #000000; stroke-width: 0.8; stroke-linejoin: miter; stroke-linecap: square"/>
   </g>
   <g id="patch_4">
    <path d="M 27.6675 213.480937 
L 125.3175 213.480937 
" style="fill: none; stroke: #000000; stroke-width: 0.8; stroke-linejoin: miter; stroke-linecap: square"/>
   </g>
   <g id="text_7">
    <!-- Moderate-aluminum -->
    <g transform="translate(14.249375 17.220937) scale(0.14 -0.14)">
     <defs>
      <path id="ArialMT-4d" d="M 475 0 
L 475 4581 
L 1388 4581 
L 2472 1338 
Q 2622 884 2691 659 
Q 2769 909 2934 1394 
L 4031 4581 
L 4847 4581 
L 4847 0 
L 4263 0 
L 4263 3834 
L 2931 0 
L 2384 0 
L 1059 3900 
L 1059 0 
L 475 0 
z
" transform="scale(0.015625)"/>
      <path id="ArialMT-6f" d="M 213 1659 
Q 213 2581 725 3025 
Q 1153 3394 1769 3394 
Q 2453 3394 2887 2945 
Q 3322 2497 3322 1706 
Q 3322 1066 3130 698 
Q 2938 331 2570 128 
Q 2203 -75 1769 -75 
Q 1072 -75 642 372 
Q 213 819 213 1659 
z
M 791 1659 
Q 791 1022 1069 705 
Q 1347 388 1769 388 
Q 2188 388 2466 706 
Q 2744 1025 2744 1678 
Q 2744 2294 2464 2611 
Q 2184 2928 1769 2928 
Q 1347 2928 1069 2612 
Q 791 2297 791 1659 
z
" transform="scale(0.015625)"/>
      <path id="ArialMT-64" d="M 2575 0 
L 2575 419 
Q 2259 -75 1647 -75 
Q 1250 -75 917 144 
Q 584 363 401 755 
Q 219 1147 219 1656 
Q 219 2153 384 2558 
Q 550 2963 881 3178 
Q 1213 3394 1622 3394 
Q 1922 3394 2156 3267 
Q 2391 3141 2538 2938 
L 2538 4581 
L 3097 4581 
L 3097 0 
L 2575 0 
z
M 797 1656 
Q 797 1019 1065 703 
Q 1334 388 1700 388 
Q 2069 388 2326 689 
Q 2584 991 2584 1609 
Q 2584 2291 2321 2609 
Q 2059 2928 1675 2928 
Q 1300 2928 1048 2622 
Q 797 2316 797 1656 
z
" transform="scale(0.015625)"/>
      <path id="ArialMT-72" d="M 416 0 
L 416 3319 
L 922 3319 
L 922 2816 
Q 1116 3169 1280 3281 
Q 1444 3394 1641 3394 
Q 1925 3394 2219 3213 
L 2025 2691 
Q 1819 2813 1613 2813 
Q 1428 2813 1281 2702 
Q 1134 2591 1072 2394 
Q 978 2094 978 1738 
L 978 0 
L 416 0 
z
" transform="scale(0.015625)"/>
      <path id="ArialMT-61" d="M 2588 409 
Q 2275 144 1986 34 
Q 1697 -75 1366 -75 
Q 819 -75 525 192 
Q 231 459 231 875 
Q 231 1119 342 1320 
Q 453 1522 633 1644 
Q 813 1766 1038 1828 
Q 1203 1872 1538 1913 
Q 2219 1994 2541 2106 
Q 2544 2222 2544 2253 
Q 2544 2597 2384 2738 
Q 2169 2928 1744 2928 
Q 1347 2928 1158 2789 
Q 969 2650 878 2297 
L 328 2372 
Q 403 2725 575 2942 
Q 747 3159 1072 3276 
Q 1397 3394 1825 3394 
Q 2250 3394 2515 3294 
Q 2781 3194 2906 3042 
Q 3031 2891 3081 2659 
Q 3109 2516 3109 2141 
L 3109 1391 
Q 3109 606 3145 398 
Q 3181 191 3288 0 
L 2700 0 
Q 2613 175 2588 409 
z
M 2541 1666 
Q 2234 1541 1622 1453 
Q 1275 1403 1131 1340 
Q 988 1278 909 1158 
Q 831 1038 831 891 
Q 831 666 1001 516 
Q 1172 366 1500 366 
Q 1825 366 2078 508 
Q 2331 650 2450 897 
Q 2541 1088 2541 1459 
L 2541 1666 
z
" transform="scale(0.015625)"/>
      <path id="ArialMT-2d" d="M 203 1375 
L 203 1941 
L 1931 1941 
L 1931 1375 
L 203 1375 
z
" transform="scale(0.015625)"/>
      <path id="ArialMT-6c" d="M 409 0 
L 409 4581 
L 972 4581 
L 972 0 
L 409 0 
z
" transform="scale(0.015625)"/>
      <path id="ArialMT-75" d="M 2597 0 
L 2597 488 
Q 2209 -75 1544 -75 
Q 1250 -75 995 37 
Q 741 150 617 320 
Q 494 491 444 738 
Q 409 903 409 1263 
L 409 3319 
L 972 3319 
L 972 1478 
Q 972 1038 1006 884 
Q 1059 663 1231 536 
Q 1403 409 1656 409 
Q 1909 409 2131 539 
Q 2353 669 2445 892 
Q 2538 1116 2538 1541 
L 2538 3319 
L 3100 3319 
L 3100 0 
L 2597 0 
z
" transform="scale(0.015625)"/>
      <path id="ArialMT-6d" d="M 422 0 
L 422 3319 
L 925 3319 
L 925 2853 
Q 1081 3097 1340 3245 
Q 1600 3394 1931 3394 
Q 2300 3394 2536 3241 
Q 2772 3088 2869 2813 
Q 3263 3394 3894 3394 
Q 4388 3394 4653 3120 
Q 4919 2847 4919 2278 
L 4919 0 
L 4359 0 
L 4359 2091 
Q 4359 2428 4304 2576 
Q 4250 2725 4106 2815 
Q 3963 2906 3769 2906 
Q 3419 2906 3187 2673 
Q 2956 2441 2956 1928 
L 2956 0 
L 2394 0 
L 2394 2156 
Q 2394 2531 2256 2718 
Q 2119 2906 1806 2906 
Q 1569 2906 1367 2781 
Q 1166 2656 1075 2415 
Q 984 2175 984 1722 
L 984 0 
L 422 0 
z
" transform="scale(0.015625)"/>
     </defs>
     <use xlink:href="#ArialMT-4d"/>
     <use xlink:href="#ArialMT-6f" x="83.300781"/>
     <use xlink:href="#ArialMT-64" x="138.916016"/>
     <use xlink:href="#ArialMT-65" x="194.53125"/>
     <use xlink:href="#ArialMT-72" x="250.146484"/>
     <use xlink:href="#ArialMT-61" x="283.447266"/>
     <use xlink:href="#ArialMT-74" x="339.0625"/>
     <use xlink:href="#ArialMT-65" x="366.845703"/>
     <use xlink:href="#ArialMT-2d" x="422.460938"/>
     <use xlink:href="#ArialMT-61" x="455.761719"/>
     <use xlink:href="#ArialMT-6c" x="511.376953"/>
     <use xlink:href="#ArialMT-75" x="533.59375"/>
     <use xlink:href="#ArialMT-6d" x="589.208984"/>
     <use xlink:href="#ArialMT-69" x="672.509766"/>
     <use xlink:href="#ArialMT-6e" x="694.726562"/>
     <use xlink:href="#ArialMT-75" x="750.341797"/>
     <use xlink:href="#ArialMT-6d" x="805.957031"/>
    </g>
   </g>
  </g>
 </g>
 <defs>
  <clipPath id="p3071b33725">
   <rect x="27.6675" y="23.220937" width="97.65" height="190.26"/>
  </clipPath>
 </defs>
</svg>
