<?xml version="1.0" encoding="utf-8" standalone="no"?>
<!DOCTYPE svg PUBLIC "-//W3C//DTD SVG 1.1//EN"
  "http://www.w3.org/Graphics/SVG/1.1/DTD/svg11.dtd">
<svg xmlns:xlink="http://www.w3.org/1999/xlink" width="151.772969pt" height="253.629687pt" viewBox="0 0 151.772969 253.629687" xmlns="http://www.w3.org/2000/svg" version="1.1">
 <metadata>
  <rdf:RDF xmlns:dc="http://purl.org/dc/elements/1.1/" xmlns:cc="http://creativecommons.org/ns#" xmlns:rdf="http://www.w3.org/1999/02/22-rdf-syntax-ns#">
   <cc:Work>
    <dc:type rdf:resource="http://purl.org/dc/dcmitype/StillImage"/>
    <dc:date>2023-10-05T22:22:06.144505</dc:date>
    <dc:format>image/svg+xml</dc:format>
    <dc:creator>
     <cc:Agent>
      <dc:title>Matplotlib v3.7.1, https://matplotlib.org/</dc:title>
     </cc:Agent>
    </dc:creator>
   </cc:Work>
  </rdf:RDF>
 </metadata>
 <defs>
  <style type="text/css">*{stroke-linejoin: round; stroke-linecap: butt}</style>
 </defs>
 <g id="figure_1">
  <g id="patch_1">
   <path d="M -0 253.629687 
L 151.772969 253.629687 
L 151.772969 -0 
L -0 -0 
z
" style="fill: #ffffff"/>
  </g>
  <g id="axes_1">
   <g id="patch_2">
    <path d="M 27.6675 213.480937 
L 125.3175 213.480937 
L 125.3175 23.220937 
L 27.6675 23.220937 
z
" style="fill: #ffffff"/>
   </g>
   <g id="matplotlib.axis_1">
    <g id="xtick_1">
     <g id="line2d_1">
      <defs>
       <path id="m551afbbdaa" d="M 0 0 
L 0 3.5 
" style="stroke: #000000; stroke-width: 0.8"/>
      </defs>
      <g>
       <use xlink:href="#m551afbbdaa" x="27.6675" y="213.480937" style="stroke: #000000; stroke-width: 0.8"/>
      </g>
     </g>
     <g id="text_1">
      <!-- 10 -->
      <g transform="translate(22.106563 227.63875) scale(0.1 -0.1)">
       <defs>
        <path id="ArialMT-31" d="M 2384 0 
L 1822 0 
L 1822 3584 
Q 1619 3391 1289 3197 
Q 959 3003 697 2906 
L 697 3450 
Q 1169 3672 1522 3987 
Q 1875 4303 2022 4600 
L 2384 4600 
L 2384 0 
z
" transform="scale(0.015625)"/>
        <path id="ArialMT-30" d="M 266 2259 
Q 266 3072 433 3567 
Q 600 4063 929 4331 
Q 1259 4600 1759 4600 
Q 2128 4600 2406 4451 
Q 2684 4303 2865 4023 
Q 3047 3744 3150 3342 
Q 3253 2941 3253 2259 
Q 3253 1453 3087 958 
Q 2922 463 2592 192 
Q 2263 -78 1759 -78 
Q 1097 -78 719 397 
Q 266 969 266 2259 
z
M 844 2259 
Q 844 1131 1108 757 
Q 1372 384 1759 384 
Q 2147 384 2411 759 
Q 2675 1134 2675 2259 
Q 2675 3391 2411 3762 
Q 2147 4134 1753 4134 
Q 1366 4134 1134 3806 
Q 844 3388 844 2259 
z
" transform="scale(0.015625)"/>
       </defs>
       <use xlink:href="#ArialMT-31"/>
       <use xlink:href="#ArialMT-30" x="55.615234"/>
      </g>
     </g>
    </g>
    <g id="xtick_2">
     <g id="line2d_2">
      <g>
       <use xlink:href="#m551afbbdaa" x="60.2175" y="213.480937" style="stroke: #000000; stroke-width: 0.8"/>
      </g>
     </g>
     <g id="text_2">
      <!-- 11 -->
      <g transform="translate(55.025313 227.63875) scale(0.1 -0.1)">
       <use xlink:href="#ArialMT-31"/>
       <use xlink:href="#ArialMT-31" x="48.240234"/>
      </g>
     </g>
    </g>
    <g id="xtick_3">
     <g id="line2d_3">
      <g>
       <use xlink:href="#m551afbbdaa" x="92.7675" y="213.480937" style="stroke: #000000; stroke-width: 0.8"/>
      </g>
     </g>
     <g id="text_3">
      <!-- 12 -->
      <g transform="translate(87.206562 227.63875) scale(0.1 -0.1)">
       <defs>
        <path id="ArialMT-32" d="M 3222 541 
L 3222 0 
L 194 0 
Q 188 203 259 391 
Q 375 700 629 1000 
Q 884 1300 1366 1694 
Q 2113 2306 2375 2664 
Q 2638 3022 2638 3341 
Q 2638 3675 2398 3904 
Q 2159 4134 1775 4134 
Q 1369 4134 1125 3890 
Q 881 3647 878 3216 
L 300 3275 
Q 359 3922 746 4261 
Q 1134 4600 1788 4600 
Q 2447 4600 2831 4234 
Q 3216 3869 3216 3328 
Q 3216 3053 3103 2787 
Q 2991 2522 2730 2228 
Q 2469 1934 1863 1422 
Q 1356 997 1212 845 
Q 1069 694 975 541 
L 3222 541 
z
" transform="scale(0.015625)"/>
       </defs>
       <use xlink:href="#ArialMT-31"/>
       <use xlink:href="#ArialMT-32" x="55.615234"/>
      </g>
     </g>
    </g>
    <g id="xtick_4">
     <g id="line2d_4">
      <g>
       <use xlink:href="#m551afbbdaa" x="125.3175" y="213.480937" style="stroke: #000000; stroke-width: 0.8"/>
      </g>
     </g>
     <g id="text_4">
      <!-- 13 -->
      <g transform="translate(119.756563 227.63875) scale(0.1 -0.1)">
       <defs>
        <path id="ArialMT-33" d="M 269 1209 
L 831 1284 
Q 928 806 1161 595 
Q 1394 384 1728 384 
Q 2125 384 2398 659 
Q 2672 934 2672 1341 
Q 2672 1728 2419 1979 
Q 2166 2231 1775 2231 
Q 1616 2231 1378 2169 
L 1441 2663 
Q 1497 2656 1531 2656 
Q 1891 2656 2178 2843 
Q 2466 3031 2466 3422 
Q 2466 3731 2256 3934 
Q 2047 4138 1716 4138 
Q 1388 4138 1169 3931 
Q 950 3725 888 3313 
L 325 3413 
Q 428 3978 793 4289 
Q 1159 4600 1703 4600 
Q 2078 4600 2393 4439 
Q 2709 4278 2876 4000 
Q 3044 3722 3044 3409 
Q 3044 3113 2884 2869 
Q 2725 2625 2413 2481 
Q 2819 2388 3044 2092 
Q 3269 1797 3269 1353 
Q 3269 753 2831 336 
Q 2394 -81 1725 -81 
Q 1122 -81 723 278 
Q 325 638 269 1209 
z
" transform="scale(0.015625)"/>
       </defs>
       <use xlink:href="#ArialMT-31"/>
       <use xlink:href="#ArialMT-33" x="55.615234"/>
      </g>
     </g>
    </g>
    <g id="xtick_5">
     <g id="line2d_5">
      <defs>
       <path id="mf6ff3d6be4" d="M 0 0 
L 0 2 
" style="stroke: #000000; stroke-width: 0.6"/>
      </defs>
      <g>
       <use xlink:href="#mf6ff3d6be4" x="43.9425" y="213.480937" style="stroke: #000000; stroke-width: 0.6"/>
      </g>
     </g>
    </g>
    <g id="xtick_6">
     <g id="line2d_6">
      <g>
       <use xlink:href="#mf6ff3d6be4" x="76.4925" y="213.480937" style="stroke: #000000; stroke-width: 0.6"/>
      </g>
     </g>
    </g>
    <g id="xtick_7">
     <g id="line2d_7">
      <g>
       <use xlink:href="#mf6ff3d6be4" x="109.0425" y="213.480937" style="stroke: #000000; stroke-width: 0.6"/>
      </g>
     </g>
    </g>
    <g id="text_5">
     <!-- 2θ -->
     <g transform="translate(68.707188 243.647187) scale(0.14 -0.14)">
      <defs>
       <path id="ArialMT-3b8" d="M 288 2291 
Q 288 4659 1781 4659 
Q 3275 4659 3275 2291 
Q 3275 -75 1781 -75 
Q 288 -75 288 2291 
z
M 869 2519 
L 2694 2519 
Q 2663 3497 2413 3847 
Q 2163 4197 1775 4197 
Q 903 4197 869 2519 
z
M 2694 2066 
L 869 2066 
Q 903 388 1781 388 
Q 2663 388 2694 2066 
z
" transform="scale(0.015625)"/>
      </defs>
      <use xlink:href="#ArialMT-32"/>
      <use xlink:href="#ArialMT-3b8" x="55.615234"/>
     </g>
    </g>
   </g>
   <g id="matplotlib.axis_2">
    <g id="ytick_1">
     <g id="line2d_8"/>
    </g>
    <g id="ytick_2">
     <g id="line2d_9"/>
    </g>
    <g id="ytick_3">
     <g id="line2d_10"/>
    </g>
    <g id="ytick_4">
     <g id="line2d_11"/>
    </g>
    <g id="ytick_5">
     <g id="line2d_12"/>
    </g>
    <g id="ytick_6">
     <g id="line2d_13"/>
    </g>
    <g id="ytick_7">
     <g id="line2d_14"/>
    </g>
    <g id="text_6">
     <!-- Intensity -->
     <g transform="translate(17.220938 144.418281) rotate(-90) scale(0.14 -0.14)">
      <defs>
       <path id="ArialMT-49" d="M 597 0 
L 597 4581 
L 1203 4581 
L 1203 0 
L 597 0 
z
" transform="scale(0.015625)"/>
       <path id="ArialMT-6e" d="M 422 0 
L 422 3319 
L 928 3319 
L 928 2847 
Q 1294 3394 1984 3394 
Q 2284 3394 2536 3286 
Q 2788 3178 2913 3003 
Q 3038 2828 3088 2588 
Q 3119 2431 3119 2041 
L 3119 0 
L 2556 0 
L 2556 2019 
Q 2556 2363 2490 2533 
Q 2425 2703 2258 2804 
Q 2091 2906 1866 2906 
Q 1506 2906 1245 2678 
Q 984 2450 984 1813 
L 984 0 
L 422 0 
z
" transform="scale(0.015625)"/>
       <path id="ArialMT-74" d="M 1650 503 
L 1731 6 
Q 1494 -44 1306 -44 
Q 1000 -44 831 53 
Q 663 150 594 308 
Q 525 466 525 972 
L 525 2881 
L 113 2881 
L 113 3319 
L 525 3319 
L 525 4141 
L 1084 4478 
L 1084 3319 
L 1650 3319 
L 1650 2881 
L 1084 2881 
L 1084 941 
Q 1084 700 1114 631 
Q 1144 563 1211 522 
Q 1278 481 1403 481 
Q 1497 481 1650 503 
z
" transform="scale(0.015625)"/>
       <path id="ArialMT-65" d="M 2694 1069 
L 3275 997 
Q 3138 488 2766 206 
Q 2394 -75 1816 -75 
Q 1088 -75 661 373 
Q 234 822 234 1631 
Q 234 2469 665 2931 
Q 1097 3394 1784 3394 
Q 2450 3394 2872 2941 
Q 3294 2488 3294 1666 
Q 3294 1616 3291 1516 
L 816 1516 
Q 847 969 1125 678 
Q 1403 388 1819 388 
Q 2128 388 2347 550 
Q 2566 713 2694 1069 
z
M 847 1978 
L 2700 1978 
Q 2663 2397 2488 2606 
Q 2219 2931 1791 2931 
Q 1403 2931 1139 2672 
Q 875 2413 847 1978 
z
" transform="scale(0.015625)"/>
       <path id="ArialMT-73" d="M 197 991 
L 753 1078 
Q 800 744 1014 566 
Q 1228 388 1613 388 
Q 2000 388 2187 545 
Q 2375 703 2375 916 
Q 2375 1106 2209 1216 
Q 2094 1291 1634 1406 
Q 1016 1563 777 1677 
Q 538 1791 414 1992 
Q 291 2194 291 2438 
Q 291 2659 392 2848 
Q 494 3038 669 3163 
Q 800 3259 1026 3326 
Q 1253 3394 1513 3394 
Q 1903 3394 2198 3281 
Q 2494 3169 2634 2976 
Q 2775 2784 2828 2463 
L 2278 2388 
Q 2241 2644 2061 2787 
Q 1881 2931 1553 2931 
Q 1166 2931 1000 2803 
Q 834 2675 834 2503 
Q 834 2394 903 2306 
Q 972 2216 1119 2156 
Q 1203 2125 1616 2013 
Q 2213 1853 2448 1751 
Q 2684 1650 2818 1456 
Q 2953 1263 2953 975 
Q 2953 694 2789 445 
Q 2625 197 2315 61 
Q 2006 -75 1616 -75 
Q 969 -75 630 194 
Q 291 463 197 991 
z
" transform="scale(0.015625)"/>
       <path id="ArialMT-69" d="M 425 3934 
L 425 4581 
L 988 4581 
L 988 3934 
L 425 3934 
z
M 425 0 
L 425 3319 
L 988 3319 
L 988 0 
L 425 0 
z
" transform="scale(0.015625)"/>
       <path id="ArialMT-79" d="M 397 -1278 
L 334 -750 
Q 519 -800 656 -800 
Q 844 -800 956 -737 
Q 1069 -675 1141 -563 
Q 1194 -478 1313 -144 
Q 1328 -97 1363 -6 
L 103 3319 
L 709 3319 
L 1400 1397 
Q 1534 1031 1641 628 
Q 1738 1016 1872 1384 
L 2581 3319 
L 3144 3319 
L 1881 -56 
Q 1678 -603 1566 -809 
Q 1416 -1088 1222 -1217 
Q 1028 -1347 759 -1347 
Q 597 -1347 397 -1278 
z
" transform="scale(0.015625)"/>
      </defs>
      <use xlink:href="#ArialMT-49"/>
      <use xlink:href="#ArialMT-6e" x="27.783203"/>
      <use xlink:href="#ArialMT-74" x="83.398438"/>
      <use xlink:href="#ArialMT-65" x="111.181641"/>
      <use xlink:href="#ArialMT-6e" x="166.796875"/>
      <use xlink:href="#ArialMT-73" x="222.412109"/>
      <use xlink:href="#ArialMT-69" x="272.412109"/>
      <use xlink:href="#ArialMT-74" x="294.628906"/>
      <use xlink:href="#ArialMT-79" x="322.412109"/>
     </g>
    </g>
   </g>
   <g id="line2d_15">
    <path d="M 27.577587 170.025025 
L 28.432368 167.93745 
L 29.28715 167.329675 
L 30.141931 168.981237 
L 30.996713 167.6732 
L 31.851494 168.214912 
L 32.706275 168.46595 
L 33.561057 167.659987 
L 34.415838 167.792113 
L 35.27062 167.51465 
L 36.125401 169.41725 
L 36.980182 167.541075 
L 37.834964 166.338737 
L 38.689745 165.783813 
L 39.544527 166.325525 
L 40.399308 167.818537 
L 41.254089 166.748325 
L 42.108871 165.836662 
L 42.963652 163.6566 
L 43.818434 163.986912 
L 44.673215 163.260225 
L 45.527997 162.3882 
L 46.382778 165.955575 
L 47.237559 164.13225 
L 48.092341 163.431987 
L 48.947122 162.5996 
L 49.801904 163.299862 
L 50.656685 164.594687 
L 51.511466 161.925762 
L 52.366248 162.86385 
L 53.221029 162.005038 
L 54.075811 162.903487 
L 54.930592 161.317988 
L 55.785373 160.683787 
L 56.640155 162.3882 
L 57.494936 160.85555 
L 58.349718 160.736638 
L 59.204499 161.899338 
L 60.05928 161.317988 
L 60.914062 162.54675 
L 61.768843 160.9084 
L 62.623625 161.502962 
L 63.478406 161.317988 
L 64.333187 160.459175 
L 65.187969 162.639238 
L 66.04275 162.057887 
L 66.897532 160.564875 
L 67.752313 160.829125 
L 68.607094 160.11565 
L 69.461876 160.617725 
L 70.316657 161.040525 
L 71.171439 160.868763 
L 72.02622 161.780425 
L 72.881001 161.635087 
L 73.735783 161.291562 
L 74.590564 163.035613 
L 75.445346 163.418775 
L 76.300127 162.943125 
L 77.154908 161.476538 
L 78.00969 165.149612 
L 78.864471 164.039762 
L 79.719253 164.013338 
L 80.574034 162.837425 
L 81.428815 163.3395 
L 82.283597 165.466712 
L 83.138378 163.960487 
L 83.99316 164.23795 
L 84.847941 164.634325 
L 85.702722 165.017487 
L 86.557504 166.180187 
L 87.412285 166.444437 
L 88.267067 167.30325 
L 89.121848 165.585625 
L 89.976629 167.646775 
L 90.831411 167.9903 
L 91.686192 168.650925 
L 92.540974 170.434612 
L 93.395755 168.954813 
L 94.250536 169.562588 
L 95.105318 170.513888 
L 95.960099 169.443675 
L 96.814881 170.778138 
L 97.669662 169.232275 
L 98.524443 171.769075 
L 99.379225 172.257937 
L 100.234006 172.812862 
L 101.088788 172.79965 
L 101.943569 172.072962 
L 102.79835 173.5924 
L 103.653132 174.741887 
L 104.507913 175.204325 
L 105.362695 173.96235 
L 106.217476 174.7551 
L 107.072257 175.12505 
L 107.927039 176.419875 
L 108.78182 175.732825 
L 109.636602 176.459512 
L 110.491383 175.785675 
L 111.346164 175.508213 
L 112.200946 176.92195 
L 113.055727 177.701487 
L 113.910509 178.111075 
L 114.76529 178.956675 
L 115.620071 178.626362 
L 116.474853 179.432325 
L 117.329634 178.40175 
L 118.184416 179.630513 
L 119.039197 181.903063 
L 119.893979 180.211862 
L 120.74876 180.6743 
L 121.603541 180.225075 
L 122.458323 180.793212 
L 123.313104 181.295288 
L 124.167885 182.986488 
L 125.022667 181.017825 
L 125.877448 182.894 
" clip-path="url(#pb492e75984)" style="fill: none; stroke: #ffb14e; stroke-width: 1.5; stroke-linecap: square"/>
   </g>
   <g id="line2d_16">
    <path d="M 27.577587 173.103537 
L 28.432368 172.125812 
L 29.28715 172.403275 
L 30.141931 173.037475 
L 30.996713 171.53125 
L 31.851494 170.817775 
L 32.706275 172.614675 
L 33.561057 171.385912 
L 34.415838 171.148088 
L 35.27062 171.333062 
L 36.125401 170.57995 
L 36.980182 170.725287 
L 37.834964 170.659225 
L 38.689745 171.174512 
L 39.544527 170.117513 
L 40.399308 169.826838 
L 41.254089 168.241337 
L 42.108871 166.748325 
L 42.963652 163.9737 
L 43.818434 165.268525 
L 44.673215 166.708687 
L 45.527997 168.003512 
L 46.382778 168.532013 
L 47.237559 169.41725 
L 48.092341 168.743413 
L 48.947122 166.999362 
L 49.801904 167.646775 
L 50.656685 167.924238 
L 51.511466 168.082787 
L 52.366248 167.792113 
L 53.221029 168.426312 
L 54.075811 168.135638 
L 54.930592 166.523712 
L 55.785373 167.527862 
L 56.640155 165.2421 
L 57.494936 166.787962 
L 58.349718 167.488225 
L 59.204499 164.594687 
L 60.05928 164.462562 
L 60.914062 160.789488 
L 61.768843 162.811 
L 62.623625 165.162825 
L 63.478406 168.096 
L 64.333187 168.36025 
L 65.187969 167.184337 
L 66.04275 167.977087 
L 66.897532 166.920087 
L 67.752313 167.501438 
L 68.607094 169.20585 
L 69.461876 167.1447 
L 70.316657 167.950662 
L 71.171439 167.342887 
L 72.02622 166.920087 
L 72.881001 166.946512 
L 73.735783 167.4618 
L 74.590564 167.435375 
L 75.445346 168.558437 
L 76.300127 170.170363 
L 77.154908 171.63695 
L 78.00969 170.79135 
L 78.864471 169.139788 
L 79.719253 169.813625 
L 80.574034 170.328913 
L 81.428815 171.121663 
L 82.283597 169.496525 
L 83.138378 171.9012 
L 83.99316 171.980475 
L 84.847941 169.536162 
L 85.702722 171.385912 
L 86.557504 172.971412 
L 87.412285 174.424787 
L 88.267067 172.707162 
L 89.121848 173.552763 
L 89.976629 171.993687 
L 90.831411 173.605613 
L 91.686192 173.499912 
L 92.540974 174.041625 
L 93.395755 174.556913 
L 94.250536 175.732825 
L 95.105318 175.997075 
L 95.960099 175.296812 
L 96.814881 175.86495 
L 97.669662 176.353813 
L 98.524443 175.8121 
L 99.379225 178.8774 
L 100.234006 177.106925 
L 101.088788 177.476875 
L 101.943569 177.9261 
L 102.79835 178.2432 
L 103.653132 177.0805 
L 104.507913 178.467812 
L 105.362695 180.013675 
L 106.217476 179.8287 
L 107.072257 179.273775 
L 107.927039 179.643725 
L 108.78182 180.0401 
L 109.636602 180.0401 
L 110.491383 180.30435 
L 111.346164 180.172225 
L 112.200946 180.9914 
L 113.055727 181.5199 
L 113.910509 183.065763 
L 114.76529 182.94685 
L 115.620071 183.197887 
L 116.474853 182.801513 
L 117.329634 183.911362 
L 118.184416 182.960062 
L 119.039197 183.89815 
L 119.893979 183.6339 
L 120.74876 185.192975 
L 121.603541 184.5852 
L 122.458323 184.915513 
L 123.313104 184.00385 
L 124.167885 185.3251 
L 125.022667 186.11785 
L 125.877448 185.087275 
" clip-path="url(#pb492e75984)" style="fill: none; stroke: #008e00; stroke-width: 1.5; stroke-linecap: square"/>
   </g>
   <g id="line2d_17">
    <path d="M 27.577587 178.705637 
L 28.432368 180.964975 
L 29.28715 180.3572 
L 30.141931 181.268863 
L 30.996713 180.436475 
L 31.851494 179.286988 
L 32.706275 177.609 
L 33.561057 178.177137 
L 34.415838 179.538025 
L 35.27062 177.384388 
L 36.125401 178.917037 
L 36.980182 177.172988 
L 37.834964 178.61315 
L 38.689745 178.362112 
L 39.544527 177.159775 
L 40.399308 177.106925 
L 41.254089 177.675062 
L 42.108871 178.0318 
L 42.963652 176.353813 
L 43.818434 176.459512 
L 44.673215 174.530487 
L 45.527997 178.08465 
L 46.382778 176.036712 
L 47.237559 175.33645 
L 48.092341 174.8608 
L 48.947122 175.257175 
L 49.801904 176.18205 
L 50.656685 175.23075 
L 51.511466 174.305875 
L 52.366248 174.675825 
L 53.221029 174.70225 
L 54.075811 173.764162 
L 54.930592 173.262088 
L 55.785373 174.728675 
L 56.640155 173.817013 
L 57.494936 173.896287 
L 58.349718 172.997838 
L 59.204499 173.196025 
L 60.05928 173.156387 
L 60.914062 172.680737 
L 61.768843 173.301725 
L 62.623625 172.575038 
L 63.478406 172.4297 
L 64.333187 173.407425 
L 65.187969 173.090325 
L 66.04275 172.614675 
L 66.897532 173.1696 
L 67.752313 172.416487 
L 68.607094 172.1126 
L 69.461876 172.27115 
L 70.316657 173.2753 
L 71.171439 172.90535 
L 72.02622 173.248875 
L 72.881001 172.786438 
L 73.735783 173.883075 
L 74.590564 172.495763 
L 75.445346 174.992925 
L 76.300127 174.3323 
L 77.154908 174.424787 
L 78.00969 174.583337 
L 78.864471 174.59655 
L 79.719253 174.06805 
L 80.574034 175.415725 
L 81.428815 174.001987 
L 82.283597 175.495 
L 83.138378 176.618063 
L 83.99316 175.468575 
L 84.847941 176.842675 
L 85.702722 177.516513 
L 86.557504 178.1375 
L 87.412285 176.644487 
L 88.267067 177.225838 
L 89.121848 177.76755 
L 89.976629 177.278687 
L 90.831411 178.322475 
L 91.686192 178.850975 
L 92.540974 178.837762 
L 93.395755 179.947612 
L 94.250536 178.2432 
L 95.105318 179.67015 
L 95.960099 180.436475 
L 96.814881 180.053313 
L 97.669662 182.10125 
L 98.524443 182.84115 
L 99.379225 180.978187 
L 100.234006 180.542175 
L 101.088788 182.669387 
L 101.943569 183.620688 
L 102.79835 183.118612 
L 103.653132 183.409288 
L 104.507913 183.620688 
L 105.362695 183.026125 
L 106.217476 184.466287 
L 107.072257 184.994788 
L 107.927039 184.439863 
L 108.78182 185.6422 
L 109.636602 185.668625 
L 110.491383 185.6422 
L 111.346164 186.75205 
L 112.200946 186.950237 
L 113.055727 186.065 
L 113.910509 187.320188 
L 114.76529 187.571225 
L 115.620071 188.112937 
L 116.474853 187.888325 
L 117.329634 188.258275 
L 118.184416 187.954387 
L 119.039197 189.143512 
L 119.893979 188.403613 
L 120.74876 189.07745 
L 121.603541 189.9759 
L 122.458323 189.249212 
L 123.313104 188.998175 
L 124.167885 189.6588 
L 125.022667 189.883412 
L 125.877448 188.799987 
" clip-path="url(#pb492e75984)" style="fill: none; stroke: #000000; stroke-width: 1.5; stroke-linecap: square"/>
   </g>
   <g id="patch_3">
    <path d="M 27.6675 213.480937 
L 27.6675 23.220938 
" style="fill: none; stroke: #000000; stroke-width: 0.8; stroke-linejoin: miter; stroke-linecap: square"/>
   </g>
   <g id="patch_4">
    <path d="M 27.6675 213.480937 
L 125.3175 213.480937 
" style="fill: none; stroke: #000000; stroke-width: 0.8; stroke-linejoin: miter; stroke-linecap: square"/>
   </g>
   <g id="text_7">
    <!-- Moderate-magnesium -->
    <g transform="translate(8.412031 17.220937) scale(0.14 -0.14)">
     <defs>
      <path id="ArialMT-4d" d="M 475 0 
L 475 4581 
L 1388 4581 
L 2472 1338 
Q 2622 884 2691 659 
Q 2769 909 2934 1394 
L 4031 4581 
L 4847 4581 
L 4847 0 
L 4263 0 
L 4263 3834 
L 2931 0 
L 2384 0 
L 1059 3900 
L 1059 0 
L 475 0 
z
" transform="scale(0.015625)"/>
      <path id="ArialMT-6f" d="M 213 1659 
Q 213 2581 725 3025 
Q 1153 3394 1769 3394 
Q 2453 3394 2887 2945 
Q 3322 2497 3322 1706 
Q 3322 1066 3130 698 
Q 2938 331 2570 128 
Q 2203 -75 1769 -75 
Q 1072 -75 642 372 
Q 213 819 213 1659 
z
M 791 1659 
Q 791 1022 1069 705 
Q 1347 388 1769 388 
Q 2188 388 2466 706 
Q 2744 1025 2744 1678 
Q 2744 2294 2464 2611 
Q 2184 2928 1769 2928 
Q 1347 2928 1069 2612 
Q 791 2297 791 1659 
z
" transform="scale(0.015625)"/>
      <path id="ArialMT-64" d="M 2575 0 
L 2575 419 
Q 2259 -75 1647 -75 
Q 1250 -75 917 144 
Q 584 363 401 755 
Q 219 1147 219 1656 
Q 219 2153 384 2558 
Q 550 2963 881 3178 
Q 1213 3394 1622 3394 
Q 1922 3394 2156 3267 
Q 2391 3141 2538 2938 
L 2538 4581 
L 3097 4581 
L 3097 0 
L 2575 0 
z
M 797 1656 
Q 797 1019 1065 703 
Q 1334 388 1700 388 
Q 2069 388 2326 689 
Q 2584 991 2584 1609 
Q 2584 2291 2321 2609 
Q 2059 2928 1675 2928 
Q 1300 2928 1048 2622 
Q 797 2316 797 1656 
z
" transform="scale(0.015625)"/>
      <path id="ArialMT-72" d="M 416 0 
L 416 3319 
L 922 3319 
L 922 2816 
Q 1116 3169 1280 3281 
Q 1444 3394 1641 3394 
Q 1925 3394 2219 3213 
L 2025 2691 
Q 1819 2813 1613 2813 
Q 1428 2813 1281 2702 
Q 1134 2591 1072 2394 
Q 978 2094 978 1738 
L 978 0 
L 416 0 
z
" transform="scale(0.015625)"/>
      <path id="ArialMT-61" d="M 2588 409 
Q 2275 144 1986 34 
Q 1697 -75 1366 -75 
Q 819 -75 525 192 
Q 231 459 231 875 
Q 231 1119 342 1320 
Q 453 1522 633 1644 
Q 813 1766 1038 1828 
Q 1203 1872 1538 1913 
Q 2219 1994 2541 2106 
Q 2544 2222 2544 2253 
Q 2544 2597 2384 2738 
Q 2169 2928 1744 2928 
Q 1347 2928 1158 2789 
Q 969 2650 878 2297 
L 328 2372 
Q 403 2725 575 2942 
Q 747 3159 1072 3276 
Q 1397 3394 1825 3394 
Q 2250 3394 2515 3294 
Q 2781 3194 2906 3042 
Q 3031 2891 3081 2659 
Q 3109 2516 3109 2141 
L 3109 1391 
Q 3109 606 3145 398 
Q 3181 191 3288 0 
L 2700 0 
Q 2613 175 2588 409 
z
M 2541 1666 
Q 2234 1541 1622 1453 
Q 1275 1403 1131 1340 
Q 988 1278 909 1158 
Q 831 1038 831 891 
Q 831 666 1001 516 
Q 1172 366 1500 366 
Q 1825 366 2078 508 
Q 2331 650 2450 897 
Q 2541 1088 2541 1459 
L 2541 1666 
z
" transform="scale(0.015625)"/>
      <path id="ArialMT-2d" d="M 203 1375 
L 203 1941 
L 1931 1941 
L 1931 1375 
L 203 1375 
z
" transform="scale(0.015625)"/>
      <path id="ArialMT-6d" d="M 422 0 
L 422 3319 
L 925 3319 
L 925 2853 
Q 1081 3097 1340 3245 
Q 1600 3394 1931 3394 
Q 2300 3394 2536 3241 
Q 2772 3088 2869 2813 
Q 3263 3394 3894 3394 
Q 4388 3394 4653 3120 
Q 4919 2847 4919 2278 
L 4919 0 
L 4359 0 
L 4359 2091 
Q 4359 2428 4304 2576 
Q 4250 2725 4106 2815 
Q 3963 2906 3769 2906 
Q 3419 2906 3187 2673 
Q 2956 2441 2956 1928 
L 2956 0 
L 2394 0 
L 2394 2156 
Q 2394 2531 2256 2718 
Q 2119 2906 1806 2906 
Q 1569 2906 1367 2781 
Q 1166 2656 1075 2415 
Q 984 2175 984 1722 
L 984 0 
L 422 0 
z
" transform="scale(0.015625)"/>
      <path id="ArialMT-67" d="M 319 -275 
L 866 -356 
Q 900 -609 1056 -725 
Q 1266 -881 1628 -881 
Q 2019 -881 2231 -725 
Q 2444 -569 2519 -288 
Q 2563 -116 2559 434 
Q 2191 0 1641 0 
Q 956 0 581 494 
Q 206 988 206 1678 
Q 206 2153 378 2554 
Q 550 2956 876 3175 
Q 1203 3394 1644 3394 
Q 2231 3394 2613 2919 
L 2613 3319 
L 3131 3319 
L 3131 450 
Q 3131 -325 2973 -648 
Q 2816 -972 2473 -1159 
Q 2131 -1347 1631 -1347 
Q 1038 -1347 672 -1080 
Q 306 -813 319 -275 
z
M 784 1719 
Q 784 1066 1043 766 
Q 1303 466 1694 466 
Q 2081 466 2343 764 
Q 2606 1063 2606 1700 
Q 2606 2309 2336 2618 
Q 2066 2928 1684 2928 
Q 1309 2928 1046 2623 
Q 784 2319 784 1719 
z
" transform="scale(0.015625)"/>
      <path id="ArialMT-75" d="M 2597 0 
L 2597 488 
Q 2209 -75 1544 -75 
Q 1250 -75 995 37 
Q 741 150 617 320 
Q 494 491 444 738 
Q 409 903 409 1263 
L 409 3319 
L 972 3319 
L 972 1478 
Q 972 1038 1006 884 
Q 1059 663 1231 536 
Q 1403 409 1656 409 
Q 1909 409 2131 539 
Q 2353 669 2445 892 
Q 2538 1116 2538 1541 
L 2538 3319 
L 3100 3319 
L 3100 0 
L 2597 0 
z
" transform="scale(0.015625)"/>
     </defs>
     <use xlink:href="#ArialMT-4d"/>
     <use xlink:href="#ArialMT-6f" x="83.300781"/>
     <use xlink:href="#ArialMT-64" x="138.916016"/>
     <use xlink:href="#ArialMT-65" x="194.53125"/>
     <use xlink:href="#ArialMT-72" x="250.146484"/>
     <use xlink:href="#ArialMT-61" x="283.447266"/>
     <use xlink:href="#ArialMT-74" x="339.0625"/>
     <use xlink:href="#ArialMT-65" x="366.845703"/>
     <use xlink:href="#ArialMT-2d" x="422.460938"/>
     <use xlink:href="#ArialMT-6d" x="455.761719"/>
     <use xlink:href="#ArialMT-61" x="539.0625"/>
     <use xlink:href="#ArialMT-67" x="594.677734"/>
     <use xlink:href="#ArialMT-6e" x="650.292969"/>
     <use xlink:href="#ArialMT-65" x="705.908203"/>
     <use xlink:href="#ArialMT-73" x="761.523438"/>
     <use xlink:href="#ArialMT-69" x="811.523438"/>
     <use xlink:href="#ArialMT-75" x="833.740234"/>
     <use xlink:href="#ArialMT-6d" x="889.355469"/>
    </g>
   </g>
  </g>
 </g>
 <defs>
  <clipPath id="pb492e75984">
   <rect x="27.6675" y="23.220937" width="97.65" height="190.26"/>
  </clipPath>
 </defs>
</svg>
