<?xml version="1.0" encoding="utf-8" standalone="no"?>
<!DOCTYPE svg PUBLIC "-//W3C//DTD SVG 1.1//EN"
  "http://www.w3.org/Graphics/SVG/1.1/DTD/svg11.dtd">
<svg xmlns:xlink="http://www.w3.org/1999/xlink" width="151.772969pt" height="253.629687pt" viewBox="0 0 151.772969 253.629687" xmlns="http://www.w3.org/2000/svg" version="1.1">
 <metadata>
  <rdf:RDF xmlns:dc="http://purl.org/dc/elements/1.1/" xmlns:cc="http://creativecommons.org/ns#" xmlns:rdf="http://www.w3.org/1999/02/22-rdf-syntax-ns#">
   <cc:Work>
    <dc:type rdf:resource="http://purl.org/dc/dcmitype/StillImage"/>
    <dc:date>2023-10-06T13:54:18.503922</dc:date>
    <dc:format>image/svg+xml</dc:format>
    <dc:creator>
     <cc:Agent>
      <dc:title>Matplotlib v3.7.1, https://matplotlib.org/</dc:title>
     </cc:Agent>
    </dc:creator>
   </cc:Work>
  </rdf:RDF>
 </metadata>
 <defs>
  <style type="text/css">*{stroke-linejoin: round; stroke-linecap: butt}</style>
 </defs>
 <g id="figure_1">
  <g id="patch_1">
   <path d="M -0 253.629687 
L 151.772969 253.629687 
L 151.772969 -0 
L -0 -0 
z
" style="fill: #ffffff"/>
  </g>
  <g id="axes_1">
   <g id="patch_2">
    <path d="M 27.6675 213.480937 
L 125.3175 213.480937 
L 125.3175 23.220937 
L 27.6675 23.220937 
z
" style="fill: #ffffff"/>
   </g>
   <g id="matplotlib.axis_1">
    <g id="xtick_1">
     <g id="line2d_1">
      <defs>
       <path id="m143e14e5c1" d="M 0 0 
L 0 3.5 
" style="stroke: #000000; stroke-width: 0.8"/>
      </defs>
      <g>
       <use xlink:href="#m143e14e5c1" x="60.2175" y="213.480937" style="stroke: #000000; stroke-width: 0.8"/>
      </g>
     </g>
     <g id="text_1">
      <!-- 10 -->
      <g transform="translate(54.656562 227.63875) scale(0.1 -0.1)">
       <defs>
        <path id="ArialMT-31" d="M 2384 0 
L 1822 0 
L 1822 3584 
Q 1619 3391 1289 3197 
Q 959 3003 697 2906 
L 697 3450 
Q 1169 3672 1522 3987 
Q 1875 4303 2022 4600 
L 2384 4600 
L 2384 0 
z
" transform="scale(0.015625)"/>
        <path id="ArialMT-30" d="M 266 2259 
Q 266 3072 433 3567 
Q 600 4063 929 4331 
Q 1259 4600 1759 4600 
Q 2128 4600 2406 4451 
Q 2684 4303 2865 4023 
Q 3047 3744 3150 3342 
Q 3253 2941 3253 2259 
Q 3253 1453 3087 958 
Q 2922 463 2592 192 
Q 2263 -78 1759 -78 
Q 1097 -78 719 397 
Q 266 969 266 2259 
z
M 844 2259 
Q 844 1131 1108 757 
Q 1372 384 1759 384 
Q 2147 384 2411 759 
Q 2675 1134 2675 2259 
Q 2675 3391 2411 3762 
Q 2147 4134 1753 4134 
Q 1366 4134 1134 3806 
Q 844 3388 844 2259 
z
" transform="scale(0.015625)"/>
       </defs>
       <use xlink:href="#ArialMT-31"/>
       <use xlink:href="#ArialMT-30" x="55.615234"/>
      </g>
     </g>
    </g>
    <g id="xtick_2">
     <g id="line2d_2">
      <g>
       <use xlink:href="#m143e14e5c1" x="103.6175" y="213.480937" style="stroke: #000000; stroke-width: 0.8"/>
      </g>
     </g>
     <g id="text_2">
      <!-- 12 -->
      <g transform="translate(98.056563 227.63875) scale(0.1 -0.1)">
       <defs>
        <path id="ArialMT-32" d="M 3222 541 
L 3222 0 
L 194 0 
Q 188 203 259 391 
Q 375 700 629 1000 
Q 884 1300 1366 1694 
Q 2113 2306 2375 2664 
Q 2638 3022 2638 3341 
Q 2638 3675 2398 3904 
Q 2159 4134 1775 4134 
Q 1369 4134 1125 3890 
Q 881 3647 878 3216 
L 300 3275 
Q 359 3922 746 4261 
Q 1134 4600 1788 4600 
Q 2447 4600 2831 4234 
Q 3216 3869 3216 3328 
Q 3216 3053 3103 2787 
Q 2991 2522 2730 2228 
Q 2469 1934 1863 1422 
Q 1356 997 1212 845 
Q 1069 694 975 541 
L 3222 541 
z
" transform="scale(0.015625)"/>
       </defs>
       <use xlink:href="#ArialMT-31"/>
       <use xlink:href="#ArialMT-32" x="55.615234"/>
      </g>
     </g>
    </g>
    <g id="xtick_3">
     <g id="line2d_3">
      <defs>
       <path id="m170c1ef6f2" d="M 0 0 
L 0 2 
" style="stroke: #000000; stroke-width: 0.6"/>
      </defs>
      <g>
       <use xlink:href="#m170c1ef6f2" x="27.6675" y="213.480937" style="stroke: #000000; stroke-width: 0.6"/>
      </g>
     </g>
    </g>
    <g id="xtick_4">
     <g id="line2d_4">
      <g>
       <use xlink:href="#m170c1ef6f2" x="38.5175" y="213.480937" style="stroke: #000000; stroke-width: 0.6"/>
      </g>
     </g>
    </g>
    <g id="xtick_5">
     <g id="line2d_5">
      <g>
       <use xlink:href="#m170c1ef6f2" x="49.3675" y="213.480937" style="stroke: #000000; stroke-width: 0.6"/>
      </g>
     </g>
    </g>
    <g id="xtick_6">
     <g id="line2d_6">
      <g>
       <use xlink:href="#m170c1ef6f2" x="71.0675" y="213.480937" style="stroke: #000000; stroke-width: 0.6"/>
      </g>
     </g>
    </g>
    <g id="xtick_7">
     <g id="line2d_7">
      <g>
       <use xlink:href="#m170c1ef6f2" x="81.9175" y="213.480937" style="stroke: #000000; stroke-width: 0.6"/>
      </g>
     </g>
    </g>
    <g id="xtick_8">
     <g id="line2d_8">
      <g>
       <use xlink:href="#m170c1ef6f2" x="92.7675" y="213.480937" style="stroke: #000000; stroke-width: 0.6"/>
      </g>
     </g>
    </g>
    <g id="xtick_9">
     <g id="line2d_9">
      <g>
       <use xlink:href="#m170c1ef6f2" x="114.4675" y="213.480937" style="stroke: #000000; stroke-width: 0.6"/>
      </g>
     </g>
    </g>
    <g id="xtick_10">
     <g id="line2d_10">
      <g>
       <use xlink:href="#m170c1ef6f2" x="125.3175" y="213.480937" style="stroke: #000000; stroke-width: 0.6"/>
      </g>
     </g>
    </g>
    <g id="text_3">
     <!-- 2θ -->
     <g transform="translate(68.707188 243.647187) scale(0.14 -0.14)">
      <defs>
       <path id="ArialMT-3b8" d="M 288 2291 
Q 288 4659 1781 4659 
Q 3275 4659 3275 2291 
Q 3275 -75 1781 -75 
Q 288 -75 288 2291 
z
M 869 2519 
L 2694 2519 
Q 2663 3497 2413 3847 
Q 2163 4197 1775 4197 
Q 903 4197 869 2519 
z
M 2694 2066 
L 869 2066 
Q 903 388 1781 388 
Q 2663 388 2694 2066 
z
" transform="scale(0.015625)"/>
      </defs>
      <use xlink:href="#ArialMT-32"/>
      <use xlink:href="#ArialMT-3b8" x="55.615234"/>
     </g>
    </g>
   </g>
   <g id="matplotlib.axis_2">
    <g id="ytick_1">
     <g id="line2d_11"/>
    </g>
    <g id="ytick_2">
     <g id="line2d_12"/>
    </g>
    <g id="ytick_3">
     <g id="line2d_13"/>
    </g>
    <g id="ytick_4">
     <g id="line2d_14"/>
    </g>
    <g id="ytick_5">
     <g id="line2d_15"/>
    </g>
    <g id="ytick_6">
     <g id="line2d_16"/>
    </g>
    <g id="ytick_7">
     <g id="line2d_17"/>
    </g>
    <g id="ytick_8">
     <g id="line2d_18"/>
    </g>
    <g id="ytick_9">
     <g id="line2d_19"/>
    </g>
    <g id="text_4">
     <!-- Intensity -->
     <g transform="translate(17.220938 144.418281) rotate(-90) scale(0.14 -0.14)">
      <defs>
       <path id="ArialMT-49" d="M 597 0 
L 597 4581 
L 1203 4581 
L 1203 0 
L 597 0 
z
" transform="scale(0.015625)"/>
       <path id="ArialMT-6e" d="M 422 0 
L 422 3319 
L 928 3319 
L 928 2847 
Q 1294 3394 1984 3394 
Q 2284 3394 2536 3286 
Q 2788 3178 2913 3003 
Q 3038 2828 3088 2588 
Q 3119 2431 3119 2041 
L 3119 0 
L 2556 0 
L 2556 2019 
Q 2556 2363 2490 2533 
Q 2425 2703 2258 2804 
Q 2091 2906 1866 2906 
Q 1506 2906 1245 2678 
Q 984 2450 984 1813 
L 984 0 
L 422 0 
z
" transform="scale(0.015625)"/>
       <path id="ArialMT-74" d="M 1650 503 
L 1731 6 
Q 1494 -44 1306 -44 
Q 1000 -44 831 53 
Q 663 150 594 308 
Q 525 466 525 972 
L 525 2881 
L 113 2881 
L 113 3319 
L 525 3319 
L 525 4141 
L 1084 4478 
L 1084 3319 
L 1650 3319 
L 1650 2881 
L 1084 2881 
L 1084 941 
Q 1084 700 1114 631 
Q 1144 563 1211 522 
Q 1278 481 1403 481 
Q 1497 481 1650 503 
z
" transform="scale(0.015625)"/>
       <path id="ArialMT-65" d="M 2694 1069 
L 3275 997 
Q 3138 488 2766 206 
Q 2394 -75 1816 -75 
Q 1088 -75 661 373 
Q 234 822 234 1631 
Q 234 2469 665 2931 
Q 1097 3394 1784 3394 
Q 2450 3394 2872 2941 
Q 3294 2488 3294 1666 
Q 3294 1616 3291 1516 
L 816 1516 
Q 847 969 1125 678 
Q 1403 388 1819 388 
Q 2128 388 2347 550 
Q 2566 713 2694 1069 
z
M 847 1978 
L 2700 1978 
Q 2663 2397 2488 2606 
Q 2219 2931 1791 2931 
Q 1403 2931 1139 2672 
Q 875 2413 847 1978 
z
" transform="scale(0.015625)"/>
       <path id="ArialMT-73" d="M 197 991 
L 753 1078 
Q 800 744 1014 566 
Q 1228 388 1613 388 
Q 2000 388 2187 545 
Q 2375 703 2375 916 
Q 2375 1106 2209 1216 
Q 2094 1291 1634 1406 
Q 1016 1563 777 1677 
Q 538 1791 414 1992 
Q 291 2194 291 2438 
Q 291 2659 392 2848 
Q 494 3038 669 3163 
Q 800 3259 1026 3326 
Q 1253 3394 1513 3394 
Q 1903 3394 2198 3281 
Q 2494 3169 2634 2976 
Q 2775 2784 2828 2463 
L 2278 2388 
Q 2241 2644 2061 2787 
Q 1881 2931 1553 2931 
Q 1166 2931 1000 2803 
Q 834 2675 834 2503 
Q 834 2394 903 2306 
Q 972 2216 1119 2156 
Q 1203 2125 1616 2013 
Q 2213 1853 2448 1751 
Q 2684 1650 2818 1456 
Q 2953 1263 2953 975 
Q 2953 694 2789 445 
Q 2625 197 2315 61 
Q 2006 -75 1616 -75 
Q 969 -75 630 194 
Q 291 463 197 991 
z
" transform="scale(0.015625)"/>
       <path id="ArialMT-69" d="M 425 3934 
L 425 4581 
L 988 4581 
L 988 3934 
L 425 3934 
z
M 425 0 
L 425 3319 
L 988 3319 
L 988 0 
L 425 0 
z
" transform="scale(0.015625)"/>
       <path id="ArialMT-79" d="M 397 -1278 
L 334 -750 
Q 519 -800 656 -800 
Q 844 -800 956 -737 
Q 1069 -675 1141 -563 
Q 1194 -478 1313 -144 
Q 1328 -97 1363 -6 
L 103 3319 
L 709 3319 
L 1400 1397 
Q 1534 1031 1641 628 
Q 1738 1016 1872 1384 
L 2581 3319 
L 3144 3319 
L 1881 -56 
Q 1678 -603 1566 -809 
Q 1416 -1088 1222 -1217 
Q 1028 -1347 759 -1347 
Q 597 -1347 397 -1278 
z
" transform="scale(0.015625)"/>
      </defs>
      <use xlink:href="#ArialMT-49"/>
      <use xlink:href="#ArialMT-6e" x="27.783203"/>
      <use xlink:href="#ArialMT-74" x="83.398438"/>
      <use xlink:href="#ArialMT-65" x="111.181641"/>
      <use xlink:href="#ArialMT-6e" x="166.796875"/>
      <use xlink:href="#ArialMT-73" x="222.412109"/>
      <use xlink:href="#ArialMT-69" x="272.412109"/>
      <use xlink:href="#ArialMT-74" x="294.628906"/>
      <use xlink:href="#ArialMT-79" x="322.412109"/>
     </g>
    </g>
   </g>
   <g id="line2d_20">
    <path d="M 96.0225 213.480937 
L 96.0225 23.220937 
" clip-path="url(#p129fd34201)" style="fill: none; stroke: #808080; stroke-width: 2; stroke-linecap: square"/>
   </g>
   <g id="line2d_21">
    <path d="M 27.10601 90.287588 
L 27.675865 87.347206 
L 28.245719 95.044087 
L 28.815573 85.833774 
L 29.385428 94.481956 
L 29.955282 91.671297 
L 30.525136 90.028142 
L 31.09499 86.958037 
L 31.664845 93.184728 
L 32.804553 88.601192 
L 33.374407 83.498765 
L 33.944262 90.460551 
L 34.514116 92.060465 
L 35.08397 91.36861 
L 35.653824 88.817397 
L 36.223679 89.163324 
L 36.793533 89.249806 
L 37.363387 83.974415 
L 37.933242 86.785074 
L 38.503096 88.860637 
L 39.07295 88.99036 
L 39.642804 87.693133 
L 40.212659 88.471469 
L 40.782513 87.952578 
L 41.352367 90.028142 
L 41.922221 85.704051 
L 42.492076 88.947119 
L 43.06193 85.228401 
L 43.631784 80.342178 
L 44.201639 81.423201 
L 44.771493 84.536547 
L 45.341347 81.206997 
L 45.911201 84.450065 
L 46.481056 80.817828 
L 47.05091 82.720428 
L 47.620764 85.228401 
L 48.190618 82.115056 
L 48.760473 81.85561 
L 49.330327 77.358556 
L 49.900181 82.288019 
L 50.470035 76.364015 
L 51.03989 75.153269 
L 52.179598 80.817828 
L 52.749453 78.915228 
L 53.319307 80.774587 
L 53.889161 76.018087 
L 54.459015 76.364015 
L 55.02887 77.531519 
L 55.598724 81.293478 
L 56.738432 71.045383 
L 57.308287 68.926578 
L 57.878141 73.250669 
L 58.447995 71.953442 
L 59.01785 66.807774 
L 59.587704 70.612974 
L 60.157558 71.261587 
L 60.727412 64.429524 
L 61.297267 62.440442 
L 61.867121 67.845556 
L 62.436975 63.564706 
L 63.006829 65.337583 
L 63.576684 66.15916 
L 64.146538 63.521465 
L 64.716392 63.953874 
L 65.286246 63.045815 
L 65.856101 69.272506 
L 66.425955 63.132297 
L 66.995809 59.197374 
L 67.565664 57.381256 
L 68.135518 59.154133 
L 68.705372 64.040356 
L 69.845081 57.554219 
L 70.414935 50.419469 
L 70.984789 51.500492 
L 72.124498 46.268342 
L 72.694352 57.943388 
L 73.264206 51.976142 
L 74.403915 46.960197 
L 74.973769 49.251965 
L 75.543623 53.489574 
L 76.113478 44.75491 
L 76.683332 47.825015 
L 77.253186 45.014356 
L 77.82304 47.954737 
L 78.392895 42.765828 
L 78.962749 40.690265 
L 79.532603 46.268342 
L 80.102457 41.252397 
L 80.672312 40.863228 
L 81.242166 44.668428 
L 81.81202 42.765828 
L 82.381874 46.787233 
L 82.951729 41.42536 
L 83.521583 43.371201 
L 84.091437 42.765828 
L 84.661292 39.955169 
L 85.231146 47.089919 
L 85.801 45.187319 
L 86.370854 40.301097 
L 86.940709 41.165915 
L 87.510563 38.830906 
L 88.650271 41.857769 
L 89.220126 41.295637 
L 89.78998 44.27926 
L 90.359834 43.80361 
L 90.929689 42.679347 
L 91.499543 48.387147 
L 92.069397 49.641133 
L 92.639251 48.08446 
L 93.209106 43.284719 
L 93.77896 55.305692 
L 94.348814 51.673456 
L 94.918668 51.586974 
L 95.488523 47.738533 
L 96.058377 49.381687 
L 96.628231 56.343474 
L 97.198085 51.41401 
L 97.76794 52.322069 
L 98.907648 54.873283 
L 99.477503 58.678483 
L 100.047357 59.543301 
L 100.617211 62.35396 
L 101.187065 56.732642 
L 101.75692 63.478224 
L 102.326774 64.602487 
L 102.896628 66.764533 
L 103.466482 72.602056 
L 104.036337 67.759074 
L 104.606191 69.748156 
L 105.176045 72.861501 
L 105.745899 69.358987 
L 106.315754 73.726319 
L 106.885608 68.667133 
L 107.455462 76.969387 
L 108.595171 80.385419 
L 109.165025 80.342178 
L 109.734879 77.963928 
L 110.304734 82.936633 
L 110.874588 86.698592 
L 111.444442 88.212024 
L 112.014296 84.147378 
L 112.584151 86.741833 
L 113.154005 87.952578 
L 113.723859 92.190187 
L 114.293714 89.94166 
L 114.863568 92.31991 
L 115.433422 90.114624 
L 116.003276 89.206565 
L 116.573131 93.833342 
L 117.142985 96.384556 
L 117.712839 97.725024 
L 118.282693 100.492442 
L 118.852548 99.411419 
L 119.422402 102.049115 
L 119.992256 98.676324 
L 120.56211 102.697728 
L 121.131965 110.135165 
L 121.701819 104.600328 
L 122.271673 106.11376 
L 122.841528 104.643569 
L 123.981236 108.146083 
L 124.55109 113.680919 
L 125.120945 107.238024 
L 125.690799 113.378233 
L 125.690799 113.378233 
" clip-path="url(#p129fd34201)" style="fill: none; stroke: #ffb14e; stroke-width: 1.5; stroke-linecap: square"/>
   </g>
   <g id="line2d_22">
    <path d="M 27.10601 97.897987 
L 27.675865 95.822424 
L 28.245719 98.373638 
L 28.815573 96.211592 
L 29.955282 95.995387 
L 30.525136 95.260292 
L 31.664845 96.687242 
L 32.234699 92.492874 
L 32.804553 89.422769 
L 33.374407 93.487415 
L 33.944262 100.232997 
L 34.514116 91.065924 
L 35.08397 98.460119 
L 35.653824 96.341315 
L 36.223679 95.390015 
L 36.793533 96.427797 
L 37.933242 91.714537 
L 38.503096 92.060465 
L 39.07295 92.017224 
L 39.642804 92.79556 
L 40.212659 95.519737 
L 40.782513 91.584815 
L 41.352367 94.741401 
L 41.922221 94.265751 
L 42.492076 91.887501 
L 43.06193 93.487415 
L 43.631784 91.930742 
L 44.201639 88.730915 
L 45.341347 95.865665 
L 45.911201 95.865665 
L 46.481056 89.94166 
L 47.05091 88.341747 
L 47.620764 88.03906 
L 48.190618 88.428228 
L 48.760473 89.422769 
L 49.330327 80.731347 
L 49.900181 85.358124 
L 50.470035 86.352665 
L 51.03989 87.952578 
L 51.609744 92.622597 
L 52.179598 85.358124 
L 52.749453 86.741833 
L 53.319307 87.347206 
L 53.889161 85.012197 
L 54.459015 79.95301 
L 55.598724 87.693133 
L 56.168578 87.217483 
L 56.738432 81.163756 
L 57.308287 84.23386 
L 57.878141 81.596165 
L 58.447995 80.255697 
L 59.01785 81.509683 
L 59.587704 80.774587 
L 60.157558 81.336719 
L 60.727412 78.136892 
L 61.297267 79.044951 
L 61.867121 81.120515 
L 62.436975 76.191051 
L 63.006829 73.856042 
L 63.576684 79.736806 
L 64.146538 75.715401 
L 64.716392 74.937065 
L 65.286246 75.542437 
L 65.856101 73.077706 
L 66.425955 73.553356 
L 66.995809 73.337151 
L 67.565664 75.023547 
L 68.135518 71.564274 
L 68.705372 70.612974 
L 69.845081 60.537842 
L 70.414935 51.457251 
L 72.124498 64.645728 
L 72.694352 66.375365 
L 73.264206 69.272506 
L 73.83406 67.067219 
L 74.403915 61.359419 
L 74.973769 63.478224 
L 75.543623 64.386283 
L 76.113478 64.905174 
L 76.683332 63.953874 
L 77.253186 66.029438 
L 77.82304 65.078137 
L 78.392895 59.802747 
L 78.962749 63.089056 
L 79.532603 55.608378 
L 80.102457 60.667565 
L 80.672312 62.959333 
L 81.242166 53.489574 
L 81.81202 53.057165 
L 82.381874 41.036192 
L 83.521583 55.348933 
L 84.091437 64.948415 
L 84.661292 65.813233 
L 85.231146 61.964792 
L 85.801 64.559247 
L 86.370854 61.099974 
L 86.940709 63.002574 
L 87.510563 68.580651 
L 88.080417 61.835069 
L 88.650271 64.472765 
L 89.220126 62.483683 
L 89.78998 61.099974 
L 90.359834 61.186456 
L 90.929689 62.872851 
L 91.499543 62.786369 
L 92.069397 66.461847 
L 93.209106 76.536978 
L 93.77896 73.76956 
L 94.348814 68.364447 
L 94.918668 70.569733 
L 95.488523 72.256128 
L 96.058377 74.850583 
L 96.628231 69.531951 
L 97.198085 77.401797 
L 97.76794 77.661242 
L 98.337794 69.661674 
L 99.477503 80.90431 
L 100.047357 85.66081 
L 100.617211 80.039492 
L 101.187065 82.80691 
L 101.75692 77.704483 
L 102.326774 82.979874 
L 102.896628 82.633947 
L 104.036337 86.093219 
L 104.606191 89.94166 
L 105.176045 90.806478 
L 105.745899 88.51471 
L 106.885608 91.973983 
L 107.455462 90.201106 
L 108.025317 100.232997 
L 108.595171 94.438715 
L 110.304734 98.157433 
L 110.874588 94.352233 
L 112.014296 103.951715 
L 112.584151 103.346342 
L 113.154005 101.530224 
L 114.293714 104.038197 
L 114.863568 104.038197 
L 115.433422 104.903015 
L 116.003276 104.470606 
L 116.573131 107.151542 
L 117.142985 108.881178 
L 117.712839 113.940365 
L 118.282693 113.551197 
L 118.852548 114.372774 
L 119.422402 113.075547 
L 119.992256 116.707783 
L 120.56211 113.594437 
L 121.131965 116.664542 
L 121.701819 115.799724 
L 122.271673 120.902151 
L 122.841528 118.913069 
L 123.411382 119.994092 
L 123.981236 117.010469 
L 124.55109 121.33456 
L 125.120945 123.929015 
L 125.690799 120.556224 
L 125.690799 120.556224 
" clip-path="url(#p129fd34201)" style="fill: none; stroke: #008e00; stroke-width: 1.5; stroke-linecap: square"/>
   </g>
   <g id="line2d_23">
    <path d="M 27.10601 110.481092 
L 27.675865 114.070087 
L 28.245719 113.983606 
L 28.815573 114.718701 
L 29.385428 116.491578 
L 29.955282 115.799724 
L 30.525136 110.567574 
L 31.09499 112.859342 
L 31.664845 113.897124 
L 32.234699 112.902583 
L 32.804553 111.562115 
L 33.374407 111.735078 
L 33.944262 116.405097 
L 34.514116 114.545737 
L 35.08397 115.367315 
L 35.653824 116.707783 
L 36.223679 116.534819 
L 37.363387 114.243051 
L 37.933242 118.826587 
L 38.503096 116.751024 
L 39.07295 112.859342 
L 39.642804 112.29721 
L 40.212659 112.470174 
L 40.782513 113.075547 
L 41.352367 116.059169 
L 41.922221 115.15111 
L 42.492076 112.210728 
L 43.06193 114.67546 
L 43.631784 114.805183 
L 44.201639 110.999983 
L 44.771493 110.827019 
L 45.341347 118.048251 
L 45.911201 110.221647 
L 46.481056 111.735078 
L 47.05091 109.054142 
L 47.620764 108.924419 
L 48.190618 108.96766 
L 48.760473 110.827019 
L 49.330327 111.908042 
L 49.900181 105.681351 
L 50.470035 109.44331 
L 51.03989 109.832478 
L 51.609744 114.070087 
L 52.179598 106.848856 
L 52.749453 107.843397 
L 53.319307 112.29721 
L 53.889161 106.935337 
L 54.459015 107.454228 
L 55.02887 108.405528 
L 55.598724 104.081437 
L 56.168578 113.334992 
L 56.738432 104.816533 
L 57.308287 107.454228 
L 57.878141 104.859774 
L 58.447995 103.043656 
L 59.01785 103.519306 
L 59.587704 99.714106 
L 60.157558 99.670865 
L 60.727412 107.06506 
L 61.297267 105.075978 
L 61.867121 108.059601 
L 62.436975 105.335424 
L 63.006829 101.573465 
L 63.576684 96.081869 
L 64.146538 97.941228 
L 64.716392 102.395042 
L 65.286246 95.346774 
L 65.856101 100.362719 
L 66.425955 94.654919 
L 66.995809 99.368178 
L 67.565664 98.546601 
L 68.135518 94.611678 
L 68.705372 94.438715 
L 69.275226 96.298074 
L 69.845081 97.465578 
L 70.414935 91.973983 
L 70.984789 92.31991 
L 71.554643 86.006737 
L 72.124498 97.638542 
L 72.694352 90.936201 
L 73.264206 88.644433 
L 73.83406 87.08776 
L 74.403915 88.384987 
L 74.973769 91.411851 
L 76.113478 85.271642 
L 76.683332 86.482387 
L 77.253186 86.568869 
L 77.82304 83.498765 
L 78.392895 81.85561 
L 78.962749 86.655351 
L 79.532603 83.671728 
L 80.102457 83.931174 
L 80.672312 80.990792 
L 81.242166 81.639406 
L 81.81202 81.509683 
L 82.381874 79.95301 
L 82.951729 81.985333 
L 83.521583 79.607083 
L 84.091437 79.131433 
L 84.661292 82.33126 
L 85.231146 81.293478 
L 85.801 79.736806 
L 86.370854 81.552924 
L 86.940709 79.088192 
L 87.510563 78.093651 
L 88.080417 78.612542 
L 88.650271 81.898851 
L 89.220126 80.688106 
L 89.78998 81.812369 
L 90.359834 80.298937 
L 90.929689 83.887933 
L 91.499543 79.347637 
L 92.069397 87.520169 
L 92.639251 85.358124 
L 93.209106 85.66081 
L 93.77896 86.179701 
L 94.348814 86.222942 
L 94.918668 84.493306 
L 95.488523 88.903878 
L 96.058377 84.277101 
L 96.628231 89.163324 
L 97.198085 92.838801 
L 97.76794 89.076842 
L 98.337794 93.573897 
L 99.477503 97.811506 
L 100.047357 92.925283 
L 101.187065 96.60076 
L 101.75692 95.000847 
L 102.326774 98.416878 
L 102.896628 100.146515 
L 103.466482 100.103274 
L 104.036337 103.73551 
L 104.606191 98.157433 
L 105.176045 102.827451 
L 105.745899 105.335424 
L 106.315754 104.081437 
L 106.885608 110.783778 
L 107.455462 113.205269 
L 108.025317 107.108301 
L 108.595171 105.681351 
L 109.165025 112.643137 
L 109.734879 115.756483 
L 110.304734 114.113328 
L 110.874588 115.064628 
L 111.444442 115.756483 
L 112.014296 113.810642 
L 112.584151 118.523901 
L 113.154005 120.253537 
L 113.723859 118.437419 
L 114.293714 122.372342 
L 114.863568 122.458824 
L 115.433422 122.372342 
L 116.003276 126.004578 
L 116.573131 126.653192 
L 117.142985 123.756051 
L 117.712839 127.863937 
L 118.282693 128.685515 
L 118.852548 130.458392 
L 119.422402 129.723297 
L 119.992256 130.934042 
L 120.56211 129.939501 
L 121.131965 133.831183 
L 121.701819 131.409692 
L 122.271673 133.614978 
L 122.841528 136.55536 
L 123.411382 134.17711 
L 123.981236 133.355533 
L 124.55109 135.517578 
L 125.120945 136.252674 
L 125.690799 132.706919 
L 125.690799 132.706919 
" clip-path="url(#p129fd34201)" style="fill: none; stroke: #000000; stroke-width: 1.5; stroke-linecap: square"/>
   </g>
   <g id="patch_3">
    <path d="M 27.6675 213.480937 
L 27.6675 23.220937 
" style="fill: none; stroke: #000000; stroke-width: 0.8; stroke-linejoin: miter; stroke-linecap: square"/>
   </g>
   <g id="patch_4">
    <path d="M 27.6675 213.480937 
L 125.3175 213.480937 
" style="fill: none; stroke: #000000; stroke-width: 0.8; stroke-linejoin: miter; stroke-linecap: square"/>
   </g>
   <g id="text_5">
    <!-- Moderate-magnesium -->
    <g transform="translate(8.412031 17.220937) scale(0.14 -0.14)">
     <defs>
      <path id="ArialMT-4d" d="M 475 0 
L 475 4581 
L 1388 4581 
L 2472 1338 
Q 2622 884 2691 659 
Q 2769 909 2934 1394 
L 4031 4581 
L 4847 4581 
L 4847 0 
L 4263 0 
L 4263 3834 
L 2931 0 
L 2384 0 
L 1059 3900 
L 1059 0 
L 475 0 
z
" transform="scale(0.015625)"/>
      <path id="ArialMT-6f" d="M 213 1659 
Q 213 2581 725 3025 
Q 1153 3394 1769 3394 
Q 2453 3394 2887 2945 
Q 3322 2497 3322 1706 
Q 3322 1066 3130 698 
Q 2938 331 2570 128 
Q 2203 -75 1769 -75 
Q 1072 -75 642 372 
Q 213 819 213 1659 
z
M 791 1659 
Q 791 1022 1069 705 
Q 1347 388 1769 388 
Q 2188 388 2466 706 
Q 2744 1025 2744 1678 
Q 2744 2294 2464 2611 
Q 2184 2928 1769 2928 
Q 1347 2928 1069 2612 
Q 791 2297 791 1659 
z
" transform="scale(0.015625)"/>
      <path id="ArialMT-64" d="M 2575 0 
L 2575 419 
Q 2259 -75 1647 -75 
Q 1250 -75 917 144 
Q 584 363 401 755 
Q 219 1147 219 1656 
Q 219 2153 384 2558 
Q 550 2963 881 3178 
Q 1213 3394 1622 3394 
Q 1922 3394 2156 3267 
Q 2391 3141 2538 2938 
L 2538 4581 
L 3097 4581 
L 3097 0 
L 2575 0 
z
M 797 1656 
Q 797 1019 1065 703 
Q 1334 388 1700 388 
Q 2069 388 2326 689 
Q 2584 991 2584 1609 
Q 2584 2291 2321 2609 
Q 2059 2928 1675 2928 
Q 1300 2928 1048 2622 
Q 797 2316 797 1656 
z
" transform="scale(0.015625)"/>
      <path id="ArialMT-72" d="M 416 0 
L 416 3319 
L 922 3319 
L 922 2816 
Q 1116 3169 1280 3281 
Q 1444 3394 1641 3394 
Q 1925 3394 2219 3213 
L 2025 2691 
Q 1819 2813 1613 2813 
Q 1428 2813 1281 2702 
Q 1134 2591 1072 2394 
Q 978 2094 978 1738 
L 978 0 
L 416 0 
z
" transform="scale(0.015625)"/>
      <path id="ArialMT-61" d="M 2588 409 
Q 2275 144 1986 34 
Q 1697 -75 1366 -75 
Q 819 -75 525 192 
Q 231 459 231 875 
Q 231 1119 342 1320 
Q 453 1522 633 1644 
Q 813 1766 1038 1828 
Q 1203 1872 1538 1913 
Q 2219 1994 2541 2106 
Q 2544 2222 2544 2253 
Q 2544 2597 2384 2738 
Q 2169 2928 1744 2928 
Q 1347 2928 1158 2789 
Q 969 2650 878 2297 
L 328 2372 
Q 403 2725 575 2942 
Q 747 3159 1072 3276 
Q 1397 3394 1825 3394 
Q 2250 3394 2515 3294 
Q 2781 3194 2906 3042 
Q 3031 2891 3081 2659 
Q 3109 2516 3109 2141 
L 3109 1391 
Q 3109 606 3145 398 
Q 3181 191 3288 0 
L 2700 0 
Q 2613 175 2588 409 
z
M 2541 1666 
Q 2234 1541 1622 1453 
Q 1275 1403 1131 1340 
Q 988 1278 909 1158 
Q 831 1038 831 891 
Q 831 666 1001 516 
Q 1172 366 1500 366 
Q 1825 366 2078 508 
Q 2331 650 2450 897 
Q 2541 1088 2541 1459 
L 2541 1666 
z
" transform="scale(0.015625)"/>
      <path id="ArialMT-2d" d="M 203 1375 
L 203 1941 
L 1931 1941 
L 1931 1375 
L 203 1375 
z
" transform="scale(0.015625)"/>
      <path id="ArialMT-6d" d="M 422 0 
L 422 3319 
L 925 3319 
L 925 2853 
Q 1081 3097 1340 3245 
Q 1600 3394 1931 3394 
Q 2300 3394 2536 3241 
Q 2772 3088 2869 2813 
Q 3263 3394 3894 3394 
Q 4388 3394 4653 3120 
Q 4919 2847 4919 2278 
L 4919 0 
L 4359 0 
L 4359 2091 
Q 4359 2428 4304 2576 
Q 4250 2725 4106 2815 
Q 3963 2906 3769 2906 
Q 3419 2906 3187 2673 
Q 2956 2441 2956 1928 
L 2956 0 
L 2394 0 
L 2394 2156 
Q 2394 2531 2256 2718 
Q 2119 2906 1806 2906 
Q 1569 2906 1367 2781 
Q 1166 2656 1075 2415 
Q 984 2175 984 1722 
L 984 0 
L 422 0 
z
" transform="scale(0.015625)"/>
      <path id="ArialMT-67" d="M 319 -275 
L 866 -356 
Q 900 -609 1056 -725 
Q 1266 -881 1628 -881 
Q 2019 -881 2231 -725 
Q 2444 -569 2519 -288 
Q 2563 -116 2559 434 
Q 2191 0 1641 0 
Q 956 0 581 494 
Q 206 988 206 1678 
Q 206 2153 378 2554 
Q 550 2956 876 3175 
Q 1203 3394 1644 3394 
Q 2231 3394 2613 2919 
L 2613 3319 
L 3131 3319 
L 3131 450 
Q 3131 -325 2973 -648 
Q 2816 -972 2473 -1159 
Q 2131 -1347 1631 -1347 
Q 1038 -1347 672 -1080 
Q 306 -813 319 -275 
z
M 784 1719 
Q 784 1066 1043 766 
Q 1303 466 1694 466 
Q 2081 466 2343 764 
Q 2606 1063 2606 1700 
Q 2606 2309 2336 2618 
Q 2066 2928 1684 2928 
Q 1309 2928 1046 2623 
Q 784 2319 784 1719 
z
" transform="scale(0.015625)"/>
      <path id="ArialMT-75" d="M 2597 0 
L 2597 488 
Q 2209 -75 1544 -75 
Q 1250 -75 995 37 
Q 741 150 617 320 
Q 494 491 444 738 
Q 409 903 409 1263 
L 409 3319 
L 972 3319 
L 972 1478 
Q 972 1038 1006 884 
Q 1059 663 1231 536 
Q 1403 409 1656 409 
Q 1909 409 2131 539 
Q 2353 669 2445 892 
Q 2538 1116 2538 1541 
L 2538 3319 
L 3100 3319 
L 3100 0 
L 2597 0 
z
" transform="scale(0.015625)"/>
     </defs>
     <use xlink:href="#ArialMT-4d"/>
     <use xlink:href="#ArialMT-6f" x="83.300781"/>
     <use xlink:href="#ArialMT-64" x="138.916016"/>
     <use xlink:href="#ArialMT-65" x="194.53125"/>
     <use xlink:href="#ArialMT-72" x="250.146484"/>
     <use xlink:href="#ArialMT-61" x="283.447266"/>
     <use xlink:href="#ArialMT-74" x="339.0625"/>
     <use xlink:href="#ArialMT-65" x="366.845703"/>
     <use xlink:href="#ArialMT-2d" x="422.460938"/>
     <use xlink:href="#ArialMT-6d" x="455.761719"/>
     <use xlink:href="#ArialMT-61" x="539.0625"/>
     <use xlink:href="#ArialMT-67" x="594.677734"/>
     <use xlink:href="#ArialMT-6e" x="650.292969"/>
     <use xlink:href="#ArialMT-65" x="705.908203"/>
     <use xlink:href="#ArialMT-73" x="761.523438"/>
     <use xlink:href="#ArialMT-69" x="811.523438"/>
     <use xlink:href="#ArialMT-75" x="833.740234"/>
     <use xlink:href="#ArialMT-6d" x="889.355469"/>
    </g>
   </g>
  </g>
 </g>
 <defs>
  <clipPath id="p129fd34201">
   <rect x="27.6675" y="23.220937" width="97.65" height="190.26"/>
  </clipPath>
 </defs>
</svg>
