<?xml version="1.0" encoding="utf-8" standalone="no"?>
<!DOCTYPE svg PUBLIC "-//W3C//DTD SVG 1.1//EN"
  "http://www.w3.org/Graphics/SVG/1.1/DTD/svg11.dtd">
<svg xmlns:xlink="http://www.w3.org/1999/xlink" width="138.078437pt" height="253.629687pt" viewBox="0 0 138.078437 253.629687" xmlns="http://www.w3.org/2000/svg" version="1.1">
 <metadata>
  <rdf:RDF xmlns:dc="http://purl.org/dc/elements/1.1/" xmlns:cc="http://creativecommons.org/ns#" xmlns:rdf="http://www.w3.org/1999/02/22-rdf-syntax-ns#">
   <cc:Work>
    <dc:type rdf:resource="http://purl.org/dc/dcmitype/StillImage"/>
    <dc:date>2023-10-05T22:22:06.393197</dc:date>
    <dc:format>image/svg+xml</dc:format>
    <dc:creator>
     <cc:Agent>
      <dc:title>Matplotlib v3.7.1, https://matplotlib.org/</dc:title>
     </cc:Agent>
    </dc:creator>
   </cc:Work>
  </rdf:RDF>
 </metadata>
 <defs>
  <style type="text/css">*{stroke-linejoin: round; stroke-linecap: butt}</style>
 </defs>
 <g id="figure_1">
  <g id="patch_1">
   <path d="M -0 253.629687 
L 138.078437 253.629687 
L 138.078437 -0 
L -0 -0 
z
" style="fill: #ffffff"/>
  </g>
  <g id="axes_1">
   <g id="patch_2">
    <path d="M 27.6675 213.480937 
L 125.3175 213.480937 
L 125.3175 23.220937 
L 27.6675 23.220937 
z
" style="fill: #ffffff"/>
   </g>
   <g id="matplotlib.axis_1">
    <g id="xtick_1">
     <g id="line2d_1">
      <defs>
       <path id="m4e815a6b6a" d="M 0 0 
L 0 3.5 
" style="stroke: #000000; stroke-width: 0.8"/>
      </defs>
      <g>
       <use xlink:href="#m4e815a6b6a" x="27.6675" y="213.480937" style="stroke: #000000; stroke-width: 0.8"/>
      </g>
     </g>
     <g id="text_1">
      <!-- 10 -->
      <g transform="translate(22.106563 227.63875) scale(0.1 -0.1)">
       <defs>
        <path id="ArialMT-31" d="M 2384 0 
L 1822 0 
L 1822 3584 
Q 1619 3391 1289 3197 
Q 959 3003 697 2906 
L 697 3450 
Q 1169 3672 1522 3987 
Q 1875 4303 2022 4600 
L 2384 4600 
L 2384 0 
z
" transform="scale(0.015625)"/>
        <path id="ArialMT-30" d="M 266 2259 
Q 266 3072 433 3567 
Q 600 4063 929 4331 
Q 1259 4600 1759 4600 
Q 2128 4600 2406 4451 
Q 2684 4303 2865 4023 
Q 3047 3744 3150 3342 
Q 3253 2941 3253 2259 
Q 3253 1453 3087 958 
Q 2922 463 2592 192 
Q 2263 -78 1759 -78 
Q 1097 -78 719 397 
Q 266 969 266 2259 
z
M 844 2259 
Q 844 1131 1108 757 
Q 1372 384 1759 384 
Q 2147 384 2411 759 
Q 2675 1134 2675 2259 
Q 2675 3391 2411 3762 
Q 2147 4134 1753 4134 
Q 1366 4134 1134 3806 
Q 844 3388 844 2259 
z
" transform="scale(0.015625)"/>
       </defs>
       <use xlink:href="#ArialMT-31"/>
       <use xlink:href="#ArialMT-30" x="55.615234"/>
      </g>
     </g>
    </g>
    <g id="xtick_2">
     <g id="line2d_2">
      <g>
       <use xlink:href="#m4e815a6b6a" x="60.2175" y="213.480937" style="stroke: #000000; stroke-width: 0.8"/>
      </g>
     </g>
     <g id="text_2">
      <!-- 11 -->
      <g transform="translate(55.025313 227.63875) scale(0.1 -0.1)">
       <use xlink:href="#ArialMT-31"/>
       <use xlink:href="#ArialMT-31" x="48.240234"/>
      </g>
     </g>
    </g>
    <g id="xtick_3">
     <g id="line2d_3">
      <g>
       <use xlink:href="#m4e815a6b6a" x="92.7675" y="213.480937" style="stroke: #000000; stroke-width: 0.8"/>
      </g>
     </g>
     <g id="text_3">
      <!-- 12 -->
      <g transform="translate(87.206562 227.63875) scale(0.1 -0.1)">
       <defs>
        <path id="ArialMT-32" d="M 3222 541 
L 3222 0 
L 194 0 
Q 188 203 259 391 
Q 375 700 629 1000 
Q 884 1300 1366 1694 
Q 2113 2306 2375 2664 
Q 2638 3022 2638 3341 
Q 2638 3675 2398 3904 
Q 2159 4134 1775 4134 
Q 1369 4134 1125 3890 
Q 881 3647 878 3216 
L 300 3275 
Q 359 3922 746 4261 
Q 1134 4600 1788 4600 
Q 2447 4600 2831 4234 
Q 3216 3869 3216 3328 
Q 3216 3053 3103 2787 
Q 2991 2522 2730 2228 
Q 2469 1934 1863 1422 
Q 1356 997 1212 845 
Q 1069 694 975 541 
L 3222 541 
z
" transform="scale(0.015625)"/>
       </defs>
       <use xlink:href="#ArialMT-31"/>
       <use xlink:href="#ArialMT-32" x="55.615234"/>
      </g>
     </g>
    </g>
    <g id="xtick_4">
     <g id="line2d_4">
      <g>
       <use xlink:href="#m4e815a6b6a" x="125.3175" y="213.480937" style="stroke: #000000; stroke-width: 0.8"/>
      </g>
     </g>
     <g id="text_4">
      <!-- 13 -->
      <g transform="translate(119.756563 227.63875) scale(0.1 -0.1)">
       <defs>
        <path id="ArialMT-33" d="M 269 1209 
L 831 1284 
Q 928 806 1161 595 
Q 1394 384 1728 384 
Q 2125 384 2398 659 
Q 2672 934 2672 1341 
Q 2672 1728 2419 1979 
Q 2166 2231 1775 2231 
Q 1616 2231 1378 2169 
L 1441 2663 
Q 1497 2656 1531 2656 
Q 1891 2656 2178 2843 
Q 2466 3031 2466 3422 
Q 2466 3731 2256 3934 
Q 2047 4138 1716 4138 
Q 1388 4138 1169 3931 
Q 950 3725 888 3313 
L 325 3413 
Q 428 3978 793 4289 
Q 1159 4600 1703 4600 
Q 2078 4600 2393 4439 
Q 2709 4278 2876 4000 
Q 3044 3722 3044 3409 
Q 3044 3113 2884 2869 
Q 2725 2625 2413 2481 
Q 2819 2388 3044 2092 
Q 3269 1797 3269 1353 
Q 3269 753 2831 336 
Q 2394 -81 1725 -81 
Q 1122 -81 723 278 
Q 325 638 269 1209 
z
" transform="scale(0.015625)"/>
       </defs>
       <use xlink:href="#ArialMT-31"/>
       <use xlink:href="#ArialMT-33" x="55.615234"/>
      </g>
     </g>
    </g>
    <g id="xtick_5">
     <g id="line2d_5">
      <defs>
       <path id="mb91d557aed" d="M 0 0 
L 0 2 
" style="stroke: #000000; stroke-width: 0.6"/>
      </defs>
      <g>
       <use xlink:href="#mb91d557aed" x="43.9425" y="213.480937" style="stroke: #000000; stroke-width: 0.6"/>
      </g>
     </g>
    </g>
    <g id="xtick_6">
     <g id="line2d_6">
      <g>
       <use xlink:href="#mb91d557aed" x="76.4925" y="213.480937" style="stroke: #000000; stroke-width: 0.6"/>
      </g>
     </g>
    </g>
    <g id="xtick_7">
     <g id="line2d_7">
      <g>
       <use xlink:href="#mb91d557aed" x="109.0425" y="213.480937" style="stroke: #000000; stroke-width: 0.6"/>
      </g>
     </g>
    </g>
    <g id="text_5">
     <!-- 2θ -->
     <g transform="translate(68.707188 243.647187) scale(0.14 -0.14)">
      <defs>
       <path id="ArialMT-3b8" d="M 288 2291 
Q 288 4659 1781 4659 
Q 3275 4659 3275 2291 
Q 3275 -75 1781 -75 
Q 288 -75 288 2291 
z
M 869 2519 
L 2694 2519 
Q 2663 3497 2413 3847 
Q 2163 4197 1775 4197 
Q 903 4197 869 2519 
z
M 2694 2066 
L 869 2066 
Q 903 388 1781 388 
Q 2663 388 2694 2066 
z
" transform="scale(0.015625)"/>
      </defs>
      <use xlink:href="#ArialMT-32"/>
      <use xlink:href="#ArialMT-3b8" x="55.615234"/>
     </g>
    </g>
   </g>
   <g id="matplotlib.axis_2">
    <g id="ytick_1">
     <g id="line2d_8"/>
    </g>
    <g id="ytick_2">
     <g id="line2d_9"/>
    </g>
    <g id="ytick_3">
     <g id="line2d_10"/>
    </g>
    <g id="ytick_4">
     <g id="line2d_11"/>
    </g>
    <g id="ytick_5">
     <g id="line2d_12"/>
    </g>
    <g id="ytick_6">
     <g id="line2d_13"/>
    </g>
    <g id="ytick_7">
     <g id="line2d_14"/>
    </g>
    <g id="text_6">
     <!-- Intensity -->
     <g transform="translate(17.220938 144.418281) rotate(-90) scale(0.14 -0.14)">
      <defs>
       <path id="ArialMT-49" d="M 597 0 
L 597 4581 
L 1203 4581 
L 1203 0 
L 597 0 
z
" transform="scale(0.015625)"/>
       <path id="ArialMT-6e" d="M 422 0 
L 422 3319 
L 928 3319 
L 928 2847 
Q 1294 3394 1984 3394 
Q 2284 3394 2536 3286 
Q 2788 3178 2913 3003 
Q 3038 2828 3088 2588 
Q 3119 2431 3119 2041 
L 3119 0 
L 2556 0 
L 2556 2019 
Q 2556 2363 2490 2533 
Q 2425 2703 2258 2804 
Q 2091 2906 1866 2906 
Q 1506 2906 1245 2678 
Q 984 2450 984 1813 
L 984 0 
L 422 0 
z
" transform="scale(0.015625)"/>
       <path id="ArialMT-74" d="M 1650 503 
L 1731 6 
Q 1494 -44 1306 -44 
Q 1000 -44 831 53 
Q 663 150 594 308 
Q 525 466 525 972 
L 525 2881 
L 113 2881 
L 113 3319 
L 525 3319 
L 525 4141 
L 1084 4478 
L 1084 3319 
L 1650 3319 
L 1650 2881 
L 1084 2881 
L 1084 941 
Q 1084 700 1114 631 
Q 1144 563 1211 522 
Q 1278 481 1403 481 
Q 1497 481 1650 503 
z
" transform="scale(0.015625)"/>
       <path id="ArialMT-65" d="M 2694 1069 
L 3275 997 
Q 3138 488 2766 206 
Q 2394 -75 1816 -75 
Q 1088 -75 661 373 
Q 234 822 234 1631 
Q 234 2469 665 2931 
Q 1097 3394 1784 3394 
Q 2450 3394 2872 2941 
Q 3294 2488 3294 1666 
Q 3294 1616 3291 1516 
L 816 1516 
Q 847 969 1125 678 
Q 1403 388 1819 388 
Q 2128 388 2347 550 
Q 2566 713 2694 1069 
z
M 847 1978 
L 2700 1978 
Q 2663 2397 2488 2606 
Q 2219 2931 1791 2931 
Q 1403 2931 1139 2672 
Q 875 2413 847 1978 
z
" transform="scale(0.015625)"/>
       <path id="ArialMT-73" d="M 197 991 
L 753 1078 
Q 800 744 1014 566 
Q 1228 388 1613 388 
Q 2000 388 2187 545 
Q 2375 703 2375 916 
Q 2375 1106 2209 1216 
Q 2094 1291 1634 1406 
Q 1016 1563 777 1677 
Q 538 1791 414 1992 
Q 291 2194 291 2438 
Q 291 2659 392 2848 
Q 494 3038 669 3163 
Q 800 3259 1026 3326 
Q 1253 3394 1513 3394 
Q 1903 3394 2198 3281 
Q 2494 3169 2634 2976 
Q 2775 2784 2828 2463 
L 2278 2388 
Q 2241 2644 2061 2787 
Q 1881 2931 1553 2931 
Q 1166 2931 1000 2803 
Q 834 2675 834 2503 
Q 834 2394 903 2306 
Q 972 2216 1119 2156 
Q 1203 2125 1616 2013 
Q 2213 1853 2448 1751 
Q 2684 1650 2818 1456 
Q 2953 1263 2953 975 
Q 2953 694 2789 445 
Q 2625 197 2315 61 
Q 2006 -75 1616 -75 
Q 969 -75 630 194 
Q 291 463 197 991 
z
" transform="scale(0.015625)"/>
       <path id="ArialMT-69" d="M 425 3934 
L 425 4581 
L 988 4581 
L 988 3934 
L 425 3934 
z
M 425 0 
L 425 3319 
L 988 3319 
L 988 0 
L 425 0 
z
" transform="scale(0.015625)"/>
       <path id="ArialMT-79" d="M 397 -1278 
L 334 -750 
Q 519 -800 656 -800 
Q 844 -800 956 -737 
Q 1069 -675 1141 -563 
Q 1194 -478 1313 -144 
Q 1328 -97 1363 -6 
L 103 3319 
L 709 3319 
L 1400 1397 
Q 1534 1031 1641 628 
Q 1738 1016 1872 1384 
L 2581 3319 
L 3144 3319 
L 1881 -56 
Q 1678 -603 1566 -809 
Q 1416 -1088 1222 -1217 
Q 1028 -1347 759 -1347 
Q 597 -1347 397 -1278 
z
" transform="scale(0.015625)"/>
      </defs>
      <use xlink:href="#ArialMT-49"/>
      <use xlink:href="#ArialMT-6e" x="27.783203"/>
      <use xlink:href="#ArialMT-74" x="83.398438"/>
      <use xlink:href="#ArialMT-65" x="111.181641"/>
      <use xlink:href="#ArialMT-6e" x="166.796875"/>
      <use xlink:href="#ArialMT-73" x="222.412109"/>
      <use xlink:href="#ArialMT-69" x="272.412109"/>
      <use xlink:href="#ArialMT-74" x="294.628906"/>
      <use xlink:href="#ArialMT-79" x="322.412109"/>
     </g>
    </g>
   </g>
   <g id="line2d_15">
    <path d="M 27.577587 171.610525 
L 28.432368 171.412338 
L 29.28715 173.235662 
L 30.141931 170.963112 
L 30.996713 174.451212 
L 31.851494 174.715463 
L 32.706275 174.213388 
L 33.561057 175.6007 
L 34.415838 174.979713 
L 35.27062 174.041625 
L 36.125401 176.102775 
L 36.980182 175.296812 
L 37.834964 176.3406 
L 38.689745 176.49915 
L 39.544527 176.829463 
L 40.399308 176.92195 
L 41.254089 176.485938 
L 42.108871 175.640337 
L 42.963652 175.838525 
L 43.818434 175.323238 
L 44.673215 174.662612 
L 45.527997 174.847588 
L 46.382778 175.7064 
L 47.237559 175.428937 
L 48.092341 174.609762 
L 48.947122 174.91365 
L 49.801904 173.526338 
L 50.656685 173.565975 
L 51.511466 174.253025 
L 52.366248 173.96235 
L 53.221029 174.80795 
L 54.075811 173.843437 
L 54.930592 173.922712 
L 55.785373 174.900438 
L 56.640155 172.984625 
L 57.494936 172.58825 
L 58.349718 172.310788 
L 59.204499 172.918563 
L 60.05928 173.447062 
L 60.914062 172.90535 
L 61.768843 171.280213 
L 62.623625 172.561825 
L 63.478406 171.808713 
L 64.333187 171.385912 
L 65.187969 171.716225 
L 66.04275 173.817013 
L 66.897532 171.491613 
L 67.752313 171.874775 
L 68.607094 172.0069 
L 69.461876 171.015963 
L 70.316657 171.544463 
L 71.171439 170.236425 
L 72.02622 170.5271 
L 72.881001 169.73435 
L 73.735783 170.7385 
L 74.590564 169.721137 
L 75.445346 170.1043 
L 76.300127 169.813625 
L 77.154908 171.240575 
L 78.00969 169.351187 
L 78.864471 170.038237 
L 79.719253 170.064662 
L 80.574034 170.302487 
L 81.428815 170.302487 
L 82.283597 170.236425 
L 83.138378 169.20585 
L 83.99316 169.483313 
L 84.847941 169.813625 
L 85.702722 170.289275 
L 86.557504 170.553525 
L 87.412285 170.05145 
L 88.267067 171.174512 
L 89.121848 171.412338 
L 89.976629 173.01105 
L 90.831411 171.914412 
L 91.686192 172.733587 
L 92.540974 174.477637 
L 93.395755 172.310788 
L 94.250536 175.006137 
L 95.105318 174.1209 
L 95.960099 175.7064 
L 96.814881 175.983862 
L 97.669662 177.040863 
L 98.524443 176.750187 
L 99.379225 177.727913 
L 100.234006 178.4546 
L 101.088788 178.864187 
L 101.943569 179.273775 
L 102.79835 179.590875 
L 103.653132 180.555387 
L 104.507913 180.6743 
L 105.362695 180.343987 
L 106.217476 179.815487 
L 107.072257 180.542175 
L 107.927039 184.175612 
L 108.78182 183.607475 
L 109.636602 183.47535 
L 110.491383 182.973275 
L 111.346164 183.594262 
L 112.200946 184.096338 
L 113.055727 185.034425 
L 113.910509 185.087275 
L 114.76529 185.840387 
L 115.620071 185.37795 
L 116.474853 186.659562 
L 117.329634 186.355675 
L 118.184416 185.351525 
L 119.039197 186.144275 
L 119.893979 187.70335 
L 120.74876 187.637287 
L 121.603541 186.831325 
L 122.458323 187.267337 
L 123.313104 188.509312 
L 124.167885 188.7075 
L 125.022667 190.226937 
L 125.877448 189.302062 
" clip-path="url(#p57e71609d6)" style="fill: none; stroke: #ffb14e; stroke-width: 1.5; stroke-linecap: square"/>
   </g>
   <g id="line2d_16">
    <path d="M 27.577587 170.817775 
L 28.432368 170.289275 
L 29.28715 169.0473 
L 30.141931 171.927625 
L 30.996713 170.500675 
L 31.851494 171.451975 
L 32.706275 175.587488 
L 33.561057 175.0722 
L 34.415838 176.063137 
L 35.27062 174.91365 
L 36.125401 176.406662 
L 36.980182 177.833612 
L 37.834964 179.56445 
L 38.689745 178.177137 
L 39.544527 179.207712 
L 40.399308 179.35305 
L 41.254089 177.899675 
L 42.108871 179.049162 
L 42.963652 180.066525 
L 43.818434 179.207712 
L 44.673215 178.850975 
L 45.527997 178.82455 
L 46.382778 177.55615 
L 47.237559 178.388537 
L 48.092341 178.29605 
L 48.947122 178.547088 
L 49.801904 179.234138 
L 50.656685 179.102013 
L 51.511466 176.935162 
L 52.366248 177.120137 
L 53.221029 177.846825 
L 54.075811 178.705637 
L 54.930592 175.825312 
L 55.785373 177.252263 
L 56.640155 178.335688 
L 57.494936 177.992163 
L 58.349718 176.459512 
L 59.204499 177.054075 
L 60.05928 178.29605 
L 60.914062 175.627125 
L 61.768843 176.855887 
L 62.623625 176.3406 
L 63.478406 175.6007 
L 64.333187 175.640337 
L 65.187969 176.882313 
L 66.04275 174.689037 
L 66.897532 175.415725 
L 67.752313 175.217537 
L 68.607094 174.411575 
L 69.461876 176.208475 
L 70.316657 176.538788 
L 71.171439 175.574275 
L 72.02622 176.353813 
L 72.881001 174.9665 
L 73.735783 173.975562 
L 74.590564 174.530487 
L 75.445346 173.817013 
L 76.300127 173.248875 
L 77.154908 175.032562 
L 78.00969 173.618825 
L 78.864471 173.618825 
L 79.719253 172.707162 
L 80.574034 174.424787 
L 81.428815 172.522188 
L 82.283597 173.262088 
L 83.138378 172.469337 
L 83.99316 172.561825 
L 84.847941 172.337212 
L 85.702722 171.74265 
L 86.557504 171.782287 
L 87.412285 172.9582 
L 88.267067 173.4867 
L 89.121848 173.050687 
L 89.976629 173.935925 
L 90.831411 175.997075 
L 91.686192 176.419875 
L 92.540974 175.006137 
L 93.395755 176.327387 
L 94.250536 178.005375 
L 95.105318 176.961588 
L 95.960099 178.969887 
L 96.814881 178.850975 
L 97.669662 180.542175 
L 98.524443 179.77585 
L 99.379225 179.868337 
L 100.234006 179.8287 
L 101.088788 182.114463 
L 101.943569 180.872488 
L 102.79835 183.145038 
L 103.653132 183.884937 
L 104.507913 184.00385 
L 105.362695 183.924575 
L 106.217476 182.748662 
L 107.072257 184.42665 
L 107.927039 184.836237 
L 108.78182 185.245825 
L 109.636602 185.668625 
L 110.491383 186.765263 
L 111.346164 186.950237 
L 112.200946 186.8049 
L 113.055727 187.28055 
L 113.910509 188.245062 
L 114.76529 186.791687 
L 115.620071 187.70335 
L 116.474853 188.733925 
L 117.329634 188.179 
L 118.184416 190.266575 
L 119.039197 189.090663 
L 119.893979 189.18315 
L 120.74876 189.60595 
L 121.603541 190.87435 
L 122.458323 190.068388 
L 123.313104 190.015537 
L 124.167885 190.76865 
L 125.022667 190.87435 
L 125.877448 190.940412 
" clip-path="url(#p57e71609d6)" style="fill: none; stroke: #008e00; stroke-width: 1.5; stroke-linecap: square"/>
   </g>
   <g id="line2d_17">
    <path d="M 27.577587 177.727913 
L 28.432368 180.172225 
L 29.28715 180.436475 
L 30.141931 180.542175 
L 30.996713 182.061612 
L 31.851494 181.268863 
L 32.706275 183.647112 
L 33.561057 182.695812 
L 34.415838 184.651263 
L 35.27062 183.145038 
L 36.125401 182.827937 
L 36.980182 184.519137 
L 37.834964 182.616537 
L 38.689745 182.827937 
L 39.544527 183.6339 
L 40.399308 184.017063 
L 41.254089 182.352287 
L 42.108871 184.5852 
L 42.963652 184.083125 
L 43.818434 182.761875 
L 44.673215 183.726387 
L 45.527997 183.660325 
L 46.382778 183.237525 
L 47.237559 181.7313 
L 48.092341 182.299438 
L 48.947122 182.352287 
L 49.801904 181.916275 
L 50.656685 182.431562 
L 51.511466 182.405137 
L 52.366248 183.131825 
L 53.221029 182.41835 
L 54.075811 182.801513 
L 54.930592 181.334925 
L 55.785373 182.933638 
L 56.640155 184.730537 
L 57.494936 181.67845 
L 58.349718 182.325862 
L 59.204499 182.973275 
L 60.05928 182.444775 
L 60.914062 181.348138 
L 61.768843 182.0484 
L 62.623625 181.189587 
L 63.478406 180.489325 
L 64.333187 181.083888 
L 65.187969 181.427413 
L 66.04275 181.123525 
L 66.897532 180.647875 
L 67.752313 180.647875 
L 68.607094 180.502537 
L 69.461876 180.225075 
L 70.316657 180.6743 
L 71.171439 179.630513 
L 72.02622 179.855125 
L 72.881001 179.736212 
L 73.735783 179.45875 
L 74.590564 178.956675 
L 75.445346 180.185437 
L 76.300127 176.9748 
L 77.154908 178.19035 
L 78.00969 179.445538 
L 78.864471 175.931013 
L 79.719253 178.666 
L 80.574034 178.229987 
L 81.428815 178.626362 
L 82.283597 178.3489 
L 83.138378 177.609 
L 83.99316 179.03595 
L 84.847941 178.666 
L 85.702722 178.969887 
L 86.557504 181.14995 
L 87.412285 180.964975 
L 88.267067 181.5199 
L 89.121848 181.903063 
L 89.976629 182.220162 
L 90.831411 182.286225 
L 91.686192 183.145038 
L 92.540974 183.79245 
L 93.395755 184.135975 
L 94.250536 184.598412 
L 95.105318 185.074062 
L 95.960099 184.188825 
L 96.814881 186.4878 
L 97.669662 184.875875 
L 98.524443 186.32925 
L 99.379225 187.095575 
L 100.234006 187.254125 
L 101.088788 187.425887 
L 101.943569 186.818112 
L 102.79835 188.218637 
L 103.653132 187.108788 
L 104.507913 187.742987 
L 105.362695 188.297912 
L 106.217476 187.663713 
L 107.072257 189.051025 
L 107.927039 190.24015 
L 108.78182 189.6588 
L 109.636602 189.473825 
L 110.491383 189.368125 
L 111.346164 189.592737 
L 112.200946 190.253362 
L 113.055727 191.944562 
L 113.910509 189.8702 
L 114.76529 190.834712 
L 115.620071 190.808288 
L 116.474853 192.063475 
L 117.329634 192.235237 
L 118.184416 191.733162 
L 119.039197 192.063475 
L 119.893979 192.288087 
L 120.74876 191.416063 
L 121.603541 191.706738 
L 122.458323 194.137837 
L 123.313104 193.279025 
L 124.167885 192.961925 
L 125.022667 193.067625 
L 125.877448 193.027987 
" clip-path="url(#p57e71609d6)" style="fill: none; stroke: #000000; stroke-width: 1.5; stroke-linecap: square"/>
   </g>
   <g id="patch_3">
    <path d="M 27.6675 213.480937 
L 27.6675 23.220938 
" style="fill: none; stroke: #000000; stroke-width: 0.8; stroke-linejoin: miter; stroke-linecap: square"/>
   </g>
   <g id="patch_4">
    <path d="M 27.6675 213.480937 
L 125.3175 213.480937 
" style="fill: none; stroke: #000000; stroke-width: 0.8; stroke-linejoin: miter; stroke-linecap: square"/>
   </g>
   <g id="text_7">
    <!-- No-phosphate -->
    <g transform="translate(32.520469 17.220937) scale(0.14 -0.14)">
     <defs>
      <path id="ArialMT-4e" d="M 488 0 
L 488 4581 
L 1109 4581 
L 3516 984 
L 3516 4581 
L 4097 4581 
L 4097 0 
L 3475 0 
L 1069 3600 
L 1069 0 
L 488 0 
z
" transform="scale(0.015625)"/>
      <path id="ArialMT-6f" d="M 213 1659 
Q 213 2581 725 3025 
Q 1153 3394 1769 3394 
Q 2453 3394 2887 2945 
Q 3322 2497 3322 1706 
Q 3322 1066 3130 698 
Q 2938 331 2570 128 
Q 2203 -75 1769 -75 
Q 1072 -75 642 372 
Q 213 819 213 1659 
z
M 791 1659 
Q 791 1022 1069 705 
Q 1347 388 1769 388 
Q 2188 388 2466 706 
Q 2744 1025 2744 1678 
Q 2744 2294 2464 2611 
Q 2184 2928 1769 2928 
Q 1347 2928 1069 2612 
Q 791 2297 791 1659 
z
" transform="scale(0.015625)"/>
      <path id="ArialMT-2d" d="M 203 1375 
L 203 1941 
L 1931 1941 
L 1931 1375 
L 203 1375 
z
" transform="scale(0.015625)"/>
      <path id="ArialMT-70" d="M 422 -1272 
L 422 3319 
L 934 3319 
L 934 2888 
Q 1116 3141 1344 3267 
Q 1572 3394 1897 3394 
Q 2322 3394 2647 3175 
Q 2972 2956 3137 2557 
Q 3303 2159 3303 1684 
Q 3303 1175 3120 767 
Q 2938 359 2589 142 
Q 2241 -75 1856 -75 
Q 1575 -75 1351 44 
Q 1128 163 984 344 
L 984 -1272 
L 422 -1272 
z
M 931 1641 
Q 931 1000 1190 694 
Q 1450 388 1819 388 
Q 2194 388 2461 705 
Q 2728 1022 2728 1688 
Q 2728 2322 2467 2637 
Q 2206 2953 1844 2953 
Q 1484 2953 1207 2617 
Q 931 2281 931 1641 
z
" transform="scale(0.015625)"/>
      <path id="ArialMT-68" d="M 422 0 
L 422 4581 
L 984 4581 
L 984 2938 
Q 1378 3394 1978 3394 
Q 2347 3394 2619 3248 
Q 2891 3103 3008 2847 
Q 3125 2591 3125 2103 
L 3125 0 
L 2563 0 
L 2563 2103 
Q 2563 2525 2380 2717 
Q 2197 2909 1863 2909 
Q 1613 2909 1392 2779 
Q 1172 2650 1078 2428 
Q 984 2206 984 1816 
L 984 0 
L 422 0 
z
" transform="scale(0.015625)"/>
      <path id="ArialMT-61" d="M 2588 409 
Q 2275 144 1986 34 
Q 1697 -75 1366 -75 
Q 819 -75 525 192 
Q 231 459 231 875 
Q 231 1119 342 1320 
Q 453 1522 633 1644 
Q 813 1766 1038 1828 
Q 1203 1872 1538 1913 
Q 2219 1994 2541 2106 
Q 2544 2222 2544 2253 
Q 2544 2597 2384 2738 
Q 2169 2928 1744 2928 
Q 1347 2928 1158 2789 
Q 969 2650 878 2297 
L 328 2372 
Q 403 2725 575 2942 
Q 747 3159 1072 3276 
Q 1397 3394 1825 3394 
Q 2250 3394 2515 3294 
Q 2781 3194 2906 3042 
Q 3031 2891 3081 2659 
Q 3109 2516 3109 2141 
L 3109 1391 
Q 3109 606 3145 398 
Q 3181 191 3288 0 
L 2700 0 
Q 2613 175 2588 409 
z
M 2541 1666 
Q 2234 1541 1622 1453 
Q 1275 1403 1131 1340 
Q 988 1278 909 1158 
Q 831 1038 831 891 
Q 831 666 1001 516 
Q 1172 366 1500 366 
Q 1825 366 2078 508 
Q 2331 650 2450 897 
Q 2541 1088 2541 1459 
L 2541 1666 
z
" transform="scale(0.015625)"/>
     </defs>
     <use xlink:href="#ArialMT-4e"/>
     <use xlink:href="#ArialMT-6f" x="72.216797"/>
     <use xlink:href="#ArialMT-2d" x="127.832031"/>
     <use xlink:href="#ArialMT-70" x="161.132812"/>
     <use xlink:href="#ArialMT-68" x="216.748047"/>
     <use xlink:href="#ArialMT-6f" x="272.363281"/>
     <use xlink:href="#ArialMT-73" x="327.978516"/>
     <use xlink:href="#ArialMT-70" x="377.978516"/>
     <use xlink:href="#ArialMT-68" x="433.59375"/>
     <use xlink:href="#ArialMT-61" x="489.208984"/>
     <use xlink:href="#ArialMT-74" x="544.824219"/>
     <use xlink:href="#ArialMT-65" x="572.607422"/>
    </g>
   </g>
  </g>
 </g>
 <defs>
  <clipPath id="p57e71609d6">
   <rect x="27.6675" y="23.220937" width="97.65" height="190.26"/>
  </clipPath>
 </defs>
</svg>
