<?xml version="1.0" encoding="utf-8" standalone="no"?>
<!DOCTYPE svg PUBLIC "-//W3C//DTD SVG 1.1//EN"
  "http://www.w3.org/Graphics/SVG/1.1/DTD/svg11.dtd">
<svg xmlns:xlink="http://www.w3.org/1999/xlink" width="132.5175pt" height="253.629687pt" viewBox="0 0 132.5175 253.629687" xmlns="http://www.w3.org/2000/svg" version="1.1">
 <metadata>
  <rdf:RDF xmlns:dc="http://purl.org/dc/elements/1.1/" xmlns:cc="http://creativecommons.org/ns#" xmlns:rdf="http://www.w3.org/1999/02/22-rdf-syntax-ns#">
   <cc:Work>
    <dc:type rdf:resource="http://purl.org/dc/dcmitype/StillImage"/>
    <dc:date>2023-10-06T13:52:42.898623</dc:date>
    <dc:format>image/svg+xml</dc:format>
    <dc:creator>
     <cc:Agent>
      <dc:title>Matplotlib v3.7.1, https://matplotlib.org/</dc:title>
     </cc:Agent>
    </dc:creator>
   </cc:Work>
  </rdf:RDF>
 </metadata>
 <defs>
  <style type="text/css">*{stroke-linejoin: round; stroke-linecap: butt}</style>
 </defs>
 <g id="figure_1">
  <g id="patch_1">
   <path d="M -0 253.629687 
L 132.5175 253.629687 
L 132.5175 -0 
L -0 -0 
z
" style="fill: #ffffff"/>
  </g>
  <g id="axes_1">
   <g id="patch_2">
    <path d="M 27.6675 213.480937 
L 125.3175 213.480937 
L 125.3175 23.220937 
L 27.6675 23.220937 
z
" style="fill: #ffffff"/>
   </g>
   <g id="matplotlib.axis_1">
    <g id="xtick_1">
     <g id="line2d_1">
      <defs>
       <path id="mf2e712049c" d="M 0 0 
L 0 3.5 
" style="stroke: #000000; stroke-width: 0.8"/>
      </defs>
      <g>
       <use xlink:href="#mf2e712049c" x="60.2175" y="213.480937" style="stroke: #000000; stroke-width: 0.8"/>
      </g>
     </g>
     <g id="text_1">
      <!-- 10 -->
      <g transform="translate(54.656562 227.63875) scale(0.1 -0.1)">
       <defs>
        <path id="ArialMT-31" d="M 2384 0 
L 1822 0 
L 1822 3584 
Q 1619 3391 1289 3197 
Q 959 3003 697 2906 
L 697 3450 
Q 1169 3672 1522 3987 
Q 1875 4303 2022 4600 
L 2384 4600 
L 2384 0 
z
" transform="scale(0.015625)"/>
        <path id="ArialMT-30" d="M 266 2259 
Q 266 3072 433 3567 
Q 600 4063 929 4331 
Q 1259 4600 1759 4600 
Q 2128 4600 2406 4451 
Q 2684 4303 2865 4023 
Q 3047 3744 3150 3342 
Q 3253 2941 3253 2259 
Q 3253 1453 3087 958 
Q 2922 463 2592 192 
Q 2263 -78 1759 -78 
Q 1097 -78 719 397 
Q 266 969 266 2259 
z
M 844 2259 
Q 844 1131 1108 757 
Q 1372 384 1759 384 
Q 2147 384 2411 759 
Q 2675 1134 2675 2259 
Q 2675 3391 2411 3762 
Q 2147 4134 1753 4134 
Q 1366 4134 1134 3806 
Q 844 3388 844 2259 
z
" transform="scale(0.015625)"/>
       </defs>
       <use xlink:href="#ArialMT-31"/>
       <use xlink:href="#ArialMT-30" x="55.615234"/>
      </g>
     </g>
    </g>
    <g id="xtick_2">
     <g id="line2d_2">
      <g>
       <use xlink:href="#mf2e712049c" x="103.6175" y="213.480937" style="stroke: #000000; stroke-width: 0.8"/>
      </g>
     </g>
     <g id="text_2">
      <!-- 12 -->
      <g transform="translate(98.056563 227.63875) scale(0.1 -0.1)">
       <defs>
        <path id="ArialMT-32" d="M 3222 541 
L 3222 0 
L 194 0 
Q 188 203 259 391 
Q 375 700 629 1000 
Q 884 1300 1366 1694 
Q 2113 2306 2375 2664 
Q 2638 3022 2638 3341 
Q 2638 3675 2398 3904 
Q 2159 4134 1775 4134 
Q 1369 4134 1125 3890 
Q 881 3647 878 3216 
L 300 3275 
Q 359 3922 746 4261 
Q 1134 4600 1788 4600 
Q 2447 4600 2831 4234 
Q 3216 3869 3216 3328 
Q 3216 3053 3103 2787 
Q 2991 2522 2730 2228 
Q 2469 1934 1863 1422 
Q 1356 997 1212 845 
Q 1069 694 975 541 
L 3222 541 
z
" transform="scale(0.015625)"/>
       </defs>
       <use xlink:href="#ArialMT-31"/>
       <use xlink:href="#ArialMT-32" x="55.615234"/>
      </g>
     </g>
    </g>
    <g id="xtick_3">
     <g id="line2d_3">
      <defs>
       <path id="m09145206d3" d="M 0 0 
L 0 2 
" style="stroke: #000000; stroke-width: 0.6"/>
      </defs>
      <g>
       <use xlink:href="#m09145206d3" x="27.6675" y="213.480937" style="stroke: #000000; stroke-width: 0.6"/>
      </g>
     </g>
    </g>
    <g id="xtick_4">
     <g id="line2d_4">
      <g>
       <use xlink:href="#m09145206d3" x="38.5175" y="213.480937" style="stroke: #000000; stroke-width: 0.6"/>
      </g>
     </g>
    </g>
    <g id="xtick_5">
     <g id="line2d_5">
      <g>
       <use xlink:href="#m09145206d3" x="49.3675" y="213.480937" style="stroke: #000000; stroke-width: 0.6"/>
      </g>
     </g>
    </g>
    <g id="xtick_6">
     <g id="line2d_6">
      <g>
       <use xlink:href="#m09145206d3" x="71.0675" y="213.480937" style="stroke: #000000; stroke-width: 0.6"/>
      </g>
     </g>
    </g>
    <g id="xtick_7">
     <g id="line2d_7">
      <g>
       <use xlink:href="#m09145206d3" x="81.9175" y="213.480937" style="stroke: #000000; stroke-width: 0.6"/>
      </g>
     </g>
    </g>
    <g id="xtick_8">
     <g id="line2d_8">
      <g>
       <use xlink:href="#m09145206d3" x="92.7675" y="213.480937" style="stroke: #000000; stroke-width: 0.6"/>
      </g>
     </g>
    </g>
    <g id="xtick_9">
     <g id="line2d_9">
      <g>
       <use xlink:href="#m09145206d3" x="114.4675" y="213.480937" style="stroke: #000000; stroke-width: 0.6"/>
      </g>
     </g>
    </g>
    <g id="xtick_10">
     <g id="line2d_10">
      <g>
       <use xlink:href="#m09145206d3" x="125.3175" y="213.480937" style="stroke: #000000; stroke-width: 0.6"/>
      </g>
     </g>
    </g>
    <g id="text_3">
     <!-- 2θ -->
     <g transform="translate(68.707188 243.647187) scale(0.14 -0.14)">
      <defs>
       <path id="ArialMT-3b8" d="M 288 2291 
Q 288 4659 1781 4659 
Q 3275 4659 3275 2291 
Q 3275 -75 1781 -75 
Q 288 -75 288 2291 
z
M 869 2519 
L 2694 2519 
Q 2663 3497 2413 3847 
Q 2163 4197 1775 4197 
Q 903 4197 869 2519 
z
M 2694 2066 
L 869 2066 
Q 903 388 1781 388 
Q 2663 388 2694 2066 
z
" transform="scale(0.015625)"/>
      </defs>
      <use xlink:href="#ArialMT-32"/>
      <use xlink:href="#ArialMT-3b8" x="55.615234"/>
     </g>
    </g>
   </g>
   <g id="matplotlib.axis_2">
    <g id="ytick_1">
     <g id="line2d_11"/>
    </g>
    <g id="ytick_2">
     <g id="line2d_12"/>
    </g>
    <g id="ytick_3">
     <g id="line2d_13"/>
    </g>
    <g id="ytick_4">
     <g id="line2d_14"/>
    </g>
    <g id="ytick_5">
     <g id="line2d_15"/>
    </g>
    <g id="ytick_6">
     <g id="line2d_16"/>
    </g>
    <g id="ytick_7">
     <g id="line2d_17"/>
    </g>
    <g id="ytick_8">
     <g id="line2d_18"/>
    </g>
    <g id="ytick_9">
     <g id="line2d_19"/>
    </g>
    <g id="text_4">
     <!-- Intensity -->
     <g transform="translate(17.220938 144.418281) rotate(-90) scale(0.14 -0.14)">
      <defs>
       <path id="ArialMT-49" d="M 597 0 
L 597 4581 
L 1203 4581 
L 1203 0 
L 597 0 
z
" transform="scale(0.015625)"/>
       <path id="ArialMT-6e" d="M 422 0 
L 422 3319 
L 928 3319 
L 928 2847 
Q 1294 3394 1984 3394 
Q 2284 3394 2536 3286 
Q 2788 3178 2913 3003 
Q 3038 2828 3088 2588 
Q 3119 2431 3119 2041 
L 3119 0 
L 2556 0 
L 2556 2019 
Q 2556 2363 2490 2533 
Q 2425 2703 2258 2804 
Q 2091 2906 1866 2906 
Q 1506 2906 1245 2678 
Q 984 2450 984 1813 
L 984 0 
L 422 0 
z
" transform="scale(0.015625)"/>
       <path id="ArialMT-74" d="M 1650 503 
L 1731 6 
Q 1494 -44 1306 -44 
Q 1000 -44 831 53 
Q 663 150 594 308 
Q 525 466 525 972 
L 525 2881 
L 113 2881 
L 113 3319 
L 525 3319 
L 525 4141 
L 1084 4478 
L 1084 3319 
L 1650 3319 
L 1650 2881 
L 1084 2881 
L 1084 941 
Q 1084 700 1114 631 
Q 1144 563 1211 522 
Q 1278 481 1403 481 
Q 1497 481 1650 503 
z
" transform="scale(0.015625)"/>
       <path id="ArialMT-65" d="M 2694 1069 
L 3275 997 
Q 3138 488 2766 206 
Q 2394 -75 1816 -75 
Q 1088 -75 661 373 
Q 234 822 234 1631 
Q 234 2469 665 2931 
Q 1097 3394 1784 3394 
Q 2450 3394 2872 2941 
Q 3294 2488 3294 1666 
Q 3294 1616 3291 1516 
L 816 1516 
Q 847 969 1125 678 
Q 1403 388 1819 388 
Q 2128 388 2347 550 
Q 2566 713 2694 1069 
z
M 847 1978 
L 2700 1978 
Q 2663 2397 2488 2606 
Q 2219 2931 1791 2931 
Q 1403 2931 1139 2672 
Q 875 2413 847 1978 
z
" transform="scale(0.015625)"/>
       <path id="ArialMT-73" d="M 197 991 
L 753 1078 
Q 800 744 1014 566 
Q 1228 388 1613 388 
Q 2000 388 2187 545 
Q 2375 703 2375 916 
Q 2375 1106 2209 1216 
Q 2094 1291 1634 1406 
Q 1016 1563 777 1677 
Q 538 1791 414 1992 
Q 291 2194 291 2438 
Q 291 2659 392 2848 
Q 494 3038 669 3163 
Q 800 3259 1026 3326 
Q 1253 3394 1513 3394 
Q 1903 3394 2198 3281 
Q 2494 3169 2634 2976 
Q 2775 2784 2828 2463 
L 2278 2388 
Q 2241 2644 2061 2787 
Q 1881 2931 1553 2931 
Q 1166 2931 1000 2803 
Q 834 2675 834 2503 
Q 834 2394 903 2306 
Q 972 2216 1119 2156 
Q 1203 2125 1616 2013 
Q 2213 1853 2448 1751 
Q 2684 1650 2818 1456 
Q 2953 1263 2953 975 
Q 2953 694 2789 445 
Q 2625 197 2315 61 
Q 2006 -75 1616 -75 
Q 969 -75 630 194 
Q 291 463 197 991 
z
" transform="scale(0.015625)"/>
       <path id="ArialMT-69" d="M 425 3934 
L 425 4581 
L 988 4581 
L 988 3934 
L 425 3934 
z
M 425 0 
L 425 3319 
L 988 3319 
L 988 0 
L 425 0 
z
" transform="scale(0.015625)"/>
       <path id="ArialMT-79" d="M 397 -1278 
L 334 -750 
Q 519 -800 656 -800 
Q 844 -800 956 -737 
Q 1069 -675 1141 -563 
Q 1194 -478 1313 -144 
Q 1328 -97 1363 -6 
L 103 3319 
L 709 3319 
L 1400 1397 
Q 1534 1031 1641 628 
Q 1738 1016 1872 1384 
L 2581 3319 
L 3144 3319 
L 1881 -56 
Q 1678 -603 1566 -809 
Q 1416 -1088 1222 -1217 
Q 1028 -1347 759 -1347 
Q 597 -1347 397 -1278 
z
" transform="scale(0.015625)"/>
      </defs>
      <use xlink:href="#ArialMT-49"/>
      <use xlink:href="#ArialMT-6e" x="27.783203"/>
      <use xlink:href="#ArialMT-74" x="83.398438"/>
      <use xlink:href="#ArialMT-65" x="111.181641"/>
      <use xlink:href="#ArialMT-6e" x="166.796875"/>
      <use xlink:href="#ArialMT-73" x="222.412109"/>
      <use xlink:href="#ArialMT-69" x="272.412109"/>
      <use xlink:href="#ArialMT-74" x="294.628906"/>
      <use xlink:href="#ArialMT-79" x="322.412109"/>
     </g>
    </g>
   </g>
   <g id="line2d_20">
    <path d="M 96.0225 213.480937 
L 96.0225 23.220937 
" clip-path="url(#pfc3ac6843d)" style="fill: none; stroke: #808080; stroke-width: 2; stroke-linecap: square"/>
   </g>
   <g id="line2d_21">
    <path d="M 27.10601 98.243915 
L 27.675865 100.838369 
L 28.245719 101.097815 
L 28.815573 99.973551 
L 29.385428 107.929878 
L 29.955282 103.605787 
L 30.525136 102.611247 
L 31.09499 103.476065 
L 31.664845 102.178837 
L 32.234699 103.908474 
L 33.374407 105.984037 
L 33.944262 101.616706 
L 34.514116 100.362719 
L 35.08397 102.870692 
L 35.653824 102.740969 
L 36.223679 104.340883 
L 36.793533 109.183865 
L 37.363387 108.621733 
L 37.933242 105.032737 
L 38.503096 108.102842 
L 39.07295 103.389583 
L 39.642804 104.470606 
L 40.212659 104.816533 
L 40.782513 103.649028 
L 41.352367 105.075978 
L 41.922221 103.562547 
L 42.492076 104.643569 
L 43.06193 113.075547 
L 43.631784 104.989497 
L 44.201639 110.221647 
L 44.771493 104.513847 
L 45.341347 105.984037 
L 45.911201 104.773292 
L 46.481056 103.216619 
L 47.05091 107.583951 
L 47.620764 104.384124 
L 48.190618 105.724592 
L 48.760473 103.994956 
L 49.330327 105.075978 
L 49.900181 101.35726 
L 51.03989 103.73551 
L 51.609744 99.022251 
L 52.179598 102.524765 
L 52.749453 97.422337 
L 53.319307 97.249374 
L 53.889161 99.022251 
L 54.459015 99.411419 
L 55.02887 93.098247 
L 55.598724 90.41731 
L 56.168578 87.044519 
L 56.738432 82.158297 
L 57.308287 88.428228 
L 57.878141 85.18516 
L 58.447995 79.563842 
L 59.01785 80.385419 
L 59.587704 75.066788 
L 60.157558 76.450497 
L 60.727412 75.801883 
L 61.297267 81.769128 
L 61.867121 74.331692 
L 62.436975 85.747292 
L 63.006829 86.61211 
L 63.576684 84.968956 
L 64.146538 89.509251 
L 64.716392 87.476928 
L 65.286246 84.406824 
L 65.856101 91.152406 
L 66.425955 88.51471 
L 66.995809 91.930742 
L 67.565664 92.449633 
L 68.135518 93.530656 
L 68.705372 93.833342 
L 69.275226 92.406392 
L 69.845081 89.638974 
L 70.414935 90.287588 
L 70.984789 88.601192 
L 71.554643 86.439147 
L 72.124498 87.044519 
L 72.694352 89.855178 
L 73.264206 88.947119 
L 73.83406 86.266183 
L 74.403915 87.260724 
L 74.973769 82.720428 
L 75.543623 82.850151 
L 76.113478 85.098678 
L 76.683332 84.147378 
L 77.253186 86.914797 
L 77.82304 83.75821 
L 78.392895 84.017656 
L 78.962749 87.217483 
L 79.532603 80.947551 
L 80.102457 79.650324 
L 80.672312 78.742265 
L 81.81202 82.460983 
L 82.381874 80.688106 
L 82.951729 75.369474 
L 83.521583 79.563842 
L 84.091437 77.09911 
L 84.661292 75.715401 
L 85.231146 76.796424 
L 85.801 83.671728 
L 86.370854 76.061328 
L 86.940709 77.315315 
L 87.510563 77.747724 
L 88.080417 74.504656 
L 88.650271 76.234292 
L 89.220126 71.953442 
L 89.78998 72.904742 
L 90.359834 70.310287 
L 90.929689 73.596597 
L 91.499543 70.267047 
L 92.069397 71.521033 
L 92.639251 70.569733 
L 93.209106 75.239751 
L 93.77896 69.056301 
L 94.348814 71.304828 
L 94.918668 71.39131 
L 95.488523 72.169647 
L 96.058377 72.169647 
L 96.628231 71.953442 
L 97.198085 68.580651 
L 98.337794 70.569733 
L 98.907648 72.126406 
L 99.477503 72.991224 
L 100.047357 71.348069 
L 100.617211 75.023547 
L 101.187065 75.801883 
L 101.75692 81.034033 
L 102.326774 77.445037 
L 102.896628 80.125974 
L 103.466482 85.833774 
L 104.036337 78.742265 
L 104.606191 87.56341 
L 105.176045 84.666269 
L 105.745899 89.855178 
L 106.315754 90.763238 
L 106.885608 94.22251 
L 107.455462 93.27121 
L 108.025317 96.471037 
L 108.595171 98.849288 
L 109.734879 101.530224 
L 110.304734 102.568006 
L 110.874588 105.724592 
L 111.444442 106.11376 
L 112.014296 105.032737 
L 112.584151 103.303101 
L 113.154005 105.681351 
L 113.723859 117.572601 
L 114.293714 115.713242 
L 114.863568 115.280833 
L 115.433422 113.637678 
L 116.573131 117.313156 
L 117.142985 120.38326 
L 117.712839 120.556224 
L 118.282693 123.020956 
L 118.852548 121.507524 
L 119.422402 125.701892 
L 119.992256 124.707351 
L 120.56211 121.421042 
L 121.131965 124.015497 
L 121.701819 129.117924 
L 122.271673 128.901719 
L 122.841528 126.264024 
L 123.411382 127.690974 
L 123.981236 131.755619 
L 124.55109 132.404233 
L 125.120945 137.376937 
L 125.690799 134.350074 
L 125.690799 134.350074 
" clip-path="url(#pfc3ac6843d)" style="fill: none; stroke: #ffb14e; stroke-width: 1.5; stroke-linecap: square"/>
   </g>
   <g id="line2d_22">
    <path d="M 27.10601 103.73551 
L 27.675865 104.21116 
L 28.245719 103.649028 
L 29.385428 106.11376 
L 29.955282 102.178837 
L 30.525136 103.821992 
L 31.09499 110.783778 
L 31.664845 104.340883 
L 32.234699 108.837937 
L 32.804553 110.39461 
L 33.374407 108.837937 
L 33.944262 105.335424 
L 34.514116 111.086465 
L 35.08397 105.940797 
L 35.653824 111.043224 
L 36.223679 114.416015 
L 36.793533 114.891665 
L 37.363387 109.313587 
L 37.933242 112.210728 
L 38.503096 111.432392 
L 39.07295 106.892097 
L 39.642804 113.680919 
L 40.212659 112.340451 
L 41.352367 112.124247 
L 41.922221 109.140624 
L 42.492076 115.107869 
L 43.06193 113.162028 
L 43.631784 109.529792 
L 44.201639 112.643137 
L 45.341347 109.659515 
L 45.911201 112.253969 
L 46.481056 113.637678 
L 47.05091 111.735078 
L 48.190618 108.881178 
L 48.760473 106.848856 
L 49.330327 106.070519 
L 49.900181 107.973119 
L 50.470035 108.924419 
L 51.03989 112.989065 
L 52.179598 108.535251 
L 52.749453 107.756915 
L 53.319307 106.070519 
L 53.889161 106.546169 
L 54.459015 103.25986 
L 55.02887 103.73551 
L 55.598724 101.83291 
L 56.168578 95.303533 
L 56.738432 97.07641 
L 57.308287 91.022683 
L 57.878141 91.84426 
L 58.447995 83.974415 
L 59.01785 89.336287 
L 59.587704 76.709942 
L 60.157558 73.856042 
L 60.727412 72.126406 
L 61.297267 68.06176 
L 61.867121 77.488278 
L 62.436975 72.81826 
L 63.006829 75.931606 
L 63.576684 89.46601 
L 64.146538 87.779615 
L 64.716392 91.022683 
L 65.286246 87.260724 
L 66.995809 102.481524 
L 67.565664 97.941228 
L 68.135518 101.314019 
L 68.705372 101.789669 
L 69.275226 97.033169 
L 70.414935 104.124678 
L 70.984789 101.314019 
L 71.554643 100.146515 
L 72.124498 100.060033 
L 72.694352 95.908906 
L 73.264206 98.633083 
L 73.83406 98.330397 
L 74.403915 99.151974 
L 74.973769 101.400501 
L 75.543623 100.968092 
L 76.113478 93.876583 
L 76.683332 94.481956 
L 77.82304 99.670865 
L 78.392895 90.244347 
L 78.962749 94.914365 
L 79.532603 98.460119 
L 80.102457 97.335856 
L 80.672312 92.31991 
L 81.242166 94.265751 
L 81.81202 98.330397 
L 82.381874 89.595733 
L 82.951729 93.617137 
L 83.521583 91.930742 
L 84.091437 89.509251 
L 84.661292 89.638974 
L 85.231146 93.703619 
L 85.801 86.525628 
L 86.370854 88.903878 
L 86.940709 88.255265 
L 87.510563 85.617569 
L 88.080417 91.498333 
L 88.650271 92.579356 
L 89.220126 89.422769 
L 89.78998 91.973983 
L 90.359834 87.433687 
L 90.929689 84.190619 
L 91.499543 86.006737 
L 92.069397 83.671728 
L 92.639251 81.812369 
L 93.209106 87.649892 
L 93.77896 83.023115 
L 94.348814 83.023115 
L 94.918668 80.039492 
L 95.488523 85.66081 
L 96.058377 79.434119 
L 96.628231 81.85561 
L 97.198085 79.261156 
L 97.76794 79.563842 
L 98.337794 78.828747 
L 98.907648 76.882906 
L 99.477503 77.012628 
L 100.047357 80.861069 
L 100.617211 82.590706 
L 101.187065 81.163756 
L 101.75692 84.060897 
L 102.326774 90.806478 
L 102.896628 92.190187 
L 103.466482 87.56341 
L 104.036337 91.887501 
L 104.606191 97.379097 
L 105.176045 93.963065 
L 105.745899 100.535683 
L 106.315754 100.146515 
L 106.885608 105.681351 
L 107.455462 103.173378 
L 108.025317 103.476065 
L 108.595171 103.346342 
L 109.165025 110.827019 
L 109.734879 106.762374 
L 110.304734 114.19981 
L 110.874588 116.621301 
L 111.444442 117.010469 
L 112.014296 116.751024 
L 112.584151 112.902583 
L 113.154005 118.394178 
L 114.863568 122.458824 
L 115.433422 126.047819 
L 116.003276 126.653192 
L 116.573131 126.177542 
L 117.142985 127.734215 
L 117.712839 130.890801 
L 118.282693 126.134301 
L 119.422402 132.490715 
L 119.992256 130.674597 
L 120.56211 137.50666 
L 121.131965 133.658219 
L 121.701819 133.960906 
L 122.271673 135.344615 
L 122.841528 139.495742 
L 123.411382 136.858047 
L 123.981236 136.685083 
L 124.55109 139.149815 
L 125.690799 139.711947 
L 125.690799 139.711947 
" clip-path="url(#pfc3ac6843d)" style="fill: none; stroke: #008e00; stroke-width: 1.5; stroke-linecap: square"/>
   </g>
   <g id="line2d_23">
    <path d="M 27.10601 108.448769 
L 27.675865 116.534819 
L 28.245719 112.167487 
L 28.815573 113.897124 
L 29.385428 114.026847 
L 29.955282 114.718701 
L 30.525136 113.291751 
L 31.09499 113.594437 
L 31.664845 116.621301 
L 32.234699 116.448337 
L 32.804553 117.399637 
L 33.374407 117.788806 
L 33.944262 116.57806 
L 34.514116 113.594437 
L 35.08397 119.864369 
L 35.653824 119.475201 
L 36.223679 121.377801 
L 36.793533 121.680487 
L 37.363387 118.913069 
L 37.933242 119.215756 
L 38.503096 116.491578 
L 39.642804 121.723728 
L 40.212659 115.799724 
L 40.782513 115.453797 
L 41.352367 119.648165 
L 41.922221 118.221215 
L 42.492076 118.869828 
L 43.06193 115.021387 
L 43.631784 120.253537 
L 44.771493 125.745133 
L 45.341347 118.523901 
L 45.911201 120.988633 
L 46.481056 119.086033 
L 47.05091 118.523901 
L 47.620764 118.523901 
L 48.190618 117.226674 
L 48.760473 117.05371 
L 49.330327 119.215756 
L 49.900181 122.934474 
L 50.470035 117.702324 
L 51.03989 114.632219 
L 52.179598 118.307697 
L 52.749453 117.183433 
L 53.319307 111.216187 
L 53.889161 108.146083 
L 54.459015 109.270347 
L 55.02887 109.054142 
L 55.598724 100.362719 
L 56.168578 97.465578 
L 56.738432 99.151974 
L 57.308287 92.665837 
L 57.878141 89.855178 
L 58.447995 91.109165 
L 59.01785 94.22251 
L 59.587704 93.184728 
L 60.157558 96.471037 
L 60.727412 104.470606 
L 61.297267 105.335424 
L 61.867121 105.681351 
L 62.436975 110.654056 
L 63.006829 108.059601 
L 63.576684 115.842965 
L 64.146538 112.729619 
L 64.716392 119.129274 
L 65.286246 114.19981 
L 65.856101 113.162028 
L 66.425955 118.696865 
L 66.995809 112.470174 
L 67.565664 113.162028 
L 68.135518 115.799724 
L 68.705372 117.05371 
L 69.275226 111.605356 
L 69.845081 118.913069 
L 70.414935 117.269915 
L 70.984789 112.945824 
L 71.554643 116.10241 
L 72.124498 115.886206 
L 72.694352 114.502497 
L 73.264206 109.573033 
L 73.83406 111.432392 
L 74.403915 111.605356 
L 74.973769 110.178406 
L 75.543623 111.864801 
L 76.113478 111.778319 
L 76.683332 114.156569 
L 77.253186 111.82156 
L 77.82304 113.075547 
L 78.392895 108.275806 
L 79.532603 119.388719 
L 80.102457 109.400069 
L 81.242166 113.637678 
L 81.81202 111.908042 
L 82.381874 108.319047 
L 82.951729 110.610815 
L 84.091437 105.508387 
L 84.661292 107.454228 
L 85.231146 108.578492 
L 85.801 107.583951 
L 86.370854 106.027278 
L 86.940709 106.027278 
L 87.510563 105.551628 
L 88.080417 104.643569 
L 88.650271 106.11376 
L 89.220126 102.697728 
L 89.78998 103.432824 
L 90.359834 103.043656 
L 90.929689 102.135597 
L 91.499543 100.492442 
L 92.069397 104.513847 
L 92.639251 94.006306 
L 93.77896 102.092356 
L 94.348814 90.590274 
L 94.918668 99.541142 
L 95.488523 98.114192 
L 96.058377 99.411419 
L 96.628231 98.50336 
L 97.198085 96.081869 
L 97.76794 100.751887 
L 98.337794 99.541142 
L 98.907648 100.535683 
L 99.477503 107.670433 
L 100.047357 107.06506 
L 100.617211 108.881178 
L 101.75692 111.172947 
L 102.326774 111.389151 
L 102.896628 114.19981 
L 103.466482 116.318615 
L 104.036337 117.442878 
L 105.176045 120.512983 
L 105.745899 117.615842 
L 106.315754 125.13976 
L 106.885608 119.864369 
L 107.455462 124.620869 
L 108.025317 127.128842 
L 109.165025 128.209865 
L 109.734879 126.220783 
L 110.304734 130.804319 
L 110.874588 127.172083 
L 112.014296 131.063765 
L 112.584151 128.988201 
L 113.723859 137.420178 
L 114.293714 135.517578 
L 114.863568 134.912206 
L 115.433422 134.566278 
L 116.003276 135.301374 
L 116.573131 137.463419 
L 117.142985 142.998256 
L 117.712839 136.209433 
L 118.282693 139.366019 
L 118.852548 139.279538 
L 119.422402 143.387424 
L 119.992256 143.949556 
L 120.56211 142.306401 
L 121.131965 143.387424 
L 121.701819 144.122519 
L 122.271673 141.268619 
L 122.841528 142.219919 
L 123.411382 150.176247 
L 123.981236 147.365588 
L 124.55109 146.327806 
L 125.120945 146.673733 
L 125.690799 146.54401 
L 125.690799 146.54401 
" clip-path="url(#pfc3ac6843d)" style="fill: none; stroke: #000000; stroke-width: 1.5; stroke-linecap: square"/>
   </g>
   <g id="patch_3">
    <path d="M 27.6675 213.480937 
L 27.6675 23.220937 
" style="fill: none; stroke: #000000; stroke-width: 0.8; stroke-linejoin: miter; stroke-linecap: square"/>
   </g>
   <g id="patch_4">
    <path d="M 27.6675 213.480937 
L 125.3175 213.480937 
" style="fill: none; stroke: #000000; stroke-width: 0.8; stroke-linejoin: miter; stroke-linecap: square"/>
   </g>
   <g id="text_5">
    <!-- No-phosphate -->
    <g transform="translate(32.520469 17.220937) scale(0.14 -0.14)">
     <defs>
      <path id="ArialMT-4e" d="M 488 0 
L 488 4581 
L 1109 4581 
L 3516 984 
L 3516 4581 
L 4097 4581 
L 4097 0 
L 3475 0 
L 1069 3600 
L 1069 0 
L 488 0 
z
" transform="scale(0.015625)"/>
      <path id="ArialMT-6f" d="M 213 1659 
Q 213 2581 725 3025 
Q 1153 3394 1769 3394 
Q 2453 3394 2887 2945 
Q 3322 2497 3322 1706 
Q 3322 1066 3130 698 
Q 2938 331 2570 128 
Q 2203 -75 1769 -75 
Q 1072 -75 642 372 
Q 213 819 213 1659 
z
M 791 1659 
Q 791 1022 1069 705 
Q 1347 388 1769 388 
Q 2188 388 2466 706 
Q 2744 1025 2744 1678 
Q 2744 2294 2464 2611 
Q 2184 2928 1769 2928 
Q 1347 2928 1069 2612 
Q 791 2297 791 1659 
z
" transform="scale(0.015625)"/>
      <path id="ArialMT-2d" d="M 203 1375 
L 203 1941 
L 1931 1941 
L 1931 1375 
L 203 1375 
z
" transform="scale(0.015625)"/>
      <path id="ArialMT-70" d="M 422 -1272 
L 422 3319 
L 934 3319 
L 934 2888 
Q 1116 3141 1344 3267 
Q 1572 3394 1897 3394 
Q 2322 3394 2647 3175 
Q 2972 2956 3137 2557 
Q 3303 2159 3303 1684 
Q 3303 1175 3120 767 
Q 2938 359 2589 142 
Q 2241 -75 1856 -75 
Q 1575 -75 1351 44 
Q 1128 163 984 344 
L 984 -1272 
L 422 -1272 
z
M 931 1641 
Q 931 1000 1190 694 
Q 1450 388 1819 388 
Q 2194 388 2461 705 
Q 2728 1022 2728 1688 
Q 2728 2322 2467 2637 
Q 2206 2953 1844 2953 
Q 1484 2953 1207 2617 
Q 931 2281 931 1641 
z
" transform="scale(0.015625)"/>
      <path id="ArialMT-68" d="M 422 0 
L 422 4581 
L 984 4581 
L 984 2938 
Q 1378 3394 1978 3394 
Q 2347 3394 2619 3248 
Q 2891 3103 3008 2847 
Q 3125 2591 3125 2103 
L 3125 0 
L 2563 0 
L 2563 2103 
Q 2563 2525 2380 2717 
Q 2197 2909 1863 2909 
Q 1613 2909 1392 2779 
Q 1172 2650 1078 2428 
Q 984 2206 984 1816 
L 984 0 
L 422 0 
z
" transform="scale(0.015625)"/>
      <path id="ArialMT-61" d="M 2588 409 
Q 2275 144 1986 34 
Q 1697 -75 1366 -75 
Q 819 -75 525 192 
Q 231 459 231 875 
Q 231 1119 342 1320 
Q 453 1522 633 1644 
Q 813 1766 1038 1828 
Q 1203 1872 1538 1913 
Q 2219 1994 2541 2106 
Q 2544 2222 2544 2253 
Q 2544 2597 2384 2738 
Q 2169 2928 1744 2928 
Q 1347 2928 1158 2789 
Q 969 2650 878 2297 
L 328 2372 
Q 403 2725 575 2942 
Q 747 3159 1072 3276 
Q 1397 3394 1825 3394 
Q 2250 3394 2515 3294 
Q 2781 3194 2906 3042 
Q 3031 2891 3081 2659 
Q 3109 2516 3109 2141 
L 3109 1391 
Q 3109 606 3145 398 
Q 3181 191 3288 0 
L 2700 0 
Q 2613 175 2588 409 
z
M 2541 1666 
Q 2234 1541 1622 1453 
Q 1275 1403 1131 1340 
Q 988 1278 909 1158 
Q 831 1038 831 891 
Q 831 666 1001 516 
Q 1172 366 1500 366 
Q 1825 366 2078 508 
Q 2331 650 2450 897 
Q 2541 1088 2541 1459 
L 2541 1666 
z
" transform="scale(0.015625)"/>
     </defs>
     <use xlink:href="#ArialMT-4e"/>
     <use xlink:href="#ArialMT-6f" x="72.216797"/>
     <use xlink:href="#ArialMT-2d" x="127.832031"/>
     <use xlink:href="#ArialMT-70" x="161.132812"/>
     <use xlink:href="#ArialMT-68" x="216.748047"/>
     <use xlink:href="#ArialMT-6f" x="272.363281"/>
     <use xlink:href="#ArialMT-73" x="327.978516"/>
     <use xlink:href="#ArialMT-70" x="377.978516"/>
     <use xlink:href="#ArialMT-68" x="433.59375"/>
     <use xlink:href="#ArialMT-61" x="489.208984"/>
     <use xlink:href="#ArialMT-74" x="544.824219"/>
     <use xlink:href="#ArialMT-65" x="572.607422"/>
    </g>
   </g>
  </g>
 </g>
 <defs>
  <clipPath id="pfc3ac6843d">
   <rect x="27.6675" y="23.220937" width="97.65" height="190.26"/>
  </clipPath>
 </defs>
</svg>
