<?xml version="1.0" encoding="utf-8"?>
<!-- Generator: Adobe Illustrator 26.0.1, SVG Export Plug-In . SVG Version: 6.00 Build 0)  -->
<svg version="1.1" xmlns="http://www.w3.org/2000/svg" xmlns:xlink="http://www.w3.org/1999/xlink" x="0px" y="0px"
	 viewBox="0 0 451.1 220.1" style="enable-background:new 0 0 451.1 220.1;" xml:space="preserve">
<style type="text/css">
	.st0{fill:#0086C4;stroke:#808080;stroke-width:0.5;stroke-miterlimit:10;}
	.st1{display:none;fill:#FFFFFF;}
	.st2{display:none;}
	.st3{display:inline;fill:#FFFFFF;}
	.st4{stroke:#000000;stroke-width:0.8;stroke-linejoin:round;}
	.st5{stroke:#000000;stroke-width:0.6;stroke-linejoin:round;}
	
		.st6{clip-path:url(#SVGID_00000065756202867234547460000012367795549860501161_);fill:none;stroke:#000000;stroke-width:0.5;stroke-linecap:square;stroke-linejoin:round;}
	
		.st7{clip-path:url(#SVGID_00000083054936414860681250000015697192634927874189_);fill:none;stroke:#B30009;stroke-width:0.5;stroke-linecap:square;stroke-linejoin:round;}
	
		.st8{clip-path:url(#SVGID_00000183942383582795912870000004323546349838635943_);fill:none;stroke:#808080;stroke-width:0.5;stroke-linejoin:round;stroke-dasharray:0.5,0.825;}
	.st9{fill:none;stroke:#000000;stroke-width:0.8;stroke-linecap:square;}
	.st10{opacity:0.8;fill:#FFFFFF;stroke:#CCCCCC;enable-background:new    ;}
	.st11{fill:none;stroke:#B30009;stroke-width:0.5;stroke-linecap:square;stroke-linejoin:round;}
	.st12{fill:none;stroke:#000000;stroke-width:0.5;stroke-linecap:square;stroke-linejoin:round;}
</style>
<g id="Layer_2">
	<line class="st0" x1="63.3" y1="22.4" x2="63.3" y2="185.4"/>
	<line class="st0" x1="69.6" y1="22.2" x2="69.6" y2="185.3"/>
	<line class="st0" x1="83.1" y1="21.4" x2="83.1" y2="184.4"/>
	<line class="st0" x1="98.1" y1="22.6" x2="98.1" y2="185.7"/>
	<line class="st0" x1="104.8" y1="22.3" x2="104.8" y2="185.3"/>
</g>
<g id="Layer_1">
	<g id="figure_1">
		<g id="patch_1">
			<path class="st1" d="M0,220.1h451.1V0H0V220.1z"/>
		</g>
		<g id="axes_1">
			<g id="patch_2" class="st2">
				<path class="st3" d="M48.9,185.4h395.1V22.3H48.9V185.4z"/>
			</g>
			<g id="matplotlib.axis_1">
				<g id="xtick_1">
					<g id="line2d_1">
						<g>
							<g>
								<path id="m91ca7f983a" class="st4" d="M81.8,185.4v3.5"/>
							</g>
						</g>
					</g>
					<g id="text_1">
						<g transform="translate(76.716062 198.476875)scale(0.08 -0.08)">
							<g>
								<path id="DejaVuSans-31" d="M12.4,8.3h16.1v55.6L11,60.4v9l17.4,3.5h9.9V8.3h16.1V0h-42V8.3z"/>
							</g>
							<g>
								<path id="DejaVuSans-30" d="M95.4,66.4c-5.1,0-8.9-2.5-11.5-7.5c-2.6-5-3.8-12.5-3.8-22.5c0-10,1.3-17.5,3.8-22.5
									c2.6-5,6.4-7.5,11.5-7.5c5.1,0,8.9,2.5,11.5,7.5c2.6,5,3.8,12.5,3.8,22.5c0,10-1.3,17.5-3.8,22.5
									C104.4,63.9,100.5,66.4,95.4,66.4z M95.4,74.2c8.2,0,14.4-3.2,18.7-9.7c4.3-6.5,6.5-15.8,6.5-28.1c0-12.3-2.2-21.6-6.5-28.1
									c-4.3-6.5-10.6-9.7-18.7-9.7c-8.2,0-14.4,3.2-18.7,9.7c-4.3,6.5-6.5,15.8-6.5,28.1c0,12.3,2.2,21.7,6.5,28.1
									C81,71,87.2,74.2,95.4,74.2z"/>
							</g>
						</g>
					</g>
				</g>
				<g id="xtick_2">
					<g id="line2d_2">
						<g>
							<g>
								<path id="m91ca7f983a_00000161602444873448930650000000852104245351691659_" class="st4" d="M147.7,185.4v3.5"/>
							</g>
						</g>
					</g>
					<g id="text_2">
						<g transform="translate(142.560062 198.476875)scale(0.08 -0.08)">
							<g>
								<path id="DejaVuSans-32" d="M19.2,8.3h34.4V0H7.3v8.3c3.7,3.9,8.8,9.1,15.3,15.6c6.5,6.5,10.5,10.7,12.2,12.6
									c3.2,3.5,5.4,6.5,6.6,9c1.3,2.5,1.9,4.9,1.9,7.2c0,3.9-1.4,7-4.1,9.5c-2.7,2.4-6.3,3.7-10.6,3.7c-3.1,0-6.4-0.5-9.8-1.6
									c-3.4-1.1-7.1-2.7-11-4.9v10c4,1.6,7.7,2.8,11.1,3.6c3.5,0.8,6.6,1.2,9.5,1.2c7.6,0,13.6-1.9,18.1-5.7
									c4.5-3.8,6.7-8.8,6.7-15.1c0-3-0.6-5.8-1.7-8.5c-1.1-2.7-3.2-5.8-6.1-9.5c-0.8-0.9-3.4-3.7-7.8-8.2
									C33.3,22.7,27.1,16.4,19.2,8.3z"/>
							</g>
							<g>
								<path id="DejaVuSans-30_00000070836825200565735020000010321606137844465561_" d="M95.4,66.4c-5.1,0-8.9-2.5-11.5-7.5
									c-2.6-5-3.8-12.5-3.8-22.5c0-10,1.3-17.5,3.8-22.5c2.6-5,6.4-7.5,11.5-7.5c5.1,0,8.9,2.5,11.5,7.5c2.6,5,3.8,12.5,3.8,22.5
									c0,10-1.3,17.5-3.8,22.5C104.4,63.9,100.5,66.4,95.4,66.4z M95.4,74.2c8.2,0,14.4-3.2,18.7-9.7c4.3-6.5,6.5-15.8,6.5-28.1
									c0-12.3-2.2-21.6-6.5-28.1c-4.3-6.5-10.6-9.7-18.7-9.7c-8.2,0-14.4,3.2-18.7,9.7c-4.3,6.5-6.5,15.8-6.5,28.1
									c0,12.3,2.2,21.7,6.5,28.1C81,71,87.2,74.2,95.4,74.2z"/>
							</g>
						</g>
					</g>
				</g>
				<g id="xtick_3">
					<g id="line2d_3">
						<g>
							<g>
								<path id="m91ca7f983a_00000090981536785043452070000003208613887366911935_" class="st4" d="M213.5,185.4v3.5"/>
							</g>
						</g>
					</g>
					<g id="text_3">
						<g transform="translate(208.404062 198.476875)scale(0.08 -0.08)">
							<g>
								<path id="DejaVuSans-33" d="M40.6,39.3c4.7-1,8.4-3.1,11-6.3c2.7-3.2,4-7.1,4-11.8c0-7.2-2.5-12.8-7.4-16.7
									c-4.9-3.9-12-5.9-21.1-5.9c-3.1,0-6.2,0.3-9.4,0.9S11.1,1,7.6,2.2v9.5c2.7-1.6,5.7-2.8,9-3.6c3.3-0.8,6.7-1.2,10.2-1.2
									c6.2,0,10.9,1.2,14.1,3.7s4.9,6,4.9,10.6c0,4.3-1.5,7.7-4.5,10.1c-3,2.4-7.2,3.6-12.6,3.6h-8.5V43h8.9c4.8,0,8.6,1,11.1,2.9
									s3.9,4.7,3.9,8.4c0,3.7-1.3,6.6-4,8.6c-2.6,2-6.4,3-11.4,3c-2.7,0-5.6-0.3-8.7-0.9c-3.1-0.6-6.5-1.5-10.2-2.7v8.8
									c3.8,1,7.3,1.8,10.5,2.3s6.4,0.8,9.2,0.8c7.5,0,13.4-1.7,17.8-5.1c4.4-3.4,6.5-8,6.5-13.8c0-4-1.2-7.5-3.5-10.2
									S44.8,40.4,40.6,39.3z"/>
							</g>
							<g>
								<path id="DejaVuSans-30_00000047025114665456713140000018217662404930969513_" d="M95.4,66.4c-5.1,0-8.9-2.5-11.5-7.5
									c-2.6-5-3.8-12.5-3.8-22.5c0-10,1.3-17.5,3.8-22.5c2.6-5,6.4-7.5,11.5-7.5c5.1,0,8.9,2.5,11.5,7.5c2.6,5,3.8,12.5,3.8,22.5
									c0,10-1.3,17.5-3.8,22.5C104.4,63.9,100.5,66.4,95.4,66.4z M95.4,74.2c8.2,0,14.4-3.2,18.7-9.7c4.3-6.5,6.5-15.8,6.5-28.1
									c0-12.3-2.2-21.6-6.5-28.1c-4.3-6.5-10.6-9.7-18.7-9.7c-8.2,0-14.4,3.2-18.7,9.7c-4.3,6.5-6.5,15.8-6.5,28.1
									c0,12.3,2.2,21.7,6.5,28.1C81,71,87.2,74.2,95.4,74.2z"/>
							</g>
						</g>
					</g>
				</g>
				<g id="xtick_4">
					<g id="line2d_4">
						<g>
							<g>
								<path id="m91ca7f983a_00000046321436491667818000000007403441049221928348_" class="st4" d="M279.3,185.4v3.5"/>
							</g>
						</g>
					</g>
					<g id="text_4">
						<g transform="translate(274.248063 198.476875)scale(0.08 -0.08)">
							<g>
								<path id="DejaVuSans-34" d="M37.8,64.3L12.9,25.4h24.9V64.3z M35.2,72.9h12.4V25.4H58v-8.2H47.6V0h-9.8v17.2H4.9v9.5
									L35.2,72.9z"/>
							</g>
							<g>
								<path id="DejaVuSans-30_00000173151964556636731450000014189854463842571687_" d="M95.4,66.4c-5.1,0-8.9-2.5-11.5-7.5
									c-2.6-5-3.8-12.5-3.8-22.5c0-10,1.3-17.5,3.8-22.5c2.6-5,6.4-7.5,11.5-7.5c5.1,0,8.9,2.5,11.5,7.5c2.6,5,3.8,12.5,3.8,22.5
									c0,10-1.3,17.5-3.8,22.5C104.4,63.9,100.5,66.4,95.4,66.4z M95.4,74.2c8.2,0,14.4-3.2,18.7-9.7c4.3-6.5,6.5-15.8,6.5-28.1
									c0-12.3-2.2-21.6-6.5-28.1c-4.3-6.5-10.6-9.7-18.7-9.7c-8.2,0-14.4,3.2-18.7,9.7c-4.3,6.5-6.5,15.8-6.5,28.1
									c0,12.3,2.2,21.7,6.5,28.1C81,71,87.2,74.2,95.4,74.2z"/>
							</g>
						</g>
					</g>
				</g>
				<g id="xtick_5">
					<g id="line2d_5">
						<g>
							<g>
								<path id="m91ca7f983a_00000118378883844419474690000005117073373797680525_" class="st4" d="M345.2,185.4v3.5"/>
							</g>
						</g>
					</g>
					<g id="text_5">
						<g transform="translate(340.092062 198.476875)scale(0.08 -0.08)">
							<g>
								<path id="DejaVuSans-35" d="M10.8,72.9h38.7v-8.3H19.8V46.7c1.4,0.5,2.9,0.9,4.3,1.1c1.4,0.2,2.9,0.4,4.3,0.4
									c8.1,0,14.6-2.2,19.3-6.7c4.8-4.5,7.1-10.5,7.1-18.1c0-7.8-2.4-13.9-7.3-18.3c-4.9-4.3-11.8-6.5-20.7-6.5
									c-3.1,0-6.2,0.3-9.4,0.8c-3.2,0.5-6.4,1.3-9.8,2.3v9.9c2.9-1.6,6-2.8,9.1-3.6s6.4-1.2,9.9-1.2c5.6,0,10.1,1.5,13.4,4.4
									c3.3,3,4.9,7,4.9,12.1c0,5.1-1.6,9.1-4.9,12c-3.3,3-7.7,4.5-13.4,4.5c-2.6,0-5.3-0.3-7.9-0.9c-2.6-0.6-5.3-1.5-8-2.7V72.9z"
									/>
							</g>
							<g>
								<path id="DejaVuSans-30_00000156585172786756474180000016129236872996812676_" d="M95.4,66.4c-5.1,0-8.9-2.5-11.5-7.5
									c-2.6-5-3.8-12.5-3.8-22.5c0-10,1.3-17.5,3.8-22.5c2.6-5,6.4-7.5,11.5-7.5c5.1,0,8.9,2.5,11.5,7.5c2.6,5,3.8,12.5,3.8,22.5
									c0,10-1.3,17.5-3.8,22.5C104.4,63.9,100.5,66.4,95.4,66.4z M95.4,74.2c8.2,0,14.4-3.2,18.7-9.7c4.3-6.5,6.5-15.8,6.5-28.1
									c0-12.3-2.2-21.6-6.5-28.1c-4.3-6.5-10.6-9.7-18.7-9.7c-8.2,0-14.4,3.2-18.7,9.7c-4.3,6.5-6.5,15.8-6.5,28.1
									c0,12.3,2.2,21.7,6.5,28.1C81,71,87.2,74.2,95.4,74.2z"/>
							</g>
						</g>
					</g>
				</g>
				<g id="xtick_6">
					<g id="line2d_6">
						<g>
							<g>
								<path id="m91ca7f983a_00000137821589979234203300000005163722424430967462_" class="st4" d="M411,185.4v3.5"/>
							</g>
						</g>
					</g>
					<g id="text_6">
						<g transform="translate(405.936062 198.476875)scale(0.08 -0.08)">
							<g>
								<path id="DejaVuSans-36" d="M33,40.4c-4.4,0-7.9-1.5-10.5-4.5c-2.6-3-3.9-7.2-3.9-12.4c0-5.2,1.3-9.4,3.9-12.4
									c2.6-3,6.1-4.6,10.5-4.6s7.9,1.5,10.5,4.6c2.6,3.1,3.9,7.2,3.9,12.4c0,5.3-1.3,9.4-3.9,12.4C40.9,38.9,37.4,40.4,33,40.4z
									 M52.6,71.3v-9c-2.5,1.2-5,2.1-7.5,2.7c-2.5,0.6-5,0.9-7.5,0.9c-6.5,0-11.5-2.2-14.9-6.6c-3.4-4.4-5.4-11-5.9-19.9
									c1.9,2.8,4.3,5,7.2,6.5c2.9,1.5,6.1,2.3,9.6,2.3c7.3,0,13.1-2.2,17.4-6.7c4.2-4.4,6.4-10.5,6.4-18.1c0-7.5-2.2-13.5-6.6-18
									C46.3,0.8,40.4-1.4,33-1.4c-8.4,0-14.9,3.2-19.3,9.7C9.2,14.7,7,24.1,7,36.4c0,11.5,2.7,20.7,8.2,27.6
									c5.5,6.9,12.8,10.3,22,10.3c2.5,0,5-0.2,7.5-0.7S49.9,72.3,52.6,71.3z"/>
							</g>
							<g>
								<path id="DejaVuSans-30_00000080165018251355485290000015036049674675301509_" d="M95.4,66.4c-5.1,0-8.9-2.5-11.5-7.5
									c-2.6-5-3.8-12.5-3.8-22.5c0-10,1.3-17.5,3.8-22.5c2.6-5,6.4-7.5,11.5-7.5c5.1,0,8.9,2.5,11.5,7.5c2.6,5,3.8,12.5,3.8,22.5
									c0,10-1.3,17.5-3.8,22.5C104.4,63.9,100.5,66.4,95.4,66.4z M95.4,74.2c8.2,0,14.4-3.2,18.7-9.7c4.3-6.5,6.5-15.8,6.5-28.1
									c0-12.3-2.2-21.6-6.5-28.1c-4.3-6.5-10.6-9.7-18.7-9.7c-8.2,0-14.4,3.2-18.7,9.7c-4.3,6.5-6.5,15.8-6.5,28.1
									c0,12.3,2.2,21.7,6.5,28.1C81,71,87.2,74.2,95.4,74.2z"/>
							</g>
						</g>
					</g>
				</g>
				<g id="xtick_7">
					<g id="line2d_7">
						<g>
							<g>
								<path id="m6bbe384e08" class="st5" d="M48.9,185.4v2"/>
							</g>
						</g>
					</g>
				</g>
				<g id="xtick_8">
					<g id="line2d_8">
						<g>
							<g>
								<path id="m6bbe384e08_00000160184380209886335170000002223374094138548885_" class="st5" d="M65.3,185.4v2"/>
							</g>
						</g>
					</g>
				</g>
				<g id="xtick_9">
					<g id="line2d_9">
						<g>
							<g>
								<path id="m6bbe384e08_00000001658398807028469200000010100007704474064308_" class="st5" d="M98.3,185.4v2"/>
							</g>
						</g>
					</g>
				</g>
				<g id="xtick_10">
					<g id="line2d_10">
						<g>
							<g>
								<path id="m6bbe384e08_00000020360211995399907360000011860463945216048553_" class="st5" d="M114.7,185.4v2"/>
							</g>
						</g>
					</g>
				</g>
				<g id="xtick_11">
					<g id="line2d_11">
						<g>
							<g>
								<path id="m6bbe384e08_00000109728222842574684580000012524995117698894220_" class="st5" d="M131.2,185.4v2"/>
							</g>
						</g>
					</g>
				</g>
				<g id="xtick_12">
					<g id="line2d_12">
						<g>
							<g>
								<path id="m6bbe384e08_00000044885361854751721970000012414875381394892976_" class="st5" d="M164.1,185.4v2"/>
							</g>
						</g>
					</g>
				</g>
				<g id="xtick_13">
					<g id="line2d_13">
						<g>
							<g>
								<path id="m6bbe384e08_00000060021218516769300850000002862104398224187833_" class="st5" d="M180.6,185.4v2"/>
							</g>
						</g>
					</g>
				</g>
				<g id="xtick_14">
					<g id="line2d_14">
						<g>
							<g>
								<path id="m6bbe384e08_00000055677855425831975390000002294021637915511734_" class="st5" d="M197,185.4v2"/>
							</g>
						</g>
					</g>
				</g>
				<g id="xtick_15">
					<g id="line2d_15">
						<g>
							<g>
								<path id="m6bbe384e08_00000047776686973362224620000010114154528862525887_" class="st5" d="M230,185.4v2"/>
							</g>
						</g>
					</g>
				</g>
				<g id="xtick_16">
					<g id="line2d_16">
						<g>
							<g>
								<path id="m6bbe384e08_00000041276056883188370510000012995676816359932083_" class="st5" d="M246.4,185.4v2"/>
							</g>
						</g>
					</g>
				</g>
				<g id="xtick_17">
					<g id="line2d_17">
						<g>
							<g>
								<path id="m6bbe384e08_00000099647615080425371840000006529404019791342238_" class="st5" d="M262.9,185.4v2"/>
							</g>
						</g>
					</g>
				</g>
				<g id="xtick_18">
					<g id="line2d_18">
						<g>
							<g>
								<path id="m6bbe384e08_00000035519437846487490860000006054652135425451449_" class="st5" d="M295.8,185.4v2"/>
							</g>
						</g>
					</g>
				</g>
				<g id="xtick_19">
					<g id="line2d_19">
						<g>
							<g>
								<path id="m6bbe384e08_00000061459531580483312620000011865427334832857492_" class="st5" d="M312.3,185.4v2"/>
							</g>
						</g>
					</g>
				</g>
				<g id="xtick_20">
					<g id="line2d_20">
						<g>
							<g>
								<path id="m6bbe384e08_00000090284064145562627540000005923678599783946381_" class="st5" d="M328.7,185.4v2"/>
							</g>
						</g>
					</g>
				</g>
				<g id="xtick_21">
					<g id="line2d_21">
						<g>
							<g>
								<path id="m6bbe384e08_00000088823083459535328690000009685847839949022906_" class="st5" d="M361.6,185.4v2"/>
							</g>
						</g>
					</g>
				</g>
				<g id="xtick_22">
					<g id="line2d_22">
						<g>
							<g>
								<path id="m6bbe384e08_00000116941038830207415760000015879990007651871365_" class="st5" d="M378.1,185.4v2"/>
							</g>
						</g>
					</g>
				</g>
				<g id="xtick_23">
					<g id="line2d_23">
						<g>
							<g>
								<path id="m6bbe384e08_00000117653197591917067790000014323911624631044520_" class="st5" d="M394.6,185.4v2"/>
							</g>
						</g>
					</g>
				</g>
				<g id="xtick_24">
					<g id="line2d_24">
						<g>
							<g>
								<path id="m6bbe384e08_00000092455274178378253330000001699324415509399182_" class="st5" d="M427.5,185.4v2"/>
							</g>
						</g>
					</g>
				</g>
				<g id="xtick_25">
					<g id="line2d_25">
						<g>
							<g>
								<path id="m6bbe384e08_00000067194176942654098450000012994035126246003130_" class="st5" d="M443.9,185.4v2"/>
							</g>
						</g>
					</g>
				</g>
				<g id="text_7">
					<g transform="translate(217.744734 211.049531)scale(0.09 -0.09)">
						<g>
							<path id="DejaVuSans-32_00000145033872395925874860000011313393030206050992_" d="M19.2,8.3h34.4V0H7.3v8.3
								c3.7,3.9,8.8,9.1,15.3,15.6c6.5,6.5,10.5,10.7,12.2,12.6c3.2,3.5,5.4,6.5,6.6,9c1.3,2.5,1.9,4.9,1.9,7.2c0,3.9-1.4,7-4.1,9.5
								c-2.7,2.4-6.3,3.7-10.6,3.7c-3.1,0-6.4-0.5-9.8-1.6c-3.4-1.1-7.1-2.7-11-4.9v10c4,1.6,7.7,2.8,11.1,3.6
								c3.5,0.8,6.6,1.2,9.5,1.2c7.6,0,13.6-1.9,18.1-5.7c4.5-3.8,6.7-8.8,6.7-15.1c0-3-0.6-5.8-1.7-8.5c-1.1-2.7-3.2-5.8-6.1-9.5
								c-0.8-0.9-3.4-3.7-7.8-8.2C33.3,22.7,27.1,16.4,19.2,8.3z"/>
						</g>
						<g>
							<path id="DejaVuSans-3b8" d="M109.8,34.7H78.7c0.5-9.7,1.8-16.7,4.1-20.8c2.8-5.1,6.6-7.6,11.5-7.6c4.9,0,8.7,2.6,11.4,7.7
								C108,18.4,109.4,25.3,109.8,34.7z M109.6,43c-0.9,9.2-2.2,15.5-4,18.8c-2.8,5.1-6.6,7.7-11.4,7.7c-5,0-8.8-2.5-11.4-7.6
								c-2.1-4.1-3.4-10.4-4-18.8H109.6z M94.2,76.8c7.8,0,14-3.5,18.4-10.4c4.5-6.9,6.7-16.4,6.7-28.6c0-12.1-2.2-21.7-6.7-28.6
								C108.2,2.3,102-1.1,94.2-1.1c-7.8,0-14,3.5-18.4,10.4c-4.5,6.9-6.7,16.4-6.7,28.6c0,12.2,2.2,21.7,6.7,28.6
								C80.3,73.3,86.4,76.8,94.2,76.8z"/>
						</g>
						<g>
							<path id="DejaVuSans-20" d="M124.8,0"/>
						</g>
						<g>
							<path id="DejaVuSans-28" d="M187.6,75.9c-4.4-7.5-7.6-14.9-9.7-22.2c-2.1-7.3-3.2-14.7-3.2-22.3c0-7.5,1.1-15,3.2-22.3
								c2.1-7.4,5.4-14.8,9.7-22.2h-7.8c-4.9,7.7-8.5,15.2-11,22.6c-2.4,7.4-3.6,14.7-3.6,22c0,7.3,1.2,14.6,3.6,21.9
								c2.4,7.4,6.1,14.9,11,22.6H187.6z"/>
						</g>
						<g>
							<path id="DejaVuSans-64" d="M241,46.4V76h9V0h-9v8.2c-1.9-3.2-4.3-5.7-7.2-7.3c-2.9-1.6-6.3-2.4-10.4-2.4
								c-6.6,0-12,2.6-16.1,7.9c-4.1,5.3-6.2,12.2-6.2,20.8s2.1,15.5,6.2,20.8c4.2,5.3,9.5,7.9,16.1,7.9c4,0,7.5-0.8,10.4-2.4
								C236.7,52.1,239.1,49.6,241,46.4z M210.4,27.3c0-6.6,1.4-11.8,4.1-15.5s6.5-5.6,11.2-5.6s8.5,1.9,11.2,5.6
								c2.7,3.8,4.1,8.9,4.1,15.5s-1.4,11.8-4.1,15.5c-2.7,3.8-6.5,5.6-11.2,5.6s-8.5-1.9-11.2-5.6S210.4,33.9,210.4,27.3z"/>
						</g>
						<g>
							<path id="DejaVuSans-65" d="M315.3,29.6v-4.4H274c0.4-6.2,2.3-10.9,5.6-14.1c3.3-3.2,8-4.9,13.9-4.9c3.4,0,6.8,0.4,10,1.3
								c3.2,0.8,6.5,2.1,9.7,3.8V2.8c-3.2-1.4-6.5-2.4-9.9-3.1c-3.4-0.7-6.8-1.1-10.3-1.1c-8.7,0-15.6,2.5-20.7,7.6
								c-5.1,5.1-7.6,12-7.6,20.6c0,8.9,2.4,16,7.2,21.3c4.8,5.3,11.4,7.9,19.6,7.9c7.4,0,13.2-2.4,17.5-7.1
								C313.1,44.2,315.3,37.7,315.3,29.6z M306.3,32.2c-0.1,4.9-1.4,8.8-4.1,11.8c-2.7,2.9-6.2,4.4-10.7,4.4c-5,0-9-1.4-12-4.2
								c-3-2.8-4.7-6.8-5.2-12L306.3,32.2z"/>
						</g>
						<g>
							<path id="DejaVuSans-67" d="M366,28c0,6.5-1.3,11.6-4,15.1c-2.7,3.6-6.4,5.4-11.3,5.4c-4.8,0-8.6-1.8-11.2-5.4
								c-2.7-3.6-4-8.6-4-15.1c0-6.5,1.3-11.5,4-15.1s6.4-5.4,11.2-5.4c4.9,0,8.6,1.8,11.3,5.4C364.7,16.5,366,21.5,366,28z
								 M375,6.8c0-9.3-2.1-16.2-6.2-20.8c-4.1-4.5-10.5-6.8-19-6.8c-3.2,0-6.1,0.2-8.9,0.7c-2.8,0.5-5.5,1.2-8.2,2.2v8.7
								c2.6-1.4,5.2-2.5,7.8-3.2c2.6-0.7,5.2-1,7.9-1c5.9,0,10.3,1.5,13.2,4.6C364.5-5.7,366-1,366,5.2v4.5
								c-1.9-3.2-4.2-5.6-7.1-7.2C356,0.8,352.5,0,348.5,0c-6.7,0-12.1,2.6-16.2,7.7c-4.1,5.1-6.2,11.9-6.2,20.3
								c0,8.5,2.1,15.2,6.2,20.3c4.1,5.1,9.5,7.7,16.2,7.7c4,0,7.5-0.8,10.4-2.4c2.9-1.6,5.3-4,7.1-7.2v8.3h9V6.8z"/>
						</g>
						<g>
							<path id="DejaVuSans-72" d="M425.2,46.3c-1,0.6-2.1,1-3.3,1.3c-1.2,0.3-2.5,0.4-3.9,0.4c-5.1,0-9-1.7-11.7-5s-4.1-8-4.1-14.2
								V0h-9v54.7h9v-8.5c1.9,3.3,4.4,5.8,7.4,7.4c3,1.6,6.7,2.4,11,2.4c0.6,0,1.3,0,2-0.1c0.8-0.1,1.6-0.2,2.5-0.4L425.2,46.3z"/>
						</g>
						<g>
							<path id="DejaVuSans-65_00000090292189752068495040000012314642365994686363_" d="M479.1,29.6v-4.4h-41.3
								c0.4-6.2,2.3-10.9,5.6-14.1c3.3-3.2,8-4.9,13.9-4.9c3.4,0,6.8,0.4,10,1.3c3.2,0.8,6.5,2.1,9.7,3.8V2.8
								c-3.2-1.4-6.5-2.4-9.9-3.1c-3.4-0.7-6.8-1.1-10.3-1.1c-8.7,0-15.6,2.5-20.7,7.6c-5.1,5.1-7.6,12-7.6,20.6
								c0,8.9,2.4,16,7.2,21.3c4.8,5.3,11.4,7.9,19.6,7.9c7.4,0,13.2-2.4,17.5-7.1C477,44.2,479.1,37.7,479.1,29.6z M470.2,32.2
								c-0.1,4.9-1.4,8.8-4.1,11.8c-2.7,2.9-6.2,4.4-10.7,4.4c-5,0-9-1.4-12-4.2c-3-2.8-4.7-6.8-5.2-12L470.2,32.2z"/>
						</g>
						<g>
							<path id="DejaVuSans-65_00000037677341819692179660000017250515454873712768_" d="M540.7,29.6v-4.4h-41.3
								c0.4-6.2,2.3-10.9,5.6-14.1c3.3-3.2,8-4.9,13.9-4.9c3.4,0,6.8,0.4,10,1.3c3.2,0.8,6.5,2.1,9.7,3.8V2.8
								c-3.2-1.4-6.5-2.4-9.9-3.1c-3.4-0.7-6.8-1.1-10.3-1.1c-8.7,0-15.6,2.5-20.7,7.6c-5.1,5.1-7.6,12-7.6,20.6
								c0,8.9,2.4,16,7.2,21.3c4.8,5.3,11.4,7.9,19.6,7.9c7.4,0,13.2-2.4,17.5-7.1C538.5,44.2,540.7,37.7,540.7,29.6z M531.7,32.2
								c-0.1,4.9-1.4,8.8-4.1,11.8c-2.7,2.9-6.2,4.4-10.7,4.4c-5,0-9-1.4-12-4.2c-3-2.8-4.7-6.8-5.2-12L531.7,32.2z"/>
						</g>
						<g>
							<path id="DejaVuSans-73" d="M590.3,53.1v-8.5c-2.5,1.3-5.2,2.3-7.9,2.9c-2.7,0.7-5.6,1-8.5,1c-4.5,0-7.8-0.7-10-2
								c-2.2-1.4-3.3-3.4-3.3-6.2c0-2.1,0.8-3.7,2.4-4.9s4.8-2.3,9.6-3.4l3.1-0.7c6.4-1.4,10.9-3.3,13.6-5.8s4-6,4-10.4
								c0-5.1-2-9.1-6-12.1c-4-3-9.5-4.4-16.6-4.4c-2.9,0-6,0.3-9.2,0.9c-3.2,0.6-6.5,1.4-10,2.6v9.3c3.3-1.7,6.6-3,9.8-3.9
								c3.2-0.9,6.4-1.3,9.6-1.3c4.2,0,7.5,0.7,9.8,2.2c2.3,1.4,3.4,3.5,3.4,6.1c0,2.4-0.8,4.3-2.5,5.6c-1.6,1.3-5.2,2.6-10.8,3.8
								l-3.1,0.7c-5.6,1.2-9.6,3-12.1,5.4c-2.5,2.4-3.7,5.8-3.7,10c0,5.1,1.8,9.1,5.5,11.9c3.6,2.8,8.8,4.2,15.5,4.2
								c3.3,0,6.4-0.2,9.4-0.7C585.1,54.8,587.8,54.1,590.3,53.1z"/>
						</g>
						<g>
							<path id="DejaVuSans-29" d="M606.1,75.9h7.8c4.9-7.7,8.5-15.2,11-22.6c2.4-7.4,3.6-14.7,3.6-21.9c0-7.3-1.2-14.6-3.6-22
								c-2.4-7.4-6.1-14.9-11-22.6h-7.8c4.3,7.5,7.6,14.9,9.7,22.2c2.1,7.4,3.2,14.8,3.2,22.3c0,7.5-1.1,14.9-3.2,22.3
								C613.7,61,610.4,68.4,606.1,75.9z"/>
						</g>
					</g>
				</g>
			</g>
			<g id="matplotlib.axis_2">
				<g id="ytick_1">
					<g id="line2d_26">
						<g>
							<g>
								<path id="mf46418429b" class="st4" d="M48.9,178h-3.5"/>
							</g>
						</g>
					</g>
					<g id="text_8">
						<g transform="translate(19.910312 181.024773)scale(0.08 -0.08)">
							<g>
								<path id="DejaVuSans-2212" d="M10.6,35.5h62.6v-8.3H10.6V35.5z"/>
							</g>
							<g>
								<path id="DejaVuSans-31_00000111171068753663560060000014904478787499168430_" d="M96.2,8.3h16.1v55.6l-17.5-3.5v9l17.4,3.5
									h9.9V8.3h16.1V0h-42V8.3z"/>
							</g>
							<g>
								<path id="DejaVuSans-30_00000120516739782043426570000010254428699409096863_" d="M179.2,66.4c-5.1,0-8.9-2.5-11.5-7.5
									c-2.6-5-3.8-12.5-3.8-22.5c0-10,1.3-17.5,3.8-22.5c2.6-5,6.4-7.5,11.5-7.5c5.1,0,8.9,2.5,11.5,7.5c2.6,5,3.8,12.5,3.8,22.5
									c0,10-1.3,17.5-3.8,22.5C188.1,63.9,184.3,66.4,179.2,66.4z M179.2,74.2c8.2,0,14.4-3.2,18.7-9.7c4.3-6.5,6.5-15.8,6.5-28.1
									c0-12.3-2.2-21.6-6.5-28.1c-4.3-6.5-10.6-9.7-18.7-9.7c-8.2,0-14.4,3.2-18.7,9.7c-4.3,6.5-6.5,15.8-6.5,28.1
									c0,12.3,2.2,21.7,6.5,28.1C164.8,71,171,74.2,179.2,74.2z"/>
							</g>
							<g>
								<path id="DejaVuSans-30_00000181084994994407395210000002844575631075870080_" d="M242.8,66.4c-5.1,0-8.9-2.5-11.5-7.5
									c-2.6-5-3.8-12.5-3.8-22.5c0-10,1.3-17.5,3.8-22.5c2.6-5,6.4-7.5,11.5-7.5c5.1,0,8.9,2.5,11.5,7.5c2.6,5,3.8,12.5,3.8,22.5
									c0,10-1.3,17.5-3.8,22.5C251.8,63.9,247.9,66.4,242.8,66.4z M242.8,74.2c8.2,0,14.4-3.2,18.7-9.7c4.3-6.5,6.5-15.8,6.5-28.1
									c0-12.3-2.2-21.6-6.5-28.1c-4.3-6.5-10.6-9.7-18.7-9.7c-8.2,0-14.4,3.2-18.7,9.7c-4.3,6.5-6.5,15.8-6.5,28.1
									c0,12.3,2.2,21.7,6.5,28.1C228.4,71,234.6,74.2,242.8,74.2z"/>
							</g>
						</g>
					</g>
				</g>
				<g id="ytick_2">
					<g id="line2d_27">
						<g>
							<g>
								<path id="mf46418429b_00000106848987904959681700000000011669833611380370_" class="st4" d="M48.9,140.9h-3.5"/>
							</g>
						</g>
					</g>
					<g id="text_9">
						<g transform="translate(25.000312 143.961136)scale(0.08 -0.08)">
							<g>
								<path id="DejaVuSans-2212_00000101796287162201128840000001110957192799397032_" d="M10.6,35.5h62.6v-8.3H10.6V35.5z"/>
							</g>
							<g>
								<path id="DejaVuSans-35_00000126288459271849495380000011511540631932222898_" d="M94.6,72.9h38.7v-8.3h-29.7V46.7
									c1.4,0.5,2.9,0.9,4.3,1.1c1.4,0.2,2.9,0.4,4.3,0.4c8.1,0,14.6-2.2,19.3-6.7c4.8-4.5,7.1-10.5,7.1-18.1
									c0-7.8-2.4-13.9-7.3-18.3c-4.9-4.3-11.8-6.5-20.7-6.5c-3.1,0-6.2,0.3-9.4,0.8c-3.2,0.5-6.4,1.3-9.8,2.3v9.9
									c2.9-1.6,6-2.8,9.1-3.6s6.4-1.2,9.9-1.2c5.6,0,10.1,1.5,13.4,4.4c3.3,3,4.9,7,4.9,12.1c0,5.1-1.6,9.1-4.9,12
									c-3.3,3-7.7,4.5-13.4,4.5c-2.6,0-5.3-0.3-7.9-0.9c-2.6-0.6-5.3-1.5-8-2.7V72.9z"/>
							</g>
							<g>
								<path id="DejaVuSans-30_00000175310914704037581310000000888379585476407204_" d="M179.2,66.4c-5.1,0-8.9-2.5-11.5-7.5
									c-2.6-5-3.8-12.5-3.8-22.5c0-10,1.3-17.5,3.8-22.5c2.6-5,6.4-7.5,11.5-7.5c5.1,0,8.9,2.5,11.5,7.5c2.6,5,3.8,12.5,3.8,22.5
									c0,10-1.3,17.5-3.8,22.5C188.1,63.9,184.3,66.4,179.2,66.4z M179.2,74.2c8.2,0,14.4-3.2,18.7-9.7c4.3-6.5,6.5-15.8,6.5-28.1
									c0-12.3-2.2-21.6-6.5-28.1c-4.3-6.5-10.6-9.7-18.7-9.7c-8.2,0-14.4,3.2-18.7,9.7c-4.3,6.5-6.5,15.8-6.5,28.1
									c0,12.3,2.2,21.7,6.5,28.1C164.8,71,171,74.2,179.2,74.2z"/>
							</g>
						</g>
					</g>
				</g>
				<g id="ytick_3">
					<g id="line2d_28">
						<g>
							<g>
								<path id="mf46418429b_00000152228962858835407900000005155271363722442883_" class="st4" d="M48.9,103.9h-3.5"/>
							</g>
						</g>
					</g>
					<g id="text_10">
						<g transform="translate(36.794062 106.8975)scale(0.08 -0.08)">
							<g>
								<path id="DejaVuSans-30_00000088850415863862696610000013442410570769351844_" d="M31.8,66.4c-5.1,0-8.9-2.5-11.5-7.5
									c-2.6-5-3.8-12.5-3.8-22.5c0-10,1.3-17.5,3.8-22.5c2.6-5,6.4-7.5,11.5-7.5c5.1,0,8.9,2.5,11.5,7.5c2.6,5,3.8,12.5,3.8,22.5
									c0,10-1.3,17.5-3.8,22.5C40.7,63.9,36.9,66.4,31.8,66.4z M31.8,74.2c8.2,0,14.4-3.2,18.7-9.7c4.3-6.5,6.5-15.8,6.5-28.1
									c0-12.3-2.2-21.6-6.5-28.1C46.2,1.8,40-1.4,31.8-1.4c-8.2,0-14.4,3.2-18.7,9.7c-4.3,6.5-6.5,15.8-6.5,28.1
									c0,12.3,2.2,21.7,6.5,28.1C17.4,71,23.6,74.2,31.8,74.2z"/>
							</g>
						</g>
					</g>
				</g>
				<g id="ytick_4">
					<g id="line2d_29">
						<g>
							<g>
								<path id="mf46418429b_00000072252535497796855650000010300941703443614083_" class="st4" d="M48.9,66.8h-3.5"/>
							</g>
						</g>
					</g>
					<g id="text_11">
						<g transform="translate(31.704062 69.833864)scale(0.08 -0.08)">
							<g>
								<path id="DejaVuSans-35_00000070807656177588638530000001072264059349928833_" d="M10.8,72.9h38.7v-8.3H19.8V46.7
									c1.4,0.5,2.9,0.9,4.3,1.1c1.4,0.2,2.9,0.4,4.3,0.4c8.1,0,14.6-2.2,19.3-6.7c4.8-4.5,7.1-10.5,7.1-18.1
									c0-7.8-2.4-13.9-7.3-18.3c-4.9-4.3-11.8-6.5-20.7-6.5c-3.1,0-6.2,0.3-9.4,0.8c-3.2,0.5-6.4,1.3-9.8,2.3v9.9
									c2.9-1.6,6-2.8,9.1-3.6s6.4-1.2,9.9-1.2c5.6,0,10.1,1.5,13.4,4.4c3.3,3,4.9,7,4.9,12.1c0,5.1-1.6,9.1-4.9,12
									c-3.3,3-7.7,4.5-13.4,4.5c-2.6,0-5.3-0.3-7.9-0.9c-2.6-0.6-5.3-1.5-8-2.7V72.9z"/>
							</g>
							<g>
								<path id="DejaVuSans-30_00000104705965723144111050000017943255159519539133_" d="M95.4,66.4c-5.1,0-8.9-2.5-11.5-7.5
									c-2.6-5-3.8-12.5-3.8-22.5c0-10,1.3-17.5,3.8-22.5c2.6-5,6.4-7.5,11.5-7.5c5.1,0,8.9,2.5,11.5,7.5c2.6,5,3.8,12.5,3.8,22.5
									c0,10-1.3,17.5-3.8,22.5C104.4,63.9,100.5,66.4,95.4,66.4z M95.4,74.2c8.2,0,14.4-3.2,18.7-9.7c4.3-6.5,6.5-15.8,6.5-28.1
									c0-12.3-2.2-21.6-6.5-28.1c-4.3-6.5-10.6-9.7-18.7-9.7c-8.2,0-14.4,3.2-18.7,9.7c-4.3,6.5-6.5,15.8-6.5,28.1
									c0,12.3,2.2,21.7,6.5,28.1C81,71,87.2,74.2,95.4,74.2z"/>
							</g>
						</g>
					</g>
				</g>
				<g id="ytick_5">
					<g id="line2d_30">
						<g>
							<g>
								<path id="mf46418429b_00000044175955187576772320000010257915521605771659_" class="st4" d="M48.9,29.7h-3.5"/>
							</g>
						</g>
					</g>
					<g id="text_12">
						<g transform="translate(26.614062 32.770227)scale(0.08 -0.08)">
							<g>
								<path id="DejaVuSans-31_00000161600465196009542200000015018957826194505089_" d="M12.4,8.3h16.1v55.6L11,60.4v9l17.4,3.5
									h9.9V8.3h16.1V0h-42V8.3z"/>
							</g>
							<g>
								<path id="DejaVuSans-30_00000132808598694405320580000011842137684530973887_" d="M95.4,66.4c-5.1,0-8.9-2.5-11.5-7.5
									c-2.6-5-3.8-12.5-3.8-22.5c0-10,1.3-17.5,3.8-22.5c2.6-5,6.4-7.5,11.5-7.5c5.1,0,8.9,2.5,11.5,7.5c2.6,5,3.8,12.5,3.8,22.5
									c0,10-1.3,17.5-3.8,22.5C104.4,63.9,100.5,66.4,95.4,66.4z M95.4,74.2c8.2,0,14.4-3.2,18.7-9.7c4.3-6.5,6.5-15.8,6.5-28.1
									c0-12.3-2.2-21.6-6.5-28.1c-4.3-6.5-10.6-9.7-18.7-9.7c-8.2,0-14.4,3.2-18.7,9.7c-4.3,6.5-6.5,15.8-6.5,28.1
									c0,12.3,2.2,21.7,6.5,28.1C81,71,87.2,74.2,95.4,74.2z"/>
							</g>
							<g>
								<path id="DejaVuSans-30_00000070115606873301922830000008447350643380922770_" d="M159,66.4c-5.1,0-8.9-2.5-11.5-7.5
									c-2.6-5-3.8-12.5-3.8-22.5c0-10,1.3-17.5,3.8-22.5c2.6-5,6.4-7.5,11.5-7.5c5.1,0,8.9,2.5,11.5,7.5c2.6,5,3.8,12.5,3.8,22.5
									c0,10-1.3,17.5-3.8,22.5C168,63.9,164.1,66.4,159,66.4z M159,74.2c8.2,0,14.4-3.2,18.7-9.7c4.3-6.5,6.5-15.8,6.5-28.1
									c0-12.3-2.2-21.6-6.5-28.1c-4.3-6.5-10.6-9.7-18.7-9.7c-8.2,0-14.4,3.2-18.7,9.7c-4.3,6.5-6.5,15.8-6.5,28.1
									c0,12.3,2.2,21.7,6.5,28.1C144.6,71,150.9,74.2,159,74.2z"/>
							</g>
						</g>
					</g>
				</g>
				<g id="text_13">
					<g transform="translate(14.038594 132.661641)rotate(-90)scale(0.09 -0.09)">
						<g>
							<path id="DejaVuSans-49" d="M9.8,72.9h9.9V0H9.8V72.9z"/>
						</g>
						<g>
							<path id="DejaVuSans-6e" d="M84.4,33V0h-9v32.7c0,5.2-1,9-3,11.6c-2,2.6-5,3.9-9.1,3.9c-4.9,0-8.7-1.5-11.5-4.6
								c-2.8-3.1-4.2-7.3-4.2-12.6V0h-9v54.7h9v-8.5c2.2,3.3,4.7,5.8,7.6,7.4c2.9,1.6,6.3,2.4,10.1,2.4c6.3,0,11-1.9,14.2-5.8
								C82.8,46.3,84.4,40.6,84.4,33z"/>
						</g>
						<g>
							<path id="DejaVuSans-74" d="M111.2,70.2V54.7h18.5v-7h-18.5V18c0-4.5,0.6-7.3,1.8-8.6s3.7-1.9,7.5-1.9h9.2V0h-9.2
								c-6.9,0-11.7,1.3-14.4,3.9c-2.6,2.6-4,7.3-4,14.1v29.7h-6.6v7h6.6v15.5H111.2z"/>
						</g>
						<g>
							<path id="DejaVuSans-65_00000067933910946904168740000006870162656913151106_" d="M188.3,29.6v-4.4H147
								c0.4-6.2,2.3-10.9,5.6-14.1c3.3-3.2,8-4.9,13.9-4.9c3.4,0,6.8,0.4,10,1.3s6.5,2.1,9.7,3.8V2.8c-3.2-1.4-6.5-2.4-9.9-3.1
								s-6.8-1.1-10.3-1.1c-8.7,0-15.6,2.5-20.7,7.6c-5.1,5.1-7.6,12-7.6,20.6c0,8.9,2.4,16,7.2,21.3c4.8,5.3,11.4,7.9,19.6,7.9
								c7.4,0,13.2-2.4,17.5-7.1C186.1,44.2,188.3,37.7,188.3,29.6z M179.3,32.2c-0.1,4.9-1.4,8.8-4.1,11.8
								c-2.7,2.9-6.2,4.4-10.7,4.4c-5,0-9-1.4-12-4.2c-3-2.8-4.7-6.8-5.2-12L179.3,32.2z"/>
						</g>
						<g>
							<path id="DejaVuSans-6e_00000046313930958461674230000000728284664034800318_" d="M248.5,33V0h-9v32.7c0,5.2-1,9-3,11.6
								c-2,2.6-5,3.9-9.1,3.9c-4.9,0-8.7-1.5-11.5-4.6c-2.8-3.1-4.2-7.3-4.2-12.6V0h-9v54.7h9v-8.5c2.2,3.3,4.7,5.8,7.6,7.4
								c2.9,1.6,6.3,2.4,10.1,2.4c6.3,0,11-1.9,14.2-5.8C246.9,46.3,248.5,40.6,248.5,33z"/>
						</g>
						<g>
							<path id="DejaVuSans-73_00000132804379696082212970000017720138570699556486_" d="M301.3,53.1v-8.5c-2.5,1.3-5.2,2.3-7.9,2.9
								c-2.7,0.7-5.6,1-8.5,1c-4.5,0-7.8-0.7-10-2c-2.2-1.4-3.3-3.4-3.3-6.2c0-2.1,0.8-3.7,2.4-4.9s4.8-2.3,9.6-3.4l3.1-0.7
								c6.4-1.4,10.9-3.3,13.6-5.8s4-6,4-10.4c0-5.1-2-9.1-6-12.1c-4-3-9.5-4.4-16.6-4.4c-2.9,0-6,0.3-9.2,0.9
								c-3.2,0.6-6.5,1.4-10,2.6v9.3c3.3-1.7,6.6-3,9.8-3.9c3.2-0.9,6.4-1.3,9.6-1.3c4.2,0,7.5,0.7,9.8,2.2c2.3,1.4,3.4,3.5,3.4,6.1
								c0,2.4-0.8,4.3-2.5,5.6c-1.6,1.3-5.2,2.6-10.8,3.8l-3.1,0.7c-5.6,1.2-9.6,3-12.1,5.4c-2.5,2.4-3.7,5.8-3.7,10
								c0,5.1,1.8,9.1,5.5,11.9c3.6,2.8,8.8,4.2,15.5,4.2c3.3,0,6.4-0.2,9.4-0.7C296.1,54.8,298.8,54.1,301.3,53.1z"/>
						</g>
						<g>
							<path id="DejaVuSans-69" d="M318.5,54.7h9V0h-9V54.7z M318.5,76h9V64.6h-9V76z"/>
						</g>
						<g>
							<path id="DejaVuSans-74_00000150100275781448021830000007768591060916057260_" d="M355.2,70.2V54.7h18.5v-7h-18.5V18
								c0-4.5,0.6-7.3,1.8-8.6s3.7-1.9,7.5-1.9h9.2V0h-9.2c-6.9,0-11.7,1.3-14.4,3.9c-2.6,2.6-4,7.3-4,14.1v29.7h-6.6v7h6.6v15.5
								H355.2z"/>
						</g>
						<g>
							<path id="DejaVuSans-79" d="M408.2-5.1c-2.5-6.5-5-10.8-7.4-12.7c-2.4-2-5.6-3-9.7-3H384v7.5h5.3c2.5,0,4.4,0.6,5.8,1.8
								c1.4,1.2,2.9,3.9,4.5,8.3l1.6,4.1l-22.1,53.8h9.5l17.1-42.8l17.1,42.8h9.5L408.2-5.1z"/>
						</g>
						<g>
							<path id="DejaVuSans-20_00000142152621963413371700000005964139261268520332_" d="M435.3,0"/>
						</g>
						<g>
							<path id="DejaVuSans-28_00000144315407006388527210000001754063021667430805_" d="M498,75.9c-4.4-7.5-7.6-14.9-9.7-22.2
								c-2.1-7.3-3.2-14.7-3.2-22.3c0-7.5,1.1-15,3.2-22.3c2.1-7.4,5.4-14.8,9.7-22.2h-7.8c-4.9,7.7-8.5,15.2-11,22.6
								c-2.4,7.4-3.6,14.7-3.6,22c0,7.3,1.2,14.6,3.6,21.9c2.4,7.4,6.1,14.9,11,22.6H498z"/>
						</g>
						<g>
							<path id="DejaVuSans-25" d="M578.8,32.1c-2.8,0-5.1-1.2-6.7-3.6c-1.6-2.4-2.4-5.8-2.4-10.1c0-4.2,0.8-7.6,2.4-10
								c1.6-2.4,3.8-3.6,6.7-3.6c2.8,0,5,1.2,6.6,3.6c1.6,2.4,2.4,5.8,2.4,10c0,4.3-0.8,7.6-2.4,10
								C583.7,30.9,581.5,32.1,578.8,32.1z M578.8,38.3c5.1,0,9.2-1.8,12.2-5.4c3-3.6,4.5-8.4,4.5-14.5c0-6.1-1.5-10.9-4.6-14.5
								c-3-3.6-7.1-5.3-12.2-5.3c-5.2,0-9.3,1.8-12.4,5.3c-3,3.6-4.5,8.4-4.5,14.5c0,6.1,1.5,11,4.6,14.5
								C569.5,36.5,573.6,38.3,578.8,38.3z M528.4,68c-2.8,0-5-1.2-6.6-3.6c-1.6-2.4-2.4-5.7-2.4-10c0-4.3,0.8-7.6,2.4-10.1
								c1.6-2.4,3.8-3.6,6.6-3.6c2.8,0,5.1,1.2,6.7,3.6c1.6,2.4,2.4,5.8,2.4,10.1c0,4.2-0.8,7.5-2.4,10
								C533.4,66.8,531.2,68,528.4,68z M572.5,74.2h7.8L534.7-1.4h-7.8L572.5,74.2z M528.4,74.2c5.1,0,9.2-1.8,12.3-5.3
								c3.1-3.6,4.6-8.4,4.6-14.5c0-6.1-1.5-11-4.6-14.5c-3-3.6-7.2-5.3-12.3-5.3c-5.2,0-9.3,1.8-12.3,5.3c-3,3.6-4.5,8.4-4.5,14.5
								c0,6.1,1.5,10.9,4.5,14.5C519.1,72.4,523.2,74.2,528.4,74.2z"/>
						</g>
						<g>
							<path id="DejaVuSans-29_00000098919506406608764560000000375176593743911058_" d="M609.1,75.9h7.8c4.9-7.7,8.5-15.2,11-22.6
								c2.4-7.4,3.6-14.7,3.6-21.9c0-7.3-1.2-14.6-3.6-22c-2.4-7.4-6.1-14.9-11-22.6h-7.8c4.3,7.5,7.6,14.9,9.7,22.2
								c2.1,7.4,3.2,14.8,3.2,22.3c0,7.5-1.1,14.9-3.2,22.3C616.6,61,613.4,68.4,609.1,75.9z"/>
						</g>
					</g>
				</g>
			</g>
			<g id="line2d_31">
				<g>
					<defs>
						<rect id="SVGID_1_" x="48.9" y="22.3" width="395.1" height="163.1"/>
					</defs>
					<clipPath id="SVGID_00000142895942466619514620000003960582686413161660_">
						<use xlink:href="#SVGID_1_"  style="overflow:visible;"/>
					</clipPath>
					
						<path style="clip-path:url(#SVGID_00000142895942466619514620000003960582686413161660_);fill:none;stroke:#000000;stroke-width:0.5;stroke-linecap:square;stroke-linejoin:round;" d="
						M48.9,141.3l0.3-0.9l0.2-0.4h0.2l0.2,0.4l0.2-1.2l0.2,0.5l0.2-0.8l0.2,1.3l0.3-2.4l0.2,0.7l0.2-0.9l0.2-0.1l0.2-0.4l0.2,0.4
						l0.2-0.9l0.2,0.2l0.3,0.7l0.2-2l0.2,1.7l0.2-0.6l0.2,0.3l0.2-0.5l0.2-0.1l0.2-0.4l0.2-0.1l0.2,2l0.2-1.5l0.2-0.3l0.2,0.3
						l0.2-0.9l0.2,0.7l0.2-0.9l0.2,1.1l0.2-0.6l0.2,0.5l0.2-1.1L56,137l0.2-2.1l0.2,2.2l0.2-0.4l0.2-1.4l0.2,0.2l0.2-0.2l0.2,0.6
						l0.2-0.4l0.2-1l0.2,0.1l0.2-0.4l0.2,1.6l0.3-2.1l0.2,1.1l0.2-0.5l0.2,0.4l0.2-0.8l0.2,0.9l0.2-0.4l0.2-0.1l0.2,0.5l0.2-0.3
						l0.2,1.2l0.2-1.2l0.2,0l0.3,1l0.2-1.1l0.2,1.2l0.2-0.6l0.2,1.5l0.2-0.6l0.2,0.5l0.3,1.7l0.2,0.6l0.5,4.3l0.5,10.7l0.2-1.5
						l0.3-14l0.2-2.8l0.2,1.3l0.3-2.2l0.2,0.2L65,133l0.2,1.2l0.2-0.5l0.2,0.4l0.2,0.1l0.2-0.3l0.2-0.8l0.2,0.4l0.2-0.7l0.2,0.5
						l0.2-1.2l0.2,1.1l0.2-0.5l0.2-0.1l0.2,0.5l0.2-0.3l0.2,1.4l0.3-1.3l0.2,1.9l0.2-2.2l0.3,1.2l0.2-0.9l0.2,1.7l0.2-0.3l0.2,0.8
						l0.2-0.2l0.2,1.4l0.2-2l0.2-0.6l0.2,0.7l0.2-1.8l0.3,0.6l0.2-0.3l0.3,0.7l0.2-0.2l0.2,0.1l0.2-0.1l0.2-0.4l0.2-0.9l0.2,1.3
						l0.2,0l0.2-0.4l0.2-1.1l0.2,0.8l0.2,0.2l0.2,1l0.3-1.4l0.2,0.6l0.2-0.3l0.2,0.6l0.2,0.1l0.2-0.1l0.3,0.4l0.2-0.8l0.2,0.2
						l0.2,1.1l0.3-1.7l0.2,1.1l0.2-0.2l0.2,0.9l0.2-1.7l0.2,0.8l0.2-0.7l0.2,0.5l0.2,0l0.2-0.5l0.2,1.4l0.7-1.3l0.2,1l0.2-0.3
						l0.2,0.2l0.2,0.5l0.2-1.4l0.3,0.6l0.2,0.3l0.2-0.1l0.2,0.2l0.3,1.1l0.2-1.5l0.2,2.2l0.3-0.6l0.2-0.1l0.2,0.7l0.2-0.5l0.2,1.5
						l0.2,0.3l0.2-0.4l0.2,1.3l0.2,0.3l0.3,6.2l0.2,2l0.2,0.3l0.5-10.7L84,135l0.2,1l0.2-0.8l0.2,0.3l0.2-0.5l0.2,0.9l0.2-1l0.2-0.1
						l0.2,0.8l0.2-1.3l0.2,0.4l0.2-1.4l0.2,0.2l0.2,1.6l0.2-0.6l0.5-0.6l0.2,1.2l0.2-0.3l0.2,0.3l0.2-1.1l0.2-0.2l0.2,1.1l0.2,0.2
						l0.2-0.2l0.2,0.3l0.2-1l0.2,0.1l0.2,0.5l0.2-1.2l0.3,1.4l0.2-0.5l0.2-1.2l0.2,1.4l0.2-1.2l0.2,1.2h0.2l0.3-0.6l0.2-0.6l0.2,0.8
						l0.2-0.7l0.2,0.5l0.2-0.8l0.2,0.4l0.2,0l0.2,1l0.5-1.1L93,134l0.5-2.2l0.2,0.8l0.2-0.6l0.2,0.9l0.2-1.3l0.2,0.2l0.2,0l0.2,0.9
						l0.2-1.3l0.2,0.5l0.2-0.1l0.2,0.9l0.2,0.1l0.2-1.2l0.3,0.3l0.2-1l0.5,1.2l0.2-0.1l0.2-0.2l0.3,1.8l0.2,0.2l0.3,3.8l0.2,0.3
						l0.2-0.9l0.5-5.8l0.2-1.4l0.2,0.5l0.2-0.4l0.2,0.1l0.2,0.6l0.3-1.8l0.2-0.6l0.2,0.3l0.2-0.4l0.2,0.4l0.2-0.8l0.2,0.9l0.2-0.6
						l0.2,0.7l0.2-0.9l0.2,0.1l0.2-0.2l0.3,0.5l0.2-0.8l0.2,0.2l0.2-0.8l0.2,0.8l0.2-0.4l0.2,0.6l0.2-0.5l0.3,0.3l0.2,0.5l0.2-0.2
						l0.2,0.2l0.2,2.1l0.2-1l0.2,3l0.2-0.2l0.2-2.7l0.2-0.4l0.2-1.4l0.2-0.3l0.2,0.2l0.2-0.3l0.2,1l0.2-0.2l0.5,2.7l0.2-0.1l0.3-1.5
						l0.2,0.7l0.3-2.6l0.2-0.3l0.2-1.1l0.3,1.7l0.2-1.2l0.7,4.1l0.2,1.7l0.3,4.7l0.2-0.9l0.3-7.4l0.2-1.6l0.3,0.2l0.7,5.1l0.7-6.9
						l0.2,0.6l0.2-0.1l0.2-0.9l0.2,0.3l0.2-1.2l0.5,0.6l0.2,0.1l0.2,0.5l0.2-0.6l0.2,0.5l0.2-0.4l0.2,0.6l0.2-0.1l0.2,0.9l0.2,0.1
						l0.3,1.5l0.3,4.4l0.2,0.6l0.2,2.4l0.3,1.5l0.5-11l0.2-1.1l0.2,0.4l0.2,0.1l0.2,0.5l0.3-1.2l0.2,0.1l0.2-1.1l0.2,1.4l0.2-0.9
						l0.2,0.8l0.2-0.2l0.2,1l0.2-0.7l0.2-0.2l0.2-0.4l0.3-1.3l0.3,1.4l0.2-0.5l0.2,0.4l0.3,1.8l0.2-0.1l0.3,3.7l0.3-1.4l0.5-2.6
						l0.5,1.7l0.2,1.7l0.2-0.7l0.5-4.4l0.2,0l0.2-0.5l0.2,0.6l0.2-0.5l0.2,0l0.2-0.2l0.2-0.9l0.2,0.5l0.2-0.8l0.3,0.7l0.2,0.1
						l0.2,0.9l0.3-1.3l0.2,0.9l0.2-0.1l0.2,0.2l0.2-0.1l0.2,0.7l0.2-0.7l0.2,0.1l0.2-1.1l0.2,0.3l0.2-0.4l0.2,0.7l0.3-0.7l0.2,0.2
						l0.2-0.1l0.2-0.9l0.3,2l0.2-0.2l0.2,0.4l0.2,0.9l0.2,0.1l0.2-0.3l0.2-0.9l0.2,0.7l0.2-1.7l0.3,0.9l0.3-0.4l0.2,0.6l0.2-0.5
						l0.2,0.6l0.2-0.9l0.2,0.7l0.3-0.7l0.2,0.4l0.2-0.4l0.2,1.3l0.2-0.5l0.2,0.6l0.2-0.1l0.2,1.4l0.2-1l0.2,1.1l0.2-0.2l0.2,0.1
						l0.5,3.4l0.5,7l0.5,10.8l0.2-0.2l0.2,0.1l0.5,7.9l0.2,0.5l0.2-0.7l0.5-4l0.2,0.7l0.2,1.4l0.2,0.3l0.2,1.3l0.3,8.3l0.2,2.4
						l0.2-1.8l0.7-27l0.3-2.6l0.2-0.7l0.2-1.2l0.2-2.8l0.3-2.5l0.2,1l0.3-1.9l0.2,0.2l0.2-1.3l0.2,0.2l0.2,1.1l0.2-0.6l0.3,2.4
						l0.2,1l0.2,1.8l0.2,0.6l0.2-1l0.2,0.5l0.2-1.8l0.2,0l0.3-1.4l0.2-1.6l0.3,1.3l0.2,2.3l0.3,0.9l0.2,1.6l0.2,3l0.3-3.4l0.7,9.9
						l0.2,3.7l0.7-13.6l0.2,0.2l0.2,2l0.3,7.8l0.3,10.9l0.3,12l0.2,1.9l0.2-3.4l0.2,0.2l0.2-2.6l0.2,0.2l0.2-2.2l0.5-14.9l0.2-0.3
						l0.2,0.7l0.2,3.3l0.5,21.9l0.2,10.1l0.2-7.5l0.3-26.7l0.2-11.3l0.3-6l0.2-0.7l0.2,0.2l0.2-0.2l0.2,0l0.3-1.6l0.2-0.1l0.2,0.6
						l0.2-1.2l0.5,1.6l0.2,0l0.2-0.2l0.5,2.1l0.2,0.1l0.3-0.8l0.2-2.2l0.2,0l0.5,2.9l0.2,0.1l0.5,7.1l0.2,1.1l0.2-1.1l0.3-4.8
						l0.3-2.7l0.3-2.2l0.3,0l0.2-1l0.2,0l0.2,1.4l0.2-0.6l0.3-0.2l0.2,0.7l0.2-0.7l0.2,0.6l0.2-0.5l0.2,0.8l0.2-0.8l0.2,0.5l0.2-0.5
						l0.2,0.1l0.2-0.8l0.2,1.2h0.2l0.2-0.3l0.2,0.6l0.2,0l0.2-0.1l0.2-0.5l0.2,1l0.2,0.3l0.3,0.1l0.2,0.2l0.2,0l0.3-0.3l0.2,1.2
						l0.2,0.2l0.5,2.7l0.2,0.5l0.2-0.6l0.2,0.6l0.2-2.2l0.2-0.8l0.3,1.2l0.2-0.9l0.3,0.1l0.2,0.3l0.2,2.2l0.2,0.2l0.2,0.4l0.3-2.3
						l0.2-0.5l0.5,1l0.2,0.5l0.2-0.5l0.2-0.9l0.2,0.3l0.5,2.3l0.7-4l0.3-0.7l0.2,0l0.2,0.6l0.2-1.3l0.2,2.8l0.2-1.3l0.3,1.1l0.5,7.2
						l0.2,0.8l0.5-5.2l0.2-0.7l0.2-1.2l0.3,2l0.2,0.3l0.2-1.4l0.2-0.1l0.3-2.9l0.5-1.6l0.2-1.2l0.3-0.9l0.2,1.2l0.2,0l0.2-0.8
						l0.2,0.6l0.2-1.2l0.2,1.2l0.2-0.4l0.2-1.6l0.2,0.5l0.2-0.4l0.3,0.1l0.3-0.3l0.2,0.6l0.2,0.2l0.3-1.3l0.2,0.6l0.2-1l0.2-0.2
						l0.2,0.2l0.2,0.9l0.2-1.7l0.2,0.8l0.2-0.3l0.2,0.3l0.2-0.1l0.2,0.2l0.2-0.2l0.5,2.6l0.7,8.7l0.3-4.8l0.5-6.4l0.2-1l0.2,0.3
						l0.3-0.6l0.2,0.2l0.2,0.6l0.2-0.6l0.2,1.1l0.2-0.6l0.2,0.3l0.2,0.6l0.2-0.6l0.3,0.4l0.2-0.9l0.5,1.9l0.2-0.1l0.2,1l0.3,0.2
						l0.3-1.9l0.3-0.5l0.2-0.4l0.2-0.1l0.2-0.8l0.2,0.7l0.3-0.1l0.2,0.7l0.3-1.1l0.2,0.1l0.2,0.4l0.2-0.3l0.2,0.7l0.3-0.1l0.2,0.4
						l0.2,1.8l0.3,0.3l0.3,3.3l0.2,0.2l0.2-0.8l0.3,0.2l0.2-0.4l0.3,1.4l0.7,10.9l0.5,7.7l0.2,0.9l0.5-15l0.2-4.7l0.2-1.5l0.2-0.3
						l0.2-1.6l0.2,0.3l0.3-1.8l0.2,0.6l0.2-1l0.2,0.6l0.2,0.1l0.2,1.7l0.2,0.1l0.5,2.1l0.2,0.6l0.2,1.1l0.3,0.5l0.2-0.3l0.2-0.6
						l0.2,0.2l0.3-2.3l0.2-1.4l0.3,0l0.5-2.5l0.2,1.1l0.2-0.4l0.3-1.3l0.3,0.5l0.2,0.8l0.3-1.3l0.2,0.6l0.2-0.4l0.2-0.7l0.2,0.5
						l0.3-0.6l0.2,0.1l0.2,0.7l0.2-0.9l0.2-0.2l0.2,0.4l0.3-0.3l0.2,0.8l0.2,1.9l0.2-0.1l0.2-0.6l0.2,0.1l0.3-1.4l0.2,0.5l0.3-1.1
						l0.2-0.2l0.2,0.3l0.3,2l0.2,1l0.3,2.8l0.2,0.2l0.3-1.7l0.2-0.1l0.3,1.5l0.2,1.6l0.2-0.5l0.2-1.2l0.2,0l0.2-0.2l0.2-1.6l0.2,0.6
						l0.2,1.9l0.3-2.8l0.2-1l0.2-0.1l0.2-0.9l0.2,0.2l0.2-0.3l0.2,0l0.2,1.9l0.2-1.5l0.2,0.8l0.2-1.2l0.7,7.1l0.2,2.9l0.7-4.3
						l0.2-2.9l0.2-0.8l0.3-2.4l0.5-1.3l0.3,0.2l0.2-0.1l0.2-0.7l0.2,1l0.2-0.1l0.2-0.4l0.3,1.7l0.2,0.3l0.2,1.5l0.2-1l0.2,0.7
						l0.2-0.3l0.2,0.7l0.3,4.3l0.2-0.1l0.2,0.1l0.2,1l0.2-1.4l0.3,0.5l0.3-3.1l0.2-0.7l0.2-1.4l0.3-0.7l0.2-0.9l0.2,0l0.2,0.2
						l0.3,0.9l0.7,11.4l0.2-0.8l0.2-2.2l0.2,1l0.5-5.8l0.2,1.1l0.2-2.6l0.2-0.4l0.2,1.1l0.5-0.8l0.2-1.1l0.2,0.2l0.3,1.5l0.2-0.4
						l0.3,0.8l0.3-3.1l0.2,0.3l0.2-0.7l0.2,1.3l0.2,0l0.3,6.3l0.5,19.5l0.2,8.6l0.2,1.7l0.5-20.7l0.3-11.3l0.2-3l0.2,1l0.3-1.8
						l0.2-2l0.2,1l0.2-0.5l0.3-1.9l0.3,0.4l0.2-0.2l0.2,1.1l0.3-0.3l0.3,1.2l0.2-0.1l0.3-2l0.2,0.3l0.2-0.1l0.2-1.8l0.2,0l0.2,0.9
						l0.2-0.1l0.3,1.6l0.2,0.5l0.2-0.4l0.2,1.2l0.3-0.1l0.2-0.5l0.3,1.7l0.2-1.6l0.3,0.7l0.2-0.1l0.2-1l0.2,1.1l0.2-0.4l0.3,0.2
						l0.5,3l0.2-2.6l0.2-0.4l0.2-0.8l0.3-2.2l0.3,0.4l0.2-1.2l0.3,0.7l0.2-0.1l0.2-0.8l0.9,10.5l0.2,3.2l0.2,0.8l0.2-0.7l0.2-3.8
						l0.2-0.4l0.3-2.1l0.2,0.5l0.3,1.7l0.2,0.2l0.3-2.1l0.2,0l0.5-0.6l0.2,0.5l0.9,5l0.2-0.2l0.2,1.3l0.2-0.4l0.2-2.8l0.3-0.6l0.2-1
						l0.3,0.2l0.2-0.5l0.2,0.4l0.9,9.5l0.2-0.2l0.7-8.8l0.2-0.6l0.2-2l0.2-0.3l0.3,1.8l0.2-0.2l0.3-2.6l0.2,0.1l0.3-1l0.2-2.4l0.2,1
						l0.2-0.1l0.2-0.6l0.2,0.2l0.2,0.8l0.2-0.6l0.2-0.1l0.3,1.4l0.2,0.1l0.2,0.5l0.2-0.9l0.2,0.2l0.2-0.1l0.2-0.6l0.2,1l0.2-0.6
						l0.2,0.1l0.5,2.3l0.3-0.6l0.2-1.4l0.3,0.8l0.2,0.1l0.2-0.5l0.3,3l0.2-1.2l0.2,0.5l0.3-2.7l0.2,0.7l0.2-0.7l0.2-1.3l0.2-0.4
						l0.2,0.7l0.2-0.9l0.2,0.4l0.3-1l0.2,0l0.7-1l0.2-0.7l0.2,0.4l0.2-0.6l0.2,0.3l0.2-1l0.2,0.3l0.2-0.4l0.2,0.3l0.2-0.9l0.3,1.2
						l0.7-0.6l0.2,0.9l0.2-0.9l0.2,1l0.2-0.6l0.2,0.1l0.2,0.9l0.2-0.1l0.2,0.5l0.2-0.8l0.2,0.2l0.2,0.7l0.3-0.6l0.2,0.6l0.2,1.2
						l0.2-0.8l0.3,1.2l0.2-0.1l0.2,0.5l0.2-0.3l0.2,0.3l0.2,0.8l0.2-0.1l0.3,3.4l0.3-1.2l0.2,0.7l0.2-1.2l0.2,0.1l0.3-2.1l0.2,0
						l0.2,0.2l0.2-1.1l0.2,0.9l0.2-0.4l0.2-0.1l0.2-0.9l0.2,1.9l0.3-0.6l0.2,0.1l0.2-0.8l0.2,0.4l0.3-0.8l0.2-1l0.2-0.2l0.2-0.8
						l0.2,0.5l0.2-0.3l0.2-0.6l0.2,0.1l0.2-0.8l0.3,1.6l0.3-1l0.3,0.4l0.5,2.5l0.2-0.7l0.2,0.9l0.2-1.5l0.3-0.2l0.2-0.3l0.2-1.3
						l0.2,0.2l0.2-0.6l0.3,0.4l0.2-0.3l0.3,0.1l0.2,0.2l0.2,1.1l0.2-0.3l0.3,2l0.2-1.3l0.3,0.1l0.7,4.3l0.2-0.6l0.3-2.5l0.2,0.4
						l0.2-1.4l0.5-1.3l0.3-0.1l0.2,0.3l0.2-0.3l0.2,1l0.2,0l0.2,0.7l0.2-0.8l0.3-0.1l0.2,0.5l0.2,0.2l0.2-1.2l0.2,1.5l0.2-0.1l0.2,1
						l0.2,0.1l0.3,1.3l0.2-0.5l0.2,0.9l0.2-0.6l0.2,0.9l0.2-0.6l0.2,0.3l0.2,1.4l0.2,0.1l0.7,6.8l0.2,0.1l0.2,3.1l0.2,0.5l0.2-0.6
						l0.2,2.7l0.2-0.9l1.6-16.7l0.2-0.6l0.2-1.1l0.2,0.2l0.2-0.3l0.2-1.2l0.2,0.8l0.2-0.2l0.2,0.1l0.2-0.7l0.2,0.5l0.2-0.8l0.2,0.4
						l0.2-0.8l0.2,0.1l0.2,1.1l0.2,0.4l0.3,2.4l0.2,0.7l0.2,1.3l0.2-0.1l0.2-1.9l0.3-0.7l0.2,0.2l0.5-2.6l0.3-0.6l0.2-0.1l0.2-0.8
						l0.2,1.2l0.3,0.5l0.2-1.1l0.2,0.1l0.2-0.9l0.2,0.1l0.2,0.5l0.2-0.2l0.2-0.4l0.2-0.1l0.2,0.7l0.2,0.1l0.2,0.8l0.5,4.7l0.2,0.3
						l0.2-1.1l0.2-2.3l0.2,0.9l0.2,0l0.3-3.2l0.2,0.2l0.2-1.2l0.2,0.6l0.2-0.3l0.2,0l0.3,0.8l0.2-0.3l0.2,0.4l0.2-0.2l0.2,0l0.2-0.7
						l0.2,1.2l0.2-0.6l0.2,0.7l0.2-1.5l0.2,0.3l0.2-0.8l0.2,0l0.2,0.3l0.3-0.6l0.2-0.4l0.2,0.4l0.2-0.2l0.2,0.5l0.2-0.5l0.2,0.9
						l0.2,0.1l0.2-0.9l0.3,0.7l0.3-0.9l0.3,0.9l0.2-0.7l0.2-0.2l0.2,0.3l0.2,0l0.2,0.2l0.2-0.1l0.2-0.5l0.5,1.2l0.2-0.3l0.2-0.1
						l0.2,0.6l0.2-0.4l0.3,2.6l0.3,1.5l0.2,1.6l0.2-1l0.2-1.9l0.2-0.1l0.2-0.3l0.2,0.4l0.3-1.6l0.2-0.3l0.2,0.1l0.2-0.7l0.2,0.4
						l0.2,1l0.2-1l0.2,0.8l0.2-0.1l0.2-0.7l0.3,2.2l0.2-0.3l0.2,0l0.2-0.2l0.2,0.9l0.3-0.2l0.3-0.8l0.2-0.3l0.2-0.8l0.2,0.2l0.2-0.5
						l0.2-0.1l0.2-0.8l0.7,0.6l0.2-0.2l0.2-0.4l0.3,1.1l0.2,0.2l0.2,0.4l0.3-1.8l0.2,0.4l0.2,0.1l0.2-0.2l0.7,3.1l0.2,1.5l0.2-1.9
						l0.2-0.6l0.2,0.9l0.2-0.2l0.2,0.3l0.2-0.6l0.3,0.8l0.2-1.2l0.2,1.5l0.2-0.1l0.3,1l0.2-0.6l0.2-1.4l0.2,0.2l0.2-0.1l0.2-0.5
						l0.2,0.9l0.3-2.9l0.2,1.8l0.2-1l0.2-0.1l0.2-0.2l0.2,0.3l0.3-1.1l0.2,0.8l0.2-0.4l0.2,0.2l0.2,0l0.2,0.6l0.2-1l0.3,1.5l0.2,0.3
						l0.2,1.5l0.2-0.7l0.5,2.6l0.2-0.1l0.7-2.5l0.2,0.4l0.7-2.4l0.2-0.6l0.2,0l0.2,0.6l0.3,0l0.2,0.7l0.2-0.3l0.2,0.6l0.2,0l0.2-0.5
						l0.2-1.2l0.2,0.5l0.2-0.5l0.3,0.5l0.2-0.4l0.5,0.9l0.2-1l0.2,0.8l0.2-0.6l0.3,0.7l0.3-0.8l0.2,0.3l0.2-0.2l0.2,0.3l0.2,0.7
						l0.2-0.8l0.2-0.1l0.2,0.7l0.2-0.7l0.2,0.7l0.3-0.9l0.2,0.4l0.2-0.2l0.2-1l0.3,0.8l0.2-0.5l0.2,0.1l0.2,0.6l0.2-0.1l0.2-0.4
						l0.2,0.1l0.2,0.4l0.2-0.6l0.3,0.2l0.2,0.1l0.2,0.3l0.2-0.9l0.2,0.5l0.2-0.3l0.3,0.6l0.2-0.1l0.2,0.8l0.2,0.2l0.2-0.7l0.2,0.7
						l0.2-0.5l0.2-1.1l0.2,1.2l0.3-1.7l0.2,0.8l0.3,0l0.2,0.4l0.2,1.9l0.2-0.7l0.2,0.2l0.2-0.5l0.2,0.3l0.2-0.5l0.2-0.1l0.2-0.9
						l0.2,0.1l0.2-1.3l0.3-0.4l0.2-0.4l0.2,0.5l0.2,0.1l0.2-0.7l0.5,0.3l0.2-0.1l0.3,0.3l0.2-0.2l0.2,0.6l0.2-0.4l0.3,0.9l0.2-0.4
						l0.2,0.1l0.2-0.4l0.2,0l0.2,0.3l0.3-0.4l0.2-0.5l0.3,0.8l0.2-0.6l0.2,0.4l0.3-0.2l0.2,0.1l0.2,0.3l0.2-0.2l0.2-0.4l0.2,1.2
						l0.2-0.6l0.2,0.6l0.2-0.4l0.2,0.1l0.2,0.4l0.2-0.3l0.2-0.5l0.2,0.2l0.2-0.8l0.2,0.1l0.2,0.2l0.2-1l0.2,0.5l0.2,0l0.3-0.4
						l0.2,0.3l0.2-0.5l0.3,1l0.2,0.9l0.2-0.1l0.5,1.3l0.3-1.5l0.2,0.2l0.2,0.5l0.2-0.4l0.2-0.1l0.2-0.2l0.2,0.1l0.2-0.4l0.2,0.7
						l0.3-1.3l0.3-0.1l0.2-0.5l0.2,0.2l0.2-0.3l0.2,0.6l0.2-0.9l0.2,0.4l0.2,1l0.2-1l0.3,0.7l0.2-0.5l0.5,1.1l0.2-0.2l0.2,0l0.2,0.6
						l0.2-0.6l0.2,0.2l0.2,0.8l0.2,0.1l0.2-1.1l0.2,0.4l0.2-0.9l0.5,0.2l0.2,0.4l0.2-1.2l0.2,0l0.2,0.4l0.2-0.1l0.2-0.5l0.2-0.1
						l0.2,0.2l0.2-0.2l0.2,0.1l0.2-0.6l0.2,0.4l0.2-0.5l0.5,1.5l0.2,0l0.2,0.6l0.2-0.3l0.2-0.7l0.7,1l0.3-0.5l0.3,0.1l0.2,1.1
						l0.2-0.2l0.2,0.7l0.2,1.6l0.3-1.5l0.3,1l0.5-1.7l0.3,0.3l0.2-0.5l0.2-0.1l0.2,0.9l0.2-0.1l0.2,0.5l0.2,1.2l0.2-1.6l0.2,0.7
						l0.2-0.1l0.3,0.7l0.2-0.6l0.2,0l0.2-0.5l0.2,0.5l0.2,1l0.3-0.6l0.2,1l0.2-0.4l0.2,0l0.2,0.7l0.2,1.2l0.2,0.4l0.3,1.2l0.2,0
						l0.2,0.7l0.9-3.6h0.2l0.5-2.2l0.2-0.7l0.2,0.2l0.5-1.6l0.2,0.2l0.3-0.8l0.2,0.5l0.3-0.6l0.2,0.8l0.3-1.1l0.2,0.5l0.2,0l0.2-0.2
						l0.3,1.2l0.2,0.5l0.2-1.2l0.2,1.1l0.2-0.3l0.2,0.2l0.3,0.6l0.2-0.2l0.2,0.5l0.3-0.8l0.3,0.5l0.2,0.6l0.2-0.3l0.2,0.1l0.2-0.1
						l0.2-0.5l0.2,0.6l0.2-1.3l0.2,0l0.3-0.8l0.2-0.1l0.2-0.7l0.2,0.6l0.2,0.1l0.5-1.2l0.2,0.3l0.2-0.5l0.2,0.6l0.2-0.1l0.2-0.5
						l0.3,0.7l0.2-0.5l0.3,0.1l0.2-0.5l0.2,0.5l0.2-0.2l0.2,0.5l0.2-0.2l0.2-0.5l0.2-0.1l0.7,0.5l0.2-0.2l0.2,0.8l0.2-0.6l0.3,0.6
						l0.3-0.4l0.3,0.1l0.2-0.1l0.3,0.7h0.2l0.5-0.6l0.2-0.4l0.3,1.2l0.2-0.5l0.2,0.1l0.2-0.1l0.5-0.8l0.2,0.8l0.2-0.4l0.3-0.1
						l0.2,0.3l0.2-0.2l0.2,0.2l0.5-0.9l0.2,0.3l0.5,0.2l0.2-0.8l0.3,0.5l0.2,0l0.2-0.2l0.2,0.4l0.2,0l0.2-0.2l0.2,0.2l0.2-0.2l0.2,0
						l0.2-0.4l0.2,0.4l0.3-0.2l0.5-0.7l0.2,0.8l0.2-0.4l0.2,0.1l0.2,0.3l0.3-0.4l0.2,0.1l0.2,0.2l0.2-0.2l0.2,0l0.2,0.2l0.2-0.6
						l0.3,1.2l0.2-0.2l0.2,0.1l0.2,0.6l0.3-0.6l0.2,0.4l0.2-0.2l0.3,0.9l0.2-0.5l0.2,0.1l0.2,0.3l0.2-0.1l0.2,0.2l0.2,0.7l0.2,0
						l0.2-0.2l0.2-0.8l0.2,0.7l0.2,0.1l0.2-0.6l0.2,0.7l0.2-0.7l0.2,0.2l0.2-0.9l0.2,0.7l0.3-0.7l0.2-0.3l0.3,0.2l0.2-0.3l0.3,1.5
						l0.2-0.6l0.2,1.6l0.2-1.4l0.2,0.4l0.2-0.7l0.2,0l0.2-0.4l0.2,0.5l0.2-0.5l0.5-0.5l0.2,0.3l0.2-0.6l0.3,0.6l0.3-0.7l0.2,1
						l0.3,0.6l0.2,0.2l0.2-0.6l0.2,0.1l0.2-0.2l0.3,1l0.2-0.6l0.2,0.2l0.3-0.9l0.2,0.3l0.2-0.9l0.3,0.5l0.2-0.5l0.3,0.4l0.2,0.4
						l0.2-0.2l0.2,0.1l0.2-0.1l0.3,0.2l0.2,0.5l0.2-0.4l0.2,0.5l0.2-0.2l0.2,0.5l0.2,0.1l0.2-0.6l0.2-0.1l0.2,0.2l0.2-0.1l0.3,0.7
						l0.2-0.5l0.2,0.1l0.2-0.2l0.2-0.5l0.5,0.2l0.3-0.6l0.3,1.2l0.2-0.3l0.2-0.9l0.2,0.3l0.2-0.1l0.2,0.5l0.2-0.2l0.3,0.2l0.3,0.3
						l0.2-0.1l0.2-0.8l0.3,1l0.2-0.1l0.2,0.1l0.2-0.1l0.3,0.6l0.2,0l0.3-0.7l0.2-0.1l0.3,0.6l0.2,0.2l0.2-0.4l0.2,1.1l0.2-0.4
						l0.2,0.7l0.2-0.4l0.3,0.8l0.2-0.2l0.2,0.9l0.2-0.2l0.2,0.7l0.2-0.3l0.2,0.5l0.2-0.7l0.2,0.7l0.2-0.2l0.2-0.5l0.2,0.1l0.2,0.3
						l0.2,0l0.2,0.7l0.2-0.9l0.2-0.3l0.2,0l0.2,0.9l0.3-1.2l0.5-0.1l0.2-0.1l0.2,0.4l0.2-0.6l0.2,0.1l0.5-0.7l0.2,1.2l0.3-0.6
						l0.2-0.1l0.2-0.7l0.2,0.5l0.2-0.3l0.2,0.2l0.2-0.2l0.2,0.3l0.3-0.7l0.2,0.3l0.2,0l0.2-0.2l0.2,0.2l0.2-0.9l0.2,1.1l0.2-0.5
						l0.2,0.3l0.2-0.5l0.3,0.3l0.2,0.1l0.2,0.5l0.2-0.4l0.2,0.1l0.2-0.2l0.2,0.1l0.2,1.2l0.2-1.1l0.2,0.1l0.2-0.1l0.2-0.3l0.2,0
						l0.3,0.4l0.3-0.3l0.2-0.8l0.2,0.4l0.2-1l0.2,0.7l0.3-0.5l0.2,1.6l0.2-1.2l0.2,0.7l0.2-0.6l0.2,0.1l0.2-0.5l0.2,0.6l0.3-0.5
						l0.3-0.5l0.2-0.3l0.2,0.3l0.2-0.6l0.2,0.3l0.2-0.2l0.2-0.8l0.2,0.2l0.2,0.5l0.2-0.5l0.2,0.1l0.2,0.4l0.2-0.3l0.2,0l0.2-0.1
						l0.2-0.5l0.2,0.5l0.2-0.5l0.2,0.1l0.2,0.4l0.2-0.1l0.2,0.4l0.2-0.1l0.2,0.2l0.2,0.5l0.2-0.5l0.3,0.3l0.2,0.9l0.2,0l0.2-0.1
						l0.2,1.3l0.3,0.4l0.2,1l0.2-1.2l0.2,0.5l0.2-0.1l0.2-0.4l0.2,0.2l0.2-0.6l0.2,0.4l0.2-0.6l0.2,0.3l0.3-1.1l0.2,0l0.2,0.2
						l0.3-0.6l0.3,0.8l0.2,0.3l0.2-0.6l0.2,0.5l0.2-1l0.2,0.5l0.2-1l0.2,0.4l0.2,0.1l0.3-0.5l0.3,0.1l0.5-0.6l0.2,0.1l0.2-0.2
						l0.2,0.5l0.2-0.1l0.3-0.8l0.2,0.3l0.2-0.3l0.2,0l0.2,0.1l0.2-0.4h0.2l0.2,0.5l0,0"/>
				</g>
			</g>
			<g id="line2d_32">
				<g>
					<defs>
						<rect id="SVGID_00000079479021907838335820000003728706096449427843_" x="48.9" y="22.3" width="395.1" height="163.1"/>
					</defs>
					<clipPath id="SVGID_00000168813141032721682660000007836708200356183976_">
						<use xlink:href="#SVGID_00000079479021907838335820000003728706096449427843_"  style="overflow:visible;"/>
					</clipPath>
					
						<path style="clip-path:url(#SVGID_00000168813141032721682660000007836708200356183976_);fill:none;stroke:#B30009;stroke-width:0.5;stroke-linecap:square;stroke-linejoin:round;" d="
						M48.9,62.8l0.2,0.7l0.2,0.1l0.2-1.4l0.2-0.4l0.2,1.8l0.2,0.4l0.2-1.2l0.2,1.5l0.3-1.1l0.2,2l0.2-0.7l0.3,1.1l0.3-1.1l0.2,0.1
						l0.3,2.7l0.2-0.2l0.2-1.2l0.2,0.3l0.2-0.1l0.3,0.5l0.2,0.9l0.2-0.8l0.2,0.9l0.2-0.2l0.2,0.1l0.2-0.3l0.3,0.8l0.2-0.5l0.2,0.8
						l0.2-0.1l0.2,0.7l0.2-0.4l0.2,0.1l0.2-0.8l0.2-0.1l0.2-0.4l0.2,1.6l0.2,0.4l0.5-2.3l0.2,2l0.2-0.4l0.2,0.1l0.2,1.1l0.3-2.3
						l0.2,2.3l0.2-1.9l0.2,1.5l0.2-0.3L59,70l0.3-0.1l0.2-1.7l0.2,1.4l0.3-1.8l0.2,0.5l0.3-0.5l0.3,0.7l0.2-0.3l0.2,0.4l0.2-1.3
						l0.5-1.4l0.2,0.5l0.7-9.6l0.3-10.4l0.2-5.7l0.2,5.2l0.3,21.6l0.2,2.1l0.2-0.5l0.2,1.3l0.2-1l0.2,2l0.2,0L65,71l0.2-0.8l0.2-0.2
						l0.2,2l0.2-1.5l0.2,1.1l0.2-0.1l0.2,0.3l0.2-1.3l0.2,1.4l0.2-0.6l0.2,0.6l0.2-0.1l0.2,0.6l0.2-1.4l0.2,0.8l0.2-0.8l0.2,0.7
						l0.2-1.1l0.2,1.1l0.3-1.2l0.3,0.6l0.3-2.4l0.3-1.6l0.5,5.2l0.2-0.8l0.2,0l0.2,0.9l0.2,0.3l0.2-0.5l0.2,0.1l0.2-1l0.3,1.7
						l0.2-1.3l0.2-0.2l0.2,0.6l0.2-1.4l0.2,1.1l0.2-0.7l0.2,1.2l0.3-0.6l0.2,0.9l0.2-0.7l0.2,0.5l0.5-0.8l0.2,0.3l0.2-0.4l0.2-0.9
						l0.2,0.6l0.2-0.1l0.2,0.3l0.2-0.8l0.2,0.1l0.2-0.3l0.2,1.1l0.3-0.8l0.2,0.3l0.3,0.2l0.2-1.6l0.3,1.9l0.3-1.9l0.3,0.4l0.2-1.4
						l0.2,1l0.5-0.7l0.2,1.5h0.2l0.2-1.8l0.2,0.3l0.2-0.1l0.2-0.3l0.2,0.5l0.2-0.3l0.2-1l0.2,0.7l0.3-0.7l0.2-1.3l0.2,0.6l0.7-3.4
						L83,49l0.5,16l0.2,0.3l0.2,0.8l0.2-1.3l0.3,2.5l0.2-1.6l0.2-0.4l0.2,1l0.2-0.7l0.2,1.1l0.2,0l0.2-1.4l0.2,0.8l0.2,0.3l0.2-1.5
						l0.2,1.5l0.2-0.1l0.2,0.1l0.2-0.4l0.2-1.4l0.2,1.3l0.2,0l0.2-0.7l0.2,0.4l0.2-0.2l0.2,0l0.2-0.7l0.2,1.4l0.2-1.3l0.7,1.6
						l0.3-2.1l0.2,1.4l0.2,0.5l0.2-0.1l0.2-1.1l0.2,0.6l0.2,0.2l0.2-1.3l0.3,1.7l0.5-0.9l0.2-0.5l0.2,1.5l0.2-1l0.2,0.3l0.2,1.7
						l0.2-1.7l0.2,1.3l0.2,0.1l0.2-0.9l0.2,1.1l0.2-0.2l0.2,0.1l0.2,0.7l0.2,0l0.2-0.2l0.3,1.4l0.5-0.7l0.2,1l0.2-0.4l0.2,0.7L96,69
						l0.2-0.4l0.2,0.6l0.2-0.3l0.2,0.4l0.3-1l0.2,0.4l0.2-0.5l0.2-1l0.2-1.7l0.2-3.3l0.2-0.4l0.3,4.9l0.2,4.1l0.3,2.1l0.2-0.9
						l0.3,0.2l0.2,0.6l0.5,0.4l0.3,1.1l0.3-0.7l0.2,1.7l0.2-0.5l0.3-0.1l0.2,0.2l0.2,0.5l0.2,1.9l0.2-0.3l0.2-1.2l0.2-0.1l0.2,0.1
						l0.2,0.3l0.2,0.7l0.2-0.8l0.2,1.3l0.2-1.6l0.2,1.1l0.3-0.9l0.2-0.2l0.5-1.1l0.7,3.7l0.2,0.5l0.3-1.5l0.3,1l0.3,0.2l0.2,1.3
						l0.2-2.4l0.2,1.2l0.2-0.3l0.2,0.1l0.3,0.7l0.2,1.4l0.2-1.2l0.3,0.9l0.2-0.8l0.2,0.2l0.3-0.7l0.2-2.1l0.2-0.4l0.2-1.3l0.2-0.3
						l0.2,1.5l0.2,3l0.2,0.1l0.2-0.5l0.5-2.2l0.5-7.4l0.5,9.9l0.3,2.3l0.2,0l0.2,0.4l0.2-0.5l0.3,0.8l0.2-0.3l0.2,0l0.2-0.1l0.2,0.2
						l0.2-0.6l0.2,1.6l0.2-0.8l0.2,0l0.3-1.3l0.3-1l0.3-3.9l0.5-3.4l1,9.4l0.2,1l0.2-0.7l0.2,0.8l0.2-0.4l0.2,0l0.2,0.2l0.2,0.8
						l0.2-0.4l0.2-1.3l0.2,0.8l0.2-0.4l0.2-2.1l0.5,3.4l0.3-1.1l0.2,1l0.2,0.1l0.3-1.2l0.2,0.9l0.2-1.1l0.7-7.3l0.5,6l0.2-0.1
						l0.2-1.5l0.2-0.5l0.2-3.1l0.2,0.5l0.2-0.1l0.5,6.9l0.3,1.1l0.2-0.2l0.2,0.8l0.2-1.1l0.3,0.5l0.2,0.6l0.2-0.3l0.2,0l0.2-0.9
						l0.2,1.5l0.2-0.2l0.3-1.4l0.2,1.2l0.2-0.4l0.2,0.2l0.2-0.7l0.2,1.2l0.2-0.7l0.2,0.6l0.2,0.1l0.2,0.5l0.2-0.4l0.2,0.9l0.2-1.9
						l0.2,0.2l0.2-0.3l0.2,0.2l0.2,0l0.2,0.5l0.2,0.1l0.3-1l0.3,1.2l0.2-1.2l0.3,1.7l0.2-1.5l0.2,0.2l0.2,0l0.3,0.6l0.3-0.6l0.2,0.6
						l0.2,0l0.2,0.6l0.3-1.5l0.2-0.3l0.2,0.4l0.3,0.3l0.2-0.3l0.2,0.2l0.2-0.3l0.2,0.3l0.2-1.6l0.2,1l0.2-0.9l0.2-0.1l0.3-1.7
						l0.2-0.2l0.2-1l0.5-7.2l0.2,0.2l0.2-2.4l0.2-0.6l0.7-11.7l0.3-1.6l0.2-1.6l0.2,1.3l0.2-2.6l0.2-0.9l0.3-5.6l0.5-17l0.2,0.6
						l0.7,34.9l0.2,3l0.2,0.9l0.5,7.4l0.2,2.1l0.2,0.3l0.3,2.3l0.2-1l0.2,2l0.2,0.6l0.2-1l0.2,1l0.3-1.4l0.2-0.5l0.2-1.3l0.2-0.2
						l0.2,0.7l0.2-0.7l0.5,2.9l0.2,0.3l0.2,0.8l0.3-1.7l0.2,0.6l0.2-0.3l0.2-0.9l0.2,0.9l0.2-0.2l0.2-1.4l0.2,1.2l0.2-0.8l0.5-5.5
						l0.2-4.2l0.2,0L148,76l0.2,1.3l0.3-3.4l0.5-15.7l0.3-15.7l0.2-3.3l0.2-0.8l0.3,7.8l0.5,7.8l0.5,12.8l0.2,2l0.2,0.6l0.5-9.7
						l0.3-11.9l0.7,29.4l0.2,2.2l0.2-0.5l0.3,1.3l0.2-0.1l0.3,1.5l0.2-0.7l0.2,1.3l0.2-0.7l0.2-0.1l0.2,0.7l0.2-0.3l0.3-1.2l0.2-0.5
						l0.2,0.2l0.2-3.4l0.2-0.1l0.2,1l0.3,2.9l0.2-0.6l0.2,0.2l0.2,1.3l0.2-0.7l0.7-8.4l0.2-4.2h0.2l0.2,0.8l0.3,6.5l0.3,5.4l0.2-0.3
						l0.3,2l0.2-1l0.2,0.1l0.2,1l0.2-0.2l0.2-1.3L161,82l0.3-0.8l0.2,0.8l0.2-0.9l0.2,0.8l0.3-1l0.2,0.3l0.2,1l0.5-1.1l0.2-0.9
						l0.3,0.4l0.2,0l0.7-1.8l0.2,0.5l0.2-1.2L165,78l0.3,1l0.2-0.4l0.3-2.2l0.3-2.8l0.2,0.6l0.3-2l0.2,2l0.2-0.4l0.2,0.3l0.3,1
						l0.2,0.2l0.2-0.2h0.2l0.2-2.7l0.3-2l0.2-1l0.3,3.9l0.2,1.3l0.5-2l0.2,0.9l0.2-0.1l0.2,0.8l0.3,2.3l0.3-0.7l0.2,0.3l0.2-0.1
						l0.2,1.4l0.2,0l0.2,1.2L172,79l0.2,0.9l0.3-0.9l0.2-0.1l0.2-0.8l0.2-1.6l0.2-0.4l0.3-4.7l0.3-5.4l0.3,3.9l0.5,8.4l0.2-0.2
						l0.3,0.9l0.2,1.5l0.2,0.3l0.2,1.1L176,82l0.2,0.7l0.2-0.4l0.2,0.2l0.2,0.5l0.2,0.1l0.2,0.5l0.2,0.1l0.2,0.7l0.2-2.2l0.2,2.1
						l0.2-0.7l0.2,0.5l0.3,0l0.2-0.6l0.2,1.6l0.2-1.1l0.3,0.1l0.2-0.5l0.2,1.2l0.2-0.1l0.2,0.5l0.2,1.5l0.2-1.2l0.2,0.4l0.2-0.5
						l0.2,0.2l0.2,0.5l0.2-0.2l0.2,1.2l0.3-0.9l0.2,0.3l0.2,0.1l0.2-0.4l0.2,0.6l0.2-1.2l0.2-0.2l0.2-0.4l0.5-3.8l0.2,0.9l0.3,2.2
						l0.2,0.7l0.2,1.7l0.2,0.5l0.2,1.1l0.2-0.3l0.2-0.7l0.2-0.2l0.2,1.2l0.3-1.4l0.2-0.1l0.2-0.5l0.2,0.1l0.2,1l0.2-0.7l0.2-0.1
						l0.2,0.3l0.3-1.3l0.2,0.4l0.3-2.4L188,83l0.2,0.9l0.2,1.9l0.2-0.8l0.7,3.3l0.2-0.9l0.2,0l0.2-0.4l0.2,0.1l0.2-0.6l0.3,1
						l0.2-0.9l0.2-0.2l0.3,0.3l0.5-1l0.7-7l0.2-0.7l0.2,0.1l0.2,2.3l0.2,0.1l0.2,1.2l0.2-0.3l0.3-2.6l0.7-12.9l0.3-6.2l0.3,0.9
						l0.7,18.8l0.3,4.2l0.2,0.3l0.2,0.6l0.2-0.9l0.3,1.7l0.2-1l0.2,0.4l0.2,0.8l0.3-2.8l0.2-0.2l0.2-0.9l0.3-2.1l0.7-3.1l0.3,1.7
						l0.7,4.9l0.2,0.3l0.2-0.1l0.2,0.5l0.3,2l0.3-0.1l0.5,0.8l0.2,0.1l0.3-0.4l0.2,0.4l0.3-1.1l0.2,0.6l0.2,0.1l0.3,0.8l0.2-0.2
						l0.2,0.8l0.2,0.1l0.2-1.5l0.2,0.4l0.2-0.4l0.2,0.2l0.2-0.3l0.2,0.1l0.2-1l0.2,0.7l0.3-0.1l0.2,1.7l0.2-0.1l0.2-0.8l0.2,0.5
						l0.2-0.3l0.2-0.5l0.2-1.2l0.2-0.2l0.2-2.3l0.2-0.6l0.2-1.2l0.2-0.2l0.3-1.1l0.2,0.2l0.5-3.7l0.2,2.1l0.3,1l0.2,0.9l0.2,0
						l0.2-0.4l0.2,0l0.5,4l0.2,0.1l0.2,0.9l0.2-0.2l0.2,0.2l0.2-1l0.2,1.5l0.3-1.2l0.2,0.3l0.2-1l0.5-9.7l0.2-1.1l1,14.6l0.2-0.2
						l0.2,0.2l0.2-0.4l0.3,1.8l0.3-0.6l0.3,0.1l0.2-0.6l0.2-0.1l0.2,0.2l0.2-1l0.2,0.6l0.2,0.1l0.2-0.2l0.3-2.2l0.2,0.3l0.3-1.5
						L218,83l0.2,0.3l0.2,0.6l0.5-3l0.2,0.3l0.5,2.6l0.3,2.7l0.2-0.8l0.2,0.8l0.2,0.1l0.2-1.2l0.2,0.2l0.2-1.4l0.3-5.8l0.2-2.1
						l0.3-1.3l0.3,0.7l0.7,5.5l0.2,1.5l0.2-0.2l0.3,2.3l0.3,0.2l0.2,0.9l0.2-0.5l0.2,1.2l0.2,0.2l0.2,0.4l0.2-0.6l0.2,0.6l0.2-0.2
						l0.2-0.7l0.2,0.7l0.3-2.4l0.3-3.2l0.5-13.4l0.2-6.2l0.2,1.6l0.5,11.4l0.2,1.9l0.2,3.6l0.2,0.2l0.2-0.8l0.5,3l0.2,2.7l0.2-0.5
						l0.2,2.3l0.2-0.4l0.2,0.2l0.2-0.6l0.2-1.3h0.2l0.2,0.3l0.2,0.6l0.3-0.6l0.2-0.7l0.2,1l0.2,0.3l0.2,0.9l0.2,0l0.2,1.6l0.2-0.5
						l0.2-1.9l0.2,1.1l0.2-0.4l0.2-1.1l0.2-0.2l0.2,0.4l0.3-0.3l0.3-1l0.2,0.3l0.2,0l0.2-0.5l0.2,1l0.3-0.3l0.2,0.3l0.2,1l0.3-1
						l0.3-0.9l0.2,0.3l0.2,1.5l0.3-0.8l0.2,0.6l0.2-0.3l0.2,0l0.3-0.5l0.3,0.5l0.2-0.2l0.2-0.5l0.2,0.6l0.2-0.4l0.2-1.4L239,84
						l0.5-7.3l0.2,1l0.2-0.1l0.2,1.5l0.2-1l0.2,1.6l0.5-3.8l0.2-2.4l0.2-0.4l0.2,0.5l0.5,3.8l0.2,0.9l0.3-0.5l0.3-3.8l0.2-0.9
						l0.2-3.3l0.2-0.5l0.2,0.4l0.2-2.4l0.2,0.6l0.2,1.1l0.2,4.4l0.2,0.4l0.2,1.3l0.2,0.3l0.3,1.1l0.2,0.3l0.2-0.9l0.2,0.1l0.3-3.1
						l0.2,1l0.2,0.2l0.3,1.3l0.2,2.5l0.2,0.6l0.2,2.2l0.2-0.8l0.2,0l0.2-0.3l0.2,0.1l0.2,1l0.2,0l0.3,2.1l0.2-0.1l0.2,1.5L249,84
						l0.2,1l0.2-0.4l0.2,0.8l0.2-0.7l0.2,1.1L250,86l0.5-1l0.2,0.2l0.3-1.7l0.2,0.1l0.2,1l0.2-0.9l0.2,1.2l0.3-2.5l0.2,0.1l0.3-3.4
						l0.2,2l0.2-0.7l0.2,1l0.2,0.2l0.2-1.1l0.2,1.1l0.7-5.2l0.3,3.8l0.2,1l0.5,4.8l0.3,1.3l0.2,0l0.2,0.3l0.2-0.1l0.2-0.2l0.2-0.6
						l0.2,1.1l0.2,0.3l0.2-0.3l0.2,0.9l0.2,0.2l0.2,0.5l0.2,0l0.7,0.9l0.2-0.3l0.2,0.9l0.2-1l0.2,0.6l0.2-0.3l0.2,0.1l0.2,0.3l0.3-1
						l0.2,0.1l0.2-0.3l0.2-0.7l0.2,0.3l0.3-1.4l0.2,0.6l0.2-0.2l0.2,0.1l0.2,0.8l0.2-1.7l0.2,0.9l0.2-0.4l0.2-1.1l0.3-0.4l0.2-1
						l0.3-0.7l0.3,2.3l0.2-1.8l0.2,1l0.5-2.5l0.2,0.1l0.2,0.7l0.2-1.2l0.2,0.7l0.3,0.6l0.2-0.3l0.2,0.8l0.2-1.1l0.3,1.3l0.2,0
						l0.2-0.8l0.2,1.4l0.2-0.1l0.2-1l0.5,2l0.7,1.9l0.2-0.3l0.2,1.2l0.2-1l0.2,0.5l0.3-1.4l0.2,1.1l0.2-0.4l0.3,0.1l0.2-0.3l0.2,0.2
						l0.3-1.5l0.2-0.4l0.2,0.3l0.2,1l0.2-1.2l0.2,1h0.2l0.3,1.4l0.2,0.1l0.2-0.1l0.2-0.8l0.2,1.2l0.2-0.5l0.2,0.7l0.3-1.2l0.2-0.5
						l0.2-0.1l0.2-0.6l0.2,0.5l0.2-0.5l0.2,0.6l0.2-1.5l0.7-1.9l0.2,0.5l0.3,1.4l0.2,0l0.2,1l0.2-0.8l0.3,1.8l0.2,0.1l0.3-0.2
						l0.2-0.9l0.2,0.2l0.2-0.1l0.2-0.3l0.2,0.2l0.2-0.1l0.2-0.3l0.2,0.2l0.2-0.1l0.2-1.1l0.3,0.9l0.2-1.2l0.2,0.9l0.2-1.3l0.3-0.9
						l0.2,0.1l0.2-0.6l0.2,0.3l0.3-2.4l0.2-0.5l0.2-1.6l0.2-3.2l0.2-1.1l0.5-7.8l0.2-1.5l0.3-3.7l0.2-1l0.2,1.3l0.3,5.8l0.2,1
						l0.3,7.6l0.3,5.4l0.3,3.8l0.2,1l0.2,0.2l0.2,1.2l0.2-0.1l0.2,1l0.2-0.6l0.2,0.5l0.2-0.2l0.2,0.1l0.2,1l0.2-0.4l0.3,0.9l0.2-0.6
						l0.2,0.1l0.2-1.7l0.2,0.4l0.2-0.7l0.3-2.3l0.2,1.4l0.3,0.8l0.2-0.3l0.2,0.8l0.2-0.5l0.2,0.3l0.2,1L290,90l0.2,0l0.2,0.4l0.2,0
						l0.2-1l0.2-0.1l0.2,1.4l0.2-0.8l0.5,1.3l0.2-0.9l0.3,0.5l0.2,0.2l0.3-0.5l0.7-5.7l0.3,2.7l0.2-1.7l0.2,2l0.2,0.6l0.2,1.3
						l0.2,0.1l0.2,1.3l0.7,0.8l0.2,0.1l0.2-0.7l0.2,0.1l0.3,0.6l0.2,0.3l0.2-0.4l0.2,0.3l0.2-0.9l0.2-0.2l0.2,0.4l0.2-0.4l0.2,0.5
						l0.2-0.1l0.3,1l0.2,0l0.2,0.3l0.2,0l0.2-0.2l0.3,0.7l0.2,0l0.3-0.8l0.2,0.3l0.2-0.7l0.3,1.3l0.2,0l0.2-0.4l0.3,0.1l0.2,0.7
						l0.2-0.5l0.2,0.3l0.2-0.3l0.2,0l0.2-1.3l0.2,0.5l0.2-0.7l0.2,0.6l0.2,0.1l0.2-0.3l0.2,0l0.2-0.5l0.2,0.3l0.3-2.5l0.2,0.5
						l0.2,0.1l0.2,0.8l0.2-0.2l0.2,0.4l0.2-0.1l0.2,1l0.2,0.3l0.2-0.1l0.2,0.3l0.2,0l0.2,0.3l0.2-0.7l0.2-1.2l0.2,0.3l0.2-0.3
						l0.2,0.1l0.2,0.2l0.2-0.5l0.2,0.1l0.7-0.8l0.2,0.1l0.3,1.3l0.2,0.6l0.3-0.7l0.2,1l0.2,0.3l0.2-0.7l0.2,0.2l0.2-0.5l0.2,0.9
						l0.2-0.1l0.2-0.9l0.2,0l0.2-0.3l0.2,0.2l0.2,0l0.2,0.3l0.2,0.1l0.2,0.4l0.2,0l0.2,0.4l0.2-0.1l0.2-0.4l0.2-0.9l0.2,0l0.2-1.5
						l0.3,1l0.2,0.1l0.3-1.1l0.3,1.1l0.2-0.4l0.2,0l0.2-0.8l0.2,1l0.3-1l0.2,0.4l0.2,0.1l0.2,0.4l0.2-0.7l0.2,0.8l0.2-0.5l0.2,0.9
						l0.2-0.3l0.2,0l0.2,0.6l0.2,0.1l0.2-0.4l0.3,0.5l0.2-0.9l0.2,0.9l0.2-0.7l0.2-0.1l0.2,0.1l0.2,0.4l0.3,0l0.2-0.5l0.2-0.1l0.2-1
						l0.3,0.1l0.2-1.8l0.2,0.6l0.2-0.3l0.2-1.2l0.3,1.9l0.2-0.3l0.2,0.2l0.3,1.3l0.2,0l0.2,1.4l0.2-0.6l0.2,0.9l0.2-0.1l0.2-0.3
						l0.2,0l0.2-0.4l0.2,0.1l0.3-0.4l0.2,0.2l0.2-0.2l0.2,0.6l0.2-0.4l0.2,0.6l0.2-0.1l0.2,0l0.2-0.1l0.2-0.2l0.2,0.5l0.2-0.8l0.3,1
						l0.2-0.1l0.2-0.8l0.2,1.3l0.2-1.4l0.2,0.8l0.2,0.2L327,92l0.5-1.7l0.2,0.1l0.3,0.7l0.2-0.1l0.2,0.1l0.2-0.6l0.2,1l0.2,0.1
						l0.3,0.5l0.2-0.2l0.2-0.5l0.2,0.9l0.3-0.9l0.2,1l0.3-1.5l0.2-0.4l0.3,1.4l0.2-1.4l0.3,1.4l0.2,0.4l0.2-1l0.2,0.9l0.2-0.1
						l0.2,0.1l0.2-1l0.2,0.3l0.2,0.1l0.2,0.7l0.2-0.4l0.2,0l0.2-0.6l0.2,0.8l0.2,0l0.2,0.1l0.2-0.5l0.2,0.1l0.2-1.6l0.2,0l0.2-1.3
						l0.2,0.3l0.2,0.8l0.2,0.1l0.2,0.5l0.2,1.2l0.2-0.2l0.2,1l0.2-0.4l0.2,1.9l0.2-0.4l0.2-0.1l0.2-0.2l0.2,0.1l0.2,0.6l0.3-1
						l0.2,0.5l0.3-0.2l0.2-0.7l0.3,0.6l0.5-2l0.2,0l0.2,1.4l0.3-0.5l0.3,1.1l0.2-0.8l0.5,1.5l0.2-0.1l0.2,0.5l0.2-1l0.2,0l0.2,0.5
						l0.2-0.1l0.2-0.4l0.2-0.1l0.2-0.4l0.2,0.2l0.2-0.5l0.2,0.4l0.2-0.4l0.3,0.5l0.2,0.6l0.3-0.5l0.3,1l0.2,0.1l0.2,0l0.2-0.4
						l0.2,0.9l0.2-0.1l0.2-0.4l0.2,0l0.2,0.3l0.7-1.7l0.2-0.2l0.3,0.7l0.7-1.1l0.2-0.1l0.3,0.3l0.3-0.3l0.2,1.1l0.2-0.8l0.2,0.3
						l0.2-0.1l0.2,0.9l0.3,0l0.2-0.3l0.2,0.2l0.2,0l0.2-0.5l0.5,0.6l0.3,0.1l0.2-1.1l0.2,0.7L352,93l0.2-0.1l0.2,0l0.2-0.4l0.2,0.9
						l0.2-0.9l0.2,0l0.2,1.1l0.2-0.4l0.2,0l0.3,0.9l0.2-0.1l0.3,0.8l0.2,0.3l0.3-0.1l0.2,0.1l0.2-0.5l0.2,0.4l0.2-0.1l0.2,0.2
						l0.3-0.2l0.2-0.9l0.2,0.9l0.2-1l0.3-0.2l0.2,0.1l0.2-0.7l0.2,0.5l0.2-0.1l0.2,0.6l0.5-0.6l0.2-0.4l0.2,0.5L359,93l0.2,1.1
						l0.3-1l0.2-0.2l0.2-0.5L360,93l0.2-0.6l0.3,0.5l0.2,0.7l0.2-0.6l0.2,0.6l0.2-0.9l0.2,1.2l0.3-0.8l0.2-0.9l0.5-0.7l0.3-0.1
						l0.2-0.2l0.2,0.1l0.2-0.1l0.2,0.7l0.2-0.9l0.2,0.3l0.2-0.1l0.2-0.3l0.2,0.2l0.5-1.4l0.5-3.3l0.2,0.1l0.2-1.1l0.2,0.4l0.3-0.7
						l0.5,2.4l0.3,2.1l0.2-0.4l0.3,2.6l0.2-0.7l0.2,1.2l0.2-0.6l0.3,2.3l0.2,0.6l0.2-0.6l0.2,0.2l0.2,0.6l0.2-0.4l0.3,0.4l0.2-0.1
						l0.2-0.3l0.2,0.3l0.2-0.2l0.2-0.9l0.2-0.2l0.3,0.2l0.2-0.1l0.2-0.5l0.3,0.5l0.2,0l0.2,0.7l0.2-1.1l0.2,0.6l0.3-0.4l0.3-0.3
						l0.2-0.7l0.5,0.5l0.5,1.3l0.3,0.5l0.2,0.7l0.2-0.6l0.3,1.6l0.2-0.7l0.2,0.6l0.2,0.1l0.2-0.3l0.2,0.8l0.2-0.9l0.2,0.5l0.2-0.3
						l0.2,0.3l0.2-0.1l0.2-0.3l0.2,0.7l0.2-0.1l0.2,0.4l0.2-0.8l0.2,0.4l0.2-0.2l0.2,0.2l0.2,0.4l0.3-0.4l0.2,0.2l0.2-0.5l0.3,0.5
						l0.2-0.4l0.2,0.2l0.2-0.4l0.2,0.4l0.2-0.7l0.2,0l0.2-0.3l0.2,0.2l0.2-0.5l0.2,0.9l0.5-0.7l0.2-0.1l0.3,0.4l0.2-0.2l0.2,0.7
						l0.2-0.7h0.3l0.3,0.6l0.2-0.5l0.2-0.1l0.2,0.1l0.2-0.5l0.2,0.2l0.3-0.2l0.2,0.1l0.3-0.5l0.3,0.4l0.2,0.3l0.2,0.8l0.2-0.7
						l0.3,0.2l0.2,0l0.2,0.2l0.2-0.2l0.2,0.2l0.3-1.3l0.2,0.8l0.2-0.2l0.2,0.6l0.2,0.1l0.2-0.1l0.2,0.1l0.2,0.2L389,96l0.3,0.2
						l0.2-0.1l0.2,0.5l0.2,0.1l0.2,0l0.2,0.7l0.2-1.1l0.3,0.7l0.2-0.4l0.2,0.2l0.2-0.1l0.2,0.2l0.2-0.5l0.2,0l0.3-0.5l0.2-0.9
						l0.2-0.1l0.2,0.3l0.2-0.4l0.2,0.6l0.2-0.5l0.3,0.9l0.2-1l0.3,0.7l0.2-0.5l0.2,0.7l0.2-1.1l0.2,0.1l0.2-0.4l0.3,1.4l0.2-0.4
						l0.2-0.9l0.2,0l0.2,0.7l0.2,0l0.2,1l0.2-0.7l0.2,0.8l0.2-0.3l0.3,0.6l0.2-0.8l0.2,0.9l0.2-1l0.2,0.5l0.5-1l0.2,1.1l0.2-0.5
						l0.2,0.5l0.2,0.1l0.2-0.9l0.2,1l0.2,0l0.2,0.2l0.3,0.6l0.2-0.6l0.2,0.2l0.2-0.5l0.2,0l0.2-0.2l0.2,0.1l0.2-0.9l0.2,0.8l0.2-0.5
						h0.2l0.2,0.2l0.2-0.1l0.2,0.5l0.5-0.6l0.2,0.5l0.2,0.1l0.2,0.5l0.2-0.6l0.2,0l0.2,0.7l0.2,0l0.2-0.4l0.2,0l0.2-0.8l0.2,0.6
						l0.2,0.1l0.2-0.8l0.3,0.5l0.2-0.4l0.3-0.3l0.3,0.9l0.3-1.1l0.2,1.1l0.2-0.3l0.2-0.9l0.3,0.7l0.2,0.5l0.2-0.5l0.2,0.6l0.2,0.2
						l0.2-0.2l0.3,0.5l0.2-0.5l0.2,0.8l0.2-0.6l0.3,0l0.2-0.2L410,96l0.3,0.8l0.2-1l0.2,0.3l0.2-0.3l0.2,0.6l0.2-0.5l0.2,0.3
						l0.2-0.7l0.2-0.1l0.2,0.3l0.3-0.2l0.2,0.4l0.2-0.4l0.5,0l0.2,0.5l0.3-1.2l0.2,0.4l0.2-1.1l0.2,0l0.2,0.1l0.3-0.8l0.2,0.4
						L415,93l0.2-0.1l0.2-0.3l0.2-1.4l0.3,0.4l0.2-0.9l0.2-0.2l0.2,0.6l0.2-0.3l0.2,0.1l0.2-0.8l0.2,0.5l0.3,0.1l0.3,0.8l0.2-0.4
						l0.3,0.6l0.2-0.4l0.3,0.7l0.2-0.5l0.2,1.4l0.3,0l0.3,1l0.2,0l0.2-0.8l0.2,1.7l0.2-1.7l0.2,1l0.3-1l0.2-0.1l0.2,0.4l0.2,1
						l0.2-0.7l0.2,0.4l0.2-0.2l0.2,0.6l0.2-0.4l0.2,0.5l0.3-1l0.2,0.1l0.2,0.7l0.3-1l0.2,1l0.3-1.1l0.2-0.1l0.2-0.3l0.2,0.4l0.2,0
						l0.2-0.7l0.2,0.6l0.2,0.1l0.2-1.5l0.3,1.1l0.2-0.3l0.2,0.1l0.3,0.8l0.7,1.2l0.2-0.7l0.2,0.4l0.2-0.1l0.2,0.6l0.2,0.2l0.2,0
						l0.2-0.6l0.3,0.2l0.2,0l0.2,0.5l0.2,0l0.2,0.3l0.2-0.4l0.2,0.7l0.2,0.2l0.2,0.7l0.2-0.4l0.7,1.2l0.2-0.1l0.2,0.2l0.2-0.3
						l0.2,0.1l0.2,0.4l0.3-0.4l0.2-0.2l0.2,0.3l0.3-0.5l0.2,0.4l0.3-0.3l0.2-0.1L434,97l0.2-0.4l0.5-0.2l0.2-0.6l0.2-0.1l0.3-1.7
						l0.2,0.2l0.2-0.6l0.2-1l0.2,1l0.5,0.4l0.2-0.1l0.2,0.1l0.2,0.9l0.2-0.1l0.2,0.6l0.3,0.4l0.2-0.2l0.2,0.2l0.2-0.7l0.2,0l0.2,0.1
						l0.2-0.1l0.2,0.1l0.2-0.3l0.2,0.6l0.3-0.4l0.2,0.1l0.3,0.7l0.3,0l0.2,0.1l0.2,0.7l0.2,0.1l0.2-0.5l0.2,0.6l0.2,0.2l0.2-0.6
						l0.2,0.2l0.3,0.8l0.2,0.1l0.2-0.3l0.2,0.3l0.2-0.5l0.5,0.5l0.2-0.5l0.2,0l0,0"/>
				</g>
			</g>
			<g id="line2d_33">
				<g>
					<defs>
						<rect id="SVGID_00000169517006717727887820000009174860588131163579_" x="48.9" y="22.3" width="395.1" height="163.1"/>
					</defs>
					<clipPath id="SVGID_00000096749196797602217990000000898705780672086668_">
						<use xlink:href="#SVGID_00000169517006717727887820000009174860588131163579_"  style="overflow:visible;"/>
					</clipPath>
					
						<path style="clip-path:url(#SVGID_00000096749196797602217990000000898705780672086668_);fill:none;stroke:#808080;stroke-width:0.5;stroke-linejoin:round;stroke-dasharray:0.5,0.825;" d="
						M48.9,103.9h395.1"/>
				</g>
			</g>
			<g id="patch_3">
				<path class="st9" d="M48.9,185.4V22.3"/>
			</g>
			<g id="patch_4">
				<path class="st9" d="M443.9,185.4V22.3"/>
			</g>
			<g id="patch_5">
				<path class="st9" d="M48.9,185.4h395.1"/>
			</g>
			<g id="patch_6">
				<path class="st9" d="M48.9,22.3h395.1"/>
			</g>
			<g id="text_14">
				<g transform="translate(224.241375 16.318125)scale(0.12 -0.12)">
					<g>
						<path id="DejaVuSans-41" d="M34.2,63.2L20.8,26.9h26.8L34.2,63.2z M28.6,72.9h11.2L67.6,0H57.3l-6.6,18.7H17.8L11.2,0H0.8
							L28.6,72.9z"/>
					</g>
					<g>
						<path id="DejaVuSans-6c" d="M77.8,76h9V0h-9V76z"/>
					</g>
					<g>
						<path id="DejaVuSans-2d" d="M101.1,31.4h26.3v-8h-26.3V31.4z"/>
					</g>
					<g>
						<path id="DejaVuSans-61" d="M166.6,27.5c-7.3,0-12.3-0.8-15.1-2.5c-2.8-1.7-4.2-4.5-4.2-8.5c0-3.2,1.1-5.7,3.2-7.6
							c2.1-1.9,5-2.8,8.6-2.8c5,0,9,1.8,12,5.3c3,3.5,4.5,8.2,4.5,14.1v2H166.6z M184.5,31.2V0h-9v8.3c-2.1-3.3-4.6-5.8-7.7-7.3
							s-6.8-2.4-11.2-2.4c-5.6,0-10,1.6-13.4,4.7c-3.3,3.1-5,7.4-5,12.6c0,6.1,2.1,10.8,6.2,13.9c4.1,3.1,10.3,4.7,18.4,4.7h12.6
							v0.9c0,4.1-1.4,7.3-4.1,9.6s-6.5,3.4-11.5,3.4c-3.1,0-6.2-0.4-9.1-1.1c-3-0.8-5.8-1.9-8.5-3.4v8.3c3.3,1.3,6.5,2.2,9.6,2.8
							c3.1,0.6,6.1,1,9,1c7.9,0,13.8-2.1,17.7-6.2C182.5,45.8,184.5,39.5,184.5,31.2z"/>
					</g>
					<g>
						<path id="DejaVuSans-78" d="M248.4,54.7l-19.8-26.6L249.5,0h-10.6l-15.9,21.5L207,0h-10.6l21.2,28.6l-19.4,26.1h10.6
							l14.5-19.5l14.5,19.5H248.4z"/>
					</g>
					<g>
						<path id="DejaVuSans-69_00000133526620849054600080000004056488072074715063_" d="M262.2,54.7h9V0h-9V54.7z M262.2,76h9V64.6
							h-9V76z"/>
					</g>
					<g>
						<path id="DejaVuSans-61_00000026165717512803710300000006645660894360463766_" d="M314.8,27.5c-7.3,0-12.3-0.8-15.1-2.5
							c-2.8-1.7-4.2-4.5-4.2-8.5c0-3.2,1.1-5.7,3.2-7.6c2.1-1.9,5-2.8,8.6-2.8c5,0,9,1.8,12,5.3c3,3.5,4.5,8.2,4.5,14.1v2H314.8z
							 M332.7,31.2V0h-9v8.3c-2.1-3.3-4.6-5.8-7.7-7.3s-6.8-2.4-11.2-2.4c-5.6,0-10,1.6-13.4,4.7c-3.3,3.1-5,7.4-5,12.6
							c0,6.1,2.1,10.8,6.2,13.9c4.1,3.1,10.3,4.7,18.4,4.7h12.6v0.9c0,4.1-1.4,7.3-4.1,9.6s-6.5,3.4-11.5,3.4
							c-3.1,0-6.2-0.4-9.1-1.1c-3-0.8-5.8-1.9-8.5-3.4v8.3c3.3,1.3,6.5,2.2,9.6,2.8c3.1,0.6,6.1,1,9,1c7.9,0,13.8-2.1,17.7-6.2
							C330.8,45.8,332.7,39.5,332.7,31.2z"/>
					</g>
					<g>
						<path id="DejaVuSans-6c_00000127009859561258137530000003696160701129438395_" d="M351.2,76h9V0h-9V76z"/>
					</g>
				</g>
			</g>
			<g id="legend_1">
				<g id="patch_7">
					<path class="st10" d="M367.6,59.7h69.4c1.3,0,2-0.7,2-2V29.3c0-1.3-0.7-2-2-2h-69.4c-1.3,0-2,0.7-2,2v28.4
						C365.6,59,366.2,59.7,367.6,59.7z"/>
				</g>
				<g id="line2d_34">
					<path class="st11" d="M369.6,35.4h10h10"/>
				</g>
				<g id="text_15">
					<g transform="translate(397.569937 38.916562)scale(0.1 -0.1)">
						<g>
							<path id="DejaVuSans-72_00000104679411109977249640000009178174701489802118_" d="M41.1,46.3c-1,0.6-2.1,1-3.3,1.3
								c-1.2,0.3-2.5,0.4-3.9,0.4c-5.1,0-9-1.7-11.7-5s-4.1-8-4.1-14.2V0h-9v54.7h9v-8.5c1.9,3.3,4.4,5.8,7.4,7.4
								c3,1.6,6.7,2.4,11,2.4c0.6,0,1.3,0,2-0.1c0.8-0.1,1.6-0.2,2.5-0.4L41.1,46.3z"/>
						</g>
						<g>
							<path id="DejaVuSans-65_00000128478110267402077580000008789068953825656192_" d="M95.1,29.6v-4.4H53.8
								c0.4-6.2,2.3-10.9,5.6-14.1s8-4.9,13.9-4.9c3.4,0,6.8,0.4,10,1.3c3.2,0.8,6.5,2.1,9.7,3.8V2.8c-3.2-1.4-6.5-2.4-9.9-3.1
								c-3.4-0.7-6.8-1.1-10.3-1.1C64-1.4,57.1,1.1,52,6.2c-5.1,5.1-7.6,12-7.6,20.6c0,8.9,2.4,16,7.2,21.3C56.5,53.4,63,56,71.2,56
								c7.4,0,13.2-2.4,17.5-7.1C92.9,44.2,95.1,37.7,95.1,29.6z M86.1,32.2C86,37.1,84.6,41.1,82,44c-2.7,2.9-6.2,4.4-10.7,4.4
								c-5,0-9-1.4-12-4.2s-4.7-6.8-5.2-12L86.1,32.2z"/>
						</g>
						<g>
							<path id="DejaVuSans-70" d="M118.5,8.2v-29h-9v75.5h9v-8.3c1.9,3.2,4.3,5.7,7.2,7.2c2.9,1.6,6.3,2.4,10.3,2.4
								c6.6,0,12-2.6,16.2-7.9c4.2-5.3,6.2-12.2,6.2-20.8s-2.1-15.5-6.2-20.8c-4.1-5.3-9.5-7.9-16.2-7.9c-4,0-7.4,0.8-10.3,2.4
								C122.8,2.5,120.4,5,118.5,8.2z M149.1,27.3c0,6.6-1.4,11.8-4.1,15.5s-6.5,5.6-11.2,5.6c-4.8,0-8.5-1.9-11.2-5.6
								s-4.1-8.9-4.1-15.5s1.4-11.8,4.1-15.5s6.5-5.6,11.2-5.6c4.8,0,8.5,1.9,11.2,5.6S149.1,20.7,149.1,27.3z"/>
						</g>
						<g>
							<path id="DejaVuSans-65_00000111191824715975977700000005007629596536279996_" d="M220.1,29.6v-4.4h-41.3
								c0.4-6.2,2.3-10.9,5.6-14.1c3.3-3.2,8-4.9,13.9-4.9c3.4,0,6.8,0.4,10,1.3c3.2,0.8,6.5,2.1,9.7,3.8V2.8
								c-3.2-1.4-6.5-2.4-9.9-3.1c-3.4-0.7-6.8-1.1-10.3-1.1c-8.7,0-15.6,2.5-20.7,7.6c-5.1,5.1-7.6,12-7.6,20.6
								c0,8.9,2.4,16,7.2,21.3c4.8,5.3,11.4,7.9,19.6,7.9c7.4,0,13.2-2.4,17.5-7.1C217.9,44.2,220.1,37.7,220.1,29.6z M211.1,32.2
								c-0.1,4.9-1.4,8.8-4.1,11.8c-2.7,2.9-6.2,4.4-10.7,4.4c-5,0-9-1.4-12-4.2c-3-2.8-4.7-6.8-5.2-12L211.1,32.2z"/>
						</g>
						<g>
							<path id="DejaVuSans-61_00000060002684912037104920000012767780736614300593_" d="M259.7,27.5c-7.3,0-12.3-0.8-15.1-2.5
								c-2.8-1.7-4.2-4.5-4.2-8.5c0-3.2,1.1-5.7,3.2-7.6c2.1-1.9,5-2.8,8.6-2.8c5,0,9,1.8,12,5.3c3,3.5,4.5,8.2,4.5,14.1v2H259.7z
								 M277.6,31.2V0h-9v8.3C266.6,5,264,2.5,260.9,1s-6.8-2.4-11.2-2.4c-5.6,0-10,1.6-13.4,4.7c-3.3,3.1-5,7.4-5,12.6
								c0,6.1,2.1,10.8,6.2,13.9c4.1,3.1,10.3,4.7,18.4,4.7h12.6v0.9c0,4.1-1.4,7.3-4.1,9.6s-6.5,3.4-11.5,3.4
								c-3.1,0-6.2-0.4-9.1-1.1c-3-0.8-5.8-1.9-8.5-3.4v8.3c3.3,1.3,6.5,2.2,9.6,2.8c3.1,0.6,6.1,1,9,1c7.9,0,13.8-2.1,17.7-6.2
								C275.6,45.8,277.6,39.5,277.6,31.2z"/>
						</g>
						<g>
							<path id="DejaVuSans-74_00000096747886925941176300000013131907067684725120_" d="M305,70.2V54.7h18.5v-7H305V18
								c0-4.5,0.6-7.3,1.8-8.6s3.7-1.9,7.5-1.9h9.2V0h-9.2c-6.9,0-11.7,1.3-14.4,3.9c-2.6,2.6-4,7.3-4,14.1v29.7h-6.6v7h6.6v15.5
								H305z"/>
						</g>
					</g>
				</g>
				<g id="line2d_35">
					<path class="st12" d="M369.6,50.1h10h10"/>
				</g>
				<g id="text_16">
					<g transform="translate(397.569937 53.594687)scale(0.1 -0.1)">
						<g>
							<path id="DejaVuSans-6f" d="M30.6,48.4c-4.8,0-8.6-1.9-11.4-5.6S15,33.8,15,27.3s1.4-11.7,4.2-15.5c2.8-3.8,6.6-5.6,11.5-5.6
								c4.8,0,8.6,1.9,11.4,5.7c2.8,3.8,4.2,8.9,4.2,15.4c0,6.5-1.4,11.6-4.2,15.4C39.2,46.5,35.4,48.4,30.6,48.4z M30.6,56
								c7.8,0,13.9-2.5,18.4-7.6c4.5-5.1,6.7-12.1,6.7-21.1c0-8.9-2.2-16-6.7-21.1c-4.5-5.1-10.6-7.6-18.4-7.6
								c-7.8,0-14,2.5-18.4,7.6c-4.4,5.1-6.7,12.1-6.7,21.1c0,9,2.2,16,6.7,21.1C16.6,53.5,22.8,56,30.6,56z"/>
						</g>
						<g>
							<path id="DejaVuSans-72_00000039829925342473136280000012414553815103744185_" d="M102.3,46.3c-1,0.6-2.1,1-3.3,1.3
								c-1.2,0.3-2.5,0.4-3.9,0.4c-5.1,0-9-1.7-11.7-5s-4.1-8-4.1-14.2V0h-9v54.7h9v-8.5c1.9,3.3,4.4,5.8,7.4,7.4
								c3,1.6,6.7,2.4,11,2.4c0.6,0,1.3,0,2-0.1c0.8-0.1,1.6-0.2,2.5-0.4L102.3,46.3z"/>
						</g>
						<g>
							<path id="DejaVuSans-69_00000108296245579803144220000010919029487630619307_" d="M111.7,54.7h9V0h-9V54.7z M111.7,76h9V64.6
								h-9V76z"/>
						</g>
						<g>
							<path id="DejaVuSans-67_00000159445529141331727650000003223037121260239770_" d="M175.5,28c0,6.5-1.3,11.6-4,15.1
								c-2.7,3.6-6.4,5.4-11.3,5.4c-4.8,0-8.6-1.8-11.2-5.4c-2.7-3.6-4-8.6-4-15.1c0-6.5,1.3-11.5,4-15.1s6.4-5.4,11.2-5.4
								c4.9,0,8.6,1.8,11.3,5.4C174.1,16.5,175.5,21.5,175.5,28z M184.5,6.8c0-9.3-2.1-16.2-6.2-20.8c-4.1-4.5-10.5-6.8-19-6.8
								c-3.2,0-6.1,0.2-8.9,0.7c-2.8,0.5-5.5,1.2-8.2,2.2v8.7c2.6-1.4,5.2-2.5,7.8-3.2c2.6-0.7,5.2-1,7.9-1c5.9,0,10.3,1.5,13.2,4.6
								c2.9,3.1,4.4,7.7,4.4,13.9v4.5c-1.9-3.2-4.2-5.6-7.1-7.2C165.5,0.8,162,0,158,0c-6.7,0-12.1,2.6-16.2,7.7
								c-4.1,5.1-6.2,11.9-6.2,20.3c0,8.5,2.1,15.2,6.2,20.3c4.1,5.1,9.5,7.7,16.2,7.7c4,0,7.5-0.8,10.4-2.4c2.9-1.6,5.3-4,7.1-7.2
								v8.3h9V6.8z"/>
						</g>
						<g>
							<path id="DejaVuSans-69_00000016764786618058486590000000088878812701401255_" d="M203,54.7h9V0h-9V54.7z M203,76h9V64.6h-9
								V76z"/>
						</g>
						<g>
							<path id="DejaVuSans-6e_00000170255615330141926230000014842412338369863083_" d="M276.2,33V0h-9v32.7c0,5.2-1,9-3,11.6
								c-2,2.6-5,3.9-9.1,3.9c-4.9,0-8.7-1.5-11.5-4.6c-2.8-3.1-4.2-7.3-4.2-12.6V0h-9v54.7h9v-8.5c2.2,3.3,4.7,5.8,7.6,7.4
								c2.9,1.6,6.3,2.4,10.1,2.4c6.3,0,11-1.9,14.2-5.8C274.6,46.3,276.2,40.6,276.2,33z"/>
						</g>
						<g>
							<path id="DejaVuSans-61_00000108992540053058823900000008225480123215798719_" d="M319,27.5c-7.3,0-12.3-0.8-15.1-2.5
								c-2.8-1.7-4.2-4.5-4.2-8.5c0-3.2,1.1-5.7,3.2-7.6c2.1-1.9,5-2.8,8.6-2.8c5,0,9,1.8,12,5.3c3,3.5,4.5,8.2,4.5,14.1v2H319z
								 M336.9,31.2V0h-9v8.3c-2.1-3.3-4.6-5.8-7.7-7.3s-6.8-2.4-11.2-2.4c-5.6,0-10,1.6-13.4,4.7c-3.3,3.1-5,7.4-5,12.6
								c0,6.1,2.1,10.8,6.2,13.9c4.1,3.1,10.3,4.7,18.4,4.7h12.6v0.9c0,4.1-1.4,7.3-4.1,9.6s-6.5,3.4-11.5,3.4
								c-3.1,0-6.2-0.4-9.1-1.1c-3-0.8-5.8-1.9-8.5-3.4v8.3c3.3,1.3,6.5,2.2,9.6,2.8c3.1,0.6,6.1,1,9,1c7.9,0,13.8-2.1,17.7-6.2
								C335,45.7,336.9,39.5,336.9,31.2z"/>
						</g>
						<g>
							<path id="DejaVuSans-6c_00000008116525520884772630000017669477527454253218_" d="M355.4,76h9V0h-9V76z"/>
						</g>
					</g>
				</g>
			</g>
		</g>
	</g>
</g>
</svg>
