<?xml version="1.0" encoding="utf-8" standalone="no"?>
<!DOCTYPE svg PUBLIC "-//W3C//DTD SVG 1.1//EN"
  "http://www.w3.org/Graphics/SVG/1.1/DTD/svg11.dtd">
<svg xmlns:xlink="http://www.w3.org/1999/xlink" width="198.010312pt" height="177.752813pt" viewBox="0 0 198.010312 177.752813" xmlns="http://www.w3.org/2000/svg" version="1.1">
 <metadata>
  <rdf:RDF xmlns:dc="http://purl.org/dc/elements/1.1/" xmlns:cc="http://creativecommons.org/ns#" xmlns:rdf="http://www.w3.org/1999/02/22-rdf-syntax-ns#">
   <cc:Work>
    <dc:type rdf:resource="http://purl.org/dc/dcmitype/StillImage"/>
    <dc:date>2023-02-25T15:25:05.258983</dc:date>
    <dc:format>image/svg+xml</dc:format>
    <dc:creator>
     <cc:Agent>
      <dc:title>Matplotlib v3.5.2, https://matplotlib.org/</dc:title>
     </cc:Agent>
    </dc:creator>
   </cc:Work>
  </rdf:RDF>
 </metadata>
 <defs>
  <style type="text/css">*{stroke-linejoin: round; stroke-linecap: butt}</style>
 </defs>
 <g id="figure_1">
  <g id="patch_1">
   <path d="M 0 177.752813 
L 198.010312 177.752813 
L 198.010312 0 
L 0 0 
z
" style="fill: #ffffff"/>
  </g>
  <g id="axes_1">
   <g id="patch_2">
    <path d="M 23.410313 143.1 
L 190.810313 143.1 
L 190.810313 7.2 
L 23.410313 7.2 
z
" style="fill: #ffffff"/>
   </g>
   <g id="matplotlib.axis_1">
    <g id="xtick_1">
     <g id="line2d_1">
      <defs>
       <path id="m099c6ff823" d="M 0 0 
L 0 3.5 
" style="stroke: #000000; stroke-width: 0.8"/>
      </defs>
      <g>
       <use xlink:href="#m099c6ff823" x="37.360313" y="143.1" style="stroke: #000000; stroke-width: 0.8"/>
      </g>
     </g>
     <g id="text_1">
      <!-- 10 -->
      <g transform="translate(32.270313 156.17875)scale(0.08 -0.08)">
       <defs>
        <path id="DejaVuSans-31" d="M 794 531 
L 1825 531 
L 1825 4091 
L 703 3866 
L 703 4441 
L 1819 4666 
L 2450 4666 
L 2450 531 
L 3481 531 
L 3481 0 
L 794 0 
L 794 531 
z
" transform="scale(0.015625)"/>
        <path id="DejaVuSans-30" d="M 2034 4250 
Q 1547 4250 1301 3770 
Q 1056 3291 1056 2328 
Q 1056 1369 1301 889 
Q 1547 409 2034 409 
Q 2525 409 2770 889 
Q 3016 1369 3016 2328 
Q 3016 3291 2770 3770 
Q 2525 4250 2034 4250 
z
M 2034 4750 
Q 2819 4750 3233 4129 
Q 3647 3509 3647 2328 
Q 3647 1150 3233 529 
Q 2819 -91 2034 -91 
Q 1250 -91 836 529 
Q 422 1150 422 2328 
Q 422 3509 836 4129 
Q 1250 4750 2034 4750 
z
" transform="scale(0.015625)"/>
       </defs>
       <use xlink:href="#DejaVuSans-31"/>
       <use xlink:href="#DejaVuSans-30" x="63.623047"/>
      </g>
     </g>
    </g>
    <g id="xtick_2">
     <g id="line2d_2">
      <g>
       <use xlink:href="#m099c6ff823" x="65.260312" y="143.1" style="stroke: #000000; stroke-width: 0.8"/>
      </g>
     </g>
     <g id="text_2">
      <!-- 20 -->
      <g transform="translate(60.170312 156.17875)scale(0.08 -0.08)">
       <defs>
        <path id="DejaVuSans-32" d="M 1228 531 
L 3431 531 
L 3431 0 
L 469 0 
L 469 531 
Q 828 903 1448 1529 
Q 2069 2156 2228 2338 
Q 2531 2678 2651 2914 
Q 2772 3150 2772 3378 
Q 2772 3750 2511 3984 
Q 2250 4219 1831 4219 
Q 1534 4219 1204 4116 
Q 875 4013 500 3803 
L 500 4441 
Q 881 4594 1212 4672 
Q 1544 4750 1819 4750 
Q 2544 4750 2975 4387 
Q 3406 4025 3406 3419 
Q 3406 3131 3298 2873 
Q 3191 2616 2906 2266 
Q 2828 2175 2409 1742 
Q 1991 1309 1228 531 
z
" transform="scale(0.015625)"/>
       </defs>
       <use xlink:href="#DejaVuSans-32"/>
       <use xlink:href="#DejaVuSans-30" x="63.623047"/>
      </g>
     </g>
    </g>
    <g id="xtick_3">
     <g id="line2d_3">
      <g>
       <use xlink:href="#m099c6ff823" x="93.160313" y="143.1" style="stroke: #000000; stroke-width: 0.8"/>
      </g>
     </g>
     <g id="text_3">
      <!-- 30 -->
      <g transform="translate(88.070312 156.17875)scale(0.08 -0.08)">
       <defs>
        <path id="DejaVuSans-33" d="M 2597 2516 
Q 3050 2419 3304 2112 
Q 3559 1806 3559 1356 
Q 3559 666 3084 287 
Q 2609 -91 1734 -91 
Q 1441 -91 1130 -33 
Q 819 25 488 141 
L 488 750 
Q 750 597 1062 519 
Q 1375 441 1716 441 
Q 2309 441 2620 675 
Q 2931 909 2931 1356 
Q 2931 1769 2642 2001 
Q 2353 2234 1838 2234 
L 1294 2234 
L 1294 2753 
L 1863 2753 
Q 2328 2753 2575 2939 
Q 2822 3125 2822 3475 
Q 2822 3834 2567 4026 
Q 2313 4219 1838 4219 
Q 1578 4219 1281 4162 
Q 984 4106 628 3988 
L 628 4550 
Q 988 4650 1302 4700 
Q 1616 4750 1894 4750 
Q 2613 4750 3031 4423 
Q 3450 4097 3450 3541 
Q 3450 3153 3228 2886 
Q 3006 2619 2597 2516 
z
" transform="scale(0.015625)"/>
       </defs>
       <use xlink:href="#DejaVuSans-33"/>
       <use xlink:href="#DejaVuSans-30" x="63.623047"/>
      </g>
     </g>
    </g>
    <g id="xtick_4">
     <g id="line2d_4">
      <g>
       <use xlink:href="#m099c6ff823" x="121.060312" y="143.1" style="stroke: #000000; stroke-width: 0.8"/>
      </g>
     </g>
     <g id="text_4">
      <!-- 40 -->
      <g transform="translate(115.970312 156.17875)scale(0.08 -0.08)">
       <defs>
        <path id="DejaVuSans-34" d="M 2419 4116 
L 825 1625 
L 2419 1625 
L 2419 4116 
z
M 2253 4666 
L 3047 4666 
L 3047 1625 
L 3713 1625 
L 3713 1100 
L 3047 1100 
L 3047 0 
L 2419 0 
L 2419 1100 
L 313 1100 
L 313 1709 
L 2253 4666 
z
" transform="scale(0.015625)"/>
       </defs>
       <use xlink:href="#DejaVuSans-34"/>
       <use xlink:href="#DejaVuSans-30" x="63.623047"/>
      </g>
     </g>
    </g>
    <g id="xtick_5">
     <g id="line2d_5">
      <g>
       <use xlink:href="#m099c6ff823" x="148.960313" y="143.1" style="stroke: #000000; stroke-width: 0.8"/>
      </g>
     </g>
     <g id="text_5">
      <!-- 50 -->
      <g transform="translate(143.870313 156.17875)scale(0.08 -0.08)">
       <defs>
        <path id="DejaVuSans-35" d="M 691 4666 
L 3169 4666 
L 3169 4134 
L 1269 4134 
L 1269 2991 
Q 1406 3038 1543 3061 
Q 1681 3084 1819 3084 
Q 2600 3084 3056 2656 
Q 3513 2228 3513 1497 
Q 3513 744 3044 326 
Q 2575 -91 1722 -91 
Q 1428 -91 1123 -41 
Q 819 9 494 109 
L 494 744 
Q 775 591 1075 516 
Q 1375 441 1709 441 
Q 2250 441 2565 725 
Q 2881 1009 2881 1497 
Q 2881 1984 2565 2268 
Q 2250 2553 1709 2553 
Q 1456 2553 1204 2497 
Q 953 2441 691 2322 
L 691 4666 
z
" transform="scale(0.015625)"/>
       </defs>
       <use xlink:href="#DejaVuSans-35"/>
       <use xlink:href="#DejaVuSans-30" x="63.623047"/>
      </g>
     </g>
    </g>
    <g id="xtick_6">
     <g id="line2d_6">
      <g>
       <use xlink:href="#m099c6ff823" x="176.860313" y="143.1" style="stroke: #000000; stroke-width: 0.8"/>
      </g>
     </g>
     <g id="text_6">
      <!-- 60 -->
      <g transform="translate(171.770313 156.17875)scale(0.08 -0.08)">
       <defs>
        <path id="DejaVuSans-36" d="M 2113 2584 
Q 1688 2584 1439 2293 
Q 1191 2003 1191 1497 
Q 1191 994 1439 701 
Q 1688 409 2113 409 
Q 2538 409 2786 701 
Q 3034 994 3034 1497 
Q 3034 2003 2786 2293 
Q 2538 2584 2113 2584 
z
M 3366 4563 
L 3366 3988 
Q 3128 4100 2886 4159 
Q 2644 4219 2406 4219 
Q 1781 4219 1451 3797 
Q 1122 3375 1075 2522 
Q 1259 2794 1537 2939 
Q 1816 3084 2150 3084 
Q 2853 3084 3261 2657 
Q 3669 2231 3669 1497 
Q 3669 778 3244 343 
Q 2819 -91 2113 -91 
Q 1303 -91 875 529 
Q 447 1150 447 2328 
Q 447 3434 972 4092 
Q 1497 4750 2381 4750 
Q 2619 4750 2861 4703 
Q 3103 4656 3366 4563 
z
" transform="scale(0.015625)"/>
       </defs>
       <use xlink:href="#DejaVuSans-36"/>
       <use xlink:href="#DejaVuSans-30" x="63.623047"/>
      </g>
     </g>
    </g>
    <g id="xtick_7">
     <g id="line2d_7">
      <defs>
       <path id="mb63d11f660" d="M 0 0 
L 0 2 
" style="stroke: #000000; stroke-width: 0.6"/>
      </defs>
      <g>
       <use xlink:href="#mb63d11f660" x="23.410313" y="143.1" style="stroke: #000000; stroke-width: 0.6"/>
      </g>
     </g>
    </g>
    <g id="xtick_8">
     <g id="line2d_8">
      <g>
       <use xlink:href="#mb63d11f660" x="30.385313" y="143.1" style="stroke: #000000; stroke-width: 0.6"/>
      </g>
     </g>
    </g>
    <g id="xtick_9">
     <g id="line2d_9">
      <g>
       <use xlink:href="#mb63d11f660" x="44.335313" y="143.1" style="stroke: #000000; stroke-width: 0.6"/>
      </g>
     </g>
    </g>
    <g id="xtick_10">
     <g id="line2d_10">
      <g>
       <use xlink:href="#mb63d11f660" x="51.310313" y="143.1" style="stroke: #000000; stroke-width: 0.6"/>
      </g>
     </g>
    </g>
    <g id="xtick_11">
     <g id="line2d_11">
      <g>
       <use xlink:href="#mb63d11f660" x="58.285313" y="143.1" style="stroke: #000000; stroke-width: 0.6"/>
      </g>
     </g>
    </g>
    <g id="xtick_12">
     <g id="line2d_12">
      <g>
       <use xlink:href="#mb63d11f660" x="72.235313" y="143.1" style="stroke: #000000; stroke-width: 0.6"/>
      </g>
     </g>
    </g>
    <g id="xtick_13">
     <g id="line2d_13">
      <g>
       <use xlink:href="#mb63d11f660" x="79.210313" y="143.1" style="stroke: #000000; stroke-width: 0.6"/>
      </g>
     </g>
    </g>
    <g id="xtick_14">
     <g id="line2d_14">
      <g>
       <use xlink:href="#mb63d11f660" x="86.185312" y="143.1" style="stroke: #000000; stroke-width: 0.6"/>
      </g>
     </g>
    </g>
    <g id="xtick_15">
     <g id="line2d_15">
      <g>
       <use xlink:href="#mb63d11f660" x="100.135312" y="143.1" style="stroke: #000000; stroke-width: 0.6"/>
      </g>
     </g>
    </g>
    <g id="xtick_16">
     <g id="line2d_16">
      <g>
       <use xlink:href="#mb63d11f660" x="107.110313" y="143.1" style="stroke: #000000; stroke-width: 0.6"/>
      </g>
     </g>
    </g>
    <g id="xtick_17">
     <g id="line2d_17">
      <g>
       <use xlink:href="#mb63d11f660" x="114.085313" y="143.1" style="stroke: #000000; stroke-width: 0.6"/>
      </g>
     </g>
    </g>
    <g id="xtick_18">
     <g id="line2d_18">
      <g>
       <use xlink:href="#mb63d11f660" x="128.035313" y="143.1" style="stroke: #000000; stroke-width: 0.6"/>
      </g>
     </g>
    </g>
    <g id="xtick_19">
     <g id="line2d_19">
      <g>
       <use xlink:href="#mb63d11f660" x="135.010312" y="143.1" style="stroke: #000000; stroke-width: 0.6"/>
      </g>
     </g>
    </g>
    <g id="xtick_20">
     <g id="line2d_20">
      <g>
       <use xlink:href="#mb63d11f660" x="141.985313" y="143.1" style="stroke: #000000; stroke-width: 0.6"/>
      </g>
     </g>
    </g>
    <g id="xtick_21">
     <g id="line2d_21">
      <g>
       <use xlink:href="#mb63d11f660" x="155.935313" y="143.1" style="stroke: #000000; stroke-width: 0.6"/>
      </g>
     </g>
    </g>
    <g id="xtick_22">
     <g id="line2d_22">
      <g>
       <use xlink:href="#mb63d11f660" x="162.910313" y="143.1" style="stroke: #000000; stroke-width: 0.6"/>
      </g>
     </g>
    </g>
    <g id="xtick_23">
     <g id="line2d_23">
      <g>
       <use xlink:href="#mb63d11f660" x="169.885313" y="143.1" style="stroke: #000000; stroke-width: 0.6"/>
      </g>
     </g>
    </g>
    <g id="xtick_24">
     <g id="line2d_24">
      <g>
       <use xlink:href="#mb63d11f660" x="183.835313" y="143.1" style="stroke: #000000; stroke-width: 0.6"/>
      </g>
     </g>
    </g>
    <g id="xtick_25">
     <g id="line2d_25">
      <g>
       <use xlink:href="#mb63d11f660" x="190.810313" y="143.1" style="stroke: #000000; stroke-width: 0.6"/>
      </g>
     </g>
    </g>
    <g id="text_7">
     <!-- Two Theta (degrees) -->
     <g transform="translate(61.294688 168.681094)scale(0.09 -0.09)">
      <defs>
       <path id="DejaVuSans-54" d="M -19 4666 
L 3928 4666 
L 3928 4134 
L 2272 4134 
L 2272 0 
L 1638 0 
L 1638 4134 
L -19 4134 
L -19 4666 
z
" transform="scale(0.015625)"/>
       <path id="DejaVuSans-77" d="M 269 3500 
L 844 3500 
L 1563 769 
L 2278 3500 
L 2956 3500 
L 3675 769 
L 4391 3500 
L 4966 3500 
L 4050 0 
L 3372 0 
L 2619 2869 
L 1863 0 
L 1184 0 
L 269 3500 
z
" transform="scale(0.015625)"/>
       <path id="DejaVuSans-6f" d="M 1959 3097 
Q 1497 3097 1228 2736 
Q 959 2375 959 1747 
Q 959 1119 1226 758 
Q 1494 397 1959 397 
Q 2419 397 2687 759 
Q 2956 1122 2956 1747 
Q 2956 2369 2687 2733 
Q 2419 3097 1959 3097 
z
M 1959 3584 
Q 2709 3584 3137 3096 
Q 3566 2609 3566 1747 
Q 3566 888 3137 398 
Q 2709 -91 1959 -91 
Q 1206 -91 779 398 
Q 353 888 353 1747 
Q 353 2609 779 3096 
Q 1206 3584 1959 3584 
z
" transform="scale(0.015625)"/>
       <path id="DejaVuSans-20" transform="scale(0.015625)"/>
       <path id="DejaVuSans-68" d="M 3513 2113 
L 3513 0 
L 2938 0 
L 2938 2094 
Q 2938 2591 2744 2837 
Q 2550 3084 2163 3084 
Q 1697 3084 1428 2787 
Q 1159 2491 1159 1978 
L 1159 0 
L 581 0 
L 581 4863 
L 1159 4863 
L 1159 2956 
Q 1366 3272 1645 3428 
Q 1925 3584 2291 3584 
Q 2894 3584 3203 3211 
Q 3513 2838 3513 2113 
z
" transform="scale(0.015625)"/>
       <path id="DejaVuSans-65" d="M 3597 1894 
L 3597 1613 
L 953 1613 
Q 991 1019 1311 708 
Q 1631 397 2203 397 
Q 2534 397 2845 478 
Q 3156 559 3463 722 
L 3463 178 
Q 3153 47 2828 -22 
Q 2503 -91 2169 -91 
Q 1331 -91 842 396 
Q 353 884 353 1716 
Q 353 2575 817 3079 
Q 1281 3584 2069 3584 
Q 2775 3584 3186 3129 
Q 3597 2675 3597 1894 
z
M 3022 2063 
Q 3016 2534 2758 2815 
Q 2500 3097 2075 3097 
Q 1594 3097 1305 2825 
Q 1016 2553 972 2059 
L 3022 2063 
z
" transform="scale(0.015625)"/>
       <path id="DejaVuSans-74" d="M 1172 4494 
L 1172 3500 
L 2356 3500 
L 2356 3053 
L 1172 3053 
L 1172 1153 
Q 1172 725 1289 603 
Q 1406 481 1766 481 
L 2356 481 
L 2356 0 
L 1766 0 
Q 1100 0 847 248 
Q 594 497 594 1153 
L 594 3053 
L 172 3053 
L 172 3500 
L 594 3500 
L 594 4494 
L 1172 4494 
z
" transform="scale(0.015625)"/>
       <path id="DejaVuSans-61" d="M 2194 1759 
Q 1497 1759 1228 1600 
Q 959 1441 959 1056 
Q 959 750 1161 570 
Q 1363 391 1709 391 
Q 2188 391 2477 730 
Q 2766 1069 2766 1631 
L 2766 1759 
L 2194 1759 
z
M 3341 1997 
L 3341 0 
L 2766 0 
L 2766 531 
Q 2569 213 2275 61 
Q 1981 -91 1556 -91 
Q 1019 -91 701 211 
Q 384 513 384 1019 
Q 384 1609 779 1909 
Q 1175 2209 1959 2209 
L 2766 2209 
L 2766 2266 
Q 2766 2663 2505 2880 
Q 2244 3097 1772 3097 
Q 1472 3097 1187 3025 
Q 903 2953 641 2809 
L 641 3341 
Q 956 3463 1253 3523 
Q 1550 3584 1831 3584 
Q 2591 3584 2966 3190 
Q 3341 2797 3341 1997 
z
" transform="scale(0.015625)"/>
       <path id="DejaVuSans-28" d="M 1984 4856 
Q 1566 4138 1362 3434 
Q 1159 2731 1159 2009 
Q 1159 1288 1364 580 
Q 1569 -128 1984 -844 
L 1484 -844 
Q 1016 -109 783 600 
Q 550 1309 550 2009 
Q 550 2706 781 3412 
Q 1013 4119 1484 4856 
L 1984 4856 
z
" transform="scale(0.015625)"/>
       <path id="DejaVuSans-64" d="M 2906 2969 
L 2906 4863 
L 3481 4863 
L 3481 0 
L 2906 0 
L 2906 525 
Q 2725 213 2448 61 
Q 2172 -91 1784 -91 
Q 1150 -91 751 415 
Q 353 922 353 1747 
Q 353 2572 751 3078 
Q 1150 3584 1784 3584 
Q 2172 3584 2448 3432 
Q 2725 3281 2906 2969 
z
M 947 1747 
Q 947 1113 1208 752 
Q 1469 391 1925 391 
Q 2381 391 2643 752 
Q 2906 1113 2906 1747 
Q 2906 2381 2643 2742 
Q 2381 3103 1925 3103 
Q 1469 3103 1208 2742 
Q 947 2381 947 1747 
z
" transform="scale(0.015625)"/>
       <path id="DejaVuSans-67" d="M 2906 1791 
Q 2906 2416 2648 2759 
Q 2391 3103 1925 3103 
Q 1463 3103 1205 2759 
Q 947 2416 947 1791 
Q 947 1169 1205 825 
Q 1463 481 1925 481 
Q 2391 481 2648 825 
Q 2906 1169 2906 1791 
z
M 3481 434 
Q 3481 -459 3084 -895 
Q 2688 -1331 1869 -1331 
Q 1566 -1331 1297 -1286 
Q 1028 -1241 775 -1147 
L 775 -588 
Q 1028 -725 1275 -790 
Q 1522 -856 1778 -856 
Q 2344 -856 2625 -561 
Q 2906 -266 2906 331 
L 2906 616 
Q 2728 306 2450 153 
Q 2172 0 1784 0 
Q 1141 0 747 490 
Q 353 981 353 1791 
Q 353 2603 747 3093 
Q 1141 3584 1784 3584 
Q 2172 3584 2450 3431 
Q 2728 3278 2906 2969 
L 2906 3500 
L 3481 3500 
L 3481 434 
z
" transform="scale(0.015625)"/>
       <path id="DejaVuSans-72" d="M 2631 2963 
Q 2534 3019 2420 3045 
Q 2306 3072 2169 3072 
Q 1681 3072 1420 2755 
Q 1159 2438 1159 1844 
L 1159 0 
L 581 0 
L 581 3500 
L 1159 3500 
L 1159 2956 
Q 1341 3275 1631 3429 
Q 1922 3584 2338 3584 
Q 2397 3584 2469 3576 
Q 2541 3569 2628 3553 
L 2631 2963 
z
" transform="scale(0.015625)"/>
       <path id="DejaVuSans-73" d="M 2834 3397 
L 2834 2853 
Q 2591 2978 2328 3040 
Q 2066 3103 1784 3103 
Q 1356 3103 1142 2972 
Q 928 2841 928 2578 
Q 928 2378 1081 2264 
Q 1234 2150 1697 2047 
L 1894 2003 
Q 2506 1872 2764 1633 
Q 3022 1394 3022 966 
Q 3022 478 2636 193 
Q 2250 -91 1575 -91 
Q 1294 -91 989 -36 
Q 684 19 347 128 
L 347 722 
Q 666 556 975 473 
Q 1284 391 1588 391 
Q 1994 391 2212 530 
Q 2431 669 2431 922 
Q 2431 1156 2273 1281 
Q 2116 1406 1581 1522 
L 1381 1569 
Q 847 1681 609 1914 
Q 372 2147 372 2553 
Q 372 3047 722 3315 
Q 1072 3584 1716 3584 
Q 2034 3584 2315 3537 
Q 2597 3491 2834 3397 
z
" transform="scale(0.015625)"/>
       <path id="DejaVuSans-29" d="M 513 4856 
L 1013 4856 
Q 1481 4119 1714 3412 
Q 1947 2706 1947 2009 
Q 1947 1309 1714 600 
Q 1481 -109 1013 -844 
L 513 -844 
Q 928 -128 1133 580 
Q 1338 1288 1338 2009 
Q 1338 2731 1133 3434 
Q 928 4138 513 4856 
z
" transform="scale(0.015625)"/>
      </defs>
      <use xlink:href="#DejaVuSans-54"/>
      <use xlink:href="#DejaVuSans-77" x="44.583984"/>
      <use xlink:href="#DejaVuSans-6f" x="126.371094"/>
      <use xlink:href="#DejaVuSans-20" x="187.552734"/>
      <use xlink:href="#DejaVuSans-54" x="219.339844"/>
      <use xlink:href="#DejaVuSans-68" x="280.423828"/>
      <use xlink:href="#DejaVuSans-65" x="343.802734"/>
      <use xlink:href="#DejaVuSans-74" x="405.326172"/>
      <use xlink:href="#DejaVuSans-61" x="444.535156"/>
      <use xlink:href="#DejaVuSans-20" x="505.814453"/>
      <use xlink:href="#DejaVuSans-28" x="537.601562"/>
      <use xlink:href="#DejaVuSans-64" x="576.615234"/>
      <use xlink:href="#DejaVuSans-65" x="640.091797"/>
      <use xlink:href="#DejaVuSans-67" x="701.615234"/>
      <use xlink:href="#DejaVuSans-72" x="765.091797"/>
      <use xlink:href="#DejaVuSans-65" x="803.955078"/>
      <use xlink:href="#DejaVuSans-65" x="865.478516"/>
      <use xlink:href="#DejaVuSans-73" x="927.001953"/>
      <use xlink:href="#DejaVuSans-29" x="979.101562"/>
     </g>
    </g>
   </g>
   <g id="matplotlib.axis_2">
    <g id="ytick_1">
     <g id="line2d_26"/>
    </g>
    <g id="ytick_2">
     <g id="line2d_27"/>
    </g>
    <g id="ytick_3">
     <g id="line2d_28"/>
    </g>
    <g id="ytick_4">
     <g id="line2d_29"/>
    </g>
    <g id="ytick_5">
     <g id="line2d_30"/>
    </g>
    <g id="text_8">
     <!-- Intensity -->
     <g transform="translate(14.038594 94.73625)rotate(-90)scale(0.09 -0.09)">
      <defs>
       <path id="DejaVuSans-49" d="M 628 4666 
L 1259 4666 
L 1259 0 
L 628 0 
L 628 4666 
z
" transform="scale(0.015625)"/>
       <path id="DejaVuSans-6e" d="M 3513 2113 
L 3513 0 
L 2938 0 
L 2938 2094 
Q 2938 2591 2744 2837 
Q 2550 3084 2163 3084 
Q 1697 3084 1428 2787 
Q 1159 2491 1159 1978 
L 1159 0 
L 581 0 
L 581 3500 
L 1159 3500 
L 1159 2956 
Q 1366 3272 1645 3428 
Q 1925 3584 2291 3584 
Q 2894 3584 3203 3211 
Q 3513 2838 3513 2113 
z
" transform="scale(0.015625)"/>
       <path id="DejaVuSans-69" d="M 603 3500 
L 1178 3500 
L 1178 0 
L 603 0 
L 603 3500 
z
M 603 4863 
L 1178 4863 
L 1178 4134 
L 603 4134 
L 603 4863 
z
" transform="scale(0.015625)"/>
       <path id="DejaVuSans-79" d="M 2059 -325 
Q 1816 -950 1584 -1140 
Q 1353 -1331 966 -1331 
L 506 -1331 
L 506 -850 
L 844 -850 
Q 1081 -850 1212 -737 
Q 1344 -625 1503 -206 
L 1606 56 
L 191 3500 
L 800 3500 
L 1894 763 
L 2988 3500 
L 3597 3500 
L 2059 -325 
z
" transform="scale(0.015625)"/>
      </defs>
      <use xlink:href="#DejaVuSans-49"/>
      <use xlink:href="#DejaVuSans-6e" x="29.492188"/>
      <use xlink:href="#DejaVuSans-74" x="92.871094"/>
      <use xlink:href="#DejaVuSans-65" x="132.080078"/>
      <use xlink:href="#DejaVuSans-6e" x="193.603516"/>
      <use xlink:href="#DejaVuSans-73" x="256.982422"/>
      <use xlink:href="#DejaVuSans-69" x="309.082031"/>
      <use xlink:href="#DejaVuSans-74" x="336.865234"/>
      <use xlink:href="#DejaVuSans-79" x="376.074219"/>
     </g>
    </g>
   </g>
   <g id="line2d_31">
    <path d="M 23.43188 18.278489 
L 23.505147 13.377273 
L 23.724948 23.933739 
L 23.798215 23.092702 
L 23.871482 23.527721 
L 24.091283 31.242061 
L 24.16455 28.515941 
L 24.237817 30.778041 
L 24.311084 28.196927 
L 24.530885 33.504161 
L 24.604152 33.678169 
L 24.677419 38.376376 
L 24.750686 31.387068 
L 24.89722 40.203457 
L 24.970487 36.984315 
L 25.043753 37.970359 
L 25.11702 37.941357 
L 25.190287 38.753393 
L 25.263554 43.016581 
L 25.336821 39.884443 
L 25.410088 40.49347 
L 25.483355 41.595519 
L 25.556622 46.090717 
L 25.629889 40.899488 
L 25.84969 45.858707 
L 25.996224 47.308771 
L 26.142758 46.14872 
L 26.289292 45.597695 
L 26.435826 51.542958 
L 26.58236 48.845839 
L 26.728894 53.341037 
L 26.802161 52.354994 
L 26.875428 53.515045 
L 27.095229 50.295903 
L 27.168496 52.96402 
L 27.241763 51.658963 
L 27.31503 52.5 
L 27.461564 50.614917 
L 27.534831 54.646095 
L 27.608098 49.396863 
L 27.681365 58.300256 
L 27.754632 54.965109 
L 27.827899 52.5 
L 27.901166 60.823367 
L 27.974433 57.604225 
L 28.120967 53.834059 
L 28.194234 53.979065 
L 28.2675 56.879193 
L 28.340767 55.400128 
L 28.414034 55.371127 
L 28.487301 56.79219 
L 28.560568 56.12516 
L 28.633835 54.791101 
L 28.780369 58.271255 
L 28.853636 57.923239 
L 28.926903 60.910371 
L 29.073437 56.821191 
L 29.146704 61.229385 
L 29.219971 61.084379 
L 29.293238 61.11338 
L 29.366505 61.403393 
L 29.439772 60.098335 
L 29.513039 62.447439 
L 29.586306 58.648271 
L 29.659573 60.620359 
L 29.73284 59.924328 
L 29.806107 58.184251 
L 29.879374 64.477529 
L 29.952641 63.491485 
L 30.025908 65.579577 
L 30.099175 60.997375 
L 30.172442 61.867414 
L 30.245709 60.765365 
L 30.318976 65.376569 
L 30.392243 63.491485 
L 30.538777 64.158515 
L 30.612044 63.984507 
L 30.685311 63.404481 
L 30.978379 66.53662 
L 31.051646 63.636492 
L 31.124913 66.449616 
L 31.19818 64.622535 
L 31.271447 67.986684 
L 31.344714 63.230474 
L 31.491247 67.957682 
L 31.711048 64.100512 
L 31.857582 69.175736 
L 31.930849 69.03073 
L 32.004116 67.89968 
L 32.077383 67.957682 
L 32.15065 68.740717 
L 32.223917 68.334699 
L 32.297184 67.319654 
L 32.443718 69.059731 
L 32.516985 67.580666 
L 32.663519 70.741805 
L 32.88332 67.725672 
L 33.029854 73.003905 
L 33.103121 72.8879 
L 33.176388 70.103777 
L 33.249655 72.65589 
L 33.322922 69.349744 
L 33.396189 71.176825 
L 33.469456 67.696671 
L 33.61599 70.828809 
L 33.689257 71.75685 
L 33.762524 71.350832 
L 33.835791 72.017862 
L 33.909058 74.598976 
L 33.982325 73.583931 
L 34.055592 68.682714 
L 34.128859 70.741805 
L 34.202126 73.641933 
L 34.275393 72.945903 
L 34.34866 74.366965 
L 34.421927 71.785851 
L 34.568461 74.801985 
L 34.641728 70.944814 
L 34.714994 75.15 
L 34.788261 74.91799 
L 34.861528 71.437836 
L 35.008062 73.844942 
L 35.081329 72.916901 
L 35.227863 75.991037 
L 35.30113 74.772983 
L 35.447664 77.238092 
L 35.520931 72.191869 
L 35.594198 75.759027 
L 35.667465 75.643022 
L 35.740732 73.003905 
L 35.960533 77.441101 
L 36.0338 75.643022 
L 36.180334 78.949168 
L 36.326868 75.208003 
L 36.400135 79.210179 
L 36.473402 77.441101 
L 36.546669 76.861076 
L 36.619936 79.268182 
L 36.693203 77.789117 
L 36.839737 80.080218 
L 36.913004 78.31114 
L 36.986271 79.00717 
L 37.059538 81.646287 
L 37.132805 78.688156 
L 37.206072 78.746159 
L 37.279339 80.660243 
L 37.352606 78.253137 
L 37.572407 81.849296 
L 37.938741 77.267093 
L 38.012008 79.558195 
L 38.085275 78.108131 
L 38.305076 83.357362 
L 38.378343 81.211268 
L 38.598144 79.00717 
L 38.671411 83.241357 
L 38.744678 81.994302 
L 38.817945 83.618374 
L 38.891212 82.371319 
L 38.964479 83.096351 
L 39.037746 81.9363 
L 39.111013 83.937388 
L 39.257547 81.588284 
L 39.330814 84.401408 
L 39.404081 84.140397 
L 39.550615 82.052305 
L 39.623882 83.734379 
L 39.697149 83.241357 
L 39.770416 82.806338 
L 39.843683 84.227401 
L 39.91695 83.125352 
L 39.990217 83.53137 
L 40.063484 86.460499 
L 40.136751 83.444366 
L 40.210018 84.024392 
L 40.283285 85.271447 
L 40.356552 84.633419 
L 40.429819 81.414277 
L 40.503086 84.749424 
L 40.576353 84.198399 
L 40.64962 82.458323 
L 40.722887 87.591549 
L 40.796154 82.603329 
L 40.869421 83.241357 
L 40.942688 82.603329 
L 41.015955 83.879385 
L 41.089222 83.212356 
L 41.162488 87.069526 
L 41.235755 86.605506 
L 41.309022 84.314405 
L 41.382289 84.575416 
L 41.528823 85.851472 
L 41.60209 83.879385 
L 41.748624 88.026569 
L 41.821891 87.243534 
L 41.895158 88.461588 
L 41.968425 87.069526 
L 42.041692 87.243534 
L 42.114959 89.998656 
L 42.188226 87.881562 
L 42.261493 87.939565 
L 42.33476 89.273624 
L 42.408027 88.05557 
L 42.481294 88.258579 
L 42.554561 88.05557 
L 42.627828 89.505634 
L 42.847629 87.968566 
L 42.920896 87.127529 
L 42.994163 90.491677 
L 43.06743 87.881562 
L 43.140697 90.056658 
L 43.213964 87.533547 
L 43.287231 87.765557 
L 43.433765 88.751601 
L 43.507032 88.51959 
L 43.580299 87.504545 
L 43.653566 90.259667 
L 43.726833 88.345583 
L 43.8001 91.274712 
L 43.873367 87.765557 
L 43.946634 88.896607 
L 44.019901 86.083483 
L 44.093168 89.708643 
L 44.166435 89.099616 
L 44.239702 89.737644 
L 44.312969 89.447631 
L 44.386235 89.070615 
L 44.459502 92.057746 
L 44.532769 90.085659 
L 44.606036 90.462676 
L 44.679303 91.216709 
L 44.75257 88.896607 
L 44.825837 89.505634 
L 44.899104 89.534635 
L 45.045638 91.622727 
L 45.118905 88.461588 
L 45.192172 89.534635 
L 45.631774 94.609859 
L 45.705041 90.027657 
L 45.778308 92.550768 
L 45.851575 89.621639 
L 46.144643 94.522855 
L 46.291177 92.637772 
L 46.364444 91.970743 
L 46.437711 93.50781 
L 46.510978 92.666773 
L 46.584245 94.145839 
L 46.657512 91.564725 
L 46.730779 92.81178 
L 46.804046 91.042702 
L 46.877313 92.173752 
L 46.95058 96.088924 
L 47.023847 91.0137 
L 47.097114 92.492766 
L 47.390182 94.725864 
L 47.463449 92.57977 
L 47.536716 93.971831 
L 47.609983 90.607682 
L 47.756516 95.682907 
L 47.976317 93.739821 
L 48.049584 96.639949 
L 48.196118 95.015877 
L 48.415919 93.971831 
L 48.489186 94.000832 
L 48.562453 92.869782 
L 48.708987 97.248976 
L 48.855521 94.116837 
L 49.002055 95.856914 
L 49.221856 94.986876 
L 49.295123 97.161972 
L 49.36839 96.465941 
L 49.514924 94.029834 
L 49.588191 94.377849 
L 49.661458 97.683995 
L 49.734725 94.841869 
L 49.807992 95.218886 
L 49.881259 98.583035 
L 50.027793 94.783867 
L 50.10106 97.393982 
L 50.174327 95.392894 
L 50.247594 95.566901 
L 50.320861 98.03201 
L 50.467395 96.233931 
L 50.540662 96.784955 
L 50.613929 93.565813 
L 50.687196 98.757042 
L 50.760463 96.030922 
L 50.83373 96.639949 
L 50.906996 96.958963 
L 50.980263 95.711908 
L 51.05353 98.380026 
L 51.126797 94.377849 
L 51.200064 94.551857 
L 51.273331 94.435851 
L 51.346598 98.003009 
L 51.419865 95.595903 
L 51.493132 95.798912 
L 51.566399 97.045967 
L 51.639666 93.855826 
L 51.712933 94.377849 
L 51.7862 94.493854 
L 51.859467 96.929962 
L 51.932734 95.218886 
L 52.006001 98.641037 
L 52.152535 94.522855 
L 52.225802 94.493854 
L 52.445603 98.438028 
L 52.592137 93.217798 
L 52.665404 96.349936 
L 52.738671 94.609859 
L 52.811938 95.392894 
L 52.885205 97.741997 
L 52.958472 96.523944 
L 53.105006 98.148015 
L 53.324807 94.609859 
L 53.398074 94.667862 
L 53.471341 96.958963 
L 53.544608 95.624904 
L 53.617875 95.827913 
L 53.691142 96.697951 
L 53.764409 95.247887 
L 53.837676 95.595903 
L 53.910943 99.250064 
L 53.98421 97.422983 
L 54.057477 95.914917 
L 54.130743 98.148015 
L 54.20401 95.102881 
L 54.277277 95.856914 
L 54.350544 96.117926 
L 54.423811 97.161972 
L 54.497078 94.783867 
L 54.570345 94.812868 
L 54.643612 99.424072 
L 54.790146 95.885915 
L 54.863413 95.798912 
L 54.93668 94.899872 
L 55.009947 99.250064 
L 55.229748 94.783867 
L 55.303015 93.797823 
L 55.376282 97.887004 
L 55.449549 96.378937 
L 55.522816 97.103969 
L 55.596083 96.784955 
L 55.66935 97.33598 
L 55.815884 94.17484 
L 55.889151 95.595903 
L 55.962418 92.231754 
L 56.108952 97.016965 
L 56.182219 94.986876 
L 56.255486 96.320935 
L 56.328753 95.827913 
L 56.40202 96.088924 
L 56.475287 93.826825 
L 56.548554 93.94283 
L 56.621821 92.782778 
L 56.841622 96.43694 
L 57.281224 93.333803 
L 57.35449 94.551857 
L 57.427757 97.654994 
L 57.501024 96.146927 
L 57.574291 93.855826 
L 57.647558 95.885915 
L 57.794092 92.550768 
L 58.013893 95.914917 
L 58.08716 95.218886 
L 58.233694 91.564725 
L 58.453495 94.725864 
L 58.673296 88.838604 
L 58.746563 93.884827 
L 58.81983 93.130794 
L 58.893097 91.361716 
L 59.039631 95.160883 
L 59.112898 94.17484 
L 59.186165 90.462676 
L 59.259432 91.245711 
L 59.332699 90.984699 
L 59.405966 93.94283 
L 59.479233 92.869782 
L 59.5525 91.390717 
L 59.625767 92.956786 
L 59.699034 92.724776 
L 59.772301 89.621639 
L 59.918835 92.782778 
L 59.992102 90.694686 
L 60.065369 92.173752 
L 60.28517 87.649552 
L 60.358437 89.766645 
L 60.431704 89.041613 
L 60.504971 90.230666 
L 60.578237 89.534635 
L 60.651504 91.825736 
L 60.724771 88.113572 
L 60.798038 90.027657 
L 60.944572 89.679641 
L 61.017839 89.88265 
L 61.164373 86.953521 
L 61.310907 90.694686 
L 61.384174 88.28758 
L 61.457441 89.099616 
L 61.530708 90.404673 
L 61.603975 86.69251 
L 61.677242 86.721511 
L 61.823776 88.51959 
L 61.897043 84.488412 
L 61.97031 86.083483 
L 62.043577 85.242446 
L 62.116844 86.92452 
L 62.190111 84.865429 
L 62.409912 88.432586 
L 62.483179 85.851472 
L 62.556446 87.243534 
L 62.629713 86.547503 
L 62.776247 84.169398 
L 62.849514 84.256402 
L 62.922781 88.809603 
L 62.996048 84.981434 
L 63.069315 86.02548 
L 63.215849 86.750512 
L 63.362383 82.110307 
L 63.43565 83.29936 
L 63.582184 82.139309 
L 63.655451 82.603329 
L 63.728718 85.445455 
L 63.801984 84.111396 
L 63.875251 80.631242 
L 63.948518 80.921255 
L 64.021785 82.342318 
L 64.095052 80.631242 
L 64.168319 81.50128 
L 64.241586 81.9363 
L 64.38812 83.473367 
L 64.461387 79.848207 
L 64.534654 81.472279 
L 64.754455 77.383099 
L 64.900989 80.13822 
L 64.974256 80.080218 
L 65.12079 78.021127 
L 65.194057 78.427145 
L 65.267324 77.470102 
L 65.413858 79.065173 
L 65.560392 76.687068 
L 65.633659 77.905122 
L 65.706926 72.771895 
L 65.780193 76.600064 
L 65.85346 75.120999 
L 65.999994 78.920166 
L 66.073261 75.324008 
L 66.146528 75.991037 
L 66.219795 76.252049 
L 66.293062 77.470102 
L 66.366329 75.062996 
L 66.439596 75.846031 
L 66.512863 75.933035 
L 66.58613 76.252049 
L 66.659397 72.220871 
L 66.732664 74.366965 
L 66.805931 72.8879 
L 66.879198 73.293918 
L 66.952465 72.8879 
L 67.025731 73.090909 
L 67.098998 74.279962 
L 67.172265 70.074776 
L 67.245532 74.279962 
L 67.318799 70.538796 
L 67.392066 72.075864 
L 67.5386 72.104866 
L 67.611867 70.16178 
L 67.685134 75.15 
L 67.904935 69.49475 
L 68.051469 73.090909 
L 68.198003 68.044686 
L 68.27127 70.944814 
L 68.344537 69.204738 
L 68.417804 71.727849 
L 68.637605 66.217606 
L 68.784139 69.204738 
L 69.077207 65.608579 
L 69.150474 69.407746 
L 69.223741 65.985595 
L 69.297008 69.900768 
L 69.370275 69.436748 
L 69.443542 66.246607 
L 69.516809 70.364789 
L 69.590076 67.812676 
L 69.663343 68.856722 
L 69.73661 68.566709 
L 69.809877 67.00064 
L 69.883144 67.435659 
L 69.956411 67.551665 
L 70.102945 63.491485 
L 70.176212 62.534443 
L 70.249479 65.724584 
L 70.322745 65.231562 
L 70.396012 65.724584 
L 70.469279 64.941549 
L 70.615813 66.072599 
L 70.68908 61.983419 
L 70.762347 62.505442 
L 70.835614 62.853457 
L 70.908881 68.3637 
L 70.982148 65.144558 
L 71.055415 66.362612 
L 71.128682 64.013508 
L 71.201949 65.927593 
L 71.275216 63.172471 
L 71.348483 63.404481 
L 71.495017 64.535531 
L 71.641551 60.359347 
L 71.861352 65.666581 
L 72.081153 61.432394 
L 72.15442 65.202561 
L 72.227687 63.723496 
L 72.300954 64.883547 
L 72.374221 63.056466 
L 72.447488 65.695583 
L 72.667289 61.751408 
L 72.740556 61.751408 
L 72.813823 65.028553 
L 72.88709 60.591357 
L 73.106891 66.159603 
L 73.326692 61.867414 
L 73.399959 61.316389 
L 73.473226 63.549488 
L 73.546492 62.795455 
L 73.619759 62.01242 
L 73.693026 65.057554 
L 73.766293 62.824456 
L 73.83956 64.535531 
L 74.059361 61.693406 
L 74.205895 64.013508 
L 74.279162 63.230474 
L 74.352429 66.391613 
L 74.498963 60.88137 
L 74.645497 62.708451 
L 74.792031 61.925416 
L 74.865298 65.927593 
L 74.938565 61.983419 
L 75.011832 64.999552 
L 75.085099 63.839501 
L 75.158366 63.491485 
L 75.231633 64.04251 
L 75.3049 63.897503 
L 75.378167 63.027465 
L 75.451434 65.63758 
L 75.524701 63.984507 
L 75.597968 64.651536 
L 75.671235 65.434571 
L 75.744502 64.709539 
L 75.817769 62.331434 
L 75.891036 62.534443 
L 75.964303 62.853457 
L 76.110837 66.333611 
L 76.184104 62.940461 
L 76.257371 65.898592 
L 76.330638 65.753585 
L 76.477172 63.433483 
L 76.550439 66.913636 
L 76.623706 63.752497 
L 76.770239 67.870679 
L 76.843506 69.349744 
L 76.99004 65.695583 
L 77.063307 64.50653 
L 77.209841 67.986684 
L 77.283108 65.608579 
L 77.356375 67.609667 
L 77.429642 67.580666 
L 77.502909 67.145647 
L 77.576176 68.856722 
L 77.649443 64.535531 
L 77.72271 65.550576 
L 77.795977 68.740717 
L 77.869244 64.883547 
L 77.942511 69.842766 
L 78.015778 68.566709 
L 78.089045 68.566709 
L 78.162312 68.305698 
L 78.235579 70.39379 
L 78.308846 70.335787 
L 78.45538 66.594622 
L 78.528647 67.406658 
L 78.675181 68.711716 
L 78.748448 66.594622 
L 78.894982 69.900768 
L 78.968249 69.552753 
L 79.041516 69.001729 
L 79.114783 66.739629 
L 79.261317 69.900768 
L 79.334584 65.057554 
L 79.407851 68.943726 
L 79.481118 66.884635 
L 79.554385 67.89968 
L 79.627652 68.015685 
L 79.774186 73.11991 
L 79.847453 70.770807 
L 79.92072 71.727849 
L 80.14052 69.987772 
L 80.287054 72.191869 
L 80.360321 69.465749 
L 80.506855 72.42388 
L 80.580122 71.29283 
L 80.653389 73.351921 
L 80.726656 72.191869 
L 80.799923 72.278873 
L 80.87319 71.930858 
L 81.019724 74.047951 
L 81.166258 70.277785 
L 81.312792 76.339052 
L 81.459326 71.582843 
L 81.532593 74.569974 
L 81.60586 73.960948 
L 81.679127 72.365877 
L 81.752394 77.093086 
L 81.825661 76.600064 
L 81.972195 72.365877 
L 82.045462 75.38201 
L 82.191996 71.060819 
L 82.265263 77.151088 
L 82.33853 75.033995 
L 82.411797 75.179001 
L 82.485064 76.28105 
L 82.631598 74.366965 
L 82.778132 77.499104 
L 82.851399 76.571063 
L 82.924666 77.731114 
L 82.997933 76.252049 
L 83.0712 78.630154 
L 83.144467 73.757939 
L 83.217733 77.209091 
L 83.291 75.643022 
L 83.437534 80.225224 
L 83.510801 74.656978 
L 83.584068 76.078041 
L 83.657335 76.339052 
L 83.730602 75.440013 
L 83.877136 80.863252 
L 83.950403 77.064085 
L 84.02367 77.151088 
L 84.096937 79.268182 
L 84.170204 77.731114 
L 84.316738 82.197311 
L 84.390005 79.181178 
L 84.463272 80.660243 
L 84.609806 80.254225 
L 84.683073 78.862164 
L 84.75634 83.270359 
L 84.902874 77.87612 
L 85.122675 81.356274 
L 85.342476 83.183355 
L 85.48901 78.572151 
L 85.562277 78.77516 
L 85.782078 84.575416 
L 85.855345 83.647375 
L 85.928612 80.341229 
L 86.075146 83.125352 
L 86.148413 80.718246 
L 86.368214 86.112484 
L 86.44148 81.878297 
L 86.514747 82.603329 
L 86.588014 81.559283 
L 86.661281 81.9363 
L 86.881082 85.822471 
L 87.100883 81.704289 
L 87.17415 84.314405 
L 87.247417 83.618374 
L 87.393951 87.098528 
L 87.467218 87.011524 
L 87.613752 83.821383 
L 87.833553 88.635595 
L 87.90682 84.836428 
L 87.980087 86.373496 
L 88.053354 87.504545 
L 88.126621 87.272535 
L 88.199888 84.807426 
L 88.346422 86.69251 
L 88.419689 87.38854 
L 88.492956 90.636684 
L 88.63949 85.619462 
L 88.712757 88.664597 
L 88.786024 86.25749 
L 88.859291 87.852561 
L 88.932558 85.967478 
L 89.005825 86.750512 
L 89.152359 90.288668 
L 89.298893 88.896607 
L 89.37216 89.969654 
L 89.445427 89.447631 
L 89.518694 89.476633 
L 89.665227 91.477721 
L 89.738494 90.810691 
L 89.811761 88.751601 
L 90.031562 92.57977 
L 90.104829 91.477721 
L 90.178096 88.606594 
L 90.32463 92.202753 
L 90.397897 90.984699 
L 90.544431 92.956786 
L 90.617698 89.18662 
L 90.690965 89.824648 
L 90.764232 89.65064 
L 90.837499 90.665685 
L 90.910766 93.391805 
L 90.984033 92.695775 
L 91.0573 92.840781 
L 91.130567 89.41863 
L 91.203834 90.085659 
L 91.277101 91.564725 
L 91.350368 91.071703 
L 91.496902 94.348848 
L 91.643436 90.926697 
L 91.716703 93.710819 
L 91.78997 93.420807 
L 91.863237 94.000832 
L 91.936504 95.479898 
L 92.009771 91.970743 
L 92.083038 93.217798 
L 92.302839 95.334891 
L 92.376106 94.783867 
L 92.449373 92.347759 
L 92.52264 95.856914 
L 92.595907 95.421895 
L 92.669174 95.798912 
L 92.742441 95.624904 
L 92.815708 95.5379 
L 92.888974 95.885915 
L 92.962241 95.044878 
L 93.035508 98.148015 
L 93.108775 91.68073 
L 93.182042 94.232843 
L 93.255309 97.770999 
L 93.328576 94.667862 
L 93.401843 96.001921 
L 93.548377 97.596991 
L 93.768178 95.76991 
L 93.841445 97.393982 
L 93.914712 97.306978 
L 93.987979 97.945006 
L 94.061246 100.0621 
L 94.134513 97.741997 
L 94.20778 99.16306 
L 94.281047 99.018054 
L 94.354314 96.90096 
L 94.574115 99.018054 
L 94.647382 98.235019 
L 94.720649 98.554033 
L 94.793916 101.570166 
L 94.867183 96.755954 
L 94.94045 98.496031 
L 95.013717 99.250064 
L 95.086984 98.03201 
L 95.160251 101.048143 
L 95.233518 100.874136 
L 95.306785 102.063188 
L 95.453319 99.250064 
L 95.599853 100.903137 
L 95.67312 100.207106 
L 95.746387 101.628169 
L 95.819654 98.467029 
L 95.966188 101.106146 
L 96.112722 99.656082 
L 96.185988 100.091101 
L 96.259255 100.207106 
L 96.332522 102.730218 
L 96.405789 102.034187 
L 96.479056 100.700128 
L 96.552323 100.990141 
L 96.772124 103.658259 
L 96.845391 104.122279 
L 96.918658 101.048143 
L 96.991925 104.441293 
L 97.065192 101.802177 
L 97.138459 102.585211 
L 97.211726 101.570166 
L 97.284993 101.686172 
L 97.35826 101.831178 
L 97.431527 103.861268 
L 97.504794 102.904225 
L 97.578061 103.252241 
L 97.651328 100.29411 
L 97.724595 103.368246 
L 97.797862 101.802177 
L 97.944396 103.078233 
L 98.017663 101.570166 
L 98.09093 102.933227 
L 98.164197 101.541165 
L 98.310731 105.166325 
L 98.530532 102.643214 
L 98.603799 103.977273 
L 98.677066 103.45525 
L 98.750333 102.469206 
L 98.896867 104.673303 
L 99.043401 105.398335 
L 99.116668 104.180282 
L 99.189935 105.71735 
L 99.336469 103.223239 
L 99.483002 106.906402 
L 99.702803 105.659347 
L 99.77607 106.065365 
L 99.849337 107.486428 
L 99.922604 103.745262 
L 99.995871 106.906402 
L 100.069138 106.326376 
L 100.142405 105.514341 
L 100.215672 107.283419 
L 100.288939 107.022407 
L 100.435473 104.035275 
L 100.582007 107.341421 
L 100.655274 106.123367 
L 100.728541 106.268374 
L 100.801808 106.355378 
L 100.875075 109.661524 
L 101.094876 105.746351 
L 101.168143 109.023496 
L 101.314677 106.326376 
L 101.607745 110.328553 
L 101.681012 106.819398 
L 101.754279 109.023496 
L 101.827546 107.660435 
L 101.900813 108.849488 
L 101.97408 107.225416 
L 102.193881 111.952625 
L 102.267148 111.024584 
L 102.340415 107.515429 
L 102.413682 107.718438 
L 102.486949 110.328553 
L 102.560216 109.545519 
L 102.633482 108.90749 
L 102.706749 112.06863 
L 102.853283 109.661524 
L 102.92655 110.821575 
L 102.999817 109.661524 
L 103.073084 111.546607 
L 103.146351 111.256594 
L 103.219618 111.778617 
L 103.292885 110.908579 
L 103.366152 114.243726 
L 103.439419 110.096543 
L 103.512686 110.502561 
L 103.585953 112.213636 
L 103.65922 108.733483 
L 103.732487 113.460691 
L 103.805754 111.83662 
L 103.879021 110.125544 
L 104.025555 113.141677 
L 104.098822 110.589565 
L 104.172089 111.343598 
L 104.245356 111.662612 
L 104.318623 114.56274 
L 104.39189 111.865621 
L 104.465157 112.706658 
L 104.538424 114.156722 
L 104.611691 112.039629 
L 104.684958 114.272727 
L 104.758225 112.561652 
L 104.831492 113.344686 
L 105.12456 111.401601 
L 105.271094 115.287772 
L 105.417628 111.981626 
L 105.564162 113.286684 
L 105.637429 111.633611 
L 105.710696 111.981626 
L 105.930496 114.79475 
L 106.003763 116.853841 
L 106.07703 113.19968 
L 106.150297 114.881754 
L 106.296831 113.257682 
L 106.370098 115.548784 
L 106.443365 114.823752 
L 106.516632 113.634699 
L 106.663166 115.519782 
L 106.736433 113.6637 
L 106.8097 113.924712 
L 106.882967 115.403777 
L 106.956234 113.837708 
L 107.029501 115.635787 
L 107.176035 114.156722 
L 107.249302 116.389821 
L 107.322569 115.403777 
L 107.54237 113.315685 
L 107.688904 118.071895 
L 107.762171 116.099808 
L 107.835438 117.143854 
L 108.055239 115.46178 
L 108.27504 116.82484 
L 108.348307 116.82484 
L 108.421574 117.462868 
L 108.568108 114.997759 
L 108.714642 118.042894 
L 108.787909 116.331818 
L 108.861176 119.608963 
L 109.00771 116.447823 
L 109.080976 118.564917 
L 109.154243 117.317862 
L 109.447311 120.304994 
L 109.520578 117.636876 
L 109.593845 118.999936 
L 109.667112 118.622919 
L 109.740379 116.795839 
L 109.813646 118.477913 
L 109.886913 117.926889 
L 109.96018 116.331818 
L 110.033447 120.566005 
L 110.106714 118.767926 
L 110.179981 116.476825 
L 110.399782 120.711012 
L 110.473049 116.766837 
L 110.546316 117.839885 
L 110.619583 121.436044 
L 110.69285 121.320038 
L 110.839384 118.245903 
L 110.985918 121.320038 
L 111.205719 117.810883 
L 111.278986 119.608963 
L 111.352253 117.781882 
L 111.498787 122.886108 
L 111.572054 120.537004 
L 111.645321 122.190077 
L 111.865122 119.405954 
L 111.938389 121.059027 
L 112.011656 121.001024 
L 112.084923 121.204033 
L 112.304723 120.333995 
L 112.451257 121.175032 
L 112.524524 120.014981 
L 112.597791 121.552049 
L 112.671058 120.159987 
L 112.744325 120.566005 
L 113.037393 122.422087 
L 113.11066 121.291037 
L 113.183927 121.58105 
L 113.257194 121.320038 
L 113.330461 123.060115 
L 113.403728 122.306082 
L 113.476995 122.886108 
L 113.550262 119.492958 
L 113.696796 122.915109 
L 113.770063 122.103073 
L 113.916597 123.437132 
L 113.989864 122.393086 
L 114.063131 123.002113 
L 114.136398 121.146031 
L 114.209665 122.016069 
L 114.282932 122.219078 
L 114.356199 124.771191 
L 114.429466 124.249168 
L 114.502733 124.945198 
L 114.576 122.596095 
L 114.649267 124.162164 
L 114.795801 121.929065 
L 114.942335 124.162164 
L 115.015602 122.48009 
L 115.162136 124.713188 
L 115.235403 122.48009 
L 115.30867 123.408131 
L 115.381937 123.437132 
L 115.455204 123.002113 
L 115.52847 124.220166 
L 115.675004 122.94411 
L 115.894805 124.278169 
L 115.968072 124.30717 
L 116.041339 123.814149 
L 116.114606 124.655186 
L 116.187873 123.002113 
L 116.26114 123.669142 
L 116.334407 123.698143 
L 116.407674 122.886108 
L 116.480941 125.525224 
L 116.554208 124.510179 
L 116.627475 124.684187 
L 116.774009 122.567093 
L 116.847276 125.061204 
L 116.99381 123.031114 
L 117.067077 126.250256 
L 117.140344 124.655186 
L 117.213611 123.872151 
L 117.286878 124.07516 
L 117.433412 125.757234 
L 117.579946 123.959155 
L 117.72648 125.873239 
L 117.799747 124.30717 
L 117.873014 124.539181 
L 117.946281 126.047247 
L 118.166082 123.756146 
L 118.239349 123.524136 
L 118.312616 123.872151 
L 118.385883 125.902241 
L 118.45915 125.061204 
L 118.605684 127.062292 
L 118.678951 124.510179 
L 118.752217 125.003201 
L 118.825484 125.844238 
L 118.898751 125.177209 
L 118.972018 126.221255 
L 119.045285 125.844238 
L 119.118552 125.554225 
L 119.191819 124.539181 
L 119.265086 126.598271 
L 119.338353 126.134251 
L 119.41162 125.583227 
L 119.484887 125.902241 
L 119.558154 125.757234 
L 119.704688 123.785147 
L 119.851222 126.163252 
L 120.071023 124.133163 
L 120.14429 125.235211 
L 120.217557 124.30717 
L 120.364091 126.134251 
L 120.437358 124.829193 
L 120.510625 126.221255 
L 120.583892 125.467222 
L 120.657159 126.221255 
L 120.730426 126.192254 
L 120.803693 126.511268 
L 120.950227 125.380218 
L 121.096761 125.902241 
L 121.170028 125.67023 
L 121.243295 126.33726 
L 121.389829 124.713188 
L 121.536363 125.931242 
L 121.60963 127.671319 
L 121.682897 126.975288 
L 121.902698 123.785147 
L 121.975965 127.990333 
L 122.049231 126.250256 
L 122.122498 127.062292 
L 122.195765 124.278169 
L 122.269032 125.496223 
L 122.415566 126.627273 
L 122.5621 124.423175 
L 122.635367 127.874328 
L 122.708634 126.627273 
L 122.781901 128.077337 
L 122.855168 126.33726 
L 122.928435 127.70032 
L 123.001702 125.960243 
L 123.074969 126.743278 
L 123.148236 126.946287 
L 123.221503 128.019334 
L 123.29477 126.830282 
L 123.368037 126.975288 
L 123.441304 126.56927 
L 123.514571 124.191165 
L 123.587838 127.526312 
L 123.661105 126.56927 
L 123.734372 126.888284 
L 123.807639 127.816325 
L 124.02744 125.264213 
L 124.100707 128.454353 
L 124.173974 128.280346 
L 124.247241 125.20621 
L 124.320508 127.903329 
L 124.393775 125.931242 
L 124.467042 128.773367 
L 124.613576 124.887196 
L 124.686843 128.309347 
L 124.76011 126.047247 
L 124.833377 126.685275 
L 125.126445 128.83137 
L 125.199712 126.888284 
L 125.272978 128.686364 
L 125.346245 126.308259 
L 125.492779 128.483355 
L 125.566046 127.120294 
L 125.639313 127.265301 
L 125.71258 127.758323 
L 125.859114 126.424264 
L 125.932381 127.816325 
L 126.005648 126.685275 
L 126.078915 126.917286 
L 126.152182 128.715365 
L 126.225449 126.511268 
L 126.298716 126.685275 
L 126.518517 129.73041 
L 126.591784 128.715365 
L 126.665051 125.612228 
L 126.738318 126.366261 
L 126.884852 128.309347 
L 126.958119 128.048335 
L 127.031386 128.36735 
L 127.17792 126.511268 
L 127.251187 127.120294 
L 127.397721 129.353393 
L 127.470988 127.033291 
L 127.544255 128.135339 
L 127.617522 129.759411 
L 127.690789 129.266389 
L 127.764056 127.555314 
L 127.837323 129.005378 
L 127.983857 126.33726 
L 128.057124 128.947375 
L 128.130391 128.164341 
L 128.203658 129.382394 
L 128.276925 128.802369 
L 128.350192 126.453265 
L 128.569992 128.744366 
L 128.643259 128.396351 
L 128.716526 129.96242 
L 128.86306 127.497311 
L 128.936327 129.469398 
L 129.009594 128.454353 
L 129.082861 128.309347 
L 129.229395 129.817414 
L 129.449196 126.018246 
L 129.59573 129.411396 
L 129.668997 127.990333 
L 129.815531 130.020423 
L 129.888798 128.338348 
L 129.962065 129.933419 
L 130.181866 126.56927 
L 130.255133 128.251344 
L 130.3284 126.975288 
L 130.401667 129.266389 
L 130.474934 128.715365 
L 130.548201 128.802369 
L 130.621468 129.179385 
L 130.694735 127.613316 
L 130.768002 129.237388 
L 130.987803 126.482266 
L 131.06107 126.163252 
L 131.134337 129.817414 
L 131.207604 127.93233 
L 131.427405 129.73041 
L 131.500672 129.469398 
L 131.647206 127.642318 
L 131.720472 127.729321 
L 131.793739 129.498399 
L 131.867006 129.121383 
L 131.940273 127.439309 
L 132.160074 130.774456 
L 132.379875 125.264213 
L 132.526409 130.977465 
L 132.672943 129.324392 
L 132.74621 131.354481 
L 132.819477 129.817414 
L 132.892744 130.310435 
L 132.966011 130.774456 
L 133.112545 128.106338 
L 133.185812 130.832458 
L 133.259079 130.687452 
L 133.47888 129.817414 
L 133.552147 130.629449 
L 133.698681 129.73041 
L 133.845215 130.600448 
L 133.918482 128.251344 
L 133.991749 131.673496 
L 134.138283 129.411396 
L 134.21155 129.759411 
L 134.284817 130.977465 
L 134.431351 129.614405 
L 134.504618 130.803457 
L 134.577885 129.237388 
L 134.651152 130.919462 
L 134.724419 130.339437 
L 134.797686 129.092382 
L 135.16402 131.441485 
L 135.237287 129.875416 
L 135.310554 129.96242 
L 135.383821 130.948464 
L 135.457088 129.875416 
L 135.530355 130.223431 
L 135.603622 130.687452 
L 135.676889 130.223431 
L 135.750156 129.005378 
L 135.89669 130.19443 
L 135.969957 129.556402 
L 136.116491 131.32548 
L 136.336292 129.788412 
L 136.409559 130.136428 
L 136.482826 129.788412 
L 136.556093 131.006466 
L 136.775894 128.744366 
L 136.849161 131.354481 
L 136.922428 130.919462 
L 136.995695 130.890461 
L 137.068962 130.455442 
L 137.142229 128.947375 
L 137.215496 131.905506 
L 137.288763 128.309347 
L 137.36203 130.049424 
L 137.435297 132.079513 
L 137.508564 130.368438 
L 137.728365 133.761588 
L 137.874899 130.774456 
L 137.948166 130.919462 
L 138.021433 130.658451 
L 138.3145 131.615493 
L 138.387767 131.528489 
L 138.534301 130.716453 
L 138.607568 131.55749 
L 138.680835 130.687452 
L 138.754102 131.586492 
L 138.827369 129.179385 
L 138.900636 131.760499 
L 138.973903 129.585403 
L 139.120437 131.673496 
L 139.193704 132.311524 
L 139.266971 131.151472 
L 139.340238 132.282522 
L 139.413505 130.687452 
L 139.486772 131.122471 
L 139.560039 131.412484 
L 139.633306 132.22452 
L 139.706573 131.99251 
L 139.77984 132.021511 
L 139.926374 132.630538 
L 139.999641 132.775544 
L 140.146175 130.107426 
L 140.292709 132.021511 
L 140.365976 131.122471 
L 140.439243 131.180474 
L 140.51251 132.137516 
L 140.659044 129.817414 
L 140.878845 133.239565 
L 141.025379 131.470487 
L 141.098646 132.572535 
L 141.24518 130.890461 
L 141.391713 132.572535 
L 141.611514 130.716453 
L 141.684781 132.746543 
L 141.831315 131.006466 
L 141.904582 131.035467 
L 141.977849 133.616581 
L 142.051116 132.050512 
L 142.124383 132.775544 
L 142.19765 131.644494 
L 142.270917 132.920551 
L 142.344184 131.760499 
L 142.417451 131.818502 
L 142.490718 132.166517 
L 142.563985 131.847503 
L 142.637252 132.050512 
L 142.710519 131.760499 
L 142.783786 133.35557 
L 142.93032 131.760499 
L 143.076854 130.832458 
L 143.369922 133.703585 
L 143.516456 133.558579 
L 143.589723 131.499488 
L 143.66299 132.253521 
L 143.736257 133.268566 
L 143.956058 131.412484 
L 144.029325 133.12356 
L 144.102592 133.094558 
L 144.175859 131.934507 
L 144.249126 133.007554 
L 144.322393 131.963508 
L 144.39566 134.109603 
L 144.468927 133.790589 
L 144.542194 131.32548 
L 144.615461 134.312612 
L 144.688727 131.702497 
L 144.761994 135.61767 
L 144.908528 131.702497 
L 144.981795 133.413572 
L 145.055062 131.934507 
L 145.274863 133.471575 
L 145.34813 133.558579 
L 145.421397 134.254609 
L 145.567931 131.55749 
L 145.787732 132.775544 
L 145.860999 134.689629 
L 145.934266 134.022599 
L 146.007533 131.963508 
L 146.0808 132.978553 
L 146.154067 131.876504 
L 146.227334 133.732586 
L 146.300601 133.326569 
L 146.373868 133.674584 
L 146.447135 132.108515 
L 146.520402 132.340525 
L 146.593669 132.253521 
L 146.81347 135.066645 
L 146.886737 133.297567 
L 146.960004 135.037644 
L 147.106538 133.616581 
L 147.179805 133.877593 
L 147.253072 132.68854 
L 147.326339 134.689629 
L 147.399606 132.601536 
L 147.472873 134.109603 
L 147.692674 131.818502 
L 147.839208 134.022599 
L 147.912474 133.384571 
L 147.985741 133.761588 
L 148.059008 133.442574 
L 148.132275 134.080602 
L 148.278809 132.601536 
L 148.352076 132.485531 
L 148.425343 134.312612 
L 148.49861 132.659539 
L 148.645144 134.138604 
L 148.718411 132.253521 
L 148.864945 134.979641 
L 148.938212 134.863636 
L 149.011479 133.790589 
L 149.084746 134.805634 
L 149.158013 133.297567 
L 149.23128 134.834635 
L 149.304547 132.920551 
L 149.377814 133.993598 
L 149.451081 133.790589 
L 149.597615 132.862548 
L 149.670882 132.427529 
L 149.744149 133.703585 
L 149.817416 132.68854 
L 149.96395 133.993598 
L 150.110484 131.876504 
L 150.183751 134.196607 
L 150.257018 134.167606 
L 150.330285 134.515621 
L 150.403552 132.833547 
L 150.476819 133.848592 
L 150.550086 132.920551 
L 150.69662 134.254609 
L 150.769887 134.515621 
L 150.843154 133.703585 
L 150.916421 134.515621 
L 151.062955 132.659539 
L 151.136221 134.863636 
L 151.209488 132.543534 
L 151.356022 134.776633 
L 151.429289 133.645583 
L 151.502556 133.761588 
L 151.575823 133.529577 
L 151.64909 132.137516 
L 151.722357 134.080602 
L 151.795624 132.775544 
L 151.868891 134.109603 
L 151.942158 133.993598 
L 152.088692 135.356658 
L 152.161959 134.921639 
L 152.235226 133.645583 
L 152.308493 134.428617 
L 152.38176 134.254609 
L 152.528294 134.71863 
L 152.601561 133.036556 
L 152.674828 135.820679 
L 152.821362 133.616581 
L 152.894629 135.733675 
L 152.967896 135.240653 
L 153.11443 133.848592 
L 153.187697 135.153649 
L 153.407498 133.181562 
L 153.480765 134.805634 
L 153.554032 134.196607 
L 153.700566 133.152561 
L 153.773833 134.660627 
L 153.8471 132.920551 
L 153.993634 135.095647 
L 154.140168 134.921639 
L 154.286702 133.210563 
L 154.359968 135.385659 
L 154.506502 133.500576 
L 154.579769 134.022599 
L 154.653036 135.733675 
L 154.726303 132.891549 
L 154.79957 135.095647 
L 154.872837 133.12356 
L 154.946104 134.573624 
L 155.019371 132.891549 
L 155.165905 135.211652 
L 155.312439 133.703585 
L 155.385706 133.645583 
L 155.458973 134.312612 
L 155.53224 133.58758 
L 155.678774 134.776633 
L 155.752041 133.616581 
L 155.825308 135.066645 
L 155.898575 134.428617 
L 155.971842 134.109603 
L 156.045109 135.240653 
L 156.118376 134.312612 
L 156.191643 135.153649 
L 156.26491 134.834635 
L 156.338177 134.776633 
L 156.411444 133.761588 
L 156.484711 135.124648 
L 156.631245 133.442574 
L 156.777779 135.037644 
L 156.924313 133.848592 
L 156.99758 134.138604 
L 157.070847 134.341613 
L 157.144114 133.210563 
L 157.217381 135.443662 
L 157.290648 134.48662 
L 157.363915 134.747631 
L 157.437182 133.964597 
L 157.510449 135.414661 
L 157.583715 134.080602 
L 157.730249 135.530666 
L 157.803516 133.384571 
L 157.95005 135.501665 
L 158.096584 132.543534 
L 158.243118 135.095647 
L 158.316385 134.660627 
L 158.462919 135.675672 
L 158.536186 134.138604 
L 158.609453 134.747631 
L 158.755987 136.168694 
L 158.902521 134.573624 
L 158.975788 134.834635 
L 159.049055 135.878681 
L 159.122322 135.820679 
L 159.195589 135.733675 
L 159.41539 132.775544 
L 159.488657 133.81959 
L 159.561924 132.775544 
L 159.708458 135.646671 
L 159.854992 134.834635 
L 159.928259 135.501665 
L 160.001526 135.298656 
L 160.14806 134.660627 
L 160.221327 134.515621 
L 160.294594 134.747631 
L 160.367861 135.704673 
L 160.514395 133.500576 
L 160.587662 135.646671 
L 160.660929 134.71863 
L 160.734196 136.226697 
L 160.953996 133.529577 
L 161.027263 135.559667 
L 161.10053 134.892638 
L 161.173797 133.616581 
L 161.247064 133.848592 
L 161.320331 134.312612 
L 161.393598 135.820679 
L 161.466865 135.240653 
L 161.540132 133.529577 
L 161.613399 135.791677 
L 161.686666 134.71863 
L 161.8332 133.964597 
L 162.053001 135.61767 
L 162.272802 133.58758 
L 162.346069 134.341613 
L 162.419336 134.167606 
L 162.492603 134.254609 
L 162.56587 133.181562 
L 162.639137 135.791677 
L 162.712404 135.704673 
L 162.785671 134.71863 
L 162.858938 135.559667 
L 162.932205 133.877593 
L 163.078739 135.762676 
L 163.152006 133.239565 
L 163.29854 136.08169 
L 163.371807 135.878681 
L 163.445074 136.632714 
L 163.518341 133.58758 
L 163.591608 134.573624 
L 163.664875 133.558579 
L 163.811409 134.48662 
L 163.957943 133.993598 
L 164.031209 135.501665 
L 164.104476 135.240653 
L 164.177743 134.254609 
L 164.25101 135.907682 
L 164.324277 133.297567 
L 164.397544 134.022599 
L 164.544078 135.733675 
L 164.690612 133.35557 
L 164.763879 134.776633 
L 164.837146 134.196607 
L 164.98368 135.327657 
L 165.056947 134.48662 
L 165.130214 134.805634 
L 165.203481 136.922727 
L 165.423282 133.529577 
L 165.496549 134.544622 
L 165.569816 133.993598 
L 165.71635 136.690717 
L 165.789617 136.110691 
L 165.862884 133.036556 
L 165.936151 134.457618 
L 166.082685 135.559667 
L 166.155952 134.428617 
L 166.229219 136.08169 
L 166.302486 135.472663 
L 166.44902 133.558579 
L 166.522287 134.921639 
L 166.595554 134.602625 
L 166.668821 133.81959 
L 166.742088 135.037644 
L 166.815355 133.81959 
L 166.888622 136.197695 
L 167.035156 134.834635 
L 167.108423 135.733675 
L 167.18169 134.515621 
L 167.254956 134.834635 
L 167.328223 135.008643 
L 167.40149 134.283611 
L 167.474757 135.211652 
L 167.548024 135.153649 
L 167.767825 132.369526 
L 167.987626 134.631626 
L 168.060893 133.790589 
L 168.207427 134.892638 
L 168.353961 133.674584 
L 168.427228 134.283611 
L 168.500495 134.544622 
L 168.573762 135.269654 
L 168.647029 133.993598 
L 168.86683 136.052689 
L 169.013364 134.312612 
L 169.159898 134.979641 
L 169.306432 133.58758 
L 169.379699 133.529577 
L 169.452966 134.689629 
L 169.5995 133.471575 
L 169.672767 133.645583 
L 169.746034 135.588668 
L 169.819301 134.979641 
L 169.892568 135.530666 
L 169.965835 134.022599 
L 170.039102 134.399616 
L 170.112369 135.646671 
L 170.33217 132.862548 
L 170.405437 134.051601 
L 170.478704 133.877593 
L 170.625237 135.066645 
L 170.698504 134.660627 
L 170.771771 133.993598 
L 170.845038 135.443662 
L 170.991572 133.645583 
L 171.064839 135.327657 
L 171.211373 133.964597 
L 171.28464 133.935595 
L 171.357907 135.820679 
L 171.431174 132.804545 
L 171.504441 134.892638 
L 171.577708 133.35557 
L 171.650975 135.791677 
L 171.724242 134.834635 
L 171.797509 133.384571 
L 171.870776 134.312612 
L 171.944043 136.690717 
L 172.090577 134.399616 
L 172.163844 134.341613 
L 172.237111 134.573624 
L 172.310378 133.35557 
L 172.383645 134.370615 
L 172.456912 134.022599 
L 172.530179 133.558579 
L 172.676713 135.704673 
L 172.74998 134.254609 
L 172.823247 134.689629 
L 172.969781 133.877593 
L 173.043048 134.457618 
L 173.116315 133.065557 
L 173.262849 135.791677 
L 173.336116 134.892638 
L 173.48265 134.283611 
L 173.555917 135.646671 
L 173.629184 133.297567 
L 173.702451 133.529577 
L 173.775717 134.892638 
L 173.848984 134.428617 
L 173.922251 133.935595 
L 174.142052 134.863636 
L 174.215319 134.051601 
L 174.288586 134.283611 
L 174.361853 134.138604 
L 174.508387 135.356658 
L 174.581654 135.008643 
L 174.654921 135.965685 
L 174.801455 134.283611 
L 174.874722 135.472663 
L 174.947989 135.124648 
L 175.021256 133.906594 
L 175.094523 135.008643 
L 175.241057 133.645583 
L 175.314324 135.240653 
L 175.387591 134.544622 
L 175.534125 135.646671 
L 175.680659 132.920551 
L 175.753926 134.71863 
L 175.827193 132.369526 
L 175.90046 134.921639 
L 175.973727 134.631626 
L 176.046994 133.877593 
L 176.193528 135.124648 
L 176.266795 134.921639 
L 176.340062 134.196607 
L 176.413329 134.921639 
L 176.486596 133.326569 
L 176.559863 133.616581 
L 176.706397 134.95064 
L 176.852931 134.631626 
L 176.926198 134.631626 
L 176.999464 134.892638 
L 177.145998 133.181562 
L 177.219265 135.240653 
L 177.292532 134.457618 
L 177.365799 135.385659 
L 177.5856 133.239565 
L 177.732134 134.399616 
L 177.805401 132.775544 
L 177.951935 135.240653 
L 178.025202 135.066645 
L 178.098469 133.152561 
L 178.171736 133.848592 
L 178.245003 133.036556 
L 178.391537 133.935595 
L 178.611338 133.268566 
L 178.684605 134.283611 
L 178.757872 133.181562 
L 178.831139 133.645583 
L 178.904406 134.312612 
L 178.977673 134.051601 
L 179.05094 134.312612 
L 179.124207 135.298656 
L 179.197474 133.297567 
L 179.417275 135.472663 
L 179.563809 135.008643 
L 179.637076 132.137516 
L 179.856877 134.863636 
L 179.930144 133.094558 
L 180.003411 133.761588 
L 180.076678 133.413572 
L 180.149945 135.646671 
L 180.223211 133.877593 
L 180.296478 134.631626 
L 180.369745 134.660627 
L 180.443012 134.921639 
L 180.516279 132.137516 
L 180.589546 134.602625 
L 180.662813 133.964597 
L 180.73608 132.572535 
L 180.809347 134.167606 
L 180.882614 134.022599 
L 181.029148 134.979641 
L 181.102415 134.457618 
L 181.175682 134.747631 
L 181.248949 133.58758 
L 181.322216 133.790589 
L 181.46875 135.84968 
L 181.688551 132.891549 
L 181.761818 134.544622 
L 181.835085 133.268566 
L 181.908352 133.413572 
L 181.981619 134.138604 
L 182.054886 133.181562 
L 182.128153 135.327657 
L 182.20142 133.442574 
L 182.274687 133.616581 
L 182.347954 133.848592 
L 182.494488 133.065557 
L 182.787556 135.762676 
L 182.860823 134.138604 
L 183.080624 135.443662 
L 183.153891 133.761588 
L 183.227158 133.81959 
L 183.300425 134.399616 
L 183.373692 132.398528 
L 183.593492 135.153649 
L 183.666759 133.239565 
L 183.740026 134.196607 
L 183.813293 136.429706 
L 183.88656 131.818502 
L 183.959827 133.065557 
L 184.106361 135.008643 
L 184.252895 132.804545 
L 184.326162 134.428617 
L 184.399429 133.152561 
L 184.472696 133.703585 
L 184.545963 134.138604 
L 184.61923 133.935595 
L 184.692497 136.197695 
L 184.765764 133.384571 
L 184.839031 133.645583 
L 184.912298 135.472663 
L 185.058832 133.12356 
L 185.132099 135.588668 
L 185.205366 134.747631 
L 185.278633 134.109603 
L 185.3519 134.776633 
L 185.425167 134.022599 
L 185.498434 134.225608 
L 185.644968 133.761588 
L 185.718235 135.095647 
L 185.791502 134.747631 
L 185.938036 134.109603 
L 186.011303 134.48662 
L 186.08457 132.862548 
L 186.157837 133.558579 
L 186.304371 136.284699 
L 186.450905 133.616581 
L 186.524172 134.892638 
L 186.670705 133.471575 
L 186.743972 133.790589 
L 187.03704 134.776633 
L 187.110307 132.833547 
L 187.183574 135.095647 
L 187.256841 134.370615 
L 187.330108 133.761588 
L 187.403375 135.066645 
L 187.476642 134.602625 
L 187.623176 132.920551 
L 187.696443 135.443662 
L 187.76971 133.558579 
L 187.842977 134.312612 
L 187.916244 133.703585 
L 187.989511 134.428617 
L 188.062778 133.297567 
L 188.136045 134.834635 
L 188.209312 133.065557 
L 188.282579 136.052689 
L 188.355846 133.935595 
L 188.429113 133.964597 
L 188.575647 134.254609 
L 188.648914 132.485531 
L 188.795448 134.979641 
L 188.868715 134.515621 
L 188.941982 132.804545 
L 189.015249 134.71863 
L 189.088516 134.428617 
L 189.23505 133.964597 
L 189.308317 134.051601 
L 189.381584 133.384571 
L 189.454851 133.964597 
L 189.528118 133.413572 
L 189.674652 134.138604 
L 189.747919 133.674584 
L 189.821186 134.689629 
L 189.894452 132.891549 
L 189.967719 135.385659 
L 190.040986 134.631626 
L 190.114253 135.791677 
L 190.18752 135.472663 
L 190.260787 133.790589 
L 190.334054 135.907682 
L 190.407321 135.18265 
L 190.480588 135.356658 
L 190.553855 134.428617 
L 190.627122 136.110691 
L 190.700389 134.109603 
L 190.773656 135.153649 
L 190.773656 135.153649 
" clip-path="url(#p34c8282f31)" style="fill: none; stroke: #1f77b4; stroke-width: 0.5; stroke-linecap: square"/>
   </g>
   <g id="patch_3">
    <path d="M 23.410313 143.1 
L 23.410313 7.2 
" style="fill: none; stroke: #000000; stroke-width: 0.8; stroke-linejoin: miter; stroke-linecap: square"/>
   </g>
   <g id="patch_4">
    <path d="M 190.810313 143.1 
L 190.810313 7.2 
" style="fill: none; stroke: #000000; stroke-width: 0.8; stroke-linejoin: miter; stroke-linecap: square"/>
   </g>
   <g id="patch_5">
    <path d="M 23.410313 143.1 
L 190.810313 143.1 
" style="fill: none; stroke: #000000; stroke-width: 0.8; stroke-linejoin: miter; stroke-linecap: square"/>
   </g>
   <g id="patch_6">
    <path d="M 23.410313 7.2 
L 190.810313 7.2 
" style="fill: none; stroke: #000000; stroke-width: 0.8; stroke-linejoin: miter; stroke-linecap: square"/>
   </g>
  </g>
 </g>
 <defs>
  <clipPath id="p34c8282f31">
   <rect x="23.410313" y="7.2" width="167.4" height="135.9"/>
  </clipPath>
 </defs>
</svg>
