<?xml version="1.0" encoding="utf-8" standalone="no"?>
<!DOCTYPE svg PUBLIC "-//W3C//DTD SVG 1.1//EN"
  "http://www.w3.org/Graphics/SVG/1.1/DTD/svg11.dtd">
<svg xmlns:xlink="http://www.w3.org/1999/xlink" width="198.010312pt" height="177.752813pt" viewBox="0 0 198.010312 177.752813" xmlns="http://www.w3.org/2000/svg" version="1.1">
 <metadata>
  <rdf:RDF xmlns:dc="http://purl.org/dc/elements/1.1/" xmlns:cc="http://creativecommons.org/ns#" xmlns:rdf="http://www.w3.org/1999/02/22-rdf-syntax-ns#">
   <cc:Work>
    <dc:type rdf:resource="http://purl.org/dc/dcmitype/StillImage"/>
    <dc:date>2023-02-25T15:25:05.357016</dc:date>
    <dc:format>image/svg+xml</dc:format>
    <dc:creator>
     <cc:Agent>
      <dc:title>Matplotlib v3.5.2, https://matplotlib.org/</dc:title>
     </cc:Agent>
    </dc:creator>
   </cc:Work>
  </rdf:RDF>
 </metadata>
 <defs>
  <style type="text/css">*{stroke-linejoin: round; stroke-linecap: butt}</style>
 </defs>
 <g id="figure_1">
  <g id="patch_1">
   <path d="M 0 177.752813 
L 198.010312 177.752813 
L 198.010312 0 
L 0 0 
z
" style="fill: #ffffff"/>
  </g>
  <g id="axes_1">
   <g id="patch_2">
    <path d="M 23.410313 143.1 
L 190.810313 143.1 
L 190.810313 7.2 
L 23.410313 7.2 
z
" style="fill: #ffffff"/>
   </g>
   <g id="matplotlib.axis_1">
    <g id="xtick_1">
     <g id="line2d_1">
      <defs>
       <path id="m755c5d7d85" d="M 0 0 
L 0 3.5 
" style="stroke: #000000; stroke-width: 0.8"/>
      </defs>
      <g>
       <use xlink:href="#m755c5d7d85" x="37.360313" y="143.1" style="stroke: #000000; stroke-width: 0.8"/>
      </g>
     </g>
     <g id="text_1">
      <!-- 10 -->
      <g transform="translate(32.270313 156.17875)scale(0.08 -0.08)">
       <defs>
        <path id="DejaVuSans-31" d="M 794 531 
L 1825 531 
L 1825 4091 
L 703 3866 
L 703 4441 
L 1819 4666 
L 2450 4666 
L 2450 531 
L 3481 531 
L 3481 0 
L 794 0 
L 794 531 
z
" transform="scale(0.015625)"/>
        <path id="DejaVuSans-30" d="M 2034 4250 
Q 1547 4250 1301 3770 
Q 1056 3291 1056 2328 
Q 1056 1369 1301 889 
Q 1547 409 2034 409 
Q 2525 409 2770 889 
Q 3016 1369 3016 2328 
Q 3016 3291 2770 3770 
Q 2525 4250 2034 4250 
z
M 2034 4750 
Q 2819 4750 3233 4129 
Q 3647 3509 3647 2328 
Q 3647 1150 3233 529 
Q 2819 -91 2034 -91 
Q 1250 -91 836 529 
Q 422 1150 422 2328 
Q 422 3509 836 4129 
Q 1250 4750 2034 4750 
z
" transform="scale(0.015625)"/>
       </defs>
       <use xlink:href="#DejaVuSans-31"/>
       <use xlink:href="#DejaVuSans-30" x="63.623047"/>
      </g>
     </g>
    </g>
    <g id="xtick_2">
     <g id="line2d_2">
      <g>
       <use xlink:href="#m755c5d7d85" x="65.260312" y="143.1" style="stroke: #000000; stroke-width: 0.8"/>
      </g>
     </g>
     <g id="text_2">
      <!-- 20 -->
      <g transform="translate(60.170312 156.17875)scale(0.08 -0.08)">
       <defs>
        <path id="DejaVuSans-32" d="M 1228 531 
L 3431 531 
L 3431 0 
L 469 0 
L 469 531 
Q 828 903 1448 1529 
Q 2069 2156 2228 2338 
Q 2531 2678 2651 2914 
Q 2772 3150 2772 3378 
Q 2772 3750 2511 3984 
Q 2250 4219 1831 4219 
Q 1534 4219 1204 4116 
Q 875 4013 500 3803 
L 500 4441 
Q 881 4594 1212 4672 
Q 1544 4750 1819 4750 
Q 2544 4750 2975 4387 
Q 3406 4025 3406 3419 
Q 3406 3131 3298 2873 
Q 3191 2616 2906 2266 
Q 2828 2175 2409 1742 
Q 1991 1309 1228 531 
z
" transform="scale(0.015625)"/>
       </defs>
       <use xlink:href="#DejaVuSans-32"/>
       <use xlink:href="#DejaVuSans-30" x="63.623047"/>
      </g>
     </g>
    </g>
    <g id="xtick_3">
     <g id="line2d_3">
      <g>
       <use xlink:href="#m755c5d7d85" x="93.160313" y="143.1" style="stroke: #000000; stroke-width: 0.8"/>
      </g>
     </g>
     <g id="text_3">
      <!-- 30 -->
      <g transform="translate(88.070312 156.17875)scale(0.08 -0.08)">
       <defs>
        <path id="DejaVuSans-33" d="M 2597 2516 
Q 3050 2419 3304 2112 
Q 3559 1806 3559 1356 
Q 3559 666 3084 287 
Q 2609 -91 1734 -91 
Q 1441 -91 1130 -33 
Q 819 25 488 141 
L 488 750 
Q 750 597 1062 519 
Q 1375 441 1716 441 
Q 2309 441 2620 675 
Q 2931 909 2931 1356 
Q 2931 1769 2642 2001 
Q 2353 2234 1838 2234 
L 1294 2234 
L 1294 2753 
L 1863 2753 
Q 2328 2753 2575 2939 
Q 2822 3125 2822 3475 
Q 2822 3834 2567 4026 
Q 2313 4219 1838 4219 
Q 1578 4219 1281 4162 
Q 984 4106 628 3988 
L 628 4550 
Q 988 4650 1302 4700 
Q 1616 4750 1894 4750 
Q 2613 4750 3031 4423 
Q 3450 4097 3450 3541 
Q 3450 3153 3228 2886 
Q 3006 2619 2597 2516 
z
" transform="scale(0.015625)"/>
       </defs>
       <use xlink:href="#DejaVuSans-33"/>
       <use xlink:href="#DejaVuSans-30" x="63.623047"/>
      </g>
     </g>
    </g>
    <g id="xtick_4">
     <g id="line2d_4">
      <g>
       <use xlink:href="#m755c5d7d85" x="121.060312" y="143.1" style="stroke: #000000; stroke-width: 0.8"/>
      </g>
     </g>
     <g id="text_4">
      <!-- 40 -->
      <g transform="translate(115.970312 156.17875)scale(0.08 -0.08)">
       <defs>
        <path id="DejaVuSans-34" d="M 2419 4116 
L 825 1625 
L 2419 1625 
L 2419 4116 
z
M 2253 4666 
L 3047 4666 
L 3047 1625 
L 3713 1625 
L 3713 1100 
L 3047 1100 
L 3047 0 
L 2419 0 
L 2419 1100 
L 313 1100 
L 313 1709 
L 2253 4666 
z
" transform="scale(0.015625)"/>
       </defs>
       <use xlink:href="#DejaVuSans-34"/>
       <use xlink:href="#DejaVuSans-30" x="63.623047"/>
      </g>
     </g>
    </g>
    <g id="xtick_5">
     <g id="line2d_5">
      <g>
       <use xlink:href="#m755c5d7d85" x="148.960313" y="143.1" style="stroke: #000000; stroke-width: 0.8"/>
      </g>
     </g>
     <g id="text_5">
      <!-- 50 -->
      <g transform="translate(143.870313 156.17875)scale(0.08 -0.08)">
       <defs>
        <path id="DejaVuSans-35" d="M 691 4666 
L 3169 4666 
L 3169 4134 
L 1269 4134 
L 1269 2991 
Q 1406 3038 1543 3061 
Q 1681 3084 1819 3084 
Q 2600 3084 3056 2656 
Q 3513 2228 3513 1497 
Q 3513 744 3044 326 
Q 2575 -91 1722 -91 
Q 1428 -91 1123 -41 
Q 819 9 494 109 
L 494 744 
Q 775 591 1075 516 
Q 1375 441 1709 441 
Q 2250 441 2565 725 
Q 2881 1009 2881 1497 
Q 2881 1984 2565 2268 
Q 2250 2553 1709 2553 
Q 1456 2553 1204 2497 
Q 953 2441 691 2322 
L 691 4666 
z
" transform="scale(0.015625)"/>
       </defs>
       <use xlink:href="#DejaVuSans-35"/>
       <use xlink:href="#DejaVuSans-30" x="63.623047"/>
      </g>
     </g>
    </g>
    <g id="xtick_6">
     <g id="line2d_6">
      <g>
       <use xlink:href="#m755c5d7d85" x="176.860313" y="143.1" style="stroke: #000000; stroke-width: 0.8"/>
      </g>
     </g>
     <g id="text_6">
      <!-- 60 -->
      <g transform="translate(171.770313 156.17875)scale(0.08 -0.08)">
       <defs>
        <path id="DejaVuSans-36" d="M 2113 2584 
Q 1688 2584 1439 2293 
Q 1191 2003 1191 1497 
Q 1191 994 1439 701 
Q 1688 409 2113 409 
Q 2538 409 2786 701 
Q 3034 994 3034 1497 
Q 3034 2003 2786 2293 
Q 2538 2584 2113 2584 
z
M 3366 4563 
L 3366 3988 
Q 3128 4100 2886 4159 
Q 2644 4219 2406 4219 
Q 1781 4219 1451 3797 
Q 1122 3375 1075 2522 
Q 1259 2794 1537 2939 
Q 1816 3084 2150 3084 
Q 2853 3084 3261 2657 
Q 3669 2231 3669 1497 
Q 3669 778 3244 343 
Q 2819 -91 2113 -91 
Q 1303 -91 875 529 
Q 447 1150 447 2328 
Q 447 3434 972 4092 
Q 1497 4750 2381 4750 
Q 2619 4750 2861 4703 
Q 3103 4656 3366 4563 
z
" transform="scale(0.015625)"/>
       </defs>
       <use xlink:href="#DejaVuSans-36"/>
       <use xlink:href="#DejaVuSans-30" x="63.623047"/>
      </g>
     </g>
    </g>
    <g id="xtick_7">
     <g id="line2d_7">
      <defs>
       <path id="mb055fc6a4e" d="M 0 0 
L 0 2 
" style="stroke: #000000; stroke-width: 0.6"/>
      </defs>
      <g>
       <use xlink:href="#mb055fc6a4e" x="23.410313" y="143.1" style="stroke: #000000; stroke-width: 0.6"/>
      </g>
     </g>
    </g>
    <g id="xtick_8">
     <g id="line2d_8">
      <g>
       <use xlink:href="#mb055fc6a4e" x="30.385313" y="143.1" style="stroke: #000000; stroke-width: 0.6"/>
      </g>
     </g>
    </g>
    <g id="xtick_9">
     <g id="line2d_9">
      <g>
       <use xlink:href="#mb055fc6a4e" x="44.335313" y="143.1" style="stroke: #000000; stroke-width: 0.6"/>
      </g>
     </g>
    </g>
    <g id="xtick_10">
     <g id="line2d_10">
      <g>
       <use xlink:href="#mb055fc6a4e" x="51.310313" y="143.1" style="stroke: #000000; stroke-width: 0.6"/>
      </g>
     </g>
    </g>
    <g id="xtick_11">
     <g id="line2d_11">
      <g>
       <use xlink:href="#mb055fc6a4e" x="58.285313" y="143.1" style="stroke: #000000; stroke-width: 0.6"/>
      </g>
     </g>
    </g>
    <g id="xtick_12">
     <g id="line2d_12">
      <g>
       <use xlink:href="#mb055fc6a4e" x="72.235313" y="143.1" style="stroke: #000000; stroke-width: 0.6"/>
      </g>
     </g>
    </g>
    <g id="xtick_13">
     <g id="line2d_13">
      <g>
       <use xlink:href="#mb055fc6a4e" x="79.210313" y="143.1" style="stroke: #000000; stroke-width: 0.6"/>
      </g>
     </g>
    </g>
    <g id="xtick_14">
     <g id="line2d_14">
      <g>
       <use xlink:href="#mb055fc6a4e" x="86.185312" y="143.1" style="stroke: #000000; stroke-width: 0.6"/>
      </g>
     </g>
    </g>
    <g id="xtick_15">
     <g id="line2d_15">
      <g>
       <use xlink:href="#mb055fc6a4e" x="100.135312" y="143.1" style="stroke: #000000; stroke-width: 0.6"/>
      </g>
     </g>
    </g>
    <g id="xtick_16">
     <g id="line2d_16">
      <g>
       <use xlink:href="#mb055fc6a4e" x="107.110313" y="143.1" style="stroke: #000000; stroke-width: 0.6"/>
      </g>
     </g>
    </g>
    <g id="xtick_17">
     <g id="line2d_17">
      <g>
       <use xlink:href="#mb055fc6a4e" x="114.085313" y="143.1" style="stroke: #000000; stroke-width: 0.6"/>
      </g>
     </g>
    </g>
    <g id="xtick_18">
     <g id="line2d_18">
      <g>
       <use xlink:href="#mb055fc6a4e" x="128.035313" y="143.1" style="stroke: #000000; stroke-width: 0.6"/>
      </g>
     </g>
    </g>
    <g id="xtick_19">
     <g id="line2d_19">
      <g>
       <use xlink:href="#mb055fc6a4e" x="135.010312" y="143.1" style="stroke: #000000; stroke-width: 0.6"/>
      </g>
     </g>
    </g>
    <g id="xtick_20">
     <g id="line2d_20">
      <g>
       <use xlink:href="#mb055fc6a4e" x="141.985313" y="143.1" style="stroke: #000000; stroke-width: 0.6"/>
      </g>
     </g>
    </g>
    <g id="xtick_21">
     <g id="line2d_21">
      <g>
       <use xlink:href="#mb055fc6a4e" x="155.935313" y="143.1" style="stroke: #000000; stroke-width: 0.6"/>
      </g>
     </g>
    </g>
    <g id="xtick_22">
     <g id="line2d_22">
      <g>
       <use xlink:href="#mb055fc6a4e" x="162.910313" y="143.1" style="stroke: #000000; stroke-width: 0.6"/>
      </g>
     </g>
    </g>
    <g id="xtick_23">
     <g id="line2d_23">
      <g>
       <use xlink:href="#mb055fc6a4e" x="169.885313" y="143.1" style="stroke: #000000; stroke-width: 0.6"/>
      </g>
     </g>
    </g>
    <g id="xtick_24">
     <g id="line2d_24">
      <g>
       <use xlink:href="#mb055fc6a4e" x="183.835313" y="143.1" style="stroke: #000000; stroke-width: 0.6"/>
      </g>
     </g>
    </g>
    <g id="xtick_25">
     <g id="line2d_25">
      <g>
       <use xlink:href="#mb055fc6a4e" x="190.810313" y="143.1" style="stroke: #000000; stroke-width: 0.6"/>
      </g>
     </g>
    </g>
    <g id="text_7">
     <!-- Two Theta (degrees) -->
     <g transform="translate(61.294688 168.681094)scale(0.09 -0.09)">
      <defs>
       <path id="DejaVuSans-54" d="M -19 4666 
L 3928 4666 
L 3928 4134 
L 2272 4134 
L 2272 0 
L 1638 0 
L 1638 4134 
L -19 4134 
L -19 4666 
z
" transform="scale(0.015625)"/>
       <path id="DejaVuSans-77" d="M 269 3500 
L 844 3500 
L 1563 769 
L 2278 3500 
L 2956 3500 
L 3675 769 
L 4391 3500 
L 4966 3500 
L 4050 0 
L 3372 0 
L 2619 2869 
L 1863 0 
L 1184 0 
L 269 3500 
z
" transform="scale(0.015625)"/>
       <path id="DejaVuSans-6f" d="M 1959 3097 
Q 1497 3097 1228 2736 
Q 959 2375 959 1747 
Q 959 1119 1226 758 
Q 1494 397 1959 397 
Q 2419 397 2687 759 
Q 2956 1122 2956 1747 
Q 2956 2369 2687 2733 
Q 2419 3097 1959 3097 
z
M 1959 3584 
Q 2709 3584 3137 3096 
Q 3566 2609 3566 1747 
Q 3566 888 3137 398 
Q 2709 -91 1959 -91 
Q 1206 -91 779 398 
Q 353 888 353 1747 
Q 353 2609 779 3096 
Q 1206 3584 1959 3584 
z
" transform="scale(0.015625)"/>
       <path id="DejaVuSans-20" transform="scale(0.015625)"/>
       <path id="DejaVuSans-68" d="M 3513 2113 
L 3513 0 
L 2938 0 
L 2938 2094 
Q 2938 2591 2744 2837 
Q 2550 3084 2163 3084 
Q 1697 3084 1428 2787 
Q 1159 2491 1159 1978 
L 1159 0 
L 581 0 
L 581 4863 
L 1159 4863 
L 1159 2956 
Q 1366 3272 1645 3428 
Q 1925 3584 2291 3584 
Q 2894 3584 3203 3211 
Q 3513 2838 3513 2113 
z
" transform="scale(0.015625)"/>
       <path id="DejaVuSans-65" d="M 3597 1894 
L 3597 1613 
L 953 1613 
Q 991 1019 1311 708 
Q 1631 397 2203 397 
Q 2534 397 2845 478 
Q 3156 559 3463 722 
L 3463 178 
Q 3153 47 2828 -22 
Q 2503 -91 2169 -91 
Q 1331 -91 842 396 
Q 353 884 353 1716 
Q 353 2575 817 3079 
Q 1281 3584 2069 3584 
Q 2775 3584 3186 3129 
Q 3597 2675 3597 1894 
z
M 3022 2063 
Q 3016 2534 2758 2815 
Q 2500 3097 2075 3097 
Q 1594 3097 1305 2825 
Q 1016 2553 972 2059 
L 3022 2063 
z
" transform="scale(0.015625)"/>
       <path id="DejaVuSans-74" d="M 1172 4494 
L 1172 3500 
L 2356 3500 
L 2356 3053 
L 1172 3053 
L 1172 1153 
Q 1172 725 1289 603 
Q 1406 481 1766 481 
L 2356 481 
L 2356 0 
L 1766 0 
Q 1100 0 847 248 
Q 594 497 594 1153 
L 594 3053 
L 172 3053 
L 172 3500 
L 594 3500 
L 594 4494 
L 1172 4494 
z
" transform="scale(0.015625)"/>
       <path id="DejaVuSans-61" d="M 2194 1759 
Q 1497 1759 1228 1600 
Q 959 1441 959 1056 
Q 959 750 1161 570 
Q 1363 391 1709 391 
Q 2188 391 2477 730 
Q 2766 1069 2766 1631 
L 2766 1759 
L 2194 1759 
z
M 3341 1997 
L 3341 0 
L 2766 0 
L 2766 531 
Q 2569 213 2275 61 
Q 1981 -91 1556 -91 
Q 1019 -91 701 211 
Q 384 513 384 1019 
Q 384 1609 779 1909 
Q 1175 2209 1959 2209 
L 2766 2209 
L 2766 2266 
Q 2766 2663 2505 2880 
Q 2244 3097 1772 3097 
Q 1472 3097 1187 3025 
Q 903 2953 641 2809 
L 641 3341 
Q 956 3463 1253 3523 
Q 1550 3584 1831 3584 
Q 2591 3584 2966 3190 
Q 3341 2797 3341 1997 
z
" transform="scale(0.015625)"/>
       <path id="DejaVuSans-28" d="M 1984 4856 
Q 1566 4138 1362 3434 
Q 1159 2731 1159 2009 
Q 1159 1288 1364 580 
Q 1569 -128 1984 -844 
L 1484 -844 
Q 1016 -109 783 600 
Q 550 1309 550 2009 
Q 550 2706 781 3412 
Q 1013 4119 1484 4856 
L 1984 4856 
z
" transform="scale(0.015625)"/>
       <path id="DejaVuSans-64" d="M 2906 2969 
L 2906 4863 
L 3481 4863 
L 3481 0 
L 2906 0 
L 2906 525 
Q 2725 213 2448 61 
Q 2172 -91 1784 -91 
Q 1150 -91 751 415 
Q 353 922 353 1747 
Q 353 2572 751 3078 
Q 1150 3584 1784 3584 
Q 2172 3584 2448 3432 
Q 2725 3281 2906 2969 
z
M 947 1747 
Q 947 1113 1208 752 
Q 1469 391 1925 391 
Q 2381 391 2643 752 
Q 2906 1113 2906 1747 
Q 2906 2381 2643 2742 
Q 2381 3103 1925 3103 
Q 1469 3103 1208 2742 
Q 947 2381 947 1747 
z
" transform="scale(0.015625)"/>
       <path id="DejaVuSans-67" d="M 2906 1791 
Q 2906 2416 2648 2759 
Q 2391 3103 1925 3103 
Q 1463 3103 1205 2759 
Q 947 2416 947 1791 
Q 947 1169 1205 825 
Q 1463 481 1925 481 
Q 2391 481 2648 825 
Q 2906 1169 2906 1791 
z
M 3481 434 
Q 3481 -459 3084 -895 
Q 2688 -1331 1869 -1331 
Q 1566 -1331 1297 -1286 
Q 1028 -1241 775 -1147 
L 775 -588 
Q 1028 -725 1275 -790 
Q 1522 -856 1778 -856 
Q 2344 -856 2625 -561 
Q 2906 -266 2906 331 
L 2906 616 
Q 2728 306 2450 153 
Q 2172 0 1784 0 
Q 1141 0 747 490 
Q 353 981 353 1791 
Q 353 2603 747 3093 
Q 1141 3584 1784 3584 
Q 2172 3584 2450 3431 
Q 2728 3278 2906 2969 
L 2906 3500 
L 3481 3500 
L 3481 434 
z
" transform="scale(0.015625)"/>
       <path id="DejaVuSans-72" d="M 2631 2963 
Q 2534 3019 2420 3045 
Q 2306 3072 2169 3072 
Q 1681 3072 1420 2755 
Q 1159 2438 1159 1844 
L 1159 0 
L 581 0 
L 581 3500 
L 1159 3500 
L 1159 2956 
Q 1341 3275 1631 3429 
Q 1922 3584 2338 3584 
Q 2397 3584 2469 3576 
Q 2541 3569 2628 3553 
L 2631 2963 
z
" transform="scale(0.015625)"/>
       <path id="DejaVuSans-73" d="M 2834 3397 
L 2834 2853 
Q 2591 2978 2328 3040 
Q 2066 3103 1784 3103 
Q 1356 3103 1142 2972 
Q 928 2841 928 2578 
Q 928 2378 1081 2264 
Q 1234 2150 1697 2047 
L 1894 2003 
Q 2506 1872 2764 1633 
Q 3022 1394 3022 966 
Q 3022 478 2636 193 
Q 2250 -91 1575 -91 
Q 1294 -91 989 -36 
Q 684 19 347 128 
L 347 722 
Q 666 556 975 473 
Q 1284 391 1588 391 
Q 1994 391 2212 530 
Q 2431 669 2431 922 
Q 2431 1156 2273 1281 
Q 2116 1406 1581 1522 
L 1381 1569 
Q 847 1681 609 1914 
Q 372 2147 372 2553 
Q 372 3047 722 3315 
Q 1072 3584 1716 3584 
Q 2034 3584 2315 3537 
Q 2597 3491 2834 3397 
z
" transform="scale(0.015625)"/>
       <path id="DejaVuSans-29" d="M 513 4856 
L 1013 4856 
Q 1481 4119 1714 3412 
Q 1947 2706 1947 2009 
Q 1947 1309 1714 600 
Q 1481 -109 1013 -844 
L 513 -844 
Q 928 -128 1133 580 
Q 1338 1288 1338 2009 
Q 1338 2731 1133 3434 
Q 928 4138 513 4856 
z
" transform="scale(0.015625)"/>
      </defs>
      <use xlink:href="#DejaVuSans-54"/>
      <use xlink:href="#DejaVuSans-77" x="44.583984"/>
      <use xlink:href="#DejaVuSans-6f" x="126.371094"/>
      <use xlink:href="#DejaVuSans-20" x="187.552734"/>
      <use xlink:href="#DejaVuSans-54" x="219.339844"/>
      <use xlink:href="#DejaVuSans-68" x="280.423828"/>
      <use xlink:href="#DejaVuSans-65" x="343.802734"/>
      <use xlink:href="#DejaVuSans-74" x="405.326172"/>
      <use xlink:href="#DejaVuSans-61" x="444.535156"/>
      <use xlink:href="#DejaVuSans-20" x="505.814453"/>
      <use xlink:href="#DejaVuSans-28" x="537.601562"/>
      <use xlink:href="#DejaVuSans-64" x="576.615234"/>
      <use xlink:href="#DejaVuSans-65" x="640.091797"/>
      <use xlink:href="#DejaVuSans-67" x="701.615234"/>
      <use xlink:href="#DejaVuSans-72" x="765.091797"/>
      <use xlink:href="#DejaVuSans-65" x="803.955078"/>
      <use xlink:href="#DejaVuSans-65" x="865.478516"/>
      <use xlink:href="#DejaVuSans-73" x="927.001953"/>
      <use xlink:href="#DejaVuSans-29" x="979.101562"/>
     </g>
    </g>
   </g>
   <g id="matplotlib.axis_2">
    <g id="ytick_1">
     <g id="line2d_26"/>
    </g>
    <g id="ytick_2">
     <g id="line2d_27"/>
    </g>
    <g id="ytick_3">
     <g id="line2d_28"/>
    </g>
    <g id="ytick_4">
     <g id="line2d_29"/>
    </g>
    <g id="ytick_5">
     <g id="line2d_30"/>
    </g>
    <g id="text_8">
     <!-- Intensity -->
     <g transform="translate(14.038594 94.73625)rotate(-90)scale(0.09 -0.09)">
      <defs>
       <path id="DejaVuSans-49" d="M 628 4666 
L 1259 4666 
L 1259 0 
L 628 0 
L 628 4666 
z
" transform="scale(0.015625)"/>
       <path id="DejaVuSans-6e" d="M 3513 2113 
L 3513 0 
L 2938 0 
L 2938 2094 
Q 2938 2591 2744 2837 
Q 2550 3084 2163 3084 
Q 1697 3084 1428 2787 
Q 1159 2491 1159 1978 
L 1159 0 
L 581 0 
L 581 3500 
L 1159 3500 
L 1159 2956 
Q 1366 3272 1645 3428 
Q 1925 3584 2291 3584 
Q 2894 3584 3203 3211 
Q 3513 2838 3513 2113 
z
" transform="scale(0.015625)"/>
       <path id="DejaVuSans-69" d="M 603 3500 
L 1178 3500 
L 1178 0 
L 603 0 
L 603 3500 
z
M 603 4863 
L 1178 4863 
L 1178 4134 
L 603 4134 
L 603 4863 
z
" transform="scale(0.015625)"/>
       <path id="DejaVuSans-79" d="M 2059 -325 
Q 1816 -950 1584 -1140 
Q 1353 -1331 966 -1331 
L 506 -1331 
L 506 -850 
L 844 -850 
Q 1081 -850 1212 -737 
Q 1344 -625 1503 -206 
L 1606 56 
L 191 3500 
L 800 3500 
L 1894 763 
L 2988 3500 
L 3597 3500 
L 2059 -325 
z
" transform="scale(0.015625)"/>
      </defs>
      <use xlink:href="#DejaVuSans-49"/>
      <use xlink:href="#DejaVuSans-6e" x="29.492188"/>
      <use xlink:href="#DejaVuSans-74" x="92.871094"/>
      <use xlink:href="#DejaVuSans-65" x="132.080078"/>
      <use xlink:href="#DejaVuSans-6e" x="193.603516"/>
      <use xlink:href="#DejaVuSans-73" x="256.982422"/>
      <use xlink:href="#DejaVuSans-69" x="309.082031"/>
      <use xlink:href="#DejaVuSans-74" x="336.865234"/>
      <use xlink:href="#DejaVuSans-79" x="376.074219"/>
     </g>
    </g>
   </g>
   <g id="line2d_31">
    <path d="M 23.43188 13.377273 
L 23.651681 20.311637 
L 23.724948 20.636686 
L 23.798215 19.119793 
L 24.457618 34.044929 
L 24.530885 31.119494 
L 24.604152 35.155511 
L 24.677419 29.494253 
L 24.89722 36.834928 
L 24.970487 36.645316 
L 25.043753 35.588909 
L 25.190287 41.114731 
L 25.263554 39.489489 
L 25.410088 42.821234 
L 25.483355 40.843857 
L 25.703156 46.071718 
L 25.84969 42.171138 
L 25.996224 47.480261 
L 26.069491 46.098805 
L 26.216025 48.915891 
L 26.289292 48.780454 
L 26.435826 47.480261 
L 26.58236 51.055792 
L 26.655627 50.432783 
L 26.875428 56.175303 
L 27.021962 51.08288 
L 27.095229 52.437248 
L 27.168496 57.096274 
L 27.31503 53.656179 
L 27.388297 54.008315 
L 27.534831 58.802778 
L 27.608098 52.599772 
L 27.681365 56.121129 
L 27.754632 55.416857 
L 27.974433 58.694428 
L 28.0477 57.638021 
L 28.120967 59.940447 
L 28.194234 59.534136 
L 28.2675 60.428019 
L 28.340767 56.121129 
L 28.414034 59.913359 
L 28.487301 56.581614 
L 28.633835 61.105203 
L 28.780369 60.102971 
L 29.00017 64.382774 
L 29.146704 66.089278 
L 29.219971 62.757532 
L 29.293238 65.114133 
L 29.366505 62.26996 
L 29.439772 65.466268 
L 29.513039 64.491123 
L 29.586306 62.595008 
L 29.659573 64.22025 
L 29.73284 69.55646 
L 29.879374 63.245105 
L 30.099175 69.285586 
L 30.172442 65.330832 
L 30.245709 66.116365 
L 30.318976 68.472965 
L 30.392243 66.008016 
L 30.46551 70.58578 
L 30.538777 67.199859 
L 30.612044 68.63549 
L 30.685311 68.581315 
L 30.758578 67.822869 
L 30.831845 64.707822 
L 31.051646 69.637722 
L 31.124913 67.118597 
L 31.19818 67.335296 
L 31.271447 71.642187 
L 31.344714 70.016945 
L 31.417981 73.023642 
L 31.564514 66.522675 
L 31.637781 71.019177 
L 31.711048 70.775391 
L 31.784315 70.152382 
L 31.857582 71.208789 
L 31.930849 71.181702 
L 32.004116 70.965003 
L 32.077383 69.529373 
L 32.15065 72.752769 
L 32.223917 70.098207 
L 32.297184 73.213254 
L 32.370451 71.290051 
L 32.443718 71.750536 
L 32.516985 72.265196 
L 32.590252 74.296748 
L 32.736786 71.994322 
L 32.810053 73.159079 
L 32.88332 72.834031 
L 33.176388 75.326068 
L 33.249655 75.326068 
L 33.322922 74.459272 
L 33.396189 76.924222 
L 33.542723 73.186166 
L 33.835791 78.441114 
L 34.128859 73.86335 
L 34.202126 77.113834 
L 34.275393 76.599174 
L 34.34866 75.976165 
L 34.568461 78.820337 
L 34.641728 79.768395 
L 34.788261 77.222183 
L 34.934795 79.524609 
L 35.081329 77.655581 
L 35.227863 81.122763 
L 35.374397 80.147618 
L 35.447664 80.662278 
L 35.594198 79.82257 
L 35.667465 81.149851 
L 35.740732 78.549464 
L 35.813999 80.310142 
L 35.887266 79.795482 
L 35.960533 79.037036 
L 36.0338 80.85189 
L 36.107067 78.332765 
L 36.326868 82.450044 
L 36.400135 81.583248 
L 36.473402 83.289752 
L 36.546669 82.341694 
L 36.619936 82.856354 
L 36.693203 81.393637 
L 36.913004 83.831499 
L 37.059538 81.529074 
L 37.132805 81.610336 
L 37.206072 80.74354 
L 37.279339 84.725382 
L 37.352606 83.885674 
L 37.425873 84.64412 
L 37.572407 83.371014 
L 37.645674 81.556161 
L 37.718941 84.779557 
L 37.865475 82.314607 
L 37.938741 85.240042 
L 38.012008 84.481596 
L 38.085275 84.075286 
L 38.158542 82.748005 
L 38.231809 83.235577 
L 38.305076 82.856354 
L 38.378343 86.350624 
L 38.45161 86.323537 
L 38.598144 83.858587 
L 38.744678 85.863051 
L 38.891212 87.461206 
L 38.964479 87.298682 
L 39.037746 83.479364 
L 39.18428 86.621497 
L 39.257547 85.375479 
L 39.330814 86.59441 
L 39.404081 85.104605 
L 39.477348 88.355089 
L 39.550615 86.59441 
L 39.623882 87.190332 
L 39.770416 87.434118 
L 39.843683 86.892371 
L 39.91695 87.921691 
L 39.990217 86.784022 
L 40.063484 88.896836 
L 40.136751 88.273827 
L 40.283285 86.458973 
L 40.356552 86.946546 
L 40.429819 89.005185 
L 40.503086 88.815574 
L 40.576353 85.56509 
L 40.64962 88.002953 
L 40.722887 87.434118 
L 40.942688 88.219652 
L 41.015955 89.655282 
L 41.162488 88.436351 
L 41.455556 91.52431 
L 41.528823 88.517613 
L 41.60209 90.007418 
L 41.675357 90.332466 
L 41.748624 91.984795 
L 41.895158 89.303146 
L 42.041692 91.93062 
L 42.188226 89.519845 
L 42.33476 93.257901 
L 42.481294 89.790719 
L 42.627828 89.899068 
L 42.701095 92.336931 
L 42.774362 91.307611 
L 42.847629 89.926156 
L 42.994163 92.066057 
L 43.140697 94.178871 
L 43.213964 91.334698 
L 43.287231 91.388873 
L 43.360498 90.224117 
L 43.433765 92.824503 
L 43.507032 90.197029 
L 43.726833 94.991492 
L 43.8001 94.260133 
L 43.946634 92.03897 
L 44.019901 94.585182 
L 44.166435 90.332466 
L 44.312969 93.339163 
L 44.386235 92.851591 
L 44.532769 95.93955 
L 44.679303 91.93062 
L 44.75257 96.237511 
L 44.825837 93.528775 
L 44.899104 93.718386 
L 44.972371 93.203726 
L 45.045638 94.476832 
L 45.118905 92.228581 
L 45.192172 94.720618 
L 45.265439 94.693531 
L 45.411973 95.722851 
L 45.48524 95.397803 
L 45.558507 95.397803 
L 45.778308 91.849358 
L 45.924842 94.991492 
L 45.998109 93.664211 
L 46.071376 97.971102 
L 46.144643 92.770328 
L 46.21791 93.88091 
L 46.291177 95.397803 
L 46.364444 94.368483 
L 46.437711 95.31654 
L 46.510978 94.368483 
L 46.584245 98.702461 
L 46.657512 95.695763 
L 46.730779 95.993724 
L 46.804046 97.456442 
L 46.877313 92.824503 
L 46.95058 94.449745 
L 47.023847 93.718386 
L 47.097114 97.537704 
L 47.170381 97.483529 
L 47.316915 95.749938 
L 47.390182 97.998189 
L 47.463449 97.673141 
L 47.536716 98.485762 
L 47.609983 95.804113 
L 47.683249 98.133626 
L 47.756516 97.808578 
L 47.90305 95.397803 
L 47.976317 99.027509 
L 48.049584 95.966637 
L 48.122851 96.806345 
L 48.269385 97.050132 
L 48.342652 96.914695 
L 48.415919 97.510617 
L 48.489186 96.291685 
L 48.562453 97.591879 
L 48.63572 96.372948 
L 48.708987 101.113236 
L 48.782254 94.287221 
L 48.855521 98.864985 
L 48.928788 95.804113 
L 49.002055 96.264598 
L 49.148589 99.406732 
L 49.221856 97.26683 
L 49.295123 101.357022 
L 49.441657 96.752171 
L 49.588191 98.350325 
L 49.661458 96.047899 
L 49.734725 98.214888 
L 49.807992 96.995957 
L 49.954526 99.162946 
L 50.027793 98.864985 
L 50.10106 96.481297 
L 50.174327 100.463139 
L 50.247594 97.321005 
L 50.320861 98.025277 
L 50.394128 99.027509 
L 50.467395 97.835665 
L 50.540662 99.813042 
L 50.687196 97.456442 
L 50.83373 99.596344 
L 50.906996 97.862752 
L 50.980263 99.433819 
L 51.05353 97.37518 
L 51.126797 99.84013 
L 51.200064 97.944014 
L 51.346598 100.679838 
L 51.419865 98.269063 
L 51.493132 100.463139 
L 51.566399 99.081684 
L 51.712933 101.27576 
L 51.7862 101.519546 
L 51.859467 98.81081 
L 51.932734 99.000422 
L 52.006001 98.106539 
L 52.152535 100.463139 
L 52.225802 99.677606 
L 52.299069 101.194498 
L 52.372336 99.000422 
L 52.51887 102.575953 
L 52.592137 97.646053 
L 52.665404 97.944014 
L 52.738671 98.241975 
L 52.811938 100.598576 
L 52.885205 97.212656 
L 52.958472 99.054596 
L 53.031739 98.377412 
L 53.25154 100.463139 
L 53.398074 97.348093 
L 53.471341 99.948479 
L 53.544608 96.725083 
L 53.691142 99.867217 
L 53.764409 99.21712 
L 53.837676 101.898769 
L 53.910943 100.7611 
L 53.98421 98.729548 
L 54.130743 100.679838 
L 54.20401 98.187801 
L 54.277277 98.648286 
L 54.423811 100.35479 
L 54.497078 98.160713 
L 54.570345 98.729548 
L 54.716879 100.598576 
L 54.790146 97.618966 
L 54.863413 103.198963 
L 55.009947 98.756635 
L 55.083214 99.244208 
L 55.156481 98.4045 
L 55.229748 95.966637 
L 55.449549 101.68207 
L 55.596083 96.616734 
L 55.66935 99.785955 
L 55.742617 98.512849 
L 55.889151 100.192265 
L 55.962418 94.883143 
L 56.035685 100.192265 
L 56.108952 99.135858 
L 56.255486 100.842362 
L 56.40202 97.700228 
L 56.475287 97.754403 
L 56.548554 97.321005 
L 56.695088 98.594111 
L 56.841622 96.535472 
L 56.988156 99.569256 
L 57.207957 98.214888 
L 57.35449 97.754403 
L 57.427757 97.754403 
L 57.574291 97.077219 
L 57.647558 98.269063 
L 57.720825 98.133626 
L 57.794092 96.968869 
L 57.867359 97.591879 
L 57.940626 99.190033 
L 58.013893 98.756635 
L 58.160427 96.725083 
L 58.233694 97.348093 
L 58.380228 96.643821 
L 58.453495 97.754403 
L 58.526762 94.612269 
L 58.600029 94.856055 
L 58.673296 95.31654 
L 58.746563 98.648286 
L 58.81983 92.634892 
L 58.893097 95.533239 
L 58.966364 96.535472 
L 59.039631 94.774793 
L 59.112898 94.828968 
L 59.186165 94.476832 
L 59.259432 98.323238 
L 59.332699 95.262366 
L 59.405966 96.074987 
L 59.479233 94.937317 
L 59.5525 96.129161 
L 59.699034 94.368483 
L 59.772301 96.183336 
L 59.918835 92.987027 
L 59.992102 95.208191 
L 60.065369 95.099842 
L 60.138636 94.991492 
L 60.211903 95.126929 
L 60.28517 93.420425 
L 60.431704 96.291685 
L 60.504971 93.36625 
L 60.578237 96.237511 
L 60.798038 92.147319 
L 60.871305 95.018579 
L 60.944572 91.822271 
L 61.017839 94.287221 
L 61.091106 92.093144 
L 61.164373 92.607804 
L 61.23764 93.664211 
L 61.310907 92.770328 
L 61.384174 95.181104 
L 61.603975 91.226349 
L 61.750509 93.637124 
L 61.97031 89.194797 
L 62.116844 93.149552 
L 62.190111 89.871981 
L 62.336645 92.526542 
L 62.409912 92.364018 
L 62.556446 90.278291 
L 62.70298 91.632659 
L 62.849514 89.57402 
L 62.996048 90.657514 
L 63.142582 88.625962 
L 63.289116 90.169942 
L 63.43565 89.303146 
L 63.508917 90.061592 
L 63.582184 87.407031 
L 63.655451 91.00965 
L 63.875251 87.271594 
L 64.021785 85.917226 
L 64.168319 90.305379 
L 64.241586 89.032273 
L 64.314853 88.625962 
L 64.38812 88.923923 
L 64.534654 85.510916 
L 64.607921 84.291984 
L 64.754455 88.165477 
L 64.827722 87.081983 
L 64.900989 87.163245 
L 64.974256 88.111302 
L 65.047523 87.190332 
L 65.12079 88.896836 
L 65.194057 85.700527 
L 65.267324 87.894603 
L 65.413858 83.72315 
L 65.487125 83.479364 
L 65.560392 88.084215 
L 65.633659 86.811109 
L 65.706926 83.479364 
L 65.780193 87.217419 
L 65.926727 83.641888 
L 65.999994 83.533538 
L 66.073261 84.021111 
L 66.146528 83.885674 
L 66.219795 81.799947 
L 66.293062 83.750237 
L 66.366329 82.991791 
L 66.439596 82.748005 
L 66.512863 79.985094 
L 66.732664 86.729847 
L 66.805931 82.314607 
L 66.879198 84.183635 
L 66.952465 82.070821 
L 67.025731 82.28752 
L 67.245532 80.147618 
L 67.5386 85.375479 
L 67.685134 80.120531 
L 67.758401 81.122763 
L 67.831668 80.120531 
L 67.904935 83.777325 
L 67.978202 81.962471 
L 68.051469 82.233345 
L 68.124736 78.766163 
L 68.198003 79.632958 
L 68.27127 77.140921 
L 68.417804 82.368782 
L 68.491071 79.903832 
L 68.564338 79.876745 
L 68.637605 77.520144 
L 68.710872 78.305678 
L 68.930673 82.341694 
L 69.00394 77.899367 
L 69.077207 78.034804 
L 69.223741 80.391404 
L 69.297008 79.741308 
L 69.370275 77.87228 
L 69.443542 79.253735 
L 69.516809 79.199561 
L 69.590076 79.172473 
L 69.663343 77.493057 
L 69.73661 78.224415 
L 69.809877 77.140921 
L 69.883144 80.445579 
L 69.956411 76.003252 
L 70.029678 77.493057 
L 70.176212 78.955774 
L 70.249479 75.082282 
L 70.322745 75.569854 
L 70.396012 78.711988 
L 70.469279 77.682668 
L 70.615813 75.840728 
L 70.68908 77.845192 
L 70.762347 74.838495 
L 70.835614 78.928687 
L 70.908881 71.994322 
L 70.982148 73.45704 
L 71.055415 76.978397 
L 71.201949 73.836263 
L 71.275216 76.355388 
L 71.348483 75.705291 
L 71.42175 77.547231 
L 71.495017 74.567622 
L 71.568284 77.574319 
L 71.641551 76.057427 
L 71.714818 75.190631 
L 71.788085 72.238109 
L 71.861352 75.81364 
L 72.007886 72.373545 
L 72.227687 78.603639 
L 72.300954 77.005484 
L 72.374221 72.94238 
L 72.447488 78.197328 
L 72.520755 74.107137 
L 72.594022 74.188399 
L 72.667289 74.459272 
L 72.740556 76.734611 
L 72.813823 73.809176 
L 72.88709 74.621796 
L 72.960357 75.00102 
L 73.033624 74.052962 
L 73.180158 75.840728 
L 73.253425 74.459272 
L 73.326692 75.326068 
L 73.473226 73.9717 
L 73.619759 77.76393 
L 73.766293 75.542767 
L 73.83956 75.786553 
L 73.912827 74.703059 
L 74.132628 77.655581 
L 74.205895 74.432185 
L 74.279162 78.955774 
L 74.498963 74.865583 
L 74.57223 74.161311 
L 74.645497 77.411795 
L 74.718764 75.326068 
L 74.792031 78.576551 
L 74.865298 77.35762 
L 74.938565 79.226648 
L 75.011832 76.626261 
L 75.085099 76.734611 
L 75.158366 76.978397 
L 75.231633 76.707523 
L 75.3049 78.034804 
L 75.378167 75.678204 
L 75.451434 76.599174 
L 75.524701 75.976165 
L 75.597968 76.599174 
L 75.671235 75.055194 
L 75.817769 77.059659 
L 75.891036 76.734611 
L 75.964303 77.682668 
L 76.03757 76.761698 
L 76.110837 80.120531 
L 76.257371 76.301213 
L 76.403905 79.958007 
L 76.477172 77.330533 
L 76.550439 77.926455 
L 76.696973 77.493057 
L 76.770239 78.820337 
L 76.843506 75.244806 
L 76.916773 78.224415 
L 76.99004 76.95131 
L 77.063307 75.678204 
L 77.136574 80.987326 
L 77.209841 79.795482 
L 77.649443 77.113834 
L 77.795977 79.985094 
L 77.869244 79.903832 
L 77.942511 80.770627 
L 78.015778 80.499754 
L 78.089045 78.847425 
L 78.162312 79.30791 
L 78.235579 78.468202 
L 78.308846 80.960239 
L 78.382113 78.197328 
L 78.528647 83.181403 
L 78.675181 76.653349 
L 78.748448 82.775092 
L 78.821715 82.233345 
L 78.894982 78.684901 
L 78.968249 81.231113 
L 79.041516 80.526841 
L 79.114783 81.420724 
L 79.18805 80.201793 
L 79.261317 81.2582 
L 79.334584 79.416259 
L 79.481118 81.2582 
L 79.554385 80.770627 
L 79.627652 81.231113 
L 79.700919 82.80218 
L 79.847453 80.445579 
L 79.993986 83.425189 
L 80.067253 82.422956 
L 80.14052 77.303445 
L 80.360321 84.833732 
L 80.506855 80.201793 
L 80.580122 86.133925 
L 80.653389 82.883442 
L 80.726656 83.479364 
L 80.799923 84.264897 
L 80.87319 82.043733 
L 80.946457 82.964704 
L 81.019724 82.829267 
L 81.092991 81.041501 
L 81.166258 83.316839 
L 81.239525 80.391404 
L 81.312792 81.827035 
L 81.386059 82.558393 
L 81.459326 85.971401 
L 81.532593 85.754702 
L 81.60586 84.183635 
L 81.679127 86.784022 
L 81.752394 83.939849 
L 81.825661 84.698295 
L 81.898928 85.212955 
L 81.972195 82.260432 
L 82.045462 87.488293 
L 82.118729 82.260432 
L 82.191996 86.1881 
L 82.265263 84.075286 
L 82.33853 86.59441 
L 82.411797 85.077518 
L 82.485064 87.054895 
L 82.558331 84.806644 
L 82.704865 88.490525 
L 82.778132 87.000721 
L 82.851399 86.865284 
L 82.997933 84.942081 
L 83.0712 86.242274 
L 83.144467 89.926156 
L 83.291 86.621497 
L 83.364267 88.571787 
L 83.437534 88.490525 
L 83.657335 86.052663 
L 83.730602 85.700527 
L 83.877136 89.790719 
L 84.096937 86.350624 
L 84.243471 88.65305 
L 84.316738 87.596642 
L 84.390005 89.194797 
L 84.463272 89.032273 
L 84.536539 88.896836 
L 84.609806 89.953243 
L 84.683073 87.136157 
L 84.75634 88.382176 
L 84.829607 87.271594 
L 84.976141 89.221884 
L 85.049408 90.765864 
L 85.122675 88.490525 
L 85.195942 90.549165 
L 85.342476 87.054895 
L 85.48901 92.147319 
L 85.562277 87.677905 
L 85.635544 89.98033 
L 85.782078 89.357321 
L 85.855345 90.386641 
L 85.928612 87.62373 
L 86.001879 88.463438 
L 86.22168 92.391105 
L 86.294947 91.41596 
L 86.368214 92.743241 
L 86.44148 90.142854 
L 86.661281 92.95994 
L 86.734548 92.011882 
L 86.807815 93.339163 
L 86.954349 90.874213 
L 87.17415 94.287221 
L 87.320684 91.226349 
L 87.393951 94.205959 
L 87.467218 90.169942 
L 87.540485 92.120232 
L 87.760286 94.856055 
L 87.833553 91.713921 
L 87.90682 92.987027 
L 87.980087 95.533239 
L 88.053354 94.828968 
L 88.126621 92.878678 
L 88.273155 95.993724 
L 88.346422 95.966637 
L 88.492956 94.124697 
L 88.63949 96.047899 
L 88.712757 92.011882 
L 88.786024 94.964405 
L 88.859291 94.287221 
L 88.932558 93.935085 
L 89.005825 95.722851 
L 89.079092 92.120232 
L 89.152359 95.8312 
L 89.225626 94.666444 
L 89.445427 97.023044 
L 89.665227 95.804113 
L 89.738494 95.912462 
L 89.811761 98.133626 
L 89.885028 98.025277 
L 89.958295 93.36625 
L 90.031562 97.916927 
L 90.104829 96.400035 
L 90.178096 95.993724 
L 90.251363 97.510617 
L 90.32463 96.725083 
L 90.397897 97.537704 
L 90.471164 97.158481 
L 90.544431 96.129161 
L 90.617698 97.564791 
L 90.764232 95.42489 
L 90.837499 97.754403 
L 90.910766 97.131394 
L 90.984033 96.156249 
L 91.0573 97.26683 
L 91.130567 100.598576 
L 91.277101 97.88984 
L 91.350368 98.919159 
L 91.496902 97.456442 
L 91.643436 100.815275 
L 91.863237 96.372948 
L 91.936504 98.946247 
L 92.009771 98.241975 
L 92.083038 99.73178 
L 92.156305 98.052364 
L 92.302839 99.867217 
L 92.376106 97.916927 
L 92.449373 100.923624 
L 92.52264 98.946247 
L 92.595907 100.706925 
L 92.669174 100.625663 
L 92.742441 98.594111 
L 92.815708 101.140323 
L 92.888974 100.463139 
L 92.962241 100.517314 
L 93.035508 101.221585 
L 93.108775 100.490226 
L 93.182042 103.361487 
L 93.255309 98.973334 
L 93.328576 101.519546 
L 93.401843 98.377412 
L 93.47511 100.436052 
L 93.548377 99.704693 
L 93.621644 101.194498 
L 93.694911 100.598576 
L 93.768178 99.596344 
L 93.841445 100.408964 
L 93.914712 102.603041 
L 93.987979 101.980031 
L 94.134513 103.144788 
L 94.20778 102.494691 
L 94.281047 98.025277 
L 94.354314 99.298383 
L 94.647382 103.686535 
L 94.720649 100.734013 
L 94.793916 102.819739 
L 94.867183 100.896537 
L 94.94045 103.280225 
L 95.013717 102.71139 
L 95.086984 101.627896 
L 95.233518 105.934786 
L 95.453319 102.088381 
L 95.526586 105.122165 
L 95.67312 102.034206 
L 95.819654 102.765565 
L 95.892921 106.232747 
L 96.039455 103.063526 
L 96.112722 103.253137 
L 96.259255 105.284689 
L 96.332522 103.496924 
L 96.405789 104.715855 
L 96.479056 101.952944 
L 96.552323 103.280225 
L 96.62559 105.663912 
L 96.772124 103.74071 
L 96.845391 103.767797 
L 96.918658 106.20566 
L 96.991925 102.034206 
L 97.065192 106.395271 
L 97.138459 105.718087 
L 97.211726 106.693232 
L 97.284993 106.341096 
L 97.35826 106.395271 
L 97.431527 105.934786 
L 97.504794 102.928089 
L 97.578061 106.395271 
L 97.651328 104.092845 
L 97.724595 105.230515 
L 97.797862 107.234979 
L 97.871129 107.072455 
L 97.944396 105.58265 
L 98.017663 106.503621 
L 98.09093 106.422359 
L 98.237464 106.801582 
L 98.310731 109.131095 
L 98.383998 105.988961 
L 98.457265 109.293619 
L 98.530532 107.207892 
L 98.603799 110.024978 
L 98.677066 104.770029 
L 98.750333 108.183037 
L 98.8236 106.909931 
L 98.970134 109.889541 
L 99.043401 107.668377 
L 99.116668 108.291386 
L 99.189935 106.828669 
L 99.263202 107.01828 
L 99.409735 110.187502 
L 99.483002 107.207892 
L 99.556269 107.343329 
L 99.702803 109.104007 
L 99.77607 107.180805 
L 99.922604 108.887308 
L 100.069138 107.857989 
L 100.215672 109.754104 
L 100.288939 108.480998 
L 100.362206 110.322939 
L 100.435473 109.48323 
L 100.50874 109.916628 
L 100.582007 109.158182 
L 100.728541 110.160414 
L 100.801808 109.374881 
L 100.875075 110.431288 
L 100.948342 109.59158 
L 101.021609 110.675074 
L 101.094876 109.401968 
L 101.168143 110.51255 
L 101.24141 110.214589 
L 101.314677 108.67061 
L 101.387944 108.96857 
L 101.461211 109.645755 
L 101.534478 108.643522 
L 101.607745 111.02721 
L 101.681012 108.914396 
L 101.754279 111.000123 
L 101.827546 110.079152 
L 101.900813 110.566725 
L 101.97408 108.860221 
L 102.047347 110.350026 
L 102.120614 109.781191 
L 102.193881 110.647987 
L 102.267148 108.210124 
L 102.340415 111.487695 
L 102.413682 108.67061 
L 102.560216 113.763033 
L 102.706749 110.566725 
L 102.853283 112.489927 
L 102.999817 112.814976 
L 103.219618 109.266531 
L 103.292885 109.456143 
L 103.439419 113.302548 
L 103.512686 112.327403 
L 103.585953 114.846528 
L 103.65922 111.921093 
L 103.732487 111.94818 
L 103.805754 110.593812 
L 103.879021 114.196431 
L 103.952288 111.94818 
L 104.025555 112.083617 
L 104.098822 113.112937 
L 104.245356 111.162647 
L 104.39189 114.196431 
L 104.465157 113.031675 
L 104.538424 114.41313 
L 104.611691 114.142256 
L 104.684958 113.654684 
L 104.758225 114.169344 
L 104.831492 112.869151 
L 104.904759 113.302548 
L 104.978026 113.058762 
L 105.12456 114.304781 
L 105.197827 112.083617 
L 105.271094 115.740411 
L 105.344361 113.979732 
L 105.417628 115.496625 
L 105.490895 115.063227 
L 105.564162 113.790121 
L 105.637429 115.090314 
L 105.710696 113.546335 
L 105.783963 116.200896 
L 105.857229 114.060994 
L 105.930496 115.496625 
L 106.07703 112.787888 
L 106.223564 113.140024 
L 106.370098 114.846528 
L 106.443365 114.142256 
L 106.589899 116.390507 
L 106.663166 114.060994 
L 106.736433 114.765266 
L 106.8097 114.92779 
L 106.882967 115.659149 
L 106.956234 115.036139 
L 107.029501 115.171576 
L 107.102768 117.338565 
L 107.176035 116.986429 
L 107.249302 116.255071 
L 107.322569 117.094779 
L 107.395836 115.984197 
L 107.469103 116.065459 
L 107.54237 116.444682 
L 107.615637 115.496625 
L 107.762171 117.717788 
L 107.908705 115.198664 
L 107.981972 118.286623 
L 108.055239 116.417595 
L 108.128506 116.932255 
L 108.201773 117.79905 
L 108.27504 116.607206 
L 108.348307 116.688468 
L 108.421574 117.528177 
L 108.494841 117.067691 
L 108.641375 115.3341 
L 108.714642 114.602742 
L 108.787909 118.909632 
L 108.861176 117.690701 
L 108.934443 115.604974 
L 109.080976 119.397205 
L 109.374044 116.634294 
L 109.447311 118.665846 
L 109.520578 117.365652 
L 109.593845 120.643223 
L 109.667112 118.990894 
L 109.740379 118.042836 
L 109.813646 118.449147 
L 109.886913 118.774195 
L 109.96018 117.338565 
L 110.033447 120.453612 
L 110.106714 119.451379 
L 110.179981 119.207593 
L 110.253248 120.995359 
L 110.326515 117.771963 
L 110.399782 119.288855 
L 110.473049 118.909632 
L 110.69285 121.18497 
L 110.766117 120.399437 
L 110.839384 120.859922 
L 110.912651 119.397205 
L 110.985918 119.451379 
L 111.059185 118.82837 
L 111.132452 121.266232 
L 111.205719 120.264 
L 111.278986 120.37235 
L 111.352253 118.638758 
L 111.42552 119.23468 
L 111.645321 122.918562 
L 111.718588 119.613903 
L 111.791855 122.430989 
L 111.865122 120.399437 
L 111.938389 121.401669 
L 112.084923 118.638758 
L 112.15819 123.081086 
L 112.304723 119.397205 
L 112.37799 121.428757 
L 112.451257 120.941184 
L 112.597791 118.82837 
L 112.744325 122.160115 
L 112.817592 120.074389 
L 112.890859 122.349727 
L 112.964126 119.993127 
L 113.037393 121.103708 
L 113.11066 122.133028 
L 113.183927 120.236913 
L 113.330461 123.162348 
L 113.403728 120.589048 
L 113.476995 121.69963 
L 113.550262 119.668078 
L 113.770063 124.868852 
L 113.84333 122.458076 
L 113.916597 123.162348 
L 113.989864 123.270697 
L 114.063131 121.916329 
L 114.209665 123.081086 
L 114.282932 121.482931 
L 114.429466 123.108173 
L 114.502733 122.024679 
L 114.576 123.595746 
L 114.649267 122.999824 
L 114.722534 123.514483 
L 114.795801 120.426524 
L 114.942335 124.67924 
L 115.015602 121.212058 
L 115.088869 124.27293 
L 115.162136 123.351959 
L 115.30867 121.482931 
L 115.455204 123.053998 
L 115.52847 127.469238 
L 115.601737 122.376814 
L 115.675004 123.920794 
L 115.821538 123.108173 
L 115.894805 123.460309 
L 116.041339 125.518948 
L 116.407674 122.187203 
L 116.480941 125.491861 
L 116.554208 124.191667 
L 116.627475 124.733415 
L 116.700742 123.785357 
L 116.774009 124.733415 
L 116.920543 121.970504 
L 116.99381 124.245842 
L 117.067077 124.029143 
L 117.140344 124.137493 
L 117.213611 122.160115 
L 117.286878 124.354192 
L 117.360145 123.947881 
L 117.433412 123.053998 
L 117.579946 125.1939 
L 117.653213 122.864387 
L 117.72648 123.839532 
L 117.799747 126.981666 
L 117.873014 122.376814 
L 117.946281 123.24361 
L 118.019548 123.866619 
L 118.092815 125.735647 
L 118.166082 125.383511 
L 118.312616 123.514483 
L 118.532417 126.439918 
L 118.605684 124.218755 
L 118.752217 126.62953 
L 118.898751 123.893707 
L 118.972018 124.489628 
L 119.045285 123.297785 
L 119.118552 127.14419 
L 119.191819 125.356424 
L 119.265086 124.110405 
L 119.338353 124.354192 
L 119.558154 126.385744 
L 119.777955 123.24361 
L 119.851222 126.11487 
L 119.924489 125.08555 
L 119.997756 127.387976 
L 120.071023 124.300017 
L 120.14429 125.681472 
L 120.217557 125.464773 
L 120.290824 124.516716 
L 120.364091 125.898171 
L 120.437358 125.464773 
L 120.510625 125.573123 
L 120.583892 125.518948 
L 120.657159 124.002056 
L 120.730426 126.385744 
L 120.803693 124.516716 
L 120.87696 125.058463 
L 120.950227 124.977201 
L 121.023494 123.460309 
L 121.170028 126.846229 
L 121.243295 126.060695 
L 121.316562 123.866619 
L 121.463096 126.331569 
L 121.682897 124.327104 
L 121.756164 124.841764 
L 121.829431 127.252539 
L 121.975965 124.787589 
L 122.049231 125.898171 
L 122.122498 124.27293 
L 122.195765 125.573123 
L 122.269032 125.058463 
L 122.342299 125.302249 
L 122.415566 124.977201 
L 122.488833 125.112638 
L 122.5621 125.139725 
L 122.635367 124.895939 
L 122.708634 125.248075 
L 122.781901 126.873316 
L 122.855168 126.141958 
L 122.928435 125.031376 
L 123.001702 126.575355 
L 123.074969 126.11487 
L 123.148236 126.439918 
L 123.221503 127.983898 
L 123.368037 125.70856 
L 123.441304 125.843997 
L 123.514571 125.383511 
L 123.587838 126.304482 
L 123.661105 124.733415 
L 123.734372 127.14419 
L 123.807639 125.464773 
L 123.880906 125.518948 
L 123.954173 126.169045 
L 124.02744 126.033608 
L 124.100707 125.789822 
L 124.173974 129.067393 
L 124.320508 126.141958 
L 124.393775 127.03584 
L 124.467042 125.898171 
L 124.686843 127.523413 
L 124.906644 124.625065 
L 125.126445 127.65885 
L 125.199712 124.570891 
L 125.419512 127.496326 
L 125.566046 125.329337 
L 125.639313 125.220987 
L 125.785847 126.331569 
L 125.859114 124.868852 
L 126.005648 128.092248 
L 126.078915 125.248075 
L 126.152182 127.333801 
L 126.225449 126.954578 
L 126.298716 125.762734 
L 126.371983 126.196132 
L 126.518517 128.850694 
L 126.591784 126.819142 
L 126.665051 127.03584 
L 126.738318 125.871084 
L 126.811585 127.631762 
L 126.884852 127.03584 
L 126.958119 127.225452 
L 127.031386 125.925259 
L 127.17792 128.471471 
L 127.251187 127.740112 
L 127.397721 125.031376 
L 127.544255 127.929723 
L 127.690789 126.141958 
L 127.837323 128.200597 
L 127.91059 128.57982 
L 127.983857 127.333801 
L 128.057124 127.685937 
L 128.203658 128.633995 
L 128.276925 128.57982 
L 128.350192 128.769432 
L 128.423459 126.900404 
L 128.496725 129.311179 
L 128.643259 126.981666 
L 128.716526 126.494093 
L 128.789793 128.471471 
L 128.86306 127.875549 
L 128.936327 126.656617 
L 129.082861 129.961275 
L 129.156128 127.14419 
L 129.229395 127.387976 
L 129.302662 127.604675 
L 129.449196 126.981666 
L 129.522463 127.929723 
L 129.59573 127.740112 
L 129.815531 128.877781 
L 129.888798 127.360889 
L 130.181866 130.421761 
L 130.255133 126.521181 
L 130.3284 129.690402 
L 130.401667 128.092248 
L 130.548201 129.284091 
L 130.694735 128.200597 
L 130.841269 128.850694 
L 130.987803 126.900404 
L 131.134337 129.09448 
L 131.207604 129.527878 
L 131.280871 127.117103 
L 131.427405 129.527878 
L 131.500672 127.65885 
L 131.573939 128.796519 
L 131.647206 127.14419 
L 131.720472 130.1238 
L 131.793739 129.446616 
L 131.940273 128.038073 
L 132.160074 129.338266 
L 132.306608 129.907101 
L 132.379875 129.338266 
L 132.526409 130.205062 
L 132.599676 130.1238 
L 132.672943 129.229917 
L 132.74621 130.611372 
L 132.819477 129.229917 
L 132.892744 129.880013 
L 132.966011 130.367586 
L 133.039278 128.877781 
L 133.112545 128.959043 
L 133.405613 131.45108 
L 133.47888 128.57982 
L 133.552147 130.882246 
L 133.625414 130.746809 
L 133.698681 127.821374 
L 133.845215 130.259236 
L 133.918482 130.1238 
L 133.991749 132.047002 
L 134.065016 129.419528 
L 134.138283 130.719722 
L 134.21155 130.665547 
L 134.284817 130.909333 
L 134.358084 129.825839 
L 134.431351 130.340498 
L 134.504618 129.934188 
L 134.577885 131.667779 
L 134.651152 130.205062 
L 134.724419 131.884478 
L 134.870953 130.340498 
L 134.944219 130.259236 
L 135.090753 129.338266 
L 135.16402 128.904868 
L 135.310554 131.830303 
L 135.383821 130.448848 
L 135.457088 131.694867 
L 135.530355 129.50079 
L 135.676889 131.04477 
L 135.750156 131.017683 
L 135.89669 129.744577 
L 135.969957 130.448848 
L 136.043224 129.988363 
L 136.116491 131.126032 
L 136.189758 130.096712 
L 136.263025 130.394673 
L 136.336292 130.01545 
L 136.409559 131.694867 
L 136.482826 130.448848 
L 136.556093 131.938653 
L 136.702627 129.636227 
L 136.849161 131.342731 
L 136.922428 130.665547 
L 137.068962 132.642924 
L 137.215496 129.690402 
L 137.36203 132.372051 
L 137.508564 131.396906 
L 137.581831 129.473703 
L 137.655098 130.638459 
L 137.728365 130.557197 
L 137.874899 130.313411 
L 137.948166 130.394673 
L 138.021433 129.825839 
L 138.167966 130.719722 
L 138.241233 132.588749 
L 138.3145 131.180207 
L 138.387767 132.426225 
L 138.461034 131.04477 
L 138.534301 131.532342 
L 138.607568 132.372051 
L 138.680835 132.019915 
L 138.754102 130.611372 
L 138.827369 132.128264 
L 138.900636 131.586517 
L 139.04717 133.590982 
L 139.193704 132.155352 
L 139.266971 134.268166 
L 139.340238 131.776129 
L 139.413505 132.561662 
L 139.486772 132.263701 
L 139.560039 131.126032 
L 139.77984 133.374283 
L 139.853107 133.293021 
L 139.926374 132.128264 
L 139.999641 132.724186 
L 140.072908 132.859623 
L 140.146175 133.888943 
L 140.219442 133.265934 
L 140.292709 130.448848 
L 140.365976 133.320108 
L 140.439243 131.423993 
L 140.51251 131.55943 
L 140.585777 132.155352 
L 140.659044 131.803216 
L 140.732311 132.642924 
L 140.805578 131.749041 
L 140.878845 131.803216 
L 141.098646 133.293021 
L 141.171913 133.618069 
L 141.24518 133.563894 
L 141.538247 132.453313 
L 141.611514 132.642924 
L 141.684781 134.94535 
L 141.831315 131.126032 
L 141.904582 132.778361 
L 141.977849 132.642924 
L 142.124383 131.803216 
L 142.270917 132.290789 
L 142.417451 134.511952 
L 142.490718 131.938653 
L 142.563985 132.399138 
L 142.710519 134.728651 
L 142.783786 133.672244 
L 142.857053 134.999525 
L 142.93032 134.322341 
L 143.076854 132.967973 
L 143.150121 134.647389 
L 143.223388 133.455545 
L 143.296655 134.213991 
L 143.443189 131.857391 
L 143.516456 133.699331 
L 143.589723 133.049235 
L 143.66299 133.536807 
L 143.736257 132.859623 
L 143.809524 133.211759 
L 143.882791 133.130497 
L 143.956058 132.047002 
L 144.102592 133.265934 
L 144.175859 132.534575 
L 144.249126 133.672244 
L 144.322393 133.211759 
L 144.39566 132.751274 
L 144.468927 134.620302 
L 144.688727 132.4804 
L 144.761994 135.026612 
L 144.908528 131.721954 
L 144.981795 133.699331 
L 145.055062 132.832536 
L 145.128329 134.43069 
L 145.34813 132.670012 
L 145.421397 133.347196 
L 145.494664 132.670012 
L 145.567931 134.159816 
L 145.641198 133.076322 
L 145.714465 134.457777 
L 145.787732 134.43069 
L 145.860999 134.918263 
L 145.934266 133.91603 
L 146.007533 134.620302 
L 146.0808 133.320108 
L 146.154067 133.428458 
L 146.227334 133.130497 
L 146.300601 132.019915 
L 146.373868 133.780593 
L 146.447135 133.184671 
L 146.593669 134.701564 
L 146.81347 133.780593 
L 146.886737 135.270398 
L 146.960004 133.888943 
L 147.033271 133.997292 
L 147.179805 133.184671 
L 147.326339 134.105642 
L 147.399606 132.724186 
L 147.54614 135.189136 
L 147.692674 132.913798 
L 147.765941 134.593214 
L 147.839208 132.859623 
L 147.912474 134.159816 
L 147.985741 134.02438 
L 148.059008 134.566127 
L 148.132275 133.91603 
L 148.205542 135.162049 
L 148.278809 134.186904 
L 148.352076 134.620302 
L 148.425343 134.403603 
L 148.49861 131.938653 
L 148.571877 135.297486 
L 148.645144 133.699331 
L 148.718411 133.157584 
L 148.864945 135.785058 
L 148.938212 135.026612 
L 149.011479 133.130497 
L 149.084746 134.566127 
L 149.158013 133.40137 
L 149.23128 133.997292 
L 149.304547 134.105642 
L 149.377814 133.103409 
L 149.451081 134.593214 
L 149.524348 134.105642 
L 149.597615 133.943118 
L 149.817416 136.218456 
L 149.890683 133.347196 
L 149.96395 134.891175 
L 150.037217 134.593214 
L 150.110484 134.701564 
L 150.183751 135.107874 
L 150.257018 134.701564 
L 150.330285 136.733116 
L 150.403552 135.785058 
L 150.550086 134.918263 
L 150.69662 135.107874 
L 150.769887 133.726419 
L 150.843154 134.268166 
L 150.916421 135.46001 
L 150.989688 134.837 
L 151.062955 134.999525 
L 151.356022 133.238846 
L 151.429289 135.216224 
L 151.502556 134.484865 
L 151.575823 134.213991 
L 151.64909 135.86632 
L 151.795624 133.943118 
L 151.868891 136.191369 
L 151.942158 135.46001 
L 152.015425 135.839233 
L 152.088692 134.02438 
L 152.161959 134.728651 
L 152.235226 134.620302 
L 152.308493 136.245543 
L 152.38176 133.211759 
L 152.455027 133.455545 
L 152.601561 136.001757 
L 152.674828 134.864088 
L 152.748095 136.001757 
L 152.821362 135.107874 
L 152.894629 135.270398 
L 153.041163 134.782826 
L 153.11443 134.972437 
L 153.187697 133.834768 
L 153.260964 134.891175 
L 153.334231 134.186904 
L 153.407498 135.514184 
L 153.480765 135.297486 
L 153.554032 134.918263 
L 153.700566 135.649621 
L 153.773833 133.590982 
L 153.8471 135.920495 
L 153.920367 135.378748 
L 153.993634 133.970205 
L 154.066901 135.189136 
L 154.140168 134.403603 
L 154.286702 135.134961 
L 154.359968 135.270398 
L 154.433235 135.080787 
L 154.506502 135.703796 
L 154.653036 132.805448 
L 154.872837 135.595447 
L 154.946104 134.782826 
L 155.092638 136.89564 
L 155.165905 136.083019 
L 155.312439 133.888943 
L 155.385706 136.624766 
L 155.458973 135.216224 
L 155.53224 134.457777 
L 155.605507 134.864088 
L 155.678774 133.672244 
L 155.752041 134.132729 
L 155.898575 135.487097 
L 155.971842 134.295253 
L 156.118376 135.622534 
L 156.191643 135.216224 
L 156.26491 135.622534 
L 156.338177 133.40137 
L 156.411444 135.595447 
L 156.484711 133.618069 
L 156.557978 133.970205 
L 156.631245 135.35166 
L 156.704512 135.189136 
L 156.777779 133.536807 
L 156.851046 135.649621 
L 156.99758 133.807681 
L 157.144114 135.595447 
L 157.217381 134.511952 
L 157.290648 136.678941 
L 157.363915 135.432922 
L 157.437182 135.97467 
L 157.583715 134.43069 
L 157.656982 136.597679 
L 157.730249 134.484865 
L 157.803516 135.378748 
L 157.876783 135.920495 
L 157.95005 134.755738 
L 158.023317 136.110106 
L 158.169851 133.645157 
L 158.243118 135.053699 
L 158.316385 134.241079 
L 158.389652 135.785058 
L 158.462919 135.595447 
L 158.536186 135.297486 
L 158.609453 133.645157 
L 158.68272 134.864088 
L 158.755987 134.539039 
L 158.902521 135.541272 
L 159.049055 135.189136 
L 159.122322 136.218456 
L 159.268856 134.755738 
L 159.342123 135.026612 
L 159.41539 134.295253 
L 159.488657 135.676709 
L 159.561924 134.674476 
L 159.635191 135.162049 
L 159.708458 134.484865 
L 159.781725 134.728651 
L 159.854992 135.812145 
L 160.074793 134.43069 
L 160.221327 135.97467 
L 160.294594 134.728651 
L 160.367861 135.270398 
L 160.441128 135.026612 
L 160.514395 135.812145 
L 160.587662 134.241079 
L 160.660929 134.539039 
L 160.734196 134.566127 
L 160.880729 135.785058 
L 160.953996 134.674476 
L 161.027263 136.651854 
L 161.10053 135.757971 
L 161.173797 133.780593 
L 161.320331 136.841465 
L 161.393598 134.94535 
L 161.466865 134.972437 
L 161.540132 135.297486 
L 161.613399 134.728651 
L 161.686666 134.837 
L 161.759933 135.107874 
L 161.8332 136.083019 
L 161.979734 134.755738 
L 162.199535 136.326805 
L 162.419336 133.50972 
L 162.712404 135.595447 
L 162.785671 133.103409 
L 162.858938 134.891175 
L 162.932205 133.726419 
L 163.078739 136.489329 
L 163.152006 134.94535 
L 163.225273 135.514184 
L 163.29854 134.620302 
L 163.371807 135.514184 
L 163.445074 134.647389 
L 163.518341 134.674476 
L 163.591608 135.432922 
L 163.664875 134.837 
L 163.738142 135.053699 
L 163.811409 134.809913 
L 163.884676 136.624766 
L 164.031209 133.888943 
L 164.177743 136.651854 
L 164.25101 133.753506 
L 164.324277 134.755738 
L 164.397544 134.186904 
L 164.544078 135.297486 
L 164.763879 133.211759 
L 164.98368 136.462242 
L 165.130214 134.782826 
L 165.203481 134.484865 
L 165.276748 134.891175 
L 165.350015 134.43069 
L 165.423282 136.218456 
L 165.643083 134.43069 
L 165.71635 134.213991 
L 165.789617 135.324573 
L 165.862884 133.076322 
L 166.009418 135.487097 
L 166.082685 134.94535 
L 166.155952 135.893408 
L 166.302486 133.780593 
L 166.375753 134.484865 
L 166.44902 133.997292 
L 166.522287 134.864088 
L 166.595554 134.701564 
L 166.668821 134.593214 
L 166.742088 133.780593 
L 166.815355 136.922727 
L 166.961889 134.213991 
L 167.18169 135.324573 
L 167.254956 134.809913 
L 167.328223 136.191369 
L 167.40149 135.487097 
L 167.548024 133.130497 
L 167.621291 135.487097 
L 167.694558 134.864088 
L 167.767825 134.647389 
L 167.841092 136.408067 
L 168.060893 133.780593 
L 168.207427 135.785058 
L 168.280694 133.130497 
L 168.353961 134.322341 
L 168.427228 133.130497 
L 168.573762 135.216224 
L 168.647029 134.837 
L 168.720296 135.676709 
L 168.86683 134.782826 
L 168.940097 135.676709 
L 169.013364 134.43069 
L 169.086631 135.97467 
L 169.159898 135.216224 
L 169.233165 135.297486 
L 169.306432 134.511952 
L 169.379699 134.701564 
L 169.452966 135.676709 
L 169.526233 135.189136 
L 169.5995 135.839233 
L 169.819301 133.726419 
L 169.892568 135.134961 
L 169.965835 132.724186 
L 170.039102 133.834768 
L 170.112369 135.541272 
L 170.185636 133.834768 
L 170.258903 135.405835 
L 170.33217 135.189136 
L 170.478704 133.536807 
L 170.55197 134.078554 
L 170.625237 133.320108 
L 170.698504 135.649621 
L 170.771771 134.972437 
L 170.845038 133.753506 
L 170.918305 134.94535 
L 170.991572 133.428458 
L 171.138106 135.026612 
L 171.211373 134.647389 
L 171.28464 132.967973 
L 171.431174 135.676709 
L 171.577708 134.132729 
L 171.650975 136.678941 
L 171.797509 134.078554 
L 171.870776 135.514184 
L 171.944043 133.320108 
L 172.090577 134.782826 
L 172.163844 133.482632 
L 172.310378 136.137194 
L 172.383645 133.888943 
L 172.456912 134.213991 
L 172.676713 135.514184 
L 172.74998 131.098945 
L 172.823247 134.268166 
L 172.896514 133.50972 
L 172.969781 133.753506 
L 173.043048 132.399138 
L 173.116315 134.051467 
L 173.189582 133.997292 
L 173.262849 134.159816 
L 173.336116 133.91603 
L 173.409383 134.376515 
L 173.48265 132.805448 
L 173.555917 134.755738 
L 173.629184 133.888943 
L 173.702451 133.861855 
L 173.775717 132.128264 
L 173.848984 134.918263 
L 173.922251 134.132729 
L 173.995518 133.834768 
L 174.068785 135.378748 
L 174.142052 134.728651 
L 174.215319 135.134961 
L 174.288586 135.107874 
L 174.43512 134.376515 
L 174.508387 134.755738 
L 174.654921 134.186904 
L 174.728188 134.349428 
L 174.801455 133.699331 
L 174.874722 134.241079 
L 174.947989 133.428458 
L 175.021256 135.812145 
L 175.094523 134.647389 
L 175.16779 133.103409 
L 175.241057 133.563894 
L 175.387591 134.620302 
L 175.460858 133.130497 
L 175.534125 134.620302 
L 175.680659 133.265934 
L 175.753926 135.46001 
L 175.90046 132.588749 
L 175.973727 135.243311 
L 176.046994 133.943118 
L 176.120261 132.88671 
L 176.193528 135.243311 
L 176.266795 134.295253 
L 176.340062 134.620302 
L 176.413329 131.992828 
L 176.486596 134.999525 
L 176.559863 133.91603 
L 176.706397 134.809913 
L 176.926198 131.532342 
L 176.999464 134.511952 
L 177.072731 134.484865 
L 177.292532 133.211759 
L 177.439066 132.290789 
L 177.658867 134.457777 
L 177.732134 132.588749 
L 177.805401 134.322341 
L 177.878668 134.051467 
L 177.951935 133.347196 
L 178.171736 134.078554 
L 178.245003 133.374283 
L 178.31827 134.159816 
L 178.391537 132.913798 
L 178.464804 133.536807 
L 178.538071 133.997292 
L 178.757872 131.45108 
L 178.977673 134.02438 
L 179.05094 134.213991 
L 179.124207 133.211759 
L 179.197474 133.672244 
L 179.270741 133.699331 
L 179.344008 135.378748 
L 179.417275 133.590982 
L 179.563809 134.999525 
L 179.637076 132.642924 
L 179.710343 133.618069 
L 179.78361 133.238846 
L 179.856877 134.376515 
L 180.003411 133.455545 
L 180.076678 134.268166 
L 180.149945 134.02438 
L 180.223211 132.805448 
L 180.369745 134.322341 
L 180.443012 134.593214 
L 180.516279 132.88671 
L 180.589546 134.132729 
L 180.662813 132.453313 
L 180.73608 133.076322 
L 180.809347 134.213991 
L 180.882614 133.428458 
L 181.102415 134.999525 
L 181.248949 131.640692 
L 181.322216 131.830303 
L 181.542017 134.186904 
L 181.761818 132.07409 
L 181.835085 134.241079 
L 181.908352 133.888943 
L 181.981619 132.615837 
L 182.054886 133.103409 
L 182.20142 134.457777 
L 182.274687 132.019915 
L 182.347954 133.130497 
L 182.421221 133.888943 
L 182.494488 132.697099 
L 182.567755 133.618069 
L 182.641022 132.290789 
L 182.787556 134.457777 
L 182.860823 132.399138 
L 182.93409 133.50972 
L 183.007357 132.426225 
L 183.227158 133.726419 
L 183.300425 133.022147 
L 183.373692 133.293021 
L 183.446958 132.697099 
L 183.520225 132.88671 
L 183.666759 133.943118 
L 183.740026 134.864088 
L 183.813293 132.967973 
L 183.88656 133.861855 
L 183.959827 134.322341 
L 184.033094 131.776129 
L 184.106361 132.88671 
L 184.179628 131.207294 
L 184.252895 134.674476 
L 184.326162 134.159816 
L 184.399429 131.613604 
L 184.472696 133.536807 
L 184.545963 133.049235 
L 184.61923 132.724186 
L 184.765764 134.511952 
L 184.839031 132.778361 
L 184.912298 134.755738 
L 184.985565 134.457777 
L 185.058832 132.561662 
L 185.132099 134.511952 
L 185.205366 133.455545 
L 185.278633 134.213991 
L 185.3519 133.076322 
L 185.425167 133.320108 
L 185.498434 132.724186 
L 185.571701 133.943118 
L 185.644968 132.859623 
L 185.791502 134.078554 
L 186.011303 132.805448 
L 186.157837 132.697099 
L 186.231104 134.132729 
L 186.304371 133.726419 
L 186.377638 133.455545 
L 186.450905 134.755738 
L 186.524172 131.586517 
L 186.597439 133.265934 
L 186.670705 132.778361 
L 186.743972 133.970205 
L 186.817239 133.699331 
L 186.890506 134.43069 
L 187.110307 131.938653 
L 187.256841 132.88671 
L 187.330108 132.372051 
L 187.549909 133.50972 
L 187.623176 133.672244 
L 187.842977 132.426225 
L 187.916244 133.834768 
L 187.989511 133.40137 
L 188.062778 131.342731 
L 188.136045 135.080787 
L 188.209312 133.455545 
L 188.429113 135.324573 
L 188.50238 131.857391 
L 188.575647 133.50972 
L 188.795448 132.236614 
L 188.868715 132.047002 
L 188.941982 133.428458 
L 189.015249 131.721954 
L 189.308317 134.349428 
L 189.454851 133.049235 
L 189.528118 133.211759 
L 189.601385 132.344963 
L 189.674652 134.999525 
L 189.747919 133.753506 
L 189.821186 132.751274 
L 189.894452 134.972437 
L 189.967719 134.322341 
L 190.040986 132.561662 
L 190.114253 133.428458 
L 190.18752 133.536807 
L 190.260787 133.861855 
L 190.334054 133.672244 
L 190.407321 132.507487 
L 190.553855 133.997292 
L 190.627122 133.211759 
L 190.700389 133.672244 
L 190.773656 133.618069 
" clip-path="url(#p9d9d03bd64)" style="fill: none; stroke: #1f77b4; stroke-width: 0.5; stroke-linecap: square"/>
   </g>
   <g id="patch_3">
    <path d="M 23.410313 143.1 
L 23.410313 7.2 
" style="fill: none; stroke: #000000; stroke-width: 0.8; stroke-linejoin: miter; stroke-linecap: square"/>
   </g>
   <g id="patch_4">
    <path d="M 190.810313 143.1 
L 190.810313 7.2 
" style="fill: none; stroke: #000000; stroke-width: 0.8; stroke-linejoin: miter; stroke-linecap: square"/>
   </g>
   <g id="patch_5">
    <path d="M 23.410313 143.1 
L 190.810313 143.1 
" style="fill: none; stroke: #000000; stroke-width: 0.8; stroke-linejoin: miter; stroke-linecap: square"/>
   </g>
   <g id="patch_6">
    <path d="M 23.410313 7.2 
L 190.810313 7.2 
" style="fill: none; stroke: #000000; stroke-width: 0.8; stroke-linejoin: miter; stroke-linecap: square"/>
   </g>
  </g>
 </g>
 <defs>
  <clipPath id="p9d9d03bd64">
   <rect x="23.410313" y="7.2" width="167.4" height="135.9"/>
  </clipPath>
 </defs>
</svg>
