<?xml version="1.0" encoding="utf-8" standalone="no"?>
<!DOCTYPE svg PUBLIC "-//W3C//DTD SVG 1.1//EN"
  "http://www.w3.org/Graphics/SVG/1.1/DTD/svg11.dtd">
<svg xmlns:xlink="http://www.w3.org/1999/xlink" width="198.010312pt" height="177.752813pt" viewBox="0 0 198.010312 177.752813" xmlns="http://www.w3.org/2000/svg" version="1.1">
 <metadata>
  <rdf:RDF xmlns:dc="http://purl.org/dc/elements/1.1/" xmlns:cc="http://creativecommons.org/ns#" xmlns:rdf="http://www.w3.org/1999/02/22-rdf-syntax-ns#">
   <cc:Work>
    <dc:type rdf:resource="http://purl.org/dc/dcmitype/StillImage"/>
    <dc:date>2023-02-25T15:25:05.443046</dc:date>
    <dc:format>image/svg+xml</dc:format>
    <dc:creator>
     <cc:Agent>
      <dc:title>Matplotlib v3.5.2, https://matplotlib.org/</dc:title>
     </cc:Agent>
    </dc:creator>
   </cc:Work>
  </rdf:RDF>
 </metadata>
 <defs>
  <style type="text/css">*{stroke-linejoin: round; stroke-linecap: butt}</style>
 </defs>
 <g id="figure_1">
  <g id="patch_1">
   <path d="M 0 177.752813 
L 198.010312 177.752813 
L 198.010312 0 
L 0 0 
z
" style="fill: #ffffff"/>
  </g>
  <g id="axes_1">
   <g id="patch_2">
    <path d="M 23.410313 143.1 
L 190.810313 143.1 
L 190.810313 7.2 
L 23.410313 7.2 
z
" style="fill: #ffffff"/>
   </g>
   <g id="matplotlib.axis_1">
    <g id="xtick_1">
     <g id="line2d_1">
      <defs>
       <path id="m318590496b" d="M 0 0 
L 0 3.5 
" style="stroke: #000000; stroke-width: 0.8"/>
      </defs>
      <g>
       <use xlink:href="#m318590496b" x="37.360313" y="143.1" style="stroke: #000000; stroke-width: 0.8"/>
      </g>
     </g>
     <g id="text_1">
      <!-- 10 -->
      <g transform="translate(32.270313 156.17875)scale(0.08 -0.08)">
       <defs>
        <path id="DejaVuSans-31" d="M 794 531 
L 1825 531 
L 1825 4091 
L 703 3866 
L 703 4441 
L 1819 4666 
L 2450 4666 
L 2450 531 
L 3481 531 
L 3481 0 
L 794 0 
L 794 531 
z
" transform="scale(0.015625)"/>
        <path id="DejaVuSans-30" d="M 2034 4250 
Q 1547 4250 1301 3770 
Q 1056 3291 1056 2328 
Q 1056 1369 1301 889 
Q 1547 409 2034 409 
Q 2525 409 2770 889 
Q 3016 1369 3016 2328 
Q 3016 3291 2770 3770 
Q 2525 4250 2034 4250 
z
M 2034 4750 
Q 2819 4750 3233 4129 
Q 3647 3509 3647 2328 
Q 3647 1150 3233 529 
Q 2819 -91 2034 -91 
Q 1250 -91 836 529 
Q 422 1150 422 2328 
Q 422 3509 836 4129 
Q 1250 4750 2034 4750 
z
" transform="scale(0.015625)"/>
       </defs>
       <use xlink:href="#DejaVuSans-31"/>
       <use xlink:href="#DejaVuSans-30" x="63.623047"/>
      </g>
     </g>
    </g>
    <g id="xtick_2">
     <g id="line2d_2">
      <g>
       <use xlink:href="#m318590496b" x="65.260312" y="143.1" style="stroke: #000000; stroke-width: 0.8"/>
      </g>
     </g>
     <g id="text_2">
      <!-- 20 -->
      <g transform="translate(60.170312 156.17875)scale(0.08 -0.08)">
       <defs>
        <path id="DejaVuSans-32" d="M 1228 531 
L 3431 531 
L 3431 0 
L 469 0 
L 469 531 
Q 828 903 1448 1529 
Q 2069 2156 2228 2338 
Q 2531 2678 2651 2914 
Q 2772 3150 2772 3378 
Q 2772 3750 2511 3984 
Q 2250 4219 1831 4219 
Q 1534 4219 1204 4116 
Q 875 4013 500 3803 
L 500 4441 
Q 881 4594 1212 4672 
Q 1544 4750 1819 4750 
Q 2544 4750 2975 4387 
Q 3406 4025 3406 3419 
Q 3406 3131 3298 2873 
Q 3191 2616 2906 2266 
Q 2828 2175 2409 1742 
Q 1991 1309 1228 531 
z
" transform="scale(0.015625)"/>
       </defs>
       <use xlink:href="#DejaVuSans-32"/>
       <use xlink:href="#DejaVuSans-30" x="63.623047"/>
      </g>
     </g>
    </g>
    <g id="xtick_3">
     <g id="line2d_3">
      <g>
       <use xlink:href="#m318590496b" x="93.160313" y="143.1" style="stroke: #000000; stroke-width: 0.8"/>
      </g>
     </g>
     <g id="text_3">
      <!-- 30 -->
      <g transform="translate(88.070312 156.17875)scale(0.08 -0.08)">
       <defs>
        <path id="DejaVuSans-33" d="M 2597 2516 
Q 3050 2419 3304 2112 
Q 3559 1806 3559 1356 
Q 3559 666 3084 287 
Q 2609 -91 1734 -91 
Q 1441 -91 1130 -33 
Q 819 25 488 141 
L 488 750 
Q 750 597 1062 519 
Q 1375 441 1716 441 
Q 2309 441 2620 675 
Q 2931 909 2931 1356 
Q 2931 1769 2642 2001 
Q 2353 2234 1838 2234 
L 1294 2234 
L 1294 2753 
L 1863 2753 
Q 2328 2753 2575 2939 
Q 2822 3125 2822 3475 
Q 2822 3834 2567 4026 
Q 2313 4219 1838 4219 
Q 1578 4219 1281 4162 
Q 984 4106 628 3988 
L 628 4550 
Q 988 4650 1302 4700 
Q 1616 4750 1894 4750 
Q 2613 4750 3031 4423 
Q 3450 4097 3450 3541 
Q 3450 3153 3228 2886 
Q 3006 2619 2597 2516 
z
" transform="scale(0.015625)"/>
       </defs>
       <use xlink:href="#DejaVuSans-33"/>
       <use xlink:href="#DejaVuSans-30" x="63.623047"/>
      </g>
     </g>
    </g>
    <g id="xtick_4">
     <g id="line2d_4">
      <g>
       <use xlink:href="#m318590496b" x="121.060312" y="143.1" style="stroke: #000000; stroke-width: 0.8"/>
      </g>
     </g>
     <g id="text_4">
      <!-- 40 -->
      <g transform="translate(115.970312 156.17875)scale(0.08 -0.08)">
       <defs>
        <path id="DejaVuSans-34" d="M 2419 4116 
L 825 1625 
L 2419 1625 
L 2419 4116 
z
M 2253 4666 
L 3047 4666 
L 3047 1625 
L 3713 1625 
L 3713 1100 
L 3047 1100 
L 3047 0 
L 2419 0 
L 2419 1100 
L 313 1100 
L 313 1709 
L 2253 4666 
z
" transform="scale(0.015625)"/>
       </defs>
       <use xlink:href="#DejaVuSans-34"/>
       <use xlink:href="#DejaVuSans-30" x="63.623047"/>
      </g>
     </g>
    </g>
    <g id="xtick_5">
     <g id="line2d_5">
      <g>
       <use xlink:href="#m318590496b" x="148.960313" y="143.1" style="stroke: #000000; stroke-width: 0.8"/>
      </g>
     </g>
     <g id="text_5">
      <!-- 50 -->
      <g transform="translate(143.870313 156.17875)scale(0.08 -0.08)">
       <defs>
        <path id="DejaVuSans-35" d="M 691 4666 
L 3169 4666 
L 3169 4134 
L 1269 4134 
L 1269 2991 
Q 1406 3038 1543 3061 
Q 1681 3084 1819 3084 
Q 2600 3084 3056 2656 
Q 3513 2228 3513 1497 
Q 3513 744 3044 326 
Q 2575 -91 1722 -91 
Q 1428 -91 1123 -41 
Q 819 9 494 109 
L 494 744 
Q 775 591 1075 516 
Q 1375 441 1709 441 
Q 2250 441 2565 725 
Q 2881 1009 2881 1497 
Q 2881 1984 2565 2268 
Q 2250 2553 1709 2553 
Q 1456 2553 1204 2497 
Q 953 2441 691 2322 
L 691 4666 
z
" transform="scale(0.015625)"/>
       </defs>
       <use xlink:href="#DejaVuSans-35"/>
       <use xlink:href="#DejaVuSans-30" x="63.623047"/>
      </g>
     </g>
    </g>
    <g id="xtick_6">
     <g id="line2d_6">
      <g>
       <use xlink:href="#m318590496b" x="176.860313" y="143.1" style="stroke: #000000; stroke-width: 0.8"/>
      </g>
     </g>
     <g id="text_6">
      <!-- 60 -->
      <g transform="translate(171.770313 156.17875)scale(0.08 -0.08)">
       <defs>
        <path id="DejaVuSans-36" d="M 2113 2584 
Q 1688 2584 1439 2293 
Q 1191 2003 1191 1497 
Q 1191 994 1439 701 
Q 1688 409 2113 409 
Q 2538 409 2786 701 
Q 3034 994 3034 1497 
Q 3034 2003 2786 2293 
Q 2538 2584 2113 2584 
z
M 3366 4563 
L 3366 3988 
Q 3128 4100 2886 4159 
Q 2644 4219 2406 4219 
Q 1781 4219 1451 3797 
Q 1122 3375 1075 2522 
Q 1259 2794 1537 2939 
Q 1816 3084 2150 3084 
Q 2853 3084 3261 2657 
Q 3669 2231 3669 1497 
Q 3669 778 3244 343 
Q 2819 -91 2113 -91 
Q 1303 -91 875 529 
Q 447 1150 447 2328 
Q 447 3434 972 4092 
Q 1497 4750 2381 4750 
Q 2619 4750 2861 4703 
Q 3103 4656 3366 4563 
z
" transform="scale(0.015625)"/>
       </defs>
       <use xlink:href="#DejaVuSans-36"/>
       <use xlink:href="#DejaVuSans-30" x="63.623047"/>
      </g>
     </g>
    </g>
    <g id="xtick_7">
     <g id="line2d_7">
      <defs>
       <path id="m97acdb7d4d" d="M 0 0 
L 0 2 
" style="stroke: #000000; stroke-width: 0.6"/>
      </defs>
      <g>
       <use xlink:href="#m97acdb7d4d" x="23.410313" y="143.1" style="stroke: #000000; stroke-width: 0.6"/>
      </g>
     </g>
    </g>
    <g id="xtick_8">
     <g id="line2d_8">
      <g>
       <use xlink:href="#m97acdb7d4d" x="30.385313" y="143.1" style="stroke: #000000; stroke-width: 0.6"/>
      </g>
     </g>
    </g>
    <g id="xtick_9">
     <g id="line2d_9">
      <g>
       <use xlink:href="#m97acdb7d4d" x="44.335313" y="143.1" style="stroke: #000000; stroke-width: 0.6"/>
      </g>
     </g>
    </g>
    <g id="xtick_10">
     <g id="line2d_10">
      <g>
       <use xlink:href="#m97acdb7d4d" x="51.310313" y="143.1" style="stroke: #000000; stroke-width: 0.6"/>
      </g>
     </g>
    </g>
    <g id="xtick_11">
     <g id="line2d_11">
      <g>
       <use xlink:href="#m97acdb7d4d" x="58.285313" y="143.1" style="stroke: #000000; stroke-width: 0.6"/>
      </g>
     </g>
    </g>
    <g id="xtick_12">
     <g id="line2d_12">
      <g>
       <use xlink:href="#m97acdb7d4d" x="72.235313" y="143.1" style="stroke: #000000; stroke-width: 0.6"/>
      </g>
     </g>
    </g>
    <g id="xtick_13">
     <g id="line2d_13">
      <g>
       <use xlink:href="#m97acdb7d4d" x="79.210313" y="143.1" style="stroke: #000000; stroke-width: 0.6"/>
      </g>
     </g>
    </g>
    <g id="xtick_14">
     <g id="line2d_14">
      <g>
       <use xlink:href="#m97acdb7d4d" x="86.185312" y="143.1" style="stroke: #000000; stroke-width: 0.6"/>
      </g>
     </g>
    </g>
    <g id="xtick_15">
     <g id="line2d_15">
      <g>
       <use xlink:href="#m97acdb7d4d" x="100.135312" y="143.1" style="stroke: #000000; stroke-width: 0.6"/>
      </g>
     </g>
    </g>
    <g id="xtick_16">
     <g id="line2d_16">
      <g>
       <use xlink:href="#m97acdb7d4d" x="107.110313" y="143.1" style="stroke: #000000; stroke-width: 0.6"/>
      </g>
     </g>
    </g>
    <g id="xtick_17">
     <g id="line2d_17">
      <g>
       <use xlink:href="#m97acdb7d4d" x="114.085313" y="143.1" style="stroke: #000000; stroke-width: 0.6"/>
      </g>
     </g>
    </g>
    <g id="xtick_18">
     <g id="line2d_18">
      <g>
       <use xlink:href="#m97acdb7d4d" x="128.035313" y="143.1" style="stroke: #000000; stroke-width: 0.6"/>
      </g>
     </g>
    </g>
    <g id="xtick_19">
     <g id="line2d_19">
      <g>
       <use xlink:href="#m97acdb7d4d" x="135.010312" y="143.1" style="stroke: #000000; stroke-width: 0.6"/>
      </g>
     </g>
    </g>
    <g id="xtick_20">
     <g id="line2d_20">
      <g>
       <use xlink:href="#m97acdb7d4d" x="141.985313" y="143.1" style="stroke: #000000; stroke-width: 0.6"/>
      </g>
     </g>
    </g>
    <g id="xtick_21">
     <g id="line2d_21">
      <g>
       <use xlink:href="#m97acdb7d4d" x="155.935313" y="143.1" style="stroke: #000000; stroke-width: 0.6"/>
      </g>
     </g>
    </g>
    <g id="xtick_22">
     <g id="line2d_22">
      <g>
       <use xlink:href="#m97acdb7d4d" x="162.910313" y="143.1" style="stroke: #000000; stroke-width: 0.6"/>
      </g>
     </g>
    </g>
    <g id="xtick_23">
     <g id="line2d_23">
      <g>
       <use xlink:href="#m97acdb7d4d" x="169.885313" y="143.1" style="stroke: #000000; stroke-width: 0.6"/>
      </g>
     </g>
    </g>
    <g id="xtick_24">
     <g id="line2d_24">
      <g>
       <use xlink:href="#m97acdb7d4d" x="183.835313" y="143.1" style="stroke: #000000; stroke-width: 0.6"/>
      </g>
     </g>
    </g>
    <g id="xtick_25">
     <g id="line2d_25">
      <g>
       <use xlink:href="#m97acdb7d4d" x="190.810313" y="143.1" style="stroke: #000000; stroke-width: 0.6"/>
      </g>
     </g>
    </g>
    <g id="text_7">
     <!-- Two Theta (degrees) -->
     <g transform="translate(61.294688 168.681094)scale(0.09 -0.09)">
      <defs>
       <path id="DejaVuSans-54" d="M -19 4666 
L 3928 4666 
L 3928 4134 
L 2272 4134 
L 2272 0 
L 1638 0 
L 1638 4134 
L -19 4134 
L -19 4666 
z
" transform="scale(0.015625)"/>
       <path id="DejaVuSans-77" d="M 269 3500 
L 844 3500 
L 1563 769 
L 2278 3500 
L 2956 3500 
L 3675 769 
L 4391 3500 
L 4966 3500 
L 4050 0 
L 3372 0 
L 2619 2869 
L 1863 0 
L 1184 0 
L 269 3500 
z
" transform="scale(0.015625)"/>
       <path id="DejaVuSans-6f" d="M 1959 3097 
Q 1497 3097 1228 2736 
Q 959 2375 959 1747 
Q 959 1119 1226 758 
Q 1494 397 1959 397 
Q 2419 397 2687 759 
Q 2956 1122 2956 1747 
Q 2956 2369 2687 2733 
Q 2419 3097 1959 3097 
z
M 1959 3584 
Q 2709 3584 3137 3096 
Q 3566 2609 3566 1747 
Q 3566 888 3137 398 
Q 2709 -91 1959 -91 
Q 1206 -91 779 398 
Q 353 888 353 1747 
Q 353 2609 779 3096 
Q 1206 3584 1959 3584 
z
" transform="scale(0.015625)"/>
       <path id="DejaVuSans-20" transform="scale(0.015625)"/>
       <path id="DejaVuSans-68" d="M 3513 2113 
L 3513 0 
L 2938 0 
L 2938 2094 
Q 2938 2591 2744 2837 
Q 2550 3084 2163 3084 
Q 1697 3084 1428 2787 
Q 1159 2491 1159 1978 
L 1159 0 
L 581 0 
L 581 4863 
L 1159 4863 
L 1159 2956 
Q 1366 3272 1645 3428 
Q 1925 3584 2291 3584 
Q 2894 3584 3203 3211 
Q 3513 2838 3513 2113 
z
" transform="scale(0.015625)"/>
       <path id="DejaVuSans-65" d="M 3597 1894 
L 3597 1613 
L 953 1613 
Q 991 1019 1311 708 
Q 1631 397 2203 397 
Q 2534 397 2845 478 
Q 3156 559 3463 722 
L 3463 178 
Q 3153 47 2828 -22 
Q 2503 -91 2169 -91 
Q 1331 -91 842 396 
Q 353 884 353 1716 
Q 353 2575 817 3079 
Q 1281 3584 2069 3584 
Q 2775 3584 3186 3129 
Q 3597 2675 3597 1894 
z
M 3022 2063 
Q 3016 2534 2758 2815 
Q 2500 3097 2075 3097 
Q 1594 3097 1305 2825 
Q 1016 2553 972 2059 
L 3022 2063 
z
" transform="scale(0.015625)"/>
       <path id="DejaVuSans-74" d="M 1172 4494 
L 1172 3500 
L 2356 3500 
L 2356 3053 
L 1172 3053 
L 1172 1153 
Q 1172 725 1289 603 
Q 1406 481 1766 481 
L 2356 481 
L 2356 0 
L 1766 0 
Q 1100 0 847 248 
Q 594 497 594 1153 
L 594 3053 
L 172 3053 
L 172 3500 
L 594 3500 
L 594 4494 
L 1172 4494 
z
" transform="scale(0.015625)"/>
       <path id="DejaVuSans-61" d="M 2194 1759 
Q 1497 1759 1228 1600 
Q 959 1441 959 1056 
Q 959 750 1161 570 
Q 1363 391 1709 391 
Q 2188 391 2477 730 
Q 2766 1069 2766 1631 
L 2766 1759 
L 2194 1759 
z
M 3341 1997 
L 3341 0 
L 2766 0 
L 2766 531 
Q 2569 213 2275 61 
Q 1981 -91 1556 -91 
Q 1019 -91 701 211 
Q 384 513 384 1019 
Q 384 1609 779 1909 
Q 1175 2209 1959 2209 
L 2766 2209 
L 2766 2266 
Q 2766 2663 2505 2880 
Q 2244 3097 1772 3097 
Q 1472 3097 1187 3025 
Q 903 2953 641 2809 
L 641 3341 
Q 956 3463 1253 3523 
Q 1550 3584 1831 3584 
Q 2591 3584 2966 3190 
Q 3341 2797 3341 1997 
z
" transform="scale(0.015625)"/>
       <path id="DejaVuSans-28" d="M 1984 4856 
Q 1566 4138 1362 3434 
Q 1159 2731 1159 2009 
Q 1159 1288 1364 580 
Q 1569 -128 1984 -844 
L 1484 -844 
Q 1016 -109 783 600 
Q 550 1309 550 2009 
Q 550 2706 781 3412 
Q 1013 4119 1484 4856 
L 1984 4856 
z
" transform="scale(0.015625)"/>
       <path id="DejaVuSans-64" d="M 2906 2969 
L 2906 4863 
L 3481 4863 
L 3481 0 
L 2906 0 
L 2906 525 
Q 2725 213 2448 61 
Q 2172 -91 1784 -91 
Q 1150 -91 751 415 
Q 353 922 353 1747 
Q 353 2572 751 3078 
Q 1150 3584 1784 3584 
Q 2172 3584 2448 3432 
Q 2725 3281 2906 2969 
z
M 947 1747 
Q 947 1113 1208 752 
Q 1469 391 1925 391 
Q 2381 391 2643 752 
Q 2906 1113 2906 1747 
Q 2906 2381 2643 2742 
Q 2381 3103 1925 3103 
Q 1469 3103 1208 2742 
Q 947 2381 947 1747 
z
" transform="scale(0.015625)"/>
       <path id="DejaVuSans-67" d="M 2906 1791 
Q 2906 2416 2648 2759 
Q 2391 3103 1925 3103 
Q 1463 3103 1205 2759 
Q 947 2416 947 1791 
Q 947 1169 1205 825 
Q 1463 481 1925 481 
Q 2391 481 2648 825 
Q 2906 1169 2906 1791 
z
M 3481 434 
Q 3481 -459 3084 -895 
Q 2688 -1331 1869 -1331 
Q 1566 -1331 1297 -1286 
Q 1028 -1241 775 -1147 
L 775 -588 
Q 1028 -725 1275 -790 
Q 1522 -856 1778 -856 
Q 2344 -856 2625 -561 
Q 2906 -266 2906 331 
L 2906 616 
Q 2728 306 2450 153 
Q 2172 0 1784 0 
Q 1141 0 747 490 
Q 353 981 353 1791 
Q 353 2603 747 3093 
Q 1141 3584 1784 3584 
Q 2172 3584 2450 3431 
Q 2728 3278 2906 2969 
L 2906 3500 
L 3481 3500 
L 3481 434 
z
" transform="scale(0.015625)"/>
       <path id="DejaVuSans-72" d="M 2631 2963 
Q 2534 3019 2420 3045 
Q 2306 3072 2169 3072 
Q 1681 3072 1420 2755 
Q 1159 2438 1159 1844 
L 1159 0 
L 581 0 
L 581 3500 
L 1159 3500 
L 1159 2956 
Q 1341 3275 1631 3429 
Q 1922 3584 2338 3584 
Q 2397 3584 2469 3576 
Q 2541 3569 2628 3553 
L 2631 2963 
z
" transform="scale(0.015625)"/>
       <path id="DejaVuSans-73" d="M 2834 3397 
L 2834 2853 
Q 2591 2978 2328 3040 
Q 2066 3103 1784 3103 
Q 1356 3103 1142 2972 
Q 928 2841 928 2578 
Q 928 2378 1081 2264 
Q 1234 2150 1697 2047 
L 1894 2003 
Q 2506 1872 2764 1633 
Q 3022 1394 3022 966 
Q 3022 478 2636 193 
Q 2250 -91 1575 -91 
Q 1294 -91 989 -36 
Q 684 19 347 128 
L 347 722 
Q 666 556 975 473 
Q 1284 391 1588 391 
Q 1994 391 2212 530 
Q 2431 669 2431 922 
Q 2431 1156 2273 1281 
Q 2116 1406 1581 1522 
L 1381 1569 
Q 847 1681 609 1914 
Q 372 2147 372 2553 
Q 372 3047 722 3315 
Q 1072 3584 1716 3584 
Q 2034 3584 2315 3537 
Q 2597 3491 2834 3397 
z
" transform="scale(0.015625)"/>
       <path id="DejaVuSans-29" d="M 513 4856 
L 1013 4856 
Q 1481 4119 1714 3412 
Q 1947 2706 1947 2009 
Q 1947 1309 1714 600 
Q 1481 -109 1013 -844 
L 513 -844 
Q 928 -128 1133 580 
Q 1338 1288 1338 2009 
Q 1338 2731 1133 3434 
Q 928 4138 513 4856 
z
" transform="scale(0.015625)"/>
      </defs>
      <use xlink:href="#DejaVuSans-54"/>
      <use xlink:href="#DejaVuSans-77" x="44.583984"/>
      <use xlink:href="#DejaVuSans-6f" x="126.371094"/>
      <use xlink:href="#DejaVuSans-20" x="187.552734"/>
      <use xlink:href="#DejaVuSans-54" x="219.339844"/>
      <use xlink:href="#DejaVuSans-68" x="280.423828"/>
      <use xlink:href="#DejaVuSans-65" x="343.802734"/>
      <use xlink:href="#DejaVuSans-74" x="405.326172"/>
      <use xlink:href="#DejaVuSans-61" x="444.535156"/>
      <use xlink:href="#DejaVuSans-20" x="505.814453"/>
      <use xlink:href="#DejaVuSans-28" x="537.601562"/>
      <use xlink:href="#DejaVuSans-64" x="576.615234"/>
      <use xlink:href="#DejaVuSans-65" x="640.091797"/>
      <use xlink:href="#DejaVuSans-67" x="701.615234"/>
      <use xlink:href="#DejaVuSans-72" x="765.091797"/>
      <use xlink:href="#DejaVuSans-65" x="803.955078"/>
      <use xlink:href="#DejaVuSans-65" x="865.478516"/>
      <use xlink:href="#DejaVuSans-73" x="927.001953"/>
      <use xlink:href="#DejaVuSans-29" x="979.101562"/>
     </g>
    </g>
   </g>
   <g id="matplotlib.axis_2">
    <g id="ytick_1">
     <g id="line2d_26"/>
    </g>
    <g id="ytick_2">
     <g id="line2d_27"/>
    </g>
    <g id="ytick_3">
     <g id="line2d_28"/>
    </g>
    <g id="ytick_4">
     <g id="line2d_29"/>
    </g>
    <g id="ytick_5">
     <g id="line2d_30"/>
    </g>
    <g id="text_8">
     <!-- Intensity -->
     <g transform="translate(14.038594 94.73625)rotate(-90)scale(0.09 -0.09)">
      <defs>
       <path id="DejaVuSans-49" d="M 628 4666 
L 1259 4666 
L 1259 0 
L 628 0 
L 628 4666 
z
" transform="scale(0.015625)"/>
       <path id="DejaVuSans-6e" d="M 3513 2113 
L 3513 0 
L 2938 0 
L 2938 2094 
Q 2938 2591 2744 2837 
Q 2550 3084 2163 3084 
Q 1697 3084 1428 2787 
Q 1159 2491 1159 1978 
L 1159 0 
L 581 0 
L 581 3500 
L 1159 3500 
L 1159 2956 
Q 1366 3272 1645 3428 
Q 1925 3584 2291 3584 
Q 2894 3584 3203 3211 
Q 3513 2838 3513 2113 
z
" transform="scale(0.015625)"/>
       <path id="DejaVuSans-69" d="M 603 3500 
L 1178 3500 
L 1178 0 
L 603 0 
L 603 3500 
z
M 603 4863 
L 1178 4863 
L 1178 4134 
L 603 4134 
L 603 4863 
z
" transform="scale(0.015625)"/>
       <path id="DejaVuSans-79" d="M 2059 -325 
Q 1816 -950 1584 -1140 
Q 1353 -1331 966 -1331 
L 506 -1331 
L 506 -850 
L 844 -850 
Q 1081 -850 1212 -737 
Q 1344 -625 1503 -206 
L 1606 56 
L 191 3500 
L 800 3500 
L 1894 763 
L 2988 3500 
L 3597 3500 
L 2059 -325 
z
" transform="scale(0.015625)"/>
      </defs>
      <use xlink:href="#DejaVuSans-49"/>
      <use xlink:href="#DejaVuSans-6e" x="29.492188"/>
      <use xlink:href="#DejaVuSans-74" x="92.871094"/>
      <use xlink:href="#DejaVuSans-65" x="132.080078"/>
      <use xlink:href="#DejaVuSans-6e" x="193.603516"/>
      <use xlink:href="#DejaVuSans-73" x="256.982422"/>
      <use xlink:href="#DejaVuSans-69" x="309.082031"/>
      <use xlink:href="#DejaVuSans-74" x="336.865234"/>
      <use xlink:href="#DejaVuSans-79" x="376.074219"/>
     </g>
    </g>
   </g>
   <g id="line2d_31">
    <path d="M 23.43188 17.909957 
L 23.505147 13.377273 
L 23.578414 21.548032 
L 23.651681 18.566003 
L 23.724948 22.800484 
L 23.798215 18.327441 
L 23.871482 23.844194 
L 23.944749 21.637493 
L 24.091283 30.315196 
L 24.16455 23.903835 
L 24.311084 31.836031 
L 24.384351 29.539869 
L 24.457618 30.64322 
L 24.530885 30.553759 
L 24.750686 36.487996 
L 24.823953 33.953272 
L 25.043753 39.231463 
L 25.11702 36.726558 
L 25.190287 41.587265 
L 25.263554 40.931219 
L 25.336821 38.724518 
L 25.556622 42.362593 
L 25.629889 48.863416 
L 25.703156 45.613004 
L 25.922957 42.481874 
L 25.996224 45.404262 
L 26.069491 45.314802 
L 26.142758 43.674686 
L 26.216025 49.101978 
L 26.289292 45.732286 
L 26.362559 45.970848 
L 26.435826 45.523544 
L 26.509093 49.430001 
L 26.58236 45.851567 
L 26.655627 51.3385 
L 26.728894 49.161619 
L 26.802161 52.561132 
L 26.875428 51.427961 
L 27.021962 49.758024 
L 27.095229 52.471671 
L 27.241763 49.787845 
L 27.388297 54.738013 
L 27.534831 50.35443 
L 27.754632 57.54112 
L 27.827899 58.256807 
L 27.901166 54.916934 
L 27.974433 56.586871 
L 28.0477 56.258847 
L 28.120967 56.855253 
L 28.2675 54.350349 
L 28.414034 58.763752 
L 28.487301 58.346268 
L 28.560568 55.155497 
L 28.707102 60.851172 
L 28.780369 58.793572 
L 28.853636 61.209015 
L 29.00017 58.376088 
L 29.293238 62.640389 
L 29.366505 62.521108 
L 29.439772 62.043983 
L 29.513039 60.195125 
L 29.586306 61.059914 
L 29.73284 65.204934 
L 29.879374 60.314407 
L 30.099175 65.83116 
L 30.245709 62.72985 
L 30.392243 64.966372 
L 30.46551 63.057873 
L 30.538777 66.964331 
L 30.685311 62.670209 
L 30.758578 66.994151 
L 30.831845 65.294395 
L 30.905112 65.204934 
L 30.978379 65.383856 
L 31.051646 69.886719 
L 31.19818 63.624459 
L 31.344714 68.664087 
L 31.417981 65.503137 
L 31.564514 69.230673 
L 31.637781 68.097502 
L 31.711048 69.349954 
L 31.784315 67.292354 
L 31.930849 70.155102 
L 32.004116 68.783368 
L 32.077383 73.017849 
L 32.15065 71.407554 
L 32.223917 72.451264 
L 32.297184 69.677977 
L 32.370451 72.242522 
L 32.443718 72.09342 
L 32.516985 69.349954 
L 32.590252 70.393664 
L 32.736786 73.644075 
L 32.810053 70.363844 
L 32.88332 72.03378 
L 32.956587 70.065641 
L 33.103121 73.256412 
L 33.176388 72.451264 
L 33.249655 71.884678 
L 33.322922 75.582394 
L 33.396189 70.572586 
L 33.469456 75.463113 
L 33.542723 75.045629 
L 33.689257 71.228632 
L 33.762524 75.433293 
L 33.835791 73.942278 
L 33.982325 72.510904 
L 34.128859 77.431252 
L 34.202126 75.970058 
L 34.421927 74.687786 
L 34.568461 78.2364 
L 34.714994 74.329942 
L 34.934795 78.415322 
L 35.008062 74.538684 
L 35.081329 76.029699 
L 35.154596 78.027658 
L 35.227863 75.612214 
L 35.447664 79.667774 
L 35.594198 76.268261 
L 35.813999 79.578313 
L 35.887266 77.848736 
L 35.960533 79.429211 
L 36.0338 79.071368 
L 36.107067 79.429211 
L 36.180334 79.369571 
L 36.253601 77.133049 
L 36.326868 77.520713 
L 36.546669 82.500701 
L 36.619936 78.504782 
L 36.693203 81.456991 
L 36.76647 79.787055 
L 36.839737 83.663692 
L 36.986271 80.979866 
L 37.059538 80.741304 
L 37.132805 78.862626 
L 37.206072 80.413281 
L 37.279339 77.133049 
L 37.425873 82.948005 
L 37.49914 80.681663 
L 37.645674 83.186568 
L 37.718941 81.576272 
L 37.792208 85.751113 
L 37.865475 83.902255 
L 37.938741 82.918185 
L 38.012008 83.186568 
L 38.085275 83.753153 
L 38.231809 80.771124 
L 38.305076 84.110997 
L 38.378343 81.128968 
L 38.45161 84.349559 
L 38.524877 83.633872 
L 38.598144 82.113037 
L 38.671411 83.007646 
L 38.744678 82.023576 
L 38.891212 85.303808 
L 38.964479 84.051356 
L 39.037746 86.49662 
L 39.111013 83.544411 
L 39.18428 86.347518 
L 39.404081 82.262139 
L 39.550615 86.079136 
L 39.623882 84.707402 
L 39.843683 86.765002 
L 39.990217 83.932075 
L 40.063484 84.081176 
L 40.283285 89.210266 
L 40.356552 84.021536 
L 40.429819 86.347518 
L 40.503086 85.959855 
L 40.576353 84.886324 
L 40.64962 87.838533 
L 40.722887 86.586081 
L 40.869421 89.866312 
L 40.942688 88.64368 
L 41.015955 85.661652 
L 41.089222 87.898173 
L 41.162488 86.973744 
L 41.235755 85.900214 
L 41.309022 88.61386 
L 41.382289 87.063205 
L 41.455556 87.450869 
L 41.60209 89.031344 
L 41.675357 88.762962 
L 41.748624 88.673501 
L 41.821891 90.522359 
L 41.968425 88.196376 
L 42.041692 90.850382 
L 42.114959 89.478649 
L 42.188226 91.059124 
L 42.261493 89.210266 
L 42.33476 90.581999 
L 42.408027 88.434938 
L 42.554561 90.999483 
L 42.627828 89.806672 
L 42.701095 93.981512 
L 42.774362 89.59793 
L 42.847629 91.267866 
L 42.920896 89.806672 
L 43.06743 91.71517 
L 43.140697 88.61386 
L 43.213964 89.568109 
L 43.287231 92.490498 
L 43.360498 89.448828 
L 43.433765 93.295645 
L 43.507032 90.581999 
L 43.726833 96.039112 
L 43.873367 90.134695 
L 43.946634 94.220074 
L 44.019901 90.611819 
L 44.093168 91.029304 
L 44.166435 91.327506 
L 44.239702 91.059124 
L 44.312969 94.78666 
L 44.386235 91.178405 
L 44.532769 94.070973 
L 44.606036 93.414927 
L 44.75257 94.75684 
L 44.825837 93.832411 
L 44.899104 94.011332 
L 44.972371 94.100793 
L 45.045638 91.834451 
L 45.192172 95.293605 
L 45.338706 92.788701 
L 45.411973 92.878161 
L 45.558507 95.144503 
L 45.631774 95.114683 
L 45.705041 92.907982 
L 45.778308 93.623669 
L 45.924842 94.548098 
L 45.998109 93.623669 
L 46.071376 96.396955 
L 46.144643 95.919831 
L 46.291177 94.75684 
L 46.364444 95.293605 
L 46.510978 93.862231 
L 46.584245 96.188213 
L 46.804046 93.027263 
L 47.023847 97.023181 
L 47.097114 92.907982 
L 47.243648 96.009292 
L 47.316915 93.355286 
L 47.390182 94.279715 
L 47.463449 95.025222 
L 47.536716 94.548098 
L 47.609983 96.188213 
L 47.683249 93.325466 
L 47.90305 97.172283 
L 48.049584 95.114683 
L 48.122851 95.472526 
L 48.196118 94.935761 
L 48.269385 96.486416 
L 48.415919 95.383066 
L 48.562453 99.885929 
L 48.63572 96.068932 
L 48.708987 97.142463 
L 48.782254 97.440666 
L 48.855521 97.053002 
L 48.928788 97.142463 
L 49.075322 97.768689 
L 49.295123 96.396955 
L 49.36839 98.007251 
L 49.441657 95.263784 
L 49.588191 99.885929 
L 49.881259 95.412886 
L 49.954526 98.156352 
L 50.027793 97.649408 
L 50.10106 99.378984 
L 50.174327 99.080781 
L 50.247594 99.408805 
L 50.320861 96.218034 
L 50.394128 97.231924 
L 50.613929 95.83037 
L 50.760463 98.90186 
L 50.906996 97.500306 
L 50.980263 99.319344 
L 51.05353 95.144503 
L 51.126797 98.335274 
L 51.200064 95.681269 
L 51.273331 99.319344 
L 51.346598 95.890011 
L 51.419865 97.261744 
L 51.566399 98.126532 
L 51.639666 97.94761 
L 51.712933 96.724979 
L 51.7862 99.557906 
L 51.859467 99.378984 
L 51.932734 97.619587 
L 52.079268 99.617547 
L 52.152535 96.396955 
L 52.225802 100.98928 
L 52.372336 97.679228 
L 52.445603 96.9039 
L 52.51887 98.394915 
L 52.592137 97.231924 
L 52.665404 99.438625 
L 52.811938 95.681269 
L 52.958472 100.392874 
L 53.105006 98.454555 
L 53.178273 98.872039 
L 53.25154 98.573836 
L 53.324807 97.410845 
L 53.398074 98.812399 
L 53.471341 96.87408 
L 53.544608 100.899819 
L 53.617875 98.842219 
L 53.691142 97.172283 
L 53.837676 99.021141 
L 53.910943 97.321384 
L 53.98421 98.842219 
L 54.057477 97.351205 
L 54.130743 97.589767 
L 54.20401 98.663297 
L 54.277277 98.305454 
L 54.423811 100.541976 
L 54.497078 95.86019 
L 54.570345 97.410845 
L 54.643612 96.963541 
L 54.716879 97.768689 
L 54.790146 97.321384 
L 54.863413 95.084863 
L 55.009947 98.156352 
L 55.156481 95.86019 
L 55.303015 96.575877 
L 55.376282 95.86019 
L 55.449549 96.367135 
L 55.522816 98.454555 
L 55.596083 97.410845 
L 55.66935 92.75888 
L 55.815884 97.589767 
L 55.889151 96.933721 
L 55.962418 98.722938 
L 56.035685 95.561987 
L 56.108952 96.963541 
L 56.182219 97.798509 
L 56.328753 92.579959 
L 56.475287 98.752758 
L 56.695088 92.75888 
L 56.768355 96.546057 
L 56.841622 95.919831 
L 56.914889 96.9039 
L 56.988156 93.683309 
L 57.061423 94.667379 
L 57.207957 96.575877 
L 57.281224 95.084863 
L 57.35449 96.218034 
L 57.501024 92.073014 
L 57.647558 95.502347 
L 57.720825 95.025222 
L 57.867359 92.251935 
L 58.08716 95.890011 
L 58.160427 92.818521 
L 58.233694 96.247854 
L 58.306961 92.550138 
L 58.380228 93.80259 
L 58.453495 92.669419 
L 58.526762 93.653489 
L 58.600029 92.192295 
L 58.673296 92.371217 
L 58.746563 93.862231 
L 58.81983 92.937802 
L 58.893097 93.027263 
L 58.966364 93.832411 
L 59.039631 91.446788 
L 59.112898 93.593848 
L 59.259432 91.894092 
L 59.332699 92.75888 
L 59.405966 92.460677 
L 59.5525 89.508469 
L 59.625767 92.669419 
L 59.699034 90.969663 
L 59.772301 91.65553 
L 59.845568 93.027263 
L 59.992102 88.226196 
L 60.065369 90.224156 
L 60.138636 87.480689 
L 60.211903 92.192295 
L 60.28517 90.283796 
L 60.358437 87.808712 
L 60.431704 90.164515 
L 60.504971 89.925953 
L 60.578237 88.822602 
L 60.651504 90.194335 
L 60.724771 89.419008 
L 60.798038 91.267866 
L 60.871305 88.673501 
L 61.017839 91.923912 
L 61.164373 87.450869 
L 61.23764 87.331588 
L 61.310907 86.49662 
L 61.603975 90.194335 
L 61.677242 85.363449 
L 61.750509 87.301767 
L 61.823776 86.138776 
L 61.897043 82.321779 
L 62.043577 88.017454 
L 62.116844 83.991715 
L 62.190111 86.884283 
L 62.263378 86.735182 
L 62.336645 85.363449 
L 62.409912 86.735182 
L 62.483179 81.427171 
L 62.556446 84.647762 
L 62.629713 81.39735 
L 62.776247 84.349559 
L 62.922781 83.604052 
L 62.996048 84.021536 
L 63.215849 79.608133 
L 63.362383 81.546452 
L 63.508917 82.083217 
L 63.582184 81.30789 
L 63.655451 81.993756 
L 63.728718 81.009687 
L 63.801984 82.3516 
L 63.948518 78.981907 
L 64.021785 82.113037 
L 64.095052 80.174719 
L 64.168319 81.606092 
L 64.314853 77.997838 
L 64.38812 80.443101 
L 64.534654 76.745385 
L 64.607921 80.055437 
L 64.681188 77.669814 
L 64.754455 79.041548 
L 64.900989 75.940238 
L 65.047523 78.474962 
L 65.12079 75.045629 
L 65.194057 75.791136 
L 65.267324 73.494974 
L 65.340591 75.880597 
L 65.413858 74.1212 
L 65.633659 76.894487 
L 65.706926 74.777246 
L 65.780193 76.715565 
L 65.85346 75.940238 
L 65.926727 75.343832 
L 65.999994 76.894487 
L 66.146528 71.705757 
L 66.219795 74.419403 
L 66.293062 73.793177 
L 66.512863 69.171032 
L 66.58613 72.331983 
L 66.659397 69.856899 
L 66.732664 72.540725 
L 66.805931 71.914499 
L 66.879198 70.870789 
L 66.952465 71.258452 
L 67.172265 69.737618 
L 67.245532 69.97618 
L 67.318799 63.356076 
L 67.392066 66.666128 
L 67.5386 67.978221 
L 67.611867 65.473316 
L 67.685134 68.544806 
L 67.831668 64.161224 
L 67.978202 68.753548 
L 68.051469 63.296435 
L 68.198003 66.457386 
L 68.27127 66.487206 
L 68.344537 63.863021 
L 68.417804 65.175114 
L 68.491071 67.441455 
L 68.564338 67.262534 
L 68.637605 66.099542 
L 68.710872 68.872829 
L 68.930673 62.401827 
L 69.00394 63.087693 
L 69.077207 63.415717 
L 69.223741 64.75763 
L 69.297008 64.548887 
L 69.370275 62.431647 
L 69.443542 64.578708 
L 69.516809 63.684099 
L 69.590076 60.135485 
L 69.663343 61.954522 
L 69.73661 61.865062 
L 69.956411 59.896923 
L 70.176212 64.161224 
L 70.322745 60.105665 
L 70.396012 60.821351 
L 70.542546 58.316447 
L 70.615813 61.447578 
L 70.762347 56.020285 
L 70.835614 59.061954 
L 70.908881 57.928783 
L 70.982148 57.958604 
L 71.055415 57.242917 
L 71.128682 57.362198 
L 71.201949 59.837282 
L 71.275216 59.509259 
L 71.348483 59.389978 
L 71.42175 58.167346 
L 71.495017 60.016204 
L 71.641551 56.706152 
L 71.714818 59.360157 
L 71.788085 58.793572 
L 71.861352 55.871184 
L 71.934619 57.093815 
L 72.007886 58.942673 
L 72.081153 55.304598 
L 72.15442 60.821351 
L 72.227687 54.648552 
L 72.300954 57.063995 
L 72.447488 61.537038 
L 72.520755 57.511299 
L 72.594022 60.910812 
L 72.667289 54.648552 
L 72.740556 56.646511 
L 72.813823 53.992505 
L 72.88709 56.944714 
L 72.960357 56.735972 
L 73.033624 54.678372 
L 73.180158 57.451659 
L 73.253425 57.272737 
L 73.326692 58.435728 
L 73.546492 57.272737 
L 73.619759 57.749862 
L 73.693026 55.990465 
L 73.766293 58.912853 
L 73.83956 55.781723 
L 73.912827 59.777641 
L 74.132628 55.394059 
L 74.279162 54.678372 
L 74.425696 61.507218 
L 74.57223 57.481479 
L 74.645497 60.582789 
L 74.718764 58.704111 
L 74.792031 59.389978 
L 74.938565 62.073804 
L 75.011832 59.867102 
L 75.085099 60.731891 
L 75.158366 59.151415 
L 75.231633 60.67225 
L 75.3049 60.254766 
L 75.451434 57.093815 
L 75.524701 62.550928 
L 75.671235 54.350349 
L 75.891036 61.298476 
L 75.964303 61.387937 
L 76.110837 58.64447 
L 76.184104 60.582789 
L 76.257371 58.883033 
L 76.330638 61.537038 
L 76.403905 60.046024 
L 76.477172 61.924702 
L 76.550439 61.65632 
L 76.623706 61.71596 
L 76.770239 64.489247 
L 76.916773 60.165305 
L 76.99004 58.495369 
L 77.063307 61.477398 
L 77.136574 58.674291 
L 77.283108 62.342186 
L 77.356375 63.713919 
L 77.429642 60.612609 
L 77.502909 62.014163 
L 77.576176 61.000273 
L 77.649443 66.159183 
L 77.795977 62.342186 
L 77.869244 66.069722 
L 77.942511 64.75763 
L 78.015778 63.028053 
L 78.089045 64.071763 
L 78.162312 61.537038 
L 78.382113 66.666128 
L 78.528647 64.78745 
L 78.601914 65.503137 
L 78.675181 64.131403 
L 78.748448 66.87487 
L 78.821715 66.755589 
L 78.894982 67.978221 
L 79.114783 63.117514 
L 79.261317 66.338105 
L 79.334584 65.950441 
L 79.407851 66.785409 
L 79.481118 66.278464 
L 79.627652 68.634267 
L 79.774186 66.069722 
L 79.92072 70.721687 
L 79.993986 66.606487 
L 80.067253 71.288273 
L 80.14052 69.528876 
L 80.213787 67.799299 
L 80.287054 69.737618 
L 80.360321 67.799299 
L 80.433588 68.425525 
L 80.506855 70.393664 
L 80.580122 66.994151 
L 80.653389 69.97618 
L 80.726656 69.856899 
L 80.87319 70.900609 
L 80.946457 69.260493 
L 81.019724 71.04971 
L 81.092991 69.021931 
L 81.166258 70.304203 
L 81.239525 69.379774 
L 81.312792 71.04971 
L 81.386059 70.721687 
L 81.459326 69.469235 
L 81.532593 69.618337 
L 81.60586 74.300122 
L 81.679127 72.749467 
L 81.752394 73.166951 
L 81.825661 69.528876 
L 81.972195 72.510904 
L 82.045462 72.481084 
L 82.118729 70.930429 
L 82.191996 72.242522 
L 82.265263 75.791136 
L 82.33853 74.956168 
L 82.485064 72.0636 
L 82.558331 75.791136 
L 82.704865 72.928389 
L 82.778132 74.657965 
L 82.851399 72.928389 
L 82.924666 78.534603 
L 83.0712 72.451264 
L 83.144467 77.490893 
L 83.217733 76.029699 
L 83.291 74.210661 
L 83.364267 75.015809 
L 83.437534 75.970058 
L 83.510801 74.061559 
L 83.584068 77.341791 
L 83.657335 73.852817 
L 83.730602 78.892446 
L 83.803869 74.300122 
L 83.877136 76.924307 
L 83.950403 74.09138 
L 84.02367 76.894487 
L 84.096937 74.836887 
L 84.316738 79.757235 
L 84.390005 78.683704 
L 84.463272 75.10527 
L 84.609806 78.355681 
L 84.683073 78.325861 
L 84.75634 77.103229 
L 84.902874 79.190649 
L 84.976141 75.642035 
L 85.049408 76.775206 
L 85.122675 80.294 
L 85.269209 75.373652 
L 85.48901 82.262139 
L 85.562277 77.878556 
L 85.635544 81.099148 
L 85.708811 80.383461 
L 85.782078 79.160829 
L 85.855345 81.33771 
L 85.928612 81.188608 
L 86.001879 80.860585 
L 86.148413 81.278069 
L 86.22168 80.085258 
L 86.294947 81.158788 
L 86.368214 80.771124 
L 86.44148 81.427171 
L 86.514747 80.681663 
L 86.661281 84.916144 
L 86.734548 84.4092 
L 86.807815 81.36753 
L 86.881082 81.725374 
L 87.027616 82.619982 
L 87.17415 82.083217 
L 87.320684 84.4092 
L 87.393951 82.530521 
L 87.540485 84.319739 
L 87.687019 81.30789 
L 87.760286 85.959855 
L 87.833553 81.665733 
L 87.90682 85.423089 
L 87.980087 81.218429 
L 88.053354 86.705362 
L 88.126621 83.872434 
L 88.199888 86.914104 
L 88.273155 83.961895 
L 88.346422 86.198417 
L 88.419689 84.170637 
L 88.492956 84.767043 
L 88.566223 86.079136 
L 88.63949 84.528481 
L 88.712757 87.122846 
L 88.786024 86.466799 
L 88.859291 85.273988 
L 88.932558 88.464759 
L 89.005825 86.019495 
L 89.152359 88.136736 
L 89.225626 85.840573 
L 89.37216 89.508469 
L 89.445427 88.166556 
L 89.518694 90.403077 
L 89.591961 87.242127 
L 89.665227 88.912063 
L 89.738494 87.57015 
L 89.885028 91.65553 
L 89.958295 90.373257 
L 90.031562 91.297686 
L 90.104829 89.717211 
L 90.178096 90.075054 
L 90.251363 89.65757 
L 90.32463 88.256017 
L 90.397897 89.448828 
L 90.471164 88.61386 
L 90.544431 91.68535 
L 90.617698 90.790741 
L 90.764232 90.64164 
L 90.837499 89.62775 
L 90.984033 91.894092 
L 91.0573 91.65553 
L 91.130567 89.329547 
L 91.203834 89.508469 
L 91.277101 90.910022 
L 91.350368 90.492538 
L 91.423635 91.148585 
L 91.496902 93.474567 
L 91.570169 92.579959 
L 91.643436 94.428816 
L 91.716703 90.999483 
L 91.78997 93.74295 
L 91.863237 93.057083 
L 91.936504 92.818521 
L 92.009771 92.073014 
L 92.156305 93.951692 
L 92.229572 93.593848 
L 92.302839 95.740909 
L 92.449373 92.788701 
L 92.52264 93.593848 
L 92.595907 91.864272 
L 92.669174 92.460677 
L 92.815708 95.174324 
L 92.888974 93.593848 
L 92.962241 96.098753 
L 93.035508 95.204144 
L 93.108775 94.548098 
L 93.182042 96.575877 
L 93.255309 95.144503 
L 93.328576 97.351205 
L 93.47511 94.75684 
L 93.548377 97.94761 
L 93.621644 97.261744 
L 93.694911 97.649408 
L 93.768178 96.993361 
L 93.914712 93.444747 
L 93.987979 94.488457 
L 94.061246 93.385106 
L 94.20778 97.142463 
L 94.281047 95.472526 
L 94.354314 96.158393 
L 94.427581 96.784619 
L 94.500848 96.426776 
L 94.574115 99.438625 
L 94.720649 95.502347 
L 94.867183 98.693118 
L 94.94045 98.663297 
L 95.013717 99.468445 
L 95.160251 98.007251 
L 95.306785 99.289523 
L 95.380052 98.245813 
L 95.453319 98.9615 
L 95.526586 101.198022 
L 95.599853 98.544016 
L 95.67312 98.991321 
L 95.746387 100.512155 
L 95.819654 99.229883 
L 95.892921 99.885929 
L 95.966188 99.557906 
L 96.185988 102.241732 
L 96.259255 100.303413 
L 96.332522 101.317303 
L 96.405789 99.349164 
L 96.479056 102.569755 
L 96.552323 100.98928 
L 96.62559 101.168202 
L 96.772124 103.017059 
L 96.845391 100.810358 
L 96.918658 101.883888 
L 96.991925 102.331193 
L 97.065192 101.675146 
L 97.211726 102.361013 
L 97.284993 104.746636 
L 97.431527 101.854068 
L 97.578061 103.434543 
L 97.651328 102.00317 
L 97.724595 103.285442 
L 97.797862 103.10652 
L 98.017663 101.734787 
L 98.237464 104.508074 
L 98.310731 104.209871 
L 98.457265 105.849987 
L 98.530532 102.689036 
L 98.603799 105.19394 
L 98.677066 103.792387 
L 98.750333 103.971309 
L 98.8236 105.909627 
L 98.896867 102.718857 
L 98.970134 103.583645 
L 99.043401 104.597535 
L 99.116668 107.579564 
L 99.263202 103.10652 
L 99.409735 107.132259 
L 99.483002 105.969268 
L 99.629536 105.521964 
L 99.77607 106.625314 
L 99.849337 105.730706 
L 99.922604 107.341001 
L 99.995871 106.863877 
L 100.288939 108.444352 
L 100.362206 107.072619 
L 100.435473 108.653094 
L 100.50874 106.237651 
L 100.582007 108.26543 
L 100.655274 107.877766 
L 100.801808 108.891656 
L 100.875075 108.951297 
L 100.948342 107.669024 
L 101.021609 109.607343 
L 101.094876 109.27932 
L 101.168143 105.283401 
L 101.314677 110.114288 
L 101.387944 108.593453 
L 101.461211 109.637163 
L 101.534478 107.967227 
L 101.681012 110.680874 
L 101.754279 109.726624 
L 101.827546 106.058729 
L 101.900813 108.981117 
L 101.97408 108.175969 
L 102.047347 108.712735 
L 102.120614 111.754404 
L 102.193881 110.35285 
L 102.267148 107.1919 
L 102.486949 110.144108 
L 102.560216 111.456201 
L 102.633482 110.591413 
L 102.706749 113.185778 
L 102.780016 111.933326 
L 102.853283 111.992966 
L 102.92655 109.845905 
L 102.999817 110.770334 
L 103.219618 113.45416 
L 103.292885 110.621233 
L 103.366152 111.098358 
L 103.439419 111.277279 
L 103.512686 110.740514 
L 103.65922 114.617152 
L 103.732487 110.084468 
L 103.805754 111.36674 
L 103.879021 114.378589 
L 104.025555 110.382671 
L 104.172089 114.318949 
L 104.245356 112.142068 
L 104.318623 112.171888 
L 104.39189 113.603262 
L 104.465157 111.873685 
L 104.538424 113.513801 
L 104.684958 111.724584 
L 104.831492 114.945175 
L 104.904759 113.633082 
L 104.978026 114.199668 
L 105.051293 114.557511 
L 105.12456 113.096317 
L 105.344361 117.479899 
L 105.490895 114.229488 
L 105.637429 116.853673 
L 105.710696 113.275239 
L 105.857229 115.869604 
L 105.930496 114.945175 
L 106.003763 115.929244 
L 106.07703 114.199668 
L 106.150297 116.406369 
L 106.223564 115.004815 
L 106.370098 116.704572 
L 106.516632 115.124097 
L 106.589899 117.53954 
L 106.663166 115.660862 
L 106.736433 117.629001 
L 106.8097 117.062415 
L 106.882967 116.674751 
L 106.956234 116.883494 
L 107.176035 117.927204 
L 107.249302 114.527691 
L 107.322569 119.448038 
L 107.395836 116.734392 
L 107.469103 118.314867 
L 107.54237 117.629001 
L 107.835438 115.243378 
L 107.908705 118.493789 
L 107.981972 117.241337 
L 108.055239 116.972954 
L 108.201773 118.493789 
L 108.348307 115.809963 
L 108.568108 119.835702 
L 108.641375 117.629001 
L 108.714642 118.732351 
L 108.787909 117.50972 
L 108.861176 121.058334 
L 108.934443 116.943134 
L 109.00771 120.193546 
L 109.080976 119.507679 
L 109.154243 120.879412 
L 109.300777 117.181696 
L 109.374044 118.61307 
L 109.447311 118.165766 
L 109.520578 118.672711 
L 109.593845 120.044444 
L 109.667112 119.209476 
L 109.813646 121.535458 
L 109.96018 118.791992 
L 110.033447 119.120015 
L 110.253248 121.028514 
L 110.326515 122.608989 
L 110.399782 121.863482 
L 110.473049 120.044444 
L 110.546316 120.491748 
L 110.619583 120.074264 
L 110.839384 122.012583 
L 110.912651 119.388398 
L 111.132452 123.533418 
L 111.278986 121.207435 
L 111.498787 122.430067 
L 111.718588 121.71438 
L 111.791855 122.489708 
L 111.865122 121.71438 
L 112.011656 122.937012 
L 112.084923 121.147795 
L 112.15819 123.324676 
L 112.231457 122.012583 
L 112.304723 122.191505 
L 112.37799 126.008502 
L 112.451257 121.923122 
L 112.524524 122.817731 
L 112.597791 123.145754 
L 112.671058 124.606948 
L 112.817592 120.998693 
L 112.964126 124.398206 
L 113.037393 122.668629 
L 113.11066 123.652699 
L 113.183927 121.356537 
L 113.257194 123.026473 
L 113.330461 122.69845 
L 113.403728 122.370427 
L 113.623529 125.173534 
L 113.696796 123.324676 
L 113.770063 125.054253 
L 113.84333 123.473777 
L 113.989864 125.143713 
L 114.136398 123.086113 
L 114.209665 123.71234 
L 114.282932 125.561197 
L 114.356199 124.606948 
L 114.429466 125.054253 
L 114.502733 126.90311 
L 114.576 122.579169 
L 114.649267 124.696409 
L 114.795801 126.276884 
L 115.015602 123.265035 
L 115.088869 123.324676 
L 115.235403 125.680479 
L 115.381937 122.996653 
L 115.455204 124.84551 
L 115.52847 124.696409 
L 115.601737 124.577128 
L 115.675004 124.905151 
L 115.821538 126.425986 
L 115.968072 125.620838 
L 116.041339 124.875331 
L 116.114606 126.157603 
L 116.187873 124.905151 
L 116.26114 125.024432 
L 116.407674 126.425986 
L 116.480941 125.591018 
L 116.554208 126.127783 
L 116.627475 127.797719 
L 116.700742 125.650658 
L 116.774009 126.336525 
L 116.847276 125.561197 
L 116.920543 125.680479 
L 117.067077 126.545267 
L 117.140344 124.905151 
L 117.213611 124.934971 
L 117.286878 127.201313 
L 117.360145 123.861441 
L 117.433412 127.320594 
L 117.506679 126.455806 
L 117.579946 126.097963 
L 117.653213 124.726229 
L 117.72648 126.187423 
L 117.799747 126.157603 
L 117.873014 125.82958 
L 117.946281 126.336525 
L 118.019548 125.978681 
L 118.092815 126.097963 
L 118.239349 127.022392 
L 118.385883 125.948861 
L 118.45915 128.006461 
L 118.532417 126.87329 
L 118.678951 128.543226 
L 118.898751 125.471737 
L 119.118552 128.394125 
L 119.191819 126.545267 
L 119.265086 127.022392 
L 119.338353 126.87329 
L 119.484887 125.113893 
L 119.558154 127.738078 
L 119.631421 126.84347 
L 119.704688 127.052212 
L 119.777955 126.425986 
L 119.851222 128.006461 
L 119.924489 126.664548 
L 119.997756 128.334484 
L 120.071023 125.79976 
L 120.217557 128.722148 
L 120.290824 126.485626 
L 120.364091 128.334484 
L 120.437358 126.396165 
L 120.510625 128.781789 
L 120.657159 126.366345 
L 120.730426 126.694368 
L 120.87696 129.795678 
L 120.950227 127.738078 
L 121.023494 128.364305 
L 121.170028 126.992571 
L 121.243295 127.320594 
L 121.316562 128.90107 
L 121.389829 126.247064 
L 121.463096 128.066102 
L 121.60963 126.694368 
L 121.756164 128.215203 
L 121.975965 126.962751 
L 122.049231 127.141673 
L 122.269032 128.781789 
L 122.342299 127.499516 
L 122.488833 129.467655 
L 122.5621 127.499516 
L 122.635367 128.453765 
L 122.708634 128.871249 
L 122.781901 127.141673 
L 122.855168 127.797719 
L 123.001702 129.676397 
L 123.148236 126.575087 
L 123.221503 126.932931 
L 123.29477 128.513406 
L 123.368037 127.708258 
L 123.514571 129.199273 
L 123.587838 127.976641 
L 123.661105 128.453765 
L 123.807639 127.648618 
L 123.880906 128.364305 
L 124.02744 127.141673 
L 124.173974 129.348374 
L 124.320508 126.157603 
L 124.540309 128.483586 
L 124.613576 127.85736 
L 124.686843 128.93089 
L 124.76011 126.694368 
L 124.906644 129.795678 
L 125.053178 127.85736 
L 125.126445 128.692328 
L 125.199712 127.648618 
L 125.419512 129.91496 
L 125.639313 126.754009 
L 125.785847 130.00442 
L 125.859114 129.378194 
L 125.932381 127.111852 
L 126.005648 130.00442 
L 126.078915 127.231134 
L 126.152182 130.242983 
L 126.225449 126.694368 
L 126.44525 129.616757 
L 126.591784 128.543226 
L 126.665051 128.841429 
L 126.811585 127.171493 
L 126.884852 129.169452 
L 126.958119 128.394125 
L 127.031386 126.87329 
L 127.251187 129.855319 
L 127.324454 127.85736 
L 127.397721 128.781789 
L 127.470988 128.483586 
L 127.544255 131.077951 
L 127.690789 128.185383 
L 127.764056 129.348374 
L 127.837323 128.841429 
L 127.91059 127.141673 
L 127.983857 127.231134 
L 128.130391 129.527296 
L 128.276925 127.976641 
L 128.350192 130.481545 
L 128.423459 129.497475 
L 128.569992 127.708258 
L 128.643259 129.348374 
L 128.716526 129.258913 
L 128.789793 128.334484 
L 128.86306 129.229093 
L 129.009594 127.499516 
L 129.156128 129.855319 
L 129.229395 128.90107 
L 129.302662 128.066102 
L 129.59573 130.720107 
L 129.668997 129.139632 
L 129.742264 129.855319 
L 129.815531 130.392084 
L 129.888798 128.125742 
L 130.035332 129.646577 
L 130.108599 128.722148 
L 130.181866 131.972559 
L 130.255133 127.678438 
L 130.3284 128.095922 
L 130.474934 130.302623 
L 130.548201 129.9746 
L 130.694735 129.109812 
L 130.768002 128.990531 
L 130.841269 129.109812 
L 130.987803 129.736038 
L 131.06107 127.439876 
L 131.207604 130.481545 
L 131.280871 128.423945 
L 131.354138 128.573047 
L 131.500672 130.928849 
L 131.573939 129.229093 
L 131.647206 129.497475 
L 131.720472 129.109812 
L 131.793739 131.793638 
L 131.867006 129.229093 
L 131.940273 129.258913 
L 132.01354 129.527296 
L 132.086807 130.272803 
L 132.306608 128.90107 
L 132.379875 130.272803 
L 132.453142 129.467655 
L 132.526409 129.825499 
L 132.599676 130.421904 
L 132.672943 129.318554 
L 132.74621 130.332444 
L 132.819477 130.034241 
L 132.892744 128.513406 
L 133.039278 130.571006 
L 133.112545 128.483586 
L 133.185812 129.676397 
L 133.259079 127.917 
L 133.332346 132.181301 
L 133.405613 130.779748 
L 133.47888 128.334484 
L 133.552147 128.871249 
L 133.625414 130.720107 
L 133.698681 128.93089 
L 133.771948 131.227052 
L 133.845215 129.109812 
L 133.918482 130.451725 
L 134.138283 127.559157 
L 134.21155 128.453765 
L 134.431351 130.98849 
L 134.504618 130.153522 
L 134.577885 129.94478 
L 134.651152 130.749928 
L 134.724419 129.91496 
L 134.797686 131.286693 
L 135.017486 128.274844 
L 135.090753 130.98849 
L 135.16402 130.809568 
L 135.310554 130.541186 
L 135.383821 128.841429 
L 135.457088 129.706217 
L 135.676889 129.288733 
L 135.750156 129.557116 
L 135.823423 131.346333 
L 135.89669 130.481545 
L 136.116491 133.284652 
L 136.189758 132.091841 
L 136.263025 132.211122 
L 136.336292 131.883099 
L 136.482826 129.348374 
L 136.775894 131.584896 
L 136.922428 130.213162 
L 136.995695 131.644536 
L 137.068962 130.869209 
L 137.142229 131.674357 
L 137.215496 131.04813 
L 137.36203 131.912919 
L 137.508564 130.720107 
L 137.581831 130.720107 
L 137.655098 131.01831 
L 137.728365 132.896988 
L 137.801632 130.779748 
L 137.874899 131.674357 
L 138.0947 130.272803 
L 138.167966 132.419864 
L 138.241233 131.405974 
L 138.3145 132.658426 
L 138.461034 130.839388 
L 138.534301 130.481545 
L 138.754102 131.704177 
L 138.827369 131.376154 
L 138.900636 132.390043 
L 138.973903 131.227052 
L 139.120437 131.942739 
L 139.266971 131.912919 
L 139.340238 131.077951 
L 139.413505 132.658426 
L 139.560039 130.571006 
L 139.633306 131.077951 
L 139.706573 132.896988 
L 139.77984 130.899029 
L 139.853107 132.211122 
L 139.926374 131.823458 
L 139.999641 131.376154 
L 140.072908 129.736038 
L 140.146175 132.151481 
L 140.219442 132.121661 
L 140.365976 130.392084 
L 140.439243 131.227052 
L 140.51251 131.883099 
L 140.878845 129.050171 
L 141.025379 131.137591 
L 141.171913 130.899029 
L 141.318447 131.495435 
L 141.391713 128.751968 
L 141.611514 131.167412 
L 141.758048 131.853278 
L 141.831315 132.867168 
L 141.977849 131.01831 
L 142.124383 132.390043 
L 142.270917 130.600826 
L 142.344184 132.598785 
L 142.417451 130.660467 
L 142.563985 133.284652 
L 142.637252 132.867168 
L 142.710519 133.314472 
L 142.783786 131.525255 
L 142.93032 132.837348 
L 143.076854 130.809568 
L 143.150121 132.240942 
L 143.223388 131.942739 
L 143.369922 131.555075 
L 143.443189 133.702136 
L 143.516456 131.942739 
L 143.589723 132.896988 
L 143.736257 132.121661 
L 143.809524 133.642496 
L 143.882791 130.899029 
L 143.956058 131.793638 
L 144.029325 133.672316 
L 144.249126 130.481545 
L 144.542194 132.479504 
L 144.688727 129.050171 
L 144.835261 133.195191 
L 144.981795 131.584896 
L 145.055062 132.986449 
L 145.128329 132.688246 
L 145.201596 131.435794 
L 145.274863 133.07591 
L 145.421397 131.077951 
L 145.494664 132.658426 
L 145.567931 131.465615 
L 145.714465 134.05998 
L 145.787732 132.181301 
L 145.860999 133.01627 
L 146.007533 131.525255 
L 146.0808 133.821417 
L 146.154067 133.672316 
L 146.227334 132.0322 
L 146.300601 132.956629 
L 146.373868 132.896988 
L 146.447135 131.972559 
L 146.520402 134.716026 
L 146.740203 130.839388 
L 146.81347 132.479504 
L 146.886737 130.183342 
L 146.960004 133.225012 
L 147.033271 130.720107 
L 147.106538 133.940698 
L 147.179805 131.763817 
L 147.253072 133.314472 
L 147.326339 132.06202 
L 147.399606 132.240942 
L 147.472873 132.658426 
L 147.619407 131.942739 
L 147.839208 134.179261 
L 147.985741 132.121661 
L 148.059008 132.330403 
L 148.132275 134.14944 
L 148.205542 133.433754 
L 148.278809 133.970519 
L 148.352076 130.809568 
L 148.425343 131.346333 
L 148.49861 133.374113 
L 148.571877 132.300583 
L 148.718411 134.238901 
L 148.938212 131.555075 
L 149.158013 132.00238 
L 149.23128 132.270762 
L 149.304547 133.463574 
L 149.377814 133.433754 
L 149.524348 132.121661 
L 149.597615 132.986449 
L 149.670882 132.270762 
L 149.744149 132.419864 
L 149.817416 132.270762 
L 149.96395 133.01627 
L 150.037217 134.328362 
L 150.110484 132.449684 
L 150.183751 133.374113 
L 150.403552 132.807527 
L 150.476819 133.225012 
L 150.550086 132.00238 
L 150.623353 132.449684 
L 150.69662 134.298542 
L 150.769887 130.421904 
L 150.843154 132.151481 
L 150.916421 133.165371 
L 150.989688 131.912919 
L 151.062955 133.523214 
L 151.136221 130.98849 
L 151.282755 132.986449 
L 151.502556 134.388003 
L 151.795624 131.733997 
L 151.868891 133.523214 
L 151.942158 132.419864 
L 152.015425 134.179261 
L 152.088692 132.926809 
L 152.161959 133.702136 
L 152.235226 133.672316 
L 152.308493 132.718067 
L 152.38176 133.821417 
L 152.528294 131.942739 
L 152.601561 133.702136 
L 152.674828 133.165371 
L 152.821362 133.851238 
L 152.894629 131.823458 
L 152.967896 132.747887 
L 153.041163 133.135551 
L 153.187697 132.658426 
L 153.260964 134.179261 
L 153.480765 131.733997 
L 153.554032 132.837348 
L 153.627299 132.658426 
L 153.773833 133.225012 
L 153.8471 131.435794 
L 153.993634 134.835307 
L 154.066901 133.553035 
L 154.140168 132.867168 
L 154.213435 133.433754 
L 154.359968 132.509325 
L 154.433235 132.539145 
L 154.506502 132.240942 
L 154.579769 133.135551 
L 154.653036 131.107771 
L 154.872837 134.447643 
L 154.946104 131.853278 
L 155.019371 132.867168 
L 155.092638 132.688246 
L 155.165905 135.16333 
L 155.239172 130.98849 
L 155.385706 133.314472 
L 155.458973 133.433754 
L 155.53224 132.867168 
L 155.605507 133.433754 
L 155.678774 131.704177 
L 155.752041 134.030159 
L 155.825308 132.539145 
L 155.898575 133.433754 
L 155.971842 133.04609 
L 156.045109 132.867168 
L 156.118376 133.672316 
L 156.338177 132.091841 
L 156.411444 132.807527 
L 156.484711 132.509325 
L 156.557978 132.568965 
L 156.631245 134.775667 
L 156.704512 132.449684 
L 156.777779 134.477464 
L 156.851046 132.539145 
L 156.99758 133.702136 
L 157.070847 132.628606 
L 157.144114 133.04609 
L 157.217381 132.986449 
L 157.290648 131.614716 
L 157.437182 133.642496 
L 157.510449 133.254832 
L 157.583715 133.612675 
L 157.803516 132.121661 
L 157.876783 133.970519 
L 157.95005 133.612675 
L 158.023317 132.539145 
L 158.096584 132.837348 
L 158.169851 135.968478 
L 158.243118 132.926809 
L 158.316385 133.821417 
L 158.462919 132.240942 
L 158.609453 134.835307 
L 158.68272 134.179261 
L 158.829254 131.763817 
L 158.975788 133.642496 
L 159.122322 132.479504 
L 159.268856 134.209081 
L 159.342123 132.270762 
L 159.41539 133.344293 
L 159.488657 132.658426 
L 159.561924 133.851238 
L 159.635191 132.688246 
L 159.708458 132.867168 
L 159.781725 134.477464 
L 159.854992 134.030159 
L 159.928259 134.507284 
L 160.001526 134.268722 
L 160.074793 134.14944 
L 160.14806 131.405974 
L 160.294594 135.461533 
L 160.367861 132.926809 
L 160.441128 133.463574 
L 160.514395 133.553035 
L 160.734196 131.883099 
L 160.880729 135.312432 
L 160.953996 133.254832 
L 161.027263 133.612675 
L 161.10053 134.14944 
L 161.247064 131.853278 
L 161.320331 134.894948 
L 161.393598 134.05998 
L 161.466865 133.10573 
L 161.540132 133.761777 
L 161.613399 132.419864 
L 161.686666 134.030159 
L 161.759933 132.181301 
L 161.8332 133.851238 
L 161.906467 133.284652 
L 161.979734 132.330403 
L 162.126268 134.417823 
L 162.199535 132.449684 
L 162.346069 134.984409 
L 162.419336 132.568965 
L 162.492603 132.747887 
L 162.56587 132.867168 
L 162.639137 135.312432 
L 162.712404 133.791597 
L 162.785671 134.417823 
L 162.858938 134.954588 
L 162.932205 133.01627 
L 163.005472 133.582855 
L 163.078739 133.463574 
L 163.152006 131.584896 
L 163.225273 133.553035 
L 163.29854 133.523214 
L 163.445074 132.777707 
L 163.518341 132.718067 
L 163.664875 135.16333 
L 163.884676 131.883099 
L 164.031209 133.523214 
L 164.104476 132.837348 
L 164.177743 133.195191 
L 164.25101 134.566924 
L 164.324277 134.447643 
L 164.397544 131.853278 
L 164.470811 135.014229 
L 164.544078 133.910878 
L 164.617345 134.954588 
L 164.763879 133.344293 
L 164.837146 133.225012 
L 164.910413 133.970519 
L 164.98368 132.151481 
L 165.056947 133.910878 
L 165.130214 133.612675 
L 165.276748 134.179261 
L 165.350015 132.06202 
L 165.423282 134.984409 
L 165.496549 133.254832 
L 165.569816 134.209081 
L 165.643083 133.284652 
L 165.71635 133.642496 
L 165.789617 134.596745 
L 165.862884 131.972559 
L 165.936151 133.04609 
L 166.082685 134.14944 
L 166.155952 134.507284 
L 166.302486 132.807527 
L 166.375753 132.270762 
L 166.522287 134.238901 
L 166.595554 133.821417 
L 166.668821 133.523214 
L 166.742088 133.731956 
L 166.815355 132.479504 
L 166.888622 132.718067 
L 167.108423 134.894948 
L 167.254956 132.628606 
L 167.40149 134.745846 
L 167.621291 132.360223 
L 167.767825 134.209081 
L 167.841092 132.628606 
L 167.987626 134.030159 
L 168.207427 132.419864 
L 168.280694 134.268722 
L 168.427228 131.167412 
L 168.500495 134.328362 
L 168.573762 133.254832 
L 168.720296 134.209081 
L 168.793563 133.821417 
L 169.013364 133.582855 
L 169.086631 134.686206 
L 169.233165 132.598785 
L 169.306432 133.284652 
L 169.379699 134.11962 
L 169.452966 134.05998 
L 169.526233 133.10573 
L 169.5995 133.493394 
L 169.672767 133.463574 
L 169.819301 134.328362 
L 169.892568 132.896988 
L 169.965835 133.165371 
L 170.039102 132.390043 
L 170.112369 132.568965 
L 170.185636 134.209081 
L 170.33217 132.837348 
L 170.405437 133.582855 
L 170.478704 131.793638 
L 170.625237 134.0898 
L 170.771771 133.731956 
L 170.845038 132.0322 
L 170.918305 132.598785 
L 170.991572 134.209081 
L 171.138106 132.628606 
L 171.211373 134.447643 
L 171.28464 132.777707 
L 171.357907 134.358182 
L 171.431174 132.270762 
L 171.504441 134.656385 
L 171.577708 132.777707 
L 171.650975 133.642496 
L 171.724242 132.747887 
L 171.797509 132.986449 
L 171.870776 133.314472 
L 171.944043 134.805487 
L 172.01731 134.268722 
L 172.163844 133.01627 
L 172.310378 134.298542 
L 172.456912 132.300583 
L 172.530179 133.553035 
L 172.603446 133.10573 
L 172.676713 133.821417 
L 172.74998 133.672316 
L 172.823247 133.642496 
L 172.896514 134.596745 
L 172.969781 132.360223 
L 173.043048 133.791597 
L 173.116315 132.539145 
L 173.262849 136.922727 
L 173.409383 132.091841 
L 173.48265 132.986449 
L 173.629184 135.13351 
L 173.702451 133.851238 
L 173.775717 133.940698 
L 173.848984 133.851238 
L 173.922251 134.537104 
L 173.995518 134.358182 
L 174.068785 133.612675 
L 174.142052 134.894948 
L 174.215319 134.000339 
L 174.288586 134.626565 
L 174.43512 132.658426 
L 174.508387 132.807527 
L 174.581654 134.14944 
L 174.728188 132.181301 
L 174.874722 134.716026 
L 174.947989 132.360223 
L 175.021256 133.314472 
L 175.16779 134.209081 
L 175.314324 133.07591 
L 175.387591 134.328362 
L 175.534125 133.135551 
L 175.607392 135.10369 
L 175.680659 132.628606 
L 175.753926 133.493394 
L 175.827193 132.747887 
L 175.90046 133.01627 
L 175.973727 134.238901 
L 176.046994 134.179261 
L 176.120261 133.970519 
L 176.193528 135.342252 
L 176.340062 132.479504 
L 176.413329 132.419864 
L 176.486596 134.716026 
L 176.63313 132.986449 
L 176.852931 134.984409 
L 176.926198 134.537104 
L 176.999464 135.342252 
L 177.072731 133.01627 
L 177.145998 134.566924 
L 177.365799 132.747887 
L 177.439066 133.403933 
L 177.512333 131.763817 
L 177.5856 134.11962 
L 177.658867 133.10573 
L 177.732134 134.268722 
L 177.805401 132.568965 
L 177.878668 134.835307 
L 177.951935 134.000339 
L 178.098469 132.449684 
L 178.31827 133.940698 
L 178.391537 134.656385 
L 178.464804 131.435794 
L 178.538071 133.374113 
L 178.611338 132.956629 
L 178.684605 133.881058 
L 178.757872 133.403933 
L 178.904406 134.298542 
L 178.977673 136.117579 
L 179.05094 135.550994 
L 179.124207 133.254832 
L 179.197474 134.716026 
L 179.270741 131.227052 
L 179.344008 134.447643 
L 179.417275 131.853278 
L 179.490542 133.165371 
L 179.563809 132.658426 
L 179.637076 134.268722 
L 179.710343 134.0898 
L 179.78361 134.11962 
L 179.856877 135.342252 
L 179.930144 134.298542 
L 180.003411 134.447643 
L 180.223211 133.225012 
L 180.296478 133.582855 
L 180.369745 133.463574 
L 180.443012 134.924768 
L 180.662813 132.151481 
L 180.73608 131.674357 
L 180.809347 132.00238 
L 180.955881 133.970519 
L 181.029148 132.837348 
L 181.175682 135.342252 
L 181.322216 132.00238 
L 181.395483 134.358182 
L 181.46875 132.747887 
L 181.542017 134.11962 
L 181.615284 131.942739 
L 181.761818 134.298542 
L 181.835085 131.227052 
L 181.908352 134.14944 
L 182.054886 132.270762 
L 182.128153 132.300583 
L 182.20142 134.417823 
L 182.274687 132.240942 
L 182.347954 134.716026 
L 182.421221 133.582855 
L 182.494488 134.507284 
L 182.567755 133.374113 
L 182.641022 133.463574 
L 182.714289 133.463574 
L 182.787556 132.986449 
L 182.860823 135.16333 
L 183.007357 132.0322 
L 183.153891 134.686206 
L 183.300425 133.433754 
L 183.373692 133.493394 
L 183.520225 132.896988 
L 183.593492 134.328362 
L 183.666759 133.314472 
L 183.813293 134.984409 
L 183.959827 132.06202 
L 184.179628 135.073869 
L 184.326162 133.04609 
L 184.399429 134.686206 
L 184.472696 133.910878 
L 184.61923 132.211122 
L 184.765764 135.610635 
L 184.839031 134.566924 
L 184.912298 135.580814 
L 184.985565 134.924768 
L 185.058832 135.073869 
L 185.132099 131.644536 
L 185.205366 132.896988 
L 185.278633 131.853278 
L 185.3519 133.851238 
L 185.425167 131.316513 
L 185.498434 134.477464 
L 185.571701 134.14944 
L 185.718235 133.10573 
L 185.791502 134.716026 
L 185.864769 134.298542 
L 185.938036 132.926809 
L 186.011303 134.417823 
L 186.08457 134.388003 
L 186.157837 133.433754 
L 186.231104 134.358182 
L 186.304371 133.731956 
L 186.377638 133.881058 
L 186.450905 133.702136 
L 186.524172 133.910878 
L 186.597439 133.403933 
L 186.743972 134.358182 
L 186.817239 133.493394 
L 186.890506 133.881058 
L 186.963773 134.477464 
L 187.03704 134.209081 
L 187.110307 133.284652 
L 187.183574 134.596745 
L 187.256841 133.612675 
L 187.403375 134.716026 
L 187.476642 133.165371 
L 187.549909 134.656385 
L 187.623176 134.537104 
L 187.696443 134.238901 
L 187.842977 132.837348 
L 187.916244 135.431713 
L 187.989511 131.197232 
L 188.062778 132.240942 
L 188.209312 134.358182 
L 188.282579 132.598785 
L 188.429113 134.775667 
L 188.575647 132.419864 
L 188.648914 133.970519 
L 188.722181 133.582855 
L 188.795448 134.11962 
L 188.868715 133.970519 
L 189.015249 133.761777 
L 189.088516 132.00238 
L 189.161783 134.507284 
L 189.23505 133.672316 
L 189.308317 134.358182 
L 189.381584 133.582855 
L 189.454851 134.268722 
L 189.528118 132.867168 
L 189.674652 134.596745 
L 189.821186 132.986449 
L 189.894452 133.523214 
L 189.967719 132.777707 
L 190.040986 134.417823 
L 190.114253 132.718067 
L 190.18752 134.745846 
L 190.260787 134.298542 
L 190.334054 134.477464 
L 190.407321 134.11962 
L 190.480588 134.417823 
L 190.553855 133.04609 
L 190.627122 133.582855 
L 190.700389 132.390043 
L 190.773656 134.805487 
L 190.773656 134.805487 
" clip-path="url(#pa432055c51)" style="fill: none; stroke: #1f77b4; stroke-width: 0.5; stroke-linecap: square"/>
   </g>
   <g id="patch_3">
    <path d="M 23.410313 143.1 
L 23.410313 7.2 
" style="fill: none; stroke: #000000; stroke-width: 0.8; stroke-linejoin: miter; stroke-linecap: square"/>
   </g>
   <g id="patch_4">
    <path d="M 190.810313 143.1 
L 190.810313 7.2 
" style="fill: none; stroke: #000000; stroke-width: 0.8; stroke-linejoin: miter; stroke-linecap: square"/>
   </g>
   <g id="patch_5">
    <path d="M 23.410313 143.1 
L 190.810313 143.1 
" style="fill: none; stroke: #000000; stroke-width: 0.8; stroke-linejoin: miter; stroke-linecap: square"/>
   </g>
   <g id="patch_6">
    <path d="M 23.410313 7.2 
L 190.810313 7.2 
" style="fill: none; stroke: #000000; stroke-width: 0.8; stroke-linejoin: miter; stroke-linecap: square"/>
   </g>
  </g>
 </g>
 <defs>
  <clipPath id="pa432055c51">
   <rect x="23.410313" y="7.2" width="167.4" height="135.9"/>
  </clipPath>
 </defs>
</svg>
