<?xml version="1.0" encoding="utf-8" standalone="no"?>
<!DOCTYPE svg PUBLIC "-//W3C//DTD SVG 1.1//EN"
  "http://www.w3.org/Graphics/SVG/1.1/DTD/svg11.dtd">
<svg xmlns:xlink="http://www.w3.org/1999/xlink" width="198.010312pt" height="177.752813pt" viewBox="0 0 198.010312 177.752813" xmlns="http://www.w3.org/2000/svg" version="1.1">
 <metadata>
  <rdf:RDF xmlns:dc="http://purl.org/dc/elements/1.1/" xmlns:cc="http://creativecommons.org/ns#" xmlns:rdf="http://www.w3.org/1999/02/22-rdf-syntax-ns#">
   <cc:Work>
    <dc:type rdf:resource="http://purl.org/dc/dcmitype/StillImage"/>
    <dc:date>2023-02-25T15:25:05.525073</dc:date>
    <dc:format>image/svg+xml</dc:format>
    <dc:creator>
     <cc:Agent>
      <dc:title>Matplotlib v3.5.2, https://matplotlib.org/</dc:title>
     </cc:Agent>
    </dc:creator>
   </cc:Work>
  </rdf:RDF>
 </metadata>
 <defs>
  <style type="text/css">*{stroke-linejoin: round; stroke-linecap: butt}</style>
 </defs>
 <g id="figure_1">
  <g id="patch_1">
   <path d="M 0 177.752813 
L 198.010312 177.752813 
L 198.010312 0 
L 0 0 
z
" style="fill: #ffffff"/>
  </g>
  <g id="axes_1">
   <g id="patch_2">
    <path d="M 23.410313 143.1 
L 190.810313 143.1 
L 190.810313 7.2 
L 23.410313 7.2 
z
" style="fill: #ffffff"/>
   </g>
   <g id="matplotlib.axis_1">
    <g id="xtick_1">
     <g id="line2d_1">
      <defs>
       <path id="me3600b8b6c" d="M 0 0 
L 0 3.5 
" style="stroke: #000000; stroke-width: 0.8"/>
      </defs>
      <g>
       <use xlink:href="#me3600b8b6c" x="37.360313" y="143.1" style="stroke: #000000; stroke-width: 0.8"/>
      </g>
     </g>
     <g id="text_1">
      <!-- 10 -->
      <g transform="translate(32.270313 156.17875)scale(0.08 -0.08)">
       <defs>
        <path id="DejaVuSans-31" d="M 794 531 
L 1825 531 
L 1825 4091 
L 703 3866 
L 703 4441 
L 1819 4666 
L 2450 4666 
L 2450 531 
L 3481 531 
L 3481 0 
L 794 0 
L 794 531 
z
" transform="scale(0.015625)"/>
        <path id="DejaVuSans-30" d="M 2034 4250 
Q 1547 4250 1301 3770 
Q 1056 3291 1056 2328 
Q 1056 1369 1301 889 
Q 1547 409 2034 409 
Q 2525 409 2770 889 
Q 3016 1369 3016 2328 
Q 3016 3291 2770 3770 
Q 2525 4250 2034 4250 
z
M 2034 4750 
Q 2819 4750 3233 4129 
Q 3647 3509 3647 2328 
Q 3647 1150 3233 529 
Q 2819 -91 2034 -91 
Q 1250 -91 836 529 
Q 422 1150 422 2328 
Q 422 3509 836 4129 
Q 1250 4750 2034 4750 
z
" transform="scale(0.015625)"/>
       </defs>
       <use xlink:href="#DejaVuSans-31"/>
       <use xlink:href="#DejaVuSans-30" x="63.623047"/>
      </g>
     </g>
    </g>
    <g id="xtick_2">
     <g id="line2d_2">
      <g>
       <use xlink:href="#me3600b8b6c" x="65.260312" y="143.1" style="stroke: #000000; stroke-width: 0.8"/>
      </g>
     </g>
     <g id="text_2">
      <!-- 20 -->
      <g transform="translate(60.170312 156.17875)scale(0.08 -0.08)">
       <defs>
        <path id="DejaVuSans-32" d="M 1228 531 
L 3431 531 
L 3431 0 
L 469 0 
L 469 531 
Q 828 903 1448 1529 
Q 2069 2156 2228 2338 
Q 2531 2678 2651 2914 
Q 2772 3150 2772 3378 
Q 2772 3750 2511 3984 
Q 2250 4219 1831 4219 
Q 1534 4219 1204 4116 
Q 875 4013 500 3803 
L 500 4441 
Q 881 4594 1212 4672 
Q 1544 4750 1819 4750 
Q 2544 4750 2975 4387 
Q 3406 4025 3406 3419 
Q 3406 3131 3298 2873 
Q 3191 2616 2906 2266 
Q 2828 2175 2409 1742 
Q 1991 1309 1228 531 
z
" transform="scale(0.015625)"/>
       </defs>
       <use xlink:href="#DejaVuSans-32"/>
       <use xlink:href="#DejaVuSans-30" x="63.623047"/>
      </g>
     </g>
    </g>
    <g id="xtick_3">
     <g id="line2d_3">
      <g>
       <use xlink:href="#me3600b8b6c" x="93.160313" y="143.1" style="stroke: #000000; stroke-width: 0.8"/>
      </g>
     </g>
     <g id="text_3">
      <!-- 30 -->
      <g transform="translate(88.070312 156.17875)scale(0.08 -0.08)">
       <defs>
        <path id="DejaVuSans-33" d="M 2597 2516 
Q 3050 2419 3304 2112 
Q 3559 1806 3559 1356 
Q 3559 666 3084 287 
Q 2609 -91 1734 -91 
Q 1441 -91 1130 -33 
Q 819 25 488 141 
L 488 750 
Q 750 597 1062 519 
Q 1375 441 1716 441 
Q 2309 441 2620 675 
Q 2931 909 2931 1356 
Q 2931 1769 2642 2001 
Q 2353 2234 1838 2234 
L 1294 2234 
L 1294 2753 
L 1863 2753 
Q 2328 2753 2575 2939 
Q 2822 3125 2822 3475 
Q 2822 3834 2567 4026 
Q 2313 4219 1838 4219 
Q 1578 4219 1281 4162 
Q 984 4106 628 3988 
L 628 4550 
Q 988 4650 1302 4700 
Q 1616 4750 1894 4750 
Q 2613 4750 3031 4423 
Q 3450 4097 3450 3541 
Q 3450 3153 3228 2886 
Q 3006 2619 2597 2516 
z
" transform="scale(0.015625)"/>
       </defs>
       <use xlink:href="#DejaVuSans-33"/>
       <use xlink:href="#DejaVuSans-30" x="63.623047"/>
      </g>
     </g>
    </g>
    <g id="xtick_4">
     <g id="line2d_4">
      <g>
       <use xlink:href="#me3600b8b6c" x="121.060312" y="143.1" style="stroke: #000000; stroke-width: 0.8"/>
      </g>
     </g>
     <g id="text_4">
      <!-- 40 -->
      <g transform="translate(115.970312 156.17875)scale(0.08 -0.08)">
       <defs>
        <path id="DejaVuSans-34" d="M 2419 4116 
L 825 1625 
L 2419 1625 
L 2419 4116 
z
M 2253 4666 
L 3047 4666 
L 3047 1625 
L 3713 1625 
L 3713 1100 
L 3047 1100 
L 3047 0 
L 2419 0 
L 2419 1100 
L 313 1100 
L 313 1709 
L 2253 4666 
z
" transform="scale(0.015625)"/>
       </defs>
       <use xlink:href="#DejaVuSans-34"/>
       <use xlink:href="#DejaVuSans-30" x="63.623047"/>
      </g>
     </g>
    </g>
    <g id="xtick_5">
     <g id="line2d_5">
      <g>
       <use xlink:href="#me3600b8b6c" x="148.960313" y="143.1" style="stroke: #000000; stroke-width: 0.8"/>
      </g>
     </g>
     <g id="text_5">
      <!-- 50 -->
      <g transform="translate(143.870313 156.17875)scale(0.08 -0.08)">
       <defs>
        <path id="DejaVuSans-35" d="M 691 4666 
L 3169 4666 
L 3169 4134 
L 1269 4134 
L 1269 2991 
Q 1406 3038 1543 3061 
Q 1681 3084 1819 3084 
Q 2600 3084 3056 2656 
Q 3513 2228 3513 1497 
Q 3513 744 3044 326 
Q 2575 -91 1722 -91 
Q 1428 -91 1123 -41 
Q 819 9 494 109 
L 494 744 
Q 775 591 1075 516 
Q 1375 441 1709 441 
Q 2250 441 2565 725 
Q 2881 1009 2881 1497 
Q 2881 1984 2565 2268 
Q 2250 2553 1709 2553 
Q 1456 2553 1204 2497 
Q 953 2441 691 2322 
L 691 4666 
z
" transform="scale(0.015625)"/>
       </defs>
       <use xlink:href="#DejaVuSans-35"/>
       <use xlink:href="#DejaVuSans-30" x="63.623047"/>
      </g>
     </g>
    </g>
    <g id="xtick_6">
     <g id="line2d_6">
      <g>
       <use xlink:href="#me3600b8b6c" x="176.860313" y="143.1" style="stroke: #000000; stroke-width: 0.8"/>
      </g>
     </g>
     <g id="text_6">
      <!-- 60 -->
      <g transform="translate(171.770313 156.17875)scale(0.08 -0.08)">
       <defs>
        <path id="DejaVuSans-36" d="M 2113 2584 
Q 1688 2584 1439 2293 
Q 1191 2003 1191 1497 
Q 1191 994 1439 701 
Q 1688 409 2113 409 
Q 2538 409 2786 701 
Q 3034 994 3034 1497 
Q 3034 2003 2786 2293 
Q 2538 2584 2113 2584 
z
M 3366 4563 
L 3366 3988 
Q 3128 4100 2886 4159 
Q 2644 4219 2406 4219 
Q 1781 4219 1451 3797 
Q 1122 3375 1075 2522 
Q 1259 2794 1537 2939 
Q 1816 3084 2150 3084 
Q 2853 3084 3261 2657 
Q 3669 2231 3669 1497 
Q 3669 778 3244 343 
Q 2819 -91 2113 -91 
Q 1303 -91 875 529 
Q 447 1150 447 2328 
Q 447 3434 972 4092 
Q 1497 4750 2381 4750 
Q 2619 4750 2861 4703 
Q 3103 4656 3366 4563 
z
" transform="scale(0.015625)"/>
       </defs>
       <use xlink:href="#DejaVuSans-36"/>
       <use xlink:href="#DejaVuSans-30" x="63.623047"/>
      </g>
     </g>
    </g>
    <g id="xtick_7">
     <g id="line2d_7">
      <defs>
       <path id="m989c3a5285" d="M 0 0 
L 0 2 
" style="stroke: #000000; stroke-width: 0.6"/>
      </defs>
      <g>
       <use xlink:href="#m989c3a5285" x="23.410313" y="143.1" style="stroke: #000000; stroke-width: 0.6"/>
      </g>
     </g>
    </g>
    <g id="xtick_8">
     <g id="line2d_8">
      <g>
       <use xlink:href="#m989c3a5285" x="30.385313" y="143.1" style="stroke: #000000; stroke-width: 0.6"/>
      </g>
     </g>
    </g>
    <g id="xtick_9">
     <g id="line2d_9">
      <g>
       <use xlink:href="#m989c3a5285" x="44.335313" y="143.1" style="stroke: #000000; stroke-width: 0.6"/>
      </g>
     </g>
    </g>
    <g id="xtick_10">
     <g id="line2d_10">
      <g>
       <use xlink:href="#m989c3a5285" x="51.310313" y="143.1" style="stroke: #000000; stroke-width: 0.6"/>
      </g>
     </g>
    </g>
    <g id="xtick_11">
     <g id="line2d_11">
      <g>
       <use xlink:href="#m989c3a5285" x="58.285313" y="143.1" style="stroke: #000000; stroke-width: 0.6"/>
      </g>
     </g>
    </g>
    <g id="xtick_12">
     <g id="line2d_12">
      <g>
       <use xlink:href="#m989c3a5285" x="72.235313" y="143.1" style="stroke: #000000; stroke-width: 0.6"/>
      </g>
     </g>
    </g>
    <g id="xtick_13">
     <g id="line2d_13">
      <g>
       <use xlink:href="#m989c3a5285" x="79.210313" y="143.1" style="stroke: #000000; stroke-width: 0.6"/>
      </g>
     </g>
    </g>
    <g id="xtick_14">
     <g id="line2d_14">
      <g>
       <use xlink:href="#m989c3a5285" x="86.185312" y="143.1" style="stroke: #000000; stroke-width: 0.6"/>
      </g>
     </g>
    </g>
    <g id="xtick_15">
     <g id="line2d_15">
      <g>
       <use xlink:href="#m989c3a5285" x="100.135312" y="143.1" style="stroke: #000000; stroke-width: 0.6"/>
      </g>
     </g>
    </g>
    <g id="xtick_16">
     <g id="line2d_16">
      <g>
       <use xlink:href="#m989c3a5285" x="107.110313" y="143.1" style="stroke: #000000; stroke-width: 0.6"/>
      </g>
     </g>
    </g>
    <g id="xtick_17">
     <g id="line2d_17">
      <g>
       <use xlink:href="#m989c3a5285" x="114.085313" y="143.1" style="stroke: #000000; stroke-width: 0.6"/>
      </g>
     </g>
    </g>
    <g id="xtick_18">
     <g id="line2d_18">
      <g>
       <use xlink:href="#m989c3a5285" x="128.035313" y="143.1" style="stroke: #000000; stroke-width: 0.6"/>
      </g>
     </g>
    </g>
    <g id="xtick_19">
     <g id="line2d_19">
      <g>
       <use xlink:href="#m989c3a5285" x="135.010312" y="143.1" style="stroke: #000000; stroke-width: 0.6"/>
      </g>
     </g>
    </g>
    <g id="xtick_20">
     <g id="line2d_20">
      <g>
       <use xlink:href="#m989c3a5285" x="141.985313" y="143.1" style="stroke: #000000; stroke-width: 0.6"/>
      </g>
     </g>
    </g>
    <g id="xtick_21">
     <g id="line2d_21">
      <g>
       <use xlink:href="#m989c3a5285" x="155.935313" y="143.1" style="stroke: #000000; stroke-width: 0.6"/>
      </g>
     </g>
    </g>
    <g id="xtick_22">
     <g id="line2d_22">
      <g>
       <use xlink:href="#m989c3a5285" x="162.910313" y="143.1" style="stroke: #000000; stroke-width: 0.6"/>
      </g>
     </g>
    </g>
    <g id="xtick_23">
     <g id="line2d_23">
      <g>
       <use xlink:href="#m989c3a5285" x="169.885313" y="143.1" style="stroke: #000000; stroke-width: 0.6"/>
      </g>
     </g>
    </g>
    <g id="xtick_24">
     <g id="line2d_24">
      <g>
       <use xlink:href="#m989c3a5285" x="183.835313" y="143.1" style="stroke: #000000; stroke-width: 0.6"/>
      </g>
     </g>
    </g>
    <g id="xtick_25">
     <g id="line2d_25">
      <g>
       <use xlink:href="#m989c3a5285" x="190.810313" y="143.1" style="stroke: #000000; stroke-width: 0.6"/>
      </g>
     </g>
    </g>
    <g id="text_7">
     <!-- Two Theta (degrees) -->
     <g transform="translate(61.294688 168.681094)scale(0.09 -0.09)">
      <defs>
       <path id="DejaVuSans-54" d="M -19 4666 
L 3928 4666 
L 3928 4134 
L 2272 4134 
L 2272 0 
L 1638 0 
L 1638 4134 
L -19 4134 
L -19 4666 
z
" transform="scale(0.015625)"/>
       <path id="DejaVuSans-77" d="M 269 3500 
L 844 3500 
L 1563 769 
L 2278 3500 
L 2956 3500 
L 3675 769 
L 4391 3500 
L 4966 3500 
L 4050 0 
L 3372 0 
L 2619 2869 
L 1863 0 
L 1184 0 
L 269 3500 
z
" transform="scale(0.015625)"/>
       <path id="DejaVuSans-6f" d="M 1959 3097 
Q 1497 3097 1228 2736 
Q 959 2375 959 1747 
Q 959 1119 1226 758 
Q 1494 397 1959 397 
Q 2419 397 2687 759 
Q 2956 1122 2956 1747 
Q 2956 2369 2687 2733 
Q 2419 3097 1959 3097 
z
M 1959 3584 
Q 2709 3584 3137 3096 
Q 3566 2609 3566 1747 
Q 3566 888 3137 398 
Q 2709 -91 1959 -91 
Q 1206 -91 779 398 
Q 353 888 353 1747 
Q 353 2609 779 3096 
Q 1206 3584 1959 3584 
z
" transform="scale(0.015625)"/>
       <path id="DejaVuSans-20" transform="scale(0.015625)"/>
       <path id="DejaVuSans-68" d="M 3513 2113 
L 3513 0 
L 2938 0 
L 2938 2094 
Q 2938 2591 2744 2837 
Q 2550 3084 2163 3084 
Q 1697 3084 1428 2787 
Q 1159 2491 1159 1978 
L 1159 0 
L 581 0 
L 581 4863 
L 1159 4863 
L 1159 2956 
Q 1366 3272 1645 3428 
Q 1925 3584 2291 3584 
Q 2894 3584 3203 3211 
Q 3513 2838 3513 2113 
z
" transform="scale(0.015625)"/>
       <path id="DejaVuSans-65" d="M 3597 1894 
L 3597 1613 
L 953 1613 
Q 991 1019 1311 708 
Q 1631 397 2203 397 
Q 2534 397 2845 478 
Q 3156 559 3463 722 
L 3463 178 
Q 3153 47 2828 -22 
Q 2503 -91 2169 -91 
Q 1331 -91 842 396 
Q 353 884 353 1716 
Q 353 2575 817 3079 
Q 1281 3584 2069 3584 
Q 2775 3584 3186 3129 
Q 3597 2675 3597 1894 
z
M 3022 2063 
Q 3016 2534 2758 2815 
Q 2500 3097 2075 3097 
Q 1594 3097 1305 2825 
Q 1016 2553 972 2059 
L 3022 2063 
z
" transform="scale(0.015625)"/>
       <path id="DejaVuSans-74" d="M 1172 4494 
L 1172 3500 
L 2356 3500 
L 2356 3053 
L 1172 3053 
L 1172 1153 
Q 1172 725 1289 603 
Q 1406 481 1766 481 
L 2356 481 
L 2356 0 
L 1766 0 
Q 1100 0 847 248 
Q 594 497 594 1153 
L 594 3053 
L 172 3053 
L 172 3500 
L 594 3500 
L 594 4494 
L 1172 4494 
z
" transform="scale(0.015625)"/>
       <path id="DejaVuSans-61" d="M 2194 1759 
Q 1497 1759 1228 1600 
Q 959 1441 959 1056 
Q 959 750 1161 570 
Q 1363 391 1709 391 
Q 2188 391 2477 730 
Q 2766 1069 2766 1631 
L 2766 1759 
L 2194 1759 
z
M 3341 1997 
L 3341 0 
L 2766 0 
L 2766 531 
Q 2569 213 2275 61 
Q 1981 -91 1556 -91 
Q 1019 -91 701 211 
Q 384 513 384 1019 
Q 384 1609 779 1909 
Q 1175 2209 1959 2209 
L 2766 2209 
L 2766 2266 
Q 2766 2663 2505 2880 
Q 2244 3097 1772 3097 
Q 1472 3097 1187 3025 
Q 903 2953 641 2809 
L 641 3341 
Q 956 3463 1253 3523 
Q 1550 3584 1831 3584 
Q 2591 3584 2966 3190 
Q 3341 2797 3341 1997 
z
" transform="scale(0.015625)"/>
       <path id="DejaVuSans-28" d="M 1984 4856 
Q 1566 4138 1362 3434 
Q 1159 2731 1159 2009 
Q 1159 1288 1364 580 
Q 1569 -128 1984 -844 
L 1484 -844 
Q 1016 -109 783 600 
Q 550 1309 550 2009 
Q 550 2706 781 3412 
Q 1013 4119 1484 4856 
L 1984 4856 
z
" transform="scale(0.015625)"/>
       <path id="DejaVuSans-64" d="M 2906 2969 
L 2906 4863 
L 3481 4863 
L 3481 0 
L 2906 0 
L 2906 525 
Q 2725 213 2448 61 
Q 2172 -91 1784 -91 
Q 1150 -91 751 415 
Q 353 922 353 1747 
Q 353 2572 751 3078 
Q 1150 3584 1784 3584 
Q 2172 3584 2448 3432 
Q 2725 3281 2906 2969 
z
M 947 1747 
Q 947 1113 1208 752 
Q 1469 391 1925 391 
Q 2381 391 2643 752 
Q 2906 1113 2906 1747 
Q 2906 2381 2643 2742 
Q 2381 3103 1925 3103 
Q 1469 3103 1208 2742 
Q 947 2381 947 1747 
z
" transform="scale(0.015625)"/>
       <path id="DejaVuSans-67" d="M 2906 1791 
Q 2906 2416 2648 2759 
Q 2391 3103 1925 3103 
Q 1463 3103 1205 2759 
Q 947 2416 947 1791 
Q 947 1169 1205 825 
Q 1463 481 1925 481 
Q 2391 481 2648 825 
Q 2906 1169 2906 1791 
z
M 3481 434 
Q 3481 -459 3084 -895 
Q 2688 -1331 1869 -1331 
Q 1566 -1331 1297 -1286 
Q 1028 -1241 775 -1147 
L 775 -588 
Q 1028 -725 1275 -790 
Q 1522 -856 1778 -856 
Q 2344 -856 2625 -561 
Q 2906 -266 2906 331 
L 2906 616 
Q 2728 306 2450 153 
Q 2172 0 1784 0 
Q 1141 0 747 490 
Q 353 981 353 1791 
Q 353 2603 747 3093 
Q 1141 3584 1784 3584 
Q 2172 3584 2450 3431 
Q 2728 3278 2906 2969 
L 2906 3500 
L 3481 3500 
L 3481 434 
z
" transform="scale(0.015625)"/>
       <path id="DejaVuSans-72" d="M 2631 2963 
Q 2534 3019 2420 3045 
Q 2306 3072 2169 3072 
Q 1681 3072 1420 2755 
Q 1159 2438 1159 1844 
L 1159 0 
L 581 0 
L 581 3500 
L 1159 3500 
L 1159 2956 
Q 1341 3275 1631 3429 
Q 1922 3584 2338 3584 
Q 2397 3584 2469 3576 
Q 2541 3569 2628 3553 
L 2631 2963 
z
" transform="scale(0.015625)"/>
       <path id="DejaVuSans-73" d="M 2834 3397 
L 2834 2853 
Q 2591 2978 2328 3040 
Q 2066 3103 1784 3103 
Q 1356 3103 1142 2972 
Q 928 2841 928 2578 
Q 928 2378 1081 2264 
Q 1234 2150 1697 2047 
L 1894 2003 
Q 2506 1872 2764 1633 
Q 3022 1394 3022 966 
Q 3022 478 2636 193 
Q 2250 -91 1575 -91 
Q 1294 -91 989 -36 
Q 684 19 347 128 
L 347 722 
Q 666 556 975 473 
Q 1284 391 1588 391 
Q 1994 391 2212 530 
Q 2431 669 2431 922 
Q 2431 1156 2273 1281 
Q 2116 1406 1581 1522 
L 1381 1569 
Q 847 1681 609 1914 
Q 372 2147 372 2553 
Q 372 3047 722 3315 
Q 1072 3584 1716 3584 
Q 2034 3584 2315 3537 
Q 2597 3491 2834 3397 
z
" transform="scale(0.015625)"/>
       <path id="DejaVuSans-29" d="M 513 4856 
L 1013 4856 
Q 1481 4119 1714 3412 
Q 1947 2706 1947 2009 
Q 1947 1309 1714 600 
Q 1481 -109 1013 -844 
L 513 -844 
Q 928 -128 1133 580 
Q 1338 1288 1338 2009 
Q 1338 2731 1133 3434 
Q 928 4138 513 4856 
z
" transform="scale(0.015625)"/>
      </defs>
      <use xlink:href="#DejaVuSans-54"/>
      <use xlink:href="#DejaVuSans-77" x="44.583984"/>
      <use xlink:href="#DejaVuSans-6f" x="126.371094"/>
      <use xlink:href="#DejaVuSans-20" x="187.552734"/>
      <use xlink:href="#DejaVuSans-54" x="219.339844"/>
      <use xlink:href="#DejaVuSans-68" x="280.423828"/>
      <use xlink:href="#DejaVuSans-65" x="343.802734"/>
      <use xlink:href="#DejaVuSans-74" x="405.326172"/>
      <use xlink:href="#DejaVuSans-61" x="444.535156"/>
      <use xlink:href="#DejaVuSans-20" x="505.814453"/>
      <use xlink:href="#DejaVuSans-28" x="537.601562"/>
      <use xlink:href="#DejaVuSans-64" x="576.615234"/>
      <use xlink:href="#DejaVuSans-65" x="640.091797"/>
      <use xlink:href="#DejaVuSans-67" x="701.615234"/>
      <use xlink:href="#DejaVuSans-72" x="765.091797"/>
      <use xlink:href="#DejaVuSans-65" x="803.955078"/>
      <use xlink:href="#DejaVuSans-65" x="865.478516"/>
      <use xlink:href="#DejaVuSans-73" x="927.001953"/>
      <use xlink:href="#DejaVuSans-29" x="979.101562"/>
     </g>
    </g>
   </g>
   <g id="matplotlib.axis_2">
    <g id="ytick_1">
     <g id="line2d_26"/>
    </g>
    <g id="ytick_2">
     <g id="line2d_27"/>
    </g>
    <g id="ytick_3">
     <g id="line2d_28"/>
    </g>
    <g id="ytick_4">
     <g id="line2d_29"/>
    </g>
    <g id="text_8">
     <!-- Intensity -->
     <g transform="translate(14.038594 94.73625)rotate(-90)scale(0.09 -0.09)">
      <defs>
       <path id="DejaVuSans-49" d="M 628 4666 
L 1259 4666 
L 1259 0 
L 628 0 
L 628 4666 
z
" transform="scale(0.015625)"/>
       <path id="DejaVuSans-6e" d="M 3513 2113 
L 3513 0 
L 2938 0 
L 2938 2094 
Q 2938 2591 2744 2837 
Q 2550 3084 2163 3084 
Q 1697 3084 1428 2787 
Q 1159 2491 1159 1978 
L 1159 0 
L 581 0 
L 581 3500 
L 1159 3500 
L 1159 2956 
Q 1366 3272 1645 3428 
Q 1925 3584 2291 3584 
Q 2894 3584 3203 3211 
Q 3513 2838 3513 2113 
z
" transform="scale(0.015625)"/>
       <path id="DejaVuSans-69" d="M 603 3500 
L 1178 3500 
L 1178 0 
L 603 0 
L 603 3500 
z
M 603 4863 
L 1178 4863 
L 1178 4134 
L 603 4134 
L 603 4863 
z
" transform="scale(0.015625)"/>
       <path id="DejaVuSans-79" d="M 2059 -325 
Q 1816 -950 1584 -1140 
Q 1353 -1331 966 -1331 
L 506 -1331 
L 506 -850 
L 844 -850 
Q 1081 -850 1212 -737 
Q 1344 -625 1503 -206 
L 1606 56 
L 191 3500 
L 800 3500 
L 1894 763 
L 2988 3500 
L 3597 3500 
L 2059 -325 
z
" transform="scale(0.015625)"/>
      </defs>
      <use xlink:href="#DejaVuSans-49"/>
      <use xlink:href="#DejaVuSans-6e" x="29.492188"/>
      <use xlink:href="#DejaVuSans-74" x="92.871094"/>
      <use xlink:href="#DejaVuSans-65" x="132.080078"/>
      <use xlink:href="#DejaVuSans-6e" x="193.603516"/>
      <use xlink:href="#DejaVuSans-73" x="256.982422"/>
      <use xlink:href="#DejaVuSans-69" x="309.082031"/>
      <use xlink:href="#DejaVuSans-74" x="336.865234"/>
      <use xlink:href="#DejaVuSans-79" x="376.074219"/>
     </g>
    </g>
   </g>
   <g id="line2d_30">
    <path d="M 23.43188 13.731918 
L 23.505147 16.69804 
L 23.578414 13.377273 
L 23.798215 21.695312 
L 23.944749 20.051049 
L 24.16455 29.723188 
L 24.237817 28.433569 
L 24.311084 24.758156 
L 24.384351 30.754882 
L 24.457618 28.207886 
L 24.604152 35.236307 
L 24.823953 35.042864 
L 25.043753 38.718277 
L 25.11702 34.655978 
L 25.263554 40.233578 
L 25.336821 39.008441 
L 25.483355 39.878933 
L 25.556622 44.715003 
L 25.629889 37.267456 
L 25.703156 43.780029 
L 25.776423 43.747789 
L 25.84969 41.458716 
L 25.922957 41.74888 
L 25.996224 40.781666 
L 26.069491 41.265273 
L 26.142758 42.780575 
L 26.289292 50.582767 
L 26.362559 50.195882 
L 26.509093 44.231396 
L 26.655627 52.16255 
L 26.728894 46.455988 
L 26.802161 48.261454 
L 26.875428 49.841236 
L 26.948695 49.164187 
L 27.021962 49.712275 
L 27.168496 47.681125 
L 27.388297 54.451623 
L 27.461564 49.841236 
L 27.534831 55.483318 
L 27.608098 52.323752 
L 27.754632 55.870203 
L 27.827899 53.484409 
L 27.974433 57.288783 
L 28.0477 55.966924 
L 28.120967 57.836871 
L 28.2675 53.387687 
L 28.340767 61.028677 
L 28.414034 56.450531 
L 28.560568 60.093704 
L 28.633835 59.706818 
L 28.707102 59.900261 
L 28.780369 61.125399 
L 28.853636 60.706273 
L 28.926903 58.707364 
L 29.00017 62.318296 
L 29.073437 60.867475 
L 29.146704 56.869657 
L 29.219971 61.544525 
L 29.293238 58.868566 
L 29.366505 59.610097 
L 29.439772 62.769662 
L 29.513039 61.093158 
L 29.586306 64.413926 
L 29.73284 60.51283 
L 29.806107 63.478952 
L 29.879374 59.964742 
L 30.099175 65.993708 
L 30.245709 63.027586 
L 30.318976 65.187697 
L 30.392243 63.962559 
L 30.46551 64.542888 
L 30.538777 65.477861 
L 30.612044 64.252723 
L 30.685311 68.508465 
L 30.758578 64.349445 
L 30.831845 67.734693 
L 30.905112 64.768571 
L 30.978379 68.572946 
L 31.051646 67.380048 
L 31.19818 66.251632 
L 31.271447 68.508465 
L 31.344714 67.541251 
L 31.417981 66.09043 
L 31.491247 70.410652 
L 31.564514 69.282236 
L 31.637781 67.444529 
L 31.784315 71.506828 
L 31.857582 67.605732 
L 31.930849 68.959831 
L 32.004116 68.605186 
L 32.15065 70.152728 
L 32.223917 68.734148 
L 32.297184 69.346717 
L 32.370451 70.410652 
L 32.443718 74.537431 
L 32.516985 70.765297 
L 32.663519 73.022129 
L 32.736786 68.637426 
L 32.810053 69.894805 
L 33.029854 74.827595 
L 33.176388 70.217209 
L 33.322922 75.407924 
L 33.396189 72.828687 
L 33.469456 75.601366 
L 33.542723 71.119942 
L 33.61599 71.70027 
L 33.689257 72.635244 
L 33.762524 71.893713 
L 33.909058 74.634153 
L 33.982325 76.278416 
L 34.055592 71.474587 
L 34.128859 71.63579 
L 34.202126 79.276779 
L 34.275393 75.440164 
L 34.34866 76.149454 
L 34.421927 75.730328 
L 34.495194 74.215027 
L 34.568461 75.11776 
L 34.641728 78.66421 
L 34.861528 74.44071 
L 35.008062 76.439619 
L 35.081329 78.470768 
L 35.154596 73.473496 
L 35.227863 78.696451 
L 35.30113 75.440164 
L 35.374397 77.535794 
L 35.447664 76.407378 
L 35.520931 77.793718 
L 35.594198 76.084973 
L 35.740732 77.987161 
L 35.813999 77.406832 
L 35.887266 78.245084 
L 35.960533 77.825958 
L 36.0338 77.277871 
L 36.107067 79.34126 
L 36.180334 78.438527 
L 36.253601 79.921589 
L 36.326868 79.599184 
L 36.473402 77.92268 
L 36.546669 81.275688 
L 36.693203 77.471313 
L 36.913004 83.242356 
L 36.986271 78.083882 
L 37.059538 81.791535 
L 37.132805 80.308474 
L 37.279339 82.0817 
L 37.352606 79.889348 
L 37.49914 81.565852 
L 37.572407 80.921043 
L 37.792208 82.694268 
L 37.865475 83.210116 
L 37.938741 80.921043 
L 38.012008 81.211207 
L 38.158542 84.435253 
L 38.305076 81.791535 
L 38.378343 85.209024 
L 38.45161 83.53252 
L 38.524877 81.340169 
L 38.671411 83.983887 
L 38.744678 83.50028 
L 38.817945 83.468039 
L 38.891212 81.533612 
L 38.964479 85.789353 
L 39.037746 85.402467 
L 39.111013 82.758749 
L 39.18428 87.69154 
L 39.257547 86.079517 
L 39.330814 84.951101 
L 39.477348 88.723235 
L 39.623882 83.274597 
L 39.697149 87.465857 
L 39.770416 87.336895 
L 39.843683 85.015582 
L 39.990217 88.36859 
L 40.063484 87.369136 
L 40.136751 86.369681 
L 40.283285 88.690994 
L 40.356552 85.821593 
L 40.429819 86.079517 
L 40.503086 87.594819 
L 40.576353 86.337441 
L 40.64962 86.853288 
L 40.722887 86.240719 
L 40.796154 87.078971 
L 40.869421 86.176238 
L 40.942688 89.75493 
L 41.015955 89.07788 
L 41.089222 87.788262 
L 41.235755 89.980613 
L 41.528823 87.369136 
L 41.675357 90.786625 
L 41.748624 89.04564 
L 41.821891 89.497006 
L 41.895158 88.529792 
L 41.968425 90.238537 
L 42.041692 87.336895 
L 42.261493 92.946736 
L 42.33476 92.011762 
L 42.408027 88.852197 
L 42.481294 88.884437 
L 42.554561 89.206842 
L 42.701095 91.657117 
L 42.774362 90.851106 
L 42.847629 92.398648 
L 42.920896 91.947281 
L 42.994163 92.205205 
L 43.06743 90.818865 
L 43.140697 95.397011 
L 43.213964 93.301381 
L 43.287231 93.204659 
L 43.360498 91.592636 
L 43.433765 91.818319 
L 43.507032 90.980067 
L 43.580299 91.366953 
L 43.653566 91.85056 
L 43.726833 93.849469 
L 43.873367 90.399739 
L 43.946634 93.140178 
L 44.019901 91.979522 
L 44.093168 92.430888 
L 44.166435 91.915041 
L 44.239702 94.687721 
L 44.312969 94.333076 
L 44.532769 92.656571 
L 44.606036 94.042911 
L 44.679303 92.108484 
L 44.899104 94.848923 
L 44.972371 93.011217 
L 45.045638 96.235263 
L 45.118905 96.138541 
L 45.192172 93.91395 
L 45.265439 95.139087 
L 45.338706 93.623785 
L 45.411973 96.847832 
L 45.48524 93.075697 
L 45.558507 95.912858 
L 45.631774 95.36477 
L 45.705041 95.36477 
L 45.778308 94.62324 
L 45.851575 97.782805 
L 45.924842 94.075152 
L 45.998109 94.397556 
L 46.21791 97.524881 
L 46.291177 97.105755 
L 46.364444 98.685538 
L 46.437711 94.590999 
L 46.510978 95.139087 
L 46.584245 95.848377 
L 46.730779 98.878981 
L 46.804046 93.849469 
L 46.877313 98.395374 
L 46.95058 95.429251 
L 47.023847 98.10521 
L 47.097114 97.234717 
L 47.170381 98.911221 
L 47.243648 96.71887 
L 47.316915 97.815046 
L 47.390182 96.589908 
L 47.463449 96.686629 
L 47.536716 96.847832 
L 47.609983 96.75111 
L 47.683249 97.686084 
L 47.756516 95.33253 
L 47.829783 96.396465 
L 48.196118 102.522153 
L 48.342652 98.459855 
L 48.415919 98.556576 
L 48.489186 96.525427 
L 48.562453 97.557122 
L 48.63572 96.331984 
L 48.782254 99.878435 
L 48.928788 97.589362 
L 49.002055 99.942916 
L 49.075322 97.944007 
L 49.148589 98.040729 
L 49.221856 100.845649 
L 49.295123 98.782259 
L 49.36839 99.040183 
L 49.441657 100.523244 
L 49.588191 97.782805 
L 49.734725 99.975157 
L 49.807992 100.362042 
L 49.954526 97.299198 
L 50.027793 100.781168 
L 50.10106 95.268049 
L 50.320861 102.32871 
L 50.394128 100.974611 
L 50.540662 103.392646 
L 50.613929 99.040183 
L 50.687196 99.265866 
L 50.760463 99.298107 
L 50.83373 98.556576 
L 50.906996 98.685538 
L 50.980263 100.748928 
L 51.05353 99.846195 
L 51.126797 101.329256 
L 51.200064 99.104664 
L 51.273331 100.168599 
L 51.346598 99.620511 
L 51.493132 102.909039 
L 51.712933 97.041274 
L 51.7862 101.232535 
L 51.859467 99.813954 
L 51.932734 102.006306 
L 52.006001 100.136359 
L 52.079268 100.619966 
L 52.152535 100.136359 
L 52.225802 102.812317 
L 52.299069 102.651115 
L 52.372336 98.588817 
L 52.445603 102.941279 
L 52.51887 101.877344 
L 52.592137 102.489913 
L 52.811938 98.266412 
L 52.958472 102.747836 
L 53.105006 98.072969 
L 53.398074 101.941825 
L 53.471341 102.489913 
L 53.544608 99.265866 
L 53.617875 101.909584 
L 53.691142 100.007397 
L 53.764409 100.20084 
L 53.837676 103.295924 
L 53.910943 97.4604 
L 53.98421 97.524881 
L 54.20401 100.555485 
L 54.277277 100.426523 
L 54.350544 103.263684 
L 54.497078 99.588271 
L 54.716879 104.42434 
L 54.93668 98.459855 
L 55.083214 103.134722 
L 55.156481 102.457672 
L 55.229748 98.395374 
L 55.303015 101.522699 
L 55.376282 101.200294 
L 55.522816 98.459855 
L 55.596083 101.135813 
L 55.66935 101.103573 
L 55.742617 101.071332 
L 55.815884 102.586634 
L 55.962418 99.394828 
L 56.035685 103.134722 
L 56.108952 101.974065 
L 56.182219 101.909584 
L 56.40202 97.331439 
L 56.475287 100.555485 
L 56.621821 95.912858 
L 56.768355 101.812863 
L 56.841622 98.492095 
L 56.914889 100.265321 
L 56.988156 99.620511 
L 57.207957 100.265321 
L 57.281224 96.686629 
L 57.35449 98.040729 
L 57.501024 100.652206 
L 57.574291 100.813409 
L 57.720825 98.492095 
L 57.794092 101.554939 
L 57.867359 99.233626 
L 57.940626 100.974611 
L 58.013893 98.040729 
L 58.08716 101.458218 
L 58.160427 100.329802 
L 58.233694 101.61942 
L 58.306961 101.168054 
L 58.380228 99.169145 
L 58.453495 99.201385 
L 58.526762 100.297561 
L 58.600029 99.265866 
L 58.673296 96.396465 
L 58.746563 100.813409 
L 58.81983 95.397011 
L 58.893097 97.911767 
L 58.966364 97.847286 
L 59.039631 99.620511 
L 59.112898 99.459309 
L 59.259432 95.171328 
L 59.405966 98.911221 
L 59.5525 94.171873 
L 59.625767 96.815591 
L 59.699034 97.653843 
L 59.772301 94.784442 
L 59.845568 94.881163 
L 59.992102 98.363133 
L 60.065369 96.267503 
L 60.138636 96.525427 
L 60.211903 98.427614 
L 60.28517 93.462583 
L 60.358437 96.493187 
L 60.431704 96.170782 
L 60.504971 92.946736 
L 60.578237 98.492095 
L 60.651504 97.331439 
L 61.017839 92.656571 
L 61.164373 95.816137 
L 61.23764 95.461492 
L 61.310907 94.139633 
L 61.384174 95.106847 
L 61.457441 97.782805 
L 61.603975 91.818319 
L 61.677242 94.590999 
L 61.750509 95.622694 
L 61.97031 91.012308 
L 62.190111 93.494823 
L 62.336645 90.077334 
L 62.483179 93.043457 
L 62.556446 89.271323 
L 62.70298 91.85056 
L 62.776247 91.302472 
L 62.849514 89.335804 
L 62.922781 90.109575 
L 63.069315 87.820502 
L 63.289116 90.367499 
L 63.362383 88.690994 
L 63.43565 91.17351 
L 63.582184 87.304655 
L 63.655451 90.49646 
L 63.728718 88.110666 
L 63.875251 90.786625 
L 63.948518 91.334712 
L 64.021785 86.434162 
L 64.095052 89.432525 
L 64.168319 87.562578 
L 64.241586 89.980613 
L 64.314853 86.853288 
L 64.38812 90.560941 
L 64.534654 86.853288 
L 64.607921 87.272414 
L 64.681188 85.59591 
L 64.754455 87.627059 
L 64.900989 83.145635 
L 65.047523 85.950555 
L 65.12079 82.049459 
L 65.194057 84.048368 
L 65.267324 84.628696 
L 65.413858 83.693723 
L 65.487125 85.273505 
L 65.560392 84.048368 
L 65.633659 80.598638 
L 65.780193 85.209024 
L 65.85346 82.597547 
L 65.926727 82.629787 
L 65.999994 84.370772 
L 66.073261 83.53252 
L 66.146528 81.43689 
L 66.219795 82.855471 
L 66.293062 81.694814 
L 66.366329 83.242356 
L 66.512863 80.082791 
L 66.58613 83.306837 
L 66.659397 81.40465 
L 66.732664 83.629242 
L 66.805931 78.438527 
L 66.879198 80.211753 
L 66.952465 79.953829 
L 67.025731 84.306292 
L 67.098998 78.922134 
L 67.172265 79.30902 
L 67.245532 78.825413 
L 67.318799 80.566398 
L 67.465333 78.277325 
L 67.5386 81.211207 
L 67.611867 77.342351 
L 67.685134 79.792627 
L 67.758401 74.956557 
L 67.831668 77.600275 
L 67.904935 77.148909 
L 67.978202 78.503008 
L 68.124736 75.246721 
L 68.198003 74.634153 
L 68.344537 77.825958 
L 68.417804 75.15 
L 68.491071 76.987706 
L 68.564338 76.375138 
L 68.710872 74.021584 
L 68.857406 76.955466 
L 69.00394 72.119396 
L 69.150474 75.214481 
L 69.223741 73.505736 
L 69.590076 69.217755 
L 69.663343 67.702453 
L 69.73661 75.18224 
L 69.809877 74.505191 
L 69.883144 70.99098 
L 69.956411 73.05437 
L 70.102945 68.669667 
L 70.249479 72.699725 
L 70.322745 70.313931 
L 70.469279 73.699179 
L 70.615813 71.410106 
L 70.68908 71.410106 
L 70.762347 72.635244 
L 70.835614 69.088793 
L 70.908881 71.732511 
L 71.128682 67.347808 
L 71.275216 70.95874 
L 71.348483 70.894259 
L 71.42175 69.475678 
L 71.495017 71.63579 
L 71.568284 69.346717 
L 71.641551 71.087702 
L 71.714818 69.991526 
L 71.788085 70.733057 
L 71.861352 67.734693 
L 72.15442 72.731965 
L 72.300954 67.186606 
L 72.520755 69.959285 
L 72.667289 65.929228 
L 72.813823 70.733057 
L 72.88709 66.509556 
L 73.033624 70.023766 
L 73.106891 67.670213 
L 73.180158 72.119396 
L 73.326692 65.961468 
L 73.399959 70.24945 
L 73.546492 67.444529 
L 73.619759 67.315567 
L 73.693026 68.443984 
L 73.766293 71.345625 
L 73.83956 68.089339 
L 73.912827 68.605186 
L 73.986094 69.733602 
L 74.205895 66.477315 
L 74.279162 65.058735 
L 74.352429 69.830324 
L 74.425696 69.088793 
L 74.498963 65.252178 
L 74.57223 67.799174 
L 74.645497 67.025403 
L 74.718764 66.187151 
L 74.792031 71.055461 
L 74.865298 70.410652 
L 74.938565 70.056007 
L 75.011832 70.539614 
L 75.158366 64.639609 
L 75.231633 67.605732 
L 75.3049 69.765843 
L 75.378167 66.928682 
L 75.524701 71.990435 
L 75.597968 62.6407 
L 75.671235 66.219392 
L 75.744502 68.959831 
L 75.817769 68.443984 
L 75.964303 67.057644 
L 76.03757 68.830869 
L 76.184104 65.542342 
L 76.257371 70.829778 
L 76.330638 69.927045 
L 76.403905 66.960922 
L 76.550439 71.248904 
L 76.623706 66.606277 
L 76.696973 69.733602 
L 76.770239 67.347808 
L 76.843506 70.99098 
L 76.916773 68.089339 
L 77.063307 70.797537 
L 77.136574 69.959285 
L 77.209841 66.058189 
L 77.356375 71.571309 
L 77.429642 67.895896 
L 77.502909 69.217755 
L 77.649443 65.477861 
L 77.72271 67.928136 
L 77.795977 65.929228 
L 77.869244 72.280599 
L 77.942511 68.057098 
L 78.162312 72.183877 
L 78.308846 69.701362 
L 78.45538 73.699179 
L 78.528647 70.152728 
L 78.601914 71.506828 
L 78.748448 70.28169 
L 78.821715 70.410652 
L 78.894982 70.313931 
L 78.968249 74.827595 
L 79.114783 69.282236 
L 79.334584 73.376775 
L 79.481118 68.605186 
L 79.554385 68.830869 
L 79.774186 74.892076 
L 79.92072 72.989889 
L 80.067253 68.669667 
L 80.14052 69.765843 
L 80.287054 73.215572 
L 80.433588 70.862018 
L 80.506855 74.311748 
L 80.653389 71.119942 
L 80.726656 72.474042 
L 80.799923 70.604095 
L 80.87319 71.539068 
L 80.946457 74.182786 
L 81.092991 69.024312 
L 81.239525 69.153274 
L 81.312792 73.602458 
L 81.386059 71.990435 
L 81.532593 69.991526 
L 81.60586 75.569126 
L 81.679127 72.570763 
L 81.752394 73.473496 
L 81.825661 75.794809 
L 81.898928 75.407924 
L 81.972195 70.604095 
L 82.045462 74.47295 
L 82.118729 74.215027 
L 82.191996 72.925408 
L 82.33853 77.439073 
L 82.558331 71.796992 
L 82.631598 73.441255 
L 82.704865 77.825958 
L 82.851399 73.022129 
L 82.924666 72.183877 
L 82.997933 77.503554 
L 83.0712 75.85929 
L 83.144467 75.956012 
L 83.217733 77.890439 
L 83.364267 72.409561 
L 83.437534 78.59973 
L 83.510801 74.215027 
L 83.584068 74.537431 
L 83.657335 74.537431 
L 83.803869 75.85929 
L 83.877136 74.47295 
L 84.02367 79.30902 
L 84.096937 74.730874 
L 84.170204 77.21339 
L 84.243471 75.730328 
L 84.316738 78.696451 
L 84.390005 72.764206 
L 84.463272 77.24563 
L 84.536539 75.923771 
L 84.609806 75.665847 
L 84.683073 80.340715 
L 84.829607 76.923225 
L 84.902874 77.374592 
L 84.976141 79.34126 
L 85.049408 77.116668 
L 85.122675 81.727054 
L 85.269209 76.278416 
L 85.342476 78.66421 
L 85.415743 75.11776 
L 85.48901 78.954375 
L 85.562277 77.342351 
L 85.635544 79.857108 
L 85.708811 76.53634 
L 85.782078 81.082245 
L 85.855345 78.889894 
L 85.928612 77.92268 
L 86.001879 80.05055 
L 86.075146 76.890985 
L 86.22168 81.275688 
L 86.294947 80.243993 
L 86.368214 77.21339 
L 86.44148 78.180604 
L 86.588014 80.01831 
L 86.661281 79.695905 
L 86.807815 82.919952 
L 86.881082 80.566398 
L 86.954349 83.403559 
L 87.100883 78.535249 
L 87.17415 78.793172 
L 87.393951 85.466948 
L 87.467218 80.276234 
L 87.540485 82.275142 
L 87.613752 80.598638 
L 87.687019 81.178967 
L 87.760286 79.889348 
L 87.833553 80.372955 
L 87.90682 83.339078 
L 87.980087 80.69536 
L 88.199888 84.822139 
L 88.273155 79.631424 
L 88.346422 85.176784 
L 88.419689 83.983887 
L 88.566223 80.05055 
L 88.63949 82.017219 
L 88.712757 80.598638 
L 88.786024 80.921043 
L 88.859291 80.759841 
L 89.005825 83.758204 
L 89.079092 84.274051 
L 89.152359 81.501371 
L 89.225626 81.791535 
L 89.298893 81.598093 
L 89.37216 84.757658 
L 89.445427 83.50028 
L 89.591961 84.467494 
L 89.665227 80.792081 
L 89.811761 84.854379 
L 89.885028 84.564215 
L 90.031562 86.27296 
L 90.104829 82.371864 
L 90.251363 86.692086 
L 90.32463 86.015036 
L 90.397897 80.437436 
L 90.617698 85.757112 
L 90.690965 84.596456 
L 90.764232 85.209024 
L 90.837499 82.726509 
L 90.910766 83.048913 
L 91.0573 85.531429 
L 91.130567 85.047822 
L 91.350368 88.529792 
L 91.496902 84.693177 
L 91.643436 88.465311 
L 91.716703 88.787716 
L 91.78997 84.628696 
L 91.863237 86.176238 
L 91.936504 89.948373 
L 92.083038 84.91886 
L 92.156305 90.270777 
L 92.229572 88.916678 
L 92.302839 87.756021 
L 92.376106 87.852742 
L 92.449373 87.756021 
L 92.595907 86.98225 
L 92.669174 89.529247 
L 92.742441 89.432525 
L 92.815708 89.013399 
L 92.888974 90.722144 
L 93.035508 88.529792 
L 93.108775 92.430888 
L 93.255309 87.01449 
L 93.328576 87.078971 
L 93.401843 90.46422 
L 93.47511 89.271323 
L 93.548377 92.076243 
L 93.621644 87.272414 
L 93.694911 90.49646 
L 93.768178 90.399739 
L 93.841445 90.303018 
L 93.914712 89.75493 
L 93.987979 90.174056 
L 94.061246 89.110121 
L 94.20778 91.592636 
L 94.281047 91.399193 
L 94.354314 86.756567 
L 94.500848 91.8828 
L 94.574115 92.463129 
L 94.647382 89.883892 
L 94.720649 91.205751 
L 94.793916 90.109575 
L 94.867183 94.010671 
L 94.94045 93.430343 
L 95.086984 90.560941 
L 95.233518 95.074606 
L 95.306785 96.331984 
L 95.380052 91.044548 
L 95.599853 96.170782 
L 95.67312 91.753838 
L 95.746387 91.8828 
L 95.819654 92.495369 
L 95.892921 91.721598 
L 96.039455 96.203022 
L 96.185988 92.52761 
L 96.332522 98.008488 
L 96.62559 93.559304 
L 96.698857 95.945099 
L 96.772124 95.558213 
L 96.845391 96.235263 
L 97.065192 93.430343 
L 97.284993 97.589362 
L 97.35826 95.622694 
L 97.431527 98.975702 
L 97.504794 96.589908 
L 97.578061 97.782805 
L 97.651328 96.203022 
L 97.724595 97.4604 
L 97.871129 96.170782 
L 97.944396 97.4604 
L 98.017663 94.977885 
L 98.09093 97.299198 
L 98.164197 95.912858 
L 98.237464 98.911221 
L 98.310731 97.170236 
L 98.457265 100.329802 
L 98.530532 96.396465 
L 98.603799 100.555485 
L 98.677066 98.685538 
L 98.750333 97.39592 
L 98.896867 99.846195 
L 98.970134 98.10521 
L 99.043401 98.492095 
L 99.116668 98.8145 
L 99.189935 98.459855 
L 99.336469 100.587725 
L 99.409735 100.265321 
L 99.483002 97.4604 
L 99.556269 101.103573 
L 99.629536 99.49155 
L 99.702803 98.911221 
L 99.77607 99.684992 
L 99.849337 102.135268 
L 99.995871 99.459309 
L 100.215672 101.329256 
L 100.288939 101.683901 
L 100.362206 98.975702 
L 100.582007 104.972428 
L 100.801808 101.941825 
L 100.948342 100.748928 
L 101.168143 103.553848 
L 101.24141 102.586634 
L 101.387944 105.198112 
L 101.461211 100.748928 
L 101.534478 103.392646 
L 101.607745 103.00576 
L 101.681012 104.585543 
L 101.754279 103.070241 
L 101.827546 105.198112 
L 102.047347 102.683355 
L 102.120614 104.650024 
L 102.193881 102.425432 
L 102.267148 105.971883 
L 102.340415 100.716687 
L 102.486949 107.003578 
L 102.560216 106.068604 
L 102.633482 106.423249 
L 102.706749 106.616692 
L 102.780016 106.48773 
L 102.853283 106.004123 
L 102.92655 106.197566 
L 102.999817 106.519971 
L 103.073084 107.390463 
L 103.219618 105.036909 
L 103.292885 105.004669 
L 103.366152 107.487184 
L 103.512686 104.327619 
L 103.732487 107.583906 
L 103.805754 106.068604 
L 103.879021 108.003032 
L 103.952288 106.777894 
L 104.098822 108.003032 
L 104.172089 107.16478 
L 104.245356 108.293196 
L 104.318623 107.583906 
L 104.39189 110.163143 
L 104.465157 109.131448 
L 104.538424 107.712868 
L 104.611691 109.034727 
L 104.684958 108.744563 
L 104.758225 107.487184 
L 104.831492 109.324891 
L 104.904759 109.26041 
L 105.051293 107.616146 
L 105.12456 110.904674 
L 105.197827 110.066422 
L 105.271094 111.871887 
L 105.417628 106.745654 
L 105.564162 109.647296 
L 105.637429 108.325437 
L 105.710696 111.775166 
L 105.783963 109.389372 
L 105.857229 110.227624 
L 105.930496 112.548937 
L 106.07703 110.807952 
L 106.150297 110.969154 
L 106.223564 109.066967 
L 106.296831 111.065876 
L 106.370098 109.872979 
L 106.516632 111.646204 
L 106.589899 109.711776 
L 106.663166 113.580632 
L 106.736433 112.516697 
L 106.882967 113.677353 
L 106.956234 111.35604 
L 107.029501 111.742926 
L 107.102768 114.257682 
L 107.176035 110.324345 
L 107.322569 113.258227 
L 107.395836 113.387189 
L 107.469103 113.258227 
L 107.54237 113.612872 
L 107.615637 112.613418 
L 107.762171 113.580632 
L 107.908705 111.291559 
L 107.981972 112.645659 
L 108.055239 111.420521 
L 108.128506 115.095934 
L 108.201773 114.418884 
L 108.27504 113.709594 
L 108.348307 111.613964 
L 108.421574 114.870251 
L 108.494841 113.129266 
L 108.641375 115.418338 
L 108.787909 113.645113 
L 109.00771 116.19211 
L 109.080976 114.225441 
L 109.22751 116.127629 
L 109.300777 114.612327 
L 109.374044 116.321071 
L 109.447311 114.322163 
L 109.593845 117.191564 
L 109.667112 117.159323 
L 109.740379 115.772983 
L 109.813646 118.706866 
L 109.886913 111.710685 
L 109.96018 114.322163 
L 110.033447 114.225441 
L 110.106714 119.158232 
L 110.179981 117.578449 
L 110.253248 116.353312 
L 110.326515 116.385552 
L 110.473049 117.578449 
L 110.546316 116.385552 
L 110.619583 116.514514 
L 110.69285 118.31998 
L 110.766117 117.513968 
L 110.912651 119.964244 
L 110.985918 117.417247 
L 111.059185 119.803041 
L 111.132452 117.481728 
L 111.205719 119.061511 
L 111.278986 118.384461 
L 111.352253 118.964789 
L 111.498787 118.029816 
L 111.572054 118.126537 
L 111.645321 120.705774 
L 111.718588 120.286648 
L 111.791855 116.836919 
L 111.865122 118.31998 
L 112.084923 121.253862 
L 112.15819 118.352221 
L 112.231457 119.835282 
L 112.304723 119.996484 
L 112.37799 120.866977 
L 112.524524 118.706866 
L 112.597791 120.38337 
L 112.671058 118.577904 
L 112.744325 119.480637 
L 112.817592 120.351129 
L 112.890859 119.287194 
L 113.11066 121.898671 
L 113.257194 119.02927 
L 113.403728 122.350038 
L 113.550262 120.028725 
L 113.623529 120.866977 
L 113.696796 123.575176 
L 113.916597 120.480091 
L 114.063131 121.705229 
L 114.136398 120.899217 
L 114.209665 121.995393 
L 114.282932 121.189381 
L 114.356199 122.736924 
L 114.429466 121.576267 
L 114.502733 123.510695 
L 114.576 122.382278 
L 114.722534 124.735832 
L 114.795801 121.576267 
L 114.869068 124.091023 
L 114.942335 123.575176 
L 115.015602 122.543481 
L 115.162136 123.800859 
L 115.235403 122.156595 
L 115.30867 122.446759 
L 115.381937 122.672443 
L 115.455204 124.671351 
L 115.52847 122.027633 
L 115.601737 124.219985 
L 115.748271 120.576812 
L 115.894805 123.768618 
L 115.968072 124.60687 
L 116.041339 122.672443 
L 116.114606 125.219439 
L 116.187873 123.446214 
L 116.26114 123.671897 
L 116.334407 124.60687 
L 116.407674 124.187744 
L 116.480941 123.575176 
L 116.554208 123.639656 
L 116.627475 125.316161 
L 116.700742 122.930366 
L 116.774009 125.187199 
L 116.920543 121.995393 
L 116.99381 126.218894 
L 117.067077 123.349492 
L 117.140344 124.639111 
L 117.286878 122.221076 
L 117.360145 124.252225 
L 117.433412 123.349492 
L 117.506679 123.446214 
L 117.653213 125.380641 
L 117.72648 123.285011 
L 117.799747 123.413973 
L 117.946281 125.832008 
L 118.092815 123.413973 
L 118.166082 125.154958 
L 118.239349 123.962061 
L 118.385883 125.703046 
L 118.45915 125.703046 
L 118.532417 123.800859 
L 118.605684 126.573539 
L 118.752217 124.800313 
L 118.825484 125.154958 
L 118.898751 124.316706 
L 118.972018 125.928729 
L 119.045285 123.994302 
L 119.118552 126.63802 
L 119.338353 122.672443 
L 119.484887 126.928184 
L 119.558154 123.575176 
L 119.631421 127.153867 
L 119.704688 126.315615 
L 119.777955 126.7025 
L 119.851222 124.091023 
L 119.924489 127.508512 
L 119.997756 126.766981 
L 120.14429 125.090477 
L 120.217557 127.057146 
L 120.290824 124.155504 
L 120.510625 128.669169 
L 120.657159 124.155504 
L 120.803693 126.057691 
L 120.87696 123.349492 
L 121.023494 125.25168 
L 121.096761 124.961515 
L 121.243295 126.734741 
L 121.316562 125.380641 
L 121.389829 127.540753 
L 121.463096 124.993756 
L 121.536363 126.154413 
L 121.682897 124.864794 
L 121.756164 124.864794 
L 121.829431 125.025996 
L 121.902698 127.218348 
L 122.049231 124.671351 
L 122.195765 126.154413 
L 122.269032 127.089386 
L 122.342299 124.381187 
L 122.415566 126.476817 
L 122.488833 126.218894 
L 122.635367 125.187199 
L 122.781901 127.057146 
L 122.855168 124.316706 
L 123.001702 127.540753 
L 123.148236 126.251134 
L 123.221503 126.605779 
L 123.368037 125.767527 
L 123.441304 125.896489 
L 123.514571 126.476817 
L 123.734372 125.28392 
L 123.880906 126.863703 
L 123.954173 124.57463 
L 124.02744 128.314524 
L 124.100707 126.089932 
L 124.173974 129.249497 
L 124.247241 128.121081 
L 124.393775 126.605779 
L 124.467042 127.476272 
L 124.540309 127.444031 
L 124.613576 126.347855 
L 124.76011 128.572447 
L 124.906644 124.542389 
L 124.979911 129.47518 
L 125.053178 126.380096 
L 125.126445 127.37955 
L 125.199712 127.669714 
L 125.272978 127.540753 
L 125.346245 127.572993 
L 125.419512 125.735287 
L 125.492779 128.507966 
L 125.639313 126.347855 
L 125.785847 127.669714 
L 125.932381 125.348401 
L 126.005648 127.895398 
L 126.078915 127.024905 
L 126.152182 127.121626 
L 126.225449 127.057146 
L 126.298716 127.830917 
L 126.371983 126.573539 
L 126.44525 127.572993 
L 126.518517 126.863703 
L 126.591784 124.929275 
L 126.738318 128.443485 
L 126.811585 125.187199 
L 126.884852 126.347855 
L 126.958119 126.895943 
L 127.031386 125.928729 
L 127.104653 126.831462 
L 127.17792 129.44294 
L 127.251187 129.313978 
L 127.397721 126.218894 
L 127.470988 127.959879 
L 127.544255 126.734741 
L 127.617522 126.766981 
L 127.690789 126.509058 
L 127.837323 128.475726 
L 128.057124 124.864794 
L 128.203658 126.799222 
L 128.276925 125.219439 
L 128.350192 125.864248 
L 128.423459 127.024905 
L 128.496725 126.831462 
L 128.643259 124.864794 
L 128.716526 126.380096 
L 128.789793 124.897035 
L 128.86306 126.605779 
L 129.009594 124.639111 
L 129.082861 127.057146 
L 129.229395 122.833645 
L 129.302662 125.541844 
L 129.375929 125.477363 
L 129.449196 125.670806 
L 129.522463 127.927638 
L 129.59573 124.800313 
L 129.668997 125.445122 
L 129.742264 125.090477 
L 129.815531 126.895943 
L 129.888798 125.896489 
L 130.035332 128.540207 
L 130.181866 125.025996 
L 130.255133 127.572993 
L 130.3284 127.024905 
L 130.401667 127.992119 
L 130.474934 127.895398 
L 130.548201 127.218348 
L 130.621468 127.734195 
L 130.694735 126.67026 
L 130.841269 129.668623 
L 131.06107 128.08884 
L 131.134337 129.700864 
L 131.354138 126.67026 
L 131.427405 130.410154 
L 131.500672 128.76589 
L 131.573939 127.895398 
L 131.647206 128.0566 
L 131.720472 128.669169 
L 131.793739 128.121081 
L 131.867006 130.087749 
L 131.940273 129.926547 
L 132.01354 129.668623 
L 132.160074 127.282829 
L 132.233341 127.508512 
L 132.306608 129.088295 
L 132.453142 126.895943 
L 132.526409 130.571356 
L 132.599676 128.572447 
L 132.672943 131.151684 
L 132.74621 126.766981 
L 132.819477 127.927638 
L 132.892744 130.345673 
L 132.966011 129.507421 
L 133.112545 130.345673 
L 133.259079 128.73365 
L 133.332346 130.474635 
L 133.405613 128.572447 
L 133.47888 129.281738 
L 133.552147 131.345127 
L 133.698681 129.185016 
L 133.918482 131.409608 
L 134.065016 128.73365 
L 134.138283 130.797039 
L 134.21155 130.216711 
L 134.284817 129.668623 
L 134.358084 130.248951 
L 134.431351 127.476272 
L 134.504618 128.73365 
L 134.577885 130.506875 
L 134.651152 128.185562 
L 134.724419 128.991573 
L 134.797686 130.764799 
L 134.870953 127.927638 
L 134.944219 128.991573 
L 135.017486 129.765344 
L 135.090753 128.443485 
L 135.16402 132.634746 
L 135.310554 128.604688 
L 135.383821 130.15223 
L 135.457088 127.540753 
L 135.530355 128.862612 
L 135.603622 131.280646 
L 135.676889 129.765344 
L 135.750156 130.958242 
L 135.823423 130.926001 
L 135.89669 130.797039 
L 135.969957 132.022177 
L 136.043224 127.734195 
L 136.116491 130.248951 
L 136.189758 129.958787 
L 136.263025 128.669169 
L 136.409559 132.24786 
L 136.482826 132.022177 
L 136.62936 129.636383 
L 136.775894 131.925455 
L 136.995695 129.926547 
L 137.068962 132.795948 
L 137.142229 129.571902 
L 137.215496 129.829825 
L 137.36203 133.182834 
L 137.581831 129.829825 
L 137.655098 129.636383 
L 137.801632 131.667532 
L 137.874899 131.603051 
L 138.021433 130.345673 
L 138.0947 132.731467 
L 138.167966 132.538024 
L 138.241233 129.47518 
L 138.3145 131.57081 
L 138.387767 130.281192 
L 138.461034 131.022723 
L 138.534301 128.636928 
L 138.680835 131.828734 
L 138.754102 131.828734 
L 138.827369 131.151684 
L 139.04717 132.441303 
L 139.120437 129.636383 
L 139.193704 131.828734 
L 139.266971 131.53857 
L 139.340238 132.21562 
L 139.413505 129.313978 
L 139.560039 132.086658 
L 139.706573 130.926001 
L 139.77984 132.022177 
L 139.853107 131.474089 
L 139.926374 131.183925 
L 140.072908 130.15223 
L 140.146175 130.82928 
L 140.219442 132.892669 
L 140.292709 132.344582 
L 140.365976 131.312887 
L 140.439243 132.409062 
L 140.585777 130.216711 
L 140.732311 132.441303 
L 140.805578 130.571356 
L 140.878845 131.474089 
L 141.171913 132.731467 
L 141.318447 131.183925 
L 141.391713 130.023268 
L 141.46498 132.634746 
L 141.538247 129.507421 
L 141.611514 129.571902 
L 141.684781 133.118353 
L 141.758048 131.796494 
L 141.831315 131.764253 
L 141.904582 131.312887 
L 141.977849 132.473543 
L 142.051116 130.926001 
L 142.124383 131.087203 
L 142.19765 133.344036 
L 142.270917 129.765344 
L 142.344184 131.280646 
L 142.417451 130.442394 
L 142.637252 133.6342 
L 142.710519 130.11999 
L 142.783786 131.699772 
L 142.857053 131.183925 
L 142.93032 132.086658 
L 143.003587 131.280646 
L 143.076854 132.118898 
L 143.150121 131.893215 
L 143.296655 131.377368 
L 143.443189 134.150047 
L 143.516456 132.086658 
L 143.589723 134.214528 
L 143.882791 130.023268 
L 144.102592 131.893215 
L 144.175859 131.603051 
L 144.249126 132.634746 
L 144.322393 131.957696 
L 144.468927 132.92491 
L 144.542194 132.022177 
L 144.615461 132.473543 
L 144.688727 133.344036 
L 144.761994 132.763708 
L 144.835261 132.795948 
L 144.908528 133.795402 
L 144.981795 132.634746 
L 145.055062 132.731467 
L 145.128329 132.24786 
L 145.201596 133.60196 
L 145.34813 129.539661 
L 145.421397 133.569719 
L 145.494664 132.666986 
L 145.567931 132.312341 
L 145.641198 133.859883 
L 145.714465 133.376276 
L 145.860999 132.21562 
L 145.934266 132.95715 
L 146.007533 130.15223 
L 146.0808 132.763708 
L 146.154067 131.796494 
L 146.227334 133.472998 
L 146.300601 131.183925 
L 146.373868 131.53857 
L 146.447135 131.57081 
L 146.520402 133.247314 
L 146.593669 132.409062 
L 146.666936 133.698681 
L 146.740203 133.440757 
L 146.81347 133.376276 
L 146.960004 131.603051 
L 147.106538 133.440757 
L 147.179805 131.409608 
L 147.253072 133.279555 
L 147.326339 133.086112 
L 147.472873 132.828188 
L 147.619407 133.150593 
L 147.692674 132.505784 
L 147.765941 134.569173 
L 147.839208 133.086112 
L 147.912474 133.698681 
L 147.985741 132.763708 
L 148.059008 133.215074 
L 148.132275 133.537479 
L 148.278809 132.538024 
L 148.425343 134.633654 
L 148.718411 131.860975 
L 148.791678 133.021631 
L 148.864945 132.344582 
L 148.938212 134.569173 
L 149.084746 132.344582 
L 149.23128 134.279009 
L 149.304547 130.18447 
L 149.377814 133.376276 
L 149.451081 133.344036 
L 149.597615 131.312887 
L 149.744149 132.892669 
L 149.817416 132.699227 
L 149.890683 130.345673 
L 149.96395 130.668077 
L 150.037217 133.666441 
L 150.110484 132.634746 
L 150.330285 134.698135 
L 150.403552 132.441303 
L 150.476819 132.699227 
L 150.550086 134.053326 
L 150.623353 133.472998 
L 150.769887 134.375731 
L 150.989688 132.505784 
L 151.062955 130.990482 
L 151.282755 134.279009 
L 151.429289 132.666986 
L 151.502556 133.311795 
L 151.575823 131.506329 
L 151.722357 134.569173 
L 151.795624 132.312341 
L 151.868891 134.053326 
L 151.942158 132.763708 
L 152.015425 133.472998 
L 152.161959 132.118898 
L 152.235226 134.407971 
L 152.308493 132.505784 
L 152.38176 133.988845 
L 152.455027 131.409608 
L 152.528294 134.472452 
L 152.601561 132.473543 
L 152.674828 134.827097 
L 152.821362 132.666986 
L 152.894629 132.892669 
L 152.967896 131.216165 
L 153.041163 135.02054 
L 153.11443 133.698681 
L 153.260964 132.92491 
L 153.334231 134.762616 
L 153.407498 133.182834 
L 153.480765 134.633654 
L 153.554032 133.150593 
L 153.627299 133.763162 
L 153.773833 134.407971 
L 153.8471 134.182288 
L 153.993634 134.956059 
L 154.213435 132.602505 
L 154.286702 131.474089 
L 154.506502 135.181742 
L 154.579769 135.149502 
L 154.726303 134.923819 
L 154.79957 132.95715 
L 154.946104 134.633654 
L 155.019371 134.891578 
L 155.165905 132.505784 
L 155.239172 133.763162 
L 155.312439 131.764253 
L 155.385706 131.989936 
L 155.458973 134.923819 
L 155.53224 133.505238 
L 155.605507 131.860975 
L 155.678774 133.60196 
L 155.752041 132.828188 
L 155.825308 133.956605 
L 155.898575 132.505784 
L 155.971842 134.34349 
L 156.045109 134.246769 
L 156.118376 133.763162 
L 156.191643 134.085567 
L 156.26491 133.408517 
L 156.338177 134.34349 
L 156.411444 133.6342 
L 156.557978 134.988299 
L 156.631245 132.602505 
L 156.704512 135.213983 
L 156.777779 133.408517 
L 156.851046 133.6342 
L 156.924313 132.892669 
L 156.99758 134.053326 
L 157.144114 132.054417 
L 157.217381 134.375731 
L 157.290648 132.538024 
L 157.437182 134.665895 
L 157.510449 133.698681 
L 157.583715 133.988845 
L 157.656982 133.279555 
L 157.730249 134.730376 
L 157.803516 134.214528 
L 157.876783 134.633654 
L 157.95005 134.021086 
L 158.023317 135.536387 
L 158.096584 133.247314 
L 158.169851 133.956605 
L 158.389652 132.022177 
L 158.462919 134.053326 
L 158.536186 132.731467 
L 158.609453 135.117261 
L 158.68272 133.988845 
L 158.755987 133.118353 
L 158.829254 133.408517 
L 158.975788 134.440212 
L 159.049055 134.021086 
L 159.122322 132.505784 
L 159.342123 134.601414 
L 159.41539 133.763162 
L 159.488657 134.440212 
L 159.561924 132.989391 
L 159.635191 134.150047 
L 159.708458 133.60196 
L 159.781725 131.409608 
L 159.854992 133.730921 
L 159.928259 133.311795 
L 160.001526 132.763708 
L 160.14806 134.891578 
L 160.221327 134.698135 
L 160.294594 132.892669 
L 160.367861 133.988845 
L 160.587662 131.119444 
L 160.734196 133.763162 
L 160.807462 133.118353 
L 160.880729 134.569173 
L 160.953996 132.828188 
L 161.027263 135.085021 
L 161.10053 134.956059 
L 161.173797 132.344582 
L 161.247064 134.117807 
L 161.320331 133.795402 
L 161.466865 132.95715 
L 161.540132 133.537479 
L 161.613399 135.471906 
L 161.686666 132.183379 
L 161.759933 133.215074 
L 161.8332 134.021086 
L 161.906467 133.150593 
L 162.126268 135.536387 
L 162.346069 132.602505 
L 162.419336 133.279555 
L 162.492603 135.02054 
L 162.56587 132.473543 
L 162.639137 133.505238 
L 162.785671 134.633654 
L 162.932205 133.569719 
L 163.005472 134.569173 
L 163.225273 132.538024 
L 163.29854 133.569719 
L 163.371807 133.053872 
L 163.664875 136.052235 
L 163.738142 132.828188 
L 163.811409 134.021086 
L 163.884676 132.731467 
L 163.957943 134.053326 
L 164.031209 132.860429 
L 164.25101 135.826552 
L 164.324277 133.859883 
L 164.397544 134.665895 
L 164.544078 132.118898 
L 164.617345 134.279009 
L 164.690612 132.699227 
L 164.763879 133.988845 
L 164.837146 133.795402 
L 164.910413 133.247314 
L 164.98368 134.085567 
L 165.056947 133.827643 
L 165.130214 133.537479 
L 165.203481 133.569719 
L 165.276748 132.473543 
L 165.350015 134.182288 
L 165.423282 132.92491 
L 165.496549 135.02054 
L 165.569816 134.150047 
L 165.643083 133.118353 
L 165.71635 133.892124 
L 165.789617 130.958242 
L 165.862884 132.24786 
L 166.009418 133.666441 
L 166.082685 133.215074 
L 166.155952 131.699772 
L 166.229219 134.182288 
L 166.302486 133.988845 
L 166.375753 132.376822 
L 166.522287 135.149502 
L 166.595554 134.31125 
L 166.668821 132.763708 
L 166.742088 133.215074 
L 166.888622 134.085567 
L 167.035156 132.989391 
L 167.108423 134.472452 
L 167.18169 131.667532 
L 167.254956 132.828188 
L 167.328223 133.892124 
L 167.40149 132.280101 
L 167.474757 132.666986 
L 167.548024 133.698681 
L 167.621291 133.311795 
L 167.694558 132.989391 
L 167.841092 134.085567 
L 167.914359 133.827643 
L 167.987626 135.600868 
L 168.060893 133.053872 
L 168.13416 133.795402 
L 168.207427 134.665895 
L 168.280694 133.182834 
L 168.353961 134.698135 
L 168.427228 131.796494 
L 168.500495 134.569173 
L 168.573762 133.505238 
L 168.647029 134.34349 
L 168.720296 133.150593 
L 168.793563 133.182834 
L 168.86683 134.407971 
L 169.086631 131.925455 
L 169.306432 134.891578 
L 169.526233 133.215074 
L 169.5995 134.279009 
L 169.672767 130.958242 
L 169.746034 132.280101 
L 169.965835 133.892124 
L 170.039102 133.053872 
L 170.258903 134.407971 
L 170.33217 132.699227 
L 170.405437 135.02054 
L 170.478704 133.827643 
L 170.55197 134.085567 
L 170.625237 133.053872 
L 170.698504 134.407971 
L 170.918305 130.926001 
L 170.991572 133.956605 
L 171.064839 133.215074 
L 171.138106 133.892124 
L 171.28464 132.054417 
L 171.357907 133.215074 
L 171.431174 132.441303 
L 171.577708 136.052235 
L 171.797509 131.925455 
L 171.870776 133.956605 
L 172.01731 131.925455 
L 172.090577 133.344036 
L 172.163844 133.021631 
L 172.237111 133.311795 
L 172.310378 132.151139 
L 172.383645 133.472998 
L 172.456912 131.925455 
L 172.530179 132.21562 
L 172.603446 132.828188 
L 172.676713 132.473543 
L 172.74998 133.053872 
L 172.823247 132.602505 
L 173.043048 135.278464 
L 173.116315 134.246769 
L 173.189582 130.86152 
L 173.336116 134.31125 
L 173.555917 132.795948 
L 173.629184 133.666441 
L 173.702451 132.505784 
L 173.775717 134.859338 
L 173.848984 134.407971 
L 173.922251 134.407971 
L 174.068785 134.794857 
L 174.142052 134.182288 
L 174.215319 135.310704 
L 174.361853 132.92491 
L 174.43512 134.665895 
L 174.581654 131.989936 
L 174.654921 132.538024 
L 174.801455 134.827097 
L 174.874722 134.375731 
L 174.947989 134.536933 
L 175.021256 132.054417 
L 175.241057 135.310704 
L 175.387591 132.538024 
L 175.680659 135.600868 
L 175.753926 131.054963 
L 175.827193 132.24786 
L 176.046994 134.214528 
L 176.193528 130.668077 
L 176.266795 134.536933 
L 176.340062 131.280646 
L 176.413329 134.31125 
L 176.486596 133.344036 
L 176.559863 133.924364 
L 176.63313 133.6342 
L 176.706397 133.730921 
L 176.852931 131.989936 
L 177.072731 135.762071 
L 177.219265 132.312341 
L 177.292532 134.698135 
L 177.365799 133.795402 
L 177.439066 134.021086 
L 177.5856 132.634746 
L 177.732134 134.246769 
L 177.805401 132.022177 
L 177.878668 132.441303 
L 177.951935 134.182288 
L 178.025202 131.860975 
L 178.098469 134.762616 
L 178.171736 134.279009 
L 178.31827 133.118353 
L 178.538071 135.536387 
L 178.611338 132.95715 
L 178.684605 133.118353 
L 178.757872 132.409062 
L 178.904406 134.665895 
L 178.977673 131.893215 
L 179.05094 134.794857 
L 179.124207 133.698681 
L 179.197474 131.248406 
L 179.344008 133.763162 
L 179.417275 132.054417 
L 179.490542 134.31125 
L 179.563809 132.538024 
L 179.637076 133.440757 
L 179.710343 133.279555 
L 179.856877 134.988299 
L 179.930144 133.150593 
L 180.003411 134.730376 
L 180.076678 132.409062 
L 180.149945 135.471906 
L 180.223211 133.988845 
L 180.296478 133.247314 
L 180.369745 133.924364 
L 180.589546 133.053872 
L 180.882614 134.214528 
L 181.029148 132.538024 
L 181.102415 132.602505 
L 181.175682 132.989391 
L 181.248949 135.407426 
L 181.46875 132.376822 
L 181.542017 131.860975 
L 181.615284 133.440757 
L 181.688551 133.247314 
L 181.761818 132.183379 
L 181.835085 134.31125 
L 181.908352 133.053872 
L 181.981619 133.988845 
L 182.054886 132.828188 
L 182.128153 133.827643 
L 182.20142 132.570265 
L 182.274687 133.924364 
L 182.347954 132.312341 
L 182.421221 132.538024 
L 182.567755 133.859883 
L 182.641022 132.570265 
L 182.714289 132.95715 
L 182.787556 134.053326 
L 182.860823 133.730921 
L 182.93409 133.086112 
L 183.007357 133.408517 
L 183.080624 134.440212 
L 183.153891 131.409608 
L 183.227158 132.24786 
L 183.446958 134.536933 
L 183.593492 130.990482 
L 183.740026 133.247314 
L 183.813293 132.054417 
L 183.959827 133.956605 
L 184.033094 133.408517 
L 184.106361 134.117807 
L 184.179628 132.570265 
L 184.252895 134.31125 
L 184.326162 131.57081 
L 184.472696 134.214528 
L 184.545963 133.569719 
L 184.61923 133.924364 
L 184.692497 131.860975 
L 184.765764 135.72983 
L 184.839031 133.472998 
L 184.912298 135.117261 
L 184.985565 132.666986 
L 185.058832 132.92491 
L 185.205366 134.504693 
L 185.278633 133.150593 
L 185.3519 133.795402 
L 185.425167 134.117807 
L 185.498434 132.795948 
L 185.571701 133.118353 
L 185.644968 133.569719 
L 185.718235 135.762071 
L 185.791502 133.279555 
L 185.864769 134.31125 
L 185.938036 134.246769 
L 186.011303 133.118353 
L 186.08457 133.6342 
L 186.157837 134.407971 
L 186.231104 133.440757 
L 186.304371 134.279009 
L 186.377638 132.570265 
L 186.524172 135.213983 
L 186.597439 134.633654 
L 186.670705 135.213983 
L 186.743972 136.793765 
L 186.817239 136.052235 
L 186.890506 133.053872 
L 186.963773 133.311795 
L 187.03704 133.376276 
L 187.110307 132.409062 
L 187.183574 136.342399 
L 187.256841 135.69759 
L 187.403375 134.214528 
L 187.476642 134.988299 
L 187.549909 134.569173 
L 187.623176 133.279555 
L 187.696443 133.472998 
L 187.76971 134.988299 
L 187.916244 133.60196 
L 188.136045 135.69759 
L 188.282579 134.375731 
L 188.355846 136.858246 
L 188.575647 134.053326 
L 188.648914 136.277918 
L 188.722181 134.279009 
L 188.795448 134.536933 
L 188.868715 135.310704 
L 188.941982 133.311795 
L 189.015249 134.569173 
L 189.088516 133.344036 
L 189.308317 135.568628 
L 189.381584 133.795402 
L 189.454851 134.665895 
L 189.601385 136.310158 
L 189.747919 133.827643 
L 189.821186 134.150047 
L 189.894452 135.375185 
L 189.967719 134.956059 
L 190.040986 135.02054 
L 190.114253 135.246223 
L 190.260787 134.891578 
L 190.334054 133.408517 
L 190.407321 136.922727 
L 190.553855 133.956605 
L 190.627122 135.181742 
L 190.700389 133.021631 
L 190.773656 134.569173 
L 190.773656 134.569173 
" clip-path="url(#pe225378764)" style="fill: none; stroke: #1f77b4; stroke-width: 0.5; stroke-linecap: square"/>
   </g>
   <g id="patch_3">
    <path d="M 23.410313 143.1 
L 23.410313 7.2 
" style="fill: none; stroke: #000000; stroke-width: 0.8; stroke-linejoin: miter; stroke-linecap: square"/>
   </g>
   <g id="patch_4">
    <path d="M 190.810313 143.1 
L 190.810313 7.2 
" style="fill: none; stroke: #000000; stroke-width: 0.8; stroke-linejoin: miter; stroke-linecap: square"/>
   </g>
   <g id="patch_5">
    <path d="M 23.410313 143.1 
L 190.810313 143.1 
" style="fill: none; stroke: #000000; stroke-width: 0.8; stroke-linejoin: miter; stroke-linecap: square"/>
   </g>
   <g id="patch_6">
    <path d="M 23.410313 7.2 
L 190.810313 7.2 
" style="fill: none; stroke: #000000; stroke-width: 0.8; stroke-linejoin: miter; stroke-linecap: square"/>
   </g>
  </g>
 </g>
 <defs>
  <clipPath id="pe225378764">
   <rect x="23.410313" y="7.2" width="167.4" height="135.9"/>
  </clipPath>
 </defs>
</svg>
