<?xml version="1.0" encoding="utf-8" standalone="no"?>
<!DOCTYPE svg PUBLIC "-//W3C//DTD SVG 1.1//EN"
  "http://www.w3.org/Graphics/SVG/1.1/DTD/svg11.dtd">
<svg xmlns:xlink="http://www.w3.org/1999/xlink" width="198.010312pt" height="177.752813pt" viewBox="0 0 198.010312 177.752813" xmlns="http://www.w3.org/2000/svg" version="1.1">
 <metadata>
  <rdf:RDF xmlns:dc="http://purl.org/dc/elements/1.1/" xmlns:cc="http://creativecommons.org/ns#" xmlns:rdf="http://www.w3.org/1999/02/22-rdf-syntax-ns#">
   <cc:Work>
    <dc:type rdf:resource="http://purl.org/dc/dcmitype/StillImage"/>
    <dc:date>2023-02-25T15:25:05.606097</dc:date>
    <dc:format>image/svg+xml</dc:format>
    <dc:creator>
     <cc:Agent>
      <dc:title>Matplotlib v3.5.2, https://matplotlib.org/</dc:title>
     </cc:Agent>
    </dc:creator>
   </cc:Work>
  </rdf:RDF>
 </metadata>
 <defs>
  <style type="text/css">*{stroke-linejoin: round; stroke-linecap: butt}</style>
 </defs>
 <g id="figure_1">
  <g id="patch_1">
   <path d="M 0 177.752813 
L 198.010312 177.752813 
L 198.010312 0 
L 0 0 
z
" style="fill: #ffffff"/>
  </g>
  <g id="axes_1">
   <g id="patch_2">
    <path d="M 23.410313 143.1 
L 190.810313 143.1 
L 190.810313 7.2 
L 23.410313 7.2 
z
" style="fill: #ffffff"/>
   </g>
   <g id="matplotlib.axis_1">
    <g id="xtick_1">
     <g id="line2d_1">
      <defs>
       <path id="m6ebf44f5b4" d="M 0 0 
L 0 3.5 
" style="stroke: #000000; stroke-width: 0.8"/>
      </defs>
      <g>
       <use xlink:href="#m6ebf44f5b4" x="37.360313" y="143.1" style="stroke: #000000; stroke-width: 0.8"/>
      </g>
     </g>
     <g id="text_1">
      <!-- 10 -->
      <g transform="translate(32.270313 156.17875)scale(0.08 -0.08)">
       <defs>
        <path id="DejaVuSans-31" d="M 794 531 
L 1825 531 
L 1825 4091 
L 703 3866 
L 703 4441 
L 1819 4666 
L 2450 4666 
L 2450 531 
L 3481 531 
L 3481 0 
L 794 0 
L 794 531 
z
" transform="scale(0.015625)"/>
        <path id="DejaVuSans-30" d="M 2034 4250 
Q 1547 4250 1301 3770 
Q 1056 3291 1056 2328 
Q 1056 1369 1301 889 
Q 1547 409 2034 409 
Q 2525 409 2770 889 
Q 3016 1369 3016 2328 
Q 3016 3291 2770 3770 
Q 2525 4250 2034 4250 
z
M 2034 4750 
Q 2819 4750 3233 4129 
Q 3647 3509 3647 2328 
Q 3647 1150 3233 529 
Q 2819 -91 2034 -91 
Q 1250 -91 836 529 
Q 422 1150 422 2328 
Q 422 3509 836 4129 
Q 1250 4750 2034 4750 
z
" transform="scale(0.015625)"/>
       </defs>
       <use xlink:href="#DejaVuSans-31"/>
       <use xlink:href="#DejaVuSans-30" x="63.623047"/>
      </g>
     </g>
    </g>
    <g id="xtick_2">
     <g id="line2d_2">
      <g>
       <use xlink:href="#m6ebf44f5b4" x="65.260312" y="143.1" style="stroke: #000000; stroke-width: 0.8"/>
      </g>
     </g>
     <g id="text_2">
      <!-- 20 -->
      <g transform="translate(60.170312 156.17875)scale(0.08 -0.08)">
       <defs>
        <path id="DejaVuSans-32" d="M 1228 531 
L 3431 531 
L 3431 0 
L 469 0 
L 469 531 
Q 828 903 1448 1529 
Q 2069 2156 2228 2338 
Q 2531 2678 2651 2914 
Q 2772 3150 2772 3378 
Q 2772 3750 2511 3984 
Q 2250 4219 1831 4219 
Q 1534 4219 1204 4116 
Q 875 4013 500 3803 
L 500 4441 
Q 881 4594 1212 4672 
Q 1544 4750 1819 4750 
Q 2544 4750 2975 4387 
Q 3406 4025 3406 3419 
Q 3406 3131 3298 2873 
Q 3191 2616 2906 2266 
Q 2828 2175 2409 1742 
Q 1991 1309 1228 531 
z
" transform="scale(0.015625)"/>
       </defs>
       <use xlink:href="#DejaVuSans-32"/>
       <use xlink:href="#DejaVuSans-30" x="63.623047"/>
      </g>
     </g>
    </g>
    <g id="xtick_3">
     <g id="line2d_3">
      <g>
       <use xlink:href="#m6ebf44f5b4" x="93.160313" y="143.1" style="stroke: #000000; stroke-width: 0.8"/>
      </g>
     </g>
     <g id="text_3">
      <!-- 30 -->
      <g transform="translate(88.070312 156.17875)scale(0.08 -0.08)">
       <defs>
        <path id="DejaVuSans-33" d="M 2597 2516 
Q 3050 2419 3304 2112 
Q 3559 1806 3559 1356 
Q 3559 666 3084 287 
Q 2609 -91 1734 -91 
Q 1441 -91 1130 -33 
Q 819 25 488 141 
L 488 750 
Q 750 597 1062 519 
Q 1375 441 1716 441 
Q 2309 441 2620 675 
Q 2931 909 2931 1356 
Q 2931 1769 2642 2001 
Q 2353 2234 1838 2234 
L 1294 2234 
L 1294 2753 
L 1863 2753 
Q 2328 2753 2575 2939 
Q 2822 3125 2822 3475 
Q 2822 3834 2567 4026 
Q 2313 4219 1838 4219 
Q 1578 4219 1281 4162 
Q 984 4106 628 3988 
L 628 4550 
Q 988 4650 1302 4700 
Q 1616 4750 1894 4750 
Q 2613 4750 3031 4423 
Q 3450 4097 3450 3541 
Q 3450 3153 3228 2886 
Q 3006 2619 2597 2516 
z
" transform="scale(0.015625)"/>
       </defs>
       <use xlink:href="#DejaVuSans-33"/>
       <use xlink:href="#DejaVuSans-30" x="63.623047"/>
      </g>
     </g>
    </g>
    <g id="xtick_4">
     <g id="line2d_4">
      <g>
       <use xlink:href="#m6ebf44f5b4" x="121.060312" y="143.1" style="stroke: #000000; stroke-width: 0.8"/>
      </g>
     </g>
     <g id="text_4">
      <!-- 40 -->
      <g transform="translate(115.970312 156.17875)scale(0.08 -0.08)">
       <defs>
        <path id="DejaVuSans-34" d="M 2419 4116 
L 825 1625 
L 2419 1625 
L 2419 4116 
z
M 2253 4666 
L 3047 4666 
L 3047 1625 
L 3713 1625 
L 3713 1100 
L 3047 1100 
L 3047 0 
L 2419 0 
L 2419 1100 
L 313 1100 
L 313 1709 
L 2253 4666 
z
" transform="scale(0.015625)"/>
       </defs>
       <use xlink:href="#DejaVuSans-34"/>
       <use xlink:href="#DejaVuSans-30" x="63.623047"/>
      </g>
     </g>
    </g>
    <g id="xtick_5">
     <g id="line2d_5">
      <g>
       <use xlink:href="#m6ebf44f5b4" x="148.960313" y="143.1" style="stroke: #000000; stroke-width: 0.8"/>
      </g>
     </g>
     <g id="text_5">
      <!-- 50 -->
      <g transform="translate(143.870313 156.17875)scale(0.08 -0.08)">
       <defs>
        <path id="DejaVuSans-35" d="M 691 4666 
L 3169 4666 
L 3169 4134 
L 1269 4134 
L 1269 2991 
Q 1406 3038 1543 3061 
Q 1681 3084 1819 3084 
Q 2600 3084 3056 2656 
Q 3513 2228 3513 1497 
Q 3513 744 3044 326 
Q 2575 -91 1722 -91 
Q 1428 -91 1123 -41 
Q 819 9 494 109 
L 494 744 
Q 775 591 1075 516 
Q 1375 441 1709 441 
Q 2250 441 2565 725 
Q 2881 1009 2881 1497 
Q 2881 1984 2565 2268 
Q 2250 2553 1709 2553 
Q 1456 2553 1204 2497 
Q 953 2441 691 2322 
L 691 4666 
z
" transform="scale(0.015625)"/>
       </defs>
       <use xlink:href="#DejaVuSans-35"/>
       <use xlink:href="#DejaVuSans-30" x="63.623047"/>
      </g>
     </g>
    </g>
    <g id="xtick_6">
     <g id="line2d_6">
      <g>
       <use xlink:href="#m6ebf44f5b4" x="176.860313" y="143.1" style="stroke: #000000; stroke-width: 0.8"/>
      </g>
     </g>
     <g id="text_6">
      <!-- 60 -->
      <g transform="translate(171.770313 156.17875)scale(0.08 -0.08)">
       <defs>
        <path id="DejaVuSans-36" d="M 2113 2584 
Q 1688 2584 1439 2293 
Q 1191 2003 1191 1497 
Q 1191 994 1439 701 
Q 1688 409 2113 409 
Q 2538 409 2786 701 
Q 3034 994 3034 1497 
Q 3034 2003 2786 2293 
Q 2538 2584 2113 2584 
z
M 3366 4563 
L 3366 3988 
Q 3128 4100 2886 4159 
Q 2644 4219 2406 4219 
Q 1781 4219 1451 3797 
Q 1122 3375 1075 2522 
Q 1259 2794 1537 2939 
Q 1816 3084 2150 3084 
Q 2853 3084 3261 2657 
Q 3669 2231 3669 1497 
Q 3669 778 3244 343 
Q 2819 -91 2113 -91 
Q 1303 -91 875 529 
Q 447 1150 447 2328 
Q 447 3434 972 4092 
Q 1497 4750 2381 4750 
Q 2619 4750 2861 4703 
Q 3103 4656 3366 4563 
z
" transform="scale(0.015625)"/>
       </defs>
       <use xlink:href="#DejaVuSans-36"/>
       <use xlink:href="#DejaVuSans-30" x="63.623047"/>
      </g>
     </g>
    </g>
    <g id="xtick_7">
     <g id="line2d_7">
      <defs>
       <path id="mf36c00b278" d="M 0 0 
L 0 2 
" style="stroke: #000000; stroke-width: 0.6"/>
      </defs>
      <g>
       <use xlink:href="#mf36c00b278" x="23.410313" y="143.1" style="stroke: #000000; stroke-width: 0.6"/>
      </g>
     </g>
    </g>
    <g id="xtick_8">
     <g id="line2d_8">
      <g>
       <use xlink:href="#mf36c00b278" x="30.385313" y="143.1" style="stroke: #000000; stroke-width: 0.6"/>
      </g>
     </g>
    </g>
    <g id="xtick_9">
     <g id="line2d_9">
      <g>
       <use xlink:href="#mf36c00b278" x="44.335313" y="143.1" style="stroke: #000000; stroke-width: 0.6"/>
      </g>
     </g>
    </g>
    <g id="xtick_10">
     <g id="line2d_10">
      <g>
       <use xlink:href="#mf36c00b278" x="51.310313" y="143.1" style="stroke: #000000; stroke-width: 0.6"/>
      </g>
     </g>
    </g>
    <g id="xtick_11">
     <g id="line2d_11">
      <g>
       <use xlink:href="#mf36c00b278" x="58.285313" y="143.1" style="stroke: #000000; stroke-width: 0.6"/>
      </g>
     </g>
    </g>
    <g id="xtick_12">
     <g id="line2d_12">
      <g>
       <use xlink:href="#mf36c00b278" x="72.235313" y="143.1" style="stroke: #000000; stroke-width: 0.6"/>
      </g>
     </g>
    </g>
    <g id="xtick_13">
     <g id="line2d_13">
      <g>
       <use xlink:href="#mf36c00b278" x="79.210313" y="143.1" style="stroke: #000000; stroke-width: 0.6"/>
      </g>
     </g>
    </g>
    <g id="xtick_14">
     <g id="line2d_14">
      <g>
       <use xlink:href="#mf36c00b278" x="86.185312" y="143.1" style="stroke: #000000; stroke-width: 0.6"/>
      </g>
     </g>
    </g>
    <g id="xtick_15">
     <g id="line2d_15">
      <g>
       <use xlink:href="#mf36c00b278" x="100.135312" y="143.1" style="stroke: #000000; stroke-width: 0.6"/>
      </g>
     </g>
    </g>
    <g id="xtick_16">
     <g id="line2d_16">
      <g>
       <use xlink:href="#mf36c00b278" x="107.110313" y="143.1" style="stroke: #000000; stroke-width: 0.6"/>
      </g>
     </g>
    </g>
    <g id="xtick_17">
     <g id="line2d_17">
      <g>
       <use xlink:href="#mf36c00b278" x="114.085313" y="143.1" style="stroke: #000000; stroke-width: 0.6"/>
      </g>
     </g>
    </g>
    <g id="xtick_18">
     <g id="line2d_18">
      <g>
       <use xlink:href="#mf36c00b278" x="128.035313" y="143.1" style="stroke: #000000; stroke-width: 0.6"/>
      </g>
     </g>
    </g>
    <g id="xtick_19">
     <g id="line2d_19">
      <g>
       <use xlink:href="#mf36c00b278" x="135.010312" y="143.1" style="stroke: #000000; stroke-width: 0.6"/>
      </g>
     </g>
    </g>
    <g id="xtick_20">
     <g id="line2d_20">
      <g>
       <use xlink:href="#mf36c00b278" x="141.985313" y="143.1" style="stroke: #000000; stroke-width: 0.6"/>
      </g>
     </g>
    </g>
    <g id="xtick_21">
     <g id="line2d_21">
      <g>
       <use xlink:href="#mf36c00b278" x="155.935313" y="143.1" style="stroke: #000000; stroke-width: 0.6"/>
      </g>
     </g>
    </g>
    <g id="xtick_22">
     <g id="line2d_22">
      <g>
       <use xlink:href="#mf36c00b278" x="162.910313" y="143.1" style="stroke: #000000; stroke-width: 0.6"/>
      </g>
     </g>
    </g>
    <g id="xtick_23">
     <g id="line2d_23">
      <g>
       <use xlink:href="#mf36c00b278" x="169.885313" y="143.1" style="stroke: #000000; stroke-width: 0.6"/>
      </g>
     </g>
    </g>
    <g id="xtick_24">
     <g id="line2d_24">
      <g>
       <use xlink:href="#mf36c00b278" x="183.835313" y="143.1" style="stroke: #000000; stroke-width: 0.6"/>
      </g>
     </g>
    </g>
    <g id="xtick_25">
     <g id="line2d_25">
      <g>
       <use xlink:href="#mf36c00b278" x="190.810313" y="143.1" style="stroke: #000000; stroke-width: 0.6"/>
      </g>
     </g>
    </g>
    <g id="text_7">
     <!-- Two Theta (degrees) -->
     <g transform="translate(61.294688 168.681094)scale(0.09 -0.09)">
      <defs>
       <path id="DejaVuSans-54" d="M -19 4666 
L 3928 4666 
L 3928 4134 
L 2272 4134 
L 2272 0 
L 1638 0 
L 1638 4134 
L -19 4134 
L -19 4666 
z
" transform="scale(0.015625)"/>
       <path id="DejaVuSans-77" d="M 269 3500 
L 844 3500 
L 1563 769 
L 2278 3500 
L 2956 3500 
L 3675 769 
L 4391 3500 
L 4966 3500 
L 4050 0 
L 3372 0 
L 2619 2869 
L 1863 0 
L 1184 0 
L 269 3500 
z
" transform="scale(0.015625)"/>
       <path id="DejaVuSans-6f" d="M 1959 3097 
Q 1497 3097 1228 2736 
Q 959 2375 959 1747 
Q 959 1119 1226 758 
Q 1494 397 1959 397 
Q 2419 397 2687 759 
Q 2956 1122 2956 1747 
Q 2956 2369 2687 2733 
Q 2419 3097 1959 3097 
z
M 1959 3584 
Q 2709 3584 3137 3096 
Q 3566 2609 3566 1747 
Q 3566 888 3137 398 
Q 2709 -91 1959 -91 
Q 1206 -91 779 398 
Q 353 888 353 1747 
Q 353 2609 779 3096 
Q 1206 3584 1959 3584 
z
" transform="scale(0.015625)"/>
       <path id="DejaVuSans-20" transform="scale(0.015625)"/>
       <path id="DejaVuSans-68" d="M 3513 2113 
L 3513 0 
L 2938 0 
L 2938 2094 
Q 2938 2591 2744 2837 
Q 2550 3084 2163 3084 
Q 1697 3084 1428 2787 
Q 1159 2491 1159 1978 
L 1159 0 
L 581 0 
L 581 4863 
L 1159 4863 
L 1159 2956 
Q 1366 3272 1645 3428 
Q 1925 3584 2291 3584 
Q 2894 3584 3203 3211 
Q 3513 2838 3513 2113 
z
" transform="scale(0.015625)"/>
       <path id="DejaVuSans-65" d="M 3597 1894 
L 3597 1613 
L 953 1613 
Q 991 1019 1311 708 
Q 1631 397 2203 397 
Q 2534 397 2845 478 
Q 3156 559 3463 722 
L 3463 178 
Q 3153 47 2828 -22 
Q 2503 -91 2169 -91 
Q 1331 -91 842 396 
Q 353 884 353 1716 
Q 353 2575 817 3079 
Q 1281 3584 2069 3584 
Q 2775 3584 3186 3129 
Q 3597 2675 3597 1894 
z
M 3022 2063 
Q 3016 2534 2758 2815 
Q 2500 3097 2075 3097 
Q 1594 3097 1305 2825 
Q 1016 2553 972 2059 
L 3022 2063 
z
" transform="scale(0.015625)"/>
       <path id="DejaVuSans-74" d="M 1172 4494 
L 1172 3500 
L 2356 3500 
L 2356 3053 
L 1172 3053 
L 1172 1153 
Q 1172 725 1289 603 
Q 1406 481 1766 481 
L 2356 481 
L 2356 0 
L 1766 0 
Q 1100 0 847 248 
Q 594 497 594 1153 
L 594 3053 
L 172 3053 
L 172 3500 
L 594 3500 
L 594 4494 
L 1172 4494 
z
" transform="scale(0.015625)"/>
       <path id="DejaVuSans-61" d="M 2194 1759 
Q 1497 1759 1228 1600 
Q 959 1441 959 1056 
Q 959 750 1161 570 
Q 1363 391 1709 391 
Q 2188 391 2477 730 
Q 2766 1069 2766 1631 
L 2766 1759 
L 2194 1759 
z
M 3341 1997 
L 3341 0 
L 2766 0 
L 2766 531 
Q 2569 213 2275 61 
Q 1981 -91 1556 -91 
Q 1019 -91 701 211 
Q 384 513 384 1019 
Q 384 1609 779 1909 
Q 1175 2209 1959 2209 
L 2766 2209 
L 2766 2266 
Q 2766 2663 2505 2880 
Q 2244 3097 1772 3097 
Q 1472 3097 1187 3025 
Q 903 2953 641 2809 
L 641 3341 
Q 956 3463 1253 3523 
Q 1550 3584 1831 3584 
Q 2591 3584 2966 3190 
Q 3341 2797 3341 1997 
z
" transform="scale(0.015625)"/>
       <path id="DejaVuSans-28" d="M 1984 4856 
Q 1566 4138 1362 3434 
Q 1159 2731 1159 2009 
Q 1159 1288 1364 580 
Q 1569 -128 1984 -844 
L 1484 -844 
Q 1016 -109 783 600 
Q 550 1309 550 2009 
Q 550 2706 781 3412 
Q 1013 4119 1484 4856 
L 1984 4856 
z
" transform="scale(0.015625)"/>
       <path id="DejaVuSans-64" d="M 2906 2969 
L 2906 4863 
L 3481 4863 
L 3481 0 
L 2906 0 
L 2906 525 
Q 2725 213 2448 61 
Q 2172 -91 1784 -91 
Q 1150 -91 751 415 
Q 353 922 353 1747 
Q 353 2572 751 3078 
Q 1150 3584 1784 3584 
Q 2172 3584 2448 3432 
Q 2725 3281 2906 2969 
z
M 947 1747 
Q 947 1113 1208 752 
Q 1469 391 1925 391 
Q 2381 391 2643 752 
Q 2906 1113 2906 1747 
Q 2906 2381 2643 2742 
Q 2381 3103 1925 3103 
Q 1469 3103 1208 2742 
Q 947 2381 947 1747 
z
" transform="scale(0.015625)"/>
       <path id="DejaVuSans-67" d="M 2906 1791 
Q 2906 2416 2648 2759 
Q 2391 3103 1925 3103 
Q 1463 3103 1205 2759 
Q 947 2416 947 1791 
Q 947 1169 1205 825 
Q 1463 481 1925 481 
Q 2391 481 2648 825 
Q 2906 1169 2906 1791 
z
M 3481 434 
Q 3481 -459 3084 -895 
Q 2688 -1331 1869 -1331 
Q 1566 -1331 1297 -1286 
Q 1028 -1241 775 -1147 
L 775 -588 
Q 1028 -725 1275 -790 
Q 1522 -856 1778 -856 
Q 2344 -856 2625 -561 
Q 2906 -266 2906 331 
L 2906 616 
Q 2728 306 2450 153 
Q 2172 0 1784 0 
Q 1141 0 747 490 
Q 353 981 353 1791 
Q 353 2603 747 3093 
Q 1141 3584 1784 3584 
Q 2172 3584 2450 3431 
Q 2728 3278 2906 2969 
L 2906 3500 
L 3481 3500 
L 3481 434 
z
" transform="scale(0.015625)"/>
       <path id="DejaVuSans-72" d="M 2631 2963 
Q 2534 3019 2420 3045 
Q 2306 3072 2169 3072 
Q 1681 3072 1420 2755 
Q 1159 2438 1159 1844 
L 1159 0 
L 581 0 
L 581 3500 
L 1159 3500 
L 1159 2956 
Q 1341 3275 1631 3429 
Q 1922 3584 2338 3584 
Q 2397 3584 2469 3576 
Q 2541 3569 2628 3553 
L 2631 2963 
z
" transform="scale(0.015625)"/>
       <path id="DejaVuSans-73" d="M 2834 3397 
L 2834 2853 
Q 2591 2978 2328 3040 
Q 2066 3103 1784 3103 
Q 1356 3103 1142 2972 
Q 928 2841 928 2578 
Q 928 2378 1081 2264 
Q 1234 2150 1697 2047 
L 1894 2003 
Q 2506 1872 2764 1633 
Q 3022 1394 3022 966 
Q 3022 478 2636 193 
Q 2250 -91 1575 -91 
Q 1294 -91 989 -36 
Q 684 19 347 128 
L 347 722 
Q 666 556 975 473 
Q 1284 391 1588 391 
Q 1994 391 2212 530 
Q 2431 669 2431 922 
Q 2431 1156 2273 1281 
Q 2116 1406 1581 1522 
L 1381 1569 
Q 847 1681 609 1914 
Q 372 2147 372 2553 
Q 372 3047 722 3315 
Q 1072 3584 1716 3584 
Q 2034 3584 2315 3537 
Q 2597 3491 2834 3397 
z
" transform="scale(0.015625)"/>
       <path id="DejaVuSans-29" d="M 513 4856 
L 1013 4856 
Q 1481 4119 1714 3412 
Q 1947 2706 1947 2009 
Q 1947 1309 1714 600 
Q 1481 -109 1013 -844 
L 513 -844 
Q 928 -128 1133 580 
Q 1338 1288 1338 2009 
Q 1338 2731 1133 3434 
Q 928 4138 513 4856 
z
" transform="scale(0.015625)"/>
      </defs>
      <use xlink:href="#DejaVuSans-54"/>
      <use xlink:href="#DejaVuSans-77" x="44.583984"/>
      <use xlink:href="#DejaVuSans-6f" x="126.371094"/>
      <use xlink:href="#DejaVuSans-20" x="187.552734"/>
      <use xlink:href="#DejaVuSans-54" x="219.339844"/>
      <use xlink:href="#DejaVuSans-68" x="280.423828"/>
      <use xlink:href="#DejaVuSans-65" x="343.802734"/>
      <use xlink:href="#DejaVuSans-74" x="405.326172"/>
      <use xlink:href="#DejaVuSans-61" x="444.535156"/>
      <use xlink:href="#DejaVuSans-20" x="505.814453"/>
      <use xlink:href="#DejaVuSans-28" x="537.601562"/>
      <use xlink:href="#DejaVuSans-64" x="576.615234"/>
      <use xlink:href="#DejaVuSans-65" x="640.091797"/>
      <use xlink:href="#DejaVuSans-67" x="701.615234"/>
      <use xlink:href="#DejaVuSans-72" x="765.091797"/>
      <use xlink:href="#DejaVuSans-65" x="803.955078"/>
      <use xlink:href="#DejaVuSans-65" x="865.478516"/>
      <use xlink:href="#DejaVuSans-73" x="927.001953"/>
      <use xlink:href="#DejaVuSans-29" x="979.101562"/>
     </g>
    </g>
   </g>
   <g id="matplotlib.axis_2">
    <g id="ytick_1">
     <g id="line2d_26"/>
    </g>
    <g id="ytick_2">
     <g id="line2d_27"/>
    </g>
    <g id="ytick_3">
     <g id="line2d_28"/>
    </g>
    <g id="ytick_4">
     <g id="line2d_29"/>
    </g>
    <g id="ytick_5">
     <g id="line2d_30"/>
    </g>
    <g id="text_8">
     <!-- Intensity -->
     <g transform="translate(14.038594 94.73625)rotate(-90)scale(0.09 -0.09)">
      <defs>
       <path id="DejaVuSans-49" d="M 628 4666 
L 1259 4666 
L 1259 0 
L 628 0 
L 628 4666 
z
" transform="scale(0.015625)"/>
       <path id="DejaVuSans-6e" d="M 3513 2113 
L 3513 0 
L 2938 0 
L 2938 2094 
Q 2938 2591 2744 2837 
Q 2550 3084 2163 3084 
Q 1697 3084 1428 2787 
Q 1159 2491 1159 1978 
L 1159 0 
L 581 0 
L 581 3500 
L 1159 3500 
L 1159 2956 
Q 1366 3272 1645 3428 
Q 1925 3584 2291 3584 
Q 2894 3584 3203 3211 
Q 3513 2838 3513 2113 
z
" transform="scale(0.015625)"/>
       <path id="DejaVuSans-69" d="M 603 3500 
L 1178 3500 
L 1178 0 
L 603 0 
L 603 3500 
z
M 603 4863 
L 1178 4863 
L 1178 4134 
L 603 4134 
L 603 4863 
z
" transform="scale(0.015625)"/>
       <path id="DejaVuSans-79" d="M 2059 -325 
Q 1816 -950 1584 -1140 
Q 1353 -1331 966 -1331 
L 506 -1331 
L 506 -850 
L 844 -850 
Q 1081 -850 1212 -737 
Q 1344 -625 1503 -206 
L 1606 56 
L 191 3500 
L 800 3500 
L 1894 763 
L 2988 3500 
L 3597 3500 
L 2059 -325 
z
" transform="scale(0.015625)"/>
      </defs>
      <use xlink:href="#DejaVuSans-49"/>
      <use xlink:href="#DejaVuSans-6e" x="29.492188"/>
      <use xlink:href="#DejaVuSans-74" x="92.871094"/>
      <use xlink:href="#DejaVuSans-65" x="132.080078"/>
      <use xlink:href="#DejaVuSans-6e" x="193.603516"/>
      <use xlink:href="#DejaVuSans-73" x="256.982422"/>
      <use xlink:href="#DejaVuSans-69" x="309.082031"/>
      <use xlink:href="#DejaVuSans-74" x="336.865234"/>
      <use xlink:href="#DejaVuSans-79" x="376.074219"/>
     </g>
    </g>
   </g>
   <g id="line2d_31">
    <path d="M 23.43188 35.149627 
L 23.578414 31.833141 
L 23.651681 32.187575 
L 23.724948 31.655924 
L 23.798215 32.643275 
L 23.871482 37.453446 
L 23.944749 33.807843 
L 24.16455 42.947168 
L 24.237817 40.466133 
L 24.384351 43.909203 
L 24.457618 42.516785 
L 24.604152 46.364922 
L 24.750686 47.98519 
L 24.823953 47.099106 
L 24.89722 48.643424 
L 24.970487 47.782656 
L 25.043753 48.21304 
L 25.190287 48.820641 
L 25.263554 51.73206 
L 25.336821 50.162425 
L 25.410088 50.694076 
L 25.483355 55.630831 
L 25.556622 54.997914 
L 25.629889 50.921926 
L 25.703156 53.732079 
L 25.776423 53.073845 
L 25.84969 52.516878 
L 26.142758 56.744765 
L 26.216025 55.630831 
L 26.289292 57.023249 
L 26.435826 56.061215 
L 26.509093 59.757452 
L 26.58236 56.896665 
L 26.655627 57.402999 
L 26.875428 60.922019 
L 26.948695 61.099236 
L 27.021962 61.732154 
L 27.095229 61.200503 
L 27.241763 63.276472 
L 27.461564 61.403037 
L 27.608098 64.74484 
L 27.681365 63.909389 
L 27.754632 67.352459 
L 27.827899 65.757507 
L 27.901166 62.896721 
L 27.974433 67.88411 
L 28.0477 65.327124 
L 28.194234 67.073975 
L 28.2675 71.40313 
L 28.414034 66.896759 
L 28.633835 70.213245 
L 28.707102 69.757545 
L 28.780369 71.681613 
L 28.853636 68.11196 
L 29.073437 73.934799 
L 29.219971 71.504396 
L 29.366505 73.681632 
L 29.439772 71.985414 
L 29.586306 76.339885 
L 29.659573 72.643648 
L 29.73284 72.846181 
L 29.806107 73.681632 
L 29.879374 73.225931 
L 29.952641 74.947466 
L 30.025908 73.757582 
L 30.099175 77.048752 
L 30.172442 75.706967 
L 30.318976 74.263916 
L 30.538777 79.124721 
L 30.612044 75.504434 
L 30.685311 76.187984 
L 30.758578 76.086718 
L 30.831845 76.365201 
L 30.905112 74.8462 
L 30.978379 80.137388 
L 31.051646 78.036103 
L 31.124913 79.327254 
L 31.19818 78.188003 
L 31.271447 78.567753 
L 31.344714 78.643703 
L 31.417981 78.238636 
L 31.564514 78.82092 
L 31.637781 78.36522 
L 31.857582 80.415872 
L 32.077383 83.023491 
L 32.15065 81.226006 
L 32.223917 82.466524 
L 32.297184 82.26399 
L 32.370451 81.80829 
L 32.443718 82.213357 
L 32.516985 83.352608 
L 32.590252 81.529806 
L 32.663519 84.618443 
L 32.736786 84.542493 
L 32.810053 84.238692 
L 32.88332 86.238711 
L 32.956587 82.18804 
L 33.029854 84.264009 
L 33.103121 82.871591 
L 33.176388 85.453893 
L 33.249655 84.517176 
L 33.322922 86.086811 
L 33.396189 85.301993 
L 33.469456 85.47921 
L 33.61599 84.745026 
L 33.689257 88.491896 
L 33.835791 86.137444 
L 33.909058 86.137444 
L 33.982325 87.302012 
L 34.055592 85.301993 
L 34.275393 89.200764 
L 34.34866 86.188077 
L 34.421927 87.023528 
L 34.568461 87.605812 
L 34.641728 90.188115 
L 34.714994 87.858979 
L 34.788261 88.643797 
L 34.861528 88.567846 
L 34.934795 86.593145 
L 35.154596 89.099497 
L 35.227863 87.681762 
L 35.447664 91.631166 
L 35.594198 86.998212 
L 35.740732 91.8337 
L 35.813999 91.276732 
L 35.887266 93.757768 
L 36.0338 89.15013 
L 36.180334 90.593182 
L 36.253601 88.669113 
L 36.400135 91.934966 
L 36.473402 90.542548 
L 36.546669 93.605868 
L 36.619936 90.365332 
L 36.693203 93.200801 
L 36.76647 90.972932 
L 36.839737 91.428633 
L 36.913004 90.972932 
L 36.986271 93.226118 
L 37.059538 92.694467 
L 37.132805 94.238785 
L 37.206072 94.213469 
L 37.279339 89.453931 
L 37.352606 93.529918 
L 37.425873 92.542567 
L 37.718941 94.947653 
L 37.792208 90.896982 
L 37.865475 94.694486 
L 37.938741 93.251434 
L 38.231809 96.593238 
L 38.378343 94.972969 
L 38.45161 95.65652 
L 38.524877 94.264102 
L 38.671411 96.593238 
L 38.744678 96.314754 
L 38.891212 97.403372 
L 39.037746 94.289419 
L 39.18428 98.365406 
L 39.257547 94.314735 
L 39.330814 95.65652 
L 39.404081 97.378055 
L 39.477348 95.909687 
L 39.623882 98.289456 
L 39.770416 96.517288 
L 39.843683 96.694504 
L 39.91695 97.428689 
L 39.990217 100.264158 
L 40.136751 95.783104 
L 40.210018 99.960358 
L 40.283285 99.302124 
L 40.356552 100.036308 
L 40.503086 96.795771 
L 40.576353 97.757806 
L 40.722887 101.048975 
L 40.796154 97.048938 
L 40.869421 98.542623 
L 40.942688 98.973007 
L 41.015955 98.238823 
L 41.235755 100.314791 
L 41.455556 97.428689 
L 41.60209 99.25149 
L 41.675357 98.162873 
L 41.821891 101.732526 
L 41.968425 100.188208 
L 42.041692 101.124925 
L 42.114959 100.086941 
L 42.261493 103.099627 
L 42.33476 102.54266 
L 42.408027 99.656557 
L 42.481294 100.340108 
L 42.627828 103.074311 
L 42.701095 101.428726 
L 42.774362 103.454061 
L 42.847629 102.973044 
L 42.920896 102.69456 
L 42.994163 101.124925 
L 43.06743 101.428726 
L 43.140697 101.428726 
L 43.213964 102.416077 
L 43.287231 100.871759 
L 43.360498 103.251528 
L 43.433765 101.124925 
L 43.507032 105.074329 
L 43.726833 100.669225 
L 43.946634 105.656613 
L 44.093168 100.492008 
L 44.312969 103.909762 
L 44.386235 105.428763 
L 44.459502 105.251546 
L 44.532769 105.479396 
L 44.679303 102.871777 
L 44.899104 106.542697 
L 45.045638 103.479378 
L 45.118905 107.074348 
L 45.192172 104.973063 
L 45.265439 105.049013 
L 45.411973 105.504713 
L 45.48524 104.669262 
L 45.558507 106.517381 
L 45.631774 106.238897 
L 45.705041 106.568014 
L 45.778308 105.45408 
L 45.851575 107.327515 
L 45.924842 105.580663 
L 45.998109 105.83383 
L 46.071376 105.808513 
L 46.144643 106.086997 
L 46.21791 107.049031 
L 46.364444 105.580663 
L 46.437711 108.264232 
L 46.584245 105.428763 
L 46.657512 108.492083 
L 46.730779 106.365481 
L 46.877313 108.390816 
L 46.95058 104.340145 
L 47.023847 106.719914 
L 47.097114 106.086997 
L 47.170381 107.833849 
L 47.243648 107.175615 
L 47.316915 106.238897 
L 47.536716 108.365499 
L 47.609983 106.390797 
L 47.756516 108.618666 
L 47.829783 106.643964 
L 47.90305 108.061699 
L 48.049584 106.542697 
L 48.122851 108.998417 
L 48.196118 108.137649 
L 48.269385 107.175615 
L 48.342652 108.89715 
L 48.415919 108.441449 
L 48.489186 105.099646 
L 48.708987 110.036401 
L 48.782254 109.35285 
L 48.855521 107.226248 
L 48.928788 109.327534 
L 49.002055 108.922466 
L 49.075322 109.530067 
L 49.221856 107.631315 
L 49.441657 109.985768 
L 49.514924 108.795883 
L 49.588191 110.061718 
L 49.661458 108.492083 
L 49.734725 108.922466 
L 49.954526 110.871852 
L 50.027793 110.112351 
L 50.10106 110.618685 
L 50.174327 110.264251 
L 50.247594 112.087053 
L 50.394128 109.555384 
L 50.467395 112.998454 
L 50.540662 111.681986 
L 50.613929 109.631334 
L 50.687196 111.074385 
L 50.760463 110.517418 
L 50.83373 109.099683 
L 50.906996 111.909836 
L 50.980263 109.479434 
L 51.126797 111.428819 
L 51.273331 110.416151 
L 51.346598 108.6693 
L 51.566399 112.137686 
L 51.639666 109.909817 
L 51.712933 113.099721 
L 51.7862 108.9731 
L 51.859467 111.403502 
L 51.932734 110.973118 
L 52.006001 110.922485 
L 52.079268 111.884519 
L 52.225802 110.061718 
L 52.299069 113.783271 
L 52.445603 111.099702 
L 52.51887 112.517437 
L 52.592137 110.416151 
L 52.665404 113.074404 
L 52.738671 112.922504 
L 52.811938 110.973118 
L 52.885205 111.960469 
L 52.958472 111.960469 
L 53.031739 109.732601 
L 53.105006 112.56807 
L 53.25154 110.137668 
L 53.324807 110.162984 
L 53.544608 113.606054 
L 53.691142 112.365537 
L 53.764409 112.694654 
L 53.910943 111.125019 
L 54.057477 112.49212 
L 54.130743 112.466803 
L 54.20401 110.542735 
L 54.277277 113.02377 
L 54.350544 112.593387 
L 54.423811 112.56807 
L 54.570345 113.656688 
L 54.643612 113.125037 
L 54.716879 111.606036 
L 54.790146 112.18832 
L 54.863413 114.213655 
L 55.009947 112.26427 
L 55.083214 113.606054 
L 55.156481 111.352869 
L 55.229748 114.011121 
L 55.303015 113.935171 
L 55.376282 111.504769 
L 55.449549 112.163003 
L 55.522816 113.378204 
L 55.596083 113.302254 
L 55.66935 113.251621 
L 55.742617 114.517455 
L 55.815884 111.681986 
L 55.889151 114.112388 
L 56.108952 111.859203 
L 56.182219 113.327571 
L 56.40202 111.656669 
L 56.621821 114.441505 
L 56.768355 112.56807 
L 56.841622 115.251639 
L 56.914889 112.441487 
L 56.988156 113.504788 
L 57.061423 112.49212 
L 57.13469 112.745287 
L 57.35449 114.517455 
L 57.427757 111.555402 
L 57.501024 113.985805 
L 57.574291 113.074404 
L 57.720825 112.770604 
L 57.794092 110.137668 
L 57.867359 113.251621 
L 57.940626 112.11237 
L 58.160427 115.150373 
L 58.306961 110.593368 
L 58.380228 114.112388 
L 58.526762 111.099702 
L 58.600029 113.02377 
L 58.673296 112.998454 
L 58.746563 113.327571 
L 58.81983 114.213655 
L 58.893097 112.466803 
L 58.966364 112.669337 
L 59.112898 111.479452 
L 59.259432 112.922504 
L 59.479233 111.175652 
L 59.772301 113.454154 
L 59.845568 113.200987 
L 59.918835 112.618703 
L 59.992102 113.530104 
L 60.138636 111.352869 
L 60.28517 112.365537 
L 60.358437 111.276919 
L 60.431704 112.213636 
L 60.504971 111.656669 
L 60.578237 112.94782 
L 60.651504 111.428819 
L 60.724771 111.757936 
L 60.798038 112.517437 
L 60.871305 111.884519 
L 60.944572 112.41617 
L 61.091106 110.441468 
L 61.164373 111.327552 
L 61.23764 110.365518 
L 61.310907 112.011103 
L 61.384174 111.479452 
L 61.457441 110.618685 
L 61.530708 111.049069 
L 61.603975 110.998435 
L 61.677242 110.745268 
L 61.750509 111.175652 
L 61.97031 109.403484 
L 62.043577 111.023752 
L 62.116844 110.719952 
L 62.190111 110.846535 
L 62.263378 112.618703 
L 62.336645 112.517437 
L 62.409912 110.390835 
L 62.483179 111.732619 
L 62.556446 111.226285 
L 62.629713 110.770585 
L 62.70298 111.403502 
L 62.922781 108.770566 
L 63.142582 110.846535 
L 63.215849 108.568033 
L 63.362383 111.428819 
L 63.43565 111.226285 
L 63.508917 109.555384 
L 63.655451 112.03642 
L 63.801984 108.264232 
L 63.875251 109.4288 
L 63.948518 108.770566 
L 64.168319 111.302235 
L 64.241586 107.302198 
L 64.314853 108.998417 
L 64.461387 111.276919 
L 64.534654 106.643964 
L 64.607921 109.226267 
L 64.681188 107.935115 
L 64.754455 108.618666 
L 64.827722 106.770548 
L 64.900989 107.302198 
L 65.047523 109.479434 
L 65.12079 106.947765 
L 65.194057 107.074348 
L 65.267324 108.365499 
L 65.413858 106.618648 
L 65.633659 108.922466 
L 65.780193 105.479396 
L 65.85346 107.555365 
L 65.926727 106.719914 
L 65.999994 106.21358 
L 66.073261 107.985749 
L 66.146528 105.707247 
L 66.219795 106.06168 
L 66.293062 104.719896 
L 66.366329 105.074329 
L 66.512863 106.719914 
L 66.58613 106.036364 
L 66.659397 106.365481 
L 66.732664 101.960376 
L 66.879198 106.770548 
L 67.025731 104.036345 
L 67.098998 104.416095 
L 67.172265 104.492045 
L 67.245532 105.403446 
L 67.318799 103.580645 
L 67.392066 106.542697 
L 67.611867 103.605961 
L 67.685134 104.466729 
L 67.758401 102.795827 
L 67.904935 105.83383 
L 67.978202 102.567977 
L 68.051469 103.175577 
L 68.124736 102.036326 
L 68.198003 105.22623 
L 68.27127 104.618629 
L 68.417804 102.517344 
L 68.491071 103.707228 
L 68.564338 101.732526 
L 68.637605 103.378111 
L 68.710872 102.112276 
L 68.857406 103.200894 
L 69.00394 100.973025 
L 69.077207 102.643927 
L 69.223741 100.466692 
L 69.297008 101.555309 
L 69.370275 101.226192 
L 69.443542 101.099609 
L 69.516809 99.605924 
L 69.663343 102.517344 
L 69.73661 101.656576 
L 69.809877 100.669225 
L 69.883144 102.365443 
L 69.956411 102.23886 
L 70.029678 101.454042 
L 70.102945 101.960376 
L 70.176212 100.871759 
L 70.249479 101.327459 
L 70.322745 102.213543 
L 70.396012 99.454024 
L 70.469279 100.770492 
L 70.542546 101.631259 
L 70.615813 99.25149 
L 70.68908 100.846442 
L 70.762347 99.960358 
L 70.835614 97.074255 
L 70.908881 98.517306 
L 71.128682 101.707209 
L 71.275216 98.669206 
L 71.348483 99.884408 
L 71.42175 98.770473 
L 71.495017 99.631241 
L 71.568284 96.846405 
L 71.714818 100.213525 
L 71.788085 97.302105 
L 71.934619 100.289475 
L 72.007886 99.428707 
L 72.081153 97.200838 
L 72.227687 99.302124 
L 72.300954 97.529955 
L 72.447488 102.795827 
L 72.594022 98.618573 
L 72.667289 98.94769 
L 72.740556 98.289456 
L 72.813823 99.276807 
L 72.960357 95.88437 
L 73.106891 98.49199 
L 73.180158 98.137556 
L 73.253425 95.935004 
L 73.326692 100.238841 
L 73.399959 98.010972 
L 73.473226 99.074273 
L 73.546492 98.010972 
L 73.693026 99.40339 
L 73.766293 98.289456 
L 73.912827 99.40339 
L 74.059361 96.643871 
L 74.132628 99.479341 
L 74.205895 98.010972 
L 74.279162 98.036289 
L 74.352429 98.188189 
L 74.425696 99.276807 
L 74.498963 96.593238 
L 74.57223 98.314773 
L 74.645497 97.327422 
L 74.718764 100.745175 
L 74.865298 97.783122 
L 74.938565 98.745156 
L 75.011832 98.593256 
L 75.085099 99.02364 
L 75.158366 97.226155 
L 75.3049 99.631241 
L 75.451434 97.707172 
L 75.597968 96.846405 
L 75.744502 101.352776 
L 76.03757 96.618554 
L 76.184104 98.922373 
L 76.257371 98.94769 
L 76.330638 99.985674 
L 76.477172 97.707172 
L 76.550439 98.086923 
L 76.696973 99.808458 
L 76.843506 98.79579 
L 77.063307 96.542604 
L 77.136574 96.618554 
L 77.209841 99.302124 
L 77.283108 96.719821 
L 77.356375 97.479322 
L 77.429642 98.390723 
L 77.576176 97.276788 
L 77.72271 99.985674 
L 77.795977 97.985656 
L 77.869244 99.378074 
L 78.015778 97.074255 
L 78.162312 98.79579 
L 78.235579 98.340089 
L 78.308846 99.757824 
L 78.382113 99.352757 
L 78.45538 97.150205 
L 78.675181 99.757824 
L 78.748448 99.783141 
L 78.821715 100.188208 
L 78.894982 100.061624 
L 79.041516 99.985674 
L 79.114783 100.694542 
L 79.261317 98.694523 
L 79.407851 98.188189 
L 79.700919 101.175559 
L 79.847453 97.909706 
L 79.92072 98.112239 
L 79.993986 100.998342 
L 80.14052 97.909706 
L 80.213787 99.808458 
L 80.287054 99.757824 
L 80.360321 100.593275 
L 80.433588 99.707191 
L 80.506855 97.403372 
L 80.580122 98.56794 
L 80.653389 99.656557 
L 80.726656 98.94769 
L 80.799923 99.884408 
L 80.87319 99.02364 
L 80.946457 99.276807 
L 81.019724 98.618573 
L 81.092991 101.023659 
L 81.166258 100.188208 
L 81.239525 100.340108 
L 81.386059 98.64389 
L 81.459326 100.998342 
L 81.532593 100.694542 
L 81.679127 101.200876 
L 81.752394 100.162891 
L 81.825661 101.479359 
L 81.898928 100.973025 
L 82.045462 99.960358 
L 82.118729 100.745175 
L 82.191996 99.985674 
L 82.265263 101.555309 
L 82.33853 99.09959 
L 82.485064 102.69456 
L 82.558331 102.137593 
L 82.631598 99.960358 
L 82.704865 102.08696 
L 82.924666 99.150224 
L 83.0712 101.302142 
L 83.144467 98.998323 
L 83.291 102.46671 
L 83.364267 101.909743 
L 83.510801 101.884426 
L 83.584068 101.276826 
L 83.657335 101.93506 
L 83.730602 101.454042 
L 83.803869 98.745156 
L 84.096937 103.935078 
L 84.243471 100.365425 
L 84.316738 101.707209 
L 84.390005 98.71984 
L 84.463272 102.998361 
L 84.536539 101.200876 
L 84.609806 99.909724 
L 84.829607 103.099627 
L 84.902874 101.605943 
L 85.049408 104.264195 
L 85.195942 101.529993 
L 85.342476 103.200894 
L 85.415743 104.289512 
L 85.562277 101.378092 
L 85.635544 103.656595 
L 85.708811 100.745175 
L 85.928612 104.618629 
L 86.001879 100.618592 
L 86.075146 103.656595 
L 86.148413 101.124925 
L 86.22168 101.960376 
L 86.294947 102.54266 
L 86.368214 100.770492 
L 86.44148 102.846461 
L 86.514747 101.707209 
L 86.661281 104.238879 
L 86.881082 100.517325 
L 86.954349 104.061662 
L 87.027616 103.605961 
L 87.17415 101.428726 
L 87.247417 102.719877 
L 87.320684 102.492027 
L 87.467218 102.61861 
L 87.613752 103.681911 
L 87.760286 102.846461 
L 87.833553 105.504713 
L 87.980087 102.08696 
L 88.053354 104.061662 
L 88.126621 102.416077 
L 88.199888 104.567996 
L 88.346422 102.416077 
L 88.419689 106.694598 
L 88.492956 104.517362 
L 88.63949 102.036326 
L 88.786024 105.83383 
L 89.005825 102.821144 
L 89.225626 105.37813 
L 89.298893 103.074311 
L 89.37216 105.30218 
L 89.445427 102.973044 
L 89.518694 105.276863 
L 89.591961 103.504694 
L 89.738494 107.200931 
L 89.811761 106.517381 
L 89.885028 103.251528 
L 89.958295 106.086997 
L 90.031562 104.643946 
L 90.104829 103.504694 
L 90.178096 106.188264 
L 90.32463 104.492045 
L 90.397897 105.37813 
L 90.471164 105.327496 
L 90.544431 105.124963 
L 90.617698 104.112295 
L 90.764232 105.327496 
L 90.837499 105.45408 
L 90.910766 103.074311 
L 90.984033 105.83383 
L 91.0573 105.30218 
L 91.130567 107.023715 
L 91.277101 103.757861 
L 91.423635 107.656632 
L 91.496902 107.276882 
L 91.570169 105.83383 
L 91.643436 107.935115 
L 91.716703 107.226248 
L 91.78997 103.428744 
L 91.863237 104.567996 
L 92.009771 105.935097 
L 92.083038 106.542697 
L 92.156305 105.83383 
L 92.229572 106.719914 
L 92.302839 105.68193 
L 92.376106 107.428782 
L 92.449373 105.707247 
L 92.52264 106.441431 
L 92.595907 106.973081 
L 92.669174 106.06168 
L 92.742441 108.061699 
L 92.815708 107.327515 
L 92.888974 105.75788 
L 93.035508 107.580682 
L 93.108775 104.264195 
L 93.182042 108.947783 
L 93.255309 107.454098 
L 93.328576 107.504732 
L 93.401843 107.960432 
L 93.47511 106.314847 
L 93.548377 107.960432 
L 93.621644 106.390797 
L 93.694911 106.466747 
L 93.768178 107.074348 
L 93.841445 105.935097 
L 93.914712 106.998398 
L 93.987979 106.973081 
L 94.061246 106.238897 
L 94.134513 106.314847 
L 94.20778 106.13763 
L 94.281047 106.365481 
L 94.427581 108.593349 
L 94.500848 107.985749 
L 94.574115 106.694598 
L 94.793916 108.568033 
L 95.013717 106.719914 
L 95.086984 109.656651 
L 95.160251 108.9731 
L 95.233518 109.099683 
L 95.306785 108.871833 
L 95.380052 110.238934 
L 95.453319 107.504732 
L 95.526586 108.593349 
L 95.67312 110.871852 
L 95.819654 107.732582 
L 95.966188 109.023733 
L 96.039455 108.593349 
L 96.112722 110.441468 
L 96.259255 107.504732 
L 96.405789 109.099683 
L 96.62559 112.669337 
L 96.772124 109.479434 
L 96.918658 110.922485 
L 97.211726 108.6693 
L 97.431527 111.884519 
L 97.504794 109.681967 
L 97.578061 109.960451 
L 97.651328 110.365518 
L 97.871129 108.74525 
L 97.944396 109.985768 
L 98.017663 108.947783 
L 98.09093 111.150335 
L 98.164197 110.694635 
L 98.310731 112.897187 
L 98.383998 112.87187 
L 98.530532 108.8212 
L 98.603799 111.631352 
L 98.677066 111.023752 
L 98.750333 109.606017 
L 99.043401 113.327571 
L 99.116668 110.466785 
L 99.189935 112.517437 
L 99.263202 111.479452 
L 99.336469 111.960469 
L 99.483002 110.846535 
L 99.556269 112.365537 
L 99.629536 111.150335 
L 99.702803 112.922504 
L 99.77607 112.64402 
L 99.849337 110.238934 
L 99.922604 112.41617 
L 99.995871 110.365518 
L 100.069138 112.922504 
L 100.142405 112.238953 
L 100.288939 114.061755 
L 100.435473 112.897187 
L 100.50874 112.542753 
L 100.582007 111.403502 
L 100.655274 112.163003 
L 100.728541 111.606036 
L 100.875075 114.061755 
L 101.094876 112.79592 
L 101.168143 113.302254 
L 101.24141 114.998472 
L 101.314677 112.03642 
L 101.387944 112.973137 
L 101.461211 111.909836 
L 101.534478 114.289605 
L 101.607745 112.213636 
L 101.681012 114.846572 
L 101.754279 112.593387 
L 101.827546 114.593405 
L 101.900813 111.074385 
L 101.97408 112.061736 
L 102.047347 113.125037 
L 102.120614 113.049087 
L 102.193881 112.390853 
L 102.267148 113.909855 
L 102.340415 113.606054 
L 102.413682 113.02377 
L 102.486949 113.985805 
L 102.560216 113.454154 
L 102.633482 115.504806 
L 102.706749 111.960469 
L 102.780016 112.998454 
L 102.853283 112.87187 
L 102.999817 114.644039 
L 103.073084 112.770604 
L 103.146351 114.795939 
L 103.219618 113.02377 
L 103.439419 115.049106 
L 103.585953 115.049106 
L 103.65922 114.011121 
L 103.732487 115.378223 
L 103.879021 113.049087 
L 103.952288 113.125037 
L 104.172089 115.049106 
L 104.245356 114.795939 
L 104.39189 112.289586 
L 104.538424 114.821256 
L 104.611691 115.150373 
L 104.758225 113.783271 
L 104.831492 112.163003 
L 105.051293 116.618741 
L 105.12456 115.960507 
L 105.197827 113.403521 
L 105.271094 113.960488 
L 105.344361 114.644039 
L 105.417628 113.504788 
L 105.490895 115.504806 
L 105.564162 113.985805 
L 105.637429 115.023789 
L 105.710696 113.555421 
L 105.783963 114.188338 
L 105.857229 113.631371 
L 105.930496 115.276956 
L 106.003763 114.871889 
L 106.07703 114.871889 
L 106.223564 113.125037 
L 106.443365 115.93519 
L 106.516632 114.947839 
L 106.589899 116.871908 
L 106.663166 112.922504 
L 106.736433 113.302254 
L 106.8097 112.18832 
L 106.882967 114.770622 
L 106.956234 112.694654 
L 107.029501 113.276937 
L 107.102768 111.960469 
L 107.249302 113.783271 
L 107.322569 112.694654 
L 107.54237 114.314922 
L 107.615637 114.036438 
L 107.688904 115.352906 
L 107.762171 113.960488 
L 107.835438 114.036438 
L 107.908705 114.492139 
L 107.981972 113.099721 
L 108.128506 115.302273 
L 108.201773 113.732638 
L 108.27504 113.985805 
L 108.421574 115.606073 
L 108.494841 112.694654 
L 108.568108 114.061755 
L 108.641375 113.403521 
L 108.714642 114.922522 
L 108.787909 114.517455 
L 108.934443 115.682023 
L 109.00771 114.947839 
L 109.154243 112.542753 
L 109.22751 116.061773 
L 109.300777 114.036438 
L 109.374044 115.656706 
L 109.447311 114.568089 
L 109.667112 116.593424 
L 109.740379 116.846591 
L 109.813646 118.188376 
L 109.886913 116.618741 
L 109.96018 117.251658 
L 110.179981 115.580756 
L 110.253248 118.720026 
L 110.326515 117.631408 
L 110.399782 116.31494 
L 110.473049 116.542791 
L 110.619583 118.163059 
L 110.69285 117.049124 
L 110.766117 118.061792 
L 110.839384 115.960507 
L 110.985918 120.137761 
L 111.059185 116.871908 
L 111.132452 117.276975 
L 111.205719 117.454192 
L 111.278986 118.213692 
L 111.352253 115.70734 
L 111.42552 116.618741 
L 111.572054 118.492176 
L 111.645321 114.466822 
L 111.718588 116.188357 
L 111.791855 116.289624 
L 111.938389 115.125056 
L 112.011656 115.757973 
L 112.084923 114.694672 
L 112.15819 114.871889 
L 112.231457 114.542772 
L 112.304723 112.94782 
L 112.37799 113.327571 
L 112.451257 113.200987 
L 112.524524 113.580738 
L 112.597791 113.378204 
L 112.817592 117.226341 
L 112.890859 114.492139 
L 112.964126 115.78329 
L 113.11066 117.884575 
L 113.183927 118.264326 
L 113.257194 117.808625 
L 113.330461 118.264326 
L 113.403728 119.884594 
L 113.476995 119.30231 
L 113.550262 120.137761 
L 113.623529 119.251677 
L 113.696796 120.998528 
L 113.770063 120.390928 
L 113.84333 119.15041 
L 113.916597 123.20108 
L 113.989864 122.720063 
L 114.136398 121.378279 
L 114.209665 123.226397 
L 114.356199 122.137779 
L 114.429466 122.314996 
L 114.502733 121.352962 
L 114.576 121.682079 
L 114.649267 124.492232 
L 114.722534 122.720063 
L 114.795801 123.023864 
L 114.869068 123.656781 
L 114.942335 121.884613 
L 115.088869 125.758066 
L 115.381937 123.606148 
L 115.52847 124.644132 
L 115.601737 123.20108 
L 115.675004 125.378316 
L 115.748271 124.897299 
L 115.968072 123.023864 
L 116.041339 124.998566 
L 116.114606 123.277031 
L 116.334407 126.03655 
L 116.407674 123.454247 
L 116.554208 125.302366 
L 116.627475 123.327664 
L 116.847276 125.403633 
L 116.99381 124.644132 
L 117.067077 125.428949 
L 117.140344 125.378316 
L 117.213611 124.492232 
L 117.286878 126.998584 
L 117.506679 123.985898 
L 117.579946 126.011233 
L 117.653213 125.73275 
L 117.72648 126.18845 
L 117.799747 125.8087 
L 117.873014 124.770715 
L 117.946281 125.580849 
L 118.019548 125.201099 
L 118.166082 125.428949 
L 118.239349 126.03655 
L 118.312616 125.859333 
L 118.385883 125.504899 
L 118.45915 125.530216 
L 118.532417 126.49225 
L 118.678951 123.909948 
L 118.898751 126.49225 
L 119.045285 124.517548 
L 119.191819 124.973249 
L 119.265086 124.720082 
L 119.338353 126.897317 
L 119.484887 124.365648 
L 119.631421 126.087183 
L 119.704688 125.251732 
L 119.777955 125.378316 
L 119.851222 125.150466 
L 120.071023 126.846684 
L 120.364091 124.137798 
L 120.510625 125.707433 
L 120.657159 125.454266 
L 120.87696 123.783364 
L 121.023494 126.365667 
L 121.170028 124.821349 
L 121.243295 125.327683 
L 121.389829 123.682098 
L 121.463096 123.783364 
L 121.536363 124.796032 
L 121.60963 124.036531 
L 121.682897 124.390965 
L 121.756164 124.289698 
L 121.829431 125.580849 
L 121.975965 122.922597 
L 122.049231 123.378297 
L 122.122498 123.175764 
L 122.195765 124.796032 
L 122.269032 122.416263 
L 122.415566 125.580849 
L 122.488833 125.530216 
L 122.635367 123.682098 
L 122.708634 123.074497 
L 122.781901 125.049199 
L 122.855168 124.289698 
L 122.928435 122.720063 
L 123.001702 123.985898 
L 123.074969 123.859314 
L 123.148236 124.315015 
L 123.221503 122.21373 
L 123.29477 122.340313 
L 123.368037 122.36563 
L 123.441304 123.783364 
L 123.514571 123.403614 
L 123.587838 123.479564 
L 123.734372 121.808662 
L 123.807639 123.327664 
L 123.880906 121.909929 
L 123.954173 122.163096 
L 124.02744 122.542846 
L 124.173974 119.555477 
L 124.247241 119.732694 
L 124.320508 120.694728 
L 124.467042 118.163059 
L 124.613576 120.973212 
L 124.76011 119.22636 
L 124.979911 120.720045 
L 125.126445 117.783308 
L 125.199712 119.555477 
L 125.419512 116.517474 
L 125.785847 113.479471 
L 125.932381 113.352887 
L 126.005648 111.403502 
L 126.078915 111.707303 
L 126.152182 112.745287 
L 126.298716 110.517418 
L 126.371983 111.049069 
L 126.44525 111.074385 
L 126.518517 110.821218 
L 126.738318 107.276882 
L 126.811585 107.504732 
L 126.884852 108.112332 
L 126.958119 105.53003 
L 127.031386 107.099665 
L 127.251187 100.719858 
L 127.397721 98.846423 
L 127.764056 89.884314 
L 128.789793 39.276248 
L 129.009594 22.086215 
L 129.082861 22.921665 
L 129.229395 13.377273 
L 129.375929 15.073491 
L 130.474934 76.415835 
L 130.548201 76.314568 
L 130.768002 86.289344 
L 130.841269 86.112127 
L 131.134337 94.897019 
L 131.207604 94.264102 
L 131.354138 96.972988 
L 131.500672 100.618592 
L 131.573939 100.010991 
L 131.647206 100.871759 
L 131.720472 104.947746 
L 131.793739 101.681893 
L 132.01354 106.441431 
L 132.086807 105.859147 
L 132.379875 111.454136 
L 132.453142 110.289568 
L 132.892744 114.947839 
L 132.966011 116.213674 
L 133.039278 115.85924 
L 133.112545 116.061773 
L 133.185812 117.302291 
L 133.259079 116.340257 
L 133.47888 118.112425 
L 133.625414 116.922541 
L 133.698681 118.795976 
L 133.771948 116.441524 
L 133.991749 120.644095 
L 134.065016 119.960544 
L 134.284817 121.201062 
L 134.504618 121.833979 
L 134.577885 124.061848 
L 134.651152 122.340313 
L 134.724419 122.568163 
L 134.870953 123.504881 
L 134.944219 122.998547 
L 135.017486 124.036531 
L 135.090753 121.631446 
L 135.16402 124.036531 
L 135.237287 121.327645 
L 135.457088 125.555533 
L 135.530355 123.226397 
L 135.603622 124.998566 
L 135.676889 124.087165 
L 135.823423 125.150466 
L 135.89669 124.315015 
L 135.969957 124.973249 
L 136.116491 127.074534 
L 136.189758 127.454285 
L 136.263025 125.479583 
L 136.409559 127.808718 
L 136.482826 127.783402 
L 136.556093 127.985935 
L 136.62936 126.644151 
L 136.702627 129.353037 
L 136.775894 128.644169 
L 136.849161 126.796051 
L 136.922428 127.530235 
L 136.995695 128.011252 
L 137.068962 127.302385 
L 137.215496 130.466971 
L 137.36203 127.985935 
L 137.435297 129.656837 
L 137.508564 129.09987 
L 137.581831 128.441636 
L 137.655098 128.644169 
L 137.801632 128.365686 
L 138.021433 130.112537 
L 138.241233 128.137835 
L 138.3145 130.163171 
L 138.387767 127.909985 
L 138.461034 130.391021 
L 138.534301 129.732787 
L 138.607568 129.70747 
L 138.754102 131.099888 
L 138.827369 130.872038 
L 138.900636 130.315071 
L 139.04717 131.403689 
L 139.120437 129.530253 
L 139.193704 130.441654 
L 139.266971 129.353037 
L 139.340238 129.78342 
L 139.413505 131.403689 
L 139.560039 129.70747 
L 139.999641 131.454322 
L 140.072908 130.644188 
L 140.146175 131.884706 
L 140.219442 131.099888 
L 140.292709 131.251788 
L 140.365976 131.226472 
L 140.439243 130.036587 
L 140.585777 132.315089 
L 140.952112 131.302422 
L 141.025379 131.935339 
L 141.098646 130.694821 
L 141.171913 131.935339 
L 141.24518 131.732806 
L 141.318447 130.973305 
L 141.391713 132.416356 
L 141.538247 130.720138 
L 141.684781 131.960656 
L 141.758048 131.302422 
L 141.831315 131.479639 
L 141.977849 131.732806 
L 142.051116 131.656855 
L 142.124383 132.84674 
L 142.19765 131.656855 
L 142.270917 132.163189 
L 142.417451 131.530272 
L 142.490718 132.036606 
L 142.563985 133.504974 
L 142.783786 131.150522 
L 142.93032 133.530291 
L 143.003587 132.036606 
L 143.076854 132.872057 
L 143.150121 132.163189 
L 143.223388 133.555607 
L 143.296655 132.77079 
L 143.369922 133.049273 
L 143.443189 132.948007 
L 143.516456 133.606241 
L 143.589723 133.454341 
L 143.809524 133.125224 
L 143.882791 132.340406 
L 144.029325 133.707507 
L 144.175859 130.137854 
L 144.322393 132.99864 
L 144.39566 131.783439 
L 144.468927 133.935358 
L 144.542194 133.682191 
L 144.615461 133.631557 
L 144.835261 132.84674 
L 144.908528 133.960674 
L 144.981795 133.22649 
L 145.055062 133.758141 
L 145.201596 131.606222 
L 145.274863 134.011308 
L 145.34813 133.758141 
L 145.494664 133.023957 
L 145.567931 133.884724 
L 145.641198 132.391039 
L 145.714465 133.859408 
L 145.787732 133.580924 
L 145.860999 133.859408 
L 145.934266 133.530291 
L 146.007533 132.391039 
L 146.154067 134.467008 
L 146.227334 134.391058 
L 146.300601 133.30244 
L 146.373868 133.859408 
L 146.447135 134.188525 
L 146.520402 132.087239 
L 146.593669 133.580924 
L 146.666936 133.30244 
L 146.740203 134.289791 
L 146.81347 133.099907 
L 146.960004 134.517642 
L 147.106538 133.07459 
L 147.179805 133.023957 
L 147.253072 133.201174 
L 147.326339 133.707507 
L 147.399606 132.340406 
L 147.54614 134.264475 
L 147.619407 133.15054 
L 147.692674 135.631576 
L 147.839208 133.732824 
L 147.912474 133.707507 
L 147.985741 133.884724 
L 148.059008 133.834091 
L 148.132275 133.732824 
L 148.205542 132.720156 
L 148.278809 132.872057 
L 148.352076 134.796125 
L 148.49861 132.568256 
L 148.645144 133.22649 
L 148.718411 133.023957 
L 148.791678 133.530291 
L 148.864945 132.897373 
L 149.011479 133.454341 
L 149.084746 132.796107 
L 149.377814 135.327776 
L 149.597615 133.353074 
L 149.670882 133.37839 
L 149.744149 134.239158 
L 149.96395 133.175857 
L 150.037217 134.770808 
L 150.110484 133.125224 
L 150.183751 133.353074 
L 150.257018 134.441692 
L 150.330285 133.859408 
L 150.476819 134.188525 
L 150.550086 132.340406 
L 150.623353 134.264475 
L 150.69662 134.213841 
L 150.843154 133.555607 
L 151.136221 134.315108 
L 151.282755 133.22649 
L 151.356022 134.011308 
L 151.502556 132.897373 
L 151.722357 134.872075 
L 151.795624 134.720175 
L 151.868891 133.758141 
L 151.942158 134.213841 
L 152.015425 134.593592 
L 152.161959 131.935339 
L 152.308493 134.846759 
L 152.38176 133.758141 
L 152.528294 135.023975 
L 152.748095 133.834091 
L 152.821362 135.175876 
L 152.894629 133.859408 
L 152.967896 134.391058 
L 153.041163 133.429024 
L 153.187697 133.985991 
L 153.260964 132.84674 
L 153.334231 134.669542 
L 153.407498 133.580924 
L 153.480765 134.416375 
L 153.554032 133.175857 
L 153.627299 135.201192 
L 153.8471 132.948007 
L 153.993634 135.251826 
L 154.140168 133.251807 
L 154.213435 135.732843 
L 154.359968 133.403707 
L 154.433235 134.239158 
L 154.506502 133.479657 
L 154.726303 134.720175 
L 154.79957 134.213841 
L 154.946104 134.694858 
L 155.019371 133.023957 
L 155.092638 133.834091 
L 155.165905 134.618908 
L 155.239172 133.935358 
L 155.312439 135.251826 
L 155.385706 134.618908 
L 155.458973 134.694858 
L 155.53224 134.618908 
L 155.605507 132.46699 
L 155.678774 134.770808 
L 155.752041 134.163208 
L 155.825308 132.948007 
L 155.971842 134.340425 
L 156.118376 132.669523 
L 156.26491 133.758141 
L 156.338177 134.163208 
L 156.411444 133.403707 
L 156.484711 135.353092 
L 156.557978 134.922709 
L 156.631245 134.416375 
L 156.704512 132.340406 
L 156.777779 133.656874 
L 156.851046 133.15054 
L 156.924313 133.783458 
L 157.070847 132.897373 
L 157.217381 134.315108 
L 157.363915 133.504974 
L 157.437182 135.83411 
L 157.583715 132.54294 
L 157.656982 133.049273 
L 157.803516 135.580943 
L 157.876783 132.821423 
L 157.95005 134.745492 
L 158.096584 132.821423 
L 158.169851 133.099907 
L 158.243118 134.745492 
L 158.316385 134.239158 
L 158.389652 134.112575 
L 158.609453 135.074609 
L 158.68272 133.859408 
L 158.755987 133.960674 
L 158.829254 135.91006 
L 158.902521 133.834091 
L 158.975788 134.467008 
L 159.049055 134.340425 
L 159.122322 133.783458 
L 159.195589 135.125242 
L 159.268856 134.745492 
L 159.342123 134.796125 
L 159.41539 134.239158 
L 159.488657 135.251826 
L 159.635191 133.023957 
L 159.781725 134.517642 
L 159.854992 133.555607 
L 159.928259 135.049292 
L 160.074793 133.606241 
L 160.14806 135.226509 
L 160.367861 132.365723 
L 160.514395 135.226509 
L 160.587662 134.087258 
L 160.734196 135.707526 
L 160.807462 132.897373 
L 160.880729 134.036624 
L 160.953996 134.036624 
L 161.10053 136.922727 
L 161.320331 133.758141 
L 161.393598 135.859426 
L 161.540132 134.163208 
L 161.613399 134.391058 
L 161.759933 133.30244 
L 161.8332 135.378409 
L 161.906467 134.441692 
L 161.979734 135.606259 
L 162.053001 133.099907 
L 162.126268 133.175857 
L 162.272802 136.264493 
L 162.346069 133.859408 
L 162.419336 135.83411 
L 162.492603 135.175876 
L 162.639137 134.137891 
L 162.785671 135.099925 
L 162.858938 134.264475 
L 162.932205 135.099925 
L 163.005472 134.973342 
L 163.152006 133.454341 
L 163.225273 134.137891 
L 163.29854 134.289791 
L 163.371807 133.935358 
L 163.445074 135.682209 
L 163.664875 133.403707 
L 163.738142 133.175857 
L 163.884676 133.985991 
L 163.957943 133.37839 
L 164.104476 134.745492 
L 164.177743 133.479657 
L 164.25101 134.391058 
L 164.324277 134.315108 
L 164.397544 133.049273 
L 164.470811 134.872075 
L 164.544078 134.213841 
L 164.617345 134.061941 
L 164.690612 134.745492 
L 164.763879 133.353074 
L 164.837146 134.897392 
L 164.98368 132.46699 
L 165.056947 135.125242 
L 165.130214 134.137891 
L 165.203481 134.821442 
L 165.276748 133.30244 
L 165.350015 133.403707 
L 165.423282 133.429024 
L 165.496549 134.644225 
L 165.569816 133.530291 
L 165.643083 134.542958 
L 165.71635 132.315089 
L 165.789617 133.277124 
L 165.862884 134.036624 
L 165.936151 133.783458 
L 166.009418 133.960674 
L 166.082685 133.15054 
L 166.155952 134.441692 
L 166.302486 133.277124 
L 166.375753 134.720175 
L 166.44902 133.808774 
L 166.595554 134.872075 
L 166.668821 133.251807 
L 166.742088 134.441692 
L 166.815355 134.036624 
L 166.888622 133.884724 
L 166.961889 135.099925 
L 167.035156 132.821423 
L 167.108423 133.530291 
L 167.18169 134.011308 
L 167.254956 135.277142 
L 167.328223 133.656874 
L 167.40149 133.935358 
L 167.621291 133.175857 
L 167.767825 135.099925 
L 167.841092 133.606241 
L 167.914359 135.327776 
L 167.987626 133.454341 
L 168.060893 134.770808 
L 168.207427 133.580924 
L 168.280694 133.656874 
L 168.353961 134.163208 
L 168.427228 133.479657 
L 168.573762 135.023975 
L 168.647029 134.568275 
L 168.720296 133.530291 
L 168.793563 134.264475 
L 168.940097 132.77079 
L 169.086631 134.922709 
L 169.159898 133.403707 
L 169.233165 133.707507 
L 169.306432 134.239158 
L 169.379699 133.960674 
L 169.452966 132.340406 
L 169.5995 134.391058 
L 169.672767 132.92269 
L 169.746034 133.403707 
L 169.819301 132.745473 
L 169.892568 132.821423 
L 170.185636 133.935358 
L 170.33217 134.720175 
L 170.405437 131.074572 
L 170.55197 133.30244 
L 170.625237 133.631557 
L 170.771771 132.77079 
L 170.845038 134.897392 
L 170.918305 134.315108 
L 171.064839 132.492306 
L 171.138106 133.859408 
L 171.211373 133.707507 
L 171.28464 132.897373 
L 171.431174 134.087258 
L 171.504441 132.188506 
L 171.577708 133.580924 
L 171.650975 131.960656 
L 171.724242 132.340406 
L 171.944043 133.15054 
L 172.01731 132.92269 
L 172.090577 132.112556 
L 172.237111 133.935358 
L 172.310378 131.682172 
L 172.383645 133.985991 
L 172.530179 132.087239 
L 172.823247 133.429024 
L 172.896514 131.479639 
L 172.969781 133.277124 
L 173.043048 131.910022 
L 173.116315 134.315108 
L 173.262849 132.365723 
L 173.336116 133.504974 
L 173.555917 132.112556 
L 173.629184 132.796107 
L 173.702451 132.340406 
L 173.775717 134.289791 
L 173.848984 132.213823 
L 173.922251 132.948007 
L 173.995518 132.568256 
L 174.142052 134.137891 
L 174.288586 132.365723 
L 174.361853 133.07459 
L 174.43512 132.92269 
L 174.508387 132.137873 
L 174.654921 133.37839 
L 174.874722 131.429005 
L 175.021256 133.479657 
L 175.16779 132.745473 
L 175.314324 133.454341 
L 175.460858 132.036606 
L 175.534125 133.049273 
L 175.607392 132.289773 
L 175.680659 133.530291 
L 175.753926 131.099888 
L 175.827193 132.087239 
L 175.90046 132.137873 
L 175.973727 131.403689 
L 176.120261 133.201174 
L 176.266795 130.947988 
L 176.340062 131.910022 
L 176.413329 130.922671 
L 176.486596 132.593573 
L 176.559863 131.808756 
L 176.63313 130.821405 
L 176.706397 132.441673 
L 176.779664 130.872038 
L 176.852931 131.631539 
L 176.926198 131.960656 
L 177.072731 130.821405 
L 177.145998 131.504955 
L 177.219265 129.85937 
L 177.365799 131.910022 
L 177.512333 130.365704 
L 177.5856 131.150522 
L 177.658867 129.17582 
L 177.732134 129.910004 
L 177.805401 131.175838 
L 177.878668 130.947988 
L 177.951935 131.580905 
L 178.025202 130.01127 
L 178.098469 130.973305 
L 178.171736 128.821386 
L 178.245003 128.872019 
L 178.391537 129.656837 
L 178.538071 128.466952 
L 178.611338 130.365704 
L 178.831139 127.732768 
L 178.904406 129.302403 
L 179.05094 128.011252 
L 179.124207 129.201136 
L 179.270741 127.074534 
L 179.344008 127.909985 
L 179.417275 127.580868 
L 179.490542 127.378335 
L 179.637076 126.289717 
L 179.710343 126.644151 
L 179.856877 125.909966 
L 179.930144 126.644151 
L 180.076678 124.821349 
L 180.223211 125.454266 
L 180.296478 124.466915 
L 180.369745 124.720082 
L 180.443012 124.947932 
L 180.516279 122.871963 
L 180.589546 123.504881 
L 180.662813 123.302347 
L 180.73608 121.125112 
L 180.809347 122.694747 
L 180.955881 120.390928 
L 181.029148 120.998528 
L 181.175682 118.492176 
L 181.248949 119.201043 
L 181.46875 115.808607 
L 181.835085 111.504769 
L 181.908352 108.466766 
L 181.981619 110.871852 
L 182.128153 103.555328 
L 182.20142 104.036345 
L 182.567755 94.314735 
L 182.714289 89.808364 
L 182.93409 83.453875 
L 183.007357 82.972858 
L 183.227158 74.365183 
L 183.373692 75.960134 
L 183.446958 74.719616 
L 183.813293 80.744989 
L 184.033094 87.555179 
L 184.106361 87.631129 
L 184.545963 101.226192 
L 184.61923 101.504676 
L 184.692497 102.289493 
L 184.912298 108.6693 
L 184.985565 107.859165 
L 185.058832 107.985749 
L 185.278633 112.821237 
L 185.3519 112.770604 
L 185.644968 116.846591 
L 185.718235 114.365555 
L 185.791502 118.213692 
L 185.864769 117.251658 
L 186.08457 120.770678 
L 186.231104 117.909892 
L 186.377638 121.049162 
L 186.450905 120.011177 
L 186.524172 120.416244 
L 186.670705 123.631464 
L 186.817239 121.682079 
L 186.890506 122.112463 
L 186.963773 122.390946 
L 187.110307 124.289698 
L 187.183574 124.390965 
L 187.256841 126.011233 
L 187.330108 124.137798 
L 187.403375 126.061867 
L 187.476642 125.454266 
L 187.549909 123.403614 
L 187.696443 125.88465 
L 187.842977 124.947932 
L 187.989511 126.897317 
L 188.062778 126.770734 
L 188.209312 127.884668 
L 188.282579 126.846684 
L 188.355846 127.353018 
L 188.429113 126.466934 
L 188.50238 128.087202 
L 188.575647 128.036569 
L 188.648914 128.315052 
L 188.722181 127.707452 
L 188.795448 128.618852 
L 188.868715 127.935302 
L 189.015249 130.188487 
L 189.088516 128.568219 
L 189.161783 128.669486 
L 189.23505 129.02392 
L 189.308317 130.01127 
L 189.381584 128.542902 
L 189.454851 128.694803 
L 189.674652 130.846721 
L 189.821186 130.796088 
L 189.894452 129.40367 
L 189.967719 131.403689 
L 190.040986 130.087221 
L 190.114253 130.821405 
L 190.18752 130.796088 
L 190.260787 130.416338 
L 190.334054 130.998621 
L 190.407321 129.40367 
L 190.700389 131.935339 
L 190.773656 131.479639 
L 190.773656 131.479639 
" clip-path="url(#pecb25f6b48)" style="fill: none; stroke: #1f77b4; stroke-width: 0.5; stroke-linecap: square"/>
   </g>
   <g id="patch_3">
    <path d="M 23.410313 143.1 
L 23.410313 7.2 
" style="fill: none; stroke: #000000; stroke-width: 0.8; stroke-linejoin: miter; stroke-linecap: square"/>
   </g>
   <g id="patch_4">
    <path d="M 190.810313 143.1 
L 190.810313 7.2 
" style="fill: none; stroke: #000000; stroke-width: 0.8; stroke-linejoin: miter; stroke-linecap: square"/>
   </g>
   <g id="patch_5">
    <path d="M 23.410313 143.1 
L 190.810313 143.1 
" style="fill: none; stroke: #000000; stroke-width: 0.8; stroke-linejoin: miter; stroke-linecap: square"/>
   </g>
   <g id="patch_6">
    <path d="M 23.410313 7.2 
L 190.810313 7.2 
" style="fill: none; stroke: #000000; stroke-width: 0.8; stroke-linejoin: miter; stroke-linecap: square"/>
   </g>
  </g>
 </g>
 <defs>
  <clipPath id="pecb25f6b48">
   <rect x="23.410313" y="7.2" width="167.4" height="135.9"/>
  </clipPath>
 </defs>
</svg>
