<?xml version="1.0" encoding="utf-8" standalone="no"?>
<!DOCTYPE svg PUBLIC "-//W3C//DTD SVG 1.1//EN"
  "http://www.w3.org/Graphics/SVG/1.1/DTD/svg11.dtd">
<svg xmlns:xlink="http://www.w3.org/1999/xlink" width="198.010312pt" height="177.752813pt" viewBox="0 0 198.010312 177.752813" xmlns="http://www.w3.org/2000/svg" version="1.1">
 <metadata>
  <rdf:RDF xmlns:dc="http://purl.org/dc/elements/1.1/" xmlns:cc="http://creativecommons.org/ns#" xmlns:rdf="http://www.w3.org/1999/02/22-rdf-syntax-ns#">
   <cc:Work>
    <dc:type rdf:resource="http://purl.org/dc/dcmitype/StillImage"/>
    <dc:date>2023-02-25T15:25:05.688124</dc:date>
    <dc:format>image/svg+xml</dc:format>
    <dc:creator>
     <cc:Agent>
      <dc:title>Matplotlib v3.5.2, https://matplotlib.org/</dc:title>
     </cc:Agent>
    </dc:creator>
   </cc:Work>
  </rdf:RDF>
 </metadata>
 <defs>
  <style type="text/css">*{stroke-linejoin: round; stroke-linecap: butt}</style>
 </defs>
 <g id="figure_1">
  <g id="patch_1">
   <path d="M 0 177.752813 
L 198.010312 177.752813 
L 198.010312 0 
L 0 0 
z
" style="fill: #ffffff"/>
  </g>
  <g id="axes_1">
   <g id="patch_2">
    <path d="M 23.410313 143.1 
L 190.810313 143.1 
L 190.810313 7.2 
L 23.410313 7.2 
z
" style="fill: #ffffff"/>
   </g>
   <g id="matplotlib.axis_1">
    <g id="xtick_1">
     <g id="line2d_1">
      <defs>
       <path id="m2e5abd5005" d="M 0 0 
L 0 3.5 
" style="stroke: #000000; stroke-width: 0.8"/>
      </defs>
      <g>
       <use xlink:href="#m2e5abd5005" x="37.360313" y="143.1" style="stroke: #000000; stroke-width: 0.8"/>
      </g>
     </g>
     <g id="text_1">
      <!-- 10 -->
      <g transform="translate(32.270313 156.17875)scale(0.08 -0.08)">
       <defs>
        <path id="DejaVuSans-31" d="M 794 531 
L 1825 531 
L 1825 4091 
L 703 3866 
L 703 4441 
L 1819 4666 
L 2450 4666 
L 2450 531 
L 3481 531 
L 3481 0 
L 794 0 
L 794 531 
z
" transform="scale(0.015625)"/>
        <path id="DejaVuSans-30" d="M 2034 4250 
Q 1547 4250 1301 3770 
Q 1056 3291 1056 2328 
Q 1056 1369 1301 889 
Q 1547 409 2034 409 
Q 2525 409 2770 889 
Q 3016 1369 3016 2328 
Q 3016 3291 2770 3770 
Q 2525 4250 2034 4250 
z
M 2034 4750 
Q 2819 4750 3233 4129 
Q 3647 3509 3647 2328 
Q 3647 1150 3233 529 
Q 2819 -91 2034 -91 
Q 1250 -91 836 529 
Q 422 1150 422 2328 
Q 422 3509 836 4129 
Q 1250 4750 2034 4750 
z
" transform="scale(0.015625)"/>
       </defs>
       <use xlink:href="#DejaVuSans-31"/>
       <use xlink:href="#DejaVuSans-30" x="63.623047"/>
      </g>
     </g>
    </g>
    <g id="xtick_2">
     <g id="line2d_2">
      <g>
       <use xlink:href="#m2e5abd5005" x="65.260312" y="143.1" style="stroke: #000000; stroke-width: 0.8"/>
      </g>
     </g>
     <g id="text_2">
      <!-- 20 -->
      <g transform="translate(60.170312 156.17875)scale(0.08 -0.08)">
       <defs>
        <path id="DejaVuSans-32" d="M 1228 531 
L 3431 531 
L 3431 0 
L 469 0 
L 469 531 
Q 828 903 1448 1529 
Q 2069 2156 2228 2338 
Q 2531 2678 2651 2914 
Q 2772 3150 2772 3378 
Q 2772 3750 2511 3984 
Q 2250 4219 1831 4219 
Q 1534 4219 1204 4116 
Q 875 4013 500 3803 
L 500 4441 
Q 881 4594 1212 4672 
Q 1544 4750 1819 4750 
Q 2544 4750 2975 4387 
Q 3406 4025 3406 3419 
Q 3406 3131 3298 2873 
Q 3191 2616 2906 2266 
Q 2828 2175 2409 1742 
Q 1991 1309 1228 531 
z
" transform="scale(0.015625)"/>
       </defs>
       <use xlink:href="#DejaVuSans-32"/>
       <use xlink:href="#DejaVuSans-30" x="63.623047"/>
      </g>
     </g>
    </g>
    <g id="xtick_3">
     <g id="line2d_3">
      <g>
       <use xlink:href="#m2e5abd5005" x="93.160313" y="143.1" style="stroke: #000000; stroke-width: 0.8"/>
      </g>
     </g>
     <g id="text_3">
      <!-- 30 -->
      <g transform="translate(88.070312 156.17875)scale(0.08 -0.08)">
       <defs>
        <path id="DejaVuSans-33" d="M 2597 2516 
Q 3050 2419 3304 2112 
Q 3559 1806 3559 1356 
Q 3559 666 3084 287 
Q 2609 -91 1734 -91 
Q 1441 -91 1130 -33 
Q 819 25 488 141 
L 488 750 
Q 750 597 1062 519 
Q 1375 441 1716 441 
Q 2309 441 2620 675 
Q 2931 909 2931 1356 
Q 2931 1769 2642 2001 
Q 2353 2234 1838 2234 
L 1294 2234 
L 1294 2753 
L 1863 2753 
Q 2328 2753 2575 2939 
Q 2822 3125 2822 3475 
Q 2822 3834 2567 4026 
Q 2313 4219 1838 4219 
Q 1578 4219 1281 4162 
Q 984 4106 628 3988 
L 628 4550 
Q 988 4650 1302 4700 
Q 1616 4750 1894 4750 
Q 2613 4750 3031 4423 
Q 3450 4097 3450 3541 
Q 3450 3153 3228 2886 
Q 3006 2619 2597 2516 
z
" transform="scale(0.015625)"/>
       </defs>
       <use xlink:href="#DejaVuSans-33"/>
       <use xlink:href="#DejaVuSans-30" x="63.623047"/>
      </g>
     </g>
    </g>
    <g id="xtick_4">
     <g id="line2d_4">
      <g>
       <use xlink:href="#m2e5abd5005" x="121.060312" y="143.1" style="stroke: #000000; stroke-width: 0.8"/>
      </g>
     </g>
     <g id="text_4">
      <!-- 40 -->
      <g transform="translate(115.970312 156.17875)scale(0.08 -0.08)">
       <defs>
        <path id="DejaVuSans-34" d="M 2419 4116 
L 825 1625 
L 2419 1625 
L 2419 4116 
z
M 2253 4666 
L 3047 4666 
L 3047 1625 
L 3713 1625 
L 3713 1100 
L 3047 1100 
L 3047 0 
L 2419 0 
L 2419 1100 
L 313 1100 
L 313 1709 
L 2253 4666 
z
" transform="scale(0.015625)"/>
       </defs>
       <use xlink:href="#DejaVuSans-34"/>
       <use xlink:href="#DejaVuSans-30" x="63.623047"/>
      </g>
     </g>
    </g>
    <g id="xtick_5">
     <g id="line2d_5">
      <g>
       <use xlink:href="#m2e5abd5005" x="148.960313" y="143.1" style="stroke: #000000; stroke-width: 0.8"/>
      </g>
     </g>
     <g id="text_5">
      <!-- 50 -->
      <g transform="translate(143.870313 156.17875)scale(0.08 -0.08)">
       <defs>
        <path id="DejaVuSans-35" d="M 691 4666 
L 3169 4666 
L 3169 4134 
L 1269 4134 
L 1269 2991 
Q 1406 3038 1543 3061 
Q 1681 3084 1819 3084 
Q 2600 3084 3056 2656 
Q 3513 2228 3513 1497 
Q 3513 744 3044 326 
Q 2575 -91 1722 -91 
Q 1428 -91 1123 -41 
Q 819 9 494 109 
L 494 744 
Q 775 591 1075 516 
Q 1375 441 1709 441 
Q 2250 441 2565 725 
Q 2881 1009 2881 1497 
Q 2881 1984 2565 2268 
Q 2250 2553 1709 2553 
Q 1456 2553 1204 2497 
Q 953 2441 691 2322 
L 691 4666 
z
" transform="scale(0.015625)"/>
       </defs>
       <use xlink:href="#DejaVuSans-35"/>
       <use xlink:href="#DejaVuSans-30" x="63.623047"/>
      </g>
     </g>
    </g>
    <g id="xtick_6">
     <g id="line2d_6">
      <g>
       <use xlink:href="#m2e5abd5005" x="176.860313" y="143.1" style="stroke: #000000; stroke-width: 0.8"/>
      </g>
     </g>
     <g id="text_6">
      <!-- 60 -->
      <g transform="translate(171.770313 156.17875)scale(0.08 -0.08)">
       <defs>
        <path id="DejaVuSans-36" d="M 2113 2584 
Q 1688 2584 1439 2293 
Q 1191 2003 1191 1497 
Q 1191 994 1439 701 
Q 1688 409 2113 409 
Q 2538 409 2786 701 
Q 3034 994 3034 1497 
Q 3034 2003 2786 2293 
Q 2538 2584 2113 2584 
z
M 3366 4563 
L 3366 3988 
Q 3128 4100 2886 4159 
Q 2644 4219 2406 4219 
Q 1781 4219 1451 3797 
Q 1122 3375 1075 2522 
Q 1259 2794 1537 2939 
Q 1816 3084 2150 3084 
Q 2853 3084 3261 2657 
Q 3669 2231 3669 1497 
Q 3669 778 3244 343 
Q 2819 -91 2113 -91 
Q 1303 -91 875 529 
Q 447 1150 447 2328 
Q 447 3434 972 4092 
Q 1497 4750 2381 4750 
Q 2619 4750 2861 4703 
Q 3103 4656 3366 4563 
z
" transform="scale(0.015625)"/>
       </defs>
       <use xlink:href="#DejaVuSans-36"/>
       <use xlink:href="#DejaVuSans-30" x="63.623047"/>
      </g>
     </g>
    </g>
    <g id="xtick_7">
     <g id="line2d_7">
      <defs>
       <path id="m99dc75f7f9" d="M 0 0 
L 0 2 
" style="stroke: #000000; stroke-width: 0.6"/>
      </defs>
      <g>
       <use xlink:href="#m99dc75f7f9" x="23.410313" y="143.1" style="stroke: #000000; stroke-width: 0.6"/>
      </g>
     </g>
    </g>
    <g id="xtick_8">
     <g id="line2d_8">
      <g>
       <use xlink:href="#m99dc75f7f9" x="30.385313" y="143.1" style="stroke: #000000; stroke-width: 0.6"/>
      </g>
     </g>
    </g>
    <g id="xtick_9">
     <g id="line2d_9">
      <g>
       <use xlink:href="#m99dc75f7f9" x="44.335313" y="143.1" style="stroke: #000000; stroke-width: 0.6"/>
      </g>
     </g>
    </g>
    <g id="xtick_10">
     <g id="line2d_10">
      <g>
       <use xlink:href="#m99dc75f7f9" x="51.310313" y="143.1" style="stroke: #000000; stroke-width: 0.6"/>
      </g>
     </g>
    </g>
    <g id="xtick_11">
     <g id="line2d_11">
      <g>
       <use xlink:href="#m99dc75f7f9" x="58.285313" y="143.1" style="stroke: #000000; stroke-width: 0.6"/>
      </g>
     </g>
    </g>
    <g id="xtick_12">
     <g id="line2d_12">
      <g>
       <use xlink:href="#m99dc75f7f9" x="72.235313" y="143.1" style="stroke: #000000; stroke-width: 0.6"/>
      </g>
     </g>
    </g>
    <g id="xtick_13">
     <g id="line2d_13">
      <g>
       <use xlink:href="#m99dc75f7f9" x="79.210313" y="143.1" style="stroke: #000000; stroke-width: 0.6"/>
      </g>
     </g>
    </g>
    <g id="xtick_14">
     <g id="line2d_14">
      <g>
       <use xlink:href="#m99dc75f7f9" x="86.185312" y="143.1" style="stroke: #000000; stroke-width: 0.6"/>
      </g>
     </g>
    </g>
    <g id="xtick_15">
     <g id="line2d_15">
      <g>
       <use xlink:href="#m99dc75f7f9" x="100.135312" y="143.1" style="stroke: #000000; stroke-width: 0.6"/>
      </g>
     </g>
    </g>
    <g id="xtick_16">
     <g id="line2d_16">
      <g>
       <use xlink:href="#m99dc75f7f9" x="107.110313" y="143.1" style="stroke: #000000; stroke-width: 0.6"/>
      </g>
     </g>
    </g>
    <g id="xtick_17">
     <g id="line2d_17">
      <g>
       <use xlink:href="#m99dc75f7f9" x="114.085313" y="143.1" style="stroke: #000000; stroke-width: 0.6"/>
      </g>
     </g>
    </g>
    <g id="xtick_18">
     <g id="line2d_18">
      <g>
       <use xlink:href="#m99dc75f7f9" x="128.035313" y="143.1" style="stroke: #000000; stroke-width: 0.6"/>
      </g>
     </g>
    </g>
    <g id="xtick_19">
     <g id="line2d_19">
      <g>
       <use xlink:href="#m99dc75f7f9" x="135.010312" y="143.1" style="stroke: #000000; stroke-width: 0.6"/>
      </g>
     </g>
    </g>
    <g id="xtick_20">
     <g id="line2d_20">
      <g>
       <use xlink:href="#m99dc75f7f9" x="141.985313" y="143.1" style="stroke: #000000; stroke-width: 0.6"/>
      </g>
     </g>
    </g>
    <g id="xtick_21">
     <g id="line2d_21">
      <g>
       <use xlink:href="#m99dc75f7f9" x="155.935313" y="143.1" style="stroke: #000000; stroke-width: 0.6"/>
      </g>
     </g>
    </g>
    <g id="xtick_22">
     <g id="line2d_22">
      <g>
       <use xlink:href="#m99dc75f7f9" x="162.910313" y="143.1" style="stroke: #000000; stroke-width: 0.6"/>
      </g>
     </g>
    </g>
    <g id="xtick_23">
     <g id="line2d_23">
      <g>
       <use xlink:href="#m99dc75f7f9" x="169.885313" y="143.1" style="stroke: #000000; stroke-width: 0.6"/>
      </g>
     </g>
    </g>
    <g id="xtick_24">
     <g id="line2d_24">
      <g>
       <use xlink:href="#m99dc75f7f9" x="183.835313" y="143.1" style="stroke: #000000; stroke-width: 0.6"/>
      </g>
     </g>
    </g>
    <g id="xtick_25">
     <g id="line2d_25">
      <g>
       <use xlink:href="#m99dc75f7f9" x="190.810313" y="143.1" style="stroke: #000000; stroke-width: 0.6"/>
      </g>
     </g>
    </g>
    <g id="text_7">
     <!-- Two Theta (degrees) -->
     <g transform="translate(61.294688 168.681094)scale(0.09 -0.09)">
      <defs>
       <path id="DejaVuSans-54" d="M -19 4666 
L 3928 4666 
L 3928 4134 
L 2272 4134 
L 2272 0 
L 1638 0 
L 1638 4134 
L -19 4134 
L -19 4666 
z
" transform="scale(0.015625)"/>
       <path id="DejaVuSans-77" d="M 269 3500 
L 844 3500 
L 1563 769 
L 2278 3500 
L 2956 3500 
L 3675 769 
L 4391 3500 
L 4966 3500 
L 4050 0 
L 3372 0 
L 2619 2869 
L 1863 0 
L 1184 0 
L 269 3500 
z
" transform="scale(0.015625)"/>
       <path id="DejaVuSans-6f" d="M 1959 3097 
Q 1497 3097 1228 2736 
Q 959 2375 959 1747 
Q 959 1119 1226 758 
Q 1494 397 1959 397 
Q 2419 397 2687 759 
Q 2956 1122 2956 1747 
Q 2956 2369 2687 2733 
Q 2419 3097 1959 3097 
z
M 1959 3584 
Q 2709 3584 3137 3096 
Q 3566 2609 3566 1747 
Q 3566 888 3137 398 
Q 2709 -91 1959 -91 
Q 1206 -91 779 398 
Q 353 888 353 1747 
Q 353 2609 779 3096 
Q 1206 3584 1959 3584 
z
" transform="scale(0.015625)"/>
       <path id="DejaVuSans-20" transform="scale(0.015625)"/>
       <path id="DejaVuSans-68" d="M 3513 2113 
L 3513 0 
L 2938 0 
L 2938 2094 
Q 2938 2591 2744 2837 
Q 2550 3084 2163 3084 
Q 1697 3084 1428 2787 
Q 1159 2491 1159 1978 
L 1159 0 
L 581 0 
L 581 4863 
L 1159 4863 
L 1159 2956 
Q 1366 3272 1645 3428 
Q 1925 3584 2291 3584 
Q 2894 3584 3203 3211 
Q 3513 2838 3513 2113 
z
" transform="scale(0.015625)"/>
       <path id="DejaVuSans-65" d="M 3597 1894 
L 3597 1613 
L 953 1613 
Q 991 1019 1311 708 
Q 1631 397 2203 397 
Q 2534 397 2845 478 
Q 3156 559 3463 722 
L 3463 178 
Q 3153 47 2828 -22 
Q 2503 -91 2169 -91 
Q 1331 -91 842 396 
Q 353 884 353 1716 
Q 353 2575 817 3079 
Q 1281 3584 2069 3584 
Q 2775 3584 3186 3129 
Q 3597 2675 3597 1894 
z
M 3022 2063 
Q 3016 2534 2758 2815 
Q 2500 3097 2075 3097 
Q 1594 3097 1305 2825 
Q 1016 2553 972 2059 
L 3022 2063 
z
" transform="scale(0.015625)"/>
       <path id="DejaVuSans-74" d="M 1172 4494 
L 1172 3500 
L 2356 3500 
L 2356 3053 
L 1172 3053 
L 1172 1153 
Q 1172 725 1289 603 
Q 1406 481 1766 481 
L 2356 481 
L 2356 0 
L 1766 0 
Q 1100 0 847 248 
Q 594 497 594 1153 
L 594 3053 
L 172 3053 
L 172 3500 
L 594 3500 
L 594 4494 
L 1172 4494 
z
" transform="scale(0.015625)"/>
       <path id="DejaVuSans-61" d="M 2194 1759 
Q 1497 1759 1228 1600 
Q 959 1441 959 1056 
Q 959 750 1161 570 
Q 1363 391 1709 391 
Q 2188 391 2477 730 
Q 2766 1069 2766 1631 
L 2766 1759 
L 2194 1759 
z
M 3341 1997 
L 3341 0 
L 2766 0 
L 2766 531 
Q 2569 213 2275 61 
Q 1981 -91 1556 -91 
Q 1019 -91 701 211 
Q 384 513 384 1019 
Q 384 1609 779 1909 
Q 1175 2209 1959 2209 
L 2766 2209 
L 2766 2266 
Q 2766 2663 2505 2880 
Q 2244 3097 1772 3097 
Q 1472 3097 1187 3025 
Q 903 2953 641 2809 
L 641 3341 
Q 956 3463 1253 3523 
Q 1550 3584 1831 3584 
Q 2591 3584 2966 3190 
Q 3341 2797 3341 1997 
z
" transform="scale(0.015625)"/>
       <path id="DejaVuSans-28" d="M 1984 4856 
Q 1566 4138 1362 3434 
Q 1159 2731 1159 2009 
Q 1159 1288 1364 580 
Q 1569 -128 1984 -844 
L 1484 -844 
Q 1016 -109 783 600 
Q 550 1309 550 2009 
Q 550 2706 781 3412 
Q 1013 4119 1484 4856 
L 1984 4856 
z
" transform="scale(0.015625)"/>
       <path id="DejaVuSans-64" d="M 2906 2969 
L 2906 4863 
L 3481 4863 
L 3481 0 
L 2906 0 
L 2906 525 
Q 2725 213 2448 61 
Q 2172 -91 1784 -91 
Q 1150 -91 751 415 
Q 353 922 353 1747 
Q 353 2572 751 3078 
Q 1150 3584 1784 3584 
Q 2172 3584 2448 3432 
Q 2725 3281 2906 2969 
z
M 947 1747 
Q 947 1113 1208 752 
Q 1469 391 1925 391 
Q 2381 391 2643 752 
Q 2906 1113 2906 1747 
Q 2906 2381 2643 2742 
Q 2381 3103 1925 3103 
Q 1469 3103 1208 2742 
Q 947 2381 947 1747 
z
" transform="scale(0.015625)"/>
       <path id="DejaVuSans-67" d="M 2906 1791 
Q 2906 2416 2648 2759 
Q 2391 3103 1925 3103 
Q 1463 3103 1205 2759 
Q 947 2416 947 1791 
Q 947 1169 1205 825 
Q 1463 481 1925 481 
Q 2391 481 2648 825 
Q 2906 1169 2906 1791 
z
M 3481 434 
Q 3481 -459 3084 -895 
Q 2688 -1331 1869 -1331 
Q 1566 -1331 1297 -1286 
Q 1028 -1241 775 -1147 
L 775 -588 
Q 1028 -725 1275 -790 
Q 1522 -856 1778 -856 
Q 2344 -856 2625 -561 
Q 2906 -266 2906 331 
L 2906 616 
Q 2728 306 2450 153 
Q 2172 0 1784 0 
Q 1141 0 747 490 
Q 353 981 353 1791 
Q 353 2603 747 3093 
Q 1141 3584 1784 3584 
Q 2172 3584 2450 3431 
Q 2728 3278 2906 2969 
L 2906 3500 
L 3481 3500 
L 3481 434 
z
" transform="scale(0.015625)"/>
       <path id="DejaVuSans-72" d="M 2631 2963 
Q 2534 3019 2420 3045 
Q 2306 3072 2169 3072 
Q 1681 3072 1420 2755 
Q 1159 2438 1159 1844 
L 1159 0 
L 581 0 
L 581 3500 
L 1159 3500 
L 1159 2956 
Q 1341 3275 1631 3429 
Q 1922 3584 2338 3584 
Q 2397 3584 2469 3576 
Q 2541 3569 2628 3553 
L 2631 2963 
z
" transform="scale(0.015625)"/>
       <path id="DejaVuSans-73" d="M 2834 3397 
L 2834 2853 
Q 2591 2978 2328 3040 
Q 2066 3103 1784 3103 
Q 1356 3103 1142 2972 
Q 928 2841 928 2578 
Q 928 2378 1081 2264 
Q 1234 2150 1697 2047 
L 1894 2003 
Q 2506 1872 2764 1633 
Q 3022 1394 3022 966 
Q 3022 478 2636 193 
Q 2250 -91 1575 -91 
Q 1294 -91 989 -36 
Q 684 19 347 128 
L 347 722 
Q 666 556 975 473 
Q 1284 391 1588 391 
Q 1994 391 2212 530 
Q 2431 669 2431 922 
Q 2431 1156 2273 1281 
Q 2116 1406 1581 1522 
L 1381 1569 
Q 847 1681 609 1914 
Q 372 2147 372 2553 
Q 372 3047 722 3315 
Q 1072 3584 1716 3584 
Q 2034 3584 2315 3537 
Q 2597 3491 2834 3397 
z
" transform="scale(0.015625)"/>
       <path id="DejaVuSans-29" d="M 513 4856 
L 1013 4856 
Q 1481 4119 1714 3412 
Q 1947 2706 1947 2009 
Q 1947 1309 1714 600 
Q 1481 -109 1013 -844 
L 513 -844 
Q 928 -128 1133 580 
Q 1338 1288 1338 2009 
Q 1338 2731 1133 3434 
Q 928 4138 513 4856 
z
" transform="scale(0.015625)"/>
      </defs>
      <use xlink:href="#DejaVuSans-54"/>
      <use xlink:href="#DejaVuSans-77" x="44.583984"/>
      <use xlink:href="#DejaVuSans-6f" x="126.371094"/>
      <use xlink:href="#DejaVuSans-20" x="187.552734"/>
      <use xlink:href="#DejaVuSans-54" x="219.339844"/>
      <use xlink:href="#DejaVuSans-68" x="280.423828"/>
      <use xlink:href="#DejaVuSans-65" x="343.802734"/>
      <use xlink:href="#DejaVuSans-74" x="405.326172"/>
      <use xlink:href="#DejaVuSans-61" x="444.535156"/>
      <use xlink:href="#DejaVuSans-20" x="505.814453"/>
      <use xlink:href="#DejaVuSans-28" x="537.601562"/>
      <use xlink:href="#DejaVuSans-64" x="576.615234"/>
      <use xlink:href="#DejaVuSans-65" x="640.091797"/>
      <use xlink:href="#DejaVuSans-67" x="701.615234"/>
      <use xlink:href="#DejaVuSans-72" x="765.091797"/>
      <use xlink:href="#DejaVuSans-65" x="803.955078"/>
      <use xlink:href="#DejaVuSans-65" x="865.478516"/>
      <use xlink:href="#DejaVuSans-73" x="927.001953"/>
      <use xlink:href="#DejaVuSans-29" x="979.101562"/>
     </g>
    </g>
   </g>
   <g id="matplotlib.axis_2">
    <g id="ytick_1">
     <g id="line2d_26"/>
    </g>
    <g id="ytick_2">
     <g id="line2d_27"/>
    </g>
    <g id="ytick_3">
     <g id="line2d_28"/>
    </g>
    <g id="ytick_4">
     <g id="line2d_29"/>
    </g>
    <g id="ytick_5">
     <g id="line2d_30"/>
    </g>
    <g id="text_8">
     <!-- Intensity -->
     <g transform="translate(14.038594 94.73625)rotate(-90)scale(0.09 -0.09)">
      <defs>
       <path id="DejaVuSans-49" d="M 628 4666 
L 1259 4666 
L 1259 0 
L 628 0 
L 628 4666 
z
" transform="scale(0.015625)"/>
       <path id="DejaVuSans-6e" d="M 3513 2113 
L 3513 0 
L 2938 0 
L 2938 2094 
Q 2938 2591 2744 2837 
Q 2550 3084 2163 3084 
Q 1697 3084 1428 2787 
Q 1159 2491 1159 1978 
L 1159 0 
L 581 0 
L 581 3500 
L 1159 3500 
L 1159 2956 
Q 1366 3272 1645 3428 
Q 1925 3584 2291 3584 
Q 2894 3584 3203 3211 
Q 3513 2838 3513 2113 
z
" transform="scale(0.015625)"/>
       <path id="DejaVuSans-69" d="M 603 3500 
L 1178 3500 
L 1178 0 
L 603 0 
L 603 3500 
z
M 603 4863 
L 1178 4863 
L 1178 4134 
L 603 4134 
L 603 4863 
z
" transform="scale(0.015625)"/>
       <path id="DejaVuSans-79" d="M 2059 -325 
Q 1816 -950 1584 -1140 
Q 1353 -1331 966 -1331 
L 506 -1331 
L 506 -850 
L 844 -850 
Q 1081 -850 1212 -737 
Q 1344 -625 1503 -206 
L 1606 56 
L 191 3500 
L 800 3500 
L 1894 763 
L 2988 3500 
L 3597 3500 
L 2059 -325 
z
" transform="scale(0.015625)"/>
      </defs>
      <use xlink:href="#DejaVuSans-49"/>
      <use xlink:href="#DejaVuSans-6e" x="29.492188"/>
      <use xlink:href="#DejaVuSans-74" x="92.871094"/>
      <use xlink:href="#DejaVuSans-65" x="132.080078"/>
      <use xlink:href="#DejaVuSans-6e" x="193.603516"/>
      <use xlink:href="#DejaVuSans-73" x="256.982422"/>
      <use xlink:href="#DejaVuSans-69" x="309.082031"/>
      <use xlink:href="#DejaVuSans-74" x="336.865234"/>
      <use xlink:href="#DejaVuSans-79" x="376.074219"/>
     </g>
    </g>
   </g>
   <g id="line2d_31">
    <path d="M 23.43188 49.099678 
L 23.505147 51.566913 
L 23.578414 47.183635 
L 23.724948 53.981653 
L 23.798215 52.748036 
L 23.871482 50.517026 
L 23.944749 54.637832 
L 24.018016 51.199452 
L 24.091283 51.934373 
L 24.16455 56.42264 
L 24.237817 53.929159 
L 24.311084 58.128707 
L 24.384351 57.315044 
L 24.530885 60.622188 
L 24.604152 56.842595 
L 24.677419 60.490953 
L 24.750686 58.942369 
L 24.823953 57.971224 
L 24.970487 61.803311 
L 25.043753 59.519807 
L 25.263554 62.74821 
L 25.410088 59.782279 
L 25.483355 66.081601 
L 25.556622 64.375535 
L 25.629889 61.619581 
L 25.703156 67.420207 
L 25.776423 63.430636 
L 25.84969 64.244299 
L 25.922957 63.141917 
L 26.069491 67.472701 
L 26.142758 64.13931 
L 26.216025 64.690501 
L 26.289292 66.265331 
L 26.362559 65.241691 
L 26.435826 66.501556 
L 26.509093 63.798097 
L 26.655627 66.239084 
L 26.728894 65.057961 
L 26.802161 65.320433 
L 26.875428 67.39396 
L 26.948695 67.288971 
L 27.168496 63.95558 
L 27.241763 68.102633 
L 27.31503 67.57769 
L 27.388297 64.952972 
L 27.461564 70.83234 
L 27.534831 68.128881 
L 27.608098 70.674857 
L 27.681365 69.414992 
L 27.827899 67.656431 
L 27.974433 70.596115 
L 28.0477 67.866409 
L 28.120967 68.680071 
L 28.194234 72.328429 
L 28.2675 70.806092 
L 28.340767 69.62497 
L 28.487301 72.22344 
L 28.633835 69.966183 
L 28.780369 72.302181 
L 28.853636 71.882227 
L 29.073437 74.165731 
L 29.219971 72.958361 
L 29.366505 73.982001 
L 29.586306 70.018677 
L 29.73284 73.273327 
L 29.806107 71.882227 
L 30.025908 75.714314 
L 30.099175 72.853372 
L 30.172442 74.218225 
L 30.245709 74.27072 
L 30.318976 73.745776 
L 30.392243 76.449235 
L 30.46551 76.344246 
L 30.538777 73.850765 
L 30.612044 76.265505 
L 30.685311 76.134269 
L 30.758578 76.842943 
L 30.831845 73.982001 
L 30.905112 76.842943 
L 30.978379 75.950539 
L 31.051646 73.089597 
L 31.124913 77.315392 
L 31.19818 75.268112 
L 31.271447 78.312785 
L 31.344714 77.289145 
L 31.564514 74.428203 
L 31.637781 74.244472 
L 31.857582 79.546402 
L 31.930849 75.294359 
L 32.077383 78.312785 
L 32.15065 77.184156 
L 32.223917 78.680245 
L 32.297184 75.66182 
L 32.443718 78.811481 
L 32.590252 75.793056 
L 32.663519 76.081775 
L 32.810053 76.842943 
L 32.88332 80.333817 
L 32.956587 77.735347 
L 33.029854 79.257683 
L 33.103121 79.126447 
L 33.176388 79.1002 
L 33.249655 80.806266 
L 33.322922 79.887615 
L 33.469456 82.564827 
L 33.689257 78.758987 
L 33.762524 78.785234 
L 33.835791 80.596289 
L 33.909058 79.992604 
L 33.982325 81.409951 
L 34.055592 79.46766 
L 34.128859 82.90604 
L 34.202126 80.727525 
L 34.275393 81.777412 
L 34.34866 82.643569 
L 34.421927 78.522762 
L 34.495194 81.856153 
L 34.568461 79.28393 
L 34.641728 81.226221 
L 34.714994 81.199974 
L 34.788261 80.885008 
L 34.861528 82.984782 
L 34.934795 81.409951 
L 35.008062 83.588467 
L 35.081329 81.829906 
L 35.154596 84.480871 
L 35.227863 81.751165 
L 35.30113 82.302355 
L 35.447664 85.661994 
L 35.594198 82.328602 
L 35.667465 82.486086 
L 35.740732 81.226221 
L 35.887266 84.900826 
L 35.960533 83.483478 
L 36.0338 83.483478 
L 36.107067 84.244646 
L 36.180334 82.748557 
L 36.326868 85.268286 
L 36.400135 82.90604 
L 36.546669 87.997992 
L 36.76647 83.693456 
L 36.839737 86.213184 
L 36.913004 84.717095 
L 36.986271 85.79323 
L 37.132805 82.591074 
L 37.279339 86.606892 
L 37.352606 84.270893 
L 37.425873 85.268286 
L 37.49914 86.265679 
L 37.572407 86.134443 
L 37.718941 84.612107 
L 37.792208 86.790622 
L 37.938741 84.087163 
L 38.231809 88.916643 
L 38.305076 85.661994 
L 38.378343 86.948105 
L 38.524877 85.609499 
L 38.598144 85.740735 
L 38.671411 87.499296 
L 38.744678 86.003207 
L 38.817945 89.809047 
L 38.891212 87.079341 
L 38.964479 88.20797 
L 39.037746 89.887789 
L 39.111013 84.848331 
L 39.257547 90.412732 
L 39.404081 85.478264 
L 39.477348 89.520329 
L 39.550615 86.029454 
L 39.623882 87.656779 
L 39.697149 90.885182 
L 39.770416 88.470442 
L 39.843683 88.969138 
L 39.91695 88.339206 
L 39.990217 88.942891 
L 40.063484 88.129228 
L 40.136751 89.887789 
L 40.210018 87.840509 
L 40.283285 90.386485 
L 40.503086 87.578038 
L 40.64962 92.250035 
L 40.722887 91.121406 
L 40.796154 90.858934 
L 40.942688 86.580645 
L 41.162488 92.538754 
L 41.235755 91.173901 
L 41.309022 87.683026 
L 41.455556 90.307744 
L 41.528823 91.331384 
L 41.60209 88.129228 
L 41.675357 92.276282 
L 41.748624 91.751338 
L 41.895158 89.520329 
L 42.041692 91.147653 
L 42.188226 90.570216 
L 42.261493 90.753946 
L 42.554561 92.932461 
L 42.701095 91.331384 
L 42.847629 92.591248 
L 42.920896 92.643742 
L 42.994163 91.436372 
L 43.140697 92.932461 
L 43.360498 91.46262 
L 43.433765 91.672597 
L 43.507032 90.885182 
L 43.580299 92.328776 
L 43.653566 91.541361 
L 43.726833 92.092552 
L 43.8001 94.087337 
L 43.873367 92.145046 
L 44.019901 93.483652 
L 44.093168 91.252642 
L 44.166435 94.113584 
L 44.312969 91.567608 
L 44.386235 93.824865 
L 44.459502 92.118799 
L 44.532769 92.460012 
L 44.606036 93.483652 
L 44.679303 90.43898 
L 44.899104 94.113584 
L 45.045638 90.071519 
L 45.192172 96.633313 
L 45.265439 92.407518 
L 45.338706 93.378663 
L 45.558507 96.344594 
L 45.631774 92.879967 
L 45.778308 96.003381 
L 45.851575 95.163471 
L 45.924842 92.66999 
L 45.998109 93.956101 
L 46.071376 95.032235 
L 46.144643 94.323562 
L 46.291177 97.6832 
L 46.364444 92.407518 
L 46.437711 92.774978 
L 46.510978 96.528324 
L 46.584245 96.344594 
L 46.657512 94.743516 
L 46.730779 96.895785 
L 46.804046 95.872145 
L 46.877313 92.722484 
L 46.95058 95.714662 
L 47.023847 93.40491 
L 47.097114 95.425943 
L 47.170381 94.113584 
L 47.243648 94.848505 
L 47.316915 97.132009 
L 47.390182 96.528324 
L 47.609983 94.271067 
L 47.683249 95.63592 
L 47.756516 93.903607 
L 47.90305 96.528324 
L 47.976317 95.347201 
L 48.122851 97.289492 
L 48.269385 94.953494 
L 48.342652 98.391874 
L 48.562453 93.929854 
L 48.63572 96.764549 
L 48.708987 95.924639 
L 48.782254 97.394481 
L 48.855521 94.402303 
L 48.928788 96.213358 
L 49.002055 94.533539 
L 49.075322 94.979741 
L 49.221856 97.604459 
L 49.441657 92.958708 
L 49.514924 96.84329 
L 49.588191 95.662168 
L 49.734725 98.470615 
L 49.807992 97.893177 
L 49.881259 94.166079 
L 49.954526 94.559786 
L 50.027793 93.168686 
L 50.10106 96.502077 
L 50.174327 93.562394 
L 50.247594 95.609673 
L 50.320861 95.478437 
L 50.394128 96.502077 
L 50.467395 94.087337 
L 50.613929 95.45219 
L 50.687196 95.399696 
L 50.760463 93.457405 
L 50.980263 97.551964 
L 51.346598 94.192326 
L 51.493132 96.712055 
L 51.566399 96.502077 
L 51.7862 94.376056 
L 51.859467 96.502077 
L 51.932734 95.373449 
L 52.006001 95.740909 
L 52.079268 95.557179 
L 52.152535 96.685807 
L 52.225802 96.607066 
L 52.299069 95.242213 
L 52.372336 96.055875 
L 52.445603 94.769764 
L 52.51887 96.869538 
L 52.592137 93.483652 
L 52.665404 95.347201 
L 52.738671 92.748731 
L 52.811938 93.667382 
L 52.885205 95.347201 
L 52.958472 94.612281 
L 53.031739 94.848505 
L 53.105006 97.840683 
L 53.25154 93.641135 
L 53.398074 95.294707 
L 53.471341 91.882574 
L 53.691142 96.213358 
L 53.910943 92.958708 
L 53.98421 94.087337 
L 54.057477 92.171293 
L 54.20401 95.819651 
L 54.277277 92.355023 
L 54.350544 92.66999 
L 54.423811 91.383878 
L 54.497078 95.294707 
L 54.570345 94.42855 
L 54.716879 90.675204 
L 54.863413 93.247427 
L 55.083214 91.173901 
L 55.229748 91.147653 
L 55.303015 91.698844 
L 55.376282 91.593855 
L 55.449549 89.730306 
L 55.522816 92.407518 
L 55.596083 92.223788 
L 55.66935 93.614888 
L 55.742617 90.386485 
L 55.815884 90.465227 
L 55.889151 91.147653 
L 55.962418 90.911429 
L 56.035685 91.173901 
L 56.108952 91.095159 
L 56.182219 91.068912 
L 56.255486 91.777586 
L 56.475287 87.131836 
L 56.548554 90.543968 
L 56.621821 89.310351 
L 56.695088 89.310351 
L 56.768355 91.173901 
L 56.988156 88.155475 
L 57.061423 89.940283 
L 57.13469 88.601677 
L 57.207957 88.864149 
L 57.281224 89.441587 
L 57.427757 85.819477 
L 57.501024 89.520329 
L 57.574291 86.265679 
L 57.647558 87.735521 
L 57.794092 85.635747 
L 57.867359 86.685634 
L 57.940626 86.16069 
L 58.013893 84.402129 
L 58.08716 86.108196 
L 58.233694 84.507118 
L 58.380228 87.158083 
L 58.526762 81.567434 
L 58.600029 84.638354 
L 58.673296 83.457231 
L 58.746563 83.168512 
L 58.81983 86.423162 
L 58.893097 82.118625 
L 58.966364 83.221006 
L 59.039631 80.071345 
L 59.186165 83.877186 
L 59.259432 83.614714 
L 59.332699 84.297141 
L 59.405966 81.619929 
L 59.479233 84.270893 
L 59.5525 79.782626 
L 59.699034 83.903433 
L 59.772301 80.858761 
L 59.845568 81.068738 
L 59.918835 81.252468 
L 60.138636 78.653998 
L 60.211903 79.257683 
L 60.28517 79.178941 
L 60.504971 75.950539 
L 60.578237 77.7091 
L 60.651504 76.291752 
L 60.724771 81.593682 
L 60.871305 75.556831 
L 60.944572 79.205189 
L 61.017839 73.194585 
L 61.091106 76.134269 
L 61.23764 73.299574 
L 61.310907 77.394133 
L 61.384174 73.982001 
L 61.457441 75.635573 
L 61.750509 72.879619 
L 61.897043 69.887441 
L 61.97031 70.622362 
L 62.043577 70.228655 
L 62.116844 74.559439 
L 62.263378 70.044924 
L 62.336645 70.911081 
L 62.409912 70.727351 
L 62.483179 68.890049 
L 62.556446 71.226047 
L 62.629713 71.01607 
L 62.70298 68.837554 
L 62.776247 69.310003 
L 62.922781 71.987215 
L 62.996048 68.496341 
L 63.069315 68.78506 
L 63.142582 67.840162 
L 63.215849 64.008074 
L 63.289116 67.105241 
L 63.362383 64.638006 
L 63.43565 65.241691 
L 63.508917 65.792882 
L 63.655451 64.769242 
L 63.728718 65.372927 
L 63.801984 62.249513 
L 63.875251 63.063176 
L 63.948518 61.9083 
L 64.021785 63.2994 
L 64.095052 60.333469 
L 64.241586 62.328255 
L 64.38812 59.782279 
L 64.461387 60.333469 
L 64.534654 56.212663 
L 64.681188 59.782279 
L 64.974256 54.060395 
L 65.047523 58.207448 
L 65.12079 51.514419 
L 65.194057 52.43307 
L 65.267324 50.805745 
L 65.340591 51.59316 
L 65.413858 50.543273 
L 65.487125 45.057613 
L 65.560392 47.734825 
L 65.780193 41.383009 
L 65.926727 38.627055 
L 66.146528 32.17025 
L 66.293062 36.474787 
L 66.366329 36.474787 
L 66.439596 36.238562 
L 66.58613 33.246384 
L 66.732664 37.47218 
L 66.805931 34.270024 
L 66.879198 40.018156 
L 66.952465 38.548314 
L 67.025731 38.207101 
L 67.098998 34.768721 
L 67.172265 36.107327 
L 67.245532 36.658517 
L 67.318799 41.487998 
L 67.392066 40.779324 
L 67.5386 35.372406 
L 67.685134 39.073257 
L 67.758401 37.078472 
L 67.831668 37.918382 
L 67.904935 37.28845 
L 67.978202 38.810786 
L 68.051469 36.291057 
L 68.198003 38.522067 
L 68.637605 28.941848 
L 68.710872 32.222745 
L 69.150474 17.156866 
L 69.297008 22.852503 
L 69.370275 13.377273 
L 69.443542 18.128011 
L 69.73661 27.209534 
L 69.809877 23.53493 
L 69.883144 31.199105 
L 69.956411 28.653129 
L 70.029678 32.353981 
L 70.102945 28.968095 
L 70.176212 30.542925 
L 70.322745 36.317304 
L 70.396012 33.01016 
L 70.542546 39.020763 
L 70.68908 34.558743 
L 70.762347 37.787146 
L 70.835614 36.501034 
L 70.908881 37.603416 
L 71.055415 34.060047 
L 71.128682 40.07065 
L 71.201949 38.915774 
L 71.275216 40.464358 
L 71.42175 33.85007 
L 71.495017 39.729437 
L 71.568284 35.398653 
L 71.641551 36.527281 
L 71.788085 38.102112 
L 71.861352 40.621841 
L 71.934619 37.025978 
L 72.007886 39.755684 
L 72.081153 36.999731 
L 72.227687 39.283235 
L 72.300954 38.364584 
L 72.374221 38.417078 
L 72.447488 40.201886 
L 72.594022 38.075865 
L 72.740556 38.942022 
L 72.813823 38.443325 
L 72.960357 39.571954 
L 73.033624 39.309482 
L 73.106891 39.755684 
L 73.180158 39.676942 
L 73.253425 41.960447 
L 73.326692 40.543099 
L 73.399959 41.724222 
L 73.546492 39.256988 
L 73.619759 44.506423 
L 73.693026 43.614019 
L 73.766293 41.592986 
L 73.83956 41.645481 
L 73.912827 43.850243 
L 73.986094 41.855458 
L 74.059361 45.74004 
L 74.132628 45.477568 
L 74.205895 46.291231 
L 74.279162 45.425074 
L 74.352429 47.314871 
L 74.425696 44.060221 
L 74.498963 47.944803 
L 74.57223 47.367365 
L 74.645497 47.629837 
L 74.718764 51.146958 
L 74.792031 48.627229 
L 74.865298 49.703363 
L 75.011832 50.307048 
L 75.085099 46.76368 
L 75.158366 48.548488 
L 75.378167 52.958013 
L 75.451434 52.721789 
L 75.524701 53.299226 
L 75.597968 52.249339 
L 75.671235 55.740214 
L 75.744502 54.427855 
L 75.817769 53.325474 
L 75.891036 56.133921 
L 75.964303 53.220485 
L 76.03757 55.110282 
L 76.110837 53.089249 
L 76.184104 53.82417 
L 76.257371 53.482957 
L 76.330638 60.123492 
L 76.403905 57.026325 
L 76.550439 58.312437 
L 76.623706 56.343899 
L 76.696973 56.685112 
L 76.770239 59.49356 
L 76.843506 58.259943 
L 76.916773 59.624796 
L 76.99004 56.081427 
L 77.063307 59.178594 
L 77.136574 58.46992 
L 77.209841 59.519807 
L 77.283108 56.475135 
L 77.502909 61.488345 
L 77.576176 59.756032 
L 77.649443 62.511985 
L 77.72271 61.567087 
L 77.795977 60.989649 
L 77.869244 61.934547 
L 77.942511 61.435851 
L 78.015778 63.693108 
L 78.089045 63.220659 
L 78.162312 64.690501 
L 78.235579 63.089423 
L 78.308846 63.168164 
L 78.382113 63.719355 
L 78.45538 66.580297 
L 78.528647 62.669468 
L 78.748448 66.580297 
L 78.821715 66.73778 
L 78.968249 63.666861 
L 79.041516 68.496341 
L 79.114783 66.869016 
L 79.334584 65.950365 
L 79.407851 69.99243 
L 79.481118 68.627577 
L 79.554385 69.703711 
L 79.700919 66.029107 
L 79.774186 68.522588 
L 79.847453 64.926725 
L 79.993986 71.619755 
L 80.067253 68.732566 
L 80.14052 71.829732 
L 80.213787 68.916296 
L 80.287054 72.617148 
L 80.360321 71.829732 
L 80.433588 71.121059 
L 80.506855 74.191978 
L 80.580122 70.35989 
L 80.653389 74.848157 
L 80.726656 72.485912 
L 80.799923 75.031888 
L 80.946457 71.672249 
L 81.019724 73.772023 
L 81.092991 72.22344 
L 81.166258 72.40717 
L 81.239525 74.323214 
L 81.312792 71.672249 
L 81.532593 77.577864 
L 81.679127 73.693282 
L 81.752394 74.323214 
L 81.825661 76.213011 
L 81.898928 75.320607 
L 81.972195 76.842943 
L 82.045462 75.399348 
L 82.118729 77.604111 
L 82.265263 75.556831 
L 82.33853 77.630358 
L 82.411797 76.396741 
L 82.631598 79.362672 
L 82.704865 76.659213 
L 82.778132 77.23665 
L 82.924666 80.517547 
L 82.997933 80.202581 
L 83.0712 80.596289 
L 83.144467 77.315392 
L 83.217733 79.887615 
L 83.291 78.129054 
L 83.364267 81.856153 
L 83.437534 81.383704 
L 83.657335 78.653998 
L 83.803869 82.827299 
L 83.877136 81.226221 
L 83.950403 81.751165 
L 84.02367 82.013636 
L 84.096937 81.567434 
L 84.170204 79.756379 
L 84.316738 83.142265 
L 84.390005 81.908648 
L 84.463272 82.669816 
L 84.536539 82.118625 
L 84.609806 85.242039 
L 84.683073 83.719703 
L 84.75634 84.848331 
L 84.902874 83.011029 
L 84.976141 83.116018 
L 85.269209 87.814262 
L 85.342476 87.18433 
L 85.415743 84.874578 
L 85.48901 86.816869 
L 85.562277 84.428376 
L 85.635544 84.979567 
L 85.708811 85.583252 
L 85.855345 87.893004 
L 85.928612 85.032062 
L 86.001879 85.740735 
L 86.075146 85.819477 
L 86.148413 89.152868 
L 86.22168 88.286711 
L 86.294947 87.55179 
L 86.368214 90.229002 
L 86.44148 87.236824 
L 86.514747 90.071519 
L 86.588014 87.866756 
L 86.661281 89.100374 
L 86.734548 87.210577 
L 86.954349 92.512507 
L 87.100883 89.625317 
L 87.247417 92.223788 
L 87.393951 89.940283 
L 87.467218 90.124014 
L 87.540485 92.407518 
L 87.613752 90.780193 
L 87.687019 93.22118 
L 87.90682 88.20797 
L 88.199888 93.87736 
L 88.273155 93.588641 
L 88.346422 91.357631 
L 88.419689 95.189718 
L 88.566223 92.145046 
L 88.63949 91.856327 
L 88.712757 92.066305 
L 88.859291 95.110977 
L 88.932558 91.488867 
L 89.005825 93.431158 
L 89.079092 92.171293 
L 89.152359 96.160864 
L 89.225626 92.66999 
L 89.298893 95.583426 
L 89.37216 95.08473 
L 89.445427 94.008596 
L 89.518694 94.034843 
L 89.738494 97.105762 
L 89.811761 94.743516 
L 89.885028 96.397088 
L 89.958295 94.927247 
L 90.031562 96.712055 
L 90.178096 94.06109 
L 90.251363 95.557179 
L 90.32463 95.347201 
L 90.397897 94.796011 
L 90.471164 98.365627 
L 90.544431 97.210751 
L 90.617698 97.053268 
L 90.690965 95.662168 
L 90.764232 99.651738 
L 90.837499 96.2921 
L 90.984033 98.70684 
L 91.130567 98.496863 
L 91.203834 97.368234 
L 91.277101 98.759334 
L 91.350368 97.236998 
L 91.423635 100.176682 
L 91.496902 100.09794 
L 91.643436 98.155649 
L 91.716703 99.704233 
L 91.78997 96.764549 
L 91.936504 100.360412 
L 92.156305 98.391874 
L 92.229572 100.675378 
L 92.449373 98.208144 
L 92.52264 99.310525 
L 92.595907 99.205536 
L 92.669174 98.916817 
L 92.742441 101.147827 
L 92.815708 99.572997 
L 92.962241 102.223961 
L 93.035508 101.987737 
L 93.108775 101.069086 
L 93.182042 102.932635 
L 93.401843 100.859108 
L 93.47511 100.75412 
L 93.548377 102.958882 
L 93.621644 101.095333 
L 93.694911 101.882748 
L 93.768178 105.084904 
L 93.841445 101.357805 
L 93.914712 102.670163 
L 93.987979 102.906388 
L 94.061246 104.37623 
L 94.134513 102.801399 
L 94.20778 103.510073 
L 94.354314 104.140005 
L 94.427581 101.069086 
L 94.500848 105.95106 
L 94.574115 103.667556 
L 94.720649 107.893351 
L 94.793916 102.538928 
L 94.867183 106.266026 
L 94.94045 104.1925 
L 95.013717 105.294881 
L 95.086984 103.851286 
L 95.306785 105.636094 
L 95.380052 104.664949 
L 95.453319 105.39987 
L 95.526586 104.140005 
L 95.599853 104.244994 
L 95.67312 103.982522 
L 95.746387 107.394655 
L 95.819654 106.476004 
L 95.892921 106.685981 
L 95.966188 104.92742 
L 96.112722 106.79097 
L 96.185988 105.662341 
L 96.259255 106.738476 
L 96.405789 105.216139 
L 96.479056 105.5836 
L 96.698857 109.914384 
L 96.772124 104.717443 
L 96.918658 109.888137 
L 97.065192 106.082296 
L 97.138459 107.289666 
L 97.211726 105.609847 
L 97.431527 110.22935 
L 97.651328 107.604632 
L 97.797862 110.04562 
L 97.871129 108.575778 
L 98.017663 110.150608 
L 98.09093 108.602025 
L 98.164197 108.654519 
L 98.237464 109.20571 
L 98.310731 110.649305 
L 98.457265 108.287059 
L 98.530532 111.25299 
L 98.603799 110.255597 
L 98.677066 109.756901 
L 98.750333 110.675552 
L 98.896867 109.704406 
L 98.970134 113.930202 
L 99.043401 109.231957 
L 99.116668 112.092899 
L 99.189935 109.546923 
L 99.263202 109.756901 
L 99.336469 113.982696 
L 99.409735 112.355371 
L 99.483002 112.066652 
L 99.556269 110.124361 
L 99.702803 113.037798 
L 99.77607 113.037798 
L 99.849337 112.250382 
L 99.922604 112.355371 
L 99.995871 112.145394 
L 100.069138 111.489214 
L 100.142405 113.405258 
L 100.215672 112.670337 
L 100.288939 111.489214 
L 100.362206 111.515461 
L 100.50874 113.116539 
L 100.582007 110.911776 
L 100.655274 113.746471 
L 100.728541 113.641483 
L 100.875075 114.140179 
L 100.948342 112.224135 
L 101.021609 113.693977 
L 101.094876 112.775326 
L 101.314677 113.85146 
L 101.387944 113.090292 
L 101.534478 114.402651 
L 101.607745 113.037798 
L 101.681012 115.89874 
L 101.754279 113.274022 
L 101.827546 113.379011 
L 101.900813 113.037798 
L 101.97408 115.163819 
L 102.047347 113.66773 
L 102.120614 114.533887 
L 102.267148 113.379011 
L 102.340415 115.478785 
L 102.413682 113.903954 
L 102.486949 115.741257 
L 102.560216 115.347549 
L 102.633482 114.533887 
L 102.780016 117.342334 
L 102.92655 113.66773 
L 102.999817 114.560134 
L 103.073084 116.423683 
L 103.219618 114.481392 
L 103.292885 116.476178 
L 103.366152 115.137572 
L 103.439419 115.819998 
L 103.512686 116.239953 
L 103.585953 115.452538 
L 103.732487 116.712402 
L 103.805754 116.239953 
L 103.879021 114.980089 
L 103.952288 115.610021 
L 104.025555 117.841031 
L 104.098822 115.137572 
L 104.172089 116.686155 
L 104.245356 115.268808 
L 104.318623 117.158604 
L 104.39189 117.001121 
L 104.465157 116.738649 
L 104.538424 115.977481 
L 104.611691 116.2662 
L 104.684958 116.344942 
L 104.904759 117.394829 
L 104.978026 114.770111 
L 105.051293 115.321302 
L 105.12456 118.995906 
L 105.271094 116.659908 
L 105.344361 116.213706 
L 105.490895 118.575952 
L 105.564162 117.631053 
L 105.637429 119.048401 
L 105.783963 116.764897 
L 105.857229 119.809569 
L 105.930496 117.736042 
L 106.003763 118.470963 
L 106.07703 117.972267 
L 106.150297 118.339727 
L 106.223564 117.919772 
L 106.296831 118.182244 
L 106.370098 120.938197 
L 106.589899 117.28984 
L 106.663166 119.547097 
L 106.8097 116.44993 
L 106.956234 118.103503 
L 107.029501 120.465748 
L 107.176035 117.604806 
L 107.249302 117.788536 
L 107.395836 116.2662 
L 107.469103 116.633661 
L 107.54237 117.998514 
L 107.615637 117.736042 
L 107.835438 116.161212 
L 107.908705 118.051008 
L 107.981972 114.848853 
L 108.055239 115.767504 
L 108.128506 114.350156 
L 108.27504 115.977481 
L 108.348307 114.665123 
L 108.494841 116.476178 
L 108.568108 115.163819 
L 108.714642 116.161212 
L 108.787909 116.056223 
L 108.934443 118.759682 
L 109.00771 117.342334 
L 109.080976 117.946019 
L 109.22751 119.88831 
L 109.300777 117.578559 
L 109.374044 120.570737 
L 109.447311 119.33712 
L 109.667112 120.570737 
L 109.740379 120.54449 
L 109.813646 121.253164 
L 109.886913 119.415861 
L 109.96018 122.985477 
L 110.106714 119.547097 
L 110.253248 121.463141 
L 110.326515 119.678333 
L 110.473049 121.620624 
L 110.546316 121.410647 
L 110.619583 120.938197 
L 110.69285 121.358152 
L 110.766117 120.675726 
L 110.839384 121.804354 
L 110.912651 121.069433 
L 111.059185 121.988084 
L 111.205719 120.91195 
L 111.278986 123.300443 
L 111.42552 121.463141 
L 111.498787 123.772892 
L 111.572054 121.043186 
L 111.791855 124.927768 
L 112.084923 121.463141 
L 112.15819 123.457926 
L 112.231457 123.064219 
L 112.304723 123.510421 
L 112.451257 122.696758 
L 112.597791 123.877881 
L 112.671058 126.345116 
L 112.817592 122.7755 
L 112.964126 125.715183 
L 113.11066 123.851634 
L 113.183927 124.035364 
L 113.257194 123.457926 
L 113.330461 123.720398 
L 113.476995 125.216487 
L 113.550262 125.321476 
L 113.623529 126.21388 
L 113.696796 124.219094 
L 113.770063 125.032757 
L 113.84333 123.536668 
L 113.916597 126.371363 
L 113.989864 126.056397 
L 114.063131 124.297836 
L 114.136398 126.423857 
L 114.209665 125.426464 
L 114.429466 124.717791 
L 114.502733 124.770285 
L 114.576 125.688936 
L 114.649267 125.242734 
L 114.722534 125.662689 
L 114.795801 124.691544 
L 114.869068 125.478959 
L 114.942335 124.796532 
L 115.015602 127.683722 
L 115.088869 125.19024 
L 115.162136 126.633835 
L 115.30867 125.137746 
L 115.381937 126.712576 
L 115.52847 125.5577 
L 115.601737 127.499991 
L 115.748271 125.137746 
L 115.821538 127.814957 
L 115.894805 125.505206 
L 115.968072 126.450104 
L 116.041339 126.292621 
L 116.187873 127.657474 
L 116.26114 127.631227 
L 116.407674 126.082644 
L 116.480941 127.473744 
L 116.554208 126.318868 
L 116.627475 126.896306 
L 116.774009 128.261159 
L 116.920543 126.108891 
L 117.067077 127.946193 
L 117.140344 125.347723 
L 117.213611 125.846419 
L 117.286878 128.103676 
L 117.360145 127.447497 
L 117.433412 128.261159 
L 117.506679 127.657474 
L 117.653213 128.182418 
L 117.72648 126.371363 
L 117.873014 129.284799 
L 117.946281 128.864844 
L 118.019548 127.368755 
L 118.166082 128.471137 
L 118.239349 128.418642 
L 118.312616 130.098462 
L 118.385883 127.027542 
L 118.45915 128.943586 
L 118.532417 127.919946 
L 118.605684 129.416035 
L 118.678951 128.471137 
L 118.752217 130.544664 
L 118.972018 127.316261 
L 119.045285 129.284799 
L 119.118552 129.022327 
L 119.191819 128.523631 
L 119.338353 129.704754 
L 119.41162 129.626013 
L 119.484887 128.733609 
L 119.631421 130.150956 
L 119.704688 127.631227 
L 119.851222 129.573518 
L 119.924489 128.759856 
L 119.997756 130.01972 
L 120.071023 128.313654 
L 120.14429 129.232305 
L 120.217557 128.44489 
L 120.290824 131.279585 
L 120.364091 128.917339 
L 120.437358 129.179811 
L 120.510625 130.20345 
L 120.583892 130.150956 
L 120.803693 128.707361 
L 121.023494 130.308439 
L 121.096761 128.81235 
L 121.170028 130.177203 
L 121.243295 128.62862 
L 121.316562 129.993473 
L 121.389829 129.626013 
L 121.463096 128.707361 
L 121.536363 128.838597 
L 121.682897 130.150956 
L 121.756164 128.891092 
L 121.902698 131.200843 
L 121.975965 130.85963 
L 122.049231 131.04336 
L 122.122498 128.917339 
L 122.342299 130.885877 
L 122.488833 130.01972 
L 122.5621 131.778281 
L 122.635367 129.284799 
L 122.708634 130.439675 
L 122.781901 130.413428 
L 122.855168 129.599765 
L 122.928435 131.830775 
L 123.074969 129.83599 
L 123.148236 130.964618 
L 123.221503 129.862237 
L 123.29477 131.069607 
L 123.368037 128.313654 
L 123.441304 129.521024 
L 123.587838 131.437068 
L 123.661105 129.074822 
L 123.734372 130.150956 
L 123.807639 130.544664 
L 123.880906 129.232305 
L 123.954173 129.783496 
L 124.02744 131.515809 
L 124.100707 130.807135 
L 124.247241 128.969833 
L 124.467042 131.253337 
L 124.540309 129.599765 
L 124.686843 131.332079 
L 124.76011 130.282192 
L 124.833377 130.570911 
L 124.906644 131.332079 
L 124.979911 129.967226 
L 125.053178 131.095854 
L 125.126445 129.442282 
L 125.199712 131.673292 
L 125.272978 129.547271 
L 125.346245 130.229698 
L 125.419512 132.093247 
L 125.492779 129.258552 
L 125.639313 133.064392 
L 125.785847 129.284799 
L 125.859114 130.150956 
L 125.932381 129.914731 
L 126.005648 130.229698 
L 126.078915 131.935764 
L 126.225449 129.704754 
L 126.44525 130.833383 
L 126.591784 129.153563 
L 126.665051 131.542056 
L 126.738318 130.807135 
L 126.811585 129.809743 
L 126.884852 130.20345 
L 126.958119 129.83599 
L 127.031386 131.41082 
L 127.104653 131.305832 
L 127.17792 128.576125 
L 127.251187 131.122102 
L 127.324454 130.570911 
L 127.470988 130.124709 
L 127.544255 132.198236 
L 127.690789 130.597158 
L 127.764056 130.990866 
L 127.837323 129.048575 
L 127.91059 129.547271 
L 128.057124 132.119494 
L 128.276925 129.757248 
L 128.350192 131.542056 
L 128.423459 128.864844 
L 128.496725 129.442282 
L 128.569992 131.41082 
L 128.643259 129.179811 
L 128.716526 130.072214 
L 128.86306 129.127316 
L 128.936327 130.833383 
L 129.009594 128.99608 
L 129.082861 129.704754 
L 129.156128 129.809743 
L 129.229395 129.153563 
L 129.375929 130.938371 
L 129.522463 129.704754 
L 129.59573 130.728394 
L 129.668997 129.809743 
L 129.742264 129.914731 
L 129.815531 130.413428 
L 129.888798 129.547271 
L 130.035332 130.597158 
L 130.108599 130.570911 
L 130.181866 129.494777 
L 130.3284 131.909517 
L 130.401667 130.544664 
L 130.474934 131.200843 
L 130.621468 130.938371 
L 130.694735 132.040753 
L 130.841269 129.389788 
L 130.914536 130.465922 
L 131.06107 129.206058 
L 131.134337 129.468529 
L 131.207604 131.437068 
L 131.280871 131.122102 
L 131.354138 129.967226 
L 131.427405 130.597158 
L 131.500672 130.360933 
L 131.647206 129.599765 
L 131.720472 130.255945 
L 131.793739 129.626013 
L 131.940273 130.255945 
L 132.086807 128.129924 
L 132.160074 131.647045 
L 132.233341 130.177203 
L 132.306608 130.990866 
L 132.379875 129.547271 
L 132.453142 131.253337 
L 132.526409 130.990866 
L 132.599676 131.122102 
L 132.672943 131.647045 
L 132.892744 129.547271 
L 132.966011 133.09064 
L 133.039278 131.962011 
L 133.185812 131.88327 
L 133.332346 130.85963 
L 133.405613 131.568303 
L 133.552147 130.334686 
L 133.698681 131.594551 
L 133.771948 130.780888 
L 133.845215 131.647045 
L 133.918482 130.334686 
L 133.991749 132.749426 
L 134.065016 131.830775 
L 134.21155 130.360933 
L 134.284817 132.618191 
L 134.358084 131.673292 
L 134.504618 131.253337 
L 134.651152 132.854415 
L 134.797686 129.967226 
L 134.944219 132.014505 
L 135.017486 129.83599 
L 135.090753 132.067 
L 135.16402 131.41082 
L 135.237287 130.702147 
L 135.310554 131.542056 
L 135.383821 130.6759 
L 135.457088 131.988258 
L 135.530355 131.332079 
L 135.603622 130.308439 
L 135.750156 131.804528 
L 135.823423 131.515809 
L 135.89669 130.518416 
L 136.043224 132.696932 
L 136.116491 132.093247 
L 136.189758 132.723179 
L 136.336292 131.04336 
L 136.482826 132.25073 
L 136.556093 131.437068 
L 136.775894 133.038145 
L 136.849161 132.460707 
L 136.922428 133.195628 
L 136.995695 131.542056 
L 137.068962 132.565696 
L 137.142229 131.305832 
L 137.215496 131.909517 
L 137.288763 131.909517 
L 137.36203 132.171989 
L 137.435297 131.41082 
L 137.508564 131.88327 
L 137.728365 130.85963 
L 137.948166 132.749426 
L 138.021433 133.4581 
L 138.0947 132.460707 
L 138.167966 133.326864 
L 138.241233 131.542056 
L 138.3145 132.276977 
L 138.461034 132.749426 
L 138.534301 131.752034 
L 138.607568 132.276977 
L 138.680835 131.673292 
L 138.827369 132.959404 
L 138.973903 130.6759 
L 139.04717 132.43446 
L 139.120437 131.752034 
L 139.193704 132.644438 
L 139.340238 131.909517 
L 139.560039 132.644438 
L 139.633306 131.962011 
L 139.706573 132.959404 
L 139.77984 131.489562 
L 139.853107 132.25073 
L 139.926374 133.773066 
L 140.072908 132.696932 
L 140.146175 132.591943 
L 140.292709 133.195628 
L 140.365976 132.749426 
L 140.439243 133.431853 
L 140.51251 132.093247 
L 140.585777 132.43446 
L 140.659044 132.093247 
L 140.732311 132.119494 
L 140.805578 132.093247 
L 140.952112 130.807135 
L 141.098646 132.565696 
L 141.171913 132.880662 
L 141.24518 132.145741 
L 141.318447 132.408213 
L 141.391713 132.644438 
L 141.46498 133.825561 
L 141.611514 130.728394 
L 141.758048 133.851808 
L 141.831315 130.990866 
L 141.904582 132.43446 
L 141.977849 133.064392 
L 142.051116 131.594551 
L 142.124383 131.909517 
L 142.19765 133.851808 
L 142.344184 132.145741 
L 142.417451 132.303224 
L 142.490718 133.116887 
L 142.637252 131.568303 
L 142.710519 134.770459 
L 142.783786 132.696932 
L 142.857053 133.038145 
L 142.93032 132.276977 
L 143.003587 132.408213 
L 143.076854 133.773066 
L 143.150121 133.09064 
L 143.296655 132.460707 
L 143.369922 133.589336 
L 143.443189 131.699539 
L 143.516456 133.64183 
L 143.589723 131.804528 
L 143.66299 132.119494 
L 143.736257 133.4581 
L 143.809524 132.539449 
L 143.956058 133.668078 
L 144.102592 132.329472 
L 144.175859 132.565696 
L 144.249126 132.539449 
L 144.322393 132.171989 
L 144.468927 133.720572 
L 144.542194 132.933157 
L 144.615461 132.985651 
L 144.688727 132.880662 
L 144.908528 133.983044 
L 144.981795 132.539449 
L 145.055062 133.720572 
L 145.201596 132.355719 
L 145.274863 133.851808 
L 145.34813 132.145741 
L 145.421397 132.696932 
L 145.567931 133.563089 
L 145.714465 132.749426 
L 145.787732 133.904302 
L 145.860999 132.067 
L 145.934266 132.565696 
L 146.0808 133.668078 
L 146.154067 133.746819 
L 146.227334 132.513202 
L 146.300601 132.644438 
L 146.373868 132.696932 
L 146.447135 133.405606 
L 146.520402 133.248123 
L 146.666936 133.983044 
L 146.740203 133.221876 
L 146.960004 133.904302 
L 147.179805 131.778281 
L 147.399606 134.429246 
L 147.472873 134.193021 
L 147.619407 134.770459 
L 147.912474 133.09064 
L 147.985741 134.271763 
L 148.059008 132.933157 
L 148.132275 132.959404 
L 148.205542 132.539449 
L 148.278809 134.140527 
L 148.352076 133.746819 
L 148.49861 133.038145 
L 148.571877 133.851808 
L 148.645144 133.668078 
L 148.791678 134.612976 
L 149.011479 132.513202 
L 149.158013 135.006683 
L 149.304547 132.119494 
L 149.377814 133.353111 
L 149.451081 132.828168 
L 149.670882 135.426638 
L 149.744149 132.539449 
L 149.817416 134.376751 
L 149.890683 133.563089 
L 149.96395 133.536842 
L 150.037217 132.408213 
L 150.183751 134.376751 
L 150.330285 133.248123 
L 150.476819 133.930549 
L 150.550086 132.381966 
L 150.623353 134.193021 
L 150.769887 132.618191 
L 150.843154 134.271763 
L 150.916421 133.799313 
L 151.062955 132.985651 
L 151.282755 134.927942 
L 151.356022 133.878055 
L 151.429289 134.245515 
L 151.502556 134.271763 
L 151.64909 132.408213 
L 151.795624 134.744212 
L 151.868891 135.164167 
L 151.942158 132.723179 
L 152.015425 135.137919 
L 152.161959 133.510594 
L 152.235226 134.822953 
L 152.308493 133.746819 
L 152.38176 134.11428 
L 152.528294 135.006683 
L 152.821362 132.933157 
L 152.967896 135.400391 
L 153.041163 133.904302 
L 153.11443 135.111672 
L 153.187697 133.799313 
L 153.260964 135.085425 
L 153.334231 134.009291 
L 153.407498 135.899087 
L 153.554032 133.694325 
L 153.627299 134.954189 
L 153.700566 133.536842 
L 153.773833 133.668078 
L 153.8471 134.744212 
L 153.920367 134.429246 
L 153.993634 133.300617 
L 154.213435 135.794099 
L 154.359968 133.536842 
L 154.433235 134.29801 
L 154.506502 133.825561 
L 154.579769 135.846593 
L 154.653036 133.956796 
L 154.726303 135.452885 
L 154.79957 133.248123 
L 154.872837 134.901695 
L 154.946104 133.64183 
L 155.019371 135.951582 
L 155.092638 135.426638 
L 155.165905 132.933157 
L 155.239172 135.295402 
L 155.312439 134.455493 
L 155.385706 134.507987 
L 155.458973 135.059178 
L 155.53224 133.064392 
L 155.605507 135.190414 
L 155.678774 134.717965 
L 155.825308 132.801921 
L 155.898575 133.589336 
L 156.118376 134.980436 
L 156.191643 134.822953 
L 156.26491 133.4581 
L 156.338177 133.64183 
L 156.411444 135.137919 
L 156.484711 134.744212 
L 156.557978 134.455493 
L 156.631245 134.980436 
L 156.704512 134.009291 
L 156.777779 134.48174 
L 156.851046 134.717965 
L 156.924313 134.612976 
L 156.99758 134.140527 
L 157.144114 135.242908 
L 157.290648 133.615583 
L 157.437182 134.744212 
L 157.510449 134.455493 
L 157.583715 134.560481 
L 157.656982 135.216661 
L 157.803516 133.116887 
L 157.95005 135.216661 
L 158.023317 134.140527 
L 158.096584 134.429246 
L 158.169851 134.219268 
L 158.316385 135.190414 
L 158.389652 134.193021 
L 158.462919 134.691717 
L 158.536186 133.904302 
L 158.68272 134.796706 
L 158.755987 134.48174 
L 158.829254 135.190414 
L 158.902521 135.164167 
L 158.975788 135.269155 
L 159.195589 133.773066 
L 159.268856 133.064392 
L 159.342123 134.66547 
L 159.41539 132.539449 
L 159.488657 133.143134 
L 159.708458 135.216661 
L 159.781725 133.484347 
L 159.928259 134.954189 
L 160.14806 133.668078 
L 160.294594 134.534234 
L 160.367861 135.400391 
L 160.441128 134.061785 
L 160.514395 134.560481 
L 160.587662 134.560481 
L 160.660929 134.29801 
L 160.734196 136.922727 
L 160.880729 133.694325 
L 160.953996 136.371537 
L 161.027263 134.796706 
L 161.10053 136.397784 
L 161.247064 133.169381 
L 161.320331 133.536842 
L 161.393598 134.954189 
L 161.466865 134.350504 
L 161.613399 135.531627 
L 161.686666 134.376751 
L 161.759933 134.586729 
L 161.8332 135.164167 
L 161.906467 134.954189 
L 162.053001 133.799313 
L 162.126268 134.586729 
L 162.199535 134.088032 
L 162.346069 135.111672 
L 162.419336 135.032931 
L 162.492603 133.878055 
L 162.56587 135.164167 
L 162.639137 134.035538 
L 162.712404 135.137919 
L 162.932205 133.956796 
L 163.005472 133.825561 
L 163.078739 135.137919 
L 163.152006 133.011898 
L 163.225273 135.68911 
L 163.29854 135.479133 
L 163.371807 133.878055 
L 163.445074 134.66547 
L 163.518341 134.560481 
L 163.591608 136.581514 
L 163.664875 134.11428 
L 163.738142 135.164167 
L 163.884676 133.983044 
L 163.957943 134.744212 
L 164.104476 133.510594 
L 164.177743 135.164167 
L 164.25101 133.27437 
L 164.324277 134.061785 
L 164.397544 133.484347 
L 164.470811 134.088032 
L 164.544078 132.959404 
L 164.617345 134.954189 
L 164.690612 134.455493 
L 164.763879 134.11428 
L 164.837146 135.295402 
L 165.056947 132.801921 
L 165.276748 134.586729 
L 165.350015 135.715357 
L 165.423282 134.586729 
L 165.496549 134.744212 
L 165.643083 133.4581 
L 165.71635 135.347897 
L 165.789617 134.770459 
L 165.862884 133.116887 
L 165.936151 134.612976 
L 166.009418 134.586729 
L 166.082685 133.983044 
L 166.155952 135.006683 
L 166.229219 133.799313 
L 166.302486 135.164167 
L 166.375753 133.510594 
L 166.44902 134.796706 
L 166.522287 134.770459 
L 166.595554 133.536842 
L 166.668821 135.426638 
L 166.742088 133.536842 
L 166.815355 133.878055 
L 167.108423 135.400391 
L 167.254956 134.245515 
L 167.328223 134.980436 
L 167.40149 134.455493 
L 167.474757 135.347897 
L 167.548024 133.563089 
L 167.621291 135.32165 
L 167.694558 135.269155 
L 167.767825 133.248123 
L 167.841092 134.219268 
L 167.914359 135.006683 
L 167.987626 134.11428 
L 168.060893 134.901695 
L 168.280694 133.773066 
L 168.353961 134.271763 
L 168.427228 132.408213 
L 168.573762 135.794099 
L 168.647029 134.744212 
L 168.720296 134.927942 
L 168.86683 133.746819 
L 168.940097 135.032931 
L 169.086631 133.799313 
L 169.159898 133.64183 
L 169.233165 135.68911 
L 169.379699 133.589336 
L 169.672767 135.741604 
L 169.746034 134.534234 
L 169.892568 135.347897 
L 169.965835 133.956796 
L 170.039102 135.242908 
L 170.112369 135.032931 
L 170.185636 134.927942 
L 170.258903 135.452885 
L 170.405437 134.927942 
L 170.478704 136.240301 
L 170.625237 134.507987 
L 170.698504 135.374144 
L 170.991572 133.825561 
L 171.138106 134.822953 
L 171.211373 134.29801 
L 171.28464 135.164167 
L 171.357907 134.507987 
L 171.431174 134.980436 
L 171.504441 134.429246 
L 171.577708 135.269155 
L 171.650975 135.137919 
L 171.724242 135.32165 
L 171.797509 135.059178 
L 171.870776 133.668078 
L 171.944043 133.773066 
L 172.01731 133.825561 
L 172.163844 134.901695 
L 172.310378 132.801921 
L 172.383645 136.109065 
L 172.456912 134.429246 
L 172.530179 134.639223 
L 172.603446 135.741604 
L 172.676713 135.190414 
L 172.74998 134.271763 
L 172.823247 134.717965 
L 172.969781 136.686503 
L 173.043048 134.455493 
L 173.116315 135.269155 
L 173.189582 134.534234 
L 173.262849 134.717965 
L 173.48265 133.536842 
L 173.555917 134.901695 
L 173.629184 134.534234 
L 173.702451 133.536842 
L 173.775717 135.374144 
L 173.848984 133.143134 
L 174.068785 135.977829 
L 174.142052 132.696932 
L 174.215319 134.324257 
L 174.288586 133.904302 
L 174.361853 135.452885 
L 174.43512 135.269155 
L 174.508387 134.324257 
L 174.581654 134.612976 
L 174.654921 134.140527 
L 174.728188 136.135312 
L 174.801455 133.221876 
L 174.874722 133.956796 
L 175.094523 136.502772 
L 175.241057 134.088032 
L 175.314324 135.557874 
L 175.460858 134.140527 
L 175.534125 134.534234 
L 175.607392 134.271763 
L 175.753926 133.4581 
L 175.90046 134.612976 
L 175.973727 134.402998 
L 176.046994 135.87284 
L 176.120261 133.143134 
L 176.193528 134.140527 
L 176.266795 135.87284 
L 176.340062 133.799313 
L 176.413329 134.088032 
L 176.559863 134.639223 
L 176.63313 134.140527 
L 176.706397 134.927942 
L 176.779664 133.64183 
L 176.852931 134.691717 
L 176.926198 134.245515 
L 176.999464 134.402998 
L 177.072731 136.109065 
L 177.145998 135.767852 
L 177.219265 133.799313 
L 177.292532 135.557874 
L 177.365799 133.878055 
L 177.439066 134.8492 
L 177.658867 133.353111 
L 177.732134 134.822953 
L 177.805401 134.612976 
L 177.878668 134.429246 
L 177.951935 135.137919 
L 178.025202 133.353111 
L 178.098469 133.64183 
L 178.171736 135.610369 
L 178.245003 134.061785 
L 178.31827 134.455493 
L 178.464804 135.164167 
L 178.538071 134.901695 
L 178.611338 133.300617 
L 178.757872 134.48174 
L 178.831139 133.799313 
L 178.904406 134.402998 
L 178.977673 134.061785 
L 179.05094 134.822953 
L 179.124207 134.350504 
L 179.270741 135.216661 
L 179.490542 134.612976 
L 179.563809 135.610369 
L 179.78361 133.589336 
L 179.856877 134.954189 
L 179.930144 133.956796 
L 180.003411 134.29801 
L 180.076678 135.032931 
L 180.149945 134.586729 
L 180.223211 132.696932 
L 180.296478 134.8492 
L 180.369745 133.379359 
L 180.443012 133.510594 
L 180.662813 134.980436 
L 180.809347 133.956796 
L 180.882614 134.691717 
L 180.955881 134.166774 
L 181.102415 136.161559 
L 181.175682 133.668078 
L 181.248949 134.009291 
L 181.322216 134.796706 
L 181.395483 133.405606 
L 181.46875 134.980436 
L 181.542017 133.4581 
L 181.615284 134.061785 
L 181.688551 134.717965 
L 181.761818 134.061785 
L 181.835085 134.29801 
L 181.908352 134.612976 
L 181.981619 135.50538 
L 182.054886 133.589336 
L 182.20142 135.32165 
L 182.274687 135.636616 
L 182.347954 135.059178 
L 182.421221 135.846593 
L 182.494488 134.11428 
L 182.567755 134.48174 
L 182.787556 134.796706 
L 182.860823 134.11428 
L 183.080624 136.319042 
L 183.227158 132.539449 
L 183.300425 132.985651 
L 183.446958 135.820346 
L 183.593492 135.242908 
L 183.666759 133.615583 
L 183.740026 135.059178 
L 183.88656 133.379359 
L 183.959827 134.219268 
L 184.033094 134.11428 
L 184.106361 134.534234 
L 184.179628 133.484347 
L 184.326162 135.032931 
L 184.399429 133.510594 
L 184.472696 134.219268 
L 184.61923 134.11428 
L 184.692497 133.221876 
L 184.765764 135.426638 
L 184.839031 134.639223 
L 184.912298 133.773066 
L 184.985565 133.904302 
L 185.058832 134.954189 
L 185.205366 133.956796 
L 185.278633 135.242908 
L 185.3519 134.324257 
L 185.425167 134.770459 
L 185.498434 134.193021 
L 185.571701 135.085425 
L 185.644968 133.851808 
L 185.718235 133.878055 
L 185.791502 134.927942 
L 185.864769 134.612976 
L 185.938036 134.954189 
L 186.011303 132.591943 
L 186.08457 133.799313 
L 186.157837 133.64183 
L 186.231104 134.560481 
L 186.304371 133.011898 
L 186.377638 134.875448 
L 186.450905 134.035538 
L 186.524172 133.563089 
L 186.597439 133.983044 
L 186.670705 132.670685 
L 186.890506 136.030323 
L 187.183574 133.510594 
L 187.256841 134.980436 
L 187.330108 133.956796 
L 187.403375 134.507987 
L 187.476642 134.11428 
L 187.623176 135.059178 
L 187.696443 134.219268 
L 187.76971 134.376751 
L 187.916244 133.484347 
L 188.062778 135.032931 
L 188.136045 135.032931 
L 188.209312 136.187806 
L 188.282579 134.11428 
L 188.355846 134.717965 
L 188.429113 134.402998 
L 188.50238 136.52902 
L 188.648914 133.510594 
L 188.722181 135.006683 
L 188.795448 134.875448 
L 188.941982 133.536842 
L 189.015249 134.11428 
L 189.088516 136.05657 
L 189.23505 134.088032 
L 189.381584 133.668078 
L 189.454851 135.767852 
L 189.528118 135.426638 
L 189.674652 133.851808 
L 189.821186 135.111672 
L 189.967719 134.088032 
L 190.040986 135.584121 
L 190.114253 135.269155 
L 190.260787 133.09064 
L 190.334054 135.479133 
L 190.407321 134.927942 
L 190.553855 134.8492 
L 190.627122 135.636616 
L 190.700389 135.085425 
L 190.773656 136.030323 
L 190.773656 136.030323 
" clip-path="url(#pdcf183e63b)" style="fill: none; stroke: #1f77b4; stroke-width: 0.5; stroke-linecap: square"/>
   </g>
   <g id="patch_3">
    <path d="M 23.410313 143.1 
L 23.410313 7.2 
" style="fill: none; stroke: #000000; stroke-width: 0.8; stroke-linejoin: miter; stroke-linecap: square"/>
   </g>
   <g id="patch_4">
    <path d="M 190.810313 143.1 
L 190.810313 7.2 
" style="fill: none; stroke: #000000; stroke-width: 0.8; stroke-linejoin: miter; stroke-linecap: square"/>
   </g>
   <g id="patch_5">
    <path d="M 23.410313 143.1 
L 190.810313 143.1 
" style="fill: none; stroke: #000000; stroke-width: 0.8; stroke-linejoin: miter; stroke-linecap: square"/>
   </g>
   <g id="patch_6">
    <path d="M 23.410313 7.2 
L 190.810313 7.2 
" style="fill: none; stroke: #000000; stroke-width: 0.8; stroke-linejoin: miter; stroke-linecap: square"/>
   </g>
  </g>
 </g>
 <defs>
  <clipPath id="pdcf183e63b">
   <rect x="23.410313" y="7.2" width="167.4" height="135.9"/>
  </clipPath>
 </defs>
</svg>
