<?xml version="1.0" encoding="utf-8" standalone="no"?>
<!DOCTYPE svg PUBLIC "-//W3C//DTD SVG 1.1//EN"
  "http://www.w3.org/Graphics/SVG/1.1/DTD/svg11.dtd">
<svg xmlns:xlink="http://www.w3.org/1999/xlink" width="198.010312pt" height="177.752813pt" viewBox="0 0 198.010312 177.752813" xmlns="http://www.w3.org/2000/svg" version="1.1">
 <metadata>
  <rdf:RDF xmlns:dc="http://purl.org/dc/elements/1.1/" xmlns:cc="http://creativecommons.org/ns#" xmlns:rdf="http://www.w3.org/1999/02/22-rdf-syntax-ns#">
   <cc:Work>
    <dc:type rdf:resource="http://purl.org/dc/dcmitype/StillImage"/>
    <dc:date>2023-02-25T15:25:05.770151</dc:date>
    <dc:format>image/svg+xml</dc:format>
    <dc:creator>
     <cc:Agent>
      <dc:title>Matplotlib v3.5.2, https://matplotlib.org/</dc:title>
     </cc:Agent>
    </dc:creator>
   </cc:Work>
  </rdf:RDF>
 </metadata>
 <defs>
  <style type="text/css">*{stroke-linejoin: round; stroke-linecap: butt}</style>
 </defs>
 <g id="figure_1">
  <g id="patch_1">
   <path d="M 0 177.752813 
L 198.010312 177.752813 
L 198.010312 0 
L 0 0 
z
" style="fill: #ffffff"/>
  </g>
  <g id="axes_1">
   <g id="patch_2">
    <path d="M 23.410313 143.1 
L 190.810313 143.1 
L 190.810313 7.2 
L 23.410313 7.2 
z
" style="fill: #ffffff"/>
   </g>
   <g id="matplotlib.axis_1">
    <g id="xtick_1">
     <g id="line2d_1">
      <defs>
       <path id="m3eb9bdf8ea" d="M 0 0 
L 0 3.5 
" style="stroke: #000000; stroke-width: 0.8"/>
      </defs>
      <g>
       <use xlink:href="#m3eb9bdf8ea" x="37.360313" y="143.1" style="stroke: #000000; stroke-width: 0.8"/>
      </g>
     </g>
     <g id="text_1">
      <!-- 10 -->
      <g transform="translate(32.270313 156.17875)scale(0.08 -0.08)">
       <defs>
        <path id="DejaVuSans-31" d="M 794 531 
L 1825 531 
L 1825 4091 
L 703 3866 
L 703 4441 
L 1819 4666 
L 2450 4666 
L 2450 531 
L 3481 531 
L 3481 0 
L 794 0 
L 794 531 
z
" transform="scale(0.015625)"/>
        <path id="DejaVuSans-30" d="M 2034 4250 
Q 1547 4250 1301 3770 
Q 1056 3291 1056 2328 
Q 1056 1369 1301 889 
Q 1547 409 2034 409 
Q 2525 409 2770 889 
Q 3016 1369 3016 2328 
Q 3016 3291 2770 3770 
Q 2525 4250 2034 4250 
z
M 2034 4750 
Q 2819 4750 3233 4129 
Q 3647 3509 3647 2328 
Q 3647 1150 3233 529 
Q 2819 -91 2034 -91 
Q 1250 -91 836 529 
Q 422 1150 422 2328 
Q 422 3509 836 4129 
Q 1250 4750 2034 4750 
z
" transform="scale(0.015625)"/>
       </defs>
       <use xlink:href="#DejaVuSans-31"/>
       <use xlink:href="#DejaVuSans-30" x="63.623047"/>
      </g>
     </g>
    </g>
    <g id="xtick_2">
     <g id="line2d_2">
      <g>
       <use xlink:href="#m3eb9bdf8ea" x="65.260312" y="143.1" style="stroke: #000000; stroke-width: 0.8"/>
      </g>
     </g>
     <g id="text_2">
      <!-- 20 -->
      <g transform="translate(60.170312 156.17875)scale(0.08 -0.08)">
       <defs>
        <path id="DejaVuSans-32" d="M 1228 531 
L 3431 531 
L 3431 0 
L 469 0 
L 469 531 
Q 828 903 1448 1529 
Q 2069 2156 2228 2338 
Q 2531 2678 2651 2914 
Q 2772 3150 2772 3378 
Q 2772 3750 2511 3984 
Q 2250 4219 1831 4219 
Q 1534 4219 1204 4116 
Q 875 4013 500 3803 
L 500 4441 
Q 881 4594 1212 4672 
Q 1544 4750 1819 4750 
Q 2544 4750 2975 4387 
Q 3406 4025 3406 3419 
Q 3406 3131 3298 2873 
Q 3191 2616 2906 2266 
Q 2828 2175 2409 1742 
Q 1991 1309 1228 531 
z
" transform="scale(0.015625)"/>
       </defs>
       <use xlink:href="#DejaVuSans-32"/>
       <use xlink:href="#DejaVuSans-30" x="63.623047"/>
      </g>
     </g>
    </g>
    <g id="xtick_3">
     <g id="line2d_3">
      <g>
       <use xlink:href="#m3eb9bdf8ea" x="93.160313" y="143.1" style="stroke: #000000; stroke-width: 0.8"/>
      </g>
     </g>
     <g id="text_3">
      <!-- 30 -->
      <g transform="translate(88.070312 156.17875)scale(0.08 -0.08)">
       <defs>
        <path id="DejaVuSans-33" d="M 2597 2516 
Q 3050 2419 3304 2112 
Q 3559 1806 3559 1356 
Q 3559 666 3084 287 
Q 2609 -91 1734 -91 
Q 1441 -91 1130 -33 
Q 819 25 488 141 
L 488 750 
Q 750 597 1062 519 
Q 1375 441 1716 441 
Q 2309 441 2620 675 
Q 2931 909 2931 1356 
Q 2931 1769 2642 2001 
Q 2353 2234 1838 2234 
L 1294 2234 
L 1294 2753 
L 1863 2753 
Q 2328 2753 2575 2939 
Q 2822 3125 2822 3475 
Q 2822 3834 2567 4026 
Q 2313 4219 1838 4219 
Q 1578 4219 1281 4162 
Q 984 4106 628 3988 
L 628 4550 
Q 988 4650 1302 4700 
Q 1616 4750 1894 4750 
Q 2613 4750 3031 4423 
Q 3450 4097 3450 3541 
Q 3450 3153 3228 2886 
Q 3006 2619 2597 2516 
z
" transform="scale(0.015625)"/>
       </defs>
       <use xlink:href="#DejaVuSans-33"/>
       <use xlink:href="#DejaVuSans-30" x="63.623047"/>
      </g>
     </g>
    </g>
    <g id="xtick_4">
     <g id="line2d_4">
      <g>
       <use xlink:href="#m3eb9bdf8ea" x="121.060312" y="143.1" style="stroke: #000000; stroke-width: 0.8"/>
      </g>
     </g>
     <g id="text_4">
      <!-- 40 -->
      <g transform="translate(115.970312 156.17875)scale(0.08 -0.08)">
       <defs>
        <path id="DejaVuSans-34" d="M 2419 4116 
L 825 1625 
L 2419 1625 
L 2419 4116 
z
M 2253 4666 
L 3047 4666 
L 3047 1625 
L 3713 1625 
L 3713 1100 
L 3047 1100 
L 3047 0 
L 2419 0 
L 2419 1100 
L 313 1100 
L 313 1709 
L 2253 4666 
z
" transform="scale(0.015625)"/>
       </defs>
       <use xlink:href="#DejaVuSans-34"/>
       <use xlink:href="#DejaVuSans-30" x="63.623047"/>
      </g>
     </g>
    </g>
    <g id="xtick_5">
     <g id="line2d_5">
      <g>
       <use xlink:href="#m3eb9bdf8ea" x="148.960313" y="143.1" style="stroke: #000000; stroke-width: 0.8"/>
      </g>
     </g>
     <g id="text_5">
      <!-- 50 -->
      <g transform="translate(143.870313 156.17875)scale(0.08 -0.08)">
       <defs>
        <path id="DejaVuSans-35" d="M 691 4666 
L 3169 4666 
L 3169 4134 
L 1269 4134 
L 1269 2991 
Q 1406 3038 1543 3061 
Q 1681 3084 1819 3084 
Q 2600 3084 3056 2656 
Q 3513 2228 3513 1497 
Q 3513 744 3044 326 
Q 2575 -91 1722 -91 
Q 1428 -91 1123 -41 
Q 819 9 494 109 
L 494 744 
Q 775 591 1075 516 
Q 1375 441 1709 441 
Q 2250 441 2565 725 
Q 2881 1009 2881 1497 
Q 2881 1984 2565 2268 
Q 2250 2553 1709 2553 
Q 1456 2553 1204 2497 
Q 953 2441 691 2322 
L 691 4666 
z
" transform="scale(0.015625)"/>
       </defs>
       <use xlink:href="#DejaVuSans-35"/>
       <use xlink:href="#DejaVuSans-30" x="63.623047"/>
      </g>
     </g>
    </g>
    <g id="xtick_6">
     <g id="line2d_6">
      <g>
       <use xlink:href="#m3eb9bdf8ea" x="176.860313" y="143.1" style="stroke: #000000; stroke-width: 0.8"/>
      </g>
     </g>
     <g id="text_6">
      <!-- 60 -->
      <g transform="translate(171.770313 156.17875)scale(0.08 -0.08)">
       <defs>
        <path id="DejaVuSans-36" d="M 2113 2584 
Q 1688 2584 1439 2293 
Q 1191 2003 1191 1497 
Q 1191 994 1439 701 
Q 1688 409 2113 409 
Q 2538 409 2786 701 
Q 3034 994 3034 1497 
Q 3034 2003 2786 2293 
Q 2538 2584 2113 2584 
z
M 3366 4563 
L 3366 3988 
Q 3128 4100 2886 4159 
Q 2644 4219 2406 4219 
Q 1781 4219 1451 3797 
Q 1122 3375 1075 2522 
Q 1259 2794 1537 2939 
Q 1816 3084 2150 3084 
Q 2853 3084 3261 2657 
Q 3669 2231 3669 1497 
Q 3669 778 3244 343 
Q 2819 -91 2113 -91 
Q 1303 -91 875 529 
Q 447 1150 447 2328 
Q 447 3434 972 4092 
Q 1497 4750 2381 4750 
Q 2619 4750 2861 4703 
Q 3103 4656 3366 4563 
z
" transform="scale(0.015625)"/>
       </defs>
       <use xlink:href="#DejaVuSans-36"/>
       <use xlink:href="#DejaVuSans-30" x="63.623047"/>
      </g>
     </g>
    </g>
    <g id="xtick_7">
     <g id="line2d_7">
      <defs>
       <path id="mfa6fbb9ca7" d="M 0 0 
L 0 2 
" style="stroke: #000000; stroke-width: 0.6"/>
      </defs>
      <g>
       <use xlink:href="#mfa6fbb9ca7" x="23.410313" y="143.1" style="stroke: #000000; stroke-width: 0.6"/>
      </g>
     </g>
    </g>
    <g id="xtick_8">
     <g id="line2d_8">
      <g>
       <use xlink:href="#mfa6fbb9ca7" x="30.385313" y="143.1" style="stroke: #000000; stroke-width: 0.6"/>
      </g>
     </g>
    </g>
    <g id="xtick_9">
     <g id="line2d_9">
      <g>
       <use xlink:href="#mfa6fbb9ca7" x="44.335313" y="143.1" style="stroke: #000000; stroke-width: 0.6"/>
      </g>
     </g>
    </g>
    <g id="xtick_10">
     <g id="line2d_10">
      <g>
       <use xlink:href="#mfa6fbb9ca7" x="51.310313" y="143.1" style="stroke: #000000; stroke-width: 0.6"/>
      </g>
     </g>
    </g>
    <g id="xtick_11">
     <g id="line2d_11">
      <g>
       <use xlink:href="#mfa6fbb9ca7" x="58.285313" y="143.1" style="stroke: #000000; stroke-width: 0.6"/>
      </g>
     </g>
    </g>
    <g id="xtick_12">
     <g id="line2d_12">
      <g>
       <use xlink:href="#mfa6fbb9ca7" x="72.235313" y="143.1" style="stroke: #000000; stroke-width: 0.6"/>
      </g>
     </g>
    </g>
    <g id="xtick_13">
     <g id="line2d_13">
      <g>
       <use xlink:href="#mfa6fbb9ca7" x="79.210313" y="143.1" style="stroke: #000000; stroke-width: 0.6"/>
      </g>
     </g>
    </g>
    <g id="xtick_14">
     <g id="line2d_14">
      <g>
       <use xlink:href="#mfa6fbb9ca7" x="86.185312" y="143.1" style="stroke: #000000; stroke-width: 0.6"/>
      </g>
     </g>
    </g>
    <g id="xtick_15">
     <g id="line2d_15">
      <g>
       <use xlink:href="#mfa6fbb9ca7" x="100.135312" y="143.1" style="stroke: #000000; stroke-width: 0.6"/>
      </g>
     </g>
    </g>
    <g id="xtick_16">
     <g id="line2d_16">
      <g>
       <use xlink:href="#mfa6fbb9ca7" x="107.110313" y="143.1" style="stroke: #000000; stroke-width: 0.6"/>
      </g>
     </g>
    </g>
    <g id="xtick_17">
     <g id="line2d_17">
      <g>
       <use xlink:href="#mfa6fbb9ca7" x="114.085313" y="143.1" style="stroke: #000000; stroke-width: 0.6"/>
      </g>
     </g>
    </g>
    <g id="xtick_18">
     <g id="line2d_18">
      <g>
       <use xlink:href="#mfa6fbb9ca7" x="128.035313" y="143.1" style="stroke: #000000; stroke-width: 0.6"/>
      </g>
     </g>
    </g>
    <g id="xtick_19">
     <g id="line2d_19">
      <g>
       <use xlink:href="#mfa6fbb9ca7" x="135.010312" y="143.1" style="stroke: #000000; stroke-width: 0.6"/>
      </g>
     </g>
    </g>
    <g id="xtick_20">
     <g id="line2d_20">
      <g>
       <use xlink:href="#mfa6fbb9ca7" x="141.985313" y="143.1" style="stroke: #000000; stroke-width: 0.6"/>
      </g>
     </g>
    </g>
    <g id="xtick_21">
     <g id="line2d_21">
      <g>
       <use xlink:href="#mfa6fbb9ca7" x="155.935313" y="143.1" style="stroke: #000000; stroke-width: 0.6"/>
      </g>
     </g>
    </g>
    <g id="xtick_22">
     <g id="line2d_22">
      <g>
       <use xlink:href="#mfa6fbb9ca7" x="162.910313" y="143.1" style="stroke: #000000; stroke-width: 0.6"/>
      </g>
     </g>
    </g>
    <g id="xtick_23">
     <g id="line2d_23">
      <g>
       <use xlink:href="#mfa6fbb9ca7" x="169.885313" y="143.1" style="stroke: #000000; stroke-width: 0.6"/>
      </g>
     </g>
    </g>
    <g id="xtick_24">
     <g id="line2d_24">
      <g>
       <use xlink:href="#mfa6fbb9ca7" x="183.835313" y="143.1" style="stroke: #000000; stroke-width: 0.6"/>
      </g>
     </g>
    </g>
    <g id="xtick_25">
     <g id="line2d_25">
      <g>
       <use xlink:href="#mfa6fbb9ca7" x="190.810313" y="143.1" style="stroke: #000000; stroke-width: 0.6"/>
      </g>
     </g>
    </g>
    <g id="text_7">
     <!-- Two Theta (degrees) -->
     <g transform="translate(61.294688 168.681094)scale(0.09 -0.09)">
      <defs>
       <path id="DejaVuSans-54" d="M -19 4666 
L 3928 4666 
L 3928 4134 
L 2272 4134 
L 2272 0 
L 1638 0 
L 1638 4134 
L -19 4134 
L -19 4666 
z
" transform="scale(0.015625)"/>
       <path id="DejaVuSans-77" d="M 269 3500 
L 844 3500 
L 1563 769 
L 2278 3500 
L 2956 3500 
L 3675 769 
L 4391 3500 
L 4966 3500 
L 4050 0 
L 3372 0 
L 2619 2869 
L 1863 0 
L 1184 0 
L 269 3500 
z
" transform="scale(0.015625)"/>
       <path id="DejaVuSans-6f" d="M 1959 3097 
Q 1497 3097 1228 2736 
Q 959 2375 959 1747 
Q 959 1119 1226 758 
Q 1494 397 1959 397 
Q 2419 397 2687 759 
Q 2956 1122 2956 1747 
Q 2956 2369 2687 2733 
Q 2419 3097 1959 3097 
z
M 1959 3584 
Q 2709 3584 3137 3096 
Q 3566 2609 3566 1747 
Q 3566 888 3137 398 
Q 2709 -91 1959 -91 
Q 1206 -91 779 398 
Q 353 888 353 1747 
Q 353 2609 779 3096 
Q 1206 3584 1959 3584 
z
" transform="scale(0.015625)"/>
       <path id="DejaVuSans-20" transform="scale(0.015625)"/>
       <path id="DejaVuSans-68" d="M 3513 2113 
L 3513 0 
L 2938 0 
L 2938 2094 
Q 2938 2591 2744 2837 
Q 2550 3084 2163 3084 
Q 1697 3084 1428 2787 
Q 1159 2491 1159 1978 
L 1159 0 
L 581 0 
L 581 4863 
L 1159 4863 
L 1159 2956 
Q 1366 3272 1645 3428 
Q 1925 3584 2291 3584 
Q 2894 3584 3203 3211 
Q 3513 2838 3513 2113 
z
" transform="scale(0.015625)"/>
       <path id="DejaVuSans-65" d="M 3597 1894 
L 3597 1613 
L 953 1613 
Q 991 1019 1311 708 
Q 1631 397 2203 397 
Q 2534 397 2845 478 
Q 3156 559 3463 722 
L 3463 178 
Q 3153 47 2828 -22 
Q 2503 -91 2169 -91 
Q 1331 -91 842 396 
Q 353 884 353 1716 
Q 353 2575 817 3079 
Q 1281 3584 2069 3584 
Q 2775 3584 3186 3129 
Q 3597 2675 3597 1894 
z
M 3022 2063 
Q 3016 2534 2758 2815 
Q 2500 3097 2075 3097 
Q 1594 3097 1305 2825 
Q 1016 2553 972 2059 
L 3022 2063 
z
" transform="scale(0.015625)"/>
       <path id="DejaVuSans-74" d="M 1172 4494 
L 1172 3500 
L 2356 3500 
L 2356 3053 
L 1172 3053 
L 1172 1153 
Q 1172 725 1289 603 
Q 1406 481 1766 481 
L 2356 481 
L 2356 0 
L 1766 0 
Q 1100 0 847 248 
Q 594 497 594 1153 
L 594 3053 
L 172 3053 
L 172 3500 
L 594 3500 
L 594 4494 
L 1172 4494 
z
" transform="scale(0.015625)"/>
       <path id="DejaVuSans-61" d="M 2194 1759 
Q 1497 1759 1228 1600 
Q 959 1441 959 1056 
Q 959 750 1161 570 
Q 1363 391 1709 391 
Q 2188 391 2477 730 
Q 2766 1069 2766 1631 
L 2766 1759 
L 2194 1759 
z
M 3341 1997 
L 3341 0 
L 2766 0 
L 2766 531 
Q 2569 213 2275 61 
Q 1981 -91 1556 -91 
Q 1019 -91 701 211 
Q 384 513 384 1019 
Q 384 1609 779 1909 
Q 1175 2209 1959 2209 
L 2766 2209 
L 2766 2266 
Q 2766 2663 2505 2880 
Q 2244 3097 1772 3097 
Q 1472 3097 1187 3025 
Q 903 2953 641 2809 
L 641 3341 
Q 956 3463 1253 3523 
Q 1550 3584 1831 3584 
Q 2591 3584 2966 3190 
Q 3341 2797 3341 1997 
z
" transform="scale(0.015625)"/>
       <path id="DejaVuSans-28" d="M 1984 4856 
Q 1566 4138 1362 3434 
Q 1159 2731 1159 2009 
Q 1159 1288 1364 580 
Q 1569 -128 1984 -844 
L 1484 -844 
Q 1016 -109 783 600 
Q 550 1309 550 2009 
Q 550 2706 781 3412 
Q 1013 4119 1484 4856 
L 1984 4856 
z
" transform="scale(0.015625)"/>
       <path id="DejaVuSans-64" d="M 2906 2969 
L 2906 4863 
L 3481 4863 
L 3481 0 
L 2906 0 
L 2906 525 
Q 2725 213 2448 61 
Q 2172 -91 1784 -91 
Q 1150 -91 751 415 
Q 353 922 353 1747 
Q 353 2572 751 3078 
Q 1150 3584 1784 3584 
Q 2172 3584 2448 3432 
Q 2725 3281 2906 2969 
z
M 947 1747 
Q 947 1113 1208 752 
Q 1469 391 1925 391 
Q 2381 391 2643 752 
Q 2906 1113 2906 1747 
Q 2906 2381 2643 2742 
Q 2381 3103 1925 3103 
Q 1469 3103 1208 2742 
Q 947 2381 947 1747 
z
" transform="scale(0.015625)"/>
       <path id="DejaVuSans-67" d="M 2906 1791 
Q 2906 2416 2648 2759 
Q 2391 3103 1925 3103 
Q 1463 3103 1205 2759 
Q 947 2416 947 1791 
Q 947 1169 1205 825 
Q 1463 481 1925 481 
Q 2391 481 2648 825 
Q 2906 1169 2906 1791 
z
M 3481 434 
Q 3481 -459 3084 -895 
Q 2688 -1331 1869 -1331 
Q 1566 -1331 1297 -1286 
Q 1028 -1241 775 -1147 
L 775 -588 
Q 1028 -725 1275 -790 
Q 1522 -856 1778 -856 
Q 2344 -856 2625 -561 
Q 2906 -266 2906 331 
L 2906 616 
Q 2728 306 2450 153 
Q 2172 0 1784 0 
Q 1141 0 747 490 
Q 353 981 353 1791 
Q 353 2603 747 3093 
Q 1141 3584 1784 3584 
Q 2172 3584 2450 3431 
Q 2728 3278 2906 2969 
L 2906 3500 
L 3481 3500 
L 3481 434 
z
" transform="scale(0.015625)"/>
       <path id="DejaVuSans-72" d="M 2631 2963 
Q 2534 3019 2420 3045 
Q 2306 3072 2169 3072 
Q 1681 3072 1420 2755 
Q 1159 2438 1159 1844 
L 1159 0 
L 581 0 
L 581 3500 
L 1159 3500 
L 1159 2956 
Q 1341 3275 1631 3429 
Q 1922 3584 2338 3584 
Q 2397 3584 2469 3576 
Q 2541 3569 2628 3553 
L 2631 2963 
z
" transform="scale(0.015625)"/>
       <path id="DejaVuSans-73" d="M 2834 3397 
L 2834 2853 
Q 2591 2978 2328 3040 
Q 2066 3103 1784 3103 
Q 1356 3103 1142 2972 
Q 928 2841 928 2578 
Q 928 2378 1081 2264 
Q 1234 2150 1697 2047 
L 1894 2003 
Q 2506 1872 2764 1633 
Q 3022 1394 3022 966 
Q 3022 478 2636 193 
Q 2250 -91 1575 -91 
Q 1294 -91 989 -36 
Q 684 19 347 128 
L 347 722 
Q 666 556 975 473 
Q 1284 391 1588 391 
Q 1994 391 2212 530 
Q 2431 669 2431 922 
Q 2431 1156 2273 1281 
Q 2116 1406 1581 1522 
L 1381 1569 
Q 847 1681 609 1914 
Q 372 2147 372 2553 
Q 372 3047 722 3315 
Q 1072 3584 1716 3584 
Q 2034 3584 2315 3537 
Q 2597 3491 2834 3397 
z
" transform="scale(0.015625)"/>
       <path id="DejaVuSans-29" d="M 513 4856 
L 1013 4856 
Q 1481 4119 1714 3412 
Q 1947 2706 1947 2009 
Q 1947 1309 1714 600 
Q 1481 -109 1013 -844 
L 513 -844 
Q 928 -128 1133 580 
Q 1338 1288 1338 2009 
Q 1338 2731 1133 3434 
Q 928 4138 513 4856 
z
" transform="scale(0.015625)"/>
      </defs>
      <use xlink:href="#DejaVuSans-54"/>
      <use xlink:href="#DejaVuSans-77" x="44.583984"/>
      <use xlink:href="#DejaVuSans-6f" x="126.371094"/>
      <use xlink:href="#DejaVuSans-20" x="187.552734"/>
      <use xlink:href="#DejaVuSans-54" x="219.339844"/>
      <use xlink:href="#DejaVuSans-68" x="280.423828"/>
      <use xlink:href="#DejaVuSans-65" x="343.802734"/>
      <use xlink:href="#DejaVuSans-74" x="405.326172"/>
      <use xlink:href="#DejaVuSans-61" x="444.535156"/>
      <use xlink:href="#DejaVuSans-20" x="505.814453"/>
      <use xlink:href="#DejaVuSans-28" x="537.601562"/>
      <use xlink:href="#DejaVuSans-64" x="576.615234"/>
      <use xlink:href="#DejaVuSans-65" x="640.091797"/>
      <use xlink:href="#DejaVuSans-67" x="701.615234"/>
      <use xlink:href="#DejaVuSans-72" x="765.091797"/>
      <use xlink:href="#DejaVuSans-65" x="803.955078"/>
      <use xlink:href="#DejaVuSans-65" x="865.478516"/>
      <use xlink:href="#DejaVuSans-73" x="927.001953"/>
      <use xlink:href="#DejaVuSans-29" x="979.101562"/>
     </g>
    </g>
   </g>
   <g id="matplotlib.axis_2">
    <g id="ytick_1">
     <g id="line2d_26"/>
    </g>
    <g id="ytick_2">
     <g id="line2d_27"/>
    </g>
    <g id="ytick_3">
     <g id="line2d_28"/>
    </g>
    <g id="ytick_4">
     <g id="line2d_29"/>
    </g>
    <g id="text_8">
     <!-- Intensity -->
     <g transform="translate(14.038594 94.73625)rotate(-90)scale(0.09 -0.09)">
      <defs>
       <path id="DejaVuSans-49" d="M 628 4666 
L 1259 4666 
L 1259 0 
L 628 0 
L 628 4666 
z
" transform="scale(0.015625)"/>
       <path id="DejaVuSans-6e" d="M 3513 2113 
L 3513 0 
L 2938 0 
L 2938 2094 
Q 2938 2591 2744 2837 
Q 2550 3084 2163 3084 
Q 1697 3084 1428 2787 
Q 1159 2491 1159 1978 
L 1159 0 
L 581 0 
L 581 3500 
L 1159 3500 
L 1159 2956 
Q 1366 3272 1645 3428 
Q 1925 3584 2291 3584 
Q 2894 3584 3203 3211 
Q 3513 2838 3513 2113 
z
" transform="scale(0.015625)"/>
       <path id="DejaVuSans-69" d="M 603 3500 
L 1178 3500 
L 1178 0 
L 603 0 
L 603 3500 
z
M 603 4863 
L 1178 4863 
L 1178 4134 
L 603 4134 
L 603 4863 
z
" transform="scale(0.015625)"/>
       <path id="DejaVuSans-79" d="M 2059 -325 
Q 1816 -950 1584 -1140 
Q 1353 -1331 966 -1331 
L 506 -1331 
L 506 -850 
L 844 -850 
Q 1081 -850 1212 -737 
Q 1344 -625 1503 -206 
L 1606 56 
L 191 3500 
L 800 3500 
L 1894 763 
L 2988 3500 
L 3597 3500 
L 2059 -325 
z
" transform="scale(0.015625)"/>
      </defs>
      <use xlink:href="#DejaVuSans-49"/>
      <use xlink:href="#DejaVuSans-6e" x="29.492188"/>
      <use xlink:href="#DejaVuSans-74" x="92.871094"/>
      <use xlink:href="#DejaVuSans-65" x="132.080078"/>
      <use xlink:href="#DejaVuSans-6e" x="193.603516"/>
      <use xlink:href="#DejaVuSans-73" x="256.982422"/>
      <use xlink:href="#DejaVuSans-69" x="309.082031"/>
      <use xlink:href="#DejaVuSans-74" x="336.865234"/>
      <use xlink:href="#DejaVuSans-79" x="376.074219"/>
     </g>
    </g>
   </g>
   <g id="line2d_30">
    <path d="M 23.43188 40.802796 
L 23.505147 38.484687 
L 23.578414 41.814929 
L 23.651681 39.986561 
L 24.018016 47.626528 
L 24.091283 39.660066 
L 24.16455 47.561229 
L 24.237817 45.079872 
L 24.311084 45.308418 
L 24.457618 49.193701 
L 24.530885 48.63866 
L 24.604152 46.875591 
L 24.677419 48.703959 
L 24.750686 47.920373 
L 24.823953 47.887723 
L 24.970487 50.793523 
L 25.043753 48.867206 
L 25.11702 52.458644 
L 25.190287 47.397982 
L 25.263554 53.503426 
L 25.336821 52.71984 
L 25.410088 50.826172 
L 25.483355 51.675058 
L 25.556622 53.601374 
L 25.629889 52.523943 
L 25.703156 54.678805 
L 25.84969 49.618143 
L 25.922957 54.482909 
L 25.996224 52.68719 
L 26.142758 55.59299 
L 26.216025 53.013684 
L 26.289292 55.723587 
L 26.362559 52.458644 
L 26.435826 55.625639 
L 26.509093 53.013684 
L 26.655627 57.682553 
L 26.875428 51.870954 
L 26.948695 51.707707 
L 27.168496 57.87845 
L 27.388297 54.580857 
L 27.461564 55.723587 
L 27.534831 55.690938 
L 27.608098 54.711455 
L 27.681365 55.854185 
L 27.754632 60.16391 
L 27.827899 59.935364 
L 27.901166 58.172295 
L 27.974433 61.143393 
L 28.120967 55.168547 
L 28.340767 58.629387 
L 28.414034 57.225461 
L 28.487301 57.649904 
L 28.560568 57.715203 
L 28.707102 59.510922 
L 28.780369 62.612618 
L 28.853636 55.495041 
L 28.926903 57.421358 
L 29.00017 61.143393 
L 29.073437 57.715203 
L 29.146704 59.315025 
L 29.219971 59.445623 
L 29.366505 61.208692 
L 29.439772 60.849548 
L 29.513039 59.412973 
L 29.586306 60.523054 
L 29.659573 59.282376 
L 29.73284 61.143393 
L 29.806107 60.7516 
L 29.879374 60.261859 
L 29.952641 63.690049 
L 30.025908 56.964266 
L 30.099175 63.167658 
L 30.172442 58.564088 
L 30.318976 62.841164 
L 30.392243 61.567836 
L 30.46551 63.200308 
L 30.685311 59.315025 
L 30.758578 62.939112 
L 30.831845 61.829031 
L 30.905112 62.253474 
L 30.978379 61.92698 
L 31.124913 64.310388 
L 31.271447 64.049193 
L 31.344714 67.379435 
L 31.491247 59.380324 
L 31.637781 65.38782 
L 31.711048 64.245089 
L 31.784315 68.979257 
L 31.930849 62.057577 
L 32.223917 66.661147 
L 32.370451 63.820647 
L 32.443718 67.314136 
L 32.516985 63.135009 
L 32.590252 67.967125 
L 32.663519 66.073458 
L 32.736786 64.245089 
L 32.810053 68.163021 
L 32.88332 65.844912 
L 32.956587 66.302004 
L 33.029854 69.795493 
L 33.176388 66.661147 
L 33.322922 69.011907 
L 33.396189 66.595849 
L 33.469456 67.08559 
L 33.542723 68.358918 
L 33.61599 64.963377 
L 33.762524 69.175154 
L 33.835791 69.534298 
L 33.909058 66.759096 
L 33.982325 68.391567 
L 34.055592 65.061325 
L 34.128859 66.628498 
L 34.275393 70.154637 
L 34.421927 66.269354 
L 34.495194 66.922343 
L 34.641728 70.383183 
L 34.714994 67.412084 
L 34.788261 70.970873 
L 34.934795 67.934475 
L 35.008062 67.705929 
L 35.154596 71.950356 
L 35.227863 70.285234 
L 35.30113 65.91021 
L 35.520931 71.13412 
L 35.594198 67.183538 
L 35.740732 74.137868 
L 35.887266 67.510033 
L 35.960533 72.83189 
L 36.0338 70.840275 
L 36.107067 71.787108 
L 36.180334 70.742327 
L 36.253601 71.199419 
L 36.326868 75.933586 
L 36.400135 73.811373 
L 36.546669 69.893441 
L 36.619936 70.840275 
L 36.693203 71.297367 
L 36.76647 73.582827 
L 36.839737 73.484879 
L 36.913004 73.060436 
L 37.059538 74.431712 
L 37.132805 74.301115 
L 37.352606 72.701293 
L 37.49914 74.105218 
L 37.572407 73.713425 
L 37.718941 71.787108 
L 37.792208 75.73769 
L 37.865475 74.366414 
L 38.012008 73.876672 
L 38.085275 72.015654 
L 38.305076 76.358029 
L 38.378343 76.749822 
L 38.45161 72.83189 
L 38.524877 75.215299 
L 38.598144 74.59496 
L 38.671411 75.019402 
L 38.744678 73.550178 
L 38.817945 74.333764 
L 38.891212 71.950356 
L 39.037746 74.921454 
L 39.111013 72.635994 
L 39.18428 75.73769 
L 39.257547 74.301115 
L 39.330814 74.431712 
L 39.404081 76.815121 
L 39.477348 72.83189 
L 39.550615 78.251696 
L 39.623882 73.97462 
L 39.697149 77.957851 
L 39.91695 73.778724 
L 39.990217 72.799241 
L 40.063484 78.088449 
L 40.136751 75.70504 
L 40.356552 73.484879 
L 40.503086 81.418691 
L 40.576353 76.88042 
L 40.64962 79.100581 
L 40.796154 75.73769 
L 40.869421 75.607092 
L 40.942688 77.108966 
L 41.015955 75.182649 
L 41.235755 80.243312 
L 41.309022 80.700404 
L 41.455556 75.117351 
L 41.528823 81.026898 
L 41.60209 78.186397 
L 41.675357 81.059547 
L 41.748624 75.70504 
L 41.821891 77.272213 
L 41.895158 82.169628 
L 41.968425 79.035283 
L 42.041692 80.537156 
L 42.114959 79.590323 
L 42.188226 81.679887 
L 42.261493 80.961599 
L 42.33476 80.275961 
L 42.408027 81.48399 
L 42.481294 76.782472 
L 42.554561 78.643489 
L 42.627828 80.863651 
L 42.701095 78.969984 
L 42.920896 82.822617 
L 42.994163 81.190145 
L 43.06743 81.712536 
L 43.140697 82.594071 
L 43.287231 80.014766 
L 43.360498 82.202278 
L 43.507032 78.447593 
L 43.726833 83.540904 
L 43.8001 80.667754 
L 43.873367 81.647237 
L 44.019901 81.092197 
L 44.166435 81.973732 
L 44.239702 81.843134 
L 44.459502 80.961599 
L 44.532769 80.34126 
L 44.606036 83.279709 
L 44.679303 80.602455 
L 44.75257 81.549289 
L 44.825837 84.814232 
L 44.899104 80.700404 
L 44.972371 85.434571 
L 45.118905 81.843134 
L 45.265439 82.463473 
L 45.411973 79.263829 
L 45.558507 85.303974 
L 45.631774 80.112714 
L 45.778308 84.455088 
L 45.851575 81.777835 
L 45.924842 82.430824 
L 45.998109 82.724668 
L 46.21791 84.030646 
L 46.291177 82.887916 
L 46.364444 83.410307 
L 46.510978 82.789967 
L 46.584245 80.504507 
L 46.730779 82.398174 
L 46.804046 80.569806 
L 46.877313 82.006381 
L 46.95058 80.178013 
L 47.023847 80.961599 
L 47.097114 84.193893 
L 47.243648 80.831001 
L 47.316915 84.846882 
L 47.390182 84.095945 
L 47.463449 84.35714 
L 47.536716 81.288093 
L 47.609983 82.496122 
L 47.683249 82.692019 
L 47.756516 84.35714 
L 47.829783 81.679887 
L 47.90305 81.712536 
L 47.976317 82.594071 
L 48.049584 85.434571 
L 48.122851 82.65937 
L 48.196118 83.181761 
L 48.269385 83.247059 
L 48.342652 82.267576 
L 48.415919 83.900048 
L 48.489186 82.855266 
L 48.562453 85.53252 
L 48.63572 82.332875 
L 48.708987 84.814232 
L 48.782254 84.455088 
L 48.855521 80.733053 
L 49.075322 85.108077 
L 49.148589 81.549289 
L 49.221856 87.197641 
L 49.295123 83.475605 
L 49.36839 84.193893 
L 49.441657 81.712536 
L 49.588191 85.173376 
L 49.661458 82.62672 
L 49.734725 85.434571 
L 49.881259 83.410307 
L 50.027793 81.614588 
L 50.10106 81.712536 
L 50.174327 81.614588 
L 50.247594 82.332875 
L 50.320861 85.238675 
L 50.467395 81.908433 
L 50.760463 84.618336 
L 50.83373 84.193893 
L 50.980263 80.961599 
L 51.126797 80.145363 
L 51.200064 80.667754 
L 51.346598 84.030646 
L 51.419865 80.112714 
L 51.493132 84.226542 
L 51.566399 82.463473 
L 51.712933 80.112714 
L 51.859467 85.630468 
L 51.932734 80.700404 
L 52.006001 83.018513 
L 52.225802 80.014766 
L 52.299069 81.418691 
L 52.372336 78.02315 
L 52.445603 81.679887 
L 52.592137 79.002633 
L 52.738671 82.006381 
L 52.811938 79.949467 
L 52.885205 83.704151 
L 53.031739 80.373909 
L 53.105006 82.724668 
L 53.178273 78.121098 
L 53.25154 81.059547 
L 53.324807 78.774087 
L 53.398074 80.275961 
L 53.617875 76.455977 
L 53.764409 79.427076 
L 53.837676 78.676139 
L 53.910943 75.933586 
L 53.98421 76.749822 
L 54.057477 76.096834 
L 54.130743 72.048304 
L 54.20401 72.407448 
L 54.277277 75.607092 
L 54.423811 70.774976 
L 54.497078 72.962488 
L 54.570345 72.309499 
L 54.643612 73.550178 
L 54.716879 78.121098 
L 54.790146 74.954103 
L 55.009947 80.406559 
L 55.156481 77.206914 
L 55.303015 78.219047 
L 55.449549 76.815121 
L 55.522816 77.043667 
L 55.596083 77.141615 
L 55.66935 76.847771 
L 55.742617 79.786219 
L 55.815884 78.349644 
L 55.889151 79.231179 
L 55.962418 75.052052 
L 56.035685 80.373909 
L 56.182219 77.500759 
L 56.328753 79.622972 
L 56.548554 76.358029 
L 56.621821 76.358029 
L 56.695088 77.500759 
L 56.768355 75.313247 
L 56.841622 75.345897 
L 56.914889 75.770339 
L 56.988156 75.15 
L 57.061423 71.395315 
L 57.281224 76.29273 
L 57.427757 73.844023 
L 57.501024 75.70504 
L 57.574291 71.493264 
L 57.647558 72.929839 
L 57.794092 76.390678 
L 57.867359 71.525913 
L 57.940626 74.497011 
L 58.08716 72.407448 
L 58.160427 72.733942 
L 58.233694 72.309499 
L 58.380228 67.118239 
L 58.600029 73.811373 
L 58.746563 71.983005 
L 58.81983 72.766591 
L 58.893097 69.4037 
L 58.966364 71.264717 
L 59.039631 70.121987 
L 59.112898 70.774976 
L 59.259432 68.293619 
L 59.332699 69.926091 
L 59.479233 68.326268 
L 59.5525 69.240453 
L 59.625767 68.652763 
L 59.699034 70.089338 
L 59.772301 66.399952 
L 59.845568 68.326268 
L 59.918835 62.906463 
L 59.992102 63.03706 
L 60.138636 67.803878 
L 60.211903 63.135009 
L 60.28517 66.824395 
L 60.358437 65.681664 
L 60.504971 62.612618 
L 60.578237 64.114492 
L 60.724771 68.750711 
L 60.871305 63.461503 
L 60.944572 63.428854 
L 61.017839 65.975509 
L 61.091106 60.131261 
L 61.310907 66.889693 
L 61.457441 59.837416 
L 61.530708 63.396204 
L 61.603975 62.155526 
L 61.677242 63.820647 
L 61.823776 59.772117 
L 61.897043 61.437238 
L 61.97031 60.359807 
L 62.116844 61.012796 
L 62.190111 58.531439 
L 62.336645 61.208692 
L 62.409912 57.225461 
L 62.483179 58.988531 
L 62.556446 58.662036 
L 62.629713 56.050082 
L 62.70298 60.131261 
L 62.776247 56.311277 
L 62.849514 57.160162 
L 62.922781 58.596737 
L 62.996048 57.715203 
L 63.142582 51.446512 
L 63.289116 57.356059 
L 63.362383 56.213329 
L 63.43565 58.400841 
L 63.508917 52.850437 
L 63.582184 54.319662 
L 63.655451 54.776754 
L 63.801984 53.405478 
L 63.875251 55.756237 
L 64.021785 50.238483 
L 64.168319 54.482909 
L 64.241586 57.356059 
L 64.534654 50.075235 
L 64.607921 50.760874 
L 64.681188 46.90824 
L 64.754455 49.781391 
L 64.827722 47.430631 
L 64.900989 48.050971 
L 64.974256 48.377465 
L 65.12079 43.414751 
L 65.194057 48.63866 
L 65.267324 42.30467 
L 65.340591 44.426884 
L 65.633659 33.162829 
L 65.706926 31.791553 
L 65.85346 25.000471 
L 66.073261 30.779421 
L 66.219795 31.758904 
L 66.58613 43.806544 
L 66.659397 39.660066 
L 66.805931 43.382102 
L 66.879198 40.672199 
L 66.952465 41.912877 
L 67.098998 40.737498 
L 67.172265 40.378354 
L 67.245532 38.223491 
L 67.318799 39.46417 
L 67.392066 39.398871 
L 67.465333 39.627417 
L 67.5386 38.615284 
L 67.611867 39.137675 
L 67.685134 40.05186 
L 67.831668 35.448289 
L 67.904935 36.199226 
L 67.978202 38.256141 
L 68.051469 36.068629 
L 68.124736 36.329824 
L 68.198003 37.14606 
L 68.344537 33.456674 
L 68.417804 33.489323 
L 68.491071 35.807433 
L 68.710872 25.62081 
L 68.784139 31.334461 
L 69.077207 17.066659 
L 69.150474 17.131958 
L 69.223741 17.262555 
L 69.297008 13.377273 
L 69.663343 27.775673 
L 69.73661 25.65346 
L 69.809877 30.518225 
L 69.883144 28.232765 
L 70.029678 29.963185 
L 70.102945 30.583524 
L 70.249479 28.983702 
L 70.469279 33.358726 
L 70.542546 29.865236 
L 70.68908 32.999582 
L 70.835614 32.118047 
L 70.908881 32.444542 
L 71.055415 30.583524 
L 71.201949 30.746771 
L 71.275216 28.200115 
L 71.348483 32.248645 
L 71.42175 29.63669 
L 71.568284 34.795301 
L 71.641551 31.889501 
L 71.714818 32.248645 
L 71.861352 29.734639 
L 71.934619 32.999582 
L 72.007886 29.832587 
L 72.081153 31.36711 
L 72.15442 35.089146 
L 72.227687 29.66934 
L 72.300954 30.028484 
L 72.374221 31.660955 
L 72.447488 27.024736 
L 72.594022 30.910018 
L 72.667289 28.49396 
L 72.88709 32.934283 
L 72.960357 25.555511 
L 73.033624 27.645075 
L 73.106891 27.808322 
L 73.253425 23.367999 
L 73.326692 25.718758 
L 73.399959 24.576028 
L 73.473226 24.967821 
L 73.766293 33.162829 
L 73.83956 31.073265 
L 73.912827 31.138564 
L 74.059361 31.824202 
L 74.205895 33.554622 
L 74.279162 32.118047 
L 74.352429 33.456674 
L 74.425696 32.673088 
L 74.645497 36.656318 
L 74.718764 36.493071 
L 74.792031 36.623669 
L 74.938565 33.260777 
L 75.011832 40.704848 
L 75.085099 32.738387 
L 75.158366 35.97068 
L 75.231633 36.721617 
L 75.3049 30.550874 
L 75.524701 38.680583 
L 75.597968 35.219743 
L 75.671235 41.227239 
L 75.744502 38.778532 
L 75.817769 39.627417 
L 75.891036 34.142312 
L 76.03757 40.345704 
L 76.184104 36.623669 
L 76.257371 36.656318 
L 76.477172 41.74963 
L 76.550439 37.472554 
L 76.623706 41.357837 
L 76.696973 40.6069 
L 76.770239 40.802796 
L 76.843506 42.435268 
L 76.916773 41.031342 
L 76.99004 41.096641 
L 77.063307 45.308418 
L 77.136574 42.206722 
L 77.209841 42.533216 
L 77.283108 45.112522 
L 77.429642 40.737498 
L 77.649443 48.018321 
L 77.72271 45.145171 
L 77.795977 46.124654 
L 77.869244 46.647045 
L 77.942511 48.442764 
L 78.015778 44.753378 
L 78.089045 49.422247 
L 78.235579 44.557481 
L 78.382113 49.291649 
L 78.45538 48.377465 
L 78.601914 49.389597 
L 78.675181 49.063103 
L 78.748448 47.169436 
L 78.821715 49.781391 
L 79.041516 47.038838 
L 79.18805 52.328046 
L 79.261317 50.107885 
L 79.334584 52.066851 
L 79.407851 48.965155 
L 79.481118 49.552845 
L 79.554385 48.67131 
L 79.627652 53.601374 
L 79.700919 52.164799 
L 79.774186 48.63866 
L 79.993986 54.058466 
L 80.067253 52.523943 
L 80.14052 48.344815 
L 80.213787 53.27488 
L 80.287054 52.034201 
L 80.360321 52.164799 
L 80.433588 56.082731 
L 80.506855 55.429742 
L 80.653389 54.646156 
L 80.726656 55.984783 
L 80.799923 54.482909 
L 80.87319 58.46614 
L 81.092991 53.209581 
L 81.239525 55.462392 
L 81.386059 59.870065 
L 81.459326 59.380324 
L 81.825661 65.616366 
L 82.045462 59.315025 
L 82.118729 61.829031 
L 82.191996 60.000663 
L 82.33853 65.714314 
L 82.411797 63.853296 
L 82.485064 64.375687 
L 82.558331 63.232957 
L 82.631598 66.4979 
L 82.704865 62.775865 
L 82.778132 67.771228 
L 82.851399 63.102359 
L 82.924666 64.114492 
L 82.997933 63.6574 
L 83.144467 66.4979 
L 83.291 64.081842 
L 83.364267 68.065073 
L 83.510801 65.420469 
L 83.584068 70.317884 
L 83.657335 66.138756 
L 83.730602 66.628498 
L 83.877136 70.579079 
L 84.02367 67.510033 
L 84.096937 70.317884 
L 84.170204 69.468999 
L 84.243471 71.623861 
L 84.316738 69.697545 
L 84.390005 73.158385 
L 84.463272 70.383183 
L 84.609806 72.86454 
L 84.683073 72.668643 
L 84.75634 70.219936 
L 84.829607 72.929839 
L 84.902874 70.187286 
L 85.122675 75.280598 
L 85.195942 74.301115 
L 85.269209 74.105218 
L 85.342476 71.983005 
L 85.562277 78.284346 
L 85.635544 77.076317 
L 85.708811 74.072569 
L 85.855345 77.859903 
L 85.928612 77.402811 
L 86.001879 76.096834 
L 86.075146 78.643489 
L 86.148413 77.990501 
L 86.22168 74.954103 
L 86.294947 78.774087 
L 86.368214 77.337512 
L 86.44148 79.557673 
L 86.514747 79.296478 
L 86.661281 78.153748 
L 86.734548 78.284346 
L 86.807815 79.590323 
L 86.881082 79.492375 
L 86.954349 78.774087 
L 87.027616 75.835638 
L 87.100883 80.178013 
L 87.17415 78.382294 
L 87.320684 81.745185 
L 87.393951 80.92895 
L 87.467218 83.410307 
L 87.540485 82.855266 
L 87.613752 79.655622 
L 87.687019 84.553037 
L 87.833553 80.373909 
L 87.90682 84.650985 
L 87.980087 79.982116 
L 88.053354 81.581938 
L 88.126621 82.398174 
L 88.199888 82.202278 
L 88.273155 82.463473 
L 88.419689 83.867399 
L 88.492956 83.377657 
L 88.712757 84.553037 
L 88.786024 87.26294 
L 88.859291 83.345008 
L 88.932558 84.716284 
L 89.005825 83.638853 
L 89.079092 84.128594 
L 89.152359 85.401922 
L 89.225626 84.455088 
L 89.298893 85.989612 
L 89.37216 84.520387 
L 89.445427 88.37302 
L 89.591961 85.075428 
L 89.738494 89.515751 
L 89.811761 87.393537 
L 89.885028 87.948578 
L 89.958295 90.13609 
L 90.031562 83.965347 
L 90.104829 91.605314 
L 90.178096 89.874894 
L 90.251363 86.6426 
L 90.32463 87.034394 
L 90.397897 87.850629 
L 90.471164 86.609951 
L 90.617698 89.483101 
L 90.690965 87.197641 
L 90.764232 92.42155 
L 90.837499 86.512003 
L 90.910766 88.503618 
L 90.984033 87.001744 
L 91.0573 87.785331 
L 91.130567 87.001744 
L 91.203834 88.568917 
L 91.277101 84.879531 
L 91.350368 85.434571 
L 91.423635 86.348756 
L 91.496902 86.08756 
L 91.570169 78.708788 
L 91.643436 82.267576 
L 91.863237 74.105218 
L 91.936504 72.929839 
L 92.229572 57.976398 
L 92.302839 61.110744 
L 92.376106 57.584605 
L 92.52264 61.959629 
L 92.595907 63.592101 
L 92.815708 74.758207 
L 92.962241 81.614588 
L 93.035508 80.275961 
L 93.108775 81.48399 
L 93.182042 86.152859 
L 93.255309 84.91218 
L 93.401843 92.225653 
L 93.548377 87.426187 
L 93.694911 90.919676 
L 93.768178 87.393537 
L 93.841445 90.495234 
L 93.914712 85.924313 
L 93.987979 88.209773 
L 94.061246 86.022261 
L 94.134513 89.189256 
L 94.20778 87.785331 
L 94.281047 88.764814 
L 94.354314 88.503618 
L 94.427581 87.589434 
L 94.647382 89.385153 
L 94.720649 88.307722 
L 94.94045 95.555896 
L 95.013717 93.825476 
L 95.160251 96.43743 
L 95.233518 96.045637 
L 95.380052 96.927172 
L 95.453319 95.588545 
L 95.526586 98.494345 
L 95.67312 96.959821 
L 95.892921 100.943052 
L 95.966188 97.547511 
L 96.039455 98.984086 
L 96.112722 101.922535 
L 96.185988 101.367495 
L 96.405789 100.681857 
L 96.479056 103.522357 
L 96.552323 101.726638 
L 96.62559 103.881501 
L 96.698857 103.293811 
L 96.845391 103.750903 
L 96.991925 102.967317 
L 97.065192 103.032616 
L 97.138459 103.750903 
L 97.211726 100.747155 
L 97.284993 104.338593 
L 97.35826 102.673472 
L 97.504794 105.481323 
L 97.578061 104.044748 
L 97.651328 106.81995 
L 97.724595 101.726638 
L 97.797862 102.80407 
L 97.871129 104.860984 
L 98.017663 102.640823 
L 98.09093 105.383375 
L 98.164197 104.828335 
L 98.237464 104.53449 
L 98.310731 104.893633 
L 98.383998 106.526105 
L 98.530532 104.338593 
L 98.603799 107.048496 
L 98.677066 104.958932 
L 98.750333 107.96268 
L 98.8236 106.23226 
L 98.896867 107.505588 
L 98.970134 106.23226 
L 99.043401 107.832082 
L 99.116668 106.885249 
L 99.189935 107.440289 
L 99.263202 106.23226 
L 99.336469 108.974813 
L 99.409735 106.624053 
L 99.483002 107.440289 
L 99.556269 109.13806 
L 99.629536 108.027979 
L 99.702803 108.942163 
L 99.77607 108.615669 
L 99.849337 108.419772 
L 99.995871 102.80407 
L 100.069138 109.72575 
L 100.142405 108.942163 
L 100.215672 107.99533 
L 100.288939 108.583019 
L 100.362206 107.96268 
L 100.582007 112.01121 
L 100.728541 109.10541 
L 100.875075 111.129675 
L 101.021609 109.888997 
L 101.094876 112.043859 
L 101.168143 109.660451 
L 101.314677 113.447785 
L 101.461211 110.24814 
L 101.534478 113.023342 
L 101.607745 110.999077 
L 101.681012 111.358221 
L 101.754279 113.284538 
L 101.827546 110.737882 
L 101.900813 112.664199 
L 102.047347 110.639934 
L 102.120614 113.806929 
L 102.193881 113.219239 
L 102.267148 114.035475 
L 102.340415 112.370354 
L 102.413682 115.831194 
L 102.486949 112.403003 
L 102.560216 113.676331 
L 102.633482 111.162325 
L 102.706749 111.45617 
L 102.780016 111.945911 
L 102.853283 113.970176 
L 102.999817 111.097026 
L 103.219618 114.623165 
L 103.292885 112.762147 
L 103.366152 114.035475 
L 103.439419 112.631549 
L 103.512686 113.317187 
L 103.585953 115.896492 
L 103.65922 113.055992 
L 103.732487 113.74163 
L 103.952288 115.700596 
L 104.098822 114.819061 
L 104.245356 115.243504 
L 104.318623 114.427268 
L 104.39189 115.014958 
L 104.465157 113.513084 
L 104.611691 114.721113 
L 104.684958 112.500951 
L 104.831492 114.982308 
L 104.904759 114.851711 
L 104.978026 115.210854 
L 105.051293 117.333067 
L 105.12456 116.516832 
L 105.197827 114.264021 
L 105.271094 115.014958 
L 105.344361 116.712728 
L 105.490895 114.88436 
L 105.564162 116.288286 
L 105.637429 113.643682 
L 105.857229 118.377849 
L 106.07703 115.080257 
L 106.296831 118.671694 
L 106.443365 115.798544 
L 106.589899 117.104521 
L 106.663166 117.79016 
L 106.736433 117.594263 
L 106.8097 117.561613 
L 106.882967 114.753762 
L 107.029501 117.626912 
L 107.102768 114.721113 
L 107.249302 119.324683 
L 107.322569 117.20247 
L 107.395836 117.822809 
L 107.469103 117.920757 
L 107.54237 116.092389 
L 107.688904 118.149303 
L 107.762171 115.47205 
L 107.835438 115.994441 
L 107.908705 115.994441 
L 107.981972 114.688463 
L 108.055239 115.504699 
L 108.128506 114.231371 
L 108.201773 115.961791 
L 108.27504 113.480434 
L 108.348307 115.602648 
L 108.421574 114.786412 
L 108.494841 115.112906 
L 108.568108 114.361969 
L 108.787909 116.02709 
L 108.861176 116.680079 
L 108.934443 115.276153 
L 109.00771 116.451533 
L 109.080976 115.406751 
L 109.22751 116.288286 
L 109.300777 115.961791 
L 109.374044 118.214602 
L 109.447311 116.712728 
L 109.520578 117.039223 
L 109.886913 119.259384 
L 109.96018 121.479545 
L 110.033447 118.802292 
L 110.106714 119.912373 
L 110.179981 120.206218 
L 110.253248 118.769643 
L 110.399782 121.087752 
L 110.473049 120.140919 
L 110.546316 121.153051 
L 110.619583 120.924505 
L 110.69285 121.120402 
L 110.839384 119.716476 
L 110.985918 123.373213 
L 111.205719 120.434764 
L 111.278986 123.144667 
L 111.352253 121.087752 
L 111.572054 123.112017 
L 111.645321 119.324683 
L 111.791855 121.903988 
L 111.865122 122.067235 
L 111.938389 121.185701 
L 112.011656 123.112017 
L 112.084923 122.720224 
L 112.231457 120.173568 
L 112.304723 122.39373 
L 112.37799 122.36108 
L 112.451257 122.034586 
L 112.524524 123.601759 
L 112.597791 120.467413 
L 112.671058 122.94877 
L 112.744325 122.883471 
L 112.817592 121.479545 
L 112.964126 123.242615 
L 113.037393 122.916121 
L 113.11066 120.989804 
L 113.183927 124.842437 
L 113.257194 121.316298 
L 113.330461 122.785523 
L 113.403728 124.058851 
L 113.476995 120.010321 
L 113.550262 121.871339 
L 113.623529 125.397477 
L 113.696796 123.53646 
L 113.770063 123.928253 
L 113.84333 123.667057 
L 113.916597 123.960902 
L 113.989864 122.36108 
L 114.063131 122.654925 
L 114.136398 121.642793 
L 114.356199 125.495426 
L 114.429466 121.414247 
L 114.502733 123.438511 
L 114.576 123.340563 
L 114.649267 122.622276 
L 114.722534 122.752873 
L 114.869068 125.658673 
L 114.942335 122.197833 
L 115.088869 125.364828 
L 115.30867 124.483293 
L 115.381937 124.907736 
L 115.455204 126.148414 
L 115.601737 122.916121 
L 115.821538 125.854569 
L 115.894805 124.875086 
L 115.968072 125.593374 
L 116.041339 124.64654 
L 116.114606 125.168931 
L 116.187873 123.405862 
L 116.26114 125.854569 
L 116.334407 125.299529 
L 116.407674 124.385345 
L 116.480941 125.854569 
L 116.554208 124.777138 
L 116.627475 125.168931 
L 116.700742 124.548592 
L 116.774009 122.94877 
L 116.847276 126.932001 
L 116.920543 125.789271 
L 116.99381 126.736104 
L 117.067077 124.842437 
L 117.140344 125.070983 
L 117.213611 127.160547 
L 117.286878 124.744489 
L 117.360145 126.507558 
L 117.506679 125.103633 
L 117.653213 128.793018 
L 117.72648 126.37696 
L 117.799747 128.662421 
L 117.873014 127.617639 
L 117.946281 126.866702 
L 118.166082 128.10738 
L 118.239349 126.572857 
L 118.45915 129.543955 
L 118.605684 126.932001 
L 118.678951 126.9973 
L 118.825484 127.944133 
L 118.898751 127.682938 
L 118.972018 126.866702 
L 119.265086 128.69507 
L 119.338353 127.127897 
L 119.41162 128.793018 
L 119.484887 127.878834 
L 119.558154 128.401225 
L 119.631421 128.205329 
L 119.777955 127.389093 
L 119.924489 130.098996 
L 120.14429 127.127897 
L 120.217557 128.825668 
L 120.290824 127.487041 
L 120.364091 128.042081 
L 120.437358 128.303277 
L 120.510625 128.205329 
L 120.657159 126.605506 
L 120.730426 130.164295 
L 120.803693 129.021564 
L 120.950227 128.172679 
L 121.023494 129.707203 
L 121.096761 126.899351 
L 121.170028 130.294892 
L 121.243295 127.780886 
L 121.316562 129.119513 
L 121.389829 128.564472 
L 121.463096 129.674553 
L 121.536363 126.834052 
L 121.682897 129.348059 
L 121.756164 129.217461 
L 121.829431 129.87045 
L 121.975965 126.213713 
L 122.049231 127.682938 
L 122.122498 128.760369 
L 122.195765 127.193196 
L 122.269032 129.805151 
L 122.415566 127.356443 
L 122.488833 129.903099 
L 122.5621 129.707203 
L 122.635367 128.074731 
L 122.708634 128.172679 
L 122.781901 128.499174 
L 122.855168 129.903099 
L 123.001702 128.629771 
L 123.074969 128.825668 
L 123.221503 128.074731 
L 123.29477 130.229594 
L 123.441304 128.433875 
L 123.587838 130.098996 
L 123.734372 129.315409 
L 123.807639 129.511306 
L 123.880906 130.229594 
L 123.954173 130.001047 
L 124.02744 129.413358 
L 124.247241 130.294892 
L 124.393775 131.176427 
L 124.467042 127.617639 
L 124.540309 130.42549 
L 124.613576 129.903099 
L 124.686843 128.270628 
L 124.76011 129.576605 
L 124.833377 128.988915 
L 124.979911 128.303277 
L 125.053178 128.564472 
L 125.126445 130.654036 
L 125.199712 129.250111 
L 125.272978 129.28276 
L 125.346245 129.152162 
L 125.419512 131.111128 
L 125.492779 127.454392 
L 125.566046 130.882582 
L 125.639313 130.229594 
L 125.71258 128.72772 
L 125.785847 130.327542 
L 125.859114 129.87045 
L 125.932381 128.988915 
L 126.005648 130.229594 
L 126.078915 129.021564 
L 126.152182 130.98053 
L 126.225449 128.433875 
L 126.298716 129.707203 
L 126.371983 131.666169 
L 126.518517 130.327542 
L 126.591784 131.045829 
L 126.738318 129.739852 
L 126.884852 131.339674 
L 127.031386 128.629771 
L 127.104653 128.009432 
L 127.251187 130.621387 
L 127.397721 129.739852 
L 127.470988 130.131645 
L 127.544255 131.209076 
L 127.837323 127.911484 
L 127.91059 130.392841 
L 127.983857 129.903099 
L 128.057124 128.825668 
L 128.130391 130.588737 
L 128.203658 128.956266 
L 128.276925 130.066346 
L 128.350192 129.805151 
L 128.423459 130.066346 
L 128.496725 128.793018 
L 128.569992 129.250111 
L 128.643259 129.054214 
L 128.716526 127.976783 
L 128.789793 128.10738 
L 128.936327 129.576605 
L 129.009594 127.748237 
L 129.082861 128.270628 
L 129.156128 127.160547 
L 129.229395 129.739852 
L 129.302662 129.119513 
L 129.375929 126.050466 
L 129.449196 128.368576 
L 129.522463 127.715587 
L 129.59573 125.495426 
L 129.668997 126.311662 
L 129.742264 126.050466 
L 129.815531 127.454392 
L 129.888798 126.37696 
L 129.962065 126.540208 
L 130.108599 128.531823 
L 130.181866 127.650288 
L 130.255133 130.131645 
L 130.3284 127.258495 
L 130.401667 127.944133 
L 130.474934 129.152162 
L 130.548201 128.368576 
L 130.621468 129.086863 
L 130.694735 128.988915 
L 130.768002 129.413358 
L 130.841269 129.28276 
L 130.914536 128.303277 
L 131.06107 130.654036 
L 131.134337 128.433875 
L 131.207604 129.903099 
L 131.280871 129.641904 
L 131.354138 129.903099 
L 131.500672 127.911484 
L 131.573939 129.674553 
L 131.647206 127.127897 
L 131.720472 131.241726 
L 131.793739 130.229594 
L 131.940273 125.691322 
L 132.01354 129.609254 
L 132.086807 127.095248 
L 132.160074 128.890967 
L 132.306608 126.703455 
L 132.379875 129.152162 
L 132.453142 128.69507 
L 132.526409 128.531823 
L 132.599676 127.878834 
L 132.672943 128.858317 
L 132.74621 128.270628 
L 132.819477 128.69507 
L 132.892744 126.638156 
L 132.966011 127.127897 
L 133.112545 129.086863 
L 133.259079 127.911484 
L 133.405613 129.250111 
L 133.47888 128.923616 
L 133.552147 129.054214 
L 133.771948 130.849933 
L 133.845215 128.172679 
L 133.918482 128.956266 
L 134.065016 130.001047 
L 134.138283 129.674553 
L 134.284817 131.176427 
L 134.358084 130.098996 
L 134.431351 130.360191 
L 134.504618 131.796766 
L 134.651152 129.119513 
L 134.797686 130.229594 
L 134.870953 128.858317 
L 134.944219 130.490789 
L 135.017486 128.858317 
L 135.16402 131.01318 
L 135.237287 128.69507 
L 135.310554 130.490789 
L 135.383821 129.8378 
L 135.457088 129.641904 
L 135.530355 128.662421 
L 135.676889 132.678301 
L 135.89669 128.303277 
L 136.043224 130.719335 
L 136.263025 132.253858 
L 136.336292 129.413358 
L 136.556093 132.319157 
L 136.62936 132.253858 
L 136.702627 129.674553 
L 136.775894 131.241726 
L 136.849161 130.294892 
L 136.922428 131.731467 
L 136.995695 131.209076 
L 137.068962 131.927364 
L 137.142229 130.588737 
L 137.215496 131.339674 
L 137.288763 129.772501 
L 137.36203 131.666169 
L 137.435297 130.033697 
L 137.508564 134.114876 
L 137.655098 130.784634 
L 137.728365 130.45814 
L 137.948166 132.090611 
L 138.021433 131.209076 
L 138.241233 132.906847 
L 138.3145 131.307025 
L 138.387767 133.135393 
L 138.534301 128.499174 
L 138.607568 130.490789 
L 138.680835 131.437623 
L 138.754102 128.858317 
L 138.827369 133.592485 
L 138.900636 132.090611 
L 138.973903 128.923616 
L 139.120437 132.057962 
L 139.193704 130.42549 
L 139.266971 131.045829 
L 139.340238 130.164295 
L 139.486772 131.960013 
L 139.560039 130.490789 
L 139.633306 131.894715 
L 139.706573 131.437623 
L 139.853107 130.164295 
L 139.926374 132.15591 
L 139.999641 131.796766 
L 140.146175 130.98053 
L 140.365976 133.168042 
L 140.51251 132.384456 
L 140.585777 132.417106 
L 140.732311 131.078479 
L 140.805578 132.515054 
L 140.878845 131.307025 
L 141.025379 132.776249 
L 141.098646 132.482404 
L 141.171913 130.784634 
L 141.24518 133.135393 
L 141.318447 131.470272 
L 141.391713 132.678301 
L 141.46498 130.001047 
L 141.611514 132.417106 
L 141.684781 129.8378 
L 141.758048 132.972146 
L 141.831315 131.862065 
L 141.977849 132.123261 
L 142.124383 131.176427 
L 142.19765 131.796766 
L 142.344184 130.947881 
L 142.490718 132.874198 
L 142.563985 131.56822 
L 142.637252 131.731467 
L 142.783786 133.037445 
L 143.003587 130.947881 
L 143.223388 132.15591 
L 143.369922 132.090611 
L 143.443189 131.339674 
L 143.516456 132.939496 
L 143.66299 130.42549 
L 143.736257 131.764117 
L 143.809524 131.731467 
L 143.882791 132.253858 
L 143.956058 131.731467 
L 144.029325 131.862065 
L 144.102592 133.559836 
L 144.175859 131.209076 
L 144.249126 132.351807 
L 144.322393 131.698818 
L 144.39566 133.625135 
L 144.615461 129.968398 
L 144.688727 133.29864 
L 144.761994 130.131645 
L 144.835261 130.784634 
L 144.908528 130.45814 
L 144.981795 131.992663 
L 145.055062 131.829416 
L 145.128329 129.935749 
L 145.274863 131.56822 
L 145.421397 130.066346 
L 145.494664 130.523438 
L 145.567931 132.253858 
L 145.641198 130.621387 
L 145.714465 130.849933 
L 145.787732 130.849933 
L 145.860999 130.164295 
L 145.934266 131.078479 
L 146.007533 129.152162 
L 146.227334 133.984278 
L 146.373868 131.796766 
L 146.447135 133.494537 
L 146.520402 130.915232 
L 146.593669 132.874198 
L 146.886737 128.760369 
L 147.033271 133.657784 
L 147.106538 130.229594 
L 147.179805 131.078479 
L 147.326339 132.188559 
L 147.472873 129.935749 
L 147.54614 130.719335 
L 147.619407 130.098996 
L 147.765941 131.60087 
L 147.839208 131.666169 
L 147.912474 131.894715 
L 147.985741 129.87045 
L 148.059008 130.686686 
L 148.205542 132.057962 
L 148.278809 132.090611 
L 148.352076 130.98053 
L 148.49861 132.15591 
L 148.571877 131.078479 
L 148.645144 132.057962 
L 148.718411 131.209076 
L 148.938212 133.625135 
L 149.011479 131.176427 
L 149.158013 133.625135 
L 149.304547 131.209076 
L 149.377814 134.049577 
L 149.451081 132.841548 
L 149.524348 133.396589 
L 149.597615 130.523438 
L 149.744149 135.224957 
L 149.817416 135.975894 
L 149.96395 133.004795 
L 150.037217 134.506669 
L 150.110484 134.049577 
L 150.183751 135.192307 
L 150.257018 133.102744 
L 150.330285 133.429238 
L 150.403552 133.853681 
L 150.623353 132.482404 
L 150.769887 133.527186 
L 150.989688 132.253858 
L 151.062955 133.723083 
L 151.136221 132.286508 
L 151.282755 133.788382 
L 151.356022 132.841548 
L 151.429289 135.518802 
L 151.502556 133.494537 
L 151.575823 134.310773 
L 151.64909 135.257606 
L 151.722357 134.931112 
L 151.942158 133.29864 
L 152.015425 133.363939 
L 152.088692 135.845296 
L 152.161959 133.592485 
L 152.235226 134.637267 
L 152.308493 132.939496 
L 152.38176 133.33129 
L 152.455027 135.943244 
L 152.528294 133.755732 
L 152.601561 135.192307 
L 152.674828 133.723083 
L 152.748095 133.755732 
L 152.821362 135.812647 
L 152.894629 134.343422 
L 152.967896 135.61675 
L 153.187697 133.429238 
L 153.260964 136.008543 
L 153.334231 132.482404 
L 153.407498 134.767865 
L 153.480765 134.702566 
L 153.554032 134.082227 
L 153.627299 135.975894 
L 153.700566 133.070094 
L 153.773833 133.29864 
L 153.8471 133.461887 
L 153.920367 133.33129 
L 153.993634 135.322905 
L 154.140168 133.168042 
L 154.213435 136.139141 
L 154.286702 135.192307 
L 154.433235 132.874198 
L 154.579769 134.800514 
L 154.653036 133.559836 
L 154.726303 135.518802 
L 154.79957 134.833164 
L 155.019371 135.518802 
L 155.092638 133.233341 
L 155.165905 133.396589 
L 155.239172 134.898462 
L 155.458973 132.351807 
L 155.53224 134.114876 
L 155.678774 132.384456 
L 155.752041 134.278123 
L 155.825308 134.180175 
L 155.898575 133.396589 
L 156.118376 134.898462 
L 156.26491 133.918979 
L 156.338177 136.17179 
L 156.411444 134.604618 
L 156.484711 135.910595 
L 156.631245 133.984278 
L 156.704512 134.343422 
L 156.777779 132.972146 
L 156.924313 135.159658 
L 156.99758 135.453503 
L 157.070847 132.71095 
L 157.144114 134.931112 
L 157.217381 133.88633 
L 157.363915 135.257606 
L 157.437182 134.082227 
L 157.510449 135.747348 
L 157.583715 133.723083 
L 157.656982 135.845296 
L 157.876783 133.29864 
L 157.95005 133.135393 
L 158.023317 136.367687 
L 158.096584 134.931112 
L 158.243118 133.363939 
L 158.316385 134.147525 
L 158.389652 134.082227 
L 158.462919 133.037445 
L 158.536186 133.559836 
L 158.609453 132.874198 
L 158.755987 134.539319 
L 158.829254 134.408721 
L 158.902521 134.278123 
L 158.975788 133.88633 
L 159.049055 134.865813 
L 159.122322 133.853681 
L 159.268856 135.551451 
L 159.342123 133.723083 
L 159.41539 134.898462 
L 159.488657 132.71095 
L 159.635191 136.465635 
L 159.781725 133.168042 
L 159.854992 134.212824 
L 159.928259 132.939496 
L 160.001526 134.082227 
L 160.074793 132.319157 
L 160.221327 134.539319 
L 160.367861 132.71095 
L 160.441128 134.669916 
L 160.514395 134.180175 
L 160.587662 134.212824 
L 160.734196 132.841548 
L 160.807462 134.016928 
L 160.880729 133.494537 
L 160.953996 134.049577 
L 161.027263 133.853681 
L 161.10053 134.016928 
L 161.247064 133.461887 
L 161.320331 132.090611 
L 161.393598 134.669916 
L 161.466865 133.461887 
L 161.540132 133.494537 
L 161.686666 133.723083 
L 161.8332 132.449755 
L 161.906467 133.821031 
L 161.979734 133.690433 
L 162.126268 134.114876 
L 162.199535 134.082227 
L 162.272802 132.939496 
L 162.346069 133.200692 
L 162.419336 135.355554 
L 162.492603 132.613002 
L 162.56587 133.559836 
L 162.639137 133.625135 
L 162.712404 133.461887 
L 162.858938 135.127008 
L 162.932205 133.233341 
L 163.152006 136.008543 
L 163.225273 134.865813 
L 163.29854 134.931112 
L 163.371807 134.800514 
L 163.518341 132.906847 
L 163.591608 133.004795 
L 163.664875 134.310773 
L 163.738142 133.625135 
L 163.811409 136.302388 
L 163.884676 135.06171 
L 163.957943 133.559836 
L 164.031209 134.114876 
L 164.177743 136.073842 
L 164.397544 132.384456 
L 164.470811 134.114876 
L 164.544078 133.657784 
L 164.617345 134.082227 
L 164.690612 133.396589 
L 164.837146 136.237089 
L 164.910413 135.453503 
L 165.056947 133.592485 
L 165.130214 134.800514 
L 165.203481 133.037445 
L 165.276748 135.388204 
L 165.350015 134.147525 
L 165.423282 134.604618 
L 165.496549 134.408721 
L 165.569816 134.571968 
L 165.643083 136.922727 
L 165.789617 134.669916 
L 165.862884 135.779997 
L 166.009418 133.461887 
L 166.082685 134.604618 
L 166.155952 134.278123 
L 166.229219 133.004795 
L 166.375753 135.812647 
L 166.595554 132.71095 
L 166.668821 134.147525 
L 166.742088 133.004795 
L 166.961889 135.192307 
L 167.035156 133.690433 
L 167.108423 134.245474 
L 167.18169 134.47402 
L 167.254956 134.44137 
L 167.328223 133.396589 
L 167.474757 134.767865 
L 167.548024 133.396589 
L 167.621291 134.278123 
L 167.914359 131.829416 
L 167.987626 136.302388 
L 168.060893 133.690433 
L 168.13416 134.376071 
L 168.207427 133.918979 
L 168.427228 134.865813 
L 168.500495 134.571968 
L 168.573762 132.449755 
L 168.647029 133.29864 
L 168.720296 133.527186 
L 168.793563 132.319157 
L 169.013364 134.278123 
L 169.159898 132.547703 
L 169.233165 135.224957 
L 169.306432 134.147525 
L 169.379699 136.073842 
L 169.452966 133.723083 
L 169.526233 133.788382 
L 169.5995 132.906847 
L 169.746034 134.147525 
L 169.819301 132.351807 
L 169.965835 135.551451 
L 170.112369 132.906847 
L 170.258903 135.322905 
L 170.33217 133.592485 
L 170.405437 134.376071 
L 170.625237 135.224957 
L 170.698504 133.984278 
L 170.771771 134.245474 
L 170.845038 135.61675 
L 170.991572 133.33129 
L 171.138106 133.984278 
L 171.211373 133.853681 
L 171.28464 134.376071 
L 171.357907 133.951629 
L 171.431174 134.963761 
L 171.724242 132.221209 
L 171.797509 134.637267 
L 171.870776 133.396589 
L 171.944043 131.927364 
L 172.090577 133.918979 
L 172.163844 132.417106 
L 172.237111 132.449755 
L 172.383645 131.339674 
L 172.456912 130.686686 
L 172.530179 131.927364 
L 172.603446 130.882582 
L 172.676713 132.482404 
L 172.823247 130.915232 
L 172.896514 131.307025 
L 172.969781 131.143778 
L 173.043048 130.131645 
L 173.116315 131.209076 
L 173.189582 131.143778 
L 173.262849 131.698818 
L 173.336116 130.45814 
L 173.409383 132.841548 
L 173.48265 132.515054 
L 173.702451 133.984278 
L 173.775717 133.592485 
L 173.848984 131.60087 
L 173.922251 132.613002 
L 174.068785 135.257606 
L 174.142052 133.33129 
L 174.215319 134.245474 
L 174.361853 132.515054 
L 174.43512 132.645652 
L 174.508387 133.494537 
L 174.581654 132.678301 
L 174.728188 136.106491 
L 174.874722 133.690433 
L 174.947989 136.106491 
L 175.094523 133.984278 
L 175.16779 134.539319 
L 175.314324 132.972146 
L 175.460858 134.408721 
L 175.534125 132.057962 
L 175.753926 135.420853 
L 175.827193 133.200692 
L 175.90046 133.723083 
L 176.046994 132.841548 
L 176.120261 132.841548 
L 176.266795 134.506669 
L 176.340062 133.363939 
L 176.559863 135.779997 
L 176.63313 133.984278 
L 176.706397 134.180175 
L 176.779664 133.984278 
L 176.852931 135.257606 
L 177.072731 132.972146 
L 177.145998 134.049577 
L 177.219265 133.429238 
L 177.292532 136.20444 
L 177.365799 133.200692 
L 177.439066 134.245474 
L 177.512333 134.571968 
L 177.5856 133.396589 
L 177.658867 134.310773 
L 177.732134 133.102744 
L 177.878668 134.735215 
L 177.951935 132.972146 
L 178.025202 135.257606 
L 178.098469 134.735215 
L 178.171736 132.384456 
L 178.245003 133.070094 
L 178.391537 135.192307 
L 178.464804 134.506669 
L 178.538071 132.613002 
L 178.684605 135.094359 
L 178.757872 135.322905 
L 178.977673 132.841548 
L 179.270741 134.767865 
L 179.344008 134.212824 
L 179.417275 132.645652 
L 179.563809 134.571968 
L 179.78361 132.808899 
L 179.856877 133.951629 
L 179.930144 132.906847 
L 180.003411 135.388204 
L 180.076678 134.310773 
L 180.223211 133.690433 
L 180.296478 133.723083 
L 180.369745 134.049577 
L 180.516279 132.123261 
L 180.73608 135.649399 
L 180.882614 131.731467 
L 180.955881 134.245474 
L 181.029148 133.527186 
L 181.102415 132.515054 
L 181.175682 134.016928 
L 181.248949 133.88633 
L 181.322216 133.951629 
L 181.395483 132.613002 
L 181.46875 132.939496 
L 181.615284 134.114876 
L 181.688551 133.592485 
L 181.761818 133.951629 
L 181.908352 131.862065 
L 182.054886 135.584101 
L 182.128153 132.482404 
L 182.20142 133.559836 
L 182.274687 131.927364 
L 182.494488 135.453503 
L 182.567755 134.180175 
L 182.641022 131.894715 
L 182.787556 135.224957 
L 182.860823 132.808899 
L 183.007357 135.388204 
L 183.153891 133.135393 
L 183.227158 135.02906 
L 183.300425 132.188559 
L 183.373692 133.102744 
L 183.446958 133.102744 
L 183.520225 132.808899 
L 183.593492 133.821031 
L 183.666759 132.972146 
L 183.740026 134.147525 
L 183.813293 132.906847 
L 183.88656 134.180175 
L 183.959827 133.723083 
L 184.106361 132.7436 
L 184.252895 133.690433 
L 184.326162 132.482404 
L 184.472696 133.657784 
L 184.545963 133.821031 
L 184.61923 132.188559 
L 184.839031 134.408721 
L 184.985565 131.437623 
L 185.205366 133.755732 
L 185.3519 130.947881 
L 185.425167 132.7436 
L 185.498434 132.384456 
L 185.571701 132.71095 
L 185.644968 132.057962 
L 185.791502 133.461887 
L 185.938036 131.698818 
L 186.011303 132.906847 
L 186.08457 130.42549 
L 186.157837 133.461887 
L 186.231104 132.025312 
L 186.377638 132.580353 
L 186.450905 131.176427 
L 186.524172 131.339674 
L 186.670705 134.212824 
L 186.743972 132.71095 
L 186.817239 134.180175 
L 186.890506 131.829416 
L 186.963773 132.253858 
L 187.03704 131.372324 
L 187.110307 134.082227 
L 187.183574 131.894715 
L 187.256841 132.025312 
L 187.330108 134.800514 
L 187.403375 130.588737 
L 187.549909 135.159658 
L 187.623176 133.070094 
L 187.696443 134.506669 
L 187.76971 134.212824 
L 187.916244 132.025312 
L 188.136045 134.082227 
L 188.209312 134.47402 
L 188.282579 133.102744 
L 188.355846 133.363939 
L 188.429113 133.29864 
L 188.50238 134.996411 
L 188.648914 132.580353 
L 188.868715 136.073842 
L 189.015249 133.004795 
L 189.088516 134.44137 
L 189.23505 133.494537 
L 189.308317 135.02906 
L 189.381584 133.396589 
L 189.454851 133.788382 
L 189.528118 133.592485 
L 189.674652 134.376071 
L 189.747919 132.808899 
L 189.821186 133.853681 
L 189.894452 133.102744 
L 189.967719 135.192307 
L 190.040986 135.06171 
L 190.114253 133.233341 
L 190.18752 134.082227 
L 190.260787 133.88633 
L 190.334054 135.127008 
L 190.407321 134.571968 
L 190.480588 133.037445 
L 190.553855 135.649399 
L 190.627122 133.102744 
L 190.700389 133.657784 
L 190.773656 133.396589 
L 190.773656 133.396589 
" clip-path="url(#p6eca16fc69)" style="fill: none; stroke: #1f77b4; stroke-width: 0.5; stroke-linecap: square"/>
   </g>
   <g id="patch_3">
    <path d="M 23.410313 143.1 
L 23.410313 7.2 
" style="fill: none; stroke: #000000; stroke-width: 0.8; stroke-linejoin: miter; stroke-linecap: square"/>
   </g>
   <g id="patch_4">
    <path d="M 190.810313 143.1 
L 190.810313 7.2 
" style="fill: none; stroke: #000000; stroke-width: 0.8; stroke-linejoin: miter; stroke-linecap: square"/>
   </g>
   <g id="patch_5">
    <path d="M 23.410313 143.1 
L 190.810313 143.1 
" style="fill: none; stroke: #000000; stroke-width: 0.8; stroke-linejoin: miter; stroke-linecap: square"/>
   </g>
   <g id="patch_6">
    <path d="M 23.410313 7.2 
L 190.810313 7.2 
" style="fill: none; stroke: #000000; stroke-width: 0.8; stroke-linejoin: miter; stroke-linecap: square"/>
   </g>
  </g>
 </g>
 <defs>
  <clipPath id="p6eca16fc69">
   <rect x="23.410313" y="7.2" width="167.4" height="135.9"/>
  </clipPath>
 </defs>
</svg>
