<?xml version="1.0" encoding="utf-8" standalone="no"?>
<!DOCTYPE svg PUBLIC "-//W3C//DTD SVG 1.1//EN"
  "http://www.w3.org/Graphics/SVG/1.1/DTD/svg11.dtd">
<svg xmlns:xlink="http://www.w3.org/1999/xlink" width="198.010312pt" height="177.752813pt" viewBox="0 0 198.010312 177.752813" xmlns="http://www.w3.org/2000/svg" version="1.1">
 <metadata>
  <rdf:RDF xmlns:dc="http://purl.org/dc/elements/1.1/" xmlns:cc="http://creativecommons.org/ns#" xmlns:rdf="http://www.w3.org/1999/02/22-rdf-syntax-ns#">
   <cc:Work>
    <dc:type rdf:resource="http://purl.org/dc/dcmitype/StillImage"/>
    <dc:date>2023-05-31T16:04:06.050900</dc:date>
    <dc:format>image/svg+xml</dc:format>
    <dc:creator>
     <cc:Agent>
      <dc:title>Matplotlib v3.7.1, https://matplotlib.org/</dc:title>
     </cc:Agent>
    </dc:creator>
   </cc:Work>
  </rdf:RDF>
 </metadata>
 <defs>
  <style type="text/css">*{stroke-linejoin: round; stroke-linecap: butt}</style>
 </defs>
 <g id="figure_1">
  <g id="patch_1">
   <path d="M 0 177.752813 
L 198.010312 177.752813 
L 198.010312 0 
L 0 0 
z
" style="fill: #ffffff"/>
  </g>
  <g id="axes_1">
   <g id="patch_2">
    <path d="M 23.410313 143.1 
L 190.810313 143.1 
L 190.810313 7.2 
L 23.410313 7.2 
z
" style="fill: #ffffff"/>
   </g>
   <g id="matplotlib.axis_1">
    <g id="xtick_1">
     <g id="line2d_1">
      <defs>
       <path id="mfb3f4e8b04" d="M 0 0 
L 0 3.5 
" style="stroke: #000000; stroke-width: 0.8"/>
      </defs>
      <g>
       <use xlink:href="#mfb3f4e8b04" x="37.360313" y="143.1" style="stroke: #000000; stroke-width: 0.8"/>
      </g>
     </g>
     <g id="text_1">
      <!-- 10 -->
      <g transform="translate(32.270313 156.17875) scale(0.08 -0.08)">
       <defs>
        <path id="DejaVuSans-31" d="M 794 531 
L 1825 531 
L 1825 4091 
L 703 3866 
L 703 4441 
L 1819 4666 
L 2450 4666 
L 2450 531 
L 3481 531 
L 3481 0 
L 794 0 
L 794 531 
z
" transform="scale(0.015625)"/>
        <path id="DejaVuSans-30" d="M 2034 4250 
Q 1547 4250 1301 3770 
Q 1056 3291 1056 2328 
Q 1056 1369 1301 889 
Q 1547 409 2034 409 
Q 2525 409 2770 889 
Q 3016 1369 3016 2328 
Q 3016 3291 2770 3770 
Q 2525 4250 2034 4250 
z
M 2034 4750 
Q 2819 4750 3233 4129 
Q 3647 3509 3647 2328 
Q 3647 1150 3233 529 
Q 2819 -91 2034 -91 
Q 1250 -91 836 529 
Q 422 1150 422 2328 
Q 422 3509 836 4129 
Q 1250 4750 2034 4750 
z
" transform="scale(0.015625)"/>
       </defs>
       <use xlink:href="#DejaVuSans-31"/>
       <use xlink:href="#DejaVuSans-30" x="63.623047"/>
      </g>
     </g>
    </g>
    <g id="xtick_2">
     <g id="line2d_2">
      <g>
       <use xlink:href="#mfb3f4e8b04" x="65.260312" y="143.1" style="stroke: #000000; stroke-width: 0.8"/>
      </g>
     </g>
     <g id="text_2">
      <!-- 20 -->
      <g transform="translate(60.170312 156.17875) scale(0.08 -0.08)">
       <defs>
        <path id="DejaVuSans-32" d="M 1228 531 
L 3431 531 
L 3431 0 
L 469 0 
L 469 531 
Q 828 903 1448 1529 
Q 2069 2156 2228 2338 
Q 2531 2678 2651 2914 
Q 2772 3150 2772 3378 
Q 2772 3750 2511 3984 
Q 2250 4219 1831 4219 
Q 1534 4219 1204 4116 
Q 875 4013 500 3803 
L 500 4441 
Q 881 4594 1212 4672 
Q 1544 4750 1819 4750 
Q 2544 4750 2975 4387 
Q 3406 4025 3406 3419 
Q 3406 3131 3298 2873 
Q 3191 2616 2906 2266 
Q 2828 2175 2409 1742 
Q 1991 1309 1228 531 
z
" transform="scale(0.015625)"/>
       </defs>
       <use xlink:href="#DejaVuSans-32"/>
       <use xlink:href="#DejaVuSans-30" x="63.623047"/>
      </g>
     </g>
    </g>
    <g id="xtick_3">
     <g id="line2d_3">
      <g>
       <use xlink:href="#mfb3f4e8b04" x="93.160313" y="143.1" style="stroke: #000000; stroke-width: 0.8"/>
      </g>
     </g>
     <g id="text_3">
      <!-- 30 -->
      <g transform="translate(88.070312 156.17875) scale(0.08 -0.08)">
       <defs>
        <path id="DejaVuSans-33" d="M 2597 2516 
Q 3050 2419 3304 2112 
Q 3559 1806 3559 1356 
Q 3559 666 3084 287 
Q 2609 -91 1734 -91 
Q 1441 -91 1130 -33 
Q 819 25 488 141 
L 488 750 
Q 750 597 1062 519 
Q 1375 441 1716 441 
Q 2309 441 2620 675 
Q 2931 909 2931 1356 
Q 2931 1769 2642 2001 
Q 2353 2234 1838 2234 
L 1294 2234 
L 1294 2753 
L 1863 2753 
Q 2328 2753 2575 2939 
Q 2822 3125 2822 3475 
Q 2822 3834 2567 4026 
Q 2313 4219 1838 4219 
Q 1578 4219 1281 4162 
Q 984 4106 628 3988 
L 628 4550 
Q 988 4650 1302 4700 
Q 1616 4750 1894 4750 
Q 2613 4750 3031 4423 
Q 3450 4097 3450 3541 
Q 3450 3153 3228 2886 
Q 3006 2619 2597 2516 
z
" transform="scale(0.015625)"/>
       </defs>
       <use xlink:href="#DejaVuSans-33"/>
       <use xlink:href="#DejaVuSans-30" x="63.623047"/>
      </g>
     </g>
    </g>
    <g id="xtick_4">
     <g id="line2d_4">
      <g>
       <use xlink:href="#mfb3f4e8b04" x="121.060312" y="143.1" style="stroke: #000000; stroke-width: 0.8"/>
      </g>
     </g>
     <g id="text_4">
      <!-- 40 -->
      <g transform="translate(115.970312 156.17875) scale(0.08 -0.08)">
       <defs>
        <path id="DejaVuSans-34" d="M 2419 4116 
L 825 1625 
L 2419 1625 
L 2419 4116 
z
M 2253 4666 
L 3047 4666 
L 3047 1625 
L 3713 1625 
L 3713 1100 
L 3047 1100 
L 3047 0 
L 2419 0 
L 2419 1100 
L 313 1100 
L 313 1709 
L 2253 4666 
z
" transform="scale(0.015625)"/>
       </defs>
       <use xlink:href="#DejaVuSans-34"/>
       <use xlink:href="#DejaVuSans-30" x="63.623047"/>
      </g>
     </g>
    </g>
    <g id="xtick_5">
     <g id="line2d_5">
      <g>
       <use xlink:href="#mfb3f4e8b04" x="148.960313" y="143.1" style="stroke: #000000; stroke-width: 0.8"/>
      </g>
     </g>
     <g id="text_5">
      <!-- 50 -->
      <g transform="translate(143.870313 156.17875) scale(0.08 -0.08)">
       <defs>
        <path id="DejaVuSans-35" d="M 691 4666 
L 3169 4666 
L 3169 4134 
L 1269 4134 
L 1269 2991 
Q 1406 3038 1543 3061 
Q 1681 3084 1819 3084 
Q 2600 3084 3056 2656 
Q 3513 2228 3513 1497 
Q 3513 744 3044 326 
Q 2575 -91 1722 -91 
Q 1428 -91 1123 -41 
Q 819 9 494 109 
L 494 744 
Q 775 591 1075 516 
Q 1375 441 1709 441 
Q 2250 441 2565 725 
Q 2881 1009 2881 1497 
Q 2881 1984 2565 2268 
Q 2250 2553 1709 2553 
Q 1456 2553 1204 2497 
Q 953 2441 691 2322 
L 691 4666 
z
" transform="scale(0.015625)"/>
       </defs>
       <use xlink:href="#DejaVuSans-35"/>
       <use xlink:href="#DejaVuSans-30" x="63.623047"/>
      </g>
     </g>
    </g>
    <g id="xtick_6">
     <g id="line2d_6">
      <g>
       <use xlink:href="#mfb3f4e8b04" x="176.860313" y="143.1" style="stroke: #000000; stroke-width: 0.8"/>
      </g>
     </g>
     <g id="text_6">
      <!-- 60 -->
      <g transform="translate(171.770313 156.17875) scale(0.08 -0.08)">
       <defs>
        <path id="DejaVuSans-36" d="M 2113 2584 
Q 1688 2584 1439 2293 
Q 1191 2003 1191 1497 
Q 1191 994 1439 701 
Q 1688 409 2113 409 
Q 2538 409 2786 701 
Q 3034 994 3034 1497 
Q 3034 2003 2786 2293 
Q 2538 2584 2113 2584 
z
M 3366 4563 
L 3366 3988 
Q 3128 4100 2886 4159 
Q 2644 4219 2406 4219 
Q 1781 4219 1451 3797 
Q 1122 3375 1075 2522 
Q 1259 2794 1537 2939 
Q 1816 3084 2150 3084 
Q 2853 3084 3261 2657 
Q 3669 2231 3669 1497 
Q 3669 778 3244 343 
Q 2819 -91 2113 -91 
Q 1303 -91 875 529 
Q 447 1150 447 2328 
Q 447 3434 972 4092 
Q 1497 4750 2381 4750 
Q 2619 4750 2861 4703 
Q 3103 4656 3366 4563 
z
" transform="scale(0.015625)"/>
       </defs>
       <use xlink:href="#DejaVuSans-36"/>
       <use xlink:href="#DejaVuSans-30" x="63.623047"/>
      </g>
     </g>
    </g>
    <g id="xtick_7">
     <g id="line2d_7">
      <defs>
       <path id="md21c9acb50" d="M 0 0 
L 0 2 
" style="stroke: #000000; stroke-width: 0.6"/>
      </defs>
      <g>
       <use xlink:href="#md21c9acb50" x="23.410313" y="143.1" style="stroke: #000000; stroke-width: 0.6"/>
      </g>
     </g>
    </g>
    <g id="xtick_8">
     <g id="line2d_8">
      <g>
       <use xlink:href="#md21c9acb50" x="30.385313" y="143.1" style="stroke: #000000; stroke-width: 0.6"/>
      </g>
     </g>
    </g>
    <g id="xtick_9">
     <g id="line2d_9">
      <g>
       <use xlink:href="#md21c9acb50" x="44.335313" y="143.1" style="stroke: #000000; stroke-width: 0.6"/>
      </g>
     </g>
    </g>
    <g id="xtick_10">
     <g id="line2d_10">
      <g>
       <use xlink:href="#md21c9acb50" x="51.310313" y="143.1" style="stroke: #000000; stroke-width: 0.6"/>
      </g>
     </g>
    </g>
    <g id="xtick_11">
     <g id="line2d_11">
      <g>
       <use xlink:href="#md21c9acb50" x="58.285313" y="143.1" style="stroke: #000000; stroke-width: 0.6"/>
      </g>
     </g>
    </g>
    <g id="xtick_12">
     <g id="line2d_12">
      <g>
       <use xlink:href="#md21c9acb50" x="72.235313" y="143.1" style="stroke: #000000; stroke-width: 0.6"/>
      </g>
     </g>
    </g>
    <g id="xtick_13">
     <g id="line2d_13">
      <g>
       <use xlink:href="#md21c9acb50" x="79.210313" y="143.1" style="stroke: #000000; stroke-width: 0.6"/>
      </g>
     </g>
    </g>
    <g id="xtick_14">
     <g id="line2d_14">
      <g>
       <use xlink:href="#md21c9acb50" x="86.185312" y="143.1" style="stroke: #000000; stroke-width: 0.6"/>
      </g>
     </g>
    </g>
    <g id="xtick_15">
     <g id="line2d_15">
      <g>
       <use xlink:href="#md21c9acb50" x="100.135312" y="143.1" style="stroke: #000000; stroke-width: 0.6"/>
      </g>
     </g>
    </g>
    <g id="xtick_16">
     <g id="line2d_16">
      <g>
       <use xlink:href="#md21c9acb50" x="107.110313" y="143.1" style="stroke: #000000; stroke-width: 0.6"/>
      </g>
     </g>
    </g>
    <g id="xtick_17">
     <g id="line2d_17">
      <g>
       <use xlink:href="#md21c9acb50" x="114.085313" y="143.1" style="stroke: #000000; stroke-width: 0.6"/>
      </g>
     </g>
    </g>
    <g id="xtick_18">
     <g id="line2d_18">
      <g>
       <use xlink:href="#md21c9acb50" x="128.035313" y="143.1" style="stroke: #000000; stroke-width: 0.6"/>
      </g>
     </g>
    </g>
    <g id="xtick_19">
     <g id="line2d_19">
      <g>
       <use xlink:href="#md21c9acb50" x="135.010312" y="143.1" style="stroke: #000000; stroke-width: 0.6"/>
      </g>
     </g>
    </g>
    <g id="xtick_20">
     <g id="line2d_20">
      <g>
       <use xlink:href="#md21c9acb50" x="141.985313" y="143.1" style="stroke: #000000; stroke-width: 0.6"/>
      </g>
     </g>
    </g>
    <g id="xtick_21">
     <g id="line2d_21">
      <g>
       <use xlink:href="#md21c9acb50" x="155.935313" y="143.1" style="stroke: #000000; stroke-width: 0.6"/>
      </g>
     </g>
    </g>
    <g id="xtick_22">
     <g id="line2d_22">
      <g>
       <use xlink:href="#md21c9acb50" x="162.910313" y="143.1" style="stroke: #000000; stroke-width: 0.6"/>
      </g>
     </g>
    </g>
    <g id="xtick_23">
     <g id="line2d_23">
      <g>
       <use xlink:href="#md21c9acb50" x="169.885313" y="143.1" style="stroke: #000000; stroke-width: 0.6"/>
      </g>
     </g>
    </g>
    <g id="xtick_24">
     <g id="line2d_24">
      <g>
       <use xlink:href="#md21c9acb50" x="183.835313" y="143.1" style="stroke: #000000; stroke-width: 0.6"/>
      </g>
     </g>
    </g>
    <g id="xtick_25">
     <g id="line2d_25">
      <g>
       <use xlink:href="#md21c9acb50" x="190.810313" y="143.1" style="stroke: #000000; stroke-width: 0.6"/>
      </g>
     </g>
    </g>
    <g id="text_7">
     <!-- Two Theta (degrees) -->
     <g transform="translate(61.294688 168.681094) scale(0.09 -0.09)">
      <defs>
       <path id="DejaVuSans-54" d="M -19 4666 
L 3928 4666 
L 3928 4134 
L 2272 4134 
L 2272 0 
L 1638 0 
L 1638 4134 
L -19 4134 
L -19 4666 
z
" transform="scale(0.015625)"/>
       <path id="DejaVuSans-77" d="M 269 3500 
L 844 3500 
L 1563 769 
L 2278 3500 
L 2956 3500 
L 3675 769 
L 4391 3500 
L 4966 3500 
L 4050 0 
L 3372 0 
L 2619 2869 
L 1863 0 
L 1184 0 
L 269 3500 
z
" transform="scale(0.015625)"/>
       <path id="DejaVuSans-6f" d="M 1959 3097 
Q 1497 3097 1228 2736 
Q 959 2375 959 1747 
Q 959 1119 1226 758 
Q 1494 397 1959 397 
Q 2419 397 2687 759 
Q 2956 1122 2956 1747 
Q 2956 2369 2687 2733 
Q 2419 3097 1959 3097 
z
M 1959 3584 
Q 2709 3584 3137 3096 
Q 3566 2609 3566 1747 
Q 3566 888 3137 398 
Q 2709 -91 1959 -91 
Q 1206 -91 779 398 
Q 353 888 353 1747 
Q 353 2609 779 3096 
Q 1206 3584 1959 3584 
z
" transform="scale(0.015625)"/>
       <path id="DejaVuSans-20" transform="scale(0.015625)"/>
       <path id="DejaVuSans-68" d="M 3513 2113 
L 3513 0 
L 2938 0 
L 2938 2094 
Q 2938 2591 2744 2837 
Q 2550 3084 2163 3084 
Q 1697 3084 1428 2787 
Q 1159 2491 1159 1978 
L 1159 0 
L 581 0 
L 581 4863 
L 1159 4863 
L 1159 2956 
Q 1366 3272 1645 3428 
Q 1925 3584 2291 3584 
Q 2894 3584 3203 3211 
Q 3513 2838 3513 2113 
z
" transform="scale(0.015625)"/>
       <path id="DejaVuSans-65" d="M 3597 1894 
L 3597 1613 
L 953 1613 
Q 991 1019 1311 708 
Q 1631 397 2203 397 
Q 2534 397 2845 478 
Q 3156 559 3463 722 
L 3463 178 
Q 3153 47 2828 -22 
Q 2503 -91 2169 -91 
Q 1331 -91 842 396 
Q 353 884 353 1716 
Q 353 2575 817 3079 
Q 1281 3584 2069 3584 
Q 2775 3584 3186 3129 
Q 3597 2675 3597 1894 
z
M 3022 2063 
Q 3016 2534 2758 2815 
Q 2500 3097 2075 3097 
Q 1594 3097 1305 2825 
Q 1016 2553 972 2059 
L 3022 2063 
z
" transform="scale(0.015625)"/>
       <path id="DejaVuSans-74" d="M 1172 4494 
L 1172 3500 
L 2356 3500 
L 2356 3053 
L 1172 3053 
L 1172 1153 
Q 1172 725 1289 603 
Q 1406 481 1766 481 
L 2356 481 
L 2356 0 
L 1766 0 
Q 1100 0 847 248 
Q 594 497 594 1153 
L 594 3053 
L 172 3053 
L 172 3500 
L 594 3500 
L 594 4494 
L 1172 4494 
z
" transform="scale(0.015625)"/>
       <path id="DejaVuSans-61" d="M 2194 1759 
Q 1497 1759 1228 1600 
Q 959 1441 959 1056 
Q 959 750 1161 570 
Q 1363 391 1709 391 
Q 2188 391 2477 730 
Q 2766 1069 2766 1631 
L 2766 1759 
L 2194 1759 
z
M 3341 1997 
L 3341 0 
L 2766 0 
L 2766 531 
Q 2569 213 2275 61 
Q 1981 -91 1556 -91 
Q 1019 -91 701 211 
Q 384 513 384 1019 
Q 384 1609 779 1909 
Q 1175 2209 1959 2209 
L 2766 2209 
L 2766 2266 
Q 2766 2663 2505 2880 
Q 2244 3097 1772 3097 
Q 1472 3097 1187 3025 
Q 903 2953 641 2809 
L 641 3341 
Q 956 3463 1253 3523 
Q 1550 3584 1831 3584 
Q 2591 3584 2966 3190 
Q 3341 2797 3341 1997 
z
" transform="scale(0.015625)"/>
       <path id="DejaVuSans-28" d="M 1984 4856 
Q 1566 4138 1362 3434 
Q 1159 2731 1159 2009 
Q 1159 1288 1364 580 
Q 1569 -128 1984 -844 
L 1484 -844 
Q 1016 -109 783 600 
Q 550 1309 550 2009 
Q 550 2706 781 3412 
Q 1013 4119 1484 4856 
L 1984 4856 
z
" transform="scale(0.015625)"/>
       <path id="DejaVuSans-64" d="M 2906 2969 
L 2906 4863 
L 3481 4863 
L 3481 0 
L 2906 0 
L 2906 525 
Q 2725 213 2448 61 
Q 2172 -91 1784 -91 
Q 1150 -91 751 415 
Q 353 922 353 1747 
Q 353 2572 751 3078 
Q 1150 3584 1784 3584 
Q 2172 3584 2448 3432 
Q 2725 3281 2906 2969 
z
M 947 1747 
Q 947 1113 1208 752 
Q 1469 391 1925 391 
Q 2381 391 2643 752 
Q 2906 1113 2906 1747 
Q 2906 2381 2643 2742 
Q 2381 3103 1925 3103 
Q 1469 3103 1208 2742 
Q 947 2381 947 1747 
z
" transform="scale(0.015625)"/>
       <path id="DejaVuSans-67" d="M 2906 1791 
Q 2906 2416 2648 2759 
Q 2391 3103 1925 3103 
Q 1463 3103 1205 2759 
Q 947 2416 947 1791 
Q 947 1169 1205 825 
Q 1463 481 1925 481 
Q 2391 481 2648 825 
Q 2906 1169 2906 1791 
z
M 3481 434 
Q 3481 -459 3084 -895 
Q 2688 -1331 1869 -1331 
Q 1566 -1331 1297 -1286 
Q 1028 -1241 775 -1147 
L 775 -588 
Q 1028 -725 1275 -790 
Q 1522 -856 1778 -856 
Q 2344 -856 2625 -561 
Q 2906 -266 2906 331 
L 2906 616 
Q 2728 306 2450 153 
Q 2172 0 1784 0 
Q 1141 0 747 490 
Q 353 981 353 1791 
Q 353 2603 747 3093 
Q 1141 3584 1784 3584 
Q 2172 3584 2450 3431 
Q 2728 3278 2906 2969 
L 2906 3500 
L 3481 3500 
L 3481 434 
z
" transform="scale(0.015625)"/>
       <path id="DejaVuSans-72" d="M 2631 2963 
Q 2534 3019 2420 3045 
Q 2306 3072 2169 3072 
Q 1681 3072 1420 2755 
Q 1159 2438 1159 1844 
L 1159 0 
L 581 0 
L 581 3500 
L 1159 3500 
L 1159 2956 
Q 1341 3275 1631 3429 
Q 1922 3584 2338 3584 
Q 2397 3584 2469 3576 
Q 2541 3569 2628 3553 
L 2631 2963 
z
" transform="scale(0.015625)"/>
       <path id="DejaVuSans-73" d="M 2834 3397 
L 2834 2853 
Q 2591 2978 2328 3040 
Q 2066 3103 1784 3103 
Q 1356 3103 1142 2972 
Q 928 2841 928 2578 
Q 928 2378 1081 2264 
Q 1234 2150 1697 2047 
L 1894 2003 
Q 2506 1872 2764 1633 
Q 3022 1394 3022 966 
Q 3022 478 2636 193 
Q 2250 -91 1575 -91 
Q 1294 -91 989 -36 
Q 684 19 347 128 
L 347 722 
Q 666 556 975 473 
Q 1284 391 1588 391 
Q 1994 391 2212 530 
Q 2431 669 2431 922 
Q 2431 1156 2273 1281 
Q 2116 1406 1581 1522 
L 1381 1569 
Q 847 1681 609 1914 
Q 372 2147 372 2553 
Q 372 3047 722 3315 
Q 1072 3584 1716 3584 
Q 2034 3584 2315 3537 
Q 2597 3491 2834 3397 
z
" transform="scale(0.015625)"/>
       <path id="DejaVuSans-29" d="M 513 4856 
L 1013 4856 
Q 1481 4119 1714 3412 
Q 1947 2706 1947 2009 
Q 1947 1309 1714 600 
Q 1481 -109 1013 -844 
L 513 -844 
Q 928 -128 1133 580 
Q 1338 1288 1338 2009 
Q 1338 2731 1133 3434 
Q 928 4138 513 4856 
z
" transform="scale(0.015625)"/>
      </defs>
      <use xlink:href="#DejaVuSans-54"/>
      <use xlink:href="#DejaVuSans-77" x="44.583984"/>
      <use xlink:href="#DejaVuSans-6f" x="126.371094"/>
      <use xlink:href="#DejaVuSans-20" x="187.552734"/>
      <use xlink:href="#DejaVuSans-54" x="219.339844"/>
      <use xlink:href="#DejaVuSans-68" x="280.423828"/>
      <use xlink:href="#DejaVuSans-65" x="343.802734"/>
      <use xlink:href="#DejaVuSans-74" x="405.326172"/>
      <use xlink:href="#DejaVuSans-61" x="444.535156"/>
      <use xlink:href="#DejaVuSans-20" x="505.814453"/>
      <use xlink:href="#DejaVuSans-28" x="537.601562"/>
      <use xlink:href="#DejaVuSans-64" x="576.615234"/>
      <use xlink:href="#DejaVuSans-65" x="640.091797"/>
      <use xlink:href="#DejaVuSans-67" x="701.615234"/>
      <use xlink:href="#DejaVuSans-72" x="765.091797"/>
      <use xlink:href="#DejaVuSans-65" x="803.955078"/>
      <use xlink:href="#DejaVuSans-65" x="865.478516"/>
      <use xlink:href="#DejaVuSans-73" x="927.001953"/>
      <use xlink:href="#DejaVuSans-29" x="979.101562"/>
     </g>
    </g>
   </g>
   <g id="matplotlib.axis_2">
    <g id="ytick_1">
     <g id="line2d_26"/>
    </g>
    <g id="ytick_2">
     <g id="line2d_27"/>
    </g>
    <g id="ytick_3">
     <g id="line2d_28"/>
    </g>
    <g id="ytick_4">
     <g id="line2d_29"/>
    </g>
    <g id="ytick_5">
     <g id="line2d_30"/>
    </g>
    <g id="text_8">
     <!-- Intensity -->
     <g transform="translate(14.038594 94.73625) rotate(-90) scale(0.09 -0.09)">
      <defs>
       <path id="DejaVuSans-49" d="M 628 4666 
L 1259 4666 
L 1259 0 
L 628 0 
L 628 4666 
z
" transform="scale(0.015625)"/>
       <path id="DejaVuSans-6e" d="M 3513 2113 
L 3513 0 
L 2938 0 
L 2938 2094 
Q 2938 2591 2744 2837 
Q 2550 3084 2163 3084 
Q 1697 3084 1428 2787 
Q 1159 2491 1159 1978 
L 1159 0 
L 581 0 
L 581 3500 
L 1159 3500 
L 1159 2956 
Q 1366 3272 1645 3428 
Q 1925 3584 2291 3584 
Q 2894 3584 3203 3211 
Q 3513 2838 3513 2113 
z
" transform="scale(0.015625)"/>
       <path id="DejaVuSans-69" d="M 603 3500 
L 1178 3500 
L 1178 0 
L 603 0 
L 603 3500 
z
M 603 4863 
L 1178 4863 
L 1178 4134 
L 603 4134 
L 603 4863 
z
" transform="scale(0.015625)"/>
       <path id="DejaVuSans-79" d="M 2059 -325 
Q 1816 -950 1584 -1140 
Q 1353 -1331 966 -1331 
L 506 -1331 
L 506 -850 
L 844 -850 
Q 1081 -850 1212 -737 
Q 1344 -625 1503 -206 
L 1606 56 
L 191 3500 
L 800 3500 
L 1894 763 
L 2988 3500 
L 3597 3500 
L 2059 -325 
z
" transform="scale(0.015625)"/>
      </defs>
      <use xlink:href="#DejaVuSans-49"/>
      <use xlink:href="#DejaVuSans-6e" x="29.492188"/>
      <use xlink:href="#DejaVuSans-74" x="92.871094"/>
      <use xlink:href="#DejaVuSans-65" x="132.080078"/>
      <use xlink:href="#DejaVuSans-6e" x="193.603516"/>
      <use xlink:href="#DejaVuSans-73" x="256.982422"/>
      <use xlink:href="#DejaVuSans-69" x="309.082031"/>
      <use xlink:href="#DejaVuSans-74" x="336.865234"/>
      <use xlink:href="#DejaVuSans-79" x="376.074219"/>
     </g>
    </g>
   </g>
   <g id="line2d_31">
    <path d="M 23.43188 13.377273 
L 23.505147 13.704473 
L 23.578414 18.28528 
L 23.651681 17.385479 
L 23.944749 28.728429 
L 24.091283 23.438688 
L 24.16455 29.655497 
L 24.237817 26.383493 
L 24.384351 31.1279 
L 24.457618 30.337165 
L 24.530885 30.882499 
L 24.677419 35.790507 
L 24.750686 35.299706 
L 24.823953 37.99911 
L 24.89722 37.75371 
L 25.11702 41.652849 
L 25.190287 38.844378 
L 25.410088 44.679454 
L 25.483355 45.224788 
L 25.556622 42.22545 
L 25.776423 49.914662 
L 25.84969 49.532928 
L 25.922957 46.124589 
L 25.996224 46.77899 
L 26.142758 51.33253 
L 26.216025 48.60586 
L 26.435826 53.759267 
L 26.509093 52.177798 
L 26.655627 56.676805 
L 26.802161 53.541134 
L 26.948695 56.376871 
L 27.021962 56.240538 
L 27.095229 60.466878 
L 27.168496 55.449803 
L 27.241763 56.922206 
L 27.31503 56.485938 
L 27.388297 61.993813 
L 27.461564 60.685011 
L 27.608098 58.694542 
L 27.681365 62.02108 
L 27.754632 61.993813 
L 27.827899 58.694542 
L 28.0477 65.483952 
L 28.120967 64.09335 
L 28.194234 64.638684 
L 28.2675 64.284217 
L 28.340767 65.129485 
L 28.487301 62.511881 
L 28.560568 68.101556 
L 28.633835 66.847287 
L 28.707102 68.428756 
L 28.780369 67.528955 
L 28.853636 70.937294 
L 28.926903 70.855493 
L 29.073437 66.029286 
L 29.146704 70.064759 
L 29.219971 68.865024 
L 29.293238 68.701424 
L 29.366505 68.865024 
L 29.439772 68.265156 
L 29.586306 70.991827 
L 29.659573 71.455361 
L 29.73284 70.501026 
L 29.879374 74.509232 
L 30.025908 70.773693 
L 30.099175 72.818696 
L 30.172442 70.88276 
L 30.318976 72.736896 
L 30.392243 69.519425 
L 30.46551 76.472435 
L 30.538777 73.254964 
L 30.758578 76.090701 
L 30.831845 77.535837 
L 30.978379 75.081833 
L 31.051646 76.826903 
L 31.124913 76.036168 
L 31.271447 78.053904 
L 31.344714 75.463567 
L 31.417981 76.281568 
L 31.491247 78.953706 
L 31.637781 75.054567 
L 31.784315 77.34497 
L 31.857582 77.890304 
L 31.930849 77.781237 
L 32.004116 76.636036 
L 32.15065 78.735572 
L 32.223917 82.171177 
L 32.297184 78.435638 
L 32.370451 79.908041 
L 32.443718 78.899172 
L 32.516985 76.036168 
L 32.663519 81.053242 
L 32.736786 79.66264 
L 32.810053 81.89851 
L 32.88332 81.380443 
L 32.956587 81.271376 
L 33.029854 79.171839 
L 33.103121 80.098908 
L 33.176388 79.362706 
L 33.322922 84.352514 
L 33.396189 81.216843 
L 33.469456 81.544043 
L 33.542723 83.916247 
L 33.61599 83.616313 
L 33.689257 84.488848 
L 33.909058 81.65311 
L 34.055592 85.143249 
L 34.128859 82.798312 
L 34.202126 83.80718 
L 34.275393 82.634711 
L 34.34866 83.64358 
L 34.421927 87.433652 
L 34.568461 84.379781 
L 34.641728 85.470449 
L 34.714994 84.107114 
L 34.861528 87.842653 
L 34.934795 87.106452 
L 35.008062 84.625181 
L 35.081329 87.160985 
L 35.154596 85.661316 
L 35.227863 87.379119 
L 35.30113 86.561117 
L 35.374397 86.915585 
L 35.447664 86.097583 
L 35.520931 87.569986 
L 35.594198 85.415916 
L 35.667465 85.715849 
L 35.813999 88.44252 
L 35.887266 85.497716 
L 35.960533 85.634049 
L 36.0338 89.069655 
L 36.107067 86.751984 
L 36.180334 89.315055 
L 36.253601 87.488185 
L 36.473402 90.378456 
L 36.546669 90.242123 
L 36.693203 89.178721 
L 36.76647 90.787457 
L 36.839737 86.315717 
L 36.913004 90.078523 
L 36.986271 87.706319 
L 37.059538 88.060786 
L 37.132805 90.67839 
L 37.206072 89.096921 
L 37.279339 89.724055 
L 37.352606 91.114658 
L 37.572407 88.715187 
L 37.865475 93.241461 
L 37.938741 91.196458 
L 38.012008 91.741792 
L 38.085275 91.141924 
L 38.158542 92.83246 
L 38.231809 90.078523 
L 38.305076 90.869257 
L 38.45161 95.531864 
L 38.598144 90.951057 
L 38.671411 92.232593 
L 38.744678 90.569323 
L 38.891212 93.432328 
L 38.964479 92.614327 
L 39.037746 93.459595 
L 39.111013 92.123526 
L 39.18428 93.377794 
L 39.330814 90.214856 
L 39.623882 96.622533 
L 39.770416 93.295994 
L 39.91695 94.413929 
L 39.990217 93.732262 
L 40.063484 95.559131 
L 40.136751 95.340997 
L 40.210018 95.586398 
L 40.283285 93.105127 
L 40.356552 95.722731 
L 40.429819 95.259197 
L 40.503086 96.240799 
L 40.64962 91.959926 
L 40.722887 95.368264 
L 40.796154 95.177397 
L 40.869421 96.8134 
L 41.089222 94.332129 
L 41.162488 97.849535 
L 41.235755 94.98653 
L 41.382289 97.904068 
L 41.455556 94.713863 
L 41.528823 95.531864 
L 41.60209 94.959263 
L 41.748624 97.195134 
L 41.895158 97.031533 
L 41.968425 97.549601 
L 42.041692 96.677066 
L 42.188226 97.904068 
L 42.261493 95.041064 
L 42.481294 98.613002 
L 42.554561 98.067668 
L 42.627828 99.54007 
L 42.701095 98.749336 
L 42.774362 99.022003 
L 42.847629 98.940203 
L 42.994163 96.131732 
L 43.06743 99.949071 
L 43.140697 97.795001 
L 43.213964 98.422135 
L 43.287231 96.949733 
L 43.360498 100.439872 
L 43.433765 99.54007 
L 43.507032 96.840666 
L 43.580299 101.44874 
L 43.653566 99.103803 
L 43.726833 98.803869 
L 43.8001 98.912936 
L 43.873367 101.257873 
L 44.019901 99.867271 
L 44.093168 101.966807 
L 44.166435 100.903406 
L 44.312969 99.076536 
L 44.386235 100.876139 
L 44.459502 99.37647 
L 44.532769 101.666874 
L 44.606036 100.548939 
L 44.75257 98.013135 
L 44.899104 102.484875 
L 44.972371 100.249005 
L 45.045638 100.957939 
L 45.118905 100.603472 
L 45.192172 100.576205 
L 45.411973 102.239475 
L 45.558507 100.003604 
L 45.705041 102.757542 
L 45.778308 100.794339 
L 45.851575 103.330143 
L 45.924842 102.812075 
L 45.998109 101.36694 
L 46.071376 104.311744 
L 46.144643 102.812075 
L 46.21791 104.448078 
L 46.291177 102.239475 
L 46.364444 102.430341 
L 46.437711 102.403075 
L 46.510978 101.339673 
L 46.584245 104.120877 
L 46.730779 100.139938 
L 46.804046 103.221076 
L 46.877313 102.893876 
L 47.023847 100.739806 
L 47.097114 102.948409 
L 47.170381 101.094273 
L 47.243648 101.830474 
L 47.316915 103.275609 
L 47.536716 100.930673 
L 47.683249 104.557145 
L 47.829783 103.84821 
L 47.90305 104.366278 
L 48.049584 102.512142 
L 48.122851 102.893876 
L 48.196118 102.130408 
L 48.269385 103.575543 
L 48.342652 100.794339 
L 48.562453 106.193147 
L 48.708987 101.803207 
L 48.855521 106.956615 
L 48.928788 105.047945 
L 49.002055 105.157012 
L 49.075322 105.047945 
L 49.148589 103.84821 
L 49.295123 105.102479 
L 49.441657 103.84821 
L 49.807992 106.793015 
L 50.027793 103.275609 
L 50.10106 103.248343 
L 50.247594 107.065682 
L 50.394128 105.157012 
L 50.467395 106.574881 
L 50.540662 103.630077 
L 50.687196 107.038415 
L 50.760463 104.148144 
L 50.83373 106.056814 
L 50.906996 105.266079 
L 50.980263 103.739143 
L 51.05353 106.902082 
L 51.126797 105.347879 
L 51.200064 103.657343 
L 51.419865 108.456284 
L 51.493132 104.911612 
L 51.566399 105.347879 
L 51.639666 110.06502 
L 51.7862 104.339011 
L 51.859467 106.247681 
L 51.932734 105.129746 
L 52.006001 105.566013 
L 52.079268 106.438548 
L 52.152535 106.00228 
L 52.225802 105.184279 
L 52.299069 107.011148 
L 52.372336 106.738481 
L 52.445603 104.475345 
L 52.665404 108.865285 
L 52.885205 105.893213 
L 52.958472 106.138614 
L 53.031739 105.975014 
L 53.105006 107.692816 
L 53.178273 106.00228 
L 53.398074 108.619884 
L 53.617875 106.247681 
L 53.691142 107.474682 
L 53.764409 105.157012 
L 53.837676 108.456284 
L 53.910943 106.029547 
L 53.98421 106.438548 
L 54.057477 107.283816 
L 54.130743 106.547614 
L 54.20401 107.365616 
L 54.277277 103.52101 
L 54.350544 104.366278 
L 54.423811 105.975014 
L 54.497078 104.966145 
L 54.570345 106.329481 
L 54.643612 105.020679 
L 54.790146 108.020017 
L 54.93668 104.720745 
L 55.009947 106.765748 
L 55.083214 105.75688 
L 55.156481 106.111347 
L 55.229748 107.120215 
L 55.376282 105.020679 
L 55.449549 105.647813 
L 55.522816 104.748012 
L 55.596083 107.74735 
L 55.66935 106.247681 
L 55.742617 108.15635 
L 55.815884 107.474682 
L 55.962418 105.51148 
L 56.035685 104.748012 
L 56.182219 107.583749 
L 56.328753 105.347879 
L 56.40202 107.774616 
L 56.475287 104.802545 
L 56.548554 104.966145 
L 56.621821 105.75688 
L 56.695088 105.429679 
L 56.768355 105.51148 
L 56.841622 105.211546 
L 56.914889 105.67508 
L 56.988156 104.393544 
L 57.061423 106.16588 
L 57.207957 104.311744 
L 57.281224 106.574881 
L 57.35449 105.102479 
L 57.427757 107.801883 
L 57.647558 103.76641 
L 57.720825 103.35741 
L 57.794092 106.738481 
L 57.867359 105.947747 
L 58.08716 104.120877 
L 58.160427 103.84821 
L 58.380228 105.320613 
L 58.526762 101.339673 
L 58.673296 105.538746 
L 58.746563 105.51148 
L 58.81983 104.857079 
L 58.893097 105.729613 
L 59.186165 103.43921 
L 59.259432 102.184941 
L 59.405966 104.257211 
L 59.479233 104.529878 
L 59.699034 100.712539 
L 59.772301 103.957277 
L 59.845568 103.166543 
L 59.992102 100.576205 
L 60.138636 103.84821 
L 60.28517 102.975676 
L 60.358437 104.148144 
L 60.578237 100.712539 
L 60.651504 103.084742 
L 60.798038 100.712539 
L 60.871305 103.112009 
L 60.944572 102.512142 
L 61.091106 104.011811 
L 61.164373 100.685272 
L 61.23764 103.711877 
L 61.310907 101.803207 
L 61.384174 102.593942 
L 61.603975 99.976338 
L 61.677242 103.030209 
L 61.750509 99.676404 
L 61.823776 100.821606 
L 61.897043 101.094273 
L 61.97031 98.122202 
L 62.043577 98.558469 
L 62.116844 101.421473 
L 62.190111 99.949071 
L 62.263378 98.258535 
L 62.336645 99.13107 
L 62.409912 99.894538 
L 62.483179 98.694802 
L 62.556446 99.649137 
L 62.629713 97.358734 
L 62.70298 100.003604 
L 62.776247 99.758204 
L 62.849514 97.904068 
L 62.922781 98.231268 
L 62.996048 99.076536 
L 63.069315 98.231268 
L 63.142582 98.313069 
L 63.289116 100.439872 
L 63.362383 96.486199 
L 63.43565 97.467801 
L 63.508917 96.240799 
L 63.582184 97.876801 
L 63.655451 96.622533 
L 63.801984 98.858403 
L 63.875251 94.141262 
L 63.948518 96.186265 
L 64.021785 99.812738 
L 64.095052 99.103803 
L 64.168319 95.531864 
L 64.241586 96.840666 
L 64.38812 94.304862 
L 64.461387 95.15013 
L 64.534654 96.077198 
L 64.607921 93.623195 
L 64.681188 97.004267 
L 64.827722 91.796325 
L 64.974256 96.677066 
L 65.12079 90.76019 
L 65.194057 94.57753 
L 65.267324 93.350528 
L 65.340591 95.368264 
L 65.413858 95.122864 
L 65.487125 91.414591 
L 65.560392 92.50526 
L 65.706926 94.386663 
L 65.780193 93.623195 
L 65.85346 95.450064 
L 65.926727 94.032195 
L 65.999994 94.686596 
L 66.073261 94.195796 
L 66.146528 91.796325 
L 66.219795 92.696127 
L 66.293062 91.687258 
L 66.366329 93.105127 
L 66.439596 89.833122 
L 66.512863 94.004929 
L 66.58613 93.759528 
L 66.659397 91.250991 
L 66.805931 93.677728 
L 66.952465 90.160323 
L 67.025731 92.696127 
L 67.098998 92.532526 
L 67.172265 91.741792 
L 67.245532 93.132394 
L 67.318799 88.715187 
L 67.392066 93.650461 
L 67.465333 88.687921 
L 67.5386 92.150793 
L 67.611867 90.26939 
L 67.685134 90.651124 
L 67.904935 89.751322 
L 68.051469 90.841991 
L 68.124736 90.487523 
L 68.198003 92.58706 
L 68.27127 88.52432 
L 68.344537 89.042388 
L 68.417804 90.323923 
L 68.491071 88.878788 
L 68.564338 89.696789 
L 68.637605 89.233255 
L 68.710872 86.833784 
L 68.784139 88.933321 
L 68.857406 88.060786 
L 68.930673 88.960588 
L 69.00394 87.379119 
L 69.150474 90.160323 
L 69.297008 86.942851 
L 69.370275 89.451388 
L 69.443542 86.233917 
L 69.516809 87.706319 
L 69.590076 89.287788 
L 69.663343 87.897186 
L 69.809877 90.569323 
L 69.883144 87.242785 
L 69.956411 89.178721 
L 70.029678 85.334115 
L 70.102945 88.497054 
L 70.176212 84.434314 
L 70.249479 91.523658 
L 70.322745 85.906716 
L 70.396012 86.697451 
L 70.469279 85.715849 
L 70.542546 87.706319 
L 70.615813 86.397517 
L 70.762347 88.44252 
L 70.835614 87.815386 
L 70.908881 87.515452 
L 70.982148 88.796987 
L 71.055415 88.578854 
L 71.275216 87.160985 
L 71.42175 89.914922 
L 71.495017 84.379781 
L 71.568284 86.561117 
L 71.861352 89.533189 
L 71.934619 88.60612 
L 72.007886 89.478655 
L 72.081153 87.351852 
L 72.15442 88.878788 
L 72.227687 88.497054 
L 72.300954 88.906054 
L 72.374221 90.43299 
L 72.447488 87.569986 
L 72.520755 90.323923 
L 72.594022 86.888318 
L 72.667289 87.515452 
L 72.740556 90.623857 
L 72.813823 88.715187 
L 72.960357 90.487523 
L 73.033624 87.869919 
L 73.106891 89.860389 
L 73.180158 87.324585 
L 73.253425 87.842653 
L 73.399959 89.505922 
L 73.619759 87.733586 
L 73.693026 87.788119 
L 73.83956 90.35119 
L 73.912827 85.688583 
L 74.059361 89.914922 
L 74.132628 90.242123 
L 74.205895 88.824254 
L 74.279162 89.451388 
L 74.352429 88.906054 
L 74.425696 87.460919 
L 74.57223 92.041726 
L 74.645497 91.360058 
L 74.718764 89.833122 
L 74.865298 91.496392 
L 74.938565 87.760853 
L 75.011832 90.487523 
L 75.085099 88.169853 
L 75.158366 88.851521 
L 75.231633 92.614327 
L 75.3049 89.996723 
L 75.451434 92.532526 
L 75.524701 92.096259 
L 75.597968 90.705657 
L 75.671235 91.278258 
L 75.744502 90.133056 
L 75.964303 94.495729 
L 76.03757 91.769059 
L 76.110837 92.068992 
L 76.184104 93.814062 
L 76.257371 93.432328 
L 76.403905 91.605458 
L 76.477172 91.469125 
L 76.696973 93.868595 
L 76.770239 91.305525 
L 76.843506 92.205326 
L 76.916773 90.623857 
L 76.99004 91.550925 
L 77.063307 90.732924 
L 77.136574 92.805194 
L 77.209841 90.978324 
L 77.356375 93.977662 
L 77.429642 90.787457 
L 77.502909 94.632063 
L 77.576176 94.168529 
L 77.649443 92.99606 
L 77.72271 93.186927 
L 77.942511 94.604796 
L 78.015778 93.377794 
L 78.162312 95.749998 
L 78.308846 94.332129 
L 78.382113 96.322599 
L 78.45538 95.286464 
L 78.528647 92.42346 
L 78.675181 96.649799 
L 78.821715 94.550263 
L 78.894982 96.486199 
L 79.041516 94.468463 
L 79.114783 97.931335 
L 79.261317 94.713863 
L 79.407851 96.131732 
L 79.481118 96.240799 
L 79.554385 96.949733 
L 79.627652 96.458932 
L 79.700919 96.977 
L 79.774186 95.231931 
L 79.847453 97.276934 
L 79.92072 94.059462 
L 79.993986 98.204002 
L 80.067253 95.368264 
L 80.14052 98.558469 
L 80.213787 94.059462 
L 80.287054 97.931335 
L 80.360321 95.886332 
L 80.506855 99.54007 
L 80.580122 97.631401 
L 80.653389 97.740468 
L 80.726656 97.685934 
L 80.799923 96.758866 
L 80.87319 98.285802 
L 80.946457 98.149468 
L 81.019724 97.604134 
L 81.092991 98.013135 
L 81.166258 97.931335 
L 81.239525 99.649137 
L 81.386059 97.031533 
L 81.752394 100.385338 
L 81.898928 98.722069 
L 82.118729 100.194471 
L 82.191996 98.531202 
L 82.485064 101.176073 
L 82.558331 99.921804 
L 82.704865 101.012473 
L 82.778132 98.694802 
L 82.851399 100.876139 
L 82.924666 100.221738 
L 82.997933 101.312406 
L 83.0712 100.249005 
L 83.144467 103.248343 
L 83.291 98.858403 
L 83.364267 101.148806 
L 83.437534 100.139938 
L 83.510801 101.77594 
L 83.584068 101.148806 
L 83.657335 100.957939 
L 83.730602 101.966807 
L 83.803869 101.748674 
L 83.877136 102.239475 
L 84.02367 100.439872 
L 84.096937 100.957939 
L 84.170204 100.739806 
L 84.243471 102.948409 
L 84.316738 102.321275 
L 84.390005 100.630739 
L 84.463272 101.69414 
L 84.536539 100.276272 
L 84.75634 103.112009 
L 84.829607 100.112671 
L 84.976141 105.429679 
L 85.049408 101.585074 
L 85.122675 102.703009 
L 85.269209 104.093611 
L 85.342476 102.212208 
L 85.415743 103.030209 
L 85.562277 105.129746 
L 85.635544 104.693478 
L 85.708811 102.430341 
L 85.782078 103.84821 
L 85.855345 103.139276 
L 85.928612 102.021341 
L 86.075146 105.075212 
L 86.148413 103.60281 
L 86.22168 104.039077 
L 86.368214 102.675742 
L 86.44148 104.938879 
L 86.588014 101.939541 
L 86.734548 104.175411 
L 86.807815 102.321275 
L 86.881082 103.221076 
L 87.027616 101.36694 
L 87.247417 105.51148 
L 87.320684 104.202678 
L 87.393951 104.066344 
L 87.540485 108.374484 
L 87.687019 104.584411 
L 87.760286 106.738481 
L 87.980087 103.820944 
L 88.199888 107.283816 
L 88.346422 103.657343 
L 88.419689 105.729613 
L 88.492956 105.211546 
L 88.566223 103.739143 
L 88.63949 104.011811 
L 88.859291 106.929348 
L 88.932558 104.502611 
L 89.079092 106.656681 
L 89.152359 106.138614 
L 89.225626 104.666212 
L 89.298893 106.793015 
L 89.37216 103.820944 
L 89.445427 104.475345 
L 89.518694 106.820281 
L 89.591961 104.966145 
L 89.665227 106.00228 
L 89.738494 105.947747 
L 89.811761 105.538746 
L 89.958295 107.965483 
L 90.031562 107.474682 
L 90.178096 105.456946 
L 90.32463 106.929348 
L 90.471164 106.193147 
L 90.544431 107.311082 
L 90.690965 106.138614 
L 90.837499 107.801883 
L 90.984033 105.647813 
L 91.0573 106.384014 
L 91.350368 107.856416 
L 91.423635 106.356747 
L 91.496902 109.737819 
L 91.570169 108.047283 
L 91.643436 109.301552 
L 91.716703 107.501949 
L 91.78997 108.919818 
L 91.863237 108.456284 
L 91.936504 107.883683 
L 92.009771 108.892551 
L 92.083038 108.538084 
L 92.156305 108.23815 
L 92.229572 107.447416 
L 92.302839 107.82915 
L 92.376106 107.092949 
L 92.449373 108.701684 
L 92.52264 107.256549 
L 92.595907 108.592618 
L 92.669174 108.429017 
L 92.742441 108.210884 
L 92.815708 109.819619 
L 92.888974 109.356085 
L 92.962241 107.91095 
L 93.035508 110.037753 
L 93.108775 108.15635 
L 93.255309 111.319288 
L 93.401843 108.07455 
L 93.47511 110.06502 
L 93.548377 106.438548 
L 93.621644 107.447416 
L 93.694911 107.256549 
L 93.841445 109.90142 
L 93.914712 108.347217 
L 93.987979 108.756218 
L 94.061246 109.056152 
L 94.134513 110.719421 
L 94.20778 107.99275 
L 94.427581 111.101155 
L 94.500848 108.647151 
L 94.574115 109.737819 
L 94.647382 109.274285 
L 94.793916 110.201353 
L 94.867183 109.383352 
L 94.94045 109.519686 
L 95.013717 112.30089 
L 95.160251 108.783484 
L 95.233518 110.937554 
L 95.306785 109.928686 
L 95.453319 111.591955 
L 95.599853 108.565351 
L 95.746387 110.364954 
L 95.819654 111.673756 
L 95.892921 108.756218 
L 95.966188 110.201353 
L 96.039455 109.492419 
L 96.112722 110.692154 
L 96.185988 108.783484 
L 96.259255 111.101155 
L 96.332522 110.037753 
L 96.405789 111.510155 
L 96.479056 111.346555 
L 96.552323 111.837356 
L 96.62559 111.101155 
L 96.698857 111.210222 
L 96.772124 110.910288 
L 96.845391 111.564689 
L 96.918658 109.710553 
L 96.991925 110.855754 
L 97.065192 109.874153 
L 97.138459 111.046621 
L 97.211726 109.656019 
L 97.35826 111.728289 
L 97.504794 109.628752 
L 97.578061 109.737819 
L 97.724595 112.355423 
L 97.797862 112.46449 
L 97.871129 110.446754 
L 97.944396 112.62809 
L 98.017663 108.947085 
L 98.09093 110.47402 
L 98.164197 113.555158 
L 98.237464 110.337687 
L 98.383998 113.091624 
L 98.457265 110.773954 
L 98.530532 111.919156 
L 98.603799 111.919156 
L 98.677066 110.14682 
L 98.750333 110.719421 
L 98.8236 113.200691 
L 98.896867 111.046621 
L 98.970134 111.564689 
L 99.116668 111.946423 
L 99.263202 113.364291 
L 99.409735 111.155688 
L 99.629536 114.754894 
L 99.702803 112.164556 
L 99.77607 112.38269 
L 99.849337 113.473358 
L 99.995871 112.164556 
L 100.069138 112.30089 
L 100.215672 113.282491 
L 100.288939 110.883021 
L 100.362206 113.173424 
L 100.435473 112.70989 
L 100.50874 114.073226 
L 100.655274 112.273623 
L 100.875075 115.109361 
L 100.948342 112.982558 
L 101.021609 114.973027 
L 101.094876 112.682624 
L 101.168143 113.991426 
L 101.24141 112.873491 
L 101.314677 112.900757 
L 101.387944 113.173424 
L 101.461211 114.891227 
L 101.534478 113.746025 
L 101.607745 115.218428 
L 101.681012 112.355423 
L 101.754279 115.709228 
L 101.827546 114.182293 
L 101.900813 113.527892 
L 102.047347 114.564027 
L 102.120614 113.500625 
L 102.193881 114.29136 
L 102.267148 113.636959 
L 102.413682 114.836694 
L 102.560216 113.091624 
L 102.633482 115.218428 
L 102.706749 113.936892 
L 102.780016 114.345893 
L 102.853283 114.727627 
L 102.92655 114.482226 
L 102.999817 115.927362 
L 103.073084 113.364291 
L 103.146351 113.773292 
L 103.219618 113.609692 
L 103.292885 113.991426 
L 103.366152 112.573557 
L 103.439419 114.591293 
L 103.512686 112.764424 
L 103.732487 115.627428 
L 103.805754 115.300228 
L 103.879021 113.337025 
L 103.952288 113.991426 
L 104.098822 115.736495 
L 104.172089 114.073226 
L 104.245356 116.881697 
L 104.318623 114.53676 
L 104.39189 116.336363 
L 104.465157 115.627428 
L 104.611691 112.62809 
L 104.684958 113.446092 
L 104.831492 116.581763 
L 104.904759 113.964159 
L 105.051293 115.572895 
L 105.197827 116.554496 
L 105.417628 114.482226 
L 105.490895 115.027561 
L 105.564162 117.481564 
L 105.637429 113.500625 
L 105.783963 117.372498 
L 105.857229 115.382028 
L 105.930496 115.463828 
L 106.223564 116.363629 
L 106.296831 115.927362 
L 106.370098 116.172762 
L 106.443365 115.136627 
L 106.516632 117.208897 
L 106.589899 116.118229 
L 106.663166 117.645165 
L 106.8097 114.100493 
L 107.029501 119.2539 
L 107.102768 115.818295 
L 107.176035 117.781498 
L 107.249302 117.536098 
L 107.395836 115.518361 
L 107.469103 115.518361 
L 107.54237 118.054165 
L 107.615637 116.336363 
L 107.688904 118.544966 
L 107.835438 115.436561 
L 107.981972 117.09983 
L 108.055239 114.61856 
L 108.128506 115.845562 
L 108.201773 117.127097 
L 108.27504 116.636296 
L 108.421574 118.272299 
L 108.641375 115.027561 
L 108.787909 116.963497 
L 108.861176 115.627428 
L 108.934443 115.954629 
L 109.080976 117.045297 
L 109.154243 116.77263 
L 109.22751 117.317964 
L 109.300777 117.154364 
L 109.374044 117.072564 
L 109.447311 116.581763 
L 109.520578 118.026899 
L 109.593845 117.808765 
L 109.740379 117.317964 
L 109.813646 118.626766 
L 109.96018 116.990764 
L 110.033447 117.127097 
L 110.106714 117.808765 
L 110.326515 116.554496 
L 110.399782 116.827163 
L 110.473049 116.200029 
L 110.546316 116.77263 
L 110.619583 116.254563 
L 110.69285 116.663563 
L 110.766117 118.081432 
L 110.839384 117.617898 
L 110.985918 116.472696 
L 111.059185 117.590631 
L 111.132452 116.77263 
L 111.205719 117.590631 
L 111.352253 116.93623 
L 111.42552 117.536098 
L 111.498787 117.454298 
L 111.645321 116.036429 
L 111.718588 117.917832 
L 111.791855 115.900095 
L 111.865122 116.52723 
L 111.938389 117.045297 
L 112.084923 115.272961 
L 112.15819 118.654033 
L 112.231457 116.090962 
L 112.304723 116.60903 
L 112.37799 115.491095 
L 112.451257 115.545628 
L 112.524524 116.60903 
L 112.597791 115.763762 
L 112.671058 116.063696 
L 112.744325 118.326832 
L 112.817592 116.254563 
L 112.890859 116.799897 
L 112.964126 117.563364 
L 113.037393 116.254563 
L 113.11066 116.390896 
L 113.183927 118.408632 
L 113.257194 117.917832 
L 113.330461 116.93623 
L 113.476995 118.6813 
L 113.550262 118.626766 
L 113.623529 119.990102 
L 113.696796 118.899433 
L 113.770063 119.0903 
L 113.916597 120.017368 
L 114.136398 118.7631 
L 114.209665 116.93623 
L 114.282932 119.744701 
L 114.356199 119.0903 
L 114.429466 119.308434 
L 114.576 118.599499 
L 114.649267 120.262769 
L 114.722534 119.444767 
L 114.795801 120.508169 
L 114.942335 118.135965 
L 115.015602 119.799235 
L 115.088869 119.035767 
L 115.162136 118.7631 
L 115.381937 121.462504 
L 115.52847 119.826501 
L 115.675004 120.235502 
L 115.748271 119.1721 
L 115.821538 119.662901 
L 115.968072 122.198705 
L 116.041339 119.417501 
L 116.114606 120.426369 
L 116.26114 119.362967 
L 116.334407 120.344569 
L 116.407674 118.8449 
L 116.554208 121.271637 
L 116.627475 120.426369 
L 116.700742 120.944436 
L 116.774009 122.825839 
L 116.847276 121.108037 
L 116.920543 121.380704 
L 116.99381 120.480902 
L 117.140344 121.32617 
L 117.213611 120.126435 
L 117.360145 121.217103 
L 117.433412 120.153702 
L 117.653213 123.56204 
L 117.799747 121.40797 
L 117.873014 121.462504 
L 117.946281 122.416839 
L 118.019548 119.744701 
L 118.092815 122.362305 
L 118.166082 121.980571 
L 118.239349 120.290035 
L 118.312616 121.789704 
L 118.385883 120.071902 
L 118.605684 124.843576 
L 118.678951 120.971703 
L 118.752217 121.32617 
L 118.825484 121.08077 
L 118.898751 122.089638 
L 118.972018 121.844238 
L 119.045285 122.198705 
L 119.265086 120.535436 
L 119.338353 121.544304 
L 119.41162 121.08077 
L 119.484887 120.508169 
L 119.631421 121.980571 
L 119.704688 121.462504 
L 119.777955 122.798572 
L 119.851222 122.035105 
L 119.997756 123.780174 
L 120.14429 120.071902 
L 120.290824 123.616574 
L 120.437358 122.498639 
L 120.510625 122.553172 
L 120.583892 122.880373 
L 120.803693 122.144171 
L 120.87696 122.362305 
L 120.950227 123.780174 
L 121.023494 121.953305 
L 121.096761 122.580439 
L 121.170028 122.498639 
L 121.243295 123.698374 
L 121.463096 121.762438 
L 121.536363 121.48977 
L 121.60963 122.335038 
L 121.682897 121.871504 
L 121.829431 123.016706 
L 121.975965 120.480902 
L 122.122498 122.934906 
L 122.195765 122.007838 
L 122.269032 121.16257 
L 122.342299 123.589307 
L 122.415566 122.907639 
L 122.488833 124.407308 
L 122.635367 121.626104 
L 122.708634 121.871504 
L 122.781901 123.807441 
L 122.928435 122.580439 
L 123.001702 125.279843 
L 123.074969 122.880373 
L 123.148236 123.534774 
L 123.368037 122.198705 
L 123.441304 122.198705 
L 123.514571 122.689506 
L 123.661105 122.171438 
L 123.807639 123.589307 
L 123.880906 122.007838 
L 123.954173 122.771306 
L 124.02744 122.335038 
L 124.100707 123.725641 
L 124.173974 123.098506 
L 124.247241 121.762438 
L 124.320508 122.389572 
L 124.393775 123.289373 
L 124.467042 120.044635 
L 124.613576 123.31664 
L 124.76011 122.498639 
L 124.833377 123.698374 
L 124.906644 121.980571 
L 124.979911 122.553172 
L 125.053178 121.871504 
L 125.126445 122.116905 
L 125.199712 122.553172 
L 125.272978 123.752907 
L 125.346245 120.480902 
L 125.492779 123.343907 
L 125.566046 122.771306 
L 125.639313 123.098506 
L 125.785847 121.16257 
L 125.859114 123.23484 
L 125.932381 122.989439 
L 126.005648 119.744701 
L 126.152182 122.880373 
L 126.298716 121.48977 
L 126.44525 122.116905 
L 126.884852 120.180968 
L 127.104653 118.6813 
L 127.17792 121.108037 
L 127.251187 119.662901 
L 127.324454 120.044635 
L 127.397721 119.581101 
L 127.544255 117.945098 
L 127.617522 120.290035 
L 127.837323 115.736495 
L 127.91059 116.418163 
L 127.983857 116.036429 
L 128.057124 116.77263 
L 128.716526 111.101155 
L 128.86306 108.210884 
L 129.009594 109.083418 
L 129.082861 105.51148 
L 129.229395 108.892551 
L 129.302662 105.865947 
L 129.375929 106.384014 
L 129.449196 109.328819 
L 129.522463 108.07455 
L 129.59573 107.74735 
L 129.668997 108.429017 
L 129.742264 112.62809 
L 129.815531 110.910288 
L 129.888798 110.528554 
L 130.181866 115.000294 
L 130.255133 113.500625 
L 130.401667 117.345231 
L 130.474934 117.345231 
L 130.548201 116.499963 
L 130.768002 119.662901 
L 130.841269 117.208897 
L 130.914536 120.262769 
L 130.987803 119.553834 
L 131.06107 120.753569 
L 131.134337 120.044635 
L 131.207604 122.335038 
L 131.280871 121.544304 
L 131.354138 121.653371 
L 131.427405 121.135303 
L 131.500672 121.735171 
L 131.573939 120.726303 
L 131.647206 120.99897 
L 131.793739 122.253238 
L 131.867006 121.980571 
L 132.01354 123.262106 
L 132.086807 121.789704 
L 132.160074 124.843576 
L 132.233341 123.180306 
L 132.306608 125.361643 
L 132.379875 122.962173 
L 132.453142 123.207573 
L 132.526409 122.007838 
L 132.672943 126.343245 
L 132.819477 124.270975 
L 132.966011 124.898109 
L 133.039278 124.134641 
L 133.112545 124.870842 
L 133.185812 123.56204 
L 133.332346 125.279843 
L 133.405613 123.861974 
L 133.47888 123.943774 
L 133.625414 126.343245 
L 133.698681 126.261444 
L 133.845215 125.525243 
L 133.918482 126.097844 
L 133.991749 125.934244 
L 134.065016 125.55251 
L 134.138283 126.834045 
L 134.21155 125.361643 
L 134.284817 127.46118 
L 134.358084 126.588645 
L 134.504618 124.952642 
L 134.651152 127.243046 
L 134.724419 125.579777 
L 134.797686 126.697712 
L 134.870953 125.87971 
L 134.944219 126.534111 
L 135.017486 126.397778 
L 135.090753 125.116243 
L 135.16402 127.024912 
L 135.237287 126.370511 
L 135.310554 127.488446 
L 135.383821 125.661577 
L 135.457088 126.343245 
L 135.603622 128.470048 
L 135.676889 125.906977 
L 135.750156 128.197381 
L 135.823423 126.425045 
L 135.89669 127.761113 
L 135.969957 125.279843 
L 136.116491 128.769982 
L 136.336292 126.561378 
L 136.409559 127.62478 
L 136.482826 126.861312 
L 136.556093 128.551848 
L 136.62936 127.70658 
L 136.702627 127.87018 
L 136.775894 126.970379 
L 136.922428 128.470048 
L 136.995695 128.224647 
L 137.068962 128.797248 
L 137.142229 128.688181 
L 137.288763 126.670445 
L 137.435297 129.833383 
L 137.508564 128.170114 
L 137.581831 129.69705 
L 137.655098 128.851782 
L 137.728365 130.051517 
L 137.948166 127.515713 
L 138.021433 129.124449 
L 138.0947 128.742715 
L 138.167966 127.46118 
L 138.3145 129.069915 
L 138.387767 129.315316 
L 138.461034 128.960848 
L 138.534301 127.406646 
L 138.754102 129.806116 
L 138.827369 128.088314 
L 139.04717 130.351451 
L 139.120437 129.94245 
L 139.193704 130.18785 
L 139.266971 128.551848 
L 139.340238 129.806116 
L 139.413505 129.615249 
L 139.560039 128.415514 
L 139.706573 130.160584 
L 139.77984 129.996983 
L 139.853107 129.206249 
L 139.999641 130.951318 
L 140.072908 128.606381 
L 140.219442 130.842251 
L 140.292709 128.851782 
L 140.365976 129.615249 
L 140.439243 129.77885 
L 140.51251 128.579115 
L 140.659044 131.033118 
L 140.805578 128.933582 
L 141.025379 130.896785 
L 141.171913 131.114918 
L 141.24518 129.724316 
L 141.46498 130.869518 
L 141.538247 131.033118 
L 141.684781 129.724316 
L 141.904582 131.469386 
L 142.124383 129.397116 
L 142.19765 131.005852 
L 142.270917 129.560716 
L 142.490718 130.842251 
L 142.563985 131.033118 
L 142.710519 130.624118 
L 142.783786 132.26012 
L 142.857053 131.742053 
L 142.93032 131.551186 
L 143.003587 132.205587 
L 143.076854 129.315316 
L 143.150121 130.842251 
L 143.223388 130.542318 
L 143.296655 131.033118 
L 143.369922 130.378717 
L 143.443189 130.896785 
L 143.516456 130.324184 
L 143.589723 132.614587 
L 143.66299 129.77885 
L 143.736257 131.114918 
L 143.809524 131.469386 
L 143.882791 131.087652 
L 143.956058 129.751583 
L 144.029325 131.305785 
L 144.102592 130.133317 
L 144.175859 132.17832 
L 144.249126 131.769319 
L 144.39566 131.605719 
L 144.468927 131.987453 
L 144.615461 130.705918 
L 144.688727 130.842251 
L 144.908528 132.560054 
L 145.055062 130.078784 
L 145.34813 133.214455 
L 145.494664 130.160584 
L 145.641198 132.069253 
L 145.714465 131.551186 
L 145.787732 131.823853 
L 145.860999 131.496652 
L 145.934266 132.505521 
L 146.007533 131.278519 
L 146.0808 132.832721 
L 146.154067 130.814985 
L 146.227334 131.85112 
L 146.300601 132.560054 
L 146.373868 131.605719 
L 146.447135 131.687519 
L 146.593669 132.450987 
L 146.666936 131.387586 
L 146.740203 132.832721 
L 146.886737 131.278519 
L 146.960004 131.551186 
L 147.033271 132.532787 
L 147.179805 131.333052 
L 147.399606 132.914521 
L 147.472873 132.750921 
L 147.54614 132.09652 
L 147.619407 133.841589 
L 147.692674 132.34192 
L 147.765941 133.432589 
L 147.839208 132.614587 
L 147.912474 133.214455 
L 148.205542 131.796586 
L 148.278809 131.93292 
L 148.352076 132.669121 
L 148.425343 132.42372 
L 148.49861 131.551186 
L 148.718411 132.778188 
L 148.864945 131.442119 
L 148.938212 133.350789 
L 149.011479 131.987453 
L 149.084746 133.214455 
L 149.158013 132.778188 
L 149.23128 130.842251 
L 149.304547 133.759789 
L 149.377814 132.287387 
L 149.451081 134.114256 
L 149.524348 133.732522 
L 149.744149 131.742053 
L 149.817416 133.596189 
L 150.037217 131.278519 
L 150.110484 131.333052 
L 150.183751 134.33239 
L 150.257018 131.905653 
L 150.403552 133.514389 
L 150.476819 131.769319 
L 150.623353 134.441457 
L 150.769887 131.823853 
L 150.989688 133.432589 
L 151.136221 132.614587 
L 151.356022 133.732522 
L 151.429289 133.896123 
L 151.502556 133.350789 
L 151.64909 134.114256 
L 152.015425 132.941788 
L 152.161959 133.759789 
L 152.235226 132.723654 
L 152.38176 133.841589 
L 152.455027 133.841589 
L 152.528294 132.369187 
L 152.601561 134.114256 
L 152.674828 133.078121 
L 152.894629 134.49599 
L 152.967896 132.232853 
L 153.041163 134.305123 
L 153.11443 132.396454 
L 153.187697 134.850457 
L 153.260964 133.896123 
L 153.334231 134.032456 
L 153.407498 132.696388 
L 153.554032 133.923389 
L 153.700566 133.568922 
L 153.773833 134.33239 
L 153.8471 132.505521 
L 153.920367 134.032456 
L 153.993634 132.17832 
L 154.066901 133.105388 
L 154.286702 134.059723 
L 154.433235 133.268988 
L 154.506502 134.49599 
L 154.579769 134.25059 
L 154.653036 134.605057 
L 154.726303 133.296255 
L 154.79957 135.532125 
L 154.872837 133.241722 
L 154.946104 135.095858 
L 155.092638 132.505521 
L 155.239172 135.041324 
L 155.312439 133.596189 
L 155.385706 135.068591 
L 155.458973 132.914521 
L 155.53224 133.214455 
L 155.605507 132.478254 
L 155.752041 134.468724 
L 155.898575 134.41419 
L 155.971842 136.922727 
L 156.045109 133.378055 
L 156.118376 133.568922 
L 156.338177 134.686857 
L 156.411444 134.823191 
L 156.484711 134.08699 
L 156.557978 134.441457 
L 156.631245 135.041324 
L 156.777779 133.268988 
L 156.851046 135.123125 
L 156.924313 133.296255 
L 156.99758 134.877724 
L 157.070847 133.677989 
L 157.144114 133.732522 
L 157.217381 133.950656 
L 157.290648 133.350789 
L 157.363915 134.850457 
L 157.510449 133.623456 
L 157.583715 133.705256 
L 157.803516 134.33239 
L 157.876783 136.022926 
L 157.95005 133.568922 
L 158.023317 135.504858 
L 158.096584 134.114256 
L 158.169851 134.714124 
L 158.243118 134.08699 
L 158.316385 134.359657 
L 158.389652 134.386923 
L 158.462919 134.277857 
L 158.536186 133.896123 
L 158.609453 135.068591 
L 158.755987 133.541655 
L 158.829254 135.641192 
L 158.902521 135.204925 
L 158.975788 133.896123 
L 159.049055 134.25059 
L 159.122322 135.722992 
L 159.342123 132.42372 
L 159.561924 135.641192 
L 159.635191 133.568922 
L 159.708458 134.277857 
L 159.854992 135.123125 
L 160.14806 134.114256 
L 160.221327 135.504858 
L 160.294594 134.359657 
L 160.367861 134.605057 
L 160.441128 133.868856 
L 160.514395 134.059723 
L 160.587662 134.932258 
L 160.660929 134.850457 
L 160.734196 134.65959 
L 160.807462 132.805454 
L 160.953996 135.232191 
L 161.027263 135.123125 
L 161.10053 133.378055 
L 161.173797 133.487122 
L 161.320331 135.613925 
L 161.466865 135.232191 
L 161.540132 133.923389 
L 161.613399 134.223323 
L 161.686666 135.559392 
L 161.759933 135.095858 
L 161.8332 133.677989 
L 161.906467 133.923389 
L 161.979734 133.896123 
L 162.053001 134.714124 
L 162.126268 133.378055 
L 162.199535 133.977923 
L 162.272802 134.00519 
L 162.346069 136.186526 
L 162.56587 134.114256 
L 162.712404 136.131993 
L 162.858938 134.386923 
L 162.932205 134.41419 
L 163.005472 135.204925 
L 163.078739 133.650722 
L 163.152006 133.732522 
L 163.371807 135.313991 
L 163.445074 133.787056 
L 163.518341 134.196056 
L 163.591608 133.705256 
L 163.664875 135.068591 
L 163.738142 134.33239 
L 163.811409 134.65959 
L 163.957943 133.732522 
L 164.031209 135.068591 
L 164.104476 134.877724 
L 164.25101 133.214455 
L 164.324277 135.395792 
L 164.397544 134.632324 
L 164.470811 134.605057 
L 164.544078 134.850457 
L 164.617345 133.596189 
L 164.690612 134.032456 
L 164.763879 135.695725 
L 164.837146 134.114256 
L 164.910413 134.795924 
L 164.98368 134.16879 
L 165.056947 135.368525 
L 165.130214 133.623456 
L 165.203481 134.00519 
L 165.276748 133.705256 
L 165.350015 134.359657 
L 165.423282 134.08699 
L 165.496549 132.969055 
L 165.569816 133.050855 
L 165.643083 135.014058 
L 165.71635 134.686857 
L 165.789617 133.541655 
L 165.862884 135.913859 
L 166.082685 132.614587 
L 166.155952 134.605057 
L 166.229219 133.923389 
L 166.375753 134.523257 
L 166.44902 134.114256 
L 166.522287 134.57779 
L 166.595554 134.33239 
L 166.668821 133.950656 
L 166.742088 132.778188 
L 166.815355 134.550524 
L 166.888622 133.923389 
L 166.961889 133.787056 
L 167.035156 134.714124 
L 167.108423 133.405322 
L 167.18169 133.841589 
L 167.254956 134.741391 
L 167.40149 133.023588 
L 167.474757 135.232191 
L 167.548024 134.741391 
L 167.694558 133.023588 
L 167.767825 134.57779 
L 167.841092 133.787056 
L 167.914359 134.059723 
L 167.987626 133.323522 
L 168.060893 134.605057 
L 168.13416 133.650722 
L 168.207427 134.57779 
L 168.280694 132.941788 
L 168.353961 134.904991 
L 168.427228 134.65959 
L 168.500495 134.386923 
L 168.573762 133.214455 
L 168.793563 134.741391 
L 168.86683 133.677989 
L 168.940097 134.08699 
L 169.013364 134.986791 
L 169.233165 133.405322 
L 169.379699 134.550524 
L 169.452966 134.277857 
L 169.526233 135.177658 
L 169.5995 134.768657 
L 169.746034 134.196056 
L 169.819301 134.65959 
L 169.892568 132.669121 
L 169.965835 134.468724 
L 170.039102 134.305123 
L 170.112369 134.65959 
L 170.258903 133.405322 
L 170.33217 133.896123 
L 170.405437 135.613925 
L 170.478704 134.032456 
L 170.55197 134.223323 
L 170.625237 134.277857 
L 170.698504 134.768657 
L 170.845038 133.459855 
L 171.064839 134.632324 
L 171.28464 132.832721 
L 171.357907 134.059723 
L 171.431174 133.732522 
L 171.504441 133.596189 
L 171.577708 134.196056 
L 171.650975 133.187188 
L 171.724242 133.787056 
L 171.797509 133.214455 
L 171.870776 133.814323 
L 171.944043 133.323522 
L 172.01731 134.223323 
L 172.090577 132.505521 
L 172.163844 134.359657 
L 172.237111 134.277857 
L 172.383645 132.641854 
L 172.456912 134.359657 
L 172.530179 133.596189 
L 172.676713 132.723654 
L 172.74998 133.350789 
L 172.823247 132.859988 
L 172.896514 133.623456 
L 172.969781 132.532787 
L 173.043048 134.223323 
L 173.116315 133.732522 
L 173.189582 132.232853 
L 173.262849 133.105388 
L 173.336116 132.614587 
L 173.48265 134.632324 
L 173.629184 132.859988 
L 173.702451 134.904991 
L 173.775717 132.996321 
L 173.848984 133.214455 
L 173.995518 134.932258 
L 174.142052 132.669121 
L 174.215319 133.841589 
L 174.288586 133.241722 
L 174.43512 132.859988 
L 174.581654 133.787056 
L 174.801455 132.09652 
L 174.874722 132.505521 
L 174.947989 133.650722 
L 175.021256 131.742053 
L 175.094523 133.677989 
L 175.16779 132.587321 
L 175.241057 133.432589 
L 175.314324 133.323522 
L 175.534125 132.478254 
L 175.607392 135.368525 
L 175.827193 131.578452 
L 175.90046 133.514389 
L 175.973727 132.723654 
L 176.046994 131.796586 
L 176.266795 133.977923 
L 176.413329 132.069253 
L 176.559863 133.405322 
L 176.63313 131.960186 
L 176.706397 133.241722 
L 176.779664 132.696388 
L 176.852931 132.887254 
L 176.926198 132.805454 
L 176.999464 131.823853 
L 177.072731 132.641854 
L 177.145998 132.614587 
L 177.219265 132.723654 
L 177.292532 131.714786 
L 177.365799 132.369187 
L 177.439066 132.205587 
L 177.512333 132.369187 
L 177.658867 133.541655 
L 177.805401 131.251252 
L 177.951935 132.887254 
L 178.025202 131.85112 
L 178.171736 132.941788 
L 178.391537 131.85112 
L 178.464804 131.632986 
L 178.538071 131.878386 
L 178.611338 132.669121 
L 178.684605 131.742053 
L 178.757872 131.93292 
L 178.831139 132.287387 
L 178.904406 131.714786 
L 178.977673 132.369187 
L 179.05094 131.305785 
L 179.124207 132.287387 
L 179.197474 131.987453 
L 179.344008 130.705918 
L 179.417275 130.487784 
L 179.563809 132.09652 
L 179.637076 130.10605 
L 179.710343 130.133317 
L 179.78361 129.751583 
L 179.856877 131.333052 
L 179.930144 130.705918 
L 180.149945 131.387586 
L 180.296478 130.405984 
L 180.443012 130.924051 
L 180.516279 130.02425 
L 180.589546 131.714786 
L 180.73608 129.015382 
L 180.882614 131.823853 
L 181.029148 129.424383 
L 181.175682 130.924051 
L 181.46875 128.224647 
L 181.542017 129.315316 
L 181.615284 129.097182 
L 181.761818 127.979247 
L 181.908352 128.988115 
L 182.054886 127.024912 
L 182.20142 128.470048 
L 182.274687 127.78838 
L 182.347954 128.579115 
L 182.421221 127.052179 
L 182.494488 127.46118 
L 182.641022 125.63431 
L 182.714289 126.670445 
L 182.787556 125.688844 
L 182.860823 126.179644 
L 183.007357 124.570908 
L 183.080624 126.152378 
L 183.153891 123.125773 
L 183.227158 124.789042 
L 183.300425 123.671107 
L 183.373692 125.525243 
L 183.520225 122.689506 
L 183.593492 123.725641 
L 183.666759 122.171438 
L 183.740026 125.443443 
L 183.813293 124.489108 
L 183.88656 124.543642 
L 183.959827 125.279843 
L 184.033094 124.707242 
L 184.106361 125.988777 
L 184.179628 125.579777 
L 184.252895 125.71611 
L 184.399429 127.406646 
L 184.545963 125.743377 
L 184.692497 128.470048 
L 184.765764 128.251914 
L 184.839031 128.524581 
L 185.058832 127.433913 
L 185.132099 128.333714 
L 185.205366 126.806779 
L 185.278633 128.224647 
L 185.3519 127.243046 
L 185.571701 129.424383 
L 185.644968 127.815647 
L 185.718235 128.333714 
L 185.791502 128.03378 
L 185.938036 129.77885 
L 186.011303 130.215117 
L 186.304371 128.03378 
L 186.377638 128.306448 
L 186.450905 129.642516 
L 186.597439 128.360981 
L 186.670705 129.506183 
L 186.743972 129.424383 
L 186.817239 129.806116 
L 186.890506 130.842251 
L 186.963773 129.069915 
L 187.03704 129.097182 
L 187.183574 129.94245 
L 187.330108 128.497314 
L 187.403375 129.451649 
L 187.476642 128.933582 
L 187.549909 129.206249 
L 187.623176 131.087652 
L 187.842977 128.142847 
L 187.989511 129.996983 
L 188.062778 129.124449 
L 188.136045 129.315316 
L 188.209312 130.787718 
L 188.282579 128.470048 
L 188.355846 129.506183 
L 188.429113 128.470048 
L 188.50238 129.451649 
L 188.575647 128.633648 
L 188.648914 126.452311 
L 188.795448 129.69705 
L 188.868715 129.424383 
L 188.941982 128.415514 
L 189.015249 128.851782 
L 189.088516 128.606381 
L 189.161783 128.769982 
L 189.23505 128.251914 
L 189.308317 128.360981 
L 189.381584 128.115581 
L 189.454851 130.18785 
L 189.674652 128.224647 
L 189.747919 129.397116 
L 189.821186 127.897447 
L 189.894452 129.86065 
L 189.967719 128.960848 
L 190.040986 128.660915 
L 190.114253 129.288049 
L 190.18752 127.842913 
L 190.260787 129.560716 
L 190.334054 128.960848 
L 190.407321 128.688181 
L 190.480588 128.988115 
L 190.553855 127.78838 
L 190.700389 130.460517 
L 190.773656 128.088314 
L 190.773656 128.088314 
" clip-path="url(#p8933f38f98)" style="fill: none; stroke: #1f77b4; stroke-width: 0.5; stroke-linecap: square"/>
   </g>
   <g id="patch_3">
    <path d="M 23.410313 143.1 
L 23.410313 7.2 
" style="fill: none; stroke: #000000; stroke-width: 0.8; stroke-linejoin: miter; stroke-linecap: square"/>
   </g>
   <g id="patch_4">
    <path d="M 190.810313 143.1 
L 190.810313 7.2 
" style="fill: none; stroke: #000000; stroke-width: 0.8; stroke-linejoin: miter; stroke-linecap: square"/>
   </g>
   <g id="patch_5">
    <path d="M 23.410313 143.1 
L 190.810313 143.1 
" style="fill: none; stroke: #000000; stroke-width: 0.8; stroke-linejoin: miter; stroke-linecap: square"/>
   </g>
   <g id="patch_6">
    <path d="M 23.410313 7.2 
L 190.810313 7.2 
" style="fill: none; stroke: #000000; stroke-width: 0.8; stroke-linejoin: miter; stroke-linecap: square"/>
   </g>
  </g>
 </g>
 <defs>
  <clipPath id="p8933f38f98">
   <rect x="23.410313" y="7.2" width="167.4" height="135.9"/>
  </clipPath>
 </defs>
</svg>
