<?xml version="1.0" encoding="utf-8" standalone="no"?>
<!DOCTYPE svg PUBLIC "-//W3C//DTD SVG 1.1//EN"
  "http://www.w3.org/Graphics/SVG/1.1/DTD/svg11.dtd">
<svg xmlns:xlink="http://www.w3.org/1999/xlink" width="198.010312pt" height="177.752813pt" viewBox="0 0 198.010312 177.752813" xmlns="http://www.w3.org/2000/svg" version="1.1">
 <metadata>
  <rdf:RDF xmlns:dc="http://purl.org/dc/elements/1.1/" xmlns:cc="http://creativecommons.org/ns#" xmlns:rdf="http://www.w3.org/1999/02/22-rdf-syntax-ns#">
   <cc:Work>
    <dc:type rdf:resource="http://purl.org/dc/dcmitype/StillImage"/>
    <dc:date>2023-02-25T15:25:05.861176</dc:date>
    <dc:format>image/svg+xml</dc:format>
    <dc:creator>
     <cc:Agent>
      <dc:title>Matplotlib v3.5.2, https://matplotlib.org/</dc:title>
     </cc:Agent>
    </dc:creator>
   </cc:Work>
  </rdf:RDF>
 </metadata>
 <defs>
  <style type="text/css">*{stroke-linejoin: round; stroke-linecap: butt}</style>
 </defs>
 <g id="figure_1">
  <g id="patch_1">
   <path d="M 0 177.752813 
L 198.010312 177.752813 
L 198.010312 0 
L 0 0 
z
" style="fill: #ffffff"/>
  </g>
  <g id="axes_1">
   <g id="patch_2">
    <path d="M 23.410313 143.1 
L 190.810313 143.1 
L 190.810313 7.2 
L 23.410313 7.2 
z
" style="fill: #ffffff"/>
   </g>
   <g id="matplotlib.axis_1">
    <g id="xtick_1">
     <g id="line2d_1">
      <defs>
       <path id="m54cdf4cf90" d="M 0 0 
L 0 3.5 
" style="stroke: #000000; stroke-width: 0.8"/>
      </defs>
      <g>
       <use xlink:href="#m54cdf4cf90" x="37.360313" y="143.1" style="stroke: #000000; stroke-width: 0.8"/>
      </g>
     </g>
     <g id="text_1">
      <!-- 10 -->
      <g transform="translate(32.270313 156.17875)scale(0.08 -0.08)">
       <defs>
        <path id="DejaVuSans-31" d="M 794 531 
L 1825 531 
L 1825 4091 
L 703 3866 
L 703 4441 
L 1819 4666 
L 2450 4666 
L 2450 531 
L 3481 531 
L 3481 0 
L 794 0 
L 794 531 
z
" transform="scale(0.015625)"/>
        <path id="DejaVuSans-30" d="M 2034 4250 
Q 1547 4250 1301 3770 
Q 1056 3291 1056 2328 
Q 1056 1369 1301 889 
Q 1547 409 2034 409 
Q 2525 409 2770 889 
Q 3016 1369 3016 2328 
Q 3016 3291 2770 3770 
Q 2525 4250 2034 4250 
z
M 2034 4750 
Q 2819 4750 3233 4129 
Q 3647 3509 3647 2328 
Q 3647 1150 3233 529 
Q 2819 -91 2034 -91 
Q 1250 -91 836 529 
Q 422 1150 422 2328 
Q 422 3509 836 4129 
Q 1250 4750 2034 4750 
z
" transform="scale(0.015625)"/>
       </defs>
       <use xlink:href="#DejaVuSans-31"/>
       <use xlink:href="#DejaVuSans-30" x="63.623047"/>
      </g>
     </g>
    </g>
    <g id="xtick_2">
     <g id="line2d_2">
      <g>
       <use xlink:href="#m54cdf4cf90" x="65.260312" y="143.1" style="stroke: #000000; stroke-width: 0.8"/>
      </g>
     </g>
     <g id="text_2">
      <!-- 20 -->
      <g transform="translate(60.170312 156.17875)scale(0.08 -0.08)">
       <defs>
        <path id="DejaVuSans-32" d="M 1228 531 
L 3431 531 
L 3431 0 
L 469 0 
L 469 531 
Q 828 903 1448 1529 
Q 2069 2156 2228 2338 
Q 2531 2678 2651 2914 
Q 2772 3150 2772 3378 
Q 2772 3750 2511 3984 
Q 2250 4219 1831 4219 
Q 1534 4219 1204 4116 
Q 875 4013 500 3803 
L 500 4441 
Q 881 4594 1212 4672 
Q 1544 4750 1819 4750 
Q 2544 4750 2975 4387 
Q 3406 4025 3406 3419 
Q 3406 3131 3298 2873 
Q 3191 2616 2906 2266 
Q 2828 2175 2409 1742 
Q 1991 1309 1228 531 
z
" transform="scale(0.015625)"/>
       </defs>
       <use xlink:href="#DejaVuSans-32"/>
       <use xlink:href="#DejaVuSans-30" x="63.623047"/>
      </g>
     </g>
    </g>
    <g id="xtick_3">
     <g id="line2d_3">
      <g>
       <use xlink:href="#m54cdf4cf90" x="93.160313" y="143.1" style="stroke: #000000; stroke-width: 0.8"/>
      </g>
     </g>
     <g id="text_3">
      <!-- 30 -->
      <g transform="translate(88.070312 156.17875)scale(0.08 -0.08)">
       <defs>
        <path id="DejaVuSans-33" d="M 2597 2516 
Q 3050 2419 3304 2112 
Q 3559 1806 3559 1356 
Q 3559 666 3084 287 
Q 2609 -91 1734 -91 
Q 1441 -91 1130 -33 
Q 819 25 488 141 
L 488 750 
Q 750 597 1062 519 
Q 1375 441 1716 441 
Q 2309 441 2620 675 
Q 2931 909 2931 1356 
Q 2931 1769 2642 2001 
Q 2353 2234 1838 2234 
L 1294 2234 
L 1294 2753 
L 1863 2753 
Q 2328 2753 2575 2939 
Q 2822 3125 2822 3475 
Q 2822 3834 2567 4026 
Q 2313 4219 1838 4219 
Q 1578 4219 1281 4162 
Q 984 4106 628 3988 
L 628 4550 
Q 988 4650 1302 4700 
Q 1616 4750 1894 4750 
Q 2613 4750 3031 4423 
Q 3450 4097 3450 3541 
Q 3450 3153 3228 2886 
Q 3006 2619 2597 2516 
z
" transform="scale(0.015625)"/>
       </defs>
       <use xlink:href="#DejaVuSans-33"/>
       <use xlink:href="#DejaVuSans-30" x="63.623047"/>
      </g>
     </g>
    </g>
    <g id="xtick_4">
     <g id="line2d_4">
      <g>
       <use xlink:href="#m54cdf4cf90" x="121.060312" y="143.1" style="stroke: #000000; stroke-width: 0.8"/>
      </g>
     </g>
     <g id="text_4">
      <!-- 40 -->
      <g transform="translate(115.970312 156.17875)scale(0.08 -0.08)">
       <defs>
        <path id="DejaVuSans-34" d="M 2419 4116 
L 825 1625 
L 2419 1625 
L 2419 4116 
z
M 2253 4666 
L 3047 4666 
L 3047 1625 
L 3713 1625 
L 3713 1100 
L 3047 1100 
L 3047 0 
L 2419 0 
L 2419 1100 
L 313 1100 
L 313 1709 
L 2253 4666 
z
" transform="scale(0.015625)"/>
       </defs>
       <use xlink:href="#DejaVuSans-34"/>
       <use xlink:href="#DejaVuSans-30" x="63.623047"/>
      </g>
     </g>
    </g>
    <g id="xtick_5">
     <g id="line2d_5">
      <g>
       <use xlink:href="#m54cdf4cf90" x="148.960313" y="143.1" style="stroke: #000000; stroke-width: 0.8"/>
      </g>
     </g>
     <g id="text_5">
      <!-- 50 -->
      <g transform="translate(143.870313 156.17875)scale(0.08 -0.08)">
       <defs>
        <path id="DejaVuSans-35" d="M 691 4666 
L 3169 4666 
L 3169 4134 
L 1269 4134 
L 1269 2991 
Q 1406 3038 1543 3061 
Q 1681 3084 1819 3084 
Q 2600 3084 3056 2656 
Q 3513 2228 3513 1497 
Q 3513 744 3044 326 
Q 2575 -91 1722 -91 
Q 1428 -91 1123 -41 
Q 819 9 494 109 
L 494 744 
Q 775 591 1075 516 
Q 1375 441 1709 441 
Q 2250 441 2565 725 
Q 2881 1009 2881 1497 
Q 2881 1984 2565 2268 
Q 2250 2553 1709 2553 
Q 1456 2553 1204 2497 
Q 953 2441 691 2322 
L 691 4666 
z
" transform="scale(0.015625)"/>
       </defs>
       <use xlink:href="#DejaVuSans-35"/>
       <use xlink:href="#DejaVuSans-30" x="63.623047"/>
      </g>
     </g>
    </g>
    <g id="xtick_6">
     <g id="line2d_6">
      <g>
       <use xlink:href="#m54cdf4cf90" x="176.860313" y="143.1" style="stroke: #000000; stroke-width: 0.8"/>
      </g>
     </g>
     <g id="text_6">
      <!-- 60 -->
      <g transform="translate(171.770313 156.17875)scale(0.08 -0.08)">
       <defs>
        <path id="DejaVuSans-36" d="M 2113 2584 
Q 1688 2584 1439 2293 
Q 1191 2003 1191 1497 
Q 1191 994 1439 701 
Q 1688 409 2113 409 
Q 2538 409 2786 701 
Q 3034 994 3034 1497 
Q 3034 2003 2786 2293 
Q 2538 2584 2113 2584 
z
M 3366 4563 
L 3366 3988 
Q 3128 4100 2886 4159 
Q 2644 4219 2406 4219 
Q 1781 4219 1451 3797 
Q 1122 3375 1075 2522 
Q 1259 2794 1537 2939 
Q 1816 3084 2150 3084 
Q 2853 3084 3261 2657 
Q 3669 2231 3669 1497 
Q 3669 778 3244 343 
Q 2819 -91 2113 -91 
Q 1303 -91 875 529 
Q 447 1150 447 2328 
Q 447 3434 972 4092 
Q 1497 4750 2381 4750 
Q 2619 4750 2861 4703 
Q 3103 4656 3366 4563 
z
" transform="scale(0.015625)"/>
       </defs>
       <use xlink:href="#DejaVuSans-36"/>
       <use xlink:href="#DejaVuSans-30" x="63.623047"/>
      </g>
     </g>
    </g>
    <g id="xtick_7">
     <g id="line2d_7">
      <defs>
       <path id="m7fcb863752" d="M 0 0 
L 0 2 
" style="stroke: #000000; stroke-width: 0.6"/>
      </defs>
      <g>
       <use xlink:href="#m7fcb863752" x="23.410313" y="143.1" style="stroke: #000000; stroke-width: 0.6"/>
      </g>
     </g>
    </g>
    <g id="xtick_8">
     <g id="line2d_8">
      <g>
       <use xlink:href="#m7fcb863752" x="30.385313" y="143.1" style="stroke: #000000; stroke-width: 0.6"/>
      </g>
     </g>
    </g>
    <g id="xtick_9">
     <g id="line2d_9">
      <g>
       <use xlink:href="#m7fcb863752" x="44.335313" y="143.1" style="stroke: #000000; stroke-width: 0.6"/>
      </g>
     </g>
    </g>
    <g id="xtick_10">
     <g id="line2d_10">
      <g>
       <use xlink:href="#m7fcb863752" x="51.310313" y="143.1" style="stroke: #000000; stroke-width: 0.6"/>
      </g>
     </g>
    </g>
    <g id="xtick_11">
     <g id="line2d_11">
      <g>
       <use xlink:href="#m7fcb863752" x="58.285313" y="143.1" style="stroke: #000000; stroke-width: 0.6"/>
      </g>
     </g>
    </g>
    <g id="xtick_12">
     <g id="line2d_12">
      <g>
       <use xlink:href="#m7fcb863752" x="72.235313" y="143.1" style="stroke: #000000; stroke-width: 0.6"/>
      </g>
     </g>
    </g>
    <g id="xtick_13">
     <g id="line2d_13">
      <g>
       <use xlink:href="#m7fcb863752" x="79.210313" y="143.1" style="stroke: #000000; stroke-width: 0.6"/>
      </g>
     </g>
    </g>
    <g id="xtick_14">
     <g id="line2d_14">
      <g>
       <use xlink:href="#m7fcb863752" x="86.185312" y="143.1" style="stroke: #000000; stroke-width: 0.6"/>
      </g>
     </g>
    </g>
    <g id="xtick_15">
     <g id="line2d_15">
      <g>
       <use xlink:href="#m7fcb863752" x="100.135312" y="143.1" style="stroke: #000000; stroke-width: 0.6"/>
      </g>
     </g>
    </g>
    <g id="xtick_16">
     <g id="line2d_16">
      <g>
       <use xlink:href="#m7fcb863752" x="107.110313" y="143.1" style="stroke: #000000; stroke-width: 0.6"/>
      </g>
     </g>
    </g>
    <g id="xtick_17">
     <g id="line2d_17">
      <g>
       <use xlink:href="#m7fcb863752" x="114.085313" y="143.1" style="stroke: #000000; stroke-width: 0.6"/>
      </g>
     </g>
    </g>
    <g id="xtick_18">
     <g id="line2d_18">
      <g>
       <use xlink:href="#m7fcb863752" x="128.035313" y="143.1" style="stroke: #000000; stroke-width: 0.6"/>
      </g>
     </g>
    </g>
    <g id="xtick_19">
     <g id="line2d_19">
      <g>
       <use xlink:href="#m7fcb863752" x="135.010312" y="143.1" style="stroke: #000000; stroke-width: 0.6"/>
      </g>
     </g>
    </g>
    <g id="xtick_20">
     <g id="line2d_20">
      <g>
       <use xlink:href="#m7fcb863752" x="141.985313" y="143.1" style="stroke: #000000; stroke-width: 0.6"/>
      </g>
     </g>
    </g>
    <g id="xtick_21">
     <g id="line2d_21">
      <g>
       <use xlink:href="#m7fcb863752" x="155.935313" y="143.1" style="stroke: #000000; stroke-width: 0.6"/>
      </g>
     </g>
    </g>
    <g id="xtick_22">
     <g id="line2d_22">
      <g>
       <use xlink:href="#m7fcb863752" x="162.910313" y="143.1" style="stroke: #000000; stroke-width: 0.6"/>
      </g>
     </g>
    </g>
    <g id="xtick_23">
     <g id="line2d_23">
      <g>
       <use xlink:href="#m7fcb863752" x="169.885313" y="143.1" style="stroke: #000000; stroke-width: 0.6"/>
      </g>
     </g>
    </g>
    <g id="xtick_24">
     <g id="line2d_24">
      <g>
       <use xlink:href="#m7fcb863752" x="183.835313" y="143.1" style="stroke: #000000; stroke-width: 0.6"/>
      </g>
     </g>
    </g>
    <g id="xtick_25">
     <g id="line2d_25">
      <g>
       <use xlink:href="#m7fcb863752" x="190.810313" y="143.1" style="stroke: #000000; stroke-width: 0.6"/>
      </g>
     </g>
    </g>
    <g id="text_7">
     <!-- Two Theta (degrees) -->
     <g transform="translate(61.294688 168.681094)scale(0.09 -0.09)">
      <defs>
       <path id="DejaVuSans-54" d="M -19 4666 
L 3928 4666 
L 3928 4134 
L 2272 4134 
L 2272 0 
L 1638 0 
L 1638 4134 
L -19 4134 
L -19 4666 
z
" transform="scale(0.015625)"/>
       <path id="DejaVuSans-77" d="M 269 3500 
L 844 3500 
L 1563 769 
L 2278 3500 
L 2956 3500 
L 3675 769 
L 4391 3500 
L 4966 3500 
L 4050 0 
L 3372 0 
L 2619 2869 
L 1863 0 
L 1184 0 
L 269 3500 
z
" transform="scale(0.015625)"/>
       <path id="DejaVuSans-6f" d="M 1959 3097 
Q 1497 3097 1228 2736 
Q 959 2375 959 1747 
Q 959 1119 1226 758 
Q 1494 397 1959 397 
Q 2419 397 2687 759 
Q 2956 1122 2956 1747 
Q 2956 2369 2687 2733 
Q 2419 3097 1959 3097 
z
M 1959 3584 
Q 2709 3584 3137 3096 
Q 3566 2609 3566 1747 
Q 3566 888 3137 398 
Q 2709 -91 1959 -91 
Q 1206 -91 779 398 
Q 353 888 353 1747 
Q 353 2609 779 3096 
Q 1206 3584 1959 3584 
z
" transform="scale(0.015625)"/>
       <path id="DejaVuSans-20" transform="scale(0.015625)"/>
       <path id="DejaVuSans-68" d="M 3513 2113 
L 3513 0 
L 2938 0 
L 2938 2094 
Q 2938 2591 2744 2837 
Q 2550 3084 2163 3084 
Q 1697 3084 1428 2787 
Q 1159 2491 1159 1978 
L 1159 0 
L 581 0 
L 581 4863 
L 1159 4863 
L 1159 2956 
Q 1366 3272 1645 3428 
Q 1925 3584 2291 3584 
Q 2894 3584 3203 3211 
Q 3513 2838 3513 2113 
z
" transform="scale(0.015625)"/>
       <path id="DejaVuSans-65" d="M 3597 1894 
L 3597 1613 
L 953 1613 
Q 991 1019 1311 708 
Q 1631 397 2203 397 
Q 2534 397 2845 478 
Q 3156 559 3463 722 
L 3463 178 
Q 3153 47 2828 -22 
Q 2503 -91 2169 -91 
Q 1331 -91 842 396 
Q 353 884 353 1716 
Q 353 2575 817 3079 
Q 1281 3584 2069 3584 
Q 2775 3584 3186 3129 
Q 3597 2675 3597 1894 
z
M 3022 2063 
Q 3016 2534 2758 2815 
Q 2500 3097 2075 3097 
Q 1594 3097 1305 2825 
Q 1016 2553 972 2059 
L 3022 2063 
z
" transform="scale(0.015625)"/>
       <path id="DejaVuSans-74" d="M 1172 4494 
L 1172 3500 
L 2356 3500 
L 2356 3053 
L 1172 3053 
L 1172 1153 
Q 1172 725 1289 603 
Q 1406 481 1766 481 
L 2356 481 
L 2356 0 
L 1766 0 
Q 1100 0 847 248 
Q 594 497 594 1153 
L 594 3053 
L 172 3053 
L 172 3500 
L 594 3500 
L 594 4494 
L 1172 4494 
z
" transform="scale(0.015625)"/>
       <path id="DejaVuSans-61" d="M 2194 1759 
Q 1497 1759 1228 1600 
Q 959 1441 959 1056 
Q 959 750 1161 570 
Q 1363 391 1709 391 
Q 2188 391 2477 730 
Q 2766 1069 2766 1631 
L 2766 1759 
L 2194 1759 
z
M 3341 1997 
L 3341 0 
L 2766 0 
L 2766 531 
Q 2569 213 2275 61 
Q 1981 -91 1556 -91 
Q 1019 -91 701 211 
Q 384 513 384 1019 
Q 384 1609 779 1909 
Q 1175 2209 1959 2209 
L 2766 2209 
L 2766 2266 
Q 2766 2663 2505 2880 
Q 2244 3097 1772 3097 
Q 1472 3097 1187 3025 
Q 903 2953 641 2809 
L 641 3341 
Q 956 3463 1253 3523 
Q 1550 3584 1831 3584 
Q 2591 3584 2966 3190 
Q 3341 2797 3341 1997 
z
" transform="scale(0.015625)"/>
       <path id="DejaVuSans-28" d="M 1984 4856 
Q 1566 4138 1362 3434 
Q 1159 2731 1159 2009 
Q 1159 1288 1364 580 
Q 1569 -128 1984 -844 
L 1484 -844 
Q 1016 -109 783 600 
Q 550 1309 550 2009 
Q 550 2706 781 3412 
Q 1013 4119 1484 4856 
L 1984 4856 
z
" transform="scale(0.015625)"/>
       <path id="DejaVuSans-64" d="M 2906 2969 
L 2906 4863 
L 3481 4863 
L 3481 0 
L 2906 0 
L 2906 525 
Q 2725 213 2448 61 
Q 2172 -91 1784 -91 
Q 1150 -91 751 415 
Q 353 922 353 1747 
Q 353 2572 751 3078 
Q 1150 3584 1784 3584 
Q 2172 3584 2448 3432 
Q 2725 3281 2906 2969 
z
M 947 1747 
Q 947 1113 1208 752 
Q 1469 391 1925 391 
Q 2381 391 2643 752 
Q 2906 1113 2906 1747 
Q 2906 2381 2643 2742 
Q 2381 3103 1925 3103 
Q 1469 3103 1208 2742 
Q 947 2381 947 1747 
z
" transform="scale(0.015625)"/>
       <path id="DejaVuSans-67" d="M 2906 1791 
Q 2906 2416 2648 2759 
Q 2391 3103 1925 3103 
Q 1463 3103 1205 2759 
Q 947 2416 947 1791 
Q 947 1169 1205 825 
Q 1463 481 1925 481 
Q 2391 481 2648 825 
Q 2906 1169 2906 1791 
z
M 3481 434 
Q 3481 -459 3084 -895 
Q 2688 -1331 1869 -1331 
Q 1566 -1331 1297 -1286 
Q 1028 -1241 775 -1147 
L 775 -588 
Q 1028 -725 1275 -790 
Q 1522 -856 1778 -856 
Q 2344 -856 2625 -561 
Q 2906 -266 2906 331 
L 2906 616 
Q 2728 306 2450 153 
Q 2172 0 1784 0 
Q 1141 0 747 490 
Q 353 981 353 1791 
Q 353 2603 747 3093 
Q 1141 3584 1784 3584 
Q 2172 3584 2450 3431 
Q 2728 3278 2906 2969 
L 2906 3500 
L 3481 3500 
L 3481 434 
z
" transform="scale(0.015625)"/>
       <path id="DejaVuSans-72" d="M 2631 2963 
Q 2534 3019 2420 3045 
Q 2306 3072 2169 3072 
Q 1681 3072 1420 2755 
Q 1159 2438 1159 1844 
L 1159 0 
L 581 0 
L 581 3500 
L 1159 3500 
L 1159 2956 
Q 1341 3275 1631 3429 
Q 1922 3584 2338 3584 
Q 2397 3584 2469 3576 
Q 2541 3569 2628 3553 
L 2631 2963 
z
" transform="scale(0.015625)"/>
       <path id="DejaVuSans-73" d="M 2834 3397 
L 2834 2853 
Q 2591 2978 2328 3040 
Q 2066 3103 1784 3103 
Q 1356 3103 1142 2972 
Q 928 2841 928 2578 
Q 928 2378 1081 2264 
Q 1234 2150 1697 2047 
L 1894 2003 
Q 2506 1872 2764 1633 
Q 3022 1394 3022 966 
Q 3022 478 2636 193 
Q 2250 -91 1575 -91 
Q 1294 -91 989 -36 
Q 684 19 347 128 
L 347 722 
Q 666 556 975 473 
Q 1284 391 1588 391 
Q 1994 391 2212 530 
Q 2431 669 2431 922 
Q 2431 1156 2273 1281 
Q 2116 1406 1581 1522 
L 1381 1569 
Q 847 1681 609 1914 
Q 372 2147 372 2553 
Q 372 3047 722 3315 
Q 1072 3584 1716 3584 
Q 2034 3584 2315 3537 
Q 2597 3491 2834 3397 
z
" transform="scale(0.015625)"/>
       <path id="DejaVuSans-29" d="M 513 4856 
L 1013 4856 
Q 1481 4119 1714 3412 
Q 1947 2706 1947 2009 
Q 1947 1309 1714 600 
Q 1481 -109 1013 -844 
L 513 -844 
Q 928 -128 1133 580 
Q 1338 1288 1338 2009 
Q 1338 2731 1133 3434 
Q 928 4138 513 4856 
z
" transform="scale(0.015625)"/>
      </defs>
      <use xlink:href="#DejaVuSans-54"/>
      <use xlink:href="#DejaVuSans-77" x="44.583984"/>
      <use xlink:href="#DejaVuSans-6f" x="126.371094"/>
      <use xlink:href="#DejaVuSans-20" x="187.552734"/>
      <use xlink:href="#DejaVuSans-54" x="219.339844"/>
      <use xlink:href="#DejaVuSans-68" x="280.423828"/>
      <use xlink:href="#DejaVuSans-65" x="343.802734"/>
      <use xlink:href="#DejaVuSans-74" x="405.326172"/>
      <use xlink:href="#DejaVuSans-61" x="444.535156"/>
      <use xlink:href="#DejaVuSans-20" x="505.814453"/>
      <use xlink:href="#DejaVuSans-28" x="537.601562"/>
      <use xlink:href="#DejaVuSans-64" x="576.615234"/>
      <use xlink:href="#DejaVuSans-65" x="640.091797"/>
      <use xlink:href="#DejaVuSans-67" x="701.615234"/>
      <use xlink:href="#DejaVuSans-72" x="765.091797"/>
      <use xlink:href="#DejaVuSans-65" x="803.955078"/>
      <use xlink:href="#DejaVuSans-65" x="865.478516"/>
      <use xlink:href="#DejaVuSans-73" x="927.001953"/>
      <use xlink:href="#DejaVuSans-29" x="979.101562"/>
     </g>
    </g>
   </g>
   <g id="matplotlib.axis_2">
    <g id="ytick_1">
     <g id="line2d_26"/>
    </g>
    <g id="ytick_2">
     <g id="line2d_27"/>
    </g>
    <g id="ytick_3">
     <g id="line2d_28"/>
    </g>
    <g id="ytick_4">
     <g id="line2d_29"/>
    </g>
    <g id="ytick_5">
     <g id="line2d_30"/>
    </g>
    <g id="text_8">
     <!-- Intensity -->
     <g transform="translate(14.038594 94.73625)rotate(-90)scale(0.09 -0.09)">
      <defs>
       <path id="DejaVuSans-49" d="M 628 4666 
L 1259 4666 
L 1259 0 
L 628 0 
L 628 4666 
z
" transform="scale(0.015625)"/>
       <path id="DejaVuSans-6e" d="M 3513 2113 
L 3513 0 
L 2938 0 
L 2938 2094 
Q 2938 2591 2744 2837 
Q 2550 3084 2163 3084 
Q 1697 3084 1428 2787 
Q 1159 2491 1159 1978 
L 1159 0 
L 581 0 
L 581 3500 
L 1159 3500 
L 1159 2956 
Q 1366 3272 1645 3428 
Q 1925 3584 2291 3584 
Q 2894 3584 3203 3211 
Q 3513 2838 3513 2113 
z
" transform="scale(0.015625)"/>
       <path id="DejaVuSans-69" d="M 603 3500 
L 1178 3500 
L 1178 0 
L 603 0 
L 603 3500 
z
M 603 4863 
L 1178 4863 
L 1178 4134 
L 603 4134 
L 603 4863 
z
" transform="scale(0.015625)"/>
       <path id="DejaVuSans-79" d="M 2059 -325 
Q 1816 -950 1584 -1140 
Q 1353 -1331 966 -1331 
L 506 -1331 
L 506 -850 
L 844 -850 
Q 1081 -850 1212 -737 
Q 1344 -625 1503 -206 
L 1606 56 
L 191 3500 
L 800 3500 
L 1894 763 
L 2988 3500 
L 3597 3500 
L 2059 -325 
z
" transform="scale(0.015625)"/>
      </defs>
      <use xlink:href="#DejaVuSans-49"/>
      <use xlink:href="#DejaVuSans-6e" x="29.492188"/>
      <use xlink:href="#DejaVuSans-74" x="92.871094"/>
      <use xlink:href="#DejaVuSans-65" x="132.080078"/>
      <use xlink:href="#DejaVuSans-6e" x="193.603516"/>
      <use xlink:href="#DejaVuSans-73" x="256.982422"/>
      <use xlink:href="#DejaVuSans-69" x="309.082031"/>
      <use xlink:href="#DejaVuSans-74" x="336.865234"/>
      <use xlink:href="#DejaVuSans-79" x="376.074219"/>
     </g>
    </g>
   </g>
   <g id="line2d_31">
    <path d="M 23.43188 13.377273 
L 23.651681 21.244871 
L 23.724948 20.65413 
L 23.798215 21.218019 
L 23.944749 24.037465 
L 24.091283 20.251351 
L 24.311084 33.43562 
L 24.384351 30.777285 
L 24.604152 35.691177 
L 24.677419 32.603212 
L 24.750686 36.711548 
L 24.823953 35.01988 
L 24.89722 38.188401 
L 24.970487 36.523585 
L 25.263554 40.04118 
L 25.336821 40.685625 
L 25.410088 40.068032 
L 25.483355 42.430996 
L 25.556622 41.759699 
L 25.629889 42.243033 
L 25.703156 43.854145 
L 25.776423 42.726367 
L 25.84969 45.304146 
L 25.922957 45.169887 
L 25.996224 45.894887 
L 26.069491 44.49859 
L 26.142758 45.116183 
L 26.216025 45.384702 
L 26.435826 50.030075 
L 26.509093 47.962481 
L 26.58236 51.96341 
L 26.655627 51.184706 
L 26.728894 50.164335 
L 26.802161 53.869893 
L 26.875428 50.647668 
L 27.095229 55.373598 
L 27.168496 52.930077 
L 27.241763 53.332856 
L 27.31503 57.790266 
L 27.388297 52.500448 
L 27.461564 57.306932 
L 27.534831 55.26619 
L 27.608098 58.13934 
L 27.681365 57.84397 
L 27.754632 56.340265 
L 27.827899 56.393969 
L 27.901166 55.722672 
L 27.974433 60.153231 
L 28.0477 58.112488 
L 28.120967 57.897673 
L 28.194234 59.079156 
L 28.2675 56.447672 
L 28.414034 59.213415 
L 28.487301 57.897673 
L 28.633835 58.864341 
L 28.853636 63.858789 
L 28.926903 59.85786 
L 29.00017 61.57638 
L 29.146704 62.811566 
L 29.219971 61.925454 
L 29.439772 63.294899 
L 29.513039 65.657864 
L 29.586306 63.563418 
L 29.659573 66.758791 
L 29.73284 64.31527 
L 29.806107 67.993977 
L 29.952641 64.181011 
L 30.172442 67.376384 
L 30.318976 62.543047 
L 30.538777 68.90694 
L 30.612044 66.382864 
L 30.758578 69.846756 
L 30.831845 69.229163 
L 30.905112 64.100455 
L 30.978379 69.443978 
L 31.051646 66.597679 
L 31.124913 67.832865 
L 31.271447 68.289347 
L 31.417981 70.974534 
L 31.491247 68.933792 
L 31.564514 69.121755 
L 31.637781 72.746758 
L 31.711048 71.726387 
L 31.784315 66.570827 
L 32.004116 73.015276 
L 32.077383 68.155088 
L 32.223917 73.525462 
L 32.370451 70.571756 
L 32.443718 73.283795 
L 32.516985 73.042128 
L 32.590252 70.62546 
L 32.736786 75.5125 
L 32.810053 75.351389 
L 32.88332 73.606017 
L 32.956587 73.981944 
L 33.029854 73.92824 
L 33.103121 72.988424 
L 33.176388 75.431945 
L 33.249655 74.250462 
L 33.322922 73.203239 
L 33.469456 75.888426 
L 33.542723 73.364351 
L 33.61599 74.304166 
L 33.689257 73.015276 
L 33.762524 77.096761 
L 33.835791 74.545833 
L 33.982325 78.38565 
L 34.055592 76.07639 
L 34.128859 76.291204 
L 34.275393 77.526391 
L 34.34866 76.452316 
L 34.421927 78.761577 
L 34.568461 77.123612 
L 34.641728 79.406021 
L 34.788261 76.479168 
L 34.861528 76.693983 
L 34.934795 79.701392 
L 35.154596 75.351389 
L 35.30113 77.016205 
L 35.520931 80.882874 
L 35.594198 77.66065 
L 35.667465 79.916207 
L 35.740732 78.681021 
L 35.887266 79.486577 
L 36.107067 77.016205 
L 36.253601 83.487506 
L 36.400135 78.734725 
L 36.473402 81.903245 
L 36.546669 81.795838 
L 36.619936 80.480096 
L 36.76647 83.031024 
L 36.839737 83.004172 
L 36.913004 81.849542 
L 36.986271 81.956949 
L 37.059538 81.903245 
L 37.132805 80.587504 
L 37.352606 85.528248 
L 37.425873 81.876393 
L 37.49914 81.983801 
L 37.645674 85.743063 
L 37.865475 82.601394 
L 37.938741 83.433802 
L 38.012008 82.386579 
L 38.085275 84.615284 
L 38.231809 82.869913 
L 38.378343 86.790286 
L 38.45161 84.024543 
L 38.524877 84.212506 
L 38.671411 87.381027 
L 38.744678 86.494915 
L 38.964479 82.869913 
L 39.037746 83.729173 
L 39.111013 86.548619 
L 39.18428 83.594913 
L 39.257547 85.689359 
L 39.330814 85.044914 
L 39.550615 88.481954 
L 39.697149 85.474544 
L 39.843683 87.461582 
L 39.91695 89.072695 
L 39.990217 88.320842 
L 40.063484 88.750472 
L 40.136751 86.145841 
L 40.210018 87.461582 
L 40.283285 89.529176 
L 40.356552 87.193064 
L 40.429819 88.455102 
L 40.503086 86.226396 
L 40.576353 86.387508 
L 40.796154 89.15325 
L 40.869421 89.663436 
L 40.942688 87.944916 
L 41.015955 89.341213 
L 41.089222 87.407879 
L 41.235755 90.844918 
L 41.309022 89.314362 
L 41.382289 92.429178 
L 41.455556 88.106027 
L 41.528823 90.281029 
L 41.60209 89.770843 
L 41.675357 87.730101 
L 41.748624 90.254177 
L 41.821891 89.475473 
L 42.041692 91.113437 
L 42.114959 89.099547 
L 42.188226 91.838437 
L 42.261493 90.791214 
L 42.408027 89.099547 
L 42.481294 91.73103 
L 42.554561 90.844918 
L 42.627828 91.3014 
L 42.701095 90.334733 
L 42.920896 95.32918 
L 43.06743 89.824547 
L 43.140697 93.879179 
L 43.213964 91.918993 
L 43.287231 91.462511 
L 43.360498 92.59029 
L 43.433765 92.482882 
L 43.507032 90.925474 
L 43.580299 92.133808 
L 43.653566 91.650474 
L 43.946634 92.724549 
L 44.019901 90.415288 
L 44.093168 95.060662 
L 44.166435 93.44955 
L 44.312969 93.691216 
L 44.386235 91.3014 
L 44.459502 95.973625 
L 44.606036 91.999549 
L 44.75257 97.289367 
L 44.825837 93.556957 
L 44.899104 95.382884 
L 45.045638 94.631032 
L 45.118905 92.670845 
L 45.192172 97.396774 
L 45.338706 93.476401 
L 45.411973 93.906031 
L 45.48524 92.375475 
L 45.558507 97.235663 
L 45.631774 94.335661 
L 45.705041 95.409736 
L 45.778308 96.698626 
L 45.851575 96.18844 
L 45.998109 92.482882 
L 46.144643 95.624551 
L 46.291177 93.959735 
L 46.364444 97.450478 
L 46.437711 93.181031 
L 46.510978 96.268996 
L 46.584245 95.866218 
L 46.730779 95.46344 
L 46.804046 93.879179 
L 46.877313 96.107885 
L 46.95058 95.302329 
L 47.023847 94.496772 
L 47.097114 97.020848 
L 47.170381 95.490292 
L 47.243648 97.504182 
L 47.316915 97.101404 
L 47.390182 97.020848 
L 47.463449 94.953254 
L 47.536716 98.014367 
L 47.609983 96.886589 
L 47.683249 96.993996 
L 47.756516 94.657884 
L 47.829783 96.859737 
L 47.90305 96.027329 
L 47.976317 94.872699 
L 48.196118 98.954183 
L 48.269385 97.745849 
L 48.415919 99.92085 
L 48.562453 95.946773 
L 48.63572 97.155108 
L 48.708987 98.256034 
L 48.782254 96.591218 
L 48.855521 98.470849 
L 48.928788 98.390294 
L 49.002055 95.866218 
L 49.075322 96.61807 
L 49.148589 97.799552 
L 49.221856 97.47733 
L 49.295123 96.349551 
L 49.36839 98.282886 
L 49.588191 95.75881 
L 49.734725 98.094923 
L 49.807992 98.068071 
L 49.954526 100.269925 
L 50.027793 99.598628 
L 50.10106 96.107885 
L 50.247594 99.893998 
L 50.320861 97.826404 
L 50.394128 99.383813 
L 50.467395 98.819924 
L 50.540662 99.276405 
L 50.613929 97.531034 
L 50.687196 98.551405 
L 50.83373 96.940293 
L 50.906996 97.396774 
L 50.980263 99.356961 
L 51.05353 97.074552 
L 51.126797 99.598628 
L 51.200064 97.557886 
L 51.419865 100.296776 
L 51.493132 99.732887 
L 51.566399 100.592147 
L 51.639666 98.121775 
L 51.712933 99.893998 
L 51.7862 98.148627 
L 51.859467 99.786591 
L 51.932734 99.303257 
L 52.079268 98.605109 
L 52.152535 99.142146 
L 52.299069 97.880108 
L 52.372336 98.068071 
L 52.445603 99.518072 
L 52.592137 95.141217 
L 52.665404 100.431036 
L 52.738671 98.793072 
L 52.811938 97.181959 
L 52.885205 97.584738 
L 52.958472 97.745849 
L 53.031739 97.396774 
L 53.178273 99.168998 
L 53.25154 98.282886 
L 53.324807 100.108813 
L 53.398074 98.282886 
L 53.471341 100.833814 
L 53.544608 98.256034 
L 53.617875 98.927331 
L 53.691142 98.846775 
L 53.764409 96.134737 
L 53.837676 97.369923 
L 53.910943 96.61807 
L 53.98421 100.296776 
L 54.130743 96.859737 
L 54.350544 100.645851 
L 54.497078 97.343071 
L 54.643612 99.383813 
L 54.863413 95.490292 
L 54.93668 96.537515 
L 55.009947 98.470849 
L 55.083214 97.289367 
L 55.156481 99.92085 
L 55.229748 95.839366 
L 55.303015 97.262515 
L 55.376282 98.605109 
L 55.596083 95.46344 
L 55.815884 99.840295 
L 55.889151 98.551405 
L 55.962418 95.946773 
L 56.035685 98.309738 
L 56.108952 96.61807 
L 56.182219 97.020848 
L 56.255486 97.826404 
L 56.328753 95.168069 
L 56.40202 97.584738 
L 56.475287 97.020848 
L 56.548554 96.967144 
L 56.621821 95.731958 
L 56.695088 97.772701 
L 56.768355 96.18844 
L 56.841622 96.698626 
L 56.914889 96.886589 
L 56.988156 94.765291 
L 57.061423 95.03381 
L 57.13469 98.229182 
L 57.35449 95.006958 
L 57.427757 97.718997 
L 57.501024 97.450478 
L 57.574291 97.101404 
L 57.647558 95.302329 
L 57.720825 97.074552 
L 57.867359 94.228254 
L 57.940626 94.792143 
L 58.013893 91.784734 
L 58.08716 92.348623 
L 58.306961 94.335661 
L 58.380228 91.193992 
L 58.453495 94.228254 
L 58.526762 93.073623 
L 58.600029 93.31529 
L 58.673296 94.469921 
L 58.81983 93.127327 
L 58.893097 93.234735 
L 58.966364 95.382884 
L 59.039631 92.724549 
L 59.112898 92.858808 
L 59.186165 95.006958 
L 59.332699 90.415288 
L 59.405966 90.818066 
L 59.5525 95.275477 
L 59.625767 93.01992 
L 59.772301 89.556028 
L 59.845568 92.670845 
L 59.918835 91.918993 
L 59.992102 92.133808 
L 60.138636 89.072695 
L 60.358437 91.838437 
L 60.431704 91.811585 
L 60.504971 89.851399 
L 60.578237 91.489363 
L 60.651504 90.656955 
L 60.724771 91.784734 
L 60.798038 89.394917 
L 60.871305 89.690288 
L 60.944572 89.690288 
L 61.091106 88.401398 
L 61.164373 91.247696 
L 61.310907 88.132879 
L 61.384174 90.173621 
L 61.530708 86.790286 
L 61.603975 89.609732 
L 61.677242 88.320842 
L 61.750509 87.810657 
L 61.823776 88.186583 
L 61.897043 85.904174 
L 61.97031 87.783805 
L 62.116844 85.501396 
L 62.263378 87.381027 
L 62.409912 84.078247 
L 62.483179 85.42084 
L 62.629713 84.319914 
L 62.70298 85.769915 
L 62.776247 83.756024 
L 62.849514 84.507877 
L 62.922781 82.896765 
L 63.069315 85.581952 
L 63.142582 80.829171 
L 63.215849 84.400469 
L 63.289116 84.26621 
L 63.43565 81.82269 
L 63.655451 85.716211 
L 63.728718 80.372689 
L 63.801984 81.768986 
L 63.875251 79.781948 
L 63.948518 81.527319 
L 64.021785 79.056947 
L 64.095052 82.386579 
L 64.241586 76.908797 
L 64.314853 82.574542 
L 64.38812 81.205097 
L 64.461387 80.211578 
L 64.534654 81.527319 
L 64.754455 77.848613 
L 64.827722 77.875465 
L 64.900989 75.485648 
L 64.974256 78.466206 
L 65.047523 75.968982 
L 65.267324 79.271762 
L 65.413858 75.5125 
L 65.487125 75.539352 
L 65.560392 76.693983 
L 65.633659 72.854165 
L 65.706926 76.156945 
L 65.780193 75.002315 
L 65.85346 76.156945 
L 65.999994 71.91435 
L 66.073261 73.122684 
L 66.146528 72.156016 
L 66.219795 72.451387 
L 66.293062 71.806942 
L 66.366329 73.740277 
L 66.439596 69.631941 
L 66.512863 70.732867 
L 66.58613 70.330089 
L 66.659397 70.518052 
L 66.732664 75.673611 
L 66.805931 70.088422 
L 66.879198 71.618979 
L 66.952465 71.645831 
L 67.025731 69.873608 
L 67.245532 71.565275 
L 67.318799 69.712496 
L 67.392066 72.317128 
L 67.465333 71.511572 
L 67.685134 65.765271 
L 67.831668 70.410645 
L 68.051469 69.578237 
L 68.198003 67.188421 
L 68.27127 66.946754 
L 68.344537 68.826385 
L 68.417804 67.671754 
L 68.491071 68.799533 
L 68.564338 68.128236 
L 68.637605 68.450458 
L 68.710872 65.60416 
L 68.784139 66.194901 
L 68.857406 67.779162 
L 68.930673 67.32268 
L 69.00394 63.187492 
L 69.150474 72.370831 
L 69.297008 66.758791 
L 69.370275 66.651383 
L 69.443542 63.214344 
L 69.516809 64.556937 
L 69.590076 64.87916 
L 69.663343 62.945825 
L 69.73661 63.268047 
L 69.883144 67.188421 
L 69.956411 65.147678 
L 70.029678 66.275457 
L 70.102945 63.321751 
L 70.176212 66.89305 
L 70.249479 62.516195 
L 70.322745 63.456011 
L 70.396012 62.918973 
L 70.542546 61.066194 
L 70.615813 60.71712 
L 70.835614 63.912492 
L 70.908881 63.429159 
L 70.982148 64.986567 
L 71.055415 64.368974 
L 71.128682 62.569899 
L 71.201949 62.784714 
L 71.275216 63.268047 
L 71.348483 62.30138 
L 71.42175 65.362493 
L 71.495017 61.495824 
L 71.568284 63.643974 
L 71.641551 61.361565 
L 71.714818 61.495824 
L 71.788085 65.765271 
L 71.861352 59.374526 
L 71.934619 61.388417 
L 72.007886 61.415268 
L 72.15442 64.181011 
L 72.447488 61.093046 
L 72.740556 66.436568 
L 72.813823 62.00601 
L 72.88709 63.321751 
L 73.033624 61.656935 
L 73.180158 64.825456 
L 73.326692 63.751381 
L 73.399959 63.88564 
L 73.473226 63.053232 
L 73.546492 63.456011 
L 73.619759 64.046752 
L 73.693026 61.952306 
L 73.766293 65.120827 
L 73.83956 64.073604 
L 73.912827 66.570827 
L 73.986094 65.792123 
L 74.059361 63.509714 
L 74.205895 66.812494 
L 74.279162 62.462491 
L 74.352429 64.073604 
L 74.498963 67.483791 
L 74.645497 63.106936 
L 74.792031 67.779162 
L 74.865298 64.637493 
L 74.938565 65.980086 
L 75.011832 65.872679 
L 75.085099 67.430087 
L 75.158366 67.000457 
L 75.3049 66.946754 
L 75.451434 70.813423 
L 75.524701 67.000457 
L 75.597968 67.940273 
L 75.744502 68.987496 
L 75.891036 68.826385 
L 76.03757 68.101384 
L 76.184104 69.524533 
L 76.257371 67.725458 
L 76.330638 69.33657 
L 76.403905 67.376384 
L 76.623706 70.437497 
L 76.696973 68.933792 
L 76.843506 71.081942 
L 77.063307 69.497681 
L 77.136574 70.061571 
L 77.209841 73.337499 
L 77.283108 72.854165 
L 77.356375 69.927311 
L 77.429642 73.740277 
L 77.576176 70.62546 
L 77.72271 75.405093 
L 77.869244 72.424535 
L 77.942511 73.525462 
L 78.089045 72.317128 
L 78.235579 75.888426 
L 78.308846 72.585646 
L 78.45538 75.458797 
L 78.528647 75.136574 
L 78.601914 75.21713 
L 78.675181 71.592127 
L 78.748448 75.378241 
L 78.821715 74.733796 
L 78.894982 76.344908 
L 78.968249 73.981944 
L 79.114783 77.392131 
L 79.18805 71.457868 
L 79.261317 76.586575 
L 79.334584 76.291204 
L 79.407851 73.095832 
L 79.481118 77.016205 
L 79.554385 75.593056 
L 79.774186 78.009724 
L 79.847453 77.794909 
L 79.92072 76.452316 
L 80.067253 78.573613 
L 80.14052 81.017134 
L 80.213787 76.935649 
L 80.360321 80.506948 
L 80.506855 80.292133 
L 80.580122 80.372689 
L 80.653389 78.842132 
L 80.726656 81.68843 
L 80.799923 78.734725 
L 80.87319 80.131022 
L 80.946457 81.956949 
L 81.019724 79.459725 
L 81.166258 81.715282 
L 81.239525 80.157874 
L 81.312792 80.829171 
L 81.459326 83.514358 
L 81.532593 81.983801 
L 81.60586 82.386579 
L 81.679127 81.419912 
L 81.752394 84.346766 
L 81.825661 80.802319 
L 81.898928 81.983801 
L 81.972195 85.716211 
L 82.045462 83.433802 
L 82.118729 86.360656 
L 82.265263 81.124541 
L 82.33853 84.615284 
L 82.411797 84.373617 
L 82.558331 83.380098 
L 82.704865 85.743063 
L 82.778132 83.057876 
L 82.997933 86.951397 
L 83.0712 80.157874 
L 83.291 88.481954 
L 83.510801 86.790286 
L 83.584068 86.226396 
L 83.657335 88.643065 
L 83.877136 83.997691 
L 84.02367 88.831028 
L 84.170204 86.199545 
L 84.316738 90.979177 
L 84.390005 89.233806 
L 84.463272 87.783805 
L 84.536539 87.971768 
L 84.609806 90.388436 
L 84.683073 87.944916 
L 84.829607 90.764362 
L 84.902874 87.193064 
L 84.976141 88.750472 
L 85.049408 87.327323 
L 85.269209 91.167141 
L 85.415743 90.522696 
L 85.635544 92.536586 
L 85.708811 88.508805 
L 85.782078 91.704178 
L 85.855345 90.468992 
L 86.001879 91.408807 
L 86.075146 94.201402 
L 86.148413 91.3014 
L 86.22168 91.972697 
L 86.294947 91.086585 
L 86.44148 92.482882 
L 86.514747 91.408807 
L 86.588014 92.939364 
L 86.661281 92.429178 
L 86.734548 92.778253 
L 86.807815 92.187512 
L 86.881082 92.831956 
L 87.027616 90.844918 
L 87.17415 94.818995 
L 87.247417 93.664364 
L 87.393951 94.953254 
L 87.467218 93.44955 
L 87.540485 93.503253 
L 87.613752 97.47733 
L 87.687019 95.248625 
L 87.760286 98.256034 
L 87.90682 92.268067 
L 87.980087 95.32918 
L 88.053354 93.932883 
L 88.199888 95.302329 
L 88.273155 94.228254 
L 88.346422 96.242144 
L 88.419689 93.637513 
L 88.492956 94.255106 
L 88.63949 96.268996 
L 88.712757 96.268996 
L 88.786024 97.101404 
L 88.859291 94.89955 
L 88.932558 98.605109 
L 89.079092 96.000477 
L 89.225626 99.142146 
L 89.37216 95.705107 
L 89.445427 95.194921 
L 89.518694 100.726406 
L 89.591961 97.90696 
L 89.665227 96.859737 
L 89.738494 97.208811 
L 89.811761 98.793072 
L 89.885028 96.430107 
L 89.958295 98.175479 
L 90.031562 96.832885 
L 90.251363 101.505111 
L 90.32463 99.168998 
L 90.397897 99.276405 
L 90.471164 100.323628 
L 90.544431 98.148627 
L 90.617698 100.484739 
L 90.690965 98.470849 
L 90.764232 98.954183 
L 90.837499 99.652332 
L 90.984033 98.175479 
L 91.0573 100.78011 
L 91.130567 99.410665 
L 91.203834 102.659741 
L 91.277101 100.404184 
L 91.350368 100.726406 
L 91.423635 100.404184 
L 91.496902 98.685664 
L 91.570169 99.088442 
L 91.643436 101.102332 
L 91.716703 100.726406 
L 91.78997 100.35048 
L 91.863237 101.827333 
L 91.936504 100.457888 
L 92.009771 102.49863 
L 92.083038 101.773629 
L 92.156305 101.63937 
L 92.376106 104.297705 
L 92.449373 101.666222 
L 92.52264 102.552333 
L 92.595907 101.021777 
L 92.669174 101.451407 
L 93.035508 104.807891 
L 93.182042 103.062519 
L 93.328576 104.163446 
L 93.401843 103.545853 
L 93.621644 106.714373 
L 93.694911 102.391222 
L 93.768178 104.297705 
L 93.841445 106.66067 
L 93.914712 103.948631 
L 93.987979 106.338447 
L 94.061246 104.888446 
L 94.134513 105.80141 
L 94.354314 102.310667 
L 94.427581 105.291224 
L 94.500848 103.411593 
L 94.647382 107.0903 
L 94.793916 105.720854 
L 95.013717 107.358818 
L 95.086984 103.975483 
L 95.233518 107.117151 
L 95.380052 105.264372 
L 95.453319 108.352337 
L 95.599853 106.311595 
L 95.67312 107.38567 
L 95.746387 106.633818 
L 95.892921 107.305115 
L 95.966188 107.224559 
L 96.112722 108.96993 
L 96.185988 108.755115 
L 96.332522 105.747706 
L 96.405789 105.640299 
L 96.479056 108.701412 
L 96.552323 108.030115 
L 96.62559 107.305115 
L 96.698857 109.426412 
L 96.772124 107.788448 
L 96.845391 107.842152 
L 96.991925 109.560672 
L 97.065192 108.432893 
L 97.138459 108.701412 
L 97.211726 108.567152 
L 97.35826 109.694931 
L 97.431527 107.627337 
L 97.504794 107.734744 
L 97.578061 110.903265 
L 97.651328 109.39956 
L 97.724595 110.795858 
L 97.797862 110.715302 
L 97.944396 109.39956 
L 98.09093 110.366228 
L 98.164197 111.923636 
L 98.237464 111.332895 
L 98.310731 111.225488 
L 98.383998 108.728264 
L 98.457265 111.708821 
L 98.530532 110.634746 
L 98.603799 112.057896 
L 98.750333 109.560672 
L 98.896867 112.353266 
L 99.043401 111.091228 
L 99.116668 109.506968 
L 99.263202 113.319933 
L 99.336469 110.581043 
L 99.409735 110.849561 
L 99.483002 114.018082 
L 99.556269 112.40697 
L 99.629536 111.54771 
L 99.702803 114.635675 
L 99.849337 112.621785 
L 99.922604 112.084747 
L 99.995871 113.293082 
L 100.069138 113.26623 
L 100.142405 112.809748 
L 100.215672 111.010673 
L 100.288939 113.883823 
L 100.362206 113.642156 
L 100.435473 114.394008 
L 100.50874 113.26623 
L 100.582007 113.749563 
L 100.655274 115.28012 
L 100.801808 113.373637 
L 100.875075 114.313453 
L 100.948342 113.26623 
L 101.021609 115.414379 
L 101.094876 114.447712 
L 101.168143 113.078267 
L 101.24141 114.259749 
L 101.314677 114.206045 
L 101.387944 114.769934 
L 101.461211 114.635675 
L 101.534478 114.796786 
L 101.607745 114.689379 
L 101.681012 113.910675 
L 101.754279 114.018082 
L 101.900813 115.70975 
L 101.97408 114.635675 
L 102.047347 116.13938 
L 102.120614 114.662527 
L 102.193881 115.038453 
L 102.340415 113.830119 
L 102.560216 117.535677 
L 102.633482 114.796786 
L 102.853283 117.481973 
L 102.999817 115.978269 
L 103.146351 116.354195 
L 103.366152 114.796786 
L 103.439419 118.341233 
L 103.512686 115.387527 
L 103.585953 115.844009 
L 103.65922 115.736602 
L 103.732487 116.918084 
L 103.805754 116.354195 
L 104.025555 118.878271 
L 104.172089 117.669936 
L 104.245356 118.475492 
L 104.39189 115.468083 
L 104.465157 117.669936 
L 104.538424 116.730121 
L 104.611691 117.320862 
L 104.684958 115.978269 
L 104.758225 119.01253 
L 104.831492 117.589381 
L 104.904759 118.368085 
L 104.978026 118.180122 
L 105.051293 118.502344 
L 105.271094 116.730121 
L 105.344361 119.656975 
L 105.417628 115.897713 
L 105.490895 116.837528 
L 105.564162 119.3079 
L 105.637429 119.119937 
L 105.710696 119.200493 
L 105.783963 118.421789 
L 105.857229 119.73753 
L 105.930496 117.938455 
L 106.07703 119.73753 
L 106.150297 118.394937 
L 106.223564 120.032901 
L 106.296831 119.44216 
L 106.443365 118.126418 
L 106.516632 120.59679 
L 106.589899 119.388456 
L 106.736433 119.173641 
L 106.956234 120.30142 
L 107.029501 119.119937 
L 107.176035 121.133828 
L 107.249302 120.972716 
L 107.395836 120.194012 
L 107.469103 120.194012 
L 107.54237 119.603271 
L 107.615637 121.617161 
L 107.688904 120.757901 
L 107.762171 120.892161 
L 107.835438 120.30142 
L 107.981972 121.482902 
L 108.055239 121.321791 
L 108.27504 121.993087 
L 108.348307 120.569938 
L 108.494841 122.369014 
L 108.568108 121.831976 
L 108.641375 119.925493 
L 108.787909 124.060681 
L 108.934443 120.757901 
L 109.154243 123.04031 
L 109.300777 120.784753 
L 109.447311 123.711607 
L 109.520578 121.805124 
L 109.593845 122.476421 
L 109.667112 121.241235 
L 109.740379 123.953274 
L 109.813646 121.831976 
L 109.886913 122.718088 
L 109.96018 123.684755 
L 110.106714 121.509754 
L 110.179981 123.845867 
L 110.253248 121.321791 
L 110.326515 122.825495 
L 110.399782 122.503273 
L 110.473049 122.234754 
L 110.546316 123.89957 
L 110.619583 121.429198 
L 110.839384 124.544015 
L 110.985918 122.932903 
L 111.205719 124.114385 
L 111.278986 123.819015 
L 111.352253 122.771792 
L 111.498787 123.89957 
L 111.572054 123.6042 
L 111.645321 124.785682 
L 111.791855 123.684755 
L 111.865122 124.114385 
L 111.938389 123.711607 
L 112.011656 123.926422 
L 112.084923 121.966236 
L 112.231457 125.537534 
L 112.304723 123.89957 
L 112.37799 124.060681 
L 112.451257 125.832905 
L 112.597791 124.3292 
L 112.671058 126.128275 
L 112.890859 123.953274 
L 112.964126 125.913461 
L 113.037393 125.215312 
L 113.11066 124.731978 
L 113.330461 126.128275 
L 113.476995 123.631052 
L 113.623529 125.61809 
L 113.696796 126.128275 
L 113.84333 124.46346 
L 114.063131 126.880128 
L 114.136398 126.208831 
L 114.209665 126.745868 
L 114.282932 124.302348 
L 114.356199 126.369942 
L 114.429466 124.973645 
L 114.576 127.309758 
L 114.795801 124.517163 
L 115.088869 127.524573 
L 115.162136 124.597719 
L 115.30867 127.148647 
L 115.381937 125.456979 
L 115.455204 128.06161 
L 115.52847 127.685684 
L 115.601737 126.074572 
L 115.675004 126.181979 
L 115.748271 127.444017 
L 115.821538 126.396794 
L 115.894805 126.531054 
L 116.041339 128.518092 
L 116.114606 127.470869 
L 116.26114 128.625499 
L 116.334407 125.483831 
L 116.407674 127.363462 
L 116.480941 126.853276 
L 116.554208 128.007906 
L 116.627475 127.417165 
L 116.700742 126.638461 
L 116.847276 127.685684 
L 116.99381 126.665313 
L 117.213611 127.873647 
L 117.286878 127.148647 
L 117.360145 129.753278 
L 117.433412 126.611609 
L 117.506679 127.309758 
L 117.579946 127.981055 
L 117.653213 127.148647 
L 117.72648 127.470869 
L 117.799747 127.282906 
L 117.946281 128.706055 
L 118.019548 127.927351 
L 118.092815 128.894018 
L 118.239349 127.33661 
L 118.312616 127.900499 
L 118.385883 128.195869 
L 118.45915 129.833834 
L 118.532417 128.356981 
L 118.605684 128.437536 
L 118.752217 127.900499 
L 118.825484 129.243092 
L 119.045285 126.719017 
L 119.191819 130.558834 
L 119.265086 127.444017 
L 119.338353 128.544944 
L 119.41162 130.102352 
L 119.631421 126.745868 
L 119.924489 128.947722 
L 119.997756 128.786611 
L 120.071023 128.840314 
L 120.217557 129.699574 
L 120.290824 129.162537 
L 120.364091 127.658832 
L 120.510625 130.129204 
L 120.583892 127.094943 
L 120.657159 127.954203 
L 120.803693 128.195869 
L 120.87696 127.819943 
L 120.950227 129.484759 
L 121.096761 128.195869 
L 121.170028 128.464388 
L 121.316562 131.444946 
L 121.389829 129.860685 
L 121.536363 130.585686 
L 121.682897 129.162537 
L 121.756164 128.007906 
L 121.902698 129.457907 
L 121.975965 129.081981 
L 122.049231 129.806982 
L 122.122498 129.3505 
L 122.269032 129.941241 
L 122.342299 128.732907 
L 122.415566 129.108833 
L 122.488833 128.518092 
L 122.5621 129.833834 
L 122.635367 128.840314 
L 122.708634 129.135685 
L 122.855168 130.290315 
L 123.074969 128.088462 
L 123.148236 130.048649 
L 123.221503 129.001426 
L 123.29477 129.269944 
L 123.368037 129.484759 
L 123.441304 130.424575 
L 123.514571 130.263463 
L 123.587838 130.666242 
L 123.807639 128.894018 
L 123.880906 130.424575 
L 124.100707 128.115314 
L 124.173974 128.974574 
L 124.247241 128.303277 
L 124.320508 128.330129 
L 124.467042 129.672722 
L 124.613576 129.753278 
L 124.686843 129.323648 
L 124.76011 130.317167 
L 124.833377 129.323648 
L 124.906644 129.511611 
L 124.979911 130.451427 
L 125.053178 128.840314 
L 125.126445 128.92087 
L 125.199712 129.431056 
L 125.272978 128.947722 
L 125.346245 129.699574 
L 125.419512 129.055129 
L 125.492779 129.243092 
L 125.566046 129.538463 
L 125.639313 128.464388 
L 125.71258 129.162537 
L 125.785847 128.437536 
L 125.859114 130.048649 
L 125.932381 129.833834 
L 126.005648 130.236612 
L 126.152182 129.216241 
L 126.225449 129.108833 
L 126.298716 129.887537 
L 126.371983 129.3505 
L 126.44525 130.0755 
L 126.591784 128.813462 
L 126.811585 131.606057 
L 126.884852 129.565315 
L 126.958119 130.961612 
L 127.031386 130.63939 
L 127.104653 129.055129 
L 127.17792 131.042168 
L 127.251187 128.732907 
L 127.324454 129.592167 
L 127.397721 131.015316 
L 127.544255 129.511611 
L 127.617522 130.021797 
L 127.690789 129.323648 
L 127.764056 129.753278 
L 127.837323 131.337538 
L 128.057124 129.914389 
L 128.130391 131.36439 
L 128.203658 130.746797 
L 128.276925 131.042168 
L 128.350192 130.156056 
L 128.423459 130.800501 
L 128.643259 129.672722 
L 128.789793 130.156056 
L 128.86306 130.129204 
L 128.936327 129.323648 
L 129.009594 129.457907 
L 129.082861 129.538463 
L 129.156128 128.947722 
L 129.302662 130.63939 
L 129.375929 129.108833 
L 129.449196 130.773649 
L 129.522463 129.994945 
L 129.59573 129.028277 
L 129.742264 131.525501 
L 129.888798 130.182908 
L 129.962065 131.579205 
L 130.035332 128.464388 
L 130.108599 130.854205 
L 130.181866 129.806982 
L 130.255133 129.672722 
L 130.3284 130.63939 
L 130.401667 130.50513 
L 130.474934 130.961612 
L 130.548201 128.759759 
L 130.621468 131.820872 
L 130.694735 130.370871 
L 130.768002 130.800501 
L 130.841269 130.63939 
L 130.914536 129.619019 
L 130.987803 130.156056 
L 131.06107 129.296796 
L 131.134337 131.713464 
L 131.207604 130.827353 
L 131.280871 131.632909 
L 131.354138 130.129204 
L 131.427405 130.50513 
L 131.500672 130.102352 
L 131.647206 131.337538 
L 131.720472 129.672722 
L 131.793739 130.370871 
L 131.867006 131.928279 
L 131.940273 131.686613 
L 132.086807 130.370871 
L 132.160074 132.035687 
L 132.306608 129.162537 
L 132.379875 132.599576 
L 132.453142 130.263463 
L 132.526409 131.955131 
L 132.599676 129.726426 
L 132.672943 132.062539 
L 132.74621 130.854205 
L 132.892744 131.981983 
L 132.966011 129.699574 
L 133.039278 131.552353 
L 133.112545 131.149575 
L 133.259079 130.263463 
L 133.332346 131.256983 
L 133.405613 129.833834 
L 133.47888 130.827353 
L 133.552147 130.612538 
L 133.625414 131.230131 
L 133.698681 130.236612 
L 133.845215 131.525501 
L 133.918482 130.317167 
L 133.991749 130.800501 
L 134.065016 131.042168 
L 134.138283 132.089391 
L 134.21155 131.095871 
L 134.284817 131.122723 
L 134.358084 131.79402 
L 134.431351 131.471798 
L 134.504618 131.606057 
L 134.577885 132.411613 
L 134.651152 130.854205 
L 134.724419 130.907908 
L 134.944219 132.572724 
L 135.017486 130.558834 
L 135.090753 131.49865 
L 135.16402 131.847724 
L 135.310554 131.122723 
L 135.457088 131.981983 
L 135.530355 130.854205 
L 135.603622 132.545872 
L 135.676889 131.767168 
L 135.750156 132.169946 
L 135.823423 132.062539 
L 135.89669 131.632909 
L 135.969957 132.169946 
L 136.043224 129.726426 
L 136.116491 130.988464 
L 136.263025 132.65328 
L 136.336292 130.585686 
L 136.409559 132.331057 
L 136.482826 130.451427 
L 136.556093 131.042168 
L 136.702627 131.874576 
L 136.849161 130.20976 
L 136.922428 132.438465 
L 136.995695 132.22365 
L 137.068962 131.418094 
L 137.142229 131.79402 
L 137.215496 131.042168 
L 137.288763 131.79402 
L 137.36203 130.451427 
L 137.581831 132.545872 
L 137.655098 130.881056 
L 137.728365 132.22365 
L 137.801632 131.767168 
L 137.874899 132.599576 
L 137.948166 131.901428 
L 138.021433 133.136614 
L 138.241233 130.907908 
L 138.3145 132.438465 
L 138.387767 130.666242 
L 138.461034 131.256983 
L 138.534301 132.706984 
L 138.680835 130.451427 
L 138.754102 132.921799 
L 138.827369 131.471798 
L 138.900636 131.874576 
L 139.04717 131.176427 
L 139.193704 133.270873 
L 139.266971 131.847724 
L 139.340238 132.465317 
L 139.486772 130.63939 
L 139.633306 132.143094 
L 139.706573 132.277354 
L 139.77984 131.659761 
L 139.926374 132.22365 
L 139.999641 131.686613 
L 140.072908 132.411613 
L 140.146175 132.089391 
L 140.219442 132.169946 
L 140.292709 130.907908 
L 140.51251 133.431984 
L 140.585777 131.955131 
L 140.659044 132.277354 
L 140.732311 132.384761 
L 140.805578 130.93476 
L 140.878845 132.492169 
L 140.952112 130.881056 
L 141.025379 133.244021 
L 141.098646 131.444946 
L 141.171913 133.619947 
L 141.24518 132.65328 
L 141.318447 133.51254 
L 141.391713 132.143094 
L 141.46498 132.438465 
L 141.538247 132.277354 
L 141.611514 133.351429 
L 141.684781 132.169946 
L 141.758048 132.357909 
L 141.831315 132.841243 
L 141.904582 130.63939 
L 141.977849 132.089391 
L 142.051116 131.955131 
L 142.124383 132.062539 
L 142.270917 133.190317 
L 142.344184 131.901428 
L 142.417451 133.539392 
L 142.490718 131.955131 
L 142.563985 132.143094 
L 142.637252 132.814391 
L 142.710519 131.203279 
L 142.857053 132.841243 
L 142.93032 132.868095 
L 143.003587 133.270873 
L 143.076854 132.787539 
L 143.150121 133.217169 
L 143.223388 132.519021 
L 143.296655 133.217169 
L 143.369922 132.411613 
L 143.516456 133.08291 
L 143.66299 131.525501 
L 143.736257 133.539392 
L 143.809524 133.244021 
L 143.956058 131.820872 
L 144.249126 133.297725 
L 144.322393 132.572724 
L 144.39566 133.485688 
L 144.468927 132.331057 
L 144.542194 133.539392 
L 144.688727 132.357909 
L 144.761994 133.673651 
L 144.835261 133.405132 
L 144.908528 134.264392 
L 144.981795 132.116243 
L 145.055062 133.458836 
L 145.128329 131.122723 
L 145.274863 133.80791 
L 145.34813 132.814391 
L 145.421397 133.458836 
L 145.567931 131.310686 
L 145.641198 134.049577 
L 145.787732 131.49865 
L 145.934266 133.781058 
L 146.154067 132.008835 
L 146.227334 132.22365 
L 146.300601 133.619947 
L 146.373868 133.458836 
L 146.447135 132.250502 
L 146.593669 133.915318 
L 146.666936 133.754207 
L 146.81347 131.471798 
L 146.886737 134.3718 
L 146.960004 133.646799 
L 147.033271 133.08291 
L 147.106538 133.351429 
L 147.179805 132.94865 
L 147.326339 133.566244 
L 147.399606 133.646799 
L 147.472873 132.062539 
L 147.54614 132.438465 
L 147.692674 134.318096 
L 147.765941 133.619947 
L 147.839208 133.995873 
L 147.912474 133.593095 
L 147.985741 131.955131 
L 148.132275 134.103281 
L 148.205542 133.405132 
L 148.352076 132.599576 
L 148.425343 131.955131 
L 148.571877 132.868095 
L 148.645144 132.841243 
L 148.718411 133.270873 
L 148.864945 132.733836 
L 149.011479 134.586615 
L 149.23128 132.814391 
L 149.377814 133.727355 
L 149.451081 134.80143 
L 149.597615 132.841243 
L 149.744149 134.130133 
L 149.817416 132.599576 
L 149.890683 134.264392 
L 149.96395 132.465317 
L 150.037217 133.190317 
L 150.110484 134.23754 
L 150.183751 133.861614 
L 150.257018 133.324577 
L 150.330285 133.834762 
L 150.550086 132.250502 
L 150.69662 134.049577 
L 150.769887 133.754207 
L 150.843154 134.532911 
L 150.916421 132.22365 
L 150.989688 133.727355 
L 151.062955 133.163465 
L 151.282755 134.022725 
L 151.356022 134.103281 
L 151.429289 133.297725 
L 151.502556 133.431984 
L 151.575823 134.479207 
L 151.64909 132.357909 
L 151.722357 133.244021 
L 151.795624 133.51254 
L 151.868891 132.626428 
L 151.942158 132.733836 
L 152.088692 133.781058 
L 152.161959 133.834762 
L 152.235226 133.002354 
L 152.308493 135.069948 
L 152.38176 133.969022 
L 152.528294 135.633838 
L 152.674828 132.841243 
L 152.821362 134.425503 
L 152.894629 134.318096 
L 153.041163 133.351429 
L 153.11443 133.37828 
L 153.187697 133.646799 
L 153.260964 133.566244 
L 153.334231 134.66717 
L 153.407498 133.244021 
L 153.480765 135.204208 
L 153.554032 134.183837 
L 153.627299 134.344948 
L 153.700566 133.834762 
L 153.773833 134.398651 
L 153.8471 133.485688 
L 153.920367 134.264392 
L 153.993634 133.781058 
L 154.066901 133.861614 
L 154.140168 133.915318 
L 154.213435 133.619947 
L 154.286702 132.572724 
L 154.359968 135.365319 
L 154.433235 134.264392 
L 154.506502 133.969022 
L 154.579769 135.580134 
L 154.653036 135.472726 
L 154.79957 132.975502 
L 154.872837 134.559763 
L 154.946104 134.103281 
L 155.019371 134.318096 
L 155.092638 135.016244 
L 155.239172 133.566244 
L 155.312439 134.506059 
L 155.385706 133.485688 
L 155.458973 134.210688 
L 155.53224 134.103281 
L 155.605507 134.049577 
L 155.678774 134.264392 
L 155.752041 133.51254 
L 155.825308 134.559763 
L 155.898575 134.452355 
L 155.971842 134.049577 
L 156.045109 134.506059 
L 156.118376 133.270873 
L 156.26491 135.284763 
L 156.411444 133.485688 
L 156.484711 133.646799 
L 156.557978 134.828281 
L 156.631245 134.344948 
L 156.704512 135.069948 
L 156.777779 134.908837 
L 156.924313 133.593095 
L 156.99758 133.995873 
L 157.070847 133.324577 
L 157.144114 133.485688 
L 157.217381 133.109762 
L 157.290648 134.049577 
L 157.363915 133.888466 
L 157.656982 134.720874 
L 157.730249 133.80791 
L 157.803516 135.257911 
L 157.95005 133.270873 
L 158.096584 135.338467 
L 158.169851 132.841243 
L 158.243118 134.828281 
L 158.316385 134.076429 
L 158.389652 134.452355 
L 158.462919 133.244021 
L 158.536186 133.405132 
L 158.609453 134.559763 
L 158.68272 133.915318 
L 158.829254 134.989393 
L 158.902521 134.130133 
L 159.049055 135.419023 
L 159.122322 132.572724 
L 159.268856 134.318096 
L 159.342123 134.881985 
L 159.41539 133.969022 
L 159.488657 135.231059 
L 159.561924 134.774578 
L 159.635191 134.398651 
L 159.708458 135.338467 
L 159.781725 133.163465 
L 159.854992 135.768097 
L 159.928259 135.687541 
L 160.074793 134.049577 
L 160.221327 135.311615 
L 160.294594 133.485688 
L 160.367861 134.962541 
L 160.441128 133.593095 
L 160.514395 134.586615 
L 160.587662 134.559763 
L 160.660929 133.270873 
L 160.807462 135.204208 
L 160.880729 133.754207 
L 160.953996 134.264392 
L 161.10053 135.150504 
L 161.173797 134.506059 
L 161.320331 135.741245 
L 161.393598 134.479207 
L 161.466865 134.694022 
L 161.613399 135.687541 
L 161.686666 135.338467 
L 161.759933 134.989393 
L 161.8332 136.144023 
L 161.979734 133.029206 
L 162.053001 133.029206 
L 162.199535 134.989393 
L 162.346069 133.37828 
L 162.492603 134.747726 
L 162.56587 134.318096 
L 162.639137 135.419023 
L 162.785671 133.969022 
L 162.932205 134.720874 
L 163.078739 134.855133 
L 163.225273 133.37828 
L 163.29854 134.962541 
L 163.371807 133.94217 
L 163.445074 134.855133 
L 163.518341 134.452355 
L 163.591608 134.210688 
L 163.664875 135.0968 
L 163.738142 134.049577 
L 163.811409 134.694022 
L 163.884676 133.888466 
L 163.957943 133.995873 
L 164.031209 133.781058 
L 164.177743 134.640318 
L 164.324277 133.646799 
L 164.470811 135.633838 
L 164.690612 134.130133 
L 164.763879 134.855133 
L 164.910413 133.244021 
L 165.130214 135.204208 
L 165.203481 135.150504 
L 165.276748 133.94217 
L 165.423282 135.768097 
L 165.496549 134.425503 
L 165.569816 135.392171 
L 165.643083 134.935689 
L 165.789617 133.324577 
L 165.936151 134.774578 
L 166.009418 134.183837 
L 166.082685 134.506059 
L 166.155952 133.109762 
L 166.229219 133.915318 
L 166.302486 133.270873 
L 166.375753 135.016244 
L 166.44902 133.915318 
L 166.595554 134.855133 
L 166.742088 134.264392 
L 166.815355 134.506059 
L 166.888622 134.3718 
L 166.961889 135.768097 
L 167.18169 134.23754 
L 167.254956 134.210688 
L 167.328223 134.318096 
L 167.40149 135.150504 
L 167.474757 133.915318 
L 167.548024 135.150504 
L 167.621291 134.613466 
L 167.694558 135.016244 
L 167.767825 134.264392 
L 167.841092 134.720874 
L 167.914359 133.270873 
L 167.987626 133.458836 
L 168.13416 135.016244 
L 168.207427 133.593095 
L 168.280694 134.049577 
L 168.353961 134.210688 
L 168.427228 133.94217 
L 168.573762 132.975502 
L 168.647029 135.606986 
L 168.793563 133.888466 
L 168.86683 134.828281 
L 168.940097 134.774578 
L 169.086631 134.156985 
L 169.306432 135.419023 
L 169.379699 134.210688 
L 169.452966 134.962541 
L 169.526233 134.103281 
L 169.746034 135.043096 
L 169.819301 134.425503 
L 169.892568 134.559763 
L 170.039102 135.016244 
L 170.185636 135.284763 
L 170.258903 133.458836 
L 170.33217 134.908837 
L 170.405437 134.425503 
L 170.478704 134.747726 
L 170.55197 133.754207 
L 170.625237 136.036616 
L 170.698504 135.016244 
L 170.845038 134.156985 
L 170.918305 134.183837 
L 170.991572 134.80143 
L 171.064839 133.056058 
L 171.211373 134.962541 
L 171.431174 135.123652 
L 171.504441 133.915318 
L 171.577708 134.318096 
L 171.650975 134.613466 
L 171.724242 134.559763 
L 171.797509 134.344948 
L 171.944043 135.445874 
L 172.01731 135.419023 
L 172.237111 134.022725 
L 172.383645 135.177356 
L 172.456912 133.754207 
L 172.603446 135.445874 
L 172.676713 134.935689 
L 172.74998 136.439394 
L 172.823247 135.95606 
L 172.896514 133.861614 
L 172.969781 133.94217 
L 173.116315 135.445874 
L 173.189582 133.51254 
L 173.262849 133.94217 
L 173.336116 135.714393 
L 173.409383 135.0968 
L 173.555917 135.419023 
L 173.629184 134.425503 
L 173.775717 135.633838 
L 173.848984 134.398651 
L 173.922251 134.586615 
L 173.995518 134.506059 
L 174.068785 135.284763 
L 174.142052 134.23754 
L 174.215319 135.499578 
L 174.288586 134.264392 
L 174.361853 134.720874 
L 174.43512 133.995873 
L 174.508387 134.855133 
L 174.581654 134.3718 
L 174.654921 135.204208 
L 174.728188 135.069948 
L 174.947989 133.727355 
L 175.021256 133.834762 
L 175.094523 134.908837 
L 175.16779 133.700503 
L 175.241057 134.049577 
L 175.387591 134.66717 
L 175.460858 134.076429 
L 175.680659 134.80143 
L 175.753926 133.969022 
L 175.827193 136.278282 
L 175.90046 134.183837 
L 175.973727 134.747726 
L 176.046994 134.532911 
L 176.120261 133.888466 
L 176.193528 134.398651 
L 176.413329 133.619947 
L 176.559863 135.150504 
L 176.63313 134.049577 
L 176.706397 135.150504 
L 176.926198 133.190317 
L 176.999464 135.848652 
L 177.145998 133.002354 
L 177.219265 134.425503 
L 177.292532 133.163465 
L 177.365799 135.472726 
L 177.439066 134.908837 
L 177.5856 133.754207 
L 177.658867 133.80791 
L 177.732134 133.646799 
L 177.805401 134.747726 
L 177.878668 134.183837 
L 177.951935 135.204208 
L 178.025202 134.344948 
L 178.098469 134.398651 
L 178.171736 136.922727 
L 178.245003 133.94217 
L 178.31827 134.828281 
L 178.391537 135.794949 
L 178.538071 133.485688 
L 178.611338 133.673651 
L 178.684605 135.150504 
L 178.757872 134.479207 
L 178.831139 133.969022 
L 178.977673 135.204208 
L 179.05094 134.183837 
L 179.124207 135.445874 
L 179.197474 134.962541 
L 179.270741 134.640318 
L 179.344008 134.774578 
L 179.417275 134.586615 
L 179.710343 135.257911 
L 179.78361 135.043096 
L 179.856877 133.727355 
L 179.930144 134.80143 
L 180.003411 134.506059 
L 180.149945 133.995873 
L 180.223211 134.130133 
L 180.369745 134.962541 
L 180.443012 134.828281 
L 180.516279 134.291244 
L 180.589546 134.747726 
L 180.662813 133.727355 
L 180.73608 134.506059 
L 180.882614 133.969022 
L 180.955881 133.969022 
L 181.029148 134.720874 
L 181.102415 134.156985 
L 181.175682 134.828281 
L 181.248949 134.774578 
L 181.46875 133.700503 
L 181.688551 135.177356 
L 181.761818 135.929208 
L 181.835085 133.458836 
L 181.908352 134.855133 
L 181.981619 134.318096 
L 182.054886 134.559763 
L 182.128153 134.183837 
L 182.20142 134.962541 
L 182.274687 133.646799 
L 182.421221 134.80143 
L 182.714289 133.217169 
L 182.787556 133.754207 
L 182.860823 133.619947 
L 182.93409 133.351429 
L 183.007357 135.150504 
L 183.080624 134.694022 
L 183.153891 134.103281 
L 183.227158 134.130133 
L 183.300425 134.3718 
L 183.373692 135.150504 
L 183.520225 133.861614 
L 183.740026 135.016244 
L 183.813293 133.888466 
L 183.88656 135.257911 
L 183.959827 134.049577 
L 184.106361 135.392171 
L 184.252895 133.029206 
L 184.326162 134.183837 
L 184.399429 132.760687 
L 184.61923 134.640318 
L 184.765764 134.425503 
L 184.839031 134.318096 
L 184.912298 133.351429 
L 185.058832 134.264392 
L 185.132099 132.921799 
L 185.205366 133.593095 
L 185.278633 132.65328 
L 185.425167 135.52643 
L 185.644968 133.80791 
L 185.791502 135.445874 
L 185.864769 134.559763 
L 185.938036 134.80143 
L 186.011303 134.398651 
L 186.08457 135.0968 
L 186.157837 133.593095 
L 186.231104 134.049577 
L 186.304371 135.445874 
L 186.377638 134.156985 
L 186.450905 134.80143 
L 186.524172 135.177356 
L 186.670705 133.727355 
L 186.817239 134.881985 
L 186.890506 135.284763 
L 187.110307 132.438465 
L 187.256841 135.231059 
L 187.403375 133.646799 
L 187.549909 135.231059 
L 187.76971 133.673651 
L 187.842977 135.499578 
L 187.916244 135.419023 
L 187.989511 134.479207 
L 188.062778 134.828281 
L 188.136045 135.043096 
L 188.282579 134.613466 
L 188.355846 133.405132 
L 188.429113 134.506059 
L 188.50238 134.344948 
L 188.575647 133.888466 
L 188.648914 134.747726 
L 188.722181 133.915318 
L 188.868715 135.794949 
L 189.015249 134.049577 
L 189.23505 135.392171 
L 189.308317 134.720874 
L 189.381584 135.123652 
L 189.454851 133.915318 
L 189.528118 134.425503 
L 189.601385 135.365319 
L 189.674652 135.0968 
L 189.747919 134.881985 
L 189.821186 134.022725 
L 189.894452 135.016244 
L 189.967719 134.344948 
L 190.040986 134.640318 
L 190.18752 134.318096 
L 190.334054 135.445874 
L 190.407321 133.593095 
L 190.553855 135.499578 
L 190.627122 134.264392 
L 190.700389 135.741245 
L 190.773656 135.392171 
" clip-path="url(#p456b52f771)" style="fill: none; stroke: #1f77b4; stroke-width: 0.5; stroke-linecap: square"/>
   </g>
   <g id="patch_3">
    <path d="M 23.410313 143.1 
L 23.410313 7.2 
" style="fill: none; stroke: #000000; stroke-width: 0.8; stroke-linejoin: miter; stroke-linecap: square"/>
   </g>
   <g id="patch_4">
    <path d="M 190.810313 143.1 
L 190.810313 7.2 
" style="fill: none; stroke: #000000; stroke-width: 0.8; stroke-linejoin: miter; stroke-linecap: square"/>
   </g>
   <g id="patch_5">
    <path d="M 23.410313 143.1 
L 190.810313 143.1 
" style="fill: none; stroke: #000000; stroke-width: 0.8; stroke-linejoin: miter; stroke-linecap: square"/>
   </g>
   <g id="patch_6">
    <path d="M 23.410313 7.2 
L 190.810313 7.2 
" style="fill: none; stroke: #000000; stroke-width: 0.8; stroke-linejoin: miter; stroke-linecap: square"/>
   </g>
  </g>
 </g>
 <defs>
  <clipPath id="p456b52f771">
   <rect x="23.410313" y="7.2" width="167.4" height="135.9"/>
  </clipPath>
 </defs>
</svg>
