<?xml version="1.0" encoding="utf-8" standalone="no"?>
<!DOCTYPE svg PUBLIC "-//W3C//DTD SVG 1.1//EN"
  "http://www.w3.org/Graphics/SVG/1.1/DTD/svg11.dtd">
<svg xmlns:xlink="http://www.w3.org/1999/xlink" width="198.010312pt" height="177.752813pt" viewBox="0 0 198.010312 177.752813" xmlns="http://www.w3.org/2000/svg" version="1.1">
 <metadata>
  <rdf:RDF xmlns:dc="http://purl.org/dc/elements/1.1/" xmlns:cc="http://creativecommons.org/ns#" xmlns:rdf="http://www.w3.org/1999/02/22-rdf-syntax-ns#">
   <cc:Work>
    <dc:type rdf:resource="http://purl.org/dc/dcmitype/StillImage"/>
    <dc:date>2023-02-25T15:25:05.966203</dc:date>
    <dc:format>image/svg+xml</dc:format>
    <dc:creator>
     <cc:Agent>
      <dc:title>Matplotlib v3.5.2, https://matplotlib.org/</dc:title>
     </cc:Agent>
    </dc:creator>
   </cc:Work>
  </rdf:RDF>
 </metadata>
 <defs>
  <style type="text/css">*{stroke-linejoin: round; stroke-linecap: butt}</style>
 </defs>
 <g id="figure_1">
  <g id="patch_1">
   <path d="M 0 177.752813 
L 198.010312 177.752813 
L 198.010312 0 
L 0 0 
z
" style="fill: #ffffff"/>
  </g>
  <g id="axes_1">
   <g id="patch_2">
    <path d="M 23.410313 143.1 
L 190.810313 143.1 
L 190.810313 7.2 
L 23.410313 7.2 
z
" style="fill: #ffffff"/>
   </g>
   <g id="matplotlib.axis_1">
    <g id="xtick_1">
     <g id="line2d_1">
      <defs>
       <path id="m01788ecc7d" d="M 0 0 
L 0 3.5 
" style="stroke: #000000; stroke-width: 0.8"/>
      </defs>
      <g>
       <use xlink:href="#m01788ecc7d" x="37.360313" y="143.1" style="stroke: #000000; stroke-width: 0.8"/>
      </g>
     </g>
     <g id="text_1">
      <!-- 10 -->
      <g transform="translate(32.270313 156.17875)scale(0.08 -0.08)">
       <defs>
        <path id="DejaVuSans-31" d="M 794 531 
L 1825 531 
L 1825 4091 
L 703 3866 
L 703 4441 
L 1819 4666 
L 2450 4666 
L 2450 531 
L 3481 531 
L 3481 0 
L 794 0 
L 794 531 
z
" transform="scale(0.015625)"/>
        <path id="DejaVuSans-30" d="M 2034 4250 
Q 1547 4250 1301 3770 
Q 1056 3291 1056 2328 
Q 1056 1369 1301 889 
Q 1547 409 2034 409 
Q 2525 409 2770 889 
Q 3016 1369 3016 2328 
Q 3016 3291 2770 3770 
Q 2525 4250 2034 4250 
z
M 2034 4750 
Q 2819 4750 3233 4129 
Q 3647 3509 3647 2328 
Q 3647 1150 3233 529 
Q 2819 -91 2034 -91 
Q 1250 -91 836 529 
Q 422 1150 422 2328 
Q 422 3509 836 4129 
Q 1250 4750 2034 4750 
z
" transform="scale(0.015625)"/>
       </defs>
       <use xlink:href="#DejaVuSans-31"/>
       <use xlink:href="#DejaVuSans-30" x="63.623047"/>
      </g>
     </g>
    </g>
    <g id="xtick_2">
     <g id="line2d_2">
      <g>
       <use xlink:href="#m01788ecc7d" x="65.260312" y="143.1" style="stroke: #000000; stroke-width: 0.8"/>
      </g>
     </g>
     <g id="text_2">
      <!-- 20 -->
      <g transform="translate(60.170312 156.17875)scale(0.08 -0.08)">
       <defs>
        <path id="DejaVuSans-32" d="M 1228 531 
L 3431 531 
L 3431 0 
L 469 0 
L 469 531 
Q 828 903 1448 1529 
Q 2069 2156 2228 2338 
Q 2531 2678 2651 2914 
Q 2772 3150 2772 3378 
Q 2772 3750 2511 3984 
Q 2250 4219 1831 4219 
Q 1534 4219 1204 4116 
Q 875 4013 500 3803 
L 500 4441 
Q 881 4594 1212 4672 
Q 1544 4750 1819 4750 
Q 2544 4750 2975 4387 
Q 3406 4025 3406 3419 
Q 3406 3131 3298 2873 
Q 3191 2616 2906 2266 
Q 2828 2175 2409 1742 
Q 1991 1309 1228 531 
z
" transform="scale(0.015625)"/>
       </defs>
       <use xlink:href="#DejaVuSans-32"/>
       <use xlink:href="#DejaVuSans-30" x="63.623047"/>
      </g>
     </g>
    </g>
    <g id="xtick_3">
     <g id="line2d_3">
      <g>
       <use xlink:href="#m01788ecc7d" x="93.160313" y="143.1" style="stroke: #000000; stroke-width: 0.8"/>
      </g>
     </g>
     <g id="text_3">
      <!-- 30 -->
      <g transform="translate(88.070312 156.17875)scale(0.08 -0.08)">
       <defs>
        <path id="DejaVuSans-33" d="M 2597 2516 
Q 3050 2419 3304 2112 
Q 3559 1806 3559 1356 
Q 3559 666 3084 287 
Q 2609 -91 1734 -91 
Q 1441 -91 1130 -33 
Q 819 25 488 141 
L 488 750 
Q 750 597 1062 519 
Q 1375 441 1716 441 
Q 2309 441 2620 675 
Q 2931 909 2931 1356 
Q 2931 1769 2642 2001 
Q 2353 2234 1838 2234 
L 1294 2234 
L 1294 2753 
L 1863 2753 
Q 2328 2753 2575 2939 
Q 2822 3125 2822 3475 
Q 2822 3834 2567 4026 
Q 2313 4219 1838 4219 
Q 1578 4219 1281 4162 
Q 984 4106 628 3988 
L 628 4550 
Q 988 4650 1302 4700 
Q 1616 4750 1894 4750 
Q 2613 4750 3031 4423 
Q 3450 4097 3450 3541 
Q 3450 3153 3228 2886 
Q 3006 2619 2597 2516 
z
" transform="scale(0.015625)"/>
       </defs>
       <use xlink:href="#DejaVuSans-33"/>
       <use xlink:href="#DejaVuSans-30" x="63.623047"/>
      </g>
     </g>
    </g>
    <g id="xtick_4">
     <g id="line2d_4">
      <g>
       <use xlink:href="#m01788ecc7d" x="121.060312" y="143.1" style="stroke: #000000; stroke-width: 0.8"/>
      </g>
     </g>
     <g id="text_4">
      <!-- 40 -->
      <g transform="translate(115.970312 156.17875)scale(0.08 -0.08)">
       <defs>
        <path id="DejaVuSans-34" d="M 2419 4116 
L 825 1625 
L 2419 1625 
L 2419 4116 
z
M 2253 4666 
L 3047 4666 
L 3047 1625 
L 3713 1625 
L 3713 1100 
L 3047 1100 
L 3047 0 
L 2419 0 
L 2419 1100 
L 313 1100 
L 313 1709 
L 2253 4666 
z
" transform="scale(0.015625)"/>
       </defs>
       <use xlink:href="#DejaVuSans-34"/>
       <use xlink:href="#DejaVuSans-30" x="63.623047"/>
      </g>
     </g>
    </g>
    <g id="xtick_5">
     <g id="line2d_5">
      <g>
       <use xlink:href="#m01788ecc7d" x="148.960313" y="143.1" style="stroke: #000000; stroke-width: 0.8"/>
      </g>
     </g>
     <g id="text_5">
      <!-- 50 -->
      <g transform="translate(143.870313 156.17875)scale(0.08 -0.08)">
       <defs>
        <path id="DejaVuSans-35" d="M 691 4666 
L 3169 4666 
L 3169 4134 
L 1269 4134 
L 1269 2991 
Q 1406 3038 1543 3061 
Q 1681 3084 1819 3084 
Q 2600 3084 3056 2656 
Q 3513 2228 3513 1497 
Q 3513 744 3044 326 
Q 2575 -91 1722 -91 
Q 1428 -91 1123 -41 
Q 819 9 494 109 
L 494 744 
Q 775 591 1075 516 
Q 1375 441 1709 441 
Q 2250 441 2565 725 
Q 2881 1009 2881 1497 
Q 2881 1984 2565 2268 
Q 2250 2553 1709 2553 
Q 1456 2553 1204 2497 
Q 953 2441 691 2322 
L 691 4666 
z
" transform="scale(0.015625)"/>
       </defs>
       <use xlink:href="#DejaVuSans-35"/>
       <use xlink:href="#DejaVuSans-30" x="63.623047"/>
      </g>
     </g>
    </g>
    <g id="xtick_6">
     <g id="line2d_6">
      <g>
       <use xlink:href="#m01788ecc7d" x="176.860313" y="143.1" style="stroke: #000000; stroke-width: 0.8"/>
      </g>
     </g>
     <g id="text_6">
      <!-- 60 -->
      <g transform="translate(171.770313 156.17875)scale(0.08 -0.08)">
       <defs>
        <path id="DejaVuSans-36" d="M 2113 2584 
Q 1688 2584 1439 2293 
Q 1191 2003 1191 1497 
Q 1191 994 1439 701 
Q 1688 409 2113 409 
Q 2538 409 2786 701 
Q 3034 994 3034 1497 
Q 3034 2003 2786 2293 
Q 2538 2584 2113 2584 
z
M 3366 4563 
L 3366 3988 
Q 3128 4100 2886 4159 
Q 2644 4219 2406 4219 
Q 1781 4219 1451 3797 
Q 1122 3375 1075 2522 
Q 1259 2794 1537 2939 
Q 1816 3084 2150 3084 
Q 2853 3084 3261 2657 
Q 3669 2231 3669 1497 
Q 3669 778 3244 343 
Q 2819 -91 2113 -91 
Q 1303 -91 875 529 
Q 447 1150 447 2328 
Q 447 3434 972 4092 
Q 1497 4750 2381 4750 
Q 2619 4750 2861 4703 
Q 3103 4656 3366 4563 
z
" transform="scale(0.015625)"/>
       </defs>
       <use xlink:href="#DejaVuSans-36"/>
       <use xlink:href="#DejaVuSans-30" x="63.623047"/>
      </g>
     </g>
    </g>
    <g id="xtick_7">
     <g id="line2d_7">
      <defs>
       <path id="m7fc7270f7a" d="M 0 0 
L 0 2 
" style="stroke: #000000; stroke-width: 0.6"/>
      </defs>
      <g>
       <use xlink:href="#m7fc7270f7a" x="23.410313" y="143.1" style="stroke: #000000; stroke-width: 0.6"/>
      </g>
     </g>
    </g>
    <g id="xtick_8">
     <g id="line2d_8">
      <g>
       <use xlink:href="#m7fc7270f7a" x="30.385313" y="143.1" style="stroke: #000000; stroke-width: 0.6"/>
      </g>
     </g>
    </g>
    <g id="xtick_9">
     <g id="line2d_9">
      <g>
       <use xlink:href="#m7fc7270f7a" x="44.335313" y="143.1" style="stroke: #000000; stroke-width: 0.6"/>
      </g>
     </g>
    </g>
    <g id="xtick_10">
     <g id="line2d_10">
      <g>
       <use xlink:href="#m7fc7270f7a" x="51.310313" y="143.1" style="stroke: #000000; stroke-width: 0.6"/>
      </g>
     </g>
    </g>
    <g id="xtick_11">
     <g id="line2d_11">
      <g>
       <use xlink:href="#m7fc7270f7a" x="58.285313" y="143.1" style="stroke: #000000; stroke-width: 0.6"/>
      </g>
     </g>
    </g>
    <g id="xtick_12">
     <g id="line2d_12">
      <g>
       <use xlink:href="#m7fc7270f7a" x="72.235313" y="143.1" style="stroke: #000000; stroke-width: 0.6"/>
      </g>
     </g>
    </g>
    <g id="xtick_13">
     <g id="line2d_13">
      <g>
       <use xlink:href="#m7fc7270f7a" x="79.210313" y="143.1" style="stroke: #000000; stroke-width: 0.6"/>
      </g>
     </g>
    </g>
    <g id="xtick_14">
     <g id="line2d_14">
      <g>
       <use xlink:href="#m7fc7270f7a" x="86.185312" y="143.1" style="stroke: #000000; stroke-width: 0.6"/>
      </g>
     </g>
    </g>
    <g id="xtick_15">
     <g id="line2d_15">
      <g>
       <use xlink:href="#m7fc7270f7a" x="100.135312" y="143.1" style="stroke: #000000; stroke-width: 0.6"/>
      </g>
     </g>
    </g>
    <g id="xtick_16">
     <g id="line2d_16">
      <g>
       <use xlink:href="#m7fc7270f7a" x="107.110313" y="143.1" style="stroke: #000000; stroke-width: 0.6"/>
      </g>
     </g>
    </g>
    <g id="xtick_17">
     <g id="line2d_17">
      <g>
       <use xlink:href="#m7fc7270f7a" x="114.085313" y="143.1" style="stroke: #000000; stroke-width: 0.6"/>
      </g>
     </g>
    </g>
    <g id="xtick_18">
     <g id="line2d_18">
      <g>
       <use xlink:href="#m7fc7270f7a" x="128.035313" y="143.1" style="stroke: #000000; stroke-width: 0.6"/>
      </g>
     </g>
    </g>
    <g id="xtick_19">
     <g id="line2d_19">
      <g>
       <use xlink:href="#m7fc7270f7a" x="135.010312" y="143.1" style="stroke: #000000; stroke-width: 0.6"/>
      </g>
     </g>
    </g>
    <g id="xtick_20">
     <g id="line2d_20">
      <g>
       <use xlink:href="#m7fc7270f7a" x="141.985313" y="143.1" style="stroke: #000000; stroke-width: 0.6"/>
      </g>
     </g>
    </g>
    <g id="xtick_21">
     <g id="line2d_21">
      <g>
       <use xlink:href="#m7fc7270f7a" x="155.935313" y="143.1" style="stroke: #000000; stroke-width: 0.6"/>
      </g>
     </g>
    </g>
    <g id="xtick_22">
     <g id="line2d_22">
      <g>
       <use xlink:href="#m7fc7270f7a" x="162.910313" y="143.1" style="stroke: #000000; stroke-width: 0.6"/>
      </g>
     </g>
    </g>
    <g id="xtick_23">
     <g id="line2d_23">
      <g>
       <use xlink:href="#m7fc7270f7a" x="169.885313" y="143.1" style="stroke: #000000; stroke-width: 0.6"/>
      </g>
     </g>
    </g>
    <g id="xtick_24">
     <g id="line2d_24">
      <g>
       <use xlink:href="#m7fc7270f7a" x="183.835313" y="143.1" style="stroke: #000000; stroke-width: 0.6"/>
      </g>
     </g>
    </g>
    <g id="xtick_25">
     <g id="line2d_25">
      <g>
       <use xlink:href="#m7fc7270f7a" x="190.810313" y="143.1" style="stroke: #000000; stroke-width: 0.6"/>
      </g>
     </g>
    </g>
    <g id="text_7">
     <!-- Two Theta (degrees) -->
     <g transform="translate(61.294688 168.681094)scale(0.09 -0.09)">
      <defs>
       <path id="DejaVuSans-54" d="M -19 4666 
L 3928 4666 
L 3928 4134 
L 2272 4134 
L 2272 0 
L 1638 0 
L 1638 4134 
L -19 4134 
L -19 4666 
z
" transform="scale(0.015625)"/>
       <path id="DejaVuSans-77" d="M 269 3500 
L 844 3500 
L 1563 769 
L 2278 3500 
L 2956 3500 
L 3675 769 
L 4391 3500 
L 4966 3500 
L 4050 0 
L 3372 0 
L 2619 2869 
L 1863 0 
L 1184 0 
L 269 3500 
z
" transform="scale(0.015625)"/>
       <path id="DejaVuSans-6f" d="M 1959 3097 
Q 1497 3097 1228 2736 
Q 959 2375 959 1747 
Q 959 1119 1226 758 
Q 1494 397 1959 397 
Q 2419 397 2687 759 
Q 2956 1122 2956 1747 
Q 2956 2369 2687 2733 
Q 2419 3097 1959 3097 
z
M 1959 3584 
Q 2709 3584 3137 3096 
Q 3566 2609 3566 1747 
Q 3566 888 3137 398 
Q 2709 -91 1959 -91 
Q 1206 -91 779 398 
Q 353 888 353 1747 
Q 353 2609 779 3096 
Q 1206 3584 1959 3584 
z
" transform="scale(0.015625)"/>
       <path id="DejaVuSans-20" transform="scale(0.015625)"/>
       <path id="DejaVuSans-68" d="M 3513 2113 
L 3513 0 
L 2938 0 
L 2938 2094 
Q 2938 2591 2744 2837 
Q 2550 3084 2163 3084 
Q 1697 3084 1428 2787 
Q 1159 2491 1159 1978 
L 1159 0 
L 581 0 
L 581 4863 
L 1159 4863 
L 1159 2956 
Q 1366 3272 1645 3428 
Q 1925 3584 2291 3584 
Q 2894 3584 3203 3211 
Q 3513 2838 3513 2113 
z
" transform="scale(0.015625)"/>
       <path id="DejaVuSans-65" d="M 3597 1894 
L 3597 1613 
L 953 1613 
Q 991 1019 1311 708 
Q 1631 397 2203 397 
Q 2534 397 2845 478 
Q 3156 559 3463 722 
L 3463 178 
Q 3153 47 2828 -22 
Q 2503 -91 2169 -91 
Q 1331 -91 842 396 
Q 353 884 353 1716 
Q 353 2575 817 3079 
Q 1281 3584 2069 3584 
Q 2775 3584 3186 3129 
Q 3597 2675 3597 1894 
z
M 3022 2063 
Q 3016 2534 2758 2815 
Q 2500 3097 2075 3097 
Q 1594 3097 1305 2825 
Q 1016 2553 972 2059 
L 3022 2063 
z
" transform="scale(0.015625)"/>
       <path id="DejaVuSans-74" d="M 1172 4494 
L 1172 3500 
L 2356 3500 
L 2356 3053 
L 1172 3053 
L 1172 1153 
Q 1172 725 1289 603 
Q 1406 481 1766 481 
L 2356 481 
L 2356 0 
L 1766 0 
Q 1100 0 847 248 
Q 594 497 594 1153 
L 594 3053 
L 172 3053 
L 172 3500 
L 594 3500 
L 594 4494 
L 1172 4494 
z
" transform="scale(0.015625)"/>
       <path id="DejaVuSans-61" d="M 2194 1759 
Q 1497 1759 1228 1600 
Q 959 1441 959 1056 
Q 959 750 1161 570 
Q 1363 391 1709 391 
Q 2188 391 2477 730 
Q 2766 1069 2766 1631 
L 2766 1759 
L 2194 1759 
z
M 3341 1997 
L 3341 0 
L 2766 0 
L 2766 531 
Q 2569 213 2275 61 
Q 1981 -91 1556 -91 
Q 1019 -91 701 211 
Q 384 513 384 1019 
Q 384 1609 779 1909 
Q 1175 2209 1959 2209 
L 2766 2209 
L 2766 2266 
Q 2766 2663 2505 2880 
Q 2244 3097 1772 3097 
Q 1472 3097 1187 3025 
Q 903 2953 641 2809 
L 641 3341 
Q 956 3463 1253 3523 
Q 1550 3584 1831 3584 
Q 2591 3584 2966 3190 
Q 3341 2797 3341 1997 
z
" transform="scale(0.015625)"/>
       <path id="DejaVuSans-28" d="M 1984 4856 
Q 1566 4138 1362 3434 
Q 1159 2731 1159 2009 
Q 1159 1288 1364 580 
Q 1569 -128 1984 -844 
L 1484 -844 
Q 1016 -109 783 600 
Q 550 1309 550 2009 
Q 550 2706 781 3412 
Q 1013 4119 1484 4856 
L 1984 4856 
z
" transform="scale(0.015625)"/>
       <path id="DejaVuSans-64" d="M 2906 2969 
L 2906 4863 
L 3481 4863 
L 3481 0 
L 2906 0 
L 2906 525 
Q 2725 213 2448 61 
Q 2172 -91 1784 -91 
Q 1150 -91 751 415 
Q 353 922 353 1747 
Q 353 2572 751 3078 
Q 1150 3584 1784 3584 
Q 2172 3584 2448 3432 
Q 2725 3281 2906 2969 
z
M 947 1747 
Q 947 1113 1208 752 
Q 1469 391 1925 391 
Q 2381 391 2643 752 
Q 2906 1113 2906 1747 
Q 2906 2381 2643 2742 
Q 2381 3103 1925 3103 
Q 1469 3103 1208 2742 
Q 947 2381 947 1747 
z
" transform="scale(0.015625)"/>
       <path id="DejaVuSans-67" d="M 2906 1791 
Q 2906 2416 2648 2759 
Q 2391 3103 1925 3103 
Q 1463 3103 1205 2759 
Q 947 2416 947 1791 
Q 947 1169 1205 825 
Q 1463 481 1925 481 
Q 2391 481 2648 825 
Q 2906 1169 2906 1791 
z
M 3481 434 
Q 3481 -459 3084 -895 
Q 2688 -1331 1869 -1331 
Q 1566 -1331 1297 -1286 
Q 1028 -1241 775 -1147 
L 775 -588 
Q 1028 -725 1275 -790 
Q 1522 -856 1778 -856 
Q 2344 -856 2625 -561 
Q 2906 -266 2906 331 
L 2906 616 
Q 2728 306 2450 153 
Q 2172 0 1784 0 
Q 1141 0 747 490 
Q 353 981 353 1791 
Q 353 2603 747 3093 
Q 1141 3584 1784 3584 
Q 2172 3584 2450 3431 
Q 2728 3278 2906 2969 
L 2906 3500 
L 3481 3500 
L 3481 434 
z
" transform="scale(0.015625)"/>
       <path id="DejaVuSans-72" d="M 2631 2963 
Q 2534 3019 2420 3045 
Q 2306 3072 2169 3072 
Q 1681 3072 1420 2755 
Q 1159 2438 1159 1844 
L 1159 0 
L 581 0 
L 581 3500 
L 1159 3500 
L 1159 2956 
Q 1341 3275 1631 3429 
Q 1922 3584 2338 3584 
Q 2397 3584 2469 3576 
Q 2541 3569 2628 3553 
L 2631 2963 
z
" transform="scale(0.015625)"/>
       <path id="DejaVuSans-73" d="M 2834 3397 
L 2834 2853 
Q 2591 2978 2328 3040 
Q 2066 3103 1784 3103 
Q 1356 3103 1142 2972 
Q 928 2841 928 2578 
Q 928 2378 1081 2264 
Q 1234 2150 1697 2047 
L 1894 2003 
Q 2506 1872 2764 1633 
Q 3022 1394 3022 966 
Q 3022 478 2636 193 
Q 2250 -91 1575 -91 
Q 1294 -91 989 -36 
Q 684 19 347 128 
L 347 722 
Q 666 556 975 473 
Q 1284 391 1588 391 
Q 1994 391 2212 530 
Q 2431 669 2431 922 
Q 2431 1156 2273 1281 
Q 2116 1406 1581 1522 
L 1381 1569 
Q 847 1681 609 1914 
Q 372 2147 372 2553 
Q 372 3047 722 3315 
Q 1072 3584 1716 3584 
Q 2034 3584 2315 3537 
Q 2597 3491 2834 3397 
z
" transform="scale(0.015625)"/>
       <path id="DejaVuSans-29" d="M 513 4856 
L 1013 4856 
Q 1481 4119 1714 3412 
Q 1947 2706 1947 2009 
Q 1947 1309 1714 600 
Q 1481 -109 1013 -844 
L 513 -844 
Q 928 -128 1133 580 
Q 1338 1288 1338 2009 
Q 1338 2731 1133 3434 
Q 928 4138 513 4856 
z
" transform="scale(0.015625)"/>
      </defs>
      <use xlink:href="#DejaVuSans-54"/>
      <use xlink:href="#DejaVuSans-77" x="44.583984"/>
      <use xlink:href="#DejaVuSans-6f" x="126.371094"/>
      <use xlink:href="#DejaVuSans-20" x="187.552734"/>
      <use xlink:href="#DejaVuSans-54" x="219.339844"/>
      <use xlink:href="#DejaVuSans-68" x="280.423828"/>
      <use xlink:href="#DejaVuSans-65" x="343.802734"/>
      <use xlink:href="#DejaVuSans-74" x="405.326172"/>
      <use xlink:href="#DejaVuSans-61" x="444.535156"/>
      <use xlink:href="#DejaVuSans-20" x="505.814453"/>
      <use xlink:href="#DejaVuSans-28" x="537.601562"/>
      <use xlink:href="#DejaVuSans-64" x="576.615234"/>
      <use xlink:href="#DejaVuSans-65" x="640.091797"/>
      <use xlink:href="#DejaVuSans-67" x="701.615234"/>
      <use xlink:href="#DejaVuSans-72" x="765.091797"/>
      <use xlink:href="#DejaVuSans-65" x="803.955078"/>
      <use xlink:href="#DejaVuSans-65" x="865.478516"/>
      <use xlink:href="#DejaVuSans-73" x="927.001953"/>
      <use xlink:href="#DejaVuSans-29" x="979.101562"/>
     </g>
    </g>
   </g>
   <g id="matplotlib.axis_2">
    <g id="ytick_1">
     <g id="line2d_26"/>
    </g>
    <g id="ytick_2">
     <g id="line2d_27"/>
    </g>
    <g id="ytick_3">
     <g id="line2d_28"/>
    </g>
    <g id="ytick_4">
     <g id="line2d_29"/>
    </g>
    <g id="ytick_5">
     <g id="line2d_30"/>
    </g>
    <g id="text_8">
     <!-- Intensity -->
     <g transform="translate(14.038594 94.73625)rotate(-90)scale(0.09 -0.09)">
      <defs>
       <path id="DejaVuSans-49" d="M 628 4666 
L 1259 4666 
L 1259 0 
L 628 0 
L 628 4666 
z
" transform="scale(0.015625)"/>
       <path id="DejaVuSans-6e" d="M 3513 2113 
L 3513 0 
L 2938 0 
L 2938 2094 
Q 2938 2591 2744 2837 
Q 2550 3084 2163 3084 
Q 1697 3084 1428 2787 
Q 1159 2491 1159 1978 
L 1159 0 
L 581 0 
L 581 3500 
L 1159 3500 
L 1159 2956 
Q 1366 3272 1645 3428 
Q 1925 3584 2291 3584 
Q 2894 3584 3203 3211 
Q 3513 2838 3513 2113 
z
" transform="scale(0.015625)"/>
       <path id="DejaVuSans-69" d="M 603 3500 
L 1178 3500 
L 1178 0 
L 603 0 
L 603 3500 
z
M 603 4863 
L 1178 4863 
L 1178 4134 
L 603 4134 
L 603 4863 
z
" transform="scale(0.015625)"/>
       <path id="DejaVuSans-79" d="M 2059 -325 
Q 1816 -950 1584 -1140 
Q 1353 -1331 966 -1331 
L 506 -1331 
L 506 -850 
L 844 -850 
Q 1081 -850 1212 -737 
Q 1344 -625 1503 -206 
L 1606 56 
L 191 3500 
L 800 3500 
L 1894 763 
L 2988 3500 
L 3597 3500 
L 2059 -325 
z
" transform="scale(0.015625)"/>
      </defs>
      <use xlink:href="#DejaVuSans-49"/>
      <use xlink:href="#DejaVuSans-6e" x="29.492188"/>
      <use xlink:href="#DejaVuSans-74" x="92.871094"/>
      <use xlink:href="#DejaVuSans-65" x="132.080078"/>
      <use xlink:href="#DejaVuSans-6e" x="193.603516"/>
      <use xlink:href="#DejaVuSans-73" x="256.982422"/>
      <use xlink:href="#DejaVuSans-69" x="309.082031"/>
      <use xlink:href="#DejaVuSans-74" x="336.865234"/>
      <use xlink:href="#DejaVuSans-79" x="376.074219"/>
     </g>
    </g>
   </g>
   <g id="line2d_31">
    <path d="M 23.43188 16.285995 
L 23.505147 13.377273 
L 23.944749 23.156596 
L 24.018016 22.780468 
L 24.091283 29.350168 
L 24.16455 25.864717 
L 24.384351 30.704228 
L 24.457618 30.403326 
L 24.530885 34.641033 
L 24.604152 34.014153 
L 24.677419 36.621973 
L 24.750686 33.6631 
L 24.823953 33.763401 
L 24.89722 39.330093 
L 24.970487 35.092386 
L 25.043753 36.722273 
L 25.11702 35.844642 
L 25.410088 41.185657 
L 25.483355 40.659078 
L 25.556622 39.305018 
L 25.629889 42.21374 
L 25.703156 39.480544 
L 26.142758 46.802499 
L 26.216025 48.106409 
L 26.289292 43.542725 
L 26.362559 49.56077 
L 26.435826 49.51062 
L 26.509093 47.078326 
L 26.58236 47.278928 
L 26.655627 51.316033 
L 26.728894 49.761371 
L 26.875428 49.184642 
L 27.021962 53.322048 
L 27.095229 50.939905 
L 27.168496 53.748326 
L 27.241763 53.447424 
L 27.388297 52.293966 
L 27.534831 56.882725 
L 27.608098 53.873702 
L 27.681365 54.024154 
L 27.754632 54.475507 
L 27.827899 54.074304 
L 27.901166 58.011109 
L 27.974433 54.776409 
L 28.120967 57.810507 
L 28.340767 59.114417 
L 28.487301 58.487537 
L 28.633835 62.349116 
L 28.780369 58.88874 
L 28.853636 60.91983 
L 28.926903 59.916823 
L 29.00017 61.571785 
L 29.073437 59.916823 
L 29.146704 64.605883 
L 29.219971 61.922838 
L 29.293238 62.349116 
L 29.439772 65.50859 
L 29.659573 61.747312 
L 29.952641 64.856635 
L 30.025908 61.897763 
L 30.099175 63.101372 
L 30.172442 65.157537 
L 30.318976 63.728252 
L 30.612044 68.89374 
L 30.685311 67.514605 
L 30.758578 67.815507 
L 30.831845 69.420319 
L 30.978379 66.411297 
L 31.124913 68.79344 
L 31.19818 66.962951 
L 31.271447 69.896748 
L 31.344714 69.871673 
L 31.417981 68.141485 
L 31.564514 69.645996 
L 31.637781 69.47047 
L 31.711048 71.576786 
L 31.857582 67.464455 
L 31.930849 70.498553 
L 32.004116 68.918816 
L 32.077383 69.971974 
L 32.15065 69.47047 
L 32.223917 68.291936 
L 32.297184 70.398252 
L 32.370451 69.570771 
L 32.516985 73.006071 
L 32.590252 70.523628 
L 32.663519 73.056222 
L 32.736786 72.955921 
L 32.810053 73.984004 
L 32.88332 73.407274 
L 32.956587 74.585808 
L 33.029854 72.604868 
L 33.103121 74.736259 
L 33.176388 72.579793 
L 33.249655 74.711184 
L 33.396189 73.332049 
L 33.469456 73.808477 
L 33.542723 71.702162 
L 33.61599 76.692124 
L 33.689257 75.839568 
L 33.762524 74.034154 
L 33.835791 76.290921 
L 33.982325 74.309981 
L 34.055592 75.889718 
L 34.128859 75.187613 
L 34.202126 74.15953 
L 34.421927 78.723214 
L 34.568461 74.936861 
L 34.714994 77.344079 
L 34.861528 74.20968 
L 35.008062 79.575771 
L 35.081329 77.268853 
L 35.154596 75.388214 
L 35.227863 78.873666 
L 35.30113 77.143477 
L 35.374397 78.472462 
L 35.447664 78.422312 
L 35.520931 77.344079 
L 35.594198 77.820508 
L 35.667465 78.071259 
L 35.740732 75.739267 
L 35.813999 81.230733 
L 35.887266 78.547688 
L 35.960533 76.667049 
L 36.0338 79.450395 
L 36.107067 78.447387 
L 36.180334 77.644981 
L 36.253601 79.149493 
L 36.326868 78.021109 
L 36.400135 80.353102 
L 36.546669 75.939868 
L 36.76647 80.353102 
L 36.839737 80.027124 
L 36.913004 80.528628 
L 37.132805 77.770357 
L 37.206072 80.277876 
L 37.279339 80.252801 
L 37.352606 79.224718 
L 37.425873 79.676072 
L 37.572407 84.84156 
L 37.645674 81.50656 
L 37.718941 83.989004 
L 37.792208 82.559718 
L 37.865475 83.688102 
L 37.938741 83.587801 
L 38.012008 83.086297 
L 38.085275 80.553703 
L 38.305076 83.813478 
L 38.378343 83.913778 
L 38.45161 81.957914 
L 38.524877 82.509568 
L 38.598144 82.509568 
L 38.671411 83.136448 
L 38.744678 80.854605 
L 38.964479 85.618891 
L 39.037746 81.782387 
L 39.18428 85.719192 
L 39.257547 82.334042 
L 39.330814 87.424305 
L 39.404081 85.694117 
L 39.477348 86.270846 
L 39.550615 83.136448 
L 39.623882 85.518591 
L 39.697149 83.938854 
L 39.770416 85.819493 
L 39.843683 82.18359 
L 39.91695 82.935846 
L 39.990217 87.649982 
L 40.063484 85.593816 
L 40.136751 83.938854 
L 40.210018 88.903741 
L 40.283285 87.073252 
L 40.356552 83.136448 
L 40.576353 88.878666 
L 40.64962 86.847576 
L 40.722887 87.925809 
L 40.796154 85.744267 
L 40.869421 86.195621 
L 40.942688 87.424305 
L 41.015955 83.713177 
L 41.162488 88.703139 
L 41.235755 86.998027 
L 41.309022 87.775357 
L 41.382289 89.004042 
L 41.455556 87.750282 
L 41.528823 89.129418 
L 41.60209 86.998027 
L 41.675357 87.725207 
L 41.895158 91.912764 
L 42.114959 87.048177 
L 42.188226 89.405245 
L 42.261493 89.029117 
L 42.33476 88.402237 
L 42.408027 88.527613 
L 42.481294 89.179568 
L 42.554561 86.747275 
L 42.627828 90.533628 
L 42.701095 90.483478 
L 42.774362 90.984982 
L 42.920896 88.301936 
L 42.994163 88.552688 
L 43.06743 89.43032 
L 43.140697 88.778365 
L 43.213964 92.364117 
L 43.287231 89.154493 
L 43.360498 89.505546 
L 43.433765 91.035132 
L 43.507032 89.756297 
L 43.580299 90.984982 
L 43.653566 90.082275 
L 43.8001 92.614869 
L 43.873367 92.439343 
L 43.946634 90.282876 
L 44.019901 90.909756 
L 44.093168 94.169531 
L 44.166435 90.859606 
L 44.239702 91.837538 
L 44.312969 93.016072 
L 44.459502 90.73423 
L 44.532769 91.862613 
L 44.606036 91.361109 
L 44.75257 92.188591 
L 44.825837 91.436335 
L 44.972371 92.464418 
L 45.045638 91.687087 
L 45.192172 94.370132 
L 45.265439 93.367125 
L 45.411973 96.05017 
L 45.48524 95.097313 
L 45.558507 95.799418 
L 45.631774 95.297914 
L 45.778308 92.063215 
L 45.851575 94.395207 
L 45.924842 92.740245 
L 45.998109 92.76532 
L 46.071376 92.990997 
L 46.144643 92.690094 
L 46.21791 91.085282 
L 46.291177 93.617876 
L 46.364444 91.636937 
L 46.584245 96.852576 
L 46.657512 94.244756 
L 46.730779 95.398215 
L 46.804046 95.097313 
L 46.95058 93.592801 
L 47.023847 95.949869 
L 47.170381 94.194606 
L 47.243648 95.749267 
L 47.316915 95.172538 
L 47.463449 96.250771 
L 47.609983 94.946861 
L 47.683249 96.702125 
L 47.756516 93.367125 
L 47.90305 98.683065 
L 48.122851 94.169531 
L 48.196118 95.874643 
L 48.269385 95.122388 
L 48.342652 92.639944 
L 48.562453 96.77735 
L 48.708987 92.489493 
L 48.855521 96.300922 
L 48.928788 95.924794 
L 49.002055 95.924794 
L 49.148589 98.75829 
L 49.221856 98.557689 
L 49.295123 94.871636 
L 49.36839 96.651974 
L 49.441657 93.291899 
L 49.514924 94.395207 
L 49.588191 96.250771 
L 49.661458 93.367125 
L 49.807992 98.507538 
L 49.881259 95.974944 
L 49.954526 97.705132 
L 50.027793 96.476448 
L 50.10106 96.877651 
L 50.174327 97.730207 
L 50.247594 95.448365 
L 50.320861 96.852576 
L 50.394128 95.172538 
L 50.467395 97.253779 
L 50.540662 95.749267 
L 50.613929 95.974944 
L 50.687196 95.272839 
L 50.760463 98.306937 
L 50.83373 97.654982 
L 50.906996 98.457388 
L 50.980263 98.382162 
L 51.126797 95.172538 
L 51.200064 95.623892 
L 51.273331 96.752275 
L 51.346598 95.924794 
L 51.419865 93.693102 
L 51.493132 99.761298 
L 51.566399 97.053177 
L 51.639666 96.827501 
L 51.7862 95.122388 
L 51.859467 97.379155 
L 51.932734 96.77735 
L 52.006001 95.047162 
L 52.079268 96.000019 
L 52.152535 93.994004 
L 52.225802 96.125395 
L 52.372336 93.617876 
L 52.445603 98.883666 
L 52.51887 95.548666 
L 52.592137 95.849568 
L 52.665404 97.303929 
L 52.738671 95.247764 
L 52.811938 98.256786 
L 52.885205 94.570734 
L 52.958472 96.526598 
L 53.031739 95.172538 
L 53.105006 96.300922 
L 53.178273 96.075245 
L 53.324807 94.11938 
L 53.398074 94.294907 
L 53.471341 96.376147 
L 53.544608 93.3922 
L 53.691142 96.752275 
L 53.764409 96.651974 
L 53.837676 94.846561 
L 53.910943 96.401222 
L 53.98421 93.893704 
L 54.057477 95.623892 
L 54.130743 94.997012 
L 54.20401 96.300922 
L 54.350544 93.642952 
L 54.423811 95.37314 
L 54.497078 95.222689 
L 54.570345 94.345057 
L 54.643612 95.498516 
L 54.790146 94.395207 
L 54.863413 94.69611 
L 55.009947 93.542651 
L 55.156481 95.623892 
L 55.229748 92.063215 
L 55.449549 96.325997 
L 55.596083 92.389192 
L 55.742617 95.623892 
L 55.815884 95.448365 
L 55.962418 92.188591 
L 56.035685 94.721185 
L 56.108952 93.417275 
L 56.182219 93.668027 
L 56.255486 94.921786 
L 56.40202 92.339042 
L 56.548554 93.291899 
L 56.621821 92.013064 
L 56.695088 93.141448 
L 56.841622 91.361109 
L 56.988156 92.965922 
L 57.061423 89.931824 
L 57.13469 91.310959 
L 57.207957 92.790395 
L 57.281224 91.536636 
L 57.35449 87.223703 
L 57.501024 91.386185 
L 57.574291 91.210658 
L 57.720825 89.856598 
L 57.867359 92.414267 
L 58.013893 90.307952 
L 58.08716 90.207651 
L 58.160427 88.051185 
L 58.233694 88.527613 
L 58.306961 87.39923 
L 58.380228 90.358102 
L 58.453495 89.580771 
L 58.673296 87.975959 
L 58.746563 86.596824 
L 58.81983 87.298929 
L 58.893097 87.298929 
L 58.966364 87.675057 
L 59.259432 85.117387 
L 59.332699 88.80344 
L 59.405966 87.675057 
L 59.5525 85.092312 
L 59.625767 86.14547 
L 59.699034 84.565733 
L 59.845568 87.975959 
L 59.918835 83.763327 
L 59.992102 84.992012 
L 60.065369 85.368139 
L 60.138636 83.311974 
L 60.211903 84.239756 
L 60.28517 85.568741 
L 60.504971 81.50656 
L 60.578237 84.289906 
L 60.798038 79.575771 
L 60.944572 83.311974 
L 61.23764 79.826523 
L 61.310907 80.603854 
L 61.384174 79.976974 
L 61.530708 80.82953 
L 61.677242 75.789417 
L 61.823776 78.823515 
L 61.897043 77.644981 
L 61.97031 80.679079 
L 62.043577 76.466447 
L 62.116844 79.299944 
L 62.190111 78.698139 
L 62.336645 76.09032 
L 62.483179 79.274869 
L 62.556446 75.864643 
L 62.629713 75.990019 
L 62.70298 76.466447 
L 62.776247 73.908778 
L 62.849514 75.388214 
L 62.922781 72.780395 
L 63.069315 76.290921 
L 63.142582 75.087312 
L 63.215849 70.849605 
L 63.289116 73.507575 
L 63.43565 70.949906 
L 63.508917 74.435357 
L 63.728718 69.796447 
L 63.801984 69.495545 
L 64.021785 72.12844 
L 64.095052 70.272876 
L 64.168319 70.573778 
L 64.241586 72.103365 
L 64.38812 67.564755 
L 64.461387 67.213703 
L 64.534654 67.940883 
L 64.607921 67.213703 
L 64.754455 68.21671 
L 64.900989 65.809492 
L 65.047523 67.339079 
L 65.12079 66.86265 
L 65.194057 64.179605 
L 65.267324 65.834567 
L 65.340591 62.825545 
L 65.413858 65.358139 
L 65.487125 62.399267 
L 65.560392 63.953928 
L 65.706926 60.694154 
L 65.780193 63.602876 
L 65.85346 62.700169 
L 65.926727 64.054229 
L 66.219795 59.289943 
L 66.293062 60.468477 
L 66.366329 59.640996 
L 66.439596 63.226748 
L 66.512863 56.782424 
L 66.58613 58.036184 
L 66.659397 61.045206 
L 66.732664 58.537688 
L 66.805931 59.014116 
L 66.879198 61.145507 
L 66.952465 56.481522 
L 67.025731 58.236785 
L 67.098998 58.286936 
L 67.172265 55.779417 
L 67.245532 56.732274 
L 67.392066 53.347123 
L 67.5386 59.089342 
L 67.611867 56.055244 
L 67.758401 53.372199 
L 67.831668 53.397274 
L 67.904935 53.071296 
L 67.978202 52.118439 
L 68.124736 55.202687 
L 68.344537 49.009116 
L 68.491071 52.745319 
L 68.710872 51.115432 
L 68.784139 52.795469 
L 68.857406 50.463477 
L 68.930673 50.689153 
L 69.077207 51.917838 
L 69.370275 47.304003 
L 69.443542 52.996071 
L 69.590076 49.360168 
L 69.663343 49.661071 
L 69.73661 47.178627 
L 69.809877 48.056259 
L 69.956411 49.635996 
L 70.029678 50.137499 
L 70.102945 47.855657 
L 70.249479 51.441409 
L 70.322745 47.52968 
L 70.396012 49.686146 
L 70.469279 48.156559 
L 70.542546 50.2378 
L 70.68908 45.924868 
L 70.835614 49.836597 
L 70.908881 45.749341 
L 70.982148 47.504604 
L 71.055415 51.967988 
L 71.128682 49.686146 
L 71.201949 47.780432 
L 71.275216 49.661071 
L 71.348483 48.031183 
L 71.42175 48.482537 
L 71.495017 50.062274 
L 71.568284 49.711221 
L 71.641551 49.51062 
L 71.788085 46.27592 
L 71.861352 47.730281 
L 71.934619 46.501597 
L 72.227687 52.293966 
L 72.374221 48.833589 
L 72.447488 50.990056 
L 72.520755 48.683138 
L 72.594022 48.93389 
L 72.667289 48.88374 
L 72.740556 51.967988 
L 72.813823 48.708214 
L 72.88709 51.667086 
L 73.033624 49.134492 
L 73.106891 51.792462 
L 73.180158 44.445431 
L 73.326692 52.444417 
L 73.473226 50.613928 
L 73.619759 54.099379 
L 73.693026 50.18765 
L 73.766293 53.798477 
L 73.83956 50.012123 
L 73.912827 50.2378 
L 73.986094 55.428364 
L 74.059361 51.240808 
L 74.205895 56.807499 
L 74.279162 50.91483 
L 74.352429 54.701184 
L 74.498963 51.993063 
L 74.57223 54.274905 
L 74.645497 54.099379 
L 74.718764 53.547725 
L 74.792031 54.19968 
L 74.938565 56.983026 
L 75.011832 54.149529 
L 75.085099 54.651033 
L 75.158366 54.676108 
L 75.231633 55.704191 
L 75.3049 54.550733 
L 75.451434 58.412312 
L 75.524701 54.851635 
L 75.597968 55.754342 
L 75.671235 58.136484 
L 75.744502 53.497575 
L 75.817769 59.415319 
L 75.891036 58.537688 
L 75.964303 59.841597 
L 76.03757 58.111409 
L 76.184104 62.123439 
L 76.330638 57.935883 
L 76.403905 58.462462 
L 76.550439 63.251823 
L 76.623706 62.22374 
L 76.770239 59.039191 
L 76.843506 61.697161 
L 76.916773 59.390244 
L 77.136574 65.408289 
L 77.209841 59.56577 
L 77.283108 62.324041 
L 77.356375 64.530658 
L 77.429642 64.279906 
L 77.502909 63.627951 
L 77.576176 65.959943 
L 77.649443 65.182613 
L 77.72271 63.828552 
L 77.869244 64.931861 
L 77.942511 64.480507 
L 78.015778 66.988026 
L 78.089045 66.461447 
L 78.162312 66.988026 
L 78.235579 64.505582 
L 78.308846 64.681109 
L 78.382113 64.706184 
L 78.45538 70.523628 
L 78.601914 66.210695 
L 78.675181 68.317011 
L 78.821715 64.355131 
L 78.894982 68.818515 
L 78.968249 68.592838 
L 79.041516 68.89374 
L 79.114783 67.53968 
L 79.18805 68.317011 
L 79.261317 67.639981 
L 79.334584 67.915808 
L 79.554385 72.028139 
L 79.627652 70.297951 
L 79.700919 71.100357 
L 79.774186 71.702162 
L 79.847453 71.175583 
L 79.92072 72.629944 
L 79.993986 71.351109 
L 80.067253 73.53265 
L 80.14052 72.604868 
L 80.213787 70.82453 
L 80.287054 74.084304 
L 80.360321 72.755319 
L 80.433588 73.908778 
L 80.506855 72.228741 
L 80.653389 76.993026 
L 80.726656 75.588816 
L 80.87319 73.031147 
L 81.019724 76.667049 
L 81.092991 76.993026 
L 81.166258 75.212688 
L 81.239525 75.889718 
L 81.312792 75.889718 
L 81.386059 75.664041 
L 81.532593 77.544681 
L 81.60586 76.366147 
L 81.679127 78.397237 
L 81.752394 75.964944 
L 81.825661 77.218703 
L 82.118729 78.12141 
L 82.191996 80.453402 
L 82.33853 77.970959 
L 82.411797 83.211673 
L 82.485064 81.40626 
L 82.631598 79.375169 
L 82.851399 81.857613 
L 82.924666 81.606861 
L 82.997933 80.227726 
L 83.144467 83.663027 
L 83.364267 79.375169 
L 83.510801 83.337049 
L 83.584068 81.957914 
L 83.657335 83.562726 
L 83.730602 80.453402 
L 83.803869 83.4875 
L 83.877136 83.086297 
L 83.950403 82.835545 
L 84.170204 84.289906 
L 84.243471 83.086297 
L 84.316738 84.089305 
L 84.390005 81.807463 
L 84.609806 85.969944 
L 84.683073 87.073252 
L 84.75634 84.891711 
L 84.829607 87.073252 
L 84.902874 85.267839 
L 84.976141 88.176561 
L 85.049408 87.048177 
L 85.122675 85.343064 
L 85.342476 88.80344 
L 85.415743 88.828515 
L 85.562277 87.624906 
L 85.708811 89.38017 
L 85.782078 85.292914 
L 86.001879 91.887688 
L 86.148413 89.355094 
L 86.22168 90.383177 
L 86.294947 89.505546 
L 86.368214 90.909756 
L 86.44148 87.875658 
L 86.588014 94.11938 
L 86.734548 90.483478 
L 86.807815 90.282876 
L 86.881082 92.514568 
L 86.954349 91.712162 
L 87.027616 92.03814 
L 87.100883 91.987989 
L 87.17415 93.342049 
L 87.320684 91.687087 
L 87.393951 92.639944 
L 87.467218 90.483478 
L 87.540485 91.46141 
L 87.687019 93.542651 
L 87.760286 92.389192 
L 87.833553 92.665019 
L 87.90682 92.740245 
L 87.980087 95.899719 
L 88.053354 91.937839 
L 88.126621 92.965922 
L 88.273155 94.595809 
L 88.346422 93.342049 
L 88.419689 93.617876 
L 88.492956 94.896711 
L 88.566223 93.668027 
L 88.712757 96.77735 
L 88.786024 94.269831 
L 88.859291 94.921786 
L 89.005825 97.755283 
L 89.152359 95.573741 
L 89.225626 96.576749 
L 89.298893 95.47344 
L 89.37216 97.680057 
L 89.445427 97.329004 
L 89.518694 95.799418 
L 89.591961 96.626899 
L 89.665227 95.47344 
L 89.738494 96.250771 
L 89.811761 98.306937 
L 89.885028 95.924794 
L 89.958295 97.128403 
L 90.031562 97.654982 
L 90.104829 95.222689 
L 90.32463 100.312952 
L 90.544431 97.128403 
L 90.690965 99.034117 
L 90.764232 97.028102 
L 90.837499 100.563704 
L 90.910766 100.137426 
L 90.984033 101.692087 
L 91.0573 98.632914 
L 91.130567 100.513553 
L 91.203834 99.284869 
L 91.277101 100.814456 
L 91.350368 99.485471 
L 91.423635 102.369117 
L 91.496902 101.115358 
L 91.570169 100.037125 
L 91.716703 102.494493 
L 91.78997 101.967914 
L 91.863237 99.635922 
L 91.936504 103.848553 
L 92.009771 102.04314 
L 92.083038 99.936824 
L 92.302839 102.77032 
L 92.376106 103.121373 
L 92.449373 100.363102 
L 92.52264 101.641937 
L 92.595907 101.667012 
L 92.669174 103.647952 
L 92.742441 101.215659 
L 92.815708 104.801411 
L 92.888974 103.497501 
L 93.108775 103.146448 
L 93.255309 104.625884 
L 93.401843 102.695095 
L 93.548377 103.422275 
L 93.694911 104.776335 
L 93.841445 106.080245 
L 93.914712 103.622877 
L 93.987979 104.726185 
L 94.061246 104.70111 
L 94.134513 106.030095 
L 94.20778 103.898704 
L 94.281047 105.002012 
L 94.427581 103.547651 
L 94.500848 104.450358 
L 94.574115 103.372125 
L 94.647382 104.826486 
L 94.720649 104.249756 
L 94.793916 104.450358 
L 94.94045 106.556674 
L 95.013717 105.127388 
L 95.086984 106.506523 
L 95.160251 106.130396 
L 95.233518 105.603817 
L 95.306785 105.729193 
L 95.380052 109.314945 
L 95.526586 105.453365 
L 95.599853 105.202614 
L 95.67312 108.537614 
L 95.746387 108.337012 
L 95.819654 108.011035 
L 95.892921 106.857576 
L 96.039455 108.136411 
L 96.259255 105.077238 
L 96.405789 108.562689 
L 96.552323 108.562689 
L 96.62559 110.092275 
L 96.698857 106.932802 
L 96.772124 107.685057 
L 96.845391 106.406223 
L 96.918658 109.665997 
L 96.991925 108.66299 
L 97.065192 110.0672 
L 97.138459 109.139418 
L 97.211726 110.393178 
L 97.284993 109.089268 
L 97.35826 109.139418 
L 97.504794 109.816448 
L 97.651328 108.913742 
L 97.724595 106.531599 
L 97.871129 110.192576 
L 98.017663 109.540621 
L 98.09093 110.593779 
L 98.164197 108.136411 
L 98.310731 112.649945 
L 98.383998 110.618854 
L 98.457265 111.396185 
L 98.530532 109.816448 
L 98.603799 110.418253 
L 98.677066 110.844531 
L 98.750333 109.314945 
L 98.8236 112.349042 
L 98.896867 110.969907 
L 99.116668 113.051148 
L 99.189935 111.571712 
L 99.263202 111.897689 
L 99.336469 113.602802 
L 99.409735 111.245734 
L 99.483002 112.800396 
L 99.556269 111.822463 
L 99.629536 113.126373 
L 99.702803 110.69408 
L 99.77607 111.045133 
L 99.995871 113.251749 
L 100.069138 112.72517 
L 100.142405 113.452351 
L 100.215672 111.220659 
L 100.288939 111.672012 
L 100.362206 113.3019 
L 100.435473 110.493478 
L 100.50874 113.953854 
L 100.582007 112.850546 
L 100.655274 114.179531 
L 100.728541 113.35205 
L 100.801808 114.831486 
L 100.875075 114.65596 
L 100.948342 114.956862 
L 101.094876 113.151448 
L 101.314677 117.740208 
L 101.461211 113.4022 
L 101.681012 114.75626 
L 101.754279 114.154456 
L 101.827546 114.956862 
L 101.900813 113.678027 
L 101.97408 115.082238 
L 102.047347 115.007012 
L 102.120614 113.97893 
L 102.267148 115.95987 
L 102.340415 112.700095 
L 102.413682 113.35205 
L 102.486949 113.803403 
L 102.560216 115.884644 
L 102.633482 114.831486 
L 102.706749 116.110321 
L 102.780016 115.33299 
L 102.853283 116.110321 
L 102.92655 115.207614 
L 103.073084 117.163479 
L 103.146351 115.608817 
L 103.219618 116.185546 
L 103.292885 115.684042 
L 103.512686 117.815434 
L 103.585953 117.213629 
L 103.732487 114.781336 
L 103.879021 117.013027 
L 103.952288 116.035095 
L 104.098822 117.589757 
L 104.172089 116.987952 
L 104.245356 117.038103 
L 104.39189 118.943817 
L 104.465157 117.840509 
L 104.538424 118.66799 
L 104.611691 115.558667 
L 104.684958 117.088253 
L 104.831492 118.71814 
L 104.978026 115.809418 
L 105.051293 115.934794 
L 105.197827 119.094268 
L 105.344361 117.840509 
L 105.417628 117.940809 
L 105.490895 119.821449 
L 105.564162 117.113328 
L 105.637429 118.116336 
L 105.857229 118.843516 
L 105.930496 117.940809 
L 106.003763 118.216637 
L 106.07703 119.069193 
L 106.150297 118.943817 
L 106.223564 118.818441 
L 106.370098 119.896674 
L 106.443365 119.996975 
L 106.516632 120.473404 
L 106.589899 119.370095 
L 106.663166 120.423253 
L 106.736433 119.319945 
L 106.8097 120.573704 
L 106.882967 117.489456 
L 107.029501 120.799381 
L 107.176035 121.401185 
L 107.249302 119.269794 
L 107.322569 121.526561 
L 107.469103 119.746223 
L 107.688904 121.125358 
L 107.762171 119.319945 
L 107.835438 119.996975 
L 107.981972 120.749231 
L 108.055239 120.047125 
L 108.128506 122.028065 
L 108.201773 119.796373 
L 108.27504 120.774306 
L 108.348307 122.554644 
L 108.421574 120.623855 
L 108.494841 121.125358 
L 108.568108 120.69908 
L 108.641375 121.025058 
L 108.714642 122.579719 
L 108.787909 122.504494 
L 108.934443 121.752238 
L 109.00771 123.507501 
L 109.080976 121.852539 
L 109.154243 122.228667 
L 109.22751 121.451336 
L 109.374044 123.482426 
L 109.447311 120.799381 
L 109.520578 122.00299 
L 109.593845 121.401185 
L 109.813646 122.328967 
L 109.96018 121.32596 
L 110.033447 122.00299 
L 110.106714 124.009005 
L 110.179981 123.005998 
L 110.326515 124.309907 
L 110.399782 122.354043 
L 110.473049 122.830471 
L 110.546316 122.62987 
L 110.69285 123.632877 
L 110.766117 123.93378 
L 110.839384 125.438291 
L 110.985918 122.103291 
L 111.059185 124.986937 
L 111.132452 124.836486 
L 111.205719 124.736186 
L 111.278986 123.758253 
L 111.352253 124.510509 
L 111.42552 124.259757 
L 111.498787 123.056148 
L 111.572054 124.560659 
L 111.645321 123.858554 
L 111.718588 124.535584 
L 111.791855 123.958855 
L 111.865122 124.811411 
L 111.938389 122.830471 
L 112.011656 123.231674 
L 112.084923 123.181524 
L 112.231457 125.889644 
L 112.304723 124.886637 
L 112.451257 125.814419 
L 112.524524 123.98393 
L 112.597791 125.663968 
L 112.671058 123.582727 
L 112.817592 126.240697 
L 112.890859 125.613817 
L 112.964126 123.833479 
L 113.11066 126.366073 
L 113.476995 123.733178 
L 113.623529 126.391148 
L 113.696796 125.488441 
L 113.770063 125.814419 
L 113.84333 125.187539 
L 113.916597 125.38814 
L 113.989864 125.663968 
L 114.063131 127.018028 
L 114.136398 125.137389 
L 114.209665 125.187539 
L 114.282932 125.062163 
L 114.576 127.293855 
L 114.649267 127.118329 
L 114.722534 124.836486 
L 114.869068 126.666975 
L 114.942335 126.717125 
L 115.015602 125.312915 
L 115.088869 126.541599 
L 115.162136 126.240697 
L 115.235403 126.566674 
L 115.30867 125.96487 
L 115.381937 125.989945 
L 115.52847 127.720133 
L 115.675004 125.513516 
L 115.748271 126.240697 
L 115.821538 128.121336 
L 115.894805 125.914719 
L 115.968072 127.243704 
L 116.041339 127.068178 
L 116.114606 126.59175 
L 116.187873 128.422238 
L 116.26114 127.018028 
L 116.334407 127.31893 
L 116.407674 127.243704 
L 116.480941 125.563667 
L 116.554208 126.240697 
L 116.627475 127.619832 
L 116.700742 125.538592 
L 116.920543 127.970885 
L 116.99381 128.271787 
L 117.067077 129.29987 
L 117.140344 127.093253 
L 117.213611 127.26878 
L 117.360145 126.842501 
L 117.433412 127.544607 
L 117.506679 126.967877 
L 117.72648 128.271787 
L 117.799747 128.04611 
L 117.873014 128.321938 
L 117.946281 127.26878 
L 118.019548 128.973892 
L 118.092815 128.497464 
L 118.166082 126.842501 
L 118.239349 129.049118 
L 118.312616 128.071186 
L 118.45915 129.776299 
L 118.605684 127.99596 
L 118.678951 127.26878 
L 118.825484 129.024043 
L 118.898751 129.600772 
L 119.045285 127.845509 
L 119.118552 127.920735 
L 119.265086 129.701073 
L 119.338353 128.347013 
L 119.41162 129.24972 
L 119.484887 128.798366 
L 119.558154 128.898667 
L 119.704688 128.196562 
L 119.851222 129.550622 
L 119.924489 129.500471 
L 120.14429 129.801374 
L 120.364091 128.121336 
L 120.437358 130.578705 
L 120.510625 129.92675 
L 120.583892 128.748216 
L 120.657159 129.475396 
L 120.730426 129.199569 
L 120.803693 127.619832 
L 120.950227 130.177502 
L 121.096761 128.372088 
L 121.170028 129.35002 
L 121.243295 128.773291 
L 121.316562 130.353028 
L 121.389829 128.62284 
L 121.463096 130.052126 
L 121.536363 129.751223 
L 121.60963 127.594757 
L 121.682897 128.62284 
L 121.756164 127.845509 
L 121.829431 130.277802 
L 121.902698 130.02705 
L 122.049231 128.522539 
L 122.122498 130.979908 
L 122.195765 129.475396 
L 122.269032 130.553629 
L 122.342299 127.419231 
L 122.415566 128.422238 
L 122.488833 130.327953 
L 122.5621 129.92675 
L 122.708634 127.920735 
L 122.781901 128.221637 
L 122.855168 128.798366 
L 122.928435 130.528554 
L 123.001702 127.870584 
L 123.074969 130.177502 
L 123.148236 129.901674 
L 123.221503 129.851524 
L 123.441304 128.698065 
L 123.661105 129.901674 
L 123.807639 128.848517 
L 124.02744 131.406186 
L 124.173974 129.049118 
L 124.247241 130.052126 
L 124.393775 129.324945 
L 124.467042 130.102276 
L 124.540309 128.998968 
L 124.76011 131.707088 
L 124.979911 129.801374 
L 125.126445 130.65393 
L 125.199712 130.779306 
L 125.346245 129.24972 
L 125.419512 130.353028 
L 125.492779 129.9769 
L 125.566046 130.754231 
L 125.639313 130.478404 
L 125.71258 130.001975 
L 125.785847 130.578705 
L 125.859114 130.403178 
L 126.005648 130.979908 
L 126.078915 130.628855 
L 126.152182 131.080208 
L 126.371983 129.174494 
L 126.44525 130.353028 
L 126.591784 128.748216 
L 126.665051 130.929757 
L 126.738318 130.277802 
L 126.811585 129.751223 
L 126.884852 130.804381 
L 126.958119 130.152426 
L 127.031386 130.829456 
L 127.104653 130.202577 
L 127.17792 131.456336 
L 127.324454 129.726148 
L 127.397721 131.130359 
L 127.470988 130.503479 
L 127.544255 129.751223 
L 127.617522 131.807389 
L 127.764056 129.475396 
L 127.91059 131.757238 
L 127.983857 128.848517 
L 128.057124 130.578705 
L 128.130391 130.127351 
L 128.203658 131.381111 
L 128.276925 130.528554 
L 128.350192 131.90769 
L 128.423459 131.205584 
L 128.496725 129.876599 
L 128.569992 130.202577 
L 128.643259 129.450321 
L 128.716526 130.528554 
L 128.789793 130.02705 
L 128.86306 130.929757 
L 128.936327 130.252727 
L 129.082861 131.155434 
L 129.156128 129.826449 
L 129.229395 130.152426 
L 129.302662 132.258742 
L 129.449196 128.698065 
L 129.522463 130.979908 
L 129.59573 129.174494 
L 129.668997 130.528554 
L 129.815531 129.450321 
L 129.888798 131.431261 
L 129.962065 129.801374 
L 130.035332 130.979908 
L 130.108599 130.102276 
L 130.181866 130.879607 
L 130.255133 129.801374 
L 130.3284 131.105284 
L 130.401667 130.628855 
L 130.474934 131.506487 
L 130.694735 130.077201 
L 130.914536 131.030058 
L 130.987803 129.9769 
L 131.134337 132.258742 
L 131.207604 131.28081 
L 131.280871 131.456336 
L 131.354138 130.829456 
L 131.427405 131.832464 
L 131.500672 129.650923 
L 131.573939 130.478404 
L 131.647206 130.202577 
L 131.720472 130.954832 
L 131.867006 128.547614 
L 131.940273 130.904682 
L 132.01354 130.854532 
L 132.086807 129.701073 
L 132.160074 131.431261 
L 132.233341 131.28081 
L 132.306608 131.807389 
L 132.379875 128.397163 
L 132.453142 131.757238 
L 132.526409 131.356035 
L 132.599676 130.729156 
L 132.672943 130.829456 
L 132.74621 131.932765 
L 132.819477 131.105284 
L 132.892744 131.255735 
L 132.966011 131.431261 
L 133.039278 131.230659 
L 133.112545 132.183517 
L 133.185812 131.832464 
L 133.259079 131.180509 
L 133.332346 131.33096 
L 133.405613 131.255735 
L 133.552147 131.732163 
L 133.625414 130.829456 
L 133.698681 131.732163 
L 133.771948 130.679005 
L 133.845215 131.857539 
L 133.918482 131.230659 
L 134.138283 132.108291 
L 134.21155 130.804381 
L 134.284817 130.979908 
L 134.358084 130.252727 
L 134.431351 132.333968 
L 134.504618 130.428253 
L 134.577885 133.412201 
L 134.724419 130.102276 
L 134.870953 131.481411 
L 134.944219 130.829456 
L 135.017486 131.656938 
L 135.16402 129.675998 
L 135.383821 133.061148 
L 135.457088 131.406186 
L 135.530355 132.735171 
L 135.603622 132.308893 
L 135.676889 131.030058 
L 135.823423 131.807389 
L 135.969957 130.102276 
L 136.043224 131.707088 
L 136.116491 131.631862 
L 136.189758 131.456336 
L 136.263025 130.127351 
L 136.409559 132.434269 
L 136.482826 132.158441 
L 136.62936 131.205584 
L 136.702627 128.748216 
L 136.775894 131.255735 
L 136.849161 131.030058 
L 136.922428 131.406186 
L 136.995695 131.230659 
L 137.068962 130.227652 
L 137.142229 132.158441 
L 137.215496 130.65393 
L 137.36203 131.757238 
L 137.435297 131.230659 
L 137.508564 132.835472 
L 137.581831 130.378103 
L 137.655098 130.854532 
L 137.874899 133.813404 
L 137.948166 131.606787 
L 138.021433 133.186524 
L 138.0947 131.832464 
L 138.167966 132.960847 
L 138.241233 131.356035 
L 138.3145 133.010998 
L 138.534301 131.356035 
L 138.607568 133.387126 
L 138.680835 130.804381 
L 138.754102 131.982915 
L 138.900636 132.058141 
L 138.973903 132.985923 
L 139.266971 130.779306 
L 139.340238 131.932765 
L 139.413505 131.33096 
L 139.486772 132.384118 
L 139.633306 130.052126 
L 139.706573 130.528554 
L 139.77984 132.459344 
L 139.853107 132.00799 
L 139.999641 130.70408 
L 140.072908 131.732163 
L 140.146175 131.130359 
L 140.219442 132.484419 
L 140.292709 132.133366 
L 140.365976 132.183517 
L 140.439243 132.534569 
L 140.51251 130.428253 
L 140.585777 131.95784 
L 140.659044 130.628855 
L 140.805578 132.63487 
L 140.878845 132.509494 
L 141.025379 130.453329 
L 141.098646 132.434269 
L 141.171913 132.384118 
L 141.24518 132.58472 
L 141.391713 131.531562 
L 141.46498 132.459344 
L 141.538247 131.982915 
L 141.611514 131.606787 
L 141.684781 133.637878 
L 141.758048 132.68502 
L 141.831315 132.459344 
L 141.977849 131.732163 
L 142.124383 133.136374 
L 142.344184 131.581712 
L 142.417451 133.963855 
L 142.490718 133.111299 
L 142.637252 132.63487 
L 142.710519 131.406186 
L 142.783786 134.089231 
L 142.857053 133.111299 
L 142.93032 133.963855 
L 143.076854 132.534569 
L 143.223388 132.68502 
L 143.296655 133.387126 
L 143.369922 132.710096 
L 143.443189 130.60378 
L 143.516456 133.336975 
L 143.589723 132.434269 
L 143.66299 134.114306 
L 143.736257 133.336975 
L 143.809524 132.960847 
L 143.882791 131.932765 
L 143.956058 132.63487 
L 144.102592 131.606787 
L 144.175859 133.437276 
L 144.249126 132.735171 
L 144.39566 132.409193 
L 144.468927 132.00799 
L 144.542194 132.810396 
L 144.615461 131.757238 
L 144.761994 134.289832 
L 144.835261 133.36205 
L 144.908528 133.387126 
L 145.055062 133.036073 
L 145.128329 132.434269 
L 145.201596 132.760246 
L 145.274863 133.863554 
L 145.421397 132.208592 
L 145.494664 132.233667 
L 145.714465 135.067163 
L 145.787732 135.017013 
L 145.934266 132.033065 
L 146.007533 133.713103 
L 146.0808 132.885622 
L 146.154067 132.68502 
L 146.300601 133.387126 
L 146.373868 133.512502 
L 146.520402 133.36205 
L 146.666936 133.437276 
L 146.740203 132.509494 
L 146.886737 134.189532 
L 147.106538 132.935772 
L 147.179805 133.587727 
L 147.253072 131.807389 
L 147.326339 134.490434 
L 147.472873 132.158441 
L 147.692674 133.788329 
L 147.765941 133.286825 
L 147.839208 133.487426 
L 147.912474 135.142389 
L 147.985741 133.336975 
L 148.059008 134.791336 
L 148.132275 133.336975 
L 148.205542 133.963855 
L 148.278809 132.810396 
L 148.352076 133.36205 
L 148.425343 132.484419 
L 148.645144 135.468366 
L 148.791678 133.186524 
L 148.864945 134.314908 
L 148.938212 133.763254 
L 149.011479 134.039081 
L 149.084746 132.459344 
L 149.23128 134.214607 
L 149.304547 133.93878 
L 149.377814 134.239682 
L 149.451081 134.089231 
L 149.597615 133.637878 
L 149.744149 133.587727 
L 149.890683 134.691035 
L 149.96395 132.359043 
L 150.110484 134.766261 
L 150.257018 133.36205 
L 150.330285 132.935772 
L 150.403552 134.189532 
L 150.476819 133.562652 
L 150.550086 133.3119 
L 150.623353 133.863554 
L 150.769887 132.158441 
L 150.843154 136.045096 
L 150.916421 134.440284 
L 151.136221 133.487426 
L 151.282755 134.540584 
L 151.356022 133.111299 
L 151.429289 133.387126 
L 151.502556 133.437276 
L 151.575823 134.164457 
L 151.64909 133.738178 
L 151.722357 134.139381 
L 151.795624 133.462351 
L 151.942158 135.017013 
L 152.015425 133.512502 
L 152.088692 133.963855 
L 152.161959 132.810396 
L 152.308493 134.741186 
L 152.455027 132.68502 
L 152.601561 135.042088 
L 152.674828 134.289832 
L 152.748095 133.98893 
L 152.821362 134.716111 
L 152.894629 133.688028 
L 152.967896 134.966863 
L 153.041163 134.816411 
L 153.11443 133.487426 
L 153.187697 134.289832 
L 153.260964 133.788329 
L 153.407498 135.192539 
L 153.480765 134.089231 
L 153.554032 135.668968 
L 153.627299 133.913705 
L 153.773833 135.468366 
L 153.8471 133.713103 
L 153.920367 134.014005 
L 153.993634 133.637878 
L 154.066901 134.56566 
L 154.140168 132.559644 
L 154.213435 134.239682 
L 154.286702 133.738178 
L 154.433235 135.017013 
L 154.653036 133.713103 
L 154.726303 133.813404 
L 154.79957 133.838479 
L 155.019371 134.791336 
L 155.092638 133.512502 
L 155.165905 134.365058 
L 155.239172 133.186524 
L 155.312439 134.56566 
L 155.385706 132.459344 
L 155.53224 136.471374 
L 155.678774 133.412201 
L 155.825308 135.29284 
L 156.045109 132.835472 
L 156.118376 134.014005 
L 156.191643 133.562652 
L 156.26491 134.189532 
L 156.338177 134.139381 
L 156.411444 133.387126 
L 156.484711 134.741186 
L 156.557978 133.537577 
L 156.631245 134.891637 
L 156.704512 134.064156 
L 156.777779 135.518517 
L 156.851046 134.139381 
L 156.924313 134.214607 
L 157.070847 135.29284 
L 157.290648 133.537577 
L 157.363915 134.691035 
L 157.510449 133.863554 
L 157.583715 133.688028 
L 157.656982 135.568667 
L 157.730249 134.66596 
L 157.803516 134.164457 
L 157.876783 134.741186 
L 157.95005 134.515509 
L 158.023317 134.866562 
L 158.169851 133.387126 
L 158.316385 134.966863 
L 158.536186 134.189532 
L 158.755987 135.117314 
L 158.829254 135.067163 
L 158.902521 133.913705 
L 158.975788 135.192539 
L 159.049055 134.741186 
L 159.122322 135.744193 
L 159.268856 134.515509 
L 159.342123 134.139381 
L 159.41539 135.994945 
L 159.488657 133.612802 
L 159.561924 134.239682 
L 159.635191 134.214607 
L 159.781725 135.443291 
L 159.854992 133.93878 
L 159.928259 135.017013 
L 160.001526 133.813404 
L 160.074793 134.415208 
L 160.14806 135.443291 
L 160.221327 135.042088 
L 160.294594 134.61581 
L 160.441128 135.518517 
L 160.587662 134.239682 
L 160.660929 134.490434 
L 160.734196 134.164457 
L 160.807462 134.791336 
L 160.880729 133.788329 
L 161.10053 135.443291 
L 161.247064 134.66596 
L 161.320331 135.167464 
L 161.466865 133.838479 
L 161.613399 135.393141 
L 161.759933 132.960847 
L 161.979734 136.421223 
L 162.199535 133.036073 
L 162.272802 134.766261 
L 162.346069 134.189532 
L 162.419336 133.36205 
L 162.492603 136.722126 
L 162.639137 133.512502 
L 162.712404 135.142389 
L 162.785671 134.189532 
L 162.932205 135.994945 
L 163.005472 134.465359 
L 163.078739 135.317915 
L 163.152006 134.540584 
L 163.225273 134.816411 
L 163.29854 134.966863 
L 163.371807 134.440284 
L 163.445074 134.741186 
L 163.518341 133.662953 
L 163.591608 134.289832 
L 163.664875 133.136374 
L 163.884676 135.769269 
L 163.957943 135.593742 
L 164.104476 133.763254 
L 164.177743 133.963855 
L 164.324277 135.819419 
L 164.470811 134.139381 
L 164.763879 135.994945 
L 164.910413 133.863554 
L 165.056947 135.668968 
L 165.130214 133.36205 
L 165.276748 136.396148 
L 165.496549 132.960847 
L 165.569816 135.042088 
L 165.643083 134.365058 
L 165.789617 135.518517 
L 165.862884 133.93878 
L 165.936151 134.189532 
L 166.009418 133.738178 
L 166.082685 134.640885 
L 166.155952 133.387126 
L 166.229219 133.562652 
L 166.44902 135.894645 
L 166.668821 133.738178 
L 166.815355 134.640885 
L 166.888622 134.064156 
L 166.961889 135.844494 
L 167.035156 135.017013 
L 167.108423 134.966863 
L 167.254956 134.640885 
L 167.40149 135.894645 
L 167.474757 134.941787 
L 167.548024 135.042088 
L 167.621291 134.716111 
L 167.694558 136.220622 
L 167.767825 134.716111 
L 167.841092 134.966863 
L 167.987626 133.963855 
L 168.060893 136.195547 
L 168.13416 135.944795 
L 168.280694 134.264757 
L 168.353961 134.691035 
L 168.427228 134.640885 
L 168.500495 135.34299 
L 168.647029 133.863554 
L 168.793563 135.217614 
L 168.86683 134.766261 
L 168.940097 133.136374 
L 169.086631 135.794344 
L 169.159898 134.841487 
L 169.233165 136.571675 
L 169.526233 133.813404 
L 169.5995 133.963855 
L 169.672767 136.045096 
L 169.746034 133.462351 
L 169.819301 134.139381 
L 169.965835 134.465359 
L 170.039102 133.412201 
L 170.112369 135.944795 
L 170.185636 134.540584 
L 170.258903 134.866562 
L 170.33217 134.916712 
L 170.405437 135.468366 
L 170.55197 133.562652 
L 170.698504 134.66596 
L 170.771771 134.089231 
L 170.845038 134.791336 
L 170.918305 134.56566 
L 170.991572 133.537577 
L 171.064839 135.493442 
L 171.138106 133.813404 
L 171.28464 135.267765 
L 171.357907 133.98893 
L 171.431174 134.415208 
L 171.504441 135.117314 
L 171.577708 133.763254 
L 171.650975 134.114306 
L 171.797509 135.317915 
L 171.870776 133.562652 
L 171.944043 134.61581 
L 172.01731 133.763254 
L 172.237111 135.91972 
L 172.310378 135.34299 
L 172.383645 134.56566 
L 172.456912 136.922727 
L 172.676713 133.713103 
L 172.74998 134.816411 
L 172.823247 134.61581 
L 172.896514 134.490434 
L 172.969781 135.96987 
L 173.116315 134.415208 
L 173.189582 135.994945 
L 173.336116 134.114306 
L 173.409383 136.220622 
L 173.48265 134.064156 
L 173.555917 135.042088 
L 173.629184 135.844494 
L 173.702451 134.139381 
L 173.775717 135.368066 
L 173.848984 134.916712 
L 173.922251 135.29284 
L 173.995518 134.540584 
L 174.142052 135.543592 
L 174.215319 133.387126 
L 174.288586 133.98893 
L 174.43512 134.941787 
L 174.508387 134.941787 
L 174.581654 134.766261 
L 174.654921 133.26175 
L 174.874722 135.543592 
L 175.094523 133.487426 
L 175.241057 134.064156 
L 175.314324 133.913705 
L 175.387591 135.769269 
L 175.460858 132.333968 
L 175.607392 134.440284 
L 175.680659 134.515509 
L 175.753926 134.415208 
L 175.973727 132.785321 
L 176.120261 134.590735 
L 176.193528 134.390133 
L 176.266795 133.36205 
L 176.340062 134.66596 
L 176.413329 133.913705 
L 176.63313 135.393141 
L 176.779664 135.167464 
L 176.852931 133.161449 
L 176.926198 133.813404 
L 176.999464 134.766261 
L 177.072731 133.061148 
L 177.145998 134.515509 
L 177.219265 133.713103 
L 177.292532 135.29284 
L 177.365799 133.813404 
L 177.439066 133.963855 
L 177.512333 134.841487 
L 177.5856 134.56566 
L 177.658867 134.816411 
L 177.732134 133.688028 
L 177.878668 134.791336 
L 177.951935 133.086223 
L 178.025202 134.716111 
L 178.098469 133.98893 
L 178.171736 134.089231 
L 178.31827 134.66596 
L 178.391537 134.365058 
L 178.464804 135.24269 
L 178.538071 133.111299 
L 178.611338 135.092239 
L 178.684605 133.637878 
L 178.904406 135.518517 
L 179.05094 134.465359 
L 179.124207 133.863554 
L 179.197474 135.017013 
L 179.270741 134.791336 
L 179.417275 133.863554 
L 179.490542 135.067163 
L 179.563809 134.465359 
L 179.637076 134.490434 
L 179.710343 132.960847 
L 179.78361 134.264757 
L 179.856877 133.662953 
L 180.076678 134.66596 
L 180.149945 133.161449 
L 180.223211 136.120321 
L 180.369745 133.813404 
L 180.443012 135.518517 
L 180.516279 135.418216 
L 180.589546 133.211599 
L 180.73608 136.671975 
L 180.955881 132.534569 
L 181.102415 134.114306 
L 181.395483 134.941787 
L 181.46875 133.738178 
L 181.542017 134.064156 
L 181.615284 135.092239 
L 181.688551 135.017013 
L 181.761818 135.443291 
L 181.908352 133.788329 
L 181.981619 134.189532 
L 182.054886 135.24269 
L 182.128153 134.640885 
L 182.20142 135.418216 
L 182.347954 133.512502 
L 182.421221 135.24269 
L 182.494488 133.437276 
L 182.567755 134.991938 
L 182.641022 134.766261 
L 182.787556 134.264757 
L 182.860823 135.418216 
L 183.007357 133.788329 
L 183.153891 134.891637 
L 183.373692 133.738178 
L 183.446958 133.963855 
L 183.520225 134.61581 
L 183.593492 133.437276 
L 183.666759 133.863554 
L 183.813293 134.716111 
L 183.88656 133.161449 
L 183.959827 133.211599 
L 184.033094 133.93878 
L 184.106361 133.738178 
L 184.179628 134.014005 
L 184.252895 133.512502 
L 184.326162 133.662953 
L 184.472696 134.314908 
L 184.545963 134.139381 
L 184.61923 134.214607 
L 184.692497 134.164457 
L 184.765764 135.543592 
L 184.839031 134.014005 
L 184.912298 135.694043 
L 185.058832 132.434269 
L 185.132099 135.543592 
L 185.205366 134.991938 
L 185.278633 134.440284 
L 185.3519 134.465359 
L 185.425167 134.365058 
L 185.498434 135.192539 
L 185.571701 133.738178 
L 185.644968 134.490434 
L 185.718235 134.390133 
L 185.791502 133.537577 
L 185.864769 133.788329 
L 185.938036 134.189532 
L 186.011303 134.014005 
L 186.08457 134.139381 
L 186.157837 134.816411 
L 186.231104 134.189532 
L 186.304371 134.314908 
L 186.377638 135.368066 
L 186.450905 133.662953 
L 186.524172 134.365058 
L 186.597439 134.214607 
L 186.670705 135.719118 
L 186.743972 135.543592 
L 186.817239 134.264757 
L 186.890506 135.117314 
L 187.03704 133.713103 
L 187.110307 135.29284 
L 187.183574 133.788329 
L 187.256841 134.991938 
L 187.330108 134.540584 
L 187.403375 133.487426 
L 187.549909 135.96987 
L 187.623176 135.042088 
L 187.696443 134.590735 
L 187.76971 135.568667 
L 187.916244 133.186524 
L 187.989511 135.794344 
L 188.062778 133.111299 
L 188.282579 135.518517 
L 188.429113 133.93878 
L 188.50238 134.540584 
L 188.575647 133.186524 
L 188.648914 134.741186 
L 188.722181 134.61581 
L 188.795448 133.487426 
L 188.868715 133.863554 
L 188.941982 135.192539 
L 189.088516 132.935772 
L 189.161783 133.036073 
L 189.23505 135.217614 
L 189.308317 133.713103 
L 189.381584 134.014005 
L 189.454851 134.314908 
L 189.528118 133.487426 
L 189.601385 135.34299 
L 189.674652 133.813404 
L 189.747919 134.916712 
L 189.821186 134.314908 
L 189.894452 135.042088 
L 189.967719 133.061148 
L 190.040986 134.540584 
L 190.114253 134.164457 
L 190.18752 134.014005 
L 190.260787 134.214607 
L 190.480588 135.443291 
L 190.553855 133.713103 
L 190.627122 135.668968 
L 190.700389 133.763254 
L 190.773656 134.515509 
" clip-path="url(#pd9c88f81a2)" style="fill: none; stroke: #1f77b4; stroke-width: 0.5; stroke-linecap: square"/>
   </g>
   <g id="patch_3">
    <path d="M 23.410313 143.1 
L 23.410313 7.2 
" style="fill: none; stroke: #000000; stroke-width: 0.8; stroke-linejoin: miter; stroke-linecap: square"/>
   </g>
   <g id="patch_4">
    <path d="M 190.810313 143.1 
L 190.810313 7.2 
" style="fill: none; stroke: #000000; stroke-width: 0.8; stroke-linejoin: miter; stroke-linecap: square"/>
   </g>
   <g id="patch_5">
    <path d="M 23.410313 143.1 
L 190.810313 143.1 
" style="fill: none; stroke: #000000; stroke-width: 0.8; stroke-linejoin: miter; stroke-linecap: square"/>
   </g>
   <g id="patch_6">
    <path d="M 23.410313 7.2 
L 190.810313 7.2 
" style="fill: none; stroke: #000000; stroke-width: 0.8; stroke-linejoin: miter; stroke-linecap: square"/>
   </g>
  </g>
 </g>
 <defs>
  <clipPath id="pd9c88f81a2">
   <rect x="23.410313" y="7.2" width="167.4" height="135.9"/>
  </clipPath>
 </defs>
</svg>
